<?xml version="1.0" encoding="utf-8"?>
<svg xmlns="http://www.w3.org/2000/svg" version="1.1" width="850" height="750">
<rect width="850" height="15" x="0" y="0" fill="white" />
<rect width="850" height="15" x="0" y="735" fill="white" />
<rect width="25" height="750" x="0" y="0" fill="white" />
<rect width="25" height="750" x="825" y="0" fill="white" />
<rect width="810" height="144" x="25" y="15" fill="ghostwhite" />
<rect width="810" height="144" x="25" y="159" fill="snow" />
<rect width="810" height="144" x="25" y="303" fill="ghostwhite" />
<rect width="810" height="144" x="25" y="447" fill="snow" />
<rect width="810" height="144" x="25" y="591" fill="ghostwhite" />
<text x="12" y="87" font-family="Verdana" font-size="10" text-anchor="middle"  dominant-baseline="middle" fill="red" > D0</text>
<text x="12" y="231" font-family="Verdana" font-size="10" text-anchor="middle"  dominant-baseline="middle" fill="red" > D1</text>
<text x="12" y="375" font-family="Verdana" font-size="10" text-anchor="middle"  dominant-baseline="middle" fill="red" > D2</text>
<text x="12" y="519" font-family="Verdana" font-size="10" text-anchor="middle"  dominant-baseline="middle" fill="red" > D3</text>
<text x="12" y="663" font-family="Verdana" font-size="10" text-anchor="middle"  dominant-baseline="middle" fill="red" > D4</text>
<text x="12" y="20" font-family="Verdana" font-size="10" text-anchor="middle"  dominant-baseline="middle" fill="black" > 0</text>
<text x="12" y="164" font-family="Verdana" font-size="10" text-anchor="middle"  dominant-baseline="middle" fill="black" > 144</text>
<text x="12" y="308" font-family="Verdana" font-size="10" text-anchor="middle"  dominant-baseline="middle" fill="black" > 288</text>
<text x="12" y="452" font-family="Verdana" font-size="10" text-anchor="middle"  dominant-baseline="middle" fill="black" > 432</text>
<text x="12" y="596" font-family="Verdana" font-size="10" text-anchor="middle"  dominant-baseline="middle" fill="black" > 576</text>
<text x="12" y="740" font-family="Verdana" font-size="10" text-anchor="middle"  dominant-baseline="middle" fill="black" > 720</text>
<text x="100" y="7" font-family="Verdana" font-size="7" text-anchor="middle"  dominant-baseline="middle" fill="black" > C1</text>
<circle cx="100" cy="15" r="4" fill="white" stroke="black" />
<line x1="100" y1="19" x2="100" y2="271" stroke="black" />
<line x1="50" y1="271" x2="150" y2="271" stroke="black" />
<text x="125" y="263" font-family="Verdana" font-size="8" text-anchor="middle"  dominant-baseline="middle" fill="black" > 256</text>
<circle cx="50" cy="271" r="4" fill="white" stroke="black" />
<circle cx="150" cy="271" r="4" fill="white" stroke="black" />
<line x1="50" y1="275" x2="50" y2="379" stroke="black" />
<line x1="50" y1="379" x2="100" y2="415" stroke="black" />
<line x1="150" y1="275" x2="150" y2="379" stroke="black" />
<line x1="150" y1="379" x2="100" y2="415" stroke="black" />
<text x="100" y="403" font-family="Verdana" font-size="8" text-anchor="middle"  dominant-baseline="middle" fill="black" > 400</text>
<circle cx="100" cy="415" r="4" fill="white" stroke="black" />
<line x1="100" y1="419" x2="100" y2="474" stroke="black" />
<line x1="66" y1="474" x2="134" y2="474" stroke="black" />
<text x="108" y="466" font-family="Verdana" font-size="8" text-anchor="middle"  dominant-baseline="middle" fill="black" > 459</text>
<circle cx="66" cy="474" r="4" fill="white" stroke="black" />
<line x1="66" y1="478" x2="66" y2="701" stroke="black" />
<line x1="55" y1="701" x2="78" y2="701" stroke="black" />
<text x="68" y="693" font-family="Verdana" font-size="8" text-anchor="middle"  dominant-baseline="middle" fill="black" > 686</text>
<circle cx="55" cy="701" r="4" fill="white" stroke="black" />
<line x1="55" y1="705" x2="55" y2="736" stroke="black" />
<circle cx="55" cy="736" r="4" fill="white" stroke="black" />
<text x="55" y="748" font-family="Verdana" font-size="8" text-anchor="middle"  dominant-baseline="middle" fill="black" > 721</text>
<circle cx="66" cy="701" r="4" fill="white" stroke="black" />
<line x1="66" y1="705" x2="66" y2="736" stroke="black" />
<circle cx="66" cy="736" r="4" fill="white" stroke="black" />
<text x="66" y="748" font-family="Verdana" font-size="8" text-anchor="middle"  dominant-baseline="middle" fill="black" > 721</text>
<circle cx="77" cy="701" r="4" fill="white" stroke="black" />
<line x1="77" y1="705" x2="77" y2="736" stroke="black" />
<circle cx="77" cy="736" r="4" fill="white" stroke="black" />
<text x="77" y="748" font-family="Verdana" font-size="8" text-anchor="middle"  dominant-baseline="middle" fill="black" > 721</text>
<circle cx="99" cy="474" r="4" fill="white" stroke="black" />
<line x1="99" y1="478" x2="99" y2="736" stroke="black" />
<circle cx="99" cy="736" r="4" fill="white" stroke="black" />
<text x="99" y="748" font-family="Verdana" font-size="8" text-anchor="middle"  dominant-baseline="middle" fill="black" > 721</text>
<circle cx="132" cy="474" r="4" fill="white" stroke="black" />
<line x1="132" y1="478" x2="132" y2="685" stroke="black" />
<line x1="124" y1="685" x2="141" y2="685" stroke="black" />
<text x="136" y="677" font-family="Verdana" font-size="8" text-anchor="middle"  dominant-baseline="middle" fill="black" > 670</text>
<circle cx="124" cy="685" r="4" fill="white" stroke="black" />
<line x1="124" y1="689" x2="124" y2="736" stroke="black" />
<circle cx="124" cy="736" r="4" fill="white" stroke="black" />
<text x="124" y="748" font-family="Verdana" font-size="8" text-anchor="middle"  dominant-baseline="middle" fill="black" > 721</text>
<circle cx="140" cy="685" r="4" fill="white" stroke="black" />
<line x1="140" y1="689" x2="140" y2="736" stroke="black" />
<circle cx="140" cy="736" r="4" fill="white" stroke="black" />
<text x="140" y="748" font-family="Verdana" font-size="8" text-anchor="middle"  dominant-baseline="middle" fill="black" > 721</text>
<text x="300" y="7" font-family="Verdana" font-size="7" text-anchor="middle"  dominant-baseline="middle" fill="black" > C2</text>
<circle cx="300" cy="15" r="4" fill="white" stroke="black" />
<line x1="300" y1="19" x2="300" y2="263" stroke="black" />
<line x1="250" y1="263" x2="350" y2="263" stroke="black" />
<text x="325" y="255" font-family="Verdana" font-size="8" text-anchor="middle"  dominant-baseline="middle" fill="black" > 248</text>
<circle cx="250" cy="263" r="4" fill="white" stroke="black" />
<line x1="250" y1="267" x2="250" y2="581" stroke="black" />
<line x1="246" y1="577" x2="254" y2="585" stroke="red" />
<line x1="246" y1="585" x2="254" y2="577" stroke="red" />
<text x="250" y="593" font-family="Verdana" font-size="8" text-anchor="middle"  dominant-baseline="middle" fill="black" > 566</text>
<circle cx="350" cy="263" r="4" fill="white" stroke="black" />
<line x1="350" y1="267" x2="350" y2="691" stroke="black" />
<line x1="346" y1="687" x2="354" y2="695" stroke="red" />
<line x1="346" y1="695" x2="354" y2="687" stroke="red" />
<text x="350" y="703" font-family="Verdana" font-size="8" text-anchor="middle"  dominant-baseline="middle" fill="black" > 676</text>
<text x="500" y="7" font-family="Verdana" font-size="7" text-anchor="middle"  dominant-baseline="middle" fill="black" > C3</text>
<circle cx="500" cy="15" r="4" fill="white" stroke="black" />
<line x1="500" y1="19" x2="500" y2="166" stroke="black" />
<line x1="450" y1="166" x2="550" y2="166" stroke="black" />
<text x="525" y="158" font-family="Verdana" font-size="8" text-anchor="middle"  dominant-baseline="middle" fill="black" > 151</text>
<circle cx="450" cy="166" r="4" fill="white" stroke="black" />
<line x1="450" y1="170" x2="450" y2="533" stroke="black" />
<line x1="425" y1="533" x2="475" y2="533" stroke="black" />
<text x="462" y="525" font-family="Verdana" font-size="8" text-anchor="middle"  dominant-baseline="middle" fill="black" > 518</text>
<circle cx="425" cy="533" r="4" fill="white" stroke="black" />
<line x1="425" y1="537" x2="425" y2="635" stroke="black" />
<line x1="421" y1="631" x2="429" y2="639" stroke="red" />
<line x1="421" y1="639" x2="429" y2="631" stroke="red" />
<text x="425" y="647" font-family="Verdana" font-size="8" text-anchor="middle"  dominant-baseline="middle" fill="black" > 620</text>
<circle cx="475" cy="533" r="4" fill="white" stroke="black" />
<line x1="475" y1="537" x2="475" y2="690" stroke="black" />
<line x1="462" y1="690" x2="488" y2="690" stroke="black" />
<text x="481" y="682" font-family="Verdana" font-size="8" text-anchor="middle"  dominant-baseline="middle" fill="black" > 675</text>
<circle cx="462" cy="690" r="4" fill="white" stroke="black" />
<circle cx="487" cy="690" r="4" fill="white" stroke="black" />
<line x1="462" y1="694" x2="462" y2="709" stroke="black" />
<line x1="462" y1="709" x2="474" y2="715" stroke="black" />
<line x1="487" y1="694" x2="487" y2="709" stroke="black" />
<line x1="487" y1="709" x2="474" y2="715" stroke="black" />
<text x="474" y="703" font-family="Verdana" font-size="8" text-anchor="middle"  dominant-baseline="middle" fill="black" > 700</text>
<circle cx="474" cy="715" r="4" fill="white" stroke="black" />
<line x1="474" y1="719" x2="474" y2="736" stroke="black" />
<circle cx="474" cy="736" r="4" fill="white" stroke="black" />
<text x="474" y="748" font-family="Verdana" font-size="8" text-anchor="middle"  dominant-baseline="middle" fill="black" > 721</text>
<circle cx="550" cy="166" r="4" fill="white" stroke="black" />
<line x1="550" y1="170" x2="550" y2="295" stroke="black" />
<line x1="546" y1="291" x2="554" y2="299" stroke="red" />
<line x1="546" y1="299" x2="554" y2="291" stroke="red" />
<text x="550" y="307" font-family="Verdana" font-size="8" text-anchor="middle"  dominant-baseline="middle" fill="black" > 280</text>
<text x="700" y="7" font-family="Verdana" font-size="7" text-anchor="middle"  dominant-baseline="middle" fill="black" > C4</text>
<circle cx="700" cy="15" r="4" fill="white" stroke="black" />
<line x1="700" y1="19" x2="700" y2="138" stroke="black" />
<line x1="650" y1="138" x2="750" y2="138" stroke="black" />
<text x="725" y="130" font-family="Verdana" font-size="8" text-anchor="middle"  dominant-baseline="middle" fill="black" > 123</text>
<circle cx="650" cy="138" r="4" fill="white" stroke="black" />
<line x1="650" y1="142" x2="650" y2="474" stroke="black" />
<line x1="646" y1="478" x2="650" y2="470" stroke="blue" />
<line x1="650" y1="478" x2="654" y2="470" stroke="blue" />
<text x="650" y="486" font-family="Verdana" font-size="8" text-anchor="middle"  dominant-baseline="middle" fill="black" > 459</text>
<circle cx="750" cy="138" r="4" fill="white" stroke="black" />
<line x1="750" y1="142" x2="750" y2="499" stroke="black" />
<line x1="725" y1="499" x2="775" y2="499" stroke="black" />
<text x="762" y="491" font-family="Verdana" font-size="8" text-anchor="middle"  dominant-baseline="middle" fill="black" > 484</text>
<circle cx="725" cy="499" r="4" fill="white" stroke="black" />
<line x1="725" y1="503" x2="725" y2="736" stroke="black" />
<circle cx="725" cy="736" r="4" fill="white" stroke="black" />
<text x="725" y="748" font-family="Verdana" font-size="8" text-anchor="middle"  dominant-baseline="middle" fill="black" > 721</text>
<circle cx="775" cy="499" r="4" fill="white" stroke="black" />
<line x1="775" y1="503" x2="775" y2="727" stroke="black" />
<line x1="762" y1="727" x2="788" y2="727" stroke="black" />
<text x="781" y="719" font-family="Verdana" font-size="8" text-anchor="middle"  dominant-baseline="middle" fill="black" > 712</text>
<circle cx="762" cy="727" r="4" fill="white" stroke="black" />
<line x1="762" y1="731" x2="762" y2="736" stroke="black" />
<circle cx="762" cy="736" r="4" fill="white" stroke="black" />
<text x="762" y="748" font-family="Verdana" font-size="8" text-anchor="middle"  dominant-baseline="middle" fill="black" > 721</text>
<circle cx="787" cy="727" r="4" fill="white" stroke="black" />
<line x1="787" y1="731" x2="787" y2="736" stroke="black" />
<circle cx="787" cy="736" r="4" fill="white" stroke="black" />
<text x="787" y="748" font-family="Verdana" font-size="8" text-anchor="middle"  dominant-baseline="middle" fill="black" > 721</text>
</svg>
