<?xml version="1.0" encoding="utf-8"?>
<svg xmlns="http://www.w3.org/2000/svg" version="1.1" width="1350" height="750">
<rect width="1350" height="15" x="0" y="0" fill="white" />
<rect width="1350" height="15" x="0" y="735" fill="white" />
<rect width="25" height="750" x="0" y="0" fill="white" />
<rect width="25" height="750" x="1325" y="0" fill="white" />
<rect width="1310" height="144" x="25" y="15" fill="ghostwhite" />
<rect width="1310" height="144" x="25" y="159" fill="snow" />
<rect width="1310" height="144" x="25" y="303" fill="ghostwhite" />
<rect width="1310" height="144" x="25" y="447" fill="snow" />
<rect width="1310" height="144" x="25" y="591" fill="ghostwhite" />
<text x="12" y="87" font-family="Verdana" font-size="10" text-anchor="middle"  dominant-baseline="middle" fill="red" > D0</text>
<text x="12" y="231" font-family="Verdana" font-size="10" text-anchor="middle"  dominant-baseline="middle" fill="red" > D1</text>
<text x="12" y="375" font-family="Verdana" font-size="10" text-anchor="middle"  dominant-baseline="middle" fill="red" > D2</text>
<text x="12" y="519" font-family="Verdana" font-size="10" text-anchor="middle"  dominant-baseline="middle" fill="red" > D3</text>
<text x="12" y="663" font-family="Verdana" font-size="10" text-anchor="middle"  dominant-baseline="middle" fill="red" > D4</text>
<text x="12" y="20" font-family="Verdana" font-size="10" text-anchor="middle"  dominant-baseline="middle" fill="black" > 0</text>
<text x="12" y="164" font-family="Verdana" font-size="10" text-anchor="middle"  dominant-baseline="middle" fill="black" > 144</text>
<text x="12" y="308" font-family="Verdana" font-size="10" text-anchor="middle"  dominant-baseline="middle" fill="black" > 288</text>
<text x="12" y="452" font-family="Verdana" font-size="10" text-anchor="middle"  dominant-baseline="middle" fill="black" > 432</text>
<text x="12" y="596" font-family="Verdana" font-size="10" text-anchor="middle"  dominant-baseline="middle" fill="black" > 576</text>
<text x="12" y="740" font-family="Verdana" font-size="10" text-anchor="middle"  dominant-baseline="middle" fill="black" > 720</text>
<text x="50" y="7" font-family="Verdana" font-size="7" text-anchor="middle"  dominant-baseline="middle" fill="black" > C1</text>
<circle cx="50" cy="15" r="4" fill="white" stroke="black" />
<line x1="50" y1="19" x2="50" y2="736" stroke="black" />
<circle cx="50" cy="736" r="4" fill="white" stroke="black" />
<text x="50" y="748" font-family="Verdana" font-size="8" text-anchor="middle"  dominant-baseline="middle" fill="black" > 721</text>
<text x="200" y="7" font-family="Verdana" font-size="7" text-anchor="middle"  dominant-baseline="middle" fill="black" > C2</text>
<circle cx="200" cy="15" r="4" fill="white" stroke="black" />
<line x1="200" y1="19" x2="200" y2="185" stroke="black" />
<line x1="150" y1="185" x2="250" y2="185" stroke="black" />
<text x="225" y="177" font-family="Verdana" font-size="8" text-anchor="middle"  dominant-baseline="middle" fill="black" > 170</text>
<circle cx="150" cy="185" r="4" fill="white" stroke="black" />
<line x1="150" y1="189" x2="150" y2="691" stroke="black" />
<line x1="146" y1="687" x2="154" y2="695" stroke="red" />
<line x1="146" y1="695" x2="154" y2="687" stroke="red" />
<text x="150" y="703" font-family="Verdana" font-size="8" text-anchor="middle"  dominant-baseline="middle" fill="black" > 676</text>
<circle cx="250" cy="185" r="4" fill="white" stroke="black" />
<line x1="250" y1="189" x2="250" y2="660" stroke="black" />
<line x1="246" y1="656" x2="254" y2="664" stroke="red" />
<line x1="246" y1="664" x2="254" y2="656" stroke="red" />
<text x="250" y="672" font-family="Verdana" font-size="8" text-anchor="middle"  dominant-baseline="middle" fill="black" > 645</text>
<text x="400" y="7" font-family="Verdana" font-size="7" text-anchor="middle"  dominant-baseline="middle" fill="black" > C3</text>
<circle cx="400" cy="15" r="4" fill="white" stroke="black" />
<line x1="400" y1="19" x2="400" y2="179" stroke="black" />
<line x1="350" y1="179" x2="450" y2="179" stroke="black" />
<text x="425" y="171" font-family="Verdana" font-size="8" text-anchor="middle"  dominant-baseline="middle" fill="black" > 164</text>
<circle cx="350" cy="179" r="4" fill="white" stroke="black" />
<line x1="350" y1="183" x2="350" y2="442" stroke="black" />
<line x1="325" y1="442" x2="375" y2="442" stroke="black" />
<text x="362" y="434" font-family="Verdana" font-size="8" text-anchor="middle"  dominant-baseline="middle" fill="black" > 427</text>
<circle cx="325" cy="442" r="4" fill="white" stroke="black" />
<line x1="325" y1="446" x2="325" y2="558" stroke="black" />
<line x1="321" y1="554" x2="329" y2="562" stroke="red" />
<line x1="321" y1="562" x2="329" y2="554" stroke="red" />
<text x="325" y="570" font-family="Verdana" font-size="8" text-anchor="middle"  dominant-baseline="middle" fill="black" > 543</text>
<circle cx="375" cy="442" r="4" fill="white" stroke="black" />
<line x1="375" y1="446" x2="375" y2="736" stroke="black" />
<circle cx="375" cy="736" r="4" fill="white" stroke="black" />
<text x="375" y="748" font-family="Verdana" font-size="8" text-anchor="middle"  dominant-baseline="middle" fill="black" > 721</text>
<circle cx="450" cy="179" r="4" fill="white" stroke="black" />
<line x1="450" y1="183" x2="450" y2="431" stroke="black" />
<line x1="425" y1="431" x2="475" y2="431" stroke="black" />
<text x="462" y="423" font-family="Verdana" font-size="8" text-anchor="middle"  dominant-baseline="middle" fill="black" > 416</text>
<circle cx="425" cy="431" r="4" fill="white" stroke="black" />
<line x1="425" y1="435" x2="425" y2="634" stroke="black" />
<line x1="412" y1="634" x2="438" y2="634" stroke="black" />
<text x="431" y="626" font-family="Verdana" font-size="8" text-anchor="middle"  dominant-baseline="middle" fill="black" > 619</text>
<circle cx="412" cy="634" r="4" fill="white" stroke="black" />
<line x1="412" y1="638" x2="412" y2="736" stroke="black" />
<circle cx="412" cy="736" r="4" fill="white" stroke="black" />
<text x="412" y="748" font-family="Verdana" font-size="8" text-anchor="middle"  dominant-baseline="middle" fill="black" > 721</text>
<circle cx="437" cy="634" r="4" fill="white" stroke="black" />
<line x1="437" y1="638" x2="437" y2="736" stroke="black" />
<circle cx="437" cy="736" r="4" fill="white" stroke="black" />
<text x="437" y="748" font-family="Verdana" font-size="8" text-anchor="middle"  dominant-baseline="middle" fill="black" > 721</text>
<circle cx="475" cy="431" r="4" fill="white" stroke="black" />
<line x1="475" y1="435" x2="475" y2="625" stroke="black" />
<line x1="462" y1="625" x2="488" y2="625" stroke="black" />
<text x="481" y="617" font-family="Verdana" font-size="8" text-anchor="middle"  dominant-baseline="middle" fill="black" > 610</text>
<circle cx="462" cy="625" r="4" fill="white" stroke="black" />
<line x1="462" y1="629" x2="462" y2="736" stroke="black" />
<circle cx="462" cy="736" r="4" fill="white" stroke="black" />
<text x="462" y="748" font-family="Verdana" font-size="8" text-anchor="middle"  dominant-baseline="middle" fill="black" > 721</text>
<circle cx="487" cy="625" r="4" fill="white" stroke="black" />
<line x1="487" y1="629" x2="487" y2="736" stroke="black" />
<circle cx="487" cy="736" r="4" fill="white" stroke="black" />
<text x="487" y="748" font-family="Verdana" font-size="8" text-anchor="middle"  dominant-baseline="middle" fill="black" > 721</text>
<text x="600" y="7" font-family="Verdana" font-size="7" text-anchor="middle"  dominant-baseline="middle" fill="black" > C4</text>
<circle cx="600" cy="15" r="4" fill="white" stroke="black" />
<line x1="600" y1="19" x2="600" y2="195" stroke="black" />
<line x1="550" y1="195" x2="650" y2="195" stroke="black" />
<text x="625" y="187" font-family="Verdana" font-size="8" text-anchor="middle"  dominant-baseline="middle" fill="black" > 180</text>
<circle cx="550" cy="195" r="4" fill="white" stroke="black" />
<line x1="550" y1="199" x2="550" y2="420" stroke="black" />
<line x1="546" y1="416" x2="554" y2="424" stroke="red" />
<line x1="546" y1="424" x2="554" y2="416" stroke="red" />
<text x="550" y="432" font-family="Verdana" font-size="8" text-anchor="middle"  dominant-baseline="middle" fill="black" > 405</text>
<circle cx="650" cy="195" r="4" fill="white" stroke="black" />
<line x1="650" y1="199" x2="650" y2="370" stroke="black" />
<line x1="646" y1="366" x2="654" y2="374" stroke="red" />
<line x1="646" y1="374" x2="654" y2="366" stroke="red" />
<text x="650" y="382" font-family="Verdana" font-size="8" text-anchor="middle"  dominant-baseline="middle" fill="black" > 355</text>
<text x="800" y="7" font-family="Verdana" font-size="7" text-anchor="middle"  dominant-baseline="middle" fill="black" > C5</text>
<circle cx="800" cy="15" r="4" fill="white" stroke="black" />
<line x1="800" y1="19" x2="800" y2="364" stroke="black" />
<line x1="750" y1="364" x2="850" y2="364" stroke="black" />
<text x="825" y="356" font-family="Verdana" font-size="8" text-anchor="middle"  dominant-baseline="middle" fill="black" > 349</text>
<circle cx="750" cy="364" r="4" fill="white" stroke="black" />
<circle cx="850" cy="364" r="4" fill="white" stroke="black" />
<line x1="750" y1="368" x2="750" y2="385" stroke="black" />
<line x1="750" y1="385" x2="800" y2="391" stroke="black" />
<line x1="850" y1="368" x2="850" y2="385" stroke="black" />
<line x1="850" y1="385" x2="800" y2="391" stroke="black" />
<text x="800" y="379" font-family="Verdana" font-size="8" text-anchor="middle"  dominant-baseline="middle" fill="black" > 376</text>
<circle cx="800" cy="391" r="4" fill="white" stroke="black" />
<line x1="800" y1="395" x2="800" y2="392" stroke="black" />
<line x1="762" y1="392" x2="838" y2="392" stroke="black" />
<text x="806" y="384" font-family="Verdana" font-size="8" text-anchor="middle"  dominant-baseline="middle" fill="black" > 377</text>
<circle cx="762" cy="392" r="4" fill="white" stroke="black" />
<line x1="762" y1="396" x2="762" y2="736" stroke="black" />
<circle cx="762" cy="736" r="4" fill="white" stroke="black" />
<text x="762" y="748" font-family="Verdana" font-size="8" text-anchor="middle"  dominant-baseline="middle" fill="black" > 721</text>
<circle cx="787" cy="392" r="4" fill="white" stroke="black" />
<line x1="787" y1="396" x2="787" y2="736" stroke="black" />
<circle cx="787" cy="736" r="4" fill="white" stroke="black" />
<text x="787" y="748" font-family="Verdana" font-size="8" text-anchor="middle"  dominant-baseline="middle" fill="black" > 721</text>
<circle cx="812" cy="392" r="4" fill="white" stroke="black" />
<line x1="812" y1="396" x2="812" y2="736" stroke="black" />
<circle cx="812" cy="736" r="4" fill="white" stroke="black" />
<text x="812" y="748" font-family="Verdana" font-size="8" text-anchor="middle"  dominant-baseline="middle" fill="black" > 721</text>
<circle cx="837" cy="392" r="4" fill="white" stroke="black" />
<line x1="837" y1="396" x2="837" y2="736" stroke="black" />
<circle cx="837" cy="736" r="4" fill="white" stroke="black" />
<text x="837" y="748" font-family="Verdana" font-size="8" text-anchor="middle"  dominant-baseline="middle" fill="black" > 721</text>
<text x="1000" y="7" font-family="Verdana" font-size="7" text-anchor="middle"  dominant-baseline="middle" fill="black" > C6</text>
<circle cx="1000" cy="15" r="4" fill="white" stroke="black" />
<line x1="1000" y1="19" x2="1000" y2="163" stroke="black" />
<line x1="950" y1="163" x2="1050" y2="163" stroke="black" />
<text x="1025" y="155" font-family="Verdana" font-size="8" text-anchor="middle"  dominant-baseline="middle" fill="black" > 148</text>
<circle cx="950" cy="163" r="4" fill="white" stroke="black" />
<line x1="950" y1="167" x2="950" y2="378" stroke="black" />
<line x1="925" y1="378" x2="975" y2="378" stroke="black" />
<text x="962" y="370" font-family="Verdana" font-size="8" text-anchor="middle"  dominant-baseline="middle" fill="black" > 363</text>
<circle cx="925" cy="378" r="4" fill="white" stroke="black" />
<line x1="925" y1="382" x2="925" y2="736" stroke="black" />
<circle cx="925" cy="736" r="4" fill="white" stroke="black" />
<text x="925" y="748" font-family="Verdana" font-size="8" text-anchor="middle"  dominant-baseline="middle" fill="black" > 721</text>
<circle cx="975" cy="378" r="4" fill="white" stroke="black" />
<line x1="975" y1="382" x2="975" y2="615" stroke="black" />
<line x1="971" y1="619" x2="975" y2="611" stroke="blue" />
<line x1="975" y1="619" x2="979" y2="611" stroke="blue" />
<text x="975" y="627" font-family="Verdana" font-size="8" text-anchor="middle"  dominant-baseline="middle" fill="black" > 600</text>
<circle cx="1050" cy="163" r="4" fill="white" stroke="black" />
<line x1="1050" y1="167" x2="1050" y2="290" stroke="black" />
<line x1="1046" y1="294" x2="1050" y2="286" stroke="blue" />
<line x1="1050" y1="294" x2="1054" y2="286" stroke="blue" />
<text x="1050" y="302" font-family="Verdana" font-size="8" text-anchor="middle"  dominant-baseline="middle" fill="black" > 275</text>
<text x="1200" y="7" font-family="Verdana" font-size="7" text-anchor="middle"  dominant-baseline="middle" fill="black" > C7</text>
<circle cx="1200" cy="15" r="4" fill="white" stroke="black" />
<line x1="1200" y1="19" x2="1200" y2="155" stroke="black" />
<line x1="1150" y1="155" x2="1250" y2="155" stroke="black" />
<text x="1225" y="147" font-family="Verdana" font-size="8" text-anchor="middle"  dominant-baseline="middle" fill="black" > 140</text>
<circle cx="1150" cy="155" r="4" fill="white" stroke="black" />
<line x1="1150" y1="159" x2="1150" y2="375" stroke="black" />
<line x1="1125" y1="375" x2="1175" y2="375" stroke="black" />
<text x="1162" y="367" font-family="Verdana" font-size="8" text-anchor="middle"  dominant-baseline="middle" fill="black" > 360</text>
<circle cx="1125" cy="375" r="4" fill="white" stroke="black" />
<line x1="1125" y1="379" x2="1125" y2="556" stroke="black" />
<line x1="1112" y1="556" x2="1138" y2="556" stroke="black" />
<text x="1131" y="548" font-family="Verdana" font-size="8" text-anchor="middle"  dominant-baseline="middle" fill="black" > 541</text>
<circle cx="1112" cy="556" r="4" fill="white" stroke="black" />
<line x1="1112" y1="560" x2="1112" y2="589" stroke="black" />
<line x1="1108" y1="593" x2="1112" y2="585" stroke="blue" />
<line x1="1112" y1="593" x2="1116" y2="585" stroke="blue" />
<text x="1112" y="601" font-family="Verdana" font-size="8" text-anchor="middle"  dominant-baseline="middle" fill="black" > 574</text>
<circle cx="1137" cy="556" r="4" fill="white" stroke="black" />
<line x1="1137" y1="560" x2="1137" y2="736" stroke="black" />
<circle cx="1137" cy="736" r="4" fill="white" stroke="black" />
<text x="1137" y="748" font-family="Verdana" font-size="8" text-anchor="middle"  dominant-baseline="middle" fill="black" > 721</text>
<circle cx="1175" cy="375" r="4" fill="white" stroke="black" />
<line x1="1175" y1="379" x2="1175" y2="589" stroke="black" />
<line x1="1162" y1="589" x2="1188" y2="589" stroke="black" />
<text x="1181" y="581" font-family="Verdana" font-size="8" text-anchor="middle"  dominant-baseline="middle" fill="black" > 574</text>
<circle cx="1162" cy="589" r="4" fill="white" stroke="black" />
<line x1="1162" y1="593" x2="1162" y2="736" stroke="black" />
<circle cx="1162" cy="736" r="4" fill="white" stroke="black" />
<text x="1162" y="748" font-family="Verdana" font-size="8" text-anchor="middle"  dominant-baseline="middle" fill="black" > 721</text>
<circle cx="1187" cy="589" r="4" fill="white" stroke="black" />
<line x1="1187" y1="593" x2="1187" y2="736" stroke="black" />
<circle cx="1187" cy="736" r="4" fill="white" stroke="black" />
<text x="1187" y="748" font-family="Verdana" font-size="8" text-anchor="middle"  dominant-baseline="middle" fill="black" > 721</text>
<circle cx="1250" cy="155" r="4" fill="white" stroke="black" />
<line x1="1250" y1="159" x2="1250" y2="372" stroke="black" />
<line x1="1225" y1="372" x2="1275" y2="372" stroke="black" />
<text x="1262" y="364" font-family="Verdana" font-size="8" text-anchor="middle"  dominant-baseline="middle" fill="black" > 357</text>
<circle cx="1225" cy="372" r="4" fill="white" stroke="black" />
<line x1="1225" y1="376" x2="1225" y2="581" stroke="black" />
<line x1="1212" y1="581" x2="1238" y2="581" stroke="black" />
<text x="1231" y="573" font-family="Verdana" font-size="8" text-anchor="middle"  dominant-baseline="middle" fill="black" > 566</text>
<circle cx="1212" cy="581" r="4" fill="white" stroke="black" />
<line x1="1212" y1="585" x2="1212" y2="736" stroke="black" />
<circle cx="1212" cy="736" r="4" fill="white" stroke="black" />
<text x="1212" y="748" font-family="Verdana" font-size="8" text-anchor="middle"  dominant-baseline="middle" fill="black" > 721</text>
<circle cx="1237" cy="581" r="4" fill="white" stroke="black" />
<line x1="1237" y1="585" x2="1237" y2="736" stroke="black" />
<circle cx="1237" cy="736" r="4" fill="white" stroke="black" />
<text x="1237" y="748" font-family="Verdana" font-size="8" text-anchor="middle"  dominant-baseline="middle" fill="black" > 721</text>
<circle cx="1275" cy="372" r="4" fill="white" stroke="black" />
<line x1="1275" y1="376" x2="1275" y2="528" stroke="black" />
<line x1="1262" y1="528" x2="1288" y2="528" stroke="black" />
<text x="1281" y="520" font-family="Verdana" font-size="8" text-anchor="middle"  dominant-baseline="middle" fill="black" > 513</text>
<circle cx="1262" cy="528" r="4" fill="white" stroke="black" />
<line x1="1262" y1="532" x2="1262" y2="736" stroke="black" />
<circle cx="1262" cy="736" r="4" fill="white" stroke="black" />
<text x="1262" y="748" font-family="Verdana" font-size="8" text-anchor="middle"  dominant-baseline="middle" fill="black" > 721</text>
<circle cx="1287" cy="528" r="4" fill="white" stroke="black" />
<line x1="1287" y1="532" x2="1287" y2="736" stroke="black" />
<circle cx="1287" cy="736" r="4" fill="white" stroke="black" />
<text x="1287" y="748" font-family="Verdana" font-size="8" text-anchor="middle"  dominant-baseline="middle" fill="black" > 721</text>
</svg>
