<?xml version="1.0" encoding="utf-8"?>
<svg xmlns="http://www.w3.org/2000/svg" version="1.1" width="2150" height="750">
<rect width="2150" height="15" x="0" y="0" fill="white" />
<rect width="2150" height="15" x="0" y="735" fill="white" />
<rect width="25" height="750" x="0" y="0" fill="white" />
<rect width="25" height="750" x="2125" y="0" fill="white" />
<rect width="2110" height="144" x="25" y="15" fill="ghostwhite" />
<rect width="2110" height="144" x="25" y="159" fill="snow" />
<rect width="2110" height="144" x="25" y="303" fill="ghostwhite" />
<rect width="2110" height="144" x="25" y="447" fill="snow" />
<rect width="2110" height="144" x="25" y="591" fill="ghostwhite" />
<text x="12" y="87" font-family="Verdana" font-size="10" text-anchor="middle"  dominant-baseline="middle" fill="red" > D0</text>
<text x="12" y="231" font-family="Verdana" font-size="10" text-anchor="middle"  dominant-baseline="middle" fill="red" > D1</text>
<text x="12" y="375" font-family="Verdana" font-size="10" text-anchor="middle"  dominant-baseline="middle" fill="red" > D2</text>
<text x="12" y="519" font-family="Verdana" font-size="10" text-anchor="middle"  dominant-baseline="middle" fill="red" > D3</text>
<text x="12" y="663" font-family="Verdana" font-size="10" text-anchor="middle"  dominant-baseline="middle" fill="red" > D4</text>
<text x="12" y="20" font-family="Verdana" font-size="10" text-anchor="middle"  dominant-baseline="middle" fill="black" > 0</text>
<text x="12" y="164" font-family="Verdana" font-size="10" text-anchor="middle"  dominant-baseline="middle" fill="black" > 144</text>
<text x="12" y="308" font-family="Verdana" font-size="10" text-anchor="middle"  dominant-baseline="middle" fill="black" > 288</text>
<text x="12" y="452" font-family="Verdana" font-size="10" text-anchor="middle"  dominant-baseline="middle" fill="black" > 432</text>
<text x="12" y="596" font-family="Verdana" font-size="10" text-anchor="middle"  dominant-baseline="middle" fill="black" > 576</text>
<text x="12" y="740" font-family="Verdana" font-size="10" text-anchor="middle"  dominant-baseline="middle" fill="black" > 720</text>
<text x="100" y="7" font-family="Verdana" font-size="7" text-anchor="middle"  dominant-baseline="middle" fill="black" > C1</text>
<circle cx="100" cy="15" r="4" fill="white" stroke="black" />
<line x1="100" y1="19" x2="100" y2="107" stroke="black" />
<line x1="50" y1="107" x2="150" y2="107" stroke="black" />
<text x="125" y="99" font-family="Verdana" font-size="8" text-anchor="middle"  dominant-baseline="middle" fill="black" > 92</text>
<circle cx="50" cy="107" r="4" fill="white" stroke="black" />
<line x1="50" y1="111" x2="50" y2="421" stroke="black" />
<line x1="46" y1="417" x2="54" y2="425" stroke="red" />
<line x1="46" y1="425" x2="54" y2="417" stroke="red" />
<text x="50" y="433" font-family="Verdana" font-size="8" text-anchor="middle"  dominant-baseline="middle" fill="black" > 406</text>
<circle cx="150" cy="107" r="4" fill="white" stroke="black" />
<line x1="150" y1="111" x2="150" y2="491" stroke="black" />
<line x1="125" y1="491" x2="175" y2="491" stroke="black" />
<text x="162" y="483" font-family="Verdana" font-size="8" text-anchor="middle"  dominant-baseline="middle" fill="black" > 476</text>
<circle cx="125" cy="491" r="4" fill="white" stroke="black" />
<line x1="125" y1="495" x2="125" y2="736" stroke="black" />
<circle cx="125" cy="736" r="4" fill="white" stroke="black" />
<text x="125" y="748" font-family="Verdana" font-size="8" text-anchor="middle"  dominant-baseline="middle" fill="black" > 721</text>
<circle cx="175" cy="491" r="4" fill="white" stroke="black" />
<line x1="175" y1="495" x2="175" y2="736" stroke="black" />
<circle cx="175" cy="736" r="4" fill="white" stroke="black" />
<text x="175" y="748" font-family="Verdana" font-size="8" text-anchor="middle"  dominant-baseline="middle" fill="black" > 721</text>
<text x="300" y="7" font-family="Verdana" font-size="7" text-anchor="middle"  dominant-baseline="middle" fill="black" > C2</text>
<circle cx="300" cy="15" r="4" fill="white" stroke="black" />
<line x1="300" y1="19" x2="300" y2="130" stroke="black" />
<line x1="250" y1="130" x2="350" y2="130" stroke="black" />
<text x="325" y="122" font-family="Verdana" font-size="8" text-anchor="middle"  dominant-baseline="middle" fill="black" > 115</text>
<circle cx="250" cy="130" r="4" fill="white" stroke="black" />
<line x1="250" y1="134" x2="250" y2="280" stroke="black" />
<line x1="225" y1="280" x2="275" y2="280" stroke="black" />
<text x="262" y="272" font-family="Verdana" font-size="8" text-anchor="middle"  dominant-baseline="middle" fill="black" > 265</text>
<circle cx="225" cy="280" r="4" fill="white" stroke="black" />
<line x1="225" y1="284" x2="225" y2="469" stroke="black" />
<line x1="212" y1="469" x2="238" y2="469" stroke="black" />
<text x="231" y="461" font-family="Verdana" font-size="8" text-anchor="middle"  dominant-baseline="middle" fill="black" > 454</text>
<circle cx="212" cy="469" r="4" fill="white" stroke="black" />
<line x1="212" y1="473" x2="212" y2="485" stroke="black" />
<line x1="208" y1="489" x2="212" y2="481" stroke="blue" />
<line x1="212" y1="489" x2="216" y2="481" stroke="blue" />
<text x="212" y="497" font-family="Verdana" font-size="8" text-anchor="middle"  dominant-baseline="middle" fill="black" > 470</text>
<circle cx="237" cy="469" r="4" fill="white" stroke="black" />
<line x1="237" y1="473" x2="237" y2="674" stroke="black" />
<line x1="233" y1="670" x2="241" y2="678" stroke="red" />
<line x1="233" y1="678" x2="241" y2="670" stroke="red" />
<text x="237" y="686" font-family="Verdana" font-size="8" text-anchor="middle"  dominant-baseline="middle" fill="black" > 659</text>
<circle cx="275" cy="280" r="4" fill="white" stroke="black" />
<line x1="275" y1="284" x2="275" y2="736" stroke="black" />
<circle cx="275" cy="736" r="4" fill="white" stroke="black" />
<text x="275" y="748" font-family="Verdana" font-size="8" text-anchor="middle"  dominant-baseline="middle" fill="black" > 721</text>
<circle cx="350" cy="130" r="4" fill="white" stroke="black" />
<line x1="350" y1="134" x2="350" y2="276" stroke="black" />
<line x1="325" y1="276" x2="375" y2="276" stroke="black" />
<text x="362" y="268" font-family="Verdana" font-size="8" text-anchor="middle"  dominant-baseline="middle" fill="black" > 261</text>
<circle cx="325" cy="276" r="4" fill="white" stroke="black" />
<line x1="325" y1="280" x2="325" y2="431" stroke="black" />
<line x1="312" y1="431" x2="338" y2="431" stroke="black" />
<text x="331" y="423" font-family="Verdana" font-size="8" text-anchor="middle"  dominant-baseline="middle" fill="black" > 416</text>
<circle cx="312" cy="431" r="4" fill="white" stroke="black" />
<line x1="312" y1="435" x2="312" y2="608" stroke="black" />
<line x1="306" y1="608" x2="319" y2="608" stroke="black" />
<text x="315" y="600" font-family="Verdana" font-size="8" text-anchor="middle"  dominant-baseline="middle" fill="black" > 593</text>
<circle cx="306" cy="608" r="4" fill="white" stroke="black" />
<line x1="306" y1="612" x2="306" y2="736" stroke="black" />
<circle cx="306" cy="736" r="4" fill="white" stroke="black" />
<text x="306" y="748" font-family="Verdana" font-size="8" text-anchor="middle"  dominant-baseline="middle" fill="black" > 721</text>
<circle cx="318" cy="608" r="4" fill="white" stroke="black" />
<line x1="318" y1="612" x2="318" y2="736" stroke="black" />
<circle cx="318" cy="736" r="4" fill="white" stroke="black" />
<text x="318" y="748" font-family="Verdana" font-size="8" text-anchor="middle"  dominant-baseline="middle" fill="black" > 721</text>
<circle cx="337" cy="431" r="4" fill="white" stroke="black" />
<line x1="337" y1="435" x2="337" y2="594" stroke="black" />
<line x1="331" y1="594" x2="344" y2="594" stroke="black" />
<text x="340" y="586" font-family="Verdana" font-size="8" text-anchor="middle"  dominant-baseline="middle" fill="black" > 579</text>
<circle cx="331" cy="594" r="4" fill="white" stroke="black" />
<line x1="331" y1="598" x2="331" y2="736" stroke="black" />
<circle cx="331" cy="736" r="4" fill="white" stroke="black" />
<text x="331" y="748" font-family="Verdana" font-size="8" text-anchor="middle"  dominant-baseline="middle" fill="black" > 721</text>
<circle cx="343" cy="594" r="4" fill="white" stroke="black" />
<line x1="343" y1="598" x2="343" y2="736" stroke="black" />
<circle cx="343" cy="736" r="4" fill="white" stroke="black" />
<text x="343" y="748" font-family="Verdana" font-size="8" text-anchor="middle"  dominant-baseline="middle" fill="black" > 721</text>
<circle cx="375" cy="276" r="4" fill="white" stroke="black" />
<line x1="375" y1="280" x2="375" y2="422" stroke="black" />
<line x1="362" y1="422" x2="388" y2="422" stroke="black" />
<text x="381" y="414" font-family="Verdana" font-size="8" text-anchor="middle"  dominant-baseline="middle" fill="black" > 407</text>
<circle cx="362" cy="422" r="4" fill="white" stroke="black" />
<line x1="362" y1="426" x2="362" y2="638" stroke="black" />
<line x1="356" y1="638" x2="369" y2="638" stroke="black" />
<text x="365" y="630" font-family="Verdana" font-size="8" text-anchor="middle"  dominant-baseline="middle" fill="black" > 623</text>
<circle cx="356" cy="638" r="4" fill="white" stroke="black" />
<line x1="356" y1="642" x2="356" y2="736" stroke="black" />
<circle cx="356" cy="736" r="4" fill="white" stroke="black" />
<text x="356" y="748" font-family="Verdana" font-size="8" text-anchor="middle"  dominant-baseline="middle" fill="black" > 721</text>
<circle cx="368" cy="638" r="4" fill="white" stroke="black" />
<line x1="368" y1="642" x2="368" y2="736" stroke="black" />
<circle cx="368" cy="736" r="4" fill="white" stroke="black" />
<text x="368" y="748" font-family="Verdana" font-size="8" text-anchor="middle"  dominant-baseline="middle" fill="black" > 721</text>
<circle cx="387" cy="422" r="4" fill="white" stroke="black" />
<line x1="387" y1="426" x2="387" y2="615" stroke="black" />
<line x1="381" y1="615" x2="394" y2="615" stroke="black" />
<text x="390" y="607" font-family="Verdana" font-size="8" text-anchor="middle"  dominant-baseline="middle" fill="black" > 600</text>
<circle cx="381" cy="615" r="4" fill="white" stroke="black" />
<line x1="381" y1="619" x2="381" y2="736" stroke="black" />
<circle cx="381" cy="736" r="4" fill="white" stroke="black" />
<text x="381" y="748" font-family="Verdana" font-size="8" text-anchor="middle"  dominant-baseline="middle" fill="black" > 721</text>
<circle cx="393" cy="615" r="4" fill="white" stroke="black" />
<line x1="393" y1="619" x2="393" y2="650" stroke="black" />
<line x1="389" y1="654" x2="393" y2="646" stroke="blue" />
<line x1="393" y1="654" x2="397" y2="646" stroke="blue" />
<text x="393" y="662" font-family="Verdana" font-size="8" text-anchor="middle"  dominant-baseline="middle" fill="black" > 635</text>
<text x="500" y="7" font-family="Verdana" font-size="7" text-anchor="middle"  dominant-baseline="middle" fill="black" > C3</text>
<circle cx="500" cy="15" r="4" fill="white" stroke="black" />
<line x1="500" y1="19" x2="500" y2="125" stroke="black" />
<line x1="450" y1="125" x2="550" y2="125" stroke="black" />
<text x="525" y="117" font-family="Verdana" font-size="8" text-anchor="middle"  dominant-baseline="middle" fill="black" > 110</text>
<circle cx="450" cy="125" r="4" fill="white" stroke="black" />
<line x1="450" y1="129" x2="450" y2="332" stroke="black" />
<line x1="425" y1="332" x2="475" y2="332" stroke="black" />
<text x="462" y="324" font-family="Verdana" font-size="8" text-anchor="middle"  dominant-baseline="middle" fill="black" > 317</text>
<circle cx="425" cy="332" r="4" fill="white" stroke="black" />
<line x1="425" y1="336" x2="425" y2="502" stroke="black" />
<line x1="412" y1="502" x2="438" y2="502" stroke="black" />
<text x="431" y="494" font-family="Verdana" font-size="8" text-anchor="middle"  dominant-baseline="middle" fill="black" > 487</text>
<circle cx="412" cy="502" r="4" fill="white" stroke="black" />
<line x1="412" y1="506" x2="412" y2="629" stroke="black" />
<line x1="404" y1="629" x2="421" y2="629" stroke="black" />
<text x="414" y="621" font-family="Verdana" font-size="8" text-anchor="middle"  dominant-baseline="middle" fill="black" > 614</text>
<circle cx="404" cy="629" r="4" fill="white" stroke="black" />
<line x1="404" y1="633" x2="404" y2="687" stroke="black" />
<line x1="400" y1="683" x2="408" y2="691" stroke="red" />
<line x1="400" y1="691" x2="408" y2="683" stroke="red" />
<text x="404" y="699" font-family="Verdana" font-size="8" text-anchor="middle"  dominant-baseline="middle" fill="black" > 672</text>
<circle cx="412" cy="629" r="4" fill="white" stroke="black" />
<line x1="412" y1="633" x2="412" y2="736" stroke="black" />
<circle cx="412" cy="736" r="4" fill="white" stroke="black" />
<text x="412" y="748" font-family="Verdana" font-size="8" text-anchor="middle"  dominant-baseline="middle" fill="black" > 721</text>
<circle cx="420" cy="629" r="4" fill="white" stroke="black" />
<line x1="420" y1="633" x2="420" y2="736" stroke="black" />
<circle cx="420" cy="736" r="4" fill="white" stroke="black" />
<text x="420" y="748" font-family="Verdana" font-size="8" text-anchor="middle"  dominant-baseline="middle" fill="black" > 721</text>
<circle cx="437" cy="502" r="4" fill="white" stroke="black" />
<line x1="437" y1="506" x2="437" y2="637" stroke="black" />
<line x1="431" y1="637" x2="444" y2="637" stroke="black" />
<text x="440" y="629" font-family="Verdana" font-size="8" text-anchor="middle"  dominant-baseline="middle" fill="black" > 622</text>
<circle cx="431" cy="637" r="4" fill="white" stroke="black" />
<line x1="431" y1="641" x2="431" y2="736" stroke="black" />
<circle cx="431" cy="736" r="4" fill="white" stroke="black" />
<text x="431" y="748" font-family="Verdana" font-size="8" text-anchor="middle"  dominant-baseline="middle" fill="black" > 721</text>
<circle cx="443" cy="637" r="4" fill="white" stroke="black" />
<line x1="443" y1="641" x2="443" y2="736" stroke="black" />
<circle cx="443" cy="736" r="4" fill="white" stroke="black" />
<text x="443" y="748" font-family="Verdana" font-size="8" text-anchor="middle"  dominant-baseline="middle" fill="black" > 721</text>
<circle cx="475" cy="332" r="4" fill="white" stroke="black" />
<line x1="475" y1="336" x2="475" y2="566" stroke="black" />
<line x1="462" y1="566" x2="488" y2="566" stroke="black" />
<text x="481" y="558" font-family="Verdana" font-size="8" text-anchor="middle"  dominant-baseline="middle" fill="black" > 551</text>
<circle cx="462" cy="566" r="4" fill="white" stroke="black" />
<line x1="462" y1="570" x2="462" y2="736" stroke="black" />
<circle cx="462" cy="736" r="4" fill="white" stroke="black" />
<text x="462" y="748" font-family="Verdana" font-size="8" text-anchor="middle"  dominant-baseline="middle" fill="black" > 721</text>
<circle cx="487" cy="566" r="4" fill="white" stroke="black" />
<line x1="487" y1="570" x2="487" y2="736" stroke="black" />
<circle cx="487" cy="736" r="4" fill="white" stroke="black" />
<text x="487" y="748" font-family="Verdana" font-size="8" text-anchor="middle"  dominant-baseline="middle" fill="black" > 721</text>
<circle cx="550" cy="125" r="4" fill="white" stroke="black" />
<line x1="550" y1="129" x2="550" y2="304" stroke="black" />
<line x1="525" y1="304" x2="575" y2="304" stroke="black" />
<text x="562" y="296" font-family="Verdana" font-size="8" text-anchor="middle"  dominant-baseline="middle" fill="black" > 289</text>
<circle cx="525" cy="304" r="4" fill="white" stroke="black" />
<line x1="525" y1="308" x2="525" y2="455" stroke="black" />
<line x1="512" y1="455" x2="538" y2="455" stroke="black" />
<text x="531" y="447" font-family="Verdana" font-size="8" text-anchor="middle"  dominant-baseline="middle" fill="black" > 440</text>
<circle cx="512" cy="455" r="4" fill="white" stroke="black" />
<line x1="512" y1="459" x2="512" y2="736" stroke="black" />
<circle cx="512" cy="736" r="4" fill="white" stroke="black" />
<text x="512" y="748" font-family="Verdana" font-size="8" text-anchor="middle"  dominant-baseline="middle" fill="black" > 721</text>
<circle cx="537" cy="455" r="4" fill="white" stroke="black" />
<line x1="537" y1="459" x2="537" y2="736" stroke="black" />
<circle cx="537" cy="736" r="4" fill="white" stroke="black" />
<text x="537" y="748" font-family="Verdana" font-size="8" text-anchor="middle"  dominant-baseline="middle" fill="black" > 721</text>
<circle cx="575" cy="304" r="4" fill="white" stroke="black" />
<line x1="575" y1="308" x2="575" y2="450" stroke="black" />
<line x1="562" y1="450" x2="588" y2="450" stroke="black" />
<text x="581" y="442" font-family="Verdana" font-size="8" text-anchor="middle"  dominant-baseline="middle" fill="black" > 435</text>
<circle cx="562" cy="450" r="4" fill="white" stroke="black" />
<line x1="562" y1="454" x2="562" y2="566" stroke="black" />
<line x1="556" y1="566" x2="569" y2="566" stroke="black" />
<text x="565" y="558" font-family="Verdana" font-size="8" text-anchor="middle"  dominant-baseline="middle" fill="black" > 551</text>
<circle cx="556" cy="566" r="4" fill="white" stroke="black" />
<line x1="556" y1="570" x2="556" y2="726" stroke="black" />
<line x1="553" y1="726" x2="559" y2="726" stroke="black" />
<text x="557" y="718" font-family="Verdana" font-size="8" text-anchor="middle"  dominant-baseline="middle" fill="black" > 711</text>
<circle cx="553" cy="726" r="4" fill="white" stroke="black" />
<line x1="553" y1="730" x2="553" y2="736" stroke="black" />
<circle cx="553" cy="736" r="4" fill="white" stroke="black" />
<text x="553" y="748" font-family="Verdana" font-size="8" text-anchor="middle"  dominant-baseline="middle" fill="black" > 721</text>
<circle cx="559" cy="726" r="4" fill="white" stroke="black" />
<line x1="559" y1="730" x2="559" y2="736" stroke="black" />
<circle cx="559" cy="736" r="4" fill="white" stroke="black" />
<text x="559" y="748" font-family="Verdana" font-size="8" text-anchor="middle"  dominant-baseline="middle" fill="black" > 721</text>
<circle cx="568" cy="566" r="4" fill="white" stroke="black" />
<line x1="568" y1="570" x2="568" y2="712" stroke="black" />
<line x1="565" y1="712" x2="571" y2="712" stroke="black" />
<text x="569" y="704" font-family="Verdana" font-size="8" text-anchor="middle"  dominant-baseline="middle" fill="black" > 697</text>
<circle cx="565" cy="712" r="4" fill="white" stroke="black" />
<line x1="565" y1="716" x2="565" y2="736" stroke="black" />
<circle cx="565" cy="736" r="4" fill="white" stroke="black" />
<text x="565" y="748" font-family="Verdana" font-size="8" text-anchor="middle"  dominant-baseline="middle" fill="black" > 721</text>
<circle cx="571" cy="712" r="4" fill="white" stroke="black" />
<line x1="571" y1="716" x2="571" y2="736" stroke="black" />
<circle cx="571" cy="736" r="4" fill="white" stroke="black" />
<text x="571" y="748" font-family="Verdana" font-size="8" text-anchor="middle"  dominant-baseline="middle" fill="black" > 721</text>
<circle cx="587" cy="450" r="4" fill="white" stroke="black" />
<line x1="587" y1="454" x2="587" y2="565" stroke="black" />
<line x1="581" y1="565" x2="594" y2="565" stroke="black" />
<text x="590" y="557" font-family="Verdana" font-size="8" text-anchor="middle"  dominant-baseline="middle" fill="black" > 550</text>
<circle cx="581" cy="565" r="4" fill="white" stroke="black" />
<line x1="581" y1="569" x2="581" y2="736" stroke="black" />
<circle cx="581" cy="736" r="4" fill="white" stroke="black" />
<text x="581" y="748" font-family="Verdana" font-size="8" text-anchor="middle"  dominant-baseline="middle" fill="black" > 721</text>
<circle cx="593" cy="565" r="4" fill="white" stroke="black" />
<line x1="593" y1="569" x2="593" y2="686" stroke="black" />
<line x1="590" y1="686" x2="596" y2="686" stroke="black" />
<text x="594" y="678" font-family="Verdana" font-size="8" text-anchor="middle"  dominant-baseline="middle" fill="black" > 671</text>
<circle cx="590" cy="686" r="4" fill="white" stroke="black" />
<line x1="590" y1="690" x2="590" y2="736" stroke="black" />
<circle cx="590" cy="736" r="4" fill="white" stroke="black" />
<text x="590" y="748" font-family="Verdana" font-size="8" text-anchor="middle"  dominant-baseline="middle" fill="black" > 721</text>
<circle cx="596" cy="686" r="4" fill="white" stroke="black" />
<line x1="596" y1="690" x2="596" y2="736" stroke="black" />
<circle cx="596" cy="736" r="4" fill="white" stroke="black" />
<text x="596" y="748" font-family="Verdana" font-size="8" text-anchor="middle"  dominant-baseline="middle" fill="black" > 721</text>
<text x="700" y="7" font-family="Verdana" font-size="7" text-anchor="middle"  dominant-baseline="middle" fill="black" > C4</text>
<circle cx="700" cy="15" r="4" fill="white" stroke="black" />
<line x1="700" y1="19" x2="700" y2="177" stroke="black" />
<line x1="650" y1="177" x2="750" y2="177" stroke="black" />
<text x="725" y="169" font-family="Verdana" font-size="8" text-anchor="middle"  dominant-baseline="middle" fill="black" > 162</text>
<circle cx="650" cy="177" r="4" fill="white" stroke="black" />
<line x1="650" y1="181" x2="650" y2="408" stroke="black" />
<line x1="646" y1="404" x2="654" y2="412" stroke="red" />
<line x1="646" y1="412" x2="654" y2="404" stroke="red" />
<text x="650" y="420" font-family="Verdana" font-size="8" text-anchor="middle"  dominant-baseline="middle" fill="black" > 393</text>
<circle cx="750" cy="177" r="4" fill="white" stroke="black" />
<line x1="750" y1="181" x2="750" y2="335" stroke="black" />
<line x1="716" y1="335" x2="784" y2="335" stroke="black" />
<text x="758" y="327" font-family="Verdana" font-size="8" text-anchor="middle"  dominant-baseline="middle" fill="black" > 320</text>
<circle cx="716" cy="335" r="4" fill="white" stroke="black" />
<circle cx="749" cy="335" r="4" fill="white" stroke="black" />
<line x1="716" y1="339" x2="716" y2="348" stroke="black" />
<line x1="716" y1="348" x2="732" y2="352" stroke="black" />
<line x1="749" y1="339" x2="749" y2="348" stroke="black" />
<line x1="749" y1="348" x2="732" y2="352" stroke="black" />
<text x="732" y="340" font-family="Verdana" font-size="8" text-anchor="middle"  dominant-baseline="middle" fill="black" > 337</text>
<circle cx="732" cy="352" r="4" fill="white" stroke="black" />
<line x1="732" y1="356" x2="732" y2="646" stroke="black" />
<line x1="728" y1="642" x2="736" y2="650" stroke="red" />
<line x1="728" y1="650" x2="736" y2="642" stroke="red" />
<text x="732" y="658" font-family="Verdana" font-size="8" text-anchor="middle"  dominant-baseline="middle" fill="black" > 631</text>
<circle cx="782" cy="335" r="4" fill="white" stroke="black" />
<line x1="782" y1="339" x2="782" y2="563" stroke="black" />
<line x1="774" y1="563" x2="791" y2="563" stroke="black" />
<text x="786" y="555" font-family="Verdana" font-size="8" text-anchor="middle"  dominant-baseline="middle" fill="black" > 548</text>
<circle cx="774" cy="563" r="4" fill="white" stroke="black" />
<line x1="774" y1="567" x2="774" y2="736" stroke="black" />
<circle cx="774" cy="736" r="4" fill="white" stroke="black" />
<text x="774" y="748" font-family="Verdana" font-size="8" text-anchor="middle"  dominant-baseline="middle" fill="black" > 721</text>
<circle cx="790" cy="563" r="4" fill="white" stroke="black" />
<line x1="790" y1="567" x2="790" y2="736" stroke="black" />
<circle cx="790" cy="736" r="4" fill="white" stroke="black" />
<text x="790" y="748" font-family="Verdana" font-size="8" text-anchor="middle"  dominant-baseline="middle" fill="black" > 721</text>
<text x="850" y="7" font-family="Verdana" font-size="7" text-anchor="middle"  dominant-baseline="middle" fill="black" > C5</text>
<circle cx="850" cy="15" r="4" fill="white" stroke="black" />
<line x1="850" y1="19" x2="850" y2="344" stroke="black" />
<line x1="846" y1="340" x2="854" y2="348" stroke="red" />
<line x1="846" y1="348" x2="854" y2="340" stroke="red" />
<text x="850" y="356" font-family="Verdana" font-size="8" text-anchor="middle"  dominant-baseline="middle" fill="black" > 329</text>
<text x="1000" y="7" font-family="Verdana" font-size="7" text-anchor="middle"  dominant-baseline="middle" fill="black" > C6</text>
<circle cx="1000" cy="15" r="4" fill="white" stroke="black" />
<line x1="1000" y1="19" x2="1000" y2="241" stroke="black" />
<line x1="950" y1="241" x2="1050" y2="241" stroke="black" />
<text x="1025" y="233" font-family="Verdana" font-size="8" text-anchor="middle"  dominant-baseline="middle" fill="black" > 226</text>
<circle cx="950" cy="241" r="4" fill="white" stroke="black" />
<line x1="950" y1="245" x2="950" y2="559" stroke="black" />
<line x1="946" y1="563" x2="950" y2="555" stroke="blue" />
<line x1="950" y1="563" x2="954" y2="555" stroke="blue" />
<text x="950" y="571" font-family="Verdana" font-size="8" text-anchor="middle"  dominant-baseline="middle" fill="black" > 544</text>
<circle cx="1050" cy="241" r="4" fill="white" stroke="black" />
<line x1="1050" y1="245" x2="1050" y2="736" stroke="black" />
<circle cx="1050" cy="736" r="4" fill="white" stroke="black" />
<text x="1050" y="748" font-family="Verdana" font-size="8" text-anchor="middle"  dominant-baseline="middle" fill="black" > 721</text>
<text x="1150" y="7" font-family="Verdana" font-size="7" text-anchor="middle"  dominant-baseline="middle" fill="black" > C7</text>
<circle cx="1150" cy="15" r="4" fill="white" stroke="black" />
<line x1="1150" y1="19" x2="1150" y2="82" stroke="black" />
<line x1="1146" y1="86" x2="1150" y2="78" stroke="blue" />
<line x1="1150" y1="86" x2="1154" y2="78" stroke="blue" />
<text x="1150" y="94" font-family="Verdana" font-size="8" text-anchor="middle"  dominant-baseline="middle" fill="black" > 67</text>
<text x="1250" y="7" font-family="Verdana" font-size="7" text-anchor="middle"  dominant-baseline="middle" fill="black" > C8</text>
<circle cx="1250" cy="15" r="4" fill="white" stroke="black" />
<line x1="1250" y1="19" x2="1250" y2="20" stroke="black" />
<line x1="1246" y1="24" x2="1250" y2="16" stroke="blue" />
<line x1="1250" y1="24" x2="1254" y2="16" stroke="blue" />
<text x="1250" y="32" font-family="Verdana" font-size="8" text-anchor="middle"  dominant-baseline="middle" fill="black" > 5</text>
<text x="1400" y="7" font-family="Verdana" font-size="7" text-anchor="middle"  dominant-baseline="middle" fill="black" > C9</text>
<circle cx="1400" cy="15" r="4" fill="white" stroke="black" />
<line x1="1400" y1="19" x2="1400" y2="208" stroke="black" />
<line x1="1350" y1="208" x2="1450" y2="208" stroke="black" />
<text x="1425" y="200" font-family="Verdana" font-size="8" text-anchor="middle"  dominant-baseline="middle" fill="black" > 193</text>
<circle cx="1350" cy="208" r="4" fill="white" stroke="black" />
<line x1="1350" y1="212" x2="1350" y2="209" stroke="black" />
<line x1="1346" y1="213" x2="1350" y2="205" stroke="blue" />
<line x1="1350" y1="213" x2="1354" y2="205" stroke="blue" />
<text x="1350" y="221" font-family="Verdana" font-size="8" text-anchor="middle"  dominant-baseline="middle" fill="black" > 194</text>
<circle cx="1450" cy="208" r="4" fill="white" stroke="black" />
<line x1="1450" y1="212" x2="1450" y2="209" stroke="black" />
<line x1="1446" y1="213" x2="1450" y2="205" stroke="blue" />
<line x1="1450" y1="213" x2="1454" y2="205" stroke="blue" />
<text x="1450" y="221" font-family="Verdana" font-size="8" text-anchor="middle"  dominant-baseline="middle" fill="black" > 194</text>
<text x="1600" y="7" font-family="Verdana" font-size="7" text-anchor="middle"  dominant-baseline="middle" fill="black" > C10</text>
<circle cx="1600" cy="15" r="4" fill="white" stroke="black" />
<line x1="1600" y1="19" x2="1600" y2="213" stroke="black" />
<line x1="1550" y1="213" x2="1650" y2="213" stroke="black" />
<text x="1625" y="205" font-family="Verdana" font-size="8" text-anchor="middle"  dominant-baseline="middle" fill="black" > 198</text>
<circle cx="1550" cy="213" r="4" fill="white" stroke="black" />
<line x1="1550" y1="217" x2="1550" y2="617" stroke="black" />
<line x1="1546" y1="613" x2="1554" y2="621" stroke="red" />
<line x1="1546" y1="621" x2="1554" y2="613" stroke="red" />
<text x="1550" y="629" font-family="Verdana" font-size="8" text-anchor="middle"  dominant-baseline="middle" fill="black" > 602</text>
<circle cx="1650" cy="213" r="4" fill="white" stroke="black" />
<line x1="1650" y1="217" x2="1650" y2="440" stroke="black" />
<line x1="1646" y1="444" x2="1650" y2="436" stroke="blue" />
<line x1="1650" y1="444" x2="1654" y2="436" stroke="blue" />
<text x="1650" y="452" font-family="Verdana" font-size="8" text-anchor="middle"  dominant-baseline="middle" fill="black" > 425</text>
<text x="1750" y="7" font-family="Verdana" font-size="7" text-anchor="middle"  dominant-baseline="middle" fill="black" > C11</text>
<circle cx="1750" cy="15" r="4" fill="white" stroke="black" />
<line x1="1750" y1="19" x2="1750" y2="202" stroke="black" />
<line x1="1746" y1="206" x2="1750" y2="198" stroke="blue" />
<line x1="1750" y1="206" x2="1754" y2="198" stroke="blue" />
<text x="1750" y="214" font-family="Verdana" font-size="8" text-anchor="middle"  dominant-baseline="middle" fill="black" > 187</text>
<text x="1850" y="7" font-family="Verdana" font-size="7" text-anchor="middle"  dominant-baseline="middle" fill="black" > C12</text>
<circle cx="1850" cy="15" r="4" fill="white" stroke="black" />
<line x1="1850" y1="19" x2="1850" y2="18" stroke="black" />
<line x1="1846" y1="22" x2="1850" y2="14" stroke="blue" />
<line x1="1850" y1="22" x2="1854" y2="14" stroke="blue" />
<text x="1850" y="30" font-family="Verdana" font-size="8" text-anchor="middle"  dominant-baseline="middle" fill="black" > 3</text>
<text x="1950" y="7" font-family="Verdana" font-size="7" text-anchor="middle"  dominant-baseline="middle" fill="black" > C13</text>
<circle cx="1950" cy="15" r="4" fill="white" stroke="black" />
<line x1="1950" y1="19" x2="1950" y2="29" stroke="black" />
<line x1="1946" y1="33" x2="1950" y2="25" stroke="blue" />
<line x1="1950" y1="33" x2="1954" y2="25" stroke="blue" />
<text x="1950" y="41" font-family="Verdana" font-size="8" text-anchor="middle"  dominant-baseline="middle" fill="black" > 14</text>
<text x="2050" y="7" font-family="Verdana" font-size="7" text-anchor="middle"  dominant-baseline="middle" fill="black" > C14</text>
<circle cx="2050" cy="15" r="4" fill="white" stroke="black" />
<line x1="2050" y1="19" x2="2050" y2="191" stroke="black" />
<line x1="2046" y1="195" x2="2050" y2="187" stroke="blue" />
<line x1="2050" y1="195" x2="2054" y2="187" stroke="blue" />
<text x="2050" y="203" font-family="Verdana" font-size="8" text-anchor="middle"  dominant-baseline="middle" fill="black" > 176</text>
</svg>
