<?xml version="1.0" encoding="utf-8"?>
<svg xmlns="http://www.w3.org/2000/svg" version="1.1" width="3850" height="750">
<rect width="3850" height="15" x="0" y="0" fill="white" />
<rect width="3850" height="15" x="0" y="735" fill="white" />
<rect width="25" height="750" x="0" y="0" fill="white" />
<rect width="25" height="750" x="3825" y="0" fill="white" />
<rect width="3810" height="144" x="25" y="15" fill="ghostwhite" />
<rect width="3810" height="144" x="25" y="159" fill="snow" />
<rect width="3810" height="144" x="25" y="303" fill="ghostwhite" />
<rect width="3810" height="144" x="25" y="447" fill="snow" />
<rect width="3810" height="144" x="25" y="591" fill="ghostwhite" />
<text x="12" y="87" font-family="Verdana" font-size="10" text-anchor="middle"  dominant-baseline="middle" fill="red" > D0</text>
<text x="12" y="231" font-family="Verdana" font-size="10" text-anchor="middle"  dominant-baseline="middle" fill="red" > D1</text>
<text x="12" y="375" font-family="Verdana" font-size="10" text-anchor="middle"  dominant-baseline="middle" fill="red" > D2</text>
<text x="12" y="519" font-family="Verdana" font-size="10" text-anchor="middle"  dominant-baseline="middle" fill="red" > D3</text>
<text x="12" y="663" font-family="Verdana" font-size="10" text-anchor="middle"  dominant-baseline="middle" fill="red" > D4</text>
<text x="12" y="20" font-family="Verdana" font-size="10" text-anchor="middle"  dominant-baseline="middle" fill="black" > 0</text>
<text x="12" y="164" font-family="Verdana" font-size="10" text-anchor="middle"  dominant-baseline="middle" fill="black" > 144</text>
<text x="12" y="308" font-family="Verdana" font-size="10" text-anchor="middle"  dominant-baseline="middle" fill="black" > 288</text>
<text x="12" y="452" font-family="Verdana" font-size="10" text-anchor="middle"  dominant-baseline="middle" fill="black" > 432</text>
<text x="12" y="596" font-family="Verdana" font-size="10" text-anchor="middle"  dominant-baseline="middle" fill="black" > 576</text>
<text x="12" y="740" font-family="Verdana" font-size="10" text-anchor="middle"  dominant-baseline="middle" fill="black" > 720</text>
<text x="100" y="7" font-family="Verdana" font-size="7" text-anchor="middle"  dominant-baseline="middle" fill="black" > C1</text>
<circle cx="100" cy="15" r="4" fill="white" stroke="black" />
<line x1="100" y1="19" x2="100" y2="169" stroke="black" />
<line x1="50" y1="169" x2="150" y2="169" stroke="black" />
<text x="125" y="161" font-family="Verdana" font-size="8" text-anchor="middle"  dominant-baseline="middle" fill="black" > 154</text>
<circle cx="50" cy="169" r="4" fill="white" stroke="black" />
<line x1="50" y1="173" x2="50" y2="393" stroke="black" />
<line x1="25" y1="393" x2="75" y2="393" stroke="black" />
<text x="62" y="385" font-family="Verdana" font-size="8" text-anchor="middle"  dominant-baseline="middle" fill="black" > 378</text>
<circle cx="25" cy="393" r="4" fill="white" stroke="black" />
<line x1="25" y1="397" x2="25" y2="736" stroke="black" />
<circle cx="25" cy="736" r="4" fill="white" stroke="black" />
<text x="25" y="748" font-family="Verdana" font-size="8" text-anchor="middle"  dominant-baseline="middle" fill="black" > 721</text>
<circle cx="75" cy="393" r="4" fill="white" stroke="black" />
<line x1="75" y1="397" x2="75" y2="736" stroke="black" />
<circle cx="75" cy="736" r="4" fill="white" stroke="black" />
<text x="75" y="748" font-family="Verdana" font-size="8" text-anchor="middle"  dominant-baseline="middle" fill="black" > 721</text>
<circle cx="150" cy="169" r="4" fill="white" stroke="black" />
<line x1="150" y1="173" x2="150" y2="356" stroke="black" />
<line x1="125" y1="356" x2="175" y2="356" stroke="black" />
<text x="162" y="348" font-family="Verdana" font-size="8" text-anchor="middle"  dominant-baseline="middle" fill="black" > 341</text>
<circle cx="125" cy="356" r="4" fill="white" stroke="black" />
<line x1="125" y1="360" x2="125" y2="736" stroke="black" />
<circle cx="125" cy="736" r="4" fill="white" stroke="black" />
<text x="125" y="748" font-family="Verdana" font-size="8" text-anchor="middle"  dominant-baseline="middle" fill="black" > 721</text>
<circle cx="175" cy="356" r="4" fill="white" stroke="black" />
<line x1="175" y1="360" x2="175" y2="736" stroke="black" />
<circle cx="175" cy="736" r="4" fill="white" stroke="black" />
<text x="175" y="748" font-family="Verdana" font-size="8" text-anchor="middle"  dominant-baseline="middle" fill="black" > 721</text>
<text x="300" y="7" font-family="Verdana" font-size="7" text-anchor="middle"  dominant-baseline="middle" fill="black" > C2</text>
<circle cx="300" cy="15" r="4" fill="white" stroke="black" />
<line x1="300" y1="19" x2="300" y2="210" stroke="black" />
<line x1="250" y1="210" x2="350" y2="210" stroke="black" />
<text x="325" y="202" font-family="Verdana" font-size="8" text-anchor="middle"  dominant-baseline="middle" fill="black" > 195</text>
<circle cx="250" cy="210" r="4" fill="white" stroke="black" />
<line x1="250" y1="214" x2="250" y2="736" stroke="black" />
<circle cx="250" cy="736" r="4" fill="white" stroke="black" />
<text x="250" y="748" font-family="Verdana" font-size="8" text-anchor="middle"  dominant-baseline="middle" fill="black" > 721</text>
<circle cx="350" cy="210" r="4" fill="white" stroke="black" />
<line x1="350" y1="214" x2="350" y2="309" stroke="black" />
<line x1="346" y1="305" x2="354" y2="313" stroke="red" />
<line x1="346" y1="313" x2="354" y2="305" stroke="red" />
<text x="350" y="321" font-family="Verdana" font-size="8" text-anchor="middle"  dominant-baseline="middle" fill="black" > 294</text>
<text x="500" y="7" font-family="Verdana" font-size="7" text-anchor="middle"  dominant-baseline="middle" fill="black" > C3</text>
<circle cx="500" cy="15" r="4" fill="white" stroke="black" />
<line x1="500" y1="19" x2="500" y2="218" stroke="black" />
<line x1="450" y1="218" x2="550" y2="218" stroke="black" />
<text x="525" y="210" font-family="Verdana" font-size="8" text-anchor="middle"  dominant-baseline="middle" fill="black" > 203</text>
<circle cx="450" cy="218" r="4" fill="white" stroke="black" />
<line x1="450" y1="222" x2="450" y2="736" stroke="black" />
<circle cx="450" cy="736" r="4" fill="white" stroke="black" />
<text x="450" y="748" font-family="Verdana" font-size="8" text-anchor="middle"  dominant-baseline="middle" fill="black" > 721</text>
<circle cx="550" cy="218" r="4" fill="white" stroke="black" />
<line x1="550" y1="222" x2="550" y2="736" stroke="black" />
<circle cx="550" cy="736" r="4" fill="white" stroke="black" />
<text x="550" y="748" font-family="Verdana" font-size="8" text-anchor="middle"  dominant-baseline="middle" fill="black" > 721</text>
<text x="700" y="7" font-family="Verdana" font-size="7" text-anchor="middle"  dominant-baseline="middle" fill="black" > C4</text>
<circle cx="700" cy="15" r="4" fill="white" stroke="black" />
<line x1="700" y1="19" x2="700" y2="152" stroke="black" />
<line x1="650" y1="152" x2="750" y2="152" stroke="black" />
<text x="725" y="144" font-family="Verdana" font-size="8" text-anchor="middle"  dominant-baseline="middle" fill="black" > 137</text>
<circle cx="650" cy="152" r="4" fill="white" stroke="black" />
<line x1="650" y1="156" x2="650" y2="408" stroke="black" />
<line x1="625" y1="408" x2="675" y2="408" stroke="black" />
<text x="662" y="400" font-family="Verdana" font-size="8" text-anchor="middle"  dominant-baseline="middle" fill="black" > 393</text>
<circle cx="625" cy="408" r="4" fill="white" stroke="black" />
<line x1="625" y1="412" x2="625" y2="736" stroke="black" />
<circle cx="625" cy="736" r="4" fill="white" stroke="black" />
<text x="625" y="748" font-family="Verdana" font-size="8" text-anchor="middle"  dominant-baseline="middle" fill="black" > 721</text>
<circle cx="675" cy="408" r="4" fill="white" stroke="black" />
<line x1="675" y1="412" x2="675" y2="736" stroke="black" />
<circle cx="675" cy="736" r="4" fill="white" stroke="black" />
<text x="675" y="748" font-family="Verdana" font-size="8" text-anchor="middle"  dominant-baseline="middle" fill="black" > 721</text>
<circle cx="750" cy="152" r="4" fill="white" stroke="black" />
<line x1="750" y1="156" x2="750" y2="357" stroke="black" />
<line x1="725" y1="357" x2="775" y2="357" stroke="black" />
<text x="762" y="349" font-family="Verdana" font-size="8" text-anchor="middle"  dominant-baseline="middle" fill="black" > 342</text>
<circle cx="725" cy="357" r="4" fill="white" stroke="black" />
<line x1="725" y1="361" x2="725" y2="736" stroke="black" />
<circle cx="725" cy="736" r="4" fill="white" stroke="black" />
<text x="725" y="748" font-family="Verdana" font-size="8" text-anchor="middle"  dominant-baseline="middle" fill="black" > 721</text>
<circle cx="775" cy="357" r="4" fill="white" stroke="black" />
<line x1="775" y1="361" x2="775" y2="736" stroke="black" />
<circle cx="775" cy="736" r="4" fill="white" stroke="black" />
<text x="775" y="748" font-family="Verdana" font-size="8" text-anchor="middle"  dominant-baseline="middle" fill="black" > 721</text>
<text x="900" y="7" font-family="Verdana" font-size="7" text-anchor="middle"  dominant-baseline="middle" fill="black" > C5</text>
<circle cx="900" cy="15" r="4" fill="white" stroke="black" />
<line x1="900" y1="19" x2="900" y2="163" stroke="black" />
<line x1="850" y1="163" x2="950" y2="163" stroke="black" />
<text x="925" y="155" font-family="Verdana" font-size="8" text-anchor="middle"  dominant-baseline="middle" fill="black" > 148</text>
<circle cx="850" cy="163" r="4" fill="white" stroke="black" />
<line x1="850" y1="167" x2="850" y2="339" stroke="black" />
<line x1="825" y1="339" x2="875" y2="339" stroke="black" />
<text x="862" y="331" font-family="Verdana" font-size="8" text-anchor="middle"  dominant-baseline="middle" fill="black" > 324</text>
<circle cx="825" cy="339" r="4" fill="white" stroke="black" />
<line x1="825" y1="343" x2="825" y2="736" stroke="black" />
<circle cx="825" cy="736" r="4" fill="white" stroke="black" />
<text x="825" y="748" font-family="Verdana" font-size="8" text-anchor="middle"  dominant-baseline="middle" fill="black" > 721</text>
<circle cx="875" cy="339" r="4" fill="white" stroke="black" />
<line x1="875" y1="343" x2="875" y2="736" stroke="black" />
<circle cx="875" cy="736" r="4" fill="white" stroke="black" />
<text x="875" y="748" font-family="Verdana" font-size="8" text-anchor="middle"  dominant-baseline="middle" fill="black" > 721</text>
<circle cx="950" cy="163" r="4" fill="white" stroke="black" />
<line x1="950" y1="167" x2="950" y2="335" stroke="black" />
<line x1="925" y1="335" x2="975" y2="335" stroke="black" />
<text x="962" y="327" font-family="Verdana" font-size="8" text-anchor="middle"  dominant-baseline="middle" fill="black" > 320</text>
<circle cx="925" cy="335" r="4" fill="white" stroke="black" />
<line x1="925" y1="339" x2="925" y2="736" stroke="black" />
<circle cx="925" cy="736" r="4" fill="white" stroke="black" />
<text x="925" y="748" font-family="Verdana" font-size="8" text-anchor="middle"  dominant-baseline="middle" fill="black" > 721</text>
<circle cx="975" cy="335" r="4" fill="white" stroke="black" />
<line x1="975" y1="339" x2="975" y2="427" stroke="black" />
<line x1="971" y1="423" x2="979" y2="431" stroke="red" />
<line x1="971" y1="431" x2="979" y2="423" stroke="red" />
<text x="975" y="439" font-family="Verdana" font-size="8" text-anchor="middle"  dominant-baseline="middle" fill="black" > 412</text>
<text x="1100" y="7" font-family="Verdana" font-size="7" text-anchor="middle"  dominant-baseline="middle" fill="black" > C6</text>
<circle cx="1100" cy="15" r="4" fill="white" stroke="black" />
<line x1="1100" y1="19" x2="1100" y2="215" stroke="black" />
<line x1="1050" y1="215" x2="1150" y2="215" stroke="black" />
<text x="1125" y="207" font-family="Verdana" font-size="8" text-anchor="middle"  dominant-baseline="middle" fill="black" > 200</text>
<circle cx="1050" cy="215" r="4" fill="white" stroke="black" />
<line x1="1050" y1="219" x2="1050" y2="386" stroke="black" />
<line x1="1025" y1="386" x2="1075" y2="386" stroke="black" />
<text x="1062" y="378" font-family="Verdana" font-size="8" text-anchor="middle"  dominant-baseline="middle" fill="black" > 371</text>
<circle cx="1025" cy="386" r="4" fill="white" stroke="black" />
<line x1="1025" y1="390" x2="1025" y2="736" stroke="black" />
<circle cx="1025" cy="736" r="4" fill="white" stroke="black" />
<text x="1025" y="748" font-family="Verdana" font-size="8" text-anchor="middle"  dominant-baseline="middle" fill="black" > 721</text>
<circle cx="1075" cy="386" r="4" fill="white" stroke="black" />
<line x1="1075" y1="390" x2="1075" y2="736" stroke="black" />
<circle cx="1075" cy="736" r="4" fill="white" stroke="black" />
<text x="1075" y="748" font-family="Verdana" font-size="8" text-anchor="middle"  dominant-baseline="middle" fill="black" > 721</text>
<circle cx="1150" cy="215" r="4" fill="white" stroke="black" />
<line x1="1150" y1="219" x2="1150" y2="365" stroke="black" />
<line x1="1125" y1="365" x2="1175" y2="365" stroke="black" />
<text x="1162" y="357" font-family="Verdana" font-size="8" text-anchor="middle"  dominant-baseline="middle" fill="black" > 350</text>
<circle cx="1125" cy="365" r="4" fill="white" stroke="black" />
<line x1="1125" y1="369" x2="1125" y2="736" stroke="black" />
<circle cx="1125" cy="736" r="4" fill="white" stroke="black" />
<text x="1125" y="748" font-family="Verdana" font-size="8" text-anchor="middle"  dominant-baseline="middle" fill="black" > 721</text>
<circle cx="1175" cy="365" r="4" fill="white" stroke="black" />
<line x1="1175" y1="369" x2="1175" y2="736" stroke="black" />
<circle cx="1175" cy="736" r="4" fill="white" stroke="black" />
<text x="1175" y="748" font-family="Verdana" font-size="8" text-anchor="middle"  dominant-baseline="middle" fill="black" > 721</text>
<text x="1300" y="7" font-family="Verdana" font-size="7" text-anchor="middle"  dominant-baseline="middle" fill="black" > C7</text>
<circle cx="1300" cy="15" r="4" fill="white" stroke="black" />
<line x1="1300" y1="19" x2="1300" y2="192" stroke="black" />
<line x1="1250" y1="192" x2="1350" y2="192" stroke="black" />
<text x="1325" y="184" font-family="Verdana" font-size="8" text-anchor="middle"  dominant-baseline="middle" fill="black" > 177</text>
<circle cx="1250" cy="192" r="4" fill="white" stroke="black" />
<line x1="1250" y1="196" x2="1250" y2="360" stroke="black" />
<line x1="1225" y1="360" x2="1275" y2="360" stroke="black" />
<text x="1262" y="352" font-family="Verdana" font-size="8" text-anchor="middle"  dominant-baseline="middle" fill="black" > 345</text>
<circle cx="1225" cy="360" r="4" fill="white" stroke="black" />
<line x1="1225" y1="364" x2="1225" y2="736" stroke="black" />
<circle cx="1225" cy="736" r="4" fill="white" stroke="black" />
<text x="1225" y="748" font-family="Verdana" font-size="8" text-anchor="middle"  dominant-baseline="middle" fill="black" > 721</text>
<circle cx="1275" cy="360" r="4" fill="white" stroke="black" />
<line x1="1275" y1="364" x2="1275" y2="736" stroke="black" />
<circle cx="1275" cy="736" r="4" fill="white" stroke="black" />
<text x="1275" y="748" font-family="Verdana" font-size="8" text-anchor="middle"  dominant-baseline="middle" fill="black" > 721</text>
<circle cx="1350" cy="192" r="4" fill="white" stroke="black" />
<line x1="1350" y1="196" x2="1350" y2="337" stroke="black" />
<line x1="1325" y1="337" x2="1375" y2="337" stroke="black" />
<text x="1362" y="329" font-family="Verdana" font-size="8" text-anchor="middle"  dominant-baseline="middle" fill="black" > 322</text>
<circle cx="1325" cy="337" r="4" fill="white" stroke="black" />
<line x1="1325" y1="341" x2="1325" y2="736" stroke="black" />
<circle cx="1325" cy="736" r="4" fill="white" stroke="black" />
<text x="1325" y="748" font-family="Verdana" font-size="8" text-anchor="middle"  dominant-baseline="middle" fill="black" > 721</text>
<circle cx="1375" cy="337" r="4" fill="white" stroke="black" />
<line x1="1375" y1="341" x2="1375" y2="736" stroke="black" />
<circle cx="1375" cy="736" r="4" fill="white" stroke="black" />
<text x="1375" y="748" font-family="Verdana" font-size="8" text-anchor="middle"  dominant-baseline="middle" fill="black" > 721</text>
<text x="1500" y="7" font-family="Verdana" font-size="7" text-anchor="middle"  dominant-baseline="middle" fill="black" > C8</text>
<circle cx="1500" cy="15" r="4" fill="white" stroke="black" />
<line x1="1500" y1="19" x2="1500" y2="190" stroke="black" />
<line x1="1450" y1="190" x2="1550" y2="190" stroke="black" />
<text x="1525" y="182" font-family="Verdana" font-size="8" text-anchor="middle"  dominant-baseline="middle" fill="black" > 175</text>
<circle cx="1450" cy="190" r="4" fill="white" stroke="black" />
<line x1="1450" y1="194" x2="1450" y2="341" stroke="black" />
<line x1="1425" y1="341" x2="1475" y2="341" stroke="black" />
<text x="1462" y="333" font-family="Verdana" font-size="8" text-anchor="middle"  dominant-baseline="middle" fill="black" > 326</text>
<circle cx="1425" cy="341" r="4" fill="white" stroke="black" />
<line x1="1425" y1="345" x2="1425" y2="736" stroke="black" />
<circle cx="1425" cy="736" r="4" fill="white" stroke="black" />
<text x="1425" y="748" font-family="Verdana" font-size="8" text-anchor="middle"  dominant-baseline="middle" fill="black" > 721</text>
<circle cx="1475" cy="341" r="4" fill="white" stroke="black" />
<line x1="1475" y1="345" x2="1475" y2="736" stroke="black" />
<circle cx="1475" cy="736" r="4" fill="white" stroke="black" />
<text x="1475" y="748" font-family="Verdana" font-size="8" text-anchor="middle"  dominant-baseline="middle" fill="black" > 721</text>
<circle cx="1550" cy="190" r="4" fill="white" stroke="black" />
<line x1="1550" y1="194" x2="1550" y2="319" stroke="black" />
<line x1="1525" y1="319" x2="1575" y2="319" stroke="black" />
<text x="1562" y="311" font-family="Verdana" font-size="8" text-anchor="middle"  dominant-baseline="middle" fill="black" > 304</text>
<circle cx="1525" cy="319" r="4" fill="white" stroke="black" />
<line x1="1525" y1="323" x2="1525" y2="736" stroke="black" />
<circle cx="1525" cy="736" r="4" fill="white" stroke="black" />
<text x="1525" y="748" font-family="Verdana" font-size="8" text-anchor="middle"  dominant-baseline="middle" fill="black" > 721</text>
<circle cx="1575" cy="319" r="4" fill="white" stroke="black" />
<line x1="1575" y1="323" x2="1575" y2="736" stroke="black" />
<circle cx="1575" cy="736" r="4" fill="white" stroke="black" />
<text x="1575" y="748" font-family="Verdana" font-size="8" text-anchor="middle"  dominant-baseline="middle" fill="black" > 721</text>
<text x="1700" y="7" font-family="Verdana" font-size="7" text-anchor="middle"  dominant-baseline="middle" fill="black" > C9</text>
<circle cx="1700" cy="15" r="4" fill="white" stroke="black" />
<line x1="1700" y1="19" x2="1700" y2="64" stroke="black" />
<line x1="1650" y1="64" x2="1750" y2="64" stroke="black" />
<text x="1725" y="56" font-family="Verdana" font-size="8" text-anchor="middle"  dominant-baseline="middle" fill="black" > 49</text>
<circle cx="1650" cy="64" r="4" fill="white" stroke="black" />
<line x1="1650" y1="68" x2="1650" y2="344" stroke="black" />
<line x1="1625" y1="344" x2="1675" y2="344" stroke="black" />
<text x="1662" y="336" font-family="Verdana" font-size="8" text-anchor="middle"  dominant-baseline="middle" fill="black" > 329</text>
<circle cx="1625" cy="344" r="4" fill="white" stroke="black" />
<line x1="1625" y1="348" x2="1625" y2="736" stroke="black" />
<circle cx="1625" cy="736" r="4" fill="white" stroke="black" />
<text x="1625" y="748" font-family="Verdana" font-size="8" text-anchor="middle"  dominant-baseline="middle" fill="black" > 721</text>
<circle cx="1675" cy="344" r="4" fill="white" stroke="black" />
<line x1="1675" y1="348" x2="1675" y2="736" stroke="black" />
<circle cx="1675" cy="736" r="4" fill="white" stroke="black" />
<text x="1675" y="748" font-family="Verdana" font-size="8" text-anchor="middle"  dominant-baseline="middle" fill="black" > 721</text>
<circle cx="1750" cy="64" r="4" fill="white" stroke="black" />
<line x1="1750" y1="68" x2="1750" y2="736" stroke="black" />
<circle cx="1750" cy="736" r="4" fill="white" stroke="black" />
<text x="1750" y="748" font-family="Verdana" font-size="8" text-anchor="middle"  dominant-baseline="middle" fill="black" > 721</text>
<text x="1900" y="7" font-family="Verdana" font-size="7" text-anchor="middle"  dominant-baseline="middle" fill="black" > C10</text>
<circle cx="1900" cy="15" r="4" fill="white" stroke="black" />
<line x1="1900" y1="19" x2="1900" y2="249" stroke="black" />
<line x1="1850" y1="249" x2="1950" y2="249" stroke="black" />
<text x="1925" y="241" font-family="Verdana" font-size="8" text-anchor="middle"  dominant-baseline="middle" fill="black" > 234</text>
<circle cx="1850" cy="249" r="4" fill="white" stroke="black" />
<line x1="1850" y1="253" x2="1850" y2="736" stroke="black" />
<circle cx="1850" cy="736" r="4" fill="white" stroke="black" />
<text x="1850" y="748" font-family="Verdana" font-size="8" text-anchor="middle"  dominant-baseline="middle" fill="black" > 721</text>
<circle cx="1950" cy="249" r="4" fill="white" stroke="black" />
<line x1="1950" y1="253" x2="1950" y2="736" stroke="black" />
<circle cx="1950" cy="736" r="4" fill="white" stroke="black" />
<text x="1950" y="748" font-family="Verdana" font-size="8" text-anchor="middle"  dominant-baseline="middle" fill="black" > 721</text>
<text x="2100" y="7" font-family="Verdana" font-size="7" text-anchor="middle"  dominant-baseline="middle" fill="black" > C11</text>
<circle cx="2100" cy="15" r="4" fill="white" stroke="black" />
<line x1="2100" y1="19" x2="2100" y2="25" stroke="black" />
<line x1="2050" y1="25" x2="2150" y2="25" stroke="black" />
<text x="2125" y="17" font-family="Verdana" font-size="8" text-anchor="middle"  dominant-baseline="middle" fill="black" > 10</text>
<circle cx="2050" cy="25" r="4" fill="white" stroke="black" />
<line x1="2050" y1="29" x2="2050" y2="270" stroke="black" />
<line x1="2025" y1="270" x2="2075" y2="270" stroke="black" />
<text x="2062" y="262" font-family="Verdana" font-size="8" text-anchor="middle"  dominant-baseline="middle" fill="black" > 255</text>
<circle cx="2025" cy="270" r="4" fill="white" stroke="black" />
<line x1="2025" y1="274" x2="2025" y2="736" stroke="black" />
<circle cx="2025" cy="736" r="4" fill="white" stroke="black" />
<text x="2025" y="748" font-family="Verdana" font-size="8" text-anchor="middle"  dominant-baseline="middle" fill="black" > 721</text>
<circle cx="2075" cy="270" r="4" fill="white" stroke="black" />
<line x1="2075" y1="274" x2="2075" y2="400" stroke="black" />
<line x1="2062" y1="400" x2="2088" y2="400" stroke="black" />
<text x="2081" y="392" font-family="Verdana" font-size="8" text-anchor="middle"  dominant-baseline="middle" fill="black" > 385</text>
<circle cx="2062" cy="400" r="4" fill="white" stroke="black" />
<line x1="2062" y1="404" x2="2062" y2="736" stroke="black" />
<circle cx="2062" cy="736" r="4" fill="white" stroke="black" />
<text x="2062" y="748" font-family="Verdana" font-size="8" text-anchor="middle"  dominant-baseline="middle" fill="black" > 721</text>
<circle cx="2087" cy="400" r="4" fill="white" stroke="black" />
<line x1="2087" y1="404" x2="2087" y2="736" stroke="black" />
<circle cx="2087" cy="736" r="4" fill="white" stroke="black" />
<text x="2087" y="748" font-family="Verdana" font-size="8" text-anchor="middle"  dominant-baseline="middle" fill="black" > 721</text>
<circle cx="2150" cy="25" r="4" fill="white" stroke="black" />
<line x1="2150" y1="29" x2="2150" y2="199" stroke="black" />
<line x1="2125" y1="199" x2="2175" y2="199" stroke="black" />
<text x="2162" y="191" font-family="Verdana" font-size="8" text-anchor="middle"  dominant-baseline="middle" fill="black" > 184</text>
<circle cx="2125" cy="199" r="4" fill="white" stroke="black" />
<line x1="2125" y1="203" x2="2125" y2="398" stroke="black" />
<line x1="2112" y1="398" x2="2138" y2="398" stroke="black" />
<text x="2131" y="390" font-family="Verdana" font-size="8" text-anchor="middle"  dominant-baseline="middle" fill="black" > 383</text>
<circle cx="2112" cy="398" r="4" fill="white" stroke="black" />
<line x1="2112" y1="402" x2="2112" y2="736" stroke="black" />
<circle cx="2112" cy="736" r="4" fill="white" stroke="black" />
<text x="2112" y="748" font-family="Verdana" font-size="8" text-anchor="middle"  dominant-baseline="middle" fill="black" > 721</text>
<circle cx="2137" cy="398" r="4" fill="white" stroke="black" />
<line x1="2137" y1="402" x2="2137" y2="736" stroke="black" />
<circle cx="2137" cy="736" r="4" fill="white" stroke="black" />
<text x="2137" y="748" font-family="Verdana" font-size="8" text-anchor="middle"  dominant-baseline="middle" fill="black" > 721</text>
<circle cx="2175" cy="199" r="4" fill="white" stroke="black" />
<line x1="2175" y1="203" x2="2175" y2="410" stroke="black" />
<line x1="2158" y1="410" x2="2192" y2="410" stroke="black" />
<text x="2179" y="402" font-family="Verdana" font-size="8" text-anchor="middle"  dominant-baseline="middle" fill="black" > 395</text>
<circle cx="2158" cy="410" r="4" fill="white" stroke="black" />
<line x1="2158" y1="414" x2="2158" y2="736" stroke="black" />
<circle cx="2158" cy="736" r="4" fill="white" stroke="black" />
<text x="2158" y="748" font-family="Verdana" font-size="8" text-anchor="middle"  dominant-baseline="middle" fill="black" > 721</text>
<circle cx="2174" cy="410" r="4" fill="white" stroke="black" />
<line x1="2174" y1="414" x2="2174" y2="736" stroke="black" />
<circle cx="2174" cy="736" r="4" fill="white" stroke="black" />
<text x="2174" y="748" font-family="Verdana" font-size="8" text-anchor="middle"  dominant-baseline="middle" fill="black" > 721</text>
<circle cx="2190" cy="410" r="4" fill="white" stroke="black" />
<line x1="2190" y1="414" x2="2190" y2="736" stroke="black" />
<circle cx="2190" cy="736" r="4" fill="white" stroke="black" />
<text x="2190" y="748" font-family="Verdana" font-size="8" text-anchor="middle"  dominant-baseline="middle" fill="black" > 721</text>
<text x="2300" y="7" font-family="Verdana" font-size="7" text-anchor="middle"  dominant-baseline="middle" fill="black" > C12</text>
<circle cx="2300" cy="15" r="4" fill="white" stroke="black" />
<line x1="2300" y1="19" x2="2300" y2="185" stroke="black" />
<line x1="2250" y1="185" x2="2350" y2="185" stroke="black" />
<text x="2325" y="177" font-family="Verdana" font-size="8" text-anchor="middle"  dominant-baseline="middle" fill="black" > 170</text>
<circle cx="2250" cy="185" r="4" fill="white" stroke="black" />
<line x1="2250" y1="189" x2="2250" y2="218" stroke="black" />
<line x1="2246" y1="222" x2="2250" y2="214" stroke="blue" />
<line x1="2250" y1="222" x2="2254" y2="214" stroke="blue" />
<text x="2250" y="230" font-family="Verdana" font-size="8" text-anchor="middle"  dominant-baseline="middle" fill="black" > 203</text>
<circle cx="2350" cy="185" r="4" fill="white" stroke="black" />
<line x1="2350" y1="189" x2="2350" y2="364" stroke="black" />
<line x1="2325" y1="364" x2="2375" y2="364" stroke="black" />
<text x="2362" y="356" font-family="Verdana" font-size="8" text-anchor="middle"  dominant-baseline="middle" fill="black" > 349</text>
<circle cx="2325" cy="364" r="4" fill="white" stroke="black" />
<line x1="2325" y1="368" x2="2325" y2="736" stroke="black" />
<circle cx="2325" cy="736" r="4" fill="white" stroke="black" />
<text x="2325" y="748" font-family="Verdana" font-size="8" text-anchor="middle"  dominant-baseline="middle" fill="black" > 721</text>
<circle cx="2375" cy="364" r="4" fill="white" stroke="black" />
<line x1="2375" y1="368" x2="2375" y2="417" stroke="black" />
<line x1="2371" y1="421" x2="2375" y2="413" stroke="blue" />
<line x1="2375" y1="421" x2="2379" y2="413" stroke="blue" />
<text x="2375" y="429" font-family="Verdana" font-size="8" text-anchor="middle"  dominant-baseline="middle" fill="black" > 402</text>
<text x="2500" y="7" font-family="Verdana" font-size="7" text-anchor="middle"  dominant-baseline="middle" fill="black" > C13</text>
<circle cx="2500" cy="15" r="4" fill="white" stroke="black" />
<line x1="2500" y1="19" x2="2500" y2="193" stroke="black" />
<line x1="2450" y1="193" x2="2550" y2="193" stroke="black" />
<text x="2525" y="185" font-family="Verdana" font-size="8" text-anchor="middle"  dominant-baseline="middle" fill="black" > 178</text>
<circle cx="2450" cy="193" r="4" fill="white" stroke="black" />
<line x1="2450" y1="197" x2="2450" y2="390" stroke="black" />
<line x1="2425" y1="390" x2="2475" y2="390" stroke="black" />
<text x="2462" y="382" font-family="Verdana" font-size="8" text-anchor="middle"  dominant-baseline="middle" fill="black" > 375</text>
<circle cx="2425" cy="390" r="4" fill="white" stroke="black" />
<line x1="2425" y1="394" x2="2425" y2="391" stroke="black" />
<line x1="2421" y1="395" x2="2425" y2="387" stroke="blue" />
<line x1="2425" y1="395" x2="2429" y2="387" stroke="blue" />
<text x="2425" y="403" font-family="Verdana" font-size="8" text-anchor="middle"  dominant-baseline="middle" fill="black" > 376</text>
<circle cx="2475" cy="390" r="4" fill="white" stroke="black" />
<line x1="2475" y1="394" x2="2475" y2="391" stroke="black" />
<line x1="2471" y1="395" x2="2475" y2="387" stroke="blue" />
<line x1="2475" y1="395" x2="2479" y2="387" stroke="blue" />
<text x="2475" y="403" font-family="Verdana" font-size="8" text-anchor="middle"  dominant-baseline="middle" fill="black" > 376</text>
<circle cx="2550" cy="193" r="4" fill="white" stroke="black" />
<line x1="2550" y1="197" x2="2550" y2="420" stroke="black" />
<line x1="2525" y1="420" x2="2575" y2="420" stroke="black" />
<text x="2562" y="412" font-family="Verdana" font-size="8" text-anchor="middle"  dominant-baseline="middle" fill="black" > 405</text>
<circle cx="2525" cy="420" r="4" fill="white" stroke="black" />
<line x1="2525" y1="424" x2="2525" y2="736" stroke="black" />
<circle cx="2525" cy="736" r="4" fill="white" stroke="black" />
<text x="2525" y="748" font-family="Verdana" font-size="8" text-anchor="middle"  dominant-baseline="middle" fill="black" > 721</text>
<circle cx="2575" cy="420" r="4" fill="white" stroke="black" />
<line x1="2575" y1="424" x2="2575" y2="428" stroke="black" />
<line x1="2571" y1="424" x2="2579" y2="432" stroke="red" />
<line x1="2571" y1="432" x2="2579" y2="424" stroke="red" />
<text x="2575" y="440" font-family="Verdana" font-size="8" text-anchor="middle"  dominant-baseline="middle" fill="black" > 413</text>
<text x="2700" y="7" font-family="Verdana" font-size="7" text-anchor="middle"  dominant-baseline="middle" fill="black" > C14</text>
<circle cx="2700" cy="15" r="4" fill="white" stroke="black" />
<line x1="2700" y1="19" x2="2700" y2="155" stroke="black" />
<line x1="2650" y1="155" x2="2750" y2="155" stroke="black" />
<text x="2725" y="147" font-family="Verdana" font-size="8" text-anchor="middle"  dominant-baseline="middle" fill="black" > 140</text>
<circle cx="2650" cy="155" r="4" fill="white" stroke="black" />
<line x1="2650" y1="159" x2="2650" y2="192" stroke="black" />
<line x1="2646" y1="196" x2="2650" y2="188" stroke="blue" />
<line x1="2650" y1="196" x2="2654" y2="188" stroke="blue" />
<text x="2650" y="204" font-family="Verdana" font-size="8" text-anchor="middle"  dominant-baseline="middle" fill="black" > 177</text>
<circle cx="2750" cy="155" r="4" fill="white" stroke="black" />
<line x1="2750" y1="159" x2="2750" y2="364" stroke="black" />
<line x1="2725" y1="364" x2="2775" y2="364" stroke="black" />
<text x="2762" y="356" font-family="Verdana" font-size="8" text-anchor="middle"  dominant-baseline="middle" fill="black" > 349</text>
<circle cx="2725" cy="364" r="4" fill="white" stroke="black" />
<line x1="2725" y1="368" x2="2725" y2="736" stroke="black" />
<circle cx="2725" cy="736" r="4" fill="white" stroke="black" />
<text x="2725" y="748" font-family="Verdana" font-size="8" text-anchor="middle"  dominant-baseline="middle" fill="black" > 721</text>
<circle cx="2775" cy="364" r="4" fill="white" stroke="black" />
<line x1="2775" y1="368" x2="2775" y2="736" stroke="black" />
<circle cx="2775" cy="736" r="4" fill="white" stroke="black" />
<text x="2775" y="748" font-family="Verdana" font-size="8" text-anchor="middle"  dominant-baseline="middle" fill="black" > 721</text>
<text x="2850" y="7" font-family="Verdana" font-size="7" text-anchor="middle"  dominant-baseline="middle" fill="black" > C15</text>
<circle cx="2850" cy="15" r="4" fill="white" stroke="black" />
<line x1="2850" y1="19" x2="2850" y2="53" stroke="black" />
<line x1="2846" y1="57" x2="2850" y2="49" stroke="blue" />
<line x1="2850" y1="57" x2="2854" y2="49" stroke="blue" />
<text x="2850" y="65" font-family="Verdana" font-size="8" text-anchor="middle"  dominant-baseline="middle" fill="black" > 38</text>
<text x="3000" y="7" font-family="Verdana" font-size="7" text-anchor="middle"  dominant-baseline="middle" fill="black" > C16</text>
<circle cx="3000" cy="15" r="4" fill="white" stroke="black" />
<line x1="3000" y1="19" x2="3000" y2="173" stroke="black" />
<line x1="2950" y1="173" x2="3050" y2="173" stroke="black" />
<text x="3025" y="165" font-family="Verdana" font-size="8" text-anchor="middle"  dominant-baseline="middle" fill="black" > 158</text>
<circle cx="2950" cy="173" r="4" fill="white" stroke="black" />
<line x1="2950" y1="177" x2="2950" y2="400" stroke="black" />
<line x1="2925" y1="400" x2="2975" y2="400" stroke="black" />
<text x="2962" y="392" font-family="Verdana" font-size="8" text-anchor="middle"  dominant-baseline="middle" fill="black" > 385</text>
<circle cx="2925" cy="400" r="4" fill="white" stroke="black" />
<line x1="2925" y1="404" x2="2925" y2="736" stroke="black" />
<circle cx="2925" cy="736" r="4" fill="white" stroke="black" />
<text x="2925" y="748" font-family="Verdana" font-size="8" text-anchor="middle"  dominant-baseline="middle" fill="black" > 721</text>
<circle cx="2975" cy="400" r="4" fill="white" stroke="black" />
<line x1="2975" y1="404" x2="2975" y2="736" stroke="black" />
<circle cx="2975" cy="736" r="4" fill="white" stroke="black" />
<text x="2975" y="748" font-family="Verdana" font-size="8" text-anchor="middle"  dominant-baseline="middle" fill="black" > 721</text>
<circle cx="3050" cy="173" r="4" fill="white" stroke="black" />
<line x1="3050" y1="177" x2="3050" y2="211" stroke="black" />
<line x1="3046" y1="215" x2="3050" y2="207" stroke="blue" />
<line x1="3050" y1="215" x2="3054" y2="207" stroke="blue" />
<text x="3050" y="223" font-family="Verdana" font-size="8" text-anchor="middle"  dominant-baseline="middle" fill="black" > 196</text>
<text x="3200" y="7" font-family="Verdana" font-size="7" text-anchor="middle"  dominant-baseline="middle" fill="black" > C17</text>
<circle cx="3200" cy="15" r="4" fill="white" stroke="black" />
<line x1="3200" y1="19" x2="3200" y2="41" stroke="black" />
<line x1="3150" y1="41" x2="3250" y2="41" stroke="black" />
<text x="3225" y="33" font-family="Verdana" font-size="8" text-anchor="middle"  dominant-baseline="middle" fill="black" > 26</text>
<circle cx="3150" cy="41" r="4" fill="white" stroke="black" />
<line x1="3150" y1="45" x2="3150" y2="222" stroke="black" />
<line x1="3125" y1="222" x2="3175" y2="222" stroke="black" />
<text x="3162" y="214" font-family="Verdana" font-size="8" text-anchor="middle"  dominant-baseline="middle" fill="black" > 207</text>
<circle cx="3125" cy="222" r="4" fill="white" stroke="black" />
<line x1="3125" y1="226" x2="3125" y2="230" stroke="black" />
<line x1="3121" y1="234" x2="3125" y2="226" stroke="blue" />
<line x1="3125" y1="234" x2="3129" y2="226" stroke="blue" />
<text x="3125" y="242" font-family="Verdana" font-size="8" text-anchor="middle"  dominant-baseline="middle" fill="black" > 215</text>
<circle cx="3175" cy="222" r="4" fill="white" stroke="black" />
<line x1="3175" y1="226" x2="3175" y2="266" stroke="black" />
<line x1="3171" y1="270" x2="3175" y2="262" stroke="blue" />
<line x1="3175" y1="270" x2="3179" y2="262" stroke="blue" />
<text x="3175" y="278" font-family="Verdana" font-size="8" text-anchor="middle"  dominant-baseline="middle" fill="black" > 251</text>
<circle cx="3250" cy="41" r="4" fill="white" stroke="black" />
<line x1="3250" y1="45" x2="3250" y2="215" stroke="black" />
<line x1="3225" y1="215" x2="3275" y2="215" stroke="black" />
<text x="3262" y="207" font-family="Verdana" font-size="8" text-anchor="middle"  dominant-baseline="middle" fill="black" > 200</text>
<circle cx="3225" cy="215" r="4" fill="white" stroke="black" />
<line x1="3225" y1="219" x2="3225" y2="397" stroke="black" />
<line x1="3212" y1="397" x2="3238" y2="397" stroke="black" />
<text x="3231" y="389" font-family="Verdana" font-size="8" text-anchor="middle"  dominant-baseline="middle" fill="black" > 382</text>
<circle cx="3212" cy="397" r="4" fill="white" stroke="black" />
<line x1="3212" y1="401" x2="3212" y2="736" stroke="black" />
<circle cx="3212" cy="736" r="4" fill="white" stroke="black" />
<text x="3212" y="748" font-family="Verdana" font-size="8" text-anchor="middle"  dominant-baseline="middle" fill="black" > 721</text>
<circle cx="3237" cy="397" r="4" fill="white" stroke="black" />
<line x1="3237" y1="401" x2="3237" y2="736" stroke="black" />
<circle cx="3237" cy="736" r="4" fill="white" stroke="black" />
<text x="3237" y="748" font-family="Verdana" font-size="8" text-anchor="middle"  dominant-baseline="middle" fill="black" > 721</text>
<circle cx="3275" cy="215" r="4" fill="white" stroke="black" />
<line x1="3275" y1="219" x2="3275" y2="352" stroke="black" />
<line x1="3262" y1="352" x2="3288" y2="352" stroke="black" />
<text x="3281" y="344" font-family="Verdana" font-size="8" text-anchor="middle"  dominant-baseline="middle" fill="black" > 337</text>
<circle cx="3262" cy="352" r="4" fill="white" stroke="black" />
<line x1="3262" y1="356" x2="3262" y2="736" stroke="black" />
<circle cx="3262" cy="736" r="4" fill="white" stroke="black" />
<text x="3262" y="748" font-family="Verdana" font-size="8" text-anchor="middle"  dominant-baseline="middle" fill="black" > 721</text>
<circle cx="3287" cy="352" r="4" fill="white" stroke="black" />
<line x1="3287" y1="356" x2="3287" y2="426" stroke="black" />
<line x1="3283" y1="430" x2="3287" y2="422" stroke="blue" />
<line x1="3287" y1="430" x2="3291" y2="422" stroke="blue" />
<text x="3287" y="438" font-family="Verdana" font-size="8" text-anchor="middle"  dominant-baseline="middle" fill="black" > 411</text>
<text x="3400" y="7" font-family="Verdana" font-size="7" text-anchor="middle"  dominant-baseline="middle" fill="black" > C18</text>
<circle cx="3400" cy="15" r="4" fill="white" stroke="black" />
<line x1="3400" y1="19" x2="3400" y2="42" stroke="black" />
<line x1="3350" y1="42" x2="3450" y2="42" stroke="black" />
<text x="3425" y="34" font-family="Verdana" font-size="8" text-anchor="middle"  dominant-baseline="middle" fill="black" > 27</text>
<circle cx="3350" cy="42" r="4" fill="white" stroke="black" />
<line x1="3350" y1="46" x2="3350" y2="350" stroke="black" />
<line x1="3316" y1="350" x2="3384" y2="350" stroke="black" />
<text x="3358" y="342" font-family="Verdana" font-size="8" text-anchor="middle"  dominant-baseline="middle" fill="black" > 335</text>
<circle cx="3316" cy="350" r="4" fill="white" stroke="black" />
<circle cx="3349" cy="350" r="4" fill="white" stroke="black" />
<line x1="3316" y1="354" x2="3316" y2="379" stroke="black" />
<line x1="3316" y1="379" x2="3332" y2="388" stroke="black" />
<line x1="3349" y1="354" x2="3349" y2="379" stroke="black" />
<line x1="3349" y1="379" x2="3332" y2="388" stroke="black" />
<text x="3332" y="376" font-family="Verdana" font-size="8" text-anchor="middle"  dominant-baseline="middle" fill="black" > 373</text>
<circle cx="3332" cy="388" r="4" fill="white" stroke="black" />
<line x1="3332" y1="392" x2="3332" y2="736" stroke="black" />
<circle cx="3332" cy="736" r="4" fill="white" stroke="black" />
<text x="3332" y="748" font-family="Verdana" font-size="8" text-anchor="middle"  dominant-baseline="middle" fill="black" > 721</text>
<circle cx="3382" cy="350" r="4" fill="white" stroke="black" />
<line x1="3382" y1="354" x2="3382" y2="736" stroke="black" />
<circle cx="3382" cy="736" r="4" fill="white" stroke="black" />
<text x="3382" y="748" font-family="Verdana" font-size="8" text-anchor="middle"  dominant-baseline="middle" fill="black" > 721</text>
<circle cx="3450" cy="42" r="4" fill="white" stroke="black" />
<line x1="3450" y1="46" x2="3450" y2="198" stroke="black" />
<line x1="3425" y1="198" x2="3475" y2="198" stroke="black" />
<text x="3462" y="190" font-family="Verdana" font-size="8" text-anchor="middle"  dominant-baseline="middle" fill="black" > 183</text>
<circle cx="3425" cy="198" r="4" fill="white" stroke="black" />
<line x1="3425" y1="202" x2="3425" y2="377" stroke="black" />
<line x1="3412" y1="377" x2="3438" y2="377" stroke="black" />
<text x="3431" y="369" font-family="Verdana" font-size="8" text-anchor="middle"  dominant-baseline="middle" fill="black" > 362</text>
<circle cx="3412" cy="377" r="4" fill="white" stroke="black" />
<line x1="3412" y1="381" x2="3412" y2="736" stroke="black" />
<circle cx="3412" cy="736" r="4" fill="white" stroke="black" />
<text x="3412" y="748" font-family="Verdana" font-size="8" text-anchor="middle"  dominant-baseline="middle" fill="black" > 721</text>
<circle cx="3437" cy="377" r="4" fill="white" stroke="black" />
<line x1="3437" y1="381" x2="3437" y2="736" stroke="black" />
<circle cx="3437" cy="736" r="4" fill="white" stroke="black" />
<text x="3437" y="748" font-family="Verdana" font-size="8" text-anchor="middle"  dominant-baseline="middle" fill="black" > 721</text>
<circle cx="3475" cy="198" r="4" fill="white" stroke="black" />
<line x1="3475" y1="202" x2="3475" y2="336" stroke="black" />
<line x1="3462" y1="336" x2="3488" y2="336" stroke="black" />
<text x="3481" y="328" font-family="Verdana" font-size="8" text-anchor="middle"  dominant-baseline="middle" fill="black" > 321</text>
<circle cx="3462" cy="336" r="4" fill="white" stroke="black" />
<line x1="3462" y1="340" x2="3462" y2="736" stroke="black" />
<circle cx="3462" cy="736" r="4" fill="white" stroke="black" />
<text x="3462" y="748" font-family="Verdana" font-size="8" text-anchor="middle"  dominant-baseline="middle" fill="black" > 721</text>
<circle cx="3487" cy="336" r="4" fill="white" stroke="black" />
<line x1="3487" y1="340" x2="3487" y2="736" stroke="black" />
<circle cx="3487" cy="736" r="4" fill="white" stroke="black" />
<text x="3487" y="748" font-family="Verdana" font-size="8" text-anchor="middle"  dominant-baseline="middle" fill="black" > 721</text>
<text x="3600" y="7" font-family="Verdana" font-size="7" text-anchor="middle"  dominant-baseline="middle" fill="black" > C19</text>
<circle cx="3600" cy="15" r="4" fill="white" stroke="black" />
<line x1="3600" y1="19" x2="3600" y2="128" stroke="black" />
<line x1="3550" y1="128" x2="3650" y2="128" stroke="black" />
<text x="3625" y="120" font-family="Verdana" font-size="8" text-anchor="middle"  dominant-baseline="middle" fill="black" > 113</text>
<circle cx="3550" cy="128" r="4" fill="white" stroke="black" />
<line x1="3550" y1="132" x2="3550" y2="194" stroke="black" />
<line x1="3546" y1="198" x2="3550" y2="190" stroke="blue" />
<line x1="3550" y1="198" x2="3554" y2="190" stroke="blue" />
<text x="3550" y="206" font-family="Verdana" font-size="8" text-anchor="middle"  dominant-baseline="middle" fill="black" > 179</text>
<circle cx="3650" cy="128" r="4" fill="white" stroke="black" />
<line x1="3650" y1="132" x2="3650" y2="736" stroke="black" />
<circle cx="3650" cy="736" r="4" fill="white" stroke="black" />
<text x="3650" y="748" font-family="Verdana" font-size="8" text-anchor="middle"  dominant-baseline="middle" fill="black" > 721</text>
<text x="3750" y="7" font-family="Verdana" font-size="7" text-anchor="middle"  dominant-baseline="middle" fill="black" > C20</text>
<circle cx="3750" cy="15" r="4" fill="white" stroke="black" />
<line x1="3750" y1="19" x2="3750" y2="132" stroke="black" />
<line x1="3746" y1="136" x2="3750" y2="128" stroke="blue" />
<line x1="3750" y1="136" x2="3754" y2="128" stroke="blue" />
<text x="3750" y="144" font-family="Verdana" font-size="8" text-anchor="middle"  dominant-baseline="middle" fill="black" > 117</text>
</svg>
