<?xml version="1.0" encoding="utf-8"?>
<svg xmlns="http://www.w3.org/2000/svg" version="1.1" width="1150" height="750">
<rect width="1150" height="15" x="0" y="0" fill="white" />
<rect width="1150" height="15" x="0" y="735" fill="white" />
<rect width="25" height="750" x="0" y="0" fill="white" />
<rect width="25" height="750" x="1125" y="0" fill="white" />
<rect width="1110" height="144" x="25" y="15" fill="rgb(192,192,192)" />
<rect width="1110" height="144" x="25" y="159" fill="rgb(230,230,230)" />
<rect width="1110" height="144" x="25" y="303" fill="rgb(192,192,192)" />
<rect width="1110" height="144" x="25" y="447" fill="rgb(230,230,230)" />
<rect width="1110" height="144" x="25" y="591" fill="rgb(192,192,192)" />
<text x="12" y="87" font-family="Verdana" font-size="10" text-anchor="middle"  dominant-baseline="middle" fill="red" >
D0
</text>
<text x="12" y="231" font-family="Verdana" font-size="10" text-anchor="middle"  dominant-baseline="middle" fill="red" >
D1
</text>
<text x="12" y="375" font-family="Verdana" font-size="10" text-anchor="middle"  dominant-baseline="middle" fill="red" >
D2
</text>
<text x="12" y="519" font-family="Verdana" font-size="10" text-anchor="middle"  dominant-baseline="middle" fill="red" >
D3
</text>
<text x="12" y="663" font-family="Verdana" font-size="10" text-anchor="middle"  dominant-baseline="middle" fill="red" >
D4
</text>
<text x="12" y="20" font-family="Verdana" font-size="10" text-anchor="middle"  dominant-baseline="middle" fill="black" >
0
</text>
<text x="12" y="164" font-family="Verdana" font-size="10" text-anchor="middle"  dominant-baseline="middle" fill="black" >
144
</text>
<text x="12" y="308" font-family="Verdana" font-size="10" text-anchor="middle"  dominant-baseline="middle" fill="black" >
288
</text>
<text x="12" y="452" font-family="Verdana" font-size="10" text-anchor="middle"  dominant-baseline="middle" fill="black" >
432
</text>
<text x="12" y="596" font-family="Verdana" font-size="10" text-anchor="middle"  dominant-baseline="middle" fill="black" >
576
</text>
<text x="12" y="740" font-family="Verdana" font-size="10" text-anchor="middle"  dominant-baseline="middle" fill="black" >
720
</text>
<text x="50" y="7" font-family="Verdana" font-size="7" text-anchor="middle"  dominant-baseline="middle" fill="black" >
C1
</text>
<circle cx="50" cy="15" r="4" fill="white" stroke="black" />
<line x1="50" y1="19" x2="50" y2="609" stroke="black" />
<line x1="46" y1="613" x2="50" y2="605" stroke="blue" />
<line x1="50" y1="613" x2="54" y2="605" stroke="blue" />
<text x="50" y="621" font-family="Verdana" font-size="8" text-anchor="middle"  dominant-baseline="middle" fill="black" >
594
</text>
<text x="200" y="7" font-family="Verdana" font-size="7" text-anchor="middle"  dominant-baseline="middle" fill="black" >
C2
</text>
<circle cx="200" cy="15" r="4" fill="white" stroke="black" />
<line x1="200" y1="19" x2="200" y2="110" stroke="black" />
<line x1="150" y1="110" x2="250" y2="110" stroke="black" />
<text x="225" y="102" font-family="Verdana" font-size="8" text-anchor="middle"  dominant-baseline="middle" fill="black" >
95
</text>
<circle cx="150" cy="110" r="4" fill="white" stroke="black" />
<circle cx="250" cy="110" r="4" fill="white" stroke="black" />
<line x1="150" y1="114" x2="150" y2="209" stroke="black" />
<line x1="150" y1="209" x2="200" y2="241" stroke="black" />
<line x1="250" y1="114" x2="250" y2="209" stroke="black" />
<line x1="250" y1="209" x2="200" y2="241" stroke="black" />
<text x="200" y="229" font-family="Verdana" font-size="8" text-anchor="middle"  dominant-baseline="middle" fill="black" >
226
</text>
<circle cx="200" cy="241" r="4" fill="white" stroke="black" />
<line x1="200" y1="245" x2="200" y2="305" stroke="black" />
<line x1="196" y1="309" x2="200" y2="301" stroke="blue" />
<line x1="200" y1="309" x2="204" y2="301" stroke="blue" />
<text x="200" y="317" font-family="Verdana" font-size="8" text-anchor="middle"  dominant-baseline="middle" fill="black" >
290
</text>
<text x="450" y="7" font-family="Verdana" font-size="7" text-anchor="middle"  dominant-baseline="middle" fill="black" >
C3
</text>
<circle cx="450" cy="15" r="4" fill="white" stroke="black" />
<line x1="450" y1="19" x2="450" y2="481" stroke="black" />
<line x1="350" y1="481" x2="550" y2="481" stroke="black" />
<text x="475" y="473" font-family="Verdana" font-size="8" text-anchor="middle"  dominant-baseline="middle" fill="black" >
466
</text>
<circle cx="350" cy="481" r="4" fill="white" stroke="black" />
<line x1="350" y1="485" x2="350" y2="588" stroke="black" />
<line x1="316" y1="588" x2="384" y2="588" stroke="black" />
<text x="358" y="580" font-family="Verdana" font-size="8" text-anchor="middle"  dominant-baseline="middle" fill="black" >
573
</text>
<circle cx="316" cy="588" r="4" fill="white" stroke="black" />
<line x1="316" y1="592" x2="316" y2="736" stroke="black" />
<circle cx="316" cy="736" r="4" fill="white" stroke="black" />
<text x="316" y="748" font-family="Verdana" font-size="8" text-anchor="middle"  dominant-baseline="middle" fill="black" >
721
</text>
<circle cx="349" cy="588" r="4" fill="white" stroke="black" />
<line x1="349" y1="592" x2="349" y2="736" stroke="black" />
<circle cx="349" cy="736" r="4" fill="white" stroke="black" />
<text x="349" y="748" font-family="Verdana" font-size="8" text-anchor="middle"  dominant-baseline="middle" fill="black" >
721
</text>
<circle cx="382" cy="588" r="4" fill="white" stroke="black" />
<line x1="382" y1="592" x2="382" y2="736" stroke="black" />
<circle cx="382" cy="736" r="4" fill="white" stroke="black" />
<text x="382" y="748" font-family="Verdana" font-size="8" text-anchor="middle"  dominant-baseline="middle" fill="black" >
721
</text>
<circle cx="450" cy="481" r="4" fill="white" stroke="black" />
<circle cx="550" cy="481" r="4" fill="white" stroke="black" />
<line x1="450" y1="485" x2="450" y2="485" stroke="black" />
<line x1="450" y1="485" x2="500" y2="486" stroke="black" />
<line x1="550" y1="485" x2="550" y2="485" stroke="black" />
<line x1="550" y1="485" x2="500" y2="486" stroke="black" />
<text x="500" y="474" font-family="Verdana" font-size="8" text-anchor="middle"  dominant-baseline="middle" fill="black" >
471
</text>
<circle cx="500" cy="486" r="4" fill="white" stroke="black" />
<line x1="500" y1="490" x2="500" y2="515" stroke="black" />
<line x1="466" y1="515" x2="534" y2="515" stroke="black" />
<text x="508" y="507" font-family="Verdana" font-size="8" text-anchor="middle"  dominant-baseline="middle" fill="black" >
500
</text>
<circle cx="466" cy="515" r="4" fill="white" stroke="black" />
<line x1="466" y1="519" x2="466" y2="631" stroke="black" />
<line x1="462" y1="627" x2="470" y2="635" stroke="red" />
<line x1="462" y1="635" x2="470" y2="627" stroke="red" />
<text x="466" y="643" font-family="Verdana" font-size="8" text-anchor="middle"  dominant-baseline="middle" fill="black" >
616
</text>
<circle cx="499" cy="515" r="4" fill="white" stroke="black" />
<line x1="499" y1="519" x2="499" y2="736" stroke="black" />
<circle cx="499" cy="736" r="4" fill="white" stroke="black" />
<text x="499" y="748" font-family="Verdana" font-size="8" text-anchor="middle"  dominant-baseline="middle" fill="black" >
721
</text>
<circle cx="532" cy="515" r="4" fill="white" stroke="black" />
<line x1="532" y1="519" x2="532" y2="736" stroke="black" />
<circle cx="532" cy="736" r="4" fill="white" stroke="black" />
<text x="532" y="748" font-family="Verdana" font-size="8" text-anchor="middle"  dominant-baseline="middle" fill="black" >
721
</text>
<text x="700" y="7" font-family="Verdana" font-size="7" text-anchor="middle"  dominant-baseline="middle" fill="black" >
C4
</text>
<circle cx="700" cy="15" r="4" fill="white" stroke="black" />
<line x1="700" y1="19" x2="700" y2="271" stroke="black" />
<line x1="650" y1="271" x2="750" y2="271" stroke="black" />
<text x="725" y="263" font-family="Verdana" font-size="8" text-anchor="middle"  dominant-baseline="middle" fill="black" >
256
</text>
<circle cx="650" cy="271" r="4" fill="white" stroke="black" />
<line x1="650" y1="275" x2="650" y2="618" stroke="black" />
<line x1="646" y1="614" x2="654" y2="622" stroke="red" />
<line x1="646" y1="622" x2="654" y2="614" stroke="red" />
<text x="650" y="630" font-family="Verdana" font-size="8" text-anchor="middle"  dominant-baseline="middle" fill="black" >
603
</text>
<circle cx="750" cy="271" r="4" fill="white" stroke="black" />
<line x1="750" y1="275" x2="750" y2="736" stroke="black" />
<circle cx="750" cy="736" r="4" fill="white" stroke="black" />
<text x="750" y="748" font-family="Verdana" font-size="8" text-anchor="middle"  dominant-baseline="middle" fill="black" >
721
</text>
<text x="900" y="7" font-family="Verdana" font-size="7" text-anchor="middle"  dominant-baseline="middle" fill="black" >
C5
</text>
<circle cx="900" cy="15" r="4" fill="white" stroke="black" />
<line x1="900" y1="19" x2="900" y2="73" stroke="black" />
<line x1="850" y1="73" x2="950" y2="73" stroke="black" />
<text x="925" y="65" font-family="Verdana" font-size="8" text-anchor="middle"  dominant-baseline="middle" fill="black" >
58
</text>
<circle cx="850" cy="73" r="4" fill="white" stroke="black" />
<circle cx="950" cy="73" r="4" fill="white" stroke="black" />
<line x1="850" y1="77" x2="850" y2="100" stroke="black" />
<line x1="850" y1="100" x2="900" y2="108" stroke="black" />
<line x1="950" y1="77" x2="950" y2="100" stroke="black" />
<line x1="950" y1="100" x2="900" y2="108" stroke="black" />
<text x="900" y="96" font-family="Verdana" font-size="8" text-anchor="middle"  dominant-baseline="middle" fill="black" >
93
</text>
<circle cx="900" cy="108" r="4" fill="white" stroke="black" />
<line x1="900" y1="112" x2="900" y2="651" stroke="black" />
<line x1="896" y1="655" x2="900" y2="647" stroke="blue" />
<line x1="900" y1="655" x2="904" y2="647" stroke="blue" />
<text x="900" y="663" font-family="Verdana" font-size="8" text-anchor="middle"  dominant-baseline="middle" fill="black" >
636
</text>
<text x="1050" y="7" font-family="Verdana" font-size="7" text-anchor="middle"  dominant-baseline="middle" fill="black" >
C6
</text>
<circle cx="1050" cy="15" r="4" fill="white" stroke="black" />
<line x1="1050" y1="19" x2="1050" y2="515" stroke="black" />
<line x1="1046" y1="519" x2="1050" y2="511" stroke="blue" />
<line x1="1050" y1="519" x2="1054" y2="511" stroke="blue" />
<text x="1050" y="527" font-family="Verdana" font-size="8" text-anchor="middle"  dominant-baseline="middle" fill="black" >
500
</text>
</svg>
