<?xml version="1.0" encoding="utf-8"?>
<svg xmlns="http://www.w3.org/2000/svg" version="1.1" width="1850" height="750">
<rect width="1850" height="15" x="0" y="0" fill="white" />
<rect width="1850" height="15" x="0" y="735" fill="white" />
<rect width="25" height="750" x="0" y="0" fill="white" />
<rect width="25" height="750" x="1825" y="0" fill="white" />
<rect width="1810" height="144" x="25" y="15" fill="ghostwhite" />
<rect width="1810" height="144" x="25" y="159" fill="snow" />
<rect width="1810" height="144" x="25" y="303" fill="ghostwhite" />
<rect width="1810" height="144" x="25" y="447" fill="snow" />
<rect width="1810" height="144" x="25" y="591" fill="ghostwhite" />
<text x="12" y="87" font-family="Verdana" font-size="10" text-anchor="middle"  dominant-baseline="middle" fill="red" > D0</text>
<text x="12" y="231" font-family="Verdana" font-size="10" text-anchor="middle"  dominant-baseline="middle" fill="red" > D1</text>
<text x="12" y="375" font-family="Verdana" font-size="10" text-anchor="middle"  dominant-baseline="middle" fill="red" > D2</text>
<text x="12" y="519" font-family="Verdana" font-size="10" text-anchor="middle"  dominant-baseline="middle" fill="red" > D3</text>
<text x="12" y="663" font-family="Verdana" font-size="10" text-anchor="middle"  dominant-baseline="middle" fill="red" > D4</text>
<text x="12" y="20" font-family="Verdana" font-size="10" text-anchor="middle"  dominant-baseline="middle" fill="black" > 0</text>
<text x="12" y="164" font-family="Verdana" font-size="10" text-anchor="middle"  dominant-baseline="middle" fill="black" > 144</text>
<text x="12" y="308" font-family="Verdana" font-size="10" text-anchor="middle"  dominant-baseline="middle" fill="black" > 288</text>
<text x="12" y="452" font-family="Verdana" font-size="10" text-anchor="middle"  dominant-baseline="middle" fill="black" > 432</text>
<text x="12" y="596" font-family="Verdana" font-size="10" text-anchor="middle"  dominant-baseline="middle" fill="black" > 576</text>
<text x="12" y="740" font-family="Verdana" font-size="10" text-anchor="middle"  dominant-baseline="middle" fill="black" > 720</text>
<text x="100" y="7" font-family="Verdana" font-size="7" text-anchor="middle"  dominant-baseline="middle" fill="black" > C1</text>
<circle cx="100" cy="15" r="4" fill="white" stroke="black" />
<line x1="100" y1="19" x2="100" y2="81" stroke="black" />
<line x1="50" y1="81" x2="150" y2="81" stroke="black" />
<text x="125" y="73" font-family="Verdana" font-size="8" text-anchor="middle"  dominant-baseline="middle" fill="black" > 66</text>
<circle cx="50" cy="81" r="4" fill="white" stroke="black" />
<line x1="50" y1="85" x2="50" y2="253" stroke="black" />
<line x1="25" y1="253" x2="75" y2="253" stroke="black" />
<text x="62" y="245" font-family="Verdana" font-size="8" text-anchor="middle"  dominant-baseline="middle" fill="black" > 238</text>
<circle cx="25" cy="253" r="4" fill="white" stroke="black" />
<line x1="25" y1="257" x2="25" y2="401" stroke="black" />
<line x1="12" y1="401" x2="38" y2="401" stroke="black" />
<text x="31" y="393" font-family="Verdana" font-size="8" text-anchor="middle"  dominant-baseline="middle" fill="black" > 386</text>
<circle cx="12" cy="401" r="4" fill="white" stroke="black" />
<line x1="12" y1="405" x2="12" y2="447" stroke="black" />
<circle cx="12" cy="447" r="4" fill="white" stroke="black" />
<text x="12" y="459" font-family="Verdana" font-size="8" text-anchor="middle"  dominant-baseline="middle" fill="black" > 432</text>
<circle cx="37" cy="401" r="4" fill="white" stroke="black" />
<line x1="37" y1="405" x2="37" y2="447" stroke="black" />
<circle cx="37" cy="447" r="4" fill="white" stroke="black" />
<text x="37" y="459" font-family="Verdana" font-size="8" text-anchor="middle"  dominant-baseline="middle" fill="black" > 432</text>
<circle cx="75" cy="253" r="4" fill="white" stroke="black" />
<line x1="75" y1="257" x2="75" y2="401" stroke="black" />
<line x1="62" y1="401" x2="88" y2="401" stroke="black" />
<text x="81" y="393" font-family="Verdana" font-size="8" text-anchor="middle"  dominant-baseline="middle" fill="black" > 386</text>
<circle cx="62" cy="401" r="4" fill="white" stroke="black" />
<line x1="62" y1="405" x2="62" y2="447" stroke="black" />
<circle cx="62" cy="447" r="4" fill="white" stroke="black" />
<text x="62" y="459" font-family="Verdana" font-size="8" text-anchor="middle"  dominant-baseline="middle" fill="black" > 432</text>
<circle cx="87" cy="401" r="4" fill="white" stroke="black" />
<line x1="87" y1="405" x2="87" y2="447" stroke="black" />
<circle cx="87" cy="447" r="4" fill="white" stroke="black" />
<text x="87" y="459" font-family="Verdana" font-size="8" text-anchor="middle"  dominant-baseline="middle" fill="black" > 432</text>
<circle cx="150" cy="81" r="4" fill="white" stroke="black" />
<line x1="150" y1="85" x2="150" y2="274" stroke="black" />
<line x1="125" y1="274" x2="175" y2="274" stroke="black" />
<text x="162" y="266" font-family="Verdana" font-size="8" text-anchor="middle"  dominant-baseline="middle" fill="black" > 259</text>
<circle cx="125" cy="274" r="4" fill="white" stroke="black" />
<line x1="125" y1="278" x2="125" y2="379" stroke="black" />
<line x1="112" y1="379" x2="138" y2="379" stroke="black" />
<text x="131" y="371" font-family="Verdana" font-size="8" text-anchor="middle"  dominant-baseline="middle" fill="black" > 364</text>
<circle cx="112" cy="379" r="4" fill="white" stroke="black" />
<line x1="112" y1="383" x2="112" y2="447" stroke="black" />
<circle cx="112" cy="447" r="4" fill="white" stroke="black" />
<text x="112" y="459" font-family="Verdana" font-size="8" text-anchor="middle"  dominant-baseline="middle" fill="black" > 432</text>
<circle cx="137" cy="379" r="4" fill="white" stroke="black" />
<line x1="137" y1="383" x2="137" y2="447" stroke="black" />
<circle cx="137" cy="447" r="4" fill="white" stroke="black" />
<text x="137" y="459" font-family="Verdana" font-size="8" text-anchor="middle"  dominant-baseline="middle" fill="black" > 432</text>
<circle cx="175" cy="274" r="4" fill="white" stroke="black" />
<line x1="175" y1="278" x2="175" y2="407" stroke="black" />
<line x1="162" y1="407" x2="188" y2="407" stroke="black" />
<text x="181" y="399" font-family="Verdana" font-size="8" text-anchor="middle"  dominant-baseline="middle" fill="black" > 392</text>
<circle cx="162" cy="407" r="4" fill="white" stroke="black" />
<line x1="162" y1="411" x2="162" y2="447" stroke="black" />
<circle cx="162" cy="447" r="4" fill="white" stroke="black" />
<text x="162" y="459" font-family="Verdana" font-size="8" text-anchor="middle"  dominant-baseline="middle" fill="black" > 432</text>
<circle cx="187" cy="407" r="4" fill="white" stroke="black" />
<line x1="187" y1="411" x2="187" y2="447" stroke="black" />
<circle cx="187" cy="447" r="4" fill="white" stroke="black" />
<text x="187" y="459" font-family="Verdana" font-size="8" text-anchor="middle"  dominant-baseline="middle" fill="black" > 432</text>
<text x="300" y="7" font-family="Verdana" font-size="7" text-anchor="middle"  dominant-baseline="middle" fill="black" > C2</text>
<circle cx="300" cy="15" r="4" fill="white" stroke="black" />
<line x1="300" y1="19" x2="300" y2="109" stroke="black" />
<line x1="250" y1="109" x2="350" y2="109" stroke="black" />
<text x="325" y="101" font-family="Verdana" font-size="8" text-anchor="middle"  dominant-baseline="middle" fill="black" > 94</text>
<circle cx="250" cy="109" r="4" fill="white" stroke="black" />
<circle cx="350" cy="109" r="4" fill="white" stroke="black" />
<line x1="250" y1="113" x2="250" y2="154" stroke="black" />
<line x1="250" y1="154" x2="300" y2="168" stroke="black" />
<line x1="350" y1="113" x2="350" y2="154" stroke="black" />
<line x1="350" y1="154" x2="300" y2="168" stroke="black" />
<text x="300" y="156" font-family="Verdana" font-size="8" text-anchor="middle"  dominant-baseline="middle" fill="black" > 153</text>
<circle cx="300" cy="168" r="4" fill="white" stroke="black" />
<line x1="300" y1="172" x2="300" y2="363" stroke="black" />
<line x1="266" y1="363" x2="334" y2="363" stroke="black" />
<text x="308" y="355" font-family="Verdana" font-size="8" text-anchor="middle"  dominant-baseline="middle" fill="black" > 348</text>
<circle cx="266" cy="363" r="4" fill="white" stroke="black" />
<line x1="266" y1="367" x2="266" y2="447" stroke="black" />
<circle cx="266" cy="447" r="4" fill="white" stroke="black" />
<text x="266" y="459" font-family="Verdana" font-size="8" text-anchor="middle"  dominant-baseline="middle" fill="black" > 432</text>
<circle cx="299" cy="363" r="4" fill="white" stroke="black" />
<line x1="299" y1="367" x2="299" y2="447" stroke="black" />
<circle cx="299" cy="447" r="4" fill="white" stroke="black" />
<text x="299" y="459" font-family="Verdana" font-size="8" text-anchor="middle"  dominant-baseline="middle" fill="black" > 432</text>
<circle cx="332" cy="363" r="4" fill="white" stroke="black" />
<line x1="332" y1="367" x2="332" y2="447" stroke="black" />
<circle cx="332" cy="447" r="4" fill="white" stroke="black" />
<text x="332" y="459" font-family="Verdana" font-size="8" text-anchor="middle"  dominant-baseline="middle" fill="black" > 432</text>
<text x="500" y="7" font-family="Verdana" font-size="7" text-anchor="middle"  dominant-baseline="middle" fill="black" > C3</text>
<circle cx="500" cy="15" r="4" fill="white" stroke="black" />
<line x1="500" y1="19" x2="500" y2="88" stroke="black" />
<line x1="450" y1="88" x2="550" y2="88" stroke="black" />
<text x="525" y="80" font-family="Verdana" font-size="8" text-anchor="middle"  dominant-baseline="middle" fill="black" > 73</text>
<circle cx="450" cy="88" r="4" fill="white" stroke="black" />
<line x1="450" y1="92" x2="450" y2="226" stroke="black" />
<line x1="425" y1="226" x2="475" y2="226" stroke="black" />
<text x="462" y="218" font-family="Verdana" font-size="8" text-anchor="middle"  dominant-baseline="middle" fill="black" > 211</text>
<circle cx="425" cy="226" r="4" fill="white" stroke="black" />
<line x1="425" y1="230" x2="425" y2="425" stroke="black" />
<line x1="412" y1="425" x2="438" y2="425" stroke="black" />
<text x="431" y="417" font-family="Verdana" font-size="8" text-anchor="middle"  dominant-baseline="middle" fill="black" > 410</text>
<circle cx="412" cy="425" r="4" fill="white" stroke="black" />
<line x1="412" y1="429" x2="412" y2="447" stroke="black" />
<circle cx="412" cy="447" r="4" fill="white" stroke="black" />
<text x="412" y="459" font-family="Verdana" font-size="8" text-anchor="middle"  dominant-baseline="middle" fill="black" > 432</text>
<circle cx="437" cy="425" r="4" fill="white" stroke="black" />
<line x1="437" y1="429" x2="437" y2="447" stroke="black" />
<circle cx="437" cy="447" r="4" fill="white" stroke="black" />
<text x="437" y="459" font-family="Verdana" font-size="8" text-anchor="middle"  dominant-baseline="middle" fill="black" > 432</text>
<circle cx="475" cy="226" r="4" fill="white" stroke="black" />
<line x1="475" y1="230" x2="475" y2="399" stroke="black" />
<line x1="462" y1="399" x2="488" y2="399" stroke="black" />
<text x="481" y="391" font-family="Verdana" font-size="8" text-anchor="middle"  dominant-baseline="middle" fill="black" > 384</text>
<circle cx="462" cy="399" r="4" fill="white" stroke="black" />
<line x1="462" y1="403" x2="462" y2="447" stroke="black" />
<circle cx="462" cy="447" r="4" fill="white" stroke="black" />
<text x="462" y="459" font-family="Verdana" font-size="8" text-anchor="middle"  dominant-baseline="middle" fill="black" > 432</text>
<circle cx="487" cy="399" r="4" fill="white" stroke="black" />
<line x1="487" y1="403" x2="487" y2="447" stroke="black" />
<circle cx="487" cy="447" r="4" fill="white" stroke="black" />
<text x="487" y="459" font-family="Verdana" font-size="8" text-anchor="middle"  dominant-baseline="middle" fill="black" > 432</text>
<circle cx="550" cy="88" r="4" fill="white" stroke="black" />
<line x1="550" y1="92" x2="550" y2="236" stroke="black" />
<line x1="525" y1="236" x2="575" y2="236" stroke="black" />
<text x="562" y="228" font-family="Verdana" font-size="8" text-anchor="middle"  dominant-baseline="middle" fill="black" > 221</text>
<circle cx="525" cy="236" r="4" fill="white" stroke="black" />
<line x1="525" y1="240" x2="525" y2="363" stroke="black" />
<line x1="512" y1="363" x2="538" y2="363" stroke="black" />
<text x="531" y="355" font-family="Verdana" font-size="8" text-anchor="middle"  dominant-baseline="middle" fill="black" > 348</text>
<circle cx="512" cy="363" r="4" fill="white" stroke="black" />
<line x1="512" y1="367" x2="512" y2="447" stroke="black" />
<circle cx="512" cy="447" r="4" fill="white" stroke="black" />
<text x="512" y="459" font-family="Verdana" font-size="8" text-anchor="middle"  dominant-baseline="middle" fill="black" > 432</text>
<circle cx="537" cy="363" r="4" fill="white" stroke="black" />
<line x1="537" y1="367" x2="537" y2="447" stroke="black" />
<circle cx="537" cy="447" r="4" fill="white" stroke="black" />
<text x="537" y="459" font-family="Verdana" font-size="8" text-anchor="middle"  dominant-baseline="middle" fill="black" > 432</text>
<circle cx="575" cy="236" r="4" fill="white" stroke="black" />
<line x1="575" y1="240" x2="575" y2="352" stroke="black" />
<line x1="562" y1="352" x2="588" y2="352" stroke="black" />
<text x="581" y="344" font-family="Verdana" font-size="8" text-anchor="middle"  dominant-baseline="middle" fill="black" > 337</text>
<circle cx="562" cy="352" r="4" fill="white" stroke="black" />
<line x1="562" y1="356" x2="562" y2="447" stroke="black" />
<circle cx="562" cy="447" r="4" fill="white" stroke="black" />
<text x="562" y="459" font-family="Verdana" font-size="8" text-anchor="middle"  dominant-baseline="middle" fill="black" > 432</text>
<circle cx="587" cy="352" r="4" fill="white" stroke="black" />
<line x1="587" y1="356" x2="587" y2="447" stroke="black" />
<circle cx="587" cy="447" r="4" fill="white" stroke="black" />
<text x="587" y="459" font-family="Verdana" font-size="8" text-anchor="middle"  dominant-baseline="middle" fill="black" > 432</text>
<text x="700" y="7" font-family="Verdana" font-size="7" text-anchor="middle"  dominant-baseline="middle" fill="black" > C4</text>
<circle cx="700" cy="15" r="4" fill="white" stroke="black" />
<line x1="700" y1="19" x2="700" y2="114" stroke="black" />
<line x1="650" y1="114" x2="750" y2="114" stroke="black" />
<text x="725" y="106" font-family="Verdana" font-size="8" text-anchor="middle"  dominant-baseline="middle" fill="black" > 99</text>
<circle cx="650" cy="114" r="4" fill="white" stroke="black" />
<line x1="650" y1="118" x2="650" y2="392" stroke="black" />
<line x1="625" y1="392" x2="675" y2="392" stroke="black" />
<text x="662" y="384" font-family="Verdana" font-size="8" text-anchor="middle"  dominant-baseline="middle" fill="black" > 377</text>
<circle cx="625" cy="392" r="4" fill="white" stroke="black" />
<line x1="625" y1="396" x2="625" y2="447" stroke="black" />
<circle cx="625" cy="447" r="4" fill="white" stroke="black" />
<text x="625" y="459" font-family="Verdana" font-size="8" text-anchor="middle"  dominant-baseline="middle" fill="black" > 432</text>
<circle cx="675" cy="392" r="4" fill="white" stroke="black" />
<line x1="675" y1="396" x2="675" y2="447" stroke="black" />
<circle cx="675" cy="447" r="4" fill="white" stroke="black" />
<text x="675" y="459" font-family="Verdana" font-size="8" text-anchor="middle"  dominant-baseline="middle" fill="black" > 432</text>
<circle cx="750" cy="114" r="4" fill="white" stroke="black" />
<line x1="750" y1="118" x2="750" y2="243" stroke="black" />
<line x1="725" y1="243" x2="775" y2="243" stroke="black" />
<text x="762" y="235" font-family="Verdana" font-size="8" text-anchor="middle"  dominant-baseline="middle" fill="black" > 228</text>
<circle cx="725" cy="243" r="4" fill="white" stroke="black" />
<line x1="725" y1="247" x2="725" y2="447" stroke="black" />
<circle cx="725" cy="447" r="4" fill="white" stroke="black" />
<text x="725" y="459" font-family="Verdana" font-size="8" text-anchor="middle"  dominant-baseline="middle" fill="black" > 432</text>
<circle cx="775" cy="243" r="4" fill="white" stroke="black" />
<line x1="775" y1="247" x2="775" y2="429" stroke="black" />
<line x1="762" y1="429" x2="788" y2="429" stroke="black" />
<text x="781" y="421" font-family="Verdana" font-size="8" text-anchor="middle"  dominant-baseline="middle" fill="black" > 414</text>
<circle cx="762" cy="429" r="4" fill="white" stroke="black" />
<line x1="762" y1="433" x2="762" y2="447" stroke="black" />
<circle cx="762" cy="447" r="4" fill="white" stroke="black" />
<text x="762" y="459" font-family="Verdana" font-size="8" text-anchor="middle"  dominant-baseline="middle" fill="black" > 432</text>
<circle cx="787" cy="429" r="4" fill="white" stroke="black" />
<line x1="787" y1="433" x2="787" y2="447" stroke="black" />
<circle cx="787" cy="447" r="4" fill="white" stroke="black" />
<text x="787" y="459" font-family="Verdana" font-size="8" text-anchor="middle"  dominant-baseline="middle" fill="black" > 432</text>
<text x="900" y="7" font-family="Verdana" font-size="7" text-anchor="middle"  dominant-baseline="middle" fill="black" > C5</text>
<circle cx="900" cy="15" r="4" fill="white" stroke="black" />
<line x1="900" y1="19" x2="900" y2="195" stroke="black" />
<line x1="850" y1="195" x2="950" y2="195" stroke="black" />
<text x="925" y="187" font-family="Verdana" font-size="8" text-anchor="middle"  dominant-baseline="middle" fill="black" > 180</text>
<circle cx="850" cy="195" r="4" fill="white" stroke="black" />
<line x1="850" y1="199" x2="850" y2="304" stroke="black" />
<line x1="825" y1="304" x2="875" y2="304" stroke="black" />
<text x="862" y="296" font-family="Verdana" font-size="8" text-anchor="middle"  dominant-baseline="middle" fill="black" > 289</text>
<circle cx="825" cy="304" r="4" fill="white" stroke="black" />
<line x1="825" y1="308" x2="825" y2="446" stroke="black" />
<line x1="812" y1="446" x2="838" y2="446" stroke="black" />
<text x="831" y="438" font-family="Verdana" font-size="8" text-anchor="middle"  dominant-baseline="middle" fill="black" > 431</text>
<circle cx="812" cy="446" r="4" fill="white" stroke="black" />
<line x1="812" y1="450" x2="812" y2="447" stroke="black" />
<circle cx="812" cy="447" r="4" fill="white" stroke="black" />
<text x="812" y="459" font-family="Verdana" font-size="8" text-anchor="middle"  dominant-baseline="middle" fill="black" > 432</text>
<circle cx="837" cy="446" r="4" fill="white" stroke="black" />
<line x1="837" y1="450" x2="837" y2="447" stroke="black" />
<circle cx="837" cy="447" r="4" fill="white" stroke="black" />
<text x="837" y="459" font-family="Verdana" font-size="8" text-anchor="middle"  dominant-baseline="middle" fill="black" > 432</text>
<circle cx="875" cy="304" r="4" fill="white" stroke="black" />
<line x1="875" y1="308" x2="875" y2="427" stroke="black" />
<line x1="862" y1="427" x2="888" y2="427" stroke="black" />
<text x="881" y="419" font-family="Verdana" font-size="8" text-anchor="middle"  dominant-baseline="middle" fill="black" > 412</text>
<circle cx="862" cy="427" r="4" fill="white" stroke="black" />
<line x1="862" y1="431" x2="862" y2="447" stroke="black" />
<circle cx="862" cy="447" r="4" fill="white" stroke="black" />
<text x="862" y="459" font-family="Verdana" font-size="8" text-anchor="middle"  dominant-baseline="middle" fill="black" > 432</text>
<circle cx="887" cy="427" r="4" fill="white" stroke="black" />
<line x1="887" y1="431" x2="887" y2="447" stroke="black" />
<circle cx="887" cy="447" r="4" fill="white" stroke="black" />
<text x="887" y="459" font-family="Verdana" font-size="8" text-anchor="middle"  dominant-baseline="middle" fill="black" > 432</text>
<circle cx="950" cy="195" r="4" fill="white" stroke="black" />
<line x1="950" y1="199" x2="950" y2="305" stroke="black" />
<line x1="925" y1="305" x2="975" y2="305" stroke="black" />
<text x="962" y="297" font-family="Verdana" font-size="8" text-anchor="middle"  dominant-baseline="middle" fill="black" > 290</text>
<circle cx="925" cy="305" r="4" fill="white" stroke="black" />
<line x1="925" y1="309" x2="925" y2="433" stroke="black" />
<line x1="912" y1="433" x2="938" y2="433" stroke="black" />
<text x="931" y="425" font-family="Verdana" font-size="8" text-anchor="middle"  dominant-baseline="middle" fill="black" > 418</text>
<circle cx="912" cy="433" r="4" fill="white" stroke="black" />
<line x1="912" y1="437" x2="912" y2="447" stroke="black" />
<circle cx="912" cy="447" r="4" fill="white" stroke="black" />
<text x="912" y="459" font-family="Verdana" font-size="8" text-anchor="middle"  dominant-baseline="middle" fill="black" > 432</text>
<circle cx="937" cy="433" r="4" fill="white" stroke="black" />
<line x1="937" y1="437" x2="937" y2="447" stroke="black" />
<circle cx="937" cy="447" r="4" fill="white" stroke="black" />
<text x="937" y="459" font-family="Verdana" font-size="8" text-anchor="middle"  dominant-baseline="middle" fill="black" > 432</text>
<circle cx="975" cy="305" r="4" fill="white" stroke="black" />
<line x1="975" y1="309" x2="975" y2="411" stroke="black" />
<line x1="962" y1="411" x2="988" y2="411" stroke="black" />
<text x="981" y="403" font-family="Verdana" font-size="8" text-anchor="middle"  dominant-baseline="middle" fill="black" > 396</text>
<circle cx="962" cy="411" r="4" fill="white" stroke="black" />
<line x1="962" y1="415" x2="962" y2="447" stroke="black" />
<circle cx="962" cy="447" r="4" fill="white" stroke="black" />
<text x="962" y="459" font-family="Verdana" font-size="8" text-anchor="middle"  dominant-baseline="middle" fill="black" > 432</text>
<circle cx="987" cy="411" r="4" fill="white" stroke="black" />
<line x1="987" y1="415" x2="987" y2="447" stroke="black" />
<circle cx="987" cy="447" r="4" fill="white" stroke="black" />
<text x="987" y="459" font-family="Verdana" font-size="8" text-anchor="middle"  dominant-baseline="middle" fill="black" > 432</text>
<text x="1100" y="7" font-family="Verdana" font-size="7" text-anchor="middle"  dominant-baseline="middle" fill="black" > C6</text>
<circle cx="1100" cy="15" r="4" fill="white" stroke="black" />
<line x1="1100" y1="19" x2="1100" y2="82" stroke="black" />
<line x1="1050" y1="82" x2="1150" y2="82" stroke="black" />
<text x="1125" y="74" font-family="Verdana" font-size="8" text-anchor="middle"  dominant-baseline="middle" fill="black" > 67</text>
<circle cx="1050" cy="82" r="4" fill="white" stroke="black" />
<line x1="1050" y1="86" x2="1050" y2="243" stroke="black" />
<line x1="1025" y1="243" x2="1075" y2="243" stroke="black" />
<text x="1062" y="235" font-family="Verdana" font-size="8" text-anchor="middle"  dominant-baseline="middle" fill="black" > 228</text>
<circle cx="1025" cy="243" r="4" fill="white" stroke="black" />
<line x1="1025" y1="247" x2="1025" y2="358" stroke="black" />
<line x1="1012" y1="358" x2="1038" y2="358" stroke="black" />
<text x="1031" y="350" font-family="Verdana" font-size="8" text-anchor="middle"  dominant-baseline="middle" fill="black" > 343</text>
<circle cx="1012" cy="358" r="4" fill="white" stroke="black" />
<line x1="1012" y1="362" x2="1012" y2="447" stroke="black" />
<circle cx="1012" cy="447" r="4" fill="white" stroke="black" />
<text x="1012" y="459" font-family="Verdana" font-size="8" text-anchor="middle"  dominant-baseline="middle" fill="black" > 432</text>
<circle cx="1037" cy="358" r="4" fill="white" stroke="black" />
<line x1="1037" y1="362" x2="1037" y2="447" stroke="black" />
<circle cx="1037" cy="447" r="4" fill="white" stroke="black" />
<text x="1037" y="459" font-family="Verdana" font-size="8" text-anchor="middle"  dominant-baseline="middle" fill="black" > 432</text>
<circle cx="1075" cy="243" r="4" fill="white" stroke="black" />
<line x1="1075" y1="247" x2="1075" y2="362" stroke="black" />
<line x1="1062" y1="362" x2="1088" y2="362" stroke="black" />
<text x="1081" y="354" font-family="Verdana" font-size="8" text-anchor="middle"  dominant-baseline="middle" fill="black" > 347</text>
<circle cx="1062" cy="362" r="4" fill="white" stroke="black" />
<line x1="1062" y1="366" x2="1062" y2="447" stroke="black" />
<circle cx="1062" cy="447" r="4" fill="white" stroke="black" />
<text x="1062" y="459" font-family="Verdana" font-size="8" text-anchor="middle"  dominant-baseline="middle" fill="black" > 432</text>
<circle cx="1087" cy="362" r="4" fill="white" stroke="black" />
<line x1="1087" y1="366" x2="1087" y2="447" stroke="black" />
<circle cx="1087" cy="447" r="4" fill="white" stroke="black" />
<text x="1087" y="459" font-family="Verdana" font-size="8" text-anchor="middle"  dominant-baseline="middle" fill="black" > 432</text>
<circle cx="1150" cy="82" r="4" fill="white" stroke="black" />
<line x1="1150" y1="86" x2="1150" y2="245" stroke="black" />
<line x1="1125" y1="245" x2="1175" y2="245" stroke="black" />
<text x="1162" y="237" font-family="Verdana" font-size="8" text-anchor="middle"  dominant-baseline="middle" fill="black" > 230</text>
<circle cx="1125" cy="245" r="4" fill="white" stroke="black" />
<line x1="1125" y1="249" x2="1125" y2="390" stroke="black" />
<line x1="1112" y1="390" x2="1138" y2="390" stroke="black" />
<text x="1131" y="382" font-family="Verdana" font-size="8" text-anchor="middle"  dominant-baseline="middle" fill="black" > 375</text>
<circle cx="1112" cy="390" r="4" fill="white" stroke="black" />
<line x1="1112" y1="394" x2="1112" y2="447" stroke="black" />
<circle cx="1112" cy="447" r="4" fill="white" stroke="black" />
<text x="1112" y="459" font-family="Verdana" font-size="8" text-anchor="middle"  dominant-baseline="middle" fill="black" > 432</text>
<circle cx="1137" cy="390" r="4" fill="white" stroke="black" />
<line x1="1137" y1="394" x2="1137" y2="447" stroke="black" />
<circle cx="1137" cy="447" r="4" fill="white" stroke="black" />
<text x="1137" y="459" font-family="Verdana" font-size="8" text-anchor="middle"  dominant-baseline="middle" fill="black" > 432</text>
<circle cx="1175" cy="245" r="4" fill="white" stroke="black" />
<line x1="1175" y1="249" x2="1175" y2="402" stroke="black" />
<line x1="1162" y1="402" x2="1188" y2="402" stroke="black" />
<text x="1181" y="394" font-family="Verdana" font-size="8" text-anchor="middle"  dominant-baseline="middle" fill="black" > 387</text>
<circle cx="1162" cy="402" r="4" fill="white" stroke="black" />
<line x1="1162" y1="406" x2="1162" y2="447" stroke="black" />
<circle cx="1162" cy="447" r="4" fill="white" stroke="black" />
<text x="1162" y="459" font-family="Verdana" font-size="8" text-anchor="middle"  dominant-baseline="middle" fill="black" > 432</text>
<circle cx="1187" cy="402" r="4" fill="white" stroke="black" />
<line x1="1187" y1="406" x2="1187" y2="447" stroke="black" />
<circle cx="1187" cy="447" r="4" fill="white" stroke="black" />
<text x="1187" y="459" font-family="Verdana" font-size="8" text-anchor="middle"  dominant-baseline="middle" fill="black" > 432</text>
<text x="1300" y="7" font-family="Verdana" font-size="7" text-anchor="middle"  dominant-baseline="middle" fill="black" > C7</text>
<circle cx="1300" cy="15" r="4" fill="white" stroke="black" />
<line x1="1300" y1="19" x2="1300" y2="114" stroke="black" />
<line x1="1250" y1="114" x2="1350" y2="114" stroke="black" />
<text x="1325" y="106" font-family="Verdana" font-size="8" text-anchor="middle"  dominant-baseline="middle" fill="black" > 99</text>
<circle cx="1250" cy="114" r="4" fill="white" stroke="black" />
<line x1="1250" y1="118" x2="1250" y2="271" stroke="black" />
<line x1="1225" y1="271" x2="1275" y2="271" stroke="black" />
<text x="1262" y="263" font-family="Verdana" font-size="8" text-anchor="middle"  dominant-baseline="middle" fill="black" > 256</text>
<circle cx="1225" cy="271" r="4" fill="white" stroke="black" />
<line x1="1225" y1="275" x2="1225" y2="430" stroke="black" />
<line x1="1212" y1="430" x2="1238" y2="430" stroke="black" />
<text x="1231" y="422" font-family="Verdana" font-size="8" text-anchor="middle"  dominant-baseline="middle" fill="black" > 415</text>
<circle cx="1212" cy="430" r="4" fill="white" stroke="black" />
<line x1="1212" y1="434" x2="1212" y2="447" stroke="black" />
<circle cx="1212" cy="447" r="4" fill="white" stroke="black" />
<text x="1212" y="459" font-family="Verdana" font-size="8" text-anchor="middle"  dominant-baseline="middle" fill="black" > 432</text>
<circle cx="1237" cy="430" r="4" fill="white" stroke="black" />
<line x1="1237" y1="434" x2="1237" y2="447" stroke="black" />
<circle cx="1237" cy="447" r="4" fill="white" stroke="black" />
<text x="1237" y="459" font-family="Verdana" font-size="8" text-anchor="middle"  dominant-baseline="middle" fill="black" > 432</text>
<circle cx="1275" cy="271" r="4" fill="white" stroke="black" />
<line x1="1275" y1="275" x2="1275" y2="409" stroke="black" />
<line x1="1262" y1="409" x2="1288" y2="409" stroke="black" />
<text x="1281" y="401" font-family="Verdana" font-size="8" text-anchor="middle"  dominant-baseline="middle" fill="black" > 394</text>
<circle cx="1262" cy="409" r="4" fill="white" stroke="black" />
<line x1="1262" y1="413" x2="1262" y2="447" stroke="black" />
<circle cx="1262" cy="447" r="4" fill="white" stroke="black" />
<text x="1262" y="459" font-family="Verdana" font-size="8" text-anchor="middle"  dominant-baseline="middle" fill="black" > 432</text>
<circle cx="1287" cy="409" r="4" fill="white" stroke="black" />
<line x1="1287" y1="413" x2="1287" y2="447" stroke="black" />
<circle cx="1287" cy="447" r="4" fill="white" stroke="black" />
<text x="1287" y="459" font-family="Verdana" font-size="8" text-anchor="middle"  dominant-baseline="middle" fill="black" > 432</text>
<circle cx="1350" cy="114" r="4" fill="white" stroke="black" />
<line x1="1350" y1="118" x2="1350" y2="269" stroke="black" />
<line x1="1325" y1="269" x2="1375" y2="269" stroke="black" />
<text x="1362" y="261" font-family="Verdana" font-size="8" text-anchor="middle"  dominant-baseline="middle" fill="black" > 254</text>
<circle cx="1325" cy="269" r="4" fill="white" stroke="black" />
<line x1="1325" y1="273" x2="1325" y2="401" stroke="black" />
<line x1="1312" y1="401" x2="1338" y2="401" stroke="black" />
<text x="1331" y="393" font-family="Verdana" font-size="8" text-anchor="middle"  dominant-baseline="middle" fill="black" > 386</text>
<circle cx="1312" cy="401" r="4" fill="white" stroke="black" />
<line x1="1312" y1="405" x2="1312" y2="447" stroke="black" />
<circle cx="1312" cy="447" r="4" fill="white" stroke="black" />
<text x="1312" y="459" font-family="Verdana" font-size="8" text-anchor="middle"  dominant-baseline="middle" fill="black" > 432</text>
<circle cx="1337" cy="401" r="4" fill="white" stroke="black" />
<line x1="1337" y1="405" x2="1337" y2="447" stroke="black" />
<circle cx="1337" cy="447" r="4" fill="white" stroke="black" />
<text x="1337" y="459" font-family="Verdana" font-size="8" text-anchor="middle"  dominant-baseline="middle" fill="black" > 432</text>
<circle cx="1375" cy="269" r="4" fill="white" stroke="black" />
<line x1="1375" y1="273" x2="1375" y2="401" stroke="black" />
<line x1="1362" y1="401" x2="1388" y2="401" stroke="black" />
<text x="1381" y="393" font-family="Verdana" font-size="8" text-anchor="middle"  dominant-baseline="middle" fill="black" > 386</text>
<circle cx="1362" cy="401" r="4" fill="white" stroke="black" />
<line x1="1362" y1="405" x2="1362" y2="447" stroke="black" />
<circle cx="1362" cy="447" r="4" fill="white" stroke="black" />
<text x="1362" y="459" font-family="Verdana" font-size="8" text-anchor="middle"  dominant-baseline="middle" fill="black" > 432</text>
<circle cx="1387" cy="401" r="4" fill="white" stroke="black" />
<line x1="1387" y1="405" x2="1387" y2="447" stroke="black" />
<circle cx="1387" cy="447" r="4" fill="white" stroke="black" />
<text x="1387" y="459" font-family="Verdana" font-size="8" text-anchor="middle"  dominant-baseline="middle" fill="black" > 432</text>
<text x="1500" y="7" font-family="Verdana" font-size="7" text-anchor="middle"  dominant-baseline="middle" fill="black" > C8</text>
<circle cx="1500" cy="15" r="4" fill="white" stroke="black" />
<line x1="1500" y1="19" x2="1500" y2="117" stroke="black" />
<line x1="1450" y1="117" x2="1550" y2="117" stroke="black" />
<text x="1525" y="109" font-family="Verdana" font-size="8" text-anchor="middle"  dominant-baseline="middle" fill="black" > 102</text>
<circle cx="1450" cy="117" r="4" fill="white" stroke="black" />
<circle cx="1550" cy="117" r="4" fill="white" stroke="black" />
<line x1="1450" y1="121" x2="1450" y2="119" stroke="black" />
<line x1="1450" y1="119" x2="1500" y2="119" stroke="black" />
<line x1="1550" y1="121" x2="1550" y2="119" stroke="black" />
<line x1="1550" y1="119" x2="1500" y2="119" stroke="black" />
<text x="1500" y="107" font-family="Verdana" font-size="8" text-anchor="middle"  dominant-baseline="middle" fill="black" > 104</text>
<circle cx="1500" cy="119" r="4" fill="white" stroke="black" />
<line x1="1500" y1="123" x2="1500" y2="308" stroke="black" />
<line x1="1496" y1="304" x2="1504" y2="312" stroke="red" />
<line x1="1496" y1="312" x2="1504" y2="304" stroke="red" />
<text x="1500" y="320" font-family="Verdana" font-size="8" text-anchor="middle"  dominant-baseline="middle" fill="black" > 293</text>
<text x="1700" y="7" font-family="Verdana" font-size="7" text-anchor="middle"  dominant-baseline="middle" fill="black" > C9</text>
<circle cx="1700" cy="15" r="4" fill="white" stroke="black" />
<line x1="1700" y1="19" x2="1700" y2="16" stroke="black" />
<line x1="1650" y1="16" x2="1750" y2="16" stroke="black" />
<text x="1725" y="8" font-family="Verdana" font-size="8" text-anchor="middle"  dominant-baseline="middle" fill="black" > 1</text>
<circle cx="1650" cy="16" r="4" fill="white" stroke="black" />
<line x1="1650" y1="20" x2="1650" y2="17" stroke="black" />
<line x1="1646" y1="21" x2="1650" y2="13" stroke="blue" />
<line x1="1650" y1="21" x2="1654" y2="13" stroke="blue" />
<text x="1650" y="29" font-family="Verdana" font-size="8" text-anchor="middle"  dominant-baseline="middle" fill="black" > 2</text>
<circle cx="1750" cy="16" r="4" fill="white" stroke="black" />
<line x1="1750" y1="20" x2="1750" y2="176" stroke="black" />
<line x1="1725" y1="176" x2="1775" y2="176" stroke="black" />
<text x="1762" y="168" font-family="Verdana" font-size="8" text-anchor="middle"  dominant-baseline="middle" fill="black" > 161</text>
<circle cx="1725" cy="176" r="4" fill="white" stroke="black" />
<line x1="1725" y1="180" x2="1725" y2="353" stroke="black" />
<line x1="1712" y1="353" x2="1738" y2="353" stroke="black" />
<text x="1731" y="345" font-family="Verdana" font-size="8" text-anchor="middle"  dominant-baseline="middle" fill="black" > 338</text>
<circle cx="1712" cy="353" r="4" fill="white" stroke="black" />
<line x1="1712" y1="357" x2="1712" y2="447" stroke="black" />
<circle cx="1712" cy="447" r="4" fill="white" stroke="black" />
<text x="1712" y="459" font-family="Verdana" font-size="8" text-anchor="middle"  dominant-baseline="middle" fill="black" > 432</text>
<circle cx="1737" cy="353" r="4" fill="white" stroke="black" />
<line x1="1737" y1="357" x2="1737" y2="447" stroke="black" />
<circle cx="1737" cy="447" r="4" fill="white" stroke="black" />
<text x="1737" y="459" font-family="Verdana" font-size="8" text-anchor="middle"  dominant-baseline="middle" fill="black" > 432</text>
<circle cx="1775" cy="176" r="4" fill="white" stroke="black" />
<line x1="1775" y1="180" x2="1775" y2="365" stroke="black" />
<line x1="1762" y1="365" x2="1788" y2="365" stroke="black" />
<text x="1781" y="357" font-family="Verdana" font-size="8" text-anchor="middle"  dominant-baseline="middle" fill="black" > 350</text>
<circle cx="1762" cy="365" r="4" fill="white" stroke="black" />
<line x1="1762" y1="369" x2="1762" y2="447" stroke="black" />
<circle cx="1762" cy="447" r="4" fill="white" stroke="black" />
<text x="1762" y="459" font-family="Verdana" font-size="8" text-anchor="middle"  dominant-baseline="middle" fill="black" > 432</text>
<circle cx="1787" cy="365" r="4" fill="white" stroke="black" />
<line x1="1787" y1="369" x2="1787" y2="447" stroke="black" />
<circle cx="1787" cy="447" r="4" fill="white" stroke="black" />
<text x="1787" y="459" font-family="Verdana" font-size="8" text-anchor="middle"  dominant-baseline="middle" fill="black" > 432</text>
</svg>
