<?xml version="1.0" encoding="utf-8"?>
<svg xmlns="http://www.w3.org/2000/svg" version="1.1" width="2650" height="750">
<rect width="2650" height="15" x="0" y="0" fill="white" />
<rect width="2650" height="15" x="0" y="735" fill="white" />
<rect width="25" height="750" x="0" y="0" fill="white" />
<rect width="25" height="750" x="2625" y="0" fill="white" />
<rect width="2610" height="144" x="25" y="15" fill="ghostwhite" />
<rect width="2610" height="144" x="25" y="159" fill="snow" />
<rect width="2610" height="144" x="25" y="303" fill="ghostwhite" />
<rect width="2610" height="144" x="25" y="447" fill="snow" />
<rect width="2610" height="144" x="25" y="591" fill="ghostwhite" />
<text x="12" y="87" font-family="Verdana" font-size="10" text-anchor="middle"  dominant-baseline="middle" fill="red" > D0</text>
<text x="12" y="231" font-family="Verdana" font-size="10" text-anchor="middle"  dominant-baseline="middle" fill="red" > D1</text>
<text x="12" y="375" font-family="Verdana" font-size="10" text-anchor="middle"  dominant-baseline="middle" fill="red" > D2</text>
<text x="12" y="519" font-family="Verdana" font-size="10" text-anchor="middle"  dominant-baseline="middle" fill="red" > D3</text>
<text x="12" y="663" font-family="Verdana" font-size="10" text-anchor="middle"  dominant-baseline="middle" fill="red" > D4</text>
<text x="12" y="20" font-family="Verdana" font-size="10" text-anchor="middle"  dominant-baseline="middle" fill="black" > 0</text>
<text x="12" y="164" font-family="Verdana" font-size="10" text-anchor="middle"  dominant-baseline="middle" fill="black" > 144</text>
<text x="12" y="308" font-family="Verdana" font-size="10" text-anchor="middle"  dominant-baseline="middle" fill="black" > 288</text>
<text x="12" y="452" font-family="Verdana" font-size="10" text-anchor="middle"  dominant-baseline="middle" fill="black" > 432</text>
<text x="12" y="596" font-family="Verdana" font-size="10" text-anchor="middle"  dominant-baseline="middle" fill="black" > 576</text>
<text x="12" y="740" font-family="Verdana" font-size="10" text-anchor="middle"  dominant-baseline="middle" fill="black" > 720</text>
<text x="50" y="7" font-family="Verdana" font-size="7" text-anchor="middle"  dominant-baseline="middle" fill="black" > C1</text>
<circle cx="50" cy="15" r="4" fill="white" stroke="black" />
<line x1="50" y1="19" x2="50" y2="222" stroke="black" />
<line x1="46" y1="218" x2="54" y2="226" stroke="red" />
<line x1="46" y1="226" x2="54" y2="218" stroke="red" />
<text x="50" y="234" font-family="Verdana" font-size="8" text-anchor="middle"  dominant-baseline="middle" fill="black" > 207</text>
<text x="150" y="7" font-family="Verdana" font-size="7" text-anchor="middle"  dominant-baseline="middle" fill="black" > C2</text>
<circle cx="150" cy="15" r="4" fill="white" stroke="black" />
<line x1="150" y1="19" x2="150" y2="186" stroke="black" />
<line x1="146" y1="190" x2="150" y2="182" stroke="blue" />
<line x1="150" y1="190" x2="154" y2="182" stroke="blue" />
<text x="150" y="198" font-family="Verdana" font-size="8" text-anchor="middle"  dominant-baseline="middle" fill="black" > 171</text>
<text x="300" y="7" font-family="Verdana" font-size="7" text-anchor="middle"  dominant-baseline="middle" fill="black" > C3</text>
<circle cx="300" cy="15" r="4" fill="white" stroke="black" />
<line x1="300" y1="19" x2="300" y2="185" stroke="black" />
<line x1="250" y1="185" x2="350" y2="185" stroke="black" />
<text x="325" y="177" font-family="Verdana" font-size="8" text-anchor="middle"  dominant-baseline="middle" fill="black" > 170</text>
<circle cx="250" cy="185" r="4" fill="white" stroke="black" />
<line x1="250" y1="189" x2="250" y2="447" stroke="black" />
<circle cx="250" cy="447" r="4" fill="white" stroke="black" />
<text x="250" y="459" font-family="Verdana" font-size="8" text-anchor="middle"  dominant-baseline="middle" fill="black" > 432</text>
<circle cx="350" cy="185" r="4" fill="white" stroke="black" />
<line x1="350" y1="189" x2="350" y2="447" stroke="black" />
<circle cx="350" cy="447" r="4" fill="white" stroke="black" />
<text x="350" y="459" font-family="Verdana" font-size="8" text-anchor="middle"  dominant-baseline="middle" fill="black" > 432</text>
<text x="500" y="7" font-family="Verdana" font-size="7" text-anchor="middle"  dominant-baseline="middle" fill="black" > C4</text>
<circle cx="500" cy="15" r="4" fill="white" stroke="black" />
<line x1="500" y1="19" x2="500" y2="237" stroke="black" />
<line x1="450" y1="237" x2="550" y2="237" stroke="black" />
<text x="525" y="229" font-family="Verdana" font-size="8" text-anchor="middle"  dominant-baseline="middle" fill="black" > 222</text>
<circle cx="450" cy="237" r="4" fill="white" stroke="black" />
<line x1="450" y1="241" x2="450" y2="447" stroke="black" />
<circle cx="450" cy="447" r="4" fill="white" stroke="black" />
<text x="450" y="459" font-family="Verdana" font-size="8" text-anchor="middle"  dominant-baseline="middle" fill="black" > 432</text>
<circle cx="550" cy="237" r="4" fill="white" stroke="black" />
<line x1="550" y1="241" x2="550" y2="421" stroke="black" />
<line x1="546" y1="417" x2="554" y2="425" stroke="red" />
<line x1="546" y1="425" x2="554" y2="417" stroke="red" />
<text x="550" y="433" font-family="Verdana" font-size="8" text-anchor="middle"  dominant-baseline="middle" fill="black" > 406</text>
<text x="700" y="7" font-family="Verdana" font-size="7" text-anchor="middle"  dominant-baseline="middle" fill="black" > C5</text>
<circle cx="700" cy="15" r="4" fill="white" stroke="black" />
<line x1="700" y1="19" x2="700" y2="68" stroke="black" />
<line x1="650" y1="68" x2="750" y2="68" stroke="black" />
<text x="725" y="60" font-family="Verdana" font-size="8" text-anchor="middle"  dominant-baseline="middle" fill="black" > 53</text>
<circle cx="650" cy="68" r="4" fill="white" stroke="black" />
<line x1="650" y1="72" x2="650" y2="209" stroke="black" />
<line x1="625" y1="209" x2="675" y2="209" stroke="black" />
<text x="662" y="201" font-family="Verdana" font-size="8" text-anchor="middle"  dominant-baseline="middle" fill="black" > 194</text>
<circle cx="625" cy="209" r="4" fill="white" stroke="black" />
<line x1="625" y1="213" x2="625" y2="447" stroke="black" />
<circle cx="625" cy="447" r="4" fill="white" stroke="black" />
<text x="625" y="459" font-family="Verdana" font-size="8" text-anchor="middle"  dominant-baseline="middle" fill="black" > 432</text>
<circle cx="675" cy="209" r="4" fill="white" stroke="black" />
<line x1="675" y1="213" x2="675" y2="447" stroke="black" />
<circle cx="675" cy="447" r="4" fill="white" stroke="black" />
<text x="675" y="459" font-family="Verdana" font-size="8" text-anchor="middle"  dominant-baseline="middle" fill="black" > 432</text>
<circle cx="750" cy="68" r="4" fill="white" stroke="black" />
<line x1="750" y1="72" x2="750" y2="208" stroke="black" />
<line x1="725" y1="208" x2="775" y2="208" stroke="black" />
<text x="762" y="200" font-family="Verdana" font-size="8" text-anchor="middle"  dominant-baseline="middle" fill="black" > 193</text>
<circle cx="725" cy="208" r="4" fill="white" stroke="black" />
<line x1="725" y1="212" x2="725" y2="340" stroke="black" />
<line x1="712" y1="340" x2="738" y2="340" stroke="black" />
<text x="731" y="332" font-family="Verdana" font-size="8" text-anchor="middle"  dominant-baseline="middle" fill="black" > 325</text>
<circle cx="712" cy="340" r="4" fill="white" stroke="black" />
<line x1="712" y1="344" x2="712" y2="447" stroke="black" />
<circle cx="712" cy="447" r="4" fill="white" stroke="black" />
<text x="712" y="459" font-family="Verdana" font-size="8" text-anchor="middle"  dominant-baseline="middle" fill="black" > 432</text>
<circle cx="737" cy="340" r="4" fill="white" stroke="black" />
<line x1="737" y1="344" x2="737" y2="447" stroke="black" />
<circle cx="737" cy="447" r="4" fill="white" stroke="black" />
<text x="737" y="459" font-family="Verdana" font-size="8" text-anchor="middle"  dominant-baseline="middle" fill="black" > 432</text>
<circle cx="775" cy="208" r="4" fill="white" stroke="black" />
<line x1="775" y1="212" x2="775" y2="329" stroke="black" />
<line x1="762" y1="329" x2="788" y2="329" stroke="black" />
<text x="781" y="321" font-family="Verdana" font-size="8" text-anchor="middle"  dominant-baseline="middle" fill="black" > 314</text>
<circle cx="762" cy="329" r="4" fill="white" stroke="black" />
<line x1="762" y1="333" x2="762" y2="447" stroke="black" />
<circle cx="762" cy="447" r="4" fill="white" stroke="black" />
<text x="762" y="459" font-family="Verdana" font-size="8" text-anchor="middle"  dominant-baseline="middle" fill="black" > 432</text>
<circle cx="787" cy="329" r="4" fill="white" stroke="black" />
<line x1="787" y1="333" x2="787" y2="447" stroke="black" />
<circle cx="787" cy="447" r="4" fill="white" stroke="black" />
<text x="787" y="459" font-family="Verdana" font-size="8" text-anchor="middle"  dominant-baseline="middle" fill="black" > 432</text>
<text x="900" y="7" font-family="Verdana" font-size="7" text-anchor="middle"  dominant-baseline="middle" fill="black" > C6</text>
<circle cx="900" cy="15" r="4" fill="white" stroke="black" />
<line x1="900" y1="19" x2="900" y2="83" stroke="black" />
<line x1="850" y1="83" x2="950" y2="83" stroke="black" />
<text x="925" y="75" font-family="Verdana" font-size="8" text-anchor="middle"  dominant-baseline="middle" fill="black" > 68</text>
<circle cx="850" cy="83" r="4" fill="white" stroke="black" />
<line x1="850" y1="87" x2="850" y2="196" stroke="black" />
<line x1="825" y1="196" x2="875" y2="196" stroke="black" />
<text x="862" y="188" font-family="Verdana" font-size="8" text-anchor="middle"  dominant-baseline="middle" fill="black" > 181</text>
<circle cx="825" cy="196" r="4" fill="white" stroke="black" />
<line x1="825" y1="200" x2="825" y2="323" stroke="black" />
<line x1="812" y1="323" x2="838" y2="323" stroke="black" />
<text x="831" y="315" font-family="Verdana" font-size="8" text-anchor="middle"  dominant-baseline="middle" fill="black" > 308</text>
<circle cx="812" cy="323" r="4" fill="white" stroke="black" />
<line x1="812" y1="327" x2="812" y2="447" stroke="black" />
<circle cx="812" cy="447" r="4" fill="white" stroke="black" />
<text x="812" y="459" font-family="Verdana" font-size="8" text-anchor="middle"  dominant-baseline="middle" fill="black" > 432</text>
<circle cx="837" cy="323" r="4" fill="white" stroke="black" />
<line x1="837" y1="327" x2="837" y2="447" stroke="black" />
<circle cx="837" cy="447" r="4" fill="white" stroke="black" />
<text x="837" y="459" font-family="Verdana" font-size="8" text-anchor="middle"  dominant-baseline="middle" fill="black" > 432</text>
<circle cx="875" cy="196" r="4" fill="white" stroke="black" />
<line x1="875" y1="200" x2="875" y2="340" stroke="black" />
<line x1="862" y1="340" x2="888" y2="340" stroke="black" />
<text x="881" y="332" font-family="Verdana" font-size="8" text-anchor="middle"  dominant-baseline="middle" fill="black" > 325</text>
<circle cx="862" cy="340" r="4" fill="white" stroke="black" />
<line x1="862" y1="344" x2="862" y2="447" stroke="black" />
<circle cx="862" cy="447" r="4" fill="white" stroke="black" />
<text x="862" y="459" font-family="Verdana" font-size="8" text-anchor="middle"  dominant-baseline="middle" fill="black" > 432</text>
<circle cx="887" cy="340" r="4" fill="white" stroke="black" />
<line x1="887" y1="344" x2="887" y2="447" stroke="black" />
<circle cx="887" cy="447" r="4" fill="white" stroke="black" />
<text x="887" y="459" font-family="Verdana" font-size="8" text-anchor="middle"  dominant-baseline="middle" fill="black" > 432</text>
<circle cx="950" cy="83" r="4" fill="white" stroke="black" />
<line x1="950" y1="87" x2="950" y2="192" stroke="black" />
<line x1="925" y1="192" x2="975" y2="192" stroke="black" />
<text x="962" y="184" font-family="Verdana" font-size="8" text-anchor="middle"  dominant-baseline="middle" fill="black" > 177</text>
<circle cx="925" cy="192" r="4" fill="white" stroke="black" />
<line x1="925" y1="196" x2="925" y2="341" stroke="black" />
<line x1="912" y1="341" x2="938" y2="341" stroke="black" />
<text x="931" y="333" font-family="Verdana" font-size="8" text-anchor="middle"  dominant-baseline="middle" fill="black" > 326</text>
<circle cx="912" cy="341" r="4" fill="white" stroke="black" />
<line x1="912" y1="345" x2="912" y2="447" stroke="black" />
<circle cx="912" cy="447" r="4" fill="white" stroke="black" />
<text x="912" y="459" font-family="Verdana" font-size="8" text-anchor="middle"  dominant-baseline="middle" fill="black" > 432</text>
<circle cx="937" cy="341" r="4" fill="white" stroke="black" />
<line x1="937" y1="345" x2="937" y2="447" stroke="black" />
<circle cx="937" cy="447" r="4" fill="white" stroke="black" />
<text x="937" y="459" font-family="Verdana" font-size="8" text-anchor="middle"  dominant-baseline="middle" fill="black" > 432</text>
<circle cx="975" cy="192" r="4" fill="white" stroke="black" />
<line x1="975" y1="196" x2="975" y2="317" stroke="black" />
<line x1="962" y1="317" x2="988" y2="317" stroke="black" />
<text x="981" y="309" font-family="Verdana" font-size="8" text-anchor="middle"  dominant-baseline="middle" fill="black" > 302</text>
<circle cx="962" cy="317" r="4" fill="white" stroke="black" />
<line x1="962" y1="321" x2="962" y2="447" stroke="black" />
<circle cx="962" cy="447" r="4" fill="white" stroke="black" />
<text x="962" y="459" font-family="Verdana" font-size="8" text-anchor="middle"  dominant-baseline="middle" fill="black" > 432</text>
<circle cx="987" cy="317" r="4" fill="white" stroke="black" />
<line x1="987" y1="321" x2="987" y2="447" stroke="black" />
<circle cx="987" cy="447" r="4" fill="white" stroke="black" />
<text x="987" y="459" font-family="Verdana" font-size="8" text-anchor="middle"  dominant-baseline="middle" fill="black" > 432</text>
<text x="1100" y="7" font-family="Verdana" font-size="7" text-anchor="middle"  dominant-baseline="middle" fill="black" > C7</text>
<circle cx="1100" cy="15" r="4" fill="white" stroke="black" />
<line x1="1100" y1="19" x2="1100" y2="101" stroke="black" />
<line x1="1050" y1="101" x2="1150" y2="101" stroke="black" />
<text x="1125" y="93" font-family="Verdana" font-size="8" text-anchor="middle"  dominant-baseline="middle" fill="black" > 86</text>
<circle cx="1050" cy="101" r="4" fill="white" stroke="black" />
<line x1="1050" y1="105" x2="1050" y2="385" stroke="black" />
<line x1="1025" y1="385" x2="1075" y2="385" stroke="black" />
<text x="1062" y="377" font-family="Verdana" font-size="8" text-anchor="middle"  dominant-baseline="middle" fill="black" > 370</text>
<circle cx="1025" cy="385" r="4" fill="white" stroke="black" />
<line x1="1025" y1="389" x2="1025" y2="447" stroke="black" />
<circle cx="1025" cy="447" r="4" fill="white" stroke="black" />
<text x="1025" y="459" font-family="Verdana" font-size="8" text-anchor="middle"  dominant-baseline="middle" fill="black" > 432</text>
<circle cx="1075" cy="385" r="4" fill="white" stroke="black" />
<line x1="1075" y1="389" x2="1075" y2="447" stroke="black" />
<circle cx="1075" cy="447" r="4" fill="white" stroke="black" />
<text x="1075" y="459" font-family="Verdana" font-size="8" text-anchor="middle"  dominant-baseline="middle" fill="black" > 432</text>
<circle cx="1150" cy="101" r="4" fill="white" stroke="black" />
<line x1="1150" y1="105" x2="1150" y2="353" stroke="black" />
<line x1="1125" y1="353" x2="1175" y2="353" stroke="black" />
<text x="1162" y="345" font-family="Verdana" font-size="8" text-anchor="middle"  dominant-baseline="middle" fill="black" > 338</text>
<circle cx="1125" cy="353" r="4" fill="white" stroke="black" />
<line x1="1125" y1="357" x2="1125" y2="447" stroke="black" />
<circle cx="1125" cy="447" r="4" fill="white" stroke="black" />
<text x="1125" y="459" font-family="Verdana" font-size="8" text-anchor="middle"  dominant-baseline="middle" fill="black" > 432</text>
<circle cx="1175" cy="353" r="4" fill="white" stroke="black" />
<line x1="1175" y1="357" x2="1175" y2="447" stroke="black" />
<circle cx="1175" cy="447" r="4" fill="white" stroke="black" />
<text x="1175" y="459" font-family="Verdana" font-size="8" text-anchor="middle"  dominant-baseline="middle" fill="black" > 432</text>
<text x="1300" y="7" font-family="Verdana" font-size="7" text-anchor="middle"  dominant-baseline="middle" fill="black" > C8</text>
<circle cx="1300" cy="15" r="4" fill="white" stroke="black" />
<line x1="1300" y1="19" x2="1300" y2="26" stroke="black" />
<line x1="1250" y1="26" x2="1350" y2="26" stroke="black" />
<text x="1325" y="18" font-family="Verdana" font-size="8" text-anchor="middle"  dominant-baseline="middle" fill="black" > 11</text>
<circle cx="1250" cy="26" r="4" fill="white" stroke="black" />
<line x1="1250" y1="30" x2="1250" y2="235" stroke="black" />
<line x1="1225" y1="235" x2="1275" y2="235" stroke="black" />
<text x="1262" y="227" font-family="Verdana" font-size="8" text-anchor="middle"  dominant-baseline="middle" fill="black" > 220</text>
<circle cx="1225" cy="235" r="4" fill="white" stroke="black" />
<line x1="1225" y1="239" x2="1225" y2="374" stroke="black" />
<line x1="1212" y1="374" x2="1238" y2="374" stroke="black" />
<text x="1231" y="366" font-family="Verdana" font-size="8" text-anchor="middle"  dominant-baseline="middle" fill="black" > 359</text>
<circle cx="1212" cy="374" r="4" fill="white" stroke="black" />
<line x1="1212" y1="378" x2="1212" y2="447" stroke="black" />
<circle cx="1212" cy="447" r="4" fill="white" stroke="black" />
<text x="1212" y="459" font-family="Verdana" font-size="8" text-anchor="middle"  dominant-baseline="middle" fill="black" > 432</text>
<circle cx="1237" cy="374" r="4" fill="white" stroke="black" />
<line x1="1237" y1="378" x2="1237" y2="447" stroke="black" />
<circle cx="1237" cy="447" r="4" fill="white" stroke="black" />
<text x="1237" y="459" font-family="Verdana" font-size="8" text-anchor="middle"  dominant-baseline="middle" fill="black" > 432</text>
<circle cx="1275" cy="235" r="4" fill="white" stroke="black" />
<line x1="1275" y1="239" x2="1275" y2="371" stroke="black" />
<line x1="1262" y1="371" x2="1288" y2="371" stroke="black" />
<text x="1281" y="363" font-family="Verdana" font-size="8" text-anchor="middle"  dominant-baseline="middle" fill="black" > 356</text>
<circle cx="1262" cy="371" r="4" fill="white" stroke="black" />
<line x1="1262" y1="375" x2="1262" y2="447" stroke="black" />
<circle cx="1262" cy="447" r="4" fill="white" stroke="black" />
<text x="1262" y="459" font-family="Verdana" font-size="8" text-anchor="middle"  dominant-baseline="middle" fill="black" > 432</text>
<circle cx="1287" cy="371" r="4" fill="white" stroke="black" />
<line x1="1287" y1="375" x2="1287" y2="447" stroke="black" />
<circle cx="1287" cy="447" r="4" fill="white" stroke="black" />
<text x="1287" y="459" font-family="Verdana" font-size="8" text-anchor="middle"  dominant-baseline="middle" fill="black" > 432</text>
<circle cx="1350" cy="26" r="4" fill="white" stroke="black" />
<line x1="1350" y1="30" x2="1350" y2="222" stroke="black" />
<line x1="1325" y1="222" x2="1375" y2="222" stroke="black" />
<text x="1362" y="214" font-family="Verdana" font-size="8" text-anchor="middle"  dominant-baseline="middle" fill="black" > 207</text>
<circle cx="1325" cy="222" r="4" fill="white" stroke="black" />
<line x1="1325" y1="226" x2="1325" y2="383" stroke="black" />
<line x1="1312" y1="383" x2="1338" y2="383" stroke="black" />
<text x="1331" y="375" font-family="Verdana" font-size="8" text-anchor="middle"  dominant-baseline="middle" fill="black" > 368</text>
<circle cx="1312" cy="383" r="4" fill="white" stroke="black" />
<line x1="1312" y1="387" x2="1312" y2="447" stroke="black" />
<circle cx="1312" cy="447" r="4" fill="white" stroke="black" />
<text x="1312" y="459" font-family="Verdana" font-size="8" text-anchor="middle"  dominant-baseline="middle" fill="black" > 432</text>
<circle cx="1337" cy="383" r="4" fill="white" stroke="black" />
<line x1="1337" y1="387" x2="1337" y2="447" stroke="black" />
<circle cx="1337" cy="447" r="4" fill="white" stroke="black" />
<text x="1337" y="459" font-family="Verdana" font-size="8" text-anchor="middle"  dominant-baseline="middle" fill="black" > 432</text>
<circle cx="1375" cy="222" r="4" fill="white" stroke="black" />
<line x1="1375" y1="226" x2="1375" y2="383" stroke="black" />
<line x1="1362" y1="383" x2="1388" y2="383" stroke="black" />
<text x="1381" y="375" font-family="Verdana" font-size="8" text-anchor="middle"  dominant-baseline="middle" fill="black" > 368</text>
<circle cx="1362" cy="383" r="4" fill="white" stroke="black" />
<line x1="1362" y1="387" x2="1362" y2="447" stroke="black" />
<circle cx="1362" cy="447" r="4" fill="white" stroke="black" />
<text x="1362" y="459" font-family="Verdana" font-size="8" text-anchor="middle"  dominant-baseline="middle" fill="black" > 432</text>
<circle cx="1387" cy="383" r="4" fill="white" stroke="black" />
<line x1="1387" y1="387" x2="1387" y2="447" stroke="black" />
<circle cx="1387" cy="447" r="4" fill="white" stroke="black" />
<text x="1387" y="459" font-family="Verdana" font-size="8" text-anchor="middle"  dominant-baseline="middle" fill="black" > 432</text>
<text x="1500" y="7" font-family="Verdana" font-size="7" text-anchor="middle"  dominant-baseline="middle" fill="black" > C9</text>
<circle cx="1500" cy="15" r="4" fill="white" stroke="black" />
<line x1="1500" y1="19" x2="1500" y2="172" stroke="black" />
<line x1="1450" y1="172" x2="1550" y2="172" stroke="black" />
<text x="1525" y="164" font-family="Verdana" font-size="8" text-anchor="middle"  dominant-baseline="middle" fill="black" > 157</text>
<circle cx="1450" cy="172" r="4" fill="white" stroke="black" />
<line x1="1450" y1="176" x2="1450" y2="324" stroke="black" />
<line x1="1425" y1="324" x2="1475" y2="324" stroke="black" />
<text x="1462" y="316" font-family="Verdana" font-size="8" text-anchor="middle"  dominant-baseline="middle" fill="black" > 309</text>
<circle cx="1425" cy="324" r="4" fill="white" stroke="black" />
<line x1="1425" y1="328" x2="1425" y2="447" stroke="black" />
<circle cx="1425" cy="447" r="4" fill="white" stroke="black" />
<text x="1425" y="459" font-family="Verdana" font-size="8" text-anchor="middle"  dominant-baseline="middle" fill="black" > 432</text>
<circle cx="1475" cy="324" r="4" fill="white" stroke="black" />
<line x1="1475" y1="328" x2="1475" y2="447" stroke="black" />
<circle cx="1475" cy="447" r="4" fill="white" stroke="black" />
<text x="1475" y="459" font-family="Verdana" font-size="8" text-anchor="middle"  dominant-baseline="middle" fill="black" > 432</text>
<circle cx="1550" cy="172" r="4" fill="white" stroke="black" />
<line x1="1550" y1="176" x2="1550" y2="321" stroke="black" />
<line x1="1525" y1="321" x2="1575" y2="321" stroke="black" />
<text x="1562" y="313" font-family="Verdana" font-size="8" text-anchor="middle"  dominant-baseline="middle" fill="black" > 306</text>
<circle cx="1525" cy="321" r="4" fill="white" stroke="black" />
<line x1="1525" y1="325" x2="1525" y2="447" stroke="black" />
<circle cx="1525" cy="447" r="4" fill="white" stroke="black" />
<text x="1525" y="459" font-family="Verdana" font-size="8" text-anchor="middle"  dominant-baseline="middle" fill="black" > 432</text>
<circle cx="1575" cy="321" r="4" fill="white" stroke="black" />
<line x1="1575" y1="325" x2="1575" y2="447" stroke="black" />
<circle cx="1575" cy="447" r="4" fill="white" stroke="black" />
<text x="1575" y="459" font-family="Verdana" font-size="8" text-anchor="middle"  dominant-baseline="middle" fill="black" > 432</text>
<text x="1700" y="7" font-family="Verdana" font-size="7" text-anchor="middle"  dominant-baseline="middle" fill="black" > C10</text>
<circle cx="1700" cy="15" r="4" fill="white" stroke="black" />
<line x1="1700" y1="19" x2="1700" y2="138" stroke="black" />
<line x1="1650" y1="138" x2="1750" y2="138" stroke="black" />
<text x="1725" y="130" font-family="Verdana" font-size="8" text-anchor="middle"  dominant-baseline="middle" fill="black" > 123</text>
<circle cx="1650" cy="138" r="4" fill="white" stroke="black" />
<line x1="1650" y1="142" x2="1650" y2="285" stroke="black" />
<line x1="1625" y1="285" x2="1675" y2="285" stroke="black" />
<text x="1662" y="277" font-family="Verdana" font-size="8" text-anchor="middle"  dominant-baseline="middle" fill="black" > 270</text>
<circle cx="1625" cy="285" r="4" fill="white" stroke="black" />
<line x1="1625" y1="289" x2="1625" y2="447" stroke="black" />
<circle cx="1625" cy="447" r="4" fill="white" stroke="black" />
<text x="1625" y="459" font-family="Verdana" font-size="8" text-anchor="middle"  dominant-baseline="middle" fill="black" > 432</text>
<circle cx="1675" cy="285" r="4" fill="white" stroke="black" />
<line x1="1675" y1="289" x2="1675" y2="447" stroke="black" />
<circle cx="1675" cy="447" r="4" fill="white" stroke="black" />
<text x="1675" y="459" font-family="Verdana" font-size="8" text-anchor="middle"  dominant-baseline="middle" fill="black" > 432</text>
<circle cx="1750" cy="138" r="4" fill="white" stroke="black" />
<line x1="1750" y1="142" x2="1750" y2="282" stroke="black" />
<line x1="1725" y1="282" x2="1775" y2="282" stroke="black" />
<text x="1762" y="274" font-family="Verdana" font-size="8" text-anchor="middle"  dominant-baseline="middle" fill="black" > 267</text>
<circle cx="1725" cy="282" r="4" fill="white" stroke="black" />
<line x1="1725" y1="286" x2="1725" y2="357" stroke="black" />
<line x1="1721" y1="353" x2="1729" y2="361" stroke="red" />
<line x1="1721" y1="361" x2="1729" y2="353" stroke="red" />
<text x="1725" y="369" font-family="Verdana" font-size="8" text-anchor="middle"  dominant-baseline="middle" fill="black" > 342</text>
<circle cx="1775" cy="282" r="4" fill="white" stroke="black" />
<line x1="1775" y1="286" x2="1775" y2="428" stroke="black" />
<line x1="1762" y1="428" x2="1788" y2="428" stroke="black" />
<text x="1781" y="420" font-family="Verdana" font-size="8" text-anchor="middle"  dominant-baseline="middle" fill="black" > 413</text>
<circle cx="1762" cy="428" r="4" fill="white" stroke="black" />
<line x1="1762" y1="432" x2="1762" y2="447" stroke="black" />
<circle cx="1762" cy="447" r="4" fill="white" stroke="black" />
<text x="1762" y="459" font-family="Verdana" font-size="8" text-anchor="middle"  dominant-baseline="middle" fill="black" > 432</text>
<circle cx="1787" cy="428" r="4" fill="white" stroke="black" />
<line x1="1787" y1="432" x2="1787" y2="447" stroke="black" />
<circle cx="1787" cy="447" r="4" fill="white" stroke="black" />
<text x="1787" y="459" font-family="Verdana" font-size="8" text-anchor="middle"  dominant-baseline="middle" fill="black" > 432</text>
<text x="1900" y="7" font-family="Verdana" font-size="7" text-anchor="middle"  dominant-baseline="middle" fill="black" > C11</text>
<circle cx="1900" cy="15" r="4" fill="white" stroke="black" />
<line x1="1900" y1="19" x2="1900" y2="181" stroke="black" />
<line x1="1850" y1="181" x2="1950" y2="181" stroke="black" />
<text x="1925" y="173" font-family="Verdana" font-size="8" text-anchor="middle"  dominant-baseline="middle" fill="black" > 166</text>
<circle cx="1850" cy="181" r="4" fill="white" stroke="black" />
<line x1="1850" y1="185" x2="1850" y2="316" stroke="black" />
<line x1="1825" y1="316" x2="1875" y2="316" stroke="black" />
<text x="1862" y="308" font-family="Verdana" font-size="8" text-anchor="middle"  dominant-baseline="middle" fill="black" > 301</text>
<circle cx="1825" cy="316" r="4" fill="white" stroke="black" />
<line x1="1825" y1="320" x2="1825" y2="447" stroke="black" />
<circle cx="1825" cy="447" r="4" fill="white" stroke="black" />
<text x="1825" y="459" font-family="Verdana" font-size="8" text-anchor="middle"  dominant-baseline="middle" fill="black" > 432</text>
<circle cx="1875" cy="316" r="4" fill="white" stroke="black" />
<line x1="1875" y1="320" x2="1875" y2="447" stroke="black" />
<circle cx="1875" cy="447" r="4" fill="white" stroke="black" />
<text x="1875" y="459" font-family="Verdana" font-size="8" text-anchor="middle"  dominant-baseline="middle" fill="black" > 432</text>
<circle cx="1950" cy="181" r="4" fill="white" stroke="black" />
<line x1="1950" y1="185" x2="1950" y2="315" stroke="black" />
<line x1="1925" y1="315" x2="1975" y2="315" stroke="black" />
<text x="1962" y="307" font-family="Verdana" font-size="8" text-anchor="middle"  dominant-baseline="middle" fill="black" > 300</text>
<circle cx="1925" cy="315" r="4" fill="white" stroke="black" />
<line x1="1925" y1="319" x2="1925" y2="447" stroke="black" />
<circle cx="1925" cy="447" r="4" fill="white" stroke="black" />
<text x="1925" y="459" font-family="Verdana" font-size="8" text-anchor="middle"  dominant-baseline="middle" fill="black" > 432</text>
<circle cx="1975" cy="315" r="4" fill="white" stroke="black" />
<line x1="1975" y1="319" x2="1975" y2="447" stroke="black" />
<circle cx="1975" cy="447" r="4" fill="white" stroke="black" />
<text x="1975" y="459" font-family="Verdana" font-size="8" text-anchor="middle"  dominant-baseline="middle" fill="black" > 432</text>
<text x="2100" y="7" font-family="Verdana" font-size="7" text-anchor="middle"  dominant-baseline="middle" fill="black" > C12</text>
<circle cx="2100" cy="15" r="4" fill="white" stroke="black" />
<line x1="2100" y1="19" x2="2100" y2="198" stroke="black" />
<line x1="2050" y1="198" x2="2150" y2="198" stroke="black" />
<text x="2125" y="190" font-family="Verdana" font-size="8" text-anchor="middle"  dominant-baseline="middle" fill="black" > 183</text>
<circle cx="2050" cy="198" r="4" fill="white" stroke="black" />
<line x1="2050" y1="202" x2="2050" y2="348" stroke="black" />
<line x1="2025" y1="348" x2="2075" y2="348" stroke="black" />
<text x="2062" y="340" font-family="Verdana" font-size="8" text-anchor="middle"  dominant-baseline="middle" fill="black" > 333</text>
<circle cx="2025" cy="348" r="4" fill="white" stroke="black" />
<line x1="2025" y1="352" x2="2025" y2="447" stroke="black" />
<circle cx="2025" cy="447" r="4" fill="white" stroke="black" />
<text x="2025" y="459" font-family="Verdana" font-size="8" text-anchor="middle"  dominant-baseline="middle" fill="black" > 432</text>
<circle cx="2075" cy="348" r="4" fill="white" stroke="black" />
<line x1="2075" y1="352" x2="2075" y2="447" stroke="black" />
<circle cx="2075" cy="447" r="4" fill="white" stroke="black" />
<text x="2075" y="459" font-family="Verdana" font-size="8" text-anchor="middle"  dominant-baseline="middle" fill="black" > 432</text>
<circle cx="2150" cy="198" r="4" fill="white" stroke="black" />
<line x1="2150" y1="202" x2="2150" y2="345" stroke="black" />
<line x1="2125" y1="345" x2="2175" y2="345" stroke="black" />
<text x="2162" y="337" font-family="Verdana" font-size="8" text-anchor="middle"  dominant-baseline="middle" fill="black" > 330</text>
<circle cx="2125" cy="345" r="4" fill="white" stroke="black" />
<line x1="2125" y1="349" x2="2125" y2="447" stroke="black" />
<circle cx="2125" cy="447" r="4" fill="white" stroke="black" />
<text x="2125" y="459" font-family="Verdana" font-size="8" text-anchor="middle"  dominant-baseline="middle" fill="black" > 432</text>
<circle cx="2175" cy="345" r="4" fill="white" stroke="black" />
<line x1="2175" y1="349" x2="2175" y2="447" stroke="black" />
<circle cx="2175" cy="447" r="4" fill="white" stroke="black" />
<text x="2175" y="459" font-family="Verdana" font-size="8" text-anchor="middle"  dominant-baseline="middle" fill="black" > 432</text>
<text x="2300" y="7" font-family="Verdana" font-size="7" text-anchor="middle"  dominant-baseline="middle" fill="black" > C13</text>
<circle cx="2300" cy="15" r="4" fill="white" stroke="black" />
<line x1="2300" y1="19" x2="2300" y2="126" stroke="black" />
<line x1="2250" y1="126" x2="2350" y2="126" stroke="black" />
<text x="2325" y="118" font-family="Verdana" font-size="8" text-anchor="middle"  dominant-baseline="middle" fill="black" > 111</text>
<circle cx="2250" cy="126" r="4" fill="white" stroke="black" />
<line x1="2250" y1="130" x2="2250" y2="270" stroke="black" />
<line x1="2225" y1="270" x2="2275" y2="270" stroke="black" />
<text x="2262" y="262" font-family="Verdana" font-size="8" text-anchor="middle"  dominant-baseline="middle" fill="black" > 255</text>
<circle cx="2225" cy="270" r="4" fill="white" stroke="black" />
<line x1="2225" y1="274" x2="2225" y2="435" stroke="black" />
<line x1="2212" y1="435" x2="2238" y2="435" stroke="black" />
<text x="2231" y="427" font-family="Verdana" font-size="8" text-anchor="middle"  dominant-baseline="middle" fill="black" > 420</text>
<circle cx="2212" cy="435" r="4" fill="white" stroke="black" />
<line x1="2212" y1="439" x2="2212" y2="447" stroke="black" />
<circle cx="2212" cy="447" r="4" fill="white" stroke="black" />
<text x="2212" y="459" font-family="Verdana" font-size="8" text-anchor="middle"  dominant-baseline="middle" fill="black" > 432</text>
<circle cx="2237" cy="435" r="4" fill="white" stroke="black" />
<line x1="2237" y1="439" x2="2237" y2="447" stroke="black" />
<circle cx="2237" cy="447" r="4" fill="white" stroke="black" />
<text x="2237" y="459" font-family="Verdana" font-size="8" text-anchor="middle"  dominant-baseline="middle" fill="black" > 432</text>
<circle cx="2275" cy="270" r="4" fill="white" stroke="black" />
<line x1="2275" y1="274" x2="2275" y2="437" stroke="black" />
<line x1="2262" y1="437" x2="2288" y2="437" stroke="black" />
<text x="2281" y="429" font-family="Verdana" font-size="8" text-anchor="middle"  dominant-baseline="middle" fill="black" > 422</text>
<circle cx="2262" cy="437" r="4" fill="white" stroke="black" />
<line x1="2262" y1="441" x2="2262" y2="447" stroke="black" />
<circle cx="2262" cy="447" r="4" fill="white" stroke="black" />
<text x="2262" y="459" font-family="Verdana" font-size="8" text-anchor="middle"  dominant-baseline="middle" fill="black" > 432</text>
<circle cx="2287" cy="437" r="4" fill="white" stroke="black" />
<line x1="2287" y1="441" x2="2287" y2="447" stroke="black" />
<circle cx="2287" cy="447" r="4" fill="white" stroke="black" />
<text x="2287" y="459" font-family="Verdana" font-size="8" text-anchor="middle"  dominant-baseline="middle" fill="black" > 432</text>
<circle cx="2350" cy="126" r="4" fill="white" stroke="black" />
<line x1="2350" y1="130" x2="2350" y2="263" stroke="black" />
<line x1="2325" y1="263" x2="2375" y2="263" stroke="black" />
<text x="2362" y="255" font-family="Verdana" font-size="8" text-anchor="middle"  dominant-baseline="middle" fill="black" > 248</text>
<circle cx="2325" cy="263" r="4" fill="white" stroke="black" />
<line x1="2325" y1="267" x2="2325" y2="416" stroke="black" />
<line x1="2312" y1="416" x2="2338" y2="416" stroke="black" />
<text x="2331" y="408" font-family="Verdana" font-size="8" text-anchor="middle"  dominant-baseline="middle" fill="black" > 401</text>
<circle cx="2312" cy="416" r="4" fill="white" stroke="black" />
<line x1="2312" y1="420" x2="2312" y2="447" stroke="black" />
<circle cx="2312" cy="447" r="4" fill="white" stroke="black" />
<text x="2312" y="459" font-family="Verdana" font-size="8" text-anchor="middle"  dominant-baseline="middle" fill="black" > 432</text>
<circle cx="2337" cy="416" r="4" fill="white" stroke="black" />
<line x1="2337" y1="420" x2="2337" y2="447" stroke="black" />
<circle cx="2337" cy="447" r="4" fill="white" stroke="black" />
<text x="2337" y="459" font-family="Verdana" font-size="8" text-anchor="middle"  dominant-baseline="middle" fill="black" > 432</text>
<circle cx="2375" cy="263" r="4" fill="white" stroke="black" />
<line x1="2375" y1="267" x2="2375" y2="447" stroke="black" />
<circle cx="2375" cy="447" r="4" fill="white" stroke="black" />
<text x="2375" y="459" font-family="Verdana" font-size="8" text-anchor="middle"  dominant-baseline="middle" fill="black" > 432</text>
<text x="2500" y="7" font-family="Verdana" font-size="7" text-anchor="middle"  dominant-baseline="middle" fill="black" > C14</text>
<circle cx="2500" cy="15" r="4" fill="white" stroke="black" />
<line x1="2500" y1="19" x2="2500" y2="159" stroke="black" />
<line x1="2450" y1="159" x2="2550" y2="159" stroke="black" />
<text x="2525" y="151" font-family="Verdana" font-size="8" text-anchor="middle"  dominant-baseline="middle" fill="black" > 144</text>
<circle cx="2450" cy="159" r="4" fill="white" stroke="black" />
<line x1="2450" y1="163" x2="2450" y2="283" stroke="black" />
<line x1="2425" y1="283" x2="2475" y2="283" stroke="black" />
<text x="2462" y="275" font-family="Verdana" font-size="8" text-anchor="middle"  dominant-baseline="middle" fill="black" > 268</text>
<circle cx="2425" cy="283" r="4" fill="white" stroke="black" />
<line x1="2425" y1="287" x2="2425" y2="410" stroke="black" />
<line x1="2412" y1="410" x2="2438" y2="410" stroke="black" />
<text x="2431" y="402" font-family="Verdana" font-size="8" text-anchor="middle"  dominant-baseline="middle" fill="black" > 395</text>
<circle cx="2412" cy="410" r="4" fill="white" stroke="black" />
<line x1="2412" y1="414" x2="2412" y2="447" stroke="black" />
<circle cx="2412" cy="447" r="4" fill="white" stroke="black" />
<text x="2412" y="459" font-family="Verdana" font-size="8" text-anchor="middle"  dominant-baseline="middle" fill="black" > 432</text>
<circle cx="2437" cy="410" r="4" fill="white" stroke="black" />
<line x1="2437" y1="414" x2="2437" y2="447" stroke="black" />
<circle cx="2437" cy="447" r="4" fill="white" stroke="black" />
<text x="2437" y="459" font-family="Verdana" font-size="8" text-anchor="middle"  dominant-baseline="middle" fill="black" > 432</text>
<circle cx="2475" cy="283" r="4" fill="white" stroke="black" />
<line x1="2475" y1="287" x2="2475" y2="416" stroke="black" />
<line x1="2462" y1="416" x2="2488" y2="416" stroke="black" />
<text x="2481" y="408" font-family="Verdana" font-size="8" text-anchor="middle"  dominant-baseline="middle" fill="black" > 401</text>
<circle cx="2462" cy="416" r="4" fill="white" stroke="black" />
<line x1="2462" y1="420" x2="2462" y2="447" stroke="black" />
<circle cx="2462" cy="447" r="4" fill="white" stroke="black" />
<text x="2462" y="459" font-family="Verdana" font-size="8" text-anchor="middle"  dominant-baseline="middle" fill="black" > 432</text>
<circle cx="2487" cy="416" r="4" fill="white" stroke="black" />
<line x1="2487" y1="420" x2="2487" y2="447" stroke="black" />
<circle cx="2487" cy="447" r="4" fill="white" stroke="black" />
<text x="2487" y="459" font-family="Verdana" font-size="8" text-anchor="middle"  dominant-baseline="middle" fill="black" > 432</text>
<circle cx="2550" cy="159" r="4" fill="white" stroke="black" />
<line x1="2550" y1="163" x2="2550" y2="286" stroke="black" />
<line x1="2525" y1="286" x2="2575" y2="286" stroke="black" />
<text x="2562" y="278" font-family="Verdana" font-size="8" text-anchor="middle"  dominant-baseline="middle" fill="black" > 271</text>
<circle cx="2525" cy="286" r="4" fill="white" stroke="black" />
<line x1="2525" y1="290" x2="2525" y2="447" stroke="black" />
<circle cx="2525" cy="447" r="4" fill="white" stroke="black" />
<text x="2525" y="459" font-family="Verdana" font-size="8" text-anchor="middle"  dominant-baseline="middle" fill="black" > 432</text>
<circle cx="2575" cy="286" r="4" fill="white" stroke="black" />
<line x1="2575" y1="290" x2="2575" y2="447" stroke="black" />
<circle cx="2575" cy="447" r="4" fill="white" stroke="black" />
<text x="2575" y="459" font-family="Verdana" font-size="8" text-anchor="middle"  dominant-baseline="middle" fill="black" > 432</text>
</svg>
