<?xml version="1.0" encoding="utf-8"?>
<svg xmlns="http://www.w3.org/2000/svg" version="1.1" width="2250" height="750">
<rect width="2250" height="15" x="0" y="0" fill="white" />
<rect width="2250" height="15" x="0" y="735" fill="white" />
<rect width="25" height="750" x="0" y="0" fill="white" />
<rect width="25" height="750" x="2225" y="0" fill="white" />
<rect width="2210" height="144" x="25" y="15" fill="ghostwhite" />
<rect width="2210" height="144" x="25" y="159" fill="snow" />
<rect width="2210" height="144" x="25" y="303" fill="ghostwhite" />
<rect width="2210" height="144" x="25" y="447" fill="snow" />
<rect width="2210" height="144" x="25" y="591" fill="ghostwhite" />
<text x="12" y="87" font-family="Verdana" font-size="10" text-anchor="middle"  dominant-baseline="middle" fill="red" > D0</text>
<text x="12" y="231" font-family="Verdana" font-size="10" text-anchor="middle"  dominant-baseline="middle" fill="red" > D1</text>
<text x="12" y="375" font-family="Verdana" font-size="10" text-anchor="middle"  dominant-baseline="middle" fill="red" > D2</text>
<text x="12" y="519" font-family="Verdana" font-size="10" text-anchor="middle"  dominant-baseline="middle" fill="red" > D3</text>
<text x="12" y="663" font-family="Verdana" font-size="10" text-anchor="middle"  dominant-baseline="middle" fill="red" > D4</text>
<text x="12" y="20" font-family="Verdana" font-size="10" text-anchor="middle"  dominant-baseline="middle" fill="black" > 0</text>
<text x="12" y="164" font-family="Verdana" font-size="10" text-anchor="middle"  dominant-baseline="middle" fill="black" > 144</text>
<text x="12" y="308" font-family="Verdana" font-size="10" text-anchor="middle"  dominant-baseline="middle" fill="black" > 288</text>
<text x="12" y="452" font-family="Verdana" font-size="10" text-anchor="middle"  dominant-baseline="middle" fill="black" > 432</text>
<text x="12" y="596" font-family="Verdana" font-size="10" text-anchor="middle"  dominant-baseline="middle" fill="black" > 576</text>
<text x="12" y="740" font-family="Verdana" font-size="10" text-anchor="middle"  dominant-baseline="middle" fill="black" > 720</text>
<text x="100" y="7" font-family="Verdana" font-size="7" text-anchor="middle"  dominant-baseline="middle" fill="black" > C1</text>
<circle cx="100" cy="15" r="4" fill="white" stroke="black" />
<line x1="100" y1="19" x2="100" y2="42" stroke="black" />
<line x1="50" y1="42" x2="150" y2="42" stroke="black" />
<text x="125" y="34" font-family="Verdana" font-size="8" text-anchor="middle"  dominant-baseline="middle" fill="black" > 27</text>
<circle cx="50" cy="42" r="4" fill="white" stroke="black" />
<line x1="50" y1="46" x2="50" y2="212" stroke="black" />
<line x1="25" y1="212" x2="75" y2="212" stroke="black" />
<text x="62" y="204" font-family="Verdana" font-size="8" text-anchor="middle"  dominant-baseline="middle" fill="black" > 197</text>
<circle cx="25" cy="212" r="4" fill="white" stroke="black" />
<line x1="25" y1="216" x2="25" y2="215" stroke="black" />
<line x1="21" y1="211" x2="29" y2="219" stroke="red" />
<line x1="21" y1="219" x2="29" y2="211" stroke="red" />
<text x="25" y="227" font-family="Verdana" font-size="8" text-anchor="middle"  dominant-baseline="middle" fill="black" > 200</text>
<circle cx="75" cy="212" r="4" fill="white" stroke="black" />
<line x1="75" y1="216" x2="75" y2="215" stroke="black" />
<line x1="71" y1="211" x2="79" y2="219" stroke="red" />
<line x1="71" y1="219" x2="79" y2="211" stroke="red" />
<text x="75" y="227" font-family="Verdana" font-size="8" text-anchor="middle"  dominant-baseline="middle" fill="black" > 200</text>
<circle cx="150" cy="42" r="4" fill="white" stroke="black" />
<line x1="150" y1="46" x2="150" y2="188" stroke="black" />
<line x1="125" y1="188" x2="175" y2="188" stroke="black" />
<text x="162" y="180" font-family="Verdana" font-size="8" text-anchor="middle"  dominant-baseline="middle" fill="black" > 173</text>
<circle cx="125" cy="188" r="4" fill="white" stroke="black" />
<line x1="125" y1="192" x2="125" y2="325" stroke="black" />
<line x1="112" y1="325" x2="138" y2="325" stroke="black" />
<text x="131" y="317" font-family="Verdana" font-size="8" text-anchor="middle"  dominant-baseline="middle" fill="black" > 310</text>
<circle cx="112" cy="325" r="4" fill="white" stroke="black" />
<line x1="112" y1="329" x2="112" y2="447" stroke="black" />
<circle cx="112" cy="447" r="4" fill="white" stroke="black" />
<text x="112" y="459" font-family="Verdana" font-size="8" text-anchor="middle"  dominant-baseline="middle" fill="black" > 432</text>
<circle cx="137" cy="325" r="4" fill="white" stroke="black" />
<line x1="137" y1="329" x2="137" y2="447" stroke="black" />
<circle cx="137" cy="447" r="4" fill="white" stroke="black" />
<text x="137" y="459" font-family="Verdana" font-size="8" text-anchor="middle"  dominant-baseline="middle" fill="black" > 432</text>
<circle cx="175" cy="188" r="4" fill="white" stroke="black" />
<line x1="175" y1="192" x2="175" y2="314" stroke="black" />
<line x1="162" y1="314" x2="188" y2="314" stroke="black" />
<text x="181" y="306" font-family="Verdana" font-size="8" text-anchor="middle"  dominant-baseline="middle" fill="black" > 299</text>
<circle cx="162" cy="314" r="4" fill="white" stroke="black" />
<line x1="162" y1="318" x2="162" y2="442" stroke="black" />
<line x1="156" y1="442" x2="169" y2="442" stroke="black" />
<text x="165" y="434" font-family="Verdana" font-size="8" text-anchor="middle"  dominant-baseline="middle" fill="black" > 427</text>
<circle cx="156" cy="442" r="4" fill="white" stroke="black" />
<line x1="156" y1="446" x2="156" y2="447" stroke="black" />
<circle cx="156" cy="447" r="4" fill="white" stroke="black" />
<text x="156" y="459" font-family="Verdana" font-size="8" text-anchor="middle"  dominant-baseline="middle" fill="black" > 432</text>
<circle cx="168" cy="442" r="4" fill="white" stroke="black" />
<line x1="168" y1="446" x2="168" y2="447" stroke="black" />
<circle cx="168" cy="447" r="4" fill="white" stroke="black" />
<text x="168" y="459" font-family="Verdana" font-size="8" text-anchor="middle"  dominant-baseline="middle" fill="black" > 432</text>
<circle cx="187" cy="314" r="4" fill="white" stroke="black" />
<line x1="187" y1="318" x2="187" y2="447" stroke="black" />
<circle cx="187" cy="447" r="4" fill="white" stroke="black" />
<text x="187" y="459" font-family="Verdana" font-size="8" text-anchor="middle"  dominant-baseline="middle" fill="black" > 432</text>
<text x="300" y="7" font-family="Verdana" font-size="7" text-anchor="middle"  dominant-baseline="middle" fill="black" > C2</text>
<circle cx="300" cy="15" r="4" fill="white" stroke="black" />
<line x1="300" y1="19" x2="300" y2="203" stroke="black" />
<line x1="250" y1="203" x2="350" y2="203" stroke="black" />
<text x="325" y="195" font-family="Verdana" font-size="8" text-anchor="middle"  dominant-baseline="middle" fill="black" > 188</text>
<circle cx="250" cy="203" r="4" fill="white" stroke="black" />
<line x1="250" y1="207" x2="250" y2="344" stroke="black" />
<line x1="225" y1="344" x2="275" y2="344" stroke="black" />
<text x="262" y="336" font-family="Verdana" font-size="8" text-anchor="middle"  dominant-baseline="middle" fill="black" > 329</text>
<circle cx="225" cy="344" r="4" fill="white" stroke="black" />
<line x1="225" y1="348" x2="225" y2="447" stroke="black" />
<circle cx="225" cy="447" r="4" fill="white" stroke="black" />
<text x="225" y="459" font-family="Verdana" font-size="8" text-anchor="middle"  dominant-baseline="middle" fill="black" > 432</text>
<circle cx="275" cy="344" r="4" fill="white" stroke="black" />
<line x1="275" y1="348" x2="275" y2="447" stroke="black" />
<circle cx="275" cy="447" r="4" fill="white" stroke="black" />
<text x="275" y="459" font-family="Verdana" font-size="8" text-anchor="middle"  dominant-baseline="middle" fill="black" > 432</text>
<circle cx="350" cy="203" r="4" fill="white" stroke="black" />
<line x1="350" y1="207" x2="350" y2="337" stroke="black" />
<line x1="325" y1="337" x2="375" y2="337" stroke="black" />
<text x="362" y="329" font-family="Verdana" font-size="8" text-anchor="middle"  dominant-baseline="middle" fill="black" > 322</text>
<circle cx="325" cy="337" r="4" fill="white" stroke="black" />
<line x1="325" y1="341" x2="325" y2="447" stroke="black" />
<circle cx="325" cy="447" r="4" fill="white" stroke="black" />
<text x="325" y="459" font-family="Verdana" font-size="8" text-anchor="middle"  dominant-baseline="middle" fill="black" > 432</text>
<circle cx="375" cy="337" r="4" fill="white" stroke="black" />
<line x1="375" y1="341" x2="375" y2="447" stroke="black" />
<circle cx="375" cy="447" r="4" fill="white" stroke="black" />
<text x="375" y="459" font-family="Verdana" font-size="8" text-anchor="middle"  dominant-baseline="middle" fill="black" > 432</text>
<text x="500" y="7" font-family="Verdana" font-size="7" text-anchor="middle"  dominant-baseline="middle" fill="black" > C3</text>
<circle cx="500" cy="15" r="4" fill="white" stroke="black" />
<line x1="500" y1="19" x2="500" y2="208" stroke="black" />
<line x1="450" y1="208" x2="550" y2="208" stroke="black" />
<text x="525" y="200" font-family="Verdana" font-size="8" text-anchor="middle"  dominant-baseline="middle" fill="black" > 193</text>
<circle cx="450" cy="208" r="4" fill="white" stroke="black" />
<line x1="450" y1="212" x2="450" y2="348" stroke="black" />
<line x1="425" y1="348" x2="475" y2="348" stroke="black" />
<text x="462" y="340" font-family="Verdana" font-size="8" text-anchor="middle"  dominant-baseline="middle" fill="black" > 333</text>
<circle cx="425" cy="348" r="4" fill="white" stroke="black" />
<line x1="425" y1="352" x2="425" y2="447" stroke="black" />
<circle cx="425" cy="447" r="4" fill="white" stroke="black" />
<text x="425" y="459" font-family="Verdana" font-size="8" text-anchor="middle"  dominant-baseline="middle" fill="black" > 432</text>
<circle cx="475" cy="348" r="4" fill="white" stroke="black" />
<line x1="475" y1="352" x2="475" y2="447" stroke="black" />
<circle cx="475" cy="447" r="4" fill="white" stroke="black" />
<text x="475" y="459" font-family="Verdana" font-size="8" text-anchor="middle"  dominant-baseline="middle" fill="black" > 432</text>
<circle cx="550" cy="208" r="4" fill="white" stroke="black" />
<line x1="550" y1="212" x2="550" y2="343" stroke="black" />
<line x1="525" y1="343" x2="575" y2="343" stroke="black" />
<text x="562" y="335" font-family="Verdana" font-size="8" text-anchor="middle"  dominant-baseline="middle" fill="black" > 328</text>
<circle cx="525" cy="343" r="4" fill="white" stroke="black" />
<line x1="525" y1="347" x2="525" y2="447" stroke="black" />
<circle cx="525" cy="447" r="4" fill="white" stroke="black" />
<text x="525" y="459" font-family="Verdana" font-size="8" text-anchor="middle"  dominant-baseline="middle" fill="black" > 432</text>
<circle cx="575" cy="343" r="4" fill="white" stroke="black" />
<line x1="575" y1="347" x2="575" y2="447" stroke="black" />
<circle cx="575" cy="447" r="4" fill="white" stroke="black" />
<text x="575" y="459" font-family="Verdana" font-size="8" text-anchor="middle"  dominant-baseline="middle" fill="black" > 432</text>
<text x="650" y="7" font-family="Verdana" font-size="7" text-anchor="middle"  dominant-baseline="middle" fill="black" > C4</text>
<circle cx="650" cy="15" r="4" fill="white" stroke="black" />
<line x1="650" y1="19" x2="650" y2="85" stroke="black" />
<line x1="646" y1="89" x2="650" y2="81" stroke="blue" />
<line x1="650" y1="89" x2="654" y2="81" stroke="blue" />
<text x="650" y="97" font-family="Verdana" font-size="8" text-anchor="middle"  dominant-baseline="middle" fill="black" > 70</text>
<text x="800" y="7" font-family="Verdana" font-size="7" text-anchor="middle"  dominant-baseline="middle" fill="black" > C5</text>
<circle cx="800" cy="15" r="4" fill="white" stroke="black" />
<line x1="800" y1="19" x2="800" y2="24" stroke="black" />
<line x1="750" y1="24" x2="850" y2="24" stroke="black" />
<text x="825" y="16" font-family="Verdana" font-size="8" text-anchor="middle"  dominant-baseline="middle" fill="black" > 9</text>
<circle cx="750" cy="24" r="4" fill="white" stroke="black" />
<line x1="750" y1="28" x2="750" y2="229" stroke="black" />
<line x1="725" y1="229" x2="775" y2="229" stroke="black" />
<text x="762" y="221" font-family="Verdana" font-size="8" text-anchor="middle"  dominant-baseline="middle" fill="black" > 214</text>
<circle cx="725" cy="229" r="4" fill="white" stroke="black" />
<line x1="725" y1="233" x2="725" y2="447" stroke="black" />
<circle cx="725" cy="447" r="4" fill="white" stroke="black" />
<text x="725" y="459" font-family="Verdana" font-size="8" text-anchor="middle"  dominant-baseline="middle" fill="black" > 432</text>
<circle cx="775" cy="229" r="4" fill="white" stroke="black" />
<line x1="775" y1="233" x2="775" y2="447" stroke="black" />
<circle cx="775" cy="447" r="4" fill="white" stroke="black" />
<text x="775" y="459" font-family="Verdana" font-size="8" text-anchor="middle"  dominant-baseline="middle" fill="black" > 432</text>
<circle cx="850" cy="24" r="4" fill="white" stroke="black" />
<line x1="850" y1="28" x2="850" y2="221" stroke="black" />
<line x1="825" y1="221" x2="875" y2="221" stroke="black" />
<text x="862" y="213" font-family="Verdana" font-size="8" text-anchor="middle"  dominant-baseline="middle" fill="black" > 206</text>
<circle cx="825" cy="221" r="4" fill="white" stroke="black" />
<line x1="825" y1="225" x2="825" y2="408" stroke="black" />
<line x1="812" y1="408" x2="838" y2="408" stroke="black" />
<text x="831" y="400" font-family="Verdana" font-size="8" text-anchor="middle"  dominant-baseline="middle" fill="black" > 393</text>
<circle cx="812" cy="408" r="4" fill="white" stroke="black" />
<line x1="812" y1="412" x2="812" y2="447" stroke="black" />
<circle cx="812" cy="447" r="4" fill="white" stroke="black" />
<text x="812" y="459" font-family="Verdana" font-size="8" text-anchor="middle"  dominant-baseline="middle" fill="black" > 432</text>
<circle cx="837" cy="408" r="4" fill="white" stroke="black" />
<line x1="837" y1="412" x2="837" y2="447" stroke="black" />
<circle cx="837" cy="447" r="4" fill="white" stroke="black" />
<text x="837" y="459" font-family="Verdana" font-size="8" text-anchor="middle"  dominant-baseline="middle" fill="black" > 432</text>
<circle cx="875" cy="221" r="4" fill="white" stroke="black" />
<line x1="875" y1="225" x2="875" y2="418" stroke="black" />
<line x1="862" y1="418" x2="888" y2="418" stroke="black" />
<text x="881" y="410" font-family="Verdana" font-size="8" text-anchor="middle"  dominant-baseline="middle" fill="black" > 403</text>
<circle cx="862" cy="418" r="4" fill="white" stroke="black" />
<line x1="862" y1="422" x2="862" y2="447" stroke="black" />
<circle cx="862" cy="447" r="4" fill="white" stroke="black" />
<text x="862" y="459" font-family="Verdana" font-size="8" text-anchor="middle"  dominant-baseline="middle" fill="black" > 432</text>
<circle cx="887" cy="418" r="4" fill="white" stroke="black" />
<line x1="887" y1="422" x2="887" y2="447" stroke="black" />
<circle cx="887" cy="447" r="4" fill="white" stroke="black" />
<text x="887" y="459" font-family="Verdana" font-size="8" text-anchor="middle"  dominant-baseline="middle" fill="black" > 432</text>
<text x="1000" y="7" font-family="Verdana" font-size="7" text-anchor="middle"  dominant-baseline="middle" fill="black" > C6</text>
<circle cx="1000" cy="15" r="4" fill="white" stroke="black" />
<line x1="1000" y1="19" x2="1000" y2="82" stroke="black" />
<line x1="950" y1="82" x2="1050" y2="82" stroke="black" />
<text x="1025" y="74" font-family="Verdana" font-size="8" text-anchor="middle"  dominant-baseline="middle" fill="black" > 67</text>
<circle cx="950" cy="82" r="4" fill="white" stroke="black" />
<line x1="950" y1="86" x2="950" y2="251" stroke="black" />
<line x1="925" y1="251" x2="975" y2="251" stroke="black" />
<text x="962" y="243" font-family="Verdana" font-size="8" text-anchor="middle"  dominant-baseline="middle" fill="black" > 236</text>
<circle cx="925" cy="251" r="4" fill="white" stroke="black" />
<line x1="925" y1="255" x2="925" y2="364" stroke="black" />
<line x1="912" y1="364" x2="938" y2="364" stroke="black" />
<text x="931" y="356" font-family="Verdana" font-size="8" text-anchor="middle"  dominant-baseline="middle" fill="black" > 349</text>
<circle cx="912" cy="364" r="4" fill="white" stroke="black" />
<line x1="912" y1="368" x2="912" y2="447" stroke="black" />
<circle cx="912" cy="447" r="4" fill="white" stroke="black" />
<text x="912" y="459" font-family="Verdana" font-size="8" text-anchor="middle"  dominant-baseline="middle" fill="black" > 432</text>
<circle cx="937" cy="364" r="4" fill="white" stroke="black" />
<line x1="937" y1="368" x2="937" y2="447" stroke="black" />
<circle cx="937" cy="447" r="4" fill="white" stroke="black" />
<text x="937" y="459" font-family="Verdana" font-size="8" text-anchor="middle"  dominant-baseline="middle" fill="black" > 432</text>
<circle cx="975" cy="251" r="4" fill="white" stroke="black" />
<line x1="975" y1="255" x2="975" y2="391" stroke="black" />
<line x1="962" y1="391" x2="988" y2="391" stroke="black" />
<text x="981" y="383" font-family="Verdana" font-size="8" text-anchor="middle"  dominant-baseline="middle" fill="black" > 376</text>
<circle cx="962" cy="391" r="4" fill="white" stroke="black" />
<line x1="962" y1="395" x2="962" y2="447" stroke="black" />
<circle cx="962" cy="447" r="4" fill="white" stroke="black" />
<text x="962" y="459" font-family="Verdana" font-size="8" text-anchor="middle"  dominant-baseline="middle" fill="black" > 432</text>
<circle cx="987" cy="391" r="4" fill="white" stroke="black" />
<line x1="987" y1="395" x2="987" y2="447" stroke="black" />
<circle cx="987" cy="447" r="4" fill="white" stroke="black" />
<text x="987" y="459" font-family="Verdana" font-size="8" text-anchor="middle"  dominant-baseline="middle" fill="black" > 432</text>
<circle cx="1050" cy="82" r="4" fill="white" stroke="black" />
<line x1="1050" y1="86" x2="1050" y2="250" stroke="black" />
<line x1="1025" y1="250" x2="1075" y2="250" stroke="black" />
<text x="1062" y="242" font-family="Verdana" font-size="8" text-anchor="middle"  dominant-baseline="middle" fill="black" > 235</text>
<circle cx="1025" cy="250" r="4" fill="white" stroke="black" />
<line x1="1025" y1="254" x2="1025" y2="402" stroke="black" />
<line x1="1012" y1="402" x2="1038" y2="402" stroke="black" />
<text x="1031" y="394" font-family="Verdana" font-size="8" text-anchor="middle"  dominant-baseline="middle" fill="black" > 387</text>
<circle cx="1012" cy="402" r="4" fill="white" stroke="black" />
<line x1="1012" y1="406" x2="1012" y2="447" stroke="black" />
<circle cx="1012" cy="447" r="4" fill="white" stroke="black" />
<text x="1012" y="459" font-family="Verdana" font-size="8" text-anchor="middle"  dominant-baseline="middle" fill="black" > 432</text>
<circle cx="1037" cy="402" r="4" fill="white" stroke="black" />
<line x1="1037" y1="406" x2="1037" y2="447" stroke="black" />
<circle cx="1037" cy="447" r="4" fill="white" stroke="black" />
<text x="1037" y="459" font-family="Verdana" font-size="8" text-anchor="middle"  dominant-baseline="middle" fill="black" > 432</text>
<circle cx="1075" cy="250" r="4" fill="white" stroke="black" />
<line x1="1075" y1="254" x2="1075" y2="447" stroke="black" />
<circle cx="1075" cy="447" r="4" fill="white" stroke="black" />
<text x="1075" y="459" font-family="Verdana" font-size="8" text-anchor="middle"  dominant-baseline="middle" fill="black" > 432</text>
<text x="1200" y="7" font-family="Verdana" font-size="7" text-anchor="middle"  dominant-baseline="middle" fill="black" > C7</text>
<circle cx="1200" cy="15" r="4" fill="white" stroke="black" />
<line x1="1200" y1="19" x2="1200" y2="108" stroke="black" />
<line x1="1150" y1="108" x2="1250" y2="108" stroke="black" />
<text x="1225" y="100" font-family="Verdana" font-size="8" text-anchor="middle"  dominant-baseline="middle" fill="black" > 93</text>
<circle cx="1150" cy="108" r="4" fill="white" stroke="black" />
<line x1="1150" y1="112" x2="1150" y2="278" stroke="black" />
<line x1="1125" y1="278" x2="1175" y2="278" stroke="black" />
<text x="1162" y="270" font-family="Verdana" font-size="8" text-anchor="middle"  dominant-baseline="middle" fill="black" > 263</text>
<circle cx="1125" cy="278" r="4" fill="white" stroke="black" />
<line x1="1125" y1="282" x2="1125" y2="441" stroke="black" />
<line x1="1112" y1="441" x2="1138" y2="441" stroke="black" />
<text x="1131" y="433" font-family="Verdana" font-size="8" text-anchor="middle"  dominant-baseline="middle" fill="black" > 426</text>
<circle cx="1112" cy="441" r="4" fill="white" stroke="black" />
<line x1="1112" y1="445" x2="1112" y2="447" stroke="black" />
<circle cx="1112" cy="447" r="4" fill="white" stroke="black" />
<text x="1112" y="459" font-family="Verdana" font-size="8" text-anchor="middle"  dominant-baseline="middle" fill="black" > 432</text>
<circle cx="1137" cy="441" r="4" fill="white" stroke="black" />
<line x1="1137" y1="445" x2="1137" y2="447" stroke="black" />
<circle cx="1137" cy="447" r="4" fill="white" stroke="black" />
<text x="1137" y="459" font-family="Verdana" font-size="8" text-anchor="middle"  dominant-baseline="middle" fill="black" > 432</text>
<circle cx="1175" cy="278" r="4" fill="white" stroke="black" />
<line x1="1175" y1="282" x2="1175" y2="447" stroke="black" />
<circle cx="1175" cy="447" r="4" fill="white" stroke="black" />
<text x="1175" y="459" font-family="Verdana" font-size="8" text-anchor="middle"  dominant-baseline="middle" fill="black" > 432</text>
<circle cx="1250" cy="108" r="4" fill="white" stroke="black" />
<line x1="1250" y1="112" x2="1250" y2="277" stroke="black" />
<line x1="1225" y1="277" x2="1275" y2="277" stroke="black" />
<text x="1262" y="269" font-family="Verdana" font-size="8" text-anchor="middle"  dominant-baseline="middle" fill="black" > 262</text>
<circle cx="1225" cy="277" r="4" fill="white" stroke="black" />
<line x1="1225" y1="281" x2="1225" y2="391" stroke="black" />
<line x1="1212" y1="391" x2="1238" y2="391" stroke="black" />
<text x="1231" y="383" font-family="Verdana" font-size="8" text-anchor="middle"  dominant-baseline="middle" fill="black" > 376</text>
<circle cx="1212" cy="391" r="4" fill="white" stroke="black" />
<line x1="1212" y1="395" x2="1212" y2="447" stroke="black" />
<circle cx="1212" cy="447" r="4" fill="white" stroke="black" />
<text x="1212" y="459" font-family="Verdana" font-size="8" text-anchor="middle"  dominant-baseline="middle" fill="black" > 432</text>
<circle cx="1237" cy="391" r="4" fill="white" stroke="black" />
<line x1="1237" y1="395" x2="1237" y2="447" stroke="black" />
<circle cx="1237" cy="447" r="4" fill="white" stroke="black" />
<text x="1237" y="459" font-family="Verdana" font-size="8" text-anchor="middle"  dominant-baseline="middle" fill="black" > 432</text>
<circle cx="1275" cy="277" r="4" fill="white" stroke="black" />
<line x1="1275" y1="281" x2="1275" y2="387" stroke="black" />
<line x1="1262" y1="387" x2="1288" y2="387" stroke="black" />
<text x="1281" y="379" font-family="Verdana" font-size="8" text-anchor="middle"  dominant-baseline="middle" fill="black" > 372</text>
<circle cx="1262" cy="387" r="4" fill="white" stroke="black" />
<line x1="1262" y1="391" x2="1262" y2="447" stroke="black" />
<circle cx="1262" cy="447" r="4" fill="white" stroke="black" />
<text x="1262" y="459" font-family="Verdana" font-size="8" text-anchor="middle"  dominant-baseline="middle" fill="black" > 432</text>
<circle cx="1287" cy="387" r="4" fill="white" stroke="black" />
<line x1="1287" y1="391" x2="1287" y2="447" stroke="black" />
<circle cx="1287" cy="447" r="4" fill="white" stroke="black" />
<text x="1287" y="459" font-family="Verdana" font-size="8" text-anchor="middle"  dominant-baseline="middle" fill="black" > 432</text>
<text x="1400" y="7" font-family="Verdana" font-size="7" text-anchor="middle"  dominant-baseline="middle" fill="black" > C8</text>
<circle cx="1400" cy="15" r="4" fill="white" stroke="black" />
<line x1="1400" y1="19" x2="1400" y2="146" stroke="black" />
<line x1="1350" y1="146" x2="1450" y2="146" stroke="black" />
<text x="1425" y="138" font-family="Verdana" font-size="8" text-anchor="middle"  dominant-baseline="middle" fill="black" > 131</text>
<circle cx="1350" cy="146" r="4" fill="white" stroke="black" />
<line x1="1350" y1="150" x2="1350" y2="272" stroke="black" />
<line x1="1325" y1="272" x2="1375" y2="272" stroke="black" />
<text x="1362" y="264" font-family="Verdana" font-size="8" text-anchor="middle"  dominant-baseline="middle" fill="black" > 257</text>
<circle cx="1325" cy="272" r="4" fill="white" stroke="black" />
<line x1="1325" y1="276" x2="1325" y2="394" stroke="black" />
<line x1="1312" y1="394" x2="1338" y2="394" stroke="black" />
<text x="1331" y="386" font-family="Verdana" font-size="8" text-anchor="middle"  dominant-baseline="middle" fill="black" > 379</text>
<circle cx="1312" cy="394" r="4" fill="white" stroke="black" />
<line x1="1312" y1="398" x2="1312" y2="447" stroke="black" />
<circle cx="1312" cy="447" r="4" fill="white" stroke="black" />
<text x="1312" y="459" font-family="Verdana" font-size="8" text-anchor="middle"  dominant-baseline="middle" fill="black" > 432</text>
<circle cx="1337" cy="394" r="4" fill="white" stroke="black" />
<line x1="1337" y1="398" x2="1337" y2="447" stroke="black" />
<circle cx="1337" cy="447" r="4" fill="white" stroke="black" />
<text x="1337" y="459" font-family="Verdana" font-size="8" text-anchor="middle"  dominant-baseline="middle" fill="black" > 432</text>
<circle cx="1375" cy="272" r="4" fill="white" stroke="black" />
<line x1="1375" y1="276" x2="1375" y2="416" stroke="black" />
<line x1="1362" y1="416" x2="1388" y2="416" stroke="black" />
<text x="1381" y="408" font-family="Verdana" font-size="8" text-anchor="middle"  dominant-baseline="middle" fill="black" > 401</text>
<circle cx="1362" cy="416" r="4" fill="white" stroke="black" />
<line x1="1362" y1="420" x2="1362" y2="447" stroke="black" />
<circle cx="1362" cy="447" r="4" fill="white" stroke="black" />
<text x="1362" y="459" font-family="Verdana" font-size="8" text-anchor="middle"  dominant-baseline="middle" fill="black" > 432</text>
<circle cx="1387" cy="416" r="4" fill="white" stroke="black" />
<line x1="1387" y1="420" x2="1387" y2="447" stroke="black" />
<circle cx="1387" cy="447" r="4" fill="white" stroke="black" />
<text x="1387" y="459" font-family="Verdana" font-size="8" text-anchor="middle"  dominant-baseline="middle" fill="black" > 432</text>
<circle cx="1450" cy="146" r="4" fill="white" stroke="black" />
<line x1="1450" y1="150" x2="1450" y2="146" stroke="black" />
<line x1="1425" y1="146" x2="1475" y2="146" stroke="black" />
<text x="1462" y="138" font-family="Verdana" font-size="8" text-anchor="middle"  dominant-baseline="middle" fill="black" > 131</text>
<circle cx="1425" cy="146" r="4" fill="white" stroke="black" />
<line x1="1425" y1="150" x2="1425" y2="385" stroke="black" />
<line x1="1412" y1="385" x2="1438" y2="385" stroke="black" />
<text x="1431" y="377" font-family="Verdana" font-size="8" text-anchor="middle"  dominant-baseline="middle" fill="black" > 370</text>
<circle cx="1412" cy="385" r="4" fill="white" stroke="black" />
<line x1="1412" y1="389" x2="1412" y2="447" stroke="black" />
<circle cx="1412" cy="447" r="4" fill="white" stroke="black" />
<text x="1412" y="459" font-family="Verdana" font-size="8" text-anchor="middle"  dominant-baseline="middle" fill="black" > 432</text>
<circle cx="1437" cy="385" r="4" fill="white" stroke="black" />
<line x1="1437" y1="389" x2="1437" y2="447" stroke="black" />
<circle cx="1437" cy="447" r="4" fill="white" stroke="black" />
<text x="1437" y="459" font-family="Verdana" font-size="8" text-anchor="middle"  dominant-baseline="middle" fill="black" > 432</text>
<circle cx="1475" cy="146" r="4" fill="white" stroke="black" />
<line x1="1475" y1="150" x2="1475" y2="383" stroke="black" />
<line x1="1462" y1="383" x2="1488" y2="383" stroke="black" />
<text x="1481" y="375" font-family="Verdana" font-size="8" text-anchor="middle"  dominant-baseline="middle" fill="black" > 368</text>
<circle cx="1462" cy="383" r="4" fill="white" stroke="black" />
<line x1="1462" y1="387" x2="1462" y2="447" stroke="black" />
<circle cx="1462" cy="447" r="4" fill="white" stroke="black" />
<text x="1462" y="459" font-family="Verdana" font-size="8" text-anchor="middle"  dominant-baseline="middle" fill="black" > 432</text>
<circle cx="1487" cy="383" r="4" fill="white" stroke="black" />
<line x1="1487" y1="387" x2="1487" y2="447" stroke="black" />
<circle cx="1487" cy="447" r="4" fill="white" stroke="black" />
<text x="1487" y="459" font-family="Verdana" font-size="8" text-anchor="middle"  dominant-baseline="middle" fill="black" > 432</text>
<text x="1550" y="7" font-family="Verdana" font-size="7" text-anchor="middle"  dominant-baseline="middle" fill="black" > C10</text>
<circle cx="1550" cy="15" r="4" fill="white" stroke="black" />
<line x1="1550" y1="19" x2="1550" y2="215" stroke="black" />
<line x1="1546" y1="211" x2="1554" y2="219" stroke="red" />
<line x1="1546" y1="219" x2="1554" y2="211" stroke="red" />
<text x="1550" y="227" font-family="Verdana" font-size="8" text-anchor="middle"  dominant-baseline="middle" fill="black" > 200</text>
<text x="1700" y="7" font-family="Verdana" font-size="7" text-anchor="middle"  dominant-baseline="middle" fill="black" > C11</text>
<circle cx="1700" cy="15" r="4" fill="white" stroke="black" />
<line x1="1700" y1="19" x2="1700" y2="36" stroke="black" />
<line x1="1650" y1="36" x2="1750" y2="36" stroke="black" />
<text x="1725" y="28" font-family="Verdana" font-size="8" text-anchor="middle"  dominant-baseline="middle" fill="black" > 21</text>
<circle cx="1650" cy="36" r="4" fill="white" stroke="black" />
<line x1="1650" y1="40" x2="1650" y2="205" stroke="black" />
<line x1="1625" y1="205" x2="1675" y2="205" stroke="black" />
<text x="1662" y="197" font-family="Verdana" font-size="8" text-anchor="middle"  dominant-baseline="middle" fill="black" > 190</text>
<circle cx="1625" cy="205" r="4" fill="white" stroke="black" />
<line x1="1625" y1="209" x2="1625" y2="359" stroke="black" />
<line x1="1612" y1="359" x2="1638" y2="359" stroke="black" />
<text x="1631" y="351" font-family="Verdana" font-size="8" text-anchor="middle"  dominant-baseline="middle" fill="black" > 344</text>
<circle cx="1612" cy="359" r="4" fill="white" stroke="black" />
<line x1="1612" y1="363" x2="1612" y2="447" stroke="black" />
<circle cx="1612" cy="447" r="4" fill="white" stroke="black" />
<text x="1612" y="459" font-family="Verdana" font-size="8" text-anchor="middle"  dominant-baseline="middle" fill="black" > 432</text>
<circle cx="1637" cy="359" r="4" fill="white" stroke="black" />
<line x1="1637" y1="363" x2="1637" y2="447" stroke="black" />
<circle cx="1637" cy="447" r="4" fill="white" stroke="black" />
<text x="1637" y="459" font-family="Verdana" font-size="8" text-anchor="middle"  dominant-baseline="middle" fill="black" > 432</text>
<circle cx="1675" cy="205" r="4" fill="white" stroke="black" />
<line x1="1675" y1="209" x2="1675" y2="356" stroke="black" />
<line x1="1662" y1="356" x2="1688" y2="356" stroke="black" />
<text x="1681" y="348" font-family="Verdana" font-size="8" text-anchor="middle"  dominant-baseline="middle" fill="black" > 341</text>
<circle cx="1662" cy="356" r="4" fill="white" stroke="black" />
<line x1="1662" y1="360" x2="1662" y2="447" stroke="black" />
<circle cx="1662" cy="447" r="4" fill="white" stroke="black" />
<text x="1662" y="459" font-family="Verdana" font-size="8" text-anchor="middle"  dominant-baseline="middle" fill="black" > 432</text>
<circle cx="1687" cy="356" r="4" fill="white" stroke="black" />
<line x1="1687" y1="360" x2="1687" y2="447" stroke="black" />
<circle cx="1687" cy="447" r="4" fill="white" stroke="black" />
<text x="1687" y="459" font-family="Verdana" font-size="8" text-anchor="middle"  dominant-baseline="middle" fill="black" > 432</text>
<circle cx="1750" cy="36" r="4" fill="white" stroke="black" />
<line x1="1750" y1="40" x2="1750" y2="178" stroke="black" />
<line x1="1725" y1="178" x2="1775" y2="178" stroke="black" />
<text x="1762" y="170" font-family="Verdana" font-size="8" text-anchor="middle"  dominant-baseline="middle" fill="black" > 163</text>
<circle cx="1725" cy="178" r="4" fill="white" stroke="black" />
<line x1="1725" y1="182" x2="1725" y2="346" stroke="black" />
<line x1="1712" y1="346" x2="1738" y2="346" stroke="black" />
<text x="1731" y="338" font-family="Verdana" font-size="8" text-anchor="middle"  dominant-baseline="middle" fill="black" > 331</text>
<circle cx="1712" cy="346" r="4" fill="white" stroke="black" />
<line x1="1712" y1="350" x2="1712" y2="447" stroke="black" />
<circle cx="1712" cy="447" r="4" fill="white" stroke="black" />
<text x="1712" y="459" font-family="Verdana" font-size="8" text-anchor="middle"  dominant-baseline="middle" fill="black" > 432</text>
<circle cx="1737" cy="346" r="4" fill="white" stroke="black" />
<line x1="1737" y1="350" x2="1737" y2="447" stroke="black" />
<circle cx="1737" cy="447" r="4" fill="white" stroke="black" />
<text x="1737" y="459" font-family="Verdana" font-size="8" text-anchor="middle"  dominant-baseline="middle" fill="black" > 432</text>
<circle cx="1775" cy="178" r="4" fill="white" stroke="black" />
<line x1="1775" y1="182" x2="1775" y2="352" stroke="black" />
<line x1="1762" y1="352" x2="1788" y2="352" stroke="black" />
<text x="1781" y="344" font-family="Verdana" font-size="8" text-anchor="middle"  dominant-baseline="middle" fill="black" > 337</text>
<circle cx="1762" cy="352" r="4" fill="white" stroke="black" />
<line x1="1762" y1="356" x2="1762" y2="447" stroke="black" />
<circle cx="1762" cy="447" r="4" fill="white" stroke="black" />
<text x="1762" y="459" font-family="Verdana" font-size="8" text-anchor="middle"  dominant-baseline="middle" fill="black" > 432</text>
<circle cx="1787" cy="352" r="4" fill="white" stroke="black" />
<line x1="1787" y1="356" x2="1787" y2="447" stroke="black" />
<circle cx="1787" cy="447" r="4" fill="white" stroke="black" />
<text x="1787" y="459" font-family="Verdana" font-size="8" text-anchor="middle"  dominant-baseline="middle" fill="black" > 432</text>
<text x="1900" y="7" font-family="Verdana" font-size="7" text-anchor="middle"  dominant-baseline="middle" fill="black" > C12</text>
<circle cx="1900" cy="15" r="4" fill="white" stroke="black" />
<line x1="1900" y1="19" x2="1900" y2="69" stroke="black" />
<line x1="1850" y1="69" x2="1950" y2="69" stroke="black" />
<text x="1925" y="61" font-family="Verdana" font-size="8" text-anchor="middle"  dominant-baseline="middle" fill="black" > 54</text>
<circle cx="1850" cy="69" r="4" fill="white" stroke="black" />
<line x1="1850" y1="73" x2="1850" y2="240" stroke="black" />
<line x1="1825" y1="240" x2="1875" y2="240" stroke="black" />
<text x="1862" y="232" font-family="Verdana" font-size="8" text-anchor="middle"  dominant-baseline="middle" fill="black" > 225</text>
<circle cx="1825" cy="240" r="4" fill="white" stroke="black" />
<line x1="1825" y1="244" x2="1825" y2="388" stroke="black" />
<line x1="1812" y1="388" x2="1838" y2="388" stroke="black" />
<text x="1831" y="380" font-family="Verdana" font-size="8" text-anchor="middle"  dominant-baseline="middle" fill="black" > 373</text>
<circle cx="1812" cy="388" r="4" fill="white" stroke="black" />
<line x1="1812" y1="392" x2="1812" y2="447" stroke="black" />
<circle cx="1812" cy="447" r="4" fill="white" stroke="black" />
<text x="1812" y="459" font-family="Verdana" font-size="8" text-anchor="middle"  dominant-baseline="middle" fill="black" > 432</text>
<circle cx="1837" cy="388" r="4" fill="white" stroke="black" />
<line x1="1837" y1="392" x2="1837" y2="447" stroke="black" />
<circle cx="1837" cy="447" r="4" fill="white" stroke="black" />
<text x="1837" y="459" font-family="Verdana" font-size="8" text-anchor="middle"  dominant-baseline="middle" fill="black" > 432</text>
<circle cx="1875" cy="240" r="4" fill="white" stroke="black" />
<line x1="1875" y1="244" x2="1875" y2="402" stroke="black" />
<line x1="1862" y1="402" x2="1888" y2="402" stroke="black" />
<text x="1881" y="394" font-family="Verdana" font-size="8" text-anchor="middle"  dominant-baseline="middle" fill="black" > 387</text>
<circle cx="1862" cy="402" r="4" fill="white" stroke="black" />
<line x1="1862" y1="406" x2="1862" y2="447" stroke="black" />
<circle cx="1862" cy="447" r="4" fill="white" stroke="black" />
<text x="1862" y="459" font-family="Verdana" font-size="8" text-anchor="middle"  dominant-baseline="middle" fill="black" > 432</text>
<circle cx="1887" cy="402" r="4" fill="white" stroke="black" />
<line x1="1887" y1="406" x2="1887" y2="447" stroke="black" />
<circle cx="1887" cy="447" r="4" fill="white" stroke="black" />
<text x="1887" y="459" font-family="Verdana" font-size="8" text-anchor="middle"  dominant-baseline="middle" fill="black" > 432</text>
<circle cx="1950" cy="69" r="4" fill="white" stroke="black" />
<line x1="1950" y1="73" x2="1950" y2="234" stroke="black" />
<line x1="1925" y1="234" x2="1975" y2="234" stroke="black" />
<text x="1962" y="226" font-family="Verdana" font-size="8" text-anchor="middle"  dominant-baseline="middle" fill="black" > 219</text>
<circle cx="1925" cy="234" r="4" fill="white" stroke="black" />
<line x1="1925" y1="238" x2="1925" y2="368" stroke="black" />
<line x1="1912" y1="368" x2="1938" y2="368" stroke="black" />
<text x="1931" y="360" font-family="Verdana" font-size="8" text-anchor="middle"  dominant-baseline="middle" fill="black" > 353</text>
<circle cx="1912" cy="368" r="4" fill="white" stroke="black" />
<line x1="1912" y1="372" x2="1912" y2="447" stroke="black" />
<circle cx="1912" cy="447" r="4" fill="white" stroke="black" />
<text x="1912" y="459" font-family="Verdana" font-size="8" text-anchor="middle"  dominant-baseline="middle" fill="black" > 432</text>
<circle cx="1937" cy="368" r="4" fill="white" stroke="black" />
<line x1="1937" y1="372" x2="1937" y2="447" stroke="black" />
<circle cx="1937" cy="447" r="4" fill="white" stroke="black" />
<text x="1937" y="459" font-family="Verdana" font-size="8" text-anchor="middle"  dominant-baseline="middle" fill="black" > 432</text>
<circle cx="1975" cy="234" r="4" fill="white" stroke="black" />
<line x1="1975" y1="238" x2="1975" y2="367" stroke="black" />
<line x1="1962" y1="367" x2="1988" y2="367" stroke="black" />
<text x="1981" y="359" font-family="Verdana" font-size="8" text-anchor="middle"  dominant-baseline="middle" fill="black" > 352</text>
<circle cx="1962" cy="367" r="4" fill="white" stroke="black" />
<line x1="1962" y1="371" x2="1962" y2="447" stroke="black" />
<circle cx="1962" cy="447" r="4" fill="white" stroke="black" />
<text x="1962" y="459" font-family="Verdana" font-size="8" text-anchor="middle"  dominant-baseline="middle" fill="black" > 432</text>
<circle cx="1987" cy="367" r="4" fill="white" stroke="black" />
<line x1="1987" y1="371" x2="1987" y2="447" stroke="black" />
<circle cx="1987" cy="447" r="4" fill="white" stroke="black" />
<text x="1987" y="459" font-family="Verdana" font-size="8" text-anchor="middle"  dominant-baseline="middle" fill="black" > 432</text>
<text x="2100" y="7" font-family="Verdana" font-size="7" text-anchor="middle"  dominant-baseline="middle" fill="black" > C13</text>
<circle cx="2100" cy="15" r="4" fill="white" stroke="black" />
<line x1="2100" y1="19" x2="2100" y2="196" stroke="black" />
<line x1="2050" y1="196" x2="2150" y2="196" stroke="black" />
<text x="2125" y="188" font-family="Verdana" font-size="8" text-anchor="middle"  dominant-baseline="middle" fill="black" > 181</text>
<circle cx="2050" cy="196" r="4" fill="white" stroke="black" />
<line x1="2050" y1="200" x2="2050" y2="400" stroke="black" />
<line x1="2025" y1="400" x2="2075" y2="400" stroke="black" />
<text x="2062" y="392" font-family="Verdana" font-size="8" text-anchor="middle"  dominant-baseline="middle" fill="black" > 385</text>
<circle cx="2025" cy="400" r="4" fill="white" stroke="black" />
<line x1="2025" y1="404" x2="2025" y2="447" stroke="black" />
<circle cx="2025" cy="447" r="4" fill="white" stroke="black" />
<text x="2025" y="459" font-family="Verdana" font-size="8" text-anchor="middle"  dominant-baseline="middle" fill="black" > 432</text>
<circle cx="2075" cy="400" r="4" fill="white" stroke="black" />
<line x1="2075" y1="404" x2="2075" y2="447" stroke="black" />
<circle cx="2075" cy="447" r="4" fill="white" stroke="black" />
<text x="2075" y="459" font-family="Verdana" font-size="8" text-anchor="middle"  dominant-baseline="middle" fill="black" > 432</text>
<circle cx="2150" cy="196" r="4" fill="white" stroke="black" />
<line x1="2150" y1="200" x2="2150" y2="414" stroke="black" />
<line x1="2125" y1="414" x2="2175" y2="414" stroke="black" />
<text x="2162" y="406" font-family="Verdana" font-size="8" text-anchor="middle"  dominant-baseline="middle" fill="black" > 399</text>
<circle cx="2125" cy="414" r="4" fill="white" stroke="black" />
<line x1="2125" y1="418" x2="2125" y2="415" stroke="black" />
<line x1="2121" y1="411" x2="2129" y2="419" stroke="red" />
<line x1="2121" y1="419" x2="2129" y2="411" stroke="red" />
<text x="2125" y="427" font-family="Verdana" font-size="8" text-anchor="middle"  dominant-baseline="middle" fill="black" > 400</text>
<circle cx="2175" cy="414" r="4" fill="white" stroke="black" />
<line x1="2175" y1="418" x2="2175" y2="415" stroke="black" />
<line x1="2171" y1="411" x2="2179" y2="419" stroke="red" />
<line x1="2171" y1="419" x2="2179" y2="411" stroke="red" />
<text x="2175" y="427" font-family="Verdana" font-size="8" text-anchor="middle"  dominant-baseline="middle" fill="black" > 400</text>
</svg>
