<?xml version="1.0" encoding="utf-8"?>
<svg xmlns="http://www.w3.org/2000/svg" version="1.1" width="1350" height="750">
<rect width="1350" height="15" x="0" y="0" fill="white" />
<rect width="1350" height="15" x="0" y="735" fill="white" />
<rect width="25" height="750" x="0" y="0" fill="white" />
<rect width="25" height="750" x="1325" y="0" fill="white" />
<rect width="1310" height="144" x="25" y="15" fill="lavender" />
<rect width="1310" height="144" x="25" y="159" fill="lavenderblush" />
<rect width="1310" height="144" x="25" y="303" fill="lavender" />
<rect width="1310" height="144" x="25" y="447" fill="lavenderblush" />
<rect width="1310" height="144" x="25" y="591" fill="lavender" />
<text x="12" y="87" font-family="Verdana" font-size="10" text-anchor="middle"  dominant-baseline="middle" fill="red" > D0</text>
<text x="12" y="231" font-family="Verdana" font-size="10" text-anchor="middle"  dominant-baseline="middle" fill="red" > D1</text>
<text x="12" y="375" font-family="Verdana" font-size="10" text-anchor="middle"  dominant-baseline="middle" fill="red" > D2</text>
<text x="12" y="519" font-family="Verdana" font-size="10" text-anchor="middle"  dominant-baseline="middle" fill="red" > D3</text>
<text x="12" y="663" font-family="Verdana" font-size="10" text-anchor="middle"  dominant-baseline="middle" fill="red" > D4</text>
<text x="12" y="20" font-family="Verdana" font-size="10" text-anchor="middle"  dominant-baseline="middle" fill="black" > 0</text>
<text x="12" y="164" font-family="Verdana" font-size="10" text-anchor="middle"  dominant-baseline="middle" fill="black" > 144</text>
<text x="12" y="308" font-family="Verdana" font-size="10" text-anchor="middle"  dominant-baseline="middle" fill="black" > 288</text>
<text x="12" y="452" font-family="Verdana" font-size="10" text-anchor="middle"  dominant-baseline="middle" fill="black" > 432</text>
<text x="12" y="596" font-family="Verdana" font-size="10" text-anchor="middle"  dominant-baseline="middle" fill="black" > 576</text>
<text x="12" y="740" font-family="Verdana" font-size="10" text-anchor="middle"  dominant-baseline="middle" fill="black" > 720</text>
<text x="50" y="7" font-family="Verdana" font-size="7" text-anchor="middle"  dominant-baseline="middle" fill="black" > C1</text>
<circle cx="50" cy="15" r="4" fill="white" stroke="black" />
<line x1="50" y1="19" x2="50" y2="379" stroke="black" />
<line x1="46" y1="383" x2="50" y2="375" stroke="blue" />
<line x1="50" y1="383" x2="54" y2="375" stroke="blue" />
<text x="50" y="391" font-family="Verdana" font-size="8" text-anchor="middle"  dominant-baseline="middle" fill="black" > 364</text>
<text x="150" y="7" font-family="Verdana" font-size="7" text-anchor="middle"  dominant-baseline="middle" fill="black" > C2</text>
<circle cx="150" cy="15" r="4" fill="white" stroke="black" />
<line x1="150" y1="19" x2="150" y2="306" stroke="black" />
<line x1="146" y1="302" x2="154" y2="310" stroke="red" />
<line x1="146" y1="310" x2="154" y2="302" stroke="red" />
<text x="150" y="318" font-family="Verdana" font-size="8" text-anchor="middle"  dominant-baseline="middle" fill="black" > 291</text>
<text x="250" y="7" font-family="Verdana" font-size="7" text-anchor="middle"  dominant-baseline="middle" fill="black" > C3</text>
<circle cx="250" cy="15" r="4" fill="white" stroke="black" />
<line x1="250" y1="19" x2="250" y2="277" stroke="black" />
<line x1="246" y1="273" x2="254" y2="281" stroke="red" />
<line x1="246" y1="281" x2="254" y2="273" stroke="red" />
<text x="250" y="289" font-family="Verdana" font-size="8" text-anchor="middle"  dominant-baseline="middle" fill="black" > 262</text>
<text x="350" y="7" font-family="Verdana" font-size="7" text-anchor="middle"  dominant-baseline="middle" fill="black" > C4</text>
<circle cx="350" cy="15" r="4" fill="white" stroke="black" />
<line x1="350" y1="19" x2="350" y2="736" stroke="black" />
<circle cx="350" cy="736" r="4" fill="white" stroke="black" />
<text x="350" y="748" font-family="Verdana" font-size="8" text-anchor="middle"  dominant-baseline="middle" fill="black" > 721</text>
<text x="500" y="7" font-family="Verdana" font-size="7" text-anchor="middle"  dominant-baseline="middle" fill="black" > C5</text>
<circle cx="500" cy="15" r="4" fill="white" stroke="black" />
<line x1="500" y1="19" x2="500" y2="305" stroke="black" />
<line x1="450" y1="305" x2="550" y2="305" stroke="black" />
<text x="525" y="297" font-family="Verdana" font-size="8" text-anchor="middle"  dominant-baseline="middle" fill="black" > 290</text>
<circle cx="450" cy="305" r="4" fill="white" stroke="black" />
<circle cx="550" cy="305" r="4" fill="white" stroke="black" />
<line x1="450" y1="309" x2="450" y2="365" stroke="black" />
<line x1="450" y1="365" x2="500" y2="384" stroke="black" />
<line x1="550" y1="309" x2="550" y2="365" stroke="black" />
<line x1="550" y1="365" x2="500" y2="384" stroke="black" />
<text x="500" y="372" font-family="Verdana" font-size="8" text-anchor="middle"  dominant-baseline="middle" fill="black" > 369</text>
<circle cx="500" cy="384" r="4" fill="white" stroke="black" />
<line x1="500" y1="388" x2="500" y2="538" stroke="black" />
<line x1="496" y1="534" x2="504" y2="542" stroke="red" />
<line x1="496" y1="542" x2="504" y2="534" stroke="red" />
<text x="500" y="550" font-family="Verdana" font-size="8" text-anchor="middle"  dominant-baseline="middle" fill="black" > 523</text>
<text x="650" y="7" font-family="Verdana" font-size="7" text-anchor="middle"  dominant-baseline="middle" fill="black" > C6</text>
<circle cx="650" cy="15" r="4" fill="white" stroke="black" />
<line x1="650" y1="19" x2="650" y2="638" stroke="black" />
<line x1="646" y1="642" x2="650" y2="634" stroke="blue" />
<line x1="650" y1="642" x2="654" y2="634" stroke="blue" />
<text x="650" y="650" font-family="Verdana" font-size="8" text-anchor="middle"  dominant-baseline="middle" fill="black" > 623</text>
<text x="750" y="7" font-family="Verdana" font-size="7" text-anchor="middle"  dominant-baseline="middle" fill="black" > C7</text>
<circle cx="750" cy="15" r="4" fill="white" stroke="black" />
<line x1="750" y1="19" x2="750" y2="736" stroke="black" />
<circle cx="750" cy="736" r="4" fill="white" stroke="black" />
<text x="750" y="748" font-family="Verdana" font-size="8" text-anchor="middle"  dominant-baseline="middle" fill="black" > 721</text>
<text x="850" y="7" font-family="Verdana" font-size="7" text-anchor="middle"  dominant-baseline="middle" fill="black" > C8</text>
<circle cx="850" cy="15" r="4" fill="white" stroke="black" />
<line x1="850" y1="19" x2="850" y2="502" stroke="black" />
<line x1="846" y1="498" x2="854" y2="506" stroke="red" />
<line x1="846" y1="506" x2="854" y2="498" stroke="red" />
<text x="850" y="514" font-family="Verdana" font-size="8" text-anchor="middle"  dominant-baseline="middle" fill="black" > 487</text>
<text x="950" y="7" font-family="Verdana" font-size="7" text-anchor="middle"  dominant-baseline="middle" fill="black" > C9</text>
<circle cx="950" cy="15" r="4" fill="white" stroke="black" />
<line x1="950" y1="19" x2="950" y2="727" stroke="black" />
<line x1="946" y1="731" x2="950" y2="723" stroke="blue" />
<line x1="950" y1="731" x2="954" y2="723" stroke="blue" />
<text x="950" y="739" font-family="Verdana" font-size="8" text-anchor="middle"  dominant-baseline="middle" fill="black" > 712</text>
<text x="1100" y="7" font-family="Verdana" font-size="7" text-anchor="middle"  dominant-baseline="middle" fill="black" > C10</text>
<circle cx="1100" cy="15" r="4" fill="white" stroke="black" />
<line x1="1100" y1="19" x2="1100" y2="501" stroke="black" />
<line x1="1050" y1="501" x2="1150" y2="501" stroke="black" />
<text x="1125" y="493" font-family="Verdana" font-size="8" text-anchor="middle"  dominant-baseline="middle" fill="black" > 486</text>
<circle cx="1050" cy="501" r="4" fill="white" stroke="black" />
<circle cx="1150" cy="501" r="4" fill="white" stroke="black" />
<line x1="1050" y1="505" x2="1050" y2="509" stroke="black" />
<line x1="1050" y1="509" x2="1100" y2="511" stroke="black" />
<line x1="1150" y1="505" x2="1150" y2="509" stroke="black" />
<line x1="1150" y1="509" x2="1100" y2="511" stroke="black" />
<text x="1100" y="499" font-family="Verdana" font-size="8" text-anchor="middle"  dominant-baseline="middle" fill="black" > 496</text>
<circle cx="1100" cy="511" r="4" fill="white" stroke="black" />
<line x1="1100" y1="515" x2="1100" y2="626" stroke="black" />
<line x1="1096" y1="622" x2="1104" y2="630" stroke="red" />
<line x1="1096" y1="630" x2="1104" y2="622" stroke="red" />
<text x="1100" y="638" font-family="Verdana" font-size="8" text-anchor="middle"  dominant-baseline="middle" fill="black" > 611</text>
<text x="1250" y="7" font-family="Verdana" font-size="7" text-anchor="middle"  dominant-baseline="middle" fill="black" > C11</text>
<circle cx="1250" cy="15" r="4" fill="white" stroke="black" />
<line x1="1250" y1="19" x2="1250" y2="383" stroke="black" />
<line x1="1246" y1="379" x2="1254" y2="387" stroke="red" />
<line x1="1246" y1="387" x2="1254" y2="379" stroke="red" />
<text x="1250" y="395" font-family="Verdana" font-size="8" text-anchor="middle"  dominant-baseline="middle" fill="black" > 368</text>
</svg>
