<?xml version="1.0" encoding="utf-8"?>
<svg xmlns="http://www.w3.org/2000/svg" version="1.1" width="3650" height="750">
<rect width="3650" height="15" x="0" y="0" fill="white" />
<rect width="3650" height="15" x="0" y="735" fill="white" />
<rect width="25" height="750" x="0" y="0" fill="white" />
<rect width="25" height="750" x="3625" y="0" fill="white" />
<rect width="3610" height="144" x="25" y="15" fill="ghostwhite" />
<rect width="3610" height="144" x="25" y="159" fill="snow" />
<rect width="3610" height="144" x="25" y="303" fill="ghostwhite" />
<rect width="3610" height="144" x="25" y="447" fill="snow" />
<rect width="3610" height="144" x="25" y="591" fill="ghostwhite" />
<text x="12" y="87" font-family="Verdana" font-size="10" text-anchor="middle"  dominant-baseline="middle" fill="red" > D0</text>
<text x="12" y="231" font-family="Verdana" font-size="10" text-anchor="middle"  dominant-baseline="middle" fill="red" > D1</text>
<text x="12" y="375" font-family="Verdana" font-size="10" text-anchor="middle"  dominant-baseline="middle" fill="red" > D2</text>
<text x="12" y="519" font-family="Verdana" font-size="10" text-anchor="middle"  dominant-baseline="middle" fill="red" > D3</text>
<text x="12" y="663" font-family="Verdana" font-size="10" text-anchor="middle"  dominant-baseline="middle" fill="red" > D4</text>
<text x="12" y="20" font-family="Verdana" font-size="10" text-anchor="middle"  dominant-baseline="middle" fill="black" > 0</text>
<text x="12" y="164" font-family="Verdana" font-size="10" text-anchor="middle"  dominant-baseline="middle" fill="black" > 144</text>
<text x="12" y="308" font-family="Verdana" font-size="10" text-anchor="middle"  dominant-baseline="middle" fill="black" > 288</text>
<text x="12" y="452" font-family="Verdana" font-size="10" text-anchor="middle"  dominant-baseline="middle" fill="black" > 432</text>
<text x="12" y="596" font-family="Verdana" font-size="10" text-anchor="middle"  dominant-baseline="middle" fill="black" > 576</text>
<text x="12" y="740" font-family="Verdana" font-size="10" text-anchor="middle"  dominant-baseline="middle" fill="black" > 720</text>
<text x="50" y="7" font-family="Verdana" font-size="7" text-anchor="middle"  dominant-baseline="middle" fill="black" > C1</text>
<circle cx="50" cy="15" r="4" fill="white" stroke="black" />
<line x1="50" y1="19" x2="50" y2="671" stroke="black" />
<line x1="46" y1="667" x2="54" y2="675" stroke="red" />
<line x1="46" y1="675" x2="54" y2="667" stroke="red" />
<text x="50" y="683" font-family="Verdana" font-size="8" text-anchor="middle"  dominant-baseline="middle" fill="black" > 656</text>
<text x="300" y="7" font-family="Verdana" font-size="7" text-anchor="middle"  dominant-baseline="middle" fill="black" > C2</text>
<circle cx="300" cy="15" r="4" fill="white" stroke="black" />
<line x1="300" y1="19" x2="300" y2="359" stroke="black" />
<line x1="150" y1="359" x2="450" y2="359" stroke="black" />
<text x="325" y="351" font-family="Verdana" font-size="8" text-anchor="middle"  dominant-baseline="middle" fill="black" > 344</text>
<circle cx="150" cy="359" r="4" fill="white" stroke="black" />
<circle cx="250" cy="359" r="4" fill="white" stroke="black" />
<line x1="150" y1="363" x2="150" y2="432" stroke="black" />
<line x1="150" y1="432" x2="200" y2="456" stroke="black" />
<line x1="250" y1="363" x2="250" y2="432" stroke="black" />
<line x1="250" y1="432" x2="200" y2="456" stroke="black" />
<text x="200" y="444" font-family="Verdana" font-size="8" text-anchor="middle"  dominant-baseline="middle" fill="black" > 441</text>
<circle cx="200" cy="456" r="4" fill="white" stroke="black" />
<circle cx="350" cy="359" r="4" fill="white" stroke="black" />
<line x1="200" y1="460" x2="200" y2="459" stroke="black" />
<line x1="200" y1="459" x2="275" y2="459" stroke="black" />
<line x1="350" y1="363" x2="350" y2="459" stroke="black" />
<line x1="350" y1="459" x2="275" y2="459" stroke="black" />
<text x="275" y="447" font-family="Verdana" font-size="8" text-anchor="middle"  dominant-baseline="middle" fill="black" > 444</text>
<circle cx="275" cy="459" r="4" fill="white" stroke="black" />
<line x1="275" y1="463" x2="275" y2="736" stroke="black" />
<circle cx="275" cy="736" r="4" fill="white" stroke="black" />
<text x="275" y="748" font-family="Verdana" font-size="8" text-anchor="middle"  dominant-baseline="middle" fill="black" > 721</text>
<circle cx="450" cy="359" r="4" fill="white" stroke="black" />
<line x1="450" y1="363" x2="450" y2="619" stroke="black" />
<line x1="446" y1="615" x2="454" y2="623" stroke="red" />
<line x1="446" y1="623" x2="454" y2="615" stroke="red" />
<text x="450" y="631" font-family="Verdana" font-size="8" text-anchor="middle"  dominant-baseline="middle" fill="black" > 604</text>
<text x="550" y="7" font-family="Verdana" font-size="7" text-anchor="middle"  dominant-baseline="middle" fill="black" > C3</text>
<circle cx="550" cy="15" r="4" fill="white" stroke="black" />
<line x1="550" y1="19" x2="550" y2="736" stroke="black" />
<circle cx="550" cy="736" r="4" fill="white" stroke="black" />
<text x="550" y="748" font-family="Verdana" font-size="8" text-anchor="middle"  dominant-baseline="middle" fill="black" > 721</text>
<text x="700" y="7" font-family="Verdana" font-size="7" text-anchor="middle"  dominant-baseline="middle" fill="black" > C4</text>
<circle cx="700" cy="15" r="4" fill="white" stroke="black" />
<line x1="700" y1="19" x2="700" y2="180" stroke="black" />
<line x1="650" y1="180" x2="750" y2="180" stroke="black" />
<text x="725" y="172" font-family="Verdana" font-size="8" text-anchor="middle"  dominant-baseline="middle" fill="black" > 165</text>
<circle cx="650" cy="180" r="4" fill="white" stroke="black" />
<circle cx="750" cy="180" r="4" fill="white" stroke="black" />
<line x1="650" y1="184" x2="650" y2="327" stroke="black" />
<line x1="650" y1="327" x2="700" y2="376" stroke="black" />
<line x1="750" y1="184" x2="750" y2="327" stroke="black" />
<line x1="750" y1="327" x2="700" y2="376" stroke="black" />
<text x="700" y="364" font-family="Verdana" font-size="8" text-anchor="middle"  dominant-baseline="middle" fill="black" > 361</text>
<circle cx="700" cy="376" r="4" fill="white" stroke="black" />
<line x1="700" y1="380" x2="700" y2="409" stroke="black" />
<line x1="696" y1="405" x2="704" y2="413" stroke="red" />
<line x1="696" y1="413" x2="704" y2="405" stroke="red" />
<text x="700" y="421" font-family="Verdana" font-size="8" text-anchor="middle"  dominant-baseline="middle" fill="black" > 394</text>
<text x="950" y="7" font-family="Verdana" font-size="7" text-anchor="middle"  dominant-baseline="middle" fill="black" > C5</text>
<circle cx="950" cy="15" r="4" fill="white" stroke="black" />
<line x1="950" y1="19" x2="950" y2="459" stroke="black" />
<line x1="850" y1="459" x2="1050" y2="459" stroke="black" />
<text x="975" y="451" font-family="Verdana" font-size="8" text-anchor="middle"  dominant-baseline="middle" fill="black" > 444</text>
<circle cx="850" cy="459" r="4" fill="white" stroke="black" />
<circle cx="950" cy="459" r="4" fill="white" stroke="black" />
<line x1="850" y1="463" x2="850" y2="511" stroke="black" />
<line x1="850" y1="511" x2="900" y2="528" stroke="black" />
<line x1="950" y1="463" x2="950" y2="511" stroke="black" />
<line x1="950" y1="511" x2="900" y2="528" stroke="black" />
<text x="900" y="516" font-family="Verdana" font-size="8" text-anchor="middle"  dominant-baseline="middle" fill="black" > 513</text>
<circle cx="900" cy="528" r="4" fill="white" stroke="black" />
<circle cx="1050" cy="459" r="4" fill="white" stroke="black" />
<line x1="900" y1="532" x2="900" y2="535" stroke="black" />
<line x1="900" y1="535" x2="975" y2="537" stroke="black" />
<line x1="1050" y1="463" x2="1050" y2="535" stroke="black" />
<line x1="1050" y1="535" x2="975" y2="537" stroke="black" />
<text x="975" y="525" font-family="Verdana" font-size="8" text-anchor="middle"  dominant-baseline="middle" fill="black" > 522</text>
<circle cx="975" cy="537" r="4" fill="white" stroke="black" />
<line x1="975" y1="541" x2="975" y2="627" stroke="black" />
<line x1="971" y1="623" x2="979" y2="631" stroke="red" />
<line x1="971" y1="631" x2="979" y2="623" stroke="red" />
<text x="975" y="639" font-family="Verdana" font-size="8" text-anchor="middle"  dominant-baseline="middle" fill="black" > 612</text>
<text x="1150" y="7" font-family="Verdana" font-size="7" text-anchor="middle"  dominant-baseline="middle" fill="black" > C6</text>
<circle cx="1150" cy="15" r="4" fill="white" stroke="black" />
<line x1="1150" y1="19" x2="1150" y2="568" stroke="black" />
<line x1="1146" y1="564" x2="1154" y2="572" stroke="red" />
<line x1="1146" y1="572" x2="1154" y2="564" stroke="red" />
<text x="1150" y="580" font-family="Verdana" font-size="8" text-anchor="middle"  dominant-baseline="middle" fill="black" > 553</text>
<text x="1350" y="7" font-family="Verdana" font-size="7" text-anchor="middle"  dominant-baseline="middle" fill="black" > C7</text>
<circle cx="1350" cy="15" r="4" fill="white" stroke="black" />
<line x1="1350" y1="19" x2="1350" y2="307" stroke="black" />
<line x1="1250" y1="307" x2="1450" y2="307" stroke="black" />
<text x="1375" y="299" font-family="Verdana" font-size="8" text-anchor="middle"  dominant-baseline="middle" fill="black" > 292</text>
<circle cx="1250" cy="307" r="4" fill="white" stroke="black" />
<circle cx="1350" cy="307" r="4" fill="white" stroke="black" />
<line x1="1250" y1="311" x2="1250" y2="397" stroke="black" />
<line x1="1250" y1="397" x2="1300" y2="427" stroke="black" />
<line x1="1350" y1="311" x2="1350" y2="397" stroke="black" />
<line x1="1350" y1="397" x2="1300" y2="427" stroke="black" />
<text x="1300" y="415" font-family="Verdana" font-size="8" text-anchor="middle"  dominant-baseline="middle" fill="black" > 412</text>
<circle cx="1300" cy="427" r="4" fill="white" stroke="black" />
<circle cx="1450" cy="307" r="4" fill="white" stroke="black" />
<line x1="1300" y1="431" x2="1300" y2="476" stroke="black" />
<line x1="1300" y1="476" x2="1375" y2="492" stroke="black" />
<line x1="1450" y1="311" x2="1450" y2="476" stroke="black" />
<line x1="1450" y1="476" x2="1375" y2="492" stroke="black" />
<text x="1375" y="480" font-family="Verdana" font-size="8" text-anchor="middle"  dominant-baseline="middle" fill="black" > 477</text>
<circle cx="1375" cy="492" r="4" fill="white" stroke="black" />
<line x1="1375" y1="496" x2="1375" y2="533" stroke="black" />
<line x1="1371" y1="529" x2="1379" y2="537" stroke="red" />
<line x1="1371" y1="537" x2="1379" y2="529" stroke="red" />
<text x="1375" y="545" font-family="Verdana" font-size="8" text-anchor="middle"  dominant-baseline="middle" fill="black" > 518</text>
<text x="1600" y="7" font-family="Verdana" font-size="7" text-anchor="middle"  dominant-baseline="middle" fill="black" > C8</text>
<circle cx="1600" cy="15" r="4" fill="white" stroke="black" />
<line x1="1600" y1="19" x2="1600" y2="164" stroke="black" />
<line x1="1550" y1="164" x2="1650" y2="164" stroke="black" />
<text x="1625" y="156" font-family="Verdana" font-size="8" text-anchor="middle"  dominant-baseline="middle" fill="black" > 149</text>
<circle cx="1550" cy="164" r="4" fill="white" stroke="black" />
<line x1="1550" y1="168" x2="1550" y2="736" stroke="black" />
<circle cx="1550" cy="736" r="4" fill="white" stroke="black" />
<text x="1550" y="748" font-family="Verdana" font-size="8" text-anchor="middle"  dominant-baseline="middle" fill="black" > 721</text>
<circle cx="1650" cy="164" r="4" fill="white" stroke="black" />
<line x1="1650" y1="168" x2="1650" y2="341" stroke="black" />
<line x1="1625" y1="341" x2="1675" y2="341" stroke="black" />
<text x="1662" y="333" font-family="Verdana" font-size="8" text-anchor="middle"  dominant-baseline="middle" fill="black" > 326</text>
<circle cx="1625" cy="341" r="4" fill="white" stroke="black" />
<circle cx="1675" cy="341" r="4" fill="white" stroke="black" />
<line x1="1625" y1="345" x2="1625" y2="469" stroke="black" />
<line x1="1625" y1="469" x2="1650" y2="511" stroke="black" />
<line x1="1675" y1="345" x2="1675" y2="469" stroke="black" />
<line x1="1675" y1="469" x2="1650" y2="511" stroke="black" />
<text x="1650" y="499" font-family="Verdana" font-size="8" text-anchor="middle"  dominant-baseline="middle" fill="black" > 496</text>
<circle cx="1650" cy="511" r="4" fill="white" stroke="black" />
<line x1="1650" y1="515" x2="1650" y2="612" stroke="black" />
<line x1="1646" y1="608" x2="1654" y2="616" stroke="red" />
<line x1="1646" y1="616" x2="1654" y2="608" stroke="red" />
<text x="1650" y="624" font-family="Verdana" font-size="8" text-anchor="middle"  dominant-baseline="middle" fill="black" > 597</text>
<text x="1900" y="7" font-family="Verdana" font-size="7" text-anchor="middle"  dominant-baseline="middle" fill="black" > C9</text>
<circle cx="1900" cy="15" r="4" fill="white" stroke="black" />
<line x1="1900" y1="19" x2="1900" y2="390" stroke="black" />
<line x1="1750" y1="390" x2="2050" y2="390" stroke="black" />
<text x="1925" y="382" font-family="Verdana" font-size="8" text-anchor="middle"  dominant-baseline="middle" fill="black" > 375</text>
<circle cx="1750" cy="390" r="4" fill="white" stroke="black" />
<circle cx="1850" cy="390" r="4" fill="white" stroke="black" />
<circle cx="1950" cy="390" r="4" fill="white" stroke="black" />
<circle cx="2050" cy="390" r="4" fill="white" stroke="black" />
<line x1="1750" y1="394" x2="1750" y2="442" stroke="black" />
<line x1="1750" y1="442" x2="1900" y2="459" stroke="black" />
<line x1="1850" y1="394" x2="1850" y2="442" stroke="black" />
<line x1="1850" y1="442" x2="1900" y2="459" stroke="black" />
<line x1="1950" y1="394" x2="1950" y2="442" stroke="black" />
<line x1="1950" y1="442" x2="1900" y2="459" stroke="black" />
<line x1="2050" y1="394" x2="2050" y2="442" stroke="black" />
<line x1="2050" y1="442" x2="1900" y2="459" stroke="black" />
<text x="1900" y="447" font-family="Verdana" font-size="8" text-anchor="middle"  dominant-baseline="middle" fill="black" > 444</text>
<circle cx="1900" cy="459" r="4" fill="white" stroke="black" />
<line x1="1900" y1="463" x2="1900" y2="474" stroke="black" />
<line x1="1896" y1="470" x2="1904" y2="478" stroke="red" />
<line x1="1896" y1="478" x2="1904" y2="470" stroke="red" />
<text x="1900" y="486" font-family="Verdana" font-size="8" text-anchor="middle"  dominant-baseline="middle" fill="black" > 459</text>
<text x="2200" y="7" font-family="Verdana" font-size="7" text-anchor="middle"  dominant-baseline="middle" fill="black" > C10</text>
<circle cx="2200" cy="15" r="4" fill="white" stroke="black" />
<line x1="2200" y1="19" x2="2200" y2="184" stroke="black" />
<line x1="2150" y1="184" x2="2250" y2="184" stroke="black" />
<text x="2225" y="176" font-family="Verdana" font-size="8" text-anchor="middle"  dominant-baseline="middle" fill="black" > 169</text>
<circle cx="2150" cy="184" r="4" fill="white" stroke="black" />
<line x1="2150" y1="188" x2="2150" y2="312" stroke="black" />
<line x1="2116" y1="312" x2="2184" y2="312" stroke="black" />
<text x="2158" y="304" font-family="Verdana" font-size="8" text-anchor="middle"  dominant-baseline="middle" fill="black" > 297</text>
<circle cx="2116" cy="312" r="4" fill="white" stroke="black" />
<line x1="2116" y1="316" x2="2116" y2="480" stroke="black" />
<line x1="2112" y1="476" x2="2120" y2="484" stroke="red" />
<line x1="2112" y1="484" x2="2120" y2="476" stroke="red" />
<text x="2116" y="492" font-family="Verdana" font-size="8" text-anchor="middle"  dominant-baseline="middle" fill="black" > 465</text>
<circle cx="2149" cy="312" r="4" fill="white" stroke="black" />
<line x1="2149" y1="316" x2="2149" y2="480" stroke="black" />
<line x1="2145" y1="476" x2="2153" y2="484" stroke="red" />
<line x1="2145" y1="484" x2="2153" y2="476" stroke="red" />
<text x="2149" y="492" font-family="Verdana" font-size="8" text-anchor="middle"  dominant-baseline="middle" fill="black" > 465</text>
<circle cx="2182" cy="312" r="4" fill="white" stroke="black" />
<line x1="2182" y1="316" x2="2182" y2="480" stroke="black" />
<line x1="2178" y1="476" x2="2186" y2="484" stroke="red" />
<line x1="2178" y1="484" x2="2186" y2="476" stroke="red" />
<text x="2182" y="492" font-family="Verdana" font-size="8" text-anchor="middle"  dominant-baseline="middle" fill="black" > 465</text>
<circle cx="2250" cy="184" r="4" fill="white" stroke="black" />
<line x1="2250" y1="188" x2="2250" y2="340" stroke="black" />
<line x1="2225" y1="340" x2="2275" y2="340" stroke="black" />
<text x="2262" y="332" font-family="Verdana" font-size="8" text-anchor="middle"  dominant-baseline="middle" fill="black" > 325</text>
<circle cx="2225" cy="340" r="4" fill="white" stroke="black" />
<line x1="2225" y1="344" x2="2225" y2="502" stroke="black" />
<line x1="2212" y1="502" x2="2238" y2="502" stroke="black" />
<text x="2231" y="494" font-family="Verdana" font-size="8" text-anchor="middle"  dominant-baseline="middle" fill="black" > 487</text>
<circle cx="2212" cy="502" r="4" fill="white" stroke="black" />
<circle cx="2237" cy="502" r="4" fill="white" stroke="black" />
<line x1="2212" y1="506" x2="2212" y2="527" stroke="black" />
<line x1="2212" y1="527" x2="2224" y2="535" stroke="black" />
<line x1="2237" y1="506" x2="2237" y2="527" stroke="black" />
<line x1="2237" y1="527" x2="2224" y2="535" stroke="black" />
<text x="2224" y="523" font-family="Verdana" font-size="8" text-anchor="middle"  dominant-baseline="middle" fill="black" > 520</text>
<circle cx="2224" cy="535" r="4" fill="white" stroke="black" />
<line x1="2224" y1="539" x2="2224" y2="625" stroke="black" />
<line x1="2220" y1="621" x2="2228" y2="629" stroke="red" />
<line x1="2220" y1="629" x2="2228" y2="621" stroke="red" />
<text x="2224" y="637" font-family="Verdana" font-size="8" text-anchor="middle"  dominant-baseline="middle" fill="black" > 610</text>
<circle cx="2275" cy="340" r="4" fill="white" stroke="black" />
<line x1="2275" y1="344" x2="2275" y2="537" stroke="black" />
<line x1="2271" y1="533" x2="2279" y2="541" stroke="red" />
<line x1="2271" y1="541" x2="2279" y2="533" stroke="red" />
<text x="2275" y="549" font-family="Verdana" font-size="8" text-anchor="middle"  dominant-baseline="middle" fill="black" > 522</text>
<text x="2400" y="7" font-family="Verdana" font-size="7" text-anchor="middle"  dominant-baseline="middle" fill="black" > C11</text>
<circle cx="2400" cy="15" r="4" fill="white" stroke="black" />
<line x1="2400" y1="19" x2="2400" y2="219" stroke="black" />
<line x1="2350" y1="219" x2="2450" y2="219" stroke="black" />
<text x="2425" y="211" font-family="Verdana" font-size="8" text-anchor="middle"  dominant-baseline="middle" fill="black" > 204</text>
<circle cx="2350" cy="219" r="4" fill="white" stroke="black" />
<line x1="2350" y1="223" x2="2350" y2="450" stroke="black" />
<line x1="2346" y1="446" x2="2354" y2="454" stroke="red" />
<line x1="2346" y1="454" x2="2354" y2="446" stroke="red" />
<text x="2350" y="462" font-family="Verdana" font-size="8" text-anchor="middle"  dominant-baseline="middle" fill="black" > 435</text>
<circle cx="2450" cy="219" r="4" fill="white" stroke="black" />
<line x1="2450" y1="223" x2="2450" y2="369" stroke="black" />
<line x1="2425" y1="369" x2="2475" y2="369" stroke="black" />
<text x="2462" y="361" font-family="Verdana" font-size="8" text-anchor="middle"  dominant-baseline="middle" fill="black" > 354</text>
<circle cx="2425" cy="369" r="4" fill="white" stroke="black" />
<circle cx="2475" cy="369" r="4" fill="white" stroke="black" />
<line x1="2425" y1="373" x2="2425" y2="504" stroke="black" />
<line x1="2425" y1="504" x2="2450" y2="549" stroke="black" />
<line x1="2475" y1="373" x2="2475" y2="504" stroke="black" />
<line x1="2475" y1="504" x2="2450" y2="549" stroke="black" />
<text x="2450" y="537" font-family="Verdana" font-size="8" text-anchor="middle"  dominant-baseline="middle" fill="black" > 534</text>
<circle cx="2450" cy="549" r="4" fill="white" stroke="black" />
<line x1="2450" y1="553" x2="2450" y2="736" stroke="black" />
<circle cx="2450" cy="736" r="4" fill="white" stroke="black" />
<text x="2450" y="748" font-family="Verdana" font-size="8" text-anchor="middle"  dominant-baseline="middle" fill="black" > 721</text>
<text x="2550" y="7" font-family="Verdana" font-size="7" text-anchor="middle"  dominant-baseline="middle" fill="black" > C12</text>
<circle cx="2550" cy="15" r="4" fill="white" stroke="black" />
<line x1="2550" y1="19" x2="2550" y2="221" stroke="black" />
<line x1="2546" y1="217" x2="2554" y2="225" stroke="red" />
<line x1="2546" y1="225" x2="2554" y2="217" stroke="red" />
<text x="2550" y="233" font-family="Verdana" font-size="8" text-anchor="middle"  dominant-baseline="middle" fill="black" > 206</text>
<text x="2650" y="7" font-family="Verdana" font-size="7" text-anchor="middle"  dominant-baseline="middle" fill="black" > C13</text>
<circle cx="2650" cy="15" r="4" fill="white" stroke="black" />
<line x1="2650" y1="19" x2="2650" y2="166" stroke="black" />
<line x1="2646" y1="162" x2="2654" y2="170" stroke="red" />
<line x1="2646" y1="170" x2="2654" y2="162" stroke="red" />
<text x="2650" y="178" font-family="Verdana" font-size="8" text-anchor="middle"  dominant-baseline="middle" fill="black" > 151</text>
<text x="2850" y="7" font-family="Verdana" font-size="7" text-anchor="middle"  dominant-baseline="middle" fill="black" > C14</text>
<circle cx="2850" cy="15" r="4" fill="white" stroke="black" />
<line x1="2850" y1="19" x2="2850" y2="231" stroke="black" />
<line x1="2750" y1="231" x2="2950" y2="231" stroke="black" />
<text x="2875" y="223" font-family="Verdana" font-size="8" text-anchor="middle"  dominant-baseline="middle" fill="black" > 216</text>
<circle cx="2750" cy="231" r="4" fill="white" stroke="black" />
<circle cx="2850" cy="231" r="4" fill="white" stroke="black" />
<line x1="2750" y1="235" x2="2750" y2="368" stroke="black" />
<line x1="2750" y1="368" x2="2800" y2="413" stroke="black" />
<line x1="2850" y1="235" x2="2850" y2="368" stroke="black" />
<line x1="2850" y1="368" x2="2800" y2="413" stroke="black" />
<text x="2800" y="401" font-family="Verdana" font-size="8" text-anchor="middle"  dominant-baseline="middle" fill="black" > 398</text>
<circle cx="2800" cy="413" r="4" fill="white" stroke="black" />
<circle cx="2950" cy="231" r="4" fill="white" stroke="black" />
<line x1="2800" y1="417" x2="2800" y2="623" stroke="black" />
<line x1="2800" y1="623" x2="2875" y2="693" stroke="black" />
<line x1="2950" y1="235" x2="2950" y2="623" stroke="black" />
<line x1="2950" y1="623" x2="2875" y2="693" stroke="black" />
<text x="2875" y="681" font-family="Verdana" font-size="8" text-anchor="middle"  dominant-baseline="middle" fill="black" > 678</text>
<circle cx="2875" cy="693" r="4" fill="white" stroke="black" />
<line x1="2875" y1="697" x2="2875" y2="736" stroke="black" />
<circle cx="2875" cy="736" r="4" fill="white" stroke="black" />
<text x="2875" y="748" font-family="Verdana" font-size="8" text-anchor="middle"  dominant-baseline="middle" fill="black" > 721</text>
<text x="3100" y="7" font-family="Verdana" font-size="7" text-anchor="middle"  dominant-baseline="middle" fill="black" > C15</text>
<circle cx="3100" cy="15" r="4" fill="white" stroke="black" />
<line x1="3100" y1="19" x2="3100" y2="205" stroke="black" />
<line x1="3050" y1="205" x2="3150" y2="205" stroke="black" />
<text x="3125" y="197" font-family="Verdana" font-size="8" text-anchor="middle"  dominant-baseline="middle" fill="black" > 190</text>
<circle cx="3050" cy="205" r="4" fill="white" stroke="black" />
<circle cx="3150" cy="205" r="4" fill="white" stroke="black" />
<line x1="3050" y1="209" x2="3050" y2="237" stroke="black" />
<line x1="3050" y1="237" x2="3100" y2="247" stroke="black" />
<line x1="3150" y1="209" x2="3150" y2="237" stroke="black" />
<line x1="3150" y1="237" x2="3100" y2="247" stroke="black" />
<text x="3100" y="235" font-family="Verdana" font-size="8" text-anchor="middle"  dominant-baseline="middle" fill="black" > 232</text>
<circle cx="3100" cy="247" r="4" fill="white" stroke="black" />
<line x1="3100" y1="251" x2="3100" y2="446" stroke="black" />
<line x1="3096" y1="442" x2="3104" y2="450" stroke="red" />
<line x1="3096" y1="450" x2="3104" y2="442" stroke="red" />
<text x="3100" y="458" font-family="Verdana" font-size="8" text-anchor="middle"  dominant-baseline="middle" fill="black" > 431</text>
<text x="3350" y="7" font-family="Verdana" font-size="7" text-anchor="middle"  dominant-baseline="middle" fill="black" > C16</text>
<circle cx="3350" cy="15" r="4" fill="white" stroke="black" />
<line x1="3350" y1="19" x2="3350" y2="343" stroke="black" />
<line x1="3250" y1="343" x2="3450" y2="343" stroke="black" />
<text x="3375" y="335" font-family="Verdana" font-size="8" text-anchor="middle"  dominant-baseline="middle" fill="black" > 328</text>
<circle cx="3250" cy="343" r="4" fill="white" stroke="black" />
<circle cx="3350" cy="343" r="4" fill="white" stroke="black" />
<circle cx="3450" cy="343" r="4" fill="white" stroke="black" />
<line x1="3250" y1="347" x2="3250" y2="413" stroke="black" />
<line x1="3250" y1="413" x2="3350" y2="436" stroke="black" />
<line x1="3350" y1="347" x2="3350" y2="413" stroke="black" />
<line x1="3350" y1="413" x2="3350" y2="436" stroke="black" />
<line x1="3450" y1="347" x2="3450" y2="413" stroke="black" />
<line x1="3450" y1="413" x2="3350" y2="436" stroke="black" />
<text x="3350" y="424" font-family="Verdana" font-size="8" text-anchor="middle"  dominant-baseline="middle" fill="black" > 421</text>
<circle cx="3350" cy="436" r="4" fill="white" stroke="black" />
<line x1="3350" y1="440" x2="3350" y2="571" stroke="black" />
<line x1="3346" y1="575" x2="3350" y2="567" stroke="blue" />
<line x1="3350" y1="575" x2="3354" y2="567" stroke="blue" />
<text x="3350" y="583" font-family="Verdana" font-size="8" text-anchor="middle"  dominant-baseline="middle" fill="black" > 556</text>
<text x="3550" y="7" font-family="Verdana" font-size="7" text-anchor="middle"  dominant-baseline="middle" fill="black" > C17</text>
<circle cx="3550" cy="15" r="4" fill="white" stroke="black" />
<line x1="3550" y1="19" x2="3550" y2="108" stroke="black" />
<line x1="3546" y1="104" x2="3554" y2="112" stroke="red" />
<line x1="3546" y1="112" x2="3554" y2="104" stroke="red" />
<text x="3550" y="120" font-family="Verdana" font-size="8" text-anchor="middle"  dominant-baseline="middle" fill="black" > 93</text>
</svg>
