<?xml version="1.0" encoding="utf-8"?>
<svg xmlns="http://www.w3.org/2000/svg" version="1.1" width="4150" height="750">
<rect width="4150" height="15" x="0" y="0" fill="white" />
<rect width="4150" height="15" x="0" y="735" fill="white" />
<rect width="25" height="750" x="0" y="0" fill="white" />
<rect width="25" height="750" x="4125" y="0" fill="white" />
<rect width="4110" height="144" x="25" y="15" fill="ghostwhite" />
<rect width="4110" height="144" x="25" y="159" fill="snow" />
<rect width="4110" height="144" x="25" y="303" fill="ghostwhite" />
<rect width="4110" height="144" x="25" y="447" fill="snow" />
<rect width="4110" height="144" x="25" y="591" fill="ghostwhite" />
<text x="12" y="87" font-family="Verdana" font-size="10" text-anchor="middle"  dominant-baseline="middle" fill="red" > D0</text>
<text x="12" y="231" font-family="Verdana" font-size="10" text-anchor="middle"  dominant-baseline="middle" fill="red" > D1</text>
<text x="12" y="375" font-family="Verdana" font-size="10" text-anchor="middle"  dominant-baseline="middle" fill="red" > D2</text>
<text x="12" y="519" font-family="Verdana" font-size="10" text-anchor="middle"  dominant-baseline="middle" fill="red" > D3</text>
<text x="12" y="663" font-family="Verdana" font-size="10" text-anchor="middle"  dominant-baseline="middle" fill="red" > D4</text>
<text x="12" y="20" font-family="Verdana" font-size="10" text-anchor="middle"  dominant-baseline="middle" fill="black" > 0</text>
<text x="12" y="164" font-family="Verdana" font-size="10" text-anchor="middle"  dominant-baseline="middle" fill="black" > 144</text>
<text x="12" y="308" font-family="Verdana" font-size="10" text-anchor="middle"  dominant-baseline="middle" fill="black" > 288</text>
<text x="12" y="452" font-family="Verdana" font-size="10" text-anchor="middle"  dominant-baseline="middle" fill="black" > 432</text>
<text x="12" y="596" font-family="Verdana" font-size="10" text-anchor="middle"  dominant-baseline="middle" fill="black" > 576</text>
<text x="12" y="740" font-family="Verdana" font-size="10" text-anchor="middle"  dominant-baseline="middle" fill="black" > 720</text>
<text x="100" y="7" font-family="Verdana" font-size="7" text-anchor="middle"  dominant-baseline="middle" fill="black" > C1</text>
<circle cx="100" cy="15" r="4" fill="white" stroke="black" />
<line x1="100" y1="19" x2="100" y2="285" stroke="black" />
<line x1="50" y1="285" x2="150" y2="285" stroke="black" />
<text x="125" y="277" font-family="Verdana" font-size="8" text-anchor="middle"  dominant-baseline="middle" fill="black" > 270</text>
<circle cx="50" cy="285" r="4" fill="white" stroke="black" />
<line x1="50" y1="289" x2="50" y2="440" stroke="black" />
<line x1="16" y1="440" x2="84" y2="440" stroke="black" />
<text x="58" y="432" font-family="Verdana" font-size="8" text-anchor="middle"  dominant-baseline="middle" fill="black" > 425</text>
<circle cx="16" cy="440" r="4" fill="white" stroke="black" />
<circle cx="49" cy="440" r="4" fill="white" stroke="black" />
<line x1="16" y1="444" x2="16" y2="460" stroke="black" />
<line x1="16" y1="460" x2="32" y2="466" stroke="black" />
<line x1="49" y1="444" x2="49" y2="460" stroke="black" />
<line x1="49" y1="460" x2="32" y2="466" stroke="black" />
<text x="32" y="454" font-family="Verdana" font-size="8" text-anchor="middle"  dominant-baseline="middle" fill="black" > 451</text>
<circle cx="32" cy="466" r="4" fill="white" stroke="black" />
<circle cx="82" cy="440" r="4" fill="white" stroke="black" />
<line x1="32" y1="470" x2="32" y2="482" stroke="black" />
<line x1="32" y1="482" x2="57" y2="487" stroke="black" />
<line x1="82" y1="444" x2="82" y2="482" stroke="black" />
<line x1="82" y1="482" x2="57" y2="487" stroke="black" />
<text x="57" y="475" font-family="Verdana" font-size="8" text-anchor="middle"  dominant-baseline="middle" fill="black" > 472</text>
<circle cx="57" cy="487" r="4" fill="white" stroke="black" />
<line x1="57" y1="491" x2="57" y2="736" stroke="black" />
<circle cx="57" cy="736" r="4" fill="white" stroke="black" />
<text x="57" y="748" font-family="Verdana" font-size="8" text-anchor="middle"  dominant-baseline="middle" fill="black" > 721</text>
<circle cx="150" cy="285" r="4" fill="white" stroke="black" />
<line x1="150" y1="289" x2="150" y2="559" stroke="black" />
<line x1="146" y1="555" x2="154" y2="563" stroke="red" />
<line x1="146" y1="563" x2="154" y2="555" stroke="red" />
<text x="150" y="571" font-family="Verdana" font-size="8" text-anchor="middle"  dominant-baseline="middle" fill="black" > 544</text>
<text x="350" y="7" font-family="Verdana" font-size="7" text-anchor="middle"  dominant-baseline="middle" fill="black" > C2</text>
<circle cx="350" cy="15" r="4" fill="white" stroke="black" />
<line x1="350" y1="19" x2="350" y2="257" stroke="black" />
<line x1="250" y1="257" x2="450" y2="257" stroke="black" />
<text x="375" y="249" font-family="Verdana" font-size="8" text-anchor="middle"  dominant-baseline="middle" fill="black" > 242</text>
<circle cx="250" cy="257" r="4" fill="white" stroke="black" />
<line x1="250" y1="261" x2="250" y2="399" stroke="black" />
<line x1="225" y1="399" x2="275" y2="399" stroke="black" />
<text x="262" y="391" font-family="Verdana" font-size="8" text-anchor="middle"  dominant-baseline="middle" fill="black" > 384</text>
<circle cx="225" cy="399" r="4" fill="white" stroke="black" />
<circle cx="275" cy="399" r="4" fill="white" stroke="black" />
<line x1="225" y1="403" x2="225" y2="497" stroke="black" />
<line x1="225" y1="497" x2="250" y2="529" stroke="black" />
<line x1="275" y1="403" x2="275" y2="497" stroke="black" />
<line x1="275" y1="497" x2="250" y2="529" stroke="black" />
<text x="250" y="517" font-family="Verdana" font-size="8" text-anchor="middle"  dominant-baseline="middle" fill="black" > 514</text>
<circle cx="250" cy="529" r="4" fill="white" stroke="black" />
<line x1="250" y1="533" x2="250" y2="622" stroke="black" />
<line x1="246" y1="618" x2="254" y2="626" stroke="red" />
<line x1="246" y1="626" x2="254" y2="618" stroke="red" />
<text x="250" y="634" font-family="Verdana" font-size="8" text-anchor="middle"  dominant-baseline="middle" fill="black" > 607</text>
<circle cx="350" cy="257" r="4" fill="white" stroke="black" />
<line x1="350" y1="261" x2="350" y2="581" stroke="black" />
<line x1="346" y1="577" x2="354" y2="585" stroke="red" />
<line x1="346" y1="585" x2="354" y2="577" stroke="red" />
<text x="350" y="593" font-family="Verdana" font-size="8" text-anchor="middle"  dominant-baseline="middle" fill="black" > 566</text>
<circle cx="450" cy="257" r="4" fill="white" stroke="black" />
<line x1="450" y1="261" x2="450" y2="348" stroke="black" />
<line x1="425" y1="348" x2="475" y2="348" stroke="black" />
<text x="462" y="340" font-family="Verdana" font-size="8" text-anchor="middle"  dominant-baseline="middle" fill="black" > 333</text>
<circle cx="425" cy="348" r="4" fill="white" stroke="black" />
<line x1="425" y1="352" x2="425" y2="406" stroke="black" />
<line x1="412" y1="406" x2="438" y2="406" stroke="black" />
<text x="431" y="398" font-family="Verdana" font-size="8" text-anchor="middle"  dominant-baseline="middle" fill="black" > 391</text>
<circle cx="412" cy="406" r="4" fill="white" stroke="black" />
<circle cx="437" cy="406" r="4" fill="white" stroke="black" />
<line x1="412" y1="410" x2="412" y2="490" stroke="black" />
<line x1="412" y1="490" x2="424" y2="518" stroke="black" />
<line x1="437" y1="410" x2="437" y2="490" stroke="black" />
<line x1="437" y1="490" x2="424" y2="518" stroke="black" />
<text x="424" y="506" font-family="Verdana" font-size="8" text-anchor="middle"  dominant-baseline="middle" fill="black" > 503</text>
<circle cx="424" cy="518" r="4" fill="white" stroke="black" />
<line x1="424" y1="522" x2="424" y2="556" stroke="black" />
<line x1="418" y1="556" x2="431" y2="556" stroke="black" />
<text x="427" y="548" font-family="Verdana" font-size="8" text-anchor="middle"  dominant-baseline="middle" fill="black" > 541</text>
<circle cx="418" cy="556" r="4" fill="white" stroke="black" />
<line x1="418" y1="560" x2="418" y2="663" stroke="black" />
<line x1="414" y1="659" x2="422" y2="667" stroke="red" />
<line x1="414" y1="667" x2="422" y2="659" stroke="red" />
<text x="418" y="675" font-family="Verdana" font-size="8" text-anchor="middle"  dominant-baseline="middle" fill="black" > 648</text>
<circle cx="430" cy="556" r="4" fill="white" stroke="black" />
<line x1="430" y1="560" x2="430" y2="736" stroke="black" />
<circle cx="430" cy="736" r="4" fill="white" stroke="black" />
<text x="430" y="748" font-family="Verdana" font-size="8" text-anchor="middle"  dominant-baseline="middle" fill="black" > 721</text>
<circle cx="475" cy="348" r="4" fill="white" stroke="black" />
<line x1="475" y1="352" x2="475" y2="407" stroke="black" />
<line x1="462" y1="407" x2="488" y2="407" stroke="black" />
<text x="481" y="399" font-family="Verdana" font-size="8" text-anchor="middle"  dominant-baseline="middle" fill="black" > 392</text>
<circle cx="462" cy="407" r="4" fill="white" stroke="black" />
<circle cx="487" cy="407" r="4" fill="white" stroke="black" />
<line x1="462" y1="411" x2="462" y2="491" stroke="black" />
<line x1="462" y1="491" x2="474" y2="518" stroke="black" />
<line x1="487" y1="411" x2="487" y2="491" stroke="black" />
<line x1="487" y1="491" x2="474" y2="518" stroke="black" />
<text x="474" y="506" font-family="Verdana" font-size="8" text-anchor="middle"  dominant-baseline="middle" fill="black" > 503</text>
<circle cx="474" cy="518" r="4" fill="white" stroke="black" />
<line x1="474" y1="522" x2="474" y2="736" stroke="black" />
<circle cx="474" cy="736" r="4" fill="white" stroke="black" />
<text x="474" y="748" font-family="Verdana" font-size="8" text-anchor="middle"  dominant-baseline="middle" fill="black" > 721</text>
<text x="600" y="7" font-family="Verdana" font-size="7" text-anchor="middle"  dominant-baseline="middle" fill="black" > C3</text>
<circle cx="600" cy="15" r="4" fill="white" stroke="black" />
<line x1="600" y1="19" x2="600" y2="148" stroke="black" />
<line x1="550" y1="148" x2="650" y2="148" stroke="black" />
<text x="625" y="140" font-family="Verdana" font-size="8" text-anchor="middle"  dominant-baseline="middle" fill="black" > 133</text>
<circle cx="550" cy="148" r="4" fill="white" stroke="black" />
<circle cx="650" cy="148" r="4" fill="white" stroke="black" />
<line x1="550" y1="152" x2="550" y2="320" stroke="black" />
<line x1="550" y1="320" x2="600" y2="377" stroke="black" />
<line x1="650" y1="152" x2="650" y2="320" stroke="black" />
<line x1="650" y1="320" x2="600" y2="377" stroke="black" />
<text x="600" y="365" font-family="Verdana" font-size="8" text-anchor="middle"  dominant-baseline="middle" fill="black" > 362</text>
<circle cx="600" cy="377" r="4" fill="white" stroke="black" />
<line x1="600" y1="381" x2="600" y2="736" stroke="black" />
<circle cx="600" cy="736" r="4" fill="white" stroke="black" />
<text x="600" y="748" font-family="Verdana" font-size="8" text-anchor="middle"  dominant-baseline="middle" fill="black" > 721</text>
<text x="800" y="7" font-family="Verdana" font-size="7" text-anchor="middle"  dominant-baseline="middle" fill="black" > C4</text>
<circle cx="800" cy="15" r="4" fill="white" stroke="black" />
<line x1="800" y1="19" x2="800" y2="188" stroke="black" />
<line x1="750" y1="188" x2="850" y2="188" stroke="black" />
<text x="825" y="180" font-family="Verdana" font-size="8" text-anchor="middle"  dominant-baseline="middle" fill="black" > 173</text>
<circle cx="750" cy="188" r="4" fill="white" stroke="black" />
<circle cx="850" cy="188" r="4" fill="white" stroke="black" />
<line x1="750" y1="192" x2="750" y2="372" stroke="black" />
<line x1="750" y1="372" x2="800" y2="433" stroke="black" />
<line x1="850" y1="192" x2="850" y2="372" stroke="black" />
<line x1="850" y1="372" x2="800" y2="433" stroke="black" />
<text x="800" y="421" font-family="Verdana" font-size="8" text-anchor="middle"  dominant-baseline="middle" fill="black" > 418</text>
<circle cx="800" cy="433" r="4" fill="white" stroke="black" />
<line x1="800" y1="437" x2="800" y2="557" stroke="black" />
<line x1="775" y1="557" x2="825" y2="557" stroke="black" />
<text x="812" y="549" font-family="Verdana" font-size="8" text-anchor="middle"  dominant-baseline="middle" fill="black" > 542</text>
<circle cx="775" cy="557" r="4" fill="white" stroke="black" />
<circle cx="825" cy="557" r="4" fill="white" stroke="black" />
<line x1="775" y1="561" x2="775" y2="619" stroke="black" />
<line x1="775" y1="619" x2="800" y2="639" stroke="black" />
<line x1="825" y1="561" x2="825" y2="619" stroke="black" />
<line x1="825" y1="619" x2="800" y2="639" stroke="black" />
<text x="800" y="627" font-family="Verdana" font-size="8" text-anchor="middle"  dominant-baseline="middle" fill="black" > 624</text>
<circle cx="800" cy="639" r="4" fill="white" stroke="black" />
<line x1="800" y1="643" x2="800" y2="649" stroke="black" />
<line x1="796" y1="645" x2="804" y2="653" stroke="red" />
<line x1="796" y1="653" x2="804" y2="645" stroke="red" />
<text x="800" y="661" font-family="Verdana" font-size="8" text-anchor="middle"  dominant-baseline="middle" fill="black" > 634</text>
<text x="1050" y="7" font-family="Verdana" font-size="7" text-anchor="middle"  dominant-baseline="middle" fill="black" > C5</text>
<circle cx="1050" cy="15" r="4" fill="white" stroke="black" />
<line x1="1050" y1="19" x2="1050" y2="375" stroke="black" />
<line x1="950" y1="375" x2="1150" y2="375" stroke="black" />
<text x="1075" y="367" font-family="Verdana" font-size="8" text-anchor="middle"  dominant-baseline="middle" fill="black" > 360</text>
<circle cx="950" cy="375" r="4" fill="white" stroke="black" />
<circle cx="1050" cy="375" r="4" fill="white" stroke="black" />
<circle cx="1150" cy="375" r="4" fill="white" stroke="black" />
<line x1="950" y1="379" x2="950" y2="524" stroke="black" />
<line x1="950" y1="524" x2="1050" y2="573" stroke="black" />
<line x1="1050" y1="379" x2="1050" y2="524" stroke="black" />
<line x1="1050" y1="524" x2="1050" y2="573" stroke="black" />
<line x1="1150" y1="379" x2="1150" y2="524" stroke="black" />
<line x1="1150" y1="524" x2="1050" y2="573" stroke="black" />
<text x="1050" y="561" font-family="Verdana" font-size="8" text-anchor="middle"  dominant-baseline="middle" fill="black" > 558</text>
<circle cx="1050" cy="573" r="4" fill="white" stroke="black" />
<line x1="1050" y1="577" x2="1050" y2="580" stroke="black" />
<line x1="1046" y1="576" x2="1054" y2="584" stroke="red" />
<line x1="1046" y1="584" x2="1054" y2="576" stroke="red" />
<text x="1050" y="592" font-family="Verdana" font-size="8" text-anchor="middle"  dominant-baseline="middle" fill="black" > 565</text>
<text x="1400" y="7" font-family="Verdana" font-size="7" text-anchor="middle"  dominant-baseline="middle" fill="black" > C6</text>
<circle cx="1400" cy="15" r="4" fill="white" stroke="black" />
<line x1="1400" y1="19" x2="1400" y2="319" stroke="black" />
<line x1="1250" y1="319" x2="1550" y2="319" stroke="black" />
<text x="1425" y="311" font-family="Verdana" font-size="8" text-anchor="middle"  dominant-baseline="middle" fill="black" > 304</text>
<circle cx="1250" cy="319" r="4" fill="white" stroke="black" />
<circle cx="1350" cy="319" r="4" fill="white" stroke="black" />
<circle cx="1450" cy="319" r="4" fill="white" stroke="black" />
<circle cx="1550" cy="319" r="4" fill="white" stroke="black" />
<line x1="1250" y1="323" x2="1250" y2="328" stroke="black" />
<line x1="1250" y1="328" x2="1400" y2="331" stroke="black" />
<line x1="1350" y1="323" x2="1350" y2="328" stroke="black" />
<line x1="1350" y1="328" x2="1400" y2="331" stroke="black" />
<line x1="1450" y1="323" x2="1450" y2="328" stroke="black" />
<line x1="1450" y1="328" x2="1400" y2="331" stroke="black" />
<line x1="1550" y1="323" x2="1550" y2="328" stroke="black" />
<line x1="1550" y1="328" x2="1400" y2="331" stroke="black" />
<text x="1400" y="319" font-family="Verdana" font-size="8" text-anchor="middle"  dominant-baseline="middle" fill="black" > 316</text>
<circle cx="1400" cy="331" r="4" fill="white" stroke="black" />
<line x1="1400" y1="335" x2="1400" y2="446" stroke="black" />
<line x1="1396" y1="442" x2="1404" y2="450" stroke="red" />
<line x1="1396" y1="450" x2="1404" y2="442" stroke="red" />
<text x="1400" y="458" font-family="Verdana" font-size="8" text-anchor="middle"  dominant-baseline="middle" fill="black" > 431</text>
<text x="1750" y="7" font-family="Verdana" font-size="7" text-anchor="middle"  dominant-baseline="middle" fill="black" > C7</text>
<circle cx="1750" cy="15" r="4" fill="white" stroke="black" />
<line x1="1750" y1="19" x2="1750" y2="297" stroke="black" />
<line x1="1650" y1="297" x2="1850" y2="297" stroke="black" />
<text x="1775" y="289" font-family="Verdana" font-size="8" text-anchor="middle"  dominant-baseline="middle" fill="black" > 282</text>
<circle cx="1650" cy="297" r="4" fill="white" stroke="black" />
<circle cx="1750" cy="297" r="4" fill="white" stroke="black" />
<line x1="1650" y1="301" x2="1650" y2="366" stroke="black" />
<line x1="1650" y1="366" x2="1700" y2="388" stroke="black" />
<line x1="1750" y1="301" x2="1750" y2="366" stroke="black" />
<line x1="1750" y1="366" x2="1700" y2="388" stroke="black" />
<text x="1700" y="376" font-family="Verdana" font-size="8" text-anchor="middle"  dominant-baseline="middle" fill="black" > 373</text>
<circle cx="1700" cy="388" r="4" fill="white" stroke="black" />
<circle cx="1850" cy="297" r="4" fill="white" stroke="black" />
<line x1="1700" y1="392" x2="1700" y2="418" stroke="black" />
<line x1="1700" y1="418" x2="1775" y2="427" stroke="black" />
<line x1="1850" y1="301" x2="1850" y2="418" stroke="black" />
<line x1="1850" y1="418" x2="1775" y2="427" stroke="black" />
<text x="1775" y="415" font-family="Verdana" font-size="8" text-anchor="middle"  dominant-baseline="middle" fill="black" > 412</text>
<circle cx="1775" cy="427" r="4" fill="white" stroke="black" />
<line x1="1775" y1="431" x2="1775" y2="429" stroke="black" />
<line x1="1771" y1="425" x2="1779" y2="433" stroke="red" />
<line x1="1771" y1="433" x2="1779" y2="425" stroke="red" />
<text x="1775" y="441" font-family="Verdana" font-size="8" text-anchor="middle"  dominant-baseline="middle" fill="black" > 414</text>
<text x="1950" y="7" font-family="Verdana" font-size="7" text-anchor="middle"  dominant-baseline="middle" fill="black" > C8</text>
<circle cx="1950" cy="15" r="4" fill="white" stroke="black" />
<line x1="1950" y1="19" x2="1950" y2="240" stroke="black" />
<line x1="1946" y1="236" x2="1954" y2="244" stroke="red" />
<line x1="1946" y1="244" x2="1954" y2="236" stroke="red" />
<text x="1950" y="252" font-family="Verdana" font-size="8" text-anchor="middle"  dominant-baseline="middle" fill="black" > 225</text>
<text x="2150" y="7" font-family="Verdana" font-size="7" text-anchor="middle"  dominant-baseline="middle" fill="black" > C9</text>
<circle cx="2150" cy="15" r="4" fill="white" stroke="black" />
<line x1="2150" y1="19" x2="2150" y2="443" stroke="black" />
<line x1="2050" y1="443" x2="2250" y2="443" stroke="black" />
<text x="2175" y="435" font-family="Verdana" font-size="8" text-anchor="middle"  dominant-baseline="middle" fill="black" > 428</text>
<circle cx="2050" cy="443" r="4" fill="white" stroke="black" />
<circle cx="2150" cy="443" r="4" fill="white" stroke="black" />
<circle cx="2250" cy="443" r="4" fill="white" stroke="black" />
<line x1="2050" y1="447" x2="2050" y2="507" stroke="black" />
<line x1="2050" y1="507" x2="2150" y2="528" stroke="black" />
<line x1="2150" y1="447" x2="2150" y2="507" stroke="black" />
<line x1="2150" y1="507" x2="2150" y2="528" stroke="black" />
<line x1="2250" y1="447" x2="2250" y2="507" stroke="black" />
<line x1="2250" y1="507" x2="2150" y2="528" stroke="black" />
<text x="2150" y="516" font-family="Verdana" font-size="8" text-anchor="middle"  dominant-baseline="middle" fill="black" > 513</text>
<circle cx="2150" cy="528" r="4" fill="white" stroke="black" />
<line x1="2150" y1="532" x2="2150" y2="736" stroke="black" />
<circle cx="2150" cy="736" r="4" fill="white" stroke="black" />
<text x="2150" y="748" font-family="Verdana" font-size="8" text-anchor="middle"  dominant-baseline="middle" fill="black" > 721</text>
<text x="2450" y="7" font-family="Verdana" font-size="7" text-anchor="middle"  dominant-baseline="middle" fill="black" > C10</text>
<circle cx="2450" cy="15" r="4" fill="white" stroke="black" />
<line x1="2450" y1="19" x2="2450" y2="538" stroke="black" />
<line x1="2350" y1="538" x2="2550" y2="538" stroke="black" />
<text x="2475" y="530" font-family="Verdana" font-size="8" text-anchor="middle"  dominant-baseline="middle" fill="black" > 523</text>
<circle cx="2350" cy="538" r="4" fill="white" stroke="black" />
<circle cx="2450" cy="538" r="4" fill="white" stroke="black" />
<line x1="2350" y1="542" x2="2350" y2="578" stroke="black" />
<line x1="2350" y1="578" x2="2400" y2="591" stroke="black" />
<line x1="2450" y1="542" x2="2450" y2="578" stroke="black" />
<line x1="2450" y1="578" x2="2400" y2="591" stroke="black" />
<text x="2400" y="579" font-family="Verdana" font-size="8" text-anchor="middle"  dominant-baseline="middle" fill="black" > 576</text>
<circle cx="2400" cy="591" r="4" fill="white" stroke="black" />
<circle cx="2550" cy="538" r="4" fill="white" stroke="black" />
<line x1="2400" y1="595" x2="2400" y2="611" stroke="black" />
<line x1="2400" y1="611" x2="2475" y2="617" stroke="black" />
<line x1="2550" y1="542" x2="2550" y2="611" stroke="black" />
<line x1="2550" y1="611" x2="2475" y2="617" stroke="black" />
<text x="2475" y="605" font-family="Verdana" font-size="8" text-anchor="middle"  dominant-baseline="middle" fill="black" > 602</text>
<circle cx="2475" cy="617" r="4" fill="white" stroke="black" />
<line x1="2475" y1="621" x2="2475" y2="686" stroke="black" />
<line x1="2471" y1="682" x2="2479" y2="690" stroke="red" />
<line x1="2471" y1="690" x2="2479" y2="682" stroke="red" />
<text x="2475" y="698" font-family="Verdana" font-size="8" text-anchor="middle"  dominant-baseline="middle" fill="black" > 671</text>
<text x="2750" y="7" font-family="Verdana" font-size="7" text-anchor="middle"  dominant-baseline="middle" fill="black" > C11</text>
<circle cx="2750" cy="15" r="4" fill="white" stroke="black" />
<line x1="2750" y1="19" x2="2750" y2="159" stroke="black" />
<line x1="2650" y1="159" x2="2850" y2="159" stroke="black" />
<text x="2775" y="151" font-family="Verdana" font-size="8" text-anchor="middle"  dominant-baseline="middle" fill="black" > 144</text>
<circle cx="2650" cy="159" r="4" fill="white" stroke="black" />
<circle cx="2750" cy="159" r="4" fill="white" stroke="black" />
<circle cx="2850" cy="159" r="4" fill="white" stroke="black" />
<line x1="2650" y1="163" x2="2650" y2="244" stroke="black" />
<line x1="2650" y1="244" x2="2750" y2="272" stroke="black" />
<line x1="2750" y1="163" x2="2750" y2="244" stroke="black" />
<line x1="2750" y1="244" x2="2750" y2="272" stroke="black" />
<line x1="2850" y1="163" x2="2850" y2="244" stroke="black" />
<line x1="2850" y1="244" x2="2750" y2="272" stroke="black" />
<text x="2750" y="260" font-family="Verdana" font-size="8" text-anchor="middle"  dominant-baseline="middle" fill="black" > 257</text>
<circle cx="2750" cy="272" r="4" fill="white" stroke="black" />
<line x1="2750" y1="276" x2="2750" y2="461" stroke="black" />
<line x1="2683" y1="461" x2="2817" y2="461" stroke="black" />
<text x="2766" y="453" font-family="Verdana" font-size="8" text-anchor="middle"  dominant-baseline="middle" fill="black" > 446</text>
<circle cx="2683" cy="461" r="4" fill="white" stroke="black" />
<line x1="2683" y1="465" x2="2683" y2="512" stroke="black" />
<line x1="2679" y1="508" x2="2687" y2="516" stroke="red" />
<line x1="2679" y1="516" x2="2687" y2="508" stroke="red" />
<text x="2683" y="524" font-family="Verdana" font-size="8" text-anchor="middle"  dominant-baseline="middle" fill="black" > 497</text>
<circle cx="2749" cy="461" r="4" fill="white" stroke="black" />
<line x1="2749" y1="465" x2="2749" y2="521" stroke="black" />
<line x1="2745" y1="517" x2="2753" y2="525" stroke="red" />
<line x1="2745" y1="525" x2="2753" y2="517" stroke="red" />
<text x="2749" y="533" font-family="Verdana" font-size="8" text-anchor="middle"  dominant-baseline="middle" fill="black" > 506</text>
<circle cx="2815" cy="461" r="4" fill="white" stroke="black" />
<line x1="2815" y1="465" x2="2815" y2="550" stroke="black" />
<line x1="2811" y1="546" x2="2819" y2="554" stroke="red" />
<line x1="2811" y1="554" x2="2819" y2="546" stroke="red" />
<text x="2815" y="562" font-family="Verdana" font-size="8" text-anchor="middle"  dominant-baseline="middle" fill="black" > 535</text>
<text x="3050" y="7" font-family="Verdana" font-size="7" text-anchor="middle"  dominant-baseline="middle" fill="black" > C12</text>
<circle cx="3050" cy="15" r="4" fill="white" stroke="black" />
<line x1="3050" y1="19" x2="3050" y2="129" stroke="black" />
<line x1="2950" y1="129" x2="3150" y2="129" stroke="black" />
<text x="3075" y="121" font-family="Verdana" font-size="8" text-anchor="middle"  dominant-baseline="middle" fill="black" > 114</text>
<circle cx="2950" cy="129" r="4" fill="white" stroke="black" />
<line x1="2950" y1="133" x2="2950" y2="301" stroke="black" />
<line x1="2946" y1="297" x2="2954" y2="305" stroke="red" />
<line x1="2946" y1="305" x2="2954" y2="297" stroke="red" />
<text x="2950" y="313" font-family="Verdana" font-size="8" text-anchor="middle"  dominant-baseline="middle" fill="black" > 286</text>
<circle cx="3050" cy="129" r="4" fill="white" stroke="black" />
<circle cx="3150" cy="129" r="4" fill="white" stroke="black" />
<line x1="3050" y1="133" x2="3050" y2="258" stroke="black" />
<line x1="3050" y1="258" x2="3100" y2="300" stroke="black" />
<line x1="3150" y1="133" x2="3150" y2="258" stroke="black" />
<line x1="3150" y1="258" x2="3100" y2="300" stroke="black" />
<text x="3100" y="288" font-family="Verdana" font-size="8" text-anchor="middle"  dominant-baseline="middle" fill="black" > 285</text>
<circle cx="3100" cy="300" r="4" fill="white" stroke="black" />
<line x1="3100" y1="304" x2="3100" y2="303" stroke="black" />
<line x1="3096" y1="299" x2="3104" y2="307" stroke="red" />
<line x1="3096" y1="307" x2="3104" y2="299" stroke="red" />
<text x="3100" y="315" font-family="Verdana" font-size="8" text-anchor="middle"  dominant-baseline="middle" fill="black" > 288</text>
<text x="3300" y="7" font-family="Verdana" font-size="7" text-anchor="middle"  dominant-baseline="middle" fill="black" > C13</text>
<circle cx="3300" cy="15" r="4" fill="white" stroke="black" />
<line x1="3300" y1="19" x2="3300" y2="300" stroke="black" />
<line x1="3250" y1="300" x2="3350" y2="300" stroke="black" />
<text x="3325" y="292" font-family="Verdana" font-size="8" text-anchor="middle"  dominant-baseline="middle" fill="black" > 285</text>
<circle cx="3250" cy="300" r="4" fill="white" stroke="black" />
<line x1="3250" y1="304" x2="3250" y2="452" stroke="black" />
<line x1="3225" y1="452" x2="3275" y2="452" stroke="black" />
<text x="3262" y="444" font-family="Verdana" font-size="8" text-anchor="middle"  dominant-baseline="middle" fill="black" > 437</text>
<circle cx="3225" cy="452" r="4" fill="white" stroke="black" />
<line x1="3225" y1="456" x2="3225" y2="609" stroke="black" />
<line x1="3221" y1="605" x2="3229" y2="613" stroke="red" />
<line x1="3221" y1="613" x2="3229" y2="605" stroke="red" />
<text x="3225" y="621" font-family="Verdana" font-size="8" text-anchor="middle"  dominant-baseline="middle" fill="black" > 594</text>
<circle cx="3275" cy="452" r="4" fill="white" stroke="black" />
<line x1="3275" y1="456" x2="3275" y2="557" stroke="black" />
<line x1="3271" y1="561" x2="3275" y2="553" stroke="blue" />
<line x1="3275" y1="561" x2="3279" y2="553" stroke="blue" />
<text x="3275" y="569" font-family="Verdana" font-size="8" text-anchor="middle"  dominant-baseline="middle" fill="black" > 542</text>
<circle cx="3350" cy="300" r="4" fill="white" stroke="black" />
<line x1="3350" y1="304" x2="3350" y2="467" stroke="black" />
<line x1="3325" y1="467" x2="3375" y2="467" stroke="black" />
<text x="3362" y="459" font-family="Verdana" font-size="8" text-anchor="middle"  dominant-baseline="middle" fill="black" > 452</text>
<circle cx="3325" cy="467" r="4" fill="white" stroke="black" />
<line x1="3325" y1="471" x2="3325" y2="500" stroke="black" />
<line x1="3321" y1="504" x2="3325" y2="496" stroke="blue" />
<line x1="3325" y1="504" x2="3329" y2="496" stroke="blue" />
<text x="3325" y="512" font-family="Verdana" font-size="8" text-anchor="middle"  dominant-baseline="middle" fill="black" > 485</text>
<circle cx="3375" cy="467" r="4" fill="white" stroke="black" />
<line x1="3375" y1="471" x2="3375" y2="509" stroke="black" />
<line x1="3371" y1="513" x2="3375" y2="505" stroke="blue" />
<line x1="3375" y1="513" x2="3379" y2="505" stroke="blue" />
<text x="3375" y="521" font-family="Verdana" font-size="8" text-anchor="middle"  dominant-baseline="middle" fill="black" > 494</text>
<text x="3500" y="7" font-family="Verdana" font-size="7" text-anchor="middle"  dominant-baseline="middle" fill="black" > C14</text>
<circle cx="3500" cy="15" r="4" fill="white" stroke="black" />
<line x1="3500" y1="19" x2="3500" y2="250" stroke="black" />
<line x1="3450" y1="250" x2="3550" y2="250" stroke="black" />
<text x="3525" y="242" font-family="Verdana" font-size="8" text-anchor="middle"  dominant-baseline="middle" fill="black" > 235</text>
<circle cx="3450" cy="250" r="4" fill="white" stroke="black" />
<line x1="3450" y1="254" x2="3450" y2="599" stroke="black" />
<line x1="3446" y1="595" x2="3454" y2="603" stroke="red" />
<line x1="3446" y1="603" x2="3454" y2="595" stroke="red" />
<text x="3450" y="611" font-family="Verdana" font-size="8" text-anchor="middle"  dominant-baseline="middle" fill="black" > 584</text>
<circle cx="3550" cy="250" r="4" fill="white" stroke="black" />
<line x1="3550" y1="254" x2="3550" y2="511" stroke="black" />
<line x1="3525" y1="511" x2="3575" y2="511" stroke="black" />
<text x="3562" y="503" font-family="Verdana" font-size="8" text-anchor="middle"  dominant-baseline="middle" fill="black" > 496</text>
<circle cx="3525" cy="511" r="4" fill="white" stroke="black" />
<circle cx="3575" cy="511" r="4" fill="white" stroke="black" />
<line x1="3525" y1="515" x2="3525" y2="538" stroke="black" />
<line x1="3525" y1="538" x2="3550" y2="546" stroke="black" />
<line x1="3575" y1="515" x2="3575" y2="538" stroke="black" />
<line x1="3575" y1="538" x2="3550" y2="546" stroke="black" />
<text x="3550" y="534" font-family="Verdana" font-size="8" text-anchor="middle"  dominant-baseline="middle" fill="black" > 531</text>
<circle cx="3550" cy="546" r="4" fill="white" stroke="black" />
<line x1="3550" y1="550" x2="3550" y2="589" stroke="black" />
<line x1="3546" y1="593" x2="3550" y2="585" stroke="blue" />
<line x1="3550" y1="593" x2="3554" y2="585" stroke="blue" />
<text x="3550" y="601" font-family="Verdana" font-size="8" text-anchor="middle"  dominant-baseline="middle" fill="black" > 574</text>
<text x="3800" y="7" font-family="Verdana" font-size="7" text-anchor="middle"  dominant-baseline="middle" fill="black" > C15</text>
<circle cx="3800" cy="15" r="4" fill="white" stroke="black" />
<line x1="3800" y1="19" x2="3800" y2="439" stroke="black" />
<line x1="3650" y1="439" x2="3950" y2="439" stroke="black" />
<text x="3825" y="431" font-family="Verdana" font-size="8" text-anchor="middle"  dominant-baseline="middle" fill="black" > 424</text>
<circle cx="3650" cy="439" r="4" fill="white" stroke="black" />
<line x1="3650" y1="443" x2="3650" y2="547" stroke="black" />
<line x1="3646" y1="543" x2="3654" y2="551" stroke="red" />
<line x1="3646" y1="551" x2="3654" y2="543" stroke="red" />
<text x="3650" y="559" font-family="Verdana" font-size="8" text-anchor="middle"  dominant-baseline="middle" fill="black" > 532</text>
<circle cx="3750" cy="439" r="4" fill="white" stroke="black" />
<circle cx="3850" cy="439" r="4" fill="white" stroke="black" />
<circle cx="3950" cy="439" r="4" fill="white" stroke="black" />
<line x1="3750" y1="443" x2="3750" y2="469" stroke="black" />
<line x1="3750" y1="469" x2="3850" y2="478" stroke="black" />
<line x1="3850" y1="443" x2="3850" y2="469" stroke="black" />
<line x1="3850" y1="469" x2="3850" y2="478" stroke="black" />
<line x1="3950" y1="443" x2="3950" y2="469" stroke="black" />
<line x1="3950" y1="469" x2="3850" y2="478" stroke="black" />
<text x="3850" y="466" font-family="Verdana" font-size="8" text-anchor="middle"  dominant-baseline="middle" fill="black" > 463</text>
<circle cx="3850" cy="478" r="4" fill="white" stroke="black" />
<line x1="3850" y1="482" x2="3850" y2="597" stroke="black" />
<line x1="3846" y1="593" x2="3854" y2="601" stroke="red" />
<line x1="3846" y1="601" x2="3854" y2="593" stroke="red" />
<text x="3850" y="609" font-family="Verdana" font-size="8" text-anchor="middle"  dominant-baseline="middle" fill="black" > 582</text>
<text x="4050" y="7" font-family="Verdana" font-size="7" text-anchor="middle"  dominant-baseline="middle" fill="black" > C16</text>
<circle cx="4050" cy="15" r="4" fill="white" stroke="black" />
<line x1="4050" y1="19" x2="4050" y2="208" stroke="black" />
<line x1="4046" y1="212" x2="4050" y2="204" stroke="blue" />
<line x1="4050" y1="212" x2="4054" y2="204" stroke="blue" />
<text x="4050" y="220" font-family="Verdana" font-size="8" text-anchor="middle"  dominant-baseline="middle" fill="black" > 193</text>
</svg>
