<?xml version="1.0" encoding="utf-8"?>
<svg xmlns="http://www.w3.org/2000/svg" version="1.1" width="4450" height="750">
<rect width="4450" height="15" x="0" y="0" fill="white" />
<rect width="4450" height="15" x="0" y="735" fill="white" />
<rect width="25" height="750" x="0" y="0" fill="white" />
<rect width="25" height="750" x="4425" y="0" fill="white" />
<rect width="4410" height="144" x="25" y="15" fill="ghostwhite" />
<rect width="4410" height="144" x="25" y="159" fill="snow" />
<rect width="4410" height="144" x="25" y="303" fill="ghostwhite" />
<rect width="4410" height="144" x="25" y="447" fill="snow" />
<rect width="4410" height="144" x="25" y="591" fill="ghostwhite" />
<text x="12" y="87" font-family="Verdana" font-size="10" text-anchor="middle"  dominant-baseline="middle" fill="red" > D0</text>
<text x="12" y="231" font-family="Verdana" font-size="10" text-anchor="middle"  dominant-baseline="middle" fill="red" > D1</text>
<text x="12" y="375" font-family="Verdana" font-size="10" text-anchor="middle"  dominant-baseline="middle" fill="red" > D2</text>
<text x="12" y="519" font-family="Verdana" font-size="10" text-anchor="middle"  dominant-baseline="middle" fill="red" > D3</text>
<text x="12" y="663" font-family="Verdana" font-size="10" text-anchor="middle"  dominant-baseline="middle" fill="red" > D4</text>
<text x="12" y="20" font-family="Verdana" font-size="10" text-anchor="middle"  dominant-baseline="middle" fill="black" > 0</text>
<text x="12" y="164" font-family="Verdana" font-size="10" text-anchor="middle"  dominant-baseline="middle" fill="black" > 144</text>
<text x="12" y="308" font-family="Verdana" font-size="10" text-anchor="middle"  dominant-baseline="middle" fill="black" > 288</text>
<text x="12" y="452" font-family="Verdana" font-size="10" text-anchor="middle"  dominant-baseline="middle" fill="black" > 432</text>
<text x="12" y="596" font-family="Verdana" font-size="10" text-anchor="middle"  dominant-baseline="middle" fill="black" > 576</text>
<text x="12" y="740" font-family="Verdana" font-size="10" text-anchor="middle"  dominant-baseline="middle" fill="black" > 720</text>
<text x="150" y="7" font-family="Verdana" font-size="7" text-anchor="middle"  dominant-baseline="middle" fill="black" > C1</text>
<circle cx="150" cy="15" r="4" fill="white" stroke="black" />
<line x1="150" y1="19" x2="150" y2="296" stroke="black" />
<line x1="50" y1="296" x2="250" y2="296" stroke="black" />
<text x="175" y="288" font-family="Verdana" font-size="8" text-anchor="middle"  dominant-baseline="middle" fill="black" > 281</text>
<circle cx="50" cy="296" r="4" fill="white" stroke="black" />
<circle cx="150" cy="296" r="4" fill="white" stroke="black" />
<circle cx="250" cy="296" r="4" fill="white" stroke="black" />
<line x1="50" y1="300" x2="50" y2="322" stroke="black" />
<line x1="50" y1="322" x2="150" y2="330" stroke="black" />
<line x1="150" y1="300" x2="150" y2="322" stroke="black" />
<line x1="150" y1="322" x2="150" y2="330" stroke="black" />
<line x1="250" y1="300" x2="250" y2="322" stroke="black" />
<line x1="250" y1="322" x2="150" y2="330" stroke="black" />
<text x="150" y="318" font-family="Verdana" font-size="8" text-anchor="middle"  dominant-baseline="middle" fill="black" > 315</text>
<circle cx="150" cy="330" r="4" fill="white" stroke="black" />
<line x1="150" y1="334" x2="150" y2="340" stroke="black" />
<line x1="146" y1="336" x2="154" y2="344" stroke="red" />
<line x1="146" y1="344" x2="154" y2="336" stroke="red" />
<text x="150" y="352" font-family="Verdana" font-size="8" text-anchor="middle"  dominant-baseline="middle" fill="black" > 325</text>
<text x="450" y="7" font-family="Verdana" font-size="7" text-anchor="middle"  dominant-baseline="middle" fill="black" > C2</text>
<circle cx="450" cy="15" r="4" fill="white" stroke="black" />
<line x1="450" y1="19" x2="450" y2="112" stroke="black" />
<line x1="350" y1="112" x2="550" y2="112" stroke="black" />
<text x="475" y="104" font-family="Verdana" font-size="8" text-anchor="middle"  dominant-baseline="middle" fill="black" > 97</text>
<circle cx="350" cy="112" r="4" fill="white" stroke="black" />
<line x1="350" y1="116" x2="350" y2="124" stroke="black" />
<line x1="346" y1="128" x2="350" y2="120" stroke="blue" />
<line x1="350" y1="128" x2="354" y2="120" stroke="blue" />
<text x="350" y="136" font-family="Verdana" font-size="8" text-anchor="middle"  dominant-baseline="middle" fill="black" > 109</text>
<circle cx="450" cy="112" r="4" fill="white" stroke="black" />
<line x1="450" y1="116" x2="450" y2="201" stroke="black" />
<line x1="446" y1="205" x2="450" y2="197" stroke="blue" />
<line x1="450" y1="205" x2="454" y2="197" stroke="blue" />
<text x="450" y="213" font-family="Verdana" font-size="8" text-anchor="middle"  dominant-baseline="middle" fill="black" > 186</text>
<circle cx="550" cy="112" r="4" fill="white" stroke="black" />
<line x1="550" y1="116" x2="550" y2="374" stroke="black" />
<line x1="546" y1="370" x2="554" y2="378" stroke="red" />
<line x1="546" y1="378" x2="554" y2="370" stroke="red" />
<text x="550" y="386" font-family="Verdana" font-size="8" text-anchor="middle"  dominant-baseline="middle" fill="black" > 359</text>
<text x="750" y="7" font-family="Verdana" font-size="7" text-anchor="middle"  dominant-baseline="middle" fill="black" > C3</text>
<circle cx="750" cy="15" r="4" fill="white" stroke="black" />
<line x1="750" y1="19" x2="750" y2="424" stroke="black" />
<line x1="650" y1="424" x2="850" y2="424" stroke="black" />
<text x="775" y="416" font-family="Verdana" font-size="8" text-anchor="middle"  dominant-baseline="middle" fill="black" > 409</text>
<circle cx="650" cy="424" r="4" fill="white" stroke="black" />
<circle cx="750" cy="424" r="4" fill="white" stroke="black" />
<line x1="650" y1="428" x2="650" y2="436" stroke="black" />
<line x1="650" y1="436" x2="700" y2="440" stroke="black" />
<line x1="750" y1="428" x2="750" y2="436" stroke="black" />
<line x1="750" y1="436" x2="700" y2="440" stroke="black" />
<text x="700" y="428" font-family="Verdana" font-size="8" text-anchor="middle"  dominant-baseline="middle" fill="black" > 425</text>
<circle cx="700" cy="440" r="4" fill="white" stroke="black" />
<circle cx="850" cy="424" r="4" fill="white" stroke="black" />
<line x1="700" y1="444" x2="700" y2="467" stroke="black" />
<line x1="700" y1="467" x2="775" y2="476" stroke="black" />
<line x1="850" y1="428" x2="850" y2="467" stroke="black" />
<line x1="850" y1="467" x2="775" y2="476" stroke="black" />
<text x="775" y="464" font-family="Verdana" font-size="8" text-anchor="middle"  dominant-baseline="middle" fill="black" > 461</text>
<circle cx="775" cy="476" r="4" fill="white" stroke="black" />
<line x1="775" y1="480" x2="775" y2="493" stroke="black" />
<line x1="771" y1="489" x2="779" y2="497" stroke="red" />
<line x1="771" y1="497" x2="779" y2="489" stroke="red" />
<text x="775" y="505" font-family="Verdana" font-size="8" text-anchor="middle"  dominant-baseline="middle" fill="black" > 478</text>
<text x="950" y="7" font-family="Verdana" font-size="7" text-anchor="middle"  dominant-baseline="middle" fill="black" > C4</text>
<circle cx="950" cy="15" r="4" fill="white" stroke="black" />
<line x1="950" y1="19" x2="950" y2="448" stroke="black" />
<line x1="946" y1="444" x2="954" y2="452" stroke="red" />
<line x1="946" y1="452" x2="954" y2="444" stroke="red" />
<text x="950" y="460" font-family="Verdana" font-size="8" text-anchor="middle"  dominant-baseline="middle" fill="black" > 433</text>
<text x="1100" y="7" font-family="Verdana" font-size="7" text-anchor="middle"  dominant-baseline="middle" fill="black" > C5</text>
<circle cx="1100" cy="15" r="4" fill="white" stroke="black" />
<line x1="1100" y1="19" x2="1100" y2="176" stroke="black" />
<line x1="1050" y1="176" x2="1150" y2="176" stroke="black" />
<text x="1125" y="168" font-family="Verdana" font-size="8" text-anchor="middle"  dominant-baseline="middle" fill="black" > 161</text>
<circle cx="1050" cy="176" r="4" fill="white" stroke="black" />
<line x1="1050" y1="180" x2="1050" y2="354" stroke="black" />
<line x1="1046" y1="358" x2="1050" y2="350" stroke="blue" />
<line x1="1050" y1="358" x2="1054" y2="350" stroke="blue" />
<text x="1050" y="366" font-family="Verdana" font-size="8" text-anchor="middle"  dominant-baseline="middle" fill="black" > 339</text>
<circle cx="1150" cy="176" r="4" fill="white" stroke="black" />
<line x1="1150" y1="180" x2="1150" y2="365" stroke="black" />
<line x1="1146" y1="369" x2="1150" y2="361" stroke="blue" />
<line x1="1150" y1="369" x2="1154" y2="361" stroke="blue" />
<text x="1150" y="377" font-family="Verdana" font-size="8" text-anchor="middle"  dominant-baseline="middle" fill="black" > 350</text>
<text x="1300" y="7" font-family="Verdana" font-size="7" text-anchor="middle"  dominant-baseline="middle" fill="black" > C6</text>
<circle cx="1300" cy="15" r="4" fill="white" stroke="black" />
<line x1="1300" y1="19" x2="1300" y2="168" stroke="black" />
<line x1="1250" y1="168" x2="1350" y2="168" stroke="black" />
<text x="1325" y="160" font-family="Verdana" font-size="8" text-anchor="middle"  dominant-baseline="middle" fill="black" > 153</text>
<circle cx="1250" cy="168" r="4" fill="white" stroke="black" />
<line x1="1250" y1="172" x2="1250" y2="377" stroke="black" />
<line x1="1225" y1="377" x2="1275" y2="377" stroke="black" />
<text x="1262" y="369" font-family="Verdana" font-size="8" text-anchor="middle"  dominant-baseline="middle" fill="black" > 362</text>
<circle cx="1225" cy="377" r="4" fill="white" stroke="black" />
<circle cx="1275" cy="377" r="4" fill="white" stroke="black" />
<line x1="1225" y1="381" x2="1225" y2="439" stroke="black" />
<line x1="1225" y1="439" x2="1250" y2="459" stroke="black" />
<line x1="1275" y1="381" x2="1275" y2="439" stroke="black" />
<line x1="1275" y1="439" x2="1250" y2="459" stroke="black" />
<text x="1250" y="447" font-family="Verdana" font-size="8" text-anchor="middle"  dominant-baseline="middle" fill="black" > 444</text>
<circle cx="1250" cy="459" r="4" fill="white" stroke="black" />
<line x1="1250" y1="463" x2="1250" y2="571" stroke="black" />
<line x1="1246" y1="567" x2="1254" y2="575" stroke="red" />
<line x1="1246" y1="575" x2="1254" y2="567" stroke="red" />
<text x="1250" y="583" font-family="Verdana" font-size="8" text-anchor="middle"  dominant-baseline="middle" fill="black" > 556</text>
<circle cx="1350" cy="168" r="4" fill="white" stroke="black" />
<line x1="1350" y1="172" x2="1350" y2="337" stroke="black" />
<line x1="1325" y1="337" x2="1375" y2="337" stroke="black" />
<text x="1362" y="329" font-family="Verdana" font-size="8" text-anchor="middle"  dominant-baseline="middle" fill="black" > 322</text>
<circle cx="1325" cy="337" r="4" fill="white" stroke="black" />
<line x1="1325" y1="341" x2="1325" y2="652" stroke="black" />
<line x1="1321" y1="656" x2="1325" y2="648" stroke="blue" />
<line x1="1325" y1="656" x2="1329" y2="648" stroke="blue" />
<text x="1325" y="664" font-family="Verdana" font-size="8" text-anchor="middle"  dominant-baseline="middle" fill="black" > 637</text>
<circle cx="1375" cy="337" r="4" fill="white" stroke="black" />
<line x1="1375" y1="341" x2="1375" y2="652" stroke="black" />
<line x1="1371" y1="656" x2="1375" y2="648" stroke="blue" />
<line x1="1375" y1="656" x2="1379" y2="648" stroke="blue" />
<text x="1375" y="664" font-family="Verdana" font-size="8" text-anchor="middle"  dominant-baseline="middle" fill="black" > 637</text>
<text x="1550" y="7" font-family="Verdana" font-size="7" text-anchor="middle"  dominant-baseline="middle" fill="black" > C7</text>
<circle cx="1550" cy="15" r="4" fill="white" stroke="black" />
<line x1="1550" y1="19" x2="1550" y2="406" stroke="black" />
<line x1="1450" y1="406" x2="1650" y2="406" stroke="black" />
<text x="1575" y="398" font-family="Verdana" font-size="8" text-anchor="middle"  dominant-baseline="middle" fill="black" > 391</text>
<circle cx="1450" cy="406" r="4" fill="white" stroke="black" />
<circle cx="1550" cy="406" r="4" fill="white" stroke="black" />
<circle cx="1650" cy="406" r="4" fill="white" stroke="black" />
<line x1="1450" y1="410" x2="1450" y2="416" stroke="black" />
<line x1="1450" y1="416" x2="1550" y2="419" stroke="black" />
<line x1="1550" y1="410" x2="1550" y2="416" stroke="black" />
<line x1="1550" y1="416" x2="1550" y2="419" stroke="black" />
<line x1="1650" y1="410" x2="1650" y2="416" stroke="black" />
<line x1="1650" y1="416" x2="1550" y2="419" stroke="black" />
<text x="1550" y="407" font-family="Verdana" font-size="8" text-anchor="middle"  dominant-baseline="middle" fill="black" > 404</text>
<circle cx="1550" cy="419" r="4" fill="white" stroke="black" />
<line x1="1550" y1="423" x2="1550" y2="591" stroke="black" />
<line x1="1546" y1="595" x2="1550" y2="587" stroke="blue" />
<line x1="1550" y1="595" x2="1554" y2="587" stroke="blue" />
<text x="1550" y="603" font-family="Verdana" font-size="8" text-anchor="middle"  dominant-baseline="middle" fill="black" > 576</text>
<text x="1800" y="7" font-family="Verdana" font-size="7" text-anchor="middle"  dominant-baseline="middle" fill="black" > C8</text>
<circle cx="1800" cy="15" r="4" fill="white" stroke="black" />
<line x1="1800" y1="19" x2="1800" y2="222" stroke="black" />
<line x1="1750" y1="222" x2="1850" y2="222" stroke="black" />
<text x="1825" y="214" font-family="Verdana" font-size="8" text-anchor="middle"  dominant-baseline="middle" fill="black" > 207</text>
<circle cx="1750" cy="222" r="4" fill="white" stroke="black" />
<line x1="1750" y1="226" x2="1750" y2="342" stroke="black" />
<line x1="1725" y1="342" x2="1775" y2="342" stroke="black" />
<text x="1762" y="334" font-family="Verdana" font-size="8" text-anchor="middle"  dominant-baseline="middle" fill="black" > 327</text>
<circle cx="1725" cy="342" r="4" fill="white" stroke="black" />
<line x1="1725" y1="346" x2="1725" y2="486" stroke="black" />
<line x1="1712" y1="486" x2="1738" y2="486" stroke="black" />
<text x="1731" y="478" font-family="Verdana" font-size="8" text-anchor="middle"  dominant-baseline="middle" fill="black" > 471</text>
<circle cx="1712" cy="486" r="4" fill="white" stroke="black" />
<circle cx="1737" cy="486" r="4" fill="white" stroke="black" />
<line x1="1712" y1="490" x2="1712" y2="503" stroke="black" />
<line x1="1712" y1="503" x2="1724" y2="508" stroke="black" />
<line x1="1737" y1="490" x2="1737" y2="503" stroke="black" />
<line x1="1737" y1="503" x2="1724" y2="508" stroke="black" />
<text x="1724" y="496" font-family="Verdana" font-size="8" text-anchor="middle"  dominant-baseline="middle" fill="black" > 493</text>
<circle cx="1724" cy="508" r="4" fill="white" stroke="black" />
<line x1="1724" y1="512" x2="1724" y2="590" stroke="black" />
<line x1="1720" y1="594" x2="1724" y2="586" stroke="blue" />
<line x1="1724" y1="594" x2="1728" y2="586" stroke="blue" />
<text x="1724" y="602" font-family="Verdana" font-size="8" text-anchor="middle"  dominant-baseline="middle" fill="black" > 575</text>
<circle cx="1775" cy="342" r="4" fill="white" stroke="black" />
<line x1="1775" y1="346" x2="1775" y2="532" stroke="black" />
<line x1="1771" y1="536" x2="1775" y2="528" stroke="blue" />
<line x1="1775" y1="536" x2="1779" y2="528" stroke="blue" />
<text x="1775" y="544" font-family="Verdana" font-size="8" text-anchor="middle"  dominant-baseline="middle" fill="black" > 517</text>
<circle cx="1850" cy="222" r="4" fill="white" stroke="black" />
<line x1="1850" y1="226" x2="1850" y2="335" stroke="black" />
<line x1="1825" y1="335" x2="1875" y2="335" stroke="black" />
<text x="1862" y="327" font-family="Verdana" font-size="8" text-anchor="middle"  dominant-baseline="middle" fill="black" > 320</text>
<circle cx="1825" cy="335" r="4" fill="white" stroke="black" />
<circle cx="1875" cy="335" r="4" fill="white" stroke="black" />
<line x1="1825" y1="339" x2="1825" y2="390" stroke="black" />
<line x1="1825" y1="390" x2="1850" y2="408" stroke="black" />
<line x1="1875" y1="339" x2="1875" y2="390" stroke="black" />
<line x1="1875" y1="390" x2="1850" y2="408" stroke="black" />
<text x="1850" y="396" font-family="Verdana" font-size="8" text-anchor="middle"  dominant-baseline="middle" fill="black" > 393</text>
<circle cx="1850" cy="408" r="4" fill="white" stroke="black" />
<line x1="1850" y1="412" x2="1850" y2="470" stroke="black" />
<line x1="1833" y1="470" x2="1867" y2="470" stroke="black" />
<text x="1854" y="462" font-family="Verdana" font-size="8" text-anchor="middle"  dominant-baseline="middle" fill="black" > 455</text>
<circle cx="1833" cy="470" r="4" fill="white" stroke="black" />
<line x1="1833" y1="474" x2="1833" y2="587" stroke="black" />
<line x1="1829" y1="591" x2="1833" y2="583" stroke="blue" />
<line x1="1833" y1="591" x2="1837" y2="583" stroke="blue" />
<text x="1833" y="599" font-family="Verdana" font-size="8" text-anchor="middle"  dominant-baseline="middle" fill="black" > 572</text>
<circle cx="1849" cy="470" r="4" fill="white" stroke="black" />
<circle cx="1865" cy="470" r="4" fill="white" stroke="black" />
<line x1="1849" y1="474" x2="1849" y2="492" stroke="black" />
<line x1="1849" y1="492" x2="1857" y2="499" stroke="black" />
<line x1="1865" y1="474" x2="1865" y2="492" stroke="black" />
<line x1="1865" y1="492" x2="1857" y2="499" stroke="black" />
<text x="1857" y="487" font-family="Verdana" font-size="8" text-anchor="middle"  dominant-baseline="middle" fill="black" > 484</text>
<circle cx="1857" cy="499" r="4" fill="white" stroke="black" />
<line x1="1857" y1="503" x2="1857" y2="587" stroke="black" />
<line x1="1853" y1="591" x2="1857" y2="583" stroke="blue" />
<line x1="1857" y1="591" x2="1861" y2="583" stroke="blue" />
<text x="1857" y="599" font-family="Verdana" font-size="8" text-anchor="middle"  dominant-baseline="middle" fill="black" > 572</text>
<text x="1950" y="7" font-family="Verdana" font-size="7" text-anchor="middle"  dominant-baseline="middle" fill="black" > C9</text>
<circle cx="1950" cy="15" r="4" fill="white" stroke="black" />
<line x1="1950" y1="19" x2="1950" y2="108" stroke="black" />
<line x1="1946" y1="112" x2="1950" y2="104" stroke="blue" />
<line x1="1950" y1="112" x2="1954" y2="104" stroke="blue" />
<text x="1950" y="120" font-family="Verdana" font-size="8" text-anchor="middle"  dominant-baseline="middle" fill="black" > 93</text>
<text x="2100" y="7" font-family="Verdana" font-size="7" text-anchor="middle"  dominant-baseline="middle" fill="black" > C10</text>
<circle cx="2100" cy="15" r="4" fill="white" stroke="black" />
<line x1="2100" y1="19" x2="2100" y2="228" stroke="black" />
<line x1="2050" y1="228" x2="2150" y2="228" stroke="black" />
<text x="2125" y="220" font-family="Verdana" font-size="8" text-anchor="middle"  dominant-baseline="middle" fill="black" > 213</text>
<circle cx="2050" cy="228" r="4" fill="white" stroke="black" />
<line x1="2050" y1="232" x2="2050" y2="385" stroke="black" />
<line x1="2025" y1="385" x2="2075" y2="385" stroke="black" />
<text x="2062" y="377" font-family="Verdana" font-size="8" text-anchor="middle"  dominant-baseline="middle" fill="black" > 370</text>
<circle cx="2025" cy="385" r="4" fill="white" stroke="black" />
<line x1="2025" y1="389" x2="2025" y2="623" stroke="black" />
<line x1="2012" y1="623" x2="2038" y2="623" stroke="black" />
<text x="2031" y="615" font-family="Verdana" font-size="8" text-anchor="middle"  dominant-baseline="middle" fill="black" > 608</text>
<circle cx="2012" cy="623" r="4" fill="white" stroke="black" />
<line x1="2012" y1="627" x2="2012" y2="645" stroke="black" />
<line x1="2008" y1="649" x2="2012" y2="641" stroke="blue" />
<line x1="2012" y1="649" x2="2016" y2="641" stroke="blue" />
<text x="2012" y="657" font-family="Verdana" font-size="8" text-anchor="middle"  dominant-baseline="middle" fill="black" > 630</text>
<circle cx="2037" cy="623" r="4" fill="white" stroke="black" />
<line x1="2037" y1="627" x2="2037" y2="645" stroke="black" />
<line x1="2033" y1="649" x2="2037" y2="641" stroke="blue" />
<line x1="2037" y1="649" x2="2041" y2="641" stroke="blue" />
<text x="2037" y="657" font-family="Verdana" font-size="8" text-anchor="middle"  dominant-baseline="middle" fill="black" > 630</text>
<circle cx="2075" cy="385" r="4" fill="white" stroke="black" />
<line x1="2075" y1="389" x2="2075" y2="622" stroke="black" />
<line x1="2071" y1="626" x2="2075" y2="618" stroke="blue" />
<line x1="2075" y1="626" x2="2079" y2="618" stroke="blue" />
<text x="2075" y="634" font-family="Verdana" font-size="8" text-anchor="middle"  dominant-baseline="middle" fill="black" > 607</text>
<circle cx="2150" cy="228" r="4" fill="white" stroke="black" />
<line x1="2150" y1="232" x2="2150" y2="375" stroke="black" />
<line x1="2125" y1="375" x2="2175" y2="375" stroke="black" />
<text x="2162" y="367" font-family="Verdana" font-size="8" text-anchor="middle"  dominant-baseline="middle" fill="black" > 360</text>
<circle cx="2125" cy="375" r="4" fill="white" stroke="black" />
<line x1="2125" y1="379" x2="2125" y2="631" stroke="black" />
<line x1="2121" y1="635" x2="2125" y2="627" stroke="blue" />
<line x1="2125" y1="635" x2="2129" y2="627" stroke="blue" />
<text x="2125" y="643" font-family="Verdana" font-size="8" text-anchor="middle"  dominant-baseline="middle" fill="black" > 616</text>
<circle cx="2175" cy="375" r="4" fill="white" stroke="black" />
<line x1="2175" y1="379" x2="2175" y2="631" stroke="black" />
<line x1="2171" y1="635" x2="2175" y2="627" stroke="blue" />
<line x1="2175" y1="635" x2="2179" y2="627" stroke="blue" />
<text x="2175" y="643" font-family="Verdana" font-size="8" text-anchor="middle"  dominant-baseline="middle" fill="black" > 616</text>
<text x="2300" y="7" font-family="Verdana" font-size="7" text-anchor="middle"  dominant-baseline="middle" fill="black" > C11</text>
<circle cx="2300" cy="15" r="4" fill="white" stroke="black" />
<line x1="2300" y1="19" x2="2300" y2="236" stroke="black" />
<line x1="2250" y1="236" x2="2350" y2="236" stroke="black" />
<text x="2325" y="228" font-family="Verdana" font-size="8" text-anchor="middle"  dominant-baseline="middle" fill="black" > 221</text>
<circle cx="2250" cy="236" r="4" fill="white" stroke="black" />
<line x1="2250" y1="240" x2="2250" y2="445" stroke="black" />
<line x1="2225" y1="445" x2="2275" y2="445" stroke="black" />
<text x="2262" y="437" font-family="Verdana" font-size="8" text-anchor="middle"  dominant-baseline="middle" fill="black" > 430</text>
<circle cx="2225" cy="445" r="4" fill="white" stroke="black" />
<line x1="2225" y1="449" x2="2225" y2="665" stroke="black" />
<line x1="2221" y1="669" x2="2225" y2="661" stroke="blue" />
<line x1="2225" y1="669" x2="2229" y2="661" stroke="blue" />
<text x="2225" y="677" font-family="Verdana" font-size="8" text-anchor="middle"  dominant-baseline="middle" fill="black" > 650</text>
<circle cx="2275" cy="445" r="4" fill="white" stroke="black" />
<line x1="2275" y1="449" x2="2275" y2="656" stroke="black" />
<line x1="2262" y1="656" x2="2288" y2="656" stroke="black" />
<text x="2281" y="648" font-family="Verdana" font-size="8" text-anchor="middle"  dominant-baseline="middle" fill="black" > 641</text>
<circle cx="2262" cy="656" r="4" fill="white" stroke="black" />
<line x1="2262" y1="660" x2="2262" y2="667" stroke="black" />
<line x1="2258" y1="671" x2="2262" y2="663" stroke="blue" />
<line x1="2262" y1="671" x2="2266" y2="663" stroke="blue" />
<text x="2262" y="679" font-family="Verdana" font-size="8" text-anchor="middle"  dominant-baseline="middle" fill="black" > 652</text>
<circle cx="2287" cy="656" r="4" fill="white" stroke="black" />
<line x1="2287" y1="660" x2="2287" y2="667" stroke="black" />
<line x1="2283" y1="671" x2="2287" y2="663" stroke="blue" />
<line x1="2287" y1="671" x2="2291" y2="663" stroke="blue" />
<text x="2287" y="679" font-family="Verdana" font-size="8" text-anchor="middle"  dominant-baseline="middle" fill="black" > 652</text>
<circle cx="2350" cy="236" r="4" fill="white" stroke="black" />
<line x1="2350" y1="240" x2="2350" y2="384" stroke="black" />
<line x1="2325" y1="384" x2="2375" y2="384" stroke="black" />
<text x="2362" y="376" font-family="Verdana" font-size="8" text-anchor="middle"  dominant-baseline="middle" fill="black" > 369</text>
<circle cx="2325" cy="384" r="4" fill="white" stroke="black" />
<line x1="2325" y1="388" x2="2325" y2="650" stroke="black" />
<line x1="2321" y1="654" x2="2325" y2="646" stroke="blue" />
<line x1="2325" y1="654" x2="2329" y2="646" stroke="blue" />
<text x="2325" y="662" font-family="Verdana" font-size="8" text-anchor="middle"  dominant-baseline="middle" fill="black" > 635</text>
<circle cx="2375" cy="384" r="4" fill="white" stroke="black" />
<line x1="2375" y1="388" x2="2375" y2="547" stroke="black" />
<line x1="2358" y1="547" x2="2392" y2="547" stroke="black" />
<text x="2379" y="539" font-family="Verdana" font-size="8" text-anchor="middle"  dominant-baseline="middle" fill="black" > 532</text>
<circle cx="2358" cy="547" r="4" fill="white" stroke="black" />
<circle cx="2374" cy="547" r="4" fill="white" stroke="black" />
<circle cx="2390" cy="547" r="4" fill="white" stroke="black" />
<line x1="2358" y1="551" x2="2358" y2="581" stroke="black" />
<line x1="2358" y1="581" x2="2374" y2="592" stroke="black" />
<line x1="2374" y1="551" x2="2374" y2="581" stroke="black" />
<line x1="2374" y1="581" x2="2374" y2="592" stroke="black" />
<line x1="2390" y1="551" x2="2390" y2="581" stroke="black" />
<line x1="2390" y1="581" x2="2374" y2="592" stroke="black" />
<text x="2374" y="580" font-family="Verdana" font-size="8" text-anchor="middle"  dominant-baseline="middle" fill="black" > 577</text>
<circle cx="2374" cy="592" r="4" fill="white" stroke="black" />
<line x1="2374" y1="596" x2="2374" y2="650" stroke="black" />
<line x1="2370" y1="654" x2="2374" y2="646" stroke="blue" />
<line x1="2374" y1="654" x2="2378" y2="646" stroke="blue" />
<text x="2374" y="662" font-family="Verdana" font-size="8" text-anchor="middle"  dominant-baseline="middle" fill="black" > 635</text>
<text x="2500" y="7" font-family="Verdana" font-size="7" text-anchor="middle"  dominant-baseline="middle" fill="black" > C12</text>
<circle cx="2500" cy="15" r="4" fill="white" stroke="black" />
<line x1="2500" y1="19" x2="2500" y2="120" stroke="black" />
<line x1="2450" y1="120" x2="2550" y2="120" stroke="black" />
<text x="2525" y="112" font-family="Verdana" font-size="8" text-anchor="middle"  dominant-baseline="middle" fill="black" > 105</text>
<circle cx="2450" cy="120" r="4" fill="white" stroke="black" />
<line x1="2450" y1="124" x2="2450" y2="256" stroke="black" />
<line x1="2425" y1="256" x2="2475" y2="256" stroke="black" />
<text x="2462" y="248" font-family="Verdana" font-size="8" text-anchor="middle"  dominant-baseline="middle" fill="black" > 241</text>
<circle cx="2425" cy="256" r="4" fill="white" stroke="black" />
<circle cx="2475" cy="256" r="4" fill="white" stroke="black" />
<line x1="2425" y1="260" x2="2425" y2="388" stroke="black" />
<line x1="2425" y1="388" x2="2450" y2="432" stroke="black" />
<line x1="2475" y1="260" x2="2475" y2="388" stroke="black" />
<line x1="2475" y1="388" x2="2450" y2="432" stroke="black" />
<text x="2450" y="420" font-family="Verdana" font-size="8" text-anchor="middle"  dominant-baseline="middle" fill="black" > 417</text>
<circle cx="2450" cy="432" r="4" fill="white" stroke="black" />
<line x1="2450" y1="436" x2="2450" y2="584" stroke="black" />
<line x1="2446" y1="588" x2="2450" y2="580" stroke="blue" />
<line x1="2450" y1="588" x2="2454" y2="580" stroke="blue" />
<text x="2450" y="596" font-family="Verdana" font-size="8" text-anchor="middle"  dominant-baseline="middle" fill="black" > 569</text>
<circle cx="2550" cy="120" r="4" fill="white" stroke="black" />
<line x1="2550" y1="124" x2="2550" y2="225" stroke="black" />
<line x1="2525" y1="225" x2="2575" y2="225" stroke="black" />
<text x="2562" y="217" font-family="Verdana" font-size="8" text-anchor="middle"  dominant-baseline="middle" fill="black" > 210</text>
<circle cx="2525" cy="225" r="4" fill="white" stroke="black" />
<line x1="2525" y1="229" x2="2525" y2="396" stroke="black" />
<line x1="2521" y1="400" x2="2525" y2="392" stroke="blue" />
<line x1="2525" y1="400" x2="2529" y2="392" stroke="blue" />
<text x="2525" y="408" font-family="Verdana" font-size="8" text-anchor="middle"  dominant-baseline="middle" fill="black" > 381</text>
<circle cx="2575" cy="225" r="4" fill="white" stroke="black" />
<line x1="2575" y1="229" x2="2575" y2="304" stroke="black" />
<line x1="2571" y1="308" x2="2575" y2="300" stroke="blue" />
<line x1="2575" y1="308" x2="2579" y2="300" stroke="blue" />
<text x="2575" y="316" font-family="Verdana" font-size="8" text-anchor="middle"  dominant-baseline="middle" fill="black" > 289</text>
<text x="2650" y="7" font-family="Verdana" font-size="7" text-anchor="middle"  dominant-baseline="middle" fill="black" > C13</text>
<circle cx="2650" cy="15" r="4" fill="white" stroke="black" />
<line x1="2650" y1="19" x2="2650" y2="378" stroke="black" />
<line x1="2646" y1="382" x2="2650" y2="374" stroke="blue" />
<line x1="2650" y1="382" x2="2654" y2="374" stroke="blue" />
<text x="2650" y="390" font-family="Verdana" font-size="8" text-anchor="middle"  dominant-baseline="middle" fill="black" > 363</text>
<text x="2800" y="7" font-family="Verdana" font-size="7" text-anchor="middle"  dominant-baseline="middle" fill="black" > C14</text>
<circle cx="2800" cy="15" r="4" fill="white" stroke="black" />
<line x1="2800" y1="19" x2="2800" y2="206" stroke="black" />
<line x1="2750" y1="206" x2="2850" y2="206" stroke="black" />
<text x="2825" y="198" font-family="Verdana" font-size="8" text-anchor="middle"  dominant-baseline="middle" fill="black" > 191</text>
<circle cx="2750" cy="206" r="4" fill="white" stroke="black" />
<line x1="2750" y1="210" x2="2750" y2="430" stroke="black" />
<line x1="2746" y1="426" x2="2754" y2="434" stroke="red" />
<line x1="2746" y1="434" x2="2754" y2="426" stroke="red" />
<text x="2750" y="442" font-family="Verdana" font-size="8" text-anchor="middle"  dominant-baseline="middle" fill="black" > 415</text>
<circle cx="2850" cy="206" r="4" fill="white" stroke="black" />
<line x1="2850" y1="210" x2="2850" y2="647" stroke="black" />
<line x1="2846" y1="651" x2="2850" y2="643" stroke="blue" />
<line x1="2850" y1="651" x2="2854" y2="643" stroke="blue" />
<text x="2850" y="659" font-family="Verdana" font-size="8" text-anchor="middle"  dominant-baseline="middle" fill="black" > 632</text>
<text x="2950" y="7" font-family="Verdana" font-size="7" text-anchor="middle"  dominant-baseline="middle" fill="black" > C15</text>
<circle cx="2950" cy="15" r="4" fill="white" stroke="black" />
<line x1="2950" y1="19" x2="2950" y2="120" stroke="black" />
<line x1="2946" y1="124" x2="2950" y2="116" stroke="blue" />
<line x1="2950" y1="124" x2="2954" y2="116" stroke="blue" />
<text x="2950" y="132" font-family="Verdana" font-size="8" text-anchor="middle"  dominant-baseline="middle" fill="black" > 105</text>
<text x="3100" y="7" font-family="Verdana" font-size="7" text-anchor="middle"  dominant-baseline="middle" fill="black" > C16</text>
<circle cx="3100" cy="15" r="4" fill="white" stroke="black" />
<line x1="3100" y1="19" x2="3100" y2="175" stroke="black" />
<line x1="3050" y1="175" x2="3150" y2="175" stroke="black" />
<text x="3125" y="167" font-family="Verdana" font-size="8" text-anchor="middle"  dominant-baseline="middle" fill="black" > 160</text>
<circle cx="3050" cy="175" r="4" fill="white" stroke="black" />
<line x1="3050" y1="179" x2="3050" y2="402" stroke="black" />
<line x1="3025" y1="402" x2="3075" y2="402" stroke="black" />
<text x="3062" y="394" font-family="Verdana" font-size="8" text-anchor="middle"  dominant-baseline="middle" fill="black" > 387</text>
<circle cx="3025" cy="402" r="4" fill="white" stroke="black" />
<line x1="3025" y1="406" x2="3025" y2="563" stroke="black" />
<line x1="3021" y1="567" x2="3025" y2="559" stroke="blue" />
<line x1="3025" y1="567" x2="3029" y2="559" stroke="blue" />
<text x="3025" y="575" font-family="Verdana" font-size="8" text-anchor="middle"  dominant-baseline="middle" fill="black" > 548</text>
<circle cx="3075" cy="402" r="4" fill="white" stroke="black" />
<line x1="3075" y1="406" x2="3075" y2="563" stroke="black" />
<line x1="3071" y1="567" x2="3075" y2="559" stroke="blue" />
<line x1="3075" y1="567" x2="3079" y2="559" stroke="blue" />
<text x="3075" y="575" font-family="Verdana" font-size="8" text-anchor="middle"  dominant-baseline="middle" fill="black" > 548</text>
<circle cx="3150" cy="175" r="4" fill="white" stroke="black" />
<line x1="3150" y1="179" x2="3150" y2="526" stroke="black" />
<line x1="3146" y1="522" x2="3154" y2="530" stroke="red" />
<line x1="3146" y1="530" x2="3154" y2="522" stroke="red" />
<text x="3150" y="538" font-family="Verdana" font-size="8" text-anchor="middle"  dominant-baseline="middle" fill="black" > 511</text>
<text x="3250" y="7" font-family="Verdana" font-size="7" text-anchor="middle"  dominant-baseline="middle" fill="black" > C17</text>
<circle cx="3250" cy="15" r="4" fill="white" stroke="black" />
<line x1="3250" y1="19" x2="3250" y2="521" stroke="black" />
<line x1="3246" y1="517" x2="3254" y2="525" stroke="red" />
<line x1="3246" y1="525" x2="3254" y2="517" stroke="red" />
<text x="3250" y="533" font-family="Verdana" font-size="8" text-anchor="middle"  dominant-baseline="middle" fill="black" > 506</text>
<text x="3350" y="7" font-family="Verdana" font-size="7" text-anchor="middle"  dominant-baseline="middle" fill="black" > C18</text>
<circle cx="3350" cy="15" r="4" fill="white" stroke="black" />
<line x1="3350" y1="19" x2="3350" y2="120" stroke="black" />
<line x1="3346" y1="124" x2="3350" y2="116" stroke="blue" />
<line x1="3350" y1="124" x2="3354" y2="116" stroke="blue" />
<text x="3350" y="132" font-family="Verdana" font-size="8" text-anchor="middle"  dominant-baseline="middle" fill="black" > 105</text>
<text x="3500" y="7" font-family="Verdana" font-size="7" text-anchor="middle"  dominant-baseline="middle" fill="black" > C19</text>
<circle cx="3500" cy="15" r="4" fill="white" stroke="black" />
<line x1="3500" y1="19" x2="3500" y2="167" stroke="black" />
<line x1="3450" y1="167" x2="3550" y2="167" stroke="black" />
<text x="3525" y="159" font-family="Verdana" font-size="8" text-anchor="middle"  dominant-baseline="middle" fill="black" > 152</text>
<circle cx="3450" cy="167" r="4" fill="white" stroke="black" />
<line x1="3450" y1="171" x2="3450" y2="550" stroke="black" />
<line x1="3446" y1="546" x2="3454" y2="554" stroke="red" />
<line x1="3446" y1="554" x2="3454" y2="546" stroke="red" />
<text x="3450" y="562" font-family="Verdana" font-size="8" text-anchor="middle"  dominant-baseline="middle" fill="black" > 535</text>
<circle cx="3550" cy="167" r="4" fill="white" stroke="black" />
<line x1="3550" y1="171" x2="3550" y2="288" stroke="black" />
<line x1="3525" y1="288" x2="3575" y2="288" stroke="black" />
<text x="3562" y="280" font-family="Verdana" font-size="8" text-anchor="middle"  dominant-baseline="middle" fill="black" > 273</text>
<circle cx="3525" cy="288" r="4" fill="white" stroke="black" />
<line x1="3525" y1="292" x2="3525" y2="498" stroke="black" />
<line x1="3521" y1="494" x2="3529" y2="502" stroke="red" />
<line x1="3521" y1="502" x2="3529" y2="494" stroke="red" />
<text x="3525" y="510" font-family="Verdana" font-size="8" text-anchor="middle"  dominant-baseline="middle" fill="black" > 483</text>
<circle cx="3575" cy="288" r="4" fill="white" stroke="black" />
<line x1="3575" y1="292" x2="3575" y2="403" stroke="black" />
<line x1="3562" y1="403" x2="3588" y2="403" stroke="black" />
<text x="3581" y="395" font-family="Verdana" font-size="8" text-anchor="middle"  dominant-baseline="middle" fill="black" > 388</text>
<circle cx="3562" cy="403" r="4" fill="white" stroke="black" />
<line x1="3562" y1="407" x2="3562" y2="566" stroke="black" />
<line x1="3558" y1="570" x2="3562" y2="562" stroke="blue" />
<line x1="3562" y1="570" x2="3566" y2="562" stroke="blue" />
<text x="3562" y="578" font-family="Verdana" font-size="8" text-anchor="middle"  dominant-baseline="middle" fill="black" > 551</text>
<circle cx="3587" cy="403" r="4" fill="white" stroke="black" />
<line x1="3587" y1="407" x2="3587" y2="566" stroke="black" />
<line x1="3583" y1="570" x2="3587" y2="562" stroke="blue" />
<line x1="3587" y1="570" x2="3591" y2="562" stroke="blue" />
<text x="3587" y="578" font-family="Verdana" font-size="8" text-anchor="middle"  dominant-baseline="middle" fill="black" > 551</text>
<text x="3700" y="7" font-family="Verdana" font-size="7" text-anchor="middle"  dominant-baseline="middle" fill="black" > C20</text>
<circle cx="3700" cy="15" r="4" fill="white" stroke="black" />
<line x1="3700" y1="19" x2="3700" y2="251" stroke="black" />
<line x1="3650" y1="251" x2="3750" y2="251" stroke="black" />
<text x="3725" y="243" font-family="Verdana" font-size="8" text-anchor="middle"  dominant-baseline="middle" fill="black" > 236</text>
<circle cx="3650" cy="251" r="4" fill="white" stroke="black" />
<circle cx="3750" cy="251" r="4" fill="white" stroke="black" />
<line x1="3650" y1="255" x2="3650" y2="326" stroke="black" />
<line x1="3650" y1="326" x2="3700" y2="351" stroke="black" />
<line x1="3750" y1="255" x2="3750" y2="326" stroke="black" />
<line x1="3750" y1="326" x2="3700" y2="351" stroke="black" />
<text x="3700" y="339" font-family="Verdana" font-size="8" text-anchor="middle"  dominant-baseline="middle" fill="black" > 336</text>
<circle cx="3700" cy="351" r="4" fill="white" stroke="black" />
<line x1="3700" y1="355" x2="3700" y2="465" stroke="black" />
<line x1="3675" y1="465" x2="3725" y2="465" stroke="black" />
<text x="3712" y="457" font-family="Verdana" font-size="8" text-anchor="middle"  dominant-baseline="middle" fill="black" > 450</text>
<circle cx="3675" cy="465" r="4" fill="white" stroke="black" />
<circle cx="3725" cy="465" r="4" fill="white" stroke="black" />
<line x1="3675" y1="469" x2="3675" y2="483" stroke="black" />
<line x1="3675" y1="483" x2="3700" y2="488" stroke="black" />
<line x1="3725" y1="469" x2="3725" y2="483" stroke="black" />
<line x1="3725" y1="483" x2="3700" y2="488" stroke="black" />
<text x="3700" y="476" font-family="Verdana" font-size="8" text-anchor="middle"  dominant-baseline="middle" fill="black" > 473</text>
<circle cx="3700" cy="488" r="4" fill="white" stroke="black" />
<line x1="3700" y1="492" x2="3700" y2="638" stroke="black" />
<line x1="3696" y1="634" x2="3704" y2="642" stroke="red" />
<line x1="3696" y1="642" x2="3704" y2="634" stroke="red" />
<text x="3700" y="650" font-family="Verdana" font-size="8" text-anchor="middle"  dominant-baseline="middle" fill="black" > 623</text>
<text x="3850" y="7" font-family="Verdana" font-size="7" text-anchor="middle"  dominant-baseline="middle" fill="black" > C21</text>
<circle cx="3850" cy="15" r="4" fill="white" stroke="black" />
<line x1="3850" y1="19" x2="3850" y2="95" stroke="black" />
<line x1="3846" y1="99" x2="3850" y2="91" stroke="blue" />
<line x1="3850" y1="99" x2="3854" y2="91" stroke="blue" />
<text x="3850" y="107" font-family="Verdana" font-size="8" text-anchor="middle"  dominant-baseline="middle" fill="black" > 80</text>
<text x="4050" y="7" font-family="Verdana" font-size="7" text-anchor="middle"  dominant-baseline="middle" fill="black" > C22'</text>
<circle cx="4050" cy="15" r="4" fill="white" stroke="black" />
<line x1="4050" y1="19" x2="4050" y2="20" stroke="black" />
<line x1="3950" y1="20" x2="4150" y2="20" stroke="black" />
<text x="4075" y="12" font-family="Verdana" font-size="8" text-anchor="middle"  dominant-baseline="middle" fill="black" > 5</text>
<circle cx="3950" cy="20" r="4" fill="white" stroke="black" />
<line x1="3950" y1="24" x2="3950" y2="197" stroke="black" />
<line x1="3925" y1="197" x2="3975" y2="197" stroke="black" />
<text x="3962" y="189" font-family="Verdana" font-size="8" text-anchor="middle"  dominant-baseline="middle" fill="black" > 182</text>
<circle cx="3925" cy="197" r="4" fill="white" stroke="black" />
<line x1="3925" y1="201" x2="3925" y2="464" stroke="black" />
<line x1="3921" y1="460" x2="3929" y2="468" stroke="red" />
<line x1="3921" y1="468" x2="3929" y2="460" stroke="red" />
<text x="3925" y="476" font-family="Verdana" font-size="8" text-anchor="middle"  dominant-baseline="middle" fill="black" > 449</text>
<circle cx="3975" cy="197" r="4" fill="white" stroke="black" />
<line x1="3975" y1="201" x2="3975" y2="467" stroke="black" />
<line x1="3971" y1="463" x2="3979" y2="471" stroke="red" />
<line x1="3971" y1="471" x2="3979" y2="463" stroke="red" />
<text x="3975" y="479" font-family="Verdana" font-size="8" text-anchor="middle"  dominant-baseline="middle" fill="black" > 452</text>
<circle cx="4050" cy="20" r="4" fill="white" stroke="black" />
<line x1="4050" y1="24" x2="4050" y2="246" stroke="black" />
<line x1="4025" y1="246" x2="4075" y2="246" stroke="black" />
<text x="4062" y="238" font-family="Verdana" font-size="8" text-anchor="middle"  dominant-baseline="middle" fill="black" > 231</text>
<circle cx="4025" cy="246" r="4" fill="white" stroke="black" />
<line x1="4025" y1="250" x2="4025" y2="560" stroke="black" />
<line x1="4021" y1="556" x2="4029" y2="564" stroke="red" />
<line x1="4021" y1="564" x2="4029" y2="556" stroke="red" />
<text x="4025" y="572" font-family="Verdana" font-size="8" text-anchor="middle"  dominant-baseline="middle" fill="black" > 545</text>
<circle cx="4075" cy="246" r="4" fill="white" stroke="black" />
<line x1="4075" y1="250" x2="4075" y2="516" stroke="black" />
<line x1="4071" y1="512" x2="4079" y2="520" stroke="red" />
<line x1="4071" y1="520" x2="4079" y2="512" stroke="red" />
<text x="4075" y="528" font-family="Verdana" font-size="8" text-anchor="middle"  dominant-baseline="middle" fill="black" > 501</text>
<circle cx="4150" cy="20" r="4" fill="white" stroke="black" />
<line x1="4150" y1="24" x2="4150" y2="175" stroke="black" />
<line x1="4125" y1="175" x2="4175" y2="175" stroke="black" />
<text x="4162" y="167" font-family="Verdana" font-size="8" text-anchor="middle"  dominant-baseline="middle" fill="black" > 160</text>
<circle cx="4125" cy="175" r="4" fill="white" stroke="black" />
<circle cx="4175" cy="175" r="4" fill="white" stroke="black" />
<line x1="4125" y1="179" x2="4125" y2="284" stroke="black" />
<line x1="4125" y1="284" x2="4150" y2="320" stroke="black" />
<line x1="4175" y1="179" x2="4175" y2="284" stroke="black" />
<line x1="4175" y1="284" x2="4150" y2="320" stroke="black" />
<text x="4150" y="308" font-family="Verdana" font-size="8" text-anchor="middle"  dominant-baseline="middle" fill="black" > 305</text>
<circle cx="4150" cy="320" r="4" fill="white" stroke="black" />
<line x1="4150" y1="324" x2="4150" y2="512" stroke="black" />
<line x1="4146" y1="508" x2="4154" y2="516" stroke="red" />
<line x1="4146" y1="516" x2="4154" y2="508" stroke="red" />
<text x="4150" y="524" font-family="Verdana" font-size="8" text-anchor="middle"  dominant-baseline="middle" fill="black" > 497</text>
<text x="4250" y="7" font-family="Verdana" font-size="7" text-anchor="middle"  dominant-baseline="middle" fill="black" > C22</text>
<circle cx="4250" cy="15" r="4" fill="white" stroke="black" />
<line x1="4250" y1="19" x2="4250" y2="579" stroke="black" />
<line x1="4246" y1="583" x2="4250" y2="575" stroke="blue" />
<line x1="4250" y1="583" x2="4254" y2="575" stroke="blue" />
<text x="4250" y="591" font-family="Verdana" font-size="8" text-anchor="middle"  dominant-baseline="middle" fill="black" > 564</text>
<text x="4350" y="7" font-family="Verdana" font-size="7" text-anchor="middle"  dominant-baseline="middle" fill="black" > C24</text>
<circle cx="4350" cy="15" r="4" fill="white" stroke="black" />
<line x1="4350" y1="19" x2="4350" y2="187" stroke="black" />
<line x1="4346" y1="191" x2="4350" y2="183" stroke="blue" />
<line x1="4350" y1="191" x2="4354" y2="183" stroke="blue" />
<text x="4350" y="199" font-family="Verdana" font-size="8" text-anchor="middle"  dominant-baseline="middle" fill="black" > 172</text>
</svg>
