<?xml version="1.0" encoding="utf-8"?>
<svg xmlns="http://www.w3.org/2000/svg" version="1.1" width="5050" height="750">
<rect width="5050" height="15" x="0" y="0" fill="white" />
<rect width="5050" height="15" x="0" y="735" fill="white" />
<rect width="25" height="750" x="0" y="0" fill="white" />
<rect width="25" height="750" x="5025" y="0" fill="white" />
<rect width="5010" height="144" x="25" y="15" fill="ghostwhite" />
<rect width="5010" height="144" x="25" y="159" fill="snow" />
<rect width="5010" height="144" x="25" y="303" fill="ghostwhite" />
<rect width="5010" height="144" x="25" y="447" fill="snow" />
<rect width="5010" height="144" x="25" y="591" fill="ghostwhite" />
<text x="12" y="87" font-family="Verdana" font-size="10" text-anchor="middle"  dominant-baseline="middle" fill="red" > D0</text>
<text x="12" y="231" font-family="Verdana" font-size="10" text-anchor="middle"  dominant-baseline="middle" fill="red" > D1</text>
<text x="12" y="375" font-family="Verdana" font-size="10" text-anchor="middle"  dominant-baseline="middle" fill="red" > D2</text>
<text x="12" y="519" font-family="Verdana" font-size="10" text-anchor="middle"  dominant-baseline="middle" fill="red" > D3</text>
<text x="12" y="663" font-family="Verdana" font-size="10" text-anchor="middle"  dominant-baseline="middle" fill="red" > D4</text>
<text x="12" y="20" font-family="Verdana" font-size="10" text-anchor="middle"  dominant-baseline="middle" fill="black" > 0</text>
<text x="12" y="164" font-family="Verdana" font-size="10" text-anchor="middle"  dominant-baseline="middle" fill="black" > 144</text>
<text x="12" y="308" font-family="Verdana" font-size="10" text-anchor="middle"  dominant-baseline="middle" fill="black" > 288</text>
<text x="12" y="452" font-family="Verdana" font-size="10" text-anchor="middle"  dominant-baseline="middle" fill="black" > 432</text>
<text x="12" y="596" font-family="Verdana" font-size="10" text-anchor="middle"  dominant-baseline="middle" fill="black" > 576</text>
<text x="12" y="740" font-family="Verdana" font-size="10" text-anchor="middle"  dominant-baseline="middle" fill="black" > 720</text>
<text x="50" y="7" font-family="Verdana" font-size="7" text-anchor="middle"  dominant-baseline="middle" fill="black" > C1</text>
<circle cx="50" cy="15" r="4" fill="white" stroke="black" />
<line x1="50" y1="19" x2="50" y2="64" stroke="black" />
<line x1="46" y1="68" x2="50" y2="60" stroke="blue" />
<line x1="50" y1="68" x2="54" y2="60" stroke="blue" />
<text x="50" y="76" font-family="Verdana" font-size="8" text-anchor="middle"  dominant-baseline="middle" fill="black" > 49</text>
<text x="150" y="7" font-family="Verdana" font-size="7" text-anchor="middle"  dominant-baseline="middle" fill="black" > C2</text>
<circle cx="150" cy="15" r="4" fill="white" stroke="black" />
<line x1="150" y1="19" x2="150" y2="271" stroke="black" />
<line x1="146" y1="267" x2="154" y2="275" stroke="red" />
<line x1="146" y1="275" x2="154" y2="267" stroke="red" />
<text x="150" y="283" font-family="Verdana" font-size="8" text-anchor="middle"  dominant-baseline="middle" fill="black" > 256</text>
<text x="350" y="7" font-family="Verdana" font-size="7" text-anchor="middle"  dominant-baseline="middle" fill="black" > C3</text>
<circle cx="350" cy="15" r="4" fill="white" stroke="black" />
<line x1="350" y1="19" x2="350" y2="186" stroke="black" />
<line x1="250" y1="186" x2="450" y2="186" stroke="black" />
<text x="375" y="178" font-family="Verdana" font-size="8" text-anchor="middle"  dominant-baseline="middle" fill="black" > 171</text>
<circle cx="250" cy="186" r="4" fill="white" stroke="black" />
<line x1="250" y1="190" x2="250" y2="345" stroke="black" />
<line x1="246" y1="341" x2="254" y2="349" stroke="red" />
<line x1="246" y1="349" x2="254" y2="341" stroke="red" />
<text x="250" y="357" font-family="Verdana" font-size="8" text-anchor="middle"  dominant-baseline="middle" fill="black" > 330</text>
<circle cx="350" cy="186" r="4" fill="white" stroke="black" />
<line x1="350" y1="190" x2="350" y2="467" stroke="black" />
<line x1="346" y1="463" x2="354" y2="471" stroke="red" />
<line x1="346" y1="471" x2="354" y2="463" stroke="red" />
<text x="350" y="479" font-family="Verdana" font-size="8" text-anchor="middle"  dominant-baseline="middle" fill="black" > 452</text>
<circle cx="450" cy="186" r="4" fill="white" stroke="black" />
<line x1="450" y1="190" x2="450" y2="483" stroke="black" />
<line x1="446" y1="479" x2="454" y2="487" stroke="red" />
<line x1="446" y1="487" x2="454" y2="479" stroke="red" />
<text x="450" y="495" font-family="Verdana" font-size="8" text-anchor="middle"  dominant-baseline="middle" fill="black" > 468</text>
<text x="600" y="7" font-family="Verdana" font-size="7" text-anchor="middle"  dominant-baseline="middle" fill="black" > C4</text>
<circle cx="600" cy="15" r="4" fill="white" stroke="black" />
<line x1="600" y1="19" x2="600" y2="168" stroke="black" />
<line x1="550" y1="168" x2="650" y2="168" stroke="black" />
<text x="625" y="160" font-family="Verdana" font-size="8" text-anchor="middle"  dominant-baseline="middle" fill="black" > 153</text>
<circle cx="550" cy="168" r="4" fill="white" stroke="black" />
<circle cx="650" cy="168" r="4" fill="white" stroke="black" />
<line x1="550" y1="172" x2="550" y2="189" stroke="black" />
<line x1="550" y1="189" x2="600" y2="195" stroke="black" />
<line x1="650" y1="172" x2="650" y2="189" stroke="black" />
<line x1="650" y1="189" x2="600" y2="195" stroke="black" />
<text x="600" y="183" font-family="Verdana" font-size="8" text-anchor="middle"  dominant-baseline="middle" fill="black" > 180</text>
<circle cx="600" cy="195" r="4" fill="white" stroke="black" />
<line x1="600" y1="199" x2="600" y2="736" stroke="black" />
<circle cx="600" cy="736" r="4" fill="white" stroke="black" />
<text x="600" y="748" font-family="Verdana" font-size="8" text-anchor="middle"  dominant-baseline="middle" fill="black" > 721</text>
<text x="850" y="7" font-family="Verdana" font-size="7" text-anchor="middle"  dominant-baseline="middle" fill="black" > C5</text>
<circle cx="850" cy="15" r="4" fill="white" stroke="black" />
<line x1="850" y1="19" x2="850" y2="338" stroke="black" />
<line x1="750" y1="338" x2="950" y2="338" stroke="black" />
<text x="875" y="330" font-family="Verdana" font-size="8" text-anchor="middle"  dominant-baseline="middle" fill="black" > 323</text>
<circle cx="750" cy="338" r="4" fill="white" stroke="black" />
<line x1="750" y1="342" x2="750" y2="358" stroke="black" />
<line x1="746" y1="354" x2="754" y2="362" stroke="red" />
<line x1="746" y1="362" x2="754" y2="354" stroke="red" />
<text x="750" y="370" font-family="Verdana" font-size="8" text-anchor="middle"  dominant-baseline="middle" fill="black" > 343</text>
<circle cx="850" cy="338" r="4" fill="white" stroke="black" />
<circle cx="950" cy="338" r="4" fill="white" stroke="black" />
<line x1="850" y1="342" x2="850" y2="351" stroke="black" />
<line x1="850" y1="351" x2="900" y2="355" stroke="black" />
<line x1="950" y1="342" x2="950" y2="351" stroke="black" />
<line x1="950" y1="351" x2="900" y2="355" stroke="black" />
<text x="900" y="343" font-family="Verdana" font-size="8" text-anchor="middle"  dominant-baseline="middle" fill="black" > 340</text>
<circle cx="900" cy="355" r="4" fill="white" stroke="black" />
<line x1="900" y1="359" x2="900" y2="357" stroke="black" />
<line x1="896" y1="353" x2="904" y2="361" stroke="red" />
<line x1="896" y1="361" x2="904" y2="353" stroke="red" />
<text x="900" y="369" font-family="Verdana" font-size="8" text-anchor="middle"  dominant-baseline="middle" fill="black" > 342</text>
<text x="1150" y="7" font-family="Verdana" font-size="7" text-anchor="middle"  dominant-baseline="middle" fill="black" > C6</text>
<circle cx="1150" cy="15" r="4" fill="white" stroke="black" />
<line x1="1150" y1="19" x2="1150" y2="331" stroke="black" />
<line x1="1050" y1="331" x2="1250" y2="331" stroke="black" />
<text x="1175" y="323" font-family="Verdana" font-size="8" text-anchor="middle"  dominant-baseline="middle" fill="black" > 316</text>
<circle cx="1050" cy="331" r="4" fill="white" stroke="black" />
<circle cx="1150" cy="331" r="4" fill="white" stroke="black" />
<line x1="1050" y1="335" x2="1050" y2="340" stroke="black" />
<line x1="1050" y1="340" x2="1100" y2="343" stroke="black" />
<line x1="1150" y1="335" x2="1150" y2="340" stroke="black" />
<line x1="1150" y1="340" x2="1100" y2="343" stroke="black" />
<text x="1100" y="331" font-family="Verdana" font-size="8" text-anchor="middle"  dominant-baseline="middle" fill="black" > 328</text>
<circle cx="1100" cy="343" r="4" fill="white" stroke="black" />
<circle cx="1250" cy="331" r="4" fill="white" stroke="black" />
<line x1="1100" y1="347" x2="1100" y2="345" stroke="black" />
<line x1="1100" y1="345" x2="1175" y2="345" stroke="black" />
<line x1="1250" y1="335" x2="1250" y2="345" stroke="black" />
<line x1="1250" y1="345" x2="1175" y2="345" stroke="black" />
<text x="1175" y="333" font-family="Verdana" font-size="8" text-anchor="middle"  dominant-baseline="middle" fill="black" > 330</text>
<circle cx="1175" cy="345" r="4" fill="white" stroke="black" />
<line x1="1175" y1="349" x2="1175" y2="481" stroke="black" />
<line x1="1171" y1="477" x2="1179" y2="485" stroke="red" />
<line x1="1171" y1="485" x2="1179" y2="477" stroke="red" />
<text x="1175" y="493" font-family="Verdana" font-size="8" text-anchor="middle"  dominant-baseline="middle" fill="black" > 466</text>
<text x="1400" y="7" font-family="Verdana" font-size="7" text-anchor="middle"  dominant-baseline="middle" fill="black" > C7</text>
<circle cx="1400" cy="15" r="4" fill="white" stroke="black" />
<line x1="1400" y1="19" x2="1400" y2="177" stroke="black" />
<line x1="1350" y1="177" x2="1450" y2="177" stroke="black" />
<text x="1425" y="169" font-family="Verdana" font-size="8" text-anchor="middle"  dominant-baseline="middle" fill="black" > 162</text>
<circle cx="1350" cy="177" r="4" fill="white" stroke="black" />
<line x1="1350" y1="181" x2="1350" y2="587" stroke="black" />
<line x1="1346" y1="583" x2="1354" y2="591" stroke="red" />
<line x1="1346" y1="591" x2="1354" y2="583" stroke="red" />
<text x="1350" y="599" font-family="Verdana" font-size="8" text-anchor="middle"  dominant-baseline="middle" fill="black" > 572</text>
<circle cx="1450" cy="177" r="4" fill="white" stroke="black" />
<line x1="1450" y1="181" x2="1450" y2="736" stroke="black" />
<circle cx="1450" cy="736" r="4" fill="white" stroke="black" />
<text x="1450" y="748" font-family="Verdana" font-size="8" text-anchor="middle"  dominant-baseline="middle" fill="black" > 721</text>
<text x="1700" y="7" font-family="Verdana" font-size="7" text-anchor="middle"  dominant-baseline="middle" fill="black" > C8</text>
<circle cx="1700" cy="15" r="4" fill="white" stroke="black" />
<line x1="1700" y1="19" x2="1700" y2="239" stroke="black" />
<line x1="1550" y1="239" x2="1850" y2="239" stroke="black" />
<text x="1725" y="231" font-family="Verdana" font-size="8" text-anchor="middle"  dominant-baseline="middle" fill="black" > 224</text>
<circle cx="1550" cy="239" r="4" fill="white" stroke="black" />
<line x1="1550" y1="243" x2="1550" y2="736" stroke="black" />
<circle cx="1550" cy="736" r="4" fill="white" stroke="black" />
<text x="1550" y="748" font-family="Verdana" font-size="8" text-anchor="middle"  dominant-baseline="middle" fill="black" > 721</text>
<circle cx="1650" cy="239" r="4" fill="white" stroke="black" />
<line x1="1650" y1="243" x2="1650" y2="590" stroke="black" />
<line x1="1646" y1="586" x2="1654" y2="594" stroke="red" />
<line x1="1646" y1="594" x2="1654" y2="586" stroke="red" />
<text x="1650" y="602" font-family="Verdana" font-size="8" text-anchor="middle"  dominant-baseline="middle" fill="black" > 575</text>
<circle cx="1750" cy="239" r="4" fill="white" stroke="black" />
<line x1="1750" y1="243" x2="1750" y2="581" stroke="black" />
<line x1="1746" y1="577" x2="1754" y2="585" stroke="red" />
<line x1="1746" y1="585" x2="1754" y2="577" stroke="red" />
<text x="1750" y="593" font-family="Verdana" font-size="8" text-anchor="middle"  dominant-baseline="middle" fill="black" > 566</text>
<circle cx="1850" cy="239" r="4" fill="white" stroke="black" />
<line x1="1850" y1="243" x2="1850" y2="460" stroke="black" />
<line x1="1846" y1="456" x2="1854" y2="464" stroke="red" />
<line x1="1846" y1="464" x2="1854" y2="456" stroke="red" />
<text x="1850" y="472" font-family="Verdana" font-size="8" text-anchor="middle"  dominant-baseline="middle" fill="black" > 445</text>
<text x="2050" y="7" font-family="Verdana" font-size="7" text-anchor="middle"  dominant-baseline="middle" fill="black" > C9</text>
<circle cx="2050" cy="15" r="4" fill="white" stroke="black" />
<line x1="2050" y1="19" x2="2050" y2="376" stroke="black" />
<line x1="1950" y1="376" x2="2150" y2="376" stroke="black" />
<text x="2075" y="368" font-family="Verdana" font-size="8" text-anchor="middle"  dominant-baseline="middle" fill="black" > 361</text>
<circle cx="1950" cy="376" r="4" fill="white" stroke="black" />
<circle cx="2050" cy="376" r="4" fill="white" stroke="black" />
<circle cx="2150" cy="376" r="4" fill="white" stroke="black" />
<line x1="1950" y1="380" x2="1950" y2="405" stroke="black" />
<line x1="1950" y1="405" x2="2050" y2="414" stroke="black" />
<line x1="2050" y1="380" x2="2050" y2="405" stroke="black" />
<line x1="2050" y1="405" x2="2050" y2="414" stroke="black" />
<line x1="2150" y1="380" x2="2150" y2="405" stroke="black" />
<line x1="2150" y1="405" x2="2050" y2="414" stroke="black" />
<text x="2050" y="402" font-family="Verdana" font-size="8" text-anchor="middle"  dominant-baseline="middle" fill="black" > 399</text>
<circle cx="2050" cy="414" r="4" fill="white" stroke="black" />
<line x1="2050" y1="418" x2="2050" y2="454" stroke="black" />
<line x1="2046" y1="450" x2="2054" y2="458" stroke="red" />
<line x1="2046" y1="458" x2="2054" y2="450" stroke="red" />
<text x="2050" y="466" font-family="Verdana" font-size="8" text-anchor="middle"  dominant-baseline="middle" fill="black" > 439</text>
<text x="2250" y="7" font-family="Verdana" font-size="7" text-anchor="middle"  dominant-baseline="middle" fill="black" > C10</text>
<circle cx="2250" cy="15" r="4" fill="white" stroke="black" />
<line x1="2250" y1="19" x2="2250" y2="707" stroke="black" />
<line x1="2246" y1="703" x2="2254" y2="711" stroke="red" />
<line x1="2246" y1="711" x2="2254" y2="703" stroke="red" />
<text x="2250" y="719" font-family="Verdana" font-size="8" text-anchor="middle"  dominant-baseline="middle" fill="black" > 692</text>
<text x="2500" y="7" font-family="Verdana" font-size="7" text-anchor="middle"  dominant-baseline="middle" fill="black" > C11</text>
<circle cx="2500" cy="15" r="4" fill="white" stroke="black" />
<line x1="2500" y1="19" x2="2500" y2="309" stroke="black" />
<line x1="2350" y1="309" x2="2650" y2="309" stroke="black" />
<text x="2525" y="301" font-family="Verdana" font-size="8" text-anchor="middle"  dominant-baseline="middle" fill="black" > 294</text>
<circle cx="2350" cy="309" r="4" fill="white" stroke="black" />
<circle cx="2450" cy="309" r="4" fill="white" stroke="black" />
<circle cx="2550" cy="309" r="4" fill="white" stroke="black" />
<circle cx="2650" cy="309" r="4" fill="white" stroke="black" />
<line x1="2350" y1="313" x2="2350" y2="321" stroke="black" />
<line x1="2350" y1="321" x2="2500" y2="324" stroke="black" />
<line x1="2450" y1="313" x2="2450" y2="321" stroke="black" />
<line x1="2450" y1="321" x2="2500" y2="324" stroke="black" />
<line x1="2550" y1="313" x2="2550" y2="321" stroke="black" />
<line x1="2550" y1="321" x2="2500" y2="324" stroke="black" />
<line x1="2650" y1="313" x2="2650" y2="321" stroke="black" />
<line x1="2650" y1="321" x2="2500" y2="324" stroke="black" />
<text x="2500" y="312" font-family="Verdana" font-size="8" text-anchor="middle"  dominant-baseline="middle" fill="black" > 309</text>
<circle cx="2500" cy="324" r="4" fill="white" stroke="black" />
<line x1="2500" y1="328" x2="2500" y2="525" stroke="black" />
<line x1="2496" y1="521" x2="2504" y2="529" stroke="red" />
<line x1="2496" y1="529" x2="2504" y2="521" stroke="red" />
<text x="2500" y="537" font-family="Verdana" font-size="8" text-anchor="middle"  dominant-baseline="middle" fill="black" > 510</text>
<text x="2750" y="7" font-family="Verdana" font-size="7" text-anchor="middle"  dominant-baseline="middle" fill="black" > C12</text>
<circle cx="2750" cy="15" r="4" fill="white" stroke="black" />
<line x1="2750" y1="19" x2="2750" y2="273" stroke="black" />
<line x1="2746" y1="277" x2="2750" y2="269" stroke="blue" />
<line x1="2750" y1="277" x2="2754" y2="269" stroke="blue" />
<text x="2750" y="285" font-family="Verdana" font-size="8" text-anchor="middle"  dominant-baseline="middle" fill="black" > 258</text>
<text x="3000" y="7" font-family="Verdana" font-size="7" text-anchor="middle"  dominant-baseline="middle" fill="black" > C13</text>
<circle cx="3000" cy="15" r="4" fill="white" stroke="black" />
<line x1="3000" y1="19" x2="3000" y2="307" stroke="black" />
<line x1="2850" y1="307" x2="3150" y2="307" stroke="black" />
<text x="3025" y="299" font-family="Verdana" font-size="8" text-anchor="middle"  dominant-baseline="middle" fill="black" > 292</text>
<circle cx="2850" cy="307" r="4" fill="white" stroke="black" />
<circle cx="2950" cy="307" r="4" fill="white" stroke="black" />
<line x1="2850" y1="311" x2="2850" y2="314" stroke="black" />
<line x1="2850" y1="314" x2="2900" y2="316" stroke="black" />
<line x1="2950" y1="311" x2="2950" y2="314" stroke="black" />
<line x1="2950" y1="314" x2="2900" y2="316" stroke="black" />
<text x="2900" y="304" font-family="Verdana" font-size="8" text-anchor="middle"  dominant-baseline="middle" fill="black" > 301</text>
<circle cx="2900" cy="316" r="4" fill="white" stroke="black" />
<circle cx="3050" cy="307" r="4" fill="white" stroke="black" />
<circle cx="3150" cy="307" r="4" fill="white" stroke="black" />
<line x1="3050" y1="311" x2="3050" y2="317" stroke="black" />
<line x1="3050" y1="317" x2="3100" y2="320" stroke="black" />
<line x1="3150" y1="311" x2="3150" y2="317" stroke="black" />
<line x1="3150" y1="317" x2="3100" y2="320" stroke="black" />
<text x="3100" y="308" font-family="Verdana" font-size="8" text-anchor="middle"  dominant-baseline="middle" fill="black" > 305</text>
<circle cx="3100" cy="320" r="4" fill="white" stroke="black" />
<line x1="2900" y1="320" x2="2900" y2="330" stroke="black" />
<line x1="2900" y1="330" x2="3000" y2="333" stroke="black" />
<line x1="3100" y1="324" x2="3100" y2="330" stroke="black" />
<line x1="3100" y1="330" x2="3000" y2="333" stroke="black" />
<text x="3000" y="321" font-family="Verdana" font-size="8" text-anchor="middle"  dominant-baseline="middle" fill="black" > 318</text>
<circle cx="3000" cy="333" r="4" fill="white" stroke="black" />
<line x1="3000" y1="337" x2="3000" y2="529" stroke="black" />
<line x1="2996" y1="525" x2="3004" y2="533" stroke="red" />
<line x1="2996" y1="533" x2="3004" y2="525" stroke="red" />
<text x="3000" y="541" font-family="Verdana" font-size="8" text-anchor="middle"  dominant-baseline="middle" fill="black" > 514</text>
<text x="3350" y="7" font-family="Verdana" font-size="7" text-anchor="middle"  dominant-baseline="middle" fill="black" > C14</text>
<circle cx="3350" cy="15" r="4" fill="white" stroke="black" />
<line x1="3350" y1="19" x2="3350" y2="323" stroke="black" />
<line x1="3250" y1="323" x2="3450" y2="323" stroke="black" />
<text x="3375" y="315" font-family="Verdana" font-size="8" text-anchor="middle"  dominant-baseline="middle" fill="black" > 308</text>
<circle cx="3250" cy="323" r="4" fill="white" stroke="black" />
<circle cx="3350" cy="323" r="4" fill="white" stroke="black" />
<circle cx="3450" cy="323" r="4" fill="white" stroke="black" />
<line x1="3250" y1="327" x2="3250" y2="339" stroke="black" />
<line x1="3250" y1="339" x2="3350" y2="344" stroke="black" />
<line x1="3350" y1="327" x2="3350" y2="339" stroke="black" />
<line x1="3350" y1="339" x2="3350" y2="344" stroke="black" />
<line x1="3450" y1="327" x2="3450" y2="339" stroke="black" />
<line x1="3450" y1="339" x2="3350" y2="344" stroke="black" />
<text x="3350" y="332" font-family="Verdana" font-size="8" text-anchor="middle"  dominant-baseline="middle" fill="black" > 329</text>
<circle cx="3350" cy="344" r="4" fill="white" stroke="black" />
<line x1="3350" y1="348" x2="3350" y2="627" stroke="black" />
<line x1="3346" y1="623" x2="3354" y2="631" stroke="red" />
<line x1="3346" y1="631" x2="3354" y2="623" stroke="red" />
<text x="3350" y="639" font-family="Verdana" font-size="8" text-anchor="middle"  dominant-baseline="middle" fill="black" > 612</text>
<text x="3600" y="7" font-family="Verdana" font-size="7" text-anchor="middle"  dominant-baseline="middle" fill="black" > C15</text>
<circle cx="3600" cy="15" r="4" fill="white" stroke="black" />
<line x1="3600" y1="19" x2="3600" y2="207" stroke="black" />
<line x1="3550" y1="207" x2="3650" y2="207" stroke="black" />
<text x="3625" y="199" font-family="Verdana" font-size="8" text-anchor="middle"  dominant-baseline="middle" fill="black" > 192</text>
<circle cx="3550" cy="207" r="4" fill="white" stroke="black" />
<circle cx="3650" cy="207" r="4" fill="white" stroke="black" />
<line x1="3550" y1="211" x2="3550" y2="297" stroke="black" />
<line x1="3550" y1="297" x2="3600" y2="327" stroke="black" />
<line x1="3650" y1="211" x2="3650" y2="297" stroke="black" />
<line x1="3650" y1="297" x2="3600" y2="327" stroke="black" />
<text x="3600" y="315" font-family="Verdana" font-size="8" text-anchor="middle"  dominant-baseline="middle" fill="black" > 312</text>
<circle cx="3600" cy="327" r="4" fill="white" stroke="black" />
<line x1="3600" y1="331" x2="3600" y2="356" stroke="black" />
<line x1="3562" y1="356" x2="3638" y2="356" stroke="black" />
<text x="3606" y="348" font-family="Verdana" font-size="8" text-anchor="middle"  dominant-baseline="middle" fill="black" > 341</text>
<circle cx="3562" cy="356" r="4" fill="white" stroke="black" />
<line x1="3562" y1="360" x2="3562" y2="435" stroke="black" />
<line x1="3558" y1="431" x2="3566" y2="439" stroke="red" />
<line x1="3558" y1="439" x2="3566" y2="431" stroke="red" />
<text x="3562" y="447" font-family="Verdana" font-size="8" text-anchor="middle"  dominant-baseline="middle" fill="black" > 420</text>
<circle cx="3587" cy="356" r="4" fill="white" stroke="black" />
<circle cx="3612" cy="356" r="4" fill="white" stroke="black" />
<line x1="3587" y1="360" x2="3587" y2="371" stroke="black" />
<line x1="3587" y1="371" x2="3599" y2="376" stroke="black" />
<line x1="3612" y1="360" x2="3612" y2="371" stroke="black" />
<line x1="3612" y1="371" x2="3599" y2="376" stroke="black" />
<text x="3599" y="364" font-family="Verdana" font-size="8" text-anchor="middle"  dominant-baseline="middle" fill="black" > 361</text>
<circle cx="3599" cy="376" r="4" fill="white" stroke="black" />
<circle cx="3637" cy="356" r="4" fill="white" stroke="black" />
<line x1="3599" y1="380" x2="3599" y2="382" stroke="black" />
<line x1="3599" y1="382" x2="3618" y2="383" stroke="black" />
<line x1="3637" y1="360" x2="3637" y2="382" stroke="black" />
<line x1="3637" y1="382" x2="3618" y2="383" stroke="black" />
<text x="3618" y="371" font-family="Verdana" font-size="8" text-anchor="middle"  dominant-baseline="middle" fill="black" > 368</text>
<circle cx="3618" cy="383" r="4" fill="white" stroke="black" />
<line x1="3618" y1="387" x2="3618" y2="433" stroke="black" />
<line x1="3614" y1="429" x2="3622" y2="437" stroke="red" />
<line x1="3614" y1="437" x2="3622" y2="429" stroke="red" />
<text x="3618" y="445" font-family="Verdana" font-size="8" text-anchor="middle"  dominant-baseline="middle" fill="black" > 418</text>
<text x="3800" y="7" font-family="Verdana" font-size="7" text-anchor="middle"  dominant-baseline="middle" fill="black" > C16</text>
<circle cx="3800" cy="15" r="4" fill="white" stroke="black" />
<line x1="3800" y1="19" x2="3800" y2="208" stroke="black" />
<line x1="3750" y1="208" x2="3850" y2="208" stroke="black" />
<text x="3825" y="200" font-family="Verdana" font-size="8" text-anchor="middle"  dominant-baseline="middle" fill="black" > 193</text>
<circle cx="3750" cy="208" r="4" fill="white" stroke="black" />
<line x1="3750" y1="212" x2="3750" y2="435" stroke="black" />
<line x1="3725" y1="435" x2="3775" y2="435" stroke="black" />
<text x="3762" y="427" font-family="Verdana" font-size="8" text-anchor="middle"  dominant-baseline="middle" fill="black" > 420</text>
<circle cx="3725" cy="435" r="4" fill="white" stroke="black" />
<circle cx="3775" cy="435" r="4" fill="white" stroke="black" />
<line x1="3725" y1="439" x2="3725" y2="467" stroke="black" />
<line x1="3725" y1="467" x2="3750" y2="477" stroke="black" />
<line x1="3775" y1="439" x2="3775" y2="467" stroke="black" />
<line x1="3775" y1="467" x2="3750" y2="477" stroke="black" />
<text x="3750" y="465" font-family="Verdana" font-size="8" text-anchor="middle"  dominant-baseline="middle" fill="black" > 462</text>
<circle cx="3750" cy="477" r="4" fill="white" stroke="black" />
<line x1="3750" y1="481" x2="3750" y2="736" stroke="black" />
<circle cx="3750" cy="736" r="4" fill="white" stroke="black" />
<text x="3750" y="748" font-family="Verdana" font-size="8" text-anchor="middle"  dominant-baseline="middle" fill="black" > 721</text>
<circle cx="3850" cy="208" r="4" fill="white" stroke="black" />
<line x1="3850" y1="212" x2="3850" y2="341" stroke="black" />
<line x1="3825" y1="341" x2="3875" y2="341" stroke="black" />
<text x="3862" y="333" font-family="Verdana" font-size="8" text-anchor="middle"  dominant-baseline="middle" fill="black" > 326</text>
<circle cx="3825" cy="341" r="4" fill="white" stroke="black" />
<line x1="3825" y1="345" x2="3825" y2="530" stroke="black" />
<line x1="3821" y1="526" x2="3829" y2="534" stroke="red" />
<line x1="3821" y1="534" x2="3829" y2="526" stroke="red" />
<text x="3825" y="542" font-family="Verdana" font-size="8" text-anchor="middle"  dominant-baseline="middle" fill="black" > 515</text>
<circle cx="3875" cy="341" r="4" fill="white" stroke="black" />
<line x1="3875" y1="345" x2="3875" y2="530" stroke="black" />
<line x1="3871" y1="526" x2="3879" y2="534" stroke="red" />
<line x1="3871" y1="534" x2="3879" y2="526" stroke="red" />
<text x="3875" y="542" font-family="Verdana" font-size="8" text-anchor="middle"  dominant-baseline="middle" fill="black" > 515</text>
<text x="3950" y="7" font-family="Verdana" font-size="7" text-anchor="middle"  dominant-baseline="middle" fill="black" > C17</text>
<circle cx="3950" cy="15" r="4" fill="white" stroke="black" />
<line x1="3950" y1="19" x2="3950" y2="266" stroke="black" />
<line x1="3946" y1="270" x2="3950" y2="262" stroke="blue" />
<line x1="3950" y1="270" x2="3954" y2="262" stroke="blue" />
<text x="3950" y="278" font-family="Verdana" font-size="8" text-anchor="middle"  dominant-baseline="middle" fill="black" > 251</text>
<text x="4050" y="7" font-family="Verdana" font-size="7" text-anchor="middle"  dominant-baseline="middle" fill="black" > C18</text>
<circle cx="4050" cy="15" r="4" fill="white" stroke="black" />
<line x1="4050" y1="19" x2="4050" y2="466" stroke="black" />
<line x1="4046" y1="462" x2="4054" y2="470" stroke="red" />
<line x1="4046" y1="470" x2="4054" y2="462" stroke="red" />
<text x="4050" y="478" font-family="Verdana" font-size="8" text-anchor="middle"  dominant-baseline="middle" fill="black" > 451</text>
<text x="4150" y="7" font-family="Verdana" font-size="7" text-anchor="middle"  dominant-baseline="middle" fill="black" > C19</text>
<circle cx="4150" cy="15" r="4" fill="white" stroke="black" />
<line x1="4150" y1="19" x2="4150" y2="115" stroke="black" />
<line x1="4146" y1="119" x2="4150" y2="111" stroke="blue" />
<line x1="4150" y1="119" x2="4154" y2="111" stroke="blue" />
<text x="4150" y="127" font-family="Verdana" font-size="8" text-anchor="middle"  dominant-baseline="middle" fill="black" > 100</text>
<text x="4300" y="7" font-family="Verdana" font-size="7" text-anchor="middle"  dominant-baseline="middle" fill="black" > C20</text>
<circle cx="4300" cy="15" r="4" fill="white" stroke="black" />
<line x1="4300" y1="19" x2="4300" y2="262" stroke="black" />
<line x1="4250" y1="262" x2="4350" y2="262" stroke="black" />
<text x="4325" y="254" font-family="Verdana" font-size="8" text-anchor="middle"  dominant-baseline="middle" fill="black" > 247</text>
<circle cx="4250" cy="262" r="4" fill="white" stroke="black" />
<line x1="4250" y1="266" x2="4250" y2="449" stroke="black" />
<line x1="4216" y1="449" x2="4284" y2="449" stroke="black" />
<text x="4258" y="441" font-family="Verdana" font-size="8" text-anchor="middle"  dominant-baseline="middle" fill="black" > 434</text>
<circle cx="4216" cy="449" r="4" fill="white" stroke="black" />
<circle cx="4249" cy="449" r="4" fill="white" stroke="black" />
<circle cx="4282" cy="449" r="4" fill="white" stroke="black" />
<line x1="4216" y1="453" x2="4216" y2="458" stroke="black" />
<line x1="4216" y1="458" x2="4249" y2="460" stroke="black" />
<line x1="4249" y1="453" x2="4249" y2="458" stroke="black" />
<line x1="4249" y1="458" x2="4249" y2="460" stroke="black" />
<line x1="4282" y1="453" x2="4282" y2="458" stroke="black" />
<line x1="4282" y1="458" x2="4249" y2="460" stroke="black" />
<text x="4249" y="448" font-family="Verdana" font-size="8" text-anchor="middle"  dominant-baseline="middle" fill="black" > 445</text>
<circle cx="4249" cy="460" r="4" fill="white" stroke="black" />
<line x1="4249" y1="464" x2="4249" y2="502" stroke="black" />
<line x1="4245" y1="498" x2="4253" y2="506" stroke="red" />
<line x1="4245" y1="506" x2="4253" y2="498" stroke="red" />
<text x="4249" y="514" font-family="Verdana" font-size="8" text-anchor="middle"  dominant-baseline="middle" fill="black" > 487</text>
<circle cx="4350" cy="262" r="4" fill="white" stroke="black" />
<line x1="4350" y1="266" x2="4350" y2="487" stroke="black" />
<line x1="4325" y1="487" x2="4375" y2="487" stroke="black" />
<text x="4362" y="479" font-family="Verdana" font-size="8" text-anchor="middle"  dominant-baseline="middle" fill="black" > 472</text>
<circle cx="4325" cy="487" r="4" fill="white" stroke="black" />
<line x1="4325" y1="491" x2="4325" y2="736" stroke="black" />
<circle cx="4325" cy="736" r="4" fill="white" stroke="black" />
<text x="4325" y="748" font-family="Verdana" font-size="8" text-anchor="middle"  dominant-baseline="middle" fill="black" > 721</text>
<circle cx="4375" cy="487" r="4" fill="white" stroke="black" />
<line x1="4375" y1="491" x2="4375" y2="584" stroke="black" />
<line x1="4371" y1="580" x2="4379" y2="588" stroke="red" />
<line x1="4371" y1="588" x2="4379" y2="580" stroke="red" />
<text x="4375" y="596" font-family="Verdana" font-size="8" text-anchor="middle"  dominant-baseline="middle" fill="black" > 569</text>
<text x="4600" y="7" font-family="Verdana" font-size="7" text-anchor="middle"  dominant-baseline="middle" fill="black" > C21</text>
<circle cx="4600" cy="15" r="4" fill="white" stroke="black" />
<line x1="4600" y1="19" x2="4600" y2="374" stroke="black" />
<line x1="4450" y1="374" x2="4750" y2="374" stroke="black" />
<text x="4625" y="366" font-family="Verdana" font-size="8" text-anchor="middle"  dominant-baseline="middle" fill="black" > 359</text>
<circle cx="4450" cy="374" r="4" fill="white" stroke="black" />
<circle cx="4550" cy="374" r="4" fill="white" stroke="black" />
<circle cx="4650" cy="374" r="4" fill="white" stroke="black" />
<circle cx="4750" cy="374" r="4" fill="white" stroke="black" />
<line x1="4450" y1="378" x2="4450" y2="386" stroke="black" />
<line x1="4450" y1="386" x2="4600" y2="389" stroke="black" />
<line x1="4550" y1="378" x2="4550" y2="386" stroke="black" />
<line x1="4550" y1="386" x2="4600" y2="389" stroke="black" />
<line x1="4650" y1="378" x2="4650" y2="386" stroke="black" />
<line x1="4650" y1="386" x2="4600" y2="389" stroke="black" />
<line x1="4750" y1="378" x2="4750" y2="386" stroke="black" />
<line x1="4750" y1="386" x2="4600" y2="389" stroke="black" />
<text x="4600" y="377" font-family="Verdana" font-size="8" text-anchor="middle"  dominant-baseline="middle" fill="black" > 374</text>
<circle cx="4600" cy="389" r="4" fill="white" stroke="black" />
<line x1="4600" y1="393" x2="4600" y2="585" stroke="black" />
<line x1="4596" y1="581" x2="4604" y2="589" stroke="red" />
<line x1="4596" y1="589" x2="4604" y2="581" stroke="red" />
<text x="4600" y="597" font-family="Verdana" font-size="8" text-anchor="middle"  dominant-baseline="middle" fill="black" > 570</text>
<text x="4900" y="7" font-family="Verdana" font-size="7" text-anchor="middle"  dominant-baseline="middle" fill="black" > C22</text>
<circle cx="4900" cy="15" r="4" fill="white" stroke="black" />
<line x1="4900" y1="19" x2="4900" y2="169" stroke="black" />
<line x1="4850" y1="169" x2="4950" y2="169" stroke="black" />
<text x="4925" y="161" font-family="Verdana" font-size="8" text-anchor="middle"  dominant-baseline="middle" fill="black" > 154</text>
<circle cx="4850" cy="169" r="4" fill="white" stroke="black" />
<line x1="4850" y1="173" x2="4850" y2="736" stroke="black" />
<circle cx="4850" cy="736" r="4" fill="white" stroke="black" />
<text x="4850" y="748" font-family="Verdana" font-size="8" text-anchor="middle"  dominant-baseline="middle" fill="black" > 721</text>
<circle cx="4950" cy="169" r="4" fill="white" stroke="black" />
<line x1="4950" y1="173" x2="4950" y2="553" stroke="black" />
<line x1="4916" y1="553" x2="4984" y2="553" stroke="black" />
<text x="4958" y="545" font-family="Verdana" font-size="8" text-anchor="middle"  dominant-baseline="middle" fill="black" > 538</text>
<circle cx="4916" cy="553" r="4" fill="white" stroke="black" />
<circle cx="4949" cy="553" r="4" fill="white" stroke="black" />
<line x1="4916" y1="557" x2="4916" y2="555" stroke="black" />
<line x1="4916" y1="555" x2="4932" y2="555" stroke="black" />
<line x1="4949" y1="557" x2="4949" y2="555" stroke="black" />
<line x1="4949" y1="555" x2="4932" y2="555" stroke="black" />
<text x="4932" y="543" font-family="Verdana" font-size="8" text-anchor="middle"  dominant-baseline="middle" fill="black" > 540</text>
<circle cx="4932" cy="555" r="4" fill="white" stroke="black" />
<circle cx="4982" cy="553" r="4" fill="white" stroke="black" />
<line x1="4932" y1="559" x2="4932" y2="605" stroke="black" />
<line x1="4932" y1="605" x2="4957" y2="621" stroke="black" />
<line x1="4982" y1="557" x2="4982" y2="605" stroke="black" />
<line x1="4982" y1="605" x2="4957" y2="621" stroke="black" />
<text x="4957" y="609" font-family="Verdana" font-size="8" text-anchor="middle"  dominant-baseline="middle" fill="black" > 606</text>
<circle cx="4957" cy="621" r="4" fill="white" stroke="black" />
<line x1="4957" y1="625" x2="4957" y2="736" stroke="black" />
<circle cx="4957" cy="736" r="4" fill="white" stroke="black" />
<text x="4957" y="748" font-family="Verdana" font-size="8" text-anchor="middle"  dominant-baseline="middle" fill="black" > 721</text>
</svg>
