<?xml version="1.0" encoding="utf-8"?>
<svg xmlns="http://www.w3.org/2000/svg" version="1.1" width="4950" height="750">
<rect width="4950" height="15" x="0" y="0" fill="white" />
<rect width="4950" height="15" x="0" y="735" fill="white" />
<rect width="25" height="750" x="0" y="0" fill="white" />
<rect width="25" height="750" x="4925" y="0" fill="white" />
<rect width="4910" height="144" x="25" y="15" fill="ghostwhite" />
<rect width="4910" height="144" x="25" y="159" fill="snow" />
<rect width="4910" height="144" x="25" y="303" fill="ghostwhite" />
<rect width="4910" height="144" x="25" y="447" fill="snow" />
<rect width="4910" height="144" x="25" y="591" fill="ghostwhite" />
<text x="12" y="87" font-family="Verdana" font-size="10" text-anchor="middle"  dominant-baseline="middle" fill="red" > D0</text>
<text x="12" y="231" font-family="Verdana" font-size="10" text-anchor="middle"  dominant-baseline="middle" fill="red" > D1</text>
<text x="12" y="375" font-family="Verdana" font-size="10" text-anchor="middle"  dominant-baseline="middle" fill="red" > D2</text>
<text x="12" y="519" font-family="Verdana" font-size="10" text-anchor="middle"  dominant-baseline="middle" fill="red" > D3</text>
<text x="12" y="663" font-family="Verdana" font-size="10" text-anchor="middle"  dominant-baseline="middle" fill="red" > D4</text>
<text x="12" y="20" font-family="Verdana" font-size="10" text-anchor="middle"  dominant-baseline="middle" fill="black" > 0</text>
<text x="12" y="164" font-family="Verdana" font-size="10" text-anchor="middle"  dominant-baseline="middle" fill="black" > 144</text>
<text x="12" y="308" font-family="Verdana" font-size="10" text-anchor="middle"  dominant-baseline="middle" fill="black" > 288</text>
<text x="12" y="452" font-family="Verdana" font-size="10" text-anchor="middle"  dominant-baseline="middle" fill="black" > 432</text>
<text x="12" y="596" font-family="Verdana" font-size="10" text-anchor="middle"  dominant-baseline="middle" fill="black" > 576</text>
<text x="12" y="740" font-family="Verdana" font-size="10" text-anchor="middle"  dominant-baseline="middle" fill="black" > 720</text>
<text x="50" y="7" font-family="Verdana" font-size="7" text-anchor="middle"  dominant-baseline="middle" fill="black" > C1</text>
<circle cx="50" cy="15" r="4" fill="white" stroke="black" />
<line x1="50" y1="19" x2="50" y2="64" stroke="black" />
<line x1="46" y1="60" x2="54" y2="68" stroke="red" />
<line x1="46" y1="68" x2="54" y2="60" stroke="red" />
<text x="50" y="76" font-family="Verdana" font-size="8" text-anchor="middle"  dominant-baseline="middle" fill="black" > 49</text>
<text x="200" y="7" font-family="Verdana" font-size="7" text-anchor="middle"  dominant-baseline="middle" fill="black" > C2</text>
<circle cx="200" cy="15" r="4" fill="white" stroke="black" />
<line x1="200" y1="19" x2="200" y2="168" stroke="black" />
<line x1="150" y1="168" x2="250" y2="168" stroke="black" />
<text x="225" y="160" font-family="Verdana" font-size="8" text-anchor="middle"  dominant-baseline="middle" fill="black" > 153</text>
<circle cx="150" cy="168" r="4" fill="white" stroke="black" />
<circle cx="250" cy="168" r="4" fill="white" stroke="black" />
<line x1="150" y1="172" x2="150" y2="308" stroke="black" />
<line x1="150" y1="308" x2="200" y2="354" stroke="black" />
<line x1="250" y1="172" x2="250" y2="308" stroke="black" />
<line x1="250" y1="308" x2="200" y2="354" stroke="black" />
<text x="200" y="342" font-family="Verdana" font-size="8" text-anchor="middle"  dominant-baseline="middle" fill="black" > 339</text>
<circle cx="200" cy="354" r="4" fill="white" stroke="black" />
<line x1="200" y1="358" x2="200" y2="469" stroke="black" />
<line x1="196" y1="465" x2="204" y2="473" stroke="red" />
<line x1="196" y1="473" x2="204" y2="465" stroke="red" />
<text x="200" y="481" font-family="Verdana" font-size="8" text-anchor="middle"  dominant-baseline="middle" fill="black" > 454</text>
<text x="400" y="7" font-family="Verdana" font-size="7" text-anchor="middle"  dominant-baseline="middle" fill="black" > C3</text>
<circle cx="400" cy="15" r="4" fill="white" stroke="black" />
<line x1="400" y1="19" x2="400" y2="238" stroke="black" />
<line x1="350" y1="238" x2="450" y2="238" stroke="black" />
<text x="425" y="230" font-family="Verdana" font-size="8" text-anchor="middle"  dominant-baseline="middle" fill="black" > 223</text>
<circle cx="350" cy="238" r="4" fill="white" stroke="black" />
<line x1="350" y1="242" x2="350" y2="543" stroke="black" />
<line x1="346" y1="539" x2="354" y2="547" stroke="red" />
<line x1="346" y1="547" x2="354" y2="539" stroke="red" />
<text x="350" y="555" font-family="Verdana" font-size="8" text-anchor="middle"  dominant-baseline="middle" fill="black" > 528</text>
<circle cx="450" cy="238" r="4" fill="white" stroke="black" />
<line x1="450" y1="242" x2="450" y2="589" stroke="black" />
<line x1="446" y1="585" x2="454" y2="593" stroke="red" />
<line x1="446" y1="593" x2="454" y2="585" stroke="red" />
<text x="450" y="601" font-family="Verdana" font-size="8" text-anchor="middle"  dominant-baseline="middle" fill="black" > 574</text>
<text x="600" y="7" font-family="Verdana" font-size="7" text-anchor="middle"  dominant-baseline="middle" fill="black" > C4</text>
<circle cx="600" cy="15" r="4" fill="white" stroke="black" />
<line x1="600" y1="19" x2="600" y2="238" stroke="black" />
<line x1="550" y1="238" x2="650" y2="238" stroke="black" />
<text x="625" y="230" font-family="Verdana" font-size="8" text-anchor="middle"  dominant-baseline="middle" fill="black" > 223</text>
<circle cx="550" cy="238" r="4" fill="white" stroke="black" />
<circle cx="650" cy="238" r="4" fill="white" stroke="black" />
<line x1="550" y1="242" x2="550" y2="336" stroke="black" />
<line x1="550" y1="336" x2="600" y2="368" stroke="black" />
<line x1="650" y1="242" x2="650" y2="336" stroke="black" />
<line x1="650" y1="336" x2="600" y2="368" stroke="black" />
<text x="600" y="356" font-family="Verdana" font-size="8" text-anchor="middle"  dominant-baseline="middle" fill="black" > 353</text>
<circle cx="600" cy="368" r="4" fill="white" stroke="black" />
<line x1="600" y1="372" x2="600" y2="736" stroke="black" />
<circle cx="600" cy="736" r="4" fill="white" stroke="black" />
<text x="600" y="748" font-family="Verdana" font-size="8" text-anchor="middle"  dominant-baseline="middle" fill="black" > 721</text>
<text x="750" y="7" font-family="Verdana" font-size="7" text-anchor="middle"  dominant-baseline="middle" fill="black" > C5</text>
<circle cx="750" cy="15" r="4" fill="white" stroke="black" />
<line x1="750" y1="19" x2="750" y2="506" stroke="black" />
<line x1="746" y1="502" x2="754" y2="510" stroke="red" />
<line x1="746" y1="510" x2="754" y2="502" stroke="red" />
<text x="750" y="518" font-family="Verdana" font-size="8" text-anchor="middle"  dominant-baseline="middle" fill="black" > 491</text>
<text x="950" y="7" font-family="Verdana" font-size="7" text-anchor="middle"  dominant-baseline="middle" fill="black" > C6</text>
<circle cx="950" cy="15" r="4" fill="white" stroke="black" />
<line x1="950" y1="19" x2="950" y2="366" stroke="black" />
<line x1="850" y1="366" x2="1050" y2="366" stroke="black" />
<text x="975" y="358" font-family="Verdana" font-size="8" text-anchor="middle"  dominant-baseline="middle" fill="black" > 351</text>
<circle cx="850" cy="366" r="4" fill="white" stroke="black" />
<circle cx="950" cy="366" r="4" fill="white" stroke="black" />
<circle cx="1050" cy="366" r="4" fill="white" stroke="black" />
<line x1="850" y1="370" x2="850" y2="383" stroke="black" />
<line x1="850" y1="383" x2="950" y2="388" stroke="black" />
<line x1="950" y1="370" x2="950" y2="383" stroke="black" />
<line x1="950" y1="383" x2="950" y2="388" stroke="black" />
<line x1="1050" y1="370" x2="1050" y2="383" stroke="black" />
<line x1="1050" y1="383" x2="950" y2="388" stroke="black" />
<text x="950" y="376" font-family="Verdana" font-size="8" text-anchor="middle"  dominant-baseline="middle" fill="black" > 373</text>
<circle cx="950" cy="388" r="4" fill="white" stroke="black" />
<line x1="950" y1="392" x2="950" y2="736" stroke="black" />
<circle cx="950" cy="736" r="4" fill="white" stroke="black" />
<text x="950" y="748" font-family="Verdana" font-size="8" text-anchor="middle"  dominant-baseline="middle" fill="black" > 721</text>
<text x="1200" y="7" font-family="Verdana" font-size="7" text-anchor="middle"  dominant-baseline="middle" fill="black" > C7</text>
<circle cx="1200" cy="15" r="4" fill="white" stroke="black" />
<line x1="1200" y1="19" x2="1200" y2="171" stroke="black" />
<line x1="1150" y1="171" x2="1250" y2="171" stroke="black" />
<text x="1225" y="163" font-family="Verdana" font-size="8" text-anchor="middle"  dominant-baseline="middle" fill="black" > 156</text>
<circle cx="1150" cy="171" r="4" fill="white" stroke="black" />
<line x1="1150" y1="175" x2="1150" y2="336" stroke="black" />
<line x1="1146" y1="332" x2="1154" y2="340" stroke="red" />
<line x1="1146" y1="340" x2="1154" y2="332" stroke="red" />
<text x="1150" y="348" font-family="Verdana" font-size="8" text-anchor="middle"  dominant-baseline="middle" fill="black" > 321</text>
<circle cx="1250" cy="171" r="4" fill="white" stroke="black" />
<line x1="1250" y1="175" x2="1250" y2="297" stroke="black" />
<line x1="1225" y1="297" x2="1275" y2="297" stroke="black" />
<text x="1262" y="289" font-family="Verdana" font-size="8" text-anchor="middle"  dominant-baseline="middle" fill="black" > 282</text>
<circle cx="1225" cy="297" r="4" fill="white" stroke="black" />
<circle cx="1275" cy="297" r="4" fill="white" stroke="black" />
<line x1="1225" y1="301" x2="1225" y2="432" stroke="black" />
<line x1="1225" y1="432" x2="1250" y2="476" stroke="black" />
<line x1="1275" y1="301" x2="1275" y2="432" stroke="black" />
<line x1="1275" y1="432" x2="1250" y2="476" stroke="black" />
<text x="1250" y="464" font-family="Verdana" font-size="8" text-anchor="middle"  dominant-baseline="middle" fill="black" > 461</text>
<circle cx="1250" cy="476" r="4" fill="white" stroke="black" />
<line x1="1250" y1="480" x2="1250" y2="507" stroke="black" />
<line x1="1246" y1="503" x2="1254" y2="511" stroke="red" />
<line x1="1246" y1="511" x2="1254" y2="503" stroke="red" />
<text x="1250" y="519" font-family="Verdana" font-size="8" text-anchor="middle"  dominant-baseline="middle" fill="black" > 492</text>
<text x="1450" y="7" font-family="Verdana" font-size="7" text-anchor="middle"  dominant-baseline="middle" fill="black" > C8</text>
<circle cx="1450" cy="15" r="4" fill="white" stroke="black" />
<line x1="1450" y1="19" x2="1450" y2="302" stroke="black" />
<line x1="1350" y1="302" x2="1550" y2="302" stroke="black" />
<text x="1475" y="294" font-family="Verdana" font-size="8" text-anchor="middle"  dominant-baseline="middle" fill="black" > 287</text>
<circle cx="1350" cy="302" r="4" fill="white" stroke="black" />
<circle cx="1450" cy="302" r="4" fill="white" stroke="black" />
<circle cx="1550" cy="302" r="4" fill="white" stroke="black" />
<line x1="1350" y1="306" x2="1350" y2="365" stroke="black" />
<line x1="1350" y1="365" x2="1450" y2="385" stroke="black" />
<line x1="1450" y1="306" x2="1450" y2="365" stroke="black" />
<line x1="1450" y1="365" x2="1450" y2="385" stroke="black" />
<line x1="1550" y1="306" x2="1550" y2="365" stroke="black" />
<line x1="1550" y1="365" x2="1450" y2="385" stroke="black" />
<text x="1450" y="373" font-family="Verdana" font-size="8" text-anchor="middle"  dominant-baseline="middle" fill="black" > 370</text>
<circle cx="1450" cy="385" r="4" fill="white" stroke="black" />
<line x1="1450" y1="389" x2="1450" y2="636" stroke="black" />
<line x1="1446" y1="632" x2="1454" y2="640" stroke="red" />
<line x1="1446" y1="640" x2="1454" y2="632" stroke="red" />
<text x="1450" y="648" font-family="Verdana" font-size="8" text-anchor="middle"  dominant-baseline="middle" fill="black" > 621</text>
<text x="1700" y="7" font-family="Verdana" font-size="7" text-anchor="middle"  dominant-baseline="middle" fill="black" > C9</text>
<circle cx="1700" cy="15" r="4" fill="white" stroke="black" />
<line x1="1700" y1="19" x2="1700" y2="146" stroke="black" />
<line x1="1650" y1="146" x2="1750" y2="146" stroke="black" />
<text x="1725" y="138" font-family="Verdana" font-size="8" text-anchor="middle"  dominant-baseline="middle" fill="black" > 131</text>
<circle cx="1650" cy="146" r="4" fill="white" stroke="black" />
<circle cx="1750" cy="146" r="4" fill="white" stroke="black" />
<line x1="1650" y1="150" x2="1650" y2="259" stroke="black" />
<line x1="1650" y1="259" x2="1700" y2="296" stroke="black" />
<line x1="1750" y1="150" x2="1750" y2="259" stroke="black" />
<line x1="1750" y1="259" x2="1700" y2="296" stroke="black" />
<text x="1700" y="284" font-family="Verdana" font-size="8" text-anchor="middle"  dominant-baseline="middle" fill="black" > 281</text>
<circle cx="1700" cy="296" r="4" fill="white" stroke="black" />
<line x1="1700" y1="300" x2="1700" y2="385" stroke="black" />
<line x1="1696" y1="381" x2="1704" y2="389" stroke="red" />
<line x1="1696" y1="389" x2="1704" y2="381" stroke="red" />
<text x="1700" y="397" font-family="Verdana" font-size="8" text-anchor="middle"  dominant-baseline="middle" fill="black" > 370</text>
<text x="1900" y="7" font-family="Verdana" font-size="7" text-anchor="middle"  dominant-baseline="middle" fill="black" > C10</text>
<circle cx="1900" cy="15" r="4" fill="white" stroke="black" />
<line x1="1900" y1="19" x2="1900" y2="180" stroke="black" />
<line x1="1850" y1="180" x2="1950" y2="180" stroke="black" />
<text x="1925" y="172" font-family="Verdana" font-size="8" text-anchor="middle"  dominant-baseline="middle" fill="black" > 165</text>
<circle cx="1850" cy="180" r="4" fill="white" stroke="black" />
<line x1="1850" y1="184" x2="1850" y2="528" stroke="black" />
<line x1="1846" y1="524" x2="1854" y2="532" stroke="red" />
<line x1="1846" y1="532" x2="1854" y2="524" stroke="red" />
<text x="1850" y="540" font-family="Verdana" font-size="8" text-anchor="middle"  dominant-baseline="middle" fill="black" > 513</text>
<circle cx="1950" cy="180" r="4" fill="white" stroke="black" />
<line x1="1950" y1="184" x2="1950" y2="332" stroke="black" />
<line x1="1925" y1="332" x2="1975" y2="332" stroke="black" />
<text x="1962" y="324" font-family="Verdana" font-size="8" text-anchor="middle"  dominant-baseline="middle" fill="black" > 317</text>
<circle cx="1925" cy="332" r="4" fill="white" stroke="black" />
<circle cx="1975" cy="332" r="4" fill="white" stroke="black" />
<line x1="1925" y1="336" x2="1925" y2="361" stroke="black" />
<line x1="1925" y1="361" x2="1950" y2="370" stroke="black" />
<line x1="1975" y1="336" x2="1975" y2="361" stroke="black" />
<line x1="1975" y1="361" x2="1950" y2="370" stroke="black" />
<text x="1950" y="358" font-family="Verdana" font-size="8" text-anchor="middle"  dominant-baseline="middle" fill="black" > 355</text>
<circle cx="1950" cy="370" r="4" fill="white" stroke="black" />
<line x1="1950" y1="374" x2="1950" y2="654" stroke="black" />
<line x1="1946" y1="650" x2="1954" y2="658" stroke="red" />
<line x1="1946" y1="658" x2="1954" y2="650" stroke="red" />
<text x="1950" y="666" font-family="Verdana" font-size="8" text-anchor="middle"  dominant-baseline="middle" fill="black" > 639</text>
<text x="2100" y="7" font-family="Verdana" font-size="7" text-anchor="middle"  dominant-baseline="middle" fill="black" > C11</text>
<circle cx="2100" cy="15" r="4" fill="white" stroke="black" />
<line x1="2100" y1="19" x2="2100" y2="182" stroke="black" />
<line x1="2050" y1="182" x2="2150" y2="182" stroke="black" />
<text x="2125" y="174" font-family="Verdana" font-size="8" text-anchor="middle"  dominant-baseline="middle" fill="black" > 167</text>
<circle cx="2050" cy="182" r="4" fill="white" stroke="black" />
<line x1="2050" y1="186" x2="2050" y2="300" stroke="black" />
<line x1="2025" y1="300" x2="2075" y2="300" stroke="black" />
<text x="2062" y="292" font-family="Verdana" font-size="8" text-anchor="middle"  dominant-baseline="middle" fill="black" > 285</text>
<circle cx="2025" cy="300" r="4" fill="white" stroke="black" />
<circle cx="2075" cy="300" r="4" fill="white" stroke="black" />
<line x1="2025" y1="304" x2="2025" y2="330" stroke="black" />
<line x1="2025" y1="330" x2="2050" y2="339" stroke="black" />
<line x1="2075" y1="304" x2="2075" y2="330" stroke="black" />
<line x1="2075" y1="330" x2="2050" y2="339" stroke="black" />
<text x="2050" y="327" font-family="Verdana" font-size="8" text-anchor="middle"  dominant-baseline="middle" fill="black" > 324</text>
<circle cx="2050" cy="339" r="4" fill="white" stroke="black" />
<line x1="2050" y1="343" x2="2050" y2="504" stroke="black" />
<line x1="2037" y1="504" x2="2063" y2="504" stroke="black" />
<text x="2056" y="496" font-family="Verdana" font-size="8" text-anchor="middle"  dominant-baseline="middle" fill="black" > 489</text>
<circle cx="2037" cy="504" r="4" fill="white" stroke="black" />
<circle cx="2062" cy="504" r="4" fill="white" stroke="black" />
<line x1="2037" y1="508" x2="2037" y2="549" stroke="black" />
<line x1="2037" y1="549" x2="2049" y2="564" stroke="black" />
<line x1="2062" y1="508" x2="2062" y2="549" stroke="black" />
<line x1="2062" y1="549" x2="2049" y2="564" stroke="black" />
<text x="2049" y="552" font-family="Verdana" font-size="8" text-anchor="middle"  dominant-baseline="middle" fill="black" > 549</text>
<circle cx="2049" cy="564" r="4" fill="white" stroke="black" />
<line x1="2049" y1="568" x2="2049" y2="576" stroke="black" />
<line x1="2045" y1="572" x2="2053" y2="580" stroke="red" />
<line x1="2045" y1="580" x2="2053" y2="572" stroke="red" />
<text x="2049" y="588" font-family="Verdana" font-size="8" text-anchor="middle"  dominant-baseline="middle" fill="black" > 561</text>
<circle cx="2150" cy="182" r="4" fill="white" stroke="black" />
<line x1="2150" y1="186" x2="2150" y2="353" stroke="black" />
<line x1="2125" y1="353" x2="2175" y2="353" stroke="black" />
<text x="2162" y="345" font-family="Verdana" font-size="8" text-anchor="middle"  dominant-baseline="middle" fill="black" > 338</text>
<circle cx="2125" cy="353" r="4" fill="white" stroke="black" />
<circle cx="2175" cy="353" r="4" fill="white" stroke="black" />
<line x1="2125" y1="357" x2="2125" y2="374" stroke="black" />
<line x1="2125" y1="374" x2="2150" y2="380" stroke="black" />
<line x1="2175" y1="357" x2="2175" y2="374" stroke="black" />
<line x1="2175" y1="374" x2="2150" y2="380" stroke="black" />
<text x="2150" y="368" font-family="Verdana" font-size="8" text-anchor="middle"  dominant-baseline="middle" fill="black" > 365</text>
<circle cx="2150" cy="380" r="4" fill="white" stroke="black" />
<line x1="2150" y1="384" x2="2150" y2="504" stroke="black" />
<line x1="2137" y1="504" x2="2163" y2="504" stroke="black" />
<text x="2156" y="496" font-family="Verdana" font-size="8" text-anchor="middle"  dominant-baseline="middle" fill="black" > 489</text>
<circle cx="2137" cy="504" r="4" fill="white" stroke="black" />
<circle cx="2162" cy="504" r="4" fill="white" stroke="black" />
<line x1="2137" y1="508" x2="2137" y2="528" stroke="black" />
<line x1="2137" y1="528" x2="2149" y2="536" stroke="black" />
<line x1="2162" y1="508" x2="2162" y2="528" stroke="black" />
<line x1="2162" y1="528" x2="2149" y2="536" stroke="black" />
<text x="2149" y="524" font-family="Verdana" font-size="8" text-anchor="middle"  dominant-baseline="middle" fill="black" > 521</text>
<circle cx="2149" cy="536" r="4" fill="white" stroke="black" />
<line x1="2149" y1="540" x2="2149" y2="576" stroke="black" />
<line x1="2145" y1="572" x2="2153" y2="580" stroke="red" />
<line x1="2145" y1="580" x2="2153" y2="572" stroke="red" />
<text x="2149" y="588" font-family="Verdana" font-size="8" text-anchor="middle"  dominant-baseline="middle" fill="black" > 561</text>
<text x="2250" y="7" font-family="Verdana" font-size="7" text-anchor="middle"  dominant-baseline="middle" fill="black" > C12</text>
<circle cx="2250" cy="15" r="4" fill="white" stroke="black" />
<line x1="2250" y1="19" x2="2250" y2="135" stroke="black" />
<line x1="2246" y1="131" x2="2254" y2="139" stroke="red" />
<line x1="2246" y1="139" x2="2254" y2="131" stroke="red" />
<text x="2250" y="147" font-family="Verdana" font-size="8" text-anchor="middle"  dominant-baseline="middle" fill="black" > 120</text>
<text x="2450" y="7" font-family="Verdana" font-size="7" text-anchor="middle"  dominant-baseline="middle" fill="black" > C13</text>
<circle cx="2450" cy="15" r="4" fill="white" stroke="black" />
<line x1="2450" y1="19" x2="2450" y2="378" stroke="black" />
<line x1="2350" y1="378" x2="2550" y2="378" stroke="black" />
<text x="2475" y="370" font-family="Verdana" font-size="8" text-anchor="middle"  dominant-baseline="middle" fill="black" > 363</text>
<circle cx="2350" cy="378" r="4" fill="white" stroke="black" />
<circle cx="2450" cy="378" r="4" fill="white" stroke="black" />
<line x1="2350" y1="382" x2="2350" y2="411" stroke="black" />
<line x1="2350" y1="411" x2="2400" y2="422" stroke="black" />
<line x1="2450" y1="382" x2="2450" y2="411" stroke="black" />
<line x1="2450" y1="411" x2="2400" y2="422" stroke="black" />
<text x="2400" y="410" font-family="Verdana" font-size="8" text-anchor="middle"  dominant-baseline="middle" fill="black" > 407</text>
<circle cx="2400" cy="422" r="4" fill="white" stroke="black" />
<circle cx="2550" cy="378" r="4" fill="white" stroke="black" />
<line x1="2400" y1="426" x2="2400" y2="437" stroke="black" />
<line x1="2400" y1="437" x2="2475" y2="441" stroke="black" />
<line x1="2550" y1="382" x2="2550" y2="437" stroke="black" />
<line x1="2550" y1="437" x2="2475" y2="441" stroke="black" />
<text x="2475" y="429" font-family="Verdana" font-size="8" text-anchor="middle"  dominant-baseline="middle" fill="black" > 426</text>
<circle cx="2475" cy="441" r="4" fill="white" stroke="black" />
<line x1="2475" y1="445" x2="2475" y2="505" stroke="black" />
<line x1="2471" y1="501" x2="2479" y2="509" stroke="red" />
<line x1="2471" y1="509" x2="2479" y2="501" stroke="red" />
<text x="2475" y="517" font-family="Verdana" font-size="8" text-anchor="middle"  dominant-baseline="middle" fill="black" > 490</text>
<text x="2750" y="7" font-family="Verdana" font-size="7" text-anchor="middle"  dominant-baseline="middle" fill="black" > C14</text>
<circle cx="2750" cy="15" r="4" fill="white" stroke="black" />
<line x1="2750" y1="19" x2="2750" y2="116" stroke="black" />
<line x1="2650" y1="116" x2="2850" y2="116" stroke="black" />
<text x="2775" y="108" font-family="Verdana" font-size="8" text-anchor="middle"  dominant-baseline="middle" fill="black" > 101</text>
<circle cx="2650" cy="116" r="4" fill="white" stroke="black" />
<circle cx="2750" cy="116" r="4" fill="white" stroke="black" />
<circle cx="2850" cy="116" r="4" fill="white" stroke="black" />
<line x1="2650" y1="120" x2="2650" y2="319" stroke="black" />
<line x1="2650" y1="319" x2="2750" y2="386" stroke="black" />
<line x1="2750" y1="120" x2="2750" y2="319" stroke="black" />
<line x1="2750" y1="319" x2="2750" y2="386" stroke="black" />
<line x1="2850" y1="120" x2="2850" y2="319" stroke="black" />
<line x1="2850" y1="319" x2="2750" y2="386" stroke="black" />
<text x="2750" y="374" font-family="Verdana" font-size="8" text-anchor="middle"  dominant-baseline="middle" fill="black" > 371</text>
<circle cx="2750" cy="386" r="4" fill="white" stroke="black" />
<line x1="2750" y1="390" x2="2750" y2="491" stroke="black" />
<line x1="2746" y1="487" x2="2754" y2="495" stroke="red" />
<line x1="2746" y1="495" x2="2754" y2="487" stroke="red" />
<text x="2750" y="503" font-family="Verdana" font-size="8" text-anchor="middle"  dominant-baseline="middle" fill="black" > 476</text>
<text x="3000" y="7" font-family="Verdana" font-size="7" text-anchor="middle"  dominant-baseline="middle" fill="black" > C15</text>
<circle cx="3000" cy="15" r="4" fill="white" stroke="black" />
<line x1="3000" y1="19" x2="3000" y2="179" stroke="black" />
<line x1="2950" y1="179" x2="3050" y2="179" stroke="black" />
<text x="3025" y="171" font-family="Verdana" font-size="8" text-anchor="middle"  dominant-baseline="middle" fill="black" > 164</text>
<circle cx="2950" cy="179" r="4" fill="white" stroke="black" />
<line x1="2950" y1="183" x2="2950" y2="533" stroke="black" />
<line x1="2946" y1="529" x2="2954" y2="537" stroke="red" />
<line x1="2946" y1="537" x2="2954" y2="529" stroke="red" />
<text x="2950" y="545" font-family="Verdana" font-size="8" text-anchor="middle"  dominant-baseline="middle" fill="black" > 518</text>
<circle cx="3050" cy="179" r="4" fill="white" stroke="black" />
<line x1="3050" y1="183" x2="3050" y2="672" stroke="black" />
<line x1="3046" y1="668" x2="3054" y2="676" stroke="red" />
<line x1="3046" y1="676" x2="3054" y2="668" stroke="red" />
<text x="3050" y="684" font-family="Verdana" font-size="8" text-anchor="middle"  dominant-baseline="middle" fill="black" > 657</text>
<text x="3200" y="7" font-family="Verdana" font-size="7" text-anchor="middle"  dominant-baseline="middle" fill="black" > C16</text>
<circle cx="3200" cy="15" r="4" fill="white" stroke="black" />
<line x1="3200" y1="19" x2="3200" y2="191" stroke="black" />
<line x1="3150" y1="191" x2="3250" y2="191" stroke="black" />
<text x="3225" y="183" font-family="Verdana" font-size="8" text-anchor="middle"  dominant-baseline="middle" fill="black" > 176</text>
<circle cx="3150" cy="191" r="4" fill="white" stroke="black" />
<circle cx="3250" cy="191" r="4" fill="white" stroke="black" />
<line x1="3150" y1="195" x2="3150" y2="290" stroke="black" />
<line x1="3150" y1="290" x2="3200" y2="322" stroke="black" />
<line x1="3250" y1="195" x2="3250" y2="290" stroke="black" />
<line x1="3250" y1="290" x2="3200" y2="322" stroke="black" />
<text x="3200" y="310" font-family="Verdana" font-size="8" text-anchor="middle"  dominant-baseline="middle" fill="black" > 307</text>
<circle cx="3200" cy="322" r="4" fill="white" stroke="black" />
<line x1="3200" y1="326" x2="3200" y2="527" stroke="black" />
<line x1="3196" y1="523" x2="3204" y2="531" stroke="red" />
<line x1="3196" y1="531" x2="3204" y2="523" stroke="red" />
<text x="3200" y="539" font-family="Verdana" font-size="8" text-anchor="middle"  dominant-baseline="middle" fill="black" > 512</text>
<text x="3450" y="7" font-family="Verdana" font-size="7" text-anchor="middle"  dominant-baseline="middle" fill="black" > C17</text>
<circle cx="3450" cy="15" r="4" fill="white" stroke="black" />
<line x1="3450" y1="19" x2="3450" y2="240" stroke="black" />
<line x1="3350" y1="240" x2="3550" y2="240" stroke="black" />
<text x="3475" y="232" font-family="Verdana" font-size="8" text-anchor="middle"  dominant-baseline="middle" fill="black" > 225</text>
<circle cx="3350" cy="240" r="4" fill="white" stroke="black" />
<circle cx="3450" cy="240" r="4" fill="white" stroke="black" />
<circle cx="3550" cy="240" r="4" fill="white" stroke="black" />
<line x1="3350" y1="244" x2="3350" y2="304" stroke="black" />
<line x1="3350" y1="304" x2="3450" y2="325" stroke="black" />
<line x1="3450" y1="244" x2="3450" y2="304" stroke="black" />
<line x1="3450" y1="304" x2="3450" y2="325" stroke="black" />
<line x1="3550" y1="244" x2="3550" y2="304" stroke="black" />
<line x1="3550" y1="304" x2="3450" y2="325" stroke="black" />
<text x="3450" y="313" font-family="Verdana" font-size="8" text-anchor="middle"  dominant-baseline="middle" fill="black" > 310</text>
<circle cx="3450" cy="325" r="4" fill="white" stroke="black" />
<line x1="3450" y1="329" x2="3450" y2="502" stroke="black" />
<line x1="3446" y1="498" x2="3454" y2="506" stroke="red" />
<line x1="3446" y1="506" x2="3454" y2="498" stroke="red" />
<text x="3450" y="514" font-family="Verdana" font-size="8" text-anchor="middle"  dominant-baseline="middle" fill="black" > 487</text>
<text x="3750" y="7" font-family="Verdana" font-size="7" text-anchor="middle"  dominant-baseline="middle" fill="black" > C18</text>
<circle cx="3750" cy="15" r="4" fill="white" stroke="black" />
<line x1="3750" y1="19" x2="3750" y2="177" stroke="black" />
<line x1="3650" y1="177" x2="3850" y2="177" stroke="black" />
<text x="3775" y="169" font-family="Verdana" font-size="8" text-anchor="middle"  dominant-baseline="middle" fill="black" > 162</text>
<circle cx="3650" cy="177" r="4" fill="white" stroke="black" />
<circle cx="3750" cy="177" r="4" fill="white" stroke="black" />
<line x1="3650" y1="181" x2="3650" y2="269" stroke="black" />
<line x1="3650" y1="269" x2="3700" y2="299" stroke="black" />
<line x1="3750" y1="181" x2="3750" y2="269" stroke="black" />
<line x1="3750" y1="269" x2="3700" y2="299" stroke="black" />
<text x="3700" y="287" font-family="Verdana" font-size="8" text-anchor="middle"  dominant-baseline="middle" fill="black" > 284</text>
<circle cx="3700" cy="299" r="4" fill="white" stroke="black" />
<circle cx="3850" cy="177" r="4" fill="white" stroke="black" />
<line x1="3700" y1="303" x2="3700" y2="312" stroke="black" />
<line x1="3700" y1="312" x2="3775" y2="316" stroke="black" />
<line x1="3850" y1="181" x2="3850" y2="312" stroke="black" />
<line x1="3850" y1="312" x2="3775" y2="316" stroke="black" />
<text x="3775" y="304" font-family="Verdana" font-size="8" text-anchor="middle"  dominant-baseline="middle" fill="black" > 301</text>
<circle cx="3775" cy="316" r="4" fill="white" stroke="black" />
<line x1="3775" y1="320" x2="3775" y2="407" stroke="black" />
<line x1="3771" y1="403" x2="3779" y2="411" stroke="red" />
<line x1="3771" y1="411" x2="3779" y2="403" stroke="red" />
<text x="3775" y="419" font-family="Verdana" font-size="8" text-anchor="middle"  dominant-baseline="middle" fill="black" > 392</text>
<text x="4050" y="7" font-family="Verdana" font-size="7" text-anchor="middle"  dominant-baseline="middle" fill="black" > C19</text>
<circle cx="4050" cy="15" r="4" fill="white" stroke="black" />
<line x1="4050" y1="19" x2="4050" y2="351" stroke="black" />
<line x1="3950" y1="351" x2="4150" y2="351" stroke="black" />
<text x="4075" y="343" font-family="Verdana" font-size="8" text-anchor="middle"  dominant-baseline="middle" fill="black" > 336</text>
<circle cx="3950" cy="351" r="4" fill="white" stroke="black" />
<circle cx="4050" cy="351" r="4" fill="white" stroke="black" />
<line x1="3950" y1="355" x2="3950" y2="407" stroke="black" />
<line x1="3950" y1="407" x2="4000" y2="425" stroke="black" />
<line x1="4050" y1="355" x2="4050" y2="407" stroke="black" />
<line x1="4050" y1="407" x2="4000" y2="425" stroke="black" />
<text x="4000" y="413" font-family="Verdana" font-size="8" text-anchor="middle"  dominant-baseline="middle" fill="black" > 410</text>
<circle cx="4000" cy="425" r="4" fill="white" stroke="black" />
<circle cx="4150" cy="351" r="4" fill="white" stroke="black" />
<line x1="4000" y1="429" x2="4000" y2="431" stroke="black" />
<line x1="4000" y1="431" x2="4075" y2="432" stroke="black" />
<line x1="4150" y1="355" x2="4150" y2="431" stroke="black" />
<line x1="4150" y1="431" x2="4075" y2="432" stroke="black" />
<text x="4075" y="420" font-family="Verdana" font-size="8" text-anchor="middle"  dominant-baseline="middle" fill="black" > 417</text>
<circle cx="4075" cy="432" r="4" fill="white" stroke="black" />
<line x1="4075" y1="436" x2="4075" y2="487" stroke="black" />
<line x1="4071" y1="483" x2="4079" y2="491" stroke="red" />
<line x1="4071" y1="491" x2="4079" y2="483" stroke="red" />
<text x="4075" y="499" font-family="Verdana" font-size="8" text-anchor="middle"  dominant-baseline="middle" fill="black" > 472</text>
<text x="4300" y="7" font-family="Verdana" font-size="7" text-anchor="middle"  dominant-baseline="middle" fill="black" > C20</text>
<circle cx="4300" cy="15" r="4" fill="white" stroke="black" />
<line x1="4300" y1="19" x2="4300" y2="131" stroke="black" />
<line x1="4250" y1="131" x2="4350" y2="131" stroke="black" />
<text x="4325" y="123" font-family="Verdana" font-size="8" text-anchor="middle"  dominant-baseline="middle" fill="black" > 116</text>
<circle cx="4250" cy="131" r="4" fill="white" stroke="black" />
<circle cx="4350" cy="131" r="4" fill="white" stroke="black" />
<line x1="4250" y1="135" x2="4250" y2="176" stroke="black" />
<line x1="4250" y1="176" x2="4300" y2="191" stroke="black" />
<line x1="4350" y1="135" x2="4350" y2="176" stroke="black" />
<line x1="4350" y1="176" x2="4300" y2="191" stroke="black" />
<text x="4300" y="179" font-family="Verdana" font-size="8" text-anchor="middle"  dominant-baseline="middle" fill="black" > 176</text>
<circle cx="4300" cy="191" r="4" fill="white" stroke="black" />
<line x1="4300" y1="195" x2="4300" y2="240" stroke="black" />
<line x1="4275" y1="240" x2="4325" y2="240" stroke="black" />
<text x="4312" y="232" font-family="Verdana" font-size="8" text-anchor="middle"  dominant-baseline="middle" fill="black" > 225</text>
<circle cx="4275" cy="240" r="4" fill="white" stroke="black" />
<line x1="4275" y1="244" x2="4275" y2="476" stroke="black" />
<line x1="4271" y1="472" x2="4279" y2="480" stroke="red" />
<line x1="4271" y1="480" x2="4279" y2="472" stroke="red" />
<text x="4275" y="488" font-family="Verdana" font-size="8" text-anchor="middle"  dominant-baseline="middle" fill="black" > 461</text>
<circle cx="4325" cy="240" r="4" fill="white" stroke="black" />
<line x1="4325" y1="244" x2="4325" y2="476" stroke="black" />
<line x1="4321" y1="472" x2="4329" y2="480" stroke="red" />
<line x1="4321" y1="480" x2="4329" y2="472" stroke="red" />
<text x="4325" y="488" font-family="Verdana" font-size="8" text-anchor="middle"  dominant-baseline="middle" fill="black" > 461</text>
<text x="4450" y="7" font-family="Verdana" font-size="7" text-anchor="middle"  dominant-baseline="middle" fill="black" > C21</text>
<circle cx="4450" cy="15" r="4" fill="white" stroke="black" />
<line x1="4450" y1="19" x2="4450" y2="284" stroke="black" />
<line x1="4446" y1="280" x2="4454" y2="288" stroke="red" />
<line x1="4446" y1="288" x2="4454" y2="280" stroke="red" />
<text x="4450" y="296" font-family="Verdana" font-size="8" text-anchor="middle"  dominant-baseline="middle" fill="black" > 269</text>
<text x="4650" y="7" font-family="Verdana" font-size="7" text-anchor="middle"  dominant-baseline="middle" fill="black" > C22</text>
<circle cx="4650" cy="15" r="4" fill="white" stroke="black" />
<line x1="4650" y1="19" x2="4650" y2="380" stroke="black" />
<line x1="4550" y1="380" x2="4750" y2="380" stroke="black" />
<text x="4675" y="372" font-family="Verdana" font-size="8" text-anchor="middle"  dominant-baseline="middle" fill="black" > 365</text>
<circle cx="4550" cy="380" r="4" fill="white" stroke="black" />
<circle cx="4650" cy="380" r="4" fill="white" stroke="black" />
<circle cx="4750" cy="380" r="4" fill="white" stroke="black" />
<line x1="4550" y1="384" x2="4550" y2="426" stroke="black" />
<line x1="4550" y1="426" x2="4650" y2="441" stroke="black" />
<line x1="4650" y1="384" x2="4650" y2="426" stroke="black" />
<line x1="4650" y1="426" x2="4650" y2="441" stroke="black" />
<line x1="4750" y1="384" x2="4750" y2="426" stroke="black" />
<line x1="4750" y1="426" x2="4650" y2="441" stroke="black" />
<text x="4650" y="429" font-family="Verdana" font-size="8" text-anchor="middle"  dominant-baseline="middle" fill="black" > 426</text>
<circle cx="4650" cy="441" r="4" fill="white" stroke="black" />
<line x1="4650" y1="445" x2="4650" y2="623" stroke="black" />
<line x1="4646" y1="627" x2="4650" y2="619" stroke="blue" />
<line x1="4650" y1="627" x2="4654" y2="619" stroke="blue" />
<text x="4650" y="635" font-family="Verdana" font-size="8" text-anchor="middle"  dominant-baseline="middle" fill="black" > 608</text>
<text x="4850" y="7" font-family="Verdana" font-size="7" text-anchor="middle"  dominant-baseline="middle" fill="black" > C23</text>
<circle cx="4850" cy="15" r="4" fill="white" stroke="black" />
<line x1="4850" y1="19" x2="4850" y2="455" stroke="black" />
<line x1="4846" y1="451" x2="4854" y2="459" stroke="red" />
<line x1="4846" y1="459" x2="4854" y2="451" stroke="red" />
<text x="4850" y="467" font-family="Verdana" font-size="8" text-anchor="middle"  dominant-baseline="middle" fill="black" > 440</text>
</svg>
