<?xml version="1.0" encoding="utf-8"?>
<svg xmlns="http://www.w3.org/2000/svg" version="1.1" width="5250" height="750">
<rect width="5250" height="15" x="0" y="0" fill="white" />
<rect width="5250" height="15" x="0" y="735" fill="white" />
<rect width="25" height="750" x="0" y="0" fill="white" />
<rect width="25" height="750" x="5225" y="0" fill="white" />
<rect width="5210" height="144" x="25" y="15" fill="ghostwhite" />
<rect width="5210" height="144" x="25" y="159" fill="snow" />
<rect width="5210" height="144" x="25" y="303" fill="ghostwhite" />
<rect width="5210" height="144" x="25" y="447" fill="snow" />
<rect width="5210" height="144" x="25" y="591" fill="ghostwhite" />
<text x="12" y="87" font-family="Verdana" font-size="10" text-anchor="middle"  dominant-baseline="middle" fill="red" > D0</text>
<text x="12" y="231" font-family="Verdana" font-size="10" text-anchor="middle"  dominant-baseline="middle" fill="red" > D1</text>
<text x="12" y="375" font-family="Verdana" font-size="10" text-anchor="middle"  dominant-baseline="middle" fill="red" > D2</text>
<text x="12" y="519" font-family="Verdana" font-size="10" text-anchor="middle"  dominant-baseline="middle" fill="red" > D3</text>
<text x="12" y="663" font-family="Verdana" font-size="10" text-anchor="middle"  dominant-baseline="middle" fill="red" > D4</text>
<text x="12" y="20" font-family="Verdana" font-size="10" text-anchor="middle"  dominant-baseline="middle" fill="black" > 0</text>
<text x="12" y="164" font-family="Verdana" font-size="10" text-anchor="middle"  dominant-baseline="middle" fill="black" > 144</text>
<text x="12" y="308" font-family="Verdana" font-size="10" text-anchor="middle"  dominant-baseline="middle" fill="black" > 288</text>
<text x="12" y="452" font-family="Verdana" font-size="10" text-anchor="middle"  dominant-baseline="middle" fill="black" > 432</text>
<text x="12" y="596" font-family="Verdana" font-size="10" text-anchor="middle"  dominant-baseline="middle" fill="black" > 576</text>
<text x="12" y="740" font-family="Verdana" font-size="10" text-anchor="middle"  dominant-baseline="middle" fill="black" > 720</text>
<text x="100" y="7" font-family="Verdana" font-size="7" text-anchor="middle"  dominant-baseline="middle" fill="black" > C1</text>
<circle cx="100" cy="15" r="4" fill="white" stroke="black" />
<line x1="100" y1="19" x2="100" y2="200" stroke="black" />
<line x1="50" y1="200" x2="150" y2="200" stroke="black" />
<text x="125" y="192" font-family="Verdana" font-size="8" text-anchor="middle"  dominant-baseline="middle" fill="black" > 185</text>
<circle cx="50" cy="200" r="4" fill="white" stroke="black" />
<line x1="50" y1="204" x2="50" y2="482" stroke="black" />
<line x1="46" y1="478" x2="54" y2="486" stroke="red" />
<line x1="46" y1="486" x2="54" y2="478" stroke="red" />
<text x="50" y="494" font-family="Verdana" font-size="8" text-anchor="middle"  dominant-baseline="middle" fill="black" > 467</text>
<circle cx="150" cy="200" r="4" fill="white" stroke="black" />
<line x1="150" y1="204" x2="150" y2="343" stroke="black" />
<line x1="125" y1="343" x2="175" y2="343" stroke="black" />
<text x="162" y="335" font-family="Verdana" font-size="8" text-anchor="middle"  dominant-baseline="middle" fill="black" > 328</text>
<circle cx="125" cy="343" r="4" fill="white" stroke="black" />
<line x1="125" y1="347" x2="125" y2="736" stroke="black" />
<circle cx="125" cy="736" r="4" fill="white" stroke="black" />
<text x="125" y="748" font-family="Verdana" font-size="8" text-anchor="middle"  dominant-baseline="middle" fill="black" > 721</text>
<circle cx="175" cy="343" r="4" fill="white" stroke="black" />
<line x1="175" y1="347" x2="175" y2="545" stroke="black" />
<line x1="162" y1="545" x2="188" y2="545" stroke="black" />
<text x="181" y="537" font-family="Verdana" font-size="8" text-anchor="middle"  dominant-baseline="middle" fill="black" > 530</text>
<circle cx="162" cy="545" r="4" fill="white" stroke="black" />
<line x1="162" y1="549" x2="162" y2="701" stroke="black" />
<line x1="158" y1="697" x2="166" y2="705" stroke="red" />
<line x1="158" y1="705" x2="166" y2="697" stroke="red" />
<text x="162" y="713" font-family="Verdana" font-size="8" text-anchor="middle"  dominant-baseline="middle" fill="black" > 686</text>
<circle cx="187" cy="545" r="4" fill="white" stroke="black" />
<line x1="187" y1="549" x2="187" y2="715" stroke="black" />
<line x1="181" y1="715" x2="194" y2="715" stroke="black" />
<text x="190" y="707" font-family="Verdana" font-size="8" text-anchor="middle"  dominant-baseline="middle" fill="black" > 700</text>
<circle cx="181" cy="715" r="4" fill="white" stroke="black" />
<line x1="181" y1="719" x2="181" y2="736" stroke="black" />
<circle cx="181" cy="736" r="4" fill="white" stroke="black" />
<text x="181" y="748" font-family="Verdana" font-size="8" text-anchor="middle"  dominant-baseline="middle" fill="black" > 721</text>
<circle cx="193" cy="715" r="4" fill="white" stroke="black" />
<line x1="193" y1="719" x2="193" y2="736" stroke="black" />
<circle cx="193" cy="736" r="4" fill="white" stroke="black" />
<text x="193" y="748" font-family="Verdana" font-size="8" text-anchor="middle"  dominant-baseline="middle" fill="black" > 721</text>
<text x="350" y="7" font-family="Verdana" font-size="7" text-anchor="middle"  dominant-baseline="middle" fill="black" > C2</text>
<circle cx="350" cy="15" r="4" fill="white" stroke="black" />
<line x1="350" y1="19" x2="350" y2="294" stroke="black" />
<line x1="250" y1="294" x2="450" y2="294" stroke="black" />
<text x="375" y="286" font-family="Verdana" font-size="8" text-anchor="middle"  dominant-baseline="middle" fill="black" > 279</text>
<circle cx="250" cy="294" r="4" fill="white" stroke="black" />
<circle cx="350" cy="294" r="4" fill="white" stroke="black" />
<line x1="250" y1="298" x2="250" y2="302" stroke="black" />
<line x1="250" y1="302" x2="300" y2="304" stroke="black" />
<line x1="350" y1="298" x2="350" y2="302" stroke="black" />
<line x1="350" y1="302" x2="300" y2="304" stroke="black" />
<text x="300" y="292" font-family="Verdana" font-size="8" text-anchor="middle"  dominant-baseline="middle" fill="black" > 289</text>
<circle cx="300" cy="304" r="4" fill="white" stroke="black" />
<line x1="300" y1="308" x2="300" y2="386" stroke="black" />
<line x1="296" y1="382" x2="304" y2="390" stroke="red" />
<line x1="296" y1="390" x2="304" y2="382" stroke="red" />
<text x="300" y="398" font-family="Verdana" font-size="8" text-anchor="middle"  dominant-baseline="middle" fill="black" > 371</text>
<circle cx="450" cy="294" r="4" fill="white" stroke="black" />
<line x1="450" y1="298" x2="450" y2="736" stroke="black" />
<circle cx="450" cy="736" r="4" fill="white" stroke="black" />
<text x="450" y="748" font-family="Verdana" font-size="8" text-anchor="middle"  dominant-baseline="middle" fill="black" > 721</text>
<text x="650" y="7" font-family="Verdana" font-size="7" text-anchor="middle"  dominant-baseline="middle" fill="black" > C3</text>
<circle cx="650" cy="15" r="4" fill="white" stroke="black" />
<line x1="650" y1="19" x2="650" y2="345" stroke="black" />
<line x1="550" y1="345" x2="750" y2="345" stroke="black" />
<text x="675" y="337" font-family="Verdana" font-size="8" text-anchor="middle"  dominant-baseline="middle" fill="black" > 330</text>
<circle cx="550" cy="345" r="4" fill="white" stroke="black" />
<circle cx="650" cy="345" r="4" fill="white" stroke="black" />
<line x1="550" y1="349" x2="550" y2="353" stroke="black" />
<line x1="550" y1="353" x2="600" y2="355" stroke="black" />
<line x1="650" y1="349" x2="650" y2="353" stroke="black" />
<line x1="650" y1="353" x2="600" y2="355" stroke="black" />
<text x="600" y="343" font-family="Verdana" font-size="8" text-anchor="middle"  dominant-baseline="middle" fill="black" > 340</text>
<circle cx="600" cy="355" r="4" fill="white" stroke="black" />
<circle cx="750" cy="345" r="4" fill="white" stroke="black" />
<line x1="600" y1="359" x2="600" y2="357" stroke="black" />
<line x1="600" y1="357" x2="675" y2="357" stroke="black" />
<line x1="750" y1="349" x2="750" y2="357" stroke="black" />
<line x1="750" y1="357" x2="675" y2="357" stroke="black" />
<text x="675" y="345" font-family="Verdana" font-size="8" text-anchor="middle"  dominant-baseline="middle" fill="black" > 342</text>
<circle cx="675" cy="357" r="4" fill="white" stroke="black" />
<line x1="675" y1="361" x2="675" y2="539" stroke="black" />
<line x1="671" y1="535" x2="679" y2="543" stroke="red" />
<line x1="671" y1="543" x2="679" y2="535" stroke="red" />
<text x="675" y="551" font-family="Verdana" font-size="8" text-anchor="middle"  dominant-baseline="middle" fill="black" > 524</text>
<text x="900" y="7" font-family="Verdana" font-size="7" text-anchor="middle"  dominant-baseline="middle" fill="black" > C4</text>
<circle cx="900" cy="15" r="4" fill="white" stroke="black" />
<line x1="900" y1="19" x2="900" y2="201" stroke="black" />
<line x1="850" y1="201" x2="950" y2="201" stroke="black" />
<text x="925" y="193" font-family="Verdana" font-size="8" text-anchor="middle"  dominant-baseline="middle" fill="black" > 186</text>
<circle cx="850" cy="201" r="4" fill="white" stroke="black" />
<line x1="850" y1="205" x2="850" y2="707" stroke="black" />
<line x1="846" y1="703" x2="854" y2="711" stroke="red" />
<line x1="846" y1="711" x2="854" y2="703" stroke="red" />
<text x="850" y="719" font-family="Verdana" font-size="8" text-anchor="middle"  dominant-baseline="middle" fill="black" > 692</text>
<circle cx="950" cy="201" r="4" fill="white" stroke="black" />
<line x1="950" y1="205" x2="950" y2="704" stroke="black" />
<line x1="946" y1="700" x2="954" y2="708" stroke="red" />
<line x1="946" y1="708" x2="954" y2="700" stroke="red" />
<text x="950" y="716" font-family="Verdana" font-size="8" text-anchor="middle"  dominant-baseline="middle" fill="black" > 689</text>
<text x="1200" y="7" font-family="Verdana" font-size="7" text-anchor="middle"  dominant-baseline="middle" fill="black" > C5</text>
<circle cx="1200" cy="15" r="4" fill="white" stroke="black" />
<line x1="1200" y1="19" x2="1200" y2="171" stroke="black" />
<line x1="1050" y1="171" x2="1350" y2="171" stroke="black" />
<text x="1225" y="163" font-family="Verdana" font-size="8" text-anchor="middle"  dominant-baseline="middle" fill="black" > 156</text>
<circle cx="1050" cy="171" r="4" fill="white" stroke="black" />
<circle cx="1150" cy="171" r="4" fill="white" stroke="black" />
<line x1="1050" y1="175" x2="1050" y2="201" stroke="black" />
<line x1="1050" y1="201" x2="1100" y2="210" stroke="black" />
<line x1="1150" y1="175" x2="1150" y2="201" stroke="black" />
<line x1="1150" y1="201" x2="1100" y2="210" stroke="black" />
<text x="1100" y="198" font-family="Verdana" font-size="8" text-anchor="middle"  dominant-baseline="middle" fill="black" > 195</text>
<circle cx="1100" cy="210" r="4" fill="white" stroke="black" />
<circle cx="1250" cy="171" r="4" fill="white" stroke="black" />
<line x1="1100" y1="214" x2="1100" y2="231" stroke="black" />
<line x1="1100" y1="231" x2="1175" y2="237" stroke="black" />
<line x1="1250" y1="175" x2="1250" y2="231" stroke="black" />
<line x1="1250" y1="231" x2="1175" y2="237" stroke="black" />
<text x="1175" y="225" font-family="Verdana" font-size="8" text-anchor="middle"  dominant-baseline="middle" fill="black" > 222</text>
<circle cx="1175" cy="237" r="4" fill="white" stroke="black" />
<circle cx="1350" cy="171" r="4" fill="white" stroke="black" />
<line x1="1175" y1="241" x2="1175" y2="238" stroke="black" />
<line x1="1175" y1="238" x2="1262" y2="238" stroke="black" />
<line x1="1350" y1="175" x2="1350" y2="238" stroke="black" />
<line x1="1350" y1="238" x2="1262" y2="238" stroke="black" />
<text x="1262" y="226" font-family="Verdana" font-size="8" text-anchor="middle"  dominant-baseline="middle" fill="black" > 223</text>
<circle cx="1262" cy="238" r="4" fill="white" stroke="black" />
<line x1="1262" y1="242" x2="1262" y2="405" stroke="black" />
<line x1="1204" y1="405" x2="1321" y2="405" stroke="black" />
<text x="1276" y="397" font-family="Verdana" font-size="8" text-anchor="middle"  dominant-baseline="middle" fill="black" > 390</text>
<circle cx="1204" cy="405" r="4" fill="white" stroke="black" />
<circle cx="1262" cy="405" r="4" fill="white" stroke="black" />
<circle cx="1320" cy="405" r="4" fill="white" stroke="black" />
<line x1="1204" y1="409" x2="1204" y2="414" stroke="black" />
<line x1="1204" y1="414" x2="1262" y2="416" stroke="black" />
<line x1="1262" y1="409" x2="1262" y2="414" stroke="black" />
<line x1="1262" y1="414" x2="1262" y2="416" stroke="black" />
<line x1="1320" y1="409" x2="1320" y2="414" stroke="black" />
<line x1="1320" y1="414" x2="1262" y2="416" stroke="black" />
<text x="1262" y="404" font-family="Verdana" font-size="8" text-anchor="middle"  dominant-baseline="middle" fill="black" > 401</text>
<circle cx="1262" cy="416" r="4" fill="white" stroke="black" />
<line x1="1262" y1="420" x2="1262" y2="736" stroke="black" />
<circle cx="1262" cy="736" r="4" fill="white" stroke="black" />
<text x="1262" y="748" font-family="Verdana" font-size="8" text-anchor="middle"  dominant-baseline="middle" fill="black" > 721</text>
<text x="1500" y="7" font-family="Verdana" font-size="7" text-anchor="middle"  dominant-baseline="middle" fill="black" > C6</text>
<circle cx="1500" cy="15" r="4" fill="white" stroke="black" />
<line x1="1500" y1="19" x2="1500" y2="317" stroke="black" />
<line x1="1450" y1="317" x2="1550" y2="317" stroke="black" />
<text x="1525" y="309" font-family="Verdana" font-size="8" text-anchor="middle"  dominant-baseline="middle" fill="black" > 302</text>
<circle cx="1450" cy="317" r="4" fill="white" stroke="black" />
<circle cx="1550" cy="317" r="4" fill="white" stroke="black" />
<line x1="1450" y1="321" x2="1450" y2="395" stroke="black" />
<line x1="1450" y1="395" x2="1500" y2="421" stroke="black" />
<line x1="1550" y1="321" x2="1550" y2="395" stroke="black" />
<line x1="1550" y1="395" x2="1500" y2="421" stroke="black" />
<text x="1500" y="409" font-family="Verdana" font-size="8" text-anchor="middle"  dominant-baseline="middle" fill="black" > 406</text>
<circle cx="1500" cy="421" r="4" fill="white" stroke="black" />
<line x1="1500" y1="425" x2="1500" y2="736" stroke="black" />
<circle cx="1500" cy="736" r="4" fill="white" stroke="black" />
<text x="1500" y="748" font-family="Verdana" font-size="8" text-anchor="middle"  dominant-baseline="middle" fill="black" > 721</text>
<text x="1650" y="7" font-family="Verdana" font-size="7" text-anchor="middle"  dominant-baseline="middle" fill="black" > C7</text>
<circle cx="1650" cy="15" r="4" fill="white" stroke="black" />
<line x1="1650" y1="19" x2="1650" y2="244" stroke="black" />
<line x1="1646" y1="248" x2="1650" y2="240" stroke="blue" />
<line x1="1650" y1="248" x2="1654" y2="240" stroke="blue" />
<text x="1650" y="256" font-family="Verdana" font-size="8" text-anchor="middle"  dominant-baseline="middle" fill="black" > 229</text>
<text x="1800" y="7" font-family="Verdana" font-size="7" text-anchor="middle"  dominant-baseline="middle" fill="black" > C8</text>
<circle cx="1800" cy="15" r="4" fill="white" stroke="black" />
<line x1="1800" y1="19" x2="1800" y2="188" stroke="black" />
<line x1="1750" y1="188" x2="1850" y2="188" stroke="black" />
<text x="1825" y="180" font-family="Verdana" font-size="8" text-anchor="middle"  dominant-baseline="middle" fill="black" > 173</text>
<circle cx="1750" cy="188" r="4" fill="white" stroke="black" />
<line x1="1750" y1="192" x2="1750" y2="358" stroke="black" />
<line x1="1746" y1="362" x2="1750" y2="354" stroke="blue" />
<line x1="1750" y1="362" x2="1754" y2="354" stroke="blue" />
<text x="1750" y="370" font-family="Verdana" font-size="8" text-anchor="middle"  dominant-baseline="middle" fill="black" > 343</text>
<circle cx="1850" cy="188" r="4" fill="white" stroke="black" />
<line x1="1850" y1="192" x2="1850" y2="360" stroke="black" />
<line x1="1825" y1="360" x2="1875" y2="360" stroke="black" />
<text x="1862" y="352" font-family="Verdana" font-size="8" text-anchor="middle"  dominant-baseline="middle" fill="black" > 345</text>
<circle cx="1825" cy="360" r="4" fill="white" stroke="black" />
<line x1="1825" y1="364" x2="1825" y2="521" stroke="black" />
<line x1="1821" y1="525" x2="1825" y2="517" stroke="blue" />
<line x1="1825" y1="525" x2="1829" y2="517" stroke="blue" />
<text x="1825" y="533" font-family="Verdana" font-size="8" text-anchor="middle"  dominant-baseline="middle" fill="black" > 506</text>
<circle cx="1875" cy="360" r="4" fill="white" stroke="black" />
<line x1="1875" y1="364" x2="1875" y2="664" stroke="black" />
<line x1="1871" y1="668" x2="1875" y2="660" stroke="blue" />
<line x1="1875" y1="668" x2="1879" y2="660" stroke="blue" />
<text x="1875" y="676" font-family="Verdana" font-size="8" text-anchor="middle"  dominant-baseline="middle" fill="black" > 649</text>
<text x="2050" y="7" font-family="Verdana" font-size="7" text-anchor="middle"  dominant-baseline="middle" fill="black" > C9</text>
<circle cx="2050" cy="15" r="4" fill="white" stroke="black" />
<line x1="2050" y1="19" x2="2050" y2="35" stroke="black" />
<line x1="1950" y1="35" x2="2150" y2="35" stroke="black" />
<text x="2075" y="27" font-family="Verdana" font-size="8" text-anchor="middle"  dominant-baseline="middle" fill="black" > 20</text>
<circle cx="1950" cy="35" r="4" fill="white" stroke="black" />
<line x1="1950" y1="39" x2="1950" y2="533" stroke="black" />
<line x1="1946" y1="529" x2="1954" y2="537" stroke="red" />
<line x1="1946" y1="537" x2="1954" y2="529" stroke="red" />
<text x="1950" y="545" font-family="Verdana" font-size="8" text-anchor="middle"  dominant-baseline="middle" fill="black" > 518</text>
<circle cx="2050" cy="35" r="4" fill="white" stroke="black" />
<line x1="2050" y1="39" x2="2050" y2="665" stroke="black" />
<line x1="2046" y1="661" x2="2054" y2="669" stroke="red" />
<line x1="2046" y1="669" x2="2054" y2="661" stroke="red" />
<text x="2050" y="677" font-family="Verdana" font-size="8" text-anchor="middle"  dominant-baseline="middle" fill="black" > 650</text>
<circle cx="2150" cy="35" r="4" fill="white" stroke="black" />
<line x1="2150" y1="39" x2="2150" y2="181" stroke="black" />
<line x1="2125" y1="181" x2="2175" y2="181" stroke="black" />
<text x="2162" y="173" font-family="Verdana" font-size="8" text-anchor="middle"  dominant-baseline="middle" fill="black" > 166</text>
<circle cx="2125" cy="181" r="4" fill="white" stroke="black" />
<line x1="2125" y1="185" x2="2125" y2="515" stroke="black" />
<line x1="2121" y1="511" x2="2129" y2="519" stroke="red" />
<line x1="2121" y1="519" x2="2129" y2="511" stroke="red" />
<text x="2125" y="527" font-family="Verdana" font-size="8" text-anchor="middle"  dominant-baseline="middle" fill="black" > 500</text>
<circle cx="2175" cy="181" r="4" fill="white" stroke="black" />
<line x1="2175" y1="185" x2="2175" y2="503" stroke="black" />
<line x1="2171" y1="499" x2="2179" y2="507" stroke="red" />
<line x1="2171" y1="507" x2="2179" y2="499" stroke="red" />
<text x="2175" y="515" font-family="Verdana" font-size="8" text-anchor="middle"  dominant-baseline="middle" fill="black" > 488</text>
<text x="2350" y="7" font-family="Verdana" font-size="7" text-anchor="middle"  dominant-baseline="middle" fill="black" > C10</text>
<circle cx="2350" cy="15" r="4" fill="white" stroke="black" />
<line x1="2350" y1="19" x2="2350" y2="334" stroke="black" />
<line x1="2250" y1="334" x2="2450" y2="334" stroke="black" />
<text x="2375" y="326" font-family="Verdana" font-size="8" text-anchor="middle"  dominant-baseline="middle" fill="black" > 319</text>
<circle cx="2250" cy="334" r="4" fill="white" stroke="black" />
<circle cx="2350" cy="334" r="4" fill="white" stroke="black" />
<line x1="2250" y1="338" x2="2250" y2="365" stroke="black" />
<line x1="2250" y1="365" x2="2300" y2="375" stroke="black" />
<line x1="2350" y1="338" x2="2350" y2="365" stroke="black" />
<line x1="2350" y1="365" x2="2300" y2="375" stroke="black" />
<text x="2300" y="363" font-family="Verdana" font-size="8" text-anchor="middle"  dominant-baseline="middle" fill="black" > 360</text>
<circle cx="2300" cy="375" r="4" fill="white" stroke="black" />
<circle cx="2450" cy="334" r="4" fill="white" stroke="black" />
<line x1="2300" y1="379" x2="2300" y2="411" stroke="black" />
<line x1="2300" y1="411" x2="2375" y2="422" stroke="black" />
<line x1="2450" y1="338" x2="2450" y2="411" stroke="black" />
<line x1="2450" y1="411" x2="2375" y2="422" stroke="black" />
<text x="2375" y="410" font-family="Verdana" font-size="8" text-anchor="middle"  dominant-baseline="middle" fill="black" > 407</text>
<circle cx="2375" cy="422" r="4" fill="white" stroke="black" />
<line x1="2375" y1="426" x2="2375" y2="539" stroke="black" />
<line x1="2371" y1="535" x2="2379" y2="543" stroke="red" />
<line x1="2371" y1="543" x2="2379" y2="535" stroke="red" />
<text x="2375" y="551" font-family="Verdana" font-size="8" text-anchor="middle"  dominant-baseline="middle" fill="black" > 524</text>
<text x="2550" y="7" font-family="Verdana" font-size="7" text-anchor="middle"  dominant-baseline="middle" fill="black" > C11</text>
<circle cx="2550" cy="15" r="4" fill="white" stroke="black" />
<line x1="2550" y1="19" x2="2550" y2="117" stroke="black" />
<line x1="2546" y1="121" x2="2550" y2="113" stroke="blue" />
<line x1="2550" y1="121" x2="2554" y2="113" stroke="blue" />
<text x="2550" y="129" font-family="Verdana" font-size="8" text-anchor="middle"  dominant-baseline="middle" fill="black" > 102</text>
<text x="2700" y="7" font-family="Verdana" font-size="7" text-anchor="middle"  dominant-baseline="middle" fill="black" > C12</text>
<circle cx="2700" cy="15" r="4" fill="white" stroke="black" />
<line x1="2700" y1="19" x2="2700" y2="195" stroke="black" />
<line x1="2650" y1="195" x2="2750" y2="195" stroke="black" />
<text x="2725" y="187" font-family="Verdana" font-size="8" text-anchor="middle"  dominant-baseline="middle" fill="black" > 180</text>
<circle cx="2650" cy="195" r="4" fill="white" stroke="black" />
<circle cx="2750" cy="195" r="4" fill="white" stroke="black" />
<line x1="2650" y1="199" x2="2650" y2="240" stroke="black" />
<line x1="2650" y1="240" x2="2700" y2="254" stroke="black" />
<line x1="2750" y1="199" x2="2750" y2="240" stroke="black" />
<line x1="2750" y1="240" x2="2700" y2="254" stroke="black" />
<text x="2700" y="242" font-family="Verdana" font-size="8" text-anchor="middle"  dominant-baseline="middle" fill="black" > 239</text>
<circle cx="2700" cy="254" r="4" fill="white" stroke="black" />
<line x1="2700" y1="258" x2="2700" y2="363" stroke="black" />
<line x1="2666" y1="363" x2="2734" y2="363" stroke="black" />
<text x="2708" y="355" font-family="Verdana" font-size="8" text-anchor="middle"  dominant-baseline="middle" fill="black" > 348</text>
<circle cx="2666" cy="363" r="4" fill="white" stroke="black" />
<line x1="2666" y1="367" x2="2666" y2="373" stroke="black" />
<line x1="2662" y1="369" x2="2670" y2="377" stroke="red" />
<line x1="2662" y1="377" x2="2670" y2="369" stroke="red" />
<text x="2666" y="385" font-family="Verdana" font-size="8" text-anchor="middle"  dominant-baseline="middle" fill="black" > 358</text>
<circle cx="2699" cy="363" r="4" fill="white" stroke="black" />
<circle cx="2732" cy="363" r="4" fill="white" stroke="black" />
<line x1="2699" y1="367" x2="2699" y2="369" stroke="black" />
<line x1="2699" y1="369" x2="2715" y2="370" stroke="black" />
<line x1="2732" y1="367" x2="2732" y2="369" stroke="black" />
<line x1="2732" y1="369" x2="2715" y2="370" stroke="black" />
<text x="2715" y="358" font-family="Verdana" font-size="8" text-anchor="middle"  dominant-baseline="middle" fill="black" > 355</text>
<circle cx="2715" cy="370" r="4" fill="white" stroke="black" />
<line x1="2715" y1="374" x2="2715" y2="383" stroke="black" />
<line x1="2704" y1="383" x2="2727" y2="383" stroke="black" />
<text x="2717" y="375" font-family="Verdana" font-size="8" text-anchor="middle"  dominant-baseline="middle" fill="black" > 368</text>
<circle cx="2704" cy="383" r="4" fill="white" stroke="black" />
<line x1="2704" y1="387" x2="2704" y2="503" stroke="black" />
<line x1="2700" y1="499" x2="2708" y2="507" stroke="red" />
<line x1="2700" y1="507" x2="2708" y2="499" stroke="red" />
<text x="2704" y="515" font-family="Verdana" font-size="8" text-anchor="middle"  dominant-baseline="middle" fill="black" > 488</text>
<circle cx="2715" cy="383" r="4" fill="white" stroke="black" />
<circle cx="2726" cy="383" r="4" fill="white" stroke="black" />
<line x1="2715" y1="387" x2="2715" y2="449" stroke="black" />
<line x1="2715" y1="449" x2="2720" y2="471" stroke="black" />
<line x1="2726" y1="387" x2="2726" y2="449" stroke="black" />
<line x1="2726" y1="449" x2="2720" y2="471" stroke="black" />
<text x="2720" y="459" font-family="Verdana" font-size="8" text-anchor="middle"  dominant-baseline="middle" fill="black" > 456</text>
<circle cx="2720" cy="471" r="4" fill="white" stroke="black" />
<line x1="2720" y1="475" x2="2720" y2="736" stroke="black" />
<circle cx="2720" cy="736" r="4" fill="white" stroke="black" />
<text x="2720" y="748" font-family="Verdana" font-size="8" text-anchor="middle"  dominant-baseline="middle" fill="black" > 721</text>
<text x="2850" y="7" font-family="Verdana" font-size="7" text-anchor="middle"  dominant-baseline="middle" fill="black" > C13</text>
<circle cx="2850" cy="15" r="4" fill="white" stroke="black" />
<line x1="2850" y1="19" x2="2850" y2="35" stroke="black" />
<line x1="2846" y1="39" x2="2850" y2="31" stroke="blue" />
<line x1="2850" y1="39" x2="2854" y2="31" stroke="blue" />
<text x="2850" y="47" font-family="Verdana" font-size="8" text-anchor="middle"  dominant-baseline="middle" fill="black" > 20</text>
<text x="3100" y="7" font-family="Verdana" font-size="7" text-anchor="middle"  dominant-baseline="middle" fill="black" > C14</text>
<circle cx="3100" cy="15" r="4" fill="white" stroke="black" />
<line x1="3100" y1="19" x2="3100" y2="318" stroke="black" />
<line x1="2950" y1="318" x2="3250" y2="318" stroke="black" />
<text x="3125" y="310" font-family="Verdana" font-size="8" text-anchor="middle"  dominant-baseline="middle" fill="black" > 303</text>
<circle cx="2950" cy="318" r="4" fill="white" stroke="black" />
<circle cx="3050" cy="318" r="4" fill="white" stroke="black" />
<circle cx="3150" cy="318" r="4" fill="white" stroke="black" />
<circle cx="3250" cy="318" r="4" fill="white" stroke="black" />
<line x1="2950" y1="322" x2="2950" y2="333" stroke="black" />
<line x1="2950" y1="333" x2="3100" y2="337" stroke="black" />
<line x1="3050" y1="322" x2="3050" y2="333" stroke="black" />
<line x1="3050" y1="333" x2="3100" y2="337" stroke="black" />
<line x1="3150" y1="322" x2="3150" y2="333" stroke="black" />
<line x1="3150" y1="333" x2="3100" y2="337" stroke="black" />
<line x1="3250" y1="322" x2="3250" y2="333" stroke="black" />
<line x1="3250" y1="333" x2="3100" y2="337" stroke="black" />
<text x="3100" y="325" font-family="Verdana" font-size="8" text-anchor="middle"  dominant-baseline="middle" fill="black" > 322</text>
<circle cx="3100" cy="337" r="4" fill="white" stroke="black" />
<line x1="3100" y1="341" x2="3100" y2="373" stroke="black" />
<line x1="3096" y1="369" x2="3104" y2="377" stroke="red" />
<line x1="3096" y1="377" x2="3104" y2="369" stroke="red" />
<text x="3100" y="385" font-family="Verdana" font-size="8" text-anchor="middle"  dominant-baseline="middle" fill="black" > 358</text>
<text x="3450" y="7" font-family="Verdana" font-size="7" text-anchor="middle"  dominant-baseline="middle" fill="black" > C15</text>
<circle cx="3450" cy="15" r="4" fill="white" stroke="black" />
<line x1="3450" y1="19" x2="3450" y2="231" stroke="black" />
<line x1="3350" y1="231" x2="3550" y2="231" stroke="black" />
<text x="3475" y="223" font-family="Verdana" font-size="8" text-anchor="middle"  dominant-baseline="middle" fill="black" > 216</text>
<circle cx="3350" cy="231" r="4" fill="white" stroke="black" />
<line x1="3350" y1="235" x2="3350" y2="292" stroke="black" />
<line x1="3346" y1="296" x2="3350" y2="288" stroke="blue" />
<line x1="3350" y1="296" x2="3354" y2="288" stroke="blue" />
<text x="3350" y="304" font-family="Verdana" font-size="8" text-anchor="middle"  dominant-baseline="middle" fill="black" > 277</text>
<circle cx="3450" cy="231" r="4" fill="white" stroke="black" />
<line x1="3450" y1="235" x2="3450" y2="682" stroke="black" />
<line x1="3446" y1="678" x2="3454" y2="686" stroke="red" />
<line x1="3446" y1="686" x2="3454" y2="678" stroke="red" />
<text x="3450" y="694" font-family="Verdana" font-size="8" text-anchor="middle"  dominant-baseline="middle" fill="black" > 667</text>
<circle cx="3550" cy="231" r="4" fill="white" stroke="black" />
<line x1="3550" y1="235" x2="3550" y2="552" stroke="black" />
<line x1="3525" y1="552" x2="3575" y2="552" stroke="black" />
<text x="3562" y="544" font-family="Verdana" font-size="8" text-anchor="middle"  dominant-baseline="middle" fill="black" > 537</text>
<circle cx="3525" cy="552" r="4" fill="white" stroke="black" />
<line x1="3525" y1="556" x2="3525" y2="599" stroke="black" />
<line x1="3521" y1="595" x2="3529" y2="603" stroke="red" />
<line x1="3521" y1="603" x2="3529" y2="595" stroke="red" />
<text x="3525" y="611" font-family="Verdana" font-size="8" text-anchor="middle"  dominant-baseline="middle" fill="black" > 584</text>
<circle cx="3575" cy="552" r="4" fill="white" stroke="black" />
<line x1="3575" y1="556" x2="3575" y2="600" stroke="black" />
<line x1="3571" y1="596" x2="3579" y2="604" stroke="red" />
<line x1="3571" y1="604" x2="3579" y2="596" stroke="red" />
<text x="3575" y="612" font-family="Verdana" font-size="8" text-anchor="middle"  dominant-baseline="middle" fill="black" > 585</text>
<text x="3750" y="7" font-family="Verdana" font-size="7" text-anchor="middle"  dominant-baseline="middle" fill="black" > C16</text>
<circle cx="3750" cy="15" r="4" fill="white" stroke="black" />
<line x1="3750" y1="19" x2="3750" y2="415" stroke="black" />
<line x1="3650" y1="415" x2="3850" y2="415" stroke="black" />
<text x="3775" y="407" font-family="Verdana" font-size="8" text-anchor="middle"  dominant-baseline="middle" fill="black" > 400</text>
<circle cx="3650" cy="415" r="4" fill="white" stroke="black" />
<circle cx="3750" cy="415" r="4" fill="white" stroke="black" />
<line x1="3650" y1="419" x2="3650" y2="425" stroke="black" />
<line x1="3650" y1="425" x2="3700" y2="428" stroke="black" />
<line x1="3750" y1="419" x2="3750" y2="425" stroke="black" />
<line x1="3750" y1="425" x2="3700" y2="428" stroke="black" />
<text x="3700" y="416" font-family="Verdana" font-size="8" text-anchor="middle"  dominant-baseline="middle" fill="black" > 413</text>
<circle cx="3700" cy="428" r="4" fill="white" stroke="black" />
<circle cx="3850" cy="415" r="4" fill="white" stroke="black" />
<line x1="3700" y1="432" x2="3700" y2="435" stroke="black" />
<line x1="3700" y1="435" x2="3775" y2="437" stroke="black" />
<line x1="3850" y1="419" x2="3850" y2="435" stroke="black" />
<line x1="3850" y1="435" x2="3775" y2="437" stroke="black" />
<text x="3775" y="425" font-family="Verdana" font-size="8" text-anchor="middle"  dominant-baseline="middle" fill="black" > 422</text>
<circle cx="3775" cy="437" r="4" fill="white" stroke="black" />
<line x1="3775" y1="441" x2="3775" y2="714" stroke="black" />
<line x1="3725" y1="714" x2="3825" y2="714" stroke="black" />
<text x="3787" y="706" font-family="Verdana" font-size="8" text-anchor="middle"  dominant-baseline="middle" fill="black" > 699</text>
<circle cx="3725" cy="714" r="4" fill="white" stroke="black" />
<line x1="3725" y1="718" x2="3725" y2="728" stroke="black" />
<line x1="3721" y1="724" x2="3729" y2="732" stroke="red" />
<line x1="3721" y1="732" x2="3729" y2="724" stroke="red" />
<text x="3725" y="740" font-family="Verdana" font-size="8" text-anchor="middle"  dominant-baseline="middle" fill="black" > 713</text>
<circle cx="3775" cy="714" r="4" fill="white" stroke="black" />
<line x1="3775" y1="718" x2="3775" y2="727" stroke="black" />
<line x1="3771" y1="723" x2="3779" y2="731" stroke="red" />
<line x1="3771" y1="731" x2="3779" y2="723" stroke="red" />
<text x="3775" y="739" font-family="Verdana" font-size="8" text-anchor="middle"  dominant-baseline="middle" fill="black" > 712</text>
<circle cx="3825" cy="714" r="4" fill="white" stroke="black" />
<line x1="3825" y1="718" x2="3825" y2="720" stroke="black" />
<line x1="3821" y1="716" x2="3829" y2="724" stroke="red" />
<line x1="3821" y1="724" x2="3829" y2="716" stroke="red" />
<text x="3825" y="732" font-family="Verdana" font-size="8" text-anchor="middle"  dominant-baseline="middle" fill="black" > 705</text>
<text x="3950" y="7" font-family="Verdana" font-size="7" text-anchor="middle"  dominant-baseline="middle" fill="black" > C17</text>
<circle cx="3950" cy="15" r="4" fill="white" stroke="black" />
<line x1="3950" y1="19" x2="3950" y2="388" stroke="black" />
<line x1="3946" y1="384" x2="3954" y2="392" stroke="red" />
<line x1="3946" y1="392" x2="3954" y2="384" stroke="red" />
<text x="3950" y="400" font-family="Verdana" font-size="8" text-anchor="middle"  dominant-baseline="middle" fill="black" > 373</text>
<text x="4100" y="7" font-family="Verdana" font-size="7" text-anchor="middle"  dominant-baseline="middle" fill="black" > C18</text>
<circle cx="4100" cy="15" r="4" fill="white" stroke="black" />
<line x1="4100" y1="19" x2="4100" y2="218" stroke="black" />
<line x1="4050" y1="218" x2="4150" y2="218" stroke="black" />
<text x="4125" y="210" font-family="Verdana" font-size="8" text-anchor="middle"  dominant-baseline="middle" fill="black" > 203</text>
<circle cx="4050" cy="218" r="4" fill="white" stroke="black" />
<line x1="4050" y1="222" x2="4050" y2="489" stroke="black" />
<line x1="4025" y1="489" x2="4075" y2="489" stroke="black" />
<text x="4062" y="481" font-family="Verdana" font-size="8" text-anchor="middle"  dominant-baseline="middle" fill="black" > 474</text>
<circle cx="4025" cy="489" r="4" fill="white" stroke="black" />
<circle cx="4075" cy="489" r="4" fill="white" stroke="black" />
<line x1="4025" y1="493" x2="4025" y2="497" stroke="black" />
<line x1="4025" y1="497" x2="4050" y2="499" stroke="black" />
<line x1="4075" y1="493" x2="4075" y2="497" stroke="black" />
<line x1="4075" y1="497" x2="4050" y2="499" stroke="black" />
<text x="4050" y="487" font-family="Verdana" font-size="8" text-anchor="middle"  dominant-baseline="middle" fill="black" > 484</text>
<circle cx="4050" cy="499" r="4" fill="white" stroke="black" />
<line x1="4050" y1="503" x2="4050" y2="531" stroke="black" />
<line x1="4046" y1="527" x2="4054" y2="535" stroke="red" />
<line x1="4046" y1="535" x2="4054" y2="527" stroke="red" />
<text x="4050" y="543" font-family="Verdana" font-size="8" text-anchor="middle"  dominant-baseline="middle" fill="black" > 516</text>
<circle cx="4150" cy="218" r="4" fill="white" stroke="black" />
<line x1="4150" y1="222" x2="4150" y2="401" stroke="black" />
<line x1="4125" y1="401" x2="4175" y2="401" stroke="black" />
<text x="4162" y="393" font-family="Verdana" font-size="8" text-anchor="middle"  dominant-baseline="middle" fill="black" > 386</text>
<circle cx="4125" cy="401" r="4" fill="white" stroke="black" />
<circle cx="4175" cy="401" r="4" fill="white" stroke="black" />
<line x1="4125" y1="405" x2="4125" y2="447" stroke="black" />
<line x1="4125" y1="447" x2="4150" y2="462" stroke="black" />
<line x1="4175" y1="405" x2="4175" y2="447" stroke="black" />
<line x1="4175" y1="447" x2="4150" y2="462" stroke="black" />
<text x="4150" y="450" font-family="Verdana" font-size="8" text-anchor="middle"  dominant-baseline="middle" fill="black" > 447</text>
<circle cx="4150" cy="462" r="4" fill="white" stroke="black" />
<line x1="4150" y1="466" x2="4150" y2="665" stroke="black" />
<line x1="4146" y1="661" x2="4154" y2="669" stroke="red" />
<line x1="4146" y1="669" x2="4154" y2="661" stroke="red" />
<text x="4150" y="677" font-family="Verdana" font-size="8" text-anchor="middle"  dominant-baseline="middle" fill="black" > 650</text>
<text x="4300" y="7" font-family="Verdana" font-size="7" text-anchor="middle"  dominant-baseline="middle" fill="black" > C19</text>
<circle cx="4300" cy="15" r="4" fill="white" stroke="black" />
<line x1="4300" y1="19" x2="4300" y2="199" stroke="black" />
<line x1="4250" y1="199" x2="4350" y2="199" stroke="black" />
<text x="4325" y="191" font-family="Verdana" font-size="8" text-anchor="middle"  dominant-baseline="middle" fill="black" > 184</text>
<circle cx="4250" cy="199" r="4" fill="white" stroke="black" />
<line x1="4250" y1="203" x2="4250" y2="452" stroke="black" />
<line x1="4246" y1="456" x2="4250" y2="448" stroke="blue" />
<line x1="4250" y1="456" x2="4254" y2="448" stroke="blue" />
<text x="4250" y="464" font-family="Verdana" font-size="8" text-anchor="middle"  dominant-baseline="middle" fill="black" > 437</text>
<circle cx="4350" cy="199" r="4" fill="white" stroke="black" />
<line x1="4350" y1="203" x2="4350" y2="608" stroke="black" />
<line x1="4346" y1="604" x2="4354" y2="612" stroke="red" />
<line x1="4346" y1="612" x2="4354" y2="604" stroke="red" />
<text x="4350" y="620" font-family="Verdana" font-size="8" text-anchor="middle"  dominant-baseline="middle" fill="black" > 593</text>
<text x="4450" y="7" font-family="Verdana" font-size="7" text-anchor="middle"  dominant-baseline="middle" fill="black" > C20</text>
<circle cx="4450" cy="15" r="4" fill="white" stroke="black" />
<line x1="4450" y1="19" x2="4450" y2="317" stroke="black" />
<line x1="4446" y1="313" x2="4454" y2="321" stroke="red" />
<line x1="4446" y1="321" x2="4454" y2="313" stroke="red" />
<text x="4450" y="329" font-family="Verdana" font-size="8" text-anchor="middle"  dominant-baseline="middle" fill="black" > 302</text>
<text x="4700" y="7" font-family="Verdana" font-size="7" text-anchor="middle"  dominant-baseline="middle" fill="black" > C21</text>
<circle cx="4700" cy="15" r="4" fill="white" stroke="black" />
<line x1="4700" y1="19" x2="4700" y2="330" stroke="black" />
<line x1="4550" y1="330" x2="4850" y2="330" stroke="black" />
<text x="4725" y="322" font-family="Verdana" font-size="8" text-anchor="middle"  dominant-baseline="middle" fill="black" > 315</text>
<circle cx="4550" cy="330" r="4" fill="white" stroke="black" />
<circle cx="4650" cy="330" r="4" fill="white" stroke="black" />
<line x1="4550" y1="334" x2="4550" y2="335" stroke="black" />
<line x1="4550" y1="335" x2="4600" y2="336" stroke="black" />
<line x1="4650" y1="334" x2="4650" y2="335" stroke="black" />
<line x1="4650" y1="335" x2="4600" y2="336" stroke="black" />
<text x="4600" y="324" font-family="Verdana" font-size="8" text-anchor="middle"  dominant-baseline="middle" fill="black" > 321</text>
<circle cx="4600" cy="336" r="4" fill="white" stroke="black" />
<line x1="4600" y1="340" x2="4600" y2="736" stroke="black" />
<circle cx="4600" cy="736" r="4" fill="white" stroke="black" />
<text x="4600" y="748" font-family="Verdana" font-size="8" text-anchor="middle"  dominant-baseline="middle" fill="black" > 721</text>
<circle cx="4750" cy="330" r="4" fill="white" stroke="black" />
<circle cx="4850" cy="330" r="4" fill="white" stroke="black" />
<line x1="4750" y1="334" x2="4750" y2="334" stroke="black" />
<line x1="4750" y1="334" x2="4800" y2="335" stroke="black" />
<line x1="4850" y1="334" x2="4850" y2="334" stroke="black" />
<line x1="4850" y1="334" x2="4800" y2="335" stroke="black" />
<text x="4800" y="323" font-family="Verdana" font-size="8" text-anchor="middle"  dominant-baseline="middle" fill="black" > 320</text>
<circle cx="4800" cy="335" r="4" fill="white" stroke="black" />
<line x1="4800" y1="339" x2="4800" y2="380" stroke="black" />
<line x1="4796" y1="376" x2="4804" y2="384" stroke="red" />
<line x1="4796" y1="384" x2="4804" y2="376" stroke="red" />
<text x="4800" y="392" font-family="Verdana" font-size="8" text-anchor="middle"  dominant-baseline="middle" fill="black" > 365</text>
<text x="5050" y="7" font-family="Verdana" font-size="7" text-anchor="middle"  dominant-baseline="middle" fill="black" > C22</text>
<circle cx="5050" cy="15" r="4" fill="white" stroke="black" />
<line x1="5050" y1="19" x2="5050" y2="400" stroke="black" />
<line x1="4950" y1="400" x2="5150" y2="400" stroke="black" />
<text x="5075" y="392" font-family="Verdana" font-size="8" text-anchor="middle"  dominant-baseline="middle" fill="black" > 385</text>
<circle cx="4950" cy="400" r="4" fill="white" stroke="black" />
<circle cx="5050" cy="400" r="4" fill="white" stroke="black" />
<circle cx="5150" cy="400" r="4" fill="white" stroke="black" />
<line x1="4950" y1="404" x2="4950" y2="413" stroke="black" />
<line x1="4950" y1="413" x2="5050" y2="417" stroke="black" />
<line x1="5050" y1="404" x2="5050" y2="413" stroke="black" />
<line x1="5050" y1="413" x2="5050" y2="417" stroke="black" />
<line x1="5150" y1="404" x2="5150" y2="413" stroke="black" />
<line x1="5150" y1="413" x2="5050" y2="417" stroke="black" />
<text x="5050" y="405" font-family="Verdana" font-size="8" text-anchor="middle"  dominant-baseline="middle" fill="black" > 402</text>
<circle cx="5050" cy="417" r="4" fill="white" stroke="black" />
<line x1="5050" y1="421" x2="5050" y2="731" stroke="black" />
<line x1="5046" y1="727" x2="5054" y2="735" stroke="red" />
<line x1="5046" y1="735" x2="5054" y2="727" stroke="red" />
<text x="5050" y="743" font-family="Verdana" font-size="8" text-anchor="middle"  dominant-baseline="middle" fill="black" > 716</text>
</svg>
