<?xml version="1.0" encoding="utf-8"?>
<svg xmlns="http://www.w3.org/2000/svg" version="1.1" width="4850" height="750">
<rect width="4850" height="15" x="0" y="0" fill="white" />
<rect width="4850" height="15" x="0" y="735" fill="white" />
<rect width="25" height="750" x="0" y="0" fill="white" />
<rect width="25" height="750" x="4825" y="0" fill="white" />
<rect width="4810" height="144" x="25" y="15" fill="ghostwhite" />
<rect width="4810" height="144" x="25" y="159" fill="snow" />
<rect width="4810" height="144" x="25" y="303" fill="ghostwhite" />
<rect width="4810" height="144" x="25" y="447" fill="snow" />
<rect width="4810" height="144" x="25" y="591" fill="ghostwhite" />
<text x="12" y="87" font-family="Verdana" font-size="10" text-anchor="middle"  dominant-baseline="middle" fill="red" > D0</text>
<text x="12" y="231" font-family="Verdana" font-size="10" text-anchor="middle"  dominant-baseline="middle" fill="red" > D1</text>
<text x="12" y="375" font-family="Verdana" font-size="10" text-anchor="middle"  dominant-baseline="middle" fill="red" > D2</text>
<text x="12" y="519" font-family="Verdana" font-size="10" text-anchor="middle"  dominant-baseline="middle" fill="red" > D3</text>
<text x="12" y="663" font-family="Verdana" font-size="10" text-anchor="middle"  dominant-baseline="middle" fill="red" > D4</text>
<text x="12" y="20" font-family="Verdana" font-size="10" text-anchor="middle"  dominant-baseline="middle" fill="black" > 0</text>
<text x="12" y="164" font-family="Verdana" font-size="10" text-anchor="middle"  dominant-baseline="middle" fill="black" > 144</text>
<text x="12" y="308" font-family="Verdana" font-size="10" text-anchor="middle"  dominant-baseline="middle" fill="black" > 288</text>
<text x="12" y="452" font-family="Verdana" font-size="10" text-anchor="middle"  dominant-baseline="middle" fill="black" > 432</text>
<text x="12" y="596" font-family="Verdana" font-size="10" text-anchor="middle"  dominant-baseline="middle" fill="black" > 576</text>
<text x="12" y="740" font-family="Verdana" font-size="10" text-anchor="middle"  dominant-baseline="middle" fill="black" > 720</text>
<text x="100" y="7" font-family="Verdana" font-size="7" text-anchor="middle"  dominant-baseline="middle" fill="black" > C1</text>
<circle cx="100" cy="15" r="4" fill="white" stroke="black" />
<line x1="100" y1="19" x2="100" y2="174" stroke="black" />
<line x1="50" y1="174" x2="150" y2="174" stroke="black" />
<text x="125" y="166" font-family="Verdana" font-size="8" text-anchor="middle"  dominant-baseline="middle" fill="black" > 159</text>
<circle cx="50" cy="174" r="4" fill="white" stroke="black" />
<line x1="50" y1="178" x2="50" y2="393" stroke="black" />
<line x1="25" y1="393" x2="75" y2="393" stroke="black" />
<text x="62" y="385" font-family="Verdana" font-size="8" text-anchor="middle"  dominant-baseline="middle" fill="black" > 378</text>
<circle cx="25" cy="393" r="4" fill="white" stroke="black" />
<circle cx="75" cy="393" r="4" fill="white" stroke="black" />
<line x1="25" y1="397" x2="25" y2="535" stroke="black" />
<line x1="25" y1="535" x2="50" y2="582" stroke="black" />
<line x1="75" y1="397" x2="75" y2="535" stroke="black" />
<line x1="75" y1="535" x2="50" y2="582" stroke="black" />
<text x="50" y="570" font-family="Verdana" font-size="8" text-anchor="middle"  dominant-baseline="middle" fill="black" > 567</text>
<circle cx="50" cy="582" r="4" fill="white" stroke="black" />
<line x1="50" y1="586" x2="50" y2="736" stroke="black" />
<circle cx="50" cy="736" r="4" fill="white" stroke="black" />
<text x="50" y="748" font-family="Verdana" font-size="8" text-anchor="middle"  dominant-baseline="middle" fill="black" > 721</text>
<circle cx="150" cy="174" r="4" fill="white" stroke="black" />
<line x1="150" y1="178" x2="150" y2="387" stroke="black" />
<line x1="146" y1="383" x2="154" y2="391" stroke="red" />
<line x1="146" y1="391" x2="154" y2="383" stroke="red" />
<text x="150" y="399" font-family="Verdana" font-size="8" text-anchor="middle"  dominant-baseline="middle" fill="black" > 372</text>
<text x="350" y="7" font-family="Verdana" font-size="7" text-anchor="middle"  dominant-baseline="middle" fill="black" > C2</text>
<circle cx="350" cy="15" r="4" fill="white" stroke="black" />
<line x1="350" y1="19" x2="350" y2="214" stroke="black" />
<line x1="250" y1="214" x2="450" y2="214" stroke="black" />
<text x="375" y="206" font-family="Verdana" font-size="8" text-anchor="middle"  dominant-baseline="middle" fill="black" > 199</text>
<circle cx="250" cy="214" r="4" fill="white" stroke="black" />
<circle cx="350" cy="214" r="4" fill="white" stroke="black" />
<circle cx="450" cy="214" r="4" fill="white" stroke="black" />
<line x1="250" y1="218" x2="250" y2="352" stroke="black" />
<line x1="250" y1="352" x2="350" y2="398" stroke="black" />
<line x1="350" y1="218" x2="350" y2="352" stroke="black" />
<line x1="350" y1="352" x2="350" y2="398" stroke="black" />
<line x1="450" y1="218" x2="450" y2="352" stroke="black" />
<line x1="450" y1="352" x2="350" y2="398" stroke="black" />
<text x="350" y="386" font-family="Verdana" font-size="8" text-anchor="middle"  dominant-baseline="middle" fill="black" > 383</text>
<circle cx="350" cy="398" r="4" fill="white" stroke="black" />
<line x1="350" y1="402" x2="350" y2="730" stroke="black" />
<line x1="346" y1="726" x2="354" y2="734" stroke="red" />
<line x1="346" y1="734" x2="354" y2="726" stroke="red" />
<text x="350" y="742" font-family="Verdana" font-size="8" text-anchor="middle"  dominant-baseline="middle" fill="black" > 715</text>
<text x="600" y="7" font-family="Verdana" font-size="7" text-anchor="middle"  dominant-baseline="middle" fill="black" > C3</text>
<circle cx="600" cy="15" r="4" fill="white" stroke="black" />
<line x1="600" y1="19" x2="600" y2="278" stroke="black" />
<line x1="550" y1="278" x2="650" y2="278" stroke="black" />
<text x="625" y="270" font-family="Verdana" font-size="8" text-anchor="middle"  dominant-baseline="middle" fill="black" > 263</text>
<circle cx="550" cy="278" r="4" fill="white" stroke="black" />
<circle cx="650" cy="278" r="4" fill="white" stroke="black" />
<line x1="550" y1="282" x2="550" y2="479" stroke="black" />
<line x1="550" y1="479" x2="600" y2="545" stroke="black" />
<line x1="650" y1="282" x2="650" y2="479" stroke="black" />
<line x1="650" y1="479" x2="600" y2="545" stroke="black" />
<text x="600" y="533" font-family="Verdana" font-size="8" text-anchor="middle"  dominant-baseline="middle" fill="black" > 530</text>
<circle cx="600" cy="545" r="4" fill="white" stroke="black" />
<line x1="600" y1="549" x2="600" y2="736" stroke="black" />
<circle cx="600" cy="736" r="4" fill="white" stroke="black" />
<text x="600" y="748" font-family="Verdana" font-size="8" text-anchor="middle"  dominant-baseline="middle" fill="black" > 721</text>
<text x="800" y="7" font-family="Verdana" font-size="7" text-anchor="middle"  dominant-baseline="middle" fill="black" > C4</text>
<circle cx="800" cy="15" r="4" fill="white" stroke="black" />
<line x1="800" y1="19" x2="800" y2="231" stroke="black" />
<line x1="750" y1="231" x2="850" y2="231" stroke="black" />
<text x="825" y="223" font-family="Verdana" font-size="8" text-anchor="middle"  dominant-baseline="middle" fill="black" > 216</text>
<circle cx="750" cy="231" r="4" fill="white" stroke="black" />
<circle cx="850" cy="231" r="4" fill="white" stroke="black" />
<line x1="750" y1="235" x2="750" y2="495" stroke="black" />
<line x1="750" y1="495" x2="800" y2="582" stroke="black" />
<line x1="850" y1="235" x2="850" y2="495" stroke="black" />
<line x1="850" y1="495" x2="800" y2="582" stroke="black" />
<text x="800" y="570" font-family="Verdana" font-size="8" text-anchor="middle"  dominant-baseline="middle" fill="black" > 567</text>
<circle cx="800" cy="582" r="4" fill="white" stroke="black" />
<line x1="800" y1="586" x2="800" y2="736" stroke="black" />
<circle cx="800" cy="736" r="4" fill="white" stroke="black" />
<text x="800" y="748" font-family="Verdana" font-size="8" text-anchor="middle"  dominant-baseline="middle" fill="black" > 721</text>
<text x="1000" y="7" font-family="Verdana" font-size="7" text-anchor="middle"  dominant-baseline="middle" fill="black" > C5</text>
<circle cx="1000" cy="15" r="4" fill="white" stroke="black" />
<line x1="1000" y1="19" x2="1000" y2="213" stroke="black" />
<line x1="950" y1="213" x2="1050" y2="213" stroke="black" />
<text x="1025" y="205" font-family="Verdana" font-size="8" text-anchor="middle"  dominant-baseline="middle" fill="black" > 198</text>
<circle cx="950" cy="213" r="4" fill="white" stroke="black" />
<circle cx="1050" cy="213" r="4" fill="white" stroke="black" />
<line x1="950" y1="217" x2="950" y2="549" stroke="black" />
<line x1="950" y1="549" x2="1000" y2="661" stroke="black" />
<line x1="1050" y1="217" x2="1050" y2="549" stroke="black" />
<line x1="1050" y1="549" x2="1000" y2="661" stroke="black" />
<text x="1000" y="649" font-family="Verdana" font-size="8" text-anchor="middle"  dominant-baseline="middle" fill="black" > 646</text>
<circle cx="1000" cy="661" r="4" fill="white" stroke="black" />
<line x1="1000" y1="665" x2="1000" y2="736" stroke="black" />
<circle cx="1000" cy="736" r="4" fill="white" stroke="black" />
<text x="1000" y="748" font-family="Verdana" font-size="8" text-anchor="middle"  dominant-baseline="middle" fill="black" > 721</text>
<text x="1200" y="7" font-family="Verdana" font-size="7" text-anchor="middle"  dominant-baseline="middle" fill="black" > C6</text>
<circle cx="1200" cy="15" r="4" fill="white" stroke="black" />
<line x1="1200" y1="19" x2="1200" y2="449" stroke="black" />
<line x1="1150" y1="449" x2="1250" y2="449" stroke="black" />
<text x="1225" y="441" font-family="Verdana" font-size="8" text-anchor="middle"  dominant-baseline="middle" fill="black" > 434</text>
<circle cx="1150" cy="449" r="4" fill="white" stroke="black" />
<circle cx="1250" cy="449" r="4" fill="white" stroke="black" />
<line x1="1150" y1="453" x2="1150" y2="502" stroke="black" />
<line x1="1150" y1="502" x2="1200" y2="519" stroke="black" />
<line x1="1250" y1="453" x2="1250" y2="502" stroke="black" />
<line x1="1250" y1="502" x2="1200" y2="519" stroke="black" />
<text x="1200" y="507" font-family="Verdana" font-size="8" text-anchor="middle"  dominant-baseline="middle" fill="black" > 504</text>
<circle cx="1200" cy="519" r="4" fill="white" stroke="black" />
<line x1="1200" y1="523" x2="1200" y2="663" stroke="black" />
<line x1="1196" y1="659" x2="1204" y2="667" stroke="red" />
<line x1="1196" y1="667" x2="1204" y2="659" stroke="red" />
<text x="1200" y="675" font-family="Verdana" font-size="8" text-anchor="middle"  dominant-baseline="middle" fill="black" > 648</text>
<text x="1400" y="7" font-family="Verdana" font-size="7" text-anchor="middle"  dominant-baseline="middle" fill="black" > C7</text>
<circle cx="1400" cy="15" r="4" fill="white" stroke="black" />
<line x1="1400" y1="19" x2="1400" y2="233" stroke="black" />
<line x1="1350" y1="233" x2="1450" y2="233" stroke="black" />
<text x="1425" y="225" font-family="Verdana" font-size="8" text-anchor="middle"  dominant-baseline="middle" fill="black" > 218</text>
<circle cx="1350" cy="233" r="4" fill="white" stroke="black" />
<circle cx="1450" cy="233" r="4" fill="white" stroke="black" />
<line x1="1450" y1="237" x2="1450" y2="540" stroke="black" />
<line x1="1425" y1="540" x2="1475" y2="540" stroke="black" />
<text x="1462" y="532" font-family="Verdana" font-size="8" text-anchor="middle"  dominant-baseline="middle" fill="black" > 525</text>
<circle cx="1425" cy="540" r="4" fill="white" stroke="black" />
<line x1="1350" y1="237" x2="1350" y2="607" stroke="black" />
<line x1="1350" y1="607" x2="1387" y2="629" stroke="black" />
<line x1="1425" y1="544" x2="1425" y2="607" stroke="black" />
<line x1="1425" y1="607" x2="1387" y2="629" stroke="black" />
<text x="1387" y="617" font-family="Verdana" font-size="8" text-anchor="middle"  dominant-baseline="middle" fill="black" > 614</text>
<circle cx="1387" cy="629" r="4" fill="white" stroke="black" />
<circle cx="1475" cy="540" r="4" fill="white" stroke="black" />
<line x1="1387" y1="633" x2="1387" y2="695" stroke="black" />
<line x1="1387" y1="695" x2="1431" y2="716" stroke="black" />
<line x1="1475" y1="544" x2="1475" y2="695" stroke="black" />
<line x1="1475" y1="695" x2="1431" y2="716" stroke="black" />
<text x="1431" y="704" font-family="Verdana" font-size="8" text-anchor="middle"  dominant-baseline="middle" fill="black" > 701</text>
<circle cx="1431" cy="716" r="4" fill="white" stroke="black" />
<line x1="1431" y1="720" x2="1431" y2="736" stroke="black" />
<circle cx="1431" cy="736" r="4" fill="white" stroke="black" />
<text x="1431" y="748" font-family="Verdana" font-size="8" text-anchor="middle"  dominant-baseline="middle" fill="black" > 721</text>
<text x="1650" y="7" font-family="Verdana" font-size="7" text-anchor="middle"  dominant-baseline="middle" fill="black" > C8</text>
<circle cx="1650" cy="15" r="4" fill="white" stroke="black" />
<line x1="1650" y1="19" x2="1650" y2="262" stroke="black" />
<line x1="1550" y1="262" x2="1750" y2="262" stroke="black" />
<text x="1675" y="254" font-family="Verdana" font-size="8" text-anchor="middle"  dominant-baseline="middle" fill="black" > 247</text>
<circle cx="1550" cy="262" r="4" fill="white" stroke="black" />
<circle cx="1650" cy="262" r="4" fill="white" stroke="black" />
<line x1="1550" y1="266" x2="1550" y2="275" stroke="black" />
<line x1="1550" y1="275" x2="1600" y2="279" stroke="black" />
<line x1="1650" y1="266" x2="1650" y2="275" stroke="black" />
<line x1="1650" y1="275" x2="1600" y2="279" stroke="black" />
<text x="1600" y="267" font-family="Verdana" font-size="8" text-anchor="middle"  dominant-baseline="middle" fill="black" > 264</text>
<circle cx="1600" cy="279" r="4" fill="white" stroke="black" />
<line x1="1600" y1="283" x2="1600" y2="282" stroke="black" />
<line x1="1596" y1="278" x2="1604" y2="286" stroke="red" />
<line x1="1596" y1="286" x2="1604" y2="278" stroke="red" />
<text x="1600" y="294" font-family="Verdana" font-size="8" text-anchor="middle"  dominant-baseline="middle" fill="black" > 267</text>
<circle cx="1750" cy="262" r="4" fill="white" stroke="black" />
<line x1="1750" y1="266" x2="1750" y2="284" stroke="black" />
<line x1="1746" y1="280" x2="1754" y2="288" stroke="red" />
<line x1="1746" y1="288" x2="1754" y2="280" stroke="red" />
<text x="1750" y="296" font-family="Verdana" font-size="8" text-anchor="middle"  dominant-baseline="middle" fill="black" > 269</text>
<text x="1900" y="7" font-family="Verdana" font-size="7" text-anchor="middle"  dominant-baseline="middle" fill="black" > C9</text>
<circle cx="1900" cy="15" r="4" fill="white" stroke="black" />
<line x1="1900" y1="19" x2="1900" y2="325" stroke="black" />
<line x1="1850" y1="325" x2="1950" y2="325" stroke="black" />
<text x="1925" y="317" font-family="Verdana" font-size="8" text-anchor="middle"  dominant-baseline="middle" fill="black" > 310</text>
<circle cx="1850" cy="325" r="4" fill="white" stroke="black" />
<line x1="1850" y1="329" x2="1850" y2="443" stroke="black" />
<line x1="1846" y1="439" x2="1854" y2="447" stroke="red" />
<line x1="1846" y1="447" x2="1854" y2="439" stroke="red" />
<text x="1850" y="455" font-family="Verdana" font-size="8" text-anchor="middle"  dominant-baseline="middle" fill="black" > 428</text>
<circle cx="1950" cy="325" r="4" fill="white" stroke="black" />
<line x1="1950" y1="329" x2="1950" y2="736" stroke="black" />
<circle cx="1950" cy="736" r="4" fill="white" stroke="black" />
<text x="1950" y="748" font-family="Verdana" font-size="8" text-anchor="middle"  dominant-baseline="middle" fill="black" > 721</text>
<text x="2050" y="7" font-family="Verdana" font-size="7" text-anchor="middle"  dominant-baseline="middle" fill="black" > C10</text>
<circle cx="2050" cy="15" r="4" fill="white" stroke="black" />
<line x1="2050" y1="19" x2="2050" y2="400" stroke="black" />
<line x1="2046" y1="396" x2="2054" y2="404" stroke="red" />
<line x1="2046" y1="404" x2="2054" y2="396" stroke="red" />
<text x="2050" y="412" font-family="Verdana" font-size="8" text-anchor="middle"  dominant-baseline="middle" fill="black" > 385</text>
<text x="2150" y="7" font-family="Verdana" font-size="7" text-anchor="middle"  dominant-baseline="middle" fill="black" > C11</text>
<circle cx="2150" cy="15" r="4" fill="white" stroke="black" />
<line x1="2150" y1="19" x2="2150" y2="458" stroke="black" />
<line x1="2146" y1="454" x2="2154" y2="462" stroke="red" />
<line x1="2146" y1="462" x2="2154" y2="454" stroke="red" />
<text x="2150" y="470" font-family="Verdana" font-size="8" text-anchor="middle"  dominant-baseline="middle" fill="black" > 443</text>
<text x="2350" y="7" font-family="Verdana" font-size="7" text-anchor="middle"  dominant-baseline="middle" fill="black" > C12</text>
<circle cx="2350" cy="15" r="4" fill="white" stroke="black" />
<line x1="2350" y1="19" x2="2350" y2="156" stroke="black" />
<line x1="2250" y1="156" x2="2450" y2="156" stroke="black" />
<text x="2375" y="148" font-family="Verdana" font-size="8" text-anchor="middle"  dominant-baseline="middle" fill="black" > 141</text>
<circle cx="2250" cy="156" r="4" fill="white" stroke="black" />
<circle cx="2350" cy="156" r="4" fill="white" stroke="black" />
<line x1="2250" y1="160" x2="2250" y2="257" stroke="black" />
<line x1="2250" y1="257" x2="2300" y2="290" stroke="black" />
<line x1="2350" y1="160" x2="2350" y2="257" stroke="black" />
<line x1="2350" y1="257" x2="2300" y2="290" stroke="black" />
<text x="2300" y="278" font-family="Verdana" font-size="8" text-anchor="middle"  dominant-baseline="middle" fill="black" > 275</text>
<circle cx="2300" cy="290" r="4" fill="white" stroke="black" />
<circle cx="2450" cy="156" r="4" fill="white" stroke="black" />
<line x1="2300" y1="294" x2="2300" y2="348" stroke="black" />
<line x1="2300" y1="348" x2="2375" y2="367" stroke="black" />
<line x1="2450" y1="160" x2="2450" y2="348" stroke="black" />
<line x1="2450" y1="348" x2="2375" y2="367" stroke="black" />
<text x="2375" y="355" font-family="Verdana" font-size="8" text-anchor="middle"  dominant-baseline="middle" fill="black" > 352</text>
<circle cx="2375" cy="367" r="4" fill="white" stroke="black" />
<line x1="2375" y1="371" x2="2375" y2="595" stroke="black" />
<line x1="2371" y1="591" x2="2379" y2="599" stroke="red" />
<line x1="2371" y1="599" x2="2379" y2="591" stroke="red" />
<text x="2375" y="607" font-family="Verdana" font-size="8" text-anchor="middle"  dominant-baseline="middle" fill="black" > 580</text>
<text x="2550" y="7" font-family="Verdana" font-size="7" text-anchor="middle"  dominant-baseline="middle" fill="black" > C13</text>
<circle cx="2550" cy="15" r="4" fill="white" stroke="black" />
<line x1="2550" y1="19" x2="2550" y2="562" stroke="black" />
<line x1="2546" y1="558" x2="2554" y2="566" stroke="red" />
<line x1="2546" y1="566" x2="2554" y2="558" stroke="red" />
<text x="2550" y="574" font-family="Verdana" font-size="8" text-anchor="middle"  dominant-baseline="middle" fill="black" > 547</text>
<text x="2700" y="7" font-family="Verdana" font-size="7" text-anchor="middle"  dominant-baseline="middle" fill="black" > C14</text>
<circle cx="2700" cy="15" r="4" fill="white" stroke="black" />
<line x1="2700" y1="19" x2="2700" y2="245" stroke="black" />
<line x1="2650" y1="245" x2="2750" y2="245" stroke="black" />
<text x="2725" y="237" font-family="Verdana" font-size="8" text-anchor="middle"  dominant-baseline="middle" fill="black" > 230</text>
<circle cx="2650" cy="245" r="4" fill="white" stroke="black" />
<line x1="2650" y1="249" x2="2650" y2="543" stroke="black" />
<line x1="2646" y1="539" x2="2654" y2="547" stroke="red" />
<line x1="2646" y1="547" x2="2654" y2="539" stroke="red" />
<text x="2650" y="555" font-family="Verdana" font-size="8" text-anchor="middle"  dominant-baseline="middle" fill="black" > 528</text>
<circle cx="2750" cy="245" r="4" fill="white" stroke="black" />
<line x1="2750" y1="249" x2="2750" y2="400" stroke="black" />
<line x1="2725" y1="400" x2="2775" y2="400" stroke="black" />
<text x="2762" y="392" font-family="Verdana" font-size="8" text-anchor="middle"  dominant-baseline="middle" fill="black" > 385</text>
<circle cx="2725" cy="400" r="4" fill="white" stroke="black" />
<circle cx="2775" cy="400" r="4" fill="white" stroke="black" />
<line x1="2725" y1="404" x2="2725" y2="485" stroke="black" />
<line x1="2725" y1="485" x2="2750" y2="513" stroke="black" />
<line x1="2775" y1="404" x2="2775" y2="485" stroke="black" />
<line x1="2775" y1="485" x2="2750" y2="513" stroke="black" />
<text x="2750" y="501" font-family="Verdana" font-size="8" text-anchor="middle"  dominant-baseline="middle" fill="black" > 498</text>
<circle cx="2750" cy="513" r="4" fill="white" stroke="black" />
<line x1="2750" y1="517" x2="2750" y2="546" stroke="black" />
<line x1="2746" y1="542" x2="2754" y2="550" stroke="red" />
<line x1="2746" y1="550" x2="2754" y2="542" stroke="red" />
<text x="2750" y="558" font-family="Verdana" font-size="8" text-anchor="middle"  dominant-baseline="middle" fill="black" > 531</text>
<text x="2950" y="7" font-family="Verdana" font-size="7" text-anchor="middle"  dominant-baseline="middle" fill="black" > C15</text>
<circle cx="2950" cy="15" r="4" fill="white" stroke="black" />
<line x1="2950" y1="19" x2="2950" y2="152" stroke="black" />
<line x1="2850" y1="152" x2="3050" y2="152" stroke="black" />
<text x="2975" y="144" font-family="Verdana" font-size="8" text-anchor="middle"  dominant-baseline="middle" fill="black" > 137</text>
<circle cx="2850" cy="152" r="4" fill="white" stroke="black" />
<line x1="2850" y1="156" x2="2850" y2="258" stroke="black" />
<line x1="2846" y1="254" x2="2854" y2="262" stroke="red" />
<line x1="2846" y1="262" x2="2854" y2="254" stroke="red" />
<text x="2850" y="270" font-family="Verdana" font-size="8" text-anchor="middle"  dominant-baseline="middle" fill="black" > 243</text>
<circle cx="2950" cy="152" r="4" fill="white" stroke="black" />
<circle cx="3050" cy="152" r="4" fill="white" stroke="black" />
<line x1="2950" y1="156" x2="2950" y2="257" stroke="black" />
<line x1="2950" y1="257" x2="3000" y2="291" stroke="black" />
<line x1="3050" y1="156" x2="3050" y2="257" stroke="black" />
<line x1="3050" y1="257" x2="3000" y2="291" stroke="black" />
<text x="3000" y="279" font-family="Verdana" font-size="8" text-anchor="middle"  dominant-baseline="middle" fill="black" > 276</text>
<circle cx="3000" cy="291" r="4" fill="white" stroke="black" />
<line x1="3000" y1="295" x2="3000" y2="357" stroke="black" />
<line x1="2996" y1="353" x2="3004" y2="361" stroke="red" />
<line x1="2996" y1="361" x2="3004" y2="353" stroke="red" />
<text x="3000" y="369" font-family="Verdana" font-size="8" text-anchor="middle"  dominant-baseline="middle" fill="black" > 342</text>
<text x="3150" y="7" font-family="Verdana" font-size="7" text-anchor="middle"  dominant-baseline="middle" fill="black" > C16</text>
<circle cx="3150" cy="15" r="4" fill="white" stroke="black" />
<line x1="3150" y1="19" x2="3150" y2="413" stroke="black" />
<line x1="3146" y1="409" x2="3154" y2="417" stroke="red" />
<line x1="3146" y1="417" x2="3154" y2="409" stroke="red" />
<text x="3150" y="425" font-family="Verdana" font-size="8" text-anchor="middle"  dominant-baseline="middle" fill="black" > 398</text>
<text x="3300" y="7" font-family="Verdana" font-size="7" text-anchor="middle"  dominant-baseline="middle" fill="black" > C17</text>
<circle cx="3300" cy="15" r="4" fill="white" stroke="black" />
<line x1="3300" y1="19" x2="3300" y2="182" stroke="black" />
<line x1="3250" y1="182" x2="3350" y2="182" stroke="black" />
<text x="3325" y="174" font-family="Verdana" font-size="8" text-anchor="middle"  dominant-baseline="middle" fill="black" > 167</text>
<circle cx="3250" cy="182" r="4" fill="white" stroke="black" />
<line x1="3250" y1="186" x2="3250" y2="301" stroke="black" />
<line x1="3225" y1="301" x2="3275" y2="301" stroke="black" />
<text x="3262" y="293" font-family="Verdana" font-size="8" text-anchor="middle"  dominant-baseline="middle" fill="black" > 286</text>
<circle cx="3225" cy="301" r="4" fill="white" stroke="black" />
<line x1="3225" y1="305" x2="3225" y2="465" stroke="black" />
<line x1="3221" y1="461" x2="3229" y2="469" stroke="red" />
<line x1="3221" y1="469" x2="3229" y2="461" stroke="red" />
<text x="3225" y="477" font-family="Verdana" font-size="8" text-anchor="middle"  dominant-baseline="middle" fill="black" > 450</text>
<circle cx="3275" cy="301" r="4" fill="white" stroke="black" />
<line x1="3275" y1="305" x2="3275" y2="527" stroke="black" />
<line x1="3271" y1="523" x2="3279" y2="531" stroke="red" />
<line x1="3271" y1="531" x2="3279" y2="523" stroke="red" />
<text x="3275" y="539" font-family="Verdana" font-size="8" text-anchor="middle"  dominant-baseline="middle" fill="black" > 512</text>
<circle cx="3350" cy="182" r="4" fill="white" stroke="black" />
<line x1="3350" y1="186" x2="3350" y2="537" stroke="black" />
<line x1="3346" y1="533" x2="3354" y2="541" stroke="red" />
<line x1="3346" y1="541" x2="3354" y2="533" stroke="red" />
<text x="3350" y="549" font-family="Verdana" font-size="8" text-anchor="middle"  dominant-baseline="middle" fill="black" > 522</text>
<text x="3500" y="7" font-family="Verdana" font-size="7" text-anchor="middle"  dominant-baseline="middle" fill="black" > C18</text>
<circle cx="3500" cy="15" r="4" fill="white" stroke="black" />
<line x1="3500" y1="19" x2="3500" y2="188" stroke="black" />
<line x1="3450" y1="188" x2="3550" y2="188" stroke="black" />
<text x="3525" y="180" font-family="Verdana" font-size="8" text-anchor="middle"  dominant-baseline="middle" fill="black" > 173</text>
<circle cx="3450" cy="188" r="4" fill="white" stroke="black" />
<line x1="3450" y1="192" x2="3450" y2="192" stroke="black" />
<line x1="3446" y1="196" x2="3450" y2="188" stroke="blue" />
<line x1="3450" y1="196" x2="3454" y2="188" stroke="blue" />
<text x="3450" y="204" font-family="Verdana" font-size="8" text-anchor="middle"  dominant-baseline="middle" fill="black" > 177</text>
<circle cx="3550" cy="188" r="4" fill="white" stroke="black" />
<line x1="3550" y1="192" x2="3550" y2="313" stroke="black" />
<line x1="3525" y1="313" x2="3575" y2="313" stroke="black" />
<text x="3562" y="305" font-family="Verdana" font-size="8" text-anchor="middle"  dominant-baseline="middle" fill="black" > 298</text>
<circle cx="3525" cy="313" r="4" fill="white" stroke="black" />
<circle cx="3575" cy="313" r="4" fill="white" stroke="black" />
<line x1="3525" y1="317" x2="3525" y2="428" stroke="black" />
<line x1="3525" y1="428" x2="3550" y2="466" stroke="black" />
<line x1="3575" y1="317" x2="3575" y2="428" stroke="black" />
<line x1="3575" y1="428" x2="3550" y2="466" stroke="black" />
<text x="3550" y="454" font-family="Verdana" font-size="8" text-anchor="middle"  dominant-baseline="middle" fill="black" > 451</text>
<circle cx="3550" cy="466" r="4" fill="white" stroke="black" />
<line x1="3550" y1="470" x2="3550" y2="498" stroke="black" />
<line x1="3533" y1="498" x2="3567" y2="498" stroke="black" />
<text x="3554" y="490" font-family="Verdana" font-size="8" text-anchor="middle"  dominant-baseline="middle" fill="black" > 483</text>
<circle cx="3533" cy="498" r="4" fill="white" stroke="black" />
<circle cx="3549" cy="498" r="4" fill="white" stroke="black" />
<circle cx="3565" cy="498" r="4" fill="white" stroke="black" />
<line x1="3533" y1="502" x2="3533" y2="510" stroke="black" />
<line x1="3533" y1="510" x2="3549" y2="514" stroke="black" />
<line x1="3549" y1="502" x2="3549" y2="510" stroke="black" />
<line x1="3549" y1="510" x2="3549" y2="514" stroke="black" />
<line x1="3565" y1="502" x2="3565" y2="510" stroke="black" />
<line x1="3565" y1="510" x2="3549" y2="514" stroke="black" />
<text x="3549" y="502" font-family="Verdana" font-size="8" text-anchor="middle"  dominant-baseline="middle" fill="black" > 499</text>
<circle cx="3549" cy="514" r="4" fill="white" stroke="black" />
<line x1="3549" y1="518" x2="3549" y2="616" stroke="black" />
<line x1="3545" y1="620" x2="3549" y2="612" stroke="blue" />
<line x1="3549" y1="620" x2="3553" y2="612" stroke="blue" />
<text x="3549" y="628" font-family="Verdana" font-size="8" text-anchor="middle"  dominant-baseline="middle" fill="black" > 601</text>
<text x="3750" y="7" font-family="Verdana" font-size="7" text-anchor="middle"  dominant-baseline="middle" fill="black" > C19</text>
<circle cx="3750" cy="15" r="4" fill="white" stroke="black" />
<line x1="3750" y1="19" x2="3750" y2="404" stroke="black" />
<line x1="3650" y1="404" x2="3850" y2="404" stroke="black" />
<text x="3775" y="396" font-family="Verdana" font-size="8" text-anchor="middle"  dominant-baseline="middle" fill="black" > 389</text>
<circle cx="3650" cy="404" r="4" fill="white" stroke="black" />
<circle cx="3750" cy="404" r="4" fill="white" stroke="black" />
<line x1="3650" y1="408" x2="3650" y2="413" stroke="black" />
<line x1="3650" y1="413" x2="3700" y2="415" stroke="black" />
<line x1="3750" y1="408" x2="3750" y2="413" stroke="black" />
<line x1="3750" y1="413" x2="3700" y2="415" stroke="black" />
<text x="3700" y="403" font-family="Verdana" font-size="8" text-anchor="middle"  dominant-baseline="middle" fill="black" > 400</text>
<circle cx="3700" cy="415" r="4" fill="white" stroke="black" />
<line x1="3700" y1="419" x2="3700" y2="556" stroke="black" />
<line x1="3696" y1="560" x2="3700" y2="552" stroke="blue" />
<line x1="3700" y1="560" x2="3704" y2="552" stroke="blue" />
<text x="3700" y="568" font-family="Verdana" font-size="8" text-anchor="middle"  dominant-baseline="middle" fill="black" > 541</text>
<circle cx="3850" cy="404" r="4" fill="white" stroke="black" />
<line x1="3850" y1="408" x2="3850" y2="636" stroke="black" />
<line x1="3846" y1="632" x2="3854" y2="640" stroke="red" />
<line x1="3846" y1="640" x2="3854" y2="632" stroke="red" />
<text x="3850" y="648" font-family="Verdana" font-size="8" text-anchor="middle"  dominant-baseline="middle" fill="black" > 621</text>
<text x="4000" y="7" font-family="Verdana" font-size="7" text-anchor="middle"  dominant-baseline="middle" fill="black" > C20</text>
<circle cx="4000" cy="15" r="4" fill="white" stroke="black" />
<line x1="4000" y1="19" x2="4000" y2="193" stroke="black" />
<line x1="3950" y1="193" x2="4050" y2="193" stroke="black" />
<text x="4025" y="185" font-family="Verdana" font-size="8" text-anchor="middle"  dominant-baseline="middle" fill="black" > 178</text>
<circle cx="3950" cy="193" r="4" fill="white" stroke="black" />
<line x1="3950" y1="197" x2="3950" y2="334" stroke="black" />
<line x1="3916" y1="334" x2="3984" y2="334" stroke="black" />
<text x="3958" y="326" font-family="Verdana" font-size="8" text-anchor="middle"  dominant-baseline="middle" fill="black" > 319</text>
<circle cx="3916" cy="334" r="4" fill="white" stroke="black" />
<circle cx="3949" cy="334" r="4" fill="white" stroke="black" />
<circle cx="3982" cy="334" r="4" fill="white" stroke="black" />
<line x1="3916" y1="338" x2="3916" y2="453" stroke="black" />
<line x1="3916" y1="453" x2="3949" y2="492" stroke="black" />
<line x1="3949" y1="338" x2="3949" y2="453" stroke="black" />
<line x1="3949" y1="453" x2="3949" y2="492" stroke="black" />
<line x1="3982" y1="338" x2="3982" y2="453" stroke="black" />
<line x1="3982" y1="453" x2="3949" y2="492" stroke="black" />
<text x="3949" y="480" font-family="Verdana" font-size="8" text-anchor="middle"  dominant-baseline="middle" fill="black" > 477</text>
<circle cx="3949" cy="492" r="4" fill="white" stroke="black" />
<line x1="3949" y1="496" x2="3949" y2="544" stroke="black" />
<line x1="3945" y1="540" x2="3953" y2="548" stroke="red" />
<line x1="3945" y1="548" x2="3953" y2="540" stroke="red" />
<text x="3949" y="556" font-family="Verdana" font-size="8" text-anchor="middle"  dominant-baseline="middle" fill="black" > 529</text>
<circle cx="4050" cy="193" r="4" fill="white" stroke="black" />
<line x1="4050" y1="197" x2="4050" y2="336" stroke="black" />
<line x1="4025" y1="336" x2="4075" y2="336" stroke="black" />
<text x="4062" y="328" font-family="Verdana" font-size="8" text-anchor="middle"  dominant-baseline="middle" fill="black" > 321</text>
<circle cx="4025" cy="336" r="4" fill="white" stroke="black" />
<line x1="4025" y1="340" x2="4025" y2="544" stroke="black" />
<line x1="4012" y1="544" x2="4038" y2="544" stroke="black" />
<text x="4031" y="536" font-family="Verdana" font-size="8" text-anchor="middle"  dominant-baseline="middle" fill="black" > 529</text>
<circle cx="4012" cy="544" r="4" fill="white" stroke="black" />
<line x1="4012" y1="548" x2="4012" y2="736" stroke="black" />
<circle cx="4012" cy="736" r="4" fill="white" stroke="black" />
<text x="4012" y="748" font-family="Verdana" font-size="8" text-anchor="middle"  dominant-baseline="middle" fill="black" > 721</text>
<circle cx="4037" cy="544" r="4" fill="white" stroke="black" />
<circle cx="4075" cy="336" r="4" fill="white" stroke="black" />
<line x1="4075" y1="340" x2="4075" y2="573" stroke="black" />
<line x1="4062" y1="573" x2="4088" y2="573" stroke="black" />
<text x="4081" y="565" font-family="Verdana" font-size="8" text-anchor="middle"  dominant-baseline="middle" fill="black" > 558</text>
<circle cx="4062" cy="573" r="4" fill="white" stroke="black" />
<circle cx="4087" cy="573" r="4" fill="white" stroke="black" />
<line x1="4037" y1="548" x2="4037" y2="625" stroke="black" />
<line x1="4037" y1="625" x2="4062" y2="642" stroke="black" />
<line x1="4062" y1="577" x2="4062" y2="625" stroke="black" />
<line x1="4062" y1="625" x2="4062" y2="642" stroke="black" />
<line x1="4087" y1="577" x2="4087" y2="625" stroke="black" />
<line x1="4087" y1="625" x2="4062" y2="642" stroke="black" />
<text x="4062" y="630" font-family="Verdana" font-size="8" text-anchor="middle"  dominant-baseline="middle" fill="black" > 627</text>
<circle cx="4062" cy="642" r="4" fill="white" stroke="black" />
<line x1="4062" y1="646" x2="4062" y2="669" stroke="black" />
<line x1="4058" y1="665" x2="4066" y2="673" stroke="red" />
<line x1="4058" y1="673" x2="4066" y2="665" stroke="red" />
<text x="4062" y="681" font-family="Verdana" font-size="8" text-anchor="middle"  dominant-baseline="middle" fill="black" > 654</text>
<text x="4200" y="7" font-family="Verdana" font-size="7" text-anchor="middle"  dominant-baseline="middle" fill="black" > C21</text>
<circle cx="4200" cy="15" r="4" fill="white" stroke="black" />
<line x1="4200" y1="19" x2="4200" y2="244" stroke="black" />
<line x1="4150" y1="244" x2="4250" y2="244" stroke="black" />
<text x="4225" y="236" font-family="Verdana" font-size="8" text-anchor="middle"  dominant-baseline="middle" fill="black" > 229</text>
<circle cx="4150" cy="244" r="4" fill="white" stroke="black" />
<line x1="4150" y1="248" x2="4150" y2="431" stroke="black" />
<line x1="4146" y1="427" x2="4154" y2="435" stroke="red" />
<line x1="4146" y1="435" x2="4154" y2="427" stroke="red" />
<text x="4150" y="443" font-family="Verdana" font-size="8" text-anchor="middle"  dominant-baseline="middle" fill="black" > 416</text>
<circle cx="4250" cy="244" r="4" fill="white" stroke="black" />
<line x1="4250" y1="248" x2="4250" y2="432" stroke="black" />
<line x1="4246" y1="428" x2="4254" y2="436" stroke="red" />
<line x1="4246" y1="436" x2="4254" y2="428" stroke="red" />
<text x="4250" y="444" font-family="Verdana" font-size="8" text-anchor="middle"  dominant-baseline="middle" fill="black" > 417</text>
<text x="4450" y="7" font-family="Verdana" font-size="7" text-anchor="middle"  dominant-baseline="middle" fill="black" > C22</text>
<circle cx="4450" cy="15" r="4" fill="white" stroke="black" />
<line x1="4450" y1="19" x2="4450" y2="369" stroke="black" />
<line x1="4350" y1="369" x2="4550" y2="369" stroke="black" />
<text x="4475" y="361" font-family="Verdana" font-size="8" text-anchor="middle"  dominant-baseline="middle" fill="black" > 354</text>
<circle cx="4350" cy="369" r="4" fill="white" stroke="black" />
<circle cx="4450" cy="369" r="4" fill="white" stroke="black" />
<circle cx="4550" cy="369" r="4" fill="white" stroke="black" />
<line x1="4350" y1="373" x2="4350" y2="432" stroke="black" />
<line x1="4350" y1="432" x2="4450" y2="452" stroke="black" />
<line x1="4450" y1="373" x2="4450" y2="432" stroke="black" />
<line x1="4450" y1="432" x2="4450" y2="452" stroke="black" />
<line x1="4550" y1="373" x2="4550" y2="432" stroke="black" />
<line x1="4550" y1="432" x2="4450" y2="452" stroke="black" />
<text x="4450" y="440" font-family="Verdana" font-size="8" text-anchor="middle"  dominant-baseline="middle" fill="black" > 437</text>
<circle cx="4450" cy="452" r="4" fill="white" stroke="black" />
<line x1="4450" y1="456" x2="4450" y2="619" stroke="black" />
<line x1="4446" y1="615" x2="4454" y2="623" stroke="red" />
<line x1="4446" y1="623" x2="4454" y2="615" stroke="red" />
<text x="4450" y="631" font-family="Verdana" font-size="8" text-anchor="middle"  dominant-baseline="middle" fill="black" > 604</text>
<text x="4650" y="7" font-family="Verdana" font-size="7" text-anchor="middle"  dominant-baseline="middle" fill="black" > C23</text>
<circle cx="4650" cy="15" r="4" fill="white" stroke="black" />
<line x1="4650" y1="19" x2="4650" y2="115" stroke="black" />
<line x1="4646" y1="119" x2="4650" y2="111" stroke="blue" />
<line x1="4650" y1="119" x2="4654" y2="111" stroke="blue" />
<text x="4650" y="127" font-family="Verdana" font-size="8" text-anchor="middle"  dominant-baseline="middle" fill="black" > 100</text>
<text x="4750" y="7" font-family="Verdana" font-size="7" text-anchor="middle"  dominant-baseline="middle" fill="black" > C24</text>
<circle cx="4750" cy="15" r="4" fill="white" stroke="black" />
<line x1="4750" y1="19" x2="4750" y2="209" stroke="black" />
<line x1="4746" y1="213" x2="4750" y2="205" stroke="blue" />
<line x1="4750" y1="213" x2="4754" y2="205" stroke="blue" />
<text x="4750" y="221" font-family="Verdana" font-size="8" text-anchor="middle"  dominant-baseline="middle" fill="black" > 194</text>
</svg>
