<?xml version="1.0" encoding="utf-8"?>
<svg xmlns="http://www.w3.org/2000/svg" version="1.1" width="5250" height="750">
<rect width="5250" height="15" x="0" y="0" fill="white" />
<rect width="5250" height="15" x="0" y="735" fill="white" />
<rect width="25" height="750" x="0" y="0" fill="white" />
<rect width="25" height="750" x="5225" y="0" fill="white" />
<rect width="5210" height="144" x="25" y="15" fill="ghostwhite" />
<rect width="5210" height="144" x="25" y="159" fill="snow" />
<rect width="5210" height="144" x="25" y="303" fill="ghostwhite" />
<rect width="5210" height="144" x="25" y="447" fill="snow" />
<rect width="5210" height="144" x="25" y="591" fill="ghostwhite" />
<text x="12" y="87" font-family="Verdana" font-size="10" text-anchor="middle"  dominant-baseline="middle" fill="red" > D0</text>
<text x="12" y="231" font-family="Verdana" font-size="10" text-anchor="middle"  dominant-baseline="middle" fill="red" > D1</text>
<text x="12" y="375" font-family="Verdana" font-size="10" text-anchor="middle"  dominant-baseline="middle" fill="red" > D2</text>
<text x="12" y="519" font-family="Verdana" font-size="10" text-anchor="middle"  dominant-baseline="middle" fill="red" > D3</text>
<text x="12" y="663" font-family="Verdana" font-size="10" text-anchor="middle"  dominant-baseline="middle" fill="red" > D4</text>
<text x="12" y="20" font-family="Verdana" font-size="10" text-anchor="middle"  dominant-baseline="middle" fill="black" > 0</text>
<text x="12" y="164" font-family="Verdana" font-size="10" text-anchor="middle"  dominant-baseline="middle" fill="black" > 144</text>
<text x="12" y="308" font-family="Verdana" font-size="10" text-anchor="middle"  dominant-baseline="middle" fill="black" > 288</text>
<text x="12" y="452" font-family="Verdana" font-size="10" text-anchor="middle"  dominant-baseline="middle" fill="black" > 432</text>
<text x="12" y="596" font-family="Verdana" font-size="10" text-anchor="middle"  dominant-baseline="middle" fill="black" > 576</text>
<text x="12" y="740" font-family="Verdana" font-size="10" text-anchor="middle"  dominant-baseline="middle" fill="black" > 720</text>
<text x="200" y="7" font-family="Verdana" font-size="7" text-anchor="middle"  dominant-baseline="middle" fill="black" > C1</text>
<circle cx="200" cy="15" r="4" fill="white" stroke="black" />
<line x1="200" y1="19" x2="200" y2="631" stroke="black" />
<line x1="50" y1="631" x2="350" y2="631" stroke="black" />
<text x="225" y="623" font-family="Verdana" font-size="8" text-anchor="middle"  dominant-baseline="middle" fill="black" > 616</text>
<circle cx="50" cy="631" r="4" fill="white" stroke="black" />
<circle cx="150" cy="631" r="4" fill="white" stroke="black" />
<circle cx="250" cy="631" r="4" fill="white" stroke="black" />
<circle cx="350" cy="631" r="4" fill="white" stroke="black" />
<line x1="50" y1="635" x2="50" y2="642" stroke="black" />
<line x1="50" y1="642" x2="200" y2="645" stroke="black" />
<line x1="150" y1="635" x2="150" y2="642" stroke="black" />
<line x1="150" y1="642" x2="200" y2="645" stroke="black" />
<line x1="250" y1="635" x2="250" y2="642" stroke="black" />
<line x1="250" y1="642" x2="200" y2="645" stroke="black" />
<line x1="350" y1="635" x2="350" y2="642" stroke="black" />
<line x1="350" y1="642" x2="200" y2="645" stroke="black" />
<text x="200" y="633" font-family="Verdana" font-size="8" text-anchor="middle"  dominant-baseline="middle" fill="black" > 630</text>
<circle cx="200" cy="645" r="4" fill="white" stroke="black" />
<line x1="200" y1="649" x2="200" y2="661" stroke="black" />
<line x1="196" y1="657" x2="204" y2="665" stroke="red" />
<line x1="196" y1="665" x2="204" y2="657" stroke="red" />
<text x="200" y="673" font-family="Verdana" font-size="8" text-anchor="middle"  dominant-baseline="middle" fill="black" > 646</text>
<text x="450" y="7" font-family="Verdana" font-size="7" text-anchor="middle"  dominant-baseline="middle" fill="black" > C2</text>
<circle cx="450" cy="15" r="4" fill="white" stroke="black" />
<line x1="450" y1="19" x2="450" y2="314" stroke="black" />
<line x1="446" y1="310" x2="454" y2="318" stroke="red" />
<line x1="446" y1="318" x2="454" y2="310" stroke="red" />
<text x="450" y="326" font-family="Verdana" font-size="8" text-anchor="middle"  dominant-baseline="middle" fill="black" > 299</text>
<text x="700" y="7" font-family="Verdana" font-size="7" text-anchor="middle"  dominant-baseline="middle" fill="black" > C3</text>
<circle cx="700" cy="15" r="4" fill="white" stroke="black" />
<line x1="700" y1="19" x2="700" y2="535" stroke="black" />
<line x1="550" y1="535" x2="850" y2="535" stroke="black" />
<text x="725" y="527" font-family="Verdana" font-size="8" text-anchor="middle"  dominant-baseline="middle" fill="black" > 520</text>
<circle cx="550" cy="535" r="4" fill="white" stroke="black" />
<circle cx="650" cy="535" r="4" fill="white" stroke="black" />
<line x1="550" y1="539" x2="550" y2="539" stroke="black" />
<line x1="550" y1="539" x2="600" y2="540" stroke="black" />
<line x1="650" y1="539" x2="650" y2="539" stroke="black" />
<line x1="650" y1="539" x2="600" y2="540" stroke="black" />
<text x="600" y="528" font-family="Verdana" font-size="8" text-anchor="middle"  dominant-baseline="middle" fill="black" > 525</text>
<circle cx="600" cy="540" r="4" fill="white" stroke="black" />
<circle cx="750" cy="535" r="4" fill="white" stroke="black" />
<line x1="600" y1="544" x2="600" y2="550" stroke="black" />
<line x1="600" y1="550" x2="675" y2="553" stroke="black" />
<line x1="750" y1="539" x2="750" y2="550" stroke="black" />
<line x1="750" y1="550" x2="675" y2="553" stroke="black" />
<text x="675" y="541" font-family="Verdana" font-size="8" text-anchor="middle"  dominant-baseline="middle" fill="black" > 538</text>
<circle cx="675" cy="553" r="4" fill="white" stroke="black" />
<circle cx="850" cy="535" r="4" fill="white" stroke="black" />
<line x1="675" y1="557" x2="675" y2="564" stroke="black" />
<line x1="675" y1="564" x2="762" y2="567" stroke="black" />
<line x1="850" y1="539" x2="850" y2="564" stroke="black" />
<line x1="850" y1="564" x2="762" y2="567" stroke="black" />
<text x="762" y="555" font-family="Verdana" font-size="8" text-anchor="middle"  dominant-baseline="middle" fill="black" > 552</text>
<circle cx="762" cy="567" r="4" fill="white" stroke="black" />
<line x1="762" y1="571" x2="762" y2="651" stroke="black" />
<line x1="758" y1="647" x2="766" y2="655" stroke="red" />
<line x1="758" y1="655" x2="766" y2="647" stroke="red" />
<text x="762" y="663" font-family="Verdana" font-size="8" text-anchor="middle"  dominant-baseline="middle" fill="black" > 636</text>
<text x="950" y="7" font-family="Verdana" font-size="7" text-anchor="middle"  dominant-baseline="middle" fill="black" > C4</text>
<circle cx="950" cy="15" r="4" fill="white" stroke="black" />
<line x1="950" y1="19" x2="950" y2="16" stroke="black" />
<line x1="946" y1="20" x2="950" y2="12" stroke="blue" />
<line x1="950" y1="20" x2="954" y2="12" stroke="blue" />
<text x="950" y="28" font-family="Verdana" font-size="8" text-anchor="middle"  dominant-baseline="middle" fill="black" > 1</text>
<text x="1050" y="7" font-family="Verdana" font-size="7" text-anchor="middle"  dominant-baseline="middle" fill="black" > C5</text>
<circle cx="1050" cy="15" r="4" fill="white" stroke="black" />
<line x1="1050" y1="19" x2="1050" y2="47" stroke="black" />
<line x1="1046" y1="51" x2="1050" y2="43" stroke="blue" />
<line x1="1050" y1="51" x2="1054" y2="43" stroke="blue" />
<text x="1050" y="59" font-family="Verdana" font-size="8" text-anchor="middle"  dominant-baseline="middle" fill="black" > 32</text>
<text x="1200" y="7" font-family="Verdana" font-size="7" text-anchor="middle"  dominant-baseline="middle" fill="black" > C6</text>
<circle cx="1200" cy="15" r="4" fill="white" stroke="black" />
<line x1="1200" y1="19" x2="1200" y2="348" stroke="black" />
<line x1="1150" y1="348" x2="1250" y2="348" stroke="black" />
<text x="1225" y="340" font-family="Verdana" font-size="8" text-anchor="middle"  dominant-baseline="middle" fill="black" > 333</text>
<circle cx="1150" cy="348" r="4" fill="white" stroke="black" />
<circle cx="1250" cy="348" r="4" fill="white" stroke="black" />
<line x1="1150" y1="352" x2="1150" y2="373" stroke="black" />
<line x1="1150" y1="373" x2="1200" y2="381" stroke="black" />
<line x1="1250" y1="352" x2="1250" y2="373" stroke="black" />
<line x1="1250" y1="373" x2="1200" y2="381" stroke="black" />
<text x="1200" y="369" font-family="Verdana" font-size="8" text-anchor="middle"  dominant-baseline="middle" fill="black" > 366</text>
<circle cx="1200" cy="381" r="4" fill="white" stroke="black" />
<line x1="1200" y1="385" x2="1200" y2="465" stroke="black" />
<line x1="1196" y1="461" x2="1204" y2="469" stroke="red" />
<line x1="1196" y1="469" x2="1204" y2="461" stroke="red" />
<text x="1200" y="477" font-family="Verdana" font-size="8" text-anchor="middle"  dominant-baseline="middle" fill="black" > 450</text>
<text x="1500" y="7" font-family="Verdana" font-size="7" text-anchor="middle"  dominant-baseline="middle" fill="black" > C7</text>
<circle cx="1500" cy="15" r="4" fill="white" stroke="black" />
<line x1="1500" y1="19" x2="1500" y2="631" stroke="black" />
<line x1="1350" y1="631" x2="1650" y2="631" stroke="black" />
<text x="1525" y="623" font-family="Verdana" font-size="8" text-anchor="middle"  dominant-baseline="middle" fill="black" > 616</text>
<circle cx="1350" cy="631" r="4" fill="white" stroke="black" />
<circle cx="1450" cy="631" r="4" fill="white" stroke="black" />
<line x1="1350" y1="635" x2="1350" y2="643" stroke="black" />
<line x1="1350" y1="643" x2="1400" y2="647" stroke="black" />
<line x1="1450" y1="635" x2="1450" y2="643" stroke="black" />
<line x1="1450" y1="643" x2="1400" y2="647" stroke="black" />
<text x="1400" y="635" font-family="Verdana" font-size="8" text-anchor="middle"  dominant-baseline="middle" fill="black" > 632</text>
<circle cx="1400" cy="647" r="4" fill="white" stroke="black" />
<circle cx="1550" cy="631" r="4" fill="white" stroke="black" />
<circle cx="1650" cy="631" r="4" fill="white" stroke="black" />
<line x1="1550" y1="635" x2="1550" y2="646" stroke="black" />
<line x1="1550" y1="646" x2="1600" y2="650" stroke="black" />
<line x1="1650" y1="635" x2="1650" y2="646" stroke="black" />
<line x1="1650" y1="646" x2="1600" y2="650" stroke="black" />
<text x="1600" y="638" font-family="Verdana" font-size="8" text-anchor="middle"  dominant-baseline="middle" fill="black" > 635</text>
<circle cx="1600" cy="650" r="4" fill="white" stroke="black" />
<line x1="1400" y1="651" x2="1400" y2="652" stroke="black" />
<line x1="1400" y1="652" x2="1500" y2="652" stroke="black" />
<line x1="1600" y1="654" x2="1600" y2="652" stroke="black" />
<line x1="1600" y1="652" x2="1500" y2="652" stroke="black" />
<text x="1500" y="640" font-family="Verdana" font-size="8" text-anchor="middle"  dominant-baseline="middle" fill="black" > 637</text>
<circle cx="1500" cy="652" r="4" fill="white" stroke="black" />
<line x1="1500" y1="656" x2="1500" y2="687" stroke="black" />
<line x1="1496" y1="683" x2="1504" y2="691" stroke="red" />
<line x1="1496" y1="691" x2="1504" y2="683" stroke="red" />
<text x="1500" y="699" font-family="Verdana" font-size="8" text-anchor="middle"  dominant-baseline="middle" fill="black" > 672</text>
<text x="1750" y="7" font-family="Verdana" font-size="7" text-anchor="middle"  dominant-baseline="middle" fill="black" > C8</text>
<circle cx="1750" cy="15" r="4" fill="white" stroke="black" />
<line x1="1750" y1="19" x2="1750" y2="411" stroke="black" />
<line x1="1746" y1="415" x2="1750" y2="407" stroke="blue" />
<line x1="1750" y1="415" x2="1754" y2="407" stroke="blue" />
<text x="1750" y="423" font-family="Verdana" font-size="8" text-anchor="middle"  dominant-baseline="middle" fill="black" > 396</text>
<text x="1900" y="7" font-family="Verdana" font-size="7" text-anchor="middle"  dominant-baseline="middle" fill="black" > C9</text>
<circle cx="1900" cy="15" r="4" fill="white" stroke="black" />
<line x1="1900" y1="19" x2="1900" y2="177" stroke="black" />
<line x1="1850" y1="177" x2="1950" y2="177" stroke="black" />
<text x="1925" y="169" font-family="Verdana" font-size="8" text-anchor="middle"  dominant-baseline="middle" fill="black" > 162</text>
<circle cx="1850" cy="177" r="4" fill="white" stroke="black" />
<line x1="1850" y1="181" x2="1850" y2="409" stroke="black" />
<line x1="1816" y1="409" x2="1884" y2="409" stroke="black" />
<text x="1858" y="401" font-family="Verdana" font-size="8" text-anchor="middle"  dominant-baseline="middle" fill="black" > 394</text>
<circle cx="1816" cy="409" r="4" fill="white" stroke="black" />
<line x1="1816" y1="413" x2="1816" y2="568" stroke="black" />
<line x1="1812" y1="564" x2="1820" y2="572" stroke="red" />
<line x1="1812" y1="572" x2="1820" y2="564" stroke="red" />
<text x="1816" y="580" font-family="Verdana" font-size="8" text-anchor="middle"  dominant-baseline="middle" fill="black" > 553</text>
<circle cx="1849" cy="409" r="4" fill="white" stroke="black" />
<circle cx="1882" cy="409" r="4" fill="white" stroke="black" />
<line x1="1849" y1="413" x2="1849" y2="429" stroke="black" />
<line x1="1849" y1="429" x2="1865" y2="435" stroke="black" />
<line x1="1882" y1="413" x2="1882" y2="429" stroke="black" />
<line x1="1882" y1="429" x2="1865" y2="435" stroke="black" />
<text x="1865" y="423" font-family="Verdana" font-size="8" text-anchor="middle"  dominant-baseline="middle" fill="black" > 420</text>
<circle cx="1865" cy="435" r="4" fill="white" stroke="black" />
<line x1="1865" y1="439" x2="1865" y2="736" stroke="black" />
<circle cx="1865" cy="736" r="4" fill="white" stroke="black" />
<text x="1865" y="748" font-family="Verdana" font-size="8" text-anchor="middle"  dominant-baseline="middle" fill="black" > 721</text>
<circle cx="1950" cy="177" r="4" fill="white" stroke="black" />
<line x1="1950" y1="181" x2="1950" y2="315" stroke="black" />
<line x1="1925" y1="315" x2="1975" y2="315" stroke="black" />
<text x="1962" y="307" font-family="Verdana" font-size="8" text-anchor="middle"  dominant-baseline="middle" fill="black" > 300</text>
<circle cx="1925" cy="315" r="4" fill="white" stroke="black" />
<circle cx="1975" cy="315" r="4" fill="white" stroke="black" />
<line x1="1925" y1="319" x2="1925" y2="440" stroke="black" />
<line x1="1925" y1="440" x2="1950" y2="481" stroke="black" />
<line x1="1975" y1="319" x2="1975" y2="440" stroke="black" />
<line x1="1975" y1="440" x2="1950" y2="481" stroke="black" />
<text x="1950" y="469" font-family="Verdana" font-size="8" text-anchor="middle"  dominant-baseline="middle" fill="black" > 466</text>
<circle cx="1950" cy="481" r="4" fill="white" stroke="black" />
<line x1="1950" y1="485" x2="1950" y2="647" stroke="black" />
<line x1="1946" y1="643" x2="1954" y2="651" stroke="red" />
<line x1="1946" y1="651" x2="1954" y2="643" stroke="red" />
<text x="1950" y="659" font-family="Verdana" font-size="8" text-anchor="middle"  dominant-baseline="middle" fill="black" > 632</text>
<text x="2050" y="7" font-family="Verdana" font-size="7" text-anchor="middle"  dominant-baseline="middle" fill="black" > C10</text>
<circle cx="2050" cy="15" r="4" fill="white" stroke="black" />
<line x1="2050" y1="19" x2="2050" y2="16" stroke="black" />
<line x1="2046" y1="20" x2="2050" y2="12" stroke="blue" />
<line x1="2050" y1="20" x2="2054" y2="12" stroke="blue" />
<text x="2050" y="28" font-family="Verdana" font-size="8" text-anchor="middle"  dominant-baseline="middle" fill="black" > 1</text>
<text x="2300" y="7" font-family="Verdana" font-size="7" text-anchor="middle"  dominant-baseline="middle" fill="black" > C11</text>
<circle cx="2300" cy="15" r="4" fill="white" stroke="black" />
<line x1="2300" y1="19" x2="2300" y2="492" stroke="black" />
<line x1="2150" y1="492" x2="2450" y2="492" stroke="black" />
<text x="2325" y="484" font-family="Verdana" font-size="8" text-anchor="middle"  dominant-baseline="middle" fill="black" > 477</text>
<circle cx="2150" cy="492" r="4" fill="white" stroke="black" />
<circle cx="2250" cy="492" r="4" fill="white" stroke="black" />
<line x1="2150" y1="496" x2="2150" y2="502" stroke="black" />
<line x1="2150" y1="502" x2="2200" y2="505" stroke="black" />
<line x1="2250" y1="496" x2="2250" y2="502" stroke="black" />
<line x1="2250" y1="502" x2="2200" y2="505" stroke="black" />
<text x="2200" y="493" font-family="Verdana" font-size="8" text-anchor="middle"  dominant-baseline="middle" fill="black" > 490</text>
<circle cx="2200" cy="505" r="4" fill="white" stroke="black" />
<circle cx="2350" cy="492" r="4" fill="white" stroke="black" />
<circle cx="2450" cy="492" r="4" fill="white" stroke="black" />
<line x1="2350" y1="496" x2="2350" y2="501" stroke="black" />
<line x1="2350" y1="501" x2="2400" y2="503" stroke="black" />
<line x1="2450" y1="496" x2="2450" y2="501" stroke="black" />
<line x1="2450" y1="501" x2="2400" y2="503" stroke="black" />
<text x="2400" y="491" font-family="Verdana" font-size="8" text-anchor="middle"  dominant-baseline="middle" fill="black" > 488</text>
<circle cx="2400" cy="503" r="4" fill="white" stroke="black" />
<line x1="2200" y1="509" x2="2200" y2="514" stroke="black" />
<line x1="2200" y1="514" x2="2300" y2="516" stroke="black" />
<line x1="2400" y1="507" x2="2400" y2="514" stroke="black" />
<line x1="2400" y1="514" x2="2300" y2="516" stroke="black" />
<text x="2300" y="504" font-family="Verdana" font-size="8" text-anchor="middle"  dominant-baseline="middle" fill="black" > 501</text>
<circle cx="2300" cy="516" r="4" fill="white" stroke="black" />
<line x1="2300" y1="520" x2="2300" y2="736" stroke="black" />
<circle cx="2300" cy="736" r="4" fill="white" stroke="black" />
<text x="2300" y="748" font-family="Verdana" font-size="8" text-anchor="middle"  dominant-baseline="middle" fill="black" > 721</text>
<text x="2600" y="7" font-family="Verdana" font-size="7" text-anchor="middle"  dominant-baseline="middle" fill="black" > C12</text>
<circle cx="2600" cy="15" r="4" fill="white" stroke="black" />
<line x1="2600" y1="19" x2="2600" y2="214" stroke="black" />
<line x1="2550" y1="214" x2="2650" y2="214" stroke="black" />
<text x="2625" y="206" font-family="Verdana" font-size="8" text-anchor="middle"  dominant-baseline="middle" fill="black" > 199</text>
<circle cx="2550" cy="214" r="4" fill="white" stroke="black" />
<line x1="2550" y1="218" x2="2550" y2="452" stroke="black" />
<line x1="2525" y1="452" x2="2575" y2="452" stroke="black" />
<text x="2562" y="444" font-family="Verdana" font-size="8" text-anchor="middle"  dominant-baseline="middle" fill="black" > 437</text>
<circle cx="2525" cy="452" r="4" fill="white" stroke="black" />
<line x1="2525" y1="456" x2="2525" y2="736" stroke="black" />
<circle cx="2525" cy="736" r="4" fill="white" stroke="black" />
<text x="2525" y="748" font-family="Verdana" font-size="8" text-anchor="middle"  dominant-baseline="middle" fill="black" > 721</text>
<circle cx="2575" cy="452" r="4" fill="white" stroke="black" />
<line x1="2575" y1="456" x2="2575" y2="736" stroke="black" />
<circle cx="2575" cy="736" r="4" fill="white" stroke="black" />
<text x="2575" y="748" font-family="Verdana" font-size="8" text-anchor="middle"  dominant-baseline="middle" fill="black" > 721</text>
<circle cx="2650" cy="214" r="4" fill="white" stroke="black" />
<line x1="2650" y1="218" x2="2650" y2="383" stroke="black" />
<line x1="2625" y1="383" x2="2675" y2="383" stroke="black" />
<text x="2662" y="375" font-family="Verdana" font-size="8" text-anchor="middle"  dominant-baseline="middle" fill="black" > 368</text>
<circle cx="2625" cy="383" r="4" fill="white" stroke="black" />
<circle cx="2675" cy="383" r="4" fill="white" stroke="black" />
<line x1="2625" y1="387" x2="2625" y2="389" stroke="black" />
<line x1="2625" y1="389" x2="2650" y2="391" stroke="black" />
<line x1="2675" y1="387" x2="2675" y2="389" stroke="black" />
<line x1="2675" y1="389" x2="2650" y2="391" stroke="black" />
<text x="2650" y="379" font-family="Verdana" font-size="8" text-anchor="middle"  dominant-baseline="middle" fill="black" > 376</text>
<circle cx="2650" cy="391" r="4" fill="white" stroke="black" />
<line x1="2650" y1="395" x2="2650" y2="670" stroke="black" />
<line x1="2646" y1="666" x2="2654" y2="674" stroke="red" />
<line x1="2646" y1="674" x2="2654" y2="666" stroke="red" />
<text x="2650" y="682" font-family="Verdana" font-size="8" text-anchor="middle"  dominant-baseline="middle" fill="black" > 655</text>
<text x="2800" y="7" font-family="Verdana" font-size="7" text-anchor="middle"  dominant-baseline="middle" fill="black" > C13</text>
<circle cx="2800" cy="15" r="4" fill="white" stroke="black" />
<line x1="2800" y1="19" x2="2800" y2="194" stroke="black" />
<line x1="2750" y1="194" x2="2850" y2="194" stroke="black" />
<text x="2825" y="186" font-family="Verdana" font-size="8" text-anchor="middle"  dominant-baseline="middle" fill="black" > 179</text>
<circle cx="2750" cy="194" r="4" fill="white" stroke="black" />
<line x1="2750" y1="198" x2="2750" y2="461" stroke="black" />
<line x1="2746" y1="457" x2="2754" y2="465" stroke="red" />
<line x1="2746" y1="465" x2="2754" y2="457" stroke="red" />
<text x="2750" y="473" font-family="Verdana" font-size="8" text-anchor="middle"  dominant-baseline="middle" fill="black" > 446</text>
<circle cx="2850" cy="194" r="4" fill="white" stroke="black" />
<line x1="2850" y1="198" x2="2850" y2="355" stroke="black" />
<line x1="2825" y1="355" x2="2875" y2="355" stroke="black" />
<text x="2862" y="347" font-family="Verdana" font-size="8" text-anchor="middle"  dominant-baseline="middle" fill="black" > 340</text>
<circle cx="2825" cy="355" r="4" fill="white" stroke="black" />
<line x1="2825" y1="359" x2="2825" y2="732" stroke="black" />
<line x1="2821" y1="728" x2="2829" y2="736" stroke="red" />
<line x1="2821" y1="736" x2="2829" y2="728" stroke="red" />
<text x="2825" y="744" font-family="Verdana" font-size="8" text-anchor="middle"  dominant-baseline="middle" fill="black" > 717</text>
<circle cx="2875" cy="355" r="4" fill="white" stroke="black" />
<line x1="2875" y1="359" x2="2875" y2="581" stroke="black" />
<line x1="2862" y1="581" x2="2888" y2="581" stroke="black" />
<text x="2881" y="573" font-family="Verdana" font-size="8" text-anchor="middle"  dominant-baseline="middle" fill="black" > 566</text>
<circle cx="2862" cy="581" r="4" fill="white" stroke="black" />
<line x1="2862" y1="585" x2="2862" y2="736" stroke="black" />
<circle cx="2862" cy="736" r="4" fill="white" stroke="black" />
<text x="2862" y="748" font-family="Verdana" font-size="8" text-anchor="middle"  dominant-baseline="middle" fill="black" > 721</text>
<circle cx="2887" cy="581" r="4" fill="white" stroke="black" />
<line x1="2887" y1="585" x2="2887" y2="736" stroke="black" />
<circle cx="2887" cy="736" r="4" fill="white" stroke="black" />
<text x="2887" y="748" font-family="Verdana" font-size="8" text-anchor="middle"  dominant-baseline="middle" fill="black" > 721</text>
<text x="3050" y="7" font-family="Verdana" font-size="7" text-anchor="middle"  dominant-baseline="middle" fill="black" > C14</text>
<circle cx="3050" cy="15" r="4" fill="white" stroke="black" />
<line x1="3050" y1="19" x2="3050" y2="136" stroke="black" />
<line x1="2950" y1="136" x2="3150" y2="136" stroke="black" />
<text x="3075" y="128" font-family="Verdana" font-size="8" text-anchor="middle"  dominant-baseline="middle" fill="black" > 121</text>
<circle cx="2950" cy="136" r="4" fill="white" stroke="black" />
<line x1="2950" y1="140" x2="2950" y2="146" stroke="black" />
<line x1="2946" y1="142" x2="2954" y2="150" stroke="red" />
<line x1="2946" y1="150" x2="2954" y2="142" stroke="red" />
<text x="2950" y="158" font-family="Verdana" font-size="8" text-anchor="middle"  dominant-baseline="middle" fill="black" > 131</text>
<circle cx="3050" cy="136" r="4" fill="white" stroke="black" />
<line x1="3050" y1="140" x2="3050" y2="146" stroke="black" />
<line x1="3046" y1="142" x2="3054" y2="150" stroke="red" />
<line x1="3046" y1="150" x2="3054" y2="142" stroke="red" />
<text x="3050" y="158" font-family="Verdana" font-size="8" text-anchor="middle"  dominant-baseline="middle" fill="black" > 131</text>
<circle cx="3150" cy="136" r="4" fill="white" stroke="black" />
<line x1="3150" y1="140" x2="3150" y2="147" stroke="black" />
<line x1="3146" y1="143" x2="3154" y2="151" stroke="red" />
<line x1="3146" y1="151" x2="3154" y2="143" stroke="red" />
<text x="3150" y="159" font-family="Verdana" font-size="8" text-anchor="middle"  dominant-baseline="middle" fill="black" > 132</text>
<text x="3350" y="7" font-family="Verdana" font-size="7" text-anchor="middle"  dominant-baseline="middle" fill="black" > C15</text>
<circle cx="3350" cy="15" r="4" fill="white" stroke="black" />
<line x1="3350" y1="19" x2="3350" y2="235" stroke="black" />
<line x1="3250" y1="235" x2="3450" y2="235" stroke="black" />
<text x="3375" y="227" font-family="Verdana" font-size="8" text-anchor="middle"  dominant-baseline="middle" fill="black" > 220</text>
<circle cx="3250" cy="235" r="4" fill="white" stroke="black" />
<circle cx="3350" cy="235" r="4" fill="white" stroke="black" />
<line x1="3250" y1="239" x2="3250" y2="254" stroke="black" />
<line x1="3250" y1="254" x2="3300" y2="260" stroke="black" />
<line x1="3350" y1="239" x2="3350" y2="254" stroke="black" />
<line x1="3350" y1="254" x2="3300" y2="260" stroke="black" />
<text x="3300" y="248" font-family="Verdana" font-size="8" text-anchor="middle"  dominant-baseline="middle" fill="black" > 245</text>
<circle cx="3300" cy="260" r="4" fill="white" stroke="black" />
<circle cx="3450" cy="235" r="4" fill="white" stroke="black" />
<line x1="3300" y1="264" x2="3300" y2="263" stroke="black" />
<line x1="3300" y1="263" x2="3375" y2="264" stroke="black" />
<line x1="3450" y1="239" x2="3450" y2="263" stroke="black" />
<line x1="3450" y1="263" x2="3375" y2="264" stroke="black" />
<text x="3375" y="252" font-family="Verdana" font-size="8" text-anchor="middle"  dominant-baseline="middle" fill="black" > 249</text>
<circle cx="3375" cy="264" r="4" fill="white" stroke="black" />
<line x1="3375" y1="268" x2="3375" y2="679" stroke="black" />
<line x1="3371" y1="675" x2="3379" y2="683" stroke="red" />
<line x1="3371" y1="683" x2="3379" y2="675" stroke="red" />
<text x="3375" y="691" font-family="Verdana" font-size="8" text-anchor="middle"  dominant-baseline="middle" fill="black" > 664</text>
<text x="3600" y="7" font-family="Verdana" font-size="7" text-anchor="middle"  dominant-baseline="middle" fill="black" > C16</text>
<circle cx="3600" cy="15" r="4" fill="white" stroke="black" />
<line x1="3600" y1="19" x2="3600" y2="262" stroke="black" />
<line x1="3550" y1="262" x2="3650" y2="262" stroke="black" />
<text x="3625" y="254" font-family="Verdana" font-size="8" text-anchor="middle"  dominant-baseline="middle" fill="black" > 247</text>
<circle cx="3550" cy="262" r="4" fill="white" stroke="black" />
<circle cx="3650" cy="262" r="4" fill="white" stroke="black" />
<line x1="3550" y1="266" x2="3550" y2="395" stroke="black" />
<line x1="3550" y1="395" x2="3600" y2="439" stroke="black" />
<line x1="3650" y1="266" x2="3650" y2="395" stroke="black" />
<line x1="3650" y1="395" x2="3600" y2="439" stroke="black" />
<text x="3600" y="427" font-family="Verdana" font-size="8" text-anchor="middle"  dominant-baseline="middle" fill="black" > 424</text>
<circle cx="3600" cy="439" r="4" fill="white" stroke="black" />
<line x1="3600" y1="443" x2="3600" y2="684" stroke="black" />
<line x1="3596" y1="680" x2="3604" y2="688" stroke="red" />
<line x1="3596" y1="688" x2="3604" y2="680" stroke="red" />
<text x="3600" y="696" font-family="Verdana" font-size="8" text-anchor="middle"  dominant-baseline="middle" fill="black" > 669</text>
<text x="3850" y="7" font-family="Verdana" font-size="7" text-anchor="middle"  dominant-baseline="middle" fill="black" > C17</text>
<circle cx="3850" cy="15" r="4" fill="white" stroke="black" />
<line x1="3850" y1="19" x2="3850" y2="354" stroke="black" />
<line x1="3750" y1="354" x2="3950" y2="354" stroke="black" />
<text x="3875" y="346" font-family="Verdana" font-size="8" text-anchor="middle"  dominant-baseline="middle" fill="black" > 339</text>
<circle cx="3750" cy="354" r="4" fill="white" stroke="black" />
<line x1="3750" y1="358" x2="3750" y2="528" stroke="black" />
<line x1="3746" y1="524" x2="3754" y2="532" stroke="red" />
<line x1="3746" y1="532" x2="3754" y2="524" stroke="red" />
<text x="3750" y="540" font-family="Verdana" font-size="8" text-anchor="middle"  dominant-baseline="middle" fill="black" > 513</text>
<circle cx="3850" cy="354" r="4" fill="white" stroke="black" />
<line x1="3850" y1="358" x2="3850" y2="608" stroke="black" />
<line x1="3846" y1="604" x2="3854" y2="612" stroke="red" />
<line x1="3846" y1="612" x2="3854" y2="604" stroke="red" />
<text x="3850" y="620" font-family="Verdana" font-size="8" text-anchor="middle"  dominant-baseline="middle" fill="black" > 593</text>
<circle cx="3950" cy="354" r="4" fill="white" stroke="black" />
<line x1="3950" y1="358" x2="3950" y2="712" stroke="black" />
<line x1="3946" y1="708" x2="3954" y2="716" stroke="red" />
<line x1="3946" y1="716" x2="3954" y2="708" stroke="red" />
<text x="3950" y="724" font-family="Verdana" font-size="8" text-anchor="middle"  dominant-baseline="middle" fill="black" > 697</text>
<text x="4150" y="7" font-family="Verdana" font-size="7" text-anchor="middle"  dominant-baseline="middle" fill="black" > C18</text>
<circle cx="4150" cy="15" r="4" fill="white" stroke="black" />
<line x1="4150" y1="19" x2="4150" y2="445" stroke="black" />
<line x1="4050" y1="445" x2="4250" y2="445" stroke="black" />
<text x="4175" y="437" font-family="Verdana" font-size="8" text-anchor="middle"  dominant-baseline="middle" fill="black" > 430</text>
<circle cx="4050" cy="445" r="4" fill="white" stroke="black" />
<circle cx="4150" cy="445" r="4" fill="white" stroke="black" />
<line x1="4050" y1="449" x2="4050" y2="456" stroke="black" />
<line x1="4050" y1="456" x2="4100" y2="459" stroke="black" />
<line x1="4150" y1="449" x2="4150" y2="456" stroke="black" />
<line x1="4150" y1="456" x2="4100" y2="459" stroke="black" />
<text x="4100" y="447" font-family="Verdana" font-size="8" text-anchor="middle"  dominant-baseline="middle" fill="black" > 444</text>
<circle cx="4100" cy="459" r="4" fill="white" stroke="black" />
<circle cx="4250" cy="445" r="4" fill="white" stroke="black" />
<line x1="4100" y1="463" x2="4100" y2="472" stroke="black" />
<line x1="4100" y1="472" x2="4175" y2="476" stroke="black" />
<line x1="4250" y1="449" x2="4250" y2="472" stroke="black" />
<line x1="4250" y1="472" x2="4175" y2="476" stroke="black" />
<text x="4175" y="464" font-family="Verdana" font-size="8" text-anchor="middle"  dominant-baseline="middle" fill="black" > 461</text>
<circle cx="4175" cy="476" r="4" fill="white" stroke="black" />
<line x1="4175" y1="480" x2="4175" y2="480" stroke="black" />
<line x1="4171" y1="476" x2="4179" y2="484" stroke="red" />
<line x1="4171" y1="484" x2="4179" y2="476" stroke="red" />
<text x="4175" y="492" font-family="Verdana" font-size="8" text-anchor="middle"  dominant-baseline="middle" fill="black" > 465</text>
<text x="4450" y="7" font-family="Verdana" font-size="7" text-anchor="middle"  dominant-baseline="middle" fill="black" > C19</text>
<circle cx="4450" cy="15" r="4" fill="white" stroke="black" />
<line x1="4450" y1="19" x2="4450" y2="295" stroke="black" />
<line x1="4350" y1="295" x2="4550" y2="295" stroke="black" />
<text x="4475" y="287" font-family="Verdana" font-size="8" text-anchor="middle"  dominant-baseline="middle" fill="black" > 280</text>
<circle cx="4350" cy="295" r="4" fill="white" stroke="black" />
<circle cx="4450" cy="295" r="4" fill="white" stroke="black" />
<line x1="4350" y1="299" x2="4350" y2="310" stroke="black" />
<line x1="4350" y1="310" x2="4400" y2="315" stroke="black" />
<line x1="4450" y1="299" x2="4450" y2="310" stroke="black" />
<line x1="4450" y1="310" x2="4400" y2="315" stroke="black" />
<text x="4400" y="303" font-family="Verdana" font-size="8" text-anchor="middle"  dominant-baseline="middle" fill="black" > 300</text>
<circle cx="4400" cy="315" r="4" fill="white" stroke="black" />
<circle cx="4550" cy="295" r="4" fill="white" stroke="black" />
<line x1="4400" y1="319" x2="4400" y2="346" stroke="black" />
<line x1="4400" y1="346" x2="4475" y2="356" stroke="black" />
<line x1="4550" y1="299" x2="4550" y2="346" stroke="black" />
<line x1="4550" y1="346" x2="4475" y2="356" stroke="black" />
<text x="4475" y="344" font-family="Verdana" font-size="8" text-anchor="middle"  dominant-baseline="middle" fill="black" > 341</text>
<circle cx="4475" cy="356" r="4" fill="white" stroke="black" />
<line x1="4475" y1="360" x2="4475" y2="523" stroke="black" />
<line x1="4471" y1="519" x2="4479" y2="527" stroke="red" />
<line x1="4471" y1="527" x2="4479" y2="519" stroke="red" />
<text x="4475" y="535" font-family="Verdana" font-size="8" text-anchor="middle"  dominant-baseline="middle" fill="black" > 508</text>
<text x="4750" y="7" font-family="Verdana" font-size="7" text-anchor="middle"  dominant-baseline="middle" fill="black" > C20</text>
<circle cx="4750" cy="15" r="4" fill="white" stroke="black" />
<line x1="4750" y1="19" x2="4750" y2="378" stroke="black" />
<line x1="4650" y1="378" x2="4850" y2="378" stroke="black" />
<text x="4775" y="370" font-family="Verdana" font-size="8" text-anchor="middle"  dominant-baseline="middle" fill="black" > 363</text>
<circle cx="4650" cy="378" r="4" fill="white" stroke="black" />
<circle cx="4750" cy="378" r="4" fill="white" stroke="black" />
<line x1="4650" y1="382" x2="4650" y2="402" stroke="black" />
<line x1="4650" y1="402" x2="4700" y2="410" stroke="black" />
<line x1="4750" y1="382" x2="4750" y2="402" stroke="black" />
<line x1="4750" y1="402" x2="4700" y2="410" stroke="black" />
<text x="4700" y="398" font-family="Verdana" font-size="8" text-anchor="middle"  dominant-baseline="middle" fill="black" > 395</text>
<circle cx="4700" cy="410" r="4" fill="white" stroke="black" />
<line x1="4700" y1="414" x2="4700" y2="468" stroke="black" />
<line x1="4696" y1="464" x2="4704" y2="472" stroke="red" />
<line x1="4696" y1="472" x2="4704" y2="464" stroke="red" />
<text x="4700" y="480" font-family="Verdana" font-size="8" text-anchor="middle"  dominant-baseline="middle" fill="black" > 453</text>
<circle cx="4850" cy="378" r="4" fill="white" stroke="black" />
<line x1="4850" y1="382" x2="4850" y2="551" stroke="black" />
<line x1="4825" y1="551" x2="4875" y2="551" stroke="black" />
<text x="4862" y="543" font-family="Verdana" font-size="8" text-anchor="middle"  dominant-baseline="middle" fill="black" > 536</text>
<circle cx="4825" cy="551" r="4" fill="white" stroke="black" />
<line x1="4825" y1="555" x2="4825" y2="598" stroke="black" />
<line x1="4821" y1="602" x2="4825" y2="594" stroke="blue" />
<line x1="4825" y1="602" x2="4829" y2="594" stroke="blue" />
<text x="4825" y="610" font-family="Verdana" font-size="8" text-anchor="middle"  dominant-baseline="middle" fill="black" > 583</text>
<circle cx="4875" cy="551" r="4" fill="white" stroke="black" />
<line x1="4875" y1="555" x2="4875" y2="718" stroke="black" />
<line x1="4862" y1="718" x2="4888" y2="718" stroke="black" />
<text x="4881" y="710" font-family="Verdana" font-size="8" text-anchor="middle"  dominant-baseline="middle" fill="black" > 703</text>
<circle cx="4862" cy="718" r="4" fill="white" stroke="black" />
<line x1="4862" y1="722" x2="4862" y2="736" stroke="black" />
<circle cx="4862" cy="736" r="4" fill="white" stroke="black" />
<text x="4862" y="748" font-family="Verdana" font-size="8" text-anchor="middle"  dominant-baseline="middle" fill="black" > 721</text>
<circle cx="4887" cy="718" r="4" fill="white" stroke="black" />
<line x1="4887" y1="722" x2="4887" y2="736" stroke="black" />
<circle cx="4887" cy="736" r="4" fill="white" stroke="black" />
<text x="4887" y="748" font-family="Verdana" font-size="8" text-anchor="middle"  dominant-baseline="middle" fill="black" > 721</text>
<text x="5000" y="7" font-family="Verdana" font-size="7" text-anchor="middle"  dominant-baseline="middle" fill="black" > C21</text>
<circle cx="5000" cy="15" r="4" fill="white" stroke="black" />
<line x1="5000" y1="19" x2="5000" y2="249" stroke="black" />
<line x1="4950" y1="249" x2="5050" y2="249" stroke="black" />
<text x="5025" y="241" font-family="Verdana" font-size="8" text-anchor="middle"  dominant-baseline="middle" fill="black" > 234</text>
<circle cx="4950" cy="249" r="4" fill="white" stroke="black" />
<line x1="4950" y1="253" x2="4950" y2="512" stroke="black" />
<line x1="4946" y1="508" x2="4954" y2="516" stroke="red" />
<line x1="4946" y1="516" x2="4954" y2="508" stroke="red" />
<text x="4950" y="524" font-family="Verdana" font-size="8" text-anchor="middle"  dominant-baseline="middle" fill="black" > 497</text>
<circle cx="5050" cy="249" r="4" fill="white" stroke="black" />
<line x1="5050" y1="253" x2="5050" y2="374" stroke="black" />
<line x1="5025" y1="374" x2="5075" y2="374" stroke="black" />
<text x="5062" y="366" font-family="Verdana" font-size="8" text-anchor="middle"  dominant-baseline="middle" fill="black" > 359</text>
<circle cx="5025" cy="374" r="4" fill="white" stroke="black" />
<line x1="5025" y1="378" x2="5025" y2="710" stroke="black" />
<line x1="5008" y1="710" x2="5042" y2="710" stroke="black" />
<text x="5029" y="702" font-family="Verdana" font-size="8" text-anchor="middle"  dominant-baseline="middle" fill="black" > 695</text>
<circle cx="5008" cy="710" r="4" fill="white" stroke="black" />
<line x1="5008" y1="714" x2="5008" y2="736" stroke="black" />
<circle cx="5008" cy="736" r="4" fill="white" stroke="black" />
<text x="5008" y="748" font-family="Verdana" font-size="8" text-anchor="middle"  dominant-baseline="middle" fill="black" > 721</text>
<circle cx="5024" cy="710" r="4" fill="white" stroke="black" />
<line x1="5024" y1="714" x2="5024" y2="736" stroke="black" />
<circle cx="5024" cy="736" r="4" fill="white" stroke="black" />
<text x="5024" y="748" font-family="Verdana" font-size="8" text-anchor="middle"  dominant-baseline="middle" fill="black" > 721</text>
<circle cx="5040" cy="710" r="4" fill="white" stroke="black" />
<line x1="5040" y1="714" x2="5040" y2="736" stroke="black" />
<circle cx="5040" cy="736" r="4" fill="white" stroke="black" />
<text x="5040" y="748" font-family="Verdana" font-size="8" text-anchor="middle"  dominant-baseline="middle" fill="black" > 721</text>
<circle cx="5075" cy="374" r="4" fill="white" stroke="black" />
<line x1="5075" y1="378" x2="5075" y2="509" stroke="black" />
<line x1="5062" y1="509" x2="5088" y2="509" stroke="black" />
<text x="5081" y="501" font-family="Verdana" font-size="8" text-anchor="middle"  dominant-baseline="middle" fill="black" > 494</text>
<circle cx="5062" cy="509" r="4" fill="white" stroke="black" />
<line x1="5062" y1="513" x2="5062" y2="520" stroke="black" />
<line x1="5058" y1="524" x2="5062" y2="516" stroke="blue" />
<line x1="5062" y1="524" x2="5066" y2="516" stroke="blue" />
<text x="5062" y="532" font-family="Verdana" font-size="8" text-anchor="middle"  dominant-baseline="middle" fill="black" > 505</text>
<circle cx="5087" cy="509" r="4" fill="white" stroke="black" />
<line x1="5087" y1="513" x2="5087" y2="520" stroke="black" />
<line x1="5083" y1="524" x2="5087" y2="516" stroke="blue" />
<line x1="5087" y1="524" x2="5091" y2="516" stroke="blue" />
<text x="5087" y="532" font-family="Verdana" font-size="8" text-anchor="middle"  dominant-baseline="middle" fill="black" > 505</text>
<text x="5150" y="7" font-family="Verdana" font-size="7" text-anchor="middle"  dominant-baseline="middle" fill="black" > C22</text>
<circle cx="5150" cy="15" r="4" fill="white" stroke="black" />
<line x1="5150" y1="19" x2="5150" y2="237" stroke="black" />
<line x1="5146" y1="241" x2="5150" y2="233" stroke="blue" />
<line x1="5150" y1="241" x2="5154" y2="233" stroke="blue" />
<text x="5150" y="249" font-family="Verdana" font-size="8" text-anchor="middle"  dominant-baseline="middle" fill="black" > 222</text>
</svg>
