<?xml version="1.0" encoding="utf-8"?>
<svg xmlns="http://www.w3.org/2000/svg" version="1.1" width="3450" height="750">
<rect width="3450" height="15" x="0" y="0" fill="white" />
<rect width="3450" height="15" x="0" y="735" fill="white" />
<rect width="25" height="750" x="0" y="0" fill="white" />
<rect width="25" height="750" x="3425" y="0" fill="white" />
<rect width="3410" height="144" x="25" y="15" fill="ghostwhite" />
<rect width="3410" height="144" x="25" y="159" fill="snow" />
<rect width="3410" height="144" x="25" y="303" fill="ghostwhite" />
<rect width="3410" height="144" x="25" y="447" fill="snow" />
<rect width="3410" height="144" x="25" y="591" fill="ghostwhite" />
<text x="12" y="87" font-family="Verdana" font-size="10" text-anchor="middle"  dominant-baseline="middle" fill="red" > D0</text>
<text x="12" y="231" font-family="Verdana" font-size="10" text-anchor="middle"  dominant-baseline="middle" fill="red" > D1</text>
<text x="12" y="375" font-family="Verdana" font-size="10" text-anchor="middle"  dominant-baseline="middle" fill="red" > D2</text>
<text x="12" y="519" font-family="Verdana" font-size="10" text-anchor="middle"  dominant-baseline="middle" fill="red" > D3</text>
<text x="12" y="663" font-family="Verdana" font-size="10" text-anchor="middle"  dominant-baseline="middle" fill="red" > D4</text>
<text x="12" y="20" font-family="Verdana" font-size="10" text-anchor="middle"  dominant-baseline="middle" fill="black" > 0</text>
<text x="12" y="164" font-family="Verdana" font-size="10" text-anchor="middle"  dominant-baseline="middle" fill="black" > 144</text>
<text x="12" y="308" font-family="Verdana" font-size="10" text-anchor="middle"  dominant-baseline="middle" fill="black" > 288</text>
<text x="12" y="452" font-family="Verdana" font-size="10" text-anchor="middle"  dominant-baseline="middle" fill="black" > 432</text>
<text x="12" y="596" font-family="Verdana" font-size="10" text-anchor="middle"  dominant-baseline="middle" fill="black" > 576</text>
<text x="12" y="740" font-family="Verdana" font-size="10" text-anchor="middle"  dominant-baseline="middle" fill="black" > 720</text>
<text x="150" y="7" font-family="Verdana" font-size="7" text-anchor="middle"  dominant-baseline="middle" fill="black" > C1</text>
<circle cx="150" cy="15" r="4" fill="white" stroke="black" />
<line x1="150" y1="19" x2="150" y2="369" stroke="black" />
<line x1="50" y1="369" x2="250" y2="369" stroke="black" />
<text x="175" y="361" font-family="Verdana" font-size="8" text-anchor="middle"  dominant-baseline="middle" fill="black" > 354</text>
<circle cx="50" cy="369" r="4" fill="white" stroke="black" />
<circle cx="150" cy="369" r="4" fill="white" stroke="black" />
<line x1="50" y1="373" x2="50" y2="388" stroke="black" />
<line x1="50" y1="388" x2="100" y2="394" stroke="black" />
<line x1="150" y1="373" x2="150" y2="388" stroke="black" />
<line x1="150" y1="388" x2="100" y2="394" stroke="black" />
<text x="100" y="382" font-family="Verdana" font-size="8" text-anchor="middle"  dominant-baseline="middle" fill="black" > 379</text>
<circle cx="100" cy="394" r="4" fill="white" stroke="black" />
<line x1="100" y1="398" x2="100" y2="536" stroke="black" />
<line x1="62" y1="536" x2="138" y2="536" stroke="black" />
<text x="106" y="528" font-family="Verdana" font-size="8" text-anchor="middle"  dominant-baseline="middle" fill="black" > 521</text>
<circle cx="62" cy="536" r="4" fill="white" stroke="black" />
<line x1="62" y1="540" x2="62" y2="736" stroke="black" />
<circle cx="62" cy="736" r="4" fill="white" stroke="black" />
<text x="62" y="748" font-family="Verdana" font-size="8" text-anchor="middle"  dominant-baseline="middle" fill="black" > 721</text>
<circle cx="87" cy="536" r="4" fill="white" stroke="black" />
<line x1="87" y1="540" x2="87" y2="736" stroke="black" />
<circle cx="87" cy="736" r="4" fill="white" stroke="black" />
<text x="87" y="748" font-family="Verdana" font-size="8" text-anchor="middle"  dominant-baseline="middle" fill="black" > 721</text>
<circle cx="112" cy="536" r="4" fill="white" stroke="black" />
<circle cx="137" cy="536" r="4" fill="white" stroke="black" />
<line x1="112" y1="540" x2="112" y2="542" stroke="black" />
<line x1="112" y1="542" x2="124" y2="544" stroke="black" />
<line x1="137" y1="540" x2="137" y2="542" stroke="black" />
<line x1="137" y1="542" x2="124" y2="544" stroke="black" />
<text x="124" y="532" font-family="Verdana" font-size="8" text-anchor="middle"  dominant-baseline="middle" fill="black" > 529</text>
<circle cx="124" cy="544" r="4" fill="white" stroke="black" />
<line x1="124" y1="548" x2="124" y2="708" stroke="black" />
<line x1="120" y1="704" x2="128" y2="712" stroke="red" />
<line x1="120" y1="712" x2="128" y2="704" stroke="red" />
<text x="124" y="720" font-family="Verdana" font-size="8" text-anchor="middle"  dominant-baseline="middle" fill="black" > 693</text>
<circle cx="250" cy="369" r="4" fill="white" stroke="black" />
<line x1="250" y1="373" x2="250" y2="541" stroke="black" />
<line x1="246" y1="537" x2="254" y2="545" stroke="red" />
<line x1="246" y1="545" x2="254" y2="537" stroke="red" />
<text x="250" y="553" font-family="Verdana" font-size="8" text-anchor="middle"  dominant-baseline="middle" fill="black" > 526</text>
<text x="500" y="7" font-family="Verdana" font-size="7" text-anchor="middle"  dominant-baseline="middle" fill="black" > C2</text>
<circle cx="500" cy="15" r="4" fill="white" stroke="black" />
<line x1="500" y1="19" x2="500" y2="449" stroke="black" />
<line x1="350" y1="449" x2="650" y2="449" stroke="black" />
<text x="525" y="441" font-family="Verdana" font-size="8" text-anchor="middle"  dominant-baseline="middle" fill="black" > 434</text>
<circle cx="350" cy="449" r="4" fill="white" stroke="black" />
<circle cx="450" cy="449" r="4" fill="white" stroke="black" />
<line x1="350" y1="453" x2="350" y2="467" stroke="black" />
<line x1="350" y1="467" x2="400" y2="472" stroke="black" />
<line x1="450" y1="453" x2="450" y2="467" stroke="black" />
<line x1="450" y1="467" x2="400" y2="472" stroke="black" />
<text x="400" y="460" font-family="Verdana" font-size="8" text-anchor="middle"  dominant-baseline="middle" fill="black" > 457</text>
<circle cx="400" cy="472" r="4" fill="white" stroke="black" />
<line x1="400" y1="476" x2="400" y2="549" stroke="black" />
<line x1="396" y1="553" x2="400" y2="545" stroke="blue" />
<line x1="400" y1="553" x2="404" y2="545" stroke="blue" />
<text x="400" y="561" font-family="Verdana" font-size="8" text-anchor="middle"  dominant-baseline="middle" fill="black" > 534</text>
<circle cx="550" cy="449" r="4" fill="white" stroke="black" />
<line x1="550" y1="453" x2="550" y2="736" stroke="black" />
<circle cx="550" cy="736" r="4" fill="white" stroke="black" />
<text x="550" y="748" font-family="Verdana" font-size="8" text-anchor="middle"  dominant-baseline="middle" fill="black" > 721</text>
<circle cx="650" cy="449" r="4" fill="white" stroke="black" />
<line x1="650" y1="453" x2="650" y2="661" stroke="black" />
<line x1="646" y1="657" x2="654" y2="665" stroke="red" />
<line x1="646" y1="665" x2="654" y2="657" stroke="red" />
<text x="650" y="673" font-family="Verdana" font-size="8" text-anchor="middle"  dominant-baseline="middle" fill="black" > 646</text>
<text x="750" y="7" font-family="Verdana" font-size="7" text-anchor="middle"  dominant-baseline="middle" fill="black" > C3</text>
<circle cx="750" cy="15" r="4" fill="white" stroke="black" />
<text x="850" y="7" font-family="Verdana" font-size="7" text-anchor="middle"  dominant-baseline="middle" fill="black" > C4</text>
<circle cx="850" cy="15" r="4" fill="white" stroke="black" />
<line x1="750" y1="19" x2="750" y2="48" stroke="black" />
<line x1="750" y1="48" x2="800" y2="58" stroke="black" />
<line x1="850" y1="19" x2="850" y2="48" stroke="black" />
<line x1="850" y1="48" x2="800" y2="58" stroke="black" />
<text x="800" y="46" font-family="Verdana" font-size="8" text-anchor="middle"  dominant-baseline="middle" fill="black" > 43</text>
<circle cx="800" cy="58" r="4" fill="white" stroke="black" />
<line x1="800" y1="62" x2="800" y2="386" stroke="black" />
<line x1="766" y1="386" x2="834" y2="386" stroke="black" />
<text x="808" y="378" font-family="Verdana" font-size="8" text-anchor="middle"  dominant-baseline="middle" fill="black" > 371</text>
<circle cx="766" cy="386" r="4" fill="white" stroke="black" />
<circle cx="799" cy="386" r="4" fill="white" stroke="black" />
<line x1="766" y1="390" x2="766" y2="388" stroke="black" />
<line x1="766" y1="388" x2="782" y2="388" stroke="black" />
<line x1="799" y1="390" x2="799" y2="388" stroke="black" />
<line x1="799" y1="388" x2="782" y2="388" stroke="black" />
<text x="782" y="376" font-family="Verdana" font-size="8" text-anchor="middle"  dominant-baseline="middle" fill="black" > 373</text>
<circle cx="782" cy="388" r="4" fill="white" stroke="black" />
<circle cx="832" cy="386" r="4" fill="white" stroke="black" />
<line x1="782" y1="392" x2="782" y2="392" stroke="black" />
<line x1="782" y1="392" x2="807" y2="393" stroke="black" />
<line x1="832" y1="390" x2="832" y2="392" stroke="black" />
<line x1="832" y1="392" x2="807" y2="393" stroke="black" />
<text x="807" y="381" font-family="Verdana" font-size="8" text-anchor="middle"  dominant-baseline="middle" fill="black" > 378</text>
<circle cx="807" cy="393" r="4" fill="white" stroke="black" />
<line x1="807" y1="397" x2="807" y2="443" stroke="black" />
<line x1="803" y1="439" x2="811" y2="447" stroke="red" />
<line x1="803" y1="447" x2="811" y2="439" stroke="red" />
<text x="807" y="455" font-family="Verdana" font-size="8" text-anchor="middle"  dominant-baseline="middle" fill="black" > 428</text>
<text x="950" y="7" font-family="Verdana" font-size="7" text-anchor="middle"  dominant-baseline="middle" fill="black" > C5</text>
<circle cx="950" cy="15" r="4" fill="white" stroke="black" />
<line x1="950" y1="19" x2="950" y2="306" stroke="black" />
<line x1="946" y1="310" x2="950" y2="302" stroke="blue" />
<line x1="950" y1="310" x2="954" y2="302" stroke="blue" />
<text x="950" y="318" font-family="Verdana" font-size="8" text-anchor="middle"  dominant-baseline="middle" fill="black" > 291</text>
<text x="1100" y="7" font-family="Verdana" font-size="7" text-anchor="middle"  dominant-baseline="middle" fill="black" > C6</text>
<circle cx="1100" cy="15" r="4" fill="white" stroke="black" />
<line x1="1100" y1="19" x2="1100" y2="211" stroke="black" />
<line x1="1050" y1="211" x2="1150" y2="211" stroke="black" />
<text x="1125" y="203" font-family="Verdana" font-size="8" text-anchor="middle"  dominant-baseline="middle" fill="black" > 196</text>
<circle cx="1050" cy="211" r="4" fill="white" stroke="black" />
<line x1="1050" y1="215" x2="1050" y2="477" stroke="black" />
<line x1="1016" y1="477" x2="1084" y2="477" stroke="black" />
<text x="1058" y="469" font-family="Verdana" font-size="8" text-anchor="middle"  dominant-baseline="middle" fill="black" > 462</text>
<circle cx="1016" cy="477" r="4" fill="white" stroke="black" />
<circle cx="1049" cy="477" r="4" fill="white" stroke="black" />
<line x1="1016" y1="481" x2="1016" y2="484" stroke="black" />
<line x1="1016" y1="484" x2="1032" y2="486" stroke="black" />
<line x1="1049" y1="481" x2="1049" y2="484" stroke="black" />
<line x1="1049" y1="484" x2="1032" y2="486" stroke="black" />
<text x="1032" y="474" font-family="Verdana" font-size="8" text-anchor="middle"  dominant-baseline="middle" fill="black" > 471</text>
<circle cx="1032" cy="486" r="4" fill="white" stroke="black" />
<circle cx="1082" cy="477" r="4" fill="white" stroke="black" />
<line x1="1032" y1="490" x2="1032" y2="501" stroke="black" />
<line x1="1032" y1="501" x2="1057" y2="505" stroke="black" />
<line x1="1082" y1="481" x2="1082" y2="501" stroke="black" />
<line x1="1082" y1="501" x2="1057" y2="505" stroke="black" />
<text x="1057" y="493" font-family="Verdana" font-size="8" text-anchor="middle"  dominant-baseline="middle" fill="black" > 490</text>
<circle cx="1057" cy="505" r="4" fill="white" stroke="black" />
<line x1="1057" y1="509" x2="1057" y2="652" stroke="black" />
<line x1="1040" y1="652" x2="1074" y2="652" stroke="black" />
<text x="1061" y="644" font-family="Verdana" font-size="8" text-anchor="middle"  dominant-baseline="middle" fill="black" > 637</text>
<circle cx="1040" cy="652" r="4" fill="white" stroke="black" />
<line x1="1040" y1="656" x2="1040" y2="736" stroke="black" />
<circle cx="1040" cy="736" r="4" fill="white" stroke="black" />
<text x="1040" y="748" font-family="Verdana" font-size="8" text-anchor="middle"  dominant-baseline="middle" fill="black" > 721</text>
<circle cx="1056" cy="652" r="4" fill="white" stroke="black" />
<circle cx="1072" cy="652" r="4" fill="white" stroke="black" />
<line x1="1056" y1="656" x2="1056" y2="663" stroke="black" />
<line x1="1056" y1="663" x2="1064" y2="666" stroke="black" />
<line x1="1072" y1="656" x2="1072" y2="663" stroke="black" />
<line x1="1072" y1="663" x2="1064" y2="666" stroke="black" />
<text x="1064" y="654" font-family="Verdana" font-size="8" text-anchor="middle"  dominant-baseline="middle" fill="black" > 651</text>
<circle cx="1064" cy="666" r="4" fill="white" stroke="black" />
<line x1="1064" y1="670" x2="1064" y2="736" stroke="black" />
<circle cx="1064" cy="736" r="4" fill="white" stroke="black" />
<text x="1064" y="748" font-family="Verdana" font-size="8" text-anchor="middle"  dominant-baseline="middle" fill="black" > 721</text>
<circle cx="1150" cy="211" r="4" fill="white" stroke="black" />
<line x1="1150" y1="215" x2="1150" y2="383" stroke="black" />
<line x1="1125" y1="383" x2="1175" y2="383" stroke="black" />
<text x="1162" y="375" font-family="Verdana" font-size="8" text-anchor="middle"  dominant-baseline="middle" fill="black" > 368</text>
<circle cx="1125" cy="383" r="4" fill="white" stroke="black" />
<line x1="1125" y1="387" x2="1125" y2="736" stroke="black" />
<circle cx="1125" cy="736" r="4" fill="white" stroke="black" />
<text x="1125" y="748" font-family="Verdana" font-size="8" text-anchor="middle"  dominant-baseline="middle" fill="black" > 721</text>
<circle cx="1175" cy="383" r="4" fill="white" stroke="black" />
<line x1="1175" y1="387" x2="1175" y2="518" stroke="black" />
<line x1="1162" y1="518" x2="1188" y2="518" stroke="black" />
<text x="1181" y="510" font-family="Verdana" font-size="8" text-anchor="middle"  dominant-baseline="middle" fill="black" > 503</text>
<circle cx="1162" cy="518" r="4" fill="white" stroke="black" />
<circle cx="1187" cy="518" r="4" fill="white" stroke="black" />
<line x1="1162" y1="522" x2="1162" y2="587" stroke="black" />
<line x1="1162" y1="587" x2="1174" y2="610" stroke="black" />
<line x1="1187" y1="522" x2="1187" y2="587" stroke="black" />
<line x1="1187" y1="587" x2="1174" y2="610" stroke="black" />
<text x="1174" y="598" font-family="Verdana" font-size="8" text-anchor="middle"  dominant-baseline="middle" fill="black" > 595</text>
<circle cx="1174" cy="610" r="4" fill="white" stroke="black" />
<line x1="1174" y1="614" x2="1174" y2="736" stroke="black" />
<circle cx="1174" cy="736" r="4" fill="white" stroke="black" />
<text x="1174" y="748" font-family="Verdana" font-size="8" text-anchor="middle"  dominant-baseline="middle" fill="black" > 721</text>
<text x="1300" y="7" font-family="Verdana" font-size="7" text-anchor="middle"  dominant-baseline="middle" fill="black" > C7</text>
<circle cx="1300" cy="15" r="4" fill="white" stroke="black" />
<line x1="1300" y1="19" x2="1300" y2="255" stroke="black" />
<line x1="1250" y1="255" x2="1350" y2="255" stroke="black" />
<text x="1325" y="247" font-family="Verdana" font-size="8" text-anchor="middle"  dominant-baseline="middle" fill="black" > 240</text>
<circle cx="1250" cy="255" r="4" fill="white" stroke="black" />
<line x1="1250" y1="259" x2="1250" y2="399" stroke="black" />
<line x1="1225" y1="399" x2="1275" y2="399" stroke="black" />
<text x="1262" y="391" font-family="Verdana" font-size="8" text-anchor="middle"  dominant-baseline="middle" fill="black" > 384</text>
<circle cx="1225" cy="399" r="4" fill="white" stroke="black" />
<line x1="1225" y1="403" x2="1225" y2="544" stroke="black" />
<line x1="1221" y1="540" x2="1229" y2="548" stroke="red" />
<line x1="1221" y1="548" x2="1229" y2="540" stroke="red" />
<text x="1225" y="556" font-family="Verdana" font-size="8" text-anchor="middle"  dominant-baseline="middle" fill="black" > 529</text>
<circle cx="1275" cy="399" r="4" fill="white" stroke="black" />
<circle cx="1350" cy="255" r="4" fill="white" stroke="black" />
<line x1="1350" y1="259" x2="1350" y2="391" stroke="black" />
<line x1="1325" y1="391" x2="1375" y2="391" stroke="black" />
<text x="1362" y="383" font-family="Verdana" font-size="8" text-anchor="middle"  dominant-baseline="middle" fill="black" > 376</text>
<circle cx="1325" cy="391" r="4" fill="white" stroke="black" />
<line x1="1275" y1="403" x2="1275" y2="413" stroke="black" />
<line x1="1275" y1="413" x2="1300" y2="417" stroke="black" />
<line x1="1325" y1="395" x2="1325" y2="413" stroke="black" />
<line x1="1325" y1="413" x2="1300" y2="417" stroke="black" />
<text x="1300" y="405" font-family="Verdana" font-size="8" text-anchor="middle"  dominant-baseline="middle" fill="black" > 402</text>
<circle cx="1300" cy="417" r="4" fill="white" stroke="black" />
<line x1="1300" y1="421" x2="1300" y2="736" stroke="black" />
<circle cx="1300" cy="736" r="4" fill="white" stroke="black" />
<text x="1300" y="748" font-family="Verdana" font-size="8" text-anchor="middle"  dominant-baseline="middle" fill="black" > 721</text>
<circle cx="1375" cy="391" r="4" fill="white" stroke="black" />
<line x1="1375" y1="395" x2="1375" y2="593" stroke="black" />
<line x1="1362" y1="593" x2="1388" y2="593" stroke="black" />
<text x="1381" y="585" font-family="Verdana" font-size="8" text-anchor="middle"  dominant-baseline="middle" fill="black" > 578</text>
<circle cx="1362" cy="593" r="4" fill="white" stroke="black" />
<circle cx="1387" cy="593" r="4" fill="white" stroke="black" />
<line x1="1362" y1="597" x2="1362" y2="608" stroke="black" />
<line x1="1362" y1="608" x2="1374" y2="613" stroke="black" />
<line x1="1387" y1="597" x2="1387" y2="608" stroke="black" />
<line x1="1387" y1="608" x2="1374" y2="613" stroke="black" />
<text x="1374" y="601" font-family="Verdana" font-size="8" text-anchor="middle"  dominant-baseline="middle" fill="black" > 598</text>
<circle cx="1374" cy="613" r="4" fill="white" stroke="black" />
<line x1="1374" y1="617" x2="1374" y2="694" stroke="black" />
<line x1="1370" y1="690" x2="1378" y2="698" stroke="red" />
<line x1="1370" y1="698" x2="1378" y2="690" stroke="red" />
<text x="1374" y="706" font-family="Verdana" font-size="8" text-anchor="middle"  dominant-baseline="middle" fill="black" > 679</text>
<text x="1500" y="7" font-family="Verdana" font-size="7" text-anchor="middle"  dominant-baseline="middle" fill="black" > C8</text>
<circle cx="1500" cy="15" r="4" fill="white" stroke="black" />
<line x1="1500" y1="19" x2="1500" y2="201" stroke="black" />
<line x1="1450" y1="201" x2="1550" y2="201" stroke="black" />
<text x="1525" y="193" font-family="Verdana" font-size="8" text-anchor="middle"  dominant-baseline="middle" fill="black" > 186</text>
<circle cx="1450" cy="201" r="4" fill="white" stroke="black" />
<line x1="1450" y1="205" x2="1450" y2="601" stroke="black" />
<line x1="1446" y1="597" x2="1454" y2="605" stroke="red" />
<line x1="1446" y1="605" x2="1454" y2="597" stroke="red" />
<text x="1450" y="613" font-family="Verdana" font-size="8" text-anchor="middle"  dominant-baseline="middle" fill="black" > 586</text>
<circle cx="1550" cy="201" r="4" fill="white" stroke="black" />
<line x1="1550" y1="205" x2="1550" y2="346" stroke="black" />
<line x1="1525" y1="346" x2="1575" y2="346" stroke="black" />
<text x="1562" y="338" font-family="Verdana" font-size="8" text-anchor="middle"  dominant-baseline="middle" fill="black" > 331</text>
<circle cx="1525" cy="346" r="4" fill="white" stroke="black" />
<circle cx="1575" cy="346" r="4" fill="white" stroke="black" />
<line x1="1525" y1="350" x2="1525" y2="379" stroke="black" />
<line x1="1525" y1="379" x2="1550" y2="390" stroke="black" />
<line x1="1575" y1="350" x2="1575" y2="379" stroke="black" />
<line x1="1575" y1="379" x2="1550" y2="390" stroke="black" />
<text x="1550" y="378" font-family="Verdana" font-size="8" text-anchor="middle"  dominant-baseline="middle" fill="black" > 375</text>
<circle cx="1550" cy="390" r="4" fill="white" stroke="black" />
<line x1="1550" y1="394" x2="1550" y2="399" stroke="black" />
<line x1="1546" y1="395" x2="1554" y2="403" stroke="red" />
<line x1="1546" y1="403" x2="1554" y2="395" stroke="red" />
<text x="1550" y="411" font-family="Verdana" font-size="8" text-anchor="middle"  dominant-baseline="middle" fill="black" > 384</text>
<text x="1700" y="7" font-family="Verdana" font-size="7" text-anchor="middle"  dominant-baseline="middle" fill="black" > C9</text>
<circle cx="1700" cy="15" r="4" fill="white" stroke="black" />
<line x1="1700" y1="19" x2="1700" y2="194" stroke="black" />
<line x1="1650" y1="194" x2="1750" y2="194" stroke="black" />
<text x="1725" y="186" font-family="Verdana" font-size="8" text-anchor="middle"  dominant-baseline="middle" fill="black" > 179</text>
<circle cx="1650" cy="194" r="4" fill="white" stroke="black" />
<line x1="1650" y1="198" x2="1650" y2="391" stroke="black" />
<line x1="1646" y1="395" x2="1650" y2="387" stroke="blue" />
<line x1="1650" y1="395" x2="1654" y2="387" stroke="blue" />
<text x="1650" y="403" font-family="Verdana" font-size="8" text-anchor="middle"  dominant-baseline="middle" fill="black" > 376</text>
<circle cx="1750" cy="194" r="4" fill="white" stroke="black" />
<line x1="1750" y1="198" x2="1750" y2="353" stroke="black" />
<line x1="1725" y1="353" x2="1775" y2="353" stroke="black" />
<text x="1762" y="345" font-family="Verdana" font-size="8" text-anchor="middle"  dominant-baseline="middle" fill="black" > 338</text>
<circle cx="1725" cy="353" r="4" fill="white" stroke="black" />
<circle cx="1775" cy="353" r="4" fill="white" stroke="black" />
<line x1="1725" y1="357" x2="1725" y2="386" stroke="black" />
<line x1="1725" y1="386" x2="1750" y2="397" stroke="black" />
<line x1="1775" y1="357" x2="1775" y2="386" stroke="black" />
<line x1="1775" y1="386" x2="1750" y2="397" stroke="black" />
<text x="1750" y="385" font-family="Verdana" font-size="8" text-anchor="middle"  dominant-baseline="middle" fill="black" > 382</text>
<circle cx="1750" cy="397" r="4" fill="white" stroke="black" />
<line x1="1750" y1="401" x2="1750" y2="606" stroke="black" />
<line x1="1746" y1="602" x2="1754" y2="610" stroke="red" />
<line x1="1746" y1="610" x2="1754" y2="602" stroke="red" />
<text x="1750" y="618" font-family="Verdana" font-size="8" text-anchor="middle"  dominant-baseline="middle" fill="black" > 591</text>
<text x="1850" y="7" font-family="Verdana" font-size="7" text-anchor="middle"  dominant-baseline="middle" fill="black" > C10</text>
<circle cx="1850" cy="15" r="4" fill="white" stroke="black" />
<text x="1950" y="7" font-family="Verdana" font-size="7" text-anchor="middle"  dominant-baseline="middle" fill="black" > C11</text>
<circle cx="1950" cy="15" r="4" fill="white" stroke="black" />
<line x1="1850" y1="19" x2="1850" y2="18" stroke="black" />
<line x1="1850" y1="18" x2="1900" y2="18" stroke="black" />
<line x1="1950" y1="19" x2="1950" y2="18" stroke="black" />
<line x1="1950" y1="18" x2="1900" y2="18" stroke="black" />
<text x="1900" y="6" font-family="Verdana" font-size="8" text-anchor="middle"  dominant-baseline="middle" fill="black" > 3</text>
<circle cx="1900" cy="18" r="4" fill="white" stroke="black" />
<line x1="1900" y1="22" x2="1900" y2="331" stroke="black" />
<line x1="1866" y1="331" x2="1934" y2="331" stroke="black" />
<text x="1908" y="323" font-family="Verdana" font-size="8" text-anchor="middle"  dominant-baseline="middle" fill="black" > 316</text>
<circle cx="1866" cy="331" r="4" fill="white" stroke="black" />
<circle cx="1899" cy="331" r="4" fill="white" stroke="black" />
<line x1="1866" y1="335" x2="1866" y2="344" stroke="black" />
<line x1="1866" y1="344" x2="1882" y2="348" stroke="black" />
<line x1="1899" y1="335" x2="1899" y2="344" stroke="black" />
<line x1="1899" y1="344" x2="1882" y2="348" stroke="black" />
<text x="1882" y="336" font-family="Verdana" font-size="8" text-anchor="middle"  dominant-baseline="middle" fill="black" > 333</text>
<circle cx="1882" cy="348" r="4" fill="white" stroke="black" />
<circle cx="1932" cy="331" r="4" fill="white" stroke="black" />
<line x1="1882" y1="352" x2="1882" y2="351" stroke="black" />
<line x1="1882" y1="351" x2="1907" y2="352" stroke="black" />
<line x1="1932" y1="335" x2="1932" y2="351" stroke="black" />
<line x1="1932" y1="351" x2="1907" y2="352" stroke="black" />
<text x="1907" y="340" font-family="Verdana" font-size="8" text-anchor="middle"  dominant-baseline="middle" fill="black" > 337</text>
<circle cx="1907" cy="352" r="4" fill="white" stroke="black" />
<line x1="1907" y1="356" x2="1907" y2="512" stroke="black" />
<line x1="1903" y1="508" x2="1911" y2="516" stroke="red" />
<line x1="1903" y1="516" x2="1911" y2="508" stroke="red" />
<text x="1907" y="524" font-family="Verdana" font-size="8" text-anchor="middle"  dominant-baseline="middle" fill="black" > 497</text>
<text x="2100" y="7" font-family="Verdana" font-size="7" text-anchor="middle"  dominant-baseline="middle" fill="black" > C12</text>
<circle cx="2100" cy="15" r="4" fill="white" stroke="black" />
<line x1="2100" y1="19" x2="2100" y2="178" stroke="black" />
<line x1="2050" y1="178" x2="2150" y2="178" stroke="black" />
<text x="2125" y="170" font-family="Verdana" font-size="8" text-anchor="middle"  dominant-baseline="middle" fill="black" > 163</text>
<circle cx="2050" cy="178" r="4" fill="white" stroke="black" />
<circle cx="2150" cy="178" r="4" fill="white" stroke="black" />
<line x1="2050" y1="182" x2="2050" y2="253" stroke="black" />
<line x1="2050" y1="253" x2="2100" y2="277" stroke="black" />
<line x1="2150" y1="182" x2="2150" y2="253" stroke="black" />
<line x1="2150" y1="253" x2="2100" y2="277" stroke="black" />
<text x="2100" y="265" font-family="Verdana" font-size="8" text-anchor="middle"  dominant-baseline="middle" fill="black" > 262</text>
<circle cx="2100" cy="277" r="4" fill="white" stroke="black" />
<line x1="2100" y1="281" x2="2100" y2="487" stroke="black" />
<line x1="2075" y1="487" x2="2125" y2="487" stroke="black" />
<text x="2112" y="479" font-family="Verdana" font-size="8" text-anchor="middle"  dominant-baseline="middle" fill="black" > 472</text>
<circle cx="2075" cy="487" r="4" fill="white" stroke="black" />
<line x1="2075" y1="491" x2="2075" y2="736" stroke="black" />
<circle cx="2075" cy="736" r="4" fill="white" stroke="black" />
<text x="2075" y="748" font-family="Verdana" font-size="8" text-anchor="middle"  dominant-baseline="middle" fill="black" > 721</text>
<circle cx="2125" cy="487" r="4" fill="white" stroke="black" />
<line x1="2125" y1="491" x2="2125" y2="586" stroke="black" />
<line x1="2121" y1="582" x2="2129" y2="590" stroke="red" />
<line x1="2121" y1="590" x2="2129" y2="582" stroke="red" />
<text x="2125" y="598" font-family="Verdana" font-size="8" text-anchor="middle"  dominant-baseline="middle" fill="black" > 571</text>
<text x="2400" y="7" font-family="Verdana" font-size="7" text-anchor="middle"  dominant-baseline="middle" fill="black" > C13</text>
<circle cx="2400" cy="15" r="4" fill="white" stroke="black" />
<line x1="2400" y1="19" x2="2400" y2="345" stroke="black" />
<line x1="2250" y1="345" x2="2550" y2="345" stroke="black" />
<text x="2425" y="337" font-family="Verdana" font-size="8" text-anchor="middle"  dominant-baseline="middle" fill="black" > 330</text>
<circle cx="2250" cy="345" r="4" fill="white" stroke="black" />
<line x1="2250" y1="349" x2="2250" y2="408" stroke="black" />
<line x1="2246" y1="412" x2="2250" y2="404" stroke="blue" />
<line x1="2250" y1="412" x2="2254" y2="404" stroke="blue" />
<text x="2250" y="420" font-family="Verdana" font-size="8" text-anchor="middle"  dominant-baseline="middle" fill="black" > 393</text>
<circle cx="2350" cy="345" r="4" fill="white" stroke="black" />
<line x1="2350" y1="349" x2="2350" y2="415" stroke="black" />
<line x1="2346" y1="419" x2="2350" y2="411" stroke="blue" />
<line x1="2350" y1="419" x2="2354" y2="411" stroke="blue" />
<text x="2350" y="427" font-family="Verdana" font-size="8" text-anchor="middle"  dominant-baseline="middle" fill="black" > 400</text>
<circle cx="2450" cy="345" r="4" fill="white" stroke="black" />
<circle cx="2550" cy="345" r="4" fill="white" stroke="black" />
<line x1="2450" y1="349" x2="2450" y2="468" stroke="black" />
<line x1="2450" y1="468" x2="2500" y2="508" stroke="black" />
<line x1="2550" y1="349" x2="2550" y2="468" stroke="black" />
<line x1="2550" y1="468" x2="2500" y2="508" stroke="black" />
<text x="2500" y="496" font-family="Verdana" font-size="8" text-anchor="middle"  dominant-baseline="middle" fill="black" > 493</text>
<circle cx="2500" cy="508" r="4" fill="white" stroke="black" />
<line x1="2500" y1="512" x2="2500" y2="637" stroke="black" />
<line x1="2496" y1="633" x2="2504" y2="641" stroke="red" />
<line x1="2496" y1="641" x2="2504" y2="633" stroke="red" />
<text x="2500" y="649" font-family="Verdana" font-size="8" text-anchor="middle"  dominant-baseline="middle" fill="black" > 622</text>
<text x="2650" y="7" font-family="Verdana" font-size="7" text-anchor="middle"  dominant-baseline="middle" fill="black" > C14</text>
<circle cx="2650" cy="15" r="4" fill="white" stroke="black" />
<text x="2750" y="7" font-family="Verdana" font-size="7" text-anchor="middle"  dominant-baseline="middle" fill="black" > C15</text>
<circle cx="2750" cy="15" r="4" fill="white" stroke="black" />
<line x1="2650" y1="19" x2="2650" y2="153" stroke="black" />
<line x1="2650" y1="153" x2="2700" y2="198" stroke="black" />
<line x1="2750" y1="19" x2="2750" y2="153" stroke="black" />
<line x1="2750" y1="153" x2="2700" y2="198" stroke="black" />
<text x="2700" y="186" font-family="Verdana" font-size="8" text-anchor="middle"  dominant-baseline="middle" fill="black" > 183</text>
<circle cx="2700" cy="198" r="4" fill="white" stroke="black" />
<line x1="2700" y1="202" x2="2700" y2="499" stroke="black" />
<line x1="2666" y1="499" x2="2734" y2="499" stroke="black" />
<text x="2708" y="491" font-family="Verdana" font-size="8" text-anchor="middle"  dominant-baseline="middle" fill="black" > 484</text>
<circle cx="2666" cy="499" r="4" fill="white" stroke="black" />
<line x1="2666" y1="503" x2="2666" y2="522" stroke="black" />
<line x1="2662" y1="518" x2="2670" y2="526" stroke="red" />
<line x1="2662" y1="526" x2="2670" y2="518" stroke="red" />
<text x="2666" y="534" font-family="Verdana" font-size="8" text-anchor="middle"  dominant-baseline="middle" fill="black" > 507</text>
<circle cx="2699" cy="499" r="4" fill="white" stroke="black" />
<circle cx="2732" cy="499" r="4" fill="white" stroke="black" />
<line x1="2699" y1="503" x2="2699" y2="506" stroke="black" />
<line x1="2699" y1="506" x2="2715" y2="508" stroke="black" />
<line x1="2732" y1="503" x2="2732" y2="506" stroke="black" />
<line x1="2732" y1="506" x2="2715" y2="508" stroke="black" />
<text x="2715" y="496" font-family="Verdana" font-size="8" text-anchor="middle"  dominant-baseline="middle" fill="black" > 493</text>
<circle cx="2715" cy="508" r="4" fill="white" stroke="black" />
<line x1="2715" y1="512" x2="2715" y2="520" stroke="black" />
<line x1="2711" y1="516" x2="2719" y2="524" stroke="red" />
<line x1="2711" y1="524" x2="2719" y2="516" stroke="red" />
<text x="2715" y="532" font-family="Verdana" font-size="8" text-anchor="middle"  dominant-baseline="middle" fill="black" > 505</text>
<text x="2950" y="7" font-family="Verdana" font-size="7" text-anchor="middle"  dominant-baseline="middle" fill="black" > C16</text>
<circle cx="2950" cy="15" r="4" fill="white" stroke="black" />
<line x1="2950" y1="19" x2="2950" y2="208" stroke="black" />
<line x1="2850" y1="208" x2="3050" y2="208" stroke="black" />
<text x="2975" y="200" font-family="Verdana" font-size="8" text-anchor="middle"  dominant-baseline="middle" fill="black" > 193</text>
<circle cx="2850" cy="208" r="4" fill="white" stroke="black" />
<line x1="2850" y1="212" x2="2850" y2="595" stroke="black" />
<line x1="2846" y1="591" x2="2854" y2="599" stroke="red" />
<line x1="2846" y1="599" x2="2854" y2="591" stroke="red" />
<text x="2850" y="607" font-family="Verdana" font-size="8" text-anchor="middle"  dominant-baseline="middle" fill="black" > 580</text>
<circle cx="2950" cy="208" r="4" fill="white" stroke="black" />
<circle cx="3050" cy="208" r="4" fill="white" stroke="black" />
<line x1="2950" y1="212" x2="2950" y2="230" stroke="black" />
<line x1="2950" y1="230" x2="3000" y2="237" stroke="black" />
<line x1="3050" y1="212" x2="3050" y2="230" stroke="black" />
<line x1="3050" y1="230" x2="3000" y2="237" stroke="black" />
<text x="3000" y="225" font-family="Verdana" font-size="8" text-anchor="middle"  dominant-baseline="middle" fill="black" > 222</text>
<circle cx="3000" cy="237" r="4" fill="white" stroke="black" />
<line x1="3000" y1="241" x2="3000" y2="467" stroke="black" />
<line x1="2966" y1="467" x2="3034" y2="467" stroke="black" />
<text x="3008" y="459" font-family="Verdana" font-size="8" text-anchor="middle"  dominant-baseline="middle" fill="black" > 452</text>
<circle cx="2966" cy="467" r="4" fill="white" stroke="black" />
<line x1="2966" y1="471" x2="2966" y2="680" stroke="black" />
<line x1="2962" y1="684" x2="2966" y2="676" stroke="blue" />
<line x1="2966" y1="684" x2="2970" y2="676" stroke="blue" />
<text x="2966" y="692" font-family="Verdana" font-size="8" text-anchor="middle"  dominant-baseline="middle" fill="black" > 665</text>
<circle cx="2999" cy="467" r="4" fill="white" stroke="black" />
<line x1="2999" y1="471" x2="2999" y2="736" stroke="black" />
<circle cx="2999" cy="736" r="4" fill="white" stroke="black" />
<text x="2999" y="748" font-family="Verdana" font-size="8" text-anchor="middle"  dominant-baseline="middle" fill="black" > 721</text>
<circle cx="3032" cy="467" r="4" fill="white" stroke="black" />
<line x1="3032" y1="471" x2="3032" y2="736" stroke="black" />
<circle cx="3032" cy="736" r="4" fill="white" stroke="black" />
<text x="3032" y="748" font-family="Verdana" font-size="8" text-anchor="middle"  dominant-baseline="middle" fill="black" > 721</text>
<text x="3250" y="7" font-family="Verdana" font-size="7" text-anchor="middle"  dominant-baseline="middle" fill="black" > C17</text>
<circle cx="3250" cy="15" r="4" fill="white" stroke="black" />
<line x1="3250" y1="19" x2="3250" y2="247" stroke="black" />
<line x1="3150" y1="247" x2="3350" y2="247" stroke="black" />
<text x="3275" y="239" font-family="Verdana" font-size="8" text-anchor="middle"  dominant-baseline="middle" fill="black" > 232</text>
<circle cx="3150" cy="247" r="4" fill="white" stroke="black" />
<line x1="3150" y1="251" x2="3150" y2="736" stroke="black" />
<circle cx="3150" cy="736" r="4" fill="white" stroke="black" />
<text x="3150" y="748" font-family="Verdana" font-size="8" text-anchor="middle"  dominant-baseline="middle" fill="black" > 721</text>
<circle cx="3250" cy="247" r="4" fill="white" stroke="black" />
<line x1="3250" y1="251" x2="3250" y2="428" stroke="black" />
<line x1="3216" y1="428" x2="3284" y2="428" stroke="black" />
<text x="3258" y="420" font-family="Verdana" font-size="8" text-anchor="middle"  dominant-baseline="middle" fill="black" > 413</text>
<circle cx="3216" cy="428" r="4" fill="white" stroke="black" />
<circle cx="3249" cy="428" r="4" fill="white" stroke="black" />
<circle cx="3282" cy="428" r="4" fill="white" stroke="black" />
<line x1="3216" y1="432" x2="3216" y2="437" stroke="black" />
<line x1="3216" y1="437" x2="3249" y2="439" stroke="black" />
<line x1="3249" y1="432" x2="3249" y2="437" stroke="black" />
<line x1="3249" y1="437" x2="3249" y2="439" stroke="black" />
<line x1="3282" y1="432" x2="3282" y2="437" stroke="black" />
<line x1="3282" y1="437" x2="3249" y2="439" stroke="black" />
<text x="3249" y="427" font-family="Verdana" font-size="8" text-anchor="middle"  dominant-baseline="middle" fill="black" > 424</text>
<circle cx="3249" cy="439" r="4" fill="white" stroke="black" />
<line x1="3249" y1="443" x2="3249" y2="736" stroke="black" />
<circle cx="3249" cy="736" r="4" fill="white" stroke="black" />
<text x="3249" y="748" font-family="Verdana" font-size="8" text-anchor="middle"  dominant-baseline="middle" fill="black" > 721</text>
<circle cx="3350" cy="247" r="4" fill="white" stroke="black" />
<line x1="3350" y1="251" x2="3350" y2="335" stroke="black" />
<line x1="3325" y1="335" x2="3375" y2="335" stroke="black" />
<text x="3362" y="327" font-family="Verdana" font-size="8" text-anchor="middle"  dominant-baseline="middle" fill="black" > 320</text>
<circle cx="3325" cy="335" r="4" fill="white" stroke="black" />
<line x1="3325" y1="339" x2="3325" y2="453" stroke="black" />
<line x1="3321" y1="449" x2="3329" y2="457" stroke="red" />
<line x1="3321" y1="457" x2="3329" y2="449" stroke="red" />
<text x="3325" y="465" font-family="Verdana" font-size="8" text-anchor="middle"  dominant-baseline="middle" fill="black" > 438</text>
<circle cx="3375" cy="335" r="4" fill="white" stroke="black" />
<line x1="3375" y1="339" x2="3375" y2="509" stroke="black" />
<line x1="3371" y1="505" x2="3379" y2="513" stroke="red" />
<line x1="3371" y1="513" x2="3379" y2="505" stroke="red" />
<text x="3375" y="521" font-family="Verdana" font-size="8" text-anchor="middle"  dominant-baseline="middle" fill="black" > 494</text>
</svg>
