<?xml version="1.0" encoding="utf-8"?>
<svg xmlns="http://www.w3.org/2000/svg" version="1.1" width="6250" height="750">
<rect width="6250" height="15" x="0" y="0" fill="white" />
<rect width="6250" height="15" x="0" y="735" fill="white" />
<rect width="25" height="750" x="0" y="0" fill="white" />
<rect width="25" height="750" x="6225" y="0" fill="white" />
<rect width="6210" height="144" x="25" y="15" fill="ghostwhite" />
<rect width="6210" height="144" x="25" y="159" fill="snow" />
<rect width="6210" height="144" x="25" y="303" fill="ghostwhite" />
<rect width="6210" height="144" x="25" y="447" fill="snow" />
<rect width="6210" height="144" x="25" y="591" fill="ghostwhite" />
<text x="12" y="87" font-family="Verdana" font-size="10" text-anchor="middle"  dominant-baseline="middle" fill="red" > D0</text>
<text x="12" y="231" font-family="Verdana" font-size="10" text-anchor="middle"  dominant-baseline="middle" fill="red" > D1</text>
<text x="12" y="375" font-family="Verdana" font-size="10" text-anchor="middle"  dominant-baseline="middle" fill="red" > D2</text>
<text x="12" y="519" font-family="Verdana" font-size="10" text-anchor="middle"  dominant-baseline="middle" fill="red" > D3</text>
<text x="12" y="663" font-family="Verdana" font-size="10" text-anchor="middle"  dominant-baseline="middle" fill="red" > D4</text>
<text x="12" y="20" font-family="Verdana" font-size="10" text-anchor="middle"  dominant-baseline="middle" fill="black" > 0</text>
<text x="12" y="164" font-family="Verdana" font-size="10" text-anchor="middle"  dominant-baseline="middle" fill="black" > 144</text>
<text x="12" y="308" font-family="Verdana" font-size="10" text-anchor="middle"  dominant-baseline="middle" fill="black" > 288</text>
<text x="12" y="452" font-family="Verdana" font-size="10" text-anchor="middle"  dominant-baseline="middle" fill="black" > 432</text>
<text x="12" y="596" font-family="Verdana" font-size="10" text-anchor="middle"  dominant-baseline="middle" fill="black" > 576</text>
<text x="12" y="740" font-family="Verdana" font-size="10" text-anchor="middle"  dominant-baseline="middle" fill="black" > 720</text>
<text x="200" y="7" font-family="Verdana" font-size="7" text-anchor="middle"  dominant-baseline="middle" fill="black" > C1</text>
<circle cx="200" cy="15" r="4" fill="white" stroke="black" />
<line x1="200" y1="19" x2="200" y2="293" stroke="black" />
<line x1="50" y1="293" x2="350" y2="293" stroke="black" />
<text x="225" y="285" font-family="Verdana" font-size="8" text-anchor="middle"  dominant-baseline="middle" fill="black" > 278</text>
<circle cx="50" cy="293" r="4" fill="white" stroke="black" />
<circle cx="150" cy="293" r="4" fill="white" stroke="black" />
<line x1="50" y1="297" x2="50" y2="310" stroke="black" />
<line x1="50" y1="310" x2="100" y2="315" stroke="black" />
<line x1="150" y1="297" x2="150" y2="310" stroke="black" />
<line x1="150" y1="310" x2="100" y2="315" stroke="black" />
<text x="100" y="303" font-family="Verdana" font-size="8" text-anchor="middle"  dominant-baseline="middle" fill="black" > 300</text>
<circle cx="100" cy="315" r="4" fill="white" stroke="black" />
<line x1="100" y1="319" x2="100" y2="436" stroke="black" />
<line x1="96" y1="432" x2="104" y2="440" stroke="red" />
<line x1="96" y1="440" x2="104" y2="432" stroke="red" />
<text x="100" y="448" font-family="Verdana" font-size="8" text-anchor="middle"  dominant-baseline="middle" fill="black" > 421</text>
<circle cx="250" cy="293" r="4" fill="white" stroke="black" />
<circle cx="350" cy="293" r="4" fill="white" stroke="black" />
<line x1="250" y1="297" x2="250" y2="311" stroke="black" />
<line x1="250" y1="311" x2="300" y2="317" stroke="black" />
<line x1="350" y1="297" x2="350" y2="311" stroke="black" />
<line x1="350" y1="311" x2="300" y2="317" stroke="black" />
<text x="300" y="305" font-family="Verdana" font-size="8" text-anchor="middle"  dominant-baseline="middle" fill="black" > 302</text>
<circle cx="300" cy="317" r="4" fill="white" stroke="black" />
<line x1="300" y1="321" x2="300" y2="366" stroke="black" />
<line x1="296" y1="362" x2="304" y2="370" stroke="red" />
<line x1="296" y1="370" x2="304" y2="362" stroke="red" />
<text x="300" y="378" font-family="Verdana" font-size="8" text-anchor="middle"  dominant-baseline="middle" fill="black" > 351</text>
<text x="550" y="7" font-family="Verdana" font-size="7" text-anchor="middle"  dominant-baseline="middle" fill="black" > C2</text>
<circle cx="550" cy="15" r="4" fill="white" stroke="black" />
<line x1="550" y1="19" x2="550" y2="445" stroke="black" />
<line x1="450" y1="445" x2="650" y2="445" stroke="black" />
<text x="575" y="437" font-family="Verdana" font-size="8" text-anchor="middle"  dominant-baseline="middle" fill="black" > 430</text>
<circle cx="450" cy="445" r="4" fill="white" stroke="black" />
<circle cx="550" cy="445" r="4" fill="white" stroke="black" />
<line x1="450" y1="449" x2="450" y2="454" stroke="black" />
<line x1="450" y1="454" x2="500" y2="456" stroke="black" />
<line x1="550" y1="449" x2="550" y2="454" stroke="black" />
<line x1="550" y1="454" x2="500" y2="456" stroke="black" />
<text x="500" y="444" font-family="Verdana" font-size="8" text-anchor="middle"  dominant-baseline="middle" fill="black" > 441</text>
<circle cx="500" cy="456" r="4" fill="white" stroke="black" />
<line x1="500" y1="460" x2="500" y2="688" stroke="black" />
<line x1="462" y1="688" x2="538" y2="688" stroke="black" />
<text x="506" y="680" font-family="Verdana" font-size="8" text-anchor="middle"  dominant-baseline="middle" fill="black" > 673</text>
<circle cx="462" cy="688" r="4" fill="white" stroke="black" />
<line x1="462" y1="692" x2="462" y2="730" stroke="black" />
<line x1="458" y1="726" x2="466" y2="734" stroke="red" />
<line x1="458" y1="734" x2="466" y2="726" stroke="red" />
<text x="462" y="742" font-family="Verdana" font-size="8" text-anchor="middle"  dominant-baseline="middle" fill="black" > 715</text>
<circle cx="487" cy="688" r="4" fill="white" stroke="black" />
<circle cx="512" cy="688" r="4" fill="white" stroke="black" />
<line x1="487" y1="692" x2="487" y2="710" stroke="black" />
<line x1="487" y1="710" x2="499" y2="717" stroke="black" />
<line x1="512" y1="692" x2="512" y2="710" stroke="black" />
<line x1="512" y1="710" x2="499" y2="717" stroke="black" />
<text x="499" y="705" font-family="Verdana" font-size="8" text-anchor="middle"  dominant-baseline="middle" fill="black" > 702</text>
<circle cx="499" cy="717" r="4" fill="white" stroke="black" />
<line x1="499" y1="721" x2="499" y2="731" stroke="black" />
<circle cx="499" cy="731" r="4" fill="white" stroke="black" />
<text x="499" y="743" font-family="Verdana" font-size="8" text-anchor="middle"  dominant-baseline="middle" fill="black" > 716</text>
<circle cx="537" cy="688" r="4" fill="white" stroke="black" />
<line x1="537" y1="692" x2="537" y2="696" stroke="black" />
<line x1="533" y1="692" x2="541" y2="700" stroke="red" />
<line x1="533" y1="700" x2="541" y2="692" stroke="red" />
<text x="537" y="708" font-family="Verdana" font-size="8" text-anchor="middle"  dominant-baseline="middle" fill="black" > 681</text>
<circle cx="650" cy="445" r="4" fill="white" stroke="black" />
<line x1="650" y1="449" x2="650" y2="579" stroke="black" />
<line x1="646" y1="575" x2="654" y2="583" stroke="red" />
<line x1="646" y1="583" x2="654" y2="575" stroke="red" />
<text x="650" y="591" font-family="Verdana" font-size="8" text-anchor="middle"  dominant-baseline="middle" fill="black" > 564</text>
<text x="900" y="7" font-family="Verdana" font-size="7" text-anchor="middle"  dominant-baseline="middle" fill="black" > C3</text>
<circle cx="900" cy="15" r="4" fill="white" stroke="black" />
<line x1="900" y1="19" x2="900" y2="341" stroke="black" />
<line x1="750" y1="341" x2="1050" y2="341" stroke="black" />
<text x="925" y="333" font-family="Verdana" font-size="8" text-anchor="middle"  dominant-baseline="middle" fill="black" > 326</text>
<circle cx="750" cy="341" r="4" fill="white" stroke="black" />
<line x1="750" y1="345" x2="750" y2="351" stroke="black" />
<line x1="746" y1="355" x2="750" y2="347" stroke="blue" />
<line x1="750" y1="355" x2="754" y2="347" stroke="blue" />
<text x="750" y="363" font-family="Verdana" font-size="8" text-anchor="middle"  dominant-baseline="middle" fill="black" > 336</text>
<circle cx="850" cy="341" r="4" fill="white" stroke="black" />
<circle cx="950" cy="341" r="4" fill="white" stroke="black" />
<line x1="850" y1="345" x2="850" y2="362" stroke="black" />
<line x1="850" y1="362" x2="900" y2="368" stroke="black" />
<line x1="950" y1="345" x2="950" y2="362" stroke="black" />
<line x1="950" y1="362" x2="900" y2="368" stroke="black" />
<text x="900" y="356" font-family="Verdana" font-size="8" text-anchor="middle"  dominant-baseline="middle" fill="black" > 353</text>
<circle cx="900" cy="368" r="4" fill="white" stroke="black" />
<circle cx="1050" cy="341" r="4" fill="white" stroke="black" />
<line x1="900" y1="372" x2="900" y2="461" stroke="black" />
<line x1="900" y1="461" x2="975" y2="491" stroke="black" />
<line x1="1050" y1="345" x2="1050" y2="461" stroke="black" />
<line x1="1050" y1="461" x2="975" y2="491" stroke="black" />
<text x="975" y="479" font-family="Verdana" font-size="8" text-anchor="middle"  dominant-baseline="middle" fill="black" > 476</text>
<circle cx="975" cy="491" r="4" fill="white" stroke="black" />
<line x1="975" y1="495" x2="975" y2="641" stroke="black" />
<line x1="971" y1="645" x2="975" y2="637" stroke="blue" />
<line x1="975" y1="645" x2="979" y2="637" stroke="blue" />
<text x="975" y="653" font-family="Verdana" font-size="8" text-anchor="middle"  dominant-baseline="middle" fill="black" > 626</text>
<text x="1150" y="7" font-family="Verdana" font-size="7" text-anchor="middle"  dominant-baseline="middle" fill="black" > C4</text>
<circle cx="1150" cy="15" r="4" fill="white" stroke="black" />
<line x1="1150" y1="19" x2="1150" y2="201" stroke="black" />
<line x1="1146" y1="205" x2="1150" y2="197" stroke="blue" />
<line x1="1150" y1="205" x2="1154" y2="197" stroke="blue" />
<text x="1150" y="213" font-family="Verdana" font-size="8" text-anchor="middle"  dominant-baseline="middle" fill="black" > 186</text>
<text x="1350" y="7" font-family="Verdana" font-size="7" text-anchor="middle"  dominant-baseline="middle" fill="black" > C5</text>
<circle cx="1350" cy="15" r="4" fill="white" stroke="black" />
<line x1="1350" y1="19" x2="1350" y2="237" stroke="black" />
<line x1="1250" y1="237" x2="1450" y2="237" stroke="black" />
<text x="1375" y="229" font-family="Verdana" font-size="8" text-anchor="middle"  dominant-baseline="middle" fill="black" > 222</text>
<circle cx="1250" cy="237" r="4" fill="white" stroke="black" />
<line x1="1250" y1="241" x2="1250" y2="368" stroke="black" />
<line x1="1246" y1="364" x2="1254" y2="372" stroke="red" />
<line x1="1246" y1="372" x2="1254" y2="364" stroke="red" />
<text x="1250" y="380" font-family="Verdana" font-size="8" text-anchor="middle"  dominant-baseline="middle" fill="black" > 353</text>
<circle cx="1350" cy="237" r="4" fill="white" stroke="black" />
<line x1="1350" y1="241" x2="1350" y2="419" stroke="black" />
<line x1="1346" y1="415" x2="1354" y2="423" stroke="red" />
<line x1="1346" y1="423" x2="1354" y2="415" stroke="red" />
<text x="1350" y="431" font-family="Verdana" font-size="8" text-anchor="middle"  dominant-baseline="middle" fill="black" > 404</text>
<circle cx="1450" cy="237" r="4" fill="white" stroke="black" />
<line x1="1450" y1="241" x2="1450" y2="347" stroke="black" />
<line x1="1425" y1="347" x2="1475" y2="347" stroke="black" />
<text x="1462" y="339" font-family="Verdana" font-size="8" text-anchor="middle"  dominant-baseline="middle" fill="black" > 332</text>
<circle cx="1425" cy="347" r="4" fill="white" stroke="black" />
<line x1="1425" y1="351" x2="1425" y2="397" stroke="black" />
<line x1="1421" y1="401" x2="1425" y2="393" stroke="blue" />
<line x1="1425" y1="401" x2="1429" y2="393" stroke="blue" />
<text x="1425" y="409" font-family="Verdana" font-size="8" text-anchor="middle"  dominant-baseline="middle" fill="black" > 382</text>
<circle cx="1475" cy="347" r="4" fill="white" stroke="black" />
<line x1="1475" y1="351" x2="1475" y2="587" stroke="black" />
<line x1="1462" y1="587" x2="1488" y2="587" stroke="black" />
<text x="1481" y="579" font-family="Verdana" font-size="8" text-anchor="middle"  dominant-baseline="middle" fill="black" > 572</text>
<circle cx="1462" cy="587" r="4" fill="white" stroke="black" />
<circle cx="1487" cy="587" r="4" fill="white" stroke="black" />
<line x1="1462" y1="591" x2="1462" y2="596" stroke="black" />
<line x1="1462" y1="596" x2="1474" y2="598" stroke="black" />
<line x1="1487" y1="591" x2="1487" y2="596" stroke="black" />
<line x1="1487" y1="596" x2="1474" y2="598" stroke="black" />
<text x="1474" y="586" font-family="Verdana" font-size="8" text-anchor="middle"  dominant-baseline="middle" fill="black" > 583</text>
<circle cx="1474" cy="598" r="4" fill="white" stroke="black" />
<line x1="1474" y1="602" x2="1474" y2="736" stroke="black" />
<circle cx="1474" cy="736" r="4" fill="white" stroke="black" />
<text x="1474" y="748" font-family="Verdana" font-size="8" text-anchor="middle"  dominant-baseline="middle" fill="black" > 721</text>
<text x="1550" y="7" font-family="Verdana" font-size="7" text-anchor="middle"  dominant-baseline="middle" fill="black" > C6</text>
<circle cx="1550" cy="15" r="4" fill="white" stroke="black" />
<line x1="1550" y1="19" x2="1550" y2="256" stroke="black" />
<line x1="1546" y1="260" x2="1550" y2="252" stroke="blue" />
<line x1="1550" y1="260" x2="1554" y2="252" stroke="blue" />
<text x="1550" y="268" font-family="Verdana" font-size="8" text-anchor="middle"  dominant-baseline="middle" fill="black" > 241</text>
<text x="1700" y="7" font-family="Verdana" font-size="7" text-anchor="middle"  dominant-baseline="middle" fill="black" > C7</text>
<circle cx="1700" cy="15" r="4" fill="white" stroke="black" />
<line x1="1700" y1="19" x2="1700" y2="156" stroke="black" />
<line x1="1650" y1="156" x2="1750" y2="156" stroke="black" />
<text x="1725" y="148" font-family="Verdana" font-size="8" text-anchor="middle"  dominant-baseline="middle" fill="black" > 141</text>
<circle cx="1650" cy="156" r="4" fill="white" stroke="black" />
<line x1="1650" y1="160" x2="1650" y2="308" stroke="black" />
<line x1="1625" y1="308" x2="1675" y2="308" stroke="black" />
<text x="1662" y="300" font-family="Verdana" font-size="8" text-anchor="middle"  dominant-baseline="middle" fill="black" > 293</text>
<circle cx="1625" cy="308" r="4" fill="white" stroke="black" />
<circle cx="1675" cy="308" r="4" fill="white" stroke="black" />
<line x1="1625" y1="312" x2="1625" y2="350" stroke="black" />
<line x1="1625" y1="350" x2="1650" y2="364" stroke="black" />
<line x1="1675" y1="312" x2="1675" y2="350" stroke="black" />
<line x1="1675" y1="350" x2="1650" y2="364" stroke="black" />
<text x="1650" y="352" font-family="Verdana" font-size="8" text-anchor="middle"  dominant-baseline="middle" fill="black" > 349</text>
<circle cx="1650" cy="364" r="4" fill="white" stroke="black" />
<line x1="1650" y1="368" x2="1650" y2="518" stroke="black" />
<line x1="1633" y1="518" x2="1667" y2="518" stroke="black" />
<text x="1654" y="510" font-family="Verdana" font-size="8" text-anchor="middle"  dominant-baseline="middle" fill="black" > 503</text>
<circle cx="1633" cy="518" r="4" fill="white" stroke="black" />
<line x1="1633" y1="522" x2="1633" y2="736" stroke="black" />
<circle cx="1633" cy="736" r="4" fill="white" stroke="black" />
<text x="1633" y="748" font-family="Verdana" font-size="8" text-anchor="middle"  dominant-baseline="middle" fill="black" > 721</text>
<circle cx="1649" cy="518" r="4" fill="white" stroke="black" />
<line x1="1649" y1="522" x2="1649" y2="736" stroke="black" />
<circle cx="1649" cy="736" r="4" fill="white" stroke="black" />
<text x="1649" y="748" font-family="Verdana" font-size="8" text-anchor="middle"  dominant-baseline="middle" fill="black" > 721</text>
<circle cx="1665" cy="518" r="4" fill="white" stroke="black" />
<line x1="1665" y1="522" x2="1665" y2="729" stroke="black" />
<line x1="1661" y1="725" x2="1669" y2="733" stroke="red" />
<line x1="1661" y1="733" x2="1669" y2="725" stroke="red" />
<text x="1665" y="741" font-family="Verdana" font-size="8" text-anchor="middle"  dominant-baseline="middle" fill="black" > 714</text>
<circle cx="1750" cy="156" r="4" fill="white" stroke="black" />
<line x1="1750" y1="160" x2="1750" y2="274" stroke="black" />
<line x1="1725" y1="274" x2="1775" y2="274" stroke="black" />
<text x="1762" y="266" font-family="Verdana" font-size="8" text-anchor="middle"  dominant-baseline="middle" fill="black" > 259</text>
<circle cx="1725" cy="274" r="4" fill="white" stroke="black" />
<line x1="1725" y1="278" x2="1725" y2="736" stroke="black" />
<circle cx="1725" cy="736" r="4" fill="white" stroke="black" />
<text x="1725" y="748" font-family="Verdana" font-size="8" text-anchor="middle"  dominant-baseline="middle" fill="black" > 721</text>
<circle cx="1775" cy="274" r="4" fill="white" stroke="black" />
<line x1="1775" y1="278" x2="1775" y2="587" stroke="black" />
<line x1="1762" y1="587" x2="1788" y2="587" stroke="black" />
<text x="1781" y="579" font-family="Verdana" font-size="8" text-anchor="middle"  dominant-baseline="middle" fill="black" > 572</text>
<circle cx="1762" cy="587" r="4" fill="white" stroke="black" />
<circle cx="1787" cy="587" r="4" fill="white" stroke="black" />
<line x1="1762" y1="591" x2="1762" y2="594" stroke="black" />
<line x1="1762" y1="594" x2="1774" y2="596" stroke="black" />
<line x1="1787" y1="591" x2="1787" y2="594" stroke="black" />
<line x1="1787" y1="594" x2="1774" y2="596" stroke="black" />
<text x="1774" y="584" font-family="Verdana" font-size="8" text-anchor="middle"  dominant-baseline="middle" fill="black" > 581</text>
<circle cx="1774" cy="596" r="4" fill="white" stroke="black" />
<line x1="1774" y1="600" x2="1774" y2="736" stroke="black" />
<circle cx="1774" cy="736" r="4" fill="white" stroke="black" />
<text x="1774" y="748" font-family="Verdana" font-size="8" text-anchor="middle"  dominant-baseline="middle" fill="black" > 721</text>
<text x="2000" y="7" font-family="Verdana" font-size="7" text-anchor="middle"  dominant-baseline="middle" fill="black" > C8</text>
<circle cx="2000" cy="15" r="4" fill="white" stroke="black" />
<line x1="2000" y1="19" x2="2000" y2="391" stroke="black" />
<line x1="1850" y1="391" x2="2150" y2="391" stroke="black" />
<text x="2025" y="383" font-family="Verdana" font-size="8" text-anchor="middle"  dominant-baseline="middle" fill="black" > 376</text>
<circle cx="1850" cy="391" r="4" fill="white" stroke="black" />
<line x1="1850" y1="395" x2="1850" y2="615" stroke="black" />
<line x1="1846" y1="611" x2="1854" y2="619" stroke="red" />
<line x1="1846" y1="619" x2="1854" y2="611" stroke="red" />
<text x="1850" y="627" font-family="Verdana" font-size="8" text-anchor="middle"  dominant-baseline="middle" fill="black" > 600</text>
<circle cx="1950" cy="391" r="4" fill="white" stroke="black" />
<circle cx="2050" cy="391" r="4" fill="white" stroke="black" />
<line x1="1950" y1="395" x2="1950" y2="401" stroke="black" />
<line x1="1950" y1="401" x2="2000" y2="404" stroke="black" />
<line x1="2050" y1="395" x2="2050" y2="401" stroke="black" />
<line x1="2050" y1="401" x2="2000" y2="404" stroke="black" />
<text x="2000" y="392" font-family="Verdana" font-size="8" text-anchor="middle"  dominant-baseline="middle" fill="black" > 389</text>
<circle cx="2000" cy="404" r="4" fill="white" stroke="black" />
<circle cx="2150" cy="391" r="4" fill="white" stroke="black" />
<line x1="2000" y1="408" x2="2000" y2="407" stroke="black" />
<line x1="2000" y1="407" x2="2075" y2="408" stroke="black" />
<line x1="2150" y1="395" x2="2150" y2="407" stroke="black" />
<line x1="2150" y1="407" x2="2075" y2="408" stroke="black" />
<text x="2075" y="396" font-family="Verdana" font-size="8" text-anchor="middle"  dominant-baseline="middle" fill="black" > 393</text>
<circle cx="2075" cy="408" r="4" fill="white" stroke="black" />
<line x1="2075" y1="412" x2="2075" y2="573" stroke="black" />
<line x1="2071" y1="569" x2="2079" y2="577" stroke="red" />
<line x1="2071" y1="577" x2="2079" y2="569" stroke="red" />
<text x="2075" y="585" font-family="Verdana" font-size="8" text-anchor="middle"  dominant-baseline="middle" fill="black" > 558</text>
<text x="2450" y="7" font-family="Verdana" font-size="7" text-anchor="middle"  dominant-baseline="middle" fill="black" > C9</text>
<circle cx="2450" cy="15" r="4" fill="white" stroke="black" />
<line x1="2450" y1="19" x2="2450" y2="372" stroke="black" />
<line x1="2250" y1="372" x2="2650" y2="372" stroke="black" />
<text x="2475" y="364" font-family="Verdana" font-size="8" text-anchor="middle"  dominant-baseline="middle" fill="black" > 357</text>
<circle cx="2250" cy="372" r="4" fill="white" stroke="black" />
<line x1="2250" y1="376" x2="2250" y2="413" stroke="black" />
<line x1="2246" y1="409" x2="2254" y2="417" stroke="red" />
<line x1="2246" y1="417" x2="2254" y2="409" stroke="red" />
<text x="2250" y="425" font-family="Verdana" font-size="8" text-anchor="middle"  dominant-baseline="middle" fill="black" > 398</text>
<circle cx="2350" cy="372" r="4" fill="white" stroke="black" />
<circle cx="2450" cy="372" r="4" fill="white" stroke="black" />
<line x1="2350" y1="376" x2="2350" y2="381" stroke="black" />
<line x1="2350" y1="381" x2="2400" y2="384" stroke="black" />
<line x1="2450" y1="376" x2="2450" y2="381" stroke="black" />
<line x1="2450" y1="381" x2="2400" y2="384" stroke="black" />
<text x="2400" y="372" font-family="Verdana" font-size="8" text-anchor="middle"  dominant-baseline="middle" fill="black" > 369</text>
<circle cx="2400" cy="384" r="4" fill="white" stroke="black" />
<circle cx="2550" cy="372" r="4" fill="white" stroke="black" />
<circle cx="2650" cy="372" r="4" fill="white" stroke="black" />
<line x1="2400" y1="388" x2="2400" y2="385" stroke="black" />
<line x1="2400" y1="385" x2="2525" y2="385" stroke="black" />
<line x1="2550" y1="376" x2="2550" y2="385" stroke="black" />
<line x1="2550" y1="385" x2="2525" y2="385" stroke="black" />
<line x1="2650" y1="376" x2="2650" y2="385" stroke="black" />
<line x1="2650" y1="385" x2="2525" y2="385" stroke="black" />
<text x="2525" y="373" font-family="Verdana" font-size="8" text-anchor="middle"  dominant-baseline="middle" fill="black" > 370</text>
<circle cx="2525" cy="385" r="4" fill="white" stroke="black" />
<line x1="2525" y1="389" x2="2525" y2="406" stroke="black" />
<line x1="2521" y1="402" x2="2529" y2="410" stroke="red" />
<line x1="2521" y1="410" x2="2529" y2="402" stroke="red" />
<text x="2525" y="418" font-family="Verdana" font-size="8" text-anchor="middle"  dominant-baseline="middle" fill="black" > 391</text>
<text x="2900" y="7" font-family="Verdana" font-size="7" text-anchor="middle"  dominant-baseline="middle" fill="black" > C10</text>
<circle cx="2900" cy="15" r="4" fill="white" stroke="black" />
<line x1="2900" y1="19" x2="2900" y2="239" stroke="black" />
<line x1="2750" y1="239" x2="3050" y2="239" stroke="black" />
<text x="2925" y="231" font-family="Verdana" font-size="8" text-anchor="middle"  dominant-baseline="middle" fill="black" > 224</text>
<circle cx="2750" cy="239" r="4" fill="white" stroke="black" />
<line x1="2750" y1="243" x2="2750" y2="337" stroke="black" />
<line x1="2746" y1="333" x2="2754" y2="341" stroke="red" />
<line x1="2746" y1="341" x2="2754" y2="333" stroke="red" />
<text x="2750" y="349" font-family="Verdana" font-size="8" text-anchor="middle"  dominant-baseline="middle" fill="black" > 322</text>
<circle cx="2850" cy="239" r="4" fill="white" stroke="black" />
<line x1="2850" y1="243" x2="2850" y2="490" stroke="black" />
<line x1="2846" y1="486" x2="2854" y2="494" stroke="red" />
<line x1="2846" y1="494" x2="2854" y2="486" stroke="red" />
<text x="2850" y="502" font-family="Verdana" font-size="8" text-anchor="middle"  dominant-baseline="middle" fill="black" > 475</text>
<circle cx="2950" cy="239" r="4" fill="white" stroke="black" />
<line x1="2950" y1="243" x2="2950" y2="393" stroke="black" />
<line x1="2925" y1="393" x2="2975" y2="393" stroke="black" />
<text x="2962" y="385" font-family="Verdana" font-size="8" text-anchor="middle"  dominant-baseline="middle" fill="black" > 378</text>
<circle cx="2925" cy="393" r="4" fill="white" stroke="black" />
<circle cx="2975" cy="393" r="4" fill="white" stroke="black" />
<line x1="2925" y1="397" x2="2925" y2="436" stroke="black" />
<line x1="2925" y1="436" x2="2950" y2="450" stroke="black" />
<line x1="2975" y1="397" x2="2975" y2="436" stroke="black" />
<line x1="2975" y1="436" x2="2950" y2="450" stroke="black" />
<text x="2950" y="438" font-family="Verdana" font-size="8" text-anchor="middle"  dominant-baseline="middle" fill="black" > 435</text>
<circle cx="2950" cy="450" r="4" fill="white" stroke="black" />
<line x1="2950" y1="454" x2="2950" y2="482" stroke="black" />
<line x1="2946" y1="478" x2="2954" y2="486" stroke="red" />
<line x1="2946" y1="486" x2="2954" y2="478" stroke="red" />
<text x="2950" y="494" font-family="Verdana" font-size="8" text-anchor="middle"  dominant-baseline="middle" fill="black" > 467</text>
<circle cx="3050" cy="239" r="4" fill="white" stroke="black" />
<line x1="3050" y1="243" x2="3050" y2="374" stroke="black" />
<line x1="3025" y1="374" x2="3075" y2="374" stroke="black" />
<text x="3062" y="366" font-family="Verdana" font-size="8" text-anchor="middle"  dominant-baseline="middle" fill="black" > 359</text>
<circle cx="3025" cy="374" r="4" fill="white" stroke="black" />
<line x1="3025" y1="378" x2="3025" y2="736" stroke="black" />
<circle cx="3025" cy="736" r="4" fill="white" stroke="black" />
<text x="3025" y="748" font-family="Verdana" font-size="8" text-anchor="middle"  dominant-baseline="middle" fill="black" > 721</text>
<circle cx="3075" cy="374" r="4" fill="white" stroke="black" />
<line x1="3075" y1="378" x2="3075" y2="613" stroke="black" />
<line x1="3062" y1="613" x2="3088" y2="613" stroke="black" />
<text x="3081" y="605" font-family="Verdana" font-size="8" text-anchor="middle"  dominant-baseline="middle" fill="black" > 598</text>
<circle cx="3062" cy="613" r="4" fill="white" stroke="black" />
<circle cx="3087" cy="613" r="4" fill="white" stroke="black" />
<line x1="3062" y1="617" x2="3062" y2="637" stroke="black" />
<line x1="3062" y1="637" x2="3074" y2="645" stroke="black" />
<line x1="3087" y1="617" x2="3087" y2="637" stroke="black" />
<line x1="3087" y1="637" x2="3074" y2="645" stroke="black" />
<text x="3074" y="633" font-family="Verdana" font-size="8" text-anchor="middle"  dominant-baseline="middle" fill="black" > 630</text>
<circle cx="3074" cy="645" r="4" fill="white" stroke="black" />
<line x1="3074" y1="649" x2="3074" y2="657" stroke="black" />
<line x1="3070" y1="653" x2="3078" y2="661" stroke="red" />
<line x1="3070" y1="661" x2="3078" y2="653" stroke="red" />
<text x="3074" y="669" font-family="Verdana" font-size="8" text-anchor="middle"  dominant-baseline="middle" fill="black" > 642</text>
<text x="3300" y="7" font-family="Verdana" font-size="7" text-anchor="middle"  dominant-baseline="middle" fill="black" > C11</text>
<circle cx="3300" cy="15" r="4" fill="white" stroke="black" />
<line x1="3300" y1="19" x2="3300" y2="397" stroke="black" />
<line x1="3150" y1="397" x2="3450" y2="397" stroke="black" />
<text x="3325" y="389" font-family="Verdana" font-size="8" text-anchor="middle"  dominant-baseline="middle" fill="black" > 382</text>
<circle cx="3150" cy="397" r="4" fill="white" stroke="black" />
<circle cx="3250" cy="397" r="4" fill="white" stroke="black" />
<circle cx="3350" cy="397" r="4" fill="white" stroke="black" />
<circle cx="3450" cy="397" r="4" fill="white" stroke="black" />
<line x1="3150" y1="401" x2="3150" y2="408" stroke="black" />
<line x1="3150" y1="408" x2="3300" y2="411" stroke="black" />
<line x1="3250" y1="401" x2="3250" y2="408" stroke="black" />
<line x1="3250" y1="408" x2="3300" y2="411" stroke="black" />
<line x1="3350" y1="401" x2="3350" y2="408" stroke="black" />
<line x1="3350" y1="408" x2="3300" y2="411" stroke="black" />
<line x1="3450" y1="401" x2="3450" y2="408" stroke="black" />
<line x1="3450" y1="408" x2="3300" y2="411" stroke="black" />
<text x="3300" y="399" font-family="Verdana" font-size="8" text-anchor="middle"  dominant-baseline="middle" fill="black" > 396</text>
<circle cx="3300" cy="411" r="4" fill="white" stroke="black" />
<line x1="3300" y1="415" x2="3300" y2="535" stroke="black" />
<line x1="3296" y1="531" x2="3304" y2="539" stroke="red" />
<line x1="3296" y1="539" x2="3304" y2="531" stroke="red" />
<text x="3300" y="547" font-family="Verdana" font-size="8" text-anchor="middle"  dominant-baseline="middle" fill="black" > 520</text>
<text x="3600" y="7" font-family="Verdana" font-size="7" text-anchor="middle"  dominant-baseline="middle" fill="black" > C12</text>
<circle cx="3600" cy="15" r="4" fill="white" stroke="black" />
<line x1="3600" y1="19" x2="3600" y2="191" stroke="black" />
<line x1="3550" y1="191" x2="3650" y2="191" stroke="black" />
<text x="3625" y="183" font-family="Verdana" font-size="8" text-anchor="middle"  dominant-baseline="middle" fill="black" > 176</text>
<circle cx="3550" cy="191" r="4" fill="white" stroke="black" />
<line x1="3550" y1="195" x2="3550" y2="290" stroke="black" />
<line x1="3546" y1="286" x2="3554" y2="294" stroke="red" />
<line x1="3546" y1="294" x2="3554" y2="286" stroke="red" />
<text x="3550" y="302" font-family="Verdana" font-size="8" text-anchor="middle"  dominant-baseline="middle" fill="black" > 275</text>
<circle cx="3650" cy="191" r="4" fill="white" stroke="black" />
<line x1="3650" y1="195" x2="3650" y2="337" stroke="black" />
<line x1="3625" y1="337" x2="3675" y2="337" stroke="black" />
<text x="3662" y="329" font-family="Verdana" font-size="8" text-anchor="middle"  dominant-baseline="middle" fill="black" > 322</text>
<circle cx="3625" cy="337" r="4" fill="white" stroke="black" />
<circle cx="3675" cy="337" r="4" fill="white" stroke="black" />
<line x1="3625" y1="341" x2="3625" y2="410" stroke="black" />
<line x1="3625" y1="410" x2="3650" y2="434" stroke="black" />
<line x1="3675" y1="341" x2="3675" y2="410" stroke="black" />
<line x1="3675" y1="410" x2="3650" y2="434" stroke="black" />
<text x="3650" y="422" font-family="Verdana" font-size="8" text-anchor="middle"  dominant-baseline="middle" fill="black" > 419</text>
<circle cx="3650" cy="434" r="4" fill="white" stroke="black" />
<line x1="3650" y1="438" x2="3650" y2="736" stroke="black" />
<circle cx="3650" cy="736" r="4" fill="white" stroke="black" />
<text x="3650" y="748" font-family="Verdana" font-size="8" text-anchor="middle"  dominant-baseline="middle" fill="black" > 721</text>
<text x="3800" y="7" font-family="Verdana" font-size="7" text-anchor="middle"  dominant-baseline="middle" fill="black" > C13</text>
<circle cx="3800" cy="15" r="4" fill="white" stroke="black" />
<line x1="3800" y1="19" x2="3800" y2="193" stroke="black" />
<line x1="3750" y1="193" x2="3850" y2="193" stroke="black" />
<text x="3825" y="185" font-family="Verdana" font-size="8" text-anchor="middle"  dominant-baseline="middle" fill="black" > 178</text>
<circle cx="3750" cy="193" r="4" fill="white" stroke="black" />
<line x1="3750" y1="197" x2="3750" y2="333" stroke="black" />
<line x1="3725" y1="333" x2="3775" y2="333" stroke="black" />
<text x="3762" y="325" font-family="Verdana" font-size="8" text-anchor="middle"  dominant-baseline="middle" fill="black" > 318</text>
<circle cx="3725" cy="333" r="4" fill="white" stroke="black" />
<line x1="3725" y1="337" x2="3725" y2="513" stroke="black" />
<line x1="3708" y1="513" x2="3742" y2="513" stroke="black" />
<text x="3729" y="505" font-family="Verdana" font-size="8" text-anchor="middle"  dominant-baseline="middle" fill="black" > 498</text>
<circle cx="3708" cy="513" r="4" fill="white" stroke="black" />
<circle cx="3724" cy="513" r="4" fill="white" stroke="black" />
<circle cx="3740" cy="513" r="4" fill="white" stroke="black" />
<line x1="3708" y1="517" x2="3708" y2="522" stroke="black" />
<line x1="3708" y1="522" x2="3724" y2="524" stroke="black" />
<line x1="3724" y1="517" x2="3724" y2="522" stroke="black" />
<line x1="3724" y1="522" x2="3724" y2="524" stroke="black" />
<line x1="3740" y1="517" x2="3740" y2="522" stroke="black" />
<line x1="3740" y1="522" x2="3724" y2="524" stroke="black" />
<text x="3724" y="512" font-family="Verdana" font-size="8" text-anchor="middle"  dominant-baseline="middle" fill="black" > 509</text>
<circle cx="3724" cy="524" r="4" fill="white" stroke="black" />
<line x1="3724" y1="528" x2="3724" y2="611" stroke="black" />
<line x1="3720" y1="607" x2="3728" y2="615" stroke="red" />
<line x1="3720" y1="615" x2="3728" y2="607" stroke="red" />
<text x="3724" y="623" font-family="Verdana" font-size="8" text-anchor="middle"  dominant-baseline="middle" fill="black" > 596</text>
<circle cx="3775" cy="333" r="4" fill="white" stroke="black" />
<circle cx="3850" cy="193" r="4" fill="white" stroke="black" />
<line x1="3850" y1="197" x2="3850" y2="330" stroke="black" />
<line x1="3825" y1="330" x2="3875" y2="330" stroke="black" />
<text x="3862" y="322" font-family="Verdana" font-size="8" text-anchor="middle"  dominant-baseline="middle" fill="black" > 315</text>
<circle cx="3825" cy="330" r="4" fill="white" stroke="black" />
<line x1="3775" y1="337" x2="3775" y2="537" stroke="black" />
<line x1="3775" y1="537" x2="3800" y2="604" stroke="black" />
<line x1="3825" y1="334" x2="3825" y2="537" stroke="black" />
<line x1="3825" y1="537" x2="3800" y2="604" stroke="black" />
<text x="3800" y="592" font-family="Verdana" font-size="8" text-anchor="middle"  dominant-baseline="middle" fill="black" > 589</text>
<circle cx="3800" cy="604" r="4" fill="white" stroke="black" />
<line x1="3800" y1="608" x2="3800" y2="674" stroke="black" />
<line x1="3796" y1="670" x2="3804" y2="678" stroke="red" />
<line x1="3796" y1="678" x2="3804" y2="670" stroke="red" />
<text x="3800" y="686" font-family="Verdana" font-size="8" text-anchor="middle"  dominant-baseline="middle" fill="black" > 659</text>
<circle cx="3875" cy="330" r="4" fill="white" stroke="black" />
<line x1="3875" y1="334" x2="3875" y2="736" stroke="black" />
<circle cx="3875" cy="736" r="4" fill="white" stroke="black" />
<text x="3875" y="748" font-family="Verdana" font-size="8" text-anchor="middle"  dominant-baseline="middle" fill="black" > 721</text>
<text x="4000" y="7" font-family="Verdana" font-size="7" text-anchor="middle"  dominant-baseline="middle" fill="black" > C14</text>
<circle cx="4000" cy="15" r="4" fill="white" stroke="black" />
<line x1="4000" y1="19" x2="4000" y2="169" stroke="black" />
<line x1="3950" y1="169" x2="4050" y2="169" stroke="black" />
<text x="4025" y="161" font-family="Verdana" font-size="8" text-anchor="middle"  dominant-baseline="middle" fill="black" > 154</text>
<circle cx="3950" cy="169" r="4" fill="white" stroke="black" />
<line x1="3950" y1="173" x2="3950" y2="335" stroke="black" />
<line x1="3916" y1="335" x2="3984" y2="335" stroke="black" />
<text x="3958" y="327" font-family="Verdana" font-size="8" text-anchor="middle"  dominant-baseline="middle" fill="black" > 320</text>
<circle cx="3916" cy="335" r="4" fill="white" stroke="black" />
<circle cx="3949" cy="335" r="4" fill="white" stroke="black" />
<circle cx="3982" cy="335" r="4" fill="white" stroke="black" />
<line x1="3916" y1="339" x2="3916" y2="341" stroke="black" />
<line x1="3916" y1="341" x2="3949" y2="343" stroke="black" />
<line x1="3949" y1="339" x2="3949" y2="341" stroke="black" />
<line x1="3949" y1="341" x2="3949" y2="343" stroke="black" />
<line x1="3982" y1="339" x2="3982" y2="341" stroke="black" />
<line x1="3982" y1="341" x2="3949" y2="343" stroke="black" />
<text x="3949" y="331" font-family="Verdana" font-size="8" text-anchor="middle"  dominant-baseline="middle" fill="black" > 328</text>
<circle cx="3949" cy="343" r="4" fill="white" stroke="black" />
<line x1="3949" y1="347" x2="3949" y2="583" stroke="black" />
<line x1="3927" y1="583" x2="3971" y2="583" stroke="black" />
<text x="3954" y="575" font-family="Verdana" font-size="8" text-anchor="middle"  dominant-baseline="middle" fill="black" > 568</text>
<circle cx="3927" cy="583" r="4" fill="white" stroke="black" />
<circle cx="3949" cy="583" r="4" fill="white" stroke="black" />
<line x1="3927" y1="587" x2="3927" y2="595" stroke="black" />
<line x1="3927" y1="595" x2="3938" y2="598" stroke="black" />
<line x1="3949" y1="587" x2="3949" y2="595" stroke="black" />
<line x1="3949" y1="595" x2="3938" y2="598" stroke="black" />
<text x="3938" y="586" font-family="Verdana" font-size="8" text-anchor="middle"  dominant-baseline="middle" fill="black" > 583</text>
<circle cx="3938" cy="598" r="4" fill="white" stroke="black" />
<circle cx="3971" cy="583" r="4" fill="white" stroke="black" />
<line x1="3938" y1="602" x2="3938" y2="641" stroke="black" />
<line x1="3938" y1="641" x2="3954" y2="655" stroke="black" />
<line x1="3971" y1="587" x2="3971" y2="641" stroke="black" />
<line x1="3971" y1="641" x2="3954" y2="655" stroke="black" />
<text x="3954" y="643" font-family="Verdana" font-size="8" text-anchor="middle"  dominant-baseline="middle" fill="black" > 640</text>
<circle cx="3954" cy="655" r="4" fill="white" stroke="black" />
<line x1="3954" y1="659" x2="3954" y2="736" stroke="black" />
<circle cx="3954" cy="736" r="4" fill="white" stroke="black" />
<text x="3954" y="748" font-family="Verdana" font-size="8" text-anchor="middle"  dominant-baseline="middle" fill="black" > 721</text>
<circle cx="4050" cy="169" r="4" fill="white" stroke="black" />
<line x1="4050" y1="173" x2="4050" y2="382" stroke="black" />
<line x1="4046" y1="386" x2="4050" y2="378" stroke="blue" />
<line x1="4050" y1="386" x2="4054" y2="378" stroke="blue" />
<text x="4050" y="394" font-family="Verdana" font-size="8" text-anchor="middle"  dominant-baseline="middle" fill="black" > 367</text>
<text x="4200" y="7" font-family="Verdana" font-size="7" text-anchor="middle"  dominant-baseline="middle" fill="black" > C15</text>
<circle cx="4200" cy="15" r="4" fill="white" stroke="black" />
<line x1="4200" y1="19" x2="4200" y2="420" stroke="black" />
<line x1="4150" y1="420" x2="4250" y2="420" stroke="black" />
<text x="4225" y="412" font-family="Verdana" font-size="8" text-anchor="middle"  dominant-baseline="middle" fill="black" > 405</text>
<circle cx="4150" cy="420" r="4" fill="white" stroke="black" />
<circle cx="4250" cy="420" r="4" fill="white" stroke="black" />
<line x1="4150" y1="424" x2="4150" y2="465" stroke="black" />
<line x1="4150" y1="465" x2="4200" y2="479" stroke="black" />
<line x1="4250" y1="424" x2="4250" y2="465" stroke="black" />
<line x1="4250" y1="465" x2="4200" y2="479" stroke="black" />
<text x="4200" y="467" font-family="Verdana" font-size="8" text-anchor="middle"  dominant-baseline="middle" fill="black" > 464</text>
<circle cx="4200" cy="479" r="4" fill="white" stroke="black" />
<line x1="4200" y1="483" x2="4200" y2="539" stroke="black" />
<line x1="4196" y1="535" x2="4204" y2="543" stroke="red" />
<line x1="4196" y1="543" x2="4204" y2="535" stroke="red" />
<text x="4200" y="551" font-family="Verdana" font-size="8" text-anchor="middle"  dominant-baseline="middle" fill="black" > 524</text>
<text x="4450" y="7" font-family="Verdana" font-size="7" text-anchor="middle"  dominant-baseline="middle" fill="black" > C16</text>
<circle cx="4450" cy="15" r="4" fill="white" stroke="black" />
<line x1="4450" y1="19" x2="4450" y2="443" stroke="black" />
<line x1="4350" y1="443" x2="4550" y2="443" stroke="black" />
<text x="4475" y="435" font-family="Verdana" font-size="8" text-anchor="middle"  dominant-baseline="middle" fill="black" > 428</text>
<circle cx="4350" cy="443" r="4" fill="white" stroke="black" />
<line x1="4350" y1="447" x2="4350" y2="447" stroke="black" />
<line x1="4346" y1="443" x2="4354" y2="451" stroke="red" />
<line x1="4346" y1="451" x2="4354" y2="443" stroke="red" />
<text x="4350" y="459" font-family="Verdana" font-size="8" text-anchor="middle"  dominant-baseline="middle" fill="black" > 432</text>
<circle cx="4450" cy="443" r="4" fill="white" stroke="black" />
<line x1="4450" y1="447" x2="4450" y2="447" stroke="black" />
<line x1="4446" y1="443" x2="4454" y2="451" stroke="red" />
<line x1="4446" y1="451" x2="4454" y2="443" stroke="red" />
<text x="4450" y="459" font-family="Verdana" font-size="8" text-anchor="middle"  dominant-baseline="middle" fill="black" > 432</text>
<circle cx="4550" cy="443" r="4" fill="white" stroke="black" />
<line x1="4550" y1="447" x2="4550" y2="447" stroke="black" />
<line x1="4546" y1="443" x2="4554" y2="451" stroke="red" />
<line x1="4546" y1="451" x2="4554" y2="443" stroke="red" />
<text x="4550" y="459" font-family="Verdana" font-size="8" text-anchor="middle"  dominant-baseline="middle" fill="black" > 432</text>
<text x="4650" y="7" font-family="Verdana" font-size="7" text-anchor="middle"  dominant-baseline="middle" fill="black" > C17</text>
<circle cx="4650" cy="15" r="4" fill="white" stroke="black" />
<line x1="4650" y1="19" x2="4650" y2="485" stroke="black" />
<line x1="4646" y1="481" x2="4654" y2="489" stroke="red" />
<line x1="4646" y1="489" x2="4654" y2="481" stroke="red" />
<text x="4650" y="497" font-family="Verdana" font-size="8" text-anchor="middle"  dominant-baseline="middle" fill="black" > 470</text>
<text x="4850" y="7" font-family="Verdana" font-size="7" text-anchor="middle"  dominant-baseline="middle" fill="black" > C18</text>
<circle cx="4850" cy="15" r="4" fill="white" stroke="black" />
<line x1="4850" y1="19" x2="4850" y2="348" stroke="black" />
<line x1="4750" y1="348" x2="4950" y2="348" stroke="black" />
<text x="4875" y="340" font-family="Verdana" font-size="8" text-anchor="middle"  dominant-baseline="middle" fill="black" > 333</text>
<circle cx="4750" cy="348" r="4" fill="white" stroke="black" />
<circle cx="4850" cy="348" r="4" fill="white" stroke="black" />
<circle cx="4950" cy="348" r="4" fill="white" stroke="black" />
<line x1="4750" y1="352" x2="4750" y2="366" stroke="black" />
<line x1="4750" y1="366" x2="4850" y2="371" stroke="black" />
<line x1="4850" y1="352" x2="4850" y2="366" stroke="black" />
<line x1="4850" y1="366" x2="4850" y2="371" stroke="black" />
<line x1="4950" y1="352" x2="4950" y2="366" stroke="black" />
<line x1="4950" y1="366" x2="4850" y2="371" stroke="black" />
<text x="4850" y="359" font-family="Verdana" font-size="8" text-anchor="middle"  dominant-baseline="middle" fill="black" > 356</text>
<circle cx="4850" cy="371" r="4" fill="white" stroke="black" />
<line x1="4850" y1="375" x2="4850" y2="666" stroke="black" />
<line x1="4846" y1="662" x2="4854" y2="670" stroke="red" />
<line x1="4846" y1="670" x2="4854" y2="662" stroke="red" />
<text x="4850" y="678" font-family="Verdana" font-size="8" text-anchor="middle"  dominant-baseline="middle" fill="black" > 651</text>
<text x="5100" y="7" font-family="Verdana" font-size="7" text-anchor="middle"  dominant-baseline="middle" fill="black" > C19</text>
<circle cx="5100" cy="15" r="4" fill="white" stroke="black" />
<line x1="5100" y1="19" x2="5100" y2="257" stroke="black" />
<line x1="5050" y1="257" x2="5150" y2="257" stroke="black" />
<text x="5125" y="249" font-family="Verdana" font-size="8" text-anchor="middle"  dominant-baseline="middle" fill="black" > 242</text>
<circle cx="5050" cy="257" r="4" fill="white" stroke="black" />
<line x1="5050" y1="261" x2="5050" y2="736" stroke="black" />
<circle cx="5050" cy="736" r="4" fill="white" stroke="black" />
<text x="5050" y="748" font-family="Verdana" font-size="8" text-anchor="middle"  dominant-baseline="middle" fill="black" > 721</text>
<circle cx="5150" cy="257" r="4" fill="white" stroke="black" />
<line x1="5150" y1="261" x2="5150" y2="736" stroke="black" />
<circle cx="5150" cy="736" r="4" fill="white" stroke="black" />
<text x="5150" y="748" font-family="Verdana" font-size="8" text-anchor="middle"  dominant-baseline="middle" fill="black" > 721</text>
<text x="5250" y="7" font-family="Verdana" font-size="7" text-anchor="middle"  dominant-baseline="middle" fill="black" > C20</text>
<circle cx="5250" cy="15" r="4" fill="white" stroke="black" />
<line x1="5250" y1="19" x2="5250" y2="601" stroke="black" />
<line x1="5246" y1="597" x2="5254" y2="605" stroke="red" />
<line x1="5246" y1="605" x2="5254" y2="597" stroke="red" />
<text x="5250" y="613" font-family="Verdana" font-size="8" text-anchor="middle"  dominant-baseline="middle" fill="black" > 586</text>
<text x="5450" y="7" font-family="Verdana" font-size="7" text-anchor="middle"  dominant-baseline="middle" fill="black" > C21</text>
<circle cx="5450" cy="15" r="4" fill="white" stroke="black" />
<line x1="5450" y1="19" x2="5450" y2="317" stroke="black" />
<line x1="5350" y1="317" x2="5550" y2="317" stroke="black" />
<text x="5475" y="309" font-family="Verdana" font-size="8" text-anchor="middle"  dominant-baseline="middle" fill="black" > 302</text>
<circle cx="5350" cy="317" r="4" fill="white" stroke="black" />
<circle cx="5450" cy="317" r="4" fill="white" stroke="black" />
<circle cx="5550" cy="317" r="4" fill="white" stroke="black" />
<line x1="5350" y1="321" x2="5350" y2="326" stroke="black" />
<line x1="5350" y1="326" x2="5450" y2="328" stroke="black" />
<line x1="5450" y1="321" x2="5450" y2="326" stroke="black" />
<line x1="5450" y1="326" x2="5450" y2="328" stroke="black" />
<line x1="5550" y1="321" x2="5550" y2="326" stroke="black" />
<line x1="5550" y1="326" x2="5450" y2="328" stroke="black" />
<text x="5450" y="316" font-family="Verdana" font-size="8" text-anchor="middle"  dominant-baseline="middle" fill="black" > 313</text>
<circle cx="5450" cy="328" r="4" fill="white" stroke="black" />
<line x1="5450" y1="332" x2="5450" y2="424" stroke="black" />
<line x1="5446" y1="420" x2="5454" y2="428" stroke="red" />
<line x1="5446" y1="428" x2="5454" y2="420" stroke="red" />
<text x="5450" y="436" font-family="Verdana" font-size="8" text-anchor="middle"  dominant-baseline="middle" fill="black" > 409</text>
<text x="5750" y="7" font-family="Verdana" font-size="7" text-anchor="middle"  dominant-baseline="middle" fill="black" > C22</text>
<circle cx="5750" cy="15" r="4" fill="white" stroke="black" />
<line x1="5750" y1="19" x2="5750" y2="330" stroke="black" />
<line x1="5650" y1="330" x2="5850" y2="330" stroke="black" />
<text x="5775" y="322" font-family="Verdana" font-size="8" text-anchor="middle"  dominant-baseline="middle" fill="black" > 315</text>
<circle cx="5650" cy="330" r="4" fill="white" stroke="black" />
<circle cx="5750" cy="330" r="4" fill="white" stroke="black" />
<line x1="5650" y1="334" x2="5650" y2="339" stroke="black" />
<line x1="5650" y1="339" x2="5700" y2="342" stroke="black" />
<line x1="5750" y1="334" x2="5750" y2="339" stroke="black" />
<line x1="5750" y1="339" x2="5700" y2="342" stroke="black" />
<text x="5700" y="330" font-family="Verdana" font-size="8" text-anchor="middle"  dominant-baseline="middle" fill="black" > 327</text>
<circle cx="5700" cy="342" r="4" fill="white" stroke="black" />
<circle cx="5850" cy="330" r="4" fill="white" stroke="black" />
<line x1="5700" y1="346" x2="5700" y2="348" stroke="black" />
<line x1="5700" y1="348" x2="5775" y2="350" stroke="black" />
<line x1="5850" y1="334" x2="5850" y2="348" stroke="black" />
<line x1="5850" y1="348" x2="5775" y2="350" stroke="black" />
<text x="5775" y="338" font-family="Verdana" font-size="8" text-anchor="middle"  dominant-baseline="middle" fill="black" > 335</text>
<circle cx="5775" cy="350" r="4" fill="white" stroke="black" />
<line x1="5775" y1="354" x2="5775" y2="424" stroke="black" />
<line x1="5771" y1="420" x2="5779" y2="428" stroke="red" />
<line x1="5771" y1="428" x2="5779" y2="420" stroke="red" />
<text x="5775" y="436" font-family="Verdana" font-size="8" text-anchor="middle"  dominant-baseline="middle" fill="black" > 409</text>
<text x="5950" y="7" font-family="Verdana" font-size="7" text-anchor="middle"  dominant-baseline="middle" fill="black" > C23</text>
<circle cx="5950" cy="15" r="4" fill="white" stroke="black" />
<line x1="5950" y1="19" x2="5950" y2="188" stroke="black" />
<line x1="5946" y1="192" x2="5950" y2="184" stroke="blue" />
<line x1="5950" y1="192" x2="5954" y2="184" stroke="blue" />
<text x="5950" y="200" font-family="Verdana" font-size="8" text-anchor="middle"  dominant-baseline="middle" fill="black" > 173</text>
<text x="6100" y="7" font-family="Verdana" font-size="7" text-anchor="middle"  dominant-baseline="middle" fill="black" > C24</text>
<circle cx="6100" cy="15" r="4" fill="white" stroke="black" />
<line x1="6100" y1="19" x2="6100" y2="136" stroke="black" />
<line x1="6050" y1="136" x2="6150" y2="136" stroke="black" />
<text x="6125" y="128" font-family="Verdana" font-size="8" text-anchor="middle"  dominant-baseline="middle" fill="black" > 121</text>
<circle cx="6050" cy="136" r="4" fill="white" stroke="black" />
<line x1="6050" y1="140" x2="6050" y2="385" stroke="black" />
<line x1="6046" y1="389" x2="6050" y2="381" stroke="blue" />
<line x1="6050" y1="389" x2="6054" y2="381" stroke="blue" />
<text x="6050" y="397" font-family="Verdana" font-size="8" text-anchor="middle"  dominant-baseline="middle" fill="black" > 370</text>
<circle cx="6150" cy="136" r="4" fill="white" stroke="black" />
<line x1="6150" y1="140" x2="6150" y2="189" stroke="black" />
<line x1="6146" y1="193" x2="6150" y2="185" stroke="blue" />
<line x1="6150" y1="193" x2="6154" y2="185" stroke="blue" />
<text x="6150" y="201" font-family="Verdana" font-size="8" text-anchor="middle"  dominant-baseline="middle" fill="black" > 174</text>
</svg>
