<?xml version="1.0" encoding="utf-8"?>
<svg xmlns="http://www.w3.org/2000/svg" version="1.1" width="850" height="750">
<rect width="850" height="15" x="0" y="0" fill="white" />
<rect width="850" height="15" x="0" y="735" fill="white" />
<rect width="25" height="750" x="0" y="0" fill="white" />
<rect width="25" height="750" x="825" y="0" fill="white" />
<rect width="810" height="144" x="25" y="15" fill="ghostwhite" />
<rect width="810" height="144" x="25" y="159" fill="snow" />
<rect width="810" height="144" x="25" y="303" fill="ghostwhite" />
<rect width="810" height="144" x="25" y="447" fill="snow" />
<rect width="810" height="144" x="25" y="591" fill="ghostwhite" />
<text x="12" y="87" font-family="Verdana" font-size="10" text-anchor="middle"  dominant-baseline="middle" fill="red" > D0</text>
<text x="12" y="231" font-family="Verdana" font-size="10" text-anchor="middle"  dominant-baseline="middle" fill="red" > D1</text>
<text x="12" y="375" font-family="Verdana" font-size="10" text-anchor="middle"  dominant-baseline="middle" fill="red" > D2</text>
<text x="12" y="519" font-family="Verdana" font-size="10" text-anchor="middle"  dominant-baseline="middle" fill="red" > D3</text>
<text x="12" y="663" font-family="Verdana" font-size="10" text-anchor="middle"  dominant-baseline="middle" fill="red" > D4</text>
<text x="12" y="20" font-family="Verdana" font-size="10" text-anchor="middle"  dominant-baseline="middle" fill="black" > 0</text>
<text x="12" y="164" font-family="Verdana" font-size="10" text-anchor="middle"  dominant-baseline="middle" fill="black" > 144</text>
<text x="12" y="308" font-family="Verdana" font-size="10" text-anchor="middle"  dominant-baseline="middle" fill="black" > 288</text>
<text x="12" y="452" font-family="Verdana" font-size="10" text-anchor="middle"  dominant-baseline="middle" fill="black" > 432</text>
<text x="12" y="596" font-family="Verdana" font-size="10" text-anchor="middle"  dominant-baseline="middle" fill="black" > 576</text>
<text x="12" y="740" font-family="Verdana" font-size="10" text-anchor="middle"  dominant-baseline="middle" fill="black" > 720</text>
<text x="100" y="7" font-family="Verdana" font-size="7" text-anchor="middle"  dominant-baseline="middle" fill="black" > C1</text>
<circle cx="100" cy="15" r="4" fill="white" stroke="black" />
<line x1="100" y1="19" x2="100" y2="120" stroke="black" />
<line x1="50" y1="120" x2="150" y2="120" stroke="black" />
<text x="125" y="112" font-family="Verdana" font-size="8" text-anchor="middle"  dominant-baseline="middle" fill="black" > 105</text>
<circle cx="50" cy="120" r="4" fill="white" stroke="black" />
<line x1="50" y1="124" x2="50" y2="400" stroke="black" />
<line x1="25" y1="400" x2="75" y2="400" stroke="black" />
<text x="62" y="392" font-family="Verdana" font-size="8" text-anchor="middle"  dominant-baseline="middle" fill="black" > 385</text>
<circle cx="25" cy="400" r="4" fill="white" stroke="black" />
<line x1="25" y1="404" x2="25" y2="528" stroke="black" />
<line x1="12" y1="528" x2="38" y2="528" stroke="black" />
<text x="31" y="520" font-family="Verdana" font-size="8" text-anchor="middle"  dominant-baseline="middle" fill="black" > 513</text>
<circle cx="12" cy="528" r="4" fill="white" stroke="black" />
<line x1="12" y1="532" x2="12" y2="591" stroke="black" />
<circle cx="12" cy="591" r="4" fill="white" stroke="black" />
<text x="12" y="603" font-family="Verdana" font-size="8" text-anchor="middle"  dominant-baseline="middle" fill="black" > 576</text>
<circle cx="37" cy="528" r="4" fill="white" stroke="black" />
<line x1="37" y1="532" x2="37" y2="591" stroke="black" />
<circle cx="37" cy="591" r="4" fill="white" stroke="black" />
<text x="37" y="603" font-family="Verdana" font-size="8" text-anchor="middle"  dominant-baseline="middle" fill="black" > 576</text>
<circle cx="75" cy="400" r="4" fill="white" stroke="black" />
<line x1="75" y1="404" x2="75" y2="512" stroke="black" />
<line x1="62" y1="512" x2="88" y2="512" stroke="black" />
<text x="81" y="504" font-family="Verdana" font-size="8" text-anchor="middle"  dominant-baseline="middle" fill="black" > 497</text>
<circle cx="62" cy="512" r="4" fill="white" stroke="black" />
<line x1="62" y1="516" x2="62" y2="591" stroke="black" />
<circle cx="62" cy="591" r="4" fill="white" stroke="black" />
<text x="62" y="603" font-family="Verdana" font-size="8" text-anchor="middle"  dominant-baseline="middle" fill="black" > 576</text>
<circle cx="87" cy="512" r="4" fill="white" stroke="black" />
<line x1="87" y1="516" x2="87" y2="591" stroke="black" />
<circle cx="87" cy="591" r="4" fill="white" stroke="black" />
<text x="87" y="603" font-family="Verdana" font-size="8" text-anchor="middle"  dominant-baseline="middle" fill="black" > 576</text>
<circle cx="150" cy="120" r="4" fill="white" stroke="black" />
<line x1="150" y1="124" x2="150" y2="370" stroke="black" />
<line x1="125" y1="370" x2="175" y2="370" stroke="black" />
<text x="162" y="362" font-family="Verdana" font-size="8" text-anchor="middle"  dominant-baseline="middle" fill="black" > 355</text>
<circle cx="125" cy="370" r="4" fill="white" stroke="black" />
<line x1="125" y1="374" x2="125" y2="494" stroke="black" />
<line x1="112" y1="494" x2="138" y2="494" stroke="black" />
<text x="131" y="486" font-family="Verdana" font-size="8" text-anchor="middle"  dominant-baseline="middle" fill="black" > 479</text>
<circle cx="112" cy="494" r="4" fill="white" stroke="black" />
<line x1="112" y1="498" x2="112" y2="591" stroke="black" />
<circle cx="112" cy="591" r="4" fill="white" stroke="black" />
<text x="112" y="603" font-family="Verdana" font-size="8" text-anchor="middle"  dominant-baseline="middle" fill="black" > 576</text>
<circle cx="137" cy="494" r="4" fill="white" stroke="black" />
<line x1="137" y1="498" x2="137" y2="591" stroke="black" />
<circle cx="137" cy="591" r="4" fill="white" stroke="black" />
<text x="137" y="603" font-family="Verdana" font-size="8" text-anchor="middle"  dominant-baseline="middle" fill="black" > 576</text>
<circle cx="175" cy="370" r="4" fill="white" stroke="black" />
<line x1="175" y1="374" x2="175" y2="477" stroke="black" />
<line x1="162" y1="477" x2="188" y2="477" stroke="black" />
<text x="181" y="469" font-family="Verdana" font-size="8" text-anchor="middle"  dominant-baseline="middle" fill="black" > 462</text>
<circle cx="162" cy="477" r="4" fill="white" stroke="black" />
<line x1="162" y1="481" x2="162" y2="591" stroke="black" />
<circle cx="162" cy="591" r="4" fill="white" stroke="black" />
<text x="162" y="603" font-family="Verdana" font-size="8" text-anchor="middle"  dominant-baseline="middle" fill="black" > 576</text>
<circle cx="187" cy="477" r="4" fill="white" stroke="black" />
<line x1="187" y1="481" x2="187" y2="591" stroke="black" />
<circle cx="187" cy="591" r="4" fill="white" stroke="black" />
<text x="187" y="603" font-family="Verdana" font-size="8" text-anchor="middle"  dominant-baseline="middle" fill="black" > 576</text>
<text x="300" y="7" font-family="Verdana" font-size="7" text-anchor="middle"  dominant-baseline="middle" fill="black" > C2</text>
<circle cx="300" cy="15" r="4" fill="white" stroke="black" />
<line x1="300" y1="19" x2="300" y2="127" stroke="black" />
<line x1="250" y1="127" x2="350" y2="127" stroke="black" />
<text x="325" y="119" font-family="Verdana" font-size="8" text-anchor="middle"  dominant-baseline="middle" fill="black" > 112</text>
<circle cx="250" cy="127" r="4" fill="white" stroke="black" />
<line x1="250" y1="131" x2="250" y2="365" stroke="black" />
<line x1="225" y1="365" x2="275" y2="365" stroke="black" />
<text x="262" y="357" font-family="Verdana" font-size="8" text-anchor="middle"  dominant-baseline="middle" fill="black" > 350</text>
<circle cx="225" cy="365" r="4" fill="white" stroke="black" />
<line x1="225" y1="369" x2="225" y2="500" stroke="black" />
<line x1="212" y1="500" x2="238" y2="500" stroke="black" />
<text x="231" y="492" font-family="Verdana" font-size="8" text-anchor="middle"  dominant-baseline="middle" fill="black" > 485</text>
<circle cx="212" cy="500" r="4" fill="white" stroke="black" />
<line x1="212" y1="504" x2="212" y2="591" stroke="black" />
<circle cx="212" cy="591" r="4" fill="white" stroke="black" />
<text x="212" y="603" font-family="Verdana" font-size="8" text-anchor="middle"  dominant-baseline="middle" fill="black" > 576</text>
<circle cx="237" cy="500" r="4" fill="white" stroke="black" />
<line x1="237" y1="504" x2="237" y2="591" stroke="black" />
<circle cx="237" cy="591" r="4" fill="white" stroke="black" />
<text x="237" y="603" font-family="Verdana" font-size="8" text-anchor="middle"  dominant-baseline="middle" fill="black" > 576</text>
<circle cx="275" cy="365" r="4" fill="white" stroke="black" />
<line x1="275" y1="369" x2="275" y2="499" stroke="black" />
<line x1="262" y1="499" x2="288" y2="499" stroke="black" />
<text x="281" y="491" font-family="Verdana" font-size="8" text-anchor="middle"  dominant-baseline="middle" fill="black" > 484</text>
<circle cx="262" cy="499" r="4" fill="white" stroke="black" />
<line x1="262" y1="503" x2="262" y2="591" stroke="black" />
<circle cx="262" cy="591" r="4" fill="white" stroke="black" />
<text x="262" y="603" font-family="Verdana" font-size="8" text-anchor="middle"  dominant-baseline="middle" fill="black" > 576</text>
<circle cx="287" cy="499" r="4" fill="white" stroke="black" />
<line x1="287" y1="503" x2="287" y2="591" stroke="black" />
<circle cx="287" cy="591" r="4" fill="white" stroke="black" />
<text x="287" y="603" font-family="Verdana" font-size="8" text-anchor="middle"  dominant-baseline="middle" fill="black" > 576</text>
<circle cx="350" cy="127" r="4" fill="white" stroke="black" />
<line x1="350" y1="131" x2="350" y2="320" stroke="black" />
<line x1="325" y1="320" x2="375" y2="320" stroke="black" />
<text x="362" y="312" font-family="Verdana" font-size="8" text-anchor="middle"  dominant-baseline="middle" fill="black" > 305</text>
<circle cx="325" cy="320" r="4" fill="white" stroke="black" />
<line x1="325" y1="324" x2="325" y2="412" stroke="black" />
<line x1="321" y1="408" x2="329" y2="416" stroke="red" />
<line x1="321" y1="416" x2="329" y2="408" stroke="red" />
<text x="325" y="424" font-family="Verdana" font-size="8" text-anchor="middle"  dominant-baseline="middle" fill="black" > 397</text>
<circle cx="375" cy="320" r="4" fill="white" stroke="black" />
<line x1="375" y1="324" x2="375" y2="429" stroke="black" />
<line x1="362" y1="429" x2="388" y2="429" stroke="black" />
<text x="381" y="421" font-family="Verdana" font-size="8" text-anchor="middle"  dominant-baseline="middle" fill="black" > 414</text>
<circle cx="362" cy="429" r="4" fill="white" stroke="black" />
<line x1="362" y1="433" x2="362" y2="534" stroke="black" />
<line x1="356" y1="534" x2="369" y2="534" stroke="black" />
<text x="365" y="526" font-family="Verdana" font-size="8" text-anchor="middle"  dominant-baseline="middle" fill="black" > 519</text>
<circle cx="356" cy="534" r="4" fill="white" stroke="black" />
<line x1="356" y1="538" x2="356" y2="591" stroke="black" />
<circle cx="356" cy="591" r="4" fill="white" stroke="black" />
<text x="356" y="603" font-family="Verdana" font-size="8" text-anchor="middle"  dominant-baseline="middle" fill="black" > 576</text>
<circle cx="368" cy="534" r="4" fill="white" stroke="black" />
<line x1="368" y1="538" x2="368" y2="591" stroke="black" />
<circle cx="368" cy="591" r="4" fill="white" stroke="black" />
<text x="368" y="603" font-family="Verdana" font-size="8" text-anchor="middle"  dominant-baseline="middle" fill="black" > 576</text>
<circle cx="387" cy="429" r="4" fill="white" stroke="black" />
<line x1="387" y1="433" x2="387" y2="540" stroke="black" />
<line x1="381" y1="540" x2="394" y2="540" stroke="black" />
<text x="390" y="532" font-family="Verdana" font-size="8" text-anchor="middle"  dominant-baseline="middle" fill="black" > 525</text>
<circle cx="381" cy="540" r="4" fill="white" stroke="black" />
<line x1="381" y1="544" x2="381" y2="591" stroke="black" />
<circle cx="381" cy="591" r="4" fill="white" stroke="black" />
<text x="381" y="603" font-family="Verdana" font-size="8" text-anchor="middle"  dominant-baseline="middle" fill="black" > 576</text>
<circle cx="393" cy="540" r="4" fill="white" stroke="black" />
<line x1="393" y1="544" x2="393" y2="591" stroke="black" />
<circle cx="393" cy="591" r="4" fill="white" stroke="black" />
<text x="393" y="603" font-family="Verdana" font-size="8" text-anchor="middle"  dominant-baseline="middle" fill="black" > 576</text>
<text x="500" y="7" font-family="Verdana" font-size="7" text-anchor="middle"  dominant-baseline="middle" fill="black" > C3</text>
<circle cx="500" cy="15" r="4" fill="white" stroke="black" />
<line x1="500" y1="19" x2="500" y2="80" stroke="black" />
<line x1="450" y1="80" x2="550" y2="80" stroke="black" />
<text x="525" y="72" font-family="Verdana" font-size="8" text-anchor="middle"  dominant-baseline="middle" fill="black" > 65</text>
<circle cx="450" cy="80" r="4" fill="white" stroke="black" />
<line x1="450" y1="84" x2="450" y2="218" stroke="black" />
<line x1="425" y1="218" x2="475" y2="218" stroke="black" />
<text x="462" y="210" font-family="Verdana" font-size="8" text-anchor="middle"  dominant-baseline="middle" fill="black" > 203</text>
<circle cx="425" cy="218" r="4" fill="white" stroke="black" />
<line x1="425" y1="222" x2="425" y2="399" stroke="black" />
<line x1="412" y1="399" x2="438" y2="399" stroke="black" />
<text x="431" y="391" font-family="Verdana" font-size="8" text-anchor="middle"  dominant-baseline="middle" fill="black" > 384</text>
<circle cx="412" cy="399" r="4" fill="white" stroke="black" />
<line x1="412" y1="403" x2="412" y2="591" stroke="black" />
<circle cx="412" cy="591" r="4" fill="white" stroke="black" />
<text x="412" y="603" font-family="Verdana" font-size="8" text-anchor="middle"  dominant-baseline="middle" fill="black" > 576</text>
<circle cx="437" cy="399" r="4" fill="white" stroke="black" />
<line x1="437" y1="403" x2="437" y2="515" stroke="black" />
<line x1="433" y1="511" x2="441" y2="519" stroke="red" />
<line x1="433" y1="519" x2="441" y2="511" stroke="red" />
<text x="437" y="527" font-family="Verdana" font-size="8" text-anchor="middle"  dominant-baseline="middle" fill="black" > 500</text>
<circle cx="475" cy="218" r="4" fill="white" stroke="black" />
<line x1="475" y1="222" x2="475" y2="375" stroke="black" />
<line x1="462" y1="375" x2="488" y2="375" stroke="black" />
<text x="481" y="367" font-family="Verdana" font-size="8" text-anchor="middle"  dominant-baseline="middle" fill="black" > 360</text>
<circle cx="462" cy="375" r="4" fill="white" stroke="black" />
<line x1="462" y1="379" x2="462" y2="591" stroke="black" />
<circle cx="462" cy="591" r="4" fill="white" stroke="black" />
<text x="462" y="603" font-family="Verdana" font-size="8" text-anchor="middle"  dominant-baseline="middle" fill="black" > 576</text>
<circle cx="487" cy="375" r="4" fill="white" stroke="black" />
<line x1="487" y1="379" x2="487" y2="557" stroke="black" />
<line x1="481" y1="557" x2="494" y2="557" stroke="black" />
<text x="490" y="549" font-family="Verdana" font-size="8" text-anchor="middle"  dominant-baseline="middle" fill="black" > 542</text>
<circle cx="481" cy="557" r="4" fill="white" stroke="black" />
<line x1="481" y1="561" x2="481" y2="591" stroke="black" />
<circle cx="481" cy="591" r="4" fill="white" stroke="black" />
<text x="481" y="603" font-family="Verdana" font-size="8" text-anchor="middle"  dominant-baseline="middle" fill="black" > 576</text>
<circle cx="493" cy="557" r="4" fill="white" stroke="black" />
<line x1="493" y1="561" x2="493" y2="591" stroke="black" />
<circle cx="493" cy="591" r="4" fill="white" stroke="black" />
<text x="493" y="603" font-family="Verdana" font-size="8" text-anchor="middle"  dominant-baseline="middle" fill="black" > 576</text>
<circle cx="550" cy="80" r="4" fill="white" stroke="black" />
<line x1="550" y1="84" x2="550" y2="240" stroke="black" />
<line x1="525" y1="240" x2="575" y2="240" stroke="black" />
<text x="562" y="232" font-family="Verdana" font-size="8" text-anchor="middle"  dominant-baseline="middle" fill="black" > 225</text>
<circle cx="525" cy="240" r="4" fill="white" stroke="black" />
<line x1="525" y1="244" x2="525" y2="244" stroke="black" />
<line x1="521" y1="240" x2="529" y2="248" stroke="red" />
<line x1="521" y1="248" x2="529" y2="240" stroke="red" />
<text x="525" y="256" font-family="Verdana" font-size="8" text-anchor="middle"  dominant-baseline="middle" fill="black" > 229</text>
<circle cx="575" cy="240" r="4" fill="white" stroke="black" />
<line x1="575" y1="244" x2="575" y2="244" stroke="black" />
<line x1="571" y1="240" x2="579" y2="248" stroke="red" />
<line x1="571" y1="248" x2="579" y2="240" stroke="red" />
<text x="575" y="256" font-family="Verdana" font-size="8" text-anchor="middle"  dominant-baseline="middle" fill="black" > 229</text>
<text x="700" y="7" font-family="Verdana" font-size="7" text-anchor="middle"  dominant-baseline="middle" fill="black" > C4</text>
<circle cx="700" cy="15" r="4" fill="white" stroke="black" />
<line x1="700" y1="19" x2="700" y2="68" stroke="black" />
<line x1="650" y1="68" x2="750" y2="68" stroke="black" />
<text x="725" y="60" font-family="Verdana" font-size="8" text-anchor="middle"  dominant-baseline="middle" fill="black" > 53</text>
<circle cx="650" cy="68" r="4" fill="white" stroke="black" />
<line x1="650" y1="72" x2="650" y2="232" stroke="black" />
<line x1="625" y1="232" x2="675" y2="232" stroke="black" />
<text x="662" y="224" font-family="Verdana" font-size="8" text-anchor="middle"  dominant-baseline="middle" fill="black" > 217</text>
<circle cx="625" cy="232" r="4" fill="white" stroke="black" />
<line x1="625" y1="236" x2="625" y2="375" stroke="black" />
<line x1="612" y1="375" x2="638" y2="375" stroke="black" />
<text x="631" y="367" font-family="Verdana" font-size="8" text-anchor="middle"  dominant-baseline="middle" fill="black" > 360</text>
<circle cx="612" cy="375" r="4" fill="white" stroke="black" />
<line x1="612" y1="379" x2="612" y2="502" stroke="black" />
<line x1="606" y1="502" x2="619" y2="502" stroke="black" />
<text x="615" y="494" font-family="Verdana" font-size="8" text-anchor="middle"  dominant-baseline="middle" fill="black" > 487</text>
<circle cx="606" cy="502" r="4" fill="white" stroke="black" />
<line x1="606" y1="506" x2="606" y2="591" stroke="black" />
<circle cx="606" cy="591" r="4" fill="white" stroke="black" />
<text x="606" y="603" font-family="Verdana" font-size="8" text-anchor="middle"  dominant-baseline="middle" fill="black" > 576</text>
<circle cx="618" cy="502" r="4" fill="white" stroke="black" />
<line x1="618" y1="506" x2="618" y2="591" stroke="black" />
<circle cx="618" cy="591" r="4" fill="white" stroke="black" />
<text x="618" y="603" font-family="Verdana" font-size="8" text-anchor="middle"  dominant-baseline="middle" fill="black" > 576</text>
<circle cx="637" cy="375" r="4" fill="white" stroke="black" />
<line x1="637" y1="379" x2="637" y2="502" stroke="black" />
<line x1="631" y1="502" x2="644" y2="502" stroke="black" />
<text x="640" y="494" font-family="Verdana" font-size="8" text-anchor="middle"  dominant-baseline="middle" fill="black" > 487</text>
<circle cx="631" cy="502" r="4" fill="white" stroke="black" />
<line x1="631" y1="506" x2="631" y2="591" stroke="black" />
<circle cx="631" cy="591" r="4" fill="white" stroke="black" />
<text x="631" y="603" font-family="Verdana" font-size="8" text-anchor="middle"  dominant-baseline="middle" fill="black" > 576</text>
<circle cx="643" cy="502" r="4" fill="white" stroke="black" />
<line x1="643" y1="506" x2="643" y2="591" stroke="black" />
<circle cx="643" cy="591" r="4" fill="white" stroke="black" />
<text x="643" y="603" font-family="Verdana" font-size="8" text-anchor="middle"  dominant-baseline="middle" fill="black" > 576</text>
<circle cx="675" cy="232" r="4" fill="white" stroke="black" />
<line x1="675" y1="236" x2="675" y2="370" stroke="black" />
<line x1="662" y1="370" x2="688" y2="370" stroke="black" />
<text x="681" y="362" font-family="Verdana" font-size="8" text-anchor="middle"  dominant-baseline="middle" fill="black" > 355</text>
<circle cx="662" cy="370" r="4" fill="white" stroke="black" />
<line x1="662" y1="374" x2="662" y2="500" stroke="black" />
<line x1="656" y1="500" x2="669" y2="500" stroke="black" />
<text x="665" y="492" font-family="Verdana" font-size="8" text-anchor="middle"  dominant-baseline="middle" fill="black" > 485</text>
<circle cx="656" cy="500" r="4" fill="white" stroke="black" />
<line x1="656" y1="504" x2="656" y2="591" stroke="black" />
<circle cx="656" cy="591" r="4" fill="white" stroke="black" />
<text x="656" y="603" font-family="Verdana" font-size="8" text-anchor="middle"  dominant-baseline="middle" fill="black" > 576</text>
<circle cx="668" cy="500" r="4" fill="white" stroke="black" />
<line x1="668" y1="504" x2="668" y2="591" stroke="black" />
<circle cx="668" cy="591" r="4" fill="white" stroke="black" />
<text x="668" y="603" font-family="Verdana" font-size="8" text-anchor="middle"  dominant-baseline="middle" fill="black" > 576</text>
<circle cx="687" cy="370" r="4" fill="white" stroke="black" />
<line x1="687" y1="374" x2="687" y2="500" stroke="black" />
<line x1="681" y1="500" x2="694" y2="500" stroke="black" />
<text x="690" y="492" font-family="Verdana" font-size="8" text-anchor="middle"  dominant-baseline="middle" fill="black" > 485</text>
<circle cx="681" cy="500" r="4" fill="white" stroke="black" />
<line x1="681" y1="504" x2="681" y2="591" stroke="black" />
<circle cx="681" cy="591" r="4" fill="white" stroke="black" />
<text x="681" y="603" font-family="Verdana" font-size="8" text-anchor="middle"  dominant-baseline="middle" fill="black" > 576</text>
<circle cx="693" cy="500" r="4" fill="white" stroke="black" />
<line x1="693" y1="504" x2="693" y2="591" stroke="black" />
<circle cx="693" cy="591" r="4" fill="white" stroke="black" />
<text x="693" y="603" font-family="Verdana" font-size="8" text-anchor="middle"  dominant-baseline="middle" fill="black" > 576</text>
<circle cx="750" cy="68" r="4" fill="white" stroke="black" />
<line x1="750" y1="72" x2="750" y2="222" stroke="black" />
<line x1="725" y1="222" x2="775" y2="222" stroke="black" />
<text x="762" y="214" font-family="Verdana" font-size="8" text-anchor="middle"  dominant-baseline="middle" fill="black" > 207</text>
<circle cx="725" cy="222" r="4" fill="white" stroke="black" />
<line x1="725" y1="226" x2="725" y2="370" stroke="black" />
<line x1="712" y1="370" x2="738" y2="370" stroke="black" />
<text x="731" y="362" font-family="Verdana" font-size="8" text-anchor="middle"  dominant-baseline="middle" fill="black" > 355</text>
<circle cx="712" cy="370" r="4" fill="white" stroke="black" />
<line x1="712" y1="374" x2="712" y2="591" stroke="black" />
<circle cx="712" cy="591" r="4" fill="white" stroke="black" />
<text x="712" y="603" font-family="Verdana" font-size="8" text-anchor="middle"  dominant-baseline="middle" fill="black" > 576</text>
<circle cx="737" cy="370" r="4" fill="white" stroke="black" />
<line x1="737" y1="374" x2="737" y2="520" stroke="black" />
<line x1="731" y1="520" x2="744" y2="520" stroke="black" />
<text x="740" y="512" font-family="Verdana" font-size="8" text-anchor="middle"  dominant-baseline="middle" fill="black" > 505</text>
<circle cx="731" cy="520" r="4" fill="white" stroke="black" />
<line x1="731" y1="524" x2="731" y2="591" stroke="black" />
<circle cx="731" cy="591" r="4" fill="white" stroke="black" />
<text x="731" y="603" font-family="Verdana" font-size="8" text-anchor="middle"  dominant-baseline="middle" fill="black" > 576</text>
<circle cx="743" cy="520" r="4" fill="white" stroke="black" />
<line x1="743" y1="524" x2="743" y2="591" stroke="black" />
<circle cx="743" cy="591" r="4" fill="white" stroke="black" />
<text x="743" y="603" font-family="Verdana" font-size="8" text-anchor="middle"  dominant-baseline="middle" fill="black" > 576</text>
<circle cx="775" cy="222" r="4" fill="white" stroke="black" />
<line x1="775" y1="226" x2="775" y2="368" stroke="black" />
<line x1="762" y1="368" x2="788" y2="368" stroke="black" />
<text x="781" y="360" font-family="Verdana" font-size="8" text-anchor="middle"  dominant-baseline="middle" fill="black" > 353</text>
<circle cx="762" cy="368" r="4" fill="white" stroke="black" />
<line x1="762" y1="372" x2="762" y2="458" stroke="black" />
<line x1="758" y1="454" x2="766" y2="462" stroke="red" />
<line x1="758" y1="462" x2="766" y2="454" stroke="red" />
<text x="762" y="470" font-family="Verdana" font-size="8" text-anchor="middle"  dominant-baseline="middle" fill="black" > 443</text>
<circle cx="787" cy="368" r="4" fill="white" stroke="black" />
<line x1="787" y1="372" x2="787" y2="458" stroke="black" />
<line x1="783" y1="454" x2="791" y2="462" stroke="red" />
<line x1="783" y1="462" x2="791" y2="454" stroke="red" />
<text x="787" y="470" font-family="Verdana" font-size="8" text-anchor="middle"  dominant-baseline="middle" fill="black" > 443</text>
</svg>
