<?xml version="1.0" encoding="utf-8"?>
<svg xmlns="http://www.w3.org/2000/svg" version="1.1" width="1250" height="750">
<rect width="1250" height="15" x="0" y="0" fill="white" />
<rect width="1250" height="15" x="0" y="735" fill="white" />
<rect width="25" height="750" x="0" y="0" fill="white" />
<rect width="25" height="750" x="1225" y="0" fill="white" />
<rect width="1210" height="144" x="25" y="15" fill="ghostwhite" />
<rect width="1210" height="144" x="25" y="159" fill="snow" />
<rect width="1210" height="144" x="25" y="303" fill="ghostwhite" />
<rect width="1210" height="144" x="25" y="447" fill="snow" />
<rect width="1210" height="144" x="25" y="591" fill="ghostwhite" />
<text x="12" y="87" font-family="Verdana" font-size="10" text-anchor="middle"  dominant-baseline="middle" fill="red" > D0</text>
<text x="12" y="231" font-family="Verdana" font-size="10" text-anchor="middle"  dominant-baseline="middle" fill="red" > D1</text>
<text x="12" y="375" font-family="Verdana" font-size="10" text-anchor="middle"  dominant-baseline="middle" fill="red" > D2</text>
<text x="12" y="519" font-family="Verdana" font-size="10" text-anchor="middle"  dominant-baseline="middle" fill="red" > D3</text>
<text x="12" y="663" font-family="Verdana" font-size="10" text-anchor="middle"  dominant-baseline="middle" fill="red" > D4</text>
<text x="12" y="20" font-family="Verdana" font-size="10" text-anchor="middle"  dominant-baseline="middle" fill="black" > 0</text>
<text x="12" y="164" font-family="Verdana" font-size="10" text-anchor="middle"  dominant-baseline="middle" fill="black" > 144</text>
<text x="12" y="308" font-family="Verdana" font-size="10" text-anchor="middle"  dominant-baseline="middle" fill="black" > 288</text>
<text x="12" y="452" font-family="Verdana" font-size="10" text-anchor="middle"  dominant-baseline="middle" fill="black" > 432</text>
<text x="12" y="596" font-family="Verdana" font-size="10" text-anchor="middle"  dominant-baseline="middle" fill="black" > 576</text>
<text x="12" y="740" font-family="Verdana" font-size="10" text-anchor="middle"  dominant-baseline="middle" fill="black" > 720</text>
<text x="100" y="7" font-family="Verdana" font-size="7" text-anchor="middle"  dominant-baseline="middle" fill="black" > C1</text>
<circle cx="100" cy="15" r="4" fill="white" stroke="black" />
<line x1="100" y1="19" x2="100" y2="94" stroke="black" />
<line x1="50" y1="94" x2="150" y2="94" stroke="black" />
<text x="125" y="86" font-family="Verdana" font-size="8" text-anchor="middle"  dominant-baseline="middle" fill="black" > 79</text>
<circle cx="50" cy="94" r="4" fill="white" stroke="black" />
<line x1="50" y1="98" x2="50" y2="246" stroke="black" />
<line x1="25" y1="246" x2="75" y2="246" stroke="black" />
<text x="62" y="238" font-family="Verdana" font-size="8" text-anchor="middle"  dominant-baseline="middle" fill="black" > 231</text>
<circle cx="25" cy="246" r="4" fill="white" stroke="black" />
<line x1="25" y1="250" x2="25" y2="400" stroke="black" />
<line x1="12" y1="400" x2="38" y2="400" stroke="black" />
<text x="31" y="392" font-family="Verdana" font-size="8" text-anchor="middle"  dominant-baseline="middle" fill="black" > 385</text>
<circle cx="12" cy="400" r="4" fill="white" stroke="black" />
<line x1="12" y1="404" x2="12" y2="524" stroke="black" />
<line x1="6" y1="524" x2="19" y2="524" stroke="black" />
<text x="15" y="516" font-family="Verdana" font-size="8" text-anchor="middle"  dominant-baseline="middle" fill="black" > 509</text>
<circle cx="6" cy="524" r="4" fill="white" stroke="black" />
<line x1="6" y1="528" x2="6" y2="591" stroke="black" />
<circle cx="6" cy="591" r="4" fill="white" stroke="black" />
<text x="6" y="603" font-family="Verdana" font-size="8" text-anchor="middle"  dominant-baseline="middle" fill="black" > 576</text>
<circle cx="18" cy="524" r="4" fill="white" stroke="black" />
<line x1="18" y1="528" x2="18" y2="591" stroke="black" />
<circle cx="18" cy="591" r="4" fill="white" stroke="black" />
<text x="18" y="603" font-family="Verdana" font-size="8" text-anchor="middle"  dominant-baseline="middle" fill="black" > 576</text>
<circle cx="37" cy="400" r="4" fill="white" stroke="black" />
<line x1="37" y1="404" x2="37" y2="530" stroke="black" />
<line x1="31" y1="530" x2="44" y2="530" stroke="black" />
<text x="40" y="522" font-family="Verdana" font-size="8" text-anchor="middle"  dominant-baseline="middle" fill="black" > 515</text>
<circle cx="31" cy="530" r="4" fill="white" stroke="black" />
<line x1="31" y1="534" x2="31" y2="591" stroke="black" />
<circle cx="31" cy="591" r="4" fill="white" stroke="black" />
<text x="31" y="603" font-family="Verdana" font-size="8" text-anchor="middle"  dominant-baseline="middle" fill="black" > 576</text>
<circle cx="43" cy="530" r="4" fill="white" stroke="black" />
<line x1="43" y1="534" x2="43" y2="591" stroke="black" />
<circle cx="43" cy="591" r="4" fill="white" stroke="black" />
<text x="43" y="603" font-family="Verdana" font-size="8" text-anchor="middle"  dominant-baseline="middle" fill="black" > 576</text>
<circle cx="75" cy="246" r="4" fill="white" stroke="black" />
<line x1="75" y1="250" x2="75" y2="377" stroke="black" />
<line x1="62" y1="377" x2="88" y2="377" stroke="black" />
<text x="81" y="369" font-family="Verdana" font-size="8" text-anchor="middle"  dominant-baseline="middle" fill="black" > 362</text>
<circle cx="62" cy="377" r="4" fill="white" stroke="black" />
<line x1="62" y1="381" x2="62" y2="518" stroke="black" />
<line x1="56" y1="518" x2="69" y2="518" stroke="black" />
<text x="65" y="510" font-family="Verdana" font-size="8" text-anchor="middle"  dominant-baseline="middle" fill="black" > 503</text>
<circle cx="56" cy="518" r="4" fill="white" stroke="black" />
<line x1="56" y1="522" x2="56" y2="591" stroke="black" />
<circle cx="56" cy="591" r="4" fill="white" stroke="black" />
<text x="56" y="603" font-family="Verdana" font-size="8" text-anchor="middle"  dominant-baseline="middle" fill="black" > 576</text>
<circle cx="68" cy="518" r="4" fill="white" stroke="black" />
<line x1="68" y1="522" x2="68" y2="591" stroke="black" />
<circle cx="68" cy="591" r="4" fill="white" stroke="black" />
<text x="68" y="603" font-family="Verdana" font-size="8" text-anchor="middle"  dominant-baseline="middle" fill="black" > 576</text>
<circle cx="87" cy="377" r="4" fill="white" stroke="black" />
<line x1="87" y1="381" x2="87" y2="537" stroke="black" />
<line x1="81" y1="537" x2="94" y2="537" stroke="black" />
<text x="90" y="529" font-family="Verdana" font-size="8" text-anchor="middle"  dominant-baseline="middle" fill="black" > 522</text>
<circle cx="81" cy="537" r="4" fill="white" stroke="black" />
<line x1="81" y1="541" x2="81" y2="591" stroke="black" />
<circle cx="81" cy="591" r="4" fill="white" stroke="black" />
<text x="81" y="603" font-family="Verdana" font-size="8" text-anchor="middle"  dominant-baseline="middle" fill="black" > 576</text>
<circle cx="93" cy="537" r="4" fill="white" stroke="black" />
<line x1="93" y1="541" x2="93" y2="591" stroke="black" />
<circle cx="93" cy="591" r="4" fill="white" stroke="black" />
<text x="93" y="603" font-family="Verdana" font-size="8" text-anchor="middle"  dominant-baseline="middle" fill="black" > 576</text>
<circle cx="150" cy="94" r="4" fill="white" stroke="black" />
<line x1="150" y1="98" x2="150" y2="233" stroke="black" />
<line x1="125" y1="233" x2="175" y2="233" stroke="black" />
<text x="162" y="225" font-family="Verdana" font-size="8" text-anchor="middle"  dominant-baseline="middle" fill="black" > 218</text>
<circle cx="125" cy="233" r="4" fill="white" stroke="black" />
<line x1="125" y1="237" x2="125" y2="365" stroke="black" />
<line x1="112" y1="365" x2="138" y2="365" stroke="black" />
<text x="131" y="357" font-family="Verdana" font-size="8" text-anchor="middle"  dominant-baseline="middle" fill="black" > 350</text>
<circle cx="112" cy="365" r="4" fill="white" stroke="black" />
<line x1="112" y1="369" x2="112" y2="486" stroke="black" />
<line x1="106" y1="486" x2="119" y2="486" stroke="black" />
<text x="115" y="478" font-family="Verdana" font-size="8" text-anchor="middle"  dominant-baseline="middle" fill="black" > 471</text>
<circle cx="106" cy="486" r="4" fill="white" stroke="black" />
<line x1="106" y1="490" x2="106" y2="591" stroke="black" />
<circle cx="106" cy="591" r="4" fill="white" stroke="black" />
<text x="106" y="603" font-family="Verdana" font-size="8" text-anchor="middle"  dominant-baseline="middle" fill="black" > 576</text>
<circle cx="118" cy="486" r="4" fill="white" stroke="black" />
<line x1="118" y1="490" x2="118" y2="591" stroke="black" />
<circle cx="118" cy="591" r="4" fill="white" stroke="black" />
<text x="118" y="603" font-family="Verdana" font-size="8" text-anchor="middle"  dominant-baseline="middle" fill="black" > 576</text>
<circle cx="137" cy="365" r="4" fill="white" stroke="black" />
<line x1="137" y1="369" x2="137" y2="486" stroke="black" />
<line x1="131" y1="486" x2="144" y2="486" stroke="black" />
<text x="140" y="478" font-family="Verdana" font-size="8" text-anchor="middle"  dominant-baseline="middle" fill="black" > 471</text>
<circle cx="131" cy="486" r="4" fill="white" stroke="black" />
<line x1="131" y1="490" x2="131" y2="591" stroke="black" />
<circle cx="131" cy="591" r="4" fill="white" stroke="black" />
<text x="131" y="603" font-family="Verdana" font-size="8" text-anchor="middle"  dominant-baseline="middle" fill="black" > 576</text>
<circle cx="143" cy="486" r="4" fill="white" stroke="black" />
<line x1="143" y1="490" x2="143" y2="591" stroke="black" />
<circle cx="143" cy="591" r="4" fill="white" stroke="black" />
<text x="143" y="603" font-family="Verdana" font-size="8" text-anchor="middle"  dominant-baseline="middle" fill="black" > 576</text>
<circle cx="175" cy="233" r="4" fill="white" stroke="black" />
<line x1="175" y1="237" x2="175" y2="367" stroke="black" />
<line x1="162" y1="367" x2="188" y2="367" stroke="black" />
<text x="181" y="359" font-family="Verdana" font-size="8" text-anchor="middle"  dominant-baseline="middle" fill="black" > 352</text>
<circle cx="162" cy="367" r="4" fill="white" stroke="black" />
<line x1="162" y1="371" x2="162" y2="551" stroke="black" />
<line x1="156" y1="551" x2="169" y2="551" stroke="black" />
<text x="165" y="543" font-family="Verdana" font-size="8" text-anchor="middle"  dominant-baseline="middle" fill="black" > 536</text>
<circle cx="156" cy="551" r="4" fill="white" stroke="black" />
<line x1="156" y1="555" x2="156" y2="591" stroke="black" />
<circle cx="156" cy="591" r="4" fill="white" stroke="black" />
<text x="156" y="603" font-family="Verdana" font-size="8" text-anchor="middle"  dominant-baseline="middle" fill="black" > 576</text>
<circle cx="168" cy="551" r="4" fill="white" stroke="black" />
<line x1="168" y1="555" x2="168" y2="591" stroke="black" />
<circle cx="168" cy="591" r="4" fill="white" stroke="black" />
<text x="168" y="603" font-family="Verdana" font-size="8" text-anchor="middle"  dominant-baseline="middle" fill="black" > 576</text>
<circle cx="187" cy="367" r="4" fill="white" stroke="black" />
<line x1="187" y1="371" x2="187" y2="492" stroke="black" />
<line x1="181" y1="492" x2="194" y2="492" stroke="black" />
<text x="190" y="484" font-family="Verdana" font-size="8" text-anchor="middle"  dominant-baseline="middle" fill="black" > 477</text>
<circle cx="181" cy="492" r="4" fill="white" stroke="black" />
<line x1="181" y1="496" x2="181" y2="591" stroke="black" />
<circle cx="181" cy="591" r="4" fill="white" stroke="black" />
<text x="181" y="603" font-family="Verdana" font-size="8" text-anchor="middle"  dominant-baseline="middle" fill="black" > 576</text>
<circle cx="193" cy="492" r="4" fill="white" stroke="black" />
<line x1="193" y1="496" x2="193" y2="591" stroke="black" />
<circle cx="193" cy="591" r="4" fill="white" stroke="black" />
<text x="193" y="603" font-family="Verdana" font-size="8" text-anchor="middle"  dominant-baseline="middle" fill="black" > 576</text>
<text x="300" y="7" font-family="Verdana" font-size="7" text-anchor="middle"  dominant-baseline="middle" fill="black" > C2</text>
<circle cx="300" cy="15" r="4" fill="white" stroke="black" />
<line x1="300" y1="19" x2="300" y2="129" stroke="black" />
<line x1="250" y1="129" x2="350" y2="129" stroke="black" />
<text x="325" y="121" font-family="Verdana" font-size="8" text-anchor="middle"  dominant-baseline="middle" fill="black" > 114</text>
<circle cx="250" cy="129" r="4" fill="white" stroke="black" />
<line x1="250" y1="133" x2="250" y2="284" stroke="black" />
<line x1="225" y1="284" x2="275" y2="284" stroke="black" />
<text x="262" y="276" font-family="Verdana" font-size="8" text-anchor="middle"  dominant-baseline="middle" fill="black" > 269</text>
<circle cx="225" cy="284" r="4" fill="white" stroke="black" />
<line x1="225" y1="288" x2="225" y2="365" stroke="black" />
<line x1="212" y1="365" x2="238" y2="365" stroke="black" />
<text x="231" y="357" font-family="Verdana" font-size="8" text-anchor="middle"  dominant-baseline="middle" fill="black" > 350</text>
<circle cx="212" cy="365" r="4" fill="white" stroke="black" />
<line x1="212" y1="369" x2="212" y2="470" stroke="black" />
<line x1="206" y1="470" x2="219" y2="470" stroke="black" />
<text x="215" y="462" font-family="Verdana" font-size="8" text-anchor="middle"  dominant-baseline="middle" fill="black" > 455</text>
<circle cx="206" cy="470" r="4" fill="white" stroke="black" />
<line x1="206" y1="474" x2="206" y2="591" stroke="black" />
<circle cx="206" cy="591" r="4" fill="white" stroke="black" />
<text x="206" y="603" font-family="Verdana" font-size="8" text-anchor="middle"  dominant-baseline="middle" fill="black" > 576</text>
<circle cx="218" cy="470" r="4" fill="white" stroke="black" />
<line x1="218" y1="474" x2="218" y2="591" stroke="black" />
<circle cx="218" cy="591" r="4" fill="white" stroke="black" />
<text x="218" y="603" font-family="Verdana" font-size="8" text-anchor="middle"  dominant-baseline="middle" fill="black" > 576</text>
<circle cx="237" cy="365" r="4" fill="white" stroke="black" />
<line x1="237" y1="369" x2="237" y2="480" stroke="black" />
<line x1="231" y1="480" x2="244" y2="480" stroke="black" />
<text x="240" y="472" font-family="Verdana" font-size="8" text-anchor="middle"  dominant-baseline="middle" fill="black" > 465</text>
<circle cx="231" cy="480" r="4" fill="white" stroke="black" />
<line x1="231" y1="484" x2="231" y2="591" stroke="black" />
<circle cx="231" cy="591" r="4" fill="white" stroke="black" />
<text x="231" y="603" font-family="Verdana" font-size="8" text-anchor="middle"  dominant-baseline="middle" fill="black" > 576</text>
<circle cx="243" cy="480" r="4" fill="white" stroke="black" />
<line x1="243" y1="484" x2="243" y2="591" stroke="black" />
<circle cx="243" cy="591" r="4" fill="white" stroke="black" />
<text x="243" y="603" font-family="Verdana" font-size="8" text-anchor="middle"  dominant-baseline="middle" fill="black" > 576</text>
<circle cx="275" cy="284" r="4" fill="white" stroke="black" />
<line x1="275" y1="288" x2="275" y2="428" stroke="black" />
<line x1="262" y1="428" x2="288" y2="428" stroke="black" />
<text x="281" y="420" font-family="Verdana" font-size="8" text-anchor="middle"  dominant-baseline="middle" fill="black" > 413</text>
<circle cx="262" cy="428" r="4" fill="white" stroke="black" />
<line x1="262" y1="432" x2="262" y2="591" stroke="black" />
<circle cx="262" cy="591" r="4" fill="white" stroke="black" />
<text x="262" y="603" font-family="Verdana" font-size="8" text-anchor="middle"  dominant-baseline="middle" fill="black" > 576</text>
<circle cx="287" cy="428" r="4" fill="white" stroke="black" />
<line x1="287" y1="432" x2="287" y2="591" stroke="black" />
<circle cx="287" cy="591" r="4" fill="white" stroke="black" />
<text x="287" y="603" font-family="Verdana" font-size="8" text-anchor="middle"  dominant-baseline="middle" fill="black" > 576</text>
<circle cx="350" cy="129" r="4" fill="white" stroke="black" />
<line x1="350" y1="133" x2="350" y2="264" stroke="black" />
<line x1="325" y1="264" x2="375" y2="264" stroke="black" />
<text x="362" y="256" font-family="Verdana" font-size="8" text-anchor="middle"  dominant-baseline="middle" fill="black" > 249</text>
<circle cx="325" cy="264" r="4" fill="white" stroke="black" />
<line x1="325" y1="268" x2="325" y2="409" stroke="black" />
<line x1="312" y1="409" x2="338" y2="409" stroke="black" />
<text x="331" y="401" font-family="Verdana" font-size="8" text-anchor="middle"  dominant-baseline="middle" fill="black" > 394</text>
<circle cx="312" cy="409" r="4" fill="white" stroke="black" />
<line x1="312" y1="413" x2="312" y2="591" stroke="black" />
<circle cx="312" cy="591" r="4" fill="white" stroke="black" />
<text x="312" y="603" font-family="Verdana" font-size="8" text-anchor="middle"  dominant-baseline="middle" fill="black" > 576</text>
<circle cx="337" cy="409" r="4" fill="white" stroke="black" />
<line x1="337" y1="413" x2="337" y2="591" stroke="black" />
<circle cx="337" cy="591" r="4" fill="white" stroke="black" />
<text x="337" y="603" font-family="Verdana" font-size="8" text-anchor="middle"  dominant-baseline="middle" fill="black" > 576</text>
<circle cx="375" cy="264" r="4" fill="white" stroke="black" />
<line x1="375" y1="268" x2="375" y2="405" stroke="black" />
<line x1="362" y1="405" x2="388" y2="405" stroke="black" />
<text x="381" y="397" font-family="Verdana" font-size="8" text-anchor="middle"  dominant-baseline="middle" fill="black" > 390</text>
<circle cx="362" cy="405" r="4" fill="white" stroke="black" />
<line x1="362" y1="409" x2="362" y2="511" stroke="black" />
<line x1="356" y1="511" x2="369" y2="511" stroke="black" />
<text x="365" y="503" font-family="Verdana" font-size="8" text-anchor="middle"  dominant-baseline="middle" fill="black" > 496</text>
<circle cx="356" cy="511" r="4" fill="white" stroke="black" />
<line x1="356" y1="515" x2="356" y2="591" stroke="black" />
<circle cx="356" cy="591" r="4" fill="white" stroke="black" />
<text x="356" y="603" font-family="Verdana" font-size="8" text-anchor="middle"  dominant-baseline="middle" fill="black" > 576</text>
<circle cx="368" cy="511" r="4" fill="white" stroke="black" />
<line x1="368" y1="515" x2="368" y2="591" stroke="black" />
<circle cx="368" cy="591" r="4" fill="white" stroke="black" />
<text x="368" y="603" font-family="Verdana" font-size="8" text-anchor="middle"  dominant-baseline="middle" fill="black" > 576</text>
<circle cx="387" cy="405" r="4" fill="white" stroke="black" />
<line x1="387" y1="409" x2="387" y2="529" stroke="black" />
<line x1="381" y1="529" x2="394" y2="529" stroke="black" />
<text x="390" y="521" font-family="Verdana" font-size="8" text-anchor="middle"  dominant-baseline="middle" fill="black" > 514</text>
<circle cx="381" cy="529" r="4" fill="white" stroke="black" />
<line x1="381" y1="533" x2="381" y2="591" stroke="black" />
<circle cx="381" cy="591" r="4" fill="white" stroke="black" />
<text x="381" y="603" font-family="Verdana" font-size="8" text-anchor="middle"  dominant-baseline="middle" fill="black" > 576</text>
<circle cx="393" cy="529" r="4" fill="white" stroke="black" />
<line x1="393" y1="533" x2="393" y2="591" stroke="black" />
<circle cx="393" cy="591" r="4" fill="white" stroke="black" />
<text x="393" y="603" font-family="Verdana" font-size="8" text-anchor="middle"  dominant-baseline="middle" fill="black" > 576</text>
<text x="500" y="7" font-family="Verdana" font-size="7" text-anchor="middle"  dominant-baseline="middle" fill="black" > C3</text>
<circle cx="500" cy="15" r="4" fill="white" stroke="black" />
<line x1="500" y1="19" x2="500" y2="17" stroke="black" />
<line x1="450" y1="17" x2="550" y2="17" stroke="black" />
<text x="525" y="9" font-family="Verdana" font-size="8" text-anchor="middle"  dominant-baseline="middle" fill="black" > 2</text>
<circle cx="450" cy="17" r="4" fill="white" stroke="black" />
<line x1="450" y1="21" x2="450" y2="312" stroke="black" />
<line x1="425" y1="312" x2="475" y2="312" stroke="black" />
<text x="462" y="304" font-family="Verdana" font-size="8" text-anchor="middle"  dominant-baseline="middle" fill="black" > 297</text>
<circle cx="425" cy="312" r="4" fill="white" stroke="black" />
<line x1="425" y1="316" x2="425" y2="431" stroke="black" />
<line x1="412" y1="431" x2="438" y2="431" stroke="black" />
<text x="431" y="423" font-family="Verdana" font-size="8" text-anchor="middle"  dominant-baseline="middle" fill="black" > 416</text>
<circle cx="412" cy="431" r="4" fill="white" stroke="black" />
<line x1="412" y1="435" x2="412" y2="591" stroke="black" />
<circle cx="412" cy="591" r="4" fill="white" stroke="black" />
<text x="412" y="603" font-family="Verdana" font-size="8" text-anchor="middle"  dominant-baseline="middle" fill="black" > 576</text>
<circle cx="437" cy="431" r="4" fill="white" stroke="black" />
<line x1="437" y1="435" x2="437" y2="582" stroke="black" />
<line x1="431" y1="582" x2="444" y2="582" stroke="black" />
<text x="440" y="574" font-family="Verdana" font-size="8" text-anchor="middle"  dominant-baseline="middle" fill="black" > 567</text>
<circle cx="431" cy="582" r="4" fill="white" stroke="black" />
<line x1="431" y1="586" x2="431" y2="591" stroke="black" />
<circle cx="431" cy="591" r="4" fill="white" stroke="black" />
<text x="431" y="603" font-family="Verdana" font-size="8" text-anchor="middle"  dominant-baseline="middle" fill="black" > 576</text>
<circle cx="443" cy="582" r="4" fill="white" stroke="black" />
<line x1="443" y1="586" x2="443" y2="591" stroke="black" />
<circle cx="443" cy="591" r="4" fill="white" stroke="black" />
<text x="443" y="603" font-family="Verdana" font-size="8" text-anchor="middle"  dominant-baseline="middle" fill="black" > 576</text>
<circle cx="475" cy="312" r="4" fill="white" stroke="black" />
<line x1="475" y1="316" x2="475" y2="448" stroke="black" />
<line x1="462" y1="448" x2="488" y2="448" stroke="black" />
<text x="481" y="440" font-family="Verdana" font-size="8" text-anchor="middle"  dominant-baseline="middle" fill="black" > 433</text>
<circle cx="462" cy="448" r="4" fill="white" stroke="black" />
<line x1="462" y1="452" x2="462" y2="524" stroke="black" />
<line x1="458" y1="520" x2="466" y2="528" stroke="red" />
<line x1="458" y1="528" x2="466" y2="520" stroke="red" />
<text x="462" y="536" font-family="Verdana" font-size="8" text-anchor="middle"  dominant-baseline="middle" fill="black" > 509</text>
<circle cx="487" cy="448" r="4" fill="white" stroke="black" />
<line x1="487" y1="452" x2="487" y2="591" stroke="black" />
<circle cx="487" cy="591" r="4" fill="white" stroke="black" />
<text x="487" y="603" font-family="Verdana" font-size="8" text-anchor="middle"  dominant-baseline="middle" fill="black" > 576</text>
<circle cx="550" cy="17" r="4" fill="white" stroke="black" />
<line x1="550" y1="21" x2="550" y2="269" stroke="black" />
<line x1="525" y1="269" x2="575" y2="269" stroke="black" />
<text x="562" y="261" font-family="Verdana" font-size="8" text-anchor="middle"  dominant-baseline="middle" fill="black" > 254</text>
<circle cx="525" cy="269" r="4" fill="white" stroke="black" />
<line x1="525" y1="273" x2="525" y2="389" stroke="black" />
<line x1="521" y1="385" x2="529" y2="393" stroke="red" />
<line x1="521" y1="393" x2="529" y2="385" stroke="red" />
<text x="525" y="401" font-family="Verdana" font-size="8" text-anchor="middle"  dominant-baseline="middle" fill="black" > 374</text>
<circle cx="575" cy="269" r="4" fill="white" stroke="black" />
<line x1="575" y1="273" x2="575" y2="378" stroke="black" />
<line x1="562" y1="378" x2="588" y2="378" stroke="black" />
<text x="581" y="370" font-family="Verdana" font-size="8" text-anchor="middle"  dominant-baseline="middle" fill="black" > 363</text>
<circle cx="562" cy="378" r="4" fill="white" stroke="black" />
<line x1="562" y1="382" x2="562" y2="566" stroke="black" />
<line x1="556" y1="566" x2="569" y2="566" stroke="black" />
<text x="565" y="558" font-family="Verdana" font-size="8" text-anchor="middle"  dominant-baseline="middle" fill="black" > 551</text>
<circle cx="556" cy="566" r="4" fill="white" stroke="black" />
<line x1="556" y1="570" x2="556" y2="591" stroke="black" />
<circle cx="556" cy="591" r="4" fill="white" stroke="black" />
<text x="556" y="603" font-family="Verdana" font-size="8" text-anchor="middle"  dominant-baseline="middle" fill="black" > 576</text>
<circle cx="568" cy="566" r="4" fill="white" stroke="black" />
<line x1="568" y1="570" x2="568" y2="591" stroke="black" />
<circle cx="568" cy="591" r="4" fill="white" stroke="black" />
<text x="568" y="603" font-family="Verdana" font-size="8" text-anchor="middle"  dominant-baseline="middle" fill="black" > 576</text>
<circle cx="587" cy="378" r="4" fill="white" stroke="black" />
<line x1="587" y1="382" x2="587" y2="499" stroke="black" />
<line x1="581" y1="499" x2="594" y2="499" stroke="black" />
<text x="590" y="491" font-family="Verdana" font-size="8" text-anchor="middle"  dominant-baseline="middle" fill="black" > 484</text>
<circle cx="581" cy="499" r="4" fill="white" stroke="black" />
<line x1="581" y1="503" x2="581" y2="591" stroke="black" />
<circle cx="581" cy="591" r="4" fill="white" stroke="black" />
<text x="581" y="603" font-family="Verdana" font-size="8" text-anchor="middle"  dominant-baseline="middle" fill="black" > 576</text>
<circle cx="593" cy="499" r="4" fill="white" stroke="black" />
<line x1="593" y1="503" x2="593" y2="591" stroke="black" />
<circle cx="593" cy="591" r="4" fill="white" stroke="black" />
<text x="593" y="603" font-family="Verdana" font-size="8" text-anchor="middle"  dominant-baseline="middle" fill="black" > 576</text>
<text x="700" y="7" font-family="Verdana" font-size="7" text-anchor="middle"  dominant-baseline="middle" fill="black" > C4</text>
<circle cx="700" cy="15" r="4" fill="white" stroke="black" />
<line x1="700" y1="19" x2="700" y2="213" stroke="black" />
<line x1="650" y1="213" x2="750" y2="213" stroke="black" />
<text x="725" y="205" font-family="Verdana" font-size="8" text-anchor="middle"  dominant-baseline="middle" fill="black" > 198</text>
<circle cx="650" cy="213" r="4" fill="white" stroke="black" />
<line x1="650" y1="217" x2="650" y2="591" stroke="black" />
<circle cx="650" cy="591" r="4" fill="white" stroke="black" />
<text x="650" y="603" font-family="Verdana" font-size="8" text-anchor="middle"  dominant-baseline="middle" fill="black" > 576</text>
<circle cx="750" cy="213" r="4" fill="white" stroke="black" />
<line x1="750" y1="217" x2="750" y2="380" stroke="black" />
<line x1="725" y1="380" x2="775" y2="380" stroke="black" />
<text x="762" y="372" font-family="Verdana" font-size="8" text-anchor="middle"  dominant-baseline="middle" fill="black" > 365</text>
<circle cx="725" cy="380" r="4" fill="white" stroke="black" />
<line x1="725" y1="384" x2="725" y2="502" stroke="black" />
<line x1="712" y1="502" x2="738" y2="502" stroke="black" />
<text x="731" y="494" font-family="Verdana" font-size="8" text-anchor="middle"  dominant-baseline="middle" fill="black" > 487</text>
<circle cx="712" cy="502" r="4" fill="white" stroke="black" />
<line x1="712" y1="506" x2="712" y2="591" stroke="black" />
<circle cx="712" cy="591" r="4" fill="white" stroke="black" />
<text x="712" y="603" font-family="Verdana" font-size="8" text-anchor="middle"  dominant-baseline="middle" fill="black" > 576</text>
<circle cx="737" cy="502" r="4" fill="white" stroke="black" />
<line x1="737" y1="506" x2="737" y2="591" stroke="black" />
<circle cx="737" cy="591" r="4" fill="white" stroke="black" />
<text x="737" y="603" font-family="Verdana" font-size="8" text-anchor="middle"  dominant-baseline="middle" fill="black" > 576</text>
<circle cx="775" cy="380" r="4" fill="white" stroke="black" />
<line x1="775" y1="384" x2="775" y2="508" stroke="black" />
<line x1="762" y1="508" x2="788" y2="508" stroke="black" />
<text x="781" y="500" font-family="Verdana" font-size="8" text-anchor="middle"  dominant-baseline="middle" fill="black" > 493</text>
<circle cx="762" cy="508" r="4" fill="white" stroke="black" />
<line x1="762" y1="512" x2="762" y2="591" stroke="black" />
<circle cx="762" cy="591" r="4" fill="white" stroke="black" />
<text x="762" y="603" font-family="Verdana" font-size="8" text-anchor="middle"  dominant-baseline="middle" fill="black" > 576</text>
<circle cx="787" cy="508" r="4" fill="white" stroke="black" />
<line x1="787" y1="512" x2="787" y2="591" stroke="black" />
<circle cx="787" cy="591" r="4" fill="white" stroke="black" />
<text x="787" y="603" font-family="Verdana" font-size="8" text-anchor="middle"  dominant-baseline="middle" fill="black" > 576</text>
<text x="900" y="7" font-family="Verdana" font-size="7" text-anchor="middle"  dominant-baseline="middle" fill="black" > C5</text>
<circle cx="900" cy="15" r="4" fill="white" stroke="black" />
<line x1="900" y1="19" x2="900" y2="191" stroke="black" />
<line x1="850" y1="191" x2="950" y2="191" stroke="black" />
<text x="925" y="183" font-family="Verdana" font-size="8" text-anchor="middle"  dominant-baseline="middle" fill="black" > 176</text>
<circle cx="850" cy="191" r="4" fill="white" stroke="black" />
<line x1="850" y1="195" x2="850" y2="326" stroke="black" />
<line x1="825" y1="326" x2="875" y2="326" stroke="black" />
<text x="862" y="318" font-family="Verdana" font-size="8" text-anchor="middle"  dominant-baseline="middle" fill="black" > 311</text>
<circle cx="825" cy="326" r="4" fill="white" stroke="black" />
<line x1="825" y1="330" x2="825" y2="417" stroke="black" />
<line x1="812" y1="417" x2="838" y2="417" stroke="black" />
<text x="831" y="409" font-family="Verdana" font-size="8" text-anchor="middle"  dominant-baseline="middle" fill="black" > 402</text>
<circle cx="812" cy="417" r="4" fill="white" stroke="black" />
<line x1="812" y1="421" x2="812" y2="535" stroke="black" />
<line x1="806" y1="535" x2="819" y2="535" stroke="black" />
<text x="815" y="527" font-family="Verdana" font-size="8" text-anchor="middle"  dominant-baseline="middle" fill="black" > 520</text>
<circle cx="806" cy="535" r="4" fill="white" stroke="black" />
<line x1="806" y1="539" x2="806" y2="591" stroke="black" />
<circle cx="806" cy="591" r="4" fill="white" stroke="black" />
<text x="806" y="603" font-family="Verdana" font-size="8" text-anchor="middle"  dominant-baseline="middle" fill="black" > 576</text>
<circle cx="818" cy="535" r="4" fill="white" stroke="black" />
<line x1="818" y1="539" x2="818" y2="591" stroke="black" />
<circle cx="818" cy="591" r="4" fill="white" stroke="black" />
<text x="818" y="603" font-family="Verdana" font-size="8" text-anchor="middle"  dominant-baseline="middle" fill="black" > 576</text>
<circle cx="837" cy="417" r="4" fill="white" stroke="black" />
<line x1="837" y1="421" x2="837" y2="550" stroke="black" />
<line x1="831" y1="550" x2="844" y2="550" stroke="black" />
<text x="840" y="542" font-family="Verdana" font-size="8" text-anchor="middle"  dominant-baseline="middle" fill="black" > 535</text>
<circle cx="831" cy="550" r="4" fill="white" stroke="black" />
<line x1="831" y1="554" x2="831" y2="591" stroke="black" />
<circle cx="831" cy="591" r="4" fill="white" stroke="black" />
<text x="831" y="603" font-family="Verdana" font-size="8" text-anchor="middle"  dominant-baseline="middle" fill="black" > 576</text>
<circle cx="843" cy="550" r="4" fill="white" stroke="black" />
<line x1="843" y1="554" x2="843" y2="591" stroke="black" />
<circle cx="843" cy="591" r="4" fill="white" stroke="black" />
<text x="843" y="603" font-family="Verdana" font-size="8" text-anchor="middle"  dominant-baseline="middle" fill="black" > 576</text>
<circle cx="875" cy="326" r="4" fill="white" stroke="black" />
<line x1="875" y1="330" x2="875" y2="431" stroke="black" />
<line x1="862" y1="431" x2="888" y2="431" stroke="black" />
<text x="881" y="423" font-family="Verdana" font-size="8" text-anchor="middle"  dominant-baseline="middle" fill="black" > 416</text>
<circle cx="862" cy="431" r="4" fill="white" stroke="black" />
<line x1="862" y1="435" x2="862" y2="591" stroke="black" />
<circle cx="862" cy="591" r="4" fill="white" stroke="black" />
<text x="862" y="603" font-family="Verdana" font-size="8" text-anchor="middle"  dominant-baseline="middle" fill="black" > 576</text>
<circle cx="887" cy="431" r="4" fill="white" stroke="black" />
<line x1="887" y1="435" x2="887" y2="590" stroke="black" />
<line x1="881" y1="590" x2="894" y2="590" stroke="black" />
<text x="890" y="582" font-family="Verdana" font-size="8" text-anchor="middle"  dominant-baseline="middle" fill="black" > 575</text>
<circle cx="881" cy="590" r="4" fill="white" stroke="black" />
<line x1="881" y1="594" x2="881" y2="591" stroke="black" />
<circle cx="881" cy="591" r="4" fill="white" stroke="black" />
<text x="881" y="603" font-family="Verdana" font-size="8" text-anchor="middle"  dominant-baseline="middle" fill="black" > 576</text>
<circle cx="893" cy="590" r="4" fill="white" stroke="black" />
<line x1="893" y1="594" x2="893" y2="591" stroke="black" />
<circle cx="893" cy="591" r="4" fill="white" stroke="black" />
<text x="893" y="603" font-family="Verdana" font-size="8" text-anchor="middle"  dominant-baseline="middle" fill="black" > 576</text>
<circle cx="950" cy="191" r="4" fill="white" stroke="black" />
<line x1="950" y1="195" x2="950" y2="340" stroke="black" />
<line x1="925" y1="340" x2="975" y2="340" stroke="black" />
<text x="962" y="332" font-family="Verdana" font-size="8" text-anchor="middle"  dominant-baseline="middle" fill="black" > 325</text>
<circle cx="925" cy="340" r="4" fill="white" stroke="black" />
<line x1="925" y1="344" x2="925" y2="461" stroke="black" />
<line x1="912" y1="461" x2="938" y2="461" stroke="black" />
<text x="931" y="453" font-family="Verdana" font-size="8" text-anchor="middle"  dominant-baseline="middle" fill="black" > 446</text>
<circle cx="912" cy="461" r="4" fill="white" stroke="black" />
<line x1="912" y1="465" x2="912" y2="584" stroke="black" />
<line x1="906" y1="584" x2="919" y2="584" stroke="black" />
<text x="915" y="576" font-family="Verdana" font-size="8" text-anchor="middle"  dominant-baseline="middle" fill="black" > 569</text>
<circle cx="906" cy="584" r="4" fill="white" stroke="black" />
<line x1="906" y1="588" x2="906" y2="591" stroke="black" />
<circle cx="906" cy="591" r="4" fill="white" stroke="black" />
<text x="906" y="603" font-family="Verdana" font-size="8" text-anchor="middle"  dominant-baseline="middle" fill="black" > 576</text>
<circle cx="918" cy="584" r="4" fill="white" stroke="black" />
<line x1="918" y1="588" x2="918" y2="591" stroke="black" />
<circle cx="918" cy="591" r="4" fill="white" stroke="black" />
<text x="918" y="603" font-family="Verdana" font-size="8" text-anchor="middle"  dominant-baseline="middle" fill="black" > 576</text>
<circle cx="937" cy="461" r="4" fill="white" stroke="black" />
<line x1="937" y1="465" x2="937" y2="582" stroke="black" />
<line x1="931" y1="582" x2="944" y2="582" stroke="black" />
<text x="940" y="574" font-family="Verdana" font-size="8" text-anchor="middle"  dominant-baseline="middle" fill="black" > 567</text>
<circle cx="931" cy="582" r="4" fill="white" stroke="black" />
<line x1="931" y1="586" x2="931" y2="591" stroke="black" />
<circle cx="931" cy="591" r="4" fill="white" stroke="black" />
<text x="931" y="603" font-family="Verdana" font-size="8" text-anchor="middle"  dominant-baseline="middle" fill="black" > 576</text>
<circle cx="943" cy="582" r="4" fill="white" stroke="black" />
<line x1="943" y1="586" x2="943" y2="591" stroke="black" />
<circle cx="943" cy="591" r="4" fill="white" stroke="black" />
<text x="943" y="603" font-family="Verdana" font-size="8" text-anchor="middle"  dominant-baseline="middle" fill="black" > 576</text>
<circle cx="975" cy="340" r="4" fill="white" stroke="black" />
<line x1="975" y1="344" x2="975" y2="453" stroke="black" />
<line x1="962" y1="453" x2="988" y2="453" stroke="black" />
<text x="981" y="445" font-family="Verdana" font-size="8" text-anchor="middle"  dominant-baseline="middle" fill="black" > 438</text>
<circle cx="962" cy="453" r="4" fill="white" stroke="black" />
<line x1="962" y1="457" x2="962" y2="591" stroke="black" />
<circle cx="962" cy="591" r="4" fill="white" stroke="black" />
<text x="962" y="603" font-family="Verdana" font-size="8" text-anchor="middle"  dominant-baseline="middle" fill="black" > 576</text>
<circle cx="987" cy="453" r="4" fill="white" stroke="black" />
<line x1="987" y1="457" x2="987" y2="588" stroke="black" />
<line x1="981" y1="588" x2="994" y2="588" stroke="black" />
<text x="990" y="580" font-family="Verdana" font-size="8" text-anchor="middle"  dominant-baseline="middle" fill="black" > 573</text>
<circle cx="981" cy="588" r="4" fill="white" stroke="black" />
<line x1="981" y1="592" x2="981" y2="591" stroke="black" />
<circle cx="981" cy="591" r="4" fill="white" stroke="black" />
<text x="981" y="603" font-family="Verdana" font-size="8" text-anchor="middle"  dominant-baseline="middle" fill="black" > 576</text>
<circle cx="993" cy="588" r="4" fill="white" stroke="black" />
<line x1="993" y1="592" x2="993" y2="591" stroke="black" />
<circle cx="993" cy="591" r="4" fill="white" stroke="black" />
<text x="993" y="603" font-family="Verdana" font-size="8" text-anchor="middle"  dominant-baseline="middle" fill="black" > 576</text>
<text x="1100" y="7" font-family="Verdana" font-size="7" text-anchor="middle"  dominant-baseline="middle" fill="black" > C6</text>
<circle cx="1100" cy="15" r="4" fill="white" stroke="black" />
<line x1="1100" y1="19" x2="1100" y2="155" stroke="black" />
<line x1="1050" y1="155" x2="1150" y2="155" stroke="black" />
<text x="1125" y="147" font-family="Verdana" font-size="8" text-anchor="middle"  dominant-baseline="middle" fill="black" > 140</text>
<circle cx="1050" cy="155" r="4" fill="white" stroke="black" />
<line x1="1050" y1="159" x2="1050" y2="409" stroke="black" />
<line x1="1025" y1="409" x2="1075" y2="409" stroke="black" />
<text x="1062" y="401" font-family="Verdana" font-size="8" text-anchor="middle"  dominant-baseline="middle" fill="black" > 394</text>
<circle cx="1025" cy="409" r="4" fill="white" stroke="black" />
<line x1="1025" y1="413" x2="1025" y2="525" stroke="black" />
<line x1="1012" y1="525" x2="1038" y2="525" stroke="black" />
<text x="1031" y="517" font-family="Verdana" font-size="8" text-anchor="middle"  dominant-baseline="middle" fill="black" > 510</text>
<circle cx="1012" cy="525" r="4" fill="white" stroke="black" />
<line x1="1012" y1="529" x2="1012" y2="591" stroke="black" />
<circle cx="1012" cy="591" r="4" fill="white" stroke="black" />
<text x="1012" y="603" font-family="Verdana" font-size="8" text-anchor="middle"  dominant-baseline="middle" fill="black" > 576</text>
<circle cx="1037" cy="525" r="4" fill="white" stroke="black" />
<line x1="1037" y1="529" x2="1037" y2="591" stroke="black" />
<circle cx="1037" cy="591" r="4" fill="white" stroke="black" />
<text x="1037" y="603" font-family="Verdana" font-size="8" text-anchor="middle"  dominant-baseline="middle" fill="black" > 576</text>
<circle cx="1075" cy="409" r="4" fill="white" stroke="black" />
<line x1="1075" y1="413" x2="1075" y2="532" stroke="black" />
<line x1="1062" y1="532" x2="1088" y2="532" stroke="black" />
<text x="1081" y="524" font-family="Verdana" font-size="8" text-anchor="middle"  dominant-baseline="middle" fill="black" > 517</text>
<circle cx="1062" cy="532" r="4" fill="white" stroke="black" />
<line x1="1062" y1="536" x2="1062" y2="591" stroke="black" />
<circle cx="1062" cy="591" r="4" fill="white" stroke="black" />
<text x="1062" y="603" font-family="Verdana" font-size="8" text-anchor="middle"  dominant-baseline="middle" fill="black" > 576</text>
<circle cx="1087" cy="532" r="4" fill="white" stroke="black" />
<line x1="1087" y1="536" x2="1087" y2="591" stroke="black" />
<circle cx="1087" cy="591" r="4" fill="white" stroke="black" />
<text x="1087" y="603" font-family="Verdana" font-size="8" text-anchor="middle"  dominant-baseline="middle" fill="black" > 576</text>
<circle cx="1150" cy="155" r="4" fill="white" stroke="black" />
<line x1="1150" y1="159" x2="1150" y2="407" stroke="black" />
<line x1="1125" y1="407" x2="1175" y2="407" stroke="black" />
<text x="1162" y="399" font-family="Verdana" font-size="8" text-anchor="middle"  dominant-baseline="middle" fill="black" > 392</text>
<circle cx="1125" cy="407" r="4" fill="white" stroke="black" />
<line x1="1125" y1="411" x2="1125" y2="524" stroke="black" />
<line x1="1112" y1="524" x2="1138" y2="524" stroke="black" />
<text x="1131" y="516" font-family="Verdana" font-size="8" text-anchor="middle"  dominant-baseline="middle" fill="black" > 509</text>
<circle cx="1112" cy="524" r="4" fill="white" stroke="black" />
<line x1="1112" y1="528" x2="1112" y2="591" stroke="black" />
<circle cx="1112" cy="591" r="4" fill="white" stroke="black" />
<text x="1112" y="603" font-family="Verdana" font-size="8" text-anchor="middle"  dominant-baseline="middle" fill="black" > 576</text>
<circle cx="1137" cy="524" r="4" fill="white" stroke="black" />
<line x1="1137" y1="528" x2="1137" y2="591" stroke="black" />
<circle cx="1137" cy="591" r="4" fill="white" stroke="black" />
<text x="1137" y="603" font-family="Verdana" font-size="8" text-anchor="middle"  dominant-baseline="middle" fill="black" > 576</text>
<circle cx="1175" cy="407" r="4" fill="white" stroke="black" />
<line x1="1175" y1="411" x2="1175" y2="524" stroke="black" />
<line x1="1162" y1="524" x2="1188" y2="524" stroke="black" />
<text x="1181" y="516" font-family="Verdana" font-size="8" text-anchor="middle"  dominant-baseline="middle" fill="black" > 509</text>
<circle cx="1162" cy="524" r="4" fill="white" stroke="black" />
<line x1="1162" y1="528" x2="1162" y2="591" stroke="black" />
<circle cx="1162" cy="591" r="4" fill="white" stroke="black" />
<text x="1162" y="603" font-family="Verdana" font-size="8" text-anchor="middle"  dominant-baseline="middle" fill="black" > 576</text>
<circle cx="1187" cy="524" r="4" fill="white" stroke="black" />
<line x1="1187" y1="528" x2="1187" y2="591" stroke="black" />
<circle cx="1187" cy="591" r="4" fill="white" stroke="black" />
<text x="1187" y="603" font-family="Verdana" font-size="8" text-anchor="middle"  dominant-baseline="middle" fill="black" > 576</text>
</svg>
