<?xml version="1.0" encoding="utf-8"?>
<svg xmlns="http://www.w3.org/2000/svg" version="1.1" width="1250" height="750">
<rect width="1250" height="15" x="0" y="0" fill="white" />
<rect width="1250" height="15" x="0" y="735" fill="white" />
<rect width="25" height="750" x="0" y="0" fill="white" />
<rect width="25" height="750" x="1225" y="0" fill="white" />
<rect width="1210" height="144" x="25" y="15" fill="ghostwhite" />
<rect width="1210" height="144" x="25" y="159" fill="snow" />
<rect width="1210" height="144" x="25" y="303" fill="ghostwhite" />
<rect width="1210" height="144" x="25" y="447" fill="snow" />
<rect width="1210" height="144" x="25" y="591" fill="ghostwhite" />
<text x="12" y="87" font-family="Verdana" font-size="10" text-anchor="middle"  dominant-baseline="middle" fill="red" > D0</text>
<text x="12" y="231" font-family="Verdana" font-size="10" text-anchor="middle"  dominant-baseline="middle" fill="red" > D1</text>
<text x="12" y="375" font-family="Verdana" font-size="10" text-anchor="middle"  dominant-baseline="middle" fill="red" > D2</text>
<text x="12" y="519" font-family="Verdana" font-size="10" text-anchor="middle"  dominant-baseline="middle" fill="red" > D3</text>
<text x="12" y="663" font-family="Verdana" font-size="10" text-anchor="middle"  dominant-baseline="middle" fill="red" > D4</text>
<text x="12" y="20" font-family="Verdana" font-size="10" text-anchor="middle"  dominant-baseline="middle" fill="black" > 0</text>
<text x="12" y="164" font-family="Verdana" font-size="10" text-anchor="middle"  dominant-baseline="middle" fill="black" > 144</text>
<text x="12" y="308" font-family="Verdana" font-size="10" text-anchor="middle"  dominant-baseline="middle" fill="black" > 288</text>
<text x="12" y="452" font-family="Verdana" font-size="10" text-anchor="middle"  dominant-baseline="middle" fill="black" > 432</text>
<text x="12" y="596" font-family="Verdana" font-size="10" text-anchor="middle"  dominant-baseline="middle" fill="black" > 576</text>
<text x="12" y="740" font-family="Verdana" font-size="10" text-anchor="middle"  dominant-baseline="middle" fill="black" > 720</text>
<text x="100" y="7" font-family="Verdana" font-size="7" text-anchor="middle"  dominant-baseline="middle" fill="black" > C1</text>
<circle cx="100" cy="15" r="4" fill="white" stroke="black" />
<line x1="100" y1="19" x2="100" y2="193" stroke="black" />
<line x1="50" y1="193" x2="150" y2="193" stroke="black" />
<text x="125" y="185" font-family="Verdana" font-size="8" text-anchor="middle"  dominant-baseline="middle" fill="black" > 178</text>
<circle cx="50" cy="193" r="4" fill="white" stroke="black" />
<line x1="50" y1="197" x2="50" y2="336" stroke="black" />
<line x1="25" y1="336" x2="75" y2="336" stroke="black" />
<text x="62" y="328" font-family="Verdana" font-size="8" text-anchor="middle"  dominant-baseline="middle" fill="black" > 321</text>
<circle cx="25" cy="336" r="4" fill="white" stroke="black" />
<line x1="25" y1="340" x2="25" y2="470" stroke="black" />
<line x1="12" y1="470" x2="38" y2="470" stroke="black" />
<text x="31" y="462" font-family="Verdana" font-size="8" text-anchor="middle"  dominant-baseline="middle" fill="black" > 455</text>
<circle cx="12" cy="470" r="4" fill="white" stroke="black" />
<line x1="12" y1="474" x2="12" y2="591" stroke="black" />
<circle cx="12" cy="591" r="4" fill="white" stroke="black" />
<text x="12" y="603" font-family="Verdana" font-size="8" text-anchor="middle"  dominant-baseline="middle" fill="black" > 576</text>
<circle cx="37" cy="470" r="4" fill="white" stroke="black" />
<line x1="37" y1="474" x2="37" y2="591" stroke="black" />
<circle cx="37" cy="591" r="4" fill="white" stroke="black" />
<text x="37" y="603" font-family="Verdana" font-size="8" text-anchor="middle"  dominant-baseline="middle" fill="black" > 576</text>
<circle cx="75" cy="336" r="4" fill="white" stroke="black" />
<line x1="75" y1="340" x2="75" y2="480" stroke="black" />
<line x1="62" y1="480" x2="88" y2="480" stroke="black" />
<text x="81" y="472" font-family="Verdana" font-size="8" text-anchor="middle"  dominant-baseline="middle" fill="black" > 465</text>
<circle cx="62" cy="480" r="4" fill="white" stroke="black" />
<line x1="62" y1="484" x2="62" y2="591" stroke="black" />
<circle cx="62" cy="591" r="4" fill="white" stroke="black" />
<text x="62" y="603" font-family="Verdana" font-size="8" text-anchor="middle"  dominant-baseline="middle" fill="black" > 576</text>
<circle cx="87" cy="480" r="4" fill="white" stroke="black" />
<line x1="87" y1="484" x2="87" y2="591" stroke="black" />
<circle cx="87" cy="591" r="4" fill="white" stroke="black" />
<text x="87" y="603" font-family="Verdana" font-size="8" text-anchor="middle"  dominant-baseline="middle" fill="black" > 576</text>
<circle cx="150" cy="193" r="4" fill="white" stroke="black" />
<line x1="150" y1="197" x2="150" y2="350" stroke="black" />
<line x1="125" y1="350" x2="175" y2="350" stroke="black" />
<text x="162" y="342" font-family="Verdana" font-size="8" text-anchor="middle"  dominant-baseline="middle" fill="black" > 335</text>
<circle cx="125" cy="350" r="4" fill="white" stroke="black" />
<line x1="125" y1="354" x2="125" y2="472" stroke="black" />
<line x1="112" y1="472" x2="138" y2="472" stroke="black" />
<text x="131" y="464" font-family="Verdana" font-size="8" text-anchor="middle"  dominant-baseline="middle" fill="black" > 457</text>
<circle cx="112" cy="472" r="4" fill="white" stroke="black" />
<line x1="112" y1="476" x2="112" y2="591" stroke="black" />
<circle cx="112" cy="591" r="4" fill="white" stroke="black" />
<text x="112" y="603" font-family="Verdana" font-size="8" text-anchor="middle"  dominant-baseline="middle" fill="black" > 576</text>
<circle cx="137" cy="472" r="4" fill="white" stroke="black" />
<line x1="137" y1="476" x2="137" y2="591" stroke="black" />
<circle cx="137" cy="591" r="4" fill="white" stroke="black" />
<text x="137" y="603" font-family="Verdana" font-size="8" text-anchor="middle"  dominant-baseline="middle" fill="black" > 576</text>
<circle cx="175" cy="350" r="4" fill="white" stroke="black" />
<line x1="175" y1="354" x2="175" y2="490" stroke="black" />
<line x1="162" y1="490" x2="188" y2="490" stroke="black" />
<text x="181" y="482" font-family="Verdana" font-size="8" text-anchor="middle"  dominant-baseline="middle" fill="black" > 475</text>
<circle cx="162" cy="490" r="4" fill="white" stroke="black" />
<line x1="162" y1="494" x2="162" y2="591" stroke="black" />
<circle cx="162" cy="591" r="4" fill="white" stroke="black" />
<text x="162" y="603" font-family="Verdana" font-size="8" text-anchor="middle"  dominant-baseline="middle" fill="black" > 576</text>
<circle cx="187" cy="490" r="4" fill="white" stroke="black" />
<line x1="187" y1="494" x2="187" y2="591" stroke="black" />
<circle cx="187" cy="591" r="4" fill="white" stroke="black" />
<text x="187" y="603" font-family="Verdana" font-size="8" text-anchor="middle"  dominant-baseline="middle" fill="black" > 576</text>
<text x="300" y="7" font-family="Verdana" font-size="7" text-anchor="middle"  dominant-baseline="middle" fill="black" > C2</text>
<circle cx="300" cy="15" r="4" fill="white" stroke="black" />
<line x1="300" y1="19" x2="300" y2="156" stroke="black" />
<line x1="250" y1="156" x2="350" y2="156" stroke="black" />
<text x="325" y="148" font-family="Verdana" font-size="8" text-anchor="middle"  dominant-baseline="middle" fill="black" > 141</text>
<circle cx="250" cy="156" r="4" fill="white" stroke="black" />
<line x1="250" y1="160" x2="250" y2="303" stroke="black" />
<line x1="225" y1="303" x2="275" y2="303" stroke="black" />
<text x="262" y="295" font-family="Verdana" font-size="8" text-anchor="middle"  dominant-baseline="middle" fill="black" > 288</text>
<circle cx="225" cy="303" r="4" fill="white" stroke="black" />
<line x1="225" y1="307" x2="225" y2="425" stroke="black" />
<line x1="212" y1="425" x2="238" y2="425" stroke="black" />
<text x="231" y="417" font-family="Verdana" font-size="8" text-anchor="middle"  dominant-baseline="middle" fill="black" > 410</text>
<circle cx="212" cy="425" r="4" fill="white" stroke="black" />
<line x1="212" y1="429" x2="212" y2="591" stroke="black" />
<circle cx="212" cy="591" r="4" fill="white" stroke="black" />
<text x="212" y="603" font-family="Verdana" font-size="8" text-anchor="middle"  dominant-baseline="middle" fill="black" > 576</text>
<circle cx="237" cy="425" r="4" fill="white" stroke="black" />
<line x1="237" y1="429" x2="237" y2="591" stroke="black" />
<circle cx="237" cy="591" r="4" fill="white" stroke="black" />
<text x="237" y="603" font-family="Verdana" font-size="8" text-anchor="middle"  dominant-baseline="middle" fill="black" > 576</text>
<circle cx="275" cy="303" r="4" fill="white" stroke="black" />
<line x1="275" y1="307" x2="275" y2="425" stroke="black" />
<line x1="262" y1="425" x2="288" y2="425" stroke="black" />
<text x="281" y="417" font-family="Verdana" font-size="8" text-anchor="middle"  dominant-baseline="middle" fill="black" > 410</text>
<circle cx="262" cy="425" r="4" fill="white" stroke="black" />
<line x1="262" y1="429" x2="262" y2="567" stroke="black" />
<line x1="256" y1="567" x2="269" y2="567" stroke="black" />
<text x="265" y="559" font-family="Verdana" font-size="8" text-anchor="middle"  dominant-baseline="middle" fill="black" > 552</text>
<circle cx="256" cy="567" r="4" fill="white" stroke="black" />
<line x1="256" y1="571" x2="256" y2="591" stroke="black" />
<circle cx="256" cy="591" r="4" fill="white" stroke="black" />
<text x="256" y="603" font-family="Verdana" font-size="8" text-anchor="middle"  dominant-baseline="middle" fill="black" > 576</text>
<circle cx="268" cy="567" r="4" fill="white" stroke="black" />
<line x1="268" y1="571" x2="268" y2="591" stroke="black" />
<circle cx="268" cy="591" r="4" fill="white" stroke="black" />
<text x="268" y="603" font-family="Verdana" font-size="8" text-anchor="middle"  dominant-baseline="middle" fill="black" > 576</text>
<circle cx="287" cy="425" r="4" fill="white" stroke="black" />
<line x1="287" y1="429" x2="287" y2="591" stroke="black" />
<circle cx="287" cy="591" r="4" fill="white" stroke="black" />
<text x="287" y="603" font-family="Verdana" font-size="8" text-anchor="middle"  dominant-baseline="middle" fill="black" > 576</text>
<circle cx="350" cy="156" r="4" fill="white" stroke="black" />
<line x1="350" y1="160" x2="350" y2="323" stroke="black" />
<line x1="325" y1="323" x2="375" y2="323" stroke="black" />
<text x="362" y="315" font-family="Verdana" font-size="8" text-anchor="middle"  dominant-baseline="middle" fill="black" > 308</text>
<circle cx="325" cy="323" r="4" fill="white" stroke="black" />
<line x1="325" y1="327" x2="325" y2="435" stroke="black" />
<line x1="312" y1="435" x2="338" y2="435" stroke="black" />
<text x="331" y="427" font-family="Verdana" font-size="8" text-anchor="middle"  dominant-baseline="middle" fill="black" > 420</text>
<circle cx="312" cy="435" r="4" fill="white" stroke="black" />
<line x1="312" y1="439" x2="312" y2="591" stroke="black" />
<circle cx="312" cy="591" r="4" fill="white" stroke="black" />
<text x="312" y="603" font-family="Verdana" font-size="8" text-anchor="middle"  dominant-baseline="middle" fill="black" > 576</text>
<circle cx="337" cy="435" r="4" fill="white" stroke="black" />
<line x1="337" y1="439" x2="337" y2="591" stroke="black" />
<circle cx="337" cy="591" r="4" fill="white" stroke="black" />
<text x="337" y="603" font-family="Verdana" font-size="8" text-anchor="middle"  dominant-baseline="middle" fill="black" > 576</text>
<circle cx="375" cy="323" r="4" fill="white" stroke="black" />
<line x1="375" y1="327" x2="375" y2="448" stroke="black" />
<line x1="362" y1="448" x2="388" y2="448" stroke="black" />
<text x="381" y="440" font-family="Verdana" font-size="8" text-anchor="middle"  dominant-baseline="middle" fill="black" > 433</text>
<circle cx="362" cy="448" r="4" fill="white" stroke="black" />
<line x1="362" y1="452" x2="362" y2="591" stroke="black" />
<circle cx="362" cy="591" r="4" fill="white" stroke="black" />
<text x="362" y="603" font-family="Verdana" font-size="8" text-anchor="middle"  dominant-baseline="middle" fill="black" > 576</text>
<circle cx="387" cy="448" r="4" fill="white" stroke="black" />
<line x1="387" y1="452" x2="387" y2="591" stroke="black" />
<circle cx="387" cy="591" r="4" fill="white" stroke="black" />
<text x="387" y="603" font-family="Verdana" font-size="8" text-anchor="middle"  dominant-baseline="middle" fill="black" > 576</text>
<text x="500" y="7" font-family="Verdana" font-size="7" text-anchor="middle"  dominant-baseline="middle" fill="black" > C3</text>
<circle cx="500" cy="15" r="4" fill="white" stroke="black" />
<line x1="500" y1="19" x2="500" y2="115" stroke="black" />
<line x1="450" y1="115" x2="550" y2="115" stroke="black" />
<text x="525" y="107" font-family="Verdana" font-size="8" text-anchor="middle"  dominant-baseline="middle" fill="black" > 100</text>
<circle cx="450" cy="115" r="4" fill="white" stroke="black" />
<line x1="450" y1="119" x2="450" y2="154" stroke="black" />
<line x1="446" y1="150" x2="454" y2="158" stroke="red" />
<line x1="446" y1="158" x2="454" y2="150" stroke="red" />
<text x="450" y="166" font-family="Verdana" font-size="8" text-anchor="middle"  dominant-baseline="middle" fill="black" > 139</text>
<circle cx="550" cy="115" r="4" fill="white" stroke="black" />
<line x1="550" y1="119" x2="550" y2="250" stroke="black" />
<line x1="525" y1="250" x2="575" y2="250" stroke="black" />
<text x="562" y="242" font-family="Verdana" font-size="8" text-anchor="middle"  dominant-baseline="middle" fill="black" > 235</text>
<circle cx="525" cy="250" r="4" fill="white" stroke="black" />
<line x1="525" y1="254" x2="525" y2="296" stroke="black" />
<line x1="521" y1="292" x2="529" y2="300" stroke="red" />
<line x1="521" y1="300" x2="529" y2="292" stroke="red" />
<text x="525" y="308" font-family="Verdana" font-size="8" text-anchor="middle"  dominant-baseline="middle" fill="black" > 281</text>
<circle cx="575" cy="250" r="4" fill="white" stroke="black" />
<line x1="575" y1="254" x2="575" y2="380" stroke="black" />
<line x1="562" y1="380" x2="588" y2="380" stroke="black" />
<text x="581" y="372" font-family="Verdana" font-size="8" text-anchor="middle"  dominant-baseline="middle" fill="black" > 365</text>
<circle cx="562" cy="380" r="4" fill="white" stroke="black" />
<line x1="562" y1="384" x2="562" y2="511" stroke="black" />
<line x1="556" y1="511" x2="569" y2="511" stroke="black" />
<text x="565" y="503" font-family="Verdana" font-size="8" text-anchor="middle"  dominant-baseline="middle" fill="black" > 496</text>
<circle cx="556" cy="511" r="4" fill="white" stroke="black" />
<line x1="556" y1="515" x2="556" y2="591" stroke="black" />
<circle cx="556" cy="591" r="4" fill="white" stroke="black" />
<text x="556" y="603" font-family="Verdana" font-size="8" text-anchor="middle"  dominant-baseline="middle" fill="black" > 576</text>
<circle cx="568" cy="511" r="4" fill="white" stroke="black" />
<line x1="568" y1="515" x2="568" y2="591" stroke="black" />
<circle cx="568" cy="591" r="4" fill="white" stroke="black" />
<text x="568" y="603" font-family="Verdana" font-size="8" text-anchor="middle"  dominant-baseline="middle" fill="black" > 576</text>
<circle cx="587" cy="380" r="4" fill="white" stroke="black" />
<line x1="587" y1="384" x2="587" y2="523" stroke="black" />
<line x1="581" y1="523" x2="594" y2="523" stroke="black" />
<text x="590" y="515" font-family="Verdana" font-size="8" text-anchor="middle"  dominant-baseline="middle" fill="black" > 508</text>
<circle cx="581" cy="523" r="4" fill="white" stroke="black" />
<line x1="581" y1="527" x2="581" y2="591" stroke="black" />
<circle cx="581" cy="591" r="4" fill="white" stroke="black" />
<text x="581" y="603" font-family="Verdana" font-size="8" text-anchor="middle"  dominant-baseline="middle" fill="black" > 576</text>
<circle cx="593" cy="523" r="4" fill="white" stroke="black" />
<line x1="593" y1="527" x2="593" y2="591" stroke="black" />
<circle cx="593" cy="591" r="4" fill="white" stroke="black" />
<text x="593" y="603" font-family="Verdana" font-size="8" text-anchor="middle"  dominant-baseline="middle" fill="black" > 576</text>
<text x="700" y="7" font-family="Verdana" font-size="7" text-anchor="middle"  dominant-baseline="middle" fill="black" > C4</text>
<circle cx="700" cy="15" r="4" fill="white" stroke="black" />
<line x1="700" y1="19" x2="700" y2="114" stroke="black" />
<line x1="650" y1="114" x2="750" y2="114" stroke="black" />
<text x="725" y="106" font-family="Verdana" font-size="8" text-anchor="middle"  dominant-baseline="middle" fill="black" > 99</text>
<circle cx="650" cy="114" r="4" fill="white" stroke="black" />
<line x1="650" y1="118" x2="650" y2="263" stroke="black" />
<line x1="625" y1="263" x2="675" y2="263" stroke="black" />
<text x="662" y="255" font-family="Verdana" font-size="8" text-anchor="middle"  dominant-baseline="middle" fill="black" > 248</text>
<circle cx="625" cy="263" r="4" fill="white" stroke="black" />
<line x1="625" y1="267" x2="625" y2="314" stroke="black" />
<line x1="621" y1="310" x2="629" y2="318" stroke="red" />
<line x1="621" y1="318" x2="629" y2="310" stroke="red" />
<text x="625" y="326" font-family="Verdana" font-size="8" text-anchor="middle"  dominant-baseline="middle" fill="black" > 299</text>
<circle cx="675" cy="263" r="4" fill="white" stroke="black" />
<line x1="675" y1="267" x2="675" y2="332" stroke="black" />
<line x1="671" y1="328" x2="679" y2="336" stroke="red" />
<line x1="671" y1="336" x2="679" y2="328" stroke="red" />
<text x="675" y="344" font-family="Verdana" font-size="8" text-anchor="middle"  dominant-baseline="middle" fill="black" > 317</text>
<circle cx="750" cy="114" r="4" fill="white" stroke="black" />
<line x1="750" y1="118" x2="750" y2="268" stroke="black" />
<line x1="725" y1="268" x2="775" y2="268" stroke="black" />
<text x="762" y="260" font-family="Verdana" font-size="8" text-anchor="middle"  dominant-baseline="middle" fill="black" > 253</text>
<circle cx="725" cy="268" r="4" fill="white" stroke="black" />
<line x1="725" y1="272" x2="725" y2="406" stroke="black" />
<line x1="712" y1="406" x2="738" y2="406" stroke="black" />
<text x="731" y="398" font-family="Verdana" font-size="8" text-anchor="middle"  dominant-baseline="middle" fill="black" > 391</text>
<circle cx="712" cy="406" r="4" fill="white" stroke="black" />
<line x1="712" y1="410" x2="712" y2="591" stroke="black" />
<circle cx="712" cy="591" r="4" fill="white" stroke="black" />
<text x="712" y="603" font-family="Verdana" font-size="8" text-anchor="middle"  dominant-baseline="middle" fill="black" > 576</text>
<circle cx="737" cy="406" r="4" fill="white" stroke="black" />
<line x1="737" y1="410" x2="737" y2="538" stroke="black" />
<line x1="731" y1="538" x2="744" y2="538" stroke="black" />
<text x="740" y="530" font-family="Verdana" font-size="8" text-anchor="middle"  dominant-baseline="middle" fill="black" > 523</text>
<circle cx="731" cy="538" r="4" fill="white" stroke="black" />
<line x1="731" y1="542" x2="731" y2="591" stroke="black" />
<circle cx="731" cy="591" r="4" fill="white" stroke="black" />
<text x="731" y="603" font-family="Verdana" font-size="8" text-anchor="middle"  dominant-baseline="middle" fill="black" > 576</text>
<circle cx="743" cy="538" r="4" fill="white" stroke="black" />
<line x1="743" y1="542" x2="743" y2="591" stroke="black" />
<circle cx="743" cy="591" r="4" fill="white" stroke="black" />
<text x="743" y="603" font-family="Verdana" font-size="8" text-anchor="middle"  dominant-baseline="middle" fill="black" > 576</text>
<circle cx="775" cy="268" r="4" fill="white" stroke="black" />
<line x1="775" y1="272" x2="775" y2="425" stroke="black" />
<line x1="762" y1="425" x2="788" y2="425" stroke="black" />
<text x="781" y="417" font-family="Verdana" font-size="8" text-anchor="middle"  dominant-baseline="middle" fill="black" > 410</text>
<circle cx="762" cy="425" r="4" fill="white" stroke="black" />
<line x1="762" y1="429" x2="762" y2="591" stroke="black" />
<circle cx="762" cy="591" r="4" fill="white" stroke="black" />
<text x="762" y="603" font-family="Verdana" font-size="8" text-anchor="middle"  dominant-baseline="middle" fill="black" > 576</text>
<circle cx="787" cy="425" r="4" fill="white" stroke="black" />
<line x1="787" y1="429" x2="787" y2="564" stroke="black" />
<line x1="781" y1="564" x2="794" y2="564" stroke="black" />
<text x="790" y="556" font-family="Verdana" font-size="8" text-anchor="middle"  dominant-baseline="middle" fill="black" > 549</text>
<circle cx="781" cy="564" r="4" fill="white" stroke="black" />
<line x1="781" y1="568" x2="781" y2="591" stroke="black" />
<circle cx="781" cy="591" r="4" fill="white" stroke="black" />
<text x="781" y="603" font-family="Verdana" font-size="8" text-anchor="middle"  dominant-baseline="middle" fill="black" > 576</text>
<circle cx="793" cy="564" r="4" fill="white" stroke="black" />
<line x1="793" y1="568" x2="793" y2="591" stroke="black" />
<circle cx="793" cy="591" r="4" fill="white" stroke="black" />
<text x="793" y="603" font-family="Verdana" font-size="8" text-anchor="middle"  dominant-baseline="middle" fill="black" > 576</text>
<text x="900" y="7" font-family="Verdana" font-size="7" text-anchor="middle"  dominant-baseline="middle" fill="black" > C5</text>
<circle cx="900" cy="15" r="4" fill="white" stroke="black" />
<line x1="900" y1="19" x2="900" y2="118" stroke="black" />
<line x1="850" y1="118" x2="950" y2="118" stroke="black" />
<text x="925" y="110" font-family="Verdana" font-size="8" text-anchor="middle"  dominant-baseline="middle" fill="black" > 103</text>
<circle cx="850" cy="118" r="4" fill="white" stroke="black" />
<line x1="850" y1="122" x2="850" y2="258" stroke="black" />
<line x1="825" y1="258" x2="875" y2="258" stroke="black" />
<text x="862" y="250" font-family="Verdana" font-size="8" text-anchor="middle"  dominant-baseline="middle" fill="black" > 243</text>
<circle cx="825" cy="258" r="4" fill="white" stroke="black" />
<line x1="825" y1="262" x2="825" y2="384" stroke="black" />
<line x1="812" y1="384" x2="838" y2="384" stroke="black" />
<text x="831" y="376" font-family="Verdana" font-size="8" text-anchor="middle"  dominant-baseline="middle" fill="black" > 369</text>
<circle cx="812" cy="384" r="4" fill="white" stroke="black" />
<line x1="812" y1="388" x2="812" y2="591" stroke="black" />
<circle cx="812" cy="591" r="4" fill="white" stroke="black" />
<text x="812" y="603" font-family="Verdana" font-size="8" text-anchor="middle"  dominant-baseline="middle" fill="black" > 576</text>
<circle cx="837" cy="384" r="4" fill="white" stroke="black" />
<line x1="837" y1="388" x2="837" y2="591" stroke="black" />
<circle cx="837" cy="591" r="4" fill="white" stroke="black" />
<text x="837" y="603" font-family="Verdana" font-size="8" text-anchor="middle"  dominant-baseline="middle" fill="black" > 576</text>
<circle cx="875" cy="258" r="4" fill="white" stroke="black" />
<line x1="875" y1="262" x2="875" y2="385" stroke="black" />
<line x1="862" y1="385" x2="888" y2="385" stroke="black" />
<text x="881" y="377" font-family="Verdana" font-size="8" text-anchor="middle"  dominant-baseline="middle" fill="black" > 370</text>
<circle cx="862" cy="385" r="4" fill="white" stroke="black" />
<line x1="862" y1="389" x2="862" y2="591" stroke="black" />
<circle cx="862" cy="591" r="4" fill="white" stroke="black" />
<text x="862" y="603" font-family="Verdana" font-size="8" text-anchor="middle"  dominant-baseline="middle" fill="black" > 576</text>
<circle cx="887" cy="385" r="4" fill="white" stroke="black" />
<line x1="887" y1="389" x2="887" y2="591" stroke="black" />
<circle cx="887" cy="591" r="4" fill="white" stroke="black" />
<text x="887" y="603" font-family="Verdana" font-size="8" text-anchor="middle"  dominant-baseline="middle" fill="black" > 576</text>
<circle cx="950" cy="118" r="4" fill="white" stroke="black" />
<line x1="950" y1="122" x2="950" y2="281" stroke="black" />
<line x1="925" y1="281" x2="975" y2="281" stroke="black" />
<text x="962" y="273" font-family="Verdana" font-size="8" text-anchor="middle"  dominant-baseline="middle" fill="black" > 266</text>
<circle cx="925" cy="281" r="4" fill="white" stroke="black" />
<circle cx="975" cy="281" r="4" fill="white" stroke="black" />
<line x1="925" y1="285" x2="925" y2="373" stroke="black" />
<line x1="925" y1="373" x2="950" y2="403" stroke="black" />
<line x1="975" y1="285" x2="975" y2="373" stroke="black" />
<line x1="975" y1="373" x2="950" y2="403" stroke="black" />
<text x="950" y="391" font-family="Verdana" font-size="8" text-anchor="middle"  dominant-baseline="middle" fill="black" > 388</text>
<circle cx="950" cy="403" r="4" fill="white" stroke="black" />
<line x1="950" y1="407" x2="950" y2="421" stroke="black" />
<line x1="937" y1="421" x2="963" y2="421" stroke="black" />
<text x="956" y="413" font-family="Verdana" font-size="8" text-anchor="middle"  dominant-baseline="middle" fill="black" > 406</text>
<circle cx="937" cy="421" r="4" fill="white" stroke="black" />
<line x1="937" y1="425" x2="937" y2="461" stroke="black" />
<line x1="933" y1="457" x2="941" y2="465" stroke="red" />
<line x1="933" y1="465" x2="941" y2="457" stroke="red" />
<text x="937" y="473" font-family="Verdana" font-size="8" text-anchor="middle"  dominant-baseline="middle" fill="black" > 446</text>
<circle cx="962" cy="421" r="4" fill="white" stroke="black" />
<line x1="962" y1="425" x2="962" y2="450" stroke="black" />
<line x1="958" y1="446" x2="966" y2="454" stroke="red" />
<line x1="958" y1="454" x2="966" y2="446" stroke="red" />
<text x="962" y="462" font-family="Verdana" font-size="8" text-anchor="middle"  dominant-baseline="middle" fill="black" > 435</text>
<text x="1100" y="7" font-family="Verdana" font-size="7" text-anchor="middle"  dominant-baseline="middle" fill="black" > C6</text>
<circle cx="1100" cy="15" r="4" fill="white" stroke="black" />
<line x1="1100" y1="19" x2="1100" y2="126" stroke="black" />
<line x1="1050" y1="126" x2="1150" y2="126" stroke="black" />
<text x="1125" y="118" font-family="Verdana" font-size="8" text-anchor="middle"  dominant-baseline="middle" fill="black" > 111</text>
<circle cx="1050" cy="126" r="4" fill="white" stroke="black" />
<line x1="1050" y1="130" x2="1050" y2="303" stroke="black" />
<line x1="1025" y1="303" x2="1075" y2="303" stroke="black" />
<text x="1062" y="295" font-family="Verdana" font-size="8" text-anchor="middle"  dominant-baseline="middle" fill="black" > 288</text>
<circle cx="1025" cy="303" r="4" fill="white" stroke="black" />
<line x1="1025" y1="307" x2="1025" y2="422" stroke="black" />
<line x1="1012" y1="422" x2="1038" y2="422" stroke="black" />
<text x="1031" y="414" font-family="Verdana" font-size="8" text-anchor="middle"  dominant-baseline="middle" fill="black" > 407</text>
<circle cx="1012" cy="422" r="4" fill="white" stroke="black" />
<line x1="1012" y1="426" x2="1012" y2="591" stroke="black" />
<circle cx="1012" cy="591" r="4" fill="white" stroke="black" />
<text x="1012" y="603" font-family="Verdana" font-size="8" text-anchor="middle"  dominant-baseline="middle" fill="black" > 576</text>
<circle cx="1037" cy="422" r="4" fill="white" stroke="black" />
<line x1="1037" y1="426" x2="1037" y2="591" stroke="black" />
<circle cx="1037" cy="591" r="4" fill="white" stroke="black" />
<text x="1037" y="603" font-family="Verdana" font-size="8" text-anchor="middle"  dominant-baseline="middle" fill="black" > 576</text>
<circle cx="1075" cy="303" r="4" fill="white" stroke="black" />
<line x1="1075" y1="307" x2="1075" y2="423" stroke="black" />
<line x1="1062" y1="423" x2="1088" y2="423" stroke="black" />
<text x="1081" y="415" font-family="Verdana" font-size="8" text-anchor="middle"  dominant-baseline="middle" fill="black" > 408</text>
<circle cx="1062" cy="423" r="4" fill="white" stroke="black" />
<line x1="1062" y1="427" x2="1062" y2="591" stroke="black" />
<circle cx="1062" cy="591" r="4" fill="white" stroke="black" />
<text x="1062" y="603" font-family="Verdana" font-size="8" text-anchor="middle"  dominant-baseline="middle" fill="black" > 576</text>
<circle cx="1087" cy="423" r="4" fill="white" stroke="black" />
<line x1="1087" y1="427" x2="1087" y2="591" stroke="black" />
<circle cx="1087" cy="591" r="4" fill="white" stroke="black" />
<text x="1087" y="603" font-family="Verdana" font-size="8" text-anchor="middle"  dominant-baseline="middle" fill="black" > 576</text>
<circle cx="1150" cy="126" r="4" fill="white" stroke="black" />
<line x1="1150" y1="130" x2="1150" y2="280" stroke="black" />
<line x1="1125" y1="280" x2="1175" y2="280" stroke="black" />
<text x="1162" y="272" font-family="Verdana" font-size="8" text-anchor="middle"  dominant-baseline="middle" fill="black" > 265</text>
<circle cx="1125" cy="280" r="4" fill="white" stroke="black" />
<line x1="1125" y1="284" x2="1125" y2="404" stroke="black" />
<line x1="1112" y1="404" x2="1138" y2="404" stroke="black" />
<text x="1131" y="396" font-family="Verdana" font-size="8" text-anchor="middle"  dominant-baseline="middle" fill="black" > 389</text>
<circle cx="1112" cy="404" r="4" fill="white" stroke="black" />
<line x1="1112" y1="408" x2="1112" y2="543" stroke="black" />
<line x1="1106" y1="543" x2="1119" y2="543" stroke="black" />
<text x="1115" y="535" font-family="Verdana" font-size="8" text-anchor="middle"  dominant-baseline="middle" fill="black" > 528</text>
<circle cx="1106" cy="543" r="4" fill="white" stroke="black" />
<line x1="1106" y1="547" x2="1106" y2="591" stroke="black" />
<circle cx="1106" cy="591" r="4" fill="white" stroke="black" />
<text x="1106" y="603" font-family="Verdana" font-size="8" text-anchor="middle"  dominant-baseline="middle" fill="black" > 576</text>
<circle cx="1118" cy="543" r="4" fill="white" stroke="black" />
<line x1="1118" y1="547" x2="1118" y2="591" stroke="black" />
<circle cx="1118" cy="591" r="4" fill="white" stroke="black" />
<text x="1118" y="603" font-family="Verdana" font-size="8" text-anchor="middle"  dominant-baseline="middle" fill="black" > 576</text>
<circle cx="1137" cy="404" r="4" fill="white" stroke="black" />
<line x1="1137" y1="408" x2="1137" y2="541" stroke="black" />
<line x1="1129" y1="541" x2="1146" y2="541" stroke="black" />
<text x="1139" y="533" font-family="Verdana" font-size="8" text-anchor="middle"  dominant-baseline="middle" fill="black" > 526</text>
<circle cx="1129" cy="541" r="4" fill="white" stroke="black" />
<line x1="1129" y1="545" x2="1129" y2="591" stroke="black" />
<circle cx="1129" cy="591" r="4" fill="white" stroke="black" />
<text x="1129" y="603" font-family="Verdana" font-size="8" text-anchor="middle"  dominant-baseline="middle" fill="black" > 576</text>
<circle cx="1137" cy="541" r="4" fill="white" stroke="black" />
<line x1="1137" y1="545" x2="1137" y2="591" stroke="black" />
<circle cx="1137" cy="591" r="4" fill="white" stroke="black" />
<text x="1137" y="603" font-family="Verdana" font-size="8" text-anchor="middle"  dominant-baseline="middle" fill="black" > 576</text>
<circle cx="1145" cy="541" r="4" fill="white" stroke="black" />
<line x1="1145" y1="545" x2="1145" y2="591" stroke="black" />
<circle cx="1145" cy="591" r="4" fill="white" stroke="black" />
<text x="1145" y="603" font-family="Verdana" font-size="8" text-anchor="middle"  dominant-baseline="middle" fill="black" > 576</text>
<circle cx="1175" cy="280" r="4" fill="white" stroke="black" />
<line x1="1175" y1="284" x2="1175" y2="391" stroke="black" />
<line x1="1162" y1="391" x2="1188" y2="391" stroke="black" />
<text x="1181" y="383" font-family="Verdana" font-size="8" text-anchor="middle"  dominant-baseline="middle" fill="black" > 376</text>
<circle cx="1162" cy="391" r="4" fill="white" stroke="black" />
<line x1="1162" y1="395" x2="1162" y2="513" stroke="black" />
<line x1="1156" y1="513" x2="1169" y2="513" stroke="black" />
<text x="1165" y="505" font-family="Verdana" font-size="8" text-anchor="middle"  dominant-baseline="middle" fill="black" > 498</text>
<circle cx="1156" cy="513" r="4" fill="white" stroke="black" />
<line x1="1156" y1="517" x2="1156" y2="591" stroke="black" />
<circle cx="1156" cy="591" r="4" fill="white" stroke="black" />
<text x="1156" y="603" font-family="Verdana" font-size="8" text-anchor="middle"  dominant-baseline="middle" fill="black" > 576</text>
<circle cx="1168" cy="513" r="4" fill="white" stroke="black" />
<line x1="1168" y1="517" x2="1168" y2="591" stroke="black" />
<circle cx="1168" cy="591" r="4" fill="white" stroke="black" />
<text x="1168" y="603" font-family="Verdana" font-size="8" text-anchor="middle"  dominant-baseline="middle" fill="black" > 576</text>
<circle cx="1187" cy="391" r="4" fill="white" stroke="black" />
<line x1="1187" y1="395" x2="1187" y2="516" stroke="black" />
<line x1="1181" y1="516" x2="1194" y2="516" stroke="black" />
<text x="1190" y="508" font-family="Verdana" font-size="8" text-anchor="middle"  dominant-baseline="middle" fill="black" > 501</text>
<circle cx="1181" cy="516" r="4" fill="white" stroke="black" />
<line x1="1181" y1="520" x2="1181" y2="591" stroke="black" />
<circle cx="1181" cy="591" r="4" fill="white" stroke="black" />
<text x="1181" y="603" font-family="Verdana" font-size="8" text-anchor="middle"  dominant-baseline="middle" fill="black" > 576</text>
<circle cx="1193" cy="516" r="4" fill="white" stroke="black" />
<line x1="1193" y1="520" x2="1193" y2="591" stroke="black" />
<circle cx="1193" cy="591" r="4" fill="white" stroke="black" />
<text x="1193" y="603" font-family="Verdana" font-size="8" text-anchor="middle"  dominant-baseline="middle" fill="black" > 576</text>
</svg>
