<?xml version="1.0" encoding="utf-8"?>
<svg xmlns="http://www.w3.org/2000/svg" version="1.1" width="1250" height="750">
<rect width="1250" height="15" x="0" y="0" fill="white" />
<rect width="1250" height="15" x="0" y="735" fill="white" />
<rect width="25" height="750" x="0" y="0" fill="white" />
<rect width="25" height="750" x="1225" y="0" fill="white" />
<rect width="1210" height="144" x="25" y="15" fill="ghostwhite" />
<rect width="1210" height="144" x="25" y="159" fill="snow" />
<rect width="1210" height="144" x="25" y="303" fill="ghostwhite" />
<rect width="1210" height="144" x="25" y="447" fill="snow" />
<rect width="1210" height="144" x="25" y="591" fill="ghostwhite" />
<text x="12" y="87" font-family="Verdana" font-size="10" text-anchor="middle"  dominant-baseline="middle" fill="red" > D0</text>
<text x="12" y="231" font-family="Verdana" font-size="10" text-anchor="middle"  dominant-baseline="middle" fill="red" > D1</text>
<text x="12" y="375" font-family="Verdana" font-size="10" text-anchor="middle"  dominant-baseline="middle" fill="red" > D2</text>
<text x="12" y="519" font-family="Verdana" font-size="10" text-anchor="middle"  dominant-baseline="middle" fill="red" > D3</text>
<text x="12" y="663" font-family="Verdana" font-size="10" text-anchor="middle"  dominant-baseline="middle" fill="red" > D4</text>
<text x="12" y="20" font-family="Verdana" font-size="10" text-anchor="middle"  dominant-baseline="middle" fill="black" > 0</text>
<text x="12" y="164" font-family="Verdana" font-size="10" text-anchor="middle"  dominant-baseline="middle" fill="black" > 144</text>
<text x="12" y="308" font-family="Verdana" font-size="10" text-anchor="middle"  dominant-baseline="middle" fill="black" > 288</text>
<text x="12" y="452" font-family="Verdana" font-size="10" text-anchor="middle"  dominant-baseline="middle" fill="black" > 432</text>
<text x="12" y="596" font-family="Verdana" font-size="10" text-anchor="middle"  dominant-baseline="middle" fill="black" > 576</text>
<text x="12" y="740" font-family="Verdana" font-size="10" text-anchor="middle"  dominant-baseline="middle" fill="black" > 720</text>
<text x="100" y="7" font-family="Verdana" font-size="7" text-anchor="middle"  dominant-baseline="middle" fill="black" > C1</text>
<circle cx="100" cy="15" r="4" fill="white" stroke="black" />
<line x1="100" y1="19" x2="100" y2="169" stroke="black" />
<line x1="50" y1="169" x2="150" y2="169" stroke="black" />
<text x="125" y="161" font-family="Verdana" font-size="8" text-anchor="middle"  dominant-baseline="middle" fill="black" > 154</text>
<circle cx="50" cy="169" r="4" fill="white" stroke="black" />
<line x1="50" y1="173" x2="50" y2="311" stroke="black" />
<line x1="25" y1="311" x2="75" y2="311" stroke="black" />
<text x="62" y="303" font-family="Verdana" font-size="8" text-anchor="middle"  dominant-baseline="middle" fill="black" > 296</text>
<circle cx="25" cy="311" r="4" fill="white" stroke="black" />
<line x1="25" y1="315" x2="25" y2="338" stroke="black" />
<line x1="12" y1="338" x2="38" y2="338" stroke="black" />
<text x="31" y="330" font-family="Verdana" font-size="8" text-anchor="middle"  dominant-baseline="middle" fill="black" > 323</text>
<circle cx="12" cy="338" r="4" fill="white" stroke="black" />
<line x1="12" y1="342" x2="12" y2="581" stroke="black" />
<line x1="6" y1="581" x2="19" y2="581" stroke="black" />
<text x="15" y="573" font-family="Verdana" font-size="8" text-anchor="middle"  dominant-baseline="middle" fill="black" > 566</text>
<circle cx="6" cy="581" r="4" fill="white" stroke="black" />
<line x1="6" y1="585" x2="6" y2="591" stroke="black" />
<circle cx="6" cy="591" r="4" fill="white" stroke="black" />
<text x="6" y="603" font-family="Verdana" font-size="8" text-anchor="middle"  dominant-baseline="middle" fill="black" > 576</text>
<circle cx="18" cy="581" r="4" fill="white" stroke="black" />
<line x1="18" y1="585" x2="18" y2="591" stroke="black" />
<circle cx="18" cy="591" r="4" fill="white" stroke="black" />
<text x="18" y="603" font-family="Verdana" font-size="8" text-anchor="middle"  dominant-baseline="middle" fill="black" > 576</text>
<circle cx="37" cy="338" r="4" fill="white" stroke="black" />
<line x1="37" y1="342" x2="37" y2="583" stroke="black" />
<line x1="31" y1="583" x2="44" y2="583" stroke="black" />
<text x="40" y="575" font-family="Verdana" font-size="8" text-anchor="middle"  dominant-baseline="middle" fill="black" > 568</text>
<circle cx="31" cy="583" r="4" fill="white" stroke="black" />
<line x1="31" y1="587" x2="31" y2="591" stroke="black" />
<circle cx="31" cy="591" r="4" fill="white" stroke="black" />
<text x="31" y="603" font-family="Verdana" font-size="8" text-anchor="middle"  dominant-baseline="middle" fill="black" > 576</text>
<circle cx="43" cy="583" r="4" fill="white" stroke="black" />
<line x1="43" y1="587" x2="43" y2="591" stroke="black" />
<circle cx="43" cy="591" r="4" fill="white" stroke="black" />
<text x="43" y="603" font-family="Verdana" font-size="8" text-anchor="middle"  dominant-baseline="middle" fill="black" > 576</text>
<circle cx="75" cy="311" r="4" fill="white" stroke="black" />
<line x1="75" y1="315" x2="75" y2="427" stroke="black" />
<line x1="62" y1="427" x2="88" y2="427" stroke="black" />
<text x="81" y="419" font-family="Verdana" font-size="8" text-anchor="middle"  dominant-baseline="middle" fill="black" > 412</text>
<circle cx="62" cy="427" r="4" fill="white" stroke="black" />
<line x1="62" y1="431" x2="62" y2="545" stroke="black" />
<line x1="56" y1="545" x2="69" y2="545" stroke="black" />
<text x="65" y="537" font-family="Verdana" font-size="8" text-anchor="middle"  dominant-baseline="middle" fill="black" > 530</text>
<circle cx="56" cy="545" r="4" fill="white" stroke="black" />
<line x1="56" y1="549" x2="56" y2="591" stroke="black" />
<circle cx="56" cy="591" r="4" fill="white" stroke="black" />
<text x="56" y="603" font-family="Verdana" font-size="8" text-anchor="middle"  dominant-baseline="middle" fill="black" > 576</text>
<circle cx="68" cy="545" r="4" fill="white" stroke="black" />
<line x1="68" y1="549" x2="68" y2="591" stroke="black" />
<circle cx="68" cy="591" r="4" fill="white" stroke="black" />
<text x="68" y="603" font-family="Verdana" font-size="8" text-anchor="middle"  dominant-baseline="middle" fill="black" > 576</text>
<circle cx="87" cy="427" r="4" fill="white" stroke="black" />
<line x1="87" y1="431" x2="87" y2="588" stroke="black" />
<line x1="81" y1="588" x2="94" y2="588" stroke="black" />
<text x="90" y="580" font-family="Verdana" font-size="8" text-anchor="middle"  dominant-baseline="middle" fill="black" > 573</text>
<circle cx="81" cy="588" r="4" fill="white" stroke="black" />
<line x1="81" y1="592" x2="81" y2="591" stroke="black" />
<circle cx="81" cy="591" r="4" fill="white" stroke="black" />
<text x="81" y="603" font-family="Verdana" font-size="8" text-anchor="middle"  dominant-baseline="middle" fill="black" > 576</text>
<circle cx="93" cy="588" r="4" fill="white" stroke="black" />
<line x1="93" y1="592" x2="93" y2="591" stroke="black" />
<circle cx="93" cy="591" r="4" fill="white" stroke="black" />
<text x="93" y="603" font-family="Verdana" font-size="8" text-anchor="middle"  dominant-baseline="middle" fill="black" > 576</text>
<circle cx="150" cy="169" r="4" fill="white" stroke="black" />
<line x1="150" y1="173" x2="150" y2="301" stroke="black" />
<line x1="125" y1="301" x2="175" y2="301" stroke="black" />
<text x="162" y="293" font-family="Verdana" font-size="8" text-anchor="middle"  dominant-baseline="middle" fill="black" > 286</text>
<circle cx="125" cy="301" r="4" fill="white" stroke="black" />
<line x1="125" y1="305" x2="125" y2="442" stroke="black" />
<line x1="112" y1="442" x2="138" y2="442" stroke="black" />
<text x="131" y="434" font-family="Verdana" font-size="8" text-anchor="middle"  dominant-baseline="middle" fill="black" > 427</text>
<circle cx="112" cy="442" r="4" fill="white" stroke="black" />
<line x1="112" y1="446" x2="112" y2="542" stroke="black" />
<line x1="106" y1="542" x2="119" y2="542" stroke="black" />
<text x="115" y="534" font-family="Verdana" font-size="8" text-anchor="middle"  dominant-baseline="middle" fill="black" > 527</text>
<circle cx="106" cy="542" r="4" fill="white" stroke="black" />
<line x1="106" y1="546" x2="106" y2="591" stroke="black" />
<circle cx="106" cy="591" r="4" fill="white" stroke="black" />
<text x="106" y="603" font-family="Verdana" font-size="8" text-anchor="middle"  dominant-baseline="middle" fill="black" > 576</text>
<circle cx="118" cy="542" r="4" fill="white" stroke="black" />
<line x1="118" y1="546" x2="118" y2="591" stroke="black" />
<circle cx="118" cy="591" r="4" fill="white" stroke="black" />
<text x="118" y="603" font-family="Verdana" font-size="8" text-anchor="middle"  dominant-baseline="middle" fill="black" > 576</text>
<circle cx="137" cy="442" r="4" fill="white" stroke="black" />
<line x1="137" y1="446" x2="137" y2="541" stroke="black" />
<line x1="131" y1="541" x2="144" y2="541" stroke="black" />
<text x="140" y="533" font-family="Verdana" font-size="8" text-anchor="middle"  dominant-baseline="middle" fill="black" > 526</text>
<circle cx="131" cy="541" r="4" fill="white" stroke="black" />
<line x1="131" y1="545" x2="131" y2="591" stroke="black" />
<circle cx="131" cy="591" r="4" fill="white" stroke="black" />
<text x="131" y="603" font-family="Verdana" font-size="8" text-anchor="middle"  dominant-baseline="middle" fill="black" > 576</text>
<circle cx="143" cy="541" r="4" fill="white" stroke="black" />
<line x1="143" y1="545" x2="143" y2="591" stroke="black" />
<circle cx="143" cy="591" r="4" fill="white" stroke="black" />
<text x="143" y="603" font-family="Verdana" font-size="8" text-anchor="middle"  dominant-baseline="middle" fill="black" > 576</text>
<circle cx="175" cy="301" r="4" fill="white" stroke="black" />
<line x1="175" y1="305" x2="175" y2="399" stroke="black" />
<line x1="162" y1="399" x2="188" y2="399" stroke="black" />
<text x="181" y="391" font-family="Verdana" font-size="8" text-anchor="middle"  dominant-baseline="middle" fill="black" > 384</text>
<circle cx="162" cy="399" r="4" fill="white" stroke="black" />
<line x1="162" y1="403" x2="162" y2="533" stroke="black" />
<line x1="156" y1="533" x2="169" y2="533" stroke="black" />
<text x="165" y="525" font-family="Verdana" font-size="8" text-anchor="middle"  dominant-baseline="middle" fill="black" > 518</text>
<circle cx="156" cy="533" r="4" fill="white" stroke="black" />
<line x1="156" y1="537" x2="156" y2="591" stroke="black" />
<circle cx="156" cy="591" r="4" fill="white" stroke="black" />
<text x="156" y="603" font-family="Verdana" font-size="8" text-anchor="middle"  dominant-baseline="middle" fill="black" > 576</text>
<circle cx="168" cy="533" r="4" fill="white" stroke="black" />
<line x1="168" y1="537" x2="168" y2="591" stroke="black" />
<circle cx="168" cy="591" r="4" fill="white" stroke="black" />
<text x="168" y="603" font-family="Verdana" font-size="8" text-anchor="middle"  dominant-baseline="middle" fill="black" > 576</text>
<circle cx="187" cy="399" r="4" fill="white" stroke="black" />
<line x1="187" y1="403" x2="187" y2="531" stroke="black" />
<line x1="181" y1="531" x2="194" y2="531" stroke="black" />
<text x="190" y="523" font-family="Verdana" font-size="8" text-anchor="middle"  dominant-baseline="middle" fill="black" > 516</text>
<circle cx="181" cy="531" r="4" fill="white" stroke="black" />
<line x1="181" y1="535" x2="181" y2="591" stroke="black" />
<circle cx="181" cy="591" r="4" fill="white" stroke="black" />
<text x="181" y="603" font-family="Verdana" font-size="8" text-anchor="middle"  dominant-baseline="middle" fill="black" > 576</text>
<circle cx="193" cy="531" r="4" fill="white" stroke="black" />
<line x1="193" y1="535" x2="193" y2="591" stroke="black" />
<circle cx="193" cy="591" r="4" fill="white" stroke="black" />
<text x="193" y="603" font-family="Verdana" font-size="8" text-anchor="middle"  dominant-baseline="middle" fill="black" > 576</text>
<text x="300" y="7" font-family="Verdana" font-size="7" text-anchor="middle"  dominant-baseline="middle" fill="black" > C2</text>
<circle cx="300" cy="15" r="4" fill="white" stroke="black" />
<line x1="300" y1="19" x2="300" y2="250" stroke="black" />
<line x1="250" y1="250" x2="350" y2="250" stroke="black" />
<text x="325" y="242" font-family="Verdana" font-size="8" text-anchor="middle"  dominant-baseline="middle" fill="black" > 235</text>
<circle cx="250" cy="250" r="4" fill="white" stroke="black" />
<line x1="250" y1="254" x2="250" y2="410" stroke="black" />
<line x1="225" y1="410" x2="275" y2="410" stroke="black" />
<text x="262" y="402" font-family="Verdana" font-size="8" text-anchor="middle"  dominant-baseline="middle" fill="black" > 395</text>
<circle cx="225" cy="410" r="4" fill="white" stroke="black" />
<line x1="225" y1="414" x2="225" y2="528" stroke="black" />
<line x1="212" y1="528" x2="238" y2="528" stroke="black" />
<text x="231" y="520" font-family="Verdana" font-size="8" text-anchor="middle"  dominant-baseline="middle" fill="black" > 513</text>
<circle cx="212" cy="528" r="4" fill="white" stroke="black" />
<line x1="212" y1="532" x2="212" y2="591" stroke="black" />
<circle cx="212" cy="591" r="4" fill="white" stroke="black" />
<text x="212" y="603" font-family="Verdana" font-size="8" text-anchor="middle"  dominant-baseline="middle" fill="black" > 576</text>
<circle cx="237" cy="528" r="4" fill="white" stroke="black" />
<line x1="237" y1="532" x2="237" y2="591" stroke="black" />
<circle cx="237" cy="591" r="4" fill="white" stroke="black" />
<text x="237" y="603" font-family="Verdana" font-size="8" text-anchor="middle"  dominant-baseline="middle" fill="black" > 576</text>
<circle cx="275" cy="410" r="4" fill="white" stroke="black" />
<line x1="275" y1="414" x2="275" y2="534" stroke="black" />
<line x1="262" y1="534" x2="288" y2="534" stroke="black" />
<text x="281" y="526" font-family="Verdana" font-size="8" text-anchor="middle"  dominant-baseline="middle" fill="black" > 519</text>
<circle cx="262" cy="534" r="4" fill="white" stroke="black" />
<line x1="262" y1="538" x2="262" y2="591" stroke="black" />
<circle cx="262" cy="591" r="4" fill="white" stroke="black" />
<text x="262" y="603" font-family="Verdana" font-size="8" text-anchor="middle"  dominant-baseline="middle" fill="black" > 576</text>
<circle cx="287" cy="534" r="4" fill="white" stroke="black" />
<line x1="287" y1="538" x2="287" y2="591" stroke="black" />
<circle cx="287" cy="591" r="4" fill="white" stroke="black" />
<text x="287" y="603" font-family="Verdana" font-size="8" text-anchor="middle"  dominant-baseline="middle" fill="black" > 576</text>
<circle cx="350" cy="250" r="4" fill="white" stroke="black" />
<line x1="350" y1="254" x2="350" y2="406" stroke="black" />
<line x1="325" y1="406" x2="375" y2="406" stroke="black" />
<text x="362" y="398" font-family="Verdana" font-size="8" text-anchor="middle"  dominant-baseline="middle" fill="black" > 391</text>
<circle cx="325" cy="406" r="4" fill="white" stroke="black" />
<line x1="325" y1="410" x2="325" y2="526" stroke="black" />
<line x1="312" y1="526" x2="338" y2="526" stroke="black" />
<text x="331" y="518" font-family="Verdana" font-size="8" text-anchor="middle"  dominant-baseline="middle" fill="black" > 511</text>
<circle cx="312" cy="526" r="4" fill="white" stroke="black" />
<line x1="312" y1="530" x2="312" y2="591" stroke="black" />
<circle cx="312" cy="591" r="4" fill="white" stroke="black" />
<text x="312" y="603" font-family="Verdana" font-size="8" text-anchor="middle"  dominant-baseline="middle" fill="black" > 576</text>
<circle cx="337" cy="526" r="4" fill="white" stroke="black" />
<line x1="337" y1="530" x2="337" y2="591" stroke="black" />
<circle cx="337" cy="591" r="4" fill="white" stroke="black" />
<text x="337" y="603" font-family="Verdana" font-size="8" text-anchor="middle"  dominant-baseline="middle" fill="black" > 576</text>
<circle cx="375" cy="406" r="4" fill="white" stroke="black" />
<line x1="375" y1="410" x2="375" y2="520" stroke="black" />
<line x1="362" y1="520" x2="388" y2="520" stroke="black" />
<text x="381" y="512" font-family="Verdana" font-size="8" text-anchor="middle"  dominant-baseline="middle" fill="black" > 505</text>
<circle cx="362" cy="520" r="4" fill="white" stroke="black" />
<line x1="362" y1="524" x2="362" y2="591" stroke="black" />
<circle cx="362" cy="591" r="4" fill="white" stroke="black" />
<text x="362" y="603" font-family="Verdana" font-size="8" text-anchor="middle"  dominant-baseline="middle" fill="black" > 576</text>
<circle cx="387" cy="520" r="4" fill="white" stroke="black" />
<line x1="387" y1="524" x2="387" y2="591" stroke="black" />
<circle cx="387" cy="591" r="4" fill="white" stroke="black" />
<text x="387" y="603" font-family="Verdana" font-size="8" text-anchor="middle"  dominant-baseline="middle" fill="black" > 576</text>
<text x="500" y="7" font-family="Verdana" font-size="7" text-anchor="middle"  dominant-baseline="middle" fill="black" > C3</text>
<circle cx="500" cy="15" r="4" fill="white" stroke="black" />
<line x1="500" y1="19" x2="500" y2="124" stroke="black" />
<line x1="450" y1="124" x2="550" y2="124" stroke="black" />
<text x="525" y="116" font-family="Verdana" font-size="8" text-anchor="middle"  dominant-baseline="middle" fill="black" > 109</text>
<circle cx="450" cy="124" r="4" fill="white" stroke="black" />
<circle cx="550" cy="124" r="4" fill="white" stroke="black" />
<line x1="450" y1="128" x2="450" y2="162" stroke="black" />
<line x1="450" y1="162" x2="500" y2="174" stroke="black" />
<line x1="550" y1="128" x2="550" y2="162" stroke="black" />
<line x1="550" y1="162" x2="500" y2="174" stroke="black" />
<text x="500" y="162" font-family="Verdana" font-size="8" text-anchor="middle"  dominant-baseline="middle" fill="black" > 159</text>
<circle cx="500" cy="174" r="4" fill="white" stroke="black" />
<line x1="500" y1="178" x2="500" y2="255" stroke="black" />
<line x1="496" y1="251" x2="504" y2="259" stroke="red" />
<line x1="496" y1="259" x2="504" y2="251" stroke="red" />
<text x="500" y="267" font-family="Verdana" font-size="8" text-anchor="middle"  dominant-baseline="middle" fill="black" > 240</text>
<text x="700" y="7" font-family="Verdana" font-size="7" text-anchor="middle"  dominant-baseline="middle" fill="black" > C4</text>
<circle cx="700" cy="15" r="4" fill="white" stroke="black" />
<line x1="700" y1="19" x2="700" y2="110" stroke="black" />
<line x1="650" y1="110" x2="750" y2="110" stroke="black" />
<text x="725" y="102" font-family="Verdana" font-size="8" text-anchor="middle"  dominant-baseline="middle" fill="black" > 95</text>
<circle cx="650" cy="110" r="4" fill="white" stroke="black" />
<line x1="650" y1="114" x2="650" y2="271" stroke="black" />
<line x1="625" y1="271" x2="675" y2="271" stroke="black" />
<text x="662" y="263" font-family="Verdana" font-size="8" text-anchor="middle"  dominant-baseline="middle" fill="black" > 256</text>
<circle cx="625" cy="271" r="4" fill="white" stroke="black" />
<line x1="625" y1="275" x2="625" y2="330" stroke="black" />
<line x1="612" y1="330" x2="638" y2="330" stroke="black" />
<text x="631" y="322" font-family="Verdana" font-size="8" text-anchor="middle"  dominant-baseline="middle" fill="black" > 315</text>
<circle cx="612" cy="330" r="4" fill="white" stroke="black" />
<line x1="612" y1="334" x2="612" y2="427" stroke="black" />
<line x1="606" y1="427" x2="619" y2="427" stroke="black" />
<text x="615" y="419" font-family="Verdana" font-size="8" text-anchor="middle"  dominant-baseline="middle" fill="black" > 412</text>
<circle cx="606" cy="427" r="4" fill="white" stroke="black" />
<line x1="606" y1="431" x2="606" y2="548" stroke="black" />
<line x1="602" y1="544" x2="610" y2="552" stroke="red" />
<line x1="602" y1="552" x2="610" y2="544" stroke="red" />
<text x="606" y="560" font-family="Verdana" font-size="8" text-anchor="middle"  dominant-baseline="middle" fill="black" > 533</text>
<circle cx="618" cy="427" r="4" fill="white" stroke="black" />
<line x1="618" y1="431" x2="618" y2="591" stroke="black" />
<circle cx="618" cy="591" r="4" fill="white" stroke="black" />
<text x="618" y="603" font-family="Verdana" font-size="8" text-anchor="middle"  dominant-baseline="middle" fill="black" > 576</text>
<circle cx="637" cy="330" r="4" fill="white" stroke="black" />
<line x1="637" y1="334" x2="637" y2="431" stroke="black" />
<line x1="631" y1="431" x2="644" y2="431" stroke="black" />
<text x="640" y="423" font-family="Verdana" font-size="8" text-anchor="middle"  dominant-baseline="middle" fill="black" > 416</text>
<circle cx="631" cy="431" r="4" fill="white" stroke="black" />
<line x1="631" y1="435" x2="631" y2="591" stroke="black" />
<circle cx="631" cy="591" r="4" fill="white" stroke="black" />
<text x="631" y="603" font-family="Verdana" font-size="8" text-anchor="middle"  dominant-baseline="middle" fill="black" > 576</text>
<circle cx="643" cy="431" r="4" fill="white" stroke="black" />
<line x1="643" y1="435" x2="643" y2="591" stroke="black" />
<circle cx="643" cy="591" r="4" fill="white" stroke="black" />
<text x="643" y="603" font-family="Verdana" font-size="8" text-anchor="middle"  dominant-baseline="middle" fill="black" > 576</text>
<circle cx="675" cy="271" r="4" fill="white" stroke="black" />
<line x1="675" y1="275" x2="675" y2="338" stroke="black" />
<line x1="662" y1="338" x2="688" y2="338" stroke="black" />
<text x="681" y="330" font-family="Verdana" font-size="8" text-anchor="middle"  dominant-baseline="middle" fill="black" > 323</text>
<circle cx="662" cy="338" r="4" fill="white" stroke="black" />
<line x1="662" y1="342" x2="662" y2="435" stroke="black" />
<line x1="656" y1="435" x2="669" y2="435" stroke="black" />
<text x="665" y="427" font-family="Verdana" font-size="8" text-anchor="middle"  dominant-baseline="middle" fill="black" > 420</text>
<circle cx="656" cy="435" r="4" fill="white" stroke="black" />
<line x1="656" y1="439" x2="656" y2="534" stroke="black" />
<line x1="653" y1="534" x2="659" y2="534" stroke="black" />
<text x="657" y="526" font-family="Verdana" font-size="8" text-anchor="middle"  dominant-baseline="middle" fill="black" > 519</text>
<circle cx="653" cy="534" r="4" fill="white" stroke="black" />
<line x1="653" y1="538" x2="653" y2="591" stroke="black" />
<circle cx="653" cy="591" r="4" fill="white" stroke="black" />
<text x="653" y="603" font-family="Verdana" font-size="8" text-anchor="middle"  dominant-baseline="middle" fill="black" > 576</text>
<circle cx="659" cy="534" r="4" fill="white" stroke="black" />
<line x1="659" y1="538" x2="659" y2="591" stroke="black" />
<circle cx="659" cy="591" r="4" fill="white" stroke="black" />
<text x="659" y="603" font-family="Verdana" font-size="8" text-anchor="middle"  dominant-baseline="middle" fill="black" > 576</text>
<circle cx="668" cy="435" r="4" fill="white" stroke="black" />
<line x1="668" y1="439" x2="668" y2="530" stroke="black" />
<line x1="665" y1="530" x2="671" y2="530" stroke="black" />
<text x="669" y="522" font-family="Verdana" font-size="8" text-anchor="middle"  dominant-baseline="middle" fill="black" > 515</text>
<circle cx="665" cy="530" r="4" fill="white" stroke="black" />
<line x1="665" y1="534" x2="665" y2="591" stroke="black" />
<circle cx="665" cy="591" r="4" fill="white" stroke="black" />
<text x="665" y="603" font-family="Verdana" font-size="8" text-anchor="middle"  dominant-baseline="middle" fill="black" > 576</text>
<circle cx="671" cy="530" r="4" fill="white" stroke="black" />
<line x1="671" y1="534" x2="671" y2="591" stroke="black" />
<circle cx="671" cy="591" r="4" fill="white" stroke="black" />
<text x="671" y="603" font-family="Verdana" font-size="8" text-anchor="middle"  dominant-baseline="middle" fill="black" > 576</text>
<circle cx="687" cy="338" r="4" fill="white" stroke="black" />
<line x1="687" y1="342" x2="687" y2="581" stroke="black" />
<line x1="681" y1="581" x2="694" y2="581" stroke="black" />
<text x="690" y="573" font-family="Verdana" font-size="8" text-anchor="middle"  dominant-baseline="middle" fill="black" > 566</text>
<circle cx="681" cy="581" r="4" fill="white" stroke="black" />
<line x1="681" y1="585" x2="681" y2="591" stroke="black" />
<circle cx="681" cy="591" r="4" fill="white" stroke="black" />
<text x="681" y="603" font-family="Verdana" font-size="8" text-anchor="middle"  dominant-baseline="middle" fill="black" > 576</text>
<circle cx="693" cy="581" r="4" fill="white" stroke="black" />
<line x1="693" y1="585" x2="693" y2="591" stroke="black" />
<circle cx="693" cy="591" r="4" fill="white" stroke="black" />
<text x="693" y="603" font-family="Verdana" font-size="8" text-anchor="middle"  dominant-baseline="middle" fill="black" > 576</text>
<circle cx="750" cy="110" r="4" fill="white" stroke="black" />
<line x1="750" y1="114" x2="750" y2="232" stroke="black" />
<line x1="725" y1="232" x2="775" y2="232" stroke="black" />
<text x="762" y="224" font-family="Verdana" font-size="8" text-anchor="middle"  dominant-baseline="middle" fill="black" > 217</text>
<circle cx="725" cy="232" r="4" fill="white" stroke="black" />
<line x1="725" y1="236" x2="725" y2="394" stroke="black" />
<line x1="712" y1="394" x2="738" y2="394" stroke="black" />
<text x="731" y="386" font-family="Verdana" font-size="8" text-anchor="middle"  dominant-baseline="middle" fill="black" > 379</text>
<circle cx="712" cy="394" r="4" fill="white" stroke="black" />
<line x1="712" y1="398" x2="712" y2="476" stroke="black" />
<line x1="706" y1="476" x2="719" y2="476" stroke="black" />
<text x="715" y="468" font-family="Verdana" font-size="8" text-anchor="middle"  dominant-baseline="middle" fill="black" > 461</text>
<circle cx="706" cy="476" r="4" fill="white" stroke="black" />
<line x1="706" y1="480" x2="706" y2="591" stroke="black" />
<circle cx="706" cy="591" r="4" fill="white" stroke="black" />
<text x="706" y="603" font-family="Verdana" font-size="8" text-anchor="middle"  dominant-baseline="middle" fill="black" > 576</text>
<circle cx="718" cy="476" r="4" fill="white" stroke="black" />
<line x1="718" y1="480" x2="718" y2="591" stroke="black" />
<circle cx="718" cy="591" r="4" fill="white" stroke="black" />
<text x="718" y="603" font-family="Verdana" font-size="8" text-anchor="middle"  dominant-baseline="middle" fill="black" > 576</text>
<circle cx="737" cy="394" r="4" fill="white" stroke="black" />
<line x1="737" y1="398" x2="737" y2="473" stroke="black" />
<line x1="731" y1="473" x2="744" y2="473" stroke="black" />
<text x="740" y="465" font-family="Verdana" font-size="8" text-anchor="middle"  dominant-baseline="middle" fill="black" > 458</text>
<circle cx="731" cy="473" r="4" fill="white" stroke="black" />
<line x1="731" y1="477" x2="731" y2="586" stroke="black" />
<line x1="728" y1="586" x2="734" y2="586" stroke="black" />
<text x="732" y="578" font-family="Verdana" font-size="8" text-anchor="middle"  dominant-baseline="middle" fill="black" > 571</text>
<circle cx="728" cy="586" r="4" fill="white" stroke="black" />
<line x1="728" y1="590" x2="728" y2="591" stroke="black" />
<circle cx="728" cy="591" r="4" fill="white" stroke="black" />
<text x="728" y="603" font-family="Verdana" font-size="8" text-anchor="middle"  dominant-baseline="middle" fill="black" > 576</text>
<circle cx="734" cy="586" r="4" fill="white" stroke="black" />
<line x1="734" y1="590" x2="734" y2="591" stroke="black" />
<circle cx="734" cy="591" r="4" fill="white" stroke="black" />
<text x="734" y="603" font-family="Verdana" font-size="8" text-anchor="middle"  dominant-baseline="middle" fill="black" > 576</text>
<circle cx="743" cy="473" r="4" fill="white" stroke="black" />
<line x1="743" y1="477" x2="743" y2="589" stroke="black" />
<line x1="740" y1="589" x2="746" y2="589" stroke="black" />
<text x="744" y="581" font-family="Verdana" font-size="8" text-anchor="middle"  dominant-baseline="middle" fill="black" > 574</text>
<circle cx="740" cy="589" r="4" fill="white" stroke="black" />
<line x1="740" y1="593" x2="740" y2="591" stroke="black" />
<circle cx="740" cy="591" r="4" fill="white" stroke="black" />
<text x="740" y="603" font-family="Verdana" font-size="8" text-anchor="middle"  dominant-baseline="middle" fill="black" > 576</text>
<circle cx="746" cy="589" r="4" fill="white" stroke="black" />
<line x1="746" y1="593" x2="746" y2="591" stroke="black" />
<circle cx="746" cy="591" r="4" fill="white" stroke="black" />
<text x="746" y="603" font-family="Verdana" font-size="8" text-anchor="middle"  dominant-baseline="middle" fill="black" > 576</text>
<circle cx="775" cy="232" r="4" fill="white" stroke="black" />
<line x1="775" y1="236" x2="775" y2="383" stroke="black" />
<line x1="762" y1="383" x2="788" y2="383" stroke="black" />
<text x="781" y="375" font-family="Verdana" font-size="8" text-anchor="middle"  dominant-baseline="middle" fill="black" > 368</text>
<circle cx="762" cy="383" r="4" fill="white" stroke="black" />
<line x1="762" y1="387" x2="762" y2="521" stroke="black" />
<line x1="756" y1="521" x2="769" y2="521" stroke="black" />
<text x="765" y="513" font-family="Verdana" font-size="8" text-anchor="middle"  dominant-baseline="middle" fill="black" > 506</text>
<circle cx="756" cy="521" r="4" fill="white" stroke="black" />
<line x1="756" y1="525" x2="756" y2="591" stroke="black" />
<circle cx="756" cy="591" r="4" fill="white" stroke="black" />
<text x="756" y="603" font-family="Verdana" font-size="8" text-anchor="middle"  dominant-baseline="middle" fill="black" > 576</text>
<circle cx="768" cy="521" r="4" fill="white" stroke="black" />
<line x1="768" y1="525" x2="768" y2="591" stroke="black" />
<circle cx="768" cy="591" r="4" fill="white" stroke="black" />
<text x="768" y="603" font-family="Verdana" font-size="8" text-anchor="middle"  dominant-baseline="middle" fill="black" > 576</text>
<circle cx="787" cy="383" r="4" fill="white" stroke="black" />
<line x1="787" y1="387" x2="787" y2="496" stroke="black" />
<line x1="781" y1="496" x2="794" y2="496" stroke="black" />
<text x="790" y="488" font-family="Verdana" font-size="8" text-anchor="middle"  dominant-baseline="middle" fill="black" > 481</text>
<circle cx="781" cy="496" r="4" fill="white" stroke="black" />
<line x1="781" y1="500" x2="781" y2="591" stroke="black" />
<circle cx="781" cy="591" r="4" fill="white" stroke="black" />
<text x="781" y="603" font-family="Verdana" font-size="8" text-anchor="middle"  dominant-baseline="middle" fill="black" > 576</text>
<circle cx="793" cy="496" r="4" fill="white" stroke="black" />
<line x1="793" y1="500" x2="793" y2="591" stroke="black" />
<circle cx="793" cy="591" r="4" fill="white" stroke="black" />
<text x="793" y="603" font-family="Verdana" font-size="8" text-anchor="middle"  dominant-baseline="middle" fill="black" > 576</text>
<text x="900" y="7" font-family="Verdana" font-size="7" text-anchor="middle"  dominant-baseline="middle" fill="black" > C5</text>
<circle cx="900" cy="15" r="4" fill="white" stroke="black" />
<line x1="900" y1="19" x2="900" y2="113" stroke="black" />
<line x1="850" y1="113" x2="950" y2="113" stroke="black" />
<text x="925" y="105" font-family="Verdana" font-size="8" text-anchor="middle"  dominant-baseline="middle" fill="black" > 98</text>
<circle cx="850" cy="113" r="4" fill="white" stroke="black" />
<line x1="850" y1="117" x2="850" y2="268" stroke="black" />
<line x1="825" y1="268" x2="875" y2="268" stroke="black" />
<text x="862" y="260" font-family="Verdana" font-size="8" text-anchor="middle"  dominant-baseline="middle" fill="black" > 253</text>
<circle cx="825" cy="268" r="4" fill="white" stroke="black" />
<line x1="825" y1="272" x2="825" y2="437" stroke="black" />
<line x1="812" y1="437" x2="838" y2="437" stroke="black" />
<text x="831" y="429" font-family="Verdana" font-size="8" text-anchor="middle"  dominant-baseline="middle" fill="black" > 422</text>
<circle cx="812" cy="437" r="4" fill="white" stroke="black" />
<line x1="812" y1="441" x2="812" y2="591" stroke="black" />
<circle cx="812" cy="591" r="4" fill="white" stroke="black" />
<text x="812" y="603" font-family="Verdana" font-size="8" text-anchor="middle"  dominant-baseline="middle" fill="black" > 576</text>
<circle cx="837" cy="437" r="4" fill="white" stroke="black" />
<line x1="837" y1="441" x2="837" y2="544" stroke="black" />
<line x1="831" y1="544" x2="844" y2="544" stroke="black" />
<text x="840" y="536" font-family="Verdana" font-size="8" text-anchor="middle"  dominant-baseline="middle" fill="black" > 529</text>
<circle cx="831" cy="544" r="4" fill="white" stroke="black" />
<line x1="831" y1="548" x2="831" y2="591" stroke="black" />
<circle cx="831" cy="591" r="4" fill="white" stroke="black" />
<text x="831" y="603" font-family="Verdana" font-size="8" text-anchor="middle"  dominant-baseline="middle" fill="black" > 576</text>
<circle cx="843" cy="544" r="4" fill="white" stroke="black" />
<line x1="843" y1="548" x2="843" y2="591" stroke="black" />
<circle cx="843" cy="591" r="4" fill="white" stroke="black" />
<text x="843" y="603" font-family="Verdana" font-size="8" text-anchor="middle"  dominant-baseline="middle" fill="black" > 576</text>
<circle cx="875" cy="268" r="4" fill="white" stroke="black" />
<line x1="875" y1="272" x2="875" y2="462" stroke="black" />
<line x1="862" y1="462" x2="888" y2="462" stroke="black" />
<text x="881" y="454" font-family="Verdana" font-size="8" text-anchor="middle"  dominant-baseline="middle" fill="black" > 447</text>
<circle cx="862" cy="462" r="4" fill="white" stroke="black" />
<line x1="862" y1="466" x2="862" y2="586" stroke="black" />
<line x1="856" y1="586" x2="869" y2="586" stroke="black" />
<text x="865" y="578" font-family="Verdana" font-size="8" text-anchor="middle"  dominant-baseline="middle" fill="black" > 571</text>
<circle cx="856" cy="586" r="4" fill="white" stroke="black" />
<line x1="856" y1="590" x2="856" y2="591" stroke="black" />
<circle cx="856" cy="591" r="4" fill="white" stroke="black" />
<text x="856" y="603" font-family="Verdana" font-size="8" text-anchor="middle"  dominant-baseline="middle" fill="black" > 576</text>
<circle cx="868" cy="586" r="4" fill="white" stroke="black" />
<line x1="868" y1="590" x2="868" y2="586" stroke="black" />
<circle cx="868" cy="586" r="4" fill="white" stroke="black" />
<text x="868" y="598" font-family="Verdana" font-size="8" text-anchor="middle"  dominant-baseline="middle" fill="black" > 571</text>
<circle cx="887" cy="462" r="4" fill="white" stroke="black" />
<line x1="887" y1="466" x2="887" y2="538" stroke="black" />
<line x1="881" y1="538" x2="894" y2="538" stroke="black" />
<text x="890" y="530" font-family="Verdana" font-size="8" text-anchor="middle"  dominant-baseline="middle" fill="black" > 523</text>
<circle cx="881" cy="538" r="4" fill="white" stroke="black" />
<line x1="881" y1="542" x2="881" y2="591" stroke="black" />
<circle cx="881" cy="591" r="4" fill="white" stroke="black" />
<text x="881" y="603" font-family="Verdana" font-size="8" text-anchor="middle"  dominant-baseline="middle" fill="black" > 576</text>
<circle cx="893" cy="538" r="4" fill="white" stroke="black" />
<line x1="893" y1="542" x2="893" y2="591" stroke="black" />
<circle cx="893" cy="591" r="4" fill="white" stroke="black" />
<text x="893" y="603" font-family="Verdana" font-size="8" text-anchor="middle"  dominant-baseline="middle" fill="black" > 576</text>
<circle cx="950" cy="113" r="4" fill="white" stroke="black" />
<line x1="950" y1="117" x2="950" y2="254" stroke="black" />
<line x1="925" y1="254" x2="975" y2="254" stroke="black" />
<text x="962" y="246" font-family="Verdana" font-size="8" text-anchor="middle"  dominant-baseline="middle" fill="black" > 239</text>
<circle cx="925" cy="254" r="4" fill="white" stroke="black" />
<line x1="925" y1="258" x2="925" y2="389" stroke="black" />
<line x1="912" y1="389" x2="938" y2="389" stroke="black" />
<text x="931" y="381" font-family="Verdana" font-size="8" text-anchor="middle"  dominant-baseline="middle" fill="black" > 374</text>
<circle cx="912" cy="389" r="4" fill="white" stroke="black" />
<line x1="912" y1="393" x2="912" y2="578" stroke="black" />
<line x1="906" y1="578" x2="919" y2="578" stroke="black" />
<text x="915" y="570" font-family="Verdana" font-size="8" text-anchor="middle"  dominant-baseline="middle" fill="black" > 563</text>
<circle cx="906" cy="578" r="4" fill="white" stroke="black" />
<line x1="906" y1="582" x2="906" y2="591" stroke="black" />
<circle cx="906" cy="591" r="4" fill="white" stroke="black" />
<text x="906" y="603" font-family="Verdana" font-size="8" text-anchor="middle"  dominant-baseline="middle" fill="black" > 576</text>
<circle cx="918" cy="578" r="4" fill="white" stroke="black" />
<line x1="918" y1="582" x2="918" y2="591" stroke="black" />
<circle cx="918" cy="591" r="4" fill="white" stroke="black" />
<text x="918" y="603" font-family="Verdana" font-size="8" text-anchor="middle"  dominant-baseline="middle" fill="black" > 576</text>
<circle cx="937" cy="389" r="4" fill="white" stroke="black" />
<line x1="937" y1="393" x2="937" y2="579" stroke="black" />
<line x1="931" y1="579" x2="944" y2="579" stroke="black" />
<text x="940" y="571" font-family="Verdana" font-size="8" text-anchor="middle"  dominant-baseline="middle" fill="black" > 564</text>
<circle cx="931" cy="579" r="4" fill="white" stroke="black" />
<line x1="931" y1="583" x2="931" y2="591" stroke="black" />
<circle cx="931" cy="591" r="4" fill="white" stroke="black" />
<text x="931" y="603" font-family="Verdana" font-size="8" text-anchor="middle"  dominant-baseline="middle" fill="black" > 576</text>
<circle cx="943" cy="579" r="4" fill="white" stroke="black" />
<line x1="943" y1="583" x2="943" y2="591" stroke="black" />
<circle cx="943" cy="591" r="4" fill="white" stroke="black" />
<text x="943" y="603" font-family="Verdana" font-size="8" text-anchor="middle"  dominant-baseline="middle" fill="black" > 576</text>
<circle cx="975" cy="254" r="4" fill="white" stroke="black" />
<line x1="975" y1="258" x2="975" y2="387" stroke="black" />
<line x1="962" y1="387" x2="988" y2="387" stroke="black" />
<text x="981" y="379" font-family="Verdana" font-size="8" text-anchor="middle"  dominant-baseline="middle" fill="black" > 372</text>
<circle cx="962" cy="387" r="4" fill="white" stroke="black" />
<line x1="962" y1="391" x2="962" y2="527" stroke="black" />
<line x1="956" y1="527" x2="969" y2="527" stroke="black" />
<text x="965" y="519" font-family="Verdana" font-size="8" text-anchor="middle"  dominant-baseline="middle" fill="black" > 512</text>
<circle cx="956" cy="527" r="4" fill="white" stroke="black" />
<line x1="956" y1="531" x2="956" y2="591" stroke="black" />
<circle cx="956" cy="591" r="4" fill="white" stroke="black" />
<text x="956" y="603" font-family="Verdana" font-size="8" text-anchor="middle"  dominant-baseline="middle" fill="black" > 576</text>
<circle cx="968" cy="527" r="4" fill="white" stroke="black" />
<line x1="968" y1="531" x2="968" y2="591" stroke="black" />
<circle cx="968" cy="591" r="4" fill="white" stroke="black" />
<text x="968" y="603" font-family="Verdana" font-size="8" text-anchor="middle"  dominant-baseline="middle" fill="black" > 576</text>
<circle cx="987" cy="387" r="4" fill="white" stroke="black" />
<line x1="987" y1="391" x2="987" y2="544" stroke="black" />
<line x1="981" y1="544" x2="994" y2="544" stroke="black" />
<text x="990" y="536" font-family="Verdana" font-size="8" text-anchor="middle"  dominant-baseline="middle" fill="black" > 529</text>
<circle cx="981" cy="544" r="4" fill="white" stroke="black" />
<line x1="981" y1="548" x2="981" y2="591" stroke="black" />
<circle cx="981" cy="591" r="4" fill="white" stroke="black" />
<text x="981" y="603" font-family="Verdana" font-size="8" text-anchor="middle"  dominant-baseline="middle" fill="black" > 576</text>
<circle cx="993" cy="544" r="4" fill="white" stroke="black" />
<line x1="993" y1="548" x2="993" y2="591" stroke="black" />
<circle cx="993" cy="591" r="4" fill="white" stroke="black" />
<text x="993" y="603" font-family="Verdana" font-size="8" text-anchor="middle"  dominant-baseline="middle" fill="black" > 576</text>
<text x="1100" y="7" font-family="Verdana" font-size="7" text-anchor="middle"  dominant-baseline="middle" fill="black" > C6</text>
<circle cx="1100" cy="15" r="4" fill="white" stroke="black" />
<line x1="1100" y1="19" x2="1100" y2="103" stroke="black" />
<line x1="1050" y1="103" x2="1150" y2="103" stroke="black" />
<text x="1125" y="95" font-family="Verdana" font-size="8" text-anchor="middle"  dominant-baseline="middle" fill="black" > 88</text>
<circle cx="1050" cy="103" r="4" fill="white" stroke="black" />
<line x1="1050" y1="107" x2="1050" y2="261" stroke="black" />
<line x1="1025" y1="261" x2="1075" y2="261" stroke="black" />
<text x="1062" y="253" font-family="Verdana" font-size="8" text-anchor="middle"  dominant-baseline="middle" fill="black" > 246</text>
<circle cx="1025" cy="261" r="4" fill="white" stroke="black" />
<line x1="1025" y1="265" x2="1025" y2="494" stroke="black" />
<line x1="1012" y1="494" x2="1038" y2="494" stroke="black" />
<text x="1031" y="486" font-family="Verdana" font-size="8" text-anchor="middle"  dominant-baseline="middle" fill="black" > 479</text>
<circle cx="1012" cy="494" r="4" fill="white" stroke="black" />
<circle cx="1037" cy="494" r="4" fill="white" stroke="black" />
<line x1="1012" y1="498" x2="1012" y2="559" stroke="black" />
<line x1="1012" y1="559" x2="1024" y2="580" stroke="black" />
<line x1="1037" y1="498" x2="1037" y2="559" stroke="black" />
<line x1="1037" y1="559" x2="1024" y2="580" stroke="black" />
<text x="1024" y="568" font-family="Verdana" font-size="8" text-anchor="middle"  dominant-baseline="middle" fill="black" > 565</text>
<circle cx="1024" cy="580" r="4" fill="white" stroke="black" />
<line x1="1024" y1="584" x2="1024" y2="590" stroke="black" />
<line x1="1016" y1="590" x2="1033" y2="590" stroke="black" />
<text x="1026" y="582" font-family="Verdana" font-size="8" text-anchor="middle"  dominant-baseline="middle" fill="black" > 575</text>
<circle cx="1016" cy="590" r="4" fill="white" stroke="black" />
<line x1="1016" y1="594" x2="1016" y2="591" stroke="black" />
<circle cx="1016" cy="591" r="4" fill="white" stroke="black" />
<text x="1016" y="603" font-family="Verdana" font-size="8" text-anchor="middle"  dominant-baseline="middle" fill="black" > 576</text>
<circle cx="1024" cy="590" r="4" fill="white" stroke="black" />
<line x1="1024" y1="594" x2="1024" y2="591" stroke="black" />
<circle cx="1024" cy="591" r="4" fill="white" stroke="black" />
<text x="1024" y="603" font-family="Verdana" font-size="8" text-anchor="middle"  dominant-baseline="middle" fill="black" > 576</text>
<circle cx="1032" cy="590" r="4" fill="white" stroke="black" />
<line x1="1032" y1="594" x2="1032" y2="591" stroke="black" />
<circle cx="1032" cy="591" r="4" fill="white" stroke="black" />
<text x="1032" y="603" font-family="Verdana" font-size="8" text-anchor="middle"  dominant-baseline="middle" fill="black" > 576</text>
<circle cx="1075" cy="261" r="4" fill="white" stroke="black" />
<line x1="1075" y1="265" x2="1075" y2="492" stroke="black" />
<line x1="1062" y1="492" x2="1088" y2="492" stroke="black" />
<text x="1081" y="484" font-family="Verdana" font-size="8" text-anchor="middle"  dominant-baseline="middle" fill="black" > 477</text>
<circle cx="1062" cy="492" r="4" fill="white" stroke="black" />
<line x1="1062" y1="496" x2="1062" y2="558" stroke="black" />
<line x1="1056" y1="558" x2="1069" y2="558" stroke="black" />
<text x="1065" y="550" font-family="Verdana" font-size="8" text-anchor="middle"  dominant-baseline="middle" fill="black" > 543</text>
<circle cx="1056" cy="558" r="4" fill="white" stroke="black" />
<line x1="1056" y1="562" x2="1056" y2="591" stroke="black" />
<circle cx="1056" cy="591" r="4" fill="white" stroke="black" />
<text x="1056" y="603" font-family="Verdana" font-size="8" text-anchor="middle"  dominant-baseline="middle" fill="black" > 576</text>
<circle cx="1068" cy="558" r="4" fill="white" stroke="black" />
<line x1="1068" y1="562" x2="1068" y2="591" stroke="black" />
<circle cx="1068" cy="591" r="4" fill="white" stroke="black" />
<text x="1068" y="603" font-family="Verdana" font-size="8" text-anchor="middle"  dominant-baseline="middle" fill="black" > 576</text>
<circle cx="1087" cy="492" r="4" fill="white" stroke="black" />
<line x1="1087" y1="496" x2="1087" y2="578" stroke="black" />
<line x1="1081" y1="578" x2="1094" y2="578" stroke="black" />
<text x="1090" y="570" font-family="Verdana" font-size="8" text-anchor="middle"  dominant-baseline="middle" fill="black" > 563</text>
<circle cx="1081" cy="578" r="4" fill="white" stroke="black" />
<line x1="1081" y1="582" x2="1081" y2="591" stroke="black" />
<circle cx="1081" cy="591" r="4" fill="white" stroke="black" />
<text x="1081" y="603" font-family="Verdana" font-size="8" text-anchor="middle"  dominant-baseline="middle" fill="black" > 576</text>
<circle cx="1093" cy="578" r="4" fill="white" stroke="black" />
<line x1="1093" y1="582" x2="1093" y2="591" stroke="black" />
<circle cx="1093" cy="591" r="4" fill="white" stroke="black" />
<text x="1093" y="603" font-family="Verdana" font-size="8" text-anchor="middle"  dominant-baseline="middle" fill="black" > 576</text>
<circle cx="1150" cy="103" r="4" fill="white" stroke="black" />
<line x1="1150" y1="107" x2="1150" y2="249" stroke="black" />
<line x1="1125" y1="249" x2="1175" y2="249" stroke="black" />
<text x="1162" y="241" font-family="Verdana" font-size="8" text-anchor="middle"  dominant-baseline="middle" fill="black" > 234</text>
<circle cx="1125" cy="249" r="4" fill="white" stroke="black" />
<line x1="1125" y1="253" x2="1125" y2="386" stroke="black" />
<line x1="1121" y1="382" x2="1129" y2="390" stroke="red" />
<line x1="1121" y1="390" x2="1129" y2="382" stroke="red" />
<text x="1125" y="398" font-family="Verdana" font-size="8" text-anchor="middle"  dominant-baseline="middle" fill="black" > 371</text>
<circle cx="1175" cy="249" r="4" fill="white" stroke="black" />
<line x1="1175" y1="253" x2="1175" y2="398" stroke="black" />
<line x1="1162" y1="398" x2="1188" y2="398" stroke="black" />
<text x="1181" y="390" font-family="Verdana" font-size="8" text-anchor="middle"  dominant-baseline="middle" fill="black" > 383</text>
<circle cx="1162" cy="398" r="4" fill="white" stroke="black" />
<line x1="1162" y1="402" x2="1162" y2="560" stroke="black" />
<line x1="1154" y1="560" x2="1171" y2="560" stroke="black" />
<text x="1164" y="552" font-family="Verdana" font-size="8" text-anchor="middle"  dominant-baseline="middle" fill="black" > 545</text>
<circle cx="1154" cy="560" r="4" fill="white" stroke="black" />
<line x1="1154" y1="564" x2="1154" y2="591" stroke="black" />
<circle cx="1154" cy="591" r="4" fill="white" stroke="black" />
<text x="1154" y="603" font-family="Verdana" font-size="8" text-anchor="middle"  dominant-baseline="middle" fill="black" > 576</text>
<circle cx="1162" cy="560" r="4" fill="white" stroke="black" />
<line x1="1162" y1="564" x2="1162" y2="591" stroke="black" />
<circle cx="1162" cy="591" r="4" fill="white" stroke="black" />
<text x="1162" y="603" font-family="Verdana" font-size="8" text-anchor="middle"  dominant-baseline="middle" fill="black" > 576</text>
<circle cx="1170" cy="560" r="4" fill="white" stroke="black" />
<line x1="1170" y1="564" x2="1170" y2="591" stroke="black" />
<circle cx="1170" cy="591" r="4" fill="white" stroke="black" />
<text x="1170" y="603" font-family="Verdana" font-size="8" text-anchor="middle"  dominant-baseline="middle" fill="black" > 576</text>
<circle cx="1187" cy="398" r="4" fill="white" stroke="black" />
<line x1="1187" y1="402" x2="1187" y2="545" stroke="black" />
<line x1="1181" y1="545" x2="1194" y2="545" stroke="black" />
<text x="1190" y="537" font-family="Verdana" font-size="8" text-anchor="middle"  dominant-baseline="middle" fill="black" > 530</text>
<circle cx="1181" cy="545" r="4" fill="white" stroke="black" />
<line x1="1181" y1="549" x2="1181" y2="591" stroke="black" />
<circle cx="1181" cy="591" r="4" fill="white" stroke="black" />
<text x="1181" y="603" font-family="Verdana" font-size="8" text-anchor="middle"  dominant-baseline="middle" fill="black" > 576</text>
<circle cx="1193" cy="545" r="4" fill="white" stroke="black" />
<line x1="1193" y1="549" x2="1193" y2="591" stroke="black" />
<circle cx="1193" cy="591" r="4" fill="white" stroke="black" />
<text x="1193" y="603" font-family="Verdana" font-size="8" text-anchor="middle"  dominant-baseline="middle" fill="black" > 576</text>
</svg>
