<?xml version="1.0" encoding="utf-8"?>
<svg xmlns="http://www.w3.org/2000/svg" version="1.1" width="950" height="750">
<rect width="950" height="15" x="0" y="0" fill="white" />
<rect width="950" height="15" x="0" y="735" fill="white" />
<rect width="25" height="750" x="0" y="0" fill="white" />
<rect width="25" height="750" x="925" y="0" fill="white" />
<rect width="910" height="144" x="25" y="15" fill="ghostwhite" />
<rect width="910" height="144" x="25" y="159" fill="snow" />
<rect width="910" height="144" x="25" y="303" fill="ghostwhite" />
<rect width="910" height="144" x="25" y="447" fill="snow" />
<rect width="910" height="144" x="25" y="591" fill="ghostwhite" />
<text x="12" y="87" font-family="Verdana" font-size="10" text-anchor="middle"  dominant-baseline="middle" fill="red" > D0</text>
<text x="12" y="231" font-family="Verdana" font-size="10" text-anchor="middle"  dominant-baseline="middle" fill="red" > D1</text>
<text x="12" y="375" font-family="Verdana" font-size="10" text-anchor="middle"  dominant-baseline="middle" fill="red" > D2</text>
<text x="12" y="519" font-family="Verdana" font-size="10" text-anchor="middle"  dominant-baseline="middle" fill="red" > D3</text>
<text x="12" y="663" font-family="Verdana" font-size="10" text-anchor="middle"  dominant-baseline="middle" fill="red" > D4</text>
<text x="12" y="20" font-family="Verdana" font-size="10" text-anchor="middle"  dominant-baseline="middle" fill="black" > 0</text>
<text x="12" y="164" font-family="Verdana" font-size="10" text-anchor="middle"  dominant-baseline="middle" fill="black" > 144</text>
<text x="12" y="308" font-family="Verdana" font-size="10" text-anchor="middle"  dominant-baseline="middle" fill="black" > 288</text>
<text x="12" y="452" font-family="Verdana" font-size="10" text-anchor="middle"  dominant-baseline="middle" fill="black" > 432</text>
<text x="12" y="596" font-family="Verdana" font-size="10" text-anchor="middle"  dominant-baseline="middle" fill="black" > 576</text>
<text x="12" y="740" font-family="Verdana" font-size="10" text-anchor="middle"  dominant-baseline="middle" fill="black" > 720</text>
<text x="50" y="7" font-family="Verdana" font-size="7" text-anchor="middle"  dominant-baseline="middle" fill="black" > C1</text>
<circle cx="50" cy="15" r="4" fill="white" stroke="black" />
<line x1="50" y1="19" x2="50" y2="241" stroke="black" />
<line x1="46" y1="237" x2="54" y2="245" stroke="red" />
<line x1="46" y1="245" x2="54" y2="237" stroke="red" />
<text x="50" y="253" font-family="Verdana" font-size="8" text-anchor="middle"  dominant-baseline="middle" fill="black" > 226</text>
<text x="200" y="7" font-family="Verdana" font-size="7" text-anchor="middle"  dominant-baseline="middle" fill="black" > C2</text>
<circle cx="200" cy="15" r="4" fill="white" stroke="black" />
<line x1="200" y1="19" x2="200" y2="175" stroke="black" />
<line x1="150" y1="175" x2="250" y2="175" stroke="black" />
<text x="225" y="167" font-family="Verdana" font-size="8" text-anchor="middle"  dominant-baseline="middle" fill="black" > 160</text>
<circle cx="150" cy="175" r="4" fill="white" stroke="black" />
<line x1="150" y1="179" x2="150" y2="296" stroke="black" />
<line x1="125" y1="296" x2="175" y2="296" stroke="black" />
<text x="162" y="288" font-family="Verdana" font-size="8" text-anchor="middle"  dominant-baseline="middle" fill="black" > 281</text>
<circle cx="125" cy="296" r="4" fill="white" stroke="black" />
<line x1="125" y1="300" x2="125" y2="401" stroke="black" />
<line x1="112" y1="401" x2="138" y2="401" stroke="black" />
<text x="131" y="393" font-family="Verdana" font-size="8" text-anchor="middle"  dominant-baseline="middle" fill="black" > 386</text>
<circle cx="112" cy="401" r="4" fill="white" stroke="black" />
<line x1="112" y1="405" x2="112" y2="525" stroke="black" />
<line x1="106" y1="525" x2="119" y2="525" stroke="black" />
<text x="115" y="517" font-family="Verdana" font-size="8" text-anchor="middle"  dominant-baseline="middle" fill="black" > 510</text>
<circle cx="106" cy="525" r="4" fill="white" stroke="black" />
<line x1="106" y1="529" x2="106" y2="591" stroke="black" />
<circle cx="106" cy="591" r="4" fill="white" stroke="black" />
<text x="106" y="603" font-family="Verdana" font-size="8" text-anchor="middle"  dominant-baseline="middle" fill="black" > 576</text>
<circle cx="118" cy="525" r="4" fill="white" stroke="black" />
<line x1="118" y1="529" x2="118" y2="591" stroke="black" />
<circle cx="118" cy="591" r="4" fill="white" stroke="black" />
<text x="118" y="603" font-family="Verdana" font-size="8" text-anchor="middle"  dominant-baseline="middle" fill="black" > 576</text>
<circle cx="137" cy="401" r="4" fill="white" stroke="black" />
<line x1="137" y1="405" x2="137" y2="557" stroke="black" />
<line x1="131" y1="557" x2="144" y2="557" stroke="black" />
<text x="140" y="549" font-family="Verdana" font-size="8" text-anchor="middle"  dominant-baseline="middle" fill="black" > 542</text>
<circle cx="131" cy="557" r="4" fill="white" stroke="black" />
<line x1="131" y1="561" x2="131" y2="591" stroke="black" />
<circle cx="131" cy="591" r="4" fill="white" stroke="black" />
<text x="131" y="603" font-family="Verdana" font-size="8" text-anchor="middle"  dominant-baseline="middle" fill="black" > 576</text>
<circle cx="143" cy="557" r="4" fill="white" stroke="black" />
<line x1="143" y1="561" x2="143" y2="591" stroke="black" />
<circle cx="143" cy="591" r="4" fill="white" stroke="black" />
<text x="143" y="603" font-family="Verdana" font-size="8" text-anchor="middle"  dominant-baseline="middle" fill="black" > 576</text>
<circle cx="175" cy="296" r="4" fill="white" stroke="black" />
<line x1="175" y1="300" x2="175" y2="402" stroke="black" />
<line x1="162" y1="402" x2="188" y2="402" stroke="black" />
<text x="181" y="394" font-family="Verdana" font-size="8" text-anchor="middle"  dominant-baseline="middle" fill="black" > 387</text>
<circle cx="162" cy="402" r="4" fill="white" stroke="black" />
<line x1="162" y1="406" x2="162" y2="511" stroke="black" />
<line x1="156" y1="511" x2="169" y2="511" stroke="black" />
<text x="165" y="503" font-family="Verdana" font-size="8" text-anchor="middle"  dominant-baseline="middle" fill="black" > 496</text>
<circle cx="156" cy="511" r="4" fill="white" stroke="black" />
<line x1="156" y1="515" x2="156" y2="591" stroke="black" />
<circle cx="156" cy="591" r="4" fill="white" stroke="black" />
<text x="156" y="603" font-family="Verdana" font-size="8" text-anchor="middle"  dominant-baseline="middle" fill="black" > 576</text>
<circle cx="168" cy="511" r="4" fill="white" stroke="black" />
<line x1="168" y1="515" x2="168" y2="591" stroke="black" />
<circle cx="168" cy="591" r="4" fill="white" stroke="black" />
<text x="168" y="603" font-family="Verdana" font-size="8" text-anchor="middle"  dominant-baseline="middle" fill="black" > 576</text>
<circle cx="187" cy="402" r="4" fill="white" stroke="black" />
<line x1="187" y1="406" x2="187" y2="516" stroke="black" />
<line x1="181" y1="516" x2="194" y2="516" stroke="black" />
<text x="190" y="508" font-family="Verdana" font-size="8" text-anchor="middle"  dominant-baseline="middle" fill="black" > 501</text>
<circle cx="181" cy="516" r="4" fill="white" stroke="black" />
<line x1="181" y1="520" x2="181" y2="591" stroke="black" />
<circle cx="181" cy="591" r="4" fill="white" stroke="black" />
<text x="181" y="603" font-family="Verdana" font-size="8" text-anchor="middle"  dominant-baseline="middle" fill="black" > 576</text>
<circle cx="193" cy="516" r="4" fill="white" stroke="black" />
<line x1="193" y1="520" x2="193" y2="591" stroke="black" />
<circle cx="193" cy="591" r="4" fill="white" stroke="black" />
<text x="193" y="603" font-family="Verdana" font-size="8" text-anchor="middle"  dominant-baseline="middle" fill="black" > 576</text>
<circle cx="250" cy="175" r="4" fill="white" stroke="black" />
<line x1="250" y1="179" x2="250" y2="324" stroke="black" />
<line x1="225" y1="324" x2="275" y2="324" stroke="black" />
<text x="262" y="316" font-family="Verdana" font-size="8" text-anchor="middle"  dominant-baseline="middle" fill="black" > 309</text>
<circle cx="225" cy="324" r="4" fill="white" stroke="black" />
<line x1="225" y1="328" x2="225" y2="459" stroke="black" />
<line x1="212" y1="459" x2="238" y2="459" stroke="black" />
<text x="231" y="451" font-family="Verdana" font-size="8" text-anchor="middle"  dominant-baseline="middle" fill="black" > 444</text>
<circle cx="212" cy="459" r="4" fill="white" stroke="black" />
<line x1="212" y1="463" x2="212" y2="591" stroke="black" />
<circle cx="212" cy="591" r="4" fill="white" stroke="black" />
<text x="212" y="603" font-family="Verdana" font-size="8" text-anchor="middle"  dominant-baseline="middle" fill="black" > 576</text>
<circle cx="237" cy="459" r="4" fill="white" stroke="black" />
<line x1="237" y1="463" x2="237" y2="590" stroke="black" />
<line x1="231" y1="590" x2="244" y2="590" stroke="black" />
<text x="240" y="582" font-family="Verdana" font-size="8" text-anchor="middle"  dominant-baseline="middle" fill="black" > 575</text>
<circle cx="231" cy="590" r="4" fill="white" stroke="black" />
<line x1="231" y1="594" x2="231" y2="591" stroke="black" />
<circle cx="231" cy="591" r="4" fill="white" stroke="black" />
<text x="231" y="603" font-family="Verdana" font-size="8" text-anchor="middle"  dominant-baseline="middle" fill="black" > 576</text>
<circle cx="243" cy="590" r="4" fill="white" stroke="black" />
<line x1="243" y1="594" x2="243" y2="591" stroke="black" />
<circle cx="243" cy="591" r="4" fill="white" stroke="black" />
<text x="243" y="603" font-family="Verdana" font-size="8" text-anchor="middle"  dominant-baseline="middle" fill="black" > 576</text>
<circle cx="275" cy="324" r="4" fill="white" stroke="black" />
<line x1="275" y1="328" x2="275" y2="454" stroke="black" />
<line x1="262" y1="454" x2="288" y2="454" stroke="black" />
<text x="281" y="446" font-family="Verdana" font-size="8" text-anchor="middle"  dominant-baseline="middle" fill="black" > 439</text>
<circle cx="262" cy="454" r="4" fill="white" stroke="black" />
<line x1="262" y1="458" x2="262" y2="566" stroke="black" />
<line x1="256" y1="566" x2="269" y2="566" stroke="black" />
<text x="265" y="558" font-family="Verdana" font-size="8" text-anchor="middle"  dominant-baseline="middle" fill="black" > 551</text>
<circle cx="256" cy="566" r="4" fill="white" stroke="black" />
<line x1="256" y1="570" x2="256" y2="591" stroke="black" />
<circle cx="256" cy="591" r="4" fill="white" stroke="black" />
<text x="256" y="603" font-family="Verdana" font-size="8" text-anchor="middle"  dominant-baseline="middle" fill="black" > 576</text>
<circle cx="268" cy="566" r="4" fill="white" stroke="black" />
<line x1="268" y1="570" x2="268" y2="591" stroke="black" />
<circle cx="268" cy="591" r="4" fill="white" stroke="black" />
<text x="268" y="603" font-family="Verdana" font-size="8" text-anchor="middle"  dominant-baseline="middle" fill="black" > 576</text>
<circle cx="287" cy="454" r="4" fill="white" stroke="black" />
<line x1="287" y1="458" x2="287" y2="568" stroke="black" />
<line x1="281" y1="568" x2="294" y2="568" stroke="black" />
<text x="290" y="560" font-family="Verdana" font-size="8" text-anchor="middle"  dominant-baseline="middle" fill="black" > 553</text>
<circle cx="281" cy="568" r="4" fill="white" stroke="black" />
<line x1="281" y1="572" x2="281" y2="591" stroke="black" />
<circle cx="281" cy="591" r="4" fill="white" stroke="black" />
<text x="281" y="603" font-family="Verdana" font-size="8" text-anchor="middle"  dominant-baseline="middle" fill="black" > 576</text>
<circle cx="293" cy="568" r="4" fill="white" stroke="black" />
<line x1="293" y1="572" x2="293" y2="591" stroke="black" />
<circle cx="293" cy="591" r="4" fill="white" stroke="black" />
<text x="293" y="603" font-family="Verdana" font-size="8" text-anchor="middle"  dominant-baseline="middle" fill="black" > 576</text>
<text x="400" y="7" font-family="Verdana" font-size="7" text-anchor="middle"  dominant-baseline="middle" fill="black" > C3</text>
<circle cx="400" cy="15" r="4" fill="white" stroke="black" />
<line x1="400" y1="19" x2="400" y2="210" stroke="black" />
<line x1="350" y1="210" x2="450" y2="210" stroke="black" />
<text x="425" y="202" font-family="Verdana" font-size="8" text-anchor="middle"  dominant-baseline="middle" fill="black" > 195</text>
<circle cx="350" cy="210" r="4" fill="white" stroke="black" />
<line x1="350" y1="214" x2="350" y2="390" stroke="black" />
<line x1="325" y1="390" x2="375" y2="390" stroke="black" />
<text x="362" y="382" font-family="Verdana" font-size="8" text-anchor="middle"  dominant-baseline="middle" fill="black" > 375</text>
<circle cx="325" cy="390" r="4" fill="white" stroke="black" />
<line x1="325" y1="394" x2="325" y2="524" stroke="black" />
<line x1="312" y1="524" x2="338" y2="524" stroke="black" />
<text x="331" y="516" font-family="Verdana" font-size="8" text-anchor="middle"  dominant-baseline="middle" fill="black" > 509</text>
<circle cx="312" cy="524" r="4" fill="white" stroke="black" />
<line x1="312" y1="528" x2="312" y2="591" stroke="black" />
<circle cx="312" cy="591" r="4" fill="white" stroke="black" />
<text x="312" y="603" font-family="Verdana" font-size="8" text-anchor="middle"  dominant-baseline="middle" fill="black" > 576</text>
<circle cx="337" cy="524" r="4" fill="white" stroke="black" />
<line x1="337" y1="528" x2="337" y2="591" stroke="black" />
<circle cx="337" cy="591" r="4" fill="white" stroke="black" />
<text x="337" y="603" font-family="Verdana" font-size="8" text-anchor="middle"  dominant-baseline="middle" fill="black" > 576</text>
<circle cx="375" cy="390" r="4" fill="white" stroke="black" />
<line x1="375" y1="394" x2="375" y2="525" stroke="black" />
<line x1="362" y1="525" x2="388" y2="525" stroke="black" />
<text x="381" y="517" font-family="Verdana" font-size="8" text-anchor="middle"  dominant-baseline="middle" fill="black" > 510</text>
<circle cx="362" cy="525" r="4" fill="white" stroke="black" />
<line x1="362" y1="529" x2="362" y2="591" stroke="black" />
<circle cx="362" cy="591" r="4" fill="white" stroke="black" />
<text x="362" y="603" font-family="Verdana" font-size="8" text-anchor="middle"  dominant-baseline="middle" fill="black" > 576</text>
<circle cx="387" cy="525" r="4" fill="white" stroke="black" />
<line x1="387" y1="529" x2="387" y2="591" stroke="black" />
<circle cx="387" cy="591" r="4" fill="white" stroke="black" />
<text x="387" y="603" font-family="Verdana" font-size="8" text-anchor="middle"  dominant-baseline="middle" fill="black" > 576</text>
<circle cx="450" cy="210" r="4" fill="white" stroke="black" />
<line x1="450" y1="214" x2="450" y2="388" stroke="black" />
<line x1="425" y1="388" x2="475" y2="388" stroke="black" />
<text x="462" y="380" font-family="Verdana" font-size="8" text-anchor="middle"  dominant-baseline="middle" fill="black" > 373</text>
<circle cx="425" cy="388" r="4" fill="white" stroke="black" />
<line x1="425" y1="392" x2="425" y2="502" stroke="black" />
<line x1="412" y1="502" x2="438" y2="502" stroke="black" />
<text x="431" y="494" font-family="Verdana" font-size="8" text-anchor="middle"  dominant-baseline="middle" fill="black" > 487</text>
<circle cx="412" cy="502" r="4" fill="white" stroke="black" />
<line x1="412" y1="506" x2="412" y2="591" stroke="black" />
<circle cx="412" cy="591" r="4" fill="white" stroke="black" />
<text x="412" y="603" font-family="Verdana" font-size="8" text-anchor="middle"  dominant-baseline="middle" fill="black" > 576</text>
<circle cx="437" cy="502" r="4" fill="white" stroke="black" />
<line x1="437" y1="506" x2="437" y2="591" stroke="black" />
<circle cx="437" cy="591" r="4" fill="white" stroke="black" />
<text x="437" y="603" font-family="Verdana" font-size="8" text-anchor="middle"  dominant-baseline="middle" fill="black" > 576</text>
<circle cx="475" cy="388" r="4" fill="white" stroke="black" />
<line x1="475" y1="392" x2="475" y2="498" stroke="black" />
<line x1="462" y1="498" x2="488" y2="498" stroke="black" />
<text x="481" y="490" font-family="Verdana" font-size="8" text-anchor="middle"  dominant-baseline="middle" fill="black" > 483</text>
<circle cx="462" cy="498" r="4" fill="white" stroke="black" />
<line x1="462" y1="502" x2="462" y2="566" stroke="black" />
<line x1="458" y1="562" x2="466" y2="570" stroke="red" />
<line x1="458" y1="570" x2="466" y2="562" stroke="red" />
<text x="462" y="578" font-family="Verdana" font-size="8" text-anchor="middle"  dominant-baseline="middle" fill="black" > 551</text>
<circle cx="487" cy="498" r="4" fill="white" stroke="black" />
<line x1="487" y1="502" x2="487" y2="591" stroke="black" />
<circle cx="487" cy="591" r="4" fill="white" stroke="black" />
<text x="487" y="603" font-family="Verdana" font-size="8" text-anchor="middle"  dominant-baseline="middle" fill="black" > 576</text>
<text x="600" y="7" font-family="Verdana" font-size="7" text-anchor="middle"  dominant-baseline="middle" fill="black" > C4</text>
<circle cx="600" cy="15" r="4" fill="white" stroke="black" />
<line x1="600" y1="19" x2="600" y2="135" stroke="black" />
<line x1="550" y1="135" x2="650" y2="135" stroke="black" />
<text x="625" y="127" font-family="Verdana" font-size="8" text-anchor="middle"  dominant-baseline="middle" fill="black" > 120</text>
<circle cx="550" cy="135" r="4" fill="white" stroke="black" />
<line x1="550" y1="139" x2="550" y2="319" stroke="black" />
<line x1="525" y1="319" x2="575" y2="319" stroke="black" />
<text x="562" y="311" font-family="Verdana" font-size="8" text-anchor="middle"  dominant-baseline="middle" fill="black" > 304</text>
<circle cx="525" cy="319" r="4" fill="white" stroke="black" />
<line x1="525" y1="323" x2="525" y2="446" stroke="black" />
<line x1="512" y1="446" x2="538" y2="446" stroke="black" />
<text x="531" y="438" font-family="Verdana" font-size="8" text-anchor="middle"  dominant-baseline="middle" fill="black" > 431</text>
<circle cx="512" cy="446" r="4" fill="white" stroke="black" />
<line x1="512" y1="450" x2="512" y2="559" stroke="black" />
<line x1="506" y1="559" x2="519" y2="559" stroke="black" />
<text x="515" y="551" font-family="Verdana" font-size="8" text-anchor="middle"  dominant-baseline="middle" fill="black" > 544</text>
<circle cx="506" cy="559" r="4" fill="white" stroke="black" />
<line x1="506" y1="563" x2="506" y2="591" stroke="black" />
<circle cx="506" cy="591" r="4" fill="white" stroke="black" />
<text x="506" y="603" font-family="Verdana" font-size="8" text-anchor="middle"  dominant-baseline="middle" fill="black" > 576</text>
<circle cx="518" cy="559" r="4" fill="white" stroke="black" />
<line x1="518" y1="563" x2="518" y2="591" stroke="black" />
<circle cx="518" cy="591" r="4" fill="white" stroke="black" />
<text x="518" y="603" font-family="Verdana" font-size="8" text-anchor="middle"  dominant-baseline="middle" fill="black" > 576</text>
<circle cx="537" cy="446" r="4" fill="white" stroke="black" />
<line x1="537" y1="450" x2="537" y2="590" stroke="black" />
<line x1="531" y1="590" x2="544" y2="590" stroke="black" />
<text x="540" y="582" font-family="Verdana" font-size="8" text-anchor="middle"  dominant-baseline="middle" fill="black" > 575</text>
<circle cx="531" cy="590" r="4" fill="white" stroke="black" />
<line x1="531" y1="594" x2="531" y2="591" stroke="black" />
<circle cx="531" cy="591" r="4" fill="white" stroke="black" />
<text x="531" y="603" font-family="Verdana" font-size="8" text-anchor="middle"  dominant-baseline="middle" fill="black" > 576</text>
<circle cx="543" cy="590" r="4" fill="white" stroke="black" />
<line x1="543" y1="594" x2="543" y2="591" stroke="black" />
<circle cx="543" cy="591" r="4" fill="white" stroke="black" />
<text x="543" y="603" font-family="Verdana" font-size="8" text-anchor="middle"  dominant-baseline="middle" fill="black" > 576</text>
<circle cx="575" cy="319" r="4" fill="white" stroke="black" />
<line x1="575" y1="323" x2="575" y2="446" stroke="black" />
<line x1="562" y1="446" x2="588" y2="446" stroke="black" />
<text x="581" y="438" font-family="Verdana" font-size="8" text-anchor="middle"  dominant-baseline="middle" fill="black" > 431</text>
<circle cx="562" cy="446" r="4" fill="white" stroke="black" />
<line x1="562" y1="450" x2="562" y2="591" stroke="black" />
<circle cx="562" cy="591" r="4" fill="white" stroke="black" />
<text x="562" y="603" font-family="Verdana" font-size="8" text-anchor="middle"  dominant-baseline="middle" fill="black" > 576</text>
<circle cx="587" cy="446" r="4" fill="white" stroke="black" />
<line x1="587" y1="450" x2="587" y2="591" stroke="black" />
<circle cx="587" cy="591" r="4" fill="white" stroke="black" />
<text x="587" y="603" font-family="Verdana" font-size="8" text-anchor="middle"  dominant-baseline="middle" fill="black" > 576</text>
<circle cx="650" cy="135" r="4" fill="white" stroke="black" />
<line x1="650" y1="139" x2="650" y2="327" stroke="black" />
<line x1="625" y1="327" x2="675" y2="327" stroke="black" />
<text x="662" y="319" font-family="Verdana" font-size="8" text-anchor="middle"  dominant-baseline="middle" fill="black" > 312</text>
<circle cx="625" cy="327" r="4" fill="white" stroke="black" />
<line x1="625" y1="331" x2="625" y2="446" stroke="black" />
<line x1="612" y1="446" x2="638" y2="446" stroke="black" />
<text x="631" y="438" font-family="Verdana" font-size="8" text-anchor="middle"  dominant-baseline="middle" fill="black" > 431</text>
<circle cx="612" cy="446" r="4" fill="white" stroke="black" />
<line x1="612" y1="450" x2="612" y2="572" stroke="black" />
<line x1="606" y1="572" x2="619" y2="572" stroke="black" />
<text x="615" y="564" font-family="Verdana" font-size="8" text-anchor="middle"  dominant-baseline="middle" fill="black" > 557</text>
<circle cx="606" cy="572" r="4" fill="white" stroke="black" />
<line x1="606" y1="576" x2="606" y2="591" stroke="black" />
<circle cx="606" cy="591" r="4" fill="white" stroke="black" />
<text x="606" y="603" font-family="Verdana" font-size="8" text-anchor="middle"  dominant-baseline="middle" fill="black" > 576</text>
<circle cx="618" cy="572" r="4" fill="white" stroke="black" />
<line x1="618" y1="576" x2="618" y2="591" stroke="black" />
<circle cx="618" cy="591" r="4" fill="white" stroke="black" />
<text x="618" y="603" font-family="Verdana" font-size="8" text-anchor="middle"  dominant-baseline="middle" fill="black" > 576</text>
<circle cx="637" cy="446" r="4" fill="white" stroke="black" />
<line x1="637" y1="450" x2="637" y2="570" stroke="black" />
<line x1="631" y1="570" x2="644" y2="570" stroke="black" />
<text x="640" y="562" font-family="Verdana" font-size="8" text-anchor="middle"  dominant-baseline="middle" fill="black" > 555</text>
<circle cx="631" cy="570" r="4" fill="white" stroke="black" />
<line x1="631" y1="574" x2="631" y2="591" stroke="black" />
<circle cx="631" cy="591" r="4" fill="white" stroke="black" />
<text x="631" y="603" font-family="Verdana" font-size="8" text-anchor="middle"  dominant-baseline="middle" fill="black" > 576</text>
<circle cx="643" cy="570" r="4" fill="white" stroke="black" />
<line x1="643" y1="574" x2="643" y2="591" stroke="black" />
<circle cx="643" cy="591" r="4" fill="white" stroke="black" />
<text x="643" y="603" font-family="Verdana" font-size="8" text-anchor="middle"  dominant-baseline="middle" fill="black" > 576</text>
<circle cx="675" cy="327" r="4" fill="white" stroke="black" />
<line x1="675" y1="331" x2="675" y2="445" stroke="black" />
<line x1="662" y1="445" x2="688" y2="445" stroke="black" />
<text x="681" y="437" font-family="Verdana" font-size="8" text-anchor="middle"  dominant-baseline="middle" fill="black" > 430</text>
<circle cx="662" cy="445" r="4" fill="white" stroke="black" />
<line x1="662" y1="449" x2="662" y2="563" stroke="black" />
<line x1="656" y1="563" x2="669" y2="563" stroke="black" />
<text x="665" y="555" font-family="Verdana" font-size="8" text-anchor="middle"  dominant-baseline="middle" fill="black" > 548</text>
<circle cx="656" cy="563" r="4" fill="white" stroke="black" />
<line x1="656" y1="567" x2="656" y2="591" stroke="black" />
<circle cx="656" cy="591" r="4" fill="white" stroke="black" />
<text x="656" y="603" font-family="Verdana" font-size="8" text-anchor="middle"  dominant-baseline="middle" fill="black" > 576</text>
<circle cx="668" cy="563" r="4" fill="white" stroke="black" />
<line x1="668" y1="567" x2="668" y2="591" stroke="black" />
<circle cx="668" cy="591" r="4" fill="white" stroke="black" />
<text x="668" y="603" font-family="Verdana" font-size="8" text-anchor="middle"  dominant-baseline="middle" fill="black" > 576</text>
<circle cx="687" cy="445" r="4" fill="white" stroke="black" />
<line x1="687" y1="449" x2="687" y2="569" stroke="black" />
<line x1="681" y1="569" x2="694" y2="569" stroke="black" />
<text x="690" y="561" font-family="Verdana" font-size="8" text-anchor="middle"  dominant-baseline="middle" fill="black" > 554</text>
<circle cx="681" cy="569" r="4" fill="white" stroke="black" />
<line x1="681" y1="573" x2="681" y2="591" stroke="black" />
<circle cx="681" cy="591" r="4" fill="white" stroke="black" />
<text x="681" y="603" font-family="Verdana" font-size="8" text-anchor="middle"  dominant-baseline="middle" fill="black" > 576</text>
<circle cx="693" cy="569" r="4" fill="white" stroke="black" />
<line x1="693" y1="573" x2="693" y2="591" stroke="black" />
<circle cx="693" cy="591" r="4" fill="white" stroke="black" />
<text x="693" y="603" font-family="Verdana" font-size="8" text-anchor="middle"  dominant-baseline="middle" fill="black" > 576</text>
<text x="800" y="7" font-family="Verdana" font-size="7" text-anchor="middle"  dominant-baseline="middle" fill="black" > C5</text>
<circle cx="800" cy="15" r="4" fill="white" stroke="black" />
<line x1="800" y1="19" x2="800" y2="125" stroke="black" />
<line x1="750" y1="125" x2="850" y2="125" stroke="black" />
<text x="825" y="117" font-family="Verdana" font-size="8" text-anchor="middle"  dominant-baseline="middle" fill="black" > 110</text>
<circle cx="750" cy="125" r="4" fill="white" stroke="black" />
<line x1="750" y1="129" x2="750" y2="273" stroke="black" />
<line x1="725" y1="273" x2="775" y2="273" stroke="black" />
<text x="762" y="265" font-family="Verdana" font-size="8" text-anchor="middle"  dominant-baseline="middle" fill="black" > 258</text>
<circle cx="725" cy="273" r="4" fill="white" stroke="black" />
<line x1="725" y1="277" x2="725" y2="393" stroke="black" />
<line x1="712" y1="393" x2="738" y2="393" stroke="black" />
<text x="731" y="385" font-family="Verdana" font-size="8" text-anchor="middle"  dominant-baseline="middle" fill="black" > 378</text>
<circle cx="712" cy="393" r="4" fill="white" stroke="black" />
<line x1="712" y1="397" x2="712" y2="567" stroke="black" />
<line x1="706" y1="567" x2="719" y2="567" stroke="black" />
<text x="715" y="559" font-family="Verdana" font-size="8" text-anchor="middle"  dominant-baseline="middle" fill="black" > 552</text>
<circle cx="706" cy="567" r="4" fill="white" stroke="black" />
<line x1="706" y1="571" x2="706" y2="591" stroke="black" />
<circle cx="706" cy="591" r="4" fill="white" stroke="black" />
<text x="706" y="603" font-family="Verdana" font-size="8" text-anchor="middle"  dominant-baseline="middle" fill="black" > 576</text>
<circle cx="718" cy="567" r="4" fill="white" stroke="black" />
<line x1="718" y1="571" x2="718" y2="591" stroke="black" />
<circle cx="718" cy="591" r="4" fill="white" stroke="black" />
<text x="718" y="603" font-family="Verdana" font-size="8" text-anchor="middle"  dominant-baseline="middle" fill="black" > 576</text>
<circle cx="737" cy="393" r="4" fill="white" stroke="black" />
<line x1="737" y1="397" x2="737" y2="569" stroke="black" />
<line x1="731" y1="569" x2="744" y2="569" stroke="black" />
<text x="740" y="561" font-family="Verdana" font-size="8" text-anchor="middle"  dominant-baseline="middle" fill="black" > 554</text>
<circle cx="731" cy="569" r="4" fill="white" stroke="black" />
<line x1="731" y1="573" x2="731" y2="591" stroke="black" />
<circle cx="731" cy="591" r="4" fill="white" stroke="black" />
<text x="731" y="603" font-family="Verdana" font-size="8" text-anchor="middle"  dominant-baseline="middle" fill="black" > 576</text>
<circle cx="743" cy="569" r="4" fill="white" stroke="black" />
<line x1="743" y1="573" x2="743" y2="591" stroke="black" />
<circle cx="743" cy="591" r="4" fill="white" stroke="black" />
<text x="743" y="603" font-family="Verdana" font-size="8" text-anchor="middle"  dominant-baseline="middle" fill="black" > 576</text>
<circle cx="775" cy="273" r="4" fill="white" stroke="black" />
<line x1="775" y1="277" x2="775" y2="398" stroke="black" />
<line x1="762" y1="398" x2="788" y2="398" stroke="black" />
<text x="781" y="390" font-family="Verdana" font-size="8" text-anchor="middle"  dominant-baseline="middle" fill="black" > 383</text>
<circle cx="762" cy="398" r="4" fill="white" stroke="black" />
<line x1="762" y1="402" x2="762" y2="528" stroke="black" />
<line x1="756" y1="528" x2="769" y2="528" stroke="black" />
<text x="765" y="520" font-family="Verdana" font-size="8" text-anchor="middle"  dominant-baseline="middle" fill="black" > 513</text>
<circle cx="756" cy="528" r="4" fill="white" stroke="black" />
<line x1="756" y1="532" x2="756" y2="591" stroke="black" />
<circle cx="756" cy="591" r="4" fill="white" stroke="black" />
<text x="756" y="603" font-family="Verdana" font-size="8" text-anchor="middle"  dominant-baseline="middle" fill="black" > 576</text>
<circle cx="768" cy="528" r="4" fill="white" stroke="black" />
<line x1="768" y1="532" x2="768" y2="591" stroke="black" />
<circle cx="768" cy="591" r="4" fill="white" stroke="black" />
<text x="768" y="603" font-family="Verdana" font-size="8" text-anchor="middle"  dominant-baseline="middle" fill="black" > 576</text>
<circle cx="787" cy="398" r="4" fill="white" stroke="black" />
<line x1="787" y1="402" x2="787" y2="539" stroke="black" />
<line x1="781" y1="539" x2="794" y2="539" stroke="black" />
<text x="790" y="531" font-family="Verdana" font-size="8" text-anchor="middle"  dominant-baseline="middle" fill="black" > 524</text>
<circle cx="781" cy="539" r="4" fill="white" stroke="black" />
<line x1="781" y1="543" x2="781" y2="591" stroke="black" />
<circle cx="781" cy="591" r="4" fill="white" stroke="black" />
<text x="781" y="603" font-family="Verdana" font-size="8" text-anchor="middle"  dominant-baseline="middle" fill="black" > 576</text>
<circle cx="793" cy="539" r="4" fill="white" stroke="black" />
<line x1="793" y1="543" x2="793" y2="591" stroke="black" />
<circle cx="793" cy="591" r="4" fill="white" stroke="black" />
<text x="793" y="603" font-family="Verdana" font-size="8" text-anchor="middle"  dominant-baseline="middle" fill="black" > 576</text>
<circle cx="850" cy="125" r="4" fill="white" stroke="black" />
<line x1="850" y1="129" x2="850" y2="273" stroke="black" />
<line x1="825" y1="273" x2="875" y2="273" stroke="black" />
<text x="862" y="265" font-family="Verdana" font-size="8" text-anchor="middle"  dominant-baseline="middle" fill="black" > 258</text>
<circle cx="825" cy="273" r="4" fill="white" stroke="black" />
<line x1="825" y1="277" x2="825" y2="499" stroke="black" />
<line x1="821" y1="495" x2="829" y2="503" stroke="red" />
<line x1="821" y1="503" x2="829" y2="495" stroke="red" />
<text x="825" y="511" font-family="Verdana" font-size="8" text-anchor="middle"  dominant-baseline="middle" fill="black" > 484</text>
<circle cx="875" cy="273" r="4" fill="white" stroke="black" />
<line x1="875" y1="277" x2="875" y2="511" stroke="black" />
<line x1="862" y1="511" x2="888" y2="511" stroke="black" />
<text x="881" y="503" font-family="Verdana" font-size="8" text-anchor="middle"  dominant-baseline="middle" fill="black" > 496</text>
<circle cx="862" cy="511" r="4" fill="white" stroke="black" />
<line x1="862" y1="515" x2="862" y2="591" stroke="black" />
<circle cx="862" cy="591" r="4" fill="white" stroke="black" />
<text x="862" y="603" font-family="Verdana" font-size="8" text-anchor="middle"  dominant-baseline="middle" fill="black" > 576</text>
<circle cx="887" cy="511" r="4" fill="white" stroke="black" />
<line x1="887" y1="515" x2="887" y2="572" stroke="black" />
<line x1="881" y1="572" x2="894" y2="572" stroke="black" />
<text x="890" y="564" font-family="Verdana" font-size="8" text-anchor="middle"  dominant-baseline="middle" fill="black" > 557</text>
<circle cx="881" cy="572" r="4" fill="white" stroke="black" />
<line x1="881" y1="576" x2="881" y2="591" stroke="black" />
<circle cx="881" cy="591" r="4" fill="white" stroke="black" />
<text x="881" y="603" font-family="Verdana" font-size="8" text-anchor="middle"  dominant-baseline="middle" fill="black" > 576</text>
<circle cx="893" cy="572" r="4" fill="white" stroke="black" />
<line x1="893" y1="576" x2="893" y2="591" stroke="black" />
<circle cx="893" cy="591" r="4" fill="white" stroke="black" />
<text x="893" y="603" font-family="Verdana" font-size="8" text-anchor="middle"  dominant-baseline="middle" fill="black" > 576</text>
</svg>
