<?xml version="1.0" encoding="utf-8"?>
<svg xmlns="http://www.w3.org/2000/svg" version="1.1" width="2950" height="750">
<rect width="2950" height="15" x="0" y="0" fill="white" />
<rect width="2950" height="15" x="0" y="735" fill="white" />
<rect width="25" height="750" x="0" y="0" fill="white" />
<rect width="25" height="750" x="2925" y="0" fill="white" />
<rect width="2910" height="144" x="25" y="15" fill="ghostwhite" />
<rect width="2910" height="144" x="25" y="159" fill="snow" />
<rect width="2910" height="144" x="25" y="303" fill="ghostwhite" />
<rect width="2910" height="144" x="25" y="447" fill="snow" />
<rect width="2910" height="144" x="25" y="591" fill="ghostwhite" />
<text x="12" y="87" font-family="Verdana" font-size="10" text-anchor="middle"  dominant-baseline="middle" fill="red" > D0</text>
<text x="12" y="231" font-family="Verdana" font-size="10" text-anchor="middle"  dominant-baseline="middle" fill="red" > D1</text>
<text x="12" y="375" font-family="Verdana" font-size="10" text-anchor="middle"  dominant-baseline="middle" fill="red" > D2</text>
<text x="12" y="519" font-family="Verdana" font-size="10" text-anchor="middle"  dominant-baseline="middle" fill="red" > D3</text>
<text x="12" y="663" font-family="Verdana" font-size="10" text-anchor="middle"  dominant-baseline="middle" fill="red" > D4</text>
<text x="12" y="20" font-family="Verdana" font-size="10" text-anchor="middle"  dominant-baseline="middle" fill="black" > 0</text>
<text x="12" y="164" font-family="Verdana" font-size="10" text-anchor="middle"  dominant-baseline="middle" fill="black" > 144</text>
<text x="12" y="308" font-family="Verdana" font-size="10" text-anchor="middle"  dominant-baseline="middle" fill="black" > 288</text>
<text x="12" y="452" font-family="Verdana" font-size="10" text-anchor="middle"  dominant-baseline="middle" fill="black" > 432</text>
<text x="12" y="596" font-family="Verdana" font-size="10" text-anchor="middle"  dominant-baseline="middle" fill="black" > 576</text>
<text x="12" y="740" font-family="Verdana" font-size="10" text-anchor="middle"  dominant-baseline="middle" fill="black" > 720</text>
<text x="150" y="7" font-family="Verdana" font-size="7" text-anchor="middle"  dominant-baseline="middle" fill="black" > C1</text>
<circle cx="150" cy="15" r="4" fill="white" stroke="black" />
<line x1="150" y1="19" x2="150" y2="492" stroke="black" />
<line x1="50" y1="492" x2="250" y2="492" stroke="black" />
<text x="175" y="484" font-family="Verdana" font-size="8" text-anchor="middle"  dominant-baseline="middle" fill="black" > 477</text>
<circle cx="50" cy="492" r="4" fill="white" stroke="black" />
<circle cx="150" cy="492" r="4" fill="white" stroke="black" />
<line x1="50" y1="496" x2="50" y2="497" stroke="black" />
<line x1="50" y1="497" x2="100" y2="498" stroke="black" />
<line x1="150" y1="496" x2="150" y2="497" stroke="black" />
<line x1="150" y1="497" x2="100" y2="498" stroke="black" />
<text x="100" y="486" font-family="Verdana" font-size="8" text-anchor="middle"  dominant-baseline="middle" fill="black" > 483</text>
<circle cx="100" cy="498" r="4" fill="white" stroke="black" />
<line x1="100" y1="502" x2="100" y2="660" stroke="black" />
<line x1="96" y1="656" x2="104" y2="664" stroke="red" />
<line x1="96" y1="664" x2="104" y2="656" stroke="red" />
<text x="100" y="672" font-family="Verdana" font-size="8" text-anchor="middle"  dominant-baseline="middle" fill="black" > 645</text>
<circle cx="250" cy="492" r="4" fill="white" stroke="black" />
<line x1="250" y1="496" x2="250" y2="598" stroke="black" />
<line x1="246" y1="594" x2="254" y2="602" stroke="red" />
<line x1="246" y1="602" x2="254" y2="594" stroke="red" />
<text x="250" y="610" font-family="Verdana" font-size="8" text-anchor="middle"  dominant-baseline="middle" fill="black" > 583</text>
<text x="450" y="7" font-family="Verdana" font-size="7" text-anchor="middle"  dominant-baseline="middle" fill="black" > C2</text>
<circle cx="450" cy="15" r="4" fill="white" stroke="black" />
<line x1="450" y1="19" x2="450" y2="115" stroke="black" />
<line x1="350" y1="115" x2="550" y2="115" stroke="black" />
<text x="475" y="107" font-family="Verdana" font-size="8" text-anchor="middle"  dominant-baseline="middle" fill="black" > 100</text>
<circle cx="350" cy="115" r="4" fill="white" stroke="black" />
<line x1="350" y1="119" x2="350" y2="428" stroke="black" />
<line x1="346" y1="424" x2="354" y2="432" stroke="red" />
<line x1="346" y1="432" x2="354" y2="424" stroke="red" />
<text x="350" y="440" font-family="Verdana" font-size="8" text-anchor="middle"  dominant-baseline="middle" fill="black" > 413</text>
<circle cx="450" cy="115" r="4" fill="white" stroke="black" />
<circle cx="550" cy="115" r="4" fill="white" stroke="black" />
<line x1="450" y1="119" x2="450" y2="400" stroke="black" />
<line x1="450" y1="400" x2="500" y2="494" stroke="black" />
<line x1="550" y1="119" x2="550" y2="400" stroke="black" />
<line x1="550" y1="400" x2="500" y2="494" stroke="black" />
<text x="500" y="482" font-family="Verdana" font-size="8" text-anchor="middle"  dominant-baseline="middle" fill="black" > 479</text>
<circle cx="500" cy="494" r="4" fill="white" stroke="black" />
<line x1="500" y1="498" x2="500" y2="640" stroke="black" />
<line x1="496" y1="636" x2="504" y2="644" stroke="red" />
<line x1="496" y1="644" x2="504" y2="636" stroke="red" />
<text x="500" y="652" font-family="Verdana" font-size="8" text-anchor="middle"  dominant-baseline="middle" fill="black" > 625</text>
<text x="650" y="7" font-family="Verdana" font-size="7" text-anchor="middle"  dominant-baseline="middle" fill="black" > C3</text>
<circle cx="650" cy="15" r="4" fill="white" stroke="black" />
<line x1="650" y1="19" x2="650" y2="258" stroke="black" />
<line x1="646" y1="262" x2="650" y2="254" stroke="blue" />
<line x1="650" y1="262" x2="654" y2="254" stroke="blue" />
<text x="650" y="270" font-family="Verdana" font-size="8" text-anchor="middle"  dominant-baseline="middle" fill="black" > 243</text>
<text x="800" y="7" font-family="Verdana" font-size="7" text-anchor="middle"  dominant-baseline="middle" fill="black" > C4</text>
<circle cx="800" cy="15" r="4" fill="white" stroke="black" />
<line x1="800" y1="19" x2="800" y2="150" stroke="black" />
<line x1="750" y1="150" x2="850" y2="150" stroke="black" />
<text x="825" y="142" font-family="Verdana" font-size="8" text-anchor="middle"  dominant-baseline="middle" fill="black" > 135</text>
<circle cx="750" cy="150" r="4" fill="white" stroke="black" />
<line x1="750" y1="154" x2="750" y2="275" stroke="black" />
<line x1="716" y1="275" x2="784" y2="275" stroke="black" />
<text x="758" y="267" font-family="Verdana" font-size="8" text-anchor="middle"  dominant-baseline="middle" fill="black" > 260</text>
<circle cx="716" cy="275" r="4" fill="white" stroke="black" />
<line x1="716" y1="279" x2="716" y2="415" stroke="black" />
<line x1="712" y1="411" x2="720" y2="419" stroke="red" />
<line x1="712" y1="419" x2="720" y2="411" stroke="red" />
<text x="716" y="427" font-family="Verdana" font-size="8" text-anchor="middle"  dominant-baseline="middle" fill="black" > 400</text>
<circle cx="749" cy="275" r="4" fill="white" stroke="black" />
<circle cx="782" cy="275" r="4" fill="white" stroke="black" />
<line x1="749" y1="279" x2="749" y2="296" stroke="black" />
<line x1="749" y1="296" x2="765" y2="303" stroke="black" />
<line x1="782" y1="279" x2="782" y2="296" stroke="black" />
<line x1="782" y1="296" x2="765" y2="303" stroke="black" />
<text x="765" y="291" font-family="Verdana" font-size="8" text-anchor="middle"  dominant-baseline="middle" fill="black" > 288</text>
<circle cx="765" cy="303" r="4" fill="white" stroke="black" />
<line x1="765" y1="307" x2="765" y2="736" stroke="black" />
<circle cx="765" cy="736" r="4" fill="white" stroke="black" />
<text x="765" y="748" font-family="Verdana" font-size="8" text-anchor="middle"  dominant-baseline="middle" fill="black" > 721</text>
<circle cx="850" cy="150" r="4" fill="white" stroke="black" />
<line x1="850" y1="154" x2="850" y2="353" stroke="black" />
<line x1="816" y1="353" x2="884" y2="353" stroke="black" />
<text x="858" y="345" font-family="Verdana" font-size="8" text-anchor="middle"  dominant-baseline="middle" fill="black" > 338</text>
<circle cx="816" cy="353" r="4" fill="white" stroke="black" />
<circle cx="849" cy="353" r="4" fill="white" stroke="black" />
<circle cx="882" cy="353" r="4" fill="white" stroke="black" />
<line x1="849" y1="357" x2="849" y2="362" stroke="black" />
<line x1="849" y1="362" x2="865" y2="365" stroke="black" />
<line x1="882" y1="357" x2="882" y2="362" stroke="black" />
<line x1="882" y1="362" x2="865" y2="365" stroke="black" />
<text x="865" y="353" font-family="Verdana" font-size="8" text-anchor="middle"  dominant-baseline="middle" fill="black" > 350</text>
<circle cx="865" cy="365" r="4" fill="white" stroke="black" />
<line x1="816" y1="357" x2="816" y2="388" stroke="black" />
<line x1="816" y1="388" x2="840" y2="395" stroke="black" />
<line x1="865" y1="369" x2="865" y2="388" stroke="black" />
<line x1="865" y1="388" x2="840" y2="395" stroke="black" />
<text x="840" y="383" font-family="Verdana" font-size="8" text-anchor="middle"  dominant-baseline="middle" fill="black" > 380</text>
<circle cx="840" cy="395" r="4" fill="white" stroke="black" />
<line x1="840" y1="399" x2="840" y2="640" stroke="black" />
<line x1="836" y1="636" x2="844" y2="644" stroke="red" />
<line x1="836" y1="644" x2="844" y2="636" stroke="red" />
<text x="840" y="652" font-family="Verdana" font-size="8" text-anchor="middle"  dominant-baseline="middle" fill="black" > 625</text>
<text x="1000" y="7" font-family="Verdana" font-size="7" text-anchor="middle"  dominant-baseline="middle" fill="black" > C5</text>
<circle cx="1000" cy="15" r="4" fill="white" stroke="black" />
<line x1="1000" y1="19" x2="1000" y2="147" stroke="black" />
<line x1="950" y1="147" x2="1050" y2="147" stroke="black" />
<text x="1025" y="139" font-family="Verdana" font-size="8" text-anchor="middle"  dominant-baseline="middle" fill="black" > 132</text>
<circle cx="950" cy="147" r="4" fill="white" stroke="black" />
<line x1="950" y1="151" x2="950" y2="736" stroke="black" />
<circle cx="950" cy="736" r="4" fill="white" stroke="black" />
<text x="950" y="748" font-family="Verdana" font-size="8" text-anchor="middle"  dominant-baseline="middle" fill="black" > 721</text>
<circle cx="1050" cy="147" r="4" fill="white" stroke="black" />
<line x1="1050" y1="151" x2="1050" y2="736" stroke="black" />
<circle cx="1050" cy="736" r="4" fill="white" stroke="black" />
<text x="1050" y="748" font-family="Verdana" font-size="8" text-anchor="middle"  dominant-baseline="middle" fill="black" > 721</text>
<text x="1200" y="7" font-family="Verdana" font-size="7" text-anchor="middle"  dominant-baseline="middle" fill="black" > C6</text>
<circle cx="1200" cy="15" r="4" fill="white" stroke="black" />
<line x1="1200" y1="19" x2="1200" y2="147" stroke="black" />
<line x1="1150" y1="147" x2="1250" y2="147" stroke="black" />
<text x="1225" y="139" font-family="Verdana" font-size="8" text-anchor="middle"  dominant-baseline="middle" fill="black" > 132</text>
<circle cx="1150" cy="147" r="4" fill="white" stroke="black" />
<line x1="1150" y1="151" x2="1150" y2="521" stroke="black" />
<line x1="1146" y1="517" x2="1154" y2="525" stroke="red" />
<line x1="1146" y1="525" x2="1154" y2="517" stroke="red" />
<text x="1150" y="533" font-family="Verdana" font-size="8" text-anchor="middle"  dominant-baseline="middle" fill="black" > 506</text>
<circle cx="1250" cy="147" r="4" fill="white" stroke="black" />
<line x1="1250" y1="151" x2="1250" y2="605" stroke="black" />
<line x1="1246" y1="601" x2="1254" y2="609" stroke="red" />
<line x1="1246" y1="609" x2="1254" y2="601" stroke="red" />
<text x="1250" y="617" font-family="Verdana" font-size="8" text-anchor="middle"  dominant-baseline="middle" fill="black" > 590</text>
<text x="1450" y="7" font-family="Verdana" font-size="7" text-anchor="middle"  dominant-baseline="middle" fill="black" > C7</text>
<circle cx="1450" cy="15" r="4" fill="white" stroke="black" />
<line x1="1450" y1="19" x2="1450" y2="441" stroke="black" />
<line x1="1350" y1="441" x2="1550" y2="441" stroke="black" />
<text x="1475" y="433" font-family="Verdana" font-size="8" text-anchor="middle"  dominant-baseline="middle" fill="black" > 426</text>
<circle cx="1350" cy="441" r="4" fill="white" stroke="black" />
<line x1="1350" y1="445" x2="1350" y2="675" stroke="black" />
<line x1="1346" y1="671" x2="1354" y2="679" stroke="red" />
<line x1="1346" y1="679" x2="1354" y2="671" stroke="red" />
<text x="1350" y="687" font-family="Verdana" font-size="8" text-anchor="middle"  dominant-baseline="middle" fill="black" > 660</text>
<circle cx="1450" cy="441" r="4" fill="white" stroke="black" />
<line x1="1450" y1="445" x2="1450" y2="566" stroke="black" />
<line x1="1416" y1="566" x2="1484" y2="566" stroke="black" />
<text x="1458" y="558" font-family="Verdana" font-size="8" text-anchor="middle"  dominant-baseline="middle" fill="black" > 551</text>
<circle cx="1416" cy="566" r="4" fill="white" stroke="black" />
<line x1="1416" y1="570" x2="1416" y2="577" stroke="black" />
<line x1="1412" y1="573" x2="1420" y2="581" stroke="red" />
<line x1="1412" y1="581" x2="1420" y2="573" stroke="red" />
<text x="1416" y="589" font-family="Verdana" font-size="8" text-anchor="middle"  dominant-baseline="middle" fill="black" > 562</text>
<circle cx="1449" cy="566" r="4" fill="white" stroke="black" />
<line x1="1449" y1="570" x2="1449" y2="736" stroke="black" />
<circle cx="1449" cy="736" r="4" fill="white" stroke="black" />
<text x="1449" y="748" font-family="Verdana" font-size="8" text-anchor="middle"  dominant-baseline="middle" fill="black" > 721</text>
<circle cx="1482" cy="566" r="4" fill="white" stroke="black" />
<line x1="1482" y1="570" x2="1482" y2="736" stroke="black" />
<circle cx="1482" cy="736" r="4" fill="white" stroke="black" />
<text x="1482" y="748" font-family="Verdana" font-size="8" text-anchor="middle"  dominant-baseline="middle" fill="black" > 721</text>
<circle cx="1550" cy="441" r="4" fill="white" stroke="black" />
<line x1="1550" y1="445" x2="1550" y2="556" stroke="black" />
<line x1="1525" y1="556" x2="1575" y2="556" stroke="black" />
<text x="1562" y="548" font-family="Verdana" font-size="8" text-anchor="middle"  dominant-baseline="middle" fill="black" > 541</text>
<circle cx="1525" cy="556" r="4" fill="white" stroke="black" />
<circle cx="1575" cy="556" r="4" fill="white" stroke="black" />
<line x1="1525" y1="560" x2="1525" y2="610" stroke="black" />
<line x1="1525" y1="610" x2="1550" y2="628" stroke="black" />
<line x1="1575" y1="560" x2="1575" y2="610" stroke="black" />
<line x1="1575" y1="610" x2="1550" y2="628" stroke="black" />
<text x="1550" y="616" font-family="Verdana" font-size="8" text-anchor="middle"  dominant-baseline="middle" fill="black" > 613</text>
<circle cx="1550" cy="628" r="4" fill="white" stroke="black" />
<line x1="1550" y1="632" x2="1550" y2="736" stroke="black" />
<circle cx="1550" cy="736" r="4" fill="white" stroke="black" />
<text x="1550" y="748" font-family="Verdana" font-size="8" text-anchor="middle"  dominant-baseline="middle" fill="black" > 721</text>
<text x="1650" y="7" font-family="Verdana" font-size="7" text-anchor="middle"  dominant-baseline="middle" fill="black" > C8</text>
<circle cx="1650" cy="15" r="4" fill="white" stroke="black" />
<line x1="1650" y1="19" x2="1650" y2="465" stroke="black" />
<line x1="1646" y1="469" x2="1650" y2="461" stroke="blue" />
<line x1="1650" y1="469" x2="1654" y2="461" stroke="blue" />
<text x="1650" y="477" font-family="Verdana" font-size="8" text-anchor="middle"  dominant-baseline="middle" fill="black" > 450</text>
<text x="1800" y="7" font-family="Verdana" font-size="7" text-anchor="middle"  dominant-baseline="middle" fill="black" > C9</text>
<circle cx="1800" cy="15" r="4" fill="white" stroke="black" />
<line x1="1800" y1="19" x2="1800" y2="55" stroke="black" />
<line x1="1750" y1="55" x2="1850" y2="55" stroke="black" />
<text x="1825" y="47" font-family="Verdana" font-size="8" text-anchor="middle"  dominant-baseline="middle" fill="black" > 40</text>
<circle cx="1750" cy="55" r="4" fill="white" stroke="black" />
<line x1="1750" y1="59" x2="1750" y2="187" stroke="black" />
<line x1="1725" y1="187" x2="1775" y2="187" stroke="black" />
<text x="1762" y="179" font-family="Verdana" font-size="8" text-anchor="middle"  dominant-baseline="middle" fill="black" > 172</text>
<circle cx="1725" cy="187" r="4" fill="white" stroke="black" />
<line x1="1725" y1="191" x2="1725" y2="385" stroke="black" />
<line x1="1712" y1="385" x2="1738" y2="385" stroke="black" />
<text x="1731" y="377" font-family="Verdana" font-size="8" text-anchor="middle"  dominant-baseline="middle" fill="black" > 370</text>
<circle cx="1712" cy="385" r="4" fill="white" stroke="black" />
<line x1="1712" y1="389" x2="1712" y2="613" stroke="black" />
<line x1="1706" y1="613" x2="1719" y2="613" stroke="black" />
<text x="1715" y="605" font-family="Verdana" font-size="8" text-anchor="middle"  dominant-baseline="middle" fill="black" > 598</text>
<circle cx="1706" cy="613" r="4" fill="white" stroke="black" />
<line x1="1706" y1="617" x2="1706" y2="736" stroke="black" />
<circle cx="1706" cy="736" r="4" fill="white" stroke="black" />
<text x="1706" y="748" font-family="Verdana" font-size="8" text-anchor="middle"  dominant-baseline="middle" fill="black" > 721</text>
<circle cx="1718" cy="613" r="4" fill="white" stroke="black" />
<line x1="1718" y1="617" x2="1718" y2="736" stroke="black" />
<circle cx="1718" cy="736" r="4" fill="white" stroke="black" />
<text x="1718" y="748" font-family="Verdana" font-size="8" text-anchor="middle"  dominant-baseline="middle" fill="black" > 721</text>
<circle cx="1737" cy="385" r="4" fill="white" stroke="black" />
<line x1="1737" y1="389" x2="1737" y2="401" stroke="black" />
<line x1="1731" y1="401" x2="1744" y2="401" stroke="black" />
<text x="1740" y="393" font-family="Verdana" font-size="8" text-anchor="middle"  dominant-baseline="middle" fill="black" > 386</text>
<circle cx="1731" cy="401" r="4" fill="white" stroke="black" />
<line x1="1731" y1="405" x2="1731" y2="644" stroke="black" />
<line x1="1727" y1="644" x2="1735" y2="644" stroke="black" />
<text x="1732" y="636" font-family="Verdana" font-size="8" text-anchor="middle"  dominant-baseline="middle" fill="black" > 629</text>
<circle cx="1727" cy="644" r="4" fill="white" stroke="black" />
<line x1="1727" y1="648" x2="1727" y2="736" stroke="black" />
<circle cx="1727" cy="736" r="4" fill="white" stroke="black" />
<text x="1727" y="748" font-family="Verdana" font-size="8" text-anchor="middle"  dominant-baseline="middle" fill="black" > 721</text>
<circle cx="1731" cy="644" r="4" fill="white" stroke="black" />
<line x1="1731" y1="648" x2="1731" y2="736" stroke="black" />
<circle cx="1731" cy="736" r="4" fill="white" stroke="black" />
<text x="1731" y="748" font-family="Verdana" font-size="8" text-anchor="middle"  dominant-baseline="middle" fill="black" > 721</text>
<circle cx="1735" cy="644" r="4" fill="white" stroke="black" />
<line x1="1735" y1="648" x2="1735" y2="736" stroke="black" />
<circle cx="1735" cy="736" r="4" fill="white" stroke="black" />
<text x="1735" y="748" font-family="Verdana" font-size="8" text-anchor="middle"  dominant-baseline="middle" fill="black" > 721</text>
<circle cx="1743" cy="401" r="4" fill="white" stroke="black" />
<line x1="1743" y1="405" x2="1743" y2="652" stroke="black" />
<line x1="1740" y1="652" x2="1746" y2="652" stroke="black" />
<text x="1744" y="644" font-family="Verdana" font-size="8" text-anchor="middle"  dominant-baseline="middle" fill="black" > 637</text>
<circle cx="1740" cy="652" r="4" fill="white" stroke="black" />
<line x1="1740" y1="656" x2="1740" y2="736" stroke="black" />
<circle cx="1740" cy="736" r="4" fill="white" stroke="black" />
<text x="1740" y="748" font-family="Verdana" font-size="8" text-anchor="middle"  dominant-baseline="middle" fill="black" > 721</text>
<circle cx="1746" cy="652" r="4" fill="white" stroke="black" />
<line x1="1746" y1="656" x2="1746" y2="736" stroke="black" />
<circle cx="1746" cy="736" r="4" fill="white" stroke="black" />
<text x="1746" y="748" font-family="Verdana" font-size="8" text-anchor="middle"  dominant-baseline="middle" fill="black" > 721</text>
<circle cx="1775" cy="187" r="4" fill="white" stroke="black" />
<line x1="1775" y1="191" x2="1775" y2="474" stroke="black" />
<line x1="1762" y1="474" x2="1788" y2="474" stroke="black" />
<text x="1781" y="466" font-family="Verdana" font-size="8" text-anchor="middle"  dominant-baseline="middle" fill="black" > 459</text>
<circle cx="1762" cy="474" r="4" fill="white" stroke="black" />
<line x1="1762" y1="478" x2="1762" y2="491" stroke="black" />
<line x1="1756" y1="491" x2="1769" y2="491" stroke="black" />
<text x="1765" y="483" font-family="Verdana" font-size="8" text-anchor="middle"  dominant-baseline="middle" fill="black" > 476</text>
<circle cx="1756" cy="491" r="4" fill="white" stroke="black" />
<line x1="1756" y1="495" x2="1756" y2="615" stroke="black" />
<line x1="1753" y1="615" x2="1759" y2="615" stroke="black" />
<text x="1757" y="607" font-family="Verdana" font-size="8" text-anchor="middle"  dominant-baseline="middle" fill="black" > 600</text>
<circle cx="1753" cy="615" r="4" fill="white" stroke="black" />
<line x1="1753" y1="619" x2="1753" y2="736" stroke="black" />
<circle cx="1753" cy="736" r="4" fill="white" stroke="black" />
<text x="1753" y="748" font-family="Verdana" font-size="8" text-anchor="middle"  dominant-baseline="middle" fill="black" > 721</text>
<circle cx="1759" cy="615" r="4" fill="white" stroke="black" />
<line x1="1759" y1="619" x2="1759" y2="736" stroke="black" />
<circle cx="1759" cy="736" r="4" fill="white" stroke="black" />
<text x="1759" y="748" font-family="Verdana" font-size="8" text-anchor="middle"  dominant-baseline="middle" fill="black" > 721</text>
<circle cx="1768" cy="491" r="4" fill="white" stroke="black" />
<line x1="1768" y1="495" x2="1768" y2="631" stroke="black" />
<line x1="1765" y1="631" x2="1771" y2="631" stroke="black" />
<text x="1769" y="623" font-family="Verdana" font-size="8" text-anchor="middle"  dominant-baseline="middle" fill="black" > 616</text>
<circle cx="1765" cy="631" r="4" fill="white" stroke="black" />
<line x1="1765" y1="635" x2="1765" y2="736" stroke="black" />
<circle cx="1765" cy="736" r="4" fill="white" stroke="black" />
<text x="1765" y="748" font-family="Verdana" font-size="8" text-anchor="middle"  dominant-baseline="middle" fill="black" > 721</text>
<circle cx="1771" cy="631" r="4" fill="white" stroke="black" />
<line x1="1771" y1="635" x2="1771" y2="736" stroke="black" />
<circle cx="1771" cy="736" r="4" fill="white" stroke="black" />
<text x="1771" y="748" font-family="Verdana" font-size="8" text-anchor="middle"  dominant-baseline="middle" fill="black" > 721</text>
<circle cx="1787" cy="474" r="4" fill="white" stroke="black" />
<line x1="1787" y1="478" x2="1787" y2="736" stroke="black" />
<circle cx="1787" cy="736" r="4" fill="white" stroke="black" />
<text x="1787" y="748" font-family="Verdana" font-size="8" text-anchor="middle"  dominant-baseline="middle" fill="black" > 721</text>
<circle cx="1850" cy="55" r="4" fill="white" stroke="black" />
<line x1="1850" y1="59" x2="1850" y2="365" stroke="black" />
<line x1="1825" y1="365" x2="1875" y2="365" stroke="black" />
<text x="1862" y="357" font-family="Verdana" font-size="8" text-anchor="middle"  dominant-baseline="middle" fill="black" > 350</text>
<circle cx="1825" cy="365" r="4" fill="white" stroke="black" />
<line x1="1825" y1="369" x2="1825" y2="399" stroke="black" />
<line x1="1812" y1="399" x2="1838" y2="399" stroke="black" />
<text x="1831" y="391" font-family="Verdana" font-size="8" text-anchor="middle"  dominant-baseline="middle" fill="black" > 384</text>
<circle cx="1812" cy="399" r="4" fill="white" stroke="black" />
<line x1="1812" y1="403" x2="1812" y2="717" stroke="black" />
<line x1="1806" y1="717" x2="1819" y2="717" stroke="black" />
<text x="1815" y="709" font-family="Verdana" font-size="8" text-anchor="middle"  dominant-baseline="middle" fill="black" > 702</text>
<circle cx="1806" cy="717" r="4" fill="white" stroke="black" />
<line x1="1806" y1="721" x2="1806" y2="736" stroke="black" />
<circle cx="1806" cy="736" r="4" fill="white" stroke="black" />
<text x="1806" y="748" font-family="Verdana" font-size="8" text-anchor="middle"  dominant-baseline="middle" fill="black" > 721</text>
<circle cx="1818" cy="717" r="4" fill="white" stroke="black" />
<line x1="1818" y1="721" x2="1818" y2="736" stroke="black" />
<circle cx="1818" cy="736" r="4" fill="white" stroke="black" />
<text x="1818" y="748" font-family="Verdana" font-size="8" text-anchor="middle"  dominant-baseline="middle" fill="black" > 721</text>
<circle cx="1837" cy="399" r="4" fill="white" stroke="black" />
<line x1="1837" y1="403" x2="1837" y2="504" stroke="black" />
<line x1="1831" y1="504" x2="1844" y2="504" stroke="black" />
<text x="1840" y="496" font-family="Verdana" font-size="8" text-anchor="middle"  dominant-baseline="middle" fill="black" > 489</text>
<circle cx="1831" cy="504" r="4" fill="white" stroke="black" />
<line x1="1831" y1="508" x2="1831" y2="736" stroke="black" />
<circle cx="1831" cy="736" r="4" fill="white" stroke="black" />
<text x="1831" y="748" font-family="Verdana" font-size="8" text-anchor="middle"  dominant-baseline="middle" fill="black" > 721</text>
<circle cx="1843" cy="504" r="4" fill="white" stroke="black" />
<line x1="1843" y1="508" x2="1843" y2="649" stroke="black" />
<line x1="1840" y1="649" x2="1846" y2="649" stroke="black" />
<text x="1844" y="641" font-family="Verdana" font-size="8" text-anchor="middle"  dominant-baseline="middle" fill="black" > 634</text>
<circle cx="1840" cy="649" r="4" fill="white" stroke="black" />
<line x1="1840" y1="653" x2="1840" y2="736" stroke="black" />
<circle cx="1840" cy="736" r="4" fill="white" stroke="black" />
<text x="1840" y="748" font-family="Verdana" font-size="8" text-anchor="middle"  dominant-baseline="middle" fill="black" > 721</text>
<circle cx="1846" cy="649" r="4" fill="white" stroke="black" />
<line x1="1846" y1="653" x2="1846" y2="736" stroke="black" />
<circle cx="1846" cy="736" r="4" fill="white" stroke="black" />
<text x="1846" y="748" font-family="Verdana" font-size="8" text-anchor="middle"  dominant-baseline="middle" fill="black" > 721</text>
<circle cx="1875" cy="365" r="4" fill="white" stroke="black" />
<line x1="1875" y1="369" x2="1875" y2="471" stroke="black" />
<line x1="1862" y1="471" x2="1888" y2="471" stroke="black" />
<text x="1881" y="463" font-family="Verdana" font-size="8" text-anchor="middle"  dominant-baseline="middle" fill="black" > 456</text>
<circle cx="1862" cy="471" r="4" fill="white" stroke="black" />
<line x1="1862" y1="475" x2="1862" y2="736" stroke="black" />
<circle cx="1862" cy="736" r="4" fill="white" stroke="black" />
<text x="1862" y="748" font-family="Verdana" font-size="8" text-anchor="middle"  dominant-baseline="middle" fill="black" > 721</text>
<circle cx="1887" cy="471" r="4" fill="white" stroke="black" />
<line x1="1887" y1="475" x2="1887" y2="629" stroke="black" />
<line x1="1881" y1="629" x2="1894" y2="629" stroke="black" />
<text x="1890" y="621" font-family="Verdana" font-size="8" text-anchor="middle"  dominant-baseline="middle" fill="black" > 614</text>
<circle cx="1881" cy="629" r="4" fill="white" stroke="black" />
<line x1="1881" y1="633" x2="1881" y2="736" stroke="black" />
<circle cx="1881" cy="736" r="4" fill="white" stroke="black" />
<text x="1881" y="748" font-family="Verdana" font-size="8" text-anchor="middle"  dominant-baseline="middle" fill="black" > 721</text>
<circle cx="1893" cy="629" r="4" fill="white" stroke="black" />
<line x1="1893" y1="633" x2="1893" y2="736" stroke="black" />
<circle cx="1893" cy="736" r="4" fill="white" stroke="black" />
<text x="1893" y="748" font-family="Verdana" font-size="8" text-anchor="middle"  dominant-baseline="middle" fill="black" > 721</text>
<text x="2000" y="7" font-family="Verdana" font-size="7" text-anchor="middle"  dominant-baseline="middle" fill="black" > C10</text>
<circle cx="2000" cy="15" r="4" fill="white" stroke="black" />
<line x1="2000" y1="19" x2="2000" y2="175" stroke="black" />
<line x1="1950" y1="175" x2="2050" y2="175" stroke="black" />
<text x="2025" y="167" font-family="Verdana" font-size="8" text-anchor="middle"  dominant-baseline="middle" fill="black" > 160</text>
<circle cx="1950" cy="175" r="4" fill="white" stroke="black" />
<line x1="1950" y1="179" x2="1950" y2="351" stroke="black" />
<line x1="1925" y1="351" x2="1975" y2="351" stroke="black" />
<text x="1962" y="343" font-family="Verdana" font-size="8" text-anchor="middle"  dominant-baseline="middle" fill="black" > 336</text>
<circle cx="1925" cy="351" r="4" fill="white" stroke="black" />
<line x1="1925" y1="355" x2="1925" y2="736" stroke="black" />
<circle cx="1925" cy="736" r="4" fill="white" stroke="black" />
<text x="1925" y="748" font-family="Verdana" font-size="8" text-anchor="middle"  dominant-baseline="middle" fill="black" > 721</text>
<circle cx="1975" cy="351" r="4" fill="white" stroke="black" />
<line x1="1975" y1="355" x2="1975" y2="529" stroke="black" />
<line x1="1962" y1="529" x2="1988" y2="529" stroke="black" />
<text x="1981" y="521" font-family="Verdana" font-size="8" text-anchor="middle"  dominant-baseline="middle" fill="black" > 514</text>
<circle cx="1962" cy="529" r="4" fill="white" stroke="black" />
<line x1="1962" y1="533" x2="1962" y2="736" stroke="black" />
<circle cx="1962" cy="736" r="4" fill="white" stroke="black" />
<text x="1962" y="748" font-family="Verdana" font-size="8" text-anchor="middle"  dominant-baseline="middle" fill="black" > 721</text>
<circle cx="1987" cy="529" r="4" fill="white" stroke="black" />
<line x1="1987" y1="533" x2="1987" y2="660" stroke="black" />
<line x1="1981" y1="660" x2="1994" y2="660" stroke="black" />
<text x="1990" y="652" font-family="Verdana" font-size="8" text-anchor="middle"  dominant-baseline="middle" fill="black" > 645</text>
<circle cx="1981" cy="660" r="4" fill="white" stroke="black" />
<line x1="1981" y1="664" x2="1981" y2="736" stroke="black" />
<circle cx="1981" cy="736" r="4" fill="white" stroke="black" />
<text x="1981" y="748" font-family="Verdana" font-size="8" text-anchor="middle"  dominant-baseline="middle" fill="black" > 721</text>
<circle cx="1993" cy="660" r="4" fill="white" stroke="black" />
<line x1="1993" y1="664" x2="1993" y2="736" stroke="black" />
<circle cx="1993" cy="736" r="4" fill="white" stroke="black" />
<text x="1993" y="748" font-family="Verdana" font-size="8" text-anchor="middle"  dominant-baseline="middle" fill="black" > 721</text>
<circle cx="2050" cy="175" r="4" fill="white" stroke="black" />
<line x1="2050" y1="179" x2="2050" y2="365" stroke="black" />
<line x1="2025" y1="365" x2="2075" y2="365" stroke="black" />
<text x="2062" y="357" font-family="Verdana" font-size="8" text-anchor="middle"  dominant-baseline="middle" fill="black" > 350</text>
<circle cx="2025" cy="365" r="4" fill="white" stroke="black" />
<line x1="2025" y1="369" x2="2025" y2="736" stroke="black" />
<circle cx="2025" cy="736" r="4" fill="white" stroke="black" />
<text x="2025" y="748" font-family="Verdana" font-size="8" text-anchor="middle"  dominant-baseline="middle" fill="black" > 721</text>
<circle cx="2075" cy="365" r="4" fill="white" stroke="black" />
<line x1="2075" y1="369" x2="2075" y2="515" stroke="black" />
<line x1="2062" y1="515" x2="2088" y2="515" stroke="black" />
<text x="2081" y="507" font-family="Verdana" font-size="8" text-anchor="middle"  dominant-baseline="middle" fill="black" > 500</text>
<circle cx="2062" cy="515" r="4" fill="white" stroke="black" />
<line x1="2062" y1="519" x2="2062" y2="736" stroke="black" />
<circle cx="2062" cy="736" r="4" fill="white" stroke="black" />
<text x="2062" y="748" font-family="Verdana" font-size="8" text-anchor="middle"  dominant-baseline="middle" fill="black" > 721</text>
<circle cx="2087" cy="515" r="4" fill="white" stroke="black" />
<line x1="2087" y1="519" x2="2087" y2="683" stroke="black" />
<line x1="2081" y1="683" x2="2094" y2="683" stroke="black" />
<text x="2090" y="675" font-family="Verdana" font-size="8" text-anchor="middle"  dominant-baseline="middle" fill="black" > 668</text>
<circle cx="2081" cy="683" r="4" fill="white" stroke="black" />
<line x1="2081" y1="687" x2="2081" y2="736" stroke="black" />
<circle cx="2081" cy="736" r="4" fill="white" stroke="black" />
<text x="2081" y="748" font-family="Verdana" font-size="8" text-anchor="middle"  dominant-baseline="middle" fill="black" > 721</text>
<circle cx="2093" cy="683" r="4" fill="white" stroke="black" />
<line x1="2093" y1="687" x2="2093" y2="736" stroke="black" />
<circle cx="2093" cy="736" r="4" fill="white" stroke="black" />
<text x="2093" y="748" font-family="Verdana" font-size="8" text-anchor="middle"  dominant-baseline="middle" fill="black" > 721</text>
<text x="2300" y="7" font-family="Verdana" font-size="7" text-anchor="middle"  dominant-baseline="middle" fill="black" > C11</text>
<circle cx="2300" cy="15" r="4" fill="white" stroke="black" />
<line x1="2300" y1="19" x2="2300" y2="593" stroke="black" />
<line x1="2150" y1="593" x2="2450" y2="593" stroke="black" />
<text x="2325" y="585" font-family="Verdana" font-size="8" text-anchor="middle"  dominant-baseline="middle" fill="black" > 578</text>
<circle cx="2150" cy="593" r="4" fill="white" stroke="black" />
<line x1="2150" y1="597" x2="2150" y2="683" stroke="black" />
<line x1="2146" y1="687" x2="2150" y2="679" stroke="blue" />
<line x1="2150" y1="687" x2="2154" y2="679" stroke="blue" />
<text x="2150" y="695" font-family="Verdana" font-size="8" text-anchor="middle"  dominant-baseline="middle" fill="black" > 668</text>
<circle cx="2250" cy="593" r="4" fill="white" stroke="black" />
<line x1="2250" y1="597" x2="2250" y2="707" stroke="black" />
<line x1="2216" y1="707" x2="2284" y2="707" stroke="black" />
<text x="2258" y="699" font-family="Verdana" font-size="8" text-anchor="middle"  dominant-baseline="middle" fill="black" > 692</text>
<circle cx="2216" cy="707" r="4" fill="white" stroke="black" />
<line x1="2216" y1="711" x2="2216" y2="736" stroke="black" />
<circle cx="2216" cy="736" r="4" fill="white" stroke="black" />
<text x="2216" y="748" font-family="Verdana" font-size="8" text-anchor="middle"  dominant-baseline="middle" fill="black" > 721</text>
<circle cx="2249" cy="707" r="4" fill="white" stroke="black" />
<line x1="2249" y1="711" x2="2249" y2="736" stroke="black" />
<circle cx="2249" cy="736" r="4" fill="white" stroke="black" />
<text x="2249" y="748" font-family="Verdana" font-size="8" text-anchor="middle"  dominant-baseline="middle" fill="black" > 721</text>
<circle cx="2282" cy="707" r="4" fill="white" stroke="black" />
<line x1="2282" y1="711" x2="2282" y2="725" stroke="black" />
<line x1="2274" y1="725" x2="2291" y2="725" stroke="black" />
<text x="2286" y="717" font-family="Verdana" font-size="8" text-anchor="middle"  dominant-baseline="middle" fill="black" > 710</text>
<circle cx="2274" cy="725" r="4" fill="white" stroke="black" />
<circle cx="2290" cy="725" r="4" fill="white" stroke="black" />
<line x1="2274" y1="729" x2="2274" y2="732" stroke="black" />
<line x1="2274" y1="732" x2="2282" y2="734" stroke="black" />
<line x1="2290" y1="729" x2="2290" y2="732" stroke="black" />
<line x1="2290" y1="732" x2="2282" y2="734" stroke="black" />
<text x="2282" y="722" font-family="Verdana" font-size="8" text-anchor="middle"  dominant-baseline="middle" fill="black" > 719</text>
<circle cx="2282" cy="734" r="4" fill="white" stroke="black" />
<line x1="2282" y1="738" x2="2282" y2="736" stroke="black" />
<circle cx="2282" cy="736" r="4" fill="white" stroke="black" />
<text x="2282" y="748" font-family="Verdana" font-size="8" text-anchor="middle"  dominant-baseline="middle" fill="black" > 721</text>
<circle cx="2350" cy="593" r="4" fill="white" stroke="black" />
<circle cx="2450" cy="593" r="4" fill="white" stroke="black" />
<line x1="2350" y1="597" x2="2350" y2="608" stroke="black" />
<line x1="2350" y1="608" x2="2400" y2="613" stroke="black" />
<line x1="2450" y1="597" x2="2450" y2="608" stroke="black" />
<line x1="2450" y1="608" x2="2400" y2="613" stroke="black" />
<text x="2400" y="601" font-family="Verdana" font-size="8" text-anchor="middle"  dominant-baseline="middle" fill="black" > 598</text>
<circle cx="2400" cy="613" r="4" fill="white" stroke="black" />
<line x1="2400" y1="617" x2="2400" y2="704" stroke="black" />
<line x1="2396" y1="708" x2="2400" y2="700" stroke="blue" />
<line x1="2400" y1="708" x2="2404" y2="700" stroke="blue" />
<text x="2400" y="716" font-family="Verdana" font-size="8" text-anchor="middle"  dominant-baseline="middle" fill="black" > 689</text>
<text x="2600" y="7" font-family="Verdana" font-size="7" text-anchor="middle"  dominant-baseline="middle" fill="black" > C12</text>
<circle cx="2600" cy="15" r="4" fill="white" stroke="black" />
<line x1="2600" y1="19" x2="2600" y2="230" stroke="black" />
<line x1="2550" y1="230" x2="2650" y2="230" stroke="black" />
<text x="2625" y="222" font-family="Verdana" font-size="8" text-anchor="middle"  dominant-baseline="middle" fill="black" > 215</text>
<circle cx="2550" cy="230" r="4" fill="white" stroke="black" />
<line x1="2550" y1="234" x2="2550" y2="615" stroke="black" />
<line x1="2546" y1="619" x2="2550" y2="611" stroke="blue" />
<line x1="2550" y1="619" x2="2554" y2="611" stroke="blue" />
<text x="2550" y="627" font-family="Verdana" font-size="8" text-anchor="middle"  dominant-baseline="middle" fill="black" > 600</text>
<circle cx="2650" cy="230" r="4" fill="white" stroke="black" />
<line x1="2650" y1="234" x2="2650" y2="618" stroke="black" />
<line x1="2625" y1="618" x2="2675" y2="618" stroke="black" />
<text x="2662" y="610" font-family="Verdana" font-size="8" text-anchor="middle"  dominant-baseline="middle" fill="black" > 603</text>
<circle cx="2625" cy="618" r="4" fill="white" stroke="black" />
<line x1="2625" y1="622" x2="2625" y2="736" stroke="black" />
<circle cx="2625" cy="736" r="4" fill="white" stroke="black" />
<text x="2625" y="748" font-family="Verdana" font-size="8" text-anchor="middle"  dominant-baseline="middle" fill="black" > 721</text>
<circle cx="2675" cy="618" r="4" fill="white" stroke="black" />
<line x1="2675" y1="622" x2="2675" y2="736" stroke="black" />
<circle cx="2675" cy="736" r="4" fill="white" stroke="black" />
<text x="2675" y="748" font-family="Verdana" font-size="8" text-anchor="middle"  dominant-baseline="middle" fill="black" > 721</text>
<text x="2800" y="7" font-family="Verdana" font-size="7" text-anchor="middle"  dominant-baseline="middle" fill="black" > C13</text>
<circle cx="2800" cy="15" r="4" fill="white" stroke="black" />
<line x1="2800" y1="19" x2="2800" y2="138" stroke="black" />
<line x1="2750" y1="138" x2="2850" y2="138" stroke="black" />
<text x="2825" y="130" font-family="Verdana" font-size="8" text-anchor="middle"  dominant-baseline="middle" fill="black" > 123</text>
<circle cx="2750" cy="138" r="4" fill="white" stroke="black" />
<line x1="2750" y1="142" x2="2750" y2="293" stroke="black" />
<line x1="2725" y1="293" x2="2775" y2="293" stroke="black" />
<text x="2762" y="285" font-family="Verdana" font-size="8" text-anchor="middle"  dominant-baseline="middle" fill="black" > 278</text>
<circle cx="2725" cy="293" r="4" fill="white" stroke="black" />
<line x1="2725" y1="297" x2="2725" y2="525" stroke="black" />
<line x1="2721" y1="521" x2="2729" y2="529" stroke="red" />
<line x1="2721" y1="529" x2="2729" y2="521" stroke="red" />
<text x="2725" y="537" font-family="Verdana" font-size="8" text-anchor="middle"  dominant-baseline="middle" fill="black" > 510</text>
<circle cx="2775" cy="293" r="4" fill="white" stroke="black" />
<line x1="2775" y1="297" x2="2775" y2="585" stroke="black" />
<line x1="2762" y1="585" x2="2788" y2="585" stroke="black" />
<text x="2781" y="577" font-family="Verdana" font-size="8" text-anchor="middle"  dominant-baseline="middle" fill="black" > 570</text>
<circle cx="2762" cy="585" r="4" fill="white" stroke="black" />
<line x1="2762" y1="589" x2="2762" y2="736" stroke="black" />
<circle cx="2762" cy="736" r="4" fill="white" stroke="black" />
<text x="2762" y="748" font-family="Verdana" font-size="8" text-anchor="middle"  dominant-baseline="middle" fill="black" > 721</text>
<circle cx="2787" cy="585" r="4" fill="white" stroke="black" />
<line x1="2787" y1="589" x2="2787" y2="695" stroke="black" />
<line x1="2781" y1="695" x2="2794" y2="695" stroke="black" />
<text x="2790" y="687" font-family="Verdana" font-size="8" text-anchor="middle"  dominant-baseline="middle" fill="black" > 680</text>
<circle cx="2781" cy="695" r="4" fill="white" stroke="black" />
<line x1="2781" y1="699" x2="2781" y2="736" stroke="black" />
<circle cx="2781" cy="736" r="4" fill="white" stroke="black" />
<text x="2781" y="748" font-family="Verdana" font-size="8" text-anchor="middle"  dominant-baseline="middle" fill="black" > 721</text>
<circle cx="2793" cy="695" r="4" fill="white" stroke="black" />
<line x1="2793" y1="699" x2="2793" y2="736" stroke="black" />
<circle cx="2793" cy="736" r="4" fill="white" stroke="black" />
<text x="2793" y="748" font-family="Verdana" font-size="8" text-anchor="middle"  dominant-baseline="middle" fill="black" > 721</text>
<circle cx="2850" cy="138" r="4" fill="white" stroke="black" />
<line x1="2850" y1="142" x2="2850" y2="316" stroke="black" />
<line x1="2846" y1="320" x2="2850" y2="312" stroke="blue" />
<line x1="2850" y1="320" x2="2854" y2="312" stroke="blue" />
<text x="2850" y="328" font-family="Verdana" font-size="8" text-anchor="middle"  dominant-baseline="middle" fill="black" > 301</text>
</svg>
