<?xml version="1.0" encoding="utf-8"?>
<svg xmlns="http://www.w3.org/2000/svg" version="1.1" width="1050" height="750">
<rect width="1050" height="15" x="0" y="0" fill="white" />
<rect width="1050" height="15" x="0" y="735" fill="white" />
<rect width="25" height="750" x="0" y="0" fill="white" />
<rect width="25" height="750" x="1025" y="0" fill="white" />
<rect width="1010" height="144" x="25" y="15" fill="ghostwhite" />
<rect width="1010" height="144" x="25" y="159" fill="snow" />
<rect width="1010" height="144" x="25" y="303" fill="ghostwhite" />
<rect width="1010" height="144" x="25" y="447" fill="snow" />
<rect width="1010" height="144" x="25" y="591" fill="ghostwhite" />
<text x="12" y="87" font-family="Verdana" font-size="10" text-anchor="middle"  dominant-baseline="middle" fill="red" > D0</text>
<text x="12" y="231" font-family="Verdana" font-size="10" text-anchor="middle"  dominant-baseline="middle" fill="red" > D1</text>
<text x="12" y="375" font-family="Verdana" font-size="10" text-anchor="middle"  dominant-baseline="middle" fill="red" > D2</text>
<text x="12" y="519" font-family="Verdana" font-size="10" text-anchor="middle"  dominant-baseline="middle" fill="red" > D3</text>
<text x="12" y="663" font-family="Verdana" font-size="10" text-anchor="middle"  dominant-baseline="middle" fill="red" > D4</text>
<text x="12" y="20" font-family="Verdana" font-size="10" text-anchor="middle"  dominant-baseline="middle" fill="black" > 0</text>
<text x="12" y="164" font-family="Verdana" font-size="10" text-anchor="middle"  dominant-baseline="middle" fill="black" > 144</text>
<text x="12" y="308" font-family="Verdana" font-size="10" text-anchor="middle"  dominant-baseline="middle" fill="black" > 288</text>
<text x="12" y="452" font-family="Verdana" font-size="10" text-anchor="middle"  dominant-baseline="middle" fill="black" > 432</text>
<text x="12" y="596" font-family="Verdana" font-size="10" text-anchor="middle"  dominant-baseline="middle" fill="black" > 576</text>
<text x="12" y="740" font-family="Verdana" font-size="10" text-anchor="middle"  dominant-baseline="middle" fill="black" > 720</text>
<text x="100" y="7" font-family="Verdana" font-size="7" text-anchor="middle"  dominant-baseline="middle" fill="black" > C1</text>
<circle cx="100" cy="15" r="4" fill="white" stroke="black" />
<line x1="100" y1="19" x2="100" y2="283" stroke="black" />
<line x1="50" y1="283" x2="150" y2="283" stroke="black" />
<text x="125" y="275" font-family="Verdana" font-size="8" text-anchor="middle"  dominant-baseline="middle" fill="black" > 268</text>
<circle cx="50" cy="283" r="4" fill="white" stroke="black" />
<line x1="50" y1="287" x2="50" y2="519" stroke="black" />
<line x1="25" y1="519" x2="75" y2="519" stroke="black" />
<text x="62" y="511" font-family="Verdana" font-size="8" text-anchor="middle"  dominant-baseline="middle" fill="black" > 504</text>
<circle cx="25" cy="519" r="4" fill="white" stroke="black" />
<line x1="25" y1="523" x2="25" y2="736" stroke="black" />
<circle cx="25" cy="736" r="4" fill="white" stroke="black" />
<text x="25" y="748" font-family="Verdana" font-size="8" text-anchor="middle"  dominant-baseline="middle" fill="black" > 721</text>
<circle cx="75" cy="519" r="4" fill="white" stroke="black" />
<line x1="75" y1="523" x2="75" y2="616" stroke="black" />
<line x1="62" y1="616" x2="88" y2="616" stroke="black" />
<text x="81" y="608" font-family="Verdana" font-size="8" text-anchor="middle"  dominant-baseline="middle" fill="black" > 601</text>
<circle cx="62" cy="616" r="4" fill="white" stroke="black" />
<line x1="62" y1="620" x2="62" y2="736" stroke="black" />
<circle cx="62" cy="736" r="4" fill="white" stroke="black" />
<text x="62" y="748" font-family="Verdana" font-size="8" text-anchor="middle"  dominant-baseline="middle" fill="black" > 721</text>
<circle cx="87" cy="616" r="4" fill="white" stroke="black" />
<line x1="87" y1="620" x2="87" y2="722" stroke="black" />
<line x1="81" y1="722" x2="94" y2="722" stroke="black" />
<text x="90" y="714" font-family="Verdana" font-size="8" text-anchor="middle"  dominant-baseline="middle" fill="black" > 707</text>
<circle cx="81" cy="722" r="4" fill="white" stroke="black" />
<line x1="81" y1="726" x2="81" y2="736" stroke="black" />
<circle cx="81" cy="736" r="4" fill="white" stroke="black" />
<text x="81" y="748" font-family="Verdana" font-size="8" text-anchor="middle"  dominant-baseline="middle" fill="black" > 721</text>
<circle cx="93" cy="722" r="4" fill="white" stroke="black" />
<line x1="93" y1="726" x2="93" y2="736" stroke="black" />
<circle cx="93" cy="736" r="4" fill="white" stroke="black" />
<text x="93" y="748" font-family="Verdana" font-size="8" text-anchor="middle"  dominant-baseline="middle" fill="black" > 721</text>
<circle cx="150" cy="283" r="4" fill="white" stroke="black" />
<line x1="150" y1="287" x2="150" y2="587" stroke="black" />
<line x1="125" y1="587" x2="175" y2="587" stroke="black" />
<text x="162" y="579" font-family="Verdana" font-size="8" text-anchor="middle"  dominant-baseline="middle" fill="black" > 572</text>
<circle cx="125" cy="587" r="4" fill="white" stroke="black" />
<line x1="125" y1="591" x2="125" y2="736" stroke="black" />
<circle cx="125" cy="736" r="4" fill="white" stroke="black" />
<text x="125" y="748" font-family="Verdana" font-size="8" text-anchor="middle"  dominant-baseline="middle" fill="black" > 721</text>
<circle cx="175" cy="587" r="4" fill="white" stroke="black" />
<line x1="175" y1="591" x2="175" y2="729" stroke="black" />
<line x1="162" y1="729" x2="188" y2="729" stroke="black" />
<text x="181" y="721" font-family="Verdana" font-size="8" text-anchor="middle"  dominant-baseline="middle" fill="black" > 714</text>
<circle cx="162" cy="729" r="4" fill="white" stroke="black" />
<line x1="162" y1="733" x2="162" y2="736" stroke="black" />
<circle cx="162" cy="736" r="4" fill="white" stroke="black" />
<text x="162" y="748" font-family="Verdana" font-size="8" text-anchor="middle"  dominant-baseline="middle" fill="black" > 721</text>
<circle cx="187" cy="729" r="4" fill="white" stroke="black" />
<line x1="187" y1="733" x2="187" y2="736" stroke="black" />
<circle cx="187" cy="736" r="4" fill="white" stroke="black" />
<text x="187" y="748" font-family="Verdana" font-size="8" text-anchor="middle"  dominant-baseline="middle" fill="black" > 721</text>
<text x="250" y="7" font-family="Verdana" font-size="7" text-anchor="middle"  dominant-baseline="middle" fill="black" > C2</text>
<circle cx="250" cy="15" r="4" fill="white" stroke="black" />
<line x1="250" y1="19" x2="250" y2="191" stroke="black" />
<line x1="246" y1="195" x2="250" y2="187" stroke="blue" />
<line x1="250" y1="195" x2="254" y2="187" stroke="blue" />
<text x="250" y="203" font-family="Verdana" font-size="8" text-anchor="middle"  dominant-baseline="middle" fill="black" > 176</text>
<text x="400" y="7" font-family="Verdana" font-size="7" text-anchor="middle"  dominant-baseline="middle" fill="black" > C3</text>
<circle cx="400" cy="15" r="4" fill="white" stroke="black" />
<line x1="400" y1="19" x2="400" y2="211" stroke="black" />
<line x1="350" y1="211" x2="450" y2="211" stroke="black" />
<text x="425" y="203" font-family="Verdana" font-size="8" text-anchor="middle"  dominant-baseline="middle" fill="black" > 196</text>
<circle cx="350" cy="211" r="4" fill="white" stroke="black" />
<line x1="350" y1="215" x2="350" y2="303" stroke="black" />
<line x1="325" y1="303" x2="375" y2="303" stroke="black" />
<text x="362" y="295" font-family="Verdana" font-size="8" text-anchor="middle"  dominant-baseline="middle" fill="black" > 288</text>
<circle cx="325" cy="303" r="4" fill="white" stroke="black" />
<circle cx="375" cy="303" r="4" fill="white" stroke="black" />
<line x1="325" y1="307" x2="325" y2="318" stroke="black" />
<line x1="325" y1="318" x2="350" y2="323" stroke="black" />
<line x1="375" y1="307" x2="375" y2="318" stroke="black" />
<line x1="375" y1="318" x2="350" y2="323" stroke="black" />
<text x="350" y="311" font-family="Verdana" font-size="8" text-anchor="middle"  dominant-baseline="middle" fill="black" > 308</text>
<circle cx="350" cy="323" r="4" fill="white" stroke="black" />
<line x1="350" y1="327" x2="350" y2="736" stroke="black" />
<circle cx="350" cy="736" r="4" fill="white" stroke="black" />
<text x="350" y="748" font-family="Verdana" font-size="8" text-anchor="middle"  dominant-baseline="middle" fill="black" > 721</text>
<circle cx="450" cy="211" r="4" fill="white" stroke="black" />
<line x1="450" y1="215" x2="450" y2="229" stroke="black" />
<line x1="446" y1="225" x2="454" y2="233" stroke="red" />
<line x1="446" y1="233" x2="454" y2="225" stroke="red" />
<text x="450" y="241" font-family="Verdana" font-size="8" text-anchor="middle"  dominant-baseline="middle" fill="black" > 214</text>
<text x="550" y="7" font-family="Verdana" font-size="7" text-anchor="middle"  dominant-baseline="middle" fill="black" > C4</text>
<circle cx="550" cy="15" r="4" fill="white" stroke="black" />
<line x1="550" y1="19" x2="550" y2="415" stroke="black" />
<line x1="546" y1="411" x2="554" y2="419" stroke="red" />
<line x1="546" y1="419" x2="554" y2="411" stroke="red" />
<text x="550" y="427" font-family="Verdana" font-size="8" text-anchor="middle"  dominant-baseline="middle" fill="black" > 400</text>
<text x="650" y="7" font-family="Verdana" font-size="7" text-anchor="middle"  dominant-baseline="middle" fill="black" > C5</text>
<circle cx="650" cy="15" r="4" fill="white" stroke="black" />
<line x1="650" y1="19" x2="650" y2="292" stroke="black" />
<line x1="646" y1="288" x2="654" y2="296" stroke="red" />
<line x1="646" y1="296" x2="654" y2="288" stroke="red" />
<text x="650" y="304" font-family="Verdana" font-size="8" text-anchor="middle"  dominant-baseline="middle" fill="black" > 277</text>
<text x="750" y="7" font-family="Verdana" font-size="7" text-anchor="middle"  dominant-baseline="middle" fill="black" > C6</text>
<circle cx="750" cy="15" r="4" fill="white" stroke="black" />
<line x1="750" y1="19" x2="750" y2="625" stroke="black" />
<line x1="746" y1="621" x2="754" y2="629" stroke="red" />
<line x1="746" y1="629" x2="754" y2="621" stroke="red" />
<text x="750" y="637" font-family="Verdana" font-size="8" text-anchor="middle"  dominant-baseline="middle" fill="black" > 610</text>
<text x="900" y="7" font-family="Verdana" font-size="7" text-anchor="middle"  dominant-baseline="middle" fill="black" > C7</text>
<circle cx="900" cy="15" r="4" fill="white" stroke="black" />
<line x1="900" y1="19" x2="900" y2="60" stroke="black" />
<line x1="850" y1="60" x2="950" y2="60" stroke="black" />
<text x="925" y="52" font-family="Verdana" font-size="8" text-anchor="middle"  dominant-baseline="middle" fill="black" > 45</text>
<circle cx="850" cy="60" r="4" fill="white" stroke="black" />
<line x1="850" y1="64" x2="850" y2="189" stroke="black" />
<line x1="825" y1="189" x2="875" y2="189" stroke="black" />
<text x="862" y="181" font-family="Verdana" font-size="8" text-anchor="middle"  dominant-baseline="middle" fill="black" > 174</text>
<circle cx="825" cy="189" r="4" fill="white" stroke="black" />
<line x1="825" y1="193" x2="825" y2="355" stroke="black" />
<line x1="812" y1="355" x2="838" y2="355" stroke="black" />
<text x="831" y="347" font-family="Verdana" font-size="8" text-anchor="middle"  dominant-baseline="middle" fill="black" > 340</text>
<circle cx="812" cy="355" r="4" fill="white" stroke="black" />
<line x1="812" y1="359" x2="812" y2="514" stroke="black" />
<line x1="806" y1="514" x2="819" y2="514" stroke="black" />
<text x="815" y="506" font-family="Verdana" font-size="8" text-anchor="middle"  dominant-baseline="middle" fill="black" > 499</text>
<circle cx="806" cy="514" r="4" fill="white" stroke="black" />
<line x1="806" y1="518" x2="806" y2="736" stroke="black" />
<circle cx="806" cy="736" r="4" fill="white" stroke="black" />
<text x="806" y="748" font-family="Verdana" font-size="8" text-anchor="middle"  dominant-baseline="middle" fill="black" > 721</text>
<circle cx="818" cy="514" r="4" fill="white" stroke="black" />
<line x1="818" y1="518" x2="818" y2="657" stroke="black" />
<line x1="815" y1="657" x2="821" y2="657" stroke="black" />
<text x="819" y="649" font-family="Verdana" font-size="8" text-anchor="middle"  dominant-baseline="middle" fill="black" > 642</text>
<circle cx="815" cy="657" r="4" fill="white" stroke="black" />
<line x1="815" y1="661" x2="815" y2="725" stroke="black" />
<line x1="813" y1="725" x2="817" y2="725" stroke="black" />
<text x="815" y="717" font-family="Verdana" font-size="8" text-anchor="middle"  dominant-baseline="middle" fill="black" > 710</text>
<circle cx="813" cy="725" r="4" fill="white" stroke="black" />
<line x1="813" y1="729" x2="813" y2="736" stroke="black" />
<circle cx="813" cy="736" r="4" fill="white" stroke="black" />
<text x="813" y="748" font-family="Verdana" font-size="8" text-anchor="middle"  dominant-baseline="middle" fill="black" > 721</text>
<circle cx="816" cy="725" r="4" fill="white" stroke="black" />
<line x1="816" y1="729" x2="816" y2="736" stroke="black" />
<circle cx="816" cy="736" r="4" fill="white" stroke="black" />
<text x="816" y="748" font-family="Verdana" font-size="8" text-anchor="middle"  dominant-baseline="middle" fill="black" > 721</text>
<circle cx="821" cy="657" r="4" fill="white" stroke="black" />
<line x1="821" y1="661" x2="821" y2="728" stroke="black" />
<line x1="819" y1="728" x2="823" y2="728" stroke="black" />
<text x="821" y="720" font-family="Verdana" font-size="8" text-anchor="middle"  dominant-baseline="middle" fill="black" > 713</text>
<circle cx="819" cy="728" r="4" fill="white" stroke="black" />
<line x1="819" y1="732" x2="819" y2="736" stroke="black" />
<circle cx="819" cy="736" r="4" fill="white" stroke="black" />
<text x="819" y="748" font-family="Verdana" font-size="8" text-anchor="middle"  dominant-baseline="middle" fill="black" > 721</text>
<circle cx="822" cy="728" r="4" fill="white" stroke="black" />
<line x1="822" y1="732" x2="822" y2="736" stroke="black" />
<circle cx="822" cy="736" r="4" fill="white" stroke="black" />
<text x="822" y="748" font-family="Verdana" font-size="8" text-anchor="middle"  dominant-baseline="middle" fill="black" > 721</text>
<circle cx="837" cy="355" r="4" fill="white" stroke="black" />
<line x1="837" y1="359" x2="837" y2="730" stroke="black" />
<line x1="833" y1="726" x2="841" y2="734" stroke="red" />
<line x1="833" y1="734" x2="841" y2="726" stroke="red" />
<text x="837" y="742" font-family="Verdana" font-size="8" text-anchor="middle"  dominant-baseline="middle" fill="black" > 715</text>
<circle cx="875" cy="189" r="4" fill="white" stroke="black" />
<line x1="875" y1="193" x2="875" y2="356" stroke="black" />
<line x1="862" y1="356" x2="888" y2="356" stroke="black" />
<text x="881" y="348" font-family="Verdana" font-size="8" text-anchor="middle"  dominant-baseline="middle" fill="black" > 341</text>
<circle cx="862" cy="356" r="4" fill="white" stroke="black" />
<line x1="862" y1="360" x2="862" y2="530" stroke="black" />
<line x1="856" y1="530" x2="869" y2="530" stroke="black" />
<text x="865" y="522" font-family="Verdana" font-size="8" text-anchor="middle"  dominant-baseline="middle" fill="black" > 515</text>
<circle cx="856" cy="530" r="4" fill="white" stroke="black" />
<line x1="856" y1="534" x2="856" y2="642" stroke="black" />
<line x1="853" y1="642" x2="859" y2="642" stroke="black" />
<text x="857" y="634" font-family="Verdana" font-size="8" text-anchor="middle"  dominant-baseline="middle" fill="black" > 627</text>
<circle cx="853" cy="642" r="4" fill="white" stroke="black" />
<line x1="853" y1="646" x2="853" y2="676" stroke="black" />
<line x1="851" y1="676" x2="855" y2="676" stroke="black" />
<text x="853" y="668" font-family="Verdana" font-size="8" text-anchor="middle"  dominant-baseline="middle" fill="black" > 661</text>
<circle cx="851" cy="676" r="4" fill="white" stroke="black" />
<line x1="851" y1="680" x2="851" y2="736" stroke="black" />
<circle cx="851" cy="736" r="4" fill="white" stroke="black" />
<text x="851" y="748" font-family="Verdana" font-size="8" text-anchor="middle"  dominant-baseline="middle" fill="black" > 721</text>
<circle cx="854" cy="676" r="4" fill="white" stroke="black" />
<line x1="854" y1="680" x2="854" y2="736" stroke="black" />
<circle cx="854" cy="736" r="4" fill="white" stroke="black" />
<text x="854" y="748" font-family="Verdana" font-size="8" text-anchor="middle"  dominant-baseline="middle" fill="black" > 721</text>
<circle cx="859" cy="642" r="4" fill="white" stroke="black" />
<line x1="859" y1="646" x2="859" y2="736" stroke="black" />
<circle cx="859" cy="736" r="4" fill="white" stroke="black" />
<text x="859" y="748" font-family="Verdana" font-size="8" text-anchor="middle"  dominant-baseline="middle" fill="black" > 721</text>
<circle cx="868" cy="530" r="4" fill="white" stroke="black" />
<line x1="868" y1="534" x2="868" y2="677" stroke="black" />
<line x1="865" y1="677" x2="871" y2="677" stroke="black" />
<text x="869" y="669" font-family="Verdana" font-size="8" text-anchor="middle"  dominant-baseline="middle" fill="black" > 662</text>
<circle cx="865" cy="677" r="4" fill="white" stroke="black" />
<line x1="865" y1="681" x2="865" y2="736" stroke="black" />
<circle cx="865" cy="736" r="4" fill="white" stroke="black" />
<text x="865" y="748" font-family="Verdana" font-size="8" text-anchor="middle"  dominant-baseline="middle" fill="black" > 721</text>
<circle cx="871" cy="677" r="4" fill="white" stroke="black" />
<line x1="871" y1="681" x2="871" y2="736" stroke="black" />
<circle cx="871" cy="736" r="4" fill="white" stroke="black" />
<text x="871" y="748" font-family="Verdana" font-size="8" text-anchor="middle"  dominant-baseline="middle" fill="black" > 721</text>
<circle cx="887" cy="356" r="4" fill="white" stroke="black" />
<line x1="887" y1="360" x2="887" y2="541" stroke="black" />
<line x1="883" y1="545" x2="887" y2="537" stroke="blue" />
<line x1="887" y1="545" x2="891" y2="537" stroke="blue" />
<text x="887" y="553" font-family="Verdana" font-size="8" text-anchor="middle"  dominant-baseline="middle" fill="black" > 526</text>
<circle cx="950" cy="60" r="4" fill="white" stroke="black" />
<line x1="950" y1="64" x2="950" y2="186" stroke="black" />
<line x1="925" y1="186" x2="975" y2="186" stroke="black" />
<text x="962" y="178" font-family="Verdana" font-size="8" text-anchor="middle"  dominant-baseline="middle" fill="black" > 171</text>
<circle cx="925" cy="186" r="4" fill="white" stroke="black" />
<line x1="925" y1="190" x2="925" y2="337" stroke="black" />
<line x1="912" y1="337" x2="938" y2="337" stroke="black" />
<text x="931" y="329" font-family="Verdana" font-size="8" text-anchor="middle"  dominant-baseline="middle" fill="black" > 322</text>
<circle cx="912" cy="337" r="4" fill="white" stroke="black" />
<line x1="912" y1="341" x2="912" y2="508" stroke="black" />
<line x1="906" y1="508" x2="919" y2="508" stroke="black" />
<text x="915" y="500" font-family="Verdana" font-size="8" text-anchor="middle"  dominant-baseline="middle" fill="black" > 493</text>
<circle cx="906" cy="508" r="4" fill="white" stroke="black" />
<line x1="906" y1="512" x2="906" y2="615" stroke="black" />
<line x1="903" y1="615" x2="909" y2="615" stroke="black" />
<text x="907" y="607" font-family="Verdana" font-size="8" text-anchor="middle"  dominant-baseline="middle" fill="black" > 600</text>
<circle cx="903" cy="615" r="4" fill="white" stroke="black" />
<line x1="903" y1="619" x2="903" y2="736" stroke="black" />
<circle cx="903" cy="736" r="4" fill="white" stroke="black" />
<text x="903" y="748" font-family="Verdana" font-size="8" text-anchor="middle"  dominant-baseline="middle" fill="black" > 721</text>
<circle cx="909" cy="615" r="4" fill="white" stroke="black" />
<line x1="909" y1="619" x2="909" y2="736" stroke="black" />
<circle cx="909" cy="736" r="4" fill="white" stroke="black" />
<text x="909" y="748" font-family="Verdana" font-size="8" text-anchor="middle"  dominant-baseline="middle" fill="black" > 721</text>
<circle cx="918" cy="508" r="4" fill="white" stroke="black" />
<line x1="918" y1="512" x2="918" y2="612" stroke="black" />
<line x1="915" y1="612" x2="921" y2="612" stroke="black" />
<text x="919" y="604" font-family="Verdana" font-size="8" text-anchor="middle"  dominant-baseline="middle" fill="black" > 597</text>
<circle cx="915" cy="612" r="4" fill="white" stroke="black" />
<line x1="915" y1="616" x2="915" y2="736" stroke="black" />
<circle cx="915" cy="736" r="4" fill="white" stroke="black" />
<text x="915" y="748" font-family="Verdana" font-size="8" text-anchor="middle"  dominant-baseline="middle" fill="black" > 721</text>
<circle cx="921" cy="612" r="4" fill="white" stroke="black" />
<line x1="921" y1="616" x2="921" y2="662" stroke="black" />
<line x1="919" y1="662" x2="923" y2="662" stroke="black" />
<text x="921" y="654" font-family="Verdana" font-size="8" text-anchor="middle"  dominant-baseline="middle" fill="black" > 647</text>
<circle cx="919" cy="662" r="4" fill="white" stroke="black" />
<line x1="919" y1="666" x2="919" y2="736" stroke="black" />
<circle cx="919" cy="736" r="4" fill="white" stroke="black" />
<text x="919" y="748" font-family="Verdana" font-size="8" text-anchor="middle"  dominant-baseline="middle" fill="black" > 721</text>
<circle cx="922" cy="662" r="4" fill="white" stroke="black" />
<line x1="922" y1="666" x2="922" y2="736" stroke="black" />
<circle cx="922" cy="736" r="4" fill="white" stroke="black" />
<text x="922" y="748" font-family="Verdana" font-size="8" text-anchor="middle"  dominant-baseline="middle" fill="black" > 721</text>
<circle cx="937" cy="337" r="4" fill="white" stroke="black" />
<line x1="937" y1="341" x2="937" y2="521" stroke="black" />
<line x1="931" y1="521" x2="944" y2="521" stroke="black" />
<text x="940" y="513" font-family="Verdana" font-size="8" text-anchor="middle"  dominant-baseline="middle" fill="black" > 506</text>
<circle cx="931" cy="521" r="4" fill="white" stroke="black" />
<line x1="931" y1="525" x2="931" y2="736" stroke="black" />
<circle cx="931" cy="736" r="4" fill="white" stroke="black" />
<text x="931" y="748" font-family="Verdana" font-size="8" text-anchor="middle"  dominant-baseline="middle" fill="black" > 721</text>
<circle cx="943" cy="521" r="4" fill="white" stroke="black" />
<line x1="943" y1="525" x2="943" y2="736" stroke="black" />
<circle cx="943" cy="736" r="4" fill="white" stroke="black" />
<text x="943" y="748" font-family="Verdana" font-size="8" text-anchor="middle"  dominant-baseline="middle" fill="black" > 721</text>
<circle cx="975" cy="186" r="4" fill="white" stroke="black" />
<line x1="975" y1="190" x2="975" y2="341" stroke="black" />
<line x1="962" y1="341" x2="988" y2="341" stroke="black" />
<text x="981" y="333" font-family="Verdana" font-size="8" text-anchor="middle"  dominant-baseline="middle" fill="black" > 326</text>
<circle cx="962" cy="341" r="4" fill="white" stroke="black" />
<line x1="962" y1="345" x2="962" y2="460" stroke="black" />
<line x1="956" y1="460" x2="969" y2="460" stroke="black" />
<text x="965" y="452" font-family="Verdana" font-size="8" text-anchor="middle"  dominant-baseline="middle" fill="black" > 445</text>
<circle cx="956" cy="460" r="4" fill="white" stroke="black" />
<line x1="956" y1="464" x2="956" y2="736" stroke="black" />
<circle cx="956" cy="736" r="4" fill="white" stroke="black" />
<text x="956" y="748" font-family="Verdana" font-size="8" text-anchor="middle"  dominant-baseline="middle" fill="black" > 721</text>
<circle cx="968" cy="460" r="4" fill="white" stroke="black" />
<line x1="968" y1="464" x2="968" y2="600" stroke="black" />
<line x1="965" y1="600" x2="971" y2="600" stroke="black" />
<text x="969" y="592" font-family="Verdana" font-size="8" text-anchor="middle"  dominant-baseline="middle" fill="black" > 585</text>
<circle cx="965" cy="600" r="4" fill="white" stroke="black" />
<line x1="965" y1="604" x2="965" y2="662" stroke="black" />
<line x1="963" y1="662" x2="967" y2="662" stroke="black" />
<text x="965" y="654" font-family="Verdana" font-size="8" text-anchor="middle"  dominant-baseline="middle" fill="black" > 647</text>
<circle cx="963" cy="662" r="4" fill="white" stroke="black" />
<line x1="963" y1="666" x2="963" y2="736" stroke="black" />
<circle cx="963" cy="736" r="4" fill="white" stroke="black" />
<text x="963" y="748" font-family="Verdana" font-size="8" text-anchor="middle"  dominant-baseline="middle" fill="black" > 721</text>
<circle cx="966" cy="662" r="4" fill="white" stroke="black" />
<line x1="966" y1="666" x2="966" y2="736" stroke="black" />
<circle cx="966" cy="736" r="4" fill="white" stroke="black" />
<text x="966" y="748" font-family="Verdana" font-size="8" text-anchor="middle"  dominant-baseline="middle" fill="black" > 721</text>
<circle cx="971" cy="600" r="4" fill="white" stroke="black" />
<line x1="971" y1="604" x2="971" y2="693" stroke="black" />
<line x1="969" y1="693" x2="973" y2="693" stroke="black" />
<text x="971" y="685" font-family="Verdana" font-size="8" text-anchor="middle"  dominant-baseline="middle" fill="black" > 678</text>
<circle cx="969" cy="693" r="4" fill="white" stroke="black" />
<line x1="969" y1="697" x2="969" y2="736" stroke="black" />
<circle cx="969" cy="736" r="4" fill="white" stroke="black" />
<text x="969" y="748" font-family="Verdana" font-size="8" text-anchor="middle"  dominant-baseline="middle" fill="black" > 721</text>
<circle cx="972" cy="693" r="4" fill="white" stroke="black" />
<line x1="972" y1="697" x2="972" y2="721" stroke="black" />
<line x1="971" y1="721" x2="974" y2="721" stroke="black" />
<text x="972" y="713" font-family="Verdana" font-size="8" text-anchor="middle"  dominant-baseline="middle" fill="black" > 706</text>
<circle cx="971" cy="721" r="4" fill="white" stroke="black" />
<line x1="971" y1="725" x2="971" y2="736" stroke="black" />
<circle cx="971" cy="736" r="4" fill="white" stroke="black" />
<text x="971" y="748" font-family="Verdana" font-size="8" text-anchor="middle"  dominant-baseline="middle" fill="black" > 721</text>
<circle cx="972" cy="721" r="4" fill="white" stroke="black" />
<line x1="972" y1="725" x2="972" y2="736" stroke="black" />
<circle cx="972" cy="736" r="4" fill="white" stroke="black" />
<text x="972" y="748" font-family="Verdana" font-size="8" text-anchor="middle"  dominant-baseline="middle" fill="black" > 721</text>
<circle cx="987" cy="341" r="4" fill="white" stroke="black" />
<line x1="987" y1="345" x2="987" y2="476" stroke="black" />
<line x1="981" y1="476" x2="994" y2="476" stroke="black" />
<text x="990" y="468" font-family="Verdana" font-size="8" text-anchor="middle"  dominant-baseline="middle" fill="black" > 461</text>
<circle cx="981" cy="476" r="4" fill="white" stroke="black" />
<line x1="981" y1="480" x2="981" y2="589" stroke="black" />
<line x1="978" y1="589" x2="984" y2="589" stroke="black" />
<text x="982" y="581" font-family="Verdana" font-size="8" text-anchor="middle"  dominant-baseline="middle" fill="black" > 574</text>
<circle cx="978" cy="589" r="4" fill="white" stroke="black" />
<line x1="978" y1="593" x2="978" y2="693" stroke="black" />
<line x1="976" y1="693" x2="980" y2="693" stroke="black" />
<text x="978" y="685" font-family="Verdana" font-size="8" text-anchor="middle"  dominant-baseline="middle" fill="black" > 678</text>
<circle cx="976" cy="693" r="4" fill="white" stroke="black" />
<line x1="976" y1="697" x2="976" y2="736" stroke="black" />
<circle cx="976" cy="736" r="4" fill="white" stroke="black" />
<text x="976" y="748" font-family="Verdana" font-size="8" text-anchor="middle"  dominant-baseline="middle" fill="black" > 721</text>
<circle cx="979" cy="693" r="4" fill="white" stroke="black" />
<line x1="979" y1="697" x2="979" y2="736" stroke="black" />
<circle cx="979" cy="736" r="4" fill="white" stroke="black" />
<text x="979" y="748" font-family="Verdana" font-size="8" text-anchor="middle"  dominant-baseline="middle" fill="black" > 721</text>
<circle cx="984" cy="589" r="4" fill="white" stroke="black" />
<line x1="984" y1="593" x2="984" y2="637" stroke="black" />
<line x1="982" y1="637" x2="986" y2="637" stroke="black" />
<text x="984" y="629" font-family="Verdana" font-size="8" text-anchor="middle"  dominant-baseline="middle" fill="black" > 622</text>
<circle cx="982" cy="637" r="4" fill="white" stroke="black" />
<line x1="982" y1="641" x2="982" y2="736" stroke="black" />
<circle cx="982" cy="736" r="4" fill="white" stroke="black" />
<text x="982" y="748" font-family="Verdana" font-size="8" text-anchor="middle"  dominant-baseline="middle" fill="black" > 721</text>
<circle cx="985" cy="637" r="4" fill="white" stroke="black" />
<line x1="985" y1="641" x2="985" y2="698" stroke="black" />
<line x1="984" y1="698" x2="987" y2="698" stroke="black" />
<text x="985" y="690" font-family="Verdana" font-size="8" text-anchor="middle"  dominant-baseline="middle" fill="black" > 683</text>
<circle cx="984" cy="698" r="4" fill="white" stroke="black" />
<line x1="984" y1="702" x2="984" y2="736" stroke="black" />
<circle cx="984" cy="736" r="4" fill="white" stroke="black" />
<text x="984" y="748" font-family="Verdana" font-size="8" text-anchor="middle"  dominant-baseline="middle" fill="black" > 721</text>
<circle cx="985" cy="698" r="4" fill="white" stroke="black" />
<line x1="985" y1="702" x2="985" y2="736" stroke="black" />
<circle cx="985" cy="736" r="4" fill="white" stroke="black" />
<text x="985" y="748" font-family="Verdana" font-size="8" text-anchor="middle"  dominant-baseline="middle" fill="black" > 721</text>
<circle cx="993" cy="476" r="4" fill="white" stroke="black" />
<line x1="993" y1="480" x2="993" y2="585" stroke="black" />
<line x1="990" y1="585" x2="996" y2="585" stroke="black" />
<text x="994" y="577" font-family="Verdana" font-size="8" text-anchor="middle"  dominant-baseline="middle" fill="black" > 570</text>
<circle cx="990" cy="585" r="4" fill="white" stroke="black" />
<line x1="990" y1="589" x2="990" y2="736" stroke="black" />
<circle cx="990" cy="736" r="4" fill="white" stroke="black" />
<text x="990" y="748" font-family="Verdana" font-size="8" text-anchor="middle"  dominant-baseline="middle" fill="black" > 721</text>
<circle cx="996" cy="585" r="4" fill="white" stroke="black" />
<line x1="996" y1="589" x2="996" y2="645" stroke="black" />
<line x1="994" y1="645" x2="998" y2="645" stroke="black" />
<text x="996" y="637" font-family="Verdana" font-size="8" text-anchor="middle"  dominant-baseline="middle" fill="black" > 630</text>
<circle cx="994" cy="645" r="4" fill="white" stroke="black" />
<line x1="994" y1="649" x2="994" y2="684" stroke="black" />
<line x1="993" y1="684" x2="996" y2="684" stroke="black" />
<text x="994" y="676" font-family="Verdana" font-size="8" text-anchor="middle"  dominant-baseline="middle" fill="black" > 669</text>
<circle cx="993" cy="684" r="4" fill="white" stroke="black" />
<line x1="993" y1="688" x2="993" y2="707" stroke="black" />
<line x1="993" y1="707" x2="994" y2="707" stroke="black" />
<text x="993" y="699" font-family="Verdana" font-size="8" text-anchor="middle"  dominant-baseline="middle" fill="black" > 692</text>
<circle cx="993" cy="707" r="4" fill="white" stroke="black" />
<line x1="993" y1="711" x2="993" y2="736" stroke="black" />
<circle cx="993" cy="736" r="4" fill="white" stroke="black" />
<text x="993" y="748" font-family="Verdana" font-size="8" text-anchor="middle"  dominant-baseline="middle" fill="black" > 721</text>
<circle cx="993" cy="707" r="4" fill="white" stroke="black" />
<line x1="993" y1="711" x2="993" y2="736" stroke="black" />
<circle cx="993" cy="736" r="4" fill="white" stroke="black" />
<text x="993" y="748" font-family="Verdana" font-size="8" text-anchor="middle"  dominant-baseline="middle" fill="black" > 721</text>
<circle cx="994" cy="684" r="4" fill="white" stroke="black" />
<line x1="994" y1="688" x2="994" y2="710" stroke="black" />
<line x1="994" y1="710" x2="995" y2="710" stroke="black" />
<text x="994" y="702" font-family="Verdana" font-size="8" text-anchor="middle"  dominant-baseline="middle" fill="black" > 695</text>
<circle cx="994" cy="710" r="4" fill="white" stroke="black" />
<line x1="994" y1="714" x2="994" y2="736" stroke="black" />
<circle cx="994" cy="736" r="4" fill="white" stroke="black" />
<text x="994" y="748" font-family="Verdana" font-size="8" text-anchor="middle"  dominant-baseline="middle" fill="black" > 721</text>
<circle cx="994" cy="710" r="4" fill="white" stroke="black" />
<line x1="994" y1="714" x2="994" y2="736" stroke="black" />
<circle cx="994" cy="736" r="4" fill="white" stroke="black" />
<text x="994" y="748" font-family="Verdana" font-size="8" text-anchor="middle"  dominant-baseline="middle" fill="black" > 721</text>
<circle cx="997" cy="645" r="4" fill="white" stroke="black" />
<line x1="997" y1="649" x2="997" y2="681" stroke="black" />
<line x1="996" y1="681" x2="999" y2="681" stroke="black" />
<text x="997" y="673" font-family="Verdana" font-size="8" text-anchor="middle"  dominant-baseline="middle" fill="black" > 666</text>
<circle cx="996" cy="681" r="4" fill="white" stroke="black" />
<line x1="996" y1="685" x2="996" y2="711" stroke="black" />
<line x1="996" y1="711" x2="997" y2="711" stroke="black" />
<text x="996" y="703" font-family="Verdana" font-size="8" text-anchor="middle"  dominant-baseline="middle" fill="black" > 696</text>
<circle cx="996" cy="711" r="4" fill="white" stroke="black" />
<line x1="996" y1="715" x2="996" y2="736" stroke="black" />
<circle cx="996" cy="736" r="4" fill="white" stroke="black" />
<text x="996" y="748" font-family="Verdana" font-size="8" text-anchor="middle"  dominant-baseline="middle" fill="black" > 721</text>
<circle cx="996" cy="711" r="4" fill="white" stroke="black" />
<line x1="996" y1="715" x2="996" y2="736" stroke="black" />
<circle cx="996" cy="736" r="4" fill="white" stroke="black" />
<text x="996" y="748" font-family="Verdana" font-size="8" text-anchor="middle"  dominant-baseline="middle" fill="black" > 721</text>
<circle cx="997" cy="681" r="4" fill="white" stroke="black" />
<line x1="997" y1="685" x2="997" y2="711" stroke="black" />
<line x1="997" y1="711" x2="998" y2="711" stroke="black" />
<text x="997" y="703" font-family="Verdana" font-size="8" text-anchor="middle"  dominant-baseline="middle" fill="black" > 696</text>
<circle cx="997" cy="711" r="4" fill="white" stroke="black" />
<line x1="997" y1="715" x2="997" y2="736" stroke="black" />
<circle cx="997" cy="736" r="4" fill="white" stroke="black" />
<text x="997" y="748" font-family="Verdana" font-size="8" text-anchor="middle"  dominant-baseline="middle" fill="black" > 721</text>
<circle cx="997" cy="711" r="4" fill="white" stroke="black" />
<line x1="997" y1="715" x2="997" y2="736" stroke="black" />
<circle cx="997" cy="736" r="4" fill="white" stroke="black" />
<text x="997" y="748" font-family="Verdana" font-size="8" text-anchor="middle"  dominant-baseline="middle" fill="black" > 721</text>
</svg>
