<?xml version="1.0" encoding="utf-8"?>
<svg xmlns="http://www.w3.org/2000/svg" version="1.1" width="1050" height="750">
<rect width="1050" height="15" x="0" y="0" fill="white" />
<rect width="1050" height="15" x="0" y="735" fill="white" />
<rect width="25" height="750" x="0" y="0" fill="white" />
<rect width="25" height="750" x="1025" y="0" fill="white" />
<rect width="1010" height="144" x="25" y="15" fill="ghostwhite" />
<rect width="1010" height="144" x="25" y="159" fill="snow" />
<rect width="1010" height="144" x="25" y="303" fill="ghostwhite" />
<rect width="1010" height="144" x="25" y="447" fill="snow" />
<rect width="1010" height="144" x="25" y="591" fill="ghostwhite" />
<text x="12" y="87" font-family="Verdana" font-size="10" text-anchor="middle"  dominant-baseline="middle" fill="red" > D0</text>
<text x="12" y="231" font-family="Verdana" font-size="10" text-anchor="middle"  dominant-baseline="middle" fill="red" > D1</text>
<text x="12" y="375" font-family="Verdana" font-size="10" text-anchor="middle"  dominant-baseline="middle" fill="red" > D2</text>
<text x="12" y="519" font-family="Verdana" font-size="10" text-anchor="middle"  dominant-baseline="middle" fill="red" > D3</text>
<text x="12" y="663" font-family="Verdana" font-size="10" text-anchor="middle"  dominant-baseline="middle" fill="red" > D4</text>
<text x="12" y="20" font-family="Verdana" font-size="10" text-anchor="middle"  dominant-baseline="middle" fill="black" > 0</text>
<text x="12" y="164" font-family="Verdana" font-size="10" text-anchor="middle"  dominant-baseline="middle" fill="black" > 144</text>
<text x="12" y="308" font-family="Verdana" font-size="10" text-anchor="middle"  dominant-baseline="middle" fill="black" > 288</text>
<text x="12" y="452" font-family="Verdana" font-size="10" text-anchor="middle"  dominant-baseline="middle" fill="black" > 432</text>
<text x="12" y="596" font-family="Verdana" font-size="10" text-anchor="middle"  dominant-baseline="middle" fill="black" > 576</text>
<text x="12" y="740" font-family="Verdana" font-size="10" text-anchor="middle"  dominant-baseline="middle" fill="black" > 720</text>
<text x="100" y="7" font-family="Verdana" font-size="7" text-anchor="middle"  dominant-baseline="middle" fill="black" > C1</text>
<circle cx="100" cy="15" r="4" fill="white" stroke="black" />
<line x1="100" y1="19" x2="100" y2="122" stroke="black" />
<line x1="50" y1="122" x2="150" y2="122" stroke="black" />
<text x="125" y="114" font-family="Verdana" font-size="8" text-anchor="middle"  dominant-baseline="middle" fill="black" > 107</text>
<circle cx="50" cy="122" r="4" fill="white" stroke="black" />
<line x1="50" y1="126" x2="50" y2="291" stroke="black" />
<line x1="25" y1="291" x2="75" y2="291" stroke="black" />
<text x="62" y="283" font-family="Verdana" font-size="8" text-anchor="middle"  dominant-baseline="middle" fill="black" > 276</text>
<circle cx="25" cy="291" r="4" fill="white" stroke="black" />
<line x1="25" y1="295" x2="25" y2="322" stroke="black" />
<line x1="21" y1="318" x2="29" y2="326" stroke="red" />
<line x1="21" y1="326" x2="29" y2="318" stroke="red" />
<text x="25" y="334" font-family="Verdana" font-size="8" text-anchor="middle"  dominant-baseline="middle" fill="black" > 307</text>
<circle cx="75" cy="291" r="4" fill="white" stroke="black" />
<line x1="75" y1="295" x2="75" y2="321" stroke="black" />
<line x1="71" y1="317" x2="79" y2="325" stroke="red" />
<line x1="71" y1="325" x2="79" y2="317" stroke="red" />
<text x="75" y="333" font-family="Verdana" font-size="8" text-anchor="middle"  dominant-baseline="middle" fill="black" > 306</text>
<circle cx="150" cy="122" r="4" fill="white" stroke="black" />
<line x1="150" y1="126" x2="150" y2="258" stroke="black" />
<line x1="125" y1="258" x2="175" y2="258" stroke="black" />
<text x="162" y="250" font-family="Verdana" font-size="8" text-anchor="middle"  dominant-baseline="middle" fill="black" > 243</text>
<circle cx="125" cy="258" r="4" fill="white" stroke="black" />
<circle cx="175" cy="258" r="4" fill="white" stroke="black" />
<line x1="125" y1="262" x2="125" y2="269" stroke="black" />
<line x1="125" y1="269" x2="150" y2="272" stroke="black" />
<line x1="175" y1="262" x2="175" y2="269" stroke="black" />
<line x1="175" y1="269" x2="150" y2="272" stroke="black" />
<text x="150" y="260" font-family="Verdana" font-size="8" text-anchor="middle"  dominant-baseline="middle" fill="black" > 257</text>
<circle cx="150" cy="272" r="4" fill="white" stroke="black" />
<line x1="150" y1="276" x2="150" y2="318" stroke="black" />
<line x1="146" y1="314" x2="154" y2="322" stroke="red" />
<line x1="146" y1="322" x2="154" y2="314" stroke="red" />
<text x="150" y="330" font-family="Verdana" font-size="8" text-anchor="middle"  dominant-baseline="middle" fill="black" > 303</text>
<text x="300" y="7" font-family="Verdana" font-size="7" text-anchor="middle"  dominant-baseline="middle" fill="black" > C2</text>
<circle cx="300" cy="15" r="4" fill="white" stroke="black" />
<line x1="300" y1="19" x2="300" y2="87" stroke="black" />
<line x1="250" y1="87" x2="350" y2="87" stroke="black" />
<text x="325" y="79" font-family="Verdana" font-size="8" text-anchor="middle"  dominant-baseline="middle" fill="black" > 72</text>
<circle cx="250" cy="87" r="4" fill="white" stroke="black" />
<line x1="250" y1="91" x2="250" y2="226" stroke="black" />
<line x1="225" y1="226" x2="275" y2="226" stroke="black" />
<text x="262" y="218" font-family="Verdana" font-size="8" text-anchor="middle"  dominant-baseline="middle" fill="black" > 211</text>
<circle cx="225" cy="226" r="4" fill="white" stroke="black" />
<line x1="225" y1="230" x2="225" y2="736" stroke="black" />
<circle cx="225" cy="736" r="4" fill="white" stroke="black" />
<text x="225" y="748" font-family="Verdana" font-size="8" text-anchor="middle"  dominant-baseline="middle" fill="black" > 721</text>
<circle cx="275" cy="226" r="4" fill="white" stroke="black" />
<line x1="275" y1="230" x2="275" y2="389" stroke="black" />
<line x1="262" y1="389" x2="288" y2="389" stroke="black" />
<text x="281" y="381" font-family="Verdana" font-size="8" text-anchor="middle"  dominant-baseline="middle" fill="black" > 374</text>
<circle cx="262" cy="389" r="4" fill="white" stroke="black" />
<line x1="262" y1="393" x2="262" y2="580" stroke="black" />
<line x1="256" y1="580" x2="269" y2="580" stroke="black" />
<text x="265" y="572" font-family="Verdana" font-size="8" text-anchor="middle"  dominant-baseline="middle" fill="black" > 565</text>
<circle cx="256" cy="580" r="4" fill="white" stroke="black" />
<line x1="256" y1="584" x2="256" y2="627" stroke="black" />
<line x1="252" y1="631" x2="256" y2="623" stroke="blue" />
<line x1="256" y1="631" x2="260" y2="623" stroke="blue" />
<text x="256" y="639" font-family="Verdana" font-size="8" text-anchor="middle"  dominant-baseline="middle" fill="black" > 612</text>
<circle cx="268" cy="580" r="4" fill="white" stroke="black" />
<line x1="268" y1="584" x2="268" y2="601" stroke="black" />
<line x1="264" y1="605" x2="268" y2="597" stroke="blue" />
<line x1="268" y1="605" x2="272" y2="597" stroke="blue" />
<text x="268" y="613" font-family="Verdana" font-size="8" text-anchor="middle"  dominant-baseline="middle" fill="black" > 586</text>
<circle cx="287" cy="389" r="4" fill="white" stroke="black" />
<line x1="287" y1="393" x2="287" y2="545" stroke="black" />
<line x1="281" y1="545" x2="294" y2="545" stroke="black" />
<text x="290" y="537" font-family="Verdana" font-size="8" text-anchor="middle"  dominant-baseline="middle" fill="black" > 530</text>
<circle cx="281" cy="545" r="4" fill="white" stroke="black" />
<line x1="281" y1="549" x2="281" y2="666" stroke="black" />
<line x1="276" y1="666" x2="286" y2="666" stroke="black" />
<text x="281" y="658" font-family="Verdana" font-size="8" text-anchor="middle"  dominant-baseline="middle" fill="black" > 651</text>
<circle cx="276" cy="666" r="4" fill="white" stroke="black" />
<line x1="276" y1="670" x2="276" y2="689" stroke="black" />
<line x1="272" y1="693" x2="276" y2="685" stroke="blue" />
<line x1="276" y1="693" x2="280" y2="685" stroke="blue" />
<text x="276" y="701" font-family="Verdana" font-size="8" text-anchor="middle"  dominant-baseline="middle" fill="black" > 674</text>
<circle cx="279" cy="666" r="4" fill="white" stroke="black" />
<line x1="279" y1="670" x2="279" y2="736" stroke="black" />
<circle cx="279" cy="736" r="4" fill="white" stroke="black" />
<text x="279" y="748" font-family="Verdana" font-size="8" text-anchor="middle"  dominant-baseline="middle" fill="black" > 721</text>
<circle cx="282" cy="666" r="4" fill="white" stroke="black" />
<circle cx="285" cy="666" r="4" fill="white" stroke="black" />
<line x1="282" y1="670" x2="282" y2="673" stroke="black" />
<line x1="282" y1="673" x2="283" y2="675" stroke="black" />
<line x1="285" y1="670" x2="285" y2="673" stroke="black" />
<line x1="285" y1="673" x2="283" y2="675" stroke="black" />
<text x="283" y="663" font-family="Verdana" font-size="8" text-anchor="middle"  dominant-baseline="middle" fill="black" > 660</text>
<circle cx="283" cy="675" r="4" fill="white" stroke="black" />
<line x1="283" y1="679" x2="283" y2="736" stroke="black" />
<circle cx="283" cy="736" r="4" fill="white" stroke="black" />
<text x="283" y="748" font-family="Verdana" font-size="8" text-anchor="middle"  dominant-baseline="middle" fill="black" > 721</text>
<circle cx="293" cy="545" r="4" fill="white" stroke="black" />
<line x1="293" y1="549" x2="293" y2="594" stroke="black" />
<line x1="289" y1="598" x2="293" y2="590" stroke="blue" />
<line x1="293" y1="598" x2="297" y2="590" stroke="blue" />
<text x="293" y="606" font-family="Verdana" font-size="8" text-anchor="middle"  dominant-baseline="middle" fill="black" > 579</text>
<circle cx="350" cy="87" r="4" fill="white" stroke="black" />
<line x1="350" y1="91" x2="350" y2="232" stroke="black" />
<line x1="325" y1="232" x2="375" y2="232" stroke="black" />
<text x="362" y="224" font-family="Verdana" font-size="8" text-anchor="middle"  dominant-baseline="middle" fill="black" > 217</text>
<circle cx="325" cy="232" r="4" fill="white" stroke="black" />
<line x1="325" y1="236" x2="325" y2="430" stroke="black" />
<line x1="312" y1="430" x2="338" y2="430" stroke="black" />
<text x="331" y="422" font-family="Verdana" font-size="8" text-anchor="middle"  dominant-baseline="middle" fill="black" > 415</text>
<circle cx="312" cy="430" r="4" fill="white" stroke="black" />
<line x1="312" y1="434" x2="312" y2="616" stroke="black" />
<line x1="306" y1="616" x2="319" y2="616" stroke="black" />
<text x="315" y="608" font-family="Verdana" font-size="8" text-anchor="middle"  dominant-baseline="middle" fill="black" > 601</text>
<circle cx="306" cy="616" r="4" fill="white" stroke="black" />
<line x1="306" y1="620" x2="306" y2="736" stroke="black" />
<circle cx="306" cy="736" r="4" fill="white" stroke="black" />
<text x="306" y="748" font-family="Verdana" font-size="8" text-anchor="middle"  dominant-baseline="middle" fill="black" > 721</text>
<circle cx="318" cy="616" r="4" fill="white" stroke="black" />
<line x1="318" y1="620" x2="318" y2="736" stroke="black" />
<circle cx="318" cy="736" r="4" fill="white" stroke="black" />
<text x="318" y="748" font-family="Verdana" font-size="8" text-anchor="middle"  dominant-baseline="middle" fill="black" > 721</text>
<circle cx="337" cy="430" r="4" fill="white" stroke="black" />
<line x1="337" y1="434" x2="337" y2="642" stroke="black" />
<line x1="331" y1="642" x2="344" y2="642" stroke="black" />
<text x="340" y="634" font-family="Verdana" font-size="8" text-anchor="middle"  dominant-baseline="middle" fill="black" > 627</text>
<circle cx="331" cy="642" r="4" fill="white" stroke="black" />
<line x1="331" y1="646" x2="331" y2="736" stroke="black" />
<circle cx="331" cy="736" r="4" fill="white" stroke="black" />
<text x="331" y="748" font-family="Verdana" font-size="8" text-anchor="middle"  dominant-baseline="middle" fill="black" > 721</text>
<circle cx="343" cy="642" r="4" fill="white" stroke="black" />
<line x1="343" y1="646" x2="343" y2="736" stroke="black" />
<circle cx="343" cy="736" r="4" fill="white" stroke="black" />
<text x="343" y="748" font-family="Verdana" font-size="8" text-anchor="middle"  dominant-baseline="middle" fill="black" > 721</text>
<circle cx="375" cy="232" r="4" fill="white" stroke="black" />
<line x1="375" y1="236" x2="375" y2="378" stroke="black" />
<line x1="362" y1="378" x2="388" y2="378" stroke="black" />
<text x="381" y="370" font-family="Verdana" font-size="8" text-anchor="middle"  dominant-baseline="middle" fill="black" > 363</text>
<circle cx="362" cy="378" r="4" fill="white" stroke="black" />
<line x1="362" y1="382" x2="362" y2="616" stroke="black" />
<line x1="356" y1="616" x2="369" y2="616" stroke="black" />
<text x="365" y="608" font-family="Verdana" font-size="8" text-anchor="middle"  dominant-baseline="middle" fill="black" > 601</text>
<circle cx="356" cy="616" r="4" fill="white" stroke="black" />
<line x1="356" y1="620" x2="356" y2="736" stroke="black" />
<circle cx="356" cy="736" r="4" fill="white" stroke="black" />
<text x="356" y="748" font-family="Verdana" font-size="8" text-anchor="middle"  dominant-baseline="middle" fill="black" > 721</text>
<circle cx="368" cy="616" r="4" fill="white" stroke="black" />
<line x1="368" y1="620" x2="368" y2="736" stroke="black" />
<circle cx="368" cy="736" r="4" fill="white" stroke="black" />
<text x="368" y="748" font-family="Verdana" font-size="8" text-anchor="middle"  dominant-baseline="middle" fill="black" > 721</text>
<circle cx="387" cy="378" r="4" fill="white" stroke="black" />
<line x1="387" y1="382" x2="387" y2="590" stroke="black" />
<line x1="381" y1="590" x2="394" y2="590" stroke="black" />
<text x="390" y="582" font-family="Verdana" font-size="8" text-anchor="middle"  dominant-baseline="middle" fill="black" > 575</text>
<circle cx="381" cy="590" r="4" fill="white" stroke="black" />
<line x1="381" y1="594" x2="381" y2="736" stroke="black" />
<circle cx="381" cy="736" r="4" fill="white" stroke="black" />
<text x="381" y="748" font-family="Verdana" font-size="8" text-anchor="middle"  dominant-baseline="middle" fill="black" > 721</text>
<circle cx="393" cy="590" r="4" fill="white" stroke="black" />
<line x1="393" y1="594" x2="393" y2="735" stroke="black" />
<line x1="390" y1="735" x2="396" y2="735" stroke="black" />
<text x="394" y="727" font-family="Verdana" font-size="8" text-anchor="middle"  dominant-baseline="middle" fill="black" > 720</text>
<circle cx="390" cy="735" r="4" fill="white" stroke="black" />
<line x1="390" y1="739" x2="390" y2="736" stroke="black" />
<circle cx="390" cy="736" r="4" fill="white" stroke="black" />
<text x="390" y="748" font-family="Verdana" font-size="8" text-anchor="middle"  dominant-baseline="middle" fill="black" > 721</text>
<circle cx="396" cy="735" r="4" fill="white" stroke="black" />
<line x1="396" y1="739" x2="396" y2="736" stroke="black" />
<circle cx="396" cy="736" r="4" fill="white" stroke="black" />
<text x="396" y="748" font-family="Verdana" font-size="8" text-anchor="middle"  dominant-baseline="middle" fill="black" > 721</text>
<text x="500" y="7" font-family="Verdana" font-size="7" text-anchor="middle"  dominant-baseline="middle" fill="black" > C3</text>
<circle cx="500" cy="15" r="4" fill="white" stroke="black" />
<line x1="500" y1="19" x2="500" y2="92" stroke="black" />
<line x1="450" y1="92" x2="550" y2="92" stroke="black" />
<text x="525" y="84" font-family="Verdana" font-size="8" text-anchor="middle"  dominant-baseline="middle" fill="black" > 77</text>
<circle cx="450" cy="92" r="4" fill="white" stroke="black" />
<line x1="450" y1="96" x2="450" y2="250" stroke="black" />
<line x1="425" y1="250" x2="475" y2="250" stroke="black" />
<text x="462" y="242" font-family="Verdana" font-size="8" text-anchor="middle"  dominant-baseline="middle" fill="black" > 235</text>
<circle cx="425" cy="250" r="4" fill="white" stroke="black" />
<line x1="425" y1="254" x2="425" y2="472" stroke="black" />
<line x1="412" y1="472" x2="438" y2="472" stroke="black" />
<text x="431" y="464" font-family="Verdana" font-size="8" text-anchor="middle"  dominant-baseline="middle" fill="black" > 457</text>
<circle cx="412" cy="472" r="4" fill="white" stroke="black" />
<line x1="412" y1="476" x2="412" y2="595" stroke="black" />
<line x1="406" y1="595" x2="419" y2="595" stroke="black" />
<text x="415" y="587" font-family="Verdana" font-size="8" text-anchor="middle"  dominant-baseline="middle" fill="black" > 580</text>
<circle cx="406" cy="595" r="4" fill="white" stroke="black" />
<line x1="406" y1="599" x2="406" y2="736" stroke="black" />
<circle cx="406" cy="736" r="4" fill="white" stroke="black" />
<text x="406" y="748" font-family="Verdana" font-size="8" text-anchor="middle"  dominant-baseline="middle" fill="black" > 721</text>
<circle cx="418" cy="595" r="4" fill="white" stroke="black" />
<line x1="418" y1="599" x2="418" y2="699" stroke="black" />
<line x1="415" y1="699" x2="421" y2="699" stroke="black" />
<text x="419" y="691" font-family="Verdana" font-size="8" text-anchor="middle"  dominant-baseline="middle" fill="black" > 684</text>
<circle cx="415" cy="699" r="4" fill="white" stroke="black" />
<line x1="415" y1="703" x2="415" y2="736" stroke="black" />
<circle cx="415" cy="736" r="4" fill="white" stroke="black" />
<text x="415" y="748" font-family="Verdana" font-size="8" text-anchor="middle"  dominant-baseline="middle" fill="black" > 721</text>
<circle cx="421" cy="699" r="4" fill="white" stroke="black" />
<line x1="421" y1="703" x2="421" y2="736" stroke="black" />
<circle cx="421" cy="736" r="4" fill="white" stroke="black" />
<text x="421" y="748" font-family="Verdana" font-size="8" text-anchor="middle"  dominant-baseline="middle" fill="black" > 721</text>
<circle cx="437" cy="472" r="4" fill="white" stroke="black" />
<line x1="437" y1="476" x2="437" y2="618" stroke="black" />
<line x1="431" y1="618" x2="444" y2="618" stroke="black" />
<text x="440" y="610" font-family="Verdana" font-size="8" text-anchor="middle"  dominant-baseline="middle" fill="black" > 603</text>
<circle cx="431" cy="618" r="4" fill="white" stroke="black" />
<line x1="431" y1="622" x2="431" y2="736" stroke="black" />
<circle cx="431" cy="736" r="4" fill="white" stroke="black" />
<text x="431" y="748" font-family="Verdana" font-size="8" text-anchor="middle"  dominant-baseline="middle" fill="black" > 721</text>
<circle cx="443" cy="618" r="4" fill="white" stroke="black" />
<line x1="443" y1="622" x2="443" y2="736" stroke="black" />
<circle cx="443" cy="736" r="4" fill="white" stroke="black" />
<text x="443" y="748" font-family="Verdana" font-size="8" text-anchor="middle"  dominant-baseline="middle" fill="black" > 721</text>
<circle cx="475" cy="250" r="4" fill="white" stroke="black" />
<line x1="475" y1="254" x2="475" y2="419" stroke="black" />
<line x1="462" y1="419" x2="488" y2="419" stroke="black" />
<text x="481" y="411" font-family="Verdana" font-size="8" text-anchor="middle"  dominant-baseline="middle" fill="black" > 404</text>
<circle cx="462" cy="419" r="4" fill="white" stroke="black" />
<line x1="462" y1="423" x2="462" y2="576" stroke="black" />
<line x1="456" y1="576" x2="469" y2="576" stroke="black" />
<text x="465" y="568" font-family="Verdana" font-size="8" text-anchor="middle"  dominant-baseline="middle" fill="black" > 561</text>
<circle cx="456" cy="576" r="4" fill="white" stroke="black" />
<line x1="456" y1="580" x2="456" y2="736" stroke="black" />
<circle cx="456" cy="736" r="4" fill="white" stroke="black" />
<text x="456" y="748" font-family="Verdana" font-size="8" text-anchor="middle"  dominant-baseline="middle" fill="black" > 721</text>
<circle cx="468" cy="576" r="4" fill="white" stroke="black" />
<line x1="468" y1="580" x2="468" y2="736" stroke="black" />
<circle cx="468" cy="736" r="4" fill="white" stroke="black" />
<text x="468" y="748" font-family="Verdana" font-size="8" text-anchor="middle"  dominant-baseline="middle" fill="black" > 721</text>
<circle cx="487" cy="419" r="4" fill="white" stroke="black" />
<line x1="487" y1="423" x2="487" y2="540" stroke="black" />
<line x1="481" y1="540" x2="494" y2="540" stroke="black" />
<text x="490" y="532" font-family="Verdana" font-size="8" text-anchor="middle"  dominant-baseline="middle" fill="black" > 525</text>
<circle cx="481" cy="540" r="4" fill="white" stroke="black" />
<line x1="481" y1="544" x2="481" y2="652" stroke="black" />
<line x1="478" y1="652" x2="484" y2="652" stroke="black" />
<text x="482" y="644" font-family="Verdana" font-size="8" text-anchor="middle"  dominant-baseline="middle" fill="black" > 637</text>
<circle cx="478" cy="652" r="4" fill="white" stroke="black" />
<line x1="478" y1="656" x2="478" y2="736" stroke="black" />
<circle cx="478" cy="736" r="4" fill="white" stroke="black" />
<text x="478" y="748" font-family="Verdana" font-size="8" text-anchor="middle"  dominant-baseline="middle" fill="black" > 721</text>
<circle cx="484" cy="652" r="4" fill="white" stroke="black" />
<line x1="484" y1="656" x2="484" y2="736" stroke="black" />
<circle cx="484" cy="736" r="4" fill="white" stroke="black" />
<text x="484" y="748" font-family="Verdana" font-size="8" text-anchor="middle"  dominant-baseline="middle" fill="black" > 721</text>
<circle cx="493" cy="540" r="4" fill="white" stroke="black" />
<line x1="493" y1="544" x2="493" y2="649" stroke="black" />
<line x1="490" y1="649" x2="496" y2="649" stroke="black" />
<text x="494" y="641" font-family="Verdana" font-size="8" text-anchor="middle"  dominant-baseline="middle" fill="black" > 634</text>
<circle cx="490" cy="649" r="4" fill="white" stroke="black" />
<line x1="490" y1="653" x2="490" y2="736" stroke="black" />
<circle cx="490" cy="736" r="4" fill="white" stroke="black" />
<text x="490" y="748" font-family="Verdana" font-size="8" text-anchor="middle"  dominant-baseline="middle" fill="black" > 721</text>
<circle cx="496" cy="649" r="4" fill="white" stroke="black" />
<line x1="496" y1="653" x2="496" y2="736" stroke="black" />
<circle cx="496" cy="736" r="4" fill="white" stroke="black" />
<text x="496" y="748" font-family="Verdana" font-size="8" text-anchor="middle"  dominant-baseline="middle" fill="black" > 721</text>
<circle cx="550" cy="92" r="4" fill="white" stroke="black" />
<line x1="550" y1="96" x2="550" y2="251" stroke="black" />
<line x1="525" y1="251" x2="575" y2="251" stroke="black" />
<text x="562" y="243" font-family="Verdana" font-size="8" text-anchor="middle"  dominant-baseline="middle" fill="black" > 236</text>
<circle cx="525" cy="251" r="4" fill="white" stroke="black" />
<line x1="525" y1="255" x2="525" y2="517" stroke="black" />
<line x1="521" y1="513" x2="529" y2="521" stroke="red" />
<line x1="521" y1="521" x2="529" y2="513" stroke="red" />
<text x="525" y="529" font-family="Verdana" font-size="8" text-anchor="middle"  dominant-baseline="middle" fill="black" > 502</text>
<circle cx="575" cy="251" r="4" fill="white" stroke="black" />
<line x1="575" y1="255" x2="575" y2="407" stroke="black" />
<line x1="562" y1="407" x2="588" y2="407" stroke="black" />
<text x="581" y="399" font-family="Verdana" font-size="8" text-anchor="middle"  dominant-baseline="middle" fill="black" > 392</text>
<circle cx="562" cy="407" r="4" fill="white" stroke="black" />
<line x1="562" y1="411" x2="562" y2="647" stroke="black" />
<line x1="556" y1="647" x2="569" y2="647" stroke="black" />
<text x="565" y="639" font-family="Verdana" font-size="8" text-anchor="middle"  dominant-baseline="middle" fill="black" > 632</text>
<circle cx="556" cy="647" r="4" fill="white" stroke="black" />
<line x1="556" y1="651" x2="556" y2="736" stroke="black" />
<circle cx="556" cy="736" r="4" fill="white" stroke="black" />
<text x="556" y="748" font-family="Verdana" font-size="8" text-anchor="middle"  dominant-baseline="middle" fill="black" > 721</text>
<circle cx="568" cy="647" r="4" fill="white" stroke="black" />
<line x1="568" y1="651" x2="568" y2="736" stroke="black" />
<circle cx="568" cy="736" r="4" fill="white" stroke="black" />
<text x="568" y="748" font-family="Verdana" font-size="8" text-anchor="middle"  dominant-baseline="middle" fill="black" > 721</text>
<circle cx="587" cy="407" r="4" fill="white" stroke="black" />
<line x1="587" y1="411" x2="587" y2="645" stroke="black" />
<line x1="581" y1="645" x2="594" y2="645" stroke="black" />
<text x="590" y="637" font-family="Verdana" font-size="8" text-anchor="middle"  dominant-baseline="middle" fill="black" > 630</text>
<circle cx="581" cy="645" r="4" fill="white" stroke="black" />
<line x1="581" y1="649" x2="581" y2="736" stroke="black" />
<circle cx="581" cy="736" r="4" fill="white" stroke="black" />
<text x="581" y="748" font-family="Verdana" font-size="8" text-anchor="middle"  dominant-baseline="middle" fill="black" > 721</text>
<circle cx="593" cy="645" r="4" fill="white" stroke="black" />
<line x1="593" y1="649" x2="593" y2="736" stroke="black" />
<circle cx="593" cy="736" r="4" fill="white" stroke="black" />
<text x="593" y="748" font-family="Verdana" font-size="8" text-anchor="middle"  dominant-baseline="middle" fill="black" > 721</text>
<text x="700" y="7" font-family="Verdana" font-size="7" text-anchor="middle"  dominant-baseline="middle" fill="black" > C4</text>
<circle cx="700" cy="15" r="4" fill="white" stroke="black" />
<line x1="700" y1="19" x2="700" y2="90" stroke="black" />
<line x1="650" y1="90" x2="750" y2="90" stroke="black" />
<text x="725" y="82" font-family="Verdana" font-size="8" text-anchor="middle"  dominant-baseline="middle" fill="black" > 75</text>
<circle cx="650" cy="90" r="4" fill="white" stroke="black" />
<line x1="650" y1="94" x2="650" y2="213" stroke="black" />
<line x1="625" y1="213" x2="675" y2="213" stroke="black" />
<text x="662" y="205" font-family="Verdana" font-size="8" text-anchor="middle"  dominant-baseline="middle" fill="black" > 198</text>
<circle cx="625" cy="213" r="4" fill="white" stroke="black" />
<line x1="625" y1="217" x2="625" y2="337" stroke="black" />
<line x1="612" y1="337" x2="638" y2="337" stroke="black" />
<text x="631" y="329" font-family="Verdana" font-size="8" text-anchor="middle"  dominant-baseline="middle" fill="black" > 322</text>
<circle cx="612" cy="337" r="4" fill="white" stroke="black" />
<line x1="612" y1="341" x2="612" y2="455" stroke="black" />
<line x1="606" y1="455" x2="619" y2="455" stroke="black" />
<text x="615" y="447" font-family="Verdana" font-size="8" text-anchor="middle"  dominant-baseline="middle" fill="black" > 440</text>
<circle cx="606" cy="455" r="4" fill="white" stroke="black" />
<line x1="606" y1="459" x2="606" y2="663" stroke="black" />
<line x1="602" y1="659" x2="610" y2="667" stroke="red" />
<line x1="602" y1="667" x2="610" y2="659" stroke="red" />
<text x="606" y="675" font-family="Verdana" font-size="8" text-anchor="middle"  dominant-baseline="middle" fill="black" > 648</text>
<circle cx="618" cy="455" r="4" fill="white" stroke="black" />
<line x1="618" y1="459" x2="618" y2="501" stroke="black" />
<line x1="614" y1="505" x2="618" y2="497" stroke="blue" />
<line x1="618" y1="505" x2="622" y2="497" stroke="blue" />
<text x="618" y="513" font-family="Verdana" font-size="8" text-anchor="middle"  dominant-baseline="middle" fill="black" > 486</text>
<circle cx="637" cy="337" r="4" fill="white" stroke="black" />
<line x1="637" y1="341" x2="637" y2="444" stroke="black" />
<line x1="631" y1="444" x2="644" y2="444" stroke="black" />
<text x="640" y="436" font-family="Verdana" font-size="8" text-anchor="middle"  dominant-baseline="middle" fill="black" > 429</text>
<circle cx="631" cy="444" r="4" fill="white" stroke="black" />
<line x1="631" y1="448" x2="631" y2="568" stroke="black" />
<line x1="628" y1="568" x2="634" y2="568" stroke="black" />
<text x="632" y="560" font-family="Verdana" font-size="8" text-anchor="middle"  dominant-baseline="middle" fill="black" > 553</text>
<circle cx="628" cy="568" r="4" fill="white" stroke="black" />
<line x1="628" y1="572" x2="628" y2="615" stroke="black" />
<line x1="624" y1="619" x2="628" y2="611" stroke="blue" />
<line x1="628" y1="619" x2="632" y2="611" stroke="blue" />
<text x="628" y="627" font-family="Verdana" font-size="8" text-anchor="middle"  dominant-baseline="middle" fill="black" > 600</text>
<circle cx="634" cy="568" r="4" fill="white" stroke="black" />
<line x1="634" y1="572" x2="634" y2="665" stroke="black" />
<line x1="630" y1="669" x2="634" y2="661" stroke="blue" />
<line x1="634" y1="669" x2="638" y2="661" stroke="blue" />
<text x="634" y="677" font-family="Verdana" font-size="8" text-anchor="middle"  dominant-baseline="middle" fill="black" > 650</text>
<circle cx="643" cy="444" r="4" fill="white" stroke="black" />
<line x1="643" y1="448" x2="643" y2="572" stroke="black" />
<line x1="640" y1="572" x2="646" y2="572" stroke="black" />
<text x="644" y="564" font-family="Verdana" font-size="8" text-anchor="middle"  dominant-baseline="middle" fill="black" > 557</text>
<circle cx="640" cy="572" r="4" fill="white" stroke="black" />
<line x1="640" y1="576" x2="640" y2="717" stroke="black" />
<line x1="636" y1="713" x2="644" y2="721" stroke="red" />
<line x1="636" y1="721" x2="644" y2="713" stroke="red" />
<text x="640" y="729" font-family="Verdana" font-size="8" text-anchor="middle"  dominant-baseline="middle" fill="black" > 702</text>
<circle cx="646" cy="572" r="4" fill="white" stroke="black" />
<line x1="646" y1="576" x2="646" y2="736" stroke="black" />
<circle cx="646" cy="736" r="4" fill="white" stroke="black" />
<text x="646" y="748" font-family="Verdana" font-size="8" text-anchor="middle"  dominant-baseline="middle" fill="black" > 721</text>
<circle cx="675" cy="213" r="4" fill="white" stroke="black" />
<line x1="675" y1="217" x2="675" y2="240" stroke="black" />
<line x1="671" y1="244" x2="675" y2="236" stroke="blue" />
<line x1="675" y1="244" x2="679" y2="236" stroke="blue" />
<text x="675" y="252" font-family="Verdana" font-size="8" text-anchor="middle"  dominant-baseline="middle" fill="black" > 225</text>
<circle cx="750" cy="90" r="4" fill="white" stroke="black" />
<line x1="750" y1="94" x2="750" y2="145" stroke="black" />
<line x1="746" y1="149" x2="750" y2="141" stroke="blue" />
<line x1="750" y1="149" x2="754" y2="141" stroke="blue" />
<text x="750" y="157" font-family="Verdana" font-size="8" text-anchor="middle"  dominant-baseline="middle" fill="black" > 130</text>
<text x="900" y="7" font-family="Verdana" font-size="7" text-anchor="middle"  dominant-baseline="middle" fill="black" > C5</text>
<circle cx="900" cy="15" r="4" fill="white" stroke="black" />
<line x1="900" y1="19" x2="900" y2="93" stroke="black" />
<line x1="850" y1="93" x2="950" y2="93" stroke="black" />
<text x="925" y="85" font-family="Verdana" font-size="8" text-anchor="middle"  dominant-baseline="middle" fill="black" > 78</text>
<circle cx="850" cy="93" r="4" fill="white" stroke="black" />
<line x1="850" y1="97" x2="850" y2="238" stroke="black" />
<line x1="825" y1="238" x2="875" y2="238" stroke="black" />
<text x="862" y="230" font-family="Verdana" font-size="8" text-anchor="middle"  dominant-baseline="middle" fill="black" > 223</text>
<circle cx="825" cy="238" r="4" fill="white" stroke="black" />
<line x1="825" y1="242" x2="825" y2="377" stroke="black" />
<line x1="812" y1="377" x2="838" y2="377" stroke="black" />
<text x="831" y="369" font-family="Verdana" font-size="8" text-anchor="middle"  dominant-baseline="middle" fill="black" > 362</text>
<circle cx="812" cy="377" r="4" fill="white" stroke="black" />
<line x1="812" y1="381" x2="812" y2="505" stroke="black" />
<line x1="806" y1="505" x2="819" y2="505" stroke="black" />
<text x="815" y="497" font-family="Verdana" font-size="8" text-anchor="middle"  dominant-baseline="middle" fill="black" > 490</text>
<circle cx="806" cy="505" r="4" fill="white" stroke="black" />
<line x1="806" y1="509" x2="806" y2="736" stroke="black" />
<circle cx="806" cy="736" r="4" fill="white" stroke="black" />
<text x="806" y="748" font-family="Verdana" font-size="8" text-anchor="middle"  dominant-baseline="middle" fill="black" > 721</text>
<circle cx="818" cy="505" r="4" fill="white" stroke="black" />
<line x1="818" y1="509" x2="818" y2="736" stroke="black" />
<circle cx="818" cy="736" r="4" fill="white" stroke="black" />
<text x="818" y="748" font-family="Verdana" font-size="8" text-anchor="middle"  dominant-baseline="middle" fill="black" > 721</text>
<circle cx="837" cy="377" r="4" fill="white" stroke="black" />
<line x1="837" y1="381" x2="837" y2="501" stroke="black" />
<line x1="831" y1="501" x2="844" y2="501" stroke="black" />
<text x="840" y="493" font-family="Verdana" font-size="8" text-anchor="middle"  dominant-baseline="middle" fill="black" > 486</text>
<circle cx="831" cy="501" r="4" fill="white" stroke="black" />
<line x1="831" y1="505" x2="831" y2="607" stroke="black" />
<line x1="827" y1="603" x2="835" y2="611" stroke="red" />
<line x1="827" y1="611" x2="835" y2="603" stroke="red" />
<text x="831" y="619" font-family="Verdana" font-size="8" text-anchor="middle"  dominant-baseline="middle" fill="black" > 592</text>
<circle cx="843" cy="501" r="4" fill="white" stroke="black" />
<line x1="843" y1="505" x2="843" y2="736" stroke="black" />
<circle cx="843" cy="736" r="4" fill="white" stroke="black" />
<text x="843" y="748" font-family="Verdana" font-size="8" text-anchor="middle"  dominant-baseline="middle" fill="black" > 721</text>
<circle cx="875" cy="238" r="4" fill="white" stroke="black" />
<line x1="875" y1="242" x2="875" y2="391" stroke="black" />
<line x1="862" y1="391" x2="888" y2="391" stroke="black" />
<text x="881" y="383" font-family="Verdana" font-size="8" text-anchor="middle"  dominant-baseline="middle" fill="black" > 376</text>
<circle cx="862" cy="391" r="4" fill="white" stroke="black" />
<line x1="862" y1="395" x2="862" y2="625" stroke="black" />
<line x1="856" y1="625" x2="869" y2="625" stroke="black" />
<text x="865" y="617" font-family="Verdana" font-size="8" text-anchor="middle"  dominant-baseline="middle" fill="black" > 610</text>
<circle cx="856" cy="625" r="4" fill="white" stroke="black" />
<line x1="856" y1="629" x2="856" y2="736" stroke="black" />
<circle cx="856" cy="736" r="4" fill="white" stroke="black" />
<text x="856" y="748" font-family="Verdana" font-size="8" text-anchor="middle"  dominant-baseline="middle" fill="black" > 721</text>
<circle cx="868" cy="625" r="4" fill="white" stroke="black" />
<line x1="868" y1="629" x2="868" y2="736" stroke="black" />
<circle cx="868" cy="736" r="4" fill="white" stroke="black" />
<text x="868" y="748" font-family="Verdana" font-size="8" text-anchor="middle"  dominant-baseline="middle" fill="black" > 721</text>
<circle cx="887" cy="391" r="4" fill="white" stroke="black" />
<line x1="887" y1="395" x2="887" y2="519" stroke="black" />
<line x1="881" y1="519" x2="894" y2="519" stroke="black" />
<text x="890" y="511" font-family="Verdana" font-size="8" text-anchor="middle"  dominant-baseline="middle" fill="black" > 504</text>
<circle cx="881" cy="519" r="4" fill="white" stroke="black" />
<line x1="881" y1="523" x2="881" y2="617" stroke="black" />
<line x1="878" y1="617" x2="884" y2="617" stroke="black" />
<text x="882" y="609" font-family="Verdana" font-size="8" text-anchor="middle"  dominant-baseline="middle" fill="black" > 602</text>
<circle cx="878" cy="617" r="4" fill="white" stroke="black" />
<line x1="878" y1="621" x2="878" y2="736" stroke="black" />
<circle cx="878" cy="736" r="4" fill="white" stroke="black" />
<text x="878" y="748" font-family="Verdana" font-size="8" text-anchor="middle"  dominant-baseline="middle" fill="black" > 721</text>
<circle cx="884" cy="617" r="4" fill="white" stroke="black" />
<line x1="884" y1="621" x2="884" y2="736" stroke="black" />
<circle cx="884" cy="736" r="4" fill="white" stroke="black" />
<text x="884" y="748" font-family="Verdana" font-size="8" text-anchor="middle"  dominant-baseline="middle" fill="black" > 721</text>
<circle cx="893" cy="519" r="4" fill="white" stroke="black" />
<line x1="893" y1="523" x2="893" y2="655" stroke="black" />
<line x1="890" y1="655" x2="896" y2="655" stroke="black" />
<text x="894" y="647" font-family="Verdana" font-size="8" text-anchor="middle"  dominant-baseline="middle" fill="black" > 640</text>
<circle cx="890" cy="655" r="4" fill="white" stroke="black" />
<line x1="890" y1="659" x2="890" y2="736" stroke="black" />
<circle cx="890" cy="736" r="4" fill="white" stroke="black" />
<text x="890" y="748" font-family="Verdana" font-size="8" text-anchor="middle"  dominant-baseline="middle" fill="black" > 721</text>
<circle cx="896" cy="655" r="4" fill="white" stroke="black" />
<line x1="896" y1="659" x2="896" y2="736" stroke="black" />
<circle cx="896" cy="736" r="4" fill="white" stroke="black" />
<text x="896" y="748" font-family="Verdana" font-size="8" text-anchor="middle"  dominant-baseline="middle" fill="black" > 721</text>
<circle cx="950" cy="93" r="4" fill="white" stroke="black" />
<line x1="950" y1="97" x2="950" y2="221" stroke="black" />
<line x1="925" y1="221" x2="975" y2="221" stroke="black" />
<text x="962" y="213" font-family="Verdana" font-size="8" text-anchor="middle"  dominant-baseline="middle" fill="black" > 206</text>
<circle cx="925" cy="221" r="4" fill="white" stroke="black" />
<line x1="925" y1="225" x2="925" y2="399" stroke="black" />
<line x1="921" y1="395" x2="929" y2="403" stroke="red" />
<line x1="921" y1="403" x2="929" y2="395" stroke="red" />
<text x="925" y="411" font-family="Verdana" font-size="8" text-anchor="middle"  dominant-baseline="middle" fill="black" > 384</text>
<circle cx="975" cy="221" r="4" fill="white" stroke="black" />
<line x1="975" y1="225" x2="975" y2="430" stroke="black" />
<line x1="962" y1="430" x2="988" y2="430" stroke="black" />
<text x="981" y="422" font-family="Verdana" font-size="8" text-anchor="middle"  dominant-baseline="middle" fill="black" > 415</text>
<circle cx="962" cy="430" r="4" fill="white" stroke="black" />
<line x1="962" y1="434" x2="962" y2="572" stroke="black" />
<line x1="954" y1="572" x2="971" y2="572" stroke="black" />
<text x="964" y="564" font-family="Verdana" font-size="8" text-anchor="middle"  dominant-baseline="middle" fill="black" > 557</text>
<circle cx="954" cy="572" r="4" fill="white" stroke="black" />
<line x1="954" y1="576" x2="954" y2="657" stroke="black" />
<line x1="950" y1="653" x2="958" y2="661" stroke="red" />
<line x1="950" y1="661" x2="958" y2="653" stroke="red" />
<text x="954" y="669" font-family="Verdana" font-size="8" text-anchor="middle"  dominant-baseline="middle" fill="black" > 642</text>
<circle cx="962" cy="572" r="4" fill="white" stroke="black" />
<line x1="962" y1="576" x2="962" y2="685" stroke="black" />
<line x1="958" y1="681" x2="966" y2="689" stroke="red" />
<line x1="958" y1="689" x2="966" y2="681" stroke="red" />
<text x="962" y="697" font-family="Verdana" font-size="8" text-anchor="middle"  dominant-baseline="middle" fill="black" > 670</text>
<circle cx="970" cy="572" r="4" fill="white" stroke="black" />
<line x1="970" y1="576" x2="970" y2="731" stroke="black" />
<line x1="968" y1="731" x2="972" y2="731" stroke="black" />
<text x="971" y="723" font-family="Verdana" font-size="8" text-anchor="middle"  dominant-baseline="middle" fill="black" > 716</text>
<circle cx="968" cy="731" r="4" fill="white" stroke="black" />
<line x1="968" y1="735" x2="968" y2="736" stroke="black" />
<circle cx="968" cy="736" r="4" fill="white" stroke="black" />
<text x="968" y="748" font-family="Verdana" font-size="8" text-anchor="middle"  dominant-baseline="middle" fill="black" > 721</text>
<circle cx="972" cy="731" r="4" fill="white" stroke="black" />
<line x1="972" y1="735" x2="972" y2="736" stroke="black" />
<circle cx="972" cy="736" r="4" fill="white" stroke="black" />
<text x="972" y="748" font-family="Verdana" font-size="8" text-anchor="middle"  dominant-baseline="middle" fill="black" > 721</text>
<circle cx="987" cy="430" r="4" fill="white" stroke="black" />
<line x1="987" y1="434" x2="987" y2="645" stroke="black" />
<line x1="981" y1="645" x2="994" y2="645" stroke="black" />
<text x="990" y="637" font-family="Verdana" font-size="8" text-anchor="middle"  dominant-baseline="middle" fill="black" > 630</text>
<circle cx="981" cy="645" r="4" fill="white" stroke="black" />
<line x1="981" y1="649" x2="981" y2="736" stroke="black" />
<circle cx="981" cy="736" r="4" fill="white" stroke="black" />
<text x="981" y="748" font-family="Verdana" font-size="8" text-anchor="middle"  dominant-baseline="middle" fill="black" > 721</text>
<circle cx="993" cy="645" r="4" fill="white" stroke="black" />
<line x1="993" y1="649" x2="993" y2="736" stroke="black" />
<circle cx="993" cy="736" r="4" fill="white" stroke="black" />
<text x="993" y="748" font-family="Verdana" font-size="8" text-anchor="middle"  dominant-baseline="middle" fill="black" > 721</text>
</svg>
