<?xml version="1.0" encoding="utf-8"?>
<svg xmlns="http://www.w3.org/2000/svg" version="1.1" width="1150" height="750">
<rect width="1150" height="15" x="0" y="0" fill="white" />
<rect width="1150" height="15" x="0" y="735" fill="white" />
<rect width="25" height="750" x="0" y="0" fill="white" />
<rect width="25" height="750" x="1125" y="0" fill="white" />
<rect width="1110" height="144" x="25" y="15" fill="ghostwhite" />
<rect width="1110" height="144" x="25" y="159" fill="snow" />
<rect width="1110" height="144" x="25" y="303" fill="ghostwhite" />
<rect width="1110" height="144" x="25" y="447" fill="snow" />
<rect width="1110" height="144" x="25" y="591" fill="ghostwhite" />
<text x="12" y="87" font-family="Verdana" font-size="10" text-anchor="middle"  dominant-baseline="middle" fill="red" > D0</text>
<text x="12" y="231" font-family="Verdana" font-size="10" text-anchor="middle"  dominant-baseline="middle" fill="red" > D1</text>
<text x="12" y="375" font-family="Verdana" font-size="10" text-anchor="middle"  dominant-baseline="middle" fill="red" > D2</text>
<text x="12" y="519" font-family="Verdana" font-size="10" text-anchor="middle"  dominant-baseline="middle" fill="red" > D3</text>
<text x="12" y="663" font-family="Verdana" font-size="10" text-anchor="middle"  dominant-baseline="middle" fill="red" > D4</text>
<text x="12" y="20" font-family="Verdana" font-size="10" text-anchor="middle"  dominant-baseline="middle" fill="black" > 0</text>
<text x="12" y="164" font-family="Verdana" font-size="10" text-anchor="middle"  dominant-baseline="middle" fill="black" > 144</text>
<text x="12" y="308" font-family="Verdana" font-size="10" text-anchor="middle"  dominant-baseline="middle" fill="black" > 288</text>
<text x="12" y="452" font-family="Verdana" font-size="10" text-anchor="middle"  dominant-baseline="middle" fill="black" > 432</text>
<text x="12" y="596" font-family="Verdana" font-size="10" text-anchor="middle"  dominant-baseline="middle" fill="black" > 576</text>
<text x="12" y="740" font-family="Verdana" font-size="10" text-anchor="middle"  dominant-baseline="middle" fill="black" > 720</text>
<text x="100" y="7" font-family="Verdana" font-size="7" text-anchor="middle"  dominant-baseline="middle" fill="black" > C1</text>
<circle cx="100" cy="15" r="4" fill="white" stroke="black" />
<line x1="100" y1="19" x2="100" y2="283" stroke="black" />
<line x1="50" y1="283" x2="150" y2="283" stroke="black" />
<text x="125" y="275" font-family="Verdana" font-size="8" text-anchor="middle"  dominant-baseline="middle" fill="black" > 268</text>
<circle cx="50" cy="283" r="4" fill="white" stroke="black" />
<line x1="50" y1="287" x2="50" y2="519" stroke="black" />
<line x1="25" y1="519" x2="75" y2="519" stroke="black" />
<text x="62" y="511" font-family="Verdana" font-size="8" text-anchor="middle"  dominant-baseline="middle" fill="black" > 504</text>
<circle cx="25" cy="519" r="4" fill="white" stroke="black" />
<line x1="25" y1="523" x2="25" y2="591" stroke="black" />
<circle cx="25" cy="591" r="4" fill="white" stroke="black" />
<text x="25" y="603" font-family="Verdana" font-size="8" text-anchor="middle"  dominant-baseline="middle" fill="black" > 576</text>
<circle cx="75" cy="519" r="4" fill="white" stroke="black" />
<line x1="75" y1="523" x2="75" y2="591" stroke="black" />
<circle cx="75" cy="591" r="4" fill="white" stroke="black" />
<text x="75" y="603" font-family="Verdana" font-size="8" text-anchor="middle"  dominant-baseline="middle" fill="black" > 576</text>
<circle cx="150" cy="283" r="4" fill="white" stroke="black" />
<line x1="150" y1="287" x2="150" y2="587" stroke="black" />
<line x1="125" y1="587" x2="175" y2="587" stroke="black" />
<text x="162" y="579" font-family="Verdana" font-size="8" text-anchor="middle"  dominant-baseline="middle" fill="black" > 572</text>
<circle cx="125" cy="587" r="4" fill="white" stroke="black" />
<line x1="125" y1="591" x2="125" y2="591" stroke="black" />
<circle cx="125" cy="591" r="4" fill="white" stroke="black" />
<text x="125" y="603" font-family="Verdana" font-size="8" text-anchor="middle"  dominant-baseline="middle" fill="black" > 576</text>
<circle cx="175" cy="587" r="4" fill="white" stroke="black" />
<line x1="175" y1="591" x2="175" y2="591" stroke="black" />
<circle cx="175" cy="591" r="4" fill="white" stroke="black" />
<text x="175" y="603" font-family="Verdana" font-size="8" text-anchor="middle"  dominant-baseline="middle" fill="black" > 576</text>
<text x="300" y="7" font-family="Verdana" font-size="7" text-anchor="middle"  dominant-baseline="middle" fill="black" > C2</text>
<circle cx="300" cy="15" r="4" fill="white" stroke="black" />
<line x1="300" y1="19" x2="300" y2="125" stroke="black" />
<line x1="250" y1="125" x2="350" y2="125" stroke="black" />
<text x="325" y="117" font-family="Verdana" font-size="8" text-anchor="middle"  dominant-baseline="middle" fill="black" > 110</text>
<circle cx="250" cy="125" r="4" fill="white" stroke="black" />
<line x1="250" y1="129" x2="250" y2="373" stroke="black" />
<line x1="225" y1="373" x2="275" y2="373" stroke="black" />
<text x="262" y="365" font-family="Verdana" font-size="8" text-anchor="middle"  dominant-baseline="middle" fill="black" > 358</text>
<circle cx="225" cy="373" r="4" fill="white" stroke="black" />
<circle cx="275" cy="373" r="4" fill="white" stroke="black" />
<line x1="225" y1="377" x2="225" y2="376" stroke="black" />
<line x1="225" y1="376" x2="250" y2="376" stroke="black" />
<line x1="275" y1="377" x2="275" y2="376" stroke="black" />
<line x1="275" y1="376" x2="250" y2="376" stroke="black" />
<text x="250" y="364" font-family="Verdana" font-size="8" text-anchor="middle"  dominant-baseline="middle" fill="black" > 361</text>
<circle cx="250" cy="376" r="4" fill="white" stroke="black" />
<line x1="250" y1="380" x2="250" y2="427" stroke="black" />
<line x1="246" y1="423" x2="254" y2="431" stroke="red" />
<line x1="246" y1="431" x2="254" y2="423" stroke="red" />
<text x="250" y="439" font-family="Verdana" font-size="8" text-anchor="middle"  dominant-baseline="middle" fill="black" > 412</text>
<circle cx="350" cy="125" r="4" fill="white" stroke="black" />
<line x1="350" y1="129" x2="350" y2="499" stroke="black" />
<line x1="346" y1="495" x2="354" y2="503" stroke="red" />
<line x1="346" y1="503" x2="354" y2="495" stroke="red" />
<text x="350" y="511" font-family="Verdana" font-size="8" text-anchor="middle"  dominant-baseline="middle" fill="black" > 484</text>
<text x="500" y="7" font-family="Verdana" font-size="7" text-anchor="middle"  dominant-baseline="middle" fill="black" > C3</text>
<circle cx="500" cy="15" r="4" fill="white" stroke="black" />
<line x1="500" y1="19" x2="500" y2="211" stroke="black" />
<line x1="450" y1="211" x2="550" y2="211" stroke="black" />
<text x="525" y="203" font-family="Verdana" font-size="8" text-anchor="middle"  dominant-baseline="middle" fill="black" > 196</text>
<circle cx="450" cy="211" r="4" fill="white" stroke="black" />
<line x1="450" y1="215" x2="450" y2="303" stroke="black" />
<line x1="425" y1="303" x2="475" y2="303" stroke="black" />
<text x="462" y="295" font-family="Verdana" font-size="8" text-anchor="middle"  dominant-baseline="middle" fill="black" > 288</text>
<circle cx="425" cy="303" r="4" fill="white" stroke="black" />
<circle cx="475" cy="303" r="4" fill="white" stroke="black" />
<line x1="425" y1="307" x2="425" y2="318" stroke="black" />
<line x1="425" y1="318" x2="450" y2="323" stroke="black" />
<line x1="475" y1="307" x2="475" y2="318" stroke="black" />
<line x1="475" y1="318" x2="450" y2="323" stroke="black" />
<text x="450" y="311" font-family="Verdana" font-size="8" text-anchor="middle"  dominant-baseline="middle" fill="black" > 308</text>
<circle cx="450" cy="323" r="4" fill="white" stroke="black" />
<line x1="450" y1="327" x2="450" y2="591" stroke="black" />
<circle cx="450" cy="591" r="4" fill="white" stroke="black" />
<text x="450" y="603" font-family="Verdana" font-size="8" text-anchor="middle"  dominant-baseline="middle" fill="black" > 576</text>
<circle cx="550" cy="211" r="4" fill="white" stroke="black" />
<line x1="550" y1="215" x2="550" y2="229" stroke="black" />
<line x1="546" y1="225" x2="554" y2="233" stroke="red" />
<line x1="546" y1="233" x2="554" y2="225" stroke="red" />
<text x="550" y="241" font-family="Verdana" font-size="8" text-anchor="middle"  dominant-baseline="middle" fill="black" > 214</text>
<text x="650" y="7" font-family="Verdana" font-size="7" text-anchor="middle"  dominant-baseline="middle" fill="black" > C4</text>
<circle cx="650" cy="15" r="4" fill="white" stroke="black" />
<line x1="650" y1="19" x2="650" y2="415" stroke="black" />
<line x1="646" y1="411" x2="654" y2="419" stroke="red" />
<line x1="646" y1="419" x2="654" y2="411" stroke="red" />
<text x="650" y="427" font-family="Verdana" font-size="8" text-anchor="middle"  dominant-baseline="middle" fill="black" > 400</text>
<text x="750" y="7" font-family="Verdana" font-size="7" text-anchor="middle"  dominant-baseline="middle" fill="black" > C5</text>
<circle cx="750" cy="15" r="4" fill="white" stroke="black" />
<line x1="750" y1="19" x2="750" y2="292" stroke="black" />
<line x1="746" y1="288" x2="754" y2="296" stroke="red" />
<line x1="746" y1="296" x2="754" y2="288" stroke="red" />
<text x="750" y="304" font-family="Verdana" font-size="8" text-anchor="middle"  dominant-baseline="middle" fill="black" > 277</text>
<text x="850" y="7" font-family="Verdana" font-size="7" text-anchor="middle"  dominant-baseline="middle" fill="black" > C6</text>
<circle cx="850" cy="15" r="4" fill="white" stroke="black" />
<line x1="850" y1="19" x2="850" y2="591" stroke="black" />
<circle cx="850" cy="591" r="4" fill="white" stroke="black" />
<text x="850" y="603" font-family="Verdana" font-size="8" text-anchor="middle"  dominant-baseline="middle" fill="black" > 576</text>
<text x="1000" y="7" font-family="Verdana" font-size="7" text-anchor="middle"  dominant-baseline="middle" fill="black" > C7</text>
<circle cx="1000" cy="15" r="4" fill="white" stroke="black" />
<line x1="1000" y1="19" x2="1000" y2="60" stroke="black" />
<line x1="950" y1="60" x2="1050" y2="60" stroke="black" />
<text x="1025" y="52" font-family="Verdana" font-size="8" text-anchor="middle"  dominant-baseline="middle" fill="black" > 45</text>
<circle cx="950" cy="60" r="4" fill="white" stroke="black" />
<line x1="950" y1="64" x2="950" y2="189" stroke="black" />
<line x1="925" y1="189" x2="975" y2="189" stroke="black" />
<text x="962" y="181" font-family="Verdana" font-size="8" text-anchor="middle"  dominant-baseline="middle" fill="black" > 174</text>
<circle cx="925" cy="189" r="4" fill="white" stroke="black" />
<line x1="925" y1="193" x2="925" y2="355" stroke="black" />
<line x1="912" y1="355" x2="938" y2="355" stroke="black" />
<text x="931" y="347" font-family="Verdana" font-size="8" text-anchor="middle"  dominant-baseline="middle" fill="black" > 340</text>
<circle cx="912" cy="355" r="4" fill="white" stroke="black" />
<line x1="912" y1="359" x2="912" y2="514" stroke="black" />
<line x1="906" y1="514" x2="919" y2="514" stroke="black" />
<text x="915" y="506" font-family="Verdana" font-size="8" text-anchor="middle"  dominant-baseline="middle" fill="black" > 499</text>
<circle cx="906" cy="514" r="4" fill="white" stroke="black" />
<line x1="906" y1="518" x2="906" y2="591" stroke="black" />
<circle cx="906" cy="591" r="4" fill="white" stroke="black" />
<text x="906" y="603" font-family="Verdana" font-size="8" text-anchor="middle"  dominant-baseline="middle" fill="black" > 576</text>
<circle cx="918" cy="514" r="4" fill="white" stroke="black" />
<line x1="918" y1="518" x2="918" y2="591" stroke="black" />
<circle cx="918" cy="591" r="4" fill="white" stroke="black" />
<text x="918" y="603" font-family="Verdana" font-size="8" text-anchor="middle"  dominant-baseline="middle" fill="black" > 576</text>
<circle cx="937" cy="355" r="4" fill="white" stroke="black" />
<line x1="937" y1="359" x2="937" y2="356" stroke="black" />
<line x1="931" y1="356" x2="944" y2="356" stroke="black" />
<text x="940" y="348" font-family="Verdana" font-size="8" text-anchor="middle"  dominant-baseline="middle" fill="black" > 341</text>
<circle cx="931" cy="356" r="4" fill="white" stroke="black" />
<line x1="931" y1="360" x2="931" y2="591" stroke="black" />
<circle cx="931" cy="591" r="4" fill="white" stroke="black" />
<text x="931" y="603" font-family="Verdana" font-size="8" text-anchor="middle"  dominant-baseline="middle" fill="black" > 576</text>
<circle cx="943" cy="356" r="4" fill="white" stroke="black" />
<line x1="943" y1="360" x2="943" y2="591" stroke="black" />
<circle cx="943" cy="591" r="4" fill="white" stroke="black" />
<text x="943" y="603" font-family="Verdana" font-size="8" text-anchor="middle"  dominant-baseline="middle" fill="black" > 576</text>
<circle cx="975" cy="189" r="4" fill="white" stroke="black" />
<line x1="975" y1="193" x2="975" y2="356" stroke="black" />
<line x1="962" y1="356" x2="988" y2="356" stroke="black" />
<text x="981" y="348" font-family="Verdana" font-size="8" text-anchor="middle"  dominant-baseline="middle" fill="black" > 341</text>
<circle cx="962" cy="356" r="4" fill="white" stroke="black" />
<line x1="962" y1="360" x2="962" y2="530" stroke="black" />
<line x1="956" y1="530" x2="969" y2="530" stroke="black" />
<text x="965" y="522" font-family="Verdana" font-size="8" text-anchor="middle"  dominant-baseline="middle" fill="black" > 515</text>
<circle cx="956" cy="530" r="4" fill="white" stroke="black" />
<line x1="956" y1="534" x2="956" y2="591" stroke="black" />
<circle cx="956" cy="591" r="4" fill="white" stroke="black" />
<text x="956" y="603" font-family="Verdana" font-size="8" text-anchor="middle"  dominant-baseline="middle" fill="black" > 576</text>
<circle cx="968" cy="530" r="4" fill="white" stroke="black" />
<line x1="968" y1="534" x2="968" y2="591" stroke="black" />
<circle cx="968" cy="591" r="4" fill="white" stroke="black" />
<text x="968" y="603" font-family="Verdana" font-size="8" text-anchor="middle"  dominant-baseline="middle" fill="black" > 576</text>
<circle cx="987" cy="356" r="4" fill="white" stroke="black" />
<line x1="987" y1="360" x2="987" y2="541" stroke="black" />
<line x1="983" y1="545" x2="987" y2="537" stroke="blue" />
<line x1="987" y1="545" x2="991" y2="537" stroke="blue" />
<text x="987" y="553" font-family="Verdana" font-size="8" text-anchor="middle"  dominant-baseline="middle" fill="black" > 526</text>
<circle cx="1050" cy="60" r="4" fill="white" stroke="black" />
<line x1="1050" y1="64" x2="1050" y2="186" stroke="black" />
<line x1="1025" y1="186" x2="1075" y2="186" stroke="black" />
<text x="1062" y="178" font-family="Verdana" font-size="8" text-anchor="middle"  dominant-baseline="middle" fill="black" > 171</text>
<circle cx="1025" cy="186" r="4" fill="white" stroke="black" />
<line x1="1025" y1="190" x2="1025" y2="337" stroke="black" />
<line x1="1012" y1="337" x2="1038" y2="337" stroke="black" />
<text x="1031" y="329" font-family="Verdana" font-size="8" text-anchor="middle"  dominant-baseline="middle" fill="black" > 322</text>
<circle cx="1012" cy="337" r="4" fill="white" stroke="black" />
<line x1="1012" y1="341" x2="1012" y2="508" stroke="black" />
<line x1="1006" y1="508" x2="1019" y2="508" stroke="black" />
<text x="1015" y="500" font-family="Verdana" font-size="8" text-anchor="middle"  dominant-baseline="middle" fill="black" > 493</text>
<circle cx="1006" cy="508" r="4" fill="white" stroke="black" />
<line x1="1006" y1="512" x2="1006" y2="591" stroke="black" />
<circle cx="1006" cy="591" r="4" fill="white" stroke="black" />
<text x="1006" y="603" font-family="Verdana" font-size="8" text-anchor="middle"  dominant-baseline="middle" fill="black" > 576</text>
<circle cx="1018" cy="508" r="4" fill="white" stroke="black" />
<line x1="1018" y1="512" x2="1018" y2="591" stroke="black" />
<circle cx="1018" cy="591" r="4" fill="white" stroke="black" />
<text x="1018" y="603" font-family="Verdana" font-size="8" text-anchor="middle"  dominant-baseline="middle" fill="black" > 576</text>
<circle cx="1037" cy="337" r="4" fill="white" stroke="black" />
<line x1="1037" y1="341" x2="1037" y2="521" stroke="black" />
<line x1="1031" y1="521" x2="1044" y2="521" stroke="black" />
<text x="1040" y="513" font-family="Verdana" font-size="8" text-anchor="middle"  dominant-baseline="middle" fill="black" > 506</text>
<circle cx="1031" cy="521" r="4" fill="white" stroke="black" />
<line x1="1031" y1="525" x2="1031" y2="591" stroke="black" />
<circle cx="1031" cy="591" r="4" fill="white" stroke="black" />
<text x="1031" y="603" font-family="Verdana" font-size="8" text-anchor="middle"  dominant-baseline="middle" fill="black" > 576</text>
<circle cx="1043" cy="521" r="4" fill="white" stroke="black" />
<line x1="1043" y1="525" x2="1043" y2="591" stroke="black" />
<circle cx="1043" cy="591" r="4" fill="white" stroke="black" />
<text x="1043" y="603" font-family="Verdana" font-size="8" text-anchor="middle"  dominant-baseline="middle" fill="black" > 576</text>
<circle cx="1075" cy="186" r="4" fill="white" stroke="black" />
<line x1="1075" y1="190" x2="1075" y2="341" stroke="black" />
<line x1="1062" y1="341" x2="1088" y2="341" stroke="black" />
<text x="1081" y="333" font-family="Verdana" font-size="8" text-anchor="middle"  dominant-baseline="middle" fill="black" > 326</text>
<circle cx="1062" cy="341" r="4" fill="white" stroke="black" />
<line x1="1062" y1="345" x2="1062" y2="460" stroke="black" />
<line x1="1056" y1="460" x2="1069" y2="460" stroke="black" />
<text x="1065" y="452" font-family="Verdana" font-size="8" text-anchor="middle"  dominant-baseline="middle" fill="black" > 445</text>
<circle cx="1056" cy="460" r="4" fill="white" stroke="black" />
<line x1="1056" y1="464" x2="1056" y2="591" stroke="black" />
<circle cx="1056" cy="591" r="4" fill="white" stroke="black" />
<text x="1056" y="603" font-family="Verdana" font-size="8" text-anchor="middle"  dominant-baseline="middle" fill="black" > 576</text>
<circle cx="1068" cy="460" r="4" fill="white" stroke="black" />
<line x1="1068" y1="464" x2="1068" y2="591" stroke="black" />
<circle cx="1068" cy="591" r="4" fill="white" stroke="black" />
<text x="1068" y="603" font-family="Verdana" font-size="8" text-anchor="middle"  dominant-baseline="middle" fill="black" > 576</text>
<circle cx="1087" cy="341" r="4" fill="white" stroke="black" />
<line x1="1087" y1="345" x2="1087" y2="476" stroke="black" />
<line x1="1081" y1="476" x2="1094" y2="476" stroke="black" />
<text x="1090" y="468" font-family="Verdana" font-size="8" text-anchor="middle"  dominant-baseline="middle" fill="black" > 461</text>
<circle cx="1081" cy="476" r="4" fill="white" stroke="black" />
<line x1="1081" y1="480" x2="1081" y2="589" stroke="black" />
<line x1="1078" y1="589" x2="1084" y2="589" stroke="black" />
<text x="1082" y="581" font-family="Verdana" font-size="8" text-anchor="middle"  dominant-baseline="middle" fill="black" > 574</text>
<circle cx="1078" cy="589" r="4" fill="white" stroke="black" />
<line x1="1078" y1="593" x2="1078" y2="591" stroke="black" />
<circle cx="1078" cy="591" r="4" fill="white" stroke="black" />
<text x="1078" y="603" font-family="Verdana" font-size="8" text-anchor="middle"  dominant-baseline="middle" fill="black" > 576</text>
<circle cx="1084" cy="589" r="4" fill="white" stroke="black" />
<line x1="1084" y1="593" x2="1084" y2="591" stroke="black" />
<circle cx="1084" cy="591" r="4" fill="white" stroke="black" />
<text x="1084" y="603" font-family="Verdana" font-size="8" text-anchor="middle"  dominant-baseline="middle" fill="black" > 576</text>
<circle cx="1093" cy="476" r="4" fill="white" stroke="black" />
<line x1="1093" y1="480" x2="1093" y2="585" stroke="black" />
<line x1="1090" y1="585" x2="1096" y2="585" stroke="black" />
<text x="1094" y="577" font-family="Verdana" font-size="8" text-anchor="middle"  dominant-baseline="middle" fill="black" > 570</text>
<circle cx="1090" cy="585" r="4" fill="white" stroke="black" />
<line x1="1090" y1="589" x2="1090" y2="591" stroke="black" />
<circle cx="1090" cy="591" r="4" fill="white" stroke="black" />
<text x="1090" y="603" font-family="Verdana" font-size="8" text-anchor="middle"  dominant-baseline="middle" fill="black" > 576</text>
<circle cx="1096" cy="585" r="4" fill="white" stroke="black" />
<line x1="1096" y1="589" x2="1096" y2="591" stroke="black" />
<circle cx="1096" cy="591" r="4" fill="white" stroke="black" />
<text x="1096" y="603" font-family="Verdana" font-size="8" text-anchor="middle"  dominant-baseline="middle" fill="black" > 576</text>
</svg>
