<?xml version="1.0" encoding="utf-8"?>
<svg xmlns="http://www.w3.org/2000/svg" version="1.1" width="850" height="750">
<rect width="850" height="15" x="0" y="0" fill="white" />
<rect width="850" height="15" x="0" y="735" fill="white" />
<rect width="25" height="750" x="0" y="0" fill="white" />
<rect width="25" height="750" x="825" y="0" fill="white" />
<rect width="810" height="144" x="25" y="15" fill="ghostwhite" />
<rect width="810" height="144" x="25" y="159" fill="snow" />
<rect width="810" height="144" x="25" y="303" fill="ghostwhite" />
<rect width="810" height="144" x="25" y="447" fill="snow" />
<rect width="810" height="144" x="25" y="591" fill="ghostwhite" />
<text x="12" y="87" font-family="Verdana" font-size="10" text-anchor="middle"  dominant-baseline="middle" fill="red" > D0</text>
<text x="12" y="231" font-family="Verdana" font-size="10" text-anchor="middle"  dominant-baseline="middle" fill="red" > D1</text>
<text x="12" y="375" font-family="Verdana" font-size="10" text-anchor="middle"  dominant-baseline="middle" fill="red" > D2</text>
<text x="12" y="519" font-family="Verdana" font-size="10" text-anchor="middle"  dominant-baseline="middle" fill="red" > D3</text>
<text x="12" y="663" font-family="Verdana" font-size="10" text-anchor="middle"  dominant-baseline="middle" fill="red" > D4</text>
<text x="12" y="20" font-family="Verdana" font-size="10" text-anchor="middle"  dominant-baseline="middle" fill="black" > 0</text>
<text x="12" y="164" font-family="Verdana" font-size="10" text-anchor="middle"  dominant-baseline="middle" fill="black" > 144</text>
<text x="12" y="308" font-family="Verdana" font-size="10" text-anchor="middle"  dominant-baseline="middle" fill="black" > 288</text>
<text x="12" y="452" font-family="Verdana" font-size="10" text-anchor="middle"  dominant-baseline="middle" fill="black" > 432</text>
<text x="12" y="596" font-family="Verdana" font-size="10" text-anchor="middle"  dominant-baseline="middle" fill="black" > 576</text>
<text x="12" y="740" font-family="Verdana" font-size="10" text-anchor="middle"  dominant-baseline="middle" fill="black" > 720</text>
<text x="100" y="7" font-family="Verdana" font-size="7" text-anchor="middle"  dominant-baseline="middle" fill="black" > C15</text>
<circle cx="100" cy="15" r="4" fill="white" stroke="black" />
<line x1="100" y1="19" x2="100" y2="122" stroke="black" />
<line x1="50" y1="122" x2="150" y2="122" stroke="black" />
<text x="125" y="114" font-family="Verdana" font-size="8" text-anchor="middle"  dominant-baseline="middle" fill="black" > 107</text>
<circle cx="50" cy="122" r="4" fill="white" stroke="black" />
<line x1="50" y1="126" x2="50" y2="291" stroke="black" />
<line x1="25" y1="291" x2="75" y2="291" stroke="black" />
<text x="62" y="283" font-family="Verdana" font-size="8" text-anchor="middle"  dominant-baseline="middle" fill="black" > 276</text>
<circle cx="25" cy="291" r="4" fill="white" stroke="black" />
<line x1="25" y1="295" x2="25" y2="322" stroke="black" />
<line x1="21" y1="318" x2="29" y2="326" stroke="red" />
<line x1="21" y1="326" x2="29" y2="318" stroke="red" />
<text x="25" y="334" font-family="Verdana" font-size="8" text-anchor="middle"  dominant-baseline="middle" fill="black" > 307</text>
<circle cx="75" cy="291" r="4" fill="white" stroke="black" />
<line x1="75" y1="295" x2="75" y2="321" stroke="black" />
<line x1="71" y1="317" x2="79" y2="325" stroke="red" />
<line x1="71" y1="325" x2="79" y2="317" stroke="red" />
<text x="75" y="333" font-family="Verdana" font-size="8" text-anchor="middle"  dominant-baseline="middle" fill="black" > 306</text>
<circle cx="150" cy="122" r="4" fill="white" stroke="black" />
<line x1="150" y1="126" x2="150" y2="258" stroke="black" />
<line x1="125" y1="258" x2="175" y2="258" stroke="black" />
<text x="162" y="250" font-family="Verdana" font-size="8" text-anchor="middle"  dominant-baseline="middle" fill="black" > 243</text>
<circle cx="125" cy="258" r="4" fill="white" stroke="black" />
<circle cx="175" cy="258" r="4" fill="white" stroke="black" />
<line x1="125" y1="262" x2="125" y2="269" stroke="black" />
<line x1="125" y1="269" x2="150" y2="272" stroke="black" />
<line x1="175" y1="262" x2="175" y2="269" stroke="black" />
<line x1="175" y1="269" x2="150" y2="272" stroke="black" />
<text x="150" y="260" font-family="Verdana" font-size="8" text-anchor="middle"  dominant-baseline="middle" fill="black" > 257</text>
<circle cx="150" cy="272" r="4" fill="white" stroke="black" />
<line x1="150" y1="276" x2="150" y2="318" stroke="black" />
<line x1="146" y1="314" x2="154" y2="322" stroke="red" />
<line x1="146" y1="322" x2="154" y2="314" stroke="red" />
<text x="150" y="330" font-family="Verdana" font-size="8" text-anchor="middle"  dominant-baseline="middle" fill="black" > 303</text>
<text x="300" y="7" font-family="Verdana" font-size="7" text-anchor="middle"  dominant-baseline="middle" fill="black" > C16</text>
<circle cx="300" cy="15" r="4" fill="white" stroke="black" />
<line x1="300" y1="19" x2="300" y2="87" stroke="black" />
<line x1="250" y1="87" x2="350" y2="87" stroke="black" />
<text x="325" y="79" font-family="Verdana" font-size="8" text-anchor="middle"  dominant-baseline="middle" fill="black" > 72</text>
<circle cx="250" cy="87" r="4" fill="white" stroke="black" />
<line x1="250" y1="91" x2="250" y2="226" stroke="black" />
<line x1="225" y1="226" x2="275" y2="226" stroke="black" />
<text x="262" y="218" font-family="Verdana" font-size="8" text-anchor="middle"  dominant-baseline="middle" fill="black" > 211</text>
<circle cx="225" cy="226" r="4" fill="white" stroke="black" />
<line x1="225" y1="230" x2="225" y2="591" stroke="black" />
<circle cx="225" cy="591" r="4" fill="white" stroke="black" />
<text x="225" y="603" font-family="Verdana" font-size="8" text-anchor="middle"  dominant-baseline="middle" fill="black" > 576</text>
<circle cx="275" cy="226" r="4" fill="white" stroke="black" />
<line x1="275" y1="230" x2="275" y2="389" stroke="black" />
<line x1="262" y1="389" x2="288" y2="389" stroke="black" />
<text x="281" y="381" font-family="Verdana" font-size="8" text-anchor="middle"  dominant-baseline="middle" fill="black" > 374</text>
<circle cx="262" cy="389" r="4" fill="white" stroke="black" />
<line x1="262" y1="393" x2="262" y2="580" stroke="black" />
<line x1="256" y1="580" x2="269" y2="580" stroke="black" />
<text x="265" y="572" font-family="Verdana" font-size="8" text-anchor="middle"  dominant-baseline="middle" fill="black" > 565</text>
<circle cx="256" cy="580" r="4" fill="white" stroke="black" />
<line x1="256" y1="584" x2="256" y2="591" stroke="black" />
<circle cx="256" cy="591" r="4" fill="white" stroke="black" />
<text x="256" y="603" font-family="Verdana" font-size="8" text-anchor="middle"  dominant-baseline="middle" fill="black" > 576</text>
<circle cx="268" cy="580" r="4" fill="white" stroke="black" />
<line x1="268" y1="584" x2="268" y2="591" stroke="black" />
<circle cx="268" cy="591" r="4" fill="white" stroke="black" />
<text x="268" y="603" font-family="Verdana" font-size="8" text-anchor="middle"  dominant-baseline="middle" fill="black" > 576</text>
<circle cx="287" cy="389" r="4" fill="white" stroke="black" />
<line x1="287" y1="393" x2="287" y2="545" stroke="black" />
<line x1="281" y1="545" x2="294" y2="545" stroke="black" />
<text x="290" y="537" font-family="Verdana" font-size="8" text-anchor="middle"  dominant-baseline="middle" fill="black" > 530</text>
<circle cx="281" cy="545" r="4" fill="white" stroke="black" />
<line x1="281" y1="549" x2="281" y2="591" stroke="black" />
<circle cx="281" cy="591" r="4" fill="white" stroke="black" />
<text x="281" y="603" font-family="Verdana" font-size="8" text-anchor="middle"  dominant-baseline="middle" fill="black" > 576</text>
<circle cx="293" cy="545" r="4" fill="white" stroke="black" />
<line x1="293" y1="549" x2="293" y2="591" stroke="black" />
<circle cx="293" cy="591" r="4" fill="white" stroke="black" />
<text x="293" y="603" font-family="Verdana" font-size="8" text-anchor="middle"  dominant-baseline="middle" fill="black" > 576</text>
<circle cx="350" cy="87" r="4" fill="white" stroke="black" />
<line x1="350" y1="91" x2="350" y2="232" stroke="black" />
<line x1="325" y1="232" x2="375" y2="232" stroke="black" />
<text x="362" y="224" font-family="Verdana" font-size="8" text-anchor="middle"  dominant-baseline="middle" fill="black" > 217</text>
<circle cx="325" cy="232" r="4" fill="white" stroke="black" />
<line x1="325" y1="236" x2="325" y2="430" stroke="black" />
<line x1="312" y1="430" x2="338" y2="430" stroke="black" />
<text x="331" y="422" font-family="Verdana" font-size="8" text-anchor="middle"  dominant-baseline="middle" fill="black" > 415</text>
<circle cx="312" cy="430" r="4" fill="white" stroke="black" />
<line x1="312" y1="434" x2="312" y2="591" stroke="black" />
<circle cx="312" cy="591" r="4" fill="white" stroke="black" />
<text x="312" y="603" font-family="Verdana" font-size="8" text-anchor="middle"  dominant-baseline="middle" fill="black" > 576</text>
<circle cx="337" cy="430" r="4" fill="white" stroke="black" />
<line x1="337" y1="434" x2="337" y2="591" stroke="black" />
<circle cx="337" cy="591" r="4" fill="white" stroke="black" />
<text x="337" y="603" font-family="Verdana" font-size="8" text-anchor="middle"  dominant-baseline="middle" fill="black" > 576</text>
<circle cx="375" cy="232" r="4" fill="white" stroke="black" />
<line x1="375" y1="236" x2="375" y2="378" stroke="black" />
<line x1="362" y1="378" x2="388" y2="378" stroke="black" />
<text x="381" y="370" font-family="Verdana" font-size="8" text-anchor="middle"  dominant-baseline="middle" fill="black" > 363</text>
<circle cx="362" cy="378" r="4" fill="white" stroke="black" />
<line x1="362" y1="382" x2="362" y2="591" stroke="black" />
<circle cx="362" cy="591" r="4" fill="white" stroke="black" />
<text x="362" y="603" font-family="Verdana" font-size="8" text-anchor="middle"  dominant-baseline="middle" fill="black" > 576</text>
<circle cx="387" cy="378" r="4" fill="white" stroke="black" />
<line x1="387" y1="382" x2="387" y2="590" stroke="black" />
<line x1="381" y1="590" x2="394" y2="590" stroke="black" />
<text x="390" y="582" font-family="Verdana" font-size="8" text-anchor="middle"  dominant-baseline="middle" fill="black" > 575</text>
<circle cx="381" cy="590" r="4" fill="white" stroke="black" />
<line x1="381" y1="594" x2="381" y2="591" stroke="black" />
<circle cx="381" cy="591" r="4" fill="white" stroke="black" />
<text x="381" y="603" font-family="Verdana" font-size="8" text-anchor="middle"  dominant-baseline="middle" fill="black" > 576</text>
<circle cx="393" cy="590" r="4" fill="white" stroke="black" />
<line x1="393" y1="594" x2="393" y2="591" stroke="black" />
<circle cx="393" cy="591" r="4" fill="white" stroke="black" />
<text x="393" y="603" font-family="Verdana" font-size="8" text-anchor="middle"  dominant-baseline="middle" fill="black" > 576</text>
<text x="500" y="7" font-family="Verdana" font-size="7" text-anchor="middle"  dominant-baseline="middle" fill="black" > C17</text>
<circle cx="500" cy="15" r="4" fill="white" stroke="black" />
<line x1="500" y1="19" x2="500" y2="90" stroke="black" />
<line x1="450" y1="90" x2="550" y2="90" stroke="black" />
<text x="525" y="82" font-family="Verdana" font-size="8" text-anchor="middle"  dominant-baseline="middle" fill="black" > 75</text>
<circle cx="450" cy="90" r="4" fill="white" stroke="black" />
<line x1="450" y1="94" x2="450" y2="213" stroke="black" />
<line x1="425" y1="213" x2="475" y2="213" stroke="black" />
<text x="462" y="205" font-family="Verdana" font-size="8" text-anchor="middle"  dominant-baseline="middle" fill="black" > 198</text>
<circle cx="425" cy="213" r="4" fill="white" stroke="black" />
<line x1="425" y1="217" x2="425" y2="337" stroke="black" />
<line x1="412" y1="337" x2="438" y2="337" stroke="black" />
<text x="431" y="329" font-family="Verdana" font-size="8" text-anchor="middle"  dominant-baseline="middle" fill="black" > 322</text>
<circle cx="412" cy="337" r="4" fill="white" stroke="black" />
<line x1="412" y1="341" x2="412" y2="455" stroke="black" />
<line x1="406" y1="455" x2="419" y2="455" stroke="black" />
<text x="415" y="447" font-family="Verdana" font-size="8" text-anchor="middle"  dominant-baseline="middle" fill="black" > 440</text>
<circle cx="406" cy="455" r="4" fill="white" stroke="black" />
<line x1="406" y1="459" x2="406" y2="591" stroke="black" />
<circle cx="406" cy="591" r="4" fill="white" stroke="black" />
<text x="406" y="603" font-family="Verdana" font-size="8" text-anchor="middle"  dominant-baseline="middle" fill="black" > 576</text>
<circle cx="418" cy="455" r="4" fill="white" stroke="black" />
<line x1="418" y1="459" x2="418" y2="501" stroke="black" />
<line x1="414" y1="505" x2="418" y2="497" stroke="blue" />
<line x1="418" y1="505" x2="422" y2="497" stroke="blue" />
<text x="418" y="513" font-family="Verdana" font-size="8" text-anchor="middle"  dominant-baseline="middle" fill="black" > 486</text>
<circle cx="437" cy="337" r="4" fill="white" stroke="black" />
<line x1="437" y1="341" x2="437" y2="444" stroke="black" />
<line x1="431" y1="444" x2="444" y2="444" stroke="black" />
<text x="440" y="436" font-family="Verdana" font-size="8" text-anchor="middle"  dominant-baseline="middle" fill="black" > 429</text>
<circle cx="431" cy="444" r="4" fill="white" stroke="black" />
<line x1="431" y1="448" x2="431" y2="568" stroke="black" />
<line x1="428" y1="568" x2="434" y2="568" stroke="black" />
<text x="432" y="560" font-family="Verdana" font-size="8" text-anchor="middle"  dominant-baseline="middle" fill="black" > 553</text>
<circle cx="428" cy="568" r="4" fill="white" stroke="black" />
<line x1="428" y1="572" x2="428" y2="591" stroke="black" />
<circle cx="428" cy="591" r="4" fill="white" stroke="black" />
<text x="428" y="603" font-family="Verdana" font-size="8" text-anchor="middle"  dominant-baseline="middle" fill="black" > 576</text>
<circle cx="434" cy="568" r="4" fill="white" stroke="black" />
<line x1="434" y1="572" x2="434" y2="591" stroke="black" />
<circle cx="434" cy="591" r="4" fill="white" stroke="black" />
<text x="434" y="603" font-family="Verdana" font-size="8" text-anchor="middle"  dominant-baseline="middle" fill="black" > 576</text>
<circle cx="443" cy="444" r="4" fill="white" stroke="black" />
<line x1="443" y1="448" x2="443" y2="572" stroke="black" />
<line x1="440" y1="572" x2="446" y2="572" stroke="black" />
<text x="444" y="564" font-family="Verdana" font-size="8" text-anchor="middle"  dominant-baseline="middle" fill="black" > 557</text>
<circle cx="440" cy="572" r="4" fill="white" stroke="black" />
<line x1="440" y1="576" x2="440" y2="591" stroke="black" />
<circle cx="440" cy="591" r="4" fill="white" stroke="black" />
<text x="440" y="603" font-family="Verdana" font-size="8" text-anchor="middle"  dominant-baseline="middle" fill="black" > 576</text>
<circle cx="446" cy="572" r="4" fill="white" stroke="black" />
<line x1="446" y1="576" x2="446" y2="591" stroke="black" />
<circle cx="446" cy="591" r="4" fill="white" stroke="black" />
<text x="446" y="603" font-family="Verdana" font-size="8" text-anchor="middle"  dominant-baseline="middle" fill="black" > 576</text>
<circle cx="475" cy="213" r="4" fill="white" stroke="black" />
<line x1="475" y1="217" x2="475" y2="240" stroke="black" />
<line x1="471" y1="244" x2="475" y2="236" stroke="blue" />
<line x1="475" y1="244" x2="479" y2="236" stroke="blue" />
<text x="475" y="252" font-family="Verdana" font-size="8" text-anchor="middle"  dominant-baseline="middle" fill="black" > 225</text>
<circle cx="550" cy="90" r="4" fill="white" stroke="black" />
<line x1="550" y1="94" x2="550" y2="145" stroke="black" />
<line x1="546" y1="149" x2="550" y2="141" stroke="blue" />
<line x1="550" y1="149" x2="554" y2="141" stroke="blue" />
<text x="550" y="157" font-family="Verdana" font-size="8" text-anchor="middle"  dominant-baseline="middle" fill="black" > 130</text>
<text x="700" y="7" font-family="Verdana" font-size="7" text-anchor="middle"  dominant-baseline="middle" fill="black" > C18</text>
<circle cx="700" cy="15" r="4" fill="white" stroke="black" />
<line x1="700" y1="19" x2="700" y2="93" stroke="black" />
<line x1="650" y1="93" x2="750" y2="93" stroke="black" />
<text x="725" y="85" font-family="Verdana" font-size="8" text-anchor="middle"  dominant-baseline="middle" fill="black" > 78</text>
<circle cx="650" cy="93" r="4" fill="white" stroke="black" />
<line x1="650" y1="97" x2="650" y2="238" stroke="black" />
<line x1="625" y1="238" x2="675" y2="238" stroke="black" />
<text x="662" y="230" font-family="Verdana" font-size="8" text-anchor="middle"  dominant-baseline="middle" fill="black" > 223</text>
<circle cx="625" cy="238" r="4" fill="white" stroke="black" />
<line x1="625" y1="242" x2="625" y2="377" stroke="black" />
<line x1="612" y1="377" x2="638" y2="377" stroke="black" />
<text x="631" y="369" font-family="Verdana" font-size="8" text-anchor="middle"  dominant-baseline="middle" fill="black" > 362</text>
<circle cx="612" cy="377" r="4" fill="white" stroke="black" />
<line x1="612" y1="381" x2="612" y2="505" stroke="black" />
<line x1="606" y1="505" x2="619" y2="505" stroke="black" />
<text x="615" y="497" font-family="Verdana" font-size="8" text-anchor="middle"  dominant-baseline="middle" fill="black" > 490</text>
<circle cx="606" cy="505" r="4" fill="white" stroke="black" />
<line x1="606" y1="509" x2="606" y2="591" stroke="black" />
<circle cx="606" cy="591" r="4" fill="white" stroke="black" />
<text x="606" y="603" font-family="Verdana" font-size="8" text-anchor="middle"  dominant-baseline="middle" fill="black" > 576</text>
<circle cx="618" cy="505" r="4" fill="white" stroke="black" />
<line x1="618" y1="509" x2="618" y2="591" stroke="black" />
<circle cx="618" cy="591" r="4" fill="white" stroke="black" />
<text x="618" y="603" font-family="Verdana" font-size="8" text-anchor="middle"  dominant-baseline="middle" fill="black" > 576</text>
<circle cx="637" cy="377" r="4" fill="white" stroke="black" />
<line x1="637" y1="381" x2="637" y2="501" stroke="black" />
<line x1="631" y1="501" x2="644" y2="501" stroke="black" />
<text x="640" y="493" font-family="Verdana" font-size="8" text-anchor="middle"  dominant-baseline="middle" fill="black" > 486</text>
<circle cx="631" cy="501" r="4" fill="white" stroke="black" />
<line x1="631" y1="505" x2="631" y2="591" stroke="black" />
<circle cx="631" cy="591" r="4" fill="white" stroke="black" />
<text x="631" y="603" font-family="Verdana" font-size="8" text-anchor="middle"  dominant-baseline="middle" fill="black" > 576</text>
<circle cx="643" cy="501" r="4" fill="white" stroke="black" />
<line x1="643" y1="505" x2="643" y2="591" stroke="black" />
<circle cx="643" cy="591" r="4" fill="white" stroke="black" />
<text x="643" y="603" font-family="Verdana" font-size="8" text-anchor="middle"  dominant-baseline="middle" fill="black" > 576</text>
<circle cx="675" cy="238" r="4" fill="white" stroke="black" />
<line x1="675" y1="242" x2="675" y2="391" stroke="black" />
<line x1="662" y1="391" x2="688" y2="391" stroke="black" />
<text x="681" y="383" font-family="Verdana" font-size="8" text-anchor="middle"  dominant-baseline="middle" fill="black" > 376</text>
<circle cx="662" cy="391" r="4" fill="white" stroke="black" />
<line x1="662" y1="395" x2="662" y2="591" stroke="black" />
<circle cx="662" cy="591" r="4" fill="white" stroke="black" />
<text x="662" y="603" font-family="Verdana" font-size="8" text-anchor="middle"  dominant-baseline="middle" fill="black" > 576</text>
<circle cx="687" cy="391" r="4" fill="white" stroke="black" />
<line x1="687" y1="395" x2="687" y2="519" stroke="black" />
<line x1="681" y1="519" x2="694" y2="519" stroke="black" />
<text x="690" y="511" font-family="Verdana" font-size="8" text-anchor="middle"  dominant-baseline="middle" fill="black" > 504</text>
<circle cx="681" cy="519" r="4" fill="white" stroke="black" />
<line x1="681" y1="523" x2="681" y2="591" stroke="black" />
<circle cx="681" cy="591" r="4" fill="white" stroke="black" />
<text x="681" y="603" font-family="Verdana" font-size="8" text-anchor="middle"  dominant-baseline="middle" fill="black" > 576</text>
<circle cx="693" cy="519" r="4" fill="white" stroke="black" />
<line x1="693" y1="523" x2="693" y2="591" stroke="black" />
<circle cx="693" cy="591" r="4" fill="white" stroke="black" />
<text x="693" y="603" font-family="Verdana" font-size="8" text-anchor="middle"  dominant-baseline="middle" fill="black" > 576</text>
<circle cx="750" cy="93" r="4" fill="white" stroke="black" />
<line x1="750" y1="97" x2="750" y2="221" stroke="black" />
<line x1="725" y1="221" x2="775" y2="221" stroke="black" />
<text x="762" y="213" font-family="Verdana" font-size="8" text-anchor="middle"  dominant-baseline="middle" fill="black" > 206</text>
<circle cx="725" cy="221" r="4" fill="white" stroke="black" />
<line x1="725" y1="225" x2="725" y2="399" stroke="black" />
<line x1="721" y1="395" x2="729" y2="403" stroke="red" />
<line x1="721" y1="403" x2="729" y2="395" stroke="red" />
<text x="725" y="411" font-family="Verdana" font-size="8" text-anchor="middle"  dominant-baseline="middle" fill="black" > 384</text>
<circle cx="775" cy="221" r="4" fill="white" stroke="black" />
<line x1="775" y1="225" x2="775" y2="430" stroke="black" />
<line x1="762" y1="430" x2="788" y2="430" stroke="black" />
<text x="781" y="422" font-family="Verdana" font-size="8" text-anchor="middle"  dominant-baseline="middle" fill="black" > 415</text>
<circle cx="762" cy="430" r="4" fill="white" stroke="black" />
<line x1="762" y1="434" x2="762" y2="572" stroke="black" />
<line x1="754" y1="572" x2="771" y2="572" stroke="black" />
<text x="764" y="564" font-family="Verdana" font-size="8" text-anchor="middle"  dominant-baseline="middle" fill="black" > 557</text>
<circle cx="754" cy="572" r="4" fill="white" stroke="black" />
<line x1="754" y1="576" x2="754" y2="591" stroke="black" />
<circle cx="754" cy="591" r="4" fill="white" stroke="black" />
<text x="754" y="603" font-family="Verdana" font-size="8" text-anchor="middle"  dominant-baseline="middle" fill="black" > 576</text>
<circle cx="762" cy="572" r="4" fill="white" stroke="black" />
<line x1="762" y1="576" x2="762" y2="591" stroke="black" />
<circle cx="762" cy="591" r="4" fill="white" stroke="black" />
<text x="762" y="603" font-family="Verdana" font-size="8" text-anchor="middle"  dominant-baseline="middle" fill="black" > 576</text>
<circle cx="770" cy="572" r="4" fill="white" stroke="black" />
<line x1="770" y1="576" x2="770" y2="591" stroke="black" />
<circle cx="770" cy="591" r="4" fill="white" stroke="black" />
<text x="770" y="603" font-family="Verdana" font-size="8" text-anchor="middle"  dominant-baseline="middle" fill="black" > 576</text>
<circle cx="787" cy="430" r="4" fill="white" stroke="black" />
<line x1="787" y1="434" x2="787" y2="591" stroke="black" />
<circle cx="787" cy="591" r="4" fill="white" stroke="black" />
<text x="787" y="603" font-family="Verdana" font-size="8" text-anchor="middle"  dominant-baseline="middle" fill="black" > 576</text>
</svg>
