<?xml version="1.0" encoding="utf-8"?>
<svg xmlns="http://www.w3.org/2000/svg" version="1.1" width="2650" height="750">
<rect width="2650" height="15" x="0" y="0" fill="white" />
<rect width="2650" height="15" x="0" y="735" fill="white" />
<rect width="25" height="750" x="0" y="0" fill="white" />
<rect width="25" height="750" x="2625" y="0" fill="white" />
<rect width="2610" height="144" x="25" y="15" fill="ghostwhite" />
<rect width="2610" height="144" x="25" y="159" fill="snow" />
<rect width="2610" height="144" x="25" y="303" fill="ghostwhite" />
<rect width="2610" height="144" x="25" y="447" fill="snow" />
<rect width="2610" height="144" x="25" y="591" fill="ghostwhite" />
<text x="12" y="87" font-family="Verdana" font-size="10" text-anchor="middle"  dominant-baseline="middle" fill="red" > D0</text>
<text x="12" y="231" font-family="Verdana" font-size="10" text-anchor="middle"  dominant-baseline="middle" fill="red" > D1</text>
<text x="12" y="375" font-family="Verdana" font-size="10" text-anchor="middle"  dominant-baseline="middle" fill="red" > D2</text>
<text x="12" y="519" font-family="Verdana" font-size="10" text-anchor="middle"  dominant-baseline="middle" fill="red" > D3</text>
<text x="12" y="663" font-family="Verdana" font-size="10" text-anchor="middle"  dominant-baseline="middle" fill="red" > D4</text>
<text x="12" y="20" font-family="Verdana" font-size="10" text-anchor="middle"  dominant-baseline="middle" fill="black" > 0</text>
<text x="12" y="164" font-family="Verdana" font-size="10" text-anchor="middle"  dominant-baseline="middle" fill="black" > 144</text>
<text x="12" y="308" font-family="Verdana" font-size="10" text-anchor="middle"  dominant-baseline="middle" fill="black" > 288</text>
<text x="12" y="452" font-family="Verdana" font-size="10" text-anchor="middle"  dominant-baseline="middle" fill="black" > 432</text>
<text x="12" y="596" font-family="Verdana" font-size="10" text-anchor="middle"  dominant-baseline="middle" fill="black" > 576</text>
<text x="12" y="740" font-family="Verdana" font-size="10" text-anchor="middle"  dominant-baseline="middle" fill="black" > 720</text>
<text x="150" y="7" font-family="Verdana" font-size="7" text-anchor="middle"  dominant-baseline="middle" fill="black" > C1</text>
<circle cx="150" cy="15" r="4" fill="white" stroke="black" />
<line x1="150" y1="19" x2="150" y2="492" stroke="black" />
<line x1="50" y1="492" x2="250" y2="492" stroke="black" />
<text x="175" y="484" font-family="Verdana" font-size="8" text-anchor="middle"  dominant-baseline="middle" fill="black" > 477</text>
<circle cx="50" cy="492" r="4" fill="white" stroke="black" />
<circle cx="150" cy="492" r="4" fill="white" stroke="black" />
<line x1="50" y1="496" x2="50" y2="497" stroke="black" />
<line x1="50" y1="497" x2="100" y2="498" stroke="black" />
<line x1="150" y1="496" x2="150" y2="497" stroke="black" />
<line x1="150" y1="497" x2="100" y2="498" stroke="black" />
<text x="100" y="486" font-family="Verdana" font-size="8" text-anchor="middle"  dominant-baseline="middle" fill="black" > 483</text>
<circle cx="100" cy="498" r="4" fill="white" stroke="black" />
<line x1="100" y1="502" x2="100" y2="591" stroke="black" />
<circle cx="100" cy="591" r="4" fill="white" stroke="black" />
<text x="100" y="603" font-family="Verdana" font-size="8" text-anchor="middle"  dominant-baseline="middle" fill="black" > 576</text>
<circle cx="250" cy="492" r="4" fill="white" stroke="black" />
<line x1="250" y1="496" x2="250" y2="591" stroke="black" />
<circle cx="250" cy="591" r="4" fill="white" stroke="black" />
<text x="250" y="603" font-family="Verdana" font-size="8" text-anchor="middle"  dominant-baseline="middle" fill="black" > 576</text>
<text x="450" y="7" font-family="Verdana" font-size="7" text-anchor="middle"  dominant-baseline="middle" fill="black" > C2</text>
<circle cx="450" cy="15" r="4" fill="white" stroke="black" />
<line x1="450" y1="19" x2="450" y2="115" stroke="black" />
<line x1="350" y1="115" x2="550" y2="115" stroke="black" />
<text x="475" y="107" font-family="Verdana" font-size="8" text-anchor="middle"  dominant-baseline="middle" fill="black" > 100</text>
<circle cx="350" cy="115" r="4" fill="white" stroke="black" />
<line x1="350" y1="119" x2="350" y2="428" stroke="black" />
<line x1="346" y1="424" x2="354" y2="432" stroke="red" />
<line x1="346" y1="432" x2="354" y2="424" stroke="red" />
<text x="350" y="440" font-family="Verdana" font-size="8" text-anchor="middle"  dominant-baseline="middle" fill="black" > 413</text>
<circle cx="450" cy="115" r="4" fill="white" stroke="black" />
<circle cx="550" cy="115" r="4" fill="white" stroke="black" />
<line x1="450" y1="119" x2="450" y2="400" stroke="black" />
<line x1="450" y1="400" x2="500" y2="494" stroke="black" />
<line x1="550" y1="119" x2="550" y2="400" stroke="black" />
<line x1="550" y1="400" x2="500" y2="494" stroke="black" />
<text x="500" y="482" font-family="Verdana" font-size="8" text-anchor="middle"  dominant-baseline="middle" fill="black" > 479</text>
<circle cx="500" cy="494" r="4" fill="white" stroke="black" />
<line x1="500" y1="498" x2="500" y2="591" stroke="black" />
<circle cx="500" cy="591" r="4" fill="white" stroke="black" />
<text x="500" y="603" font-family="Verdana" font-size="8" text-anchor="middle"  dominant-baseline="middle" fill="black" > 576</text>
<text x="650" y="7" font-family="Verdana" font-size="7" text-anchor="middle"  dominant-baseline="middle" fill="black" > C3</text>
<circle cx="650" cy="15" r="4" fill="white" stroke="black" />
<line x1="650" y1="19" x2="650" y2="258" stroke="black" />
<line x1="646" y1="262" x2="650" y2="254" stroke="blue" />
<line x1="650" y1="262" x2="654" y2="254" stroke="blue" />
<text x="650" y="270" font-family="Verdana" font-size="8" text-anchor="middle"  dominant-baseline="middle" fill="black" > 243</text>
<text x="800" y="7" font-family="Verdana" font-size="7" text-anchor="middle"  dominant-baseline="middle" fill="black" > C4</text>
<circle cx="800" cy="15" r="4" fill="white" stroke="black" />
<line x1="800" y1="19" x2="800" y2="150" stroke="black" />
<line x1="750" y1="150" x2="850" y2="150" stroke="black" />
<text x="825" y="142" font-family="Verdana" font-size="8" text-anchor="middle"  dominant-baseline="middle" fill="black" > 135</text>
<circle cx="750" cy="150" r="4" fill="white" stroke="black" />
<line x1="750" y1="154" x2="750" y2="275" stroke="black" />
<line x1="716" y1="275" x2="784" y2="275" stroke="black" />
<text x="758" y="267" font-family="Verdana" font-size="8" text-anchor="middle"  dominant-baseline="middle" fill="black" > 260</text>
<circle cx="716" cy="275" r="4" fill="white" stroke="black" />
<line x1="716" y1="279" x2="716" y2="415" stroke="black" />
<line x1="712" y1="411" x2="720" y2="419" stroke="red" />
<line x1="712" y1="419" x2="720" y2="411" stroke="red" />
<text x="716" y="427" font-family="Verdana" font-size="8" text-anchor="middle"  dominant-baseline="middle" fill="black" > 400</text>
<circle cx="749" cy="275" r="4" fill="white" stroke="black" />
<circle cx="782" cy="275" r="4" fill="white" stroke="black" />
<line x1="749" y1="279" x2="749" y2="296" stroke="black" />
<line x1="749" y1="296" x2="765" y2="303" stroke="black" />
<line x1="782" y1="279" x2="782" y2="296" stroke="black" />
<line x1="782" y1="296" x2="765" y2="303" stroke="black" />
<text x="765" y="291" font-family="Verdana" font-size="8" text-anchor="middle"  dominant-baseline="middle" fill="black" > 288</text>
<circle cx="765" cy="303" r="4" fill="white" stroke="black" />
<line x1="765" y1="307" x2="765" y2="591" stroke="black" />
<circle cx="765" cy="591" r="4" fill="white" stroke="black" />
<text x="765" y="603" font-family="Verdana" font-size="8" text-anchor="middle"  dominant-baseline="middle" fill="black" > 576</text>
<circle cx="850" cy="150" r="4" fill="white" stroke="black" />
<line x1="850" y1="154" x2="850" y2="353" stroke="black" />
<line x1="816" y1="353" x2="884" y2="353" stroke="black" />
<text x="858" y="345" font-family="Verdana" font-size="8" text-anchor="middle"  dominant-baseline="middle" fill="black" > 338</text>
<circle cx="816" cy="353" r="4" fill="white" stroke="black" />
<circle cx="849" cy="353" r="4" fill="white" stroke="black" />
<circle cx="882" cy="353" r="4" fill="white" stroke="black" />
<line x1="849" y1="357" x2="849" y2="362" stroke="black" />
<line x1="849" y1="362" x2="865" y2="365" stroke="black" />
<line x1="882" y1="357" x2="882" y2="362" stroke="black" />
<line x1="882" y1="362" x2="865" y2="365" stroke="black" />
<text x="865" y="353" font-family="Verdana" font-size="8" text-anchor="middle"  dominant-baseline="middle" fill="black" > 350</text>
<circle cx="865" cy="365" r="4" fill="white" stroke="black" />
<line x1="816" y1="357" x2="816" y2="388" stroke="black" />
<line x1="816" y1="388" x2="840" y2="395" stroke="black" />
<line x1="865" y1="369" x2="865" y2="388" stroke="black" />
<line x1="865" y1="388" x2="840" y2="395" stroke="black" />
<text x="840" y="383" font-family="Verdana" font-size="8" text-anchor="middle"  dominant-baseline="middle" fill="black" > 380</text>
<circle cx="840" cy="395" r="4" fill="white" stroke="black" />
<line x1="840" y1="399" x2="840" y2="591" stroke="black" />
<circle cx="840" cy="591" r="4" fill="white" stroke="black" />
<text x="840" y="603" font-family="Verdana" font-size="8" text-anchor="middle"  dominant-baseline="middle" fill="black" > 576</text>
<text x="1000" y="7" font-family="Verdana" font-size="7" text-anchor="middle"  dominant-baseline="middle" fill="black" > C5</text>
<circle cx="1000" cy="15" r="4" fill="white" stroke="black" />
<line x1="1000" y1="19" x2="1000" y2="147" stroke="black" />
<line x1="950" y1="147" x2="1050" y2="147" stroke="black" />
<text x="1025" y="139" font-family="Verdana" font-size="8" text-anchor="middle"  dominant-baseline="middle" fill="black" > 132</text>
<circle cx="950" cy="147" r="4" fill="white" stroke="black" />
<line x1="950" y1="151" x2="950" y2="591" stroke="black" />
<circle cx="950" cy="591" r="4" fill="white" stroke="black" />
<text x="950" y="603" font-family="Verdana" font-size="8" text-anchor="middle"  dominant-baseline="middle" fill="black" > 576</text>
<circle cx="1050" cy="147" r="4" fill="white" stroke="black" />
<line x1="1050" y1="151" x2="1050" y2="591" stroke="black" />
<circle cx="1050" cy="591" r="4" fill="white" stroke="black" />
<text x="1050" y="603" font-family="Verdana" font-size="8" text-anchor="middle"  dominant-baseline="middle" fill="black" > 576</text>
<text x="1200" y="7" font-family="Verdana" font-size="7" text-anchor="middle"  dominant-baseline="middle" fill="black" > C6</text>
<circle cx="1200" cy="15" r="4" fill="white" stroke="black" />
<line x1="1200" y1="19" x2="1200" y2="147" stroke="black" />
<line x1="1150" y1="147" x2="1250" y2="147" stroke="black" />
<text x="1225" y="139" font-family="Verdana" font-size="8" text-anchor="middle"  dominant-baseline="middle" fill="black" > 132</text>
<circle cx="1150" cy="147" r="4" fill="white" stroke="black" />
<line x1="1150" y1="151" x2="1150" y2="521" stroke="black" />
<line x1="1146" y1="517" x2="1154" y2="525" stroke="red" />
<line x1="1146" y1="525" x2="1154" y2="517" stroke="red" />
<text x="1150" y="533" font-family="Verdana" font-size="8" text-anchor="middle"  dominant-baseline="middle" fill="black" > 506</text>
<circle cx="1250" cy="147" r="4" fill="white" stroke="black" />
<line x1="1250" y1="151" x2="1250" y2="591" stroke="black" />
<circle cx="1250" cy="591" r="4" fill="white" stroke="black" />
<text x="1250" y="603" font-family="Verdana" font-size="8" text-anchor="middle"  dominant-baseline="middle" fill="black" > 576</text>
<text x="1450" y="7" font-family="Verdana" font-size="7" text-anchor="middle"  dominant-baseline="middle" fill="black" > C7</text>
<circle cx="1450" cy="15" r="4" fill="white" stroke="black" />
<line x1="1450" y1="19" x2="1450" y2="441" stroke="black" />
<line x1="1350" y1="441" x2="1550" y2="441" stroke="black" />
<text x="1475" y="433" font-family="Verdana" font-size="8" text-anchor="middle"  dominant-baseline="middle" fill="black" > 426</text>
<circle cx="1350" cy="441" r="4" fill="white" stroke="black" />
<line x1="1350" y1="445" x2="1350" y2="591" stroke="black" />
<circle cx="1350" cy="591" r="4" fill="white" stroke="black" />
<text x="1350" y="603" font-family="Verdana" font-size="8" text-anchor="middle"  dominant-baseline="middle" fill="black" > 576</text>
<circle cx="1450" cy="441" r="4" fill="white" stroke="black" />
<line x1="1450" y1="445" x2="1450" y2="566" stroke="black" />
<line x1="1416" y1="566" x2="1484" y2="566" stroke="black" />
<text x="1458" y="558" font-family="Verdana" font-size="8" text-anchor="middle"  dominant-baseline="middle" fill="black" > 551</text>
<circle cx="1416" cy="566" r="4" fill="white" stroke="black" />
<line x1="1416" y1="570" x2="1416" y2="577" stroke="black" />
<line x1="1412" y1="573" x2="1420" y2="581" stroke="red" />
<line x1="1412" y1="581" x2="1420" y2="573" stroke="red" />
<text x="1416" y="589" font-family="Verdana" font-size="8" text-anchor="middle"  dominant-baseline="middle" fill="black" > 562</text>
<circle cx="1449" cy="566" r="4" fill="white" stroke="black" />
<line x1="1449" y1="570" x2="1449" y2="591" stroke="black" />
<circle cx="1449" cy="591" r="4" fill="white" stroke="black" />
<text x="1449" y="603" font-family="Verdana" font-size="8" text-anchor="middle"  dominant-baseline="middle" fill="black" > 576</text>
<circle cx="1482" cy="566" r="4" fill="white" stroke="black" />
<line x1="1482" y1="570" x2="1482" y2="591" stroke="black" />
<circle cx="1482" cy="591" r="4" fill="white" stroke="black" />
<text x="1482" y="603" font-family="Verdana" font-size="8" text-anchor="middle"  dominant-baseline="middle" fill="black" > 576</text>
<circle cx="1550" cy="441" r="4" fill="white" stroke="black" />
<line x1="1550" y1="445" x2="1550" y2="556" stroke="black" />
<line x1="1525" y1="556" x2="1575" y2="556" stroke="black" />
<text x="1562" y="548" font-family="Verdana" font-size="8" text-anchor="middle"  dominant-baseline="middle" fill="black" > 541</text>
<circle cx="1525" cy="556" r="4" fill="white" stroke="black" />
<line x1="1525" y1="560" x2="1525" y2="591" stroke="black" />
<circle cx="1525" cy="591" r="4" fill="white" stroke="black" />
<text x="1525" y="603" font-family="Verdana" font-size="8" text-anchor="middle"  dominant-baseline="middle" fill="black" > 576</text>
<circle cx="1575" cy="556" r="4" fill="white" stroke="black" />
<line x1="1575" y1="560" x2="1575" y2="591" stroke="black" />
<circle cx="1575" cy="591" r="4" fill="white" stroke="black" />
<text x="1575" y="603" font-family="Verdana" font-size="8" text-anchor="middle"  dominant-baseline="middle" fill="black" > 576</text>
<text x="1650" y="7" font-family="Verdana" font-size="7" text-anchor="middle"  dominant-baseline="middle" fill="black" > C8</text>
<circle cx="1650" cy="15" r="4" fill="white" stroke="black" />
<line x1="1650" y1="19" x2="1650" y2="465" stroke="black" />
<line x1="1646" y1="469" x2="1650" y2="461" stroke="blue" />
<line x1="1650" y1="469" x2="1654" y2="461" stroke="blue" />
<text x="1650" y="477" font-family="Verdana" font-size="8" text-anchor="middle"  dominant-baseline="middle" fill="black" > 450</text>
<text x="1800" y="7" font-family="Verdana" font-size="7" text-anchor="middle"  dominant-baseline="middle" fill="black" > C9</text>
<circle cx="1800" cy="15" r="4" fill="white" stroke="black" />
<line x1="1800" y1="19" x2="1800" y2="55" stroke="black" />
<line x1="1750" y1="55" x2="1850" y2="55" stroke="black" />
<text x="1825" y="47" font-family="Verdana" font-size="8" text-anchor="middle"  dominant-baseline="middle" fill="black" > 40</text>
<circle cx="1750" cy="55" r="4" fill="white" stroke="black" />
<line x1="1750" y1="59" x2="1750" y2="187" stroke="black" />
<line x1="1725" y1="187" x2="1775" y2="187" stroke="black" />
<text x="1762" y="179" font-family="Verdana" font-size="8" text-anchor="middle"  dominant-baseline="middle" fill="black" > 172</text>
<circle cx="1725" cy="187" r="4" fill="white" stroke="black" />
<line x1="1725" y1="191" x2="1725" y2="385" stroke="black" />
<line x1="1712" y1="385" x2="1738" y2="385" stroke="black" />
<text x="1731" y="377" font-family="Verdana" font-size="8" text-anchor="middle"  dominant-baseline="middle" fill="black" > 370</text>
<circle cx="1712" cy="385" r="4" fill="white" stroke="black" />
<line x1="1712" y1="389" x2="1712" y2="591" stroke="black" />
<circle cx="1712" cy="591" r="4" fill="white" stroke="black" />
<text x="1712" y="603" font-family="Verdana" font-size="8" text-anchor="middle"  dominant-baseline="middle" fill="black" > 576</text>
<circle cx="1737" cy="385" r="4" fill="white" stroke="black" />
<line x1="1737" y1="389" x2="1737" y2="401" stroke="black" />
<line x1="1731" y1="401" x2="1744" y2="401" stroke="black" />
<text x="1740" y="393" font-family="Verdana" font-size="8" text-anchor="middle"  dominant-baseline="middle" fill="black" > 386</text>
<circle cx="1731" cy="401" r="4" fill="white" stroke="black" />
<line x1="1731" y1="405" x2="1731" y2="591" stroke="black" />
<circle cx="1731" cy="591" r="4" fill="white" stroke="black" />
<text x="1731" y="603" font-family="Verdana" font-size="8" text-anchor="middle"  dominant-baseline="middle" fill="black" > 576</text>
<circle cx="1743" cy="401" r="4" fill="white" stroke="black" />
<line x1="1743" y1="405" x2="1743" y2="591" stroke="black" />
<circle cx="1743" cy="591" r="4" fill="white" stroke="black" />
<text x="1743" y="603" font-family="Verdana" font-size="8" text-anchor="middle"  dominant-baseline="middle" fill="black" > 576</text>
<circle cx="1775" cy="187" r="4" fill="white" stroke="black" />
<line x1="1775" y1="191" x2="1775" y2="474" stroke="black" />
<line x1="1762" y1="474" x2="1788" y2="474" stroke="black" />
<text x="1781" y="466" font-family="Verdana" font-size="8" text-anchor="middle"  dominant-baseline="middle" fill="black" > 459</text>
<circle cx="1762" cy="474" r="4" fill="white" stroke="black" />
<line x1="1762" y1="478" x2="1762" y2="491" stroke="black" />
<line x1="1756" y1="491" x2="1769" y2="491" stroke="black" />
<text x="1765" y="483" font-family="Verdana" font-size="8" text-anchor="middle"  dominant-baseline="middle" fill="black" > 476</text>
<circle cx="1756" cy="491" r="4" fill="white" stroke="black" />
<line x1="1756" y1="495" x2="1756" y2="591" stroke="black" />
<circle cx="1756" cy="591" r="4" fill="white" stroke="black" />
<text x="1756" y="603" font-family="Verdana" font-size="8" text-anchor="middle"  dominant-baseline="middle" fill="black" > 576</text>
<circle cx="1768" cy="491" r="4" fill="white" stroke="black" />
<line x1="1768" y1="495" x2="1768" y2="591" stroke="black" />
<circle cx="1768" cy="591" r="4" fill="white" stroke="black" />
<text x="1768" y="603" font-family="Verdana" font-size="8" text-anchor="middle"  dominant-baseline="middle" fill="black" > 576</text>
<circle cx="1787" cy="474" r="4" fill="white" stroke="black" />
<line x1="1787" y1="478" x2="1787" y2="591" stroke="black" />
<circle cx="1787" cy="591" r="4" fill="white" stroke="black" />
<text x="1787" y="603" font-family="Verdana" font-size="8" text-anchor="middle"  dominant-baseline="middle" fill="black" > 576</text>
<circle cx="1850" cy="55" r="4" fill="white" stroke="black" />
<line x1="1850" y1="59" x2="1850" y2="365" stroke="black" />
<line x1="1825" y1="365" x2="1875" y2="365" stroke="black" />
<text x="1862" y="357" font-family="Verdana" font-size="8" text-anchor="middle"  dominant-baseline="middle" fill="black" > 350</text>
<circle cx="1825" cy="365" r="4" fill="white" stroke="black" />
<line x1="1825" y1="369" x2="1825" y2="399" stroke="black" />
<line x1="1812" y1="399" x2="1838" y2="399" stroke="black" />
<text x="1831" y="391" font-family="Verdana" font-size="8" text-anchor="middle"  dominant-baseline="middle" fill="black" > 384</text>
<circle cx="1812" cy="399" r="4" fill="white" stroke="black" />
<line x1="1812" y1="403" x2="1812" y2="591" stroke="black" />
<circle cx="1812" cy="591" r="4" fill="white" stroke="black" />
<text x="1812" y="603" font-family="Verdana" font-size="8" text-anchor="middle"  dominant-baseline="middle" fill="black" > 576</text>
<circle cx="1837" cy="399" r="4" fill="white" stroke="black" />
<line x1="1837" y1="403" x2="1837" y2="504" stroke="black" />
<line x1="1831" y1="504" x2="1844" y2="504" stroke="black" />
<text x="1840" y="496" font-family="Verdana" font-size="8" text-anchor="middle"  dominant-baseline="middle" fill="black" > 489</text>
<circle cx="1831" cy="504" r="4" fill="white" stroke="black" />
<line x1="1831" y1="508" x2="1831" y2="591" stroke="black" />
<circle cx="1831" cy="591" r="4" fill="white" stroke="black" />
<text x="1831" y="603" font-family="Verdana" font-size="8" text-anchor="middle"  dominant-baseline="middle" fill="black" > 576</text>
<circle cx="1843" cy="504" r="4" fill="white" stroke="black" />
<line x1="1843" y1="508" x2="1843" y2="591" stroke="black" />
<circle cx="1843" cy="591" r="4" fill="white" stroke="black" />
<text x="1843" y="603" font-family="Verdana" font-size="8" text-anchor="middle"  dominant-baseline="middle" fill="black" > 576</text>
<circle cx="1875" cy="365" r="4" fill="white" stroke="black" />
<line x1="1875" y1="369" x2="1875" y2="471" stroke="black" />
<line x1="1862" y1="471" x2="1888" y2="471" stroke="black" />
<text x="1881" y="463" font-family="Verdana" font-size="8" text-anchor="middle"  dominant-baseline="middle" fill="black" > 456</text>
<circle cx="1862" cy="471" r="4" fill="white" stroke="black" />
<line x1="1862" y1="475" x2="1862" y2="591" stroke="black" />
<circle cx="1862" cy="591" r="4" fill="white" stroke="black" />
<text x="1862" y="603" font-family="Verdana" font-size="8" text-anchor="middle"  dominant-baseline="middle" fill="black" > 576</text>
<circle cx="1887" cy="471" r="4" fill="white" stroke="black" />
<line x1="1887" y1="475" x2="1887" y2="591" stroke="black" />
<circle cx="1887" cy="591" r="4" fill="white" stroke="black" />
<text x="1887" y="603" font-family="Verdana" font-size="8" text-anchor="middle"  dominant-baseline="middle" fill="black" > 576</text>
<text x="2000" y="7" font-family="Verdana" font-size="7" text-anchor="middle"  dominant-baseline="middle" fill="black" > C10</text>
<circle cx="2000" cy="15" r="4" fill="white" stroke="black" />
<line x1="2000" y1="19" x2="2000" y2="175" stroke="black" />
<line x1="1950" y1="175" x2="2050" y2="175" stroke="black" />
<text x="2025" y="167" font-family="Verdana" font-size="8" text-anchor="middle"  dominant-baseline="middle" fill="black" > 160</text>
<circle cx="1950" cy="175" r="4" fill="white" stroke="black" />
<line x1="1950" y1="179" x2="1950" y2="351" stroke="black" />
<line x1="1925" y1="351" x2="1975" y2="351" stroke="black" />
<text x="1962" y="343" font-family="Verdana" font-size="8" text-anchor="middle"  dominant-baseline="middle" fill="black" > 336</text>
<circle cx="1925" cy="351" r="4" fill="white" stroke="black" />
<line x1="1925" y1="355" x2="1925" y2="591" stroke="black" />
<circle cx="1925" cy="591" r="4" fill="white" stroke="black" />
<text x="1925" y="603" font-family="Verdana" font-size="8" text-anchor="middle"  dominant-baseline="middle" fill="black" > 576</text>
<circle cx="1975" cy="351" r="4" fill="white" stroke="black" />
<line x1="1975" y1="355" x2="1975" y2="529" stroke="black" />
<line x1="1962" y1="529" x2="1988" y2="529" stroke="black" />
<text x="1981" y="521" font-family="Verdana" font-size="8" text-anchor="middle"  dominant-baseline="middle" fill="black" > 514</text>
<circle cx="1962" cy="529" r="4" fill="white" stroke="black" />
<line x1="1962" y1="533" x2="1962" y2="591" stroke="black" />
<circle cx="1962" cy="591" r="4" fill="white" stroke="black" />
<text x="1962" y="603" font-family="Verdana" font-size="8" text-anchor="middle"  dominant-baseline="middle" fill="black" > 576</text>
<circle cx="1987" cy="529" r="4" fill="white" stroke="black" />
<line x1="1987" y1="533" x2="1987" y2="591" stroke="black" />
<circle cx="1987" cy="591" r="4" fill="white" stroke="black" />
<text x="1987" y="603" font-family="Verdana" font-size="8" text-anchor="middle"  dominant-baseline="middle" fill="black" > 576</text>
<circle cx="2050" cy="175" r="4" fill="white" stroke="black" />
<line x1="2050" y1="179" x2="2050" y2="365" stroke="black" />
<line x1="2025" y1="365" x2="2075" y2="365" stroke="black" />
<text x="2062" y="357" font-family="Verdana" font-size="8" text-anchor="middle"  dominant-baseline="middle" fill="black" > 350</text>
<circle cx="2025" cy="365" r="4" fill="white" stroke="black" />
<line x1="2025" y1="369" x2="2025" y2="591" stroke="black" />
<circle cx="2025" cy="591" r="4" fill="white" stroke="black" />
<text x="2025" y="603" font-family="Verdana" font-size="8" text-anchor="middle"  dominant-baseline="middle" fill="black" > 576</text>
<circle cx="2075" cy="365" r="4" fill="white" stroke="black" />
<line x1="2075" y1="369" x2="2075" y2="515" stroke="black" />
<line x1="2062" y1="515" x2="2088" y2="515" stroke="black" />
<text x="2081" y="507" font-family="Verdana" font-size="8" text-anchor="middle"  dominant-baseline="middle" fill="black" > 500</text>
<circle cx="2062" cy="515" r="4" fill="white" stroke="black" />
<line x1="2062" y1="519" x2="2062" y2="591" stroke="black" />
<circle cx="2062" cy="591" r="4" fill="white" stroke="black" />
<text x="2062" y="603" font-family="Verdana" font-size="8" text-anchor="middle"  dominant-baseline="middle" fill="black" > 576</text>
<circle cx="2087" cy="515" r="4" fill="white" stroke="black" />
<line x1="2087" y1="519" x2="2087" y2="591" stroke="black" />
<circle cx="2087" cy="591" r="4" fill="white" stroke="black" />
<text x="2087" y="603" font-family="Verdana" font-size="8" text-anchor="middle"  dominant-baseline="middle" fill="black" > 576</text>
<text x="2150" y="7" font-family="Verdana" font-size="7" text-anchor="middle"  dominant-baseline="middle" fill="black" > C11</text>
<circle cx="2150" cy="15" r="4" fill="white" stroke="black" />
<line x1="2150" y1="19" x2="2150" y2="591" stroke="black" />
<circle cx="2150" cy="591" r="4" fill="white" stroke="black" />
<text x="2150" y="603" font-family="Verdana" font-size="8" text-anchor="middle"  dominant-baseline="middle" fill="black" > 576</text>
<text x="2300" y="7" font-family="Verdana" font-size="7" text-anchor="middle"  dominant-baseline="middle" fill="black" > C12</text>
<circle cx="2300" cy="15" r="4" fill="white" stroke="black" />
<line x1="2300" y1="19" x2="2300" y2="230" stroke="black" />
<line x1="2250" y1="230" x2="2350" y2="230" stroke="black" />
<text x="2325" y="222" font-family="Verdana" font-size="8" text-anchor="middle"  dominant-baseline="middle" fill="black" > 215</text>
<circle cx="2250" cy="230" r="4" fill="white" stroke="black" />
<line x1="2250" y1="234" x2="2250" y2="591" stroke="black" />
<circle cx="2250" cy="591" r="4" fill="white" stroke="black" />
<text x="2250" y="603" font-family="Verdana" font-size="8" text-anchor="middle"  dominant-baseline="middle" fill="black" > 576</text>
<circle cx="2350" cy="230" r="4" fill="white" stroke="black" />
<line x1="2350" y1="234" x2="2350" y2="591" stroke="black" />
<circle cx="2350" cy="591" r="4" fill="white" stroke="black" />
<text x="2350" y="603" font-family="Verdana" font-size="8" text-anchor="middle"  dominant-baseline="middle" fill="black" > 576</text>
<text x="2500" y="7" font-family="Verdana" font-size="7" text-anchor="middle"  dominant-baseline="middle" fill="black" > C13</text>
<circle cx="2500" cy="15" r="4" fill="white" stroke="black" />
<line x1="2500" y1="19" x2="2500" y2="138" stroke="black" />
<line x1="2450" y1="138" x2="2550" y2="138" stroke="black" />
<text x="2525" y="130" font-family="Verdana" font-size="8" text-anchor="middle"  dominant-baseline="middle" fill="black" > 123</text>
<circle cx="2450" cy="138" r="4" fill="white" stroke="black" />
<line x1="2450" y1="142" x2="2450" y2="293" stroke="black" />
<line x1="2425" y1="293" x2="2475" y2="293" stroke="black" />
<text x="2462" y="285" font-family="Verdana" font-size="8" text-anchor="middle"  dominant-baseline="middle" fill="black" > 278</text>
<circle cx="2425" cy="293" r="4" fill="white" stroke="black" />
<line x1="2425" y1="297" x2="2425" y2="525" stroke="black" />
<line x1="2421" y1="521" x2="2429" y2="529" stroke="red" />
<line x1="2421" y1="529" x2="2429" y2="521" stroke="red" />
<text x="2425" y="537" font-family="Verdana" font-size="8" text-anchor="middle"  dominant-baseline="middle" fill="black" > 510</text>
<circle cx="2475" cy="293" r="4" fill="white" stroke="black" />
<line x1="2475" y1="297" x2="2475" y2="585" stroke="black" />
<line x1="2462" y1="585" x2="2488" y2="585" stroke="black" />
<text x="2481" y="577" font-family="Verdana" font-size="8" text-anchor="middle"  dominant-baseline="middle" fill="black" > 570</text>
<circle cx="2462" cy="585" r="4" fill="white" stroke="black" />
<line x1="2462" y1="589" x2="2462" y2="591" stroke="black" />
<circle cx="2462" cy="591" r="4" fill="white" stroke="black" />
<text x="2462" y="603" font-family="Verdana" font-size="8" text-anchor="middle"  dominant-baseline="middle" fill="black" > 576</text>
<circle cx="2487" cy="585" r="4" fill="white" stroke="black" />
<line x1="2487" y1="589" x2="2487" y2="591" stroke="black" />
<circle cx="2487" cy="591" r="4" fill="white" stroke="black" />
<text x="2487" y="603" font-family="Verdana" font-size="8" text-anchor="middle"  dominant-baseline="middle" fill="black" > 576</text>
<circle cx="2550" cy="138" r="4" fill="white" stroke="black" />
<line x1="2550" y1="142" x2="2550" y2="316" stroke="black" />
<line x1="2546" y1="320" x2="2550" y2="312" stroke="blue" />
<line x1="2550" y1="320" x2="2554" y2="312" stroke="blue" />
<text x="2550" y="328" font-family="Verdana" font-size="8" text-anchor="middle"  dominant-baseline="middle" fill="black" > 301</text>
</svg>
