<?xml version="1.0" encoding="utf-8"?>
<svg xmlns="http://www.w3.org/2000/svg" version="1.1" width="1250" height="750">
<rect width="1250" height="15" x="0" y="0" fill="white" />
<rect width="1250" height="15" x="0" y="735" fill="white" />
<rect width="25" height="750" x="0" y="0" fill="white" />
<rect width="25" height="750" x="1225" y="0" fill="white" />
<rect width="1210" height="144" x="25" y="15" fill="ghostwhite" />
<rect width="1210" height="144" x="25" y="159" fill="snow" />
<rect width="1210" height="144" x="25" y="303" fill="ghostwhite" />
<rect width="1210" height="144" x="25" y="447" fill="snow" />
<rect width="1210" height="144" x="25" y="591" fill="ghostwhite" />
<text x="12" y="87" font-family="Verdana" font-size="10" text-anchor="middle"  dominant-baseline="middle" fill="red" > D0</text>
<text x="12" y="231" font-family="Verdana" font-size="10" text-anchor="middle"  dominant-baseline="middle" fill="red" > D1</text>
<text x="12" y="375" font-family="Verdana" font-size="10" text-anchor="middle"  dominant-baseline="middle" fill="red" > D2</text>
<text x="12" y="519" font-family="Verdana" font-size="10" text-anchor="middle"  dominant-baseline="middle" fill="red" > D3</text>
<text x="12" y="663" font-family="Verdana" font-size="10" text-anchor="middle"  dominant-baseline="middle" fill="red" > D4</text>
<text x="12" y="20" font-family="Verdana" font-size="10" text-anchor="middle"  dominant-baseline="middle" fill="black" > 0</text>
<text x="12" y="164" font-family="Verdana" font-size="10" text-anchor="middle"  dominant-baseline="middle" fill="black" > 144</text>
<text x="12" y="308" font-family="Verdana" font-size="10" text-anchor="middle"  dominant-baseline="middle" fill="black" > 288</text>
<text x="12" y="452" font-family="Verdana" font-size="10" text-anchor="middle"  dominant-baseline="middle" fill="black" > 432</text>
<text x="12" y="596" font-family="Verdana" font-size="10" text-anchor="middle"  dominant-baseline="middle" fill="black" > 576</text>
<text x="12" y="740" font-family="Verdana" font-size="10" text-anchor="middle"  dominant-baseline="middle" fill="black" > 720</text>
<text x="50" y="7" font-family="Verdana" font-size="7" text-anchor="middle"  dominant-baseline="middle" fill="black" > C1</text>
<circle cx="50" cy="15" r="4" fill="white" stroke="black" />
<line x1="50" y1="19" x2="50" y2="285" stroke="black" />
<line x1="46" y1="281" x2="54" y2="289" stroke="red" />
<line x1="46" y1="289" x2="54" y2="281" stroke="red" />
<text x="50" y="297" font-family="Verdana" font-size="8" text-anchor="middle"  dominant-baseline="middle" fill="black" > 270</text>
<text x="200" y="7" font-family="Verdana" font-size="7" text-anchor="middle"  dominant-baseline="middle" fill="black" > C2</text>
<circle cx="200" cy="15" r="4" fill="white" stroke="black" />
<line x1="200" y1="19" x2="200" y2="124" stroke="black" />
<line x1="150" y1="124" x2="250" y2="124" stroke="black" />
<text x="225" y="116" font-family="Verdana" font-size="8" text-anchor="middle"  dominant-baseline="middle" fill="black" > 109</text>
<circle cx="150" cy="124" r="4" fill="white" stroke="black" />
<line x1="150" y1="128" x2="150" y2="282" stroke="black" />
<line x1="125" y1="282" x2="175" y2="282" stroke="black" />
<text x="162" y="274" font-family="Verdana" font-size="8" text-anchor="middle"  dominant-baseline="middle" fill="black" > 267</text>
<circle cx="125" cy="282" r="4" fill="white" stroke="black" />
<line x1="125" y1="286" x2="125" y2="591" stroke="black" />
<circle cx="125" cy="591" r="4" fill="white" stroke="black" />
<text x="125" y="603" font-family="Verdana" font-size="8" text-anchor="middle"  dominant-baseline="middle" fill="black" > 576</text>
<circle cx="175" cy="282" r="4" fill="white" stroke="black" />
<line x1="175" y1="286" x2="175" y2="441" stroke="black" />
<line x1="162" y1="441" x2="188" y2="441" stroke="black" />
<text x="181" y="433" font-family="Verdana" font-size="8" text-anchor="middle"  dominant-baseline="middle" fill="black" > 426</text>
<circle cx="162" cy="441" r="4" fill="white" stroke="black" />
<line x1="162" y1="445" x2="162" y2="591" stroke="black" />
<circle cx="162" cy="591" r="4" fill="white" stroke="black" />
<text x="162" y="603" font-family="Verdana" font-size="8" text-anchor="middle"  dominant-baseline="middle" fill="black" > 576</text>
<circle cx="187" cy="441" r="4" fill="white" stroke="black" />
<line x1="187" y1="445" x2="187" y2="591" stroke="black" />
<circle cx="187" cy="591" r="4" fill="white" stroke="black" />
<text x="187" y="603" font-family="Verdana" font-size="8" text-anchor="middle"  dominant-baseline="middle" fill="black" > 576</text>
<circle cx="250" cy="124" r="4" fill="white" stroke="black" />
<line x1="250" y1="128" x2="250" y2="265" stroke="black" />
<line x1="225" y1="265" x2="275" y2="265" stroke="black" />
<text x="262" y="257" font-family="Verdana" font-size="8" text-anchor="middle"  dominant-baseline="middle" fill="black" > 250</text>
<circle cx="225" cy="265" r="4" fill="white" stroke="black" />
<line x1="225" y1="269" x2="225" y2="417" stroke="black" />
<line x1="212" y1="417" x2="238" y2="417" stroke="black" />
<text x="231" y="409" font-family="Verdana" font-size="8" text-anchor="middle"  dominant-baseline="middle" fill="black" > 402</text>
<circle cx="212" cy="417" r="4" fill="white" stroke="black" />
<line x1="212" y1="421" x2="212" y2="560" stroke="black" />
<line x1="206" y1="560" x2="219" y2="560" stroke="black" />
<text x="215" y="552" font-family="Verdana" font-size="8" text-anchor="middle"  dominant-baseline="middle" fill="black" > 545</text>
<circle cx="206" cy="560" r="4" fill="white" stroke="black" />
<line x1="206" y1="564" x2="206" y2="591" stroke="black" />
<circle cx="206" cy="591" r="4" fill="white" stroke="black" />
<text x="206" y="603" font-family="Verdana" font-size="8" text-anchor="middle"  dominant-baseline="middle" fill="black" > 576</text>
<circle cx="218" cy="560" r="4" fill="white" stroke="black" />
<line x1="218" y1="564" x2="218" y2="591" stroke="black" />
<circle cx="218" cy="591" r="4" fill="white" stroke="black" />
<text x="218" y="603" font-family="Verdana" font-size="8" text-anchor="middle"  dominant-baseline="middle" fill="black" > 576</text>
<circle cx="237" cy="417" r="4" fill="white" stroke="black" />
<line x1="237" y1="421" x2="237" y2="591" stroke="black" />
<circle cx="237" cy="591" r="4" fill="white" stroke="black" />
<text x="237" y="603" font-family="Verdana" font-size="8" text-anchor="middle"  dominant-baseline="middle" fill="black" > 576</text>
<circle cx="275" cy="265" r="4" fill="white" stroke="black" />
<line x1="275" y1="269" x2="275" y2="407" stroke="black" />
<line x1="262" y1="407" x2="288" y2="407" stroke="black" />
<text x="281" y="399" font-family="Verdana" font-size="8" text-anchor="middle"  dominant-baseline="middle" fill="black" > 392</text>
<circle cx="262" cy="407" r="4" fill="white" stroke="black" />
<line x1="262" y1="411" x2="262" y2="591" stroke="black" />
<circle cx="262" cy="591" r="4" fill="white" stroke="black" />
<text x="262" y="603" font-family="Verdana" font-size="8" text-anchor="middle"  dominant-baseline="middle" fill="black" > 576</text>
<circle cx="287" cy="407" r="4" fill="white" stroke="black" />
<line x1="287" y1="411" x2="287" y2="525" stroke="black" />
<line x1="281" y1="525" x2="294" y2="525" stroke="black" />
<text x="290" y="517" font-family="Verdana" font-size="8" text-anchor="middle"  dominant-baseline="middle" fill="black" > 510</text>
<circle cx="281" cy="525" r="4" fill="white" stroke="black" />
<line x1="281" y1="529" x2="281" y2="591" stroke="black" />
<circle cx="281" cy="591" r="4" fill="white" stroke="black" />
<text x="281" y="603" font-family="Verdana" font-size="8" text-anchor="middle"  dominant-baseline="middle" fill="black" > 576</text>
<circle cx="293" cy="525" r="4" fill="white" stroke="black" />
<line x1="293" y1="529" x2="293" y2="591" stroke="black" />
<circle cx="293" cy="591" r="4" fill="white" stroke="black" />
<text x="293" y="603" font-family="Verdana" font-size="8" text-anchor="middle"  dominant-baseline="middle" fill="black" > 576</text>
<text x="400" y="7" font-family="Verdana" font-size="7" text-anchor="middle"  dominant-baseline="middle" fill="black" > C3</text>
<circle cx="400" cy="15" r="4" fill="white" stroke="black" />
<line x1="400" y1="19" x2="400" y2="147" stroke="black" />
<line x1="350" y1="147" x2="450" y2="147" stroke="black" />
<text x="425" y="139" font-family="Verdana" font-size="8" text-anchor="middle"  dominant-baseline="middle" fill="black" > 132</text>
<circle cx="350" cy="147" r="4" fill="white" stroke="black" />
<line x1="350" y1="151" x2="350" y2="274" stroke="black" />
<line x1="325" y1="274" x2="375" y2="274" stroke="black" />
<text x="362" y="266" font-family="Verdana" font-size="8" text-anchor="middle"  dominant-baseline="middle" fill="black" > 259</text>
<circle cx="325" cy="274" r="4" fill="white" stroke="black" />
<line x1="325" y1="278" x2="325" y2="396" stroke="black" />
<line x1="312" y1="396" x2="338" y2="396" stroke="black" />
<text x="331" y="388" font-family="Verdana" font-size="8" text-anchor="middle"  dominant-baseline="middle" fill="black" > 381</text>
<circle cx="312" cy="396" r="4" fill="white" stroke="black" />
<line x1="312" y1="400" x2="312" y2="591" stroke="black" />
<circle cx="312" cy="591" r="4" fill="white" stroke="black" />
<text x="312" y="603" font-family="Verdana" font-size="8" text-anchor="middle"  dominant-baseline="middle" fill="black" > 576</text>
<circle cx="337" cy="396" r="4" fill="white" stroke="black" />
<line x1="337" y1="400" x2="337" y2="561" stroke="black" />
<line x1="331" y1="561" x2="344" y2="561" stroke="black" />
<text x="340" y="553" font-family="Verdana" font-size="8" text-anchor="middle"  dominant-baseline="middle" fill="black" > 546</text>
<circle cx="331" cy="561" r="4" fill="white" stroke="black" />
<line x1="331" y1="565" x2="331" y2="591" stroke="black" />
<circle cx="331" cy="591" r="4" fill="white" stroke="black" />
<text x="331" y="603" font-family="Verdana" font-size="8" text-anchor="middle"  dominant-baseline="middle" fill="black" > 576</text>
<circle cx="343" cy="561" r="4" fill="white" stroke="black" />
<line x1="343" y1="565" x2="343" y2="591" stroke="black" />
<circle cx="343" cy="591" r="4" fill="white" stroke="black" />
<text x="343" y="603" font-family="Verdana" font-size="8" text-anchor="middle"  dominant-baseline="middle" fill="black" > 576</text>
<circle cx="375" cy="274" r="4" fill="white" stroke="black" />
<line x1="375" y1="278" x2="375" y2="411" stroke="black" />
<line x1="362" y1="411" x2="388" y2="411" stroke="black" />
<text x="381" y="403" font-family="Verdana" font-size="8" text-anchor="middle"  dominant-baseline="middle" fill="black" > 396</text>
<circle cx="362" cy="411" r="4" fill="white" stroke="black" />
<line x1="362" y1="415" x2="362" y2="591" stroke="black" />
<circle cx="362" cy="591" r="4" fill="white" stroke="black" />
<text x="362" y="603" font-family="Verdana" font-size="8" text-anchor="middle"  dominant-baseline="middle" fill="black" > 576</text>
<circle cx="387" cy="411" r="4" fill="white" stroke="black" />
<line x1="387" y1="415" x2="387" y2="591" stroke="black" />
<circle cx="387" cy="591" r="4" fill="white" stroke="black" />
<text x="387" y="603" font-family="Verdana" font-size="8" text-anchor="middle"  dominant-baseline="middle" fill="black" > 576</text>
<circle cx="450" cy="147" r="4" fill="white" stroke="black" />
<line x1="450" y1="151" x2="450" y2="179" stroke="black" />
<line x1="446" y1="183" x2="450" y2="175" stroke="blue" />
<line x1="450" y1="183" x2="454" y2="175" stroke="blue" />
<text x="450" y="191" font-family="Verdana" font-size="8" text-anchor="middle"  dominant-baseline="middle" fill="black" > 164</text>
<text x="600" y="7" font-family="Verdana" font-size="7" text-anchor="middle"  dominant-baseline="middle" fill="black" > C4</text>
<circle cx="600" cy="15" r="4" fill="white" stroke="black" />
<line x1="600" y1="19" x2="600" y2="104" stroke="black" />
<line x1="550" y1="104" x2="650" y2="104" stroke="black" />
<text x="625" y="96" font-family="Verdana" font-size="8" text-anchor="middle"  dominant-baseline="middle" fill="black" > 89</text>
<circle cx="550" cy="104" r="4" fill="white" stroke="black" />
<line x1="550" y1="108" x2="550" y2="248" stroke="black" />
<line x1="525" y1="248" x2="575" y2="248" stroke="black" />
<text x="562" y="240" font-family="Verdana" font-size="8" text-anchor="middle"  dominant-baseline="middle" fill="black" > 233</text>
<circle cx="525" cy="248" r="4" fill="white" stroke="black" />
<line x1="525" y1="252" x2="525" y2="357" stroke="black" />
<line x1="512" y1="357" x2="538" y2="357" stroke="black" />
<text x="531" y="349" font-family="Verdana" font-size="8" text-anchor="middle"  dominant-baseline="middle" fill="black" > 342</text>
<circle cx="512" cy="357" r="4" fill="white" stroke="black" />
<line x1="512" y1="361" x2="512" y2="496" stroke="black" />
<line x1="506" y1="496" x2="519" y2="496" stroke="black" />
<text x="515" y="488" font-family="Verdana" font-size="8" text-anchor="middle"  dominant-baseline="middle" fill="black" > 481</text>
<circle cx="506" cy="496" r="4" fill="white" stroke="black" />
<line x1="506" y1="500" x2="506" y2="591" stroke="black" />
<circle cx="506" cy="591" r="4" fill="white" stroke="black" />
<text x="506" y="603" font-family="Verdana" font-size="8" text-anchor="middle"  dominant-baseline="middle" fill="black" > 576</text>
<circle cx="518" cy="496" r="4" fill="white" stroke="black" />
<line x1="518" y1="500" x2="518" y2="591" stroke="black" />
<circle cx="518" cy="591" r="4" fill="white" stroke="black" />
<text x="518" y="603" font-family="Verdana" font-size="8" text-anchor="middle"  dominant-baseline="middle" fill="black" > 576</text>
<circle cx="537" cy="357" r="4" fill="white" stroke="black" />
<line x1="537" y1="361" x2="537" y2="591" stroke="black" />
<circle cx="537" cy="591" r="4" fill="white" stroke="black" />
<text x="537" y="603" font-family="Verdana" font-size="8" text-anchor="middle"  dominant-baseline="middle" fill="black" > 576</text>
<circle cx="575" cy="248" r="4" fill="white" stroke="black" />
<line x1="575" y1="252" x2="575" y2="374" stroke="black" />
<line x1="562" y1="374" x2="588" y2="374" stroke="black" />
<text x="581" y="366" font-family="Verdana" font-size="8" text-anchor="middle"  dominant-baseline="middle" fill="black" > 359</text>
<circle cx="562" cy="374" r="4" fill="white" stroke="black" />
<line x1="562" y1="378" x2="562" y2="591" stroke="black" />
<circle cx="562" cy="591" r="4" fill="white" stroke="black" />
<text x="562" y="603" font-family="Verdana" font-size="8" text-anchor="middle"  dominant-baseline="middle" fill="black" > 576</text>
<circle cx="587" cy="374" r="4" fill="white" stroke="black" />
<line x1="587" y1="378" x2="587" y2="490" stroke="black" />
<line x1="581" y1="490" x2="594" y2="490" stroke="black" />
<text x="590" y="482" font-family="Verdana" font-size="8" text-anchor="middle"  dominant-baseline="middle" fill="black" > 475</text>
<circle cx="581" cy="490" r="4" fill="white" stroke="black" />
<line x1="581" y1="494" x2="581" y2="591" stroke="black" />
<circle cx="581" cy="591" r="4" fill="white" stroke="black" />
<text x="581" y="603" font-family="Verdana" font-size="8" text-anchor="middle"  dominant-baseline="middle" fill="black" > 576</text>
<circle cx="593" cy="490" r="4" fill="white" stroke="black" />
<line x1="593" y1="494" x2="593" y2="491" stroke="black" />
<line x1="589" y1="487" x2="597" y2="495" stroke="red" />
<line x1="589" y1="495" x2="597" y2="487" stroke="red" />
<text x="593" y="503" font-family="Verdana" font-size="8" text-anchor="middle"  dominant-baseline="middle" fill="black" > 476</text>
<circle cx="650" cy="104" r="4" fill="white" stroke="black" />
<line x1="650" y1="108" x2="650" y2="259" stroke="black" />
<line x1="625" y1="259" x2="675" y2="259" stroke="black" />
<text x="662" y="251" font-family="Verdana" font-size="8" text-anchor="middle"  dominant-baseline="middle" fill="black" > 244</text>
<circle cx="625" cy="259" r="4" fill="white" stroke="black" />
<line x1="625" y1="263" x2="625" y2="392" stroke="black" />
<line x1="612" y1="392" x2="638" y2="392" stroke="black" />
<text x="631" y="384" font-family="Verdana" font-size="8" text-anchor="middle"  dominant-baseline="middle" fill="black" > 377</text>
<circle cx="612" cy="392" r="4" fill="white" stroke="black" />
<line x1="612" y1="396" x2="612" y2="502" stroke="black" />
<line x1="606" y1="502" x2="619" y2="502" stroke="black" />
<text x="615" y="494" font-family="Verdana" font-size="8" text-anchor="middle"  dominant-baseline="middle" fill="black" > 487</text>
<circle cx="606" cy="502" r="4" fill="white" stroke="black" />
<line x1="606" y1="506" x2="606" y2="591" stroke="black" />
<circle cx="606" cy="591" r="4" fill="white" stroke="black" />
<text x="606" y="603" font-family="Verdana" font-size="8" text-anchor="middle"  dominant-baseline="middle" fill="black" > 576</text>
<circle cx="618" cy="502" r="4" fill="white" stroke="black" />
<line x1="618" y1="506" x2="618" y2="591" stroke="black" />
<circle cx="618" cy="591" r="4" fill="white" stroke="black" />
<text x="618" y="603" font-family="Verdana" font-size="8" text-anchor="middle"  dominant-baseline="middle" fill="black" > 576</text>
<circle cx="637" cy="392" r="4" fill="white" stroke="black" />
<line x1="637" y1="396" x2="637" y2="591" stroke="black" />
<circle cx="637" cy="591" r="4" fill="white" stroke="black" />
<text x="637" y="603" font-family="Verdana" font-size="8" text-anchor="middle"  dominant-baseline="middle" fill="black" > 576</text>
<circle cx="675" cy="259" r="4" fill="white" stroke="black" />
<line x1="675" y1="263" x2="675" y2="393" stroke="black" />
<line x1="662" y1="393" x2="688" y2="393" stroke="black" />
<text x="681" y="385" font-family="Verdana" font-size="8" text-anchor="middle"  dominant-baseline="middle" fill="black" > 378</text>
<circle cx="662" cy="393" r="4" fill="white" stroke="black" />
<line x1="662" y1="397" x2="662" y2="591" stroke="black" />
<circle cx="662" cy="591" r="4" fill="white" stroke="black" />
<text x="662" y="603" font-family="Verdana" font-size="8" text-anchor="middle"  dominant-baseline="middle" fill="black" > 576</text>
<circle cx="687" cy="393" r="4" fill="white" stroke="black" />
<line x1="687" y1="397" x2="687" y2="498" stroke="black" />
<line x1="681" y1="498" x2="694" y2="498" stroke="black" />
<text x="690" y="490" font-family="Verdana" font-size="8" text-anchor="middle"  dominant-baseline="middle" fill="black" > 483</text>
<circle cx="681" cy="498" r="4" fill="white" stroke="black" />
<line x1="681" y1="502" x2="681" y2="591" stroke="black" />
<circle cx="681" cy="591" r="4" fill="white" stroke="black" />
<text x="681" y="603" font-family="Verdana" font-size="8" text-anchor="middle"  dominant-baseline="middle" fill="black" > 576</text>
<circle cx="693" cy="498" r="4" fill="white" stroke="black" />
<line x1="693" y1="502" x2="693" y2="591" stroke="black" />
<circle cx="693" cy="591" r="4" fill="white" stroke="black" />
<text x="693" y="603" font-family="Verdana" font-size="8" text-anchor="middle"  dominant-baseline="middle" fill="black" > 576</text>
<text x="800" y="7" font-family="Verdana" font-size="7" text-anchor="middle"  dominant-baseline="middle" fill="black" > C5</text>
<circle cx="800" cy="15" r="4" fill="white" stroke="black" />
<line x1="800" y1="19" x2="800" y2="83" stroke="black" />
<line x1="750" y1="83" x2="850" y2="83" stroke="black" />
<text x="825" y="75" font-family="Verdana" font-size="8" text-anchor="middle"  dominant-baseline="middle" fill="black" > 68</text>
<circle cx="750" cy="83" r="4" fill="white" stroke="black" />
<line x1="750" y1="87" x2="750" y2="199" stroke="black" />
<line x1="746" y1="195" x2="754" y2="203" stroke="red" />
<line x1="746" y1="203" x2="754" y2="195" stroke="red" />
<text x="750" y="211" font-family="Verdana" font-size="8" text-anchor="middle"  dominant-baseline="middle" fill="black" > 184</text>
<circle cx="850" cy="83" r="4" fill="white" stroke="black" />
<line x1="850" y1="87" x2="850" y2="222" stroke="black" />
<line x1="825" y1="222" x2="875" y2="222" stroke="black" />
<text x="862" y="214" font-family="Verdana" font-size="8" text-anchor="middle"  dominant-baseline="middle" fill="black" > 207</text>
<circle cx="825" cy="222" r="4" fill="white" stroke="black" />
<line x1="825" y1="226" x2="825" y2="362" stroke="black" />
<line x1="812" y1="362" x2="838" y2="362" stroke="black" />
<text x="831" y="354" font-family="Verdana" font-size="8" text-anchor="middle"  dominant-baseline="middle" fill="black" > 347</text>
<circle cx="812" cy="362" r="4" fill="white" stroke="black" />
<line x1="812" y1="366" x2="812" y2="466" stroke="black" />
<line x1="806" y1="466" x2="819" y2="466" stroke="black" />
<text x="815" y="458" font-family="Verdana" font-size="8" text-anchor="middle"  dominant-baseline="middle" fill="black" > 451</text>
<circle cx="806" cy="466" r="4" fill="white" stroke="black" />
<line x1="806" y1="470" x2="806" y2="591" stroke="black" />
<circle cx="806" cy="591" r="4" fill="white" stroke="black" />
<text x="806" y="603" font-family="Verdana" font-size="8" text-anchor="middle"  dominant-baseline="middle" fill="black" > 576</text>
<circle cx="818" cy="466" r="4" fill="white" stroke="black" />
<line x1="818" y1="470" x2="818" y2="591" stroke="black" />
<circle cx="818" cy="591" r="4" fill="white" stroke="black" />
<text x="818" y="603" font-family="Verdana" font-size="8" text-anchor="middle"  dominant-baseline="middle" fill="black" > 576</text>
<circle cx="837" cy="362" r="4" fill="white" stroke="black" />
<line x1="837" y1="366" x2="837" y2="591" stroke="black" />
<circle cx="837" cy="591" r="4" fill="white" stroke="black" />
<text x="837" y="603" font-family="Verdana" font-size="8" text-anchor="middle"  dominant-baseline="middle" fill="black" > 576</text>
<circle cx="875" cy="222" r="4" fill="white" stroke="black" />
<line x1="875" y1="226" x2="875" y2="359" stroke="black" />
<line x1="862" y1="359" x2="888" y2="359" stroke="black" />
<text x="881" y="351" font-family="Verdana" font-size="8" text-anchor="middle"  dominant-baseline="middle" fill="black" > 344</text>
<circle cx="862" cy="359" r="4" fill="white" stroke="black" />
<line x1="862" y1="363" x2="862" y2="485" stroke="black" />
<line x1="856" y1="485" x2="869" y2="485" stroke="black" />
<text x="865" y="477" font-family="Verdana" font-size="8" text-anchor="middle"  dominant-baseline="middle" fill="black" > 470</text>
<circle cx="856" cy="485" r="4" fill="white" stroke="black" />
<line x1="856" y1="489" x2="856" y2="591" stroke="black" />
<circle cx="856" cy="591" r="4" fill="white" stroke="black" />
<text x="856" y="603" font-family="Verdana" font-size="8" text-anchor="middle"  dominant-baseline="middle" fill="black" > 576</text>
<circle cx="868" cy="485" r="4" fill="white" stroke="black" />
<line x1="868" y1="489" x2="868" y2="591" stroke="black" />
<circle cx="868" cy="591" r="4" fill="white" stroke="black" />
<text x="868" y="603" font-family="Verdana" font-size="8" text-anchor="middle"  dominant-baseline="middle" fill="black" > 576</text>
<circle cx="887" cy="359" r="4" fill="white" stroke="black" />
<line x1="887" y1="363" x2="887" y2="505" stroke="black" />
<line x1="881" y1="505" x2="894" y2="505" stroke="black" />
<text x="890" y="497" font-family="Verdana" font-size="8" text-anchor="middle"  dominant-baseline="middle" fill="black" > 490</text>
<circle cx="881" cy="505" r="4" fill="white" stroke="black" />
<line x1="881" y1="509" x2="881" y2="591" stroke="black" />
<circle cx="881" cy="591" r="4" fill="white" stroke="black" />
<text x="881" y="603" font-family="Verdana" font-size="8" text-anchor="middle"  dominant-baseline="middle" fill="black" > 576</text>
<circle cx="893" cy="505" r="4" fill="white" stroke="black" />
<line x1="893" y1="509" x2="893" y2="591" stroke="black" />
<circle cx="893" cy="591" r="4" fill="white" stroke="black" />
<text x="893" y="603" font-family="Verdana" font-size="8" text-anchor="middle"  dominant-baseline="middle" fill="black" > 576</text>
<text x="1050" y="7" font-family="Verdana" font-size="7" text-anchor="middle"  dominant-baseline="middle" fill="black" > C6</text>
<circle cx="1050" cy="15" r="4" fill="white" stroke="black" />
<line x1="1050" y1="19" x2="1050" y2="129" stroke="black" />
<line x1="950" y1="129" x2="1150" y2="129" stroke="black" />
<text x="1075" y="121" font-family="Verdana" font-size="8" text-anchor="middle"  dominant-baseline="middle" fill="black" > 114</text>
<circle cx="950" cy="129" r="4" fill="white" stroke="black" />
<line x1="950" y1="133" x2="950" y2="400" stroke="black" />
<line x1="946" y1="396" x2="954" y2="404" stroke="red" />
<line x1="946" y1="404" x2="954" y2="396" stroke="red" />
<text x="950" y="412" font-family="Verdana" font-size="8" text-anchor="middle"  dominant-baseline="middle" fill="black" > 385</text>
<circle cx="1050" cy="129" r="4" fill="white" stroke="black" />
<circle cx="1150" cy="129" r="4" fill="white" stroke="black" />
<line x1="1050" y1="133" x2="1050" y2="138" stroke="black" />
<line x1="1050" y1="138" x2="1100" y2="140" stroke="black" />
<line x1="1150" y1="133" x2="1150" y2="138" stroke="black" />
<line x1="1150" y1="138" x2="1100" y2="140" stroke="black" />
<text x="1100" y="128" font-family="Verdana" font-size="8" text-anchor="middle"  dominant-baseline="middle" fill="black" > 125</text>
<circle cx="1100" cy="140" r="4" fill="white" stroke="black" />
<line x1="1100" y1="144" x2="1100" y2="309" stroke="black" />
<line x1="1075" y1="309" x2="1125" y2="309" stroke="black" />
<text x="1112" y="301" font-family="Verdana" font-size="8" text-anchor="middle"  dominant-baseline="middle" fill="black" > 294</text>
<circle cx="1075" cy="309" r="4" fill="white" stroke="black" />
<line x1="1075" y1="313" x2="1075" y2="485" stroke="black" />
<line x1="1062" y1="485" x2="1088" y2="485" stroke="black" />
<text x="1081" y="477" font-family="Verdana" font-size="8" text-anchor="middle"  dominant-baseline="middle" fill="black" > 470</text>
<circle cx="1062" cy="485" r="4" fill="white" stroke="black" />
<line x1="1062" y1="489" x2="1062" y2="591" stroke="black" />
<circle cx="1062" cy="591" r="4" fill="white" stroke="black" />
<text x="1062" y="603" font-family="Verdana" font-size="8" text-anchor="middle"  dominant-baseline="middle" fill="black" > 576</text>
<circle cx="1087" cy="485" r="4" fill="white" stroke="black" />
<line x1="1087" y1="489" x2="1087" y2="591" stroke="black" />
<circle cx="1087" cy="591" r="4" fill="white" stroke="black" />
<text x="1087" y="603" font-family="Verdana" font-size="8" text-anchor="middle"  dominant-baseline="middle" fill="black" > 576</text>
<circle cx="1125" cy="309" r="4" fill="white" stroke="black" />
<line x1="1125" y1="313" x2="1125" y2="480" stroke="black" />
<line x1="1112" y1="480" x2="1138" y2="480" stroke="black" />
<text x="1131" y="472" font-family="Verdana" font-size="8" text-anchor="middle"  dominant-baseline="middle" fill="black" > 465</text>
<circle cx="1112" cy="480" r="4" fill="white" stroke="black" />
<line x1="1112" y1="484" x2="1112" y2="591" stroke="black" />
<circle cx="1112" cy="591" r="4" fill="white" stroke="black" />
<text x="1112" y="603" font-family="Verdana" font-size="8" text-anchor="middle"  dominant-baseline="middle" fill="black" > 576</text>
<circle cx="1137" cy="480" r="4" fill="white" stroke="black" />
<line x1="1137" y1="484" x2="1137" y2="506" stroke="black" />
<line x1="1131" y1="506" x2="1144" y2="506" stroke="black" />
<text x="1140" y="498" font-family="Verdana" font-size="8" text-anchor="middle"  dominant-baseline="middle" fill="black" > 491</text>
<circle cx="1131" cy="506" r="4" fill="white" stroke="black" />
<line x1="1131" y1="510" x2="1131" y2="591" stroke="black" />
<circle cx="1131" cy="591" r="4" fill="white" stroke="black" />
<text x="1131" y="603" font-family="Verdana" font-size="8" text-anchor="middle"  dominant-baseline="middle" fill="black" > 576</text>
<circle cx="1143" cy="506" r="4" fill="white" stroke="black" />
<line x1="1143" y1="510" x2="1143" y2="591" stroke="black" />
<circle cx="1143" cy="591" r="4" fill="white" stroke="black" />
<text x="1143" y="603" font-family="Verdana" font-size="8" text-anchor="middle"  dominant-baseline="middle" fill="black" > 576</text>
</svg>
