<?xml version="1.0" encoding="utf-8"?>
<svg xmlns="http://www.w3.org/2000/svg" version="1.1" width="1050" height="750">
<rect width="1050" height="15" x="0" y="0" fill="white" />
<rect width="1050" height="15" x="0" y="735" fill="white" />
<rect width="25" height="750" x="0" y="0" fill="white" />
<rect width="25" height="750" x="1025" y="0" fill="white" />
<rect width="1010" height="144" x="25" y="15" fill="ghostwhite" />
<rect width="1010" height="144" x="25" y="159" fill="snow" />
<rect width="1010" height="144" x="25" y="303" fill="ghostwhite" />
<rect width="1010" height="144" x="25" y="447" fill="snow" />
<rect width="1010" height="144" x="25" y="591" fill="ghostwhite" />
<text x="12" y="87" font-family="Verdana" font-size="10" text-anchor="middle"  dominant-baseline="middle" fill="red" > D0</text>
<text x="12" y="231" font-family="Verdana" font-size="10" text-anchor="middle"  dominant-baseline="middle" fill="red" > D1</text>
<text x="12" y="375" font-family="Verdana" font-size="10" text-anchor="middle"  dominant-baseline="middle" fill="red" > D2</text>
<text x="12" y="519" font-family="Verdana" font-size="10" text-anchor="middle"  dominant-baseline="middle" fill="red" > D3</text>
<text x="12" y="663" font-family="Verdana" font-size="10" text-anchor="middle"  dominant-baseline="middle" fill="red" > D4</text>
<text x="12" y="20" font-family="Verdana" font-size="10" text-anchor="middle"  dominant-baseline="middle" fill="black" > 0</text>
<text x="12" y="164" font-family="Verdana" font-size="10" text-anchor="middle"  dominant-baseline="middle" fill="black" > 144</text>
<text x="12" y="308" font-family="Verdana" font-size="10" text-anchor="middle"  dominant-baseline="middle" fill="black" > 288</text>
<text x="12" y="452" font-family="Verdana" font-size="10" text-anchor="middle"  dominant-baseline="middle" fill="black" > 432</text>
<text x="12" y="596" font-family="Verdana" font-size="10" text-anchor="middle"  dominant-baseline="middle" fill="black" > 576</text>
<text x="12" y="740" font-family="Verdana" font-size="10" text-anchor="middle"  dominant-baseline="middle" fill="black" > 720</text>
<text x="100" y="7" font-family="Verdana" font-size="7" text-anchor="middle"  dominant-baseline="middle" fill="black" > C1</text>
<circle cx="100" cy="15" r="4" fill="white" stroke="black" />
<line x1="100" y1="19" x2="100" y2="208" stroke="black" />
<line x1="50" y1="208" x2="150" y2="208" stroke="black" />
<text x="125" y="200" font-family="Verdana" font-size="8" text-anchor="middle"  dominant-baseline="middle" fill="black" > 193</text>
<circle cx="50" cy="208" r="4" fill="white" stroke="black" />
<line x1="50" y1="212" x2="50" y2="387" stroke="black" />
<line x1="25" y1="387" x2="75" y2="387" stroke="black" />
<text x="62" y="379" font-family="Verdana" font-size="8" text-anchor="middle"  dominant-baseline="middle" fill="black" > 372</text>
<circle cx="25" cy="387" r="4" fill="white" stroke="black" />
<line x1="25" y1="391" x2="25" y2="524" stroke="black" />
<line x1="12" y1="524" x2="38" y2="524" stroke="black" />
<text x="31" y="516" font-family="Verdana" font-size="8" text-anchor="middle"  dominant-baseline="middle" fill="black" > 509</text>
<circle cx="12" cy="524" r="4" fill="white" stroke="black" />
<line x1="12" y1="528" x2="12" y2="591" stroke="black" />
<circle cx="12" cy="591" r="4" fill="white" stroke="black" />
<text x="12" y="603" font-family="Verdana" font-size="8" text-anchor="middle"  dominant-baseline="middle" fill="black" > 576</text>
<circle cx="37" cy="524" r="4" fill="white" stroke="black" />
<line x1="37" y1="528" x2="37" y2="591" stroke="black" />
<circle cx="37" cy="591" r="4" fill="white" stroke="black" />
<text x="37" y="603" font-family="Verdana" font-size="8" text-anchor="middle"  dominant-baseline="middle" fill="black" > 576</text>
<circle cx="75" cy="387" r="4" fill="white" stroke="black" />
<line x1="75" y1="391" x2="75" y2="513" stroke="black" />
<line x1="62" y1="513" x2="88" y2="513" stroke="black" />
<text x="81" y="505" font-family="Verdana" font-size="8" text-anchor="middle"  dominant-baseline="middle" fill="black" > 498</text>
<circle cx="62" cy="513" r="4" fill="white" stroke="black" />
<line x1="62" y1="517" x2="62" y2="591" stroke="black" />
<circle cx="62" cy="591" r="4" fill="white" stroke="black" />
<text x="62" y="603" font-family="Verdana" font-size="8" text-anchor="middle"  dominant-baseline="middle" fill="black" > 576</text>
<circle cx="87" cy="513" r="4" fill="white" stroke="black" />
<line x1="87" y1="517" x2="87" y2="591" stroke="black" />
<circle cx="87" cy="591" r="4" fill="white" stroke="black" />
<text x="87" y="603" font-family="Verdana" font-size="8" text-anchor="middle"  dominant-baseline="middle" fill="black" > 576</text>
<circle cx="150" cy="208" r="4" fill="white" stroke="black" />
<line x1="150" y1="212" x2="150" y2="386" stroke="black" />
<line x1="125" y1="386" x2="175" y2="386" stroke="black" />
<text x="162" y="378" font-family="Verdana" font-size="8" text-anchor="middle"  dominant-baseline="middle" fill="black" > 371</text>
<circle cx="125" cy="386" r="4" fill="white" stroke="black" />
<line x1="125" y1="390" x2="125" y2="501" stroke="black" />
<line x1="112" y1="501" x2="138" y2="501" stroke="black" />
<text x="131" y="493" font-family="Verdana" font-size="8" text-anchor="middle"  dominant-baseline="middle" fill="black" > 486</text>
<circle cx="112" cy="501" r="4" fill="white" stroke="black" />
<line x1="112" y1="505" x2="112" y2="591" stroke="black" />
<circle cx="112" cy="591" r="4" fill="white" stroke="black" />
<text x="112" y="603" font-family="Verdana" font-size="8" text-anchor="middle"  dominant-baseline="middle" fill="black" > 576</text>
<circle cx="137" cy="501" r="4" fill="white" stroke="black" />
<line x1="137" y1="505" x2="137" y2="591" stroke="black" />
<circle cx="137" cy="591" r="4" fill="white" stroke="black" />
<text x="137" y="603" font-family="Verdana" font-size="8" text-anchor="middle"  dominant-baseline="middle" fill="black" > 576</text>
<circle cx="175" cy="386" r="4" fill="white" stroke="black" />
<line x1="175" y1="390" x2="175" y2="497" stroke="black" />
<line x1="162" y1="497" x2="188" y2="497" stroke="black" />
<text x="181" y="489" font-family="Verdana" font-size="8" text-anchor="middle"  dominant-baseline="middle" fill="black" > 482</text>
<circle cx="162" cy="497" r="4" fill="white" stroke="black" />
<line x1="162" y1="501" x2="162" y2="591" stroke="black" />
<circle cx="162" cy="591" r="4" fill="white" stroke="black" />
<text x="162" y="603" font-family="Verdana" font-size="8" text-anchor="middle"  dominant-baseline="middle" fill="black" > 576</text>
<circle cx="187" cy="497" r="4" fill="white" stroke="black" />
<line x1="187" y1="501" x2="187" y2="566" stroke="black" />
<line x1="183" y1="562" x2="191" y2="570" stroke="red" />
<line x1="183" y1="570" x2="191" y2="562" stroke="red" />
<text x="187" y="578" font-family="Verdana" font-size="8" text-anchor="middle"  dominant-baseline="middle" fill="black" > 551</text>
<text x="300" y="7" font-family="Verdana" font-size="7" text-anchor="middle"  dominant-baseline="middle" fill="black" > C2</text>
<circle cx="300" cy="15" r="4" fill="white" stroke="black" />
<line x1="300" y1="19" x2="300" y2="174" stroke="black" />
<line x1="250" y1="174" x2="350" y2="174" stroke="black" />
<text x="325" y="166" font-family="Verdana" font-size="8" text-anchor="middle"  dominant-baseline="middle" fill="black" > 159</text>
<circle cx="250" cy="174" r="4" fill="white" stroke="black" />
<line x1="250" y1="178" x2="250" y2="294" stroke="black" />
<line x1="225" y1="294" x2="275" y2="294" stroke="black" />
<text x="262" y="286" font-family="Verdana" font-size="8" text-anchor="middle"  dominant-baseline="middle" fill="black" > 279</text>
<circle cx="225" cy="294" r="4" fill="white" stroke="black" />
<line x1="225" y1="298" x2="225" y2="399" stroke="black" />
<line x1="212" y1="399" x2="238" y2="399" stroke="black" />
<text x="231" y="391" font-family="Verdana" font-size="8" text-anchor="middle"  dominant-baseline="middle" fill="black" > 384</text>
<circle cx="212" cy="399" r="4" fill="white" stroke="black" />
<line x1="212" y1="403" x2="212" y2="509" stroke="black" />
<line x1="206" y1="509" x2="219" y2="509" stroke="black" />
<text x="215" y="501" font-family="Verdana" font-size="8" text-anchor="middle"  dominant-baseline="middle" fill="black" > 494</text>
<circle cx="206" cy="509" r="4" fill="white" stroke="black" />
<line x1="206" y1="513" x2="206" y2="591" stroke="black" />
<circle cx="206" cy="591" r="4" fill="white" stroke="black" />
<text x="206" y="603" font-family="Verdana" font-size="8" text-anchor="middle"  dominant-baseline="middle" fill="black" > 576</text>
<circle cx="218" cy="509" r="4" fill="white" stroke="black" />
<line x1="218" y1="513" x2="218" y2="591" stroke="black" />
<circle cx="218" cy="591" r="4" fill="white" stroke="black" />
<text x="218" y="603" font-family="Verdana" font-size="8" text-anchor="middle"  dominant-baseline="middle" fill="black" > 576</text>
<circle cx="237" cy="399" r="4" fill="white" stroke="black" />
<line x1="237" y1="403" x2="237" y2="514" stroke="black" />
<line x1="231" y1="514" x2="244" y2="514" stroke="black" />
<text x="240" y="506" font-family="Verdana" font-size="8" text-anchor="middle"  dominant-baseline="middle" fill="black" > 499</text>
<circle cx="231" cy="514" r="4" fill="white" stroke="black" />
<line x1="231" y1="518" x2="231" y2="591" stroke="black" />
<circle cx="231" cy="591" r="4" fill="white" stroke="black" />
<text x="231" y="603" font-family="Verdana" font-size="8" text-anchor="middle"  dominant-baseline="middle" fill="black" > 576</text>
<circle cx="243" cy="514" r="4" fill="white" stroke="black" />
<line x1="243" y1="518" x2="243" y2="591" stroke="black" />
<circle cx="243" cy="591" r="4" fill="white" stroke="black" />
<text x="243" y="603" font-family="Verdana" font-size="8" text-anchor="middle"  dominant-baseline="middle" fill="black" > 576</text>
<circle cx="275" cy="294" r="4" fill="white" stroke="black" />
<line x1="275" y1="298" x2="275" y2="399" stroke="black" />
<line x1="262" y1="399" x2="288" y2="399" stroke="black" />
<text x="281" y="391" font-family="Verdana" font-size="8" text-anchor="middle"  dominant-baseline="middle" fill="black" > 384</text>
<circle cx="262" cy="399" r="4" fill="white" stroke="black" />
<line x1="262" y1="403" x2="262" y2="555" stroke="black" />
<line x1="256" y1="555" x2="269" y2="555" stroke="black" />
<text x="265" y="547" font-family="Verdana" font-size="8" text-anchor="middle"  dominant-baseline="middle" fill="black" > 540</text>
<circle cx="256" cy="555" r="4" fill="white" stroke="black" />
<line x1="256" y1="559" x2="256" y2="591" stroke="black" />
<circle cx="256" cy="591" r="4" fill="white" stroke="black" />
<text x="256" y="603" font-family="Verdana" font-size="8" text-anchor="middle"  dominant-baseline="middle" fill="black" > 576</text>
<circle cx="268" cy="555" r="4" fill="white" stroke="black" />
<line x1="268" y1="559" x2="268" y2="591" stroke="black" />
<circle cx="268" cy="591" r="4" fill="white" stroke="black" />
<text x="268" y="603" font-family="Verdana" font-size="8" text-anchor="middle"  dominant-baseline="middle" fill="black" > 576</text>
<circle cx="287" cy="399" r="4" fill="white" stroke="black" />
<line x1="287" y1="403" x2="287" y2="523" stroke="black" />
<line x1="281" y1="523" x2="294" y2="523" stroke="black" />
<text x="290" y="515" font-family="Verdana" font-size="8" text-anchor="middle"  dominant-baseline="middle" fill="black" > 508</text>
<circle cx="281" cy="523" r="4" fill="white" stroke="black" />
<line x1="281" y1="527" x2="281" y2="591" stroke="black" />
<circle cx="281" cy="591" r="4" fill="white" stroke="black" />
<text x="281" y="603" font-family="Verdana" font-size="8" text-anchor="middle"  dominant-baseline="middle" fill="black" > 576</text>
<circle cx="293" cy="523" r="4" fill="white" stroke="black" />
<line x1="293" y1="527" x2="293" y2="591" stroke="black" />
<circle cx="293" cy="591" r="4" fill="white" stroke="black" />
<text x="293" y="603" font-family="Verdana" font-size="8" text-anchor="middle"  dominant-baseline="middle" fill="black" > 576</text>
<circle cx="350" cy="174" r="4" fill="white" stroke="black" />
<line x1="350" y1="178" x2="350" y2="322" stroke="black" />
<line x1="325" y1="322" x2="375" y2="322" stroke="black" />
<text x="362" y="314" font-family="Verdana" font-size="8" text-anchor="middle"  dominant-baseline="middle" fill="black" > 307</text>
<circle cx="325" cy="322" r="4" fill="white" stroke="black" />
<line x1="325" y1="326" x2="325" y2="454" stroke="black" />
<line x1="312" y1="454" x2="338" y2="454" stroke="black" />
<text x="331" y="446" font-family="Verdana" font-size="8" text-anchor="middle"  dominant-baseline="middle" fill="black" > 439</text>
<circle cx="312" cy="454" r="4" fill="white" stroke="black" />
<line x1="312" y1="458" x2="312" y2="562" stroke="black" />
<line x1="306" y1="562" x2="319" y2="562" stroke="black" />
<text x="315" y="554" font-family="Verdana" font-size="8" text-anchor="middle"  dominant-baseline="middle" fill="black" > 547</text>
<circle cx="306" cy="562" r="4" fill="white" stroke="black" />
<line x1="306" y1="566" x2="306" y2="591" stroke="black" />
<circle cx="306" cy="591" r="4" fill="white" stroke="black" />
<text x="306" y="603" font-family="Verdana" font-size="8" text-anchor="middle"  dominant-baseline="middle" fill="black" > 576</text>
<circle cx="318" cy="562" r="4" fill="white" stroke="black" />
<line x1="318" y1="566" x2="318" y2="591" stroke="black" />
<circle cx="318" cy="591" r="4" fill="white" stroke="black" />
<text x="318" y="603" font-family="Verdana" font-size="8" text-anchor="middle"  dominant-baseline="middle" fill="black" > 576</text>
<circle cx="337" cy="454" r="4" fill="white" stroke="black" />
<line x1="337" y1="458" x2="337" y2="566" stroke="black" />
<line x1="331" y1="566" x2="344" y2="566" stroke="black" />
<text x="340" y="558" font-family="Verdana" font-size="8" text-anchor="middle"  dominant-baseline="middle" fill="black" > 551</text>
<circle cx="331" cy="566" r="4" fill="white" stroke="black" />
<line x1="331" y1="570" x2="331" y2="591" stroke="black" />
<circle cx="331" cy="591" r="4" fill="white" stroke="black" />
<text x="331" y="603" font-family="Verdana" font-size="8" text-anchor="middle"  dominant-baseline="middle" fill="black" > 576</text>
<circle cx="343" cy="566" r="4" fill="white" stroke="black" />
<line x1="343" y1="570" x2="343" y2="591" stroke="black" />
<circle cx="343" cy="591" r="4" fill="white" stroke="black" />
<text x="343" y="603" font-family="Verdana" font-size="8" text-anchor="middle"  dominant-baseline="middle" fill="black" > 576</text>
<circle cx="375" cy="322" r="4" fill="white" stroke="black" />
<line x1="375" y1="326" x2="375" y2="453" stroke="black" />
<line x1="362" y1="453" x2="388" y2="453" stroke="black" />
<text x="381" y="445" font-family="Verdana" font-size="8" text-anchor="middle"  dominant-baseline="middle" fill="black" > 438</text>
<circle cx="362" cy="453" r="4" fill="white" stroke="black" />
<line x1="362" y1="457" x2="362" y2="591" stroke="black" />
<circle cx="362" cy="591" r="4" fill="white" stroke="black" />
<text x="362" y="603" font-family="Verdana" font-size="8" text-anchor="middle"  dominant-baseline="middle" fill="black" > 576</text>
<circle cx="387" cy="453" r="4" fill="white" stroke="black" />
<line x1="387" y1="457" x2="387" y2="591" stroke="black" />
<circle cx="387" cy="591" r="4" fill="white" stroke="black" />
<text x="387" y="603" font-family="Verdana" font-size="8" text-anchor="middle"  dominant-baseline="middle" fill="black" > 576</text>
<text x="500" y="7" font-family="Verdana" font-size="7" text-anchor="middle"  dominant-baseline="middle" fill="black" > C3</text>
<circle cx="500" cy="15" r="4" fill="white" stroke="black" />
<line x1="500" y1="19" x2="500" y2="340" stroke="black" />
<line x1="450" y1="340" x2="550" y2="340" stroke="black" />
<text x="525" y="332" font-family="Verdana" font-size="8" text-anchor="middle"  dominant-baseline="middle" fill="black" > 325</text>
<circle cx="450" cy="340" r="4" fill="white" stroke="black" />
<line x1="450" y1="344" x2="450" y2="591" stroke="black" />
<circle cx="450" cy="591" r="4" fill="white" stroke="black" />
<text x="450" y="603" font-family="Verdana" font-size="8" text-anchor="middle"  dominant-baseline="middle" fill="black" > 576</text>
<circle cx="550" cy="340" r="4" fill="white" stroke="black" />
<line x1="550" y1="344" x2="550" y2="506" stroke="black" />
<line x1="525" y1="506" x2="575" y2="506" stroke="black" />
<text x="562" y="498" font-family="Verdana" font-size="8" text-anchor="middle"  dominant-baseline="middle" fill="black" > 491</text>
<circle cx="525" cy="506" r="4" fill="white" stroke="black" />
<line x1="525" y1="510" x2="525" y2="591" stroke="black" />
<circle cx="525" cy="591" r="4" fill="white" stroke="black" />
<text x="525" y="603" font-family="Verdana" font-size="8" text-anchor="middle"  dominant-baseline="middle" fill="black" > 576</text>
<circle cx="575" cy="506" r="4" fill="white" stroke="black" />
<line x1="575" y1="510" x2="575" y2="591" stroke="black" />
<circle cx="575" cy="591" r="4" fill="white" stroke="black" />
<text x="575" y="603" font-family="Verdana" font-size="8" text-anchor="middle"  dominant-baseline="middle" fill="black" > 576</text>
<text x="700" y="7" font-family="Verdana" font-size="7" text-anchor="middle"  dominant-baseline="middle" fill="black" > C4</text>
<circle cx="700" cy="15" r="4" fill="white" stroke="black" />
<line x1="700" y1="19" x2="700" y2="132" stroke="black" />
<line x1="650" y1="132" x2="750" y2="132" stroke="black" />
<text x="725" y="124" font-family="Verdana" font-size="8" text-anchor="middle"  dominant-baseline="middle" fill="black" > 117</text>
<circle cx="650" cy="132" r="4" fill="white" stroke="black" />
<line x1="650" y1="136" x2="650" y2="316" stroke="black" />
<line x1="625" y1="316" x2="675" y2="316" stroke="black" />
<text x="662" y="308" font-family="Verdana" font-size="8" text-anchor="middle"  dominant-baseline="middle" fill="black" > 301</text>
<circle cx="625" cy="316" r="4" fill="white" stroke="black" />
<line x1="625" y1="320" x2="625" y2="444" stroke="black" />
<line x1="612" y1="444" x2="638" y2="444" stroke="black" />
<text x="631" y="436" font-family="Verdana" font-size="8" text-anchor="middle"  dominant-baseline="middle" fill="black" > 429</text>
<circle cx="612" cy="444" r="4" fill="white" stroke="black" />
<line x1="612" y1="448" x2="612" y2="591" stroke="black" />
<circle cx="612" cy="591" r="4" fill="white" stroke="black" />
<text x="612" y="603" font-family="Verdana" font-size="8" text-anchor="middle"  dominant-baseline="middle" fill="black" > 576</text>
<circle cx="637" cy="444" r="4" fill="white" stroke="black" />
<line x1="637" y1="448" x2="637" y2="557" stroke="black" />
<line x1="631" y1="557" x2="644" y2="557" stroke="black" />
<text x="640" y="549" font-family="Verdana" font-size="8" text-anchor="middle"  dominant-baseline="middle" fill="black" > 542</text>
<circle cx="631" cy="557" r="4" fill="white" stroke="black" />
<line x1="631" y1="561" x2="631" y2="591" stroke="black" />
<circle cx="631" cy="591" r="4" fill="white" stroke="black" />
<text x="631" y="603" font-family="Verdana" font-size="8" text-anchor="middle"  dominant-baseline="middle" fill="black" > 576</text>
<circle cx="643" cy="557" r="4" fill="white" stroke="black" />
<line x1="643" y1="561" x2="643" y2="591" stroke="black" />
<circle cx="643" cy="591" r="4" fill="white" stroke="black" />
<text x="643" y="603" font-family="Verdana" font-size="8" text-anchor="middle"  dominant-baseline="middle" fill="black" > 576</text>
<circle cx="675" cy="316" r="4" fill="white" stroke="black" />
<line x1="675" y1="320" x2="675" y2="442" stroke="black" />
<line x1="662" y1="442" x2="688" y2="442" stroke="black" />
<text x="681" y="434" font-family="Verdana" font-size="8" text-anchor="middle"  dominant-baseline="middle" fill="black" > 427</text>
<circle cx="662" cy="442" r="4" fill="white" stroke="black" />
<line x1="662" y1="446" x2="662" y2="566" stroke="black" />
<line x1="656" y1="566" x2="669" y2="566" stroke="black" />
<text x="665" y="558" font-family="Verdana" font-size="8" text-anchor="middle"  dominant-baseline="middle" fill="black" > 551</text>
<circle cx="656" cy="566" r="4" fill="white" stroke="black" />
<line x1="656" y1="570" x2="656" y2="591" stroke="black" />
<circle cx="656" cy="591" r="4" fill="white" stroke="black" />
<text x="656" y="603" font-family="Verdana" font-size="8" text-anchor="middle"  dominant-baseline="middle" fill="black" > 576</text>
<circle cx="668" cy="566" r="4" fill="white" stroke="black" />
<line x1="668" y1="570" x2="668" y2="591" stroke="black" />
<circle cx="668" cy="591" r="4" fill="white" stroke="black" />
<text x="668" y="603" font-family="Verdana" font-size="8" text-anchor="middle"  dominant-baseline="middle" fill="black" > 576</text>
<circle cx="687" cy="442" r="4" fill="white" stroke="black" />
<line x1="687" y1="446" x2="687" y2="554" stroke="black" />
<line x1="681" y1="554" x2="694" y2="554" stroke="black" />
<text x="690" y="546" font-family="Verdana" font-size="8" text-anchor="middle"  dominant-baseline="middle" fill="black" > 539</text>
<circle cx="681" cy="554" r="4" fill="white" stroke="black" />
<line x1="681" y1="558" x2="681" y2="591" stroke="black" />
<circle cx="681" cy="591" r="4" fill="white" stroke="black" />
<text x="681" y="603" font-family="Verdana" font-size="8" text-anchor="middle"  dominant-baseline="middle" fill="black" > 576</text>
<circle cx="693" cy="554" r="4" fill="white" stroke="black" />
<line x1="693" y1="558" x2="693" y2="591" stroke="black" />
<circle cx="693" cy="591" r="4" fill="white" stroke="black" />
<text x="693" y="603" font-family="Verdana" font-size="8" text-anchor="middle"  dominant-baseline="middle" fill="black" > 576</text>
<circle cx="750" cy="132" r="4" fill="white" stroke="black" />
<line x1="750" y1="136" x2="750" y2="326" stroke="black" />
<line x1="725" y1="326" x2="775" y2="326" stroke="black" />
<text x="762" y="318" font-family="Verdana" font-size="8" text-anchor="middle"  dominant-baseline="middle" fill="black" > 311</text>
<circle cx="725" cy="326" r="4" fill="white" stroke="black" />
<line x1="725" y1="330" x2="725" y2="444" stroke="black" />
<line x1="712" y1="444" x2="738" y2="444" stroke="black" />
<text x="731" y="436" font-family="Verdana" font-size="8" text-anchor="middle"  dominant-baseline="middle" fill="black" > 429</text>
<circle cx="712" cy="444" r="4" fill="white" stroke="black" />
<line x1="712" y1="448" x2="712" y2="566" stroke="black" />
<line x1="706" y1="566" x2="719" y2="566" stroke="black" />
<text x="715" y="558" font-family="Verdana" font-size="8" text-anchor="middle"  dominant-baseline="middle" fill="black" > 551</text>
<circle cx="706" cy="566" r="4" fill="white" stroke="black" />
<line x1="706" y1="570" x2="706" y2="591" stroke="black" />
<circle cx="706" cy="591" r="4" fill="white" stroke="black" />
<text x="706" y="603" font-family="Verdana" font-size="8" text-anchor="middle"  dominant-baseline="middle" fill="black" > 576</text>
<circle cx="718" cy="566" r="4" fill="white" stroke="black" />
<line x1="718" y1="570" x2="718" y2="591" stroke="black" />
<circle cx="718" cy="591" r="4" fill="white" stroke="black" />
<text x="718" y="603" font-family="Verdana" font-size="8" text-anchor="middle"  dominant-baseline="middle" fill="black" > 576</text>
<circle cx="737" cy="444" r="4" fill="white" stroke="black" />
<line x1="737" y1="448" x2="737" y2="567" stroke="black" />
<line x1="731" y1="567" x2="744" y2="567" stroke="black" />
<text x="740" y="559" font-family="Verdana" font-size="8" text-anchor="middle"  dominant-baseline="middle" fill="black" > 552</text>
<circle cx="731" cy="567" r="4" fill="white" stroke="black" />
<line x1="731" y1="571" x2="731" y2="591" stroke="black" />
<circle cx="731" cy="591" r="4" fill="white" stroke="black" />
<text x="731" y="603" font-family="Verdana" font-size="8" text-anchor="middle"  dominant-baseline="middle" fill="black" > 576</text>
<circle cx="743" cy="567" r="4" fill="white" stroke="black" />
<line x1="743" y1="571" x2="743" y2="591" stroke="black" />
<circle cx="743" cy="591" r="4" fill="white" stroke="black" />
<text x="743" y="603" font-family="Verdana" font-size="8" text-anchor="middle"  dominant-baseline="middle" fill="black" > 576</text>
<circle cx="775" cy="326" r="4" fill="white" stroke="black" />
<line x1="775" y1="330" x2="775" y2="442" stroke="black" />
<line x1="762" y1="442" x2="788" y2="442" stroke="black" />
<text x="781" y="434" font-family="Verdana" font-size="8" text-anchor="middle"  dominant-baseline="middle" fill="black" > 427</text>
<circle cx="762" cy="442" r="4" fill="white" stroke="black" />
<line x1="762" y1="446" x2="762" y2="567" stroke="black" />
<line x1="756" y1="567" x2="769" y2="567" stroke="black" />
<text x="765" y="559" font-family="Verdana" font-size="8" text-anchor="middle"  dominant-baseline="middle" fill="black" > 552</text>
<circle cx="756" cy="567" r="4" fill="white" stroke="black" />
<line x1="756" y1="571" x2="756" y2="591" stroke="black" />
<circle cx="756" cy="591" r="4" fill="white" stroke="black" />
<text x="756" y="603" font-family="Verdana" font-size="8" text-anchor="middle"  dominant-baseline="middle" fill="black" > 576</text>
<circle cx="768" cy="567" r="4" fill="white" stroke="black" />
<line x1="768" y1="571" x2="768" y2="591" stroke="black" />
<circle cx="768" cy="591" r="4" fill="white" stroke="black" />
<text x="768" y="603" font-family="Verdana" font-size="8" text-anchor="middle"  dominant-baseline="middle" fill="black" > 576</text>
<circle cx="787" cy="442" r="4" fill="white" stroke="black" />
<line x1="787" y1="446" x2="787" y2="562" stroke="black" />
<line x1="781" y1="562" x2="794" y2="562" stroke="black" />
<text x="790" y="554" font-family="Verdana" font-size="8" text-anchor="middle"  dominant-baseline="middle" fill="black" > 547</text>
<circle cx="781" cy="562" r="4" fill="white" stroke="black" />
<line x1="781" y1="566" x2="781" y2="591" stroke="black" />
<circle cx="781" cy="591" r="4" fill="white" stroke="black" />
<text x="781" y="603" font-family="Verdana" font-size="8" text-anchor="middle"  dominant-baseline="middle" fill="black" > 576</text>
<circle cx="793" cy="562" r="4" fill="white" stroke="black" />
<line x1="793" y1="566" x2="793" y2="591" stroke="black" />
<circle cx="793" cy="591" r="4" fill="white" stroke="black" />
<text x="793" y="603" font-family="Verdana" font-size="8" text-anchor="middle"  dominant-baseline="middle" fill="black" > 576</text>
<text x="900" y="7" font-family="Verdana" font-size="7" text-anchor="middle"  dominant-baseline="middle" fill="black" > C5</text>
<circle cx="900" cy="15" r="4" fill="white" stroke="black" />
<line x1="900" y1="19" x2="900" y2="122" stroke="black" />
<line x1="850" y1="122" x2="950" y2="122" stroke="black" />
<text x="925" y="114" font-family="Verdana" font-size="8" text-anchor="middle"  dominant-baseline="middle" fill="black" > 107</text>
<circle cx="850" cy="122" r="4" fill="white" stroke="black" />
<line x1="850" y1="126" x2="850" y2="271" stroke="black" />
<line x1="825" y1="271" x2="875" y2="271" stroke="black" />
<text x="862" y="263" font-family="Verdana" font-size="8" text-anchor="middle"  dominant-baseline="middle" fill="black" > 256</text>
<circle cx="825" cy="271" r="4" fill="white" stroke="black" />
<line x1="825" y1="275" x2="825" y2="526" stroke="black" />
<line x1="812" y1="526" x2="838" y2="526" stroke="black" />
<text x="831" y="518" font-family="Verdana" font-size="8" text-anchor="middle"  dominant-baseline="middle" fill="black" > 511</text>
<circle cx="812" cy="526" r="4" fill="white" stroke="black" />
<line x1="812" y1="530" x2="812" y2="591" stroke="black" />
<circle cx="812" cy="591" r="4" fill="white" stroke="black" />
<text x="812" y="603" font-family="Verdana" font-size="8" text-anchor="middle"  dominant-baseline="middle" fill="black" > 576</text>
<circle cx="837" cy="526" r="4" fill="white" stroke="black" />
<line x1="837" y1="530" x2="837" y2="591" stroke="black" />
<circle cx="837" cy="591" r="4" fill="white" stroke="black" />
<text x="837" y="603" font-family="Verdana" font-size="8" text-anchor="middle"  dominant-baseline="middle" fill="black" > 576</text>
<circle cx="875" cy="271" r="4" fill="white" stroke="black" />
<line x1="875" y1="275" x2="875" y2="400" stroke="black" />
<line x1="862" y1="400" x2="888" y2="400" stroke="black" />
<text x="881" y="392" font-family="Verdana" font-size="8" text-anchor="middle"  dominant-baseline="middle" fill="black" > 385</text>
<circle cx="862" cy="400" r="4" fill="white" stroke="black" />
<line x1="862" y1="404" x2="862" y2="566" stroke="black" />
<line x1="856" y1="566" x2="869" y2="566" stroke="black" />
<text x="865" y="558" font-family="Verdana" font-size="8" text-anchor="middle"  dominant-baseline="middle" fill="black" > 551</text>
<circle cx="856" cy="566" r="4" fill="white" stroke="black" />
<line x1="856" y1="570" x2="856" y2="591" stroke="black" />
<circle cx="856" cy="591" r="4" fill="white" stroke="black" />
<text x="856" y="603" font-family="Verdana" font-size="8" text-anchor="middle"  dominant-baseline="middle" fill="black" > 576</text>
<circle cx="868" cy="566" r="4" fill="white" stroke="black" />
<line x1="868" y1="570" x2="868" y2="591" stroke="black" />
<circle cx="868" cy="591" r="4" fill="white" stroke="black" />
<text x="868" y="603" font-family="Verdana" font-size="8" text-anchor="middle"  dominant-baseline="middle" fill="black" > 576</text>
<circle cx="887" cy="400" r="4" fill="white" stroke="black" />
<line x1="887" y1="404" x2="887" y2="567" stroke="black" />
<line x1="881" y1="567" x2="894" y2="567" stroke="black" />
<text x="890" y="559" font-family="Verdana" font-size="8" text-anchor="middle"  dominant-baseline="middle" fill="black" > 552</text>
<circle cx="881" cy="567" r="4" fill="white" stroke="black" />
<line x1="881" y1="571" x2="881" y2="591" stroke="black" />
<circle cx="881" cy="591" r="4" fill="white" stroke="black" />
<text x="881" y="603" font-family="Verdana" font-size="8" text-anchor="middle"  dominant-baseline="middle" fill="black" > 576</text>
<circle cx="893" cy="567" r="4" fill="white" stroke="black" />
<line x1="893" y1="571" x2="893" y2="591" stroke="black" />
<circle cx="893" cy="591" r="4" fill="white" stroke="black" />
<text x="893" y="603" font-family="Verdana" font-size="8" text-anchor="middle"  dominant-baseline="middle" fill="black" > 576</text>
<circle cx="950" cy="122" r="4" fill="white" stroke="black" />
<line x1="950" y1="126" x2="950" y2="271" stroke="black" />
<line x1="925" y1="271" x2="975" y2="271" stroke="black" />
<text x="962" y="263" font-family="Verdana" font-size="8" text-anchor="middle"  dominant-baseline="middle" fill="black" > 256</text>
<circle cx="925" cy="271" r="4" fill="white" stroke="black" />
<line x1="925" y1="275" x2="925" y2="503" stroke="black" />
<line x1="921" y1="499" x2="929" y2="507" stroke="red" />
<line x1="921" y1="507" x2="929" y2="499" stroke="red" />
<text x="925" y="515" font-family="Verdana" font-size="8" text-anchor="middle"  dominant-baseline="middle" fill="black" > 488</text>
<circle cx="975" cy="271" r="4" fill="white" stroke="black" />
<line x1="975" y1="275" x2="975" y2="396" stroke="black" />
<line x1="962" y1="396" x2="988" y2="396" stroke="black" />
<text x="981" y="388" font-family="Verdana" font-size="8" text-anchor="middle"  dominant-baseline="middle" fill="black" > 381</text>
<circle cx="962" cy="396" r="4" fill="white" stroke="black" />
<line x1="962" y1="400" x2="962" y2="591" stroke="black" />
<circle cx="962" cy="591" r="4" fill="white" stroke="black" />
<text x="962" y="603" font-family="Verdana" font-size="8" text-anchor="middle"  dominant-baseline="middle" fill="black" > 576</text>
<circle cx="987" cy="396" r="4" fill="white" stroke="black" />
<line x1="987" y1="400" x2="987" y2="537" stroke="black" />
<line x1="981" y1="537" x2="994" y2="537" stroke="black" />
<text x="990" y="529" font-family="Verdana" font-size="8" text-anchor="middle"  dominant-baseline="middle" fill="black" > 522</text>
<circle cx="981" cy="537" r="4" fill="white" stroke="black" />
<line x1="981" y1="541" x2="981" y2="591" stroke="black" />
<circle cx="981" cy="591" r="4" fill="white" stroke="black" />
<text x="981" y="603" font-family="Verdana" font-size="8" text-anchor="middle"  dominant-baseline="middle" fill="black" > 576</text>
<circle cx="993" cy="537" r="4" fill="white" stroke="black" />
<line x1="993" y1="541" x2="993" y2="591" stroke="black" />
<circle cx="993" cy="591" r="4" fill="white" stroke="black" />
<text x="993" y="603" font-family="Verdana" font-size="8" text-anchor="middle"  dominant-baseline="middle" fill="black" > 576</text>
</svg>
