<?xml version="1.0" encoding="utf-8"?>
<svg xmlns="http://www.w3.org/2000/svg" version="1.1" width="650" height="750">
<rect width="650" height="15" x="0" y="0" fill="white" />
<rect width="650" height="15" x="0" y="735" fill="white" />
<rect width="25" height="750" x="0" y="0" fill="white" />
<rect width="25" height="750" x="625" y="0" fill="white" />
<rect width="610" height="144" x="25" y="15" fill="ghostwhite" />
<rect width="610" height="144" x="25" y="159" fill="snow" />
<rect width="610" height="144" x="25" y="303" fill="ghostwhite" />
<rect width="610" height="144" x="25" y="447" fill="snow" />
<rect width="610" height="144" x="25" y="591" fill="ghostwhite" />
<text x="12" y="87" font-family="Verdana" font-size="10" text-anchor="middle"  dominant-baseline="middle" fill="red" > D0</text>
<text x="12" y="231" font-family="Verdana" font-size="10" text-anchor="middle"  dominant-baseline="middle" fill="red" > D1</text>
<text x="12" y="375" font-family="Verdana" font-size="10" text-anchor="middle"  dominant-baseline="middle" fill="red" > D2</text>
<text x="12" y="519" font-family="Verdana" font-size="10" text-anchor="middle"  dominant-baseline="middle" fill="red" > D3</text>
<text x="12" y="663" font-family="Verdana" font-size="10" text-anchor="middle"  dominant-baseline="middle" fill="red" > D4</text>
<text x="12" y="20" font-family="Verdana" font-size="10" text-anchor="middle"  dominant-baseline="middle" fill="black" > 0</text>
<text x="12" y="164" font-family="Verdana" font-size="10" text-anchor="middle"  dominant-baseline="middle" fill="black" > 144</text>
<text x="12" y="308" font-family="Verdana" font-size="10" text-anchor="middle"  dominant-baseline="middle" fill="black" > 288</text>
<text x="12" y="452" font-family="Verdana" font-size="10" text-anchor="middle"  dominant-baseline="middle" fill="black" > 432</text>
<text x="12" y="596" font-family="Verdana" font-size="10" text-anchor="middle"  dominant-baseline="middle" fill="black" > 576</text>
<text x="12" y="740" font-family="Verdana" font-size="10" text-anchor="middle"  dominant-baseline="middle" fill="black" > 720</text>
<text x="50" y="7" font-family="Verdana" font-size="7" text-anchor="middle"  dominant-baseline="middle" fill="black" > C1</text>
<circle cx="50" cy="15" r="4" fill="white" stroke="black" />
<line x1="50" y1="19" x2="50" y2="736" stroke="black" />
<circle cx="50" cy="736" r="4" fill="white" stroke="black" />
<text x="50" y="748" font-family="Verdana" font-size="8" text-anchor="middle"  dominant-baseline="middle" fill="black" > 721</text>
<text x="150" y="7" font-family="Verdana" font-size="7" text-anchor="middle"  dominant-baseline="middle" fill="black" > C2</text>
<circle cx="150" cy="15" r="4" fill="white" stroke="black" />
<line x1="150" y1="19" x2="150" y2="736" stroke="black" />
<circle cx="150" cy="736" r="4" fill="white" stroke="black" />
<text x="150" y="748" font-family="Verdana" font-size="8" text-anchor="middle"  dominant-baseline="middle" fill="black" > 721</text>
<text x="300" y="7" font-family="Verdana" font-size="7" text-anchor="middle"  dominant-baseline="middle" fill="black" > C3</text>
<circle cx="300" cy="15" r="4" fill="white" stroke="black" />
<line x1="300" y1="19" x2="300" y2="645" stroke="black" />
<line x1="250" y1="645" x2="350" y2="645" stroke="black" />
<text x="325" y="637" font-family="Verdana" font-size="8" text-anchor="middle"  dominant-baseline="middle" fill="black" > 630</text>
<circle cx="250" cy="645" r="4" fill="white" stroke="black" />
<circle cx="350" cy="645" r="4" fill="white" stroke="black" />
<line x1="250" y1="649" x2="250" y2="672" stroke="black" />
<line x1="250" y1="672" x2="300" y2="680" stroke="black" />
<line x1="350" y1="649" x2="350" y2="672" stroke="black" />
<line x1="350" y1="672" x2="300" y2="680" stroke="black" />
<text x="300" y="668" font-family="Verdana" font-size="8" text-anchor="middle"  dominant-baseline="middle" fill="black" > 665</text>
<circle cx="300" cy="680" r="4" fill="white" stroke="black" />
<line x1="300" y1="684" x2="300" y2="736" stroke="black" />
<circle cx="300" cy="736" r="4" fill="white" stroke="black" />
<text x="300" y="748" font-family="Verdana" font-size="8" text-anchor="middle"  dominant-baseline="middle" fill="black" > 721</text>
<text x="450" y="7" font-family="Verdana" font-size="7" text-anchor="middle"  dominant-baseline="middle" fill="black" > C4</text>
<circle cx="450" cy="15" r="4" fill="white" stroke="black" />
<line x1="450" y1="19" x2="450" y2="531" stroke="black" />
<line x1="446" y1="535" x2="450" y2="527" stroke="blue" />
<line x1="450" y1="535" x2="454" y2="527" stroke="blue" />
<text x="450" y="543" font-family="Verdana" font-size="8" text-anchor="middle"  dominant-baseline="middle" fill="black" > 516</text>
<text x="550" y="7" font-family="Verdana" font-size="7" text-anchor="middle"  dominant-baseline="middle" fill="black" > C5</text>
<circle cx="550" cy="15" r="4" fill="white" stroke="black" />
<line x1="550" y1="19" x2="550" y2="438" stroke="black" />
<line x1="546" y1="434" x2="554" y2="442" stroke="red" />
<line x1="546" y1="442" x2="554" y2="434" stroke="red" />
<text x="550" y="450" font-family="Verdana" font-size="8" text-anchor="middle"  dominant-baseline="middle" fill="black" > 423</text>
</svg>
