<?xml version="1.0" encoding="utf-8"?>
<svg xmlns="http://www.w3.org/2000/svg" version="1.1" width="1750" height="750">
<rect width="1750" height="15" x="0" y="0" fill="white" />
<rect width="1750" height="15" x="0" y="735" fill="white" />
<rect width="25" height="750" x="0" y="0" fill="white" />
<rect width="25" height="750" x="1725" y="0" fill="white" />
<rect width="1710" height="144" x="25" y="15" fill="ghostwhite" />
<rect width="1710" height="144" x="25" y="159" fill="snow" />
<rect width="1710" height="144" x="25" y="303" fill="ghostwhite" />
<rect width="1710" height="144" x="25" y="447" fill="snow" />
<rect width="1710" height="144" x="25" y="591" fill="ghostwhite" />
<text x="12" y="87" font-family="Verdana" font-size="10" text-anchor="middle"  dominant-baseline="middle" fill="red" > D0</text>
<text x="12" y="231" font-family="Verdana" font-size="10" text-anchor="middle"  dominant-baseline="middle" fill="red" > D1</text>
<text x="12" y="375" font-family="Verdana" font-size="10" text-anchor="middle"  dominant-baseline="middle" fill="red" > D2</text>
<text x="12" y="519" font-family="Verdana" font-size="10" text-anchor="middle"  dominant-baseline="middle" fill="red" > D3</text>
<text x="12" y="663" font-family="Verdana" font-size="10" text-anchor="middle"  dominant-baseline="middle" fill="red" > D4</text>
<text x="12" y="20" font-family="Verdana" font-size="10" text-anchor="middle"  dominant-baseline="middle" fill="black" > 0</text>
<text x="12" y="164" font-family="Verdana" font-size="10" text-anchor="middle"  dominant-baseline="middle" fill="black" > 144</text>
<text x="12" y="308" font-family="Verdana" font-size="10" text-anchor="middle"  dominant-baseline="middle" fill="black" > 288</text>
<text x="12" y="452" font-family="Verdana" font-size="10" text-anchor="middle"  dominant-baseline="middle" fill="black" > 432</text>
<text x="12" y="596" font-family="Verdana" font-size="10" text-anchor="middle"  dominant-baseline="middle" fill="black" > 576</text>
<text x="12" y="740" font-family="Verdana" font-size="10" text-anchor="middle"  dominant-baseline="middle" fill="black" > 720</text>
<text x="50" y="7" font-family="Verdana" font-size="7" text-anchor="middle"  dominant-baseline="middle" fill="black" > C1</text>
<circle cx="50" cy="15" r="4" fill="white" stroke="black" />
<line x1="50" y1="19" x2="50" y2="210" stroke="black" />
<line x1="46" y1="214" x2="50" y2="206" stroke="blue" />
<line x1="50" y1="214" x2="54" y2="206" stroke="blue" />
<text x="50" y="222" font-family="Verdana" font-size="8" text-anchor="middle"  dominant-baseline="middle" fill="black" > 195</text>
<text x="150" y="7" font-family="Verdana" font-size="7" text-anchor="middle"  dominant-baseline="middle" fill="black" > C2</text>
<circle cx="150" cy="15" r="4" fill="white" stroke="black" />
<line x1="150" y1="19" x2="150" y2="391" stroke="black" />
<line x1="146" y1="395" x2="150" y2="387" stroke="blue" />
<line x1="150" y1="395" x2="154" y2="387" stroke="blue" />
<text x="150" y="403" font-family="Verdana" font-size="8" text-anchor="middle"  dominant-baseline="middle" fill="black" > 376</text>
<text x="250" y="7" font-family="Verdana" font-size="7" text-anchor="middle"  dominant-baseline="middle" fill="black" > C3</text>
<circle cx="250" cy="15" r="4" fill="white" stroke="black" />
<line x1="250" y1="19" x2="250" y2="564" stroke="black" />
<line x1="246" y1="568" x2="250" y2="560" stroke="blue" />
<line x1="250" y1="568" x2="254" y2="560" stroke="blue" />
<text x="250" y="576" font-family="Verdana" font-size="8" text-anchor="middle"  dominant-baseline="middle" fill="black" > 549</text>
<text x="450" y="7" font-family="Verdana" font-size="7" text-anchor="middle"  dominant-baseline="middle" fill="black" > C4</text>
<circle cx="450" cy="15" r="4" fill="white" stroke="black" />
<line x1="450" y1="19" x2="450" y2="505" stroke="black" />
<line x1="350" y1="505" x2="550" y2="505" stroke="black" />
<text x="475" y="497" font-family="Verdana" font-size="8" text-anchor="middle"  dominant-baseline="middle" fill="black" > 490</text>
<circle cx="350" cy="505" r="4" fill="white" stroke="black" />
<circle cx="450" cy="505" r="4" fill="white" stroke="black" />
<line x1="350" y1="509" x2="350" y2="513" stroke="black" />
<line x1="350" y1="513" x2="400" y2="515" stroke="black" />
<line x1="450" y1="509" x2="450" y2="513" stroke="black" />
<line x1="450" y1="513" x2="400" y2="515" stroke="black" />
<text x="400" y="503" font-family="Verdana" font-size="8" text-anchor="middle"  dominant-baseline="middle" fill="black" > 500</text>
<circle cx="400" cy="515" r="4" fill="white" stroke="black" />
<circle cx="550" cy="505" r="4" fill="white" stroke="black" />
<line x1="400" y1="519" x2="400" y2="583" stroke="black" />
<line x1="400" y1="583" x2="475" y2="605" stroke="black" />
<line x1="550" y1="509" x2="550" y2="583" stroke="black" />
<line x1="550" y1="583" x2="475" y2="605" stroke="black" />
<text x="475" y="593" font-family="Verdana" font-size="8" text-anchor="middle"  dominant-baseline="middle" fill="black" > 590</text>
<circle cx="475" cy="605" r="4" fill="white" stroke="black" />
<line x1="475" y1="609" x2="475" y2="685" stroke="black" />
<line x1="471" y1="681" x2="479" y2="689" stroke="red" />
<line x1="471" y1="689" x2="479" y2="681" stroke="red" />
<text x="475" y="697" font-family="Verdana" font-size="8" text-anchor="middle"  dominant-baseline="middle" fill="black" > 670</text>
<text x="750" y="7" font-family="Verdana" font-size="7" text-anchor="middle"  dominant-baseline="middle" fill="black" > C5</text>
<circle cx="750" cy="15" r="4" fill="white" stroke="black" />
<line x1="750" y1="19" x2="750" y2="201" stroke="black" />
<line x1="650" y1="201" x2="850" y2="201" stroke="black" />
<text x="775" y="193" font-family="Verdana" font-size="8" text-anchor="middle"  dominant-baseline="middle" fill="black" > 186</text>
<circle cx="650" cy="201" r="4" fill="white" stroke="black" />
<circle cx="750" cy="201" r="4" fill="white" stroke="black" />
<line x1="650" y1="205" x2="650" y2="221" stroke="black" />
<line x1="650" y1="221" x2="700" y2="227" stroke="black" />
<line x1="750" y1="205" x2="750" y2="221" stroke="black" />
<line x1="750" y1="221" x2="700" y2="227" stroke="black" />
<text x="700" y="215" font-family="Verdana" font-size="8" text-anchor="middle"  dominant-baseline="middle" fill="black" > 212</text>
<circle cx="700" cy="227" r="4" fill="white" stroke="black" />
<line x1="700" y1="231" x2="700" y2="628" stroke="black" />
<line x1="696" y1="624" x2="704" y2="632" stroke="red" />
<line x1="696" y1="632" x2="704" y2="624" stroke="red" />
<text x="700" y="640" font-family="Verdana" font-size="8" text-anchor="middle"  dominant-baseline="middle" fill="black" > 613</text>
<circle cx="850" cy="201" r="4" fill="white" stroke="black" />
<line x1="850" y1="205" x2="850" y2="295" stroke="black" />
<line x1="825" y1="295" x2="875" y2="295" stroke="black" />
<text x="862" y="287" font-family="Verdana" font-size="8" text-anchor="middle"  dominant-baseline="middle" fill="black" > 280</text>
<circle cx="825" cy="295" r="4" fill="white" stroke="black" />
<line x1="825" y1="299" x2="825" y2="730" stroke="black" />
<line x1="821" y1="726" x2="829" y2="734" stroke="red" />
<line x1="821" y1="734" x2="829" y2="726" stroke="red" />
<text x="825" y="742" font-family="Verdana" font-size="8" text-anchor="middle"  dominant-baseline="middle" fill="black" > 715</text>
<circle cx="875" cy="295" r="4" fill="white" stroke="black" />
<line x1="875" y1="299" x2="875" y2="735" stroke="black" />
<line x1="871" y1="731" x2="879" y2="739" stroke="red" />
<line x1="871" y1="739" x2="879" y2="731" stroke="red" />
<text x="875" y="747" font-family="Verdana" font-size="8" text-anchor="middle"  dominant-baseline="middle" fill="black" > 720</text>
<text x="950" y="7" font-family="Verdana" font-size="7" text-anchor="middle"  dominant-baseline="middle" fill="black" > C6</text>
<circle cx="950" cy="15" r="4" fill="white" stroke="black" />
<line x1="950" y1="19" x2="950" y2="466" stroke="black" />
<line x1="946" y1="470" x2="950" y2="462" stroke="blue" />
<line x1="950" y1="470" x2="954" y2="462" stroke="blue" />
<text x="950" y="478" font-family="Verdana" font-size="8" text-anchor="middle"  dominant-baseline="middle" fill="black" > 451</text>
<text x="1050" y="7" font-family="Verdana" font-size="7" text-anchor="middle"  dominant-baseline="middle" fill="black" > C7</text>
<circle cx="1050" cy="15" r="4" fill="white" stroke="black" />
<line x1="1050" y1="19" x2="1050" y2="364" stroke="black" />
<line x1="1046" y1="360" x2="1054" y2="368" stroke="red" />
<line x1="1046" y1="368" x2="1054" y2="360" stroke="red" />
<text x="1050" y="376" font-family="Verdana" font-size="8" text-anchor="middle"  dominant-baseline="middle" fill="black" > 349</text>
<text x="1250" y="7" font-family="Verdana" font-size="7" text-anchor="middle"  dominant-baseline="middle" fill="black" > C8</text>
<circle cx="1250" cy="15" r="4" fill="white" stroke="black" />
<line x1="1250" y1="19" x2="1250" y2="160" stroke="black" />
<line x1="1150" y1="160" x2="1350" y2="160" stroke="black" />
<text x="1275" y="152" font-family="Verdana" font-size="8" text-anchor="middle"  dominant-baseline="middle" fill="black" > 145</text>
<circle cx="1150" cy="160" r="4" fill="white" stroke="black" />
<line x1="1150" y1="164" x2="1150" y2="487" stroke="black" />
<line x1="1146" y1="483" x2="1154" y2="491" stroke="red" />
<line x1="1146" y1="491" x2="1154" y2="483" stroke="red" />
<text x="1150" y="499" font-family="Verdana" font-size="8" text-anchor="middle"  dominant-baseline="middle" fill="black" > 472</text>
<circle cx="1250" cy="160" r="4" fill="white" stroke="black" />
<line x1="1250" y1="164" x2="1250" y2="450" stroke="black" />
<line x1="1246" y1="446" x2="1254" y2="454" stroke="red" />
<line x1="1246" y1="454" x2="1254" y2="446" stroke="red" />
<text x="1250" y="462" font-family="Verdana" font-size="8" text-anchor="middle"  dominant-baseline="middle" fill="black" > 435</text>
<circle cx="1350" cy="160" r="4" fill="white" stroke="black" />
<line x1="1350" y1="164" x2="1350" y2="268" stroke="black" />
<line x1="1346" y1="264" x2="1354" y2="272" stroke="red" />
<line x1="1346" y1="272" x2="1354" y2="264" stroke="red" />
<text x="1350" y="280" font-family="Verdana" font-size="8" text-anchor="middle"  dominant-baseline="middle" fill="black" > 253</text>
<text x="1550" y="7" font-family="Verdana" font-size="7" text-anchor="middle"  dominant-baseline="middle" fill="black" > C9</text>
<circle cx="1550" cy="15" r="4" fill="white" stroke="black" />
<line x1="1550" y1="19" x2="1550" y2="451" stroke="black" />
<line x1="1450" y1="451" x2="1650" y2="451" stroke="black" />
<text x="1575" y="443" font-family="Verdana" font-size="8" text-anchor="middle"  dominant-baseline="middle" fill="black" > 436</text>
<circle cx="1450" cy="451" r="4" fill="white" stroke="black" />
<circle cx="1550" cy="451" r="4" fill="white" stroke="black" />
<line x1="1450" y1="455" x2="1450" y2="466" stroke="black" />
<line x1="1450" y1="466" x2="1500" y2="471" stroke="black" />
<line x1="1550" y1="455" x2="1550" y2="466" stroke="black" />
<line x1="1550" y1="466" x2="1500" y2="471" stroke="black" />
<text x="1500" y="459" font-family="Verdana" font-size="8" text-anchor="middle"  dominant-baseline="middle" fill="black" > 456</text>
<circle cx="1500" cy="471" r="4" fill="white" stroke="black" />
<line x1="1500" y1="475" x2="1500" y2="736" stroke="black" />
<circle cx="1500" cy="736" r="4" fill="white" stroke="black" />
<text x="1500" y="748" font-family="Verdana" font-size="8" text-anchor="middle"  dominant-baseline="middle" fill="black" > 721</text>
<circle cx="1650" cy="451" r="4" fill="white" stroke="black" />
<line x1="1650" y1="455" x2="1650" y2="736" stroke="black" />
<circle cx="1650" cy="736" r="4" fill="white" stroke="black" />
<text x="1650" y="748" font-family="Verdana" font-size="8" text-anchor="middle"  dominant-baseline="middle" fill="black" > 721</text>
</svg>
