<?xml version="1.0" encoding="utf-8"?>
<svg xmlns="http://www.w3.org/2000/svg" version="1.1" width="1450" height="750">
<rect width="1450" height="15" x="0" y="0" fill="white" />
<rect width="1450" height="15" x="0" y="735" fill="white" />
<rect width="25" height="750" x="0" y="0" fill="white" />
<rect width="25" height="750" x="1425" y="0" fill="white" />
<rect width="1410" height="144" x="25" y="15" fill="ghostwhite" />
<rect width="1410" height="144" x="25" y="159" fill="snow" />
<rect width="1410" height="144" x="25" y="303" fill="ghostwhite" />
<rect width="1410" height="144" x="25" y="447" fill="snow" />
<rect width="1410" height="144" x="25" y="591" fill="ghostwhite" />
<text x="12" y="87" font-family="Verdana" font-size="10" text-anchor="middle"  dominant-baseline="middle" fill="red" > D0</text>
<text x="12" y="231" font-family="Verdana" font-size="10" text-anchor="middle"  dominant-baseline="middle" fill="red" > D1</text>
<text x="12" y="375" font-family="Verdana" font-size="10" text-anchor="middle"  dominant-baseline="middle" fill="red" > D2</text>
<text x="12" y="519" font-family="Verdana" font-size="10" text-anchor="middle"  dominant-baseline="middle" fill="red" > D3</text>
<text x="12" y="663" font-family="Verdana" font-size="10" text-anchor="middle"  dominant-baseline="middle" fill="red" > D4</text>
<text x="12" y="20" font-family="Verdana" font-size="10" text-anchor="middle"  dominant-baseline="middle" fill="black" > 0</text>
<text x="12" y="164" font-family="Verdana" font-size="10" text-anchor="middle"  dominant-baseline="middle" fill="black" > 144</text>
<text x="12" y="308" font-family="Verdana" font-size="10" text-anchor="middle"  dominant-baseline="middle" fill="black" > 288</text>
<text x="12" y="452" font-family="Verdana" font-size="10" text-anchor="middle"  dominant-baseline="middle" fill="black" > 432</text>
<text x="12" y="596" font-family="Verdana" font-size="10" text-anchor="middle"  dominant-baseline="middle" fill="black" > 576</text>
<text x="12" y="740" font-family="Verdana" font-size="10" text-anchor="middle"  dominant-baseline="middle" fill="black" > 720</text>
<text x="150" y="7" font-family="Verdana" font-size="7" text-anchor="middle"  dominant-baseline="middle" fill="black" > C1</text>
<circle cx="150" cy="15" r="4" fill="white" stroke="black" />
<line x1="150" y1="19" x2="150" y2="508" stroke="black" />
<line x1="50" y1="508" x2="250" y2="508" stroke="black" />
<text x="175" y="500" font-family="Verdana" font-size="8" text-anchor="middle"  dominant-baseline="middle" fill="black" > 493</text>
<circle cx="50" cy="508" r="4" fill="white" stroke="black" />
<circle cx="150" cy="508" r="4" fill="white" stroke="black" />
<circle cx="250" cy="508" r="4" fill="white" stroke="black" />
<line x1="50" y1="512" x2="50" y2="525" stroke="black" />
<line x1="50" y1="525" x2="150" y2="530" stroke="black" />
<line x1="150" y1="512" x2="150" y2="525" stroke="black" />
<line x1="150" y1="525" x2="150" y2="530" stroke="black" />
<line x1="250" y1="512" x2="250" y2="525" stroke="black" />
<line x1="250" y1="525" x2="150" y2="530" stroke="black" />
<text x="150" y="518" font-family="Verdana" font-size="8" text-anchor="middle"  dominant-baseline="middle" fill="black" > 515</text>
<circle cx="150" cy="530" r="4" fill="white" stroke="black" />
<line x1="150" y1="534" x2="150" y2="612" stroke="black" />
<line x1="146" y1="608" x2="154" y2="616" stroke="red" />
<line x1="146" y1="616" x2="154" y2="608" stroke="red" />
<text x="150" y="624" font-family="Verdana" font-size="8" text-anchor="middle"  dominant-baseline="middle" fill="black" > 597</text>
<text x="400" y="7" font-family="Verdana" font-size="7" text-anchor="middle"  dominant-baseline="middle" fill="black" > C2</text>
<circle cx="400" cy="15" r="4" fill="white" stroke="black" />
<line x1="400" y1="19" x2="400" y2="410" stroke="black" />
<line x1="350" y1="410" x2="450" y2="410" stroke="black" />
<text x="425" y="402" font-family="Verdana" font-size="8" text-anchor="middle"  dominant-baseline="middle" fill="black" > 395</text>
<circle cx="350" cy="410" r="4" fill="white" stroke="black" />
<circle cx="450" cy="410" r="4" fill="white" stroke="black" />
<line x1="350" y1="414" x2="350" y2="444" stroke="black" />
<line x1="350" y1="444" x2="400" y2="455" stroke="black" />
<line x1="450" y1="414" x2="450" y2="444" stroke="black" />
<line x1="450" y1="444" x2="400" y2="455" stroke="black" />
<text x="400" y="443" font-family="Verdana" font-size="8" text-anchor="middle"  dominant-baseline="middle" fill="black" > 440</text>
<circle cx="400" cy="455" r="4" fill="white" stroke="black" />
<line x1="400" y1="459" x2="400" y2="530" stroke="black" />
<line x1="396" y1="526" x2="404" y2="534" stroke="red" />
<line x1="396" y1="534" x2="404" y2="526" stroke="red" />
<text x="400" y="542" font-family="Verdana" font-size="8" text-anchor="middle"  dominant-baseline="middle" fill="black" > 515</text>
<text x="650" y="7" font-family="Verdana" font-size="7" text-anchor="middle"  dominant-baseline="middle" fill="black" > C3</text>
<circle cx="650" cy="15" r="4" fill="white" stroke="black" />
<line x1="650" y1="19" x2="650" y2="700" stroke="black" />
<line x1="550" y1="700" x2="750" y2="700" stroke="black" />
<text x="675" y="692" font-family="Verdana" font-size="8" text-anchor="middle"  dominant-baseline="middle" fill="black" > 685</text>
<circle cx="550" cy="700" r="4" fill="white" stroke="black" />
<circle cx="650" cy="700" r="4" fill="white" stroke="black" />
<circle cx="750" cy="700" r="4" fill="white" stroke="black" />
<line x1="550" y1="704" x2="550" y2="725" stroke="black" />
<line x1="550" y1="725" x2="650" y2="733" stroke="black" />
<line x1="650" y1="704" x2="650" y2="725" stroke="black" />
<line x1="650" y1="725" x2="650" y2="733" stroke="black" />
<line x1="750" y1="704" x2="750" y2="725" stroke="black" />
<line x1="750" y1="725" x2="650" y2="733" stroke="black" />
<text x="650" y="721" font-family="Verdana" font-size="8" text-anchor="middle"  dominant-baseline="middle" fill="black" > 718</text>
<circle cx="650" cy="733" r="4" fill="white" stroke="black" />
<line x1="650" y1="737" x2="650" y2="736" stroke="black" />
<circle cx="650" cy="736" r="4" fill="white" stroke="black" />
<text x="650" y="748" font-family="Verdana" font-size="8" text-anchor="middle"  dominant-baseline="middle" fill="black" > 721</text>
<text x="850" y="7" font-family="Verdana" font-size="7" text-anchor="middle"  dominant-baseline="middle" fill="black" > C4</text>
<circle cx="850" cy="15" r="4" fill="white" stroke="black" />
<line x1="850" y1="19" x2="850" y2="387" stroke="black" />
<line x1="846" y1="383" x2="854" y2="391" stroke="red" />
<line x1="846" y1="391" x2="854" y2="383" stroke="red" />
<text x="850" y="399" font-family="Verdana" font-size="8" text-anchor="middle"  dominant-baseline="middle" fill="black" > 372</text>
<text x="1050" y="7" font-family="Verdana" font-size="7" text-anchor="middle"  dominant-baseline="middle" fill="black" > C5</text>
<circle cx="1050" cy="15" r="4" fill="white" stroke="black" />
<line x1="1050" y1="19" x2="1050" y2="289" stroke="black" />
<line x1="950" y1="289" x2="1150" y2="289" stroke="black" />
<text x="1075" y="281" font-family="Verdana" font-size="8" text-anchor="middle"  dominant-baseline="middle" fill="black" > 274</text>
<circle cx="950" cy="289" r="4" fill="white" stroke="black" />
<circle cx="1050" cy="289" r="4" fill="white" stroke="black" />
<circle cx="1150" cy="289" r="4" fill="white" stroke="black" />
<line x1="950" y1="293" x2="950" y2="335" stroke="black" />
<line x1="950" y1="335" x2="1050" y2="350" stroke="black" />
<line x1="1050" y1="293" x2="1050" y2="335" stroke="black" />
<line x1="1050" y1="335" x2="1050" y2="350" stroke="black" />
<line x1="1150" y1="293" x2="1150" y2="335" stroke="black" />
<line x1="1150" y1="335" x2="1050" y2="350" stroke="black" />
<text x="1050" y="338" font-family="Verdana" font-size="8" text-anchor="middle"  dominant-baseline="middle" fill="black" > 335</text>
<circle cx="1050" cy="350" r="4" fill="white" stroke="black" />
<line x1="1050" y1="354" x2="1050" y2="435" stroke="black" />
<line x1="1046" y1="439" x2="1050" y2="431" stroke="blue" />
<line x1="1050" y1="439" x2="1054" y2="431" stroke="blue" />
<text x="1050" y="447" font-family="Verdana" font-size="8" text-anchor="middle"  dominant-baseline="middle" fill="black" > 420</text>
<text x="1300" y="7" font-family="Verdana" font-size="7" text-anchor="middle"  dominant-baseline="middle" fill="black" > C6</text>
<circle cx="1300" cy="15" r="4" fill="white" stroke="black" />
<line x1="1300" y1="19" x2="1300" y2="112" stroke="black" />
<line x1="1250" y1="112" x2="1350" y2="112" stroke="black" />
<text x="1325" y="104" font-family="Verdana" font-size="8" text-anchor="middle"  dominant-baseline="middle" fill="black" > 97</text>
<circle cx="1250" cy="112" r="4" fill="white" stroke="black" />
<circle cx="1350" cy="112" r="4" fill="white" stroke="black" />
<line x1="1250" y1="116" x2="1250" y2="121" stroke="black" />
<line x1="1250" y1="121" x2="1300" y2="123" stroke="black" />
<line x1="1350" y1="116" x2="1350" y2="121" stroke="black" />
<line x1="1350" y1="121" x2="1300" y2="123" stroke="black" />
<text x="1300" y="111" font-family="Verdana" font-size="8" text-anchor="middle"  dominant-baseline="middle" fill="black" > 108</text>
<circle cx="1300" cy="123" r="4" fill="white" stroke="black" />
<line x1="1300" y1="127" x2="1300" y2="145" stroke="black" />
<line x1="1266" y1="145" x2="1334" y2="145" stroke="black" />
<text x="1308" y="137" font-family="Verdana" font-size="8" text-anchor="middle"  dominant-baseline="middle" fill="black" > 130</text>
<circle cx="1266" cy="145" r="4" fill="white" stroke="black" />
<circle cx="1299" cy="145" r="4" fill="white" stroke="black" />
<line x1="1266" y1="149" x2="1266" y2="157" stroke="black" />
<line x1="1266" y1="157" x2="1282" y2="160" stroke="black" />
<line x1="1299" y1="149" x2="1299" y2="157" stroke="black" />
<line x1="1299" y1="157" x2="1282" y2="160" stroke="black" />
<text x="1282" y="148" font-family="Verdana" font-size="8" text-anchor="middle"  dominant-baseline="middle" fill="black" > 145</text>
<circle cx="1282" cy="160" r="4" fill="white" stroke="black" />
<circle cx="1332" cy="145" r="4" fill="white" stroke="black" />
<line x1="1282" y1="164" x2="1282" y2="187" stroke="black" />
<line x1="1282" y1="187" x2="1307" y2="195" stroke="black" />
<line x1="1332" y1="149" x2="1332" y2="187" stroke="black" />
<line x1="1332" y1="187" x2="1307" y2="195" stroke="black" />
<text x="1307" y="183" font-family="Verdana" font-size="8" text-anchor="middle"  dominant-baseline="middle" fill="black" > 180</text>
<circle cx="1307" cy="195" r="4" fill="white" stroke="black" />
<line x1="1307" y1="199" x2="1307" y2="595" stroke="black" />
<line x1="1303" y1="591" x2="1311" y2="599" stroke="red" />
<line x1="1303" y1="599" x2="1311" y2="591" stroke="red" />
<text x="1307" y="607" font-family="Verdana" font-size="8" text-anchor="middle"  dominant-baseline="middle" fill="black" > 580</text>
</svg>
