<?xml version="1.0" encoding="utf-8"?>
<svg xmlns="http://www.w3.org/2000/svg" version="1.1" width="750" height="750">
<rect width="750" height="15" x="0" y="0" fill="white" />
<rect width="750" height="15" x="0" y="735" fill="white" />
<rect width="25" height="750" x="0" y="0" fill="white" />
<rect width="25" height="750" x="725" y="0" fill="white" />
<rect width="710" height="144" x="25" y="15" fill="ghostwhite" />
<rect width="710" height="144" x="25" y="159" fill="snow" />
<rect width="710" height="144" x="25" y="303" fill="ghostwhite" />
<rect width="710" height="144" x="25" y="447" fill="snow" />
<rect width="710" height="144" x="25" y="591" fill="ghostwhite" />
<text x="12" y="87" font-family="Verdana" font-size="10" text-anchor="middle"  dominant-baseline="middle" fill="red" > D0</text>
<text x="12" y="231" font-family="Verdana" font-size="10" text-anchor="middle"  dominant-baseline="middle" fill="red" > D1</text>
<text x="12" y="375" font-family="Verdana" font-size="10" text-anchor="middle"  dominant-baseline="middle" fill="red" > D2</text>
<text x="12" y="519" font-family="Verdana" font-size="10" text-anchor="middle"  dominant-baseline="middle" fill="red" > D3</text>
<text x="12" y="663" font-family="Verdana" font-size="10" text-anchor="middle"  dominant-baseline="middle" fill="red" > D4</text>
<text x="12" y="20" font-family="Verdana" font-size="10" text-anchor="middle"  dominant-baseline="middle" fill="black" > 0</text>
<text x="12" y="164" font-family="Verdana" font-size="10" text-anchor="middle"  dominant-baseline="middle" fill="black" > 144</text>
<text x="12" y="308" font-family="Verdana" font-size="10" text-anchor="middle"  dominant-baseline="middle" fill="black" > 288</text>
<text x="12" y="452" font-family="Verdana" font-size="10" text-anchor="middle"  dominant-baseline="middle" fill="black" > 432</text>
<text x="12" y="596" font-family="Verdana" font-size="10" text-anchor="middle"  dominant-baseline="middle" fill="black" > 576</text>
<text x="12" y="740" font-family="Verdana" font-size="10" text-anchor="middle"  dominant-baseline="middle" fill="black" > 720</text>
<text x="50" y="7" font-family="Verdana" font-size="7" text-anchor="middle"  dominant-baseline="middle" fill="black" > C1</text>
<circle cx="50" cy="15" r="4" fill="white" stroke="black" />
<line x1="50" y1="19" x2="50" y2="736" stroke="black" />
<circle cx="50" cy="736" r="4" fill="white" stroke="black" />
<text x="50" y="748" font-family="Verdana" font-size="8" text-anchor="middle"  dominant-baseline="middle" fill="black" > 721</text>
<text x="150" y="7" font-family="Verdana" font-size="7" text-anchor="middle"  dominant-baseline="middle" fill="black" > C2</text>
<circle cx="150" cy="15" r="4" fill="white" stroke="black" />
<line x1="150" y1="19" x2="150" y2="169" stroke="black" />
<line x1="146" y1="173" x2="150" y2="165" stroke="blue" />
<line x1="150" y1="173" x2="154" y2="165" stroke="blue" />
<text x="150" y="181" font-family="Verdana" font-size="8" text-anchor="middle"  dominant-baseline="middle" fill="black" > 154</text>
<text x="250" y="7" font-family="Verdana" font-size="7" text-anchor="middle"  dominant-baseline="middle" fill="black" > C3</text>
<circle cx="250" cy="15" r="4" fill="white" stroke="black" />
<line x1="250" y1="19" x2="250" y2="168" stroke="black" />
<line x1="246" y1="164" x2="254" y2="172" stroke="red" />
<line x1="246" y1="172" x2="254" y2="164" stroke="red" />
<text x="250" y="180" font-family="Verdana" font-size="8" text-anchor="middle"  dominant-baseline="middle" fill="black" > 153</text>
<text x="350" y="7" font-family="Verdana" font-size="7" text-anchor="middle"  dominant-baseline="middle" fill="black" > C4</text>
<circle cx="350" cy="15" r="4" fill="white" stroke="black" />
<line x1="350" y1="19" x2="350" y2="31" stroke="black" />
<line x1="346" y1="27" x2="354" y2="35" stroke="red" />
<line x1="346" y1="35" x2="354" y2="27" stroke="red" />
<text x="350" y="43" font-family="Verdana" font-size="8" text-anchor="middle"  dominant-baseline="middle" fill="black" > 16</text>
<text x="450" y="7" font-family="Verdana" font-size="7" text-anchor="middle"  dominant-baseline="middle" fill="black" > C5</text>
<circle cx="450" cy="15" r="4" fill="white" stroke="black" />
<line x1="450" y1="19" x2="450" y2="736" stroke="black" />
<circle cx="450" cy="736" r="4" fill="white" stroke="black" />
<text x="450" y="748" font-family="Verdana" font-size="8" text-anchor="middle"  dominant-baseline="middle" fill="black" > 721</text>
<text x="600" y="7" font-family="Verdana" font-size="7" text-anchor="middle"  dominant-baseline="middle" fill="black" > C6</text>
<circle cx="600" cy="15" r="4" fill="white" stroke="black" />
<line x1="600" y1="19" x2="600" y2="413" stroke="black" />
<line x1="550" y1="413" x2="650" y2="413" stroke="black" />
<text x="625" y="405" font-family="Verdana" font-size="8" text-anchor="middle"  dominant-baseline="middle" fill="black" > 398</text>
<circle cx="550" cy="413" r="4" fill="white" stroke="black" />
<line x1="550" y1="417" x2="550" y2="527" stroke="black" />
<line x1="546" y1="523" x2="554" y2="531" stroke="red" />
<line x1="546" y1="531" x2="554" y2="523" stroke="red" />
<text x="550" y="539" font-family="Verdana" font-size="8" text-anchor="middle"  dominant-baseline="middle" fill="black" > 512</text>
<circle cx="650" cy="413" r="4" fill="white" stroke="black" />
<line x1="650" y1="417" x2="650" y2="555" stroke="black" />
<line x1="646" y1="559" x2="650" y2="551" stroke="blue" />
<line x1="650" y1="559" x2="654" y2="551" stroke="blue" />
<text x="650" y="567" font-family="Verdana" font-size="8" text-anchor="middle"  dominant-baseline="middle" fill="black" > 540</text>
</svg>
