<?xml version="1.0" encoding="utf-8"?>
<svg xmlns="http://www.w3.org/2000/svg" version="1.1" width="1750" height="750">
<rect width="1750" height="15" x="0" y="0" fill="white" />
<rect width="1750" height="15" x="0" y="735" fill="white" />
<rect width="25" height="750" x="0" y="0" fill="white" />
<rect width="25" height="750" x="1725" y="0" fill="white" />
<rect width="1710" height="144" x="25" y="15" fill="ghostwhite" />
<rect width="1710" height="144" x="25" y="159" fill="snow" />
<rect width="1710" height="144" x="25" y="303" fill="ghostwhite" />
<rect width="1710" height="144" x="25" y="447" fill="snow" />
<rect width="1710" height="144" x="25" y="591" fill="ghostwhite" />
<text x="12" y="87" font-family="Verdana" font-size="10" text-anchor="middle"  dominant-baseline="middle" fill="red" > D0</text>
<text x="12" y="231" font-family="Verdana" font-size="10" text-anchor="middle"  dominant-baseline="middle" fill="red" > D1</text>
<text x="12" y="375" font-family="Verdana" font-size="10" text-anchor="middle"  dominant-baseline="middle" fill="red" > D2</text>
<text x="12" y="519" font-family="Verdana" font-size="10" text-anchor="middle"  dominant-baseline="middle" fill="red" > D3</text>
<text x="12" y="663" font-family="Verdana" font-size="10" text-anchor="middle"  dominant-baseline="middle" fill="red" > D4</text>
<text x="12" y="20" font-family="Verdana" font-size="10" text-anchor="middle"  dominant-baseline="middle" fill="black" > 0</text>
<text x="12" y="164" font-family="Verdana" font-size="10" text-anchor="middle"  dominant-baseline="middle" fill="black" > 144</text>
<text x="12" y="308" font-family="Verdana" font-size="10" text-anchor="middle"  dominant-baseline="middle" fill="black" > 288</text>
<text x="12" y="452" font-family="Verdana" font-size="10" text-anchor="middle"  dominant-baseline="middle" fill="black" > 432</text>
<text x="12" y="596" font-family="Verdana" font-size="10" text-anchor="middle"  dominant-baseline="middle" fill="black" > 576</text>
<text x="12" y="740" font-family="Verdana" font-size="10" text-anchor="middle"  dominant-baseline="middle" fill="black" > 720</text>
<text x="50" y="7" font-family="Verdana" font-size="7" text-anchor="middle"  dominant-baseline="middle" fill="black" > C1</text>
<circle cx="50" cy="15" r="4" fill="white" stroke="black" />
<line x1="50" y1="19" x2="50" y2="147" stroke="black" />
<line x1="46" y1="143" x2="54" y2="151" stroke="red" />
<line x1="46" y1="151" x2="54" y2="143" stroke="red" />
<text x="50" y="159" font-family="Verdana" font-size="8" text-anchor="middle"  dominant-baseline="middle" fill="black" > 132</text>
<text x="150" y="7" font-family="Verdana" font-size="7" text-anchor="middle"  dominant-baseline="middle" fill="black" > C2</text>
<circle cx="150" cy="15" r="4" fill="white" stroke="black" />
<line x1="150" y1="19" x2="150" y2="131" stroke="black" />
<line x1="146" y1="135" x2="150" y2="127" stroke="blue" />
<line x1="150" y1="135" x2="154" y2="127" stroke="blue" />
<text x="150" y="143" font-family="Verdana" font-size="8" text-anchor="middle"  dominant-baseline="middle" fill="black" > 116</text>
<text x="250" y="7" font-family="Verdana" font-size="7" text-anchor="middle"  dominant-baseline="middle" fill="black" > C3</text>
<circle cx="250" cy="15" r="4" fill="white" stroke="black" />
<line x1="250" y1="19" x2="250" y2="466" stroke="black" />
<line x1="246" y1="462" x2="254" y2="470" stroke="red" />
<line x1="246" y1="470" x2="254" y2="462" stroke="red" />
<text x="250" y="478" font-family="Verdana" font-size="8" text-anchor="middle"  dominant-baseline="middle" fill="black" > 451</text>
<text x="400" y="7" font-family="Verdana" font-size="7" text-anchor="middle"  dominant-baseline="middle" fill="black" > C4</text>
<circle cx="400" cy="15" r="4" fill="white" stroke="black" />
<line x1="400" y1="19" x2="400" y2="19" stroke="black" />
<line x1="350" y1="19" x2="450" y2="19" stroke="black" />
<text x="425" y="11" font-family="Verdana" font-size="8" text-anchor="middle"  dominant-baseline="middle" fill="black" > 4</text>
<circle cx="350" cy="19" r="4" fill="white" stroke="black" />
<line x1="350" y1="23" x2="350" y2="140" stroke="black" />
<line x1="346" y1="144" x2="350" y2="136" stroke="blue" />
<line x1="350" y1="144" x2="354" y2="136" stroke="blue" />
<text x="350" y="152" font-family="Verdana" font-size="8" text-anchor="middle"  dominant-baseline="middle" fill="black" > 125</text>
<circle cx="450" cy="19" r="4" fill="white" stroke="black" />
<line x1="450" y1="23" x2="450" y2="544" stroke="black" />
<line x1="425" y1="544" x2="475" y2="544" stroke="black" />
<text x="462" y="536" font-family="Verdana" font-size="8" text-anchor="middle"  dominant-baseline="middle" fill="black" > 529</text>
<circle cx="425" cy="544" r="4" fill="white" stroke="black" />
<line x1="425" y1="548" x2="425" y2="602" stroke="black" />
<line x1="421" y1="598" x2="429" y2="606" stroke="red" />
<line x1="421" y1="606" x2="429" y2="598" stroke="red" />
<text x="425" y="614" font-family="Verdana" font-size="8" text-anchor="middle"  dominant-baseline="middle" fill="black" > 587</text>
<circle cx="475" cy="544" r="4" fill="white" stroke="black" />
<line x1="475" y1="548" x2="475" y2="599" stroke="black" />
<line x1="471" y1="595" x2="479" y2="603" stroke="red" />
<line x1="471" y1="603" x2="479" y2="595" stroke="red" />
<text x="475" y="611" font-family="Verdana" font-size="8" text-anchor="middle"  dominant-baseline="middle" fill="black" > 584</text>
<text x="550" y="7" font-family="Verdana" font-size="7" text-anchor="middle"  dominant-baseline="middle" fill="black" > C5</text>
<circle cx="550" cy="15" r="4" fill="white" stroke="black" />
<line x1="550" y1="19" x2="550" y2="364" stroke="black" />
<line x1="546" y1="368" x2="550" y2="360" stroke="blue" />
<line x1="550" y1="368" x2="554" y2="360" stroke="blue" />
<text x="550" y="376" font-family="Verdana" font-size="8" text-anchor="middle"  dominant-baseline="middle" fill="black" > 349</text>
<text x="800" y="7" font-family="Verdana" font-size="7" text-anchor="middle"  dominant-baseline="middle" fill="black" > C6</text>
<circle cx="800" cy="15" r="4" fill="white" stroke="black" />
<line x1="800" y1="19" x2="800" y2="424" stroke="black" />
<line x1="650" y1="424" x2="950" y2="424" stroke="black" />
<text x="825" y="416" font-family="Verdana" font-size="8" text-anchor="middle"  dominant-baseline="middle" fill="black" > 409</text>
<circle cx="650" cy="424" r="4" fill="white" stroke="black" />
<line x1="650" y1="428" x2="650" y2="537" stroke="black" />
<line x1="646" y1="533" x2="654" y2="541" stroke="red" />
<line x1="646" y1="541" x2="654" y2="533" stroke="red" />
<text x="650" y="549" font-family="Verdana" font-size="8" text-anchor="middle"  dominant-baseline="middle" fill="black" > 522</text>
<circle cx="750" cy="424" r="4" fill="white" stroke="black" />
<circle cx="850" cy="424" r="4" fill="white" stroke="black" />
<line x1="750" y1="428" x2="750" y2="442" stroke="black" />
<line x1="750" y1="442" x2="800" y2="447" stroke="black" />
<line x1="850" y1="428" x2="850" y2="442" stroke="black" />
<line x1="850" y1="442" x2="800" y2="447" stroke="black" />
<text x="800" y="435" font-family="Verdana" font-size="8" text-anchor="middle"  dominant-baseline="middle" fill="black" > 432</text>
<circle cx="800" cy="447" r="4" fill="white" stroke="black" />
<circle cx="950" cy="424" r="4" fill="white" stroke="black" />
<line x1="800" y1="451" x2="800" y2="460" stroke="black" />
<line x1="800" y1="460" x2="875" y2="464" stroke="black" />
<line x1="950" y1="428" x2="950" y2="460" stroke="black" />
<line x1="950" y1="460" x2="875" y2="464" stroke="black" />
<text x="875" y="452" font-family="Verdana" font-size="8" text-anchor="middle"  dominant-baseline="middle" fill="black" > 449</text>
<circle cx="875" cy="464" r="4" fill="white" stroke="black" />
<line x1="875" y1="468" x2="875" y2="736" stroke="black" />
<circle cx="875" cy="736" r="4" fill="white" stroke="black" />
<text x="875" y="748" font-family="Verdana" font-size="8" text-anchor="middle"  dominant-baseline="middle" fill="black" > 721</text>
<text x="1050" y="7" font-family="Verdana" font-size="7" text-anchor="middle"  dominant-baseline="middle" fill="black" > C7</text>
<circle cx="1050" cy="15" r="4" fill="white" stroke="black" />
<line x1="1050" y1="19" x2="1050" y2="619" stroke="black" />
<line x1="1046" y1="615" x2="1054" y2="623" stroke="red" />
<line x1="1046" y1="623" x2="1054" y2="615" stroke="red" />
<text x="1050" y="631" font-family="Verdana" font-size="8" text-anchor="middle"  dominant-baseline="middle" fill="black" > 604</text>
<text x="1150" y="7" font-family="Verdana" font-size="7" text-anchor="middle"  dominant-baseline="middle" fill="black" > C8</text>
<circle cx="1150" cy="15" r="4" fill="white" stroke="black" />
<line x1="1150" y1="19" x2="1150" y2="416" stroke="black" />
<line x1="1146" y1="412" x2="1154" y2="420" stroke="red" />
<line x1="1146" y1="420" x2="1154" y2="412" stroke="red" />
<text x="1150" y="428" font-family="Verdana" font-size="8" text-anchor="middle"  dominant-baseline="middle" fill="black" > 401</text>
<text x="1250" y="7" font-family="Verdana" font-size="7" text-anchor="middle"  dominant-baseline="middle" fill="black" > C9</text>
<circle cx="1250" cy="15" r="4" fill="white" stroke="black" />
<line x1="1250" y1="19" x2="1250" y2="736" stroke="black" />
<circle cx="1250" cy="736" r="4" fill="white" stroke="black" />
<text x="1250" y="748" font-family="Verdana" font-size="8" text-anchor="middle"  dominant-baseline="middle" fill="black" > 721</text>
<text x="1400" y="7" font-family="Verdana" font-size="7" text-anchor="middle"  dominant-baseline="middle" fill="black" > C10</text>
<circle cx="1400" cy="15" r="4" fill="white" stroke="black" />
<line x1="1400" y1="19" x2="1400" y2="220" stroke="black" />
<line x1="1350" y1="220" x2="1450" y2="220" stroke="black" />
<text x="1425" y="212" font-family="Verdana" font-size="8" text-anchor="middle"  dominant-baseline="middle" fill="black" > 205</text>
<circle cx="1350" cy="220" r="4" fill="white" stroke="black" />
<line x1="1350" y1="224" x2="1350" y2="580" stroke="black" />
<line x1="1346" y1="576" x2="1354" y2="584" stroke="red" />
<line x1="1346" y1="584" x2="1354" y2="576" stroke="red" />
<text x="1350" y="592" font-family="Verdana" font-size="8" text-anchor="middle"  dominant-baseline="middle" fill="black" > 565</text>
<circle cx="1450" cy="220" r="4" fill="white" stroke="black" />
<line x1="1450" y1="224" x2="1450" y2="440" stroke="black" />
<line x1="1446" y1="436" x2="1454" y2="444" stroke="red" />
<line x1="1446" y1="444" x2="1454" y2="436" stroke="red" />
<text x="1450" y="452" font-family="Verdana" font-size="8" text-anchor="middle"  dominant-baseline="middle" fill="black" > 425</text>
<text x="1600" y="7" font-family="Verdana" font-size="7" text-anchor="middle"  dominant-baseline="middle" fill="black" > C11</text>
<circle cx="1600" cy="15" r="4" fill="white" stroke="black" />
<line x1="1600" y1="19" x2="1600" y2="241" stroke="black" />
<line x1="1550" y1="241" x2="1650" y2="241" stroke="black" />
<text x="1625" y="233" font-family="Verdana" font-size="8" text-anchor="middle"  dominant-baseline="middle" fill="black" > 226</text>
<circle cx="1550" cy="241" r="4" fill="white" stroke="black" />
<line x1="1550" y1="245" x2="1550" y2="675" stroke="black" />
<line x1="1546" y1="671" x2="1554" y2="679" stroke="red" />
<line x1="1546" y1="679" x2="1554" y2="671" stroke="red" />
<text x="1550" y="687" font-family="Verdana" font-size="8" text-anchor="middle"  dominant-baseline="middle" fill="black" > 660</text>
<circle cx="1650" cy="241" r="4" fill="white" stroke="black" />
<line x1="1650" y1="245" x2="1650" y2="531" stroke="black" />
<line x1="1646" y1="527" x2="1654" y2="535" stroke="red" />
<line x1="1646" y1="535" x2="1654" y2="527" stroke="red" />
<text x="1650" y="543" font-family="Verdana" font-size="8" text-anchor="middle"  dominant-baseline="middle" fill="black" > 516</text>
</svg>
