<?xml version="1.0" encoding="utf-8"?>
<svg xmlns="http://www.w3.org/2000/svg" version="1.1" width="750" height="750">
<rect width="750" height="15" x="0" y="0" fill="white" />
<rect width="750" height="15" x="0" y="735" fill="white" />
<rect width="25" height="750" x="0" y="0" fill="white" />
<rect width="25" height="750" x="725" y="0" fill="white" />
<rect width="710" height="144" x="25" y="15" fill="ghostwhite" />
<rect width="710" height="144" x="25" y="159" fill="snow" />
<rect width="710" height="144" x="25" y="303" fill="ghostwhite" />
<rect width="710" height="144" x="25" y="447" fill="snow" />
<rect width="710" height="144" x="25" y="591" fill="ghostwhite" />
<text x="12" y="87" font-family="Verdana" font-size="10" text-anchor="middle"  dominant-baseline="middle" fill="red" > D0</text>
<text x="12" y="231" font-family="Verdana" font-size="10" text-anchor="middle"  dominant-baseline="middle" fill="red" > D1</text>
<text x="12" y="375" font-family="Verdana" font-size="10" text-anchor="middle"  dominant-baseline="middle" fill="red" > D2</text>
<text x="12" y="519" font-family="Verdana" font-size="10" text-anchor="middle"  dominant-baseline="middle" fill="red" > D3</text>
<text x="12" y="663" font-family="Verdana" font-size="10" text-anchor="middle"  dominant-baseline="middle" fill="red" > D4</text>
<text x="12" y="20" font-family="Verdana" font-size="10" text-anchor="middle"  dominant-baseline="middle" fill="black" > 0</text>
<text x="12" y="164" font-family="Verdana" font-size="10" text-anchor="middle"  dominant-baseline="middle" fill="black" > 144</text>
<text x="12" y="308" font-family="Verdana" font-size="10" text-anchor="middle"  dominant-baseline="middle" fill="black" > 288</text>
<text x="12" y="452" font-family="Verdana" font-size="10" text-anchor="middle"  dominant-baseline="middle" fill="black" > 432</text>
<text x="12" y="596" font-family="Verdana" font-size="10" text-anchor="middle"  dominant-baseline="middle" fill="black" > 576</text>
<text x="12" y="740" font-family="Verdana" font-size="10" text-anchor="middle"  dominant-baseline="middle" fill="black" > 720</text>
<text x="50" y="7" font-family="Verdana" font-size="7" text-anchor="middle"  dominant-baseline="middle" fill="black" > C1</text>
<circle cx="50" cy="15" r="4" fill="white" stroke="black" />
<line x1="50" y1="19" x2="50" y2="454" stroke="black" />
<line x1="46" y1="450" x2="54" y2="458" stroke="red" />
<line x1="46" y1="458" x2="54" y2="450" stroke="red" />
<text x="50" y="466" font-family="Verdana" font-size="8" text-anchor="middle"  dominant-baseline="middle" fill="black" > 439</text>
<text x="150" y="7" font-family="Verdana" font-size="7" text-anchor="middle"  dominant-baseline="middle" fill="black" > C2</text>
<circle cx="150" cy="15" r="4" fill="white" stroke="black" />
<line x1="150" y1="19" x2="150" y2="328" stroke="black" />
<line x1="146" y1="324" x2="154" y2="332" stroke="red" />
<line x1="146" y1="332" x2="154" y2="324" stroke="red" />
<text x="150" y="340" font-family="Verdana" font-size="8" text-anchor="middle"  dominant-baseline="middle" fill="black" > 313</text>
<text x="250" y="7" font-family="Verdana" font-size="7" text-anchor="middle"  dominant-baseline="middle" fill="black" > C3</text>
<circle cx="250" cy="15" r="4" fill="white" stroke="black" />
<line x1="250" y1="19" x2="250" y2="356" stroke="black" />
<line x1="246" y1="352" x2="254" y2="360" stroke="red" />
<line x1="246" y1="360" x2="254" y2="352" stroke="red" />
<text x="250" y="368" font-family="Verdana" font-size="8" text-anchor="middle"  dominant-baseline="middle" fill="black" > 341</text>
<text x="400" y="7" font-family="Verdana" font-size="7" text-anchor="middle"  dominant-baseline="middle" fill="black" > C4</text>
<circle cx="400" cy="15" r="4" fill="white" stroke="black" />
<line x1="400" y1="19" x2="400" y2="240" stroke="black" />
<line x1="350" y1="240" x2="450" y2="240" stroke="black" />
<text x="425" y="232" font-family="Verdana" font-size="8" text-anchor="middle"  dominant-baseline="middle" fill="black" > 225</text>
<circle cx="350" cy="240" r="4" fill="white" stroke="black" />
<circle cx="450" cy="240" r="4" fill="white" stroke="black" />
<line x1="350" y1="244" x2="350" y2="279" stroke="black" />
<line x1="350" y1="279" x2="400" y2="292" stroke="black" />
<line x1="450" y1="244" x2="450" y2="279" stroke="black" />
<line x1="450" y1="279" x2="400" y2="292" stroke="black" />
<text x="400" y="280" font-family="Verdana" font-size="8" text-anchor="middle"  dominant-baseline="middle" fill="black" > 277</text>
<circle cx="400" cy="292" r="4" fill="white" stroke="black" />
<line x1="400" y1="296" x2="400" y2="494" stroke="black" />
<line x1="396" y1="490" x2="404" y2="498" stroke="red" />
<line x1="396" y1="498" x2="404" y2="490" stroke="red" />
<text x="400" y="506" font-family="Verdana" font-size="8" text-anchor="middle"  dominant-baseline="middle" fill="black" > 479</text>
<text x="600" y="7" font-family="Verdana" font-size="7" text-anchor="middle"  dominant-baseline="middle" fill="black" > C5</text>
<circle cx="600" cy="15" r="4" fill="white" stroke="black" />
<line x1="600" y1="19" x2="600" y2="257" stroke="black" />
<line x1="550" y1="257" x2="650" y2="257" stroke="black" />
<text x="625" y="249" font-family="Verdana" font-size="8" text-anchor="middle"  dominant-baseline="middle" fill="black" > 242</text>
<circle cx="550" cy="257" r="4" fill="white" stroke="black" />
<line x1="550" y1="261" x2="550" y2="512" stroke="black" />
<line x1="546" y1="508" x2="554" y2="516" stroke="red" />
<line x1="546" y1="516" x2="554" y2="508" stroke="red" />
<text x="550" y="524" font-family="Verdana" font-size="8" text-anchor="middle"  dominant-baseline="middle" fill="black" > 497</text>
<circle cx="650" cy="257" r="4" fill="white" stroke="black" />
<line x1="650" y1="261" x2="650" y2="684" stroke="black" />
<line x1="646" y1="680" x2="654" y2="688" stroke="red" />
<line x1="646" y1="688" x2="654" y2="680" stroke="red" />
<text x="650" y="696" font-family="Verdana" font-size="8" text-anchor="middle"  dominant-baseline="middle" fill="black" > 669</text>
</svg>
