<?xml version="1.0" encoding="utf-8"?>
<svg xmlns="http://www.w3.org/2000/svg" version="1.1" width="450" height="750">
<rect width="450" height="15" x="0" y="0" fill="white" />
<rect width="450" height="15" x="0" y="735" fill="white" />
<rect width="25" height="750" x="0" y="0" fill="white" />
<rect width="25" height="750" x="425" y="0" fill="white" />
<rect width="410" height="144" x="25" y="15" fill="ghostwhite" />
<rect width="410" height="144" x="25" y="159" fill="snow" />
<rect width="410" height="144" x="25" y="303" fill="ghostwhite" />
<rect width="410" height="144" x="25" y="447" fill="snow" />
<rect width="410" height="144" x="25" y="591" fill="ghostwhite" />
<text x="12" y="87" font-family="Verdana" font-size="10" text-anchor="middle"  dominant-baseline="middle" fill="red" > D0</text>
<text x="12" y="231" font-family="Verdana" font-size="10" text-anchor="middle"  dominant-baseline="middle" fill="red" > D1</text>
<text x="12" y="375" font-family="Verdana" font-size="10" text-anchor="middle"  dominant-baseline="middle" fill="red" > D2</text>
<text x="12" y="519" font-family="Verdana" font-size="10" text-anchor="middle"  dominant-baseline="middle" fill="red" > D3</text>
<text x="12" y="663" font-family="Verdana" font-size="10" text-anchor="middle"  dominant-baseline="middle" fill="red" > D4</text>
<text x="12" y="20" font-family="Verdana" font-size="10" text-anchor="middle"  dominant-baseline="middle" fill="black" > 0</text>
<text x="12" y="164" font-family="Verdana" font-size="10" text-anchor="middle"  dominant-baseline="middle" fill="black" > 144</text>
<text x="12" y="308" font-family="Verdana" font-size="10" text-anchor="middle"  dominant-baseline="middle" fill="black" > 288</text>
<text x="12" y="452" font-family="Verdana" font-size="10" text-anchor="middle"  dominant-baseline="middle" fill="black" > 432</text>
<text x="12" y="596" font-family="Verdana" font-size="10" text-anchor="middle"  dominant-baseline="middle" fill="black" > 576</text>
<text x="12" y="740" font-family="Verdana" font-size="10" text-anchor="middle"  dominant-baseline="middle" fill="black" > 720</text>
<text x="50" y="7" font-family="Verdana" font-size="7" text-anchor="middle"  dominant-baseline="middle" fill="black" > C1</text>
<circle cx="50" cy="15" r="4" fill="white" stroke="black" />
<line x1="50" y1="19" x2="50" y2="117" stroke="black" />
<line x1="46" y1="121" x2="50" y2="113" stroke="blue" />
<line x1="50" y1="121" x2="54" y2="113" stroke="blue" />
<text x="50" y="129" font-family="Verdana" font-size="8" text-anchor="middle"  dominant-baseline="middle" fill="black" > 102</text>
<text x="150" y="7" font-family="Verdana" font-size="7" text-anchor="middle"  dominant-baseline="middle" fill="black" > C2</text>
<circle cx="150" cy="15" r="4" fill="white" stroke="black" />
<line x1="150" y1="19" x2="150" y2="118" stroke="black" />
<line x1="146" y1="122" x2="150" y2="114" stroke="blue" />
<line x1="150" y1="122" x2="154" y2="114" stroke="blue" />
<text x="150" y="130" font-family="Verdana" font-size="8" text-anchor="middle"  dominant-baseline="middle" fill="black" > 103</text>
<text x="300" y="7" font-family="Verdana" font-size="7" text-anchor="middle"  dominant-baseline="middle" fill="black" > C3</text>
<circle cx="300" cy="15" r="4" fill="white" stroke="black" />
<line x1="300" y1="19" x2="300" y2="196" stroke="black" />
<line x1="250" y1="196" x2="350" y2="196" stroke="black" />
<text x="325" y="188" font-family="Verdana" font-size="8" text-anchor="middle"  dominant-baseline="middle" fill="black" > 181</text>
<circle cx="250" cy="196" r="4" fill="white" stroke="black" />
<line x1="250" y1="200" x2="250" y2="266" stroke="black" />
<line x1="246" y1="262" x2="254" y2="270" stroke="red" />
<line x1="246" y1="270" x2="254" y2="262" stroke="red" />
<text x="250" y="278" font-family="Verdana" font-size="8" text-anchor="middle"  dominant-baseline="middle" fill="black" > 251</text>
<circle cx="350" cy="196" r="4" fill="white" stroke="black" />
<line x1="350" y1="200" x2="350" y2="552" stroke="black" />
<line x1="346" y1="548" x2="354" y2="556" stroke="red" />
<line x1="346" y1="556" x2="354" y2="548" stroke="red" />
<text x="350" y="564" font-family="Verdana" font-size="8" text-anchor="middle"  dominant-baseline="middle" fill="black" > 537</text>
</svg>
