<?xml version="1.0" encoding="utf-8"?>
<svg xmlns="http://www.w3.org/2000/svg" version="1.1" width="2950" height="750">
<rect width="2950" height="15" x="0" y="0" fill="white" />
<rect width="2950" height="15" x="0" y="735" fill="white" />
<rect width="25" height="750" x="0" y="0" fill="white" />
<rect width="25" height="750" x="2925" y="0" fill="white" />
<rect width="2910" height="144" x="25" y="15" fill="ghostwhite" />
<rect width="2910" height="144" x="25" y="159" fill="snow" />
<rect width="2910" height="144" x="25" y="303" fill="ghostwhite" />
<rect width="2910" height="144" x="25" y="447" fill="snow" />
<rect width="2910" height="144" x="25" y="591" fill="ghostwhite" />
<text x="12" y="87" font-family="Verdana" font-size="10" text-anchor="middle"  dominant-baseline="middle" fill="red" > D0</text>
<text x="12" y="231" font-family="Verdana" font-size="10" text-anchor="middle"  dominant-baseline="middle" fill="red" > D1</text>
<text x="12" y="375" font-family="Verdana" font-size="10" text-anchor="middle"  dominant-baseline="middle" fill="red" > D2</text>
<text x="12" y="519" font-family="Verdana" font-size="10" text-anchor="middle"  dominant-baseline="middle" fill="red" > D3</text>
<text x="12" y="663" font-family="Verdana" font-size="10" text-anchor="middle"  dominant-baseline="middle" fill="red" > D4</text>
<text x="12" y="20" font-family="Verdana" font-size="10" text-anchor="middle"  dominant-baseline="middle" fill="black" > 0</text>
<text x="12" y="164" font-family="Verdana" font-size="10" text-anchor="middle"  dominant-baseline="middle" fill="black" > 144</text>
<text x="12" y="308" font-family="Verdana" font-size="10" text-anchor="middle"  dominant-baseline="middle" fill="black" > 288</text>
<text x="12" y="452" font-family="Verdana" font-size="10" text-anchor="middle"  dominant-baseline="middle" fill="black" > 432</text>
<text x="12" y="596" font-family="Verdana" font-size="10" text-anchor="middle"  dominant-baseline="middle" fill="black" > 576</text>
<text x="12" y="740" font-family="Verdana" font-size="10" text-anchor="middle"  dominant-baseline="middle" fill="black" > 720</text>
<text x="50" y="7" font-family="Verdana" font-size="7" text-anchor="middle"  dominant-baseline="middle" fill="black" > C1</text>
<circle cx="50" cy="15" r="4" fill="white" stroke="black" />
<line x1="50" y1="19" x2="50" y2="442" stroke="black" />
<line x1="46" y1="438" x2="54" y2="446" stroke="red" />
<line x1="46" y1="446" x2="54" y2="438" stroke="red" />
<text x="50" y="454" font-family="Verdana" font-size="8" text-anchor="middle"  dominant-baseline="middle" fill="black" > 427</text>
<text x="150" y="7" font-family="Verdana" font-size="7" text-anchor="middle"  dominant-baseline="middle" fill="black" > C2</text>
<circle cx="150" cy="15" r="4" fill="white" stroke="black" />
<line x1="150" y1="19" x2="150" y2="652" stroke="black" />
<line x1="146" y1="648" x2="154" y2="656" stroke="red" />
<line x1="146" y1="656" x2="154" y2="648" stroke="red" />
<text x="150" y="664" font-family="Verdana" font-size="8" text-anchor="middle"  dominant-baseline="middle" fill="black" > 637</text>
<text x="300" y="7" font-family="Verdana" font-size="7" text-anchor="middle"  dominant-baseline="middle" fill="black" > C3</text>
<circle cx="300" cy="15" r="4" fill="white" stroke="black" />
<line x1="300" y1="19" x2="300" y2="256" stroke="black" />
<line x1="250" y1="256" x2="350" y2="256" stroke="black" />
<text x="325" y="248" font-family="Verdana" font-size="8" text-anchor="middle"  dominant-baseline="middle" fill="black" > 241</text>
<circle cx="250" cy="256" r="4" fill="white" stroke="black" />
<line x1="250" y1="260" x2="250" y2="736" stroke="black" />
<circle cx="250" cy="736" r="4" fill="white" stroke="black" />
<text x="250" y="748" font-family="Verdana" font-size="8" text-anchor="middle"  dominant-baseline="middle" fill="black" > 721</text>
<circle cx="350" cy="256" r="4" fill="white" stroke="black" />
<line x1="350" y1="260" x2="350" y2="736" stroke="black" />
<circle cx="350" cy="736" r="4" fill="white" stroke="black" />
<text x="350" y="748" font-family="Verdana" font-size="8" text-anchor="middle"  dominant-baseline="middle" fill="black" > 721</text>
<text x="600" y="7" font-family="Verdana" font-size="7" text-anchor="middle"  dominant-baseline="middle" fill="black" > C4</text>
<circle cx="600" cy="15" r="4" fill="white" stroke="black" />
<line x1="600" y1="19" x2="600" y2="332" stroke="black" />
<line x1="450" y1="332" x2="750" y2="332" stroke="black" />
<text x="625" y="324" font-family="Verdana" font-size="8" text-anchor="middle"  dominant-baseline="middle" fill="black" > 317</text>
<circle cx="450" cy="332" r="4" fill="white" stroke="black" />
<circle cx="550" cy="332" r="4" fill="white" stroke="black" />
<line x1="450" y1="336" x2="450" y2="389" stroke="black" />
<line x1="450" y1="389" x2="500" y2="407" stroke="black" />
<line x1="550" y1="336" x2="550" y2="389" stroke="black" />
<line x1="550" y1="389" x2="500" y2="407" stroke="black" />
<text x="500" y="395" font-family="Verdana" font-size="8" text-anchor="middle"  dominant-baseline="middle" fill="black" > 392</text>
<circle cx="500" cy="407" r="4" fill="white" stroke="black" />
<circle cx="650" cy="332" r="4" fill="white" stroke="black" />
<line x1="500" y1="411" x2="500" y2="434" stroke="black" />
<line x1="500" y1="434" x2="575" y2="442" stroke="black" />
<line x1="650" y1="336" x2="650" y2="434" stroke="black" />
<line x1="650" y1="434" x2="575" y2="442" stroke="black" />
<text x="575" y="430" font-family="Verdana" font-size="8" text-anchor="middle"  dominant-baseline="middle" fill="black" > 427</text>
<circle cx="575" cy="442" r="4" fill="white" stroke="black" />
<circle cx="750" cy="332" r="4" fill="white" stroke="black" />
<line x1="575" y1="446" x2="575" y2="452" stroke="black" />
<line x1="575" y1="452" x2="662" y2="455" stroke="black" />
<line x1="750" y1="336" x2="750" y2="452" stroke="black" />
<line x1="750" y1="452" x2="662" y2="455" stroke="black" />
<text x="662" y="443" font-family="Verdana" font-size="8" text-anchor="middle"  dominant-baseline="middle" fill="black" > 440</text>
<circle cx="662" cy="455" r="4" fill="white" stroke="black" />
<line x1="662" y1="459" x2="662" y2="736" stroke="black" />
<circle cx="662" cy="736" r="4" fill="white" stroke="black" />
<text x="662" y="748" font-family="Verdana" font-size="8" text-anchor="middle"  dominant-baseline="middle" fill="black" > 721</text>
<text x="850" y="7" font-family="Verdana" font-size="7" text-anchor="middle"  dominant-baseline="middle" fill="black" > C5</text>
<circle cx="850" cy="15" r="4" fill="white" stroke="black" />
<line x1="850" y1="19" x2="850" y2="37" stroke="black" />
<line x1="846" y1="41" x2="850" y2="33" stroke="blue" />
<line x1="850" y1="41" x2="854" y2="33" stroke="blue" />
<text x="850" y="49" font-family="Verdana" font-size="8" text-anchor="middle"  dominant-baseline="middle" fill="black" > 22</text>
<text x="950" y="7" font-family="Verdana" font-size="7" text-anchor="middle"  dominant-baseline="middle" fill="black" > C6</text>
<circle cx="950" cy="15" r="4" fill="white" stroke="black" />
<line x1="950" y1="19" x2="950" y2="302" stroke="black" />
<line x1="946" y1="298" x2="954" y2="306" stroke="red" />
<line x1="946" y1="306" x2="954" y2="298" stroke="red" />
<text x="950" y="314" font-family="Verdana" font-size="8" text-anchor="middle"  dominant-baseline="middle" fill="black" > 287</text>
<text x="1050" y="7" font-family="Verdana" font-size="7" text-anchor="middle"  dominant-baseline="middle" fill="black" > C7</text>
<circle cx="1050" cy="15" r="4" fill="white" stroke="black" />
<line x1="1050" y1="19" x2="1050" y2="265" stroke="black" />
<line x1="1046" y1="269" x2="1050" y2="261" stroke="blue" />
<line x1="1050" y1="269" x2="1054" y2="261" stroke="blue" />
<text x="1050" y="277" font-family="Verdana" font-size="8" text-anchor="middle"  dominant-baseline="middle" fill="black" > 250</text>
<text x="1150" y="7" font-family="Verdana" font-size="7" text-anchor="middle"  dominant-baseline="middle" fill="black" > C8</text>
<circle cx="1150" cy="15" r="4" fill="white" stroke="black" />
<line x1="1150" y1="19" x2="1150" y2="400" stroke="black" />
<line x1="1146" y1="396" x2="1154" y2="404" stroke="red" />
<line x1="1146" y1="404" x2="1154" y2="396" stroke="red" />
<text x="1150" y="412" font-family="Verdana" font-size="8" text-anchor="middle"  dominant-baseline="middle" fill="black" > 385</text>
<text x="1300" y="7" font-family="Verdana" font-size="7" text-anchor="middle"  dominant-baseline="middle" fill="black" > C9</text>
<circle cx="1300" cy="15" r="4" fill="white" stroke="black" />
<line x1="1300" y1="19" x2="1300" y2="347" stroke="black" />
<line x1="1250" y1="347" x2="1350" y2="347" stroke="black" />
<text x="1325" y="339" font-family="Verdana" font-size="8" text-anchor="middle"  dominant-baseline="middle" fill="black" > 332</text>
<circle cx="1250" cy="347" r="4" fill="white" stroke="black" />
<line x1="1250" y1="351" x2="1250" y2="531" stroke="black" />
<line x1="1246" y1="527" x2="1254" y2="535" stroke="red" />
<line x1="1246" y1="535" x2="1254" y2="527" stroke="red" />
<text x="1250" y="543" font-family="Verdana" font-size="8" text-anchor="middle"  dominant-baseline="middle" fill="black" > 516</text>
<circle cx="1350" cy="347" r="4" fill="white" stroke="black" />
<line x1="1350" y1="351" x2="1350" y2="541" stroke="black" />
<line x1="1346" y1="537" x2="1354" y2="545" stroke="red" />
<line x1="1346" y1="545" x2="1354" y2="537" stroke="red" />
<text x="1350" y="553" font-family="Verdana" font-size="8" text-anchor="middle"  dominant-baseline="middle" fill="black" > 526</text>
<text x="1550" y="7" font-family="Verdana" font-size="7" text-anchor="middle"  dominant-baseline="middle" fill="black" > C10</text>
<circle cx="1550" cy="15" r="4" fill="white" stroke="black" />
<line x1="1550" y1="19" x2="1550" y2="447" stroke="black" />
<line x1="1450" y1="447" x2="1650" y2="447" stroke="black" />
<text x="1575" y="439" font-family="Verdana" font-size="8" text-anchor="middle"  dominant-baseline="middle" fill="black" > 432</text>
<circle cx="1450" cy="447" r="4" fill="white" stroke="black" />
<circle cx="1550" cy="447" r="4" fill="white" stroke="black" />
<circle cx="1650" cy="447" r="4" fill="white" stroke="black" />
<line x1="1450" y1="451" x2="1450" y2="468" stroke="black" />
<line x1="1450" y1="468" x2="1550" y2="474" stroke="black" />
<line x1="1550" y1="451" x2="1550" y2="468" stroke="black" />
<line x1="1550" y1="468" x2="1550" y2="474" stroke="black" />
<line x1="1650" y1="451" x2="1650" y2="468" stroke="black" />
<line x1="1650" y1="468" x2="1550" y2="474" stroke="black" />
<text x="1550" y="462" font-family="Verdana" font-size="8" text-anchor="middle"  dominant-baseline="middle" fill="black" > 459</text>
<circle cx="1550" cy="474" r="4" fill="white" stroke="black" />
<line x1="1550" y1="478" x2="1550" y2="536" stroke="black" />
<line x1="1546" y1="532" x2="1554" y2="540" stroke="red" />
<line x1="1546" y1="540" x2="1554" y2="532" stroke="red" />
<text x="1550" y="548" font-family="Verdana" font-size="8" text-anchor="middle"  dominant-baseline="middle" fill="black" > 521</text>
<text x="1800" y="7" font-family="Verdana" font-size="7" text-anchor="middle"  dominant-baseline="middle" fill="black" > C11</text>
<circle cx="1800" cy="15" r="4" fill="white" stroke="black" />
<line x1="1800" y1="19" x2="1800" y2="474" stroke="black" />
<line x1="1750" y1="474" x2="1850" y2="474" stroke="black" />
<text x="1825" y="466" font-family="Verdana" font-size="8" text-anchor="middle"  dominant-baseline="middle" fill="black" > 459</text>
<circle cx="1750" cy="474" r="4" fill="white" stroke="black" />
<line x1="1750" y1="478" x2="1750" y2="736" stroke="black" />
<circle cx="1750" cy="736" r="4" fill="white" stroke="black" />
<text x="1750" y="748" font-family="Verdana" font-size="8" text-anchor="middle"  dominant-baseline="middle" fill="black" > 721</text>
<circle cx="1850" cy="474" r="4" fill="white" stroke="black" />
<line x1="1850" y1="478" x2="1850" y2="604" stroke="black" />
<line x1="1846" y1="608" x2="1850" y2="600" stroke="blue" />
<line x1="1850" y1="608" x2="1854" y2="600" stroke="blue" />
<text x="1850" y="616" font-family="Verdana" font-size="8" text-anchor="middle"  dominant-baseline="middle" fill="black" > 589</text>
<text x="1950" y="7" font-family="Verdana" font-size="7" text-anchor="middle"  dominant-baseline="middle" fill="black" > C12</text>
<circle cx="1950" cy="15" r="4" fill="white" stroke="black" />
<line x1="1950" y1="19" x2="1950" y2="433" stroke="black" />
<line x1="1946" y1="429" x2="1954" y2="437" stroke="red" />
<line x1="1946" y1="437" x2="1954" y2="429" stroke="red" />
<text x="1950" y="445" font-family="Verdana" font-size="8" text-anchor="middle"  dominant-baseline="middle" fill="black" > 418</text>
<text x="2150" y="7" font-family="Verdana" font-size="7" text-anchor="middle"  dominant-baseline="middle" fill="black" > C13</text>
<circle cx="2150" cy="15" r="4" fill="white" stroke="black" />
<line x1="2150" y1="19" x2="2150" y2="429" stroke="black" />
<line x1="2050" y1="429" x2="2250" y2="429" stroke="black" />
<text x="2175" y="421" font-family="Verdana" font-size="8" text-anchor="middle"  dominant-baseline="middle" fill="black" > 414</text>
<circle cx="2050" cy="429" r="4" fill="white" stroke="black" />
<circle cx="2150" cy="429" r="4" fill="white" stroke="black" />
<line x1="2050" y1="433" x2="2050" y2="438" stroke="black" />
<line x1="2050" y1="438" x2="2100" y2="440" stroke="black" />
<line x1="2150" y1="433" x2="2150" y2="438" stroke="black" />
<line x1="2150" y1="438" x2="2100" y2="440" stroke="black" />
<text x="2100" y="428" font-family="Verdana" font-size="8" text-anchor="middle"  dominant-baseline="middle" fill="black" > 425</text>
<circle cx="2100" cy="440" r="4" fill="white" stroke="black" />
<circle cx="2250" cy="429" r="4" fill="white" stroke="black" />
<line x1="2100" y1="444" x2="2100" y2="446" stroke="black" />
<line x1="2100" y1="446" x2="2175" y2="447" stroke="black" />
<line x1="2250" y1="433" x2="2250" y2="446" stroke="black" />
<line x1="2250" y1="446" x2="2175" y2="447" stroke="black" />
<text x="2175" y="435" font-family="Verdana" font-size="8" text-anchor="middle"  dominant-baseline="middle" fill="black" > 432</text>
<circle cx="2175" cy="447" r="4" fill="white" stroke="black" />
<line x1="2175" y1="451" x2="2175" y2="554" stroke="black" />
<line x1="2171" y1="550" x2="2179" y2="558" stroke="red" />
<line x1="2171" y1="558" x2="2179" y2="550" stroke="red" />
<text x="2175" y="566" font-family="Verdana" font-size="8" text-anchor="middle"  dominant-baseline="middle" fill="black" > 539</text>
<text x="2400" y="7" font-family="Verdana" font-size="7" text-anchor="middle"  dominant-baseline="middle" fill="black" > C14</text>
<circle cx="2400" cy="15" r="4" fill="white" stroke="black" />
<line x1="2400" y1="19" x2="2400" y2="283" stroke="black" />
<line x1="2350" y1="283" x2="2450" y2="283" stroke="black" />
<text x="2425" y="275" font-family="Verdana" font-size="8" text-anchor="middle"  dominant-baseline="middle" fill="black" > 268</text>
<circle cx="2350" cy="283" r="4" fill="white" stroke="black" />
<line x1="2350" y1="287" x2="2350" y2="736" stroke="black" />
<circle cx="2350" cy="736" r="4" fill="white" stroke="black" />
<text x="2350" y="748" font-family="Verdana" font-size="8" text-anchor="middle"  dominant-baseline="middle" fill="black" > 721</text>
<circle cx="2450" cy="283" r="4" fill="white" stroke="black" />
<line x1="2450" y1="287" x2="2450" y2="736" stroke="black" />
<circle cx="2450" cy="736" r="4" fill="white" stroke="black" />
<text x="2450" y="748" font-family="Verdana" font-size="8" text-anchor="middle"  dominant-baseline="middle" fill="black" > 721</text>
<text x="2550" y="7" font-family="Verdana" font-size="7" text-anchor="middle"  dominant-baseline="middle" fill="black" > C15</text>
<circle cx="2550" cy="15" r="4" fill="white" stroke="black" />
<line x1="2550" y1="19" x2="2550" y2="736" stroke="black" />
<circle cx="2550" cy="736" r="4" fill="white" stroke="black" />
<text x="2550" y="748" font-family="Verdana" font-size="8" text-anchor="middle"  dominant-baseline="middle" fill="black" > 721</text>
<text x="2650" y="7" font-family="Verdana" font-size="7" text-anchor="middle"  dominant-baseline="middle" fill="black" > C16</text>
<circle cx="2650" cy="15" r="4" fill="white" stroke="black" />
<line x1="2650" y1="19" x2="2650" y2="712" stroke="black" />
<line x1="2646" y1="708" x2="2654" y2="716" stroke="red" />
<line x1="2646" y1="716" x2="2654" y2="708" stroke="red" />
<text x="2650" y="724" font-family="Verdana" font-size="8" text-anchor="middle"  dominant-baseline="middle" fill="black" > 697</text>
<text x="2750" y="7" font-family="Verdana" font-size="7" text-anchor="middle"  dominant-baseline="middle" fill="black" > C17</text>
<circle cx="2750" cy="15" r="4" fill="white" stroke="black" />
<line x1="2750" y1="19" x2="2750" y2="301" stroke="black" />
<line x1="2746" y1="297" x2="2754" y2="305" stroke="red" />
<line x1="2746" y1="305" x2="2754" y2="297" stroke="red" />
<text x="2750" y="313" font-family="Verdana" font-size="8" text-anchor="middle"  dominant-baseline="middle" fill="black" > 286</text>
<text x="2850" y="7" font-family="Verdana" font-size="7" text-anchor="middle"  dominant-baseline="middle" fill="black" > C18</text>
<circle cx="2850" cy="15" r="4" fill="white" stroke="black" />
<line x1="2850" y1="19" x2="2850" y2="262" stroke="black" />
<line x1="2846" y1="266" x2="2850" y2="258" stroke="blue" />
<line x1="2850" y1="266" x2="2854" y2="258" stroke="blue" />
<text x="2850" y="274" font-family="Verdana" font-size="8" text-anchor="middle"  dominant-baseline="middle" fill="black" > 247</text>
</svg>
