<?xml version="1.0" encoding="utf-8"?>
<svg xmlns="http://www.w3.org/2000/svg" version="1.1" width="1350" height="750">
<rect width="1350" height="15" x="0" y="0" fill="white" />
<rect width="1350" height="15" x="0" y="735" fill="white" />
<rect width="25" height="750" x="0" y="0" fill="white" />
<rect width="25" height="750" x="1325" y="0" fill="white" />
<rect width="1310" height="144" x="25" y="15" fill="ghostwhite" />
<rect width="1310" height="144" x="25" y="159" fill="snow" />
<rect width="1310" height="144" x="25" y="303" fill="ghostwhite" />
<rect width="1310" height="144" x="25" y="447" fill="snow" />
<rect width="1310" height="144" x="25" y="591" fill="ghostwhite" />
<text x="12" y="87" font-family="Verdana" font-size="10" text-anchor="middle"  dominant-baseline="middle" fill="red" > D0</text>
<text x="12" y="231" font-family="Verdana" font-size="10" text-anchor="middle"  dominant-baseline="middle" fill="red" > D1</text>
<text x="12" y="375" font-family="Verdana" font-size="10" text-anchor="middle"  dominant-baseline="middle" fill="red" > D2</text>
<text x="12" y="519" font-family="Verdana" font-size="10" text-anchor="middle"  dominant-baseline="middle" fill="red" > D3</text>
<text x="12" y="663" font-family="Verdana" font-size="10" text-anchor="middle"  dominant-baseline="middle" fill="red" > D4</text>
<text x="12" y="20" font-family="Verdana" font-size="10" text-anchor="middle"  dominant-baseline="middle" fill="black" > 0</text>
<text x="12" y="164" font-family="Verdana" font-size="10" text-anchor="middle"  dominant-baseline="middle" fill="black" > 144</text>
<text x="12" y="308" font-family="Verdana" font-size="10" text-anchor="middle"  dominant-baseline="middle" fill="black" > 288</text>
<text x="12" y="452" font-family="Verdana" font-size="10" text-anchor="middle"  dominant-baseline="middle" fill="black" > 432</text>
<text x="12" y="596" font-family="Verdana" font-size="10" text-anchor="middle"  dominant-baseline="middle" fill="black" > 576</text>
<text x="12" y="740" font-family="Verdana" font-size="10" text-anchor="middle"  dominant-baseline="middle" fill="black" > 720</text>
<text x="250" y="7" font-family="Verdana" font-size="7" text-anchor="middle"  dominant-baseline="middle" fill="black" > C1</text>
<circle cx="250" cy="15" r="4" fill="white" stroke="black" />
<line x1="250" y1="19" x2="250" y2="207" stroke="black" />
<line x1="50" y1="207" x2="450" y2="207" stroke="black" />
<text x="275" y="199" font-family="Verdana" font-size="8" text-anchor="middle"  dominant-baseline="middle" fill="black" > 192</text>
<circle cx="50" cy="207" r="4" fill="white" stroke="black" />
<line x1="50" y1="211" x2="50" y2="426" stroke="black" />
<line x1="46" y1="422" x2="54" y2="430" stroke="red" />
<line x1="46" y1="430" x2="54" y2="422" stroke="red" />
<text x="50" y="438" font-family="Verdana" font-size="8" text-anchor="middle"  dominant-baseline="middle" fill="black" > 411</text>
<circle cx="150" cy="207" r="4" fill="white" stroke="black" />
<line x1="150" y1="211" x2="150" y2="441" stroke="black" />
<line x1="146" y1="437" x2="154" y2="445" stroke="red" />
<line x1="146" y1="445" x2="154" y2="437" stroke="red" />
<text x="150" y="453" font-family="Verdana" font-size="8" text-anchor="middle"  dominant-baseline="middle" fill="black" > 426</text>
<circle cx="250" cy="207" r="4" fill="white" stroke="black" />
<line x1="250" y1="211" x2="250" y2="391" stroke="black" />
<line x1="246" y1="387" x2="254" y2="395" stroke="red" />
<line x1="246" y1="395" x2="254" y2="387" stroke="red" />
<text x="250" y="403" font-family="Verdana" font-size="8" text-anchor="middle"  dominant-baseline="middle" fill="black" > 376</text>
<circle cx="350" cy="207" r="4" fill="white" stroke="black" />
<circle cx="450" cy="207" r="4" fill="white" stroke="black" />
<line x1="350" y1="211" x2="350" y2="339" stroke="black" />
<line x1="350" y1="339" x2="400" y2="383" stroke="black" />
<line x1="450" y1="211" x2="450" y2="339" stroke="black" />
<line x1="450" y1="339" x2="400" y2="383" stroke="black" />
<text x="400" y="371" font-family="Verdana" font-size="8" text-anchor="middle"  dominant-baseline="middle" fill="black" > 368</text>
<circle cx="400" cy="383" r="4" fill="white" stroke="black" />
<line x1="400" y1="387" x2="400" y2="391" stroke="black" />
<line x1="396" y1="387" x2="404" y2="395" stroke="red" />
<line x1="396" y1="395" x2="404" y2="387" stroke="red" />
<text x="400" y="403" font-family="Verdana" font-size="8" text-anchor="middle"  dominant-baseline="middle" fill="black" > 376</text>
<text x="550" y="7" font-family="Verdana" font-size="7" text-anchor="middle"  dominant-baseline="middle" fill="black" > C2</text>
<circle cx="550" cy="15" r="4" fill="white" stroke="black" />
<line x1="550" y1="19" x2="550" y2="405" stroke="black" />
<line x1="546" y1="401" x2="554" y2="409" stroke="red" />
<line x1="546" y1="409" x2="554" y2="401" stroke="red" />
<text x="550" y="417" font-family="Verdana" font-size="8" text-anchor="middle"  dominant-baseline="middle" fill="black" > 390</text>
<text x="700" y="7" font-family="Verdana" font-size="7" text-anchor="middle"  dominant-baseline="middle" fill="black" > C3</text>
<circle cx="700" cy="15" r="4" fill="white" stroke="black" />
<line x1="700" y1="19" x2="700" y2="268" stroke="black" />
<line x1="650" y1="268" x2="750" y2="268" stroke="black" />
<text x="725" y="260" font-family="Verdana" font-size="8" text-anchor="middle"  dominant-baseline="middle" fill="black" > 253</text>
<circle cx="650" cy="268" r="4" fill="white" stroke="black" />
<circle cx="750" cy="268" r="4" fill="white" stroke="black" />
<line x1="650" y1="272" x2="650" y2="275" stroke="black" />
<line x1="650" y1="275" x2="700" y2="277" stroke="black" />
<line x1="750" y1="272" x2="750" y2="275" stroke="black" />
<line x1="750" y1="275" x2="700" y2="277" stroke="black" />
<text x="700" y="265" font-family="Verdana" font-size="8" text-anchor="middle"  dominant-baseline="middle" fill="black" > 262</text>
<circle cx="700" cy="277" r="4" fill="white" stroke="black" />
<line x1="700" y1="281" x2="700" y2="307" stroke="black" />
<line x1="675" y1="307" x2="725" y2="307" stroke="black" />
<text x="712" y="299" font-family="Verdana" font-size="8" text-anchor="middle"  dominant-baseline="middle" fill="black" > 292</text>
<circle cx="675" cy="307" r="4" fill="white" stroke="black" />
<line x1="675" y1="311" x2="675" y2="446" stroke="black" />
<line x1="671" y1="442" x2="679" y2="450" stroke="red" />
<line x1="671" y1="450" x2="679" y2="442" stroke="red" />
<text x="675" y="458" font-family="Verdana" font-size="8" text-anchor="middle"  dominant-baseline="middle" fill="black" > 431</text>
<circle cx="725" cy="307" r="4" fill="white" stroke="black" />
<line x1="725" y1="311" x2="725" y2="488" stroke="black" />
<line x1="721" y1="484" x2="729" y2="492" stroke="red" />
<line x1="721" y1="492" x2="729" y2="484" stroke="red" />
<text x="725" y="500" font-family="Verdana" font-size="8" text-anchor="middle"  dominant-baseline="middle" fill="black" > 473</text>
<text x="850" y="7" font-family="Verdana" font-size="7" text-anchor="middle"  dominant-baseline="middle" fill="black" > C4</text>
<circle cx="850" cy="15" r="4" fill="white" stroke="black" />
<line x1="850" y1="19" x2="850" y2="368" stroke="black" />
<line x1="846" y1="364" x2="854" y2="372" stroke="red" />
<line x1="846" y1="372" x2="854" y2="364" stroke="red" />
<text x="850" y="380" font-family="Verdana" font-size="8" text-anchor="middle"  dominant-baseline="middle" fill="black" > 353</text>
<text x="1000" y="7" font-family="Verdana" font-size="7" text-anchor="middle"  dominant-baseline="middle" fill="black" > C5</text>
<circle cx="1000" cy="15" r="4" fill="white" stroke="black" />
<line x1="1000" y1="19" x2="1000" y2="294" stroke="black" />
<line x1="950" y1="294" x2="1050" y2="294" stroke="black" />
<text x="1025" y="286" font-family="Verdana" font-size="8" text-anchor="middle"  dominant-baseline="middle" fill="black" > 279</text>
<circle cx="950" cy="294" r="4" fill="white" stroke="black" />
<line x1="950" y1="298" x2="950" y2="736" stroke="black" />
<circle cx="950" cy="736" r="4" fill="white" stroke="black" />
<text x="950" y="748" font-family="Verdana" font-size="8" text-anchor="middle"  dominant-baseline="middle" fill="black" > 721</text>
<circle cx="1050" cy="294" r="4" fill="white" stroke="black" />
<line x1="1050" y1="298" x2="1050" y2="547" stroke="black" />
<line x1="1046" y1="543" x2="1054" y2="551" stroke="red" />
<line x1="1046" y1="551" x2="1054" y2="543" stroke="red" />
<text x="1050" y="559" font-family="Verdana" font-size="8" text-anchor="middle"  dominant-baseline="middle" fill="black" > 532</text>
<text x="1200" y="7" font-family="Verdana" font-size="7" text-anchor="middle"  dominant-baseline="middle" fill="black" > C6</text>
<circle cx="1200" cy="15" r="4" fill="white" stroke="black" />
<line x1="1200" y1="19" x2="1200" y2="286" stroke="black" />
<line x1="1150" y1="286" x2="1250" y2="286" stroke="black" />
<text x="1225" y="278" font-family="Verdana" font-size="8" text-anchor="middle"  dominant-baseline="middle" fill="black" > 271</text>
<circle cx="1150" cy="286" r="4" fill="white" stroke="black" />
<line x1="1150" y1="290" x2="1150" y2="523" stroke="black" />
<line x1="1146" y1="519" x2="1154" y2="527" stroke="red" />
<line x1="1146" y1="527" x2="1154" y2="519" stroke="red" />
<text x="1150" y="535" font-family="Verdana" font-size="8" text-anchor="middle"  dominant-baseline="middle" fill="black" > 508</text>
<circle cx="1250" cy="286" r="4" fill="white" stroke="black" />
<line x1="1250" y1="290" x2="1250" y2="736" stroke="black" />
<circle cx="1250" cy="736" r="4" fill="white" stroke="black" />
<text x="1250" y="748" font-family="Verdana" font-size="8" text-anchor="middle"  dominant-baseline="middle" fill="black" > 721</text>
</svg>
