<?xml version="1.0" encoding="utf-8"?>
<svg xmlns="http://www.w3.org/2000/svg" version="1.1" width="1350" height="750">
<rect width="1350" height="15" x="0" y="0" fill="white" />
<rect width="1350" height="15" x="0" y="735" fill="white" />
<rect width="25" height="750" x="0" y="0" fill="white" />
<rect width="25" height="750" x="1325" y="0" fill="white" />
<rect width="1310" height="144" x="25" y="15" fill="ghostwhite" />
<rect width="1310" height="144" x="25" y="159" fill="snow" />
<rect width="1310" height="144" x="25" y="303" fill="ghostwhite" />
<rect width="1310" height="144" x="25" y="447" fill="snow" />
<rect width="1310" height="144" x="25" y="591" fill="ghostwhite" />
<text x="12" y="87" font-family="Verdana" font-size="10" text-anchor="middle"  dominant-baseline="middle" fill="red" > D0</text>
<text x="12" y="231" font-family="Verdana" font-size="10" text-anchor="middle"  dominant-baseline="middle" fill="red" > D1</text>
<text x="12" y="375" font-family="Verdana" font-size="10" text-anchor="middle"  dominant-baseline="middle" fill="red" > D2</text>
<text x="12" y="519" font-family="Verdana" font-size="10" text-anchor="middle"  dominant-baseline="middle" fill="red" > D3</text>
<text x="12" y="663" font-family="Verdana" font-size="10" text-anchor="middle"  dominant-baseline="middle" fill="red" > D4</text>
<text x="12" y="20" font-family="Verdana" font-size="10" text-anchor="middle"  dominant-baseline="middle" fill="black" > 0</text>
<text x="12" y="164" font-family="Verdana" font-size="10" text-anchor="middle"  dominant-baseline="middle" fill="black" > 144</text>
<text x="12" y="308" font-family="Verdana" font-size="10" text-anchor="middle"  dominant-baseline="middle" fill="black" > 288</text>
<text x="12" y="452" font-family="Verdana" font-size="10" text-anchor="middle"  dominant-baseline="middle" fill="black" > 432</text>
<text x="12" y="596" font-family="Verdana" font-size="10" text-anchor="middle"  dominant-baseline="middle" fill="black" > 576</text>
<text x="12" y="740" font-family="Verdana" font-size="10" text-anchor="middle"  dominant-baseline="middle" fill="black" > 720</text>
<text x="100" y="7" font-family="Verdana" font-size="7" text-anchor="middle"  dominant-baseline="middle" fill="black" > C1</text>
<circle cx="100" cy="15" r="4" fill="white" stroke="black" />
<line x1="100" y1="19" x2="100" y2="173" stroke="black" />
<line x1="50" y1="173" x2="150" y2="173" stroke="black" />
<text x="125" y="165" font-family="Verdana" font-size="8" text-anchor="middle"  dominant-baseline="middle" fill="black" > 158</text>
<circle cx="50" cy="173" r="4" fill="white" stroke="black" />
<line x1="50" y1="177" x2="50" y2="183" stroke="black" />
<line x1="46" y1="187" x2="50" y2="179" stroke="blue" />
<line x1="50" y1="187" x2="54" y2="179" stroke="blue" />
<text x="50" y="195" font-family="Verdana" font-size="8" text-anchor="middle"  dominant-baseline="middle" fill="black" > 168</text>
<circle cx="150" cy="173" r="4" fill="white" stroke="black" />
<line x1="150" y1="177" x2="150" y2="177" stroke="black" />
<line x1="146" y1="181" x2="150" y2="173" stroke="blue" />
<line x1="150" y1="181" x2="154" y2="173" stroke="blue" />
<text x="150" y="189" font-family="Verdana" font-size="8" text-anchor="middle"  dominant-baseline="middle" fill="black" > 162</text>
<text x="250" y="7" font-family="Verdana" font-size="7" text-anchor="middle"  dominant-baseline="middle" fill="black" > C2</text>
<circle cx="250" cy="15" r="4" fill="white" stroke="black" />
<line x1="250" y1="19" x2="250" y2="156" stroke="black" />
<line x1="246" y1="160" x2="250" y2="152" stroke="blue" />
<line x1="250" y1="160" x2="254" y2="152" stroke="blue" />
<text x="250" y="168" font-family="Verdana" font-size="8" text-anchor="middle"  dominant-baseline="middle" fill="black" > 141</text>
<text x="400" y="7" font-family="Verdana" font-size="7" text-anchor="middle"  dominant-baseline="middle" fill="black" > C3</text>
<circle cx="400" cy="15" r="4" fill="white" stroke="black" />
<line x1="400" y1="19" x2="400" y2="219" stroke="black" />
<line x1="350" y1="219" x2="450" y2="219" stroke="black" />
<text x="425" y="211" font-family="Verdana" font-size="8" text-anchor="middle"  dominant-baseline="middle" fill="black" > 204</text>
<circle cx="350" cy="219" r="4" fill="white" stroke="black" />
<line x1="350" y1="223" x2="350" y2="567" stroke="black" />
<line x1="325" y1="567" x2="375" y2="567" stroke="black" />
<text x="362" y="559" font-family="Verdana" font-size="8" text-anchor="middle"  dominant-baseline="middle" fill="black" > 552</text>
<circle cx="325" cy="567" r="4" fill="white" stroke="black" />
<line x1="325" y1="571" x2="325" y2="736" stroke="black" />
<circle cx="325" cy="736" r="4" fill="white" stroke="black" />
<text x="325" y="748" font-family="Verdana" font-size="8" text-anchor="middle"  dominant-baseline="middle" fill="black" > 721</text>
<circle cx="375" cy="567" r="4" fill="white" stroke="black" />
<line x1="375" y1="571" x2="375" y2="736" stroke="black" />
<circle cx="375" cy="736" r="4" fill="white" stroke="black" />
<text x="375" y="748" font-family="Verdana" font-size="8" text-anchor="middle"  dominant-baseline="middle" fill="black" > 721</text>
<circle cx="450" cy="219" r="4" fill="white" stroke="black" />
<line x1="450" y1="223" x2="450" y2="404" stroke="black" />
<line x1="425" y1="404" x2="475" y2="404" stroke="black" />
<text x="462" y="396" font-family="Verdana" font-size="8" text-anchor="middle"  dominant-baseline="middle" fill="black" > 389</text>
<circle cx="425" cy="404" r="4" fill="white" stroke="black" />
<line x1="425" y1="408" x2="425" y2="582" stroke="black" />
<line x1="412" y1="582" x2="438" y2="582" stroke="black" />
<text x="431" y="574" font-family="Verdana" font-size="8" text-anchor="middle"  dominant-baseline="middle" fill="black" > 567</text>
<circle cx="412" cy="582" r="4" fill="white" stroke="black" />
<line x1="412" y1="586" x2="412" y2="736" stroke="black" />
<circle cx="412" cy="736" r="4" fill="white" stroke="black" />
<text x="412" y="748" font-family="Verdana" font-size="8" text-anchor="middle"  dominant-baseline="middle" fill="black" > 721</text>
<circle cx="437" cy="582" r="4" fill="white" stroke="black" />
<line x1="437" y1="586" x2="437" y2="736" stroke="black" />
<circle cx="437" cy="736" r="4" fill="white" stroke="black" />
<text x="437" y="748" font-family="Verdana" font-size="8" text-anchor="middle"  dominant-baseline="middle" fill="black" > 721</text>
<circle cx="475" cy="404" r="4" fill="white" stroke="black" />
<line x1="475" y1="408" x2="475" y2="541" stroke="black" />
<line x1="462" y1="541" x2="488" y2="541" stroke="black" />
<text x="481" y="533" font-family="Verdana" font-size="8" text-anchor="middle"  dominant-baseline="middle" fill="black" > 526</text>
<circle cx="462" cy="541" r="4" fill="white" stroke="black" />
<line x1="462" y1="545" x2="462" y2="711" stroke="black" />
<line x1="456" y1="711" x2="469" y2="711" stroke="black" />
<text x="465" y="703" font-family="Verdana" font-size="8" text-anchor="middle"  dominant-baseline="middle" fill="black" > 696</text>
<circle cx="456" cy="711" r="4" fill="white" stroke="black" />
<line x1="456" y1="715" x2="456" y2="736" stroke="black" />
<circle cx="456" cy="736" r="4" fill="white" stroke="black" />
<text x="456" y="748" font-family="Verdana" font-size="8" text-anchor="middle"  dominant-baseline="middle" fill="black" > 721</text>
<circle cx="468" cy="711" r="4" fill="white" stroke="black" />
<line x1="468" y1="715" x2="468" y2="736" stroke="black" />
<circle cx="468" cy="736" r="4" fill="white" stroke="black" />
<text x="468" y="748" font-family="Verdana" font-size="8" text-anchor="middle"  dominant-baseline="middle" fill="black" > 721</text>
<circle cx="487" cy="541" r="4" fill="white" stroke="black" />
<line x1="487" y1="545" x2="487" y2="697" stroke="black" />
<line x1="481" y1="697" x2="494" y2="697" stroke="black" />
<text x="490" y="689" font-family="Verdana" font-size="8" text-anchor="middle"  dominant-baseline="middle" fill="black" > 682</text>
<circle cx="481" cy="697" r="4" fill="white" stroke="black" />
<line x1="481" y1="701" x2="481" y2="736" stroke="black" />
<circle cx="481" cy="736" r="4" fill="white" stroke="black" />
<text x="481" y="748" font-family="Verdana" font-size="8" text-anchor="middle"  dominant-baseline="middle" fill="black" > 721</text>
<circle cx="493" cy="697" r="4" fill="white" stroke="black" />
<line x1="493" y1="701" x2="493" y2="736" stroke="black" />
<circle cx="493" cy="736" r="4" fill="white" stroke="black" />
<text x="493" y="748" font-family="Verdana" font-size="8" text-anchor="middle"  dominant-baseline="middle" fill="black" > 721</text>
<text x="600" y="7" font-family="Verdana" font-size="7" text-anchor="middle"  dominant-baseline="middle" fill="black" > C4</text>
<circle cx="600" cy="15" r="4" fill="white" stroke="black" />
<line x1="600" y1="19" x2="600" y2="158" stroke="black" />
<line x1="550" y1="158" x2="650" y2="158" stroke="black" />
<text x="625" y="150" font-family="Verdana" font-size="8" text-anchor="middle"  dominant-baseline="middle" fill="black" > 143</text>
<circle cx="550" cy="158" r="4" fill="white" stroke="black" />
<line x1="550" y1="162" x2="550" y2="402" stroke="black" />
<line x1="525" y1="402" x2="575" y2="402" stroke="black" />
<text x="562" y="394" font-family="Verdana" font-size="8" text-anchor="middle"  dominant-baseline="middle" fill="black" > 387</text>
<circle cx="525" cy="402" r="4" fill="white" stroke="black" />
<line x1="525" y1="406" x2="525" y2="619" stroke="black" />
<line x1="512" y1="619" x2="538" y2="619" stroke="black" />
<text x="531" y="611" font-family="Verdana" font-size="8" text-anchor="middle"  dominant-baseline="middle" fill="black" > 604</text>
<circle cx="512" cy="619" r="4" fill="white" stroke="black" />
<line x1="512" y1="623" x2="512" y2="736" stroke="black" />
<circle cx="512" cy="736" r="4" fill="white" stroke="black" />
<text x="512" y="748" font-family="Verdana" font-size="8" text-anchor="middle"  dominant-baseline="middle" fill="black" > 721</text>
<circle cx="537" cy="619" r="4" fill="white" stroke="black" />
<line x1="537" y1="623" x2="537" y2="736" stroke="black" />
<circle cx="537" cy="736" r="4" fill="white" stroke="black" />
<text x="537" y="748" font-family="Verdana" font-size="8" text-anchor="middle"  dominant-baseline="middle" fill="black" > 721</text>
<circle cx="575" cy="402" r="4" fill="white" stroke="black" />
<line x1="575" y1="406" x2="575" y2="623" stroke="black" />
<line x1="562" y1="623" x2="588" y2="623" stroke="black" />
<text x="581" y="615" font-family="Verdana" font-size="8" text-anchor="middle"  dominant-baseline="middle" fill="black" > 608</text>
<circle cx="562" cy="623" r="4" fill="white" stroke="black" />
<line x1="562" y1="627" x2="562" y2="736" stroke="black" />
<circle cx="562" cy="736" r="4" fill="white" stroke="black" />
<text x="562" y="748" font-family="Verdana" font-size="8" text-anchor="middle"  dominant-baseline="middle" fill="black" > 721</text>
<circle cx="587" cy="623" r="4" fill="white" stroke="black" />
<line x1="587" y1="627" x2="587" y2="736" stroke="black" />
<circle cx="587" cy="736" r="4" fill="white" stroke="black" />
<text x="587" y="748" font-family="Verdana" font-size="8" text-anchor="middle"  dominant-baseline="middle" fill="black" > 721</text>
<circle cx="650" cy="158" r="4" fill="white" stroke="black" />
<line x1="650" y1="162" x2="650" y2="430" stroke="black" />
<line x1="625" y1="430" x2="675" y2="430" stroke="black" />
<text x="662" y="422" font-family="Verdana" font-size="8" text-anchor="middle"  dominant-baseline="middle" fill="black" > 415</text>
<circle cx="625" cy="430" r="4" fill="white" stroke="black" />
<line x1="625" y1="434" x2="625" y2="634" stroke="black" />
<line x1="612" y1="634" x2="638" y2="634" stroke="black" />
<text x="631" y="626" font-family="Verdana" font-size="8" text-anchor="middle"  dominant-baseline="middle" fill="black" > 619</text>
<circle cx="612" cy="634" r="4" fill="white" stroke="black" />
<line x1="612" y1="638" x2="612" y2="736" stroke="black" />
<circle cx="612" cy="736" r="4" fill="white" stroke="black" />
<text x="612" y="748" font-family="Verdana" font-size="8" text-anchor="middle"  dominant-baseline="middle" fill="black" > 721</text>
<circle cx="637" cy="634" r="4" fill="white" stroke="black" />
<line x1="637" y1="638" x2="637" y2="736" stroke="black" />
<circle cx="637" cy="736" r="4" fill="white" stroke="black" />
<text x="637" y="748" font-family="Verdana" font-size="8" text-anchor="middle"  dominant-baseline="middle" fill="black" > 721</text>
<circle cx="675" cy="430" r="4" fill="white" stroke="black" />
<line x1="675" y1="434" x2="675" y2="653" stroke="black" />
<line x1="662" y1="653" x2="688" y2="653" stroke="black" />
<text x="681" y="645" font-family="Verdana" font-size="8" text-anchor="middle"  dominant-baseline="middle" fill="black" > 638</text>
<circle cx="662" cy="653" r="4" fill="white" stroke="black" />
<line x1="662" y1="657" x2="662" y2="736" stroke="black" />
<circle cx="662" cy="736" r="4" fill="white" stroke="black" />
<text x="662" y="748" font-family="Verdana" font-size="8" text-anchor="middle"  dominant-baseline="middle" fill="black" > 721</text>
<circle cx="687" cy="653" r="4" fill="white" stroke="black" />
<line x1="687" y1="657" x2="687" y2="736" stroke="black" />
<circle cx="687" cy="736" r="4" fill="white" stroke="black" />
<text x="687" y="748" font-family="Verdana" font-size="8" text-anchor="middle"  dominant-baseline="middle" fill="black" > 721</text>
<text x="800" y="7" font-family="Verdana" font-size="7" text-anchor="middle"  dominant-baseline="middle" fill="black" > C5</text>
<circle cx="800" cy="15" r="4" fill="white" stroke="black" />
<line x1="800" y1="19" x2="800" y2="159" stroke="black" />
<line x1="750" y1="159" x2="850" y2="159" stroke="black" />
<text x="825" y="151" font-family="Verdana" font-size="8" text-anchor="middle"  dominant-baseline="middle" fill="black" > 144</text>
<circle cx="750" cy="159" r="4" fill="white" stroke="black" />
<line x1="750" y1="163" x2="750" y2="359" stroke="black" />
<line x1="725" y1="359" x2="775" y2="359" stroke="black" />
<text x="762" y="351" font-family="Verdana" font-size="8" text-anchor="middle"  dominant-baseline="middle" fill="black" > 344</text>
<circle cx="725" cy="359" r="4" fill="white" stroke="black" />
<line x1="725" y1="363" x2="725" y2="608" stroke="black" />
<line x1="712" y1="608" x2="738" y2="608" stroke="black" />
<text x="731" y="600" font-family="Verdana" font-size="8" text-anchor="middle"  dominant-baseline="middle" fill="black" > 593</text>
<circle cx="712" cy="608" r="4" fill="white" stroke="black" />
<line x1="712" y1="612" x2="712" y2="736" stroke="black" />
<circle cx="712" cy="736" r="4" fill="white" stroke="black" />
<text x="712" y="748" font-family="Verdana" font-size="8" text-anchor="middle"  dominant-baseline="middle" fill="black" > 721</text>
<circle cx="737" cy="608" r="4" fill="white" stroke="black" />
<line x1="737" y1="612" x2="737" y2="736" stroke="black" />
<circle cx="737" cy="736" r="4" fill="white" stroke="black" />
<text x="737" y="748" font-family="Verdana" font-size="8" text-anchor="middle"  dominant-baseline="middle" fill="black" > 721</text>
<circle cx="775" cy="359" r="4" fill="white" stroke="black" />
<line x1="775" y1="363" x2="775" y2="736" stroke="black" />
<circle cx="775" cy="736" r="4" fill="white" stroke="black" />
<text x="775" y="748" font-family="Verdana" font-size="8" text-anchor="middle"  dominant-baseline="middle" fill="black" > 721</text>
<circle cx="850" cy="159" r="4" fill="white" stroke="black" />
<line x1="850" y1="163" x2="850" y2="333" stroke="black" />
<line x1="825" y1="333" x2="875" y2="333" stroke="black" />
<text x="862" y="325" font-family="Verdana" font-size="8" text-anchor="middle"  dominant-baseline="middle" fill="black" > 318</text>
<circle cx="825" cy="333" r="4" fill="white" stroke="black" />
<line x1="825" y1="337" x2="825" y2="608" stroke="black" />
<line x1="812" y1="608" x2="838" y2="608" stroke="black" />
<text x="831" y="600" font-family="Verdana" font-size="8" text-anchor="middle"  dominant-baseline="middle" fill="black" > 593</text>
<circle cx="812" cy="608" r="4" fill="white" stroke="black" />
<line x1="812" y1="612" x2="812" y2="736" stroke="black" />
<circle cx="812" cy="736" r="4" fill="white" stroke="black" />
<text x="812" y="748" font-family="Verdana" font-size="8" text-anchor="middle"  dominant-baseline="middle" fill="black" > 721</text>
<circle cx="837" cy="608" r="4" fill="white" stroke="black" />
<line x1="837" y1="612" x2="837" y2="736" stroke="black" />
<circle cx="837" cy="736" r="4" fill="white" stroke="black" />
<text x="837" y="748" font-family="Verdana" font-size="8" text-anchor="middle"  dominant-baseline="middle" fill="black" > 721</text>
<circle cx="875" cy="333" r="4" fill="white" stroke="black" />
<line x1="875" y1="337" x2="875" y2="648" stroke="black" />
<line x1="862" y1="648" x2="888" y2="648" stroke="black" />
<text x="881" y="640" font-family="Verdana" font-size="8" text-anchor="middle"  dominant-baseline="middle" fill="black" > 633</text>
<circle cx="862" cy="648" r="4" fill="white" stroke="black" />
<line x1="862" y1="652" x2="862" y2="736" stroke="black" />
<circle cx="862" cy="736" r="4" fill="white" stroke="black" />
<text x="862" y="748" font-family="Verdana" font-size="8" text-anchor="middle"  dominant-baseline="middle" fill="black" > 721</text>
<circle cx="887" cy="648" r="4" fill="white" stroke="black" />
<line x1="887" y1="652" x2="887" y2="736" stroke="black" />
<circle cx="887" cy="736" r="4" fill="white" stroke="black" />
<text x="887" y="748" font-family="Verdana" font-size="8" text-anchor="middle"  dominant-baseline="middle" fill="black" > 721</text>
<text x="1000" y="7" font-family="Verdana" font-size="7" text-anchor="middle"  dominant-baseline="middle" fill="black" > C6</text>
<circle cx="1000" cy="15" r="4" fill="white" stroke="black" />
<line x1="1000" y1="19" x2="1000" y2="62" stroke="black" />
<line x1="950" y1="62" x2="1050" y2="62" stroke="black" />
<text x="1025" y="54" font-family="Verdana" font-size="8" text-anchor="middle"  dominant-baseline="middle" fill="black" > 47</text>
<circle cx="950" cy="62" r="4" fill="white" stroke="black" />
<line x1="950" y1="66" x2="950" y2="736" stroke="black" />
<circle cx="950" cy="736" r="4" fill="white" stroke="black" />
<text x="950" y="748" font-family="Verdana" font-size="8" text-anchor="middle"  dominant-baseline="middle" fill="black" > 721</text>
<circle cx="1050" cy="62" r="4" fill="white" stroke="black" />
<line x1="1050" y1="66" x2="1050" y2="520" stroke="black" />
<line x1="1025" y1="520" x2="1075" y2="520" stroke="black" />
<text x="1062" y="512" font-family="Verdana" font-size="8" text-anchor="middle"  dominant-baseline="middle" fill="black" > 505</text>
<circle cx="1025" cy="520" r="4" fill="white" stroke="black" />
<line x1="1025" y1="524" x2="1025" y2="664" stroke="black" />
<line x1="1012" y1="664" x2="1038" y2="664" stroke="black" />
<text x="1031" y="656" font-family="Verdana" font-size="8" text-anchor="middle"  dominant-baseline="middle" fill="black" > 649</text>
<circle cx="1012" cy="664" r="4" fill="white" stroke="black" />
<line x1="1012" y1="668" x2="1012" y2="736" stroke="black" />
<circle cx="1012" cy="736" r="4" fill="white" stroke="black" />
<text x="1012" y="748" font-family="Verdana" font-size="8" text-anchor="middle"  dominant-baseline="middle" fill="black" > 721</text>
<circle cx="1037" cy="664" r="4" fill="white" stroke="black" />
<line x1="1037" y1="668" x2="1037" y2="736" stroke="black" />
<circle cx="1037" cy="736" r="4" fill="white" stroke="black" />
<text x="1037" y="748" font-family="Verdana" font-size="8" text-anchor="middle"  dominant-baseline="middle" fill="black" > 721</text>
<circle cx="1075" cy="520" r="4" fill="white" stroke="black" />
<line x1="1075" y1="524" x2="1075" y2="736" stroke="black" />
<circle cx="1075" cy="736" r="4" fill="white" stroke="black" />
<text x="1075" y="748" font-family="Verdana" font-size="8" text-anchor="middle"  dominant-baseline="middle" fill="black" > 721</text>
<text x="1200" y="7" font-family="Verdana" font-size="7" text-anchor="middle"  dominant-baseline="middle" fill="black" > C7</text>
<circle cx="1200" cy="15" r="4" fill="white" stroke="black" />
<line x1="1200" y1="19" x2="1200" y2="105" stroke="black" />
<line x1="1150" y1="105" x2="1250" y2="105" stroke="black" />
<text x="1225" y="97" font-family="Verdana" font-size="8" text-anchor="middle"  dominant-baseline="middle" fill="black" > 90</text>
<circle cx="1150" cy="105" r="4" fill="white" stroke="black" />
<line x1="1150" y1="109" x2="1150" y2="473" stroke="black" />
<line x1="1125" y1="473" x2="1175" y2="473" stroke="black" />
<text x="1162" y="465" font-family="Verdana" font-size="8" text-anchor="middle"  dominant-baseline="middle" fill="black" > 458</text>
<circle cx="1125" cy="473" r="4" fill="white" stroke="black" />
<line x1="1125" y1="477" x2="1125" y2="677" stroke="black" />
<line x1="1112" y1="677" x2="1138" y2="677" stroke="black" />
<text x="1131" y="669" font-family="Verdana" font-size="8" text-anchor="middle"  dominant-baseline="middle" fill="black" > 662</text>
<circle cx="1112" cy="677" r="4" fill="white" stroke="black" />
<line x1="1112" y1="681" x2="1112" y2="736" stroke="black" />
<circle cx="1112" cy="736" r="4" fill="white" stroke="black" />
<text x="1112" y="748" font-family="Verdana" font-size="8" text-anchor="middle"  dominant-baseline="middle" fill="black" > 721</text>
<circle cx="1137" cy="677" r="4" fill="white" stroke="black" />
<line x1="1137" y1="681" x2="1137" y2="736" stroke="black" />
<circle cx="1137" cy="736" r="4" fill="white" stroke="black" />
<text x="1137" y="748" font-family="Verdana" font-size="8" text-anchor="middle"  dominant-baseline="middle" fill="black" > 721</text>
<circle cx="1175" cy="473" r="4" fill="white" stroke="black" />
<line x1="1175" y1="477" x2="1175" y2="644" stroke="black" />
<line x1="1162" y1="644" x2="1188" y2="644" stroke="black" />
<text x="1181" y="636" font-family="Verdana" font-size="8" text-anchor="middle"  dominant-baseline="middle" fill="black" > 629</text>
<circle cx="1162" cy="644" r="4" fill="white" stroke="black" />
<line x1="1162" y1="648" x2="1162" y2="736" stroke="black" />
<circle cx="1162" cy="736" r="4" fill="white" stroke="black" />
<text x="1162" y="748" font-family="Verdana" font-size="8" text-anchor="middle"  dominant-baseline="middle" fill="black" > 721</text>
<circle cx="1187" cy="644" r="4" fill="white" stroke="black" />
<line x1="1187" y1="648" x2="1187" y2="736" stroke="black" />
<circle cx="1187" cy="736" r="4" fill="white" stroke="black" />
<text x="1187" y="748" font-family="Verdana" font-size="8" text-anchor="middle"  dominant-baseline="middle" fill="black" > 721</text>
<circle cx="1250" cy="105" r="4" fill="white" stroke="black" />
<line x1="1250" y1="109" x2="1250" y2="465" stroke="black" />
<line x1="1225" y1="465" x2="1275" y2="465" stroke="black" />
<text x="1262" y="457" font-family="Verdana" font-size="8" text-anchor="middle"  dominant-baseline="middle" fill="black" > 450</text>
<circle cx="1225" cy="465" r="4" fill="white" stroke="black" />
<line x1="1225" y1="469" x2="1225" y2="621" stroke="black" />
<line x1="1212" y1="621" x2="1238" y2="621" stroke="black" />
<text x="1231" y="613" font-family="Verdana" font-size="8" text-anchor="middle"  dominant-baseline="middle" fill="black" > 606</text>
<circle cx="1212" cy="621" r="4" fill="white" stroke="black" />
<line x1="1212" y1="625" x2="1212" y2="736" stroke="black" />
<circle cx="1212" cy="736" r="4" fill="white" stroke="black" />
<text x="1212" y="748" font-family="Verdana" font-size="8" text-anchor="middle"  dominant-baseline="middle" fill="black" > 721</text>
<circle cx="1237" cy="621" r="4" fill="white" stroke="black" />
<line x1="1237" y1="625" x2="1237" y2="736" stroke="black" />
<circle cx="1237" cy="736" r="4" fill="white" stroke="black" />
<text x="1237" y="748" font-family="Verdana" font-size="8" text-anchor="middle"  dominant-baseline="middle" fill="black" > 721</text>
<circle cx="1275" cy="465" r="4" fill="white" stroke="black" />
<line x1="1275" y1="469" x2="1275" y2="633" stroke="black" />
<line x1="1262" y1="633" x2="1288" y2="633" stroke="black" />
<text x="1281" y="625" font-family="Verdana" font-size="8" text-anchor="middle"  dominant-baseline="middle" fill="black" > 618</text>
<circle cx="1262" cy="633" r="4" fill="white" stroke="black" />
<line x1="1262" y1="637" x2="1262" y2="736" stroke="black" />
<circle cx="1262" cy="736" r="4" fill="white" stroke="black" />
<text x="1262" y="748" font-family="Verdana" font-size="8" text-anchor="middle"  dominant-baseline="middle" fill="black" > 721</text>
<circle cx="1287" cy="633" r="4" fill="white" stroke="black" />
<line x1="1287" y1="637" x2="1287" y2="736" stroke="black" />
<circle cx="1287" cy="736" r="4" fill="white" stroke="black" />
<text x="1287" y="748" font-family="Verdana" font-size="8" text-anchor="middle"  dominant-baseline="middle" fill="black" > 721</text>
</svg>
