<?xml version="1.0" encoding="utf-8"?>
<svg xmlns="http://www.w3.org/2000/svg" version="1.1" width="1850" height="750">
<rect width="1850" height="15" x="0" y="0" fill="white" />
<rect width="1850" height="15" x="0" y="735" fill="white" />
<rect width="25" height="750" x="0" y="0" fill="white" />
<rect width="25" height="750" x="1825" y="0" fill="white" />
<rect width="1810" height="144" x="25" y="15" fill="ghostwhite" />
<rect width="1810" height="144" x="25" y="159" fill="snow" />
<rect width="1810" height="144" x="25" y="303" fill="ghostwhite" />
<rect width="1810" height="144" x="25" y="447" fill="snow" />
<rect width="1810" height="144" x="25" y="591" fill="ghostwhite" />
<text x="12" y="87" font-family="Verdana" font-size="10" text-anchor="middle"  dominant-baseline="middle" fill="red" > D0</text>
<text x="12" y="231" font-family="Verdana" font-size="10" text-anchor="middle"  dominant-baseline="middle" fill="red" > D1</text>
<text x="12" y="375" font-family="Verdana" font-size="10" text-anchor="middle"  dominant-baseline="middle" fill="red" > D2</text>
<text x="12" y="519" font-family="Verdana" font-size="10" text-anchor="middle"  dominant-baseline="middle" fill="red" > D3</text>
<text x="12" y="663" font-family="Verdana" font-size="10" text-anchor="middle"  dominant-baseline="middle" fill="red" > D4</text>
<text x="12" y="20" font-family="Verdana" font-size="10" text-anchor="middle"  dominant-baseline="middle" fill="black" > 0</text>
<text x="12" y="164" font-family="Verdana" font-size="10" text-anchor="middle"  dominant-baseline="middle" fill="black" > 144</text>
<text x="12" y="308" font-family="Verdana" font-size="10" text-anchor="middle"  dominant-baseline="middle" fill="black" > 288</text>
<text x="12" y="452" font-family="Verdana" font-size="10" text-anchor="middle"  dominant-baseline="middle" fill="black" > 432</text>
<text x="12" y="596" font-family="Verdana" font-size="10" text-anchor="middle"  dominant-baseline="middle" fill="black" > 576</text>
<text x="12" y="740" font-family="Verdana" font-size="10" text-anchor="middle"  dominant-baseline="middle" fill="black" > 720</text>
<text x="100" y="7" font-family="Verdana" font-size="7" text-anchor="middle"  dominant-baseline="middle" fill="black" > C1</text>
<circle cx="100" cy="15" r="4" fill="white" stroke="black" />
<line x1="100" y1="19" x2="100" y2="54" stroke="black" />
<line x1="50" y1="54" x2="150" y2="54" stroke="black" />
<text x="125" y="46" font-family="Verdana" font-size="8" text-anchor="middle"  dominant-baseline="middle" fill="black" > 39</text>
<circle cx="50" cy="54" r="4" fill="white" stroke="black" />
<line x1="50" y1="58" x2="50" y2="315" stroke="black" />
<line x1="25" y1="315" x2="75" y2="315" stroke="black" />
<text x="62" y="307" font-family="Verdana" font-size="8" text-anchor="middle"  dominant-baseline="middle" fill="black" > 300</text>
<circle cx="25" cy="315" r="4" fill="white" stroke="black" />
<line x1="25" y1="319" x2="25" y2="599" stroke="black" />
<line x1="12" y1="599" x2="38" y2="599" stroke="black" />
<text x="31" y="591" font-family="Verdana" font-size="8" text-anchor="middle"  dominant-baseline="middle" fill="black" > 584</text>
<circle cx="12" cy="599" r="4" fill="white" stroke="black" />
<line x1="12" y1="603" x2="12" y2="736" stroke="black" />
<circle cx="12" cy="736" r="4" fill="white" stroke="black" />
<text x="12" y="748" font-family="Verdana" font-size="8" text-anchor="middle"  dominant-baseline="middle" fill="black" > 721</text>
<circle cx="37" cy="599" r="4" fill="white" stroke="black" />
<line x1="37" y1="603" x2="37" y2="736" stroke="black" />
<circle cx="37" cy="736" r="4" fill="white" stroke="black" />
<text x="37" y="748" font-family="Verdana" font-size="8" text-anchor="middle"  dominant-baseline="middle" fill="black" > 721</text>
<circle cx="75" cy="315" r="4" fill="white" stroke="black" />
<line x1="75" y1="319" x2="75" y2="583" stroke="black" />
<line x1="62" y1="583" x2="88" y2="583" stroke="black" />
<text x="81" y="575" font-family="Verdana" font-size="8" text-anchor="middle"  dominant-baseline="middle" fill="black" > 568</text>
<circle cx="62" cy="583" r="4" fill="white" stroke="black" />
<line x1="62" y1="587" x2="62" y2="736" stroke="black" />
<circle cx="62" cy="736" r="4" fill="white" stroke="black" />
<text x="62" y="748" font-family="Verdana" font-size="8" text-anchor="middle"  dominant-baseline="middle" fill="black" > 721</text>
<circle cx="87" cy="583" r="4" fill="white" stroke="black" />
<line x1="87" y1="587" x2="87" y2="736" stroke="black" />
<circle cx="87" cy="736" r="4" fill="white" stroke="black" />
<text x="87" y="748" font-family="Verdana" font-size="8" text-anchor="middle"  dominant-baseline="middle" fill="black" > 721</text>
<circle cx="150" cy="54" r="4" fill="white" stroke="black" />
<line x1="150" y1="58" x2="150" y2="101" stroke="black" />
<line x1="146" y1="105" x2="150" y2="97" stroke="blue" />
<line x1="150" y1="105" x2="154" y2="97" stroke="blue" />
<text x="150" y="113" font-family="Verdana" font-size="8" text-anchor="middle"  dominant-baseline="middle" fill="black" > 86</text>
<text x="250" y="7" font-family="Verdana" font-size="7" text-anchor="middle"  dominant-baseline="middle" fill="black" > C2</text>
<circle cx="250" cy="15" r="4" fill="white" stroke="black" />
<line x1="250" y1="19" x2="250" y2="40" stroke="black" />
<line x1="246" y1="44" x2="250" y2="36" stroke="blue" />
<line x1="250" y1="44" x2="254" y2="36" stroke="blue" />
<text x="250" y="52" font-family="Verdana" font-size="8" text-anchor="middle"  dominant-baseline="middle" fill="black" > 25</text>
<text x="400" y="7" font-family="Verdana" font-size="7" text-anchor="middle"  dominant-baseline="middle" fill="black" > C3</text>
<circle cx="400" cy="15" r="4" fill="white" stroke="black" />
<line x1="400" y1="19" x2="400" y2="77" stroke="black" />
<line x1="350" y1="77" x2="450" y2="77" stroke="black" />
<text x="425" y="69" font-family="Verdana" font-size="8" text-anchor="middle"  dominant-baseline="middle" fill="black" > 62</text>
<circle cx="350" cy="77" r="4" fill="white" stroke="black" />
<line x1="350" y1="81" x2="350" y2="490" stroke="black" />
<line x1="325" y1="490" x2="375" y2="490" stroke="black" />
<text x="362" y="482" font-family="Verdana" font-size="8" text-anchor="middle"  dominant-baseline="middle" fill="black" > 475</text>
<circle cx="325" cy="490" r="4" fill="white" stroke="black" />
<line x1="325" y1="494" x2="325" y2="701" stroke="black" />
<line x1="312" y1="701" x2="338" y2="701" stroke="black" />
<text x="331" y="693" font-family="Verdana" font-size="8" text-anchor="middle"  dominant-baseline="middle" fill="black" > 686</text>
<circle cx="312" cy="701" r="4" fill="white" stroke="black" />
<line x1="312" y1="705" x2="312" y2="736" stroke="black" />
<circle cx="312" cy="736" r="4" fill="white" stroke="black" />
<text x="312" y="748" font-family="Verdana" font-size="8" text-anchor="middle"  dominant-baseline="middle" fill="black" > 721</text>
<circle cx="337" cy="701" r="4" fill="white" stroke="black" />
<line x1="337" y1="705" x2="337" y2="736" stroke="black" />
<circle cx="337" cy="736" r="4" fill="white" stroke="black" />
<text x="337" y="748" font-family="Verdana" font-size="8" text-anchor="middle"  dominant-baseline="middle" fill="black" > 721</text>
<circle cx="375" cy="490" r="4" fill="white" stroke="black" />
<line x1="375" y1="494" x2="375" y2="640" stroke="black" />
<line x1="362" y1="640" x2="388" y2="640" stroke="black" />
<text x="381" y="632" font-family="Verdana" font-size="8" text-anchor="middle"  dominant-baseline="middle" fill="black" > 625</text>
<circle cx="362" cy="640" r="4" fill="white" stroke="black" />
<line x1="362" y1="644" x2="362" y2="736" stroke="black" />
<circle cx="362" cy="736" r="4" fill="white" stroke="black" />
<text x="362" y="748" font-family="Verdana" font-size="8" text-anchor="middle"  dominant-baseline="middle" fill="black" > 721</text>
<circle cx="387" cy="640" r="4" fill="white" stroke="black" />
<line x1="387" y1="644" x2="387" y2="736" stroke="black" />
<circle cx="387" cy="736" r="4" fill="white" stroke="black" />
<text x="387" y="748" font-family="Verdana" font-size="8" text-anchor="middle"  dominant-baseline="middle" fill="black" > 721</text>
<circle cx="450" cy="77" r="4" fill="white" stroke="black" />
<line x1="450" y1="81" x2="450" y2="205" stroke="black" />
<line x1="446" y1="209" x2="450" y2="201" stroke="blue" />
<line x1="450" y1="209" x2="454" y2="201" stroke="blue" />
<text x="450" y="217" font-family="Verdana" font-size="8" text-anchor="middle"  dominant-baseline="middle" fill="black" > 190</text>
<text x="550" y="7" font-family="Verdana" font-size="7" text-anchor="middle"  dominant-baseline="middle" fill="black" > C4</text>
<circle cx="550" cy="15" r="4" fill="white" stroke="black" />
<line x1="550" y1="19" x2="550" y2="736" stroke="black" />
<circle cx="550" cy="736" r="4" fill="white" stroke="black" />
<text x="550" y="748" font-family="Verdana" font-size="8" text-anchor="middle"  dominant-baseline="middle" fill="black" > 721</text>
<text x="700" y="7" font-family="Verdana" font-size="7" text-anchor="middle"  dominant-baseline="middle" fill="black" > C5</text>
<circle cx="700" cy="15" r="4" fill="white" stroke="black" />
<line x1="700" y1="19" x2="700" y2="132" stroke="black" />
<line x1="650" y1="132" x2="750" y2="132" stroke="black" />
<text x="725" y="124" font-family="Verdana" font-size="8" text-anchor="middle"  dominant-baseline="middle" fill="black" > 117</text>
<circle cx="650" cy="132" r="4" fill="white" stroke="black" />
<line x1="650" y1="136" x2="650" y2="361" stroke="black" />
<line x1="625" y1="361" x2="675" y2="361" stroke="black" />
<text x="662" y="353" font-family="Verdana" font-size="8" text-anchor="middle"  dominant-baseline="middle" fill="black" > 346</text>
<circle cx="625" cy="361" r="4" fill="white" stroke="black" />
<line x1="625" y1="365" x2="625" y2="498" stroke="black" />
<line x1="612" y1="498" x2="638" y2="498" stroke="black" />
<text x="631" y="490" font-family="Verdana" font-size="8" text-anchor="middle"  dominant-baseline="middle" fill="black" > 483</text>
<circle cx="612" cy="498" r="4" fill="white" stroke="black" />
<line x1="612" y1="502" x2="612" y2="651" stroke="black" />
<line x1="606" y1="651" x2="619" y2="651" stroke="black" />
<text x="615" y="643" font-family="Verdana" font-size="8" text-anchor="middle"  dominant-baseline="middle" fill="black" > 636</text>
<circle cx="606" cy="651" r="4" fill="white" stroke="black" />
<line x1="606" y1="655" x2="606" y2="736" stroke="black" />
<circle cx="606" cy="736" r="4" fill="white" stroke="black" />
<text x="606" y="748" font-family="Verdana" font-size="8" text-anchor="middle"  dominant-baseline="middle" fill="black" > 721</text>
<circle cx="618" cy="651" r="4" fill="white" stroke="black" />
<line x1="618" y1="655" x2="618" y2="736" stroke="black" />
<circle cx="618" cy="736" r="4" fill="white" stroke="black" />
<text x="618" y="748" font-family="Verdana" font-size="8" text-anchor="middle"  dominant-baseline="middle" fill="black" > 721</text>
<circle cx="637" cy="498" r="4" fill="white" stroke="black" />
<line x1="637" y1="502" x2="637" y2="662" stroke="black" />
<line x1="631" y1="662" x2="644" y2="662" stroke="black" />
<text x="640" y="654" font-family="Verdana" font-size="8" text-anchor="middle"  dominant-baseline="middle" fill="black" > 647</text>
<circle cx="631" cy="662" r="4" fill="white" stroke="black" />
<line x1="631" y1="666" x2="631" y2="736" stroke="black" />
<circle cx="631" cy="736" r="4" fill="white" stroke="black" />
<text x="631" y="748" font-family="Verdana" font-size="8" text-anchor="middle"  dominant-baseline="middle" fill="black" > 721</text>
<circle cx="643" cy="662" r="4" fill="white" stroke="black" />
<line x1="643" y1="666" x2="643" y2="736" stroke="black" />
<circle cx="643" cy="736" r="4" fill="white" stroke="black" />
<text x="643" y="748" font-family="Verdana" font-size="8" text-anchor="middle"  dominant-baseline="middle" fill="black" > 721</text>
<circle cx="675" cy="361" r="4" fill="white" stroke="black" />
<line x1="675" y1="365" x2="675" y2="511" stroke="black" />
<line x1="662" y1="511" x2="688" y2="511" stroke="black" />
<text x="681" y="503" font-family="Verdana" font-size="8" text-anchor="middle"  dominant-baseline="middle" fill="black" > 496</text>
<circle cx="662" cy="511" r="4" fill="white" stroke="black" />
<line x1="662" y1="515" x2="662" y2="630" stroke="black" />
<line x1="656" y1="630" x2="669" y2="630" stroke="black" />
<text x="665" y="622" font-family="Verdana" font-size="8" text-anchor="middle"  dominant-baseline="middle" fill="black" > 615</text>
<circle cx="656" cy="630" r="4" fill="white" stroke="black" />
<line x1="656" y1="634" x2="656" y2="736" stroke="black" />
<circle cx="656" cy="736" r="4" fill="white" stroke="black" />
<text x="656" y="748" font-family="Verdana" font-size="8" text-anchor="middle"  dominant-baseline="middle" fill="black" > 721</text>
<circle cx="668" cy="630" r="4" fill="white" stroke="black" />
<line x1="668" y1="634" x2="668" y2="736" stroke="black" />
<circle cx="668" cy="736" r="4" fill="white" stroke="black" />
<text x="668" y="748" font-family="Verdana" font-size="8" text-anchor="middle"  dominant-baseline="middle" fill="black" > 721</text>
<circle cx="687" cy="511" r="4" fill="white" stroke="black" />
<line x1="687" y1="515" x2="687" y2="736" stroke="black" />
<circle cx="687" cy="736" r="4" fill="white" stroke="black" />
<text x="687" y="748" font-family="Verdana" font-size="8" text-anchor="middle"  dominant-baseline="middle" fill="black" > 721</text>
<circle cx="750" cy="132" r="4" fill="white" stroke="black" />
<line x1="750" y1="136" x2="750" y2="355" stroke="black" />
<line x1="725" y1="355" x2="775" y2="355" stroke="black" />
<text x="762" y="347" font-family="Verdana" font-size="8" text-anchor="middle"  dominant-baseline="middle" fill="black" > 340</text>
<circle cx="725" cy="355" r="4" fill="white" stroke="black" />
<line x1="725" y1="359" x2="725" y2="518" stroke="black" />
<line x1="712" y1="518" x2="738" y2="518" stroke="black" />
<text x="731" y="510" font-family="Verdana" font-size="8" text-anchor="middle"  dominant-baseline="middle" fill="black" > 503</text>
<circle cx="712" cy="518" r="4" fill="white" stroke="black" />
<line x1="712" y1="522" x2="712" y2="644" stroke="black" />
<line x1="706" y1="644" x2="719" y2="644" stroke="black" />
<text x="715" y="636" font-family="Verdana" font-size="8" text-anchor="middle"  dominant-baseline="middle" fill="black" > 629</text>
<circle cx="706" cy="644" r="4" fill="white" stroke="black" />
<line x1="706" y1="648" x2="706" y2="736" stroke="black" />
<circle cx="706" cy="736" r="4" fill="white" stroke="black" />
<text x="706" y="748" font-family="Verdana" font-size="8" text-anchor="middle"  dominant-baseline="middle" fill="black" > 721</text>
<circle cx="718" cy="644" r="4" fill="white" stroke="black" />
<line x1="718" y1="648" x2="718" y2="736" stroke="black" />
<circle cx="718" cy="736" r="4" fill="white" stroke="black" />
<text x="718" y="748" font-family="Verdana" font-size="8" text-anchor="middle"  dominant-baseline="middle" fill="black" > 721</text>
<circle cx="737" cy="518" r="4" fill="white" stroke="black" />
<line x1="737" y1="522" x2="737" y2="679" stroke="black" />
<line x1="731" y1="679" x2="744" y2="679" stroke="black" />
<text x="740" y="671" font-family="Verdana" font-size="8" text-anchor="middle"  dominant-baseline="middle" fill="black" > 664</text>
<circle cx="731" cy="679" r="4" fill="white" stroke="black" />
<line x1="731" y1="683" x2="731" y2="724" stroke="black" />
<line x1="727" y1="720" x2="735" y2="728" stroke="red" />
<line x1="727" y1="728" x2="735" y2="720" stroke="red" />
<text x="731" y="736" font-family="Verdana" font-size="8" text-anchor="middle"  dominant-baseline="middle" fill="black" > 709</text>
<circle cx="743" cy="679" r="4" fill="white" stroke="black" />
<line x1="743" y1="683" x2="743" y2="736" stroke="black" />
<circle cx="743" cy="736" r="4" fill="white" stroke="black" />
<text x="743" y="748" font-family="Verdana" font-size="8" text-anchor="middle"  dominant-baseline="middle" fill="black" > 721</text>
<circle cx="775" cy="355" r="4" fill="white" stroke="black" />
<line x1="775" y1="359" x2="775" y2="514" stroke="black" />
<line x1="762" y1="514" x2="788" y2="514" stroke="black" />
<text x="781" y="506" font-family="Verdana" font-size="8" text-anchor="middle"  dominant-baseline="middle" fill="black" > 499</text>
<circle cx="762" cy="514" r="4" fill="white" stroke="black" />
<line x1="762" y1="518" x2="762" y2="649" stroke="black" />
<line x1="756" y1="649" x2="769" y2="649" stroke="black" />
<text x="765" y="641" font-family="Verdana" font-size="8" text-anchor="middle"  dominant-baseline="middle" fill="black" > 634</text>
<circle cx="756" cy="649" r="4" fill="white" stroke="black" />
<line x1="756" y1="653" x2="756" y2="736" stroke="black" />
<circle cx="756" cy="736" r="4" fill="white" stroke="black" />
<text x="756" y="748" font-family="Verdana" font-size="8" text-anchor="middle"  dominant-baseline="middle" fill="black" > 721</text>
<circle cx="768" cy="649" r="4" fill="white" stroke="black" />
<line x1="768" y1="653" x2="768" y2="736" stroke="black" />
<circle cx="768" cy="736" r="4" fill="white" stroke="black" />
<text x="768" y="748" font-family="Verdana" font-size="8" text-anchor="middle"  dominant-baseline="middle" fill="black" > 721</text>
<circle cx="787" cy="514" r="4" fill="white" stroke="black" />
<line x1="787" y1="518" x2="787" y2="651" stroke="black" />
<line x1="781" y1="651" x2="794" y2="651" stroke="black" />
<text x="790" y="643" font-family="Verdana" font-size="8" text-anchor="middle"  dominant-baseline="middle" fill="black" > 636</text>
<circle cx="781" cy="651" r="4" fill="white" stroke="black" />
<line x1="781" y1="655" x2="781" y2="693" stroke="black" />
<line x1="777" y1="689" x2="785" y2="697" stroke="red" />
<line x1="777" y1="697" x2="785" y2="689" stroke="red" />
<text x="781" y="705" font-family="Verdana" font-size="8" text-anchor="middle"  dominant-baseline="middle" fill="black" > 678</text>
<circle cx="793" cy="651" r="4" fill="white" stroke="black" />
<line x1="793" y1="655" x2="793" y2="704" stroke="black" />
<line x1="789" y1="700" x2="797" y2="708" stroke="red" />
<line x1="789" y1="708" x2="797" y2="700" stroke="red" />
<text x="793" y="716" font-family="Verdana" font-size="8" text-anchor="middle"  dominant-baseline="middle" fill="black" > 689</text>
<text x="900" y="7" font-family="Verdana" font-size="7" text-anchor="middle"  dominant-baseline="middle" fill="black" > C6</text>
<circle cx="900" cy="15" r="4" fill="white" stroke="black" />
<line x1="900" y1="19" x2="900" y2="137" stroke="black" />
<line x1="850" y1="137" x2="950" y2="137" stroke="black" />
<text x="925" y="129" font-family="Verdana" font-size="8" text-anchor="middle"  dominant-baseline="middle" fill="black" > 122</text>
<circle cx="850" cy="137" r="4" fill="white" stroke="black" />
<line x1="850" y1="141" x2="850" y2="327" stroke="black" />
<line x1="825" y1="327" x2="875" y2="327" stroke="black" />
<text x="862" y="319" font-family="Verdana" font-size="8" text-anchor="middle"  dominant-baseline="middle" fill="black" > 312</text>
<circle cx="825" cy="327" r="4" fill="white" stroke="black" />
<line x1="825" y1="331" x2="825" y2="465" stroke="black" />
<line x1="812" y1="465" x2="838" y2="465" stroke="black" />
<text x="831" y="457" font-family="Verdana" font-size="8" text-anchor="middle"  dominant-baseline="middle" fill="black" > 450</text>
<circle cx="812" cy="465" r="4" fill="white" stroke="black" />
<line x1="812" y1="469" x2="812" y2="644" stroke="black" />
<line x1="806" y1="644" x2="819" y2="644" stroke="black" />
<text x="815" y="636" font-family="Verdana" font-size="8" text-anchor="middle"  dominant-baseline="middle" fill="black" > 629</text>
<circle cx="806" cy="644" r="4" fill="white" stroke="black" />
<line x1="806" y1="648" x2="806" y2="736" stroke="black" />
<circle cx="806" cy="736" r="4" fill="white" stroke="black" />
<text x="806" y="748" font-family="Verdana" font-size="8" text-anchor="middle"  dominant-baseline="middle" fill="black" > 721</text>
<circle cx="818" cy="644" r="4" fill="white" stroke="black" />
<line x1="818" y1="648" x2="818" y2="736" stroke="black" />
<circle cx="818" cy="736" r="4" fill="white" stroke="black" />
<text x="818" y="748" font-family="Verdana" font-size="8" text-anchor="middle"  dominant-baseline="middle" fill="black" > 721</text>
<circle cx="837" cy="465" r="4" fill="white" stroke="black" />
<line x1="837" y1="469" x2="837" y2="644" stroke="black" />
<line x1="831" y1="644" x2="844" y2="644" stroke="black" />
<text x="840" y="636" font-family="Verdana" font-size="8" text-anchor="middle"  dominant-baseline="middle" fill="black" > 629</text>
<circle cx="831" cy="644" r="4" fill="white" stroke="black" />
<line x1="831" y1="648" x2="831" y2="736" stroke="black" />
<circle cx="831" cy="736" r="4" fill="white" stroke="black" />
<text x="831" y="748" font-family="Verdana" font-size="8" text-anchor="middle"  dominant-baseline="middle" fill="black" > 721</text>
<circle cx="843" cy="644" r="4" fill="white" stroke="black" />
<line x1="843" y1="648" x2="843" y2="736" stroke="black" />
<circle cx="843" cy="736" r="4" fill="white" stroke="black" />
<text x="843" y="748" font-family="Verdana" font-size="8" text-anchor="middle"  dominant-baseline="middle" fill="black" > 721</text>
<circle cx="875" cy="327" r="4" fill="white" stroke="black" />
<line x1="875" y1="331" x2="875" y2="466" stroke="black" />
<line x1="862" y1="466" x2="888" y2="466" stroke="black" />
<text x="881" y="458" font-family="Verdana" font-size="8" text-anchor="middle"  dominant-baseline="middle" fill="black" > 451</text>
<circle cx="862" cy="466" r="4" fill="white" stroke="black" />
<line x1="862" y1="470" x2="862" y2="610" stroke="black" />
<line x1="856" y1="610" x2="869" y2="610" stroke="black" />
<text x="865" y="602" font-family="Verdana" font-size="8" text-anchor="middle"  dominant-baseline="middle" fill="black" > 595</text>
<circle cx="856" cy="610" r="4" fill="white" stroke="black" />
<line x1="856" y1="614" x2="856" y2="736" stroke="black" />
<circle cx="856" cy="736" r="4" fill="white" stroke="black" />
<text x="856" y="748" font-family="Verdana" font-size="8" text-anchor="middle"  dominant-baseline="middle" fill="black" > 721</text>
<circle cx="868" cy="610" r="4" fill="white" stroke="black" />
<line x1="868" y1="614" x2="868" y2="736" stroke="black" />
<circle cx="868" cy="736" r="4" fill="white" stroke="black" />
<text x="868" y="748" font-family="Verdana" font-size="8" text-anchor="middle"  dominant-baseline="middle" fill="black" > 721</text>
<circle cx="887" cy="466" r="4" fill="white" stroke="black" />
<line x1="887" y1="470" x2="887" y2="600" stroke="black" />
<line x1="881" y1="600" x2="894" y2="600" stroke="black" />
<text x="890" y="592" font-family="Verdana" font-size="8" text-anchor="middle"  dominant-baseline="middle" fill="black" > 585</text>
<circle cx="881" cy="600" r="4" fill="white" stroke="black" />
<line x1="881" y1="604" x2="881" y2="736" stroke="black" />
<circle cx="881" cy="736" r="4" fill="white" stroke="black" />
<text x="881" y="748" font-family="Verdana" font-size="8" text-anchor="middle"  dominant-baseline="middle" fill="black" > 721</text>
<circle cx="893" cy="600" r="4" fill="white" stroke="black" />
<line x1="893" y1="604" x2="893" y2="736" stroke="black" />
<circle cx="893" cy="736" r="4" fill="white" stroke="black" />
<text x="893" y="748" font-family="Verdana" font-size="8" text-anchor="middle"  dominant-baseline="middle" fill="black" > 721</text>
<circle cx="950" cy="137" r="4" fill="white" stroke="black" />
<line x1="950" y1="141" x2="950" y2="350" stroke="black" />
<line x1="925" y1="350" x2="975" y2="350" stroke="black" />
<text x="962" y="342" font-family="Verdana" font-size="8" text-anchor="middle"  dominant-baseline="middle" fill="black" > 335</text>
<circle cx="925" cy="350" r="4" fill="white" stroke="black" />
<line x1="925" y1="354" x2="925" y2="493" stroke="black" />
<line x1="912" y1="493" x2="938" y2="493" stroke="black" />
<text x="931" y="485" font-family="Verdana" font-size="8" text-anchor="middle"  dominant-baseline="middle" fill="black" > 478</text>
<circle cx="912" cy="493" r="4" fill="white" stroke="black" />
<line x1="912" y1="497" x2="912" y2="645" stroke="black" />
<line x1="906" y1="645" x2="919" y2="645" stroke="black" />
<text x="915" y="637" font-family="Verdana" font-size="8" text-anchor="middle"  dominant-baseline="middle" fill="black" > 630</text>
<circle cx="906" cy="645" r="4" fill="white" stroke="black" />
<line x1="906" y1="649" x2="906" y2="736" stroke="black" />
<circle cx="906" cy="736" r="4" fill="white" stroke="black" />
<text x="906" y="748" font-family="Verdana" font-size="8" text-anchor="middle"  dominant-baseline="middle" fill="black" > 721</text>
<circle cx="918" cy="645" r="4" fill="white" stroke="black" />
<line x1="918" y1="649" x2="918" y2="736" stroke="black" />
<circle cx="918" cy="736" r="4" fill="white" stroke="black" />
<text x="918" y="748" font-family="Verdana" font-size="8" text-anchor="middle"  dominant-baseline="middle" fill="black" > 721</text>
<circle cx="937" cy="493" r="4" fill="white" stroke="black" />
<line x1="937" y1="497" x2="937" y2="651" stroke="black" />
<line x1="931" y1="651" x2="944" y2="651" stroke="black" />
<text x="940" y="643" font-family="Verdana" font-size="8" text-anchor="middle"  dominant-baseline="middle" fill="black" > 636</text>
<circle cx="931" cy="651" r="4" fill="white" stroke="black" />
<line x1="931" y1="655" x2="931" y2="736" stroke="black" />
<circle cx="931" cy="736" r="4" fill="white" stroke="black" />
<text x="931" y="748" font-family="Verdana" font-size="8" text-anchor="middle"  dominant-baseline="middle" fill="black" > 721</text>
<circle cx="943" cy="651" r="4" fill="white" stroke="black" />
<line x1="943" y1="655" x2="943" y2="736" stroke="black" />
<circle cx="943" cy="736" r="4" fill="white" stroke="black" />
<text x="943" y="748" font-family="Verdana" font-size="8" text-anchor="middle"  dominant-baseline="middle" fill="black" > 721</text>
<circle cx="975" cy="350" r="4" fill="white" stroke="black" />
<line x1="975" y1="354" x2="975" y2="483" stroke="black" />
<line x1="962" y1="483" x2="988" y2="483" stroke="black" />
<text x="981" y="475" font-family="Verdana" font-size="8" text-anchor="middle"  dominant-baseline="middle" fill="black" > 468</text>
<circle cx="962" cy="483" r="4" fill="white" stroke="black" />
<line x1="962" y1="487" x2="962" y2="629" stroke="black" />
<line x1="956" y1="629" x2="969" y2="629" stroke="black" />
<text x="965" y="621" font-family="Verdana" font-size="8" text-anchor="middle"  dominant-baseline="middle" fill="black" > 614</text>
<circle cx="956" cy="629" r="4" fill="white" stroke="black" />
<line x1="956" y1="633" x2="956" y2="736" stroke="black" />
<circle cx="956" cy="736" r="4" fill="white" stroke="black" />
<text x="956" y="748" font-family="Verdana" font-size="8" text-anchor="middle"  dominant-baseline="middle" fill="black" > 721</text>
<circle cx="968" cy="629" r="4" fill="white" stroke="black" />
<line x1="968" y1="633" x2="968" y2="736" stroke="black" />
<circle cx="968" cy="736" r="4" fill="white" stroke="black" />
<text x="968" y="748" font-family="Verdana" font-size="8" text-anchor="middle"  dominant-baseline="middle" fill="black" > 721</text>
<circle cx="987" cy="483" r="4" fill="white" stroke="black" />
<line x1="987" y1="487" x2="987" y2="736" stroke="black" />
<circle cx="987" cy="736" r="4" fill="white" stroke="black" />
<text x="987" y="748" font-family="Verdana" font-size="8" text-anchor="middle"  dominant-baseline="middle" fill="black" > 721</text>
<text x="1100" y="7" font-family="Verdana" font-size="7" text-anchor="middle"  dominant-baseline="middle" fill="black" > C7</text>
<circle cx="1100" cy="15" r="4" fill="white" stroke="black" />
<line x1="1100" y1="19" x2="1100" y2="150" stroke="black" />
<line x1="1050" y1="150" x2="1150" y2="150" stroke="black" />
<text x="1125" y="142" font-family="Verdana" font-size="8" text-anchor="middle"  dominant-baseline="middle" fill="black" > 135</text>
<circle cx="1050" cy="150" r="4" fill="white" stroke="black" />
<line x1="1050" y1="154" x2="1050" y2="376" stroke="black" />
<line x1="1025" y1="376" x2="1075" y2="376" stroke="black" />
<text x="1062" y="368" font-family="Verdana" font-size="8" text-anchor="middle"  dominant-baseline="middle" fill="black" > 361</text>
<circle cx="1025" cy="376" r="4" fill="white" stroke="black" />
<line x1="1025" y1="380" x2="1025" y2="511" stroke="black" />
<line x1="1012" y1="511" x2="1038" y2="511" stroke="black" />
<text x="1031" y="503" font-family="Verdana" font-size="8" text-anchor="middle"  dominant-baseline="middle" fill="black" > 496</text>
<circle cx="1012" cy="511" r="4" fill="white" stroke="black" />
<line x1="1012" y1="515" x2="1012" y2="736" stroke="black" />
<circle cx="1012" cy="736" r="4" fill="white" stroke="black" />
<text x="1012" y="748" font-family="Verdana" font-size="8" text-anchor="middle"  dominant-baseline="middle" fill="black" > 721</text>
<circle cx="1037" cy="511" r="4" fill="white" stroke="black" />
<line x1="1037" y1="515" x2="1037" y2="736" stroke="black" />
<circle cx="1037" cy="736" r="4" fill="white" stroke="black" />
<text x="1037" y="748" font-family="Verdana" font-size="8" text-anchor="middle"  dominant-baseline="middle" fill="black" > 721</text>
<circle cx="1075" cy="376" r="4" fill="white" stroke="black" />
<line x1="1075" y1="380" x2="1075" y2="522" stroke="black" />
<line x1="1071" y1="526" x2="1075" y2="518" stroke="blue" />
<line x1="1075" y1="526" x2="1079" y2="518" stroke="blue" />
<text x="1075" y="534" font-family="Verdana" font-size="8" text-anchor="middle"  dominant-baseline="middle" fill="black" > 507</text>
<circle cx="1150" cy="150" r="4" fill="white" stroke="black" />
<line x1="1150" y1="154" x2="1150" y2="361" stroke="black" />
<line x1="1125" y1="361" x2="1175" y2="361" stroke="black" />
<text x="1162" y="353" font-family="Verdana" font-size="8" text-anchor="middle"  dominant-baseline="middle" fill="black" > 346</text>
<circle cx="1125" cy="361" r="4" fill="white" stroke="black" />
<line x1="1125" y1="365" x2="1125" y2="500" stroke="black" />
<line x1="1112" y1="500" x2="1138" y2="500" stroke="black" />
<text x="1131" y="492" font-family="Verdana" font-size="8" text-anchor="middle"  dominant-baseline="middle" fill="black" > 485</text>
<circle cx="1112" cy="500" r="4" fill="white" stroke="black" />
<line x1="1112" y1="504" x2="1112" y2="736" stroke="black" />
<circle cx="1112" cy="736" r="4" fill="white" stroke="black" />
<text x="1112" y="748" font-family="Verdana" font-size="8" text-anchor="middle"  dominant-baseline="middle" fill="black" > 721</text>
<circle cx="1137" cy="500" r="4" fill="white" stroke="black" />
<line x1="1137" y1="504" x2="1137" y2="736" stroke="black" />
<circle cx="1137" cy="736" r="4" fill="white" stroke="black" />
<text x="1137" y="748" font-family="Verdana" font-size="8" text-anchor="middle"  dominant-baseline="middle" fill="black" > 721</text>
<circle cx="1175" cy="361" r="4" fill="white" stroke="black" />
<line x1="1175" y1="365" x2="1175" y2="500" stroke="black" />
<line x1="1162" y1="500" x2="1188" y2="500" stroke="black" />
<text x="1181" y="492" font-family="Verdana" font-size="8" text-anchor="middle"  dominant-baseline="middle" fill="black" > 485</text>
<circle cx="1162" cy="500" r="4" fill="white" stroke="black" />
<line x1="1162" y1="504" x2="1162" y2="736" stroke="black" />
<circle cx="1162" cy="736" r="4" fill="white" stroke="black" />
<text x="1162" y="748" font-family="Verdana" font-size="8" text-anchor="middle"  dominant-baseline="middle" fill="black" > 721</text>
<circle cx="1187" cy="500" r="4" fill="white" stroke="black" />
<line x1="1187" y1="504" x2="1187" y2="676" stroke="black" />
<line x1="1183" y1="672" x2="1191" y2="680" stroke="red" />
<line x1="1183" y1="680" x2="1191" y2="672" stroke="red" />
<text x="1187" y="688" font-family="Verdana" font-size="8" text-anchor="middle"  dominant-baseline="middle" fill="black" > 661</text>
<text x="1300" y="7" font-family="Verdana" font-size="7" text-anchor="middle"  dominant-baseline="middle" fill="black" > C8</text>
<circle cx="1300" cy="15" r="4" fill="white" stroke="black" />
<line x1="1300" y1="19" x2="1300" y2="277" stroke="black" />
<line x1="1250" y1="277" x2="1350" y2="277" stroke="black" />
<text x="1325" y="269" font-family="Verdana" font-size="8" text-anchor="middle"  dominant-baseline="middle" fill="black" > 262</text>
<circle cx="1250" cy="277" r="4" fill="white" stroke="black" />
<line x1="1250" y1="281" x2="1250" y2="587" stroke="black" />
<line x1="1225" y1="587" x2="1275" y2="587" stroke="black" />
<text x="1262" y="579" font-family="Verdana" font-size="8" text-anchor="middle"  dominant-baseline="middle" fill="black" > 572</text>
<circle cx="1225" cy="587" r="4" fill="white" stroke="black" />
<line x1="1225" y1="591" x2="1225" y2="606" stroke="black" />
<line x1="1221" y1="610" x2="1225" y2="602" stroke="blue" />
<line x1="1225" y1="610" x2="1229" y2="602" stroke="blue" />
<text x="1225" y="618" font-family="Verdana" font-size="8" text-anchor="middle"  dominant-baseline="middle" fill="black" > 591</text>
<circle cx="1275" cy="587" r="4" fill="white" stroke="black" />
<line x1="1275" y1="591" x2="1275" y2="736" stroke="black" />
<circle cx="1275" cy="736" r="4" fill="white" stroke="black" />
<text x="1275" y="748" font-family="Verdana" font-size="8" text-anchor="middle"  dominant-baseline="middle" fill="black" > 721</text>
<circle cx="1350" cy="277" r="4" fill="white" stroke="black" />
<line x1="1350" y1="281" x2="1350" y2="554" stroke="black" />
<line x1="1325" y1="554" x2="1375" y2="554" stroke="black" />
<text x="1362" y="546" font-family="Verdana" font-size="8" text-anchor="middle"  dominant-baseline="middle" fill="black" > 539</text>
<circle cx="1325" cy="554" r="4" fill="white" stroke="black" />
<line x1="1325" y1="558" x2="1325" y2="736" stroke="black" />
<circle cx="1325" cy="736" r="4" fill="white" stroke="black" />
<text x="1325" y="748" font-family="Verdana" font-size="8" text-anchor="middle"  dominant-baseline="middle" fill="black" > 721</text>
<circle cx="1375" cy="554" r="4" fill="white" stroke="black" />
<line x1="1375" y1="558" x2="1375" y2="650" stroke="black" />
<line x1="1362" y1="650" x2="1388" y2="650" stroke="black" />
<text x="1381" y="642" font-family="Verdana" font-size="8" text-anchor="middle"  dominant-baseline="middle" fill="black" > 635</text>
<circle cx="1362" cy="650" r="4" fill="white" stroke="black" />
<line x1="1362" y1="654" x2="1362" y2="736" stroke="black" />
<circle cx="1362" cy="736" r="4" fill="white" stroke="black" />
<text x="1362" y="748" font-family="Verdana" font-size="8" text-anchor="middle"  dominant-baseline="middle" fill="black" > 721</text>
<circle cx="1387" cy="650" r="4" fill="white" stroke="black" />
<line x1="1387" y1="654" x2="1387" y2="736" stroke="black" />
<circle cx="1387" cy="736" r="4" fill="white" stroke="black" />
<text x="1387" y="748" font-family="Verdana" font-size="8" text-anchor="middle"  dominant-baseline="middle" fill="black" > 721</text>
<text x="1500" y="7" font-family="Verdana" font-size="7" text-anchor="middle"  dominant-baseline="middle" fill="black" > C9</text>
<circle cx="1500" cy="15" r="4" fill="white" stroke="black" />
<line x1="1500" y1="19" x2="1500" y2="194" stroke="black" />
<line x1="1450" y1="194" x2="1550" y2="194" stroke="black" />
<text x="1525" y="186" font-family="Verdana" font-size="8" text-anchor="middle"  dominant-baseline="middle" fill="black" > 179</text>
<circle cx="1450" cy="194" r="4" fill="white" stroke="black" />
<line x1="1450" y1="198" x2="1450" y2="414" stroke="black" />
<line x1="1425" y1="414" x2="1475" y2="414" stroke="black" />
<text x="1462" y="406" font-family="Verdana" font-size="8" text-anchor="middle"  dominant-baseline="middle" fill="black" > 399</text>
<circle cx="1425" cy="414" r="4" fill="white" stroke="black" />
<line x1="1425" y1="418" x2="1425" y2="559" stroke="black" />
<line x1="1412" y1="559" x2="1438" y2="559" stroke="black" />
<text x="1431" y="551" font-family="Verdana" font-size="8" text-anchor="middle"  dominant-baseline="middle" fill="black" > 544</text>
<circle cx="1412" cy="559" r="4" fill="white" stroke="black" />
<line x1="1412" y1="563" x2="1412" y2="648" stroke="black" />
<line x1="1406" y1="648" x2="1419" y2="648" stroke="black" />
<text x="1415" y="640" font-family="Verdana" font-size="8" text-anchor="middle"  dominant-baseline="middle" fill="black" > 633</text>
<circle cx="1406" cy="648" r="4" fill="white" stroke="black" />
<line x1="1406" y1="652" x2="1406" y2="736" stroke="black" />
<circle cx="1406" cy="736" r="4" fill="white" stroke="black" />
<text x="1406" y="748" font-family="Verdana" font-size="8" text-anchor="middle"  dominant-baseline="middle" fill="black" > 721</text>
<circle cx="1418" cy="648" r="4" fill="white" stroke="black" />
<line x1="1418" y1="652" x2="1418" y2="736" stroke="black" />
<circle cx="1418" cy="736" r="4" fill="white" stroke="black" />
<text x="1418" y="748" font-family="Verdana" font-size="8" text-anchor="middle"  dominant-baseline="middle" fill="black" > 721</text>
<circle cx="1437" cy="559" r="4" fill="white" stroke="black" />
<line x1="1437" y1="563" x2="1437" y2="637" stroke="black" />
<line x1="1431" y1="637" x2="1444" y2="637" stroke="black" />
<text x="1440" y="629" font-family="Verdana" font-size="8" text-anchor="middle"  dominant-baseline="middle" fill="black" > 622</text>
<circle cx="1431" cy="637" r="4" fill="white" stroke="black" />
<line x1="1431" y1="641" x2="1431" y2="736" stroke="black" />
<circle cx="1431" cy="736" r="4" fill="white" stroke="black" />
<text x="1431" y="748" font-family="Verdana" font-size="8" text-anchor="middle"  dominant-baseline="middle" fill="black" > 721</text>
<circle cx="1443" cy="637" r="4" fill="white" stroke="black" />
<line x1="1443" y1="641" x2="1443" y2="736" stroke="black" />
<circle cx="1443" cy="736" r="4" fill="white" stroke="black" />
<text x="1443" y="748" font-family="Verdana" font-size="8" text-anchor="middle"  dominant-baseline="middle" fill="black" > 721</text>
<circle cx="1475" cy="414" r="4" fill="white" stroke="black" />
<line x1="1475" y1="418" x2="1475" y2="622" stroke="black" />
<line x1="1462" y1="622" x2="1488" y2="622" stroke="black" />
<text x="1481" y="614" font-family="Verdana" font-size="8" text-anchor="middle"  dominant-baseline="middle" fill="black" > 607</text>
<circle cx="1462" cy="622" r="4" fill="white" stroke="black" />
<line x1="1462" y1="626" x2="1462" y2="736" stroke="black" />
<circle cx="1462" cy="736" r="4" fill="white" stroke="black" />
<text x="1462" y="748" font-family="Verdana" font-size="8" text-anchor="middle"  dominant-baseline="middle" fill="black" > 721</text>
<circle cx="1487" cy="622" r="4" fill="white" stroke="black" />
<line x1="1487" y1="626" x2="1487" y2="736" stroke="black" />
<circle cx="1487" cy="736" r="4" fill="white" stroke="black" />
<text x="1487" y="748" font-family="Verdana" font-size="8" text-anchor="middle"  dominant-baseline="middle" fill="black" > 721</text>
<circle cx="1550" cy="194" r="4" fill="white" stroke="black" />
<line x1="1550" y1="198" x2="1550" y2="406" stroke="black" />
<line x1="1525" y1="406" x2="1575" y2="406" stroke="black" />
<text x="1562" y="398" font-family="Verdana" font-size="8" text-anchor="middle"  dominant-baseline="middle" fill="black" > 391</text>
<circle cx="1525" cy="406" r="4" fill="white" stroke="black" />
<line x1="1525" y1="410" x2="1525" y2="542" stroke="black" />
<line x1="1512" y1="542" x2="1538" y2="542" stroke="black" />
<text x="1531" y="534" font-family="Verdana" font-size="8" text-anchor="middle"  dominant-baseline="middle" fill="black" > 527</text>
<circle cx="1512" cy="542" r="4" fill="white" stroke="black" />
<line x1="1512" y1="546" x2="1512" y2="736" stroke="black" />
<circle cx="1512" cy="736" r="4" fill="white" stroke="black" />
<text x="1512" y="748" font-family="Verdana" font-size="8" text-anchor="middle"  dominant-baseline="middle" fill="black" > 721</text>
<circle cx="1537" cy="542" r="4" fill="white" stroke="black" />
<line x1="1537" y1="546" x2="1537" y2="736" stroke="black" />
<circle cx="1537" cy="736" r="4" fill="white" stroke="black" />
<text x="1537" y="748" font-family="Verdana" font-size="8" text-anchor="middle"  dominant-baseline="middle" fill="black" > 721</text>
<circle cx="1575" cy="406" r="4" fill="white" stroke="black" />
<line x1="1575" y1="410" x2="1575" y2="537" stroke="black" />
<line x1="1562" y1="537" x2="1588" y2="537" stroke="black" />
<text x="1581" y="529" font-family="Verdana" font-size="8" text-anchor="middle"  dominant-baseline="middle" fill="black" > 522</text>
<circle cx="1562" cy="537" r="4" fill="white" stroke="black" />
<line x1="1562" y1="541" x2="1562" y2="736" stroke="black" />
<circle cx="1562" cy="736" r="4" fill="white" stroke="black" />
<text x="1562" y="748" font-family="Verdana" font-size="8" text-anchor="middle"  dominant-baseline="middle" fill="black" > 721</text>
<circle cx="1587" cy="537" r="4" fill="white" stroke="black" />
<line x1="1587" y1="541" x2="1587" y2="736" stroke="black" />
<circle cx="1587" cy="736" r="4" fill="white" stroke="black" />
<text x="1587" y="748" font-family="Verdana" font-size="8" text-anchor="middle"  dominant-baseline="middle" fill="black" > 721</text>
<text x="1700" y="7" font-family="Verdana" font-size="7" text-anchor="middle"  dominant-baseline="middle" fill="black" > C10</text>
<circle cx="1700" cy="15" r="4" fill="white" stroke="black" />
<line x1="1700" y1="19" x2="1700" y2="382" stroke="black" />
<line x1="1650" y1="382" x2="1750" y2="382" stroke="black" />
<text x="1725" y="374" font-family="Verdana" font-size="8" text-anchor="middle"  dominant-baseline="middle" fill="black" > 367</text>
<circle cx="1650" cy="382" r="4" fill="white" stroke="black" />
<line x1="1650" y1="386" x2="1650" y2="609" stroke="black" />
<line x1="1625" y1="609" x2="1675" y2="609" stroke="black" />
<text x="1662" y="601" font-family="Verdana" font-size="8" text-anchor="middle"  dominant-baseline="middle" fill="black" > 594</text>
<circle cx="1625" cy="609" r="4" fill="white" stroke="black" />
<line x1="1625" y1="613" x2="1625" y2="736" stroke="black" />
<circle cx="1625" cy="736" r="4" fill="white" stroke="black" />
<text x="1625" y="748" font-family="Verdana" font-size="8" text-anchor="middle"  dominant-baseline="middle" fill="black" > 721</text>
<circle cx="1675" cy="609" r="4" fill="white" stroke="black" />
<line x1="1675" y1="613" x2="1675" y2="721" stroke="black" />
<line x1="1662" y1="721" x2="1688" y2="721" stroke="black" />
<text x="1681" y="713" font-family="Verdana" font-size="8" text-anchor="middle"  dominant-baseline="middle" fill="black" > 706</text>
<circle cx="1662" cy="721" r="4" fill="white" stroke="black" />
<line x1="1662" y1="725" x2="1662" y2="736" stroke="black" />
<circle cx="1662" cy="736" r="4" fill="white" stroke="black" />
<text x="1662" y="748" font-family="Verdana" font-size="8" text-anchor="middle"  dominant-baseline="middle" fill="black" > 721</text>
<circle cx="1687" cy="721" r="4" fill="white" stroke="black" />
<line x1="1687" y1="725" x2="1687" y2="736" stroke="black" />
<circle cx="1687" cy="736" r="4" fill="white" stroke="black" />
<text x="1687" y="748" font-family="Verdana" font-size="8" text-anchor="middle"  dominant-baseline="middle" fill="black" > 721</text>
<circle cx="1750" cy="382" r="4" fill="white" stroke="black" />
<line x1="1750" y1="386" x2="1750" y2="607" stroke="black" />
<line x1="1725" y1="607" x2="1775" y2="607" stroke="black" />
<text x="1762" y="599" font-family="Verdana" font-size="8" text-anchor="middle"  dominant-baseline="middle" fill="black" > 592</text>
<circle cx="1725" cy="607" r="4" fill="white" stroke="black" />
<line x1="1725" y1="611" x2="1725" y2="679" stroke="black" />
<line x1="1712" y1="679" x2="1738" y2="679" stroke="black" />
<text x="1731" y="671" font-family="Verdana" font-size="8" text-anchor="middle"  dominant-baseline="middle" fill="black" > 664</text>
<circle cx="1712" cy="679" r="4" fill="white" stroke="black" />
<line x1="1712" y1="683" x2="1712" y2="736" stroke="black" />
<circle cx="1712" cy="736" r="4" fill="white" stroke="black" />
<text x="1712" y="748" font-family="Verdana" font-size="8" text-anchor="middle"  dominant-baseline="middle" fill="black" > 721</text>
<circle cx="1737" cy="679" r="4" fill="white" stroke="black" />
<line x1="1737" y1="683" x2="1737" y2="736" stroke="black" />
<circle cx="1737" cy="736" r="4" fill="white" stroke="black" />
<text x="1737" y="748" font-family="Verdana" font-size="8" text-anchor="middle"  dominant-baseline="middle" fill="black" > 721</text>
<circle cx="1775" cy="607" r="4" fill="white" stroke="black" />
<line x1="1775" y1="611" x2="1775" y2="705" stroke="black" />
<line x1="1762" y1="705" x2="1788" y2="705" stroke="black" />
<text x="1781" y="697" font-family="Verdana" font-size="8" text-anchor="middle"  dominant-baseline="middle" fill="black" > 690</text>
<circle cx="1762" cy="705" r="4" fill="white" stroke="black" />
<line x1="1762" y1="709" x2="1762" y2="736" stroke="black" />
<circle cx="1762" cy="736" r="4" fill="white" stroke="black" />
<text x="1762" y="748" font-family="Verdana" font-size="8" text-anchor="middle"  dominant-baseline="middle" fill="black" > 721</text>
<circle cx="1787" cy="705" r="4" fill="white" stroke="black" />
<line x1="1787" y1="709" x2="1787" y2="736" stroke="black" />
<circle cx="1787" cy="736" r="4" fill="white" stroke="black" />
<text x="1787" y="748" font-family="Verdana" font-size="8" text-anchor="middle"  dominant-baseline="middle" fill="black" > 721</text>
</svg>
