<?xml version="1.0" encoding="utf-8"?>
<svg xmlns="http://www.w3.org/2000/svg" version="1.1" width="1450" height="750">
<rect width="1450" height="15" x="0" y="0" fill="white" />
<rect width="1450" height="15" x="0" y="735" fill="white" />
<rect width="25" height="750" x="0" y="0" fill="white" />
<rect width="25" height="750" x="1425" y="0" fill="white" />
<rect width="1410" height="144" x="25" y="15" fill="ghostwhite" />
<rect width="1410" height="144" x="25" y="159" fill="snow" />
<rect width="1410" height="144" x="25" y="303" fill="ghostwhite" />
<rect width="1410" height="144" x="25" y="447" fill="snow" />
<rect width="1410" height="144" x="25" y="591" fill="ghostwhite" />
<text x="12" y="87" font-family="Verdana" font-size="10" text-anchor="middle"  dominant-baseline="middle" fill="red" > D0</text>
<text x="12" y="231" font-family="Verdana" font-size="10" text-anchor="middle"  dominant-baseline="middle" fill="red" > D1</text>
<text x="12" y="375" font-family="Verdana" font-size="10" text-anchor="middle"  dominant-baseline="middle" fill="red" > D2</text>
<text x="12" y="519" font-family="Verdana" font-size="10" text-anchor="middle"  dominant-baseline="middle" fill="red" > D3</text>
<text x="12" y="663" font-family="Verdana" font-size="10" text-anchor="middle"  dominant-baseline="middle" fill="red" > D4</text>
<text x="12" y="20" font-family="Verdana" font-size="10" text-anchor="middle"  dominant-baseline="middle" fill="black" > 0</text>
<text x="12" y="164" font-family="Verdana" font-size="10" text-anchor="middle"  dominant-baseline="middle" fill="black" > 144</text>
<text x="12" y="308" font-family="Verdana" font-size="10" text-anchor="middle"  dominant-baseline="middle" fill="black" > 288</text>
<text x="12" y="452" font-family="Verdana" font-size="10" text-anchor="middle"  dominant-baseline="middle" fill="black" > 432</text>
<text x="12" y="596" font-family="Verdana" font-size="10" text-anchor="middle"  dominant-baseline="middle" fill="black" > 576</text>
<text x="12" y="740" font-family="Verdana" font-size="10" text-anchor="middle"  dominant-baseline="middle" fill="black" > 720</text>
<text x="150" y="7" font-family="Verdana" font-size="7" text-anchor="middle"  dominant-baseline="middle" fill="black" > C1</text>
<circle cx="150" cy="15" r="4" fill="white" stroke="black" />
<line x1="150" y1="19" x2="150" y2="312" stroke="black" />
<line x1="50" y1="312" x2="250" y2="312" stroke="black" />
<text x="175" y="304" font-family="Verdana" font-size="8" text-anchor="middle"  dominant-baseline="middle" fill="black" > 297</text>
<circle cx="50" cy="312" r="4" fill="white" stroke="black" />
<line x1="50" y1="316" x2="50" y2="396" stroke="black" />
<line x1="46" y1="392" x2="54" y2="400" stroke="red" />
<line x1="46" y1="400" x2="54" y2="392" stroke="red" />
<text x="50" y="408" font-family="Verdana" font-size="8" text-anchor="middle"  dominant-baseline="middle" fill="black" > 381</text>
<circle cx="150" cy="312" r="4" fill="white" stroke="black" />
<line x1="150" y1="316" x2="150" y2="454" stroke="black" />
<line x1="146" y1="450" x2="154" y2="458" stroke="red" />
<line x1="146" y1="458" x2="154" y2="450" stroke="red" />
<text x="150" y="466" font-family="Verdana" font-size="8" text-anchor="middle"  dominant-baseline="middle" fill="black" > 439</text>
<circle cx="250" cy="312" r="4" fill="white" stroke="black" />
<line x1="250" y1="316" x2="250" y2="466" stroke="black" />
<line x1="246" y1="462" x2="254" y2="470" stroke="red" />
<line x1="246" y1="470" x2="254" y2="462" stroke="red" />
<text x="250" y="478" font-family="Verdana" font-size="8" text-anchor="middle"  dominant-baseline="middle" fill="black" > 451</text>
<text x="350" y="7" font-family="Verdana" font-size="7" text-anchor="middle"  dominant-baseline="middle" fill="black" > C2</text>
<circle cx="350" cy="15" r="4" fill="white" stroke="black" />
<text x="450" y="7" font-family="Verdana" font-size="7" text-anchor="middle"  dominant-baseline="middle" fill="black" > C3</text>
<circle cx="450" cy="15" r="4" fill="white" stroke="black" />
<line x1="350" y1="19" x2="350" y2="49" stroke="black" />
<line x1="350" y1="49" x2="400" y2="60" stroke="black" />
<line x1="450" y1="19" x2="450" y2="49" stroke="black" />
<line x1="450" y1="49" x2="400" y2="60" stroke="black" />
<text x="400" y="48" font-family="Verdana" font-size="8" text-anchor="middle"  dominant-baseline="middle" fill="black" > 45</text>
<circle cx="400" cy="60" r="4" fill="white" stroke="black" />
<line x1="400" y1="64" x2="400" y2="69" stroke="black" />
<line x1="375" y1="69" x2="425" y2="69" stroke="black" />
<text x="412" y="61" font-family="Verdana" font-size="8" text-anchor="middle"  dominant-baseline="middle" fill="black" > 54</text>
<circle cx="375" cy="69" r="4" fill="white" stroke="black" />
<line x1="375" y1="73" x2="375" y2="168" stroke="black" />
<line x1="371" y1="164" x2="379" y2="172" stroke="red" />
<line x1="371" y1="172" x2="379" y2="164" stroke="red" />
<text x="375" y="180" font-family="Verdana" font-size="8" text-anchor="middle"  dominant-baseline="middle" fill="black" > 153</text>
<circle cx="425" cy="69" r="4" fill="white" stroke="black" />
<line x1="425" y1="73" x2="425" y2="736" stroke="black" />
<circle cx="425" cy="736" r="4" fill="white" stroke="black" />
<text x="425" y="748" font-family="Verdana" font-size="8" text-anchor="middle"  dominant-baseline="middle" fill="black" > 721</text>
<text x="550" y="7" font-family="Verdana" font-size="7" text-anchor="middle"  dominant-baseline="middle" fill="black" > C4</text>
<circle cx="550" cy="15" r="4" fill="white" stroke="black" />
<line x1="550" y1="19" x2="550" y2="31" stroke="black" />
<line x1="546" y1="35" x2="550" y2="27" stroke="blue" />
<line x1="550" y1="35" x2="554" y2="27" stroke="blue" />
<text x="550" y="43" font-family="Verdana" font-size="8" text-anchor="middle"  dominant-baseline="middle" fill="black" > 16</text>
<text x="650" y="7" font-family="Verdana" font-size="7" text-anchor="middle"  dominant-baseline="middle" fill="black" > C5</text>
<circle cx="650" cy="15" r="4" fill="white" stroke="black" />
<line x1="650" y1="19" x2="650" y2="318" stroke="black" />
<line x1="646" y1="314" x2="654" y2="322" stroke="red" />
<line x1="646" y1="322" x2="654" y2="314" stroke="red" />
<text x="650" y="330" font-family="Verdana" font-size="8" text-anchor="middle"  dominant-baseline="middle" fill="black" > 303</text>
<text x="750" y="7" font-family="Verdana" font-size="7" text-anchor="middle"  dominant-baseline="middle" fill="black" > C6</text>
<circle cx="750" cy="15" r="4" fill="white" stroke="black" />
<line x1="750" y1="19" x2="750" y2="405" stroke="black" />
<line x1="746" y1="401" x2="754" y2="409" stroke="red" />
<line x1="746" y1="409" x2="754" y2="401" stroke="red" />
<text x="750" y="417" font-family="Verdana" font-size="8" text-anchor="middle"  dominant-baseline="middle" fill="black" > 390</text>
<text x="850" y="7" font-family="Verdana" font-size="7" text-anchor="middle"  dominant-baseline="middle" fill="black" > C7</text>
<circle cx="850" cy="15" r="4" fill="white" stroke="black" />
<line x1="850" y1="19" x2="850" y2="555" stroke="black" />
<line x1="846" y1="551" x2="854" y2="559" stroke="red" />
<line x1="846" y1="559" x2="854" y2="551" stroke="red" />
<text x="850" y="567" font-family="Verdana" font-size="8" text-anchor="middle"  dominant-baseline="middle" fill="black" > 540</text>
<text x="1000" y="7" font-family="Verdana" font-size="7" text-anchor="middle"  dominant-baseline="middle" fill="black" > C8</text>
<circle cx="1000" cy="15" r="4" fill="white" stroke="black" />
<line x1="1000" y1="19" x2="1000" y2="284" stroke="black" />
<line x1="950" y1="284" x2="1050" y2="284" stroke="black" />
<text x="1025" y="276" font-family="Verdana" font-size="8" text-anchor="middle"  dominant-baseline="middle" fill="black" > 269</text>
<circle cx="950" cy="284" r="4" fill="white" stroke="black" />
<line x1="950" y1="288" x2="950" y2="356" stroke="black" />
<line x1="946" y1="352" x2="954" y2="360" stroke="red" />
<line x1="946" y1="360" x2="954" y2="352" stroke="red" />
<text x="950" y="368" font-family="Verdana" font-size="8" text-anchor="middle"  dominant-baseline="middle" fill="black" > 341</text>
<circle cx="1050" cy="284" r="4" fill="white" stroke="black" />
<line x1="1050" y1="288" x2="1050" y2="356" stroke="black" />
<line x1="1046" y1="352" x2="1054" y2="360" stroke="red" />
<line x1="1046" y1="360" x2="1054" y2="352" stroke="red" />
<text x="1050" y="368" font-family="Verdana" font-size="8" text-anchor="middle"  dominant-baseline="middle" fill="black" > 341</text>
<text x="1200" y="7" font-family="Verdana" font-size="7" text-anchor="middle"  dominant-baseline="middle" fill="black" > C9</text>
<circle cx="1200" cy="15" r="4" fill="white" stroke="black" />
<line x1="1200" y1="19" x2="1200" y2="478" stroke="black" />
<line x1="1150" y1="478" x2="1250" y2="478" stroke="black" />
<text x="1225" y="470" font-family="Verdana" font-size="8" text-anchor="middle"  dominant-baseline="middle" fill="black" > 463</text>
<circle cx="1150" cy="478" r="4" fill="white" stroke="black" />
<line x1="1150" y1="482" x2="1150" y2="596" stroke="black" />
<line x1="1146" y1="592" x2="1154" y2="600" stroke="red" />
<line x1="1146" y1="600" x2="1154" y2="592" stroke="red" />
<text x="1150" y="608" font-family="Verdana" font-size="8" text-anchor="middle"  dominant-baseline="middle" fill="black" > 581</text>
<circle cx="1250" cy="478" r="4" fill="white" stroke="black" />
<line x1="1250" y1="482" x2="1250" y2="630" stroke="black" />
<line x1="1246" y1="634" x2="1250" y2="626" stroke="blue" />
<line x1="1250" y1="634" x2="1254" y2="626" stroke="blue" />
<text x="1250" y="642" font-family="Verdana" font-size="8" text-anchor="middle"  dominant-baseline="middle" fill="black" > 615</text>
<text x="1350" y="7" font-family="Verdana" font-size="7" text-anchor="middle"  dominant-baseline="middle" fill="black" > C10</text>
<circle cx="1350" cy="15" r="4" fill="white" stroke="black" />
<line x1="1350" y1="19" x2="1350" y2="154" stroke="black" />
<line x1="1346" y1="158" x2="1350" y2="150" stroke="blue" />
<line x1="1350" y1="158" x2="1354" y2="150" stroke="blue" />
<text x="1350" y="166" font-family="Verdana" font-size="8" text-anchor="middle"  dominant-baseline="middle" fill="black" > 139</text>
</svg>
