<?xml version="1.0" encoding="utf-8"?>
<svg xmlns="http://www.w3.org/2000/svg" version="1.1" width="2150" height="750">
<rect width="2150" height="15" x="0" y="0" fill="white" />
<rect width="2150" height="15" x="0" y="735" fill="white" />
<rect width="25" height="750" x="0" y="0" fill="white" />
<rect width="25" height="750" x="2125" y="0" fill="white" />
<rect width="2110" height="144" x="25" y="15" fill="ghostwhite" />
<rect width="2110" height="144" x="25" y="159" fill="snow" />
<rect width="2110" height="144" x="25" y="303" fill="ghostwhite" />
<rect width="2110" height="144" x="25" y="447" fill="snow" />
<rect width="2110" height="144" x="25" y="591" fill="ghostwhite" />
<text x="12" y="87" font-family="Verdana" font-size="10" text-anchor="middle"  dominant-baseline="middle" fill="red" > D0</text>
<text x="12" y="231" font-family="Verdana" font-size="10" text-anchor="middle"  dominant-baseline="middle" fill="red" > D1</text>
<text x="12" y="375" font-family="Verdana" font-size="10" text-anchor="middle"  dominant-baseline="middle" fill="red" > D2</text>
<text x="12" y="519" font-family="Verdana" font-size="10" text-anchor="middle"  dominant-baseline="middle" fill="red" > D3</text>
<text x="12" y="663" font-family="Verdana" font-size="10" text-anchor="middle"  dominant-baseline="middle" fill="red" > D4</text>
<text x="12" y="20" font-family="Verdana" font-size="10" text-anchor="middle"  dominant-baseline="middle" fill="black" > 0</text>
<text x="12" y="164" font-family="Verdana" font-size="10" text-anchor="middle"  dominant-baseline="middle" fill="black" > 144</text>
<text x="12" y="308" font-family="Verdana" font-size="10" text-anchor="middle"  dominant-baseline="middle" fill="black" > 288</text>
<text x="12" y="452" font-family="Verdana" font-size="10" text-anchor="middle"  dominant-baseline="middle" fill="black" > 432</text>
<text x="12" y="596" font-family="Verdana" font-size="10" text-anchor="middle"  dominant-baseline="middle" fill="black" > 576</text>
<text x="12" y="740" font-family="Verdana" font-size="10" text-anchor="middle"  dominant-baseline="middle" fill="black" > 720</text>
<text x="100" y="7" font-family="Verdana" font-size="7" text-anchor="middle"  dominant-baseline="middle" fill="black" > C1</text>
<circle cx="100" cy="15" r="4" fill="white" stroke="black" />
<line x1="100" y1="19" x2="100" y2="312" stroke="black" />
<line x1="50" y1="312" x2="150" y2="312" stroke="black" />
<text x="125" y="304" font-family="Verdana" font-size="8" text-anchor="middle"  dominant-baseline="middle" fill="black" > 297</text>
<circle cx="50" cy="312" r="4" fill="white" stroke="black" />
<circle cx="150" cy="312" r="4" fill="white" stroke="black" />
<line x1="50" y1="316" x2="50" y2="630" stroke="black" />
<line x1="50" y1="630" x2="100" y2="735" stroke="black" />
<line x1="150" y1="316" x2="150" y2="630" stroke="black" />
<line x1="150" y1="630" x2="100" y2="735" stroke="black" />
<text x="100" y="723" font-family="Verdana" font-size="8" text-anchor="middle"  dominant-baseline="middle" fill="black" > 720</text>
<circle cx="100" cy="735" r="4" fill="white" stroke="black" />
<line x1="100" y1="739" x2="100" y2="736" stroke="black" />
<circle cx="100" cy="736" r="4" fill="white" stroke="black" />
<text x="100" y="748" font-family="Verdana" font-size="8" text-anchor="middle"  dominant-baseline="middle" fill="black" > 721</text>
<text x="350" y="7" font-family="Verdana" font-size="7" text-anchor="middle"  dominant-baseline="middle" fill="black" > C2</text>
<circle cx="350" cy="15" r="4" fill="white" stroke="black" />
<line x1="350" y1="19" x2="350" y2="613" stroke="black" />
<line x1="250" y1="613" x2="450" y2="613" stroke="black" />
<text x="375" y="605" font-family="Verdana" font-size="8" text-anchor="middle"  dominant-baseline="middle" fill="black" > 598</text>
<circle cx="250" cy="613" r="4" fill="white" stroke="black" />
<line x1="250" y1="617" x2="250" y2="630" stroke="black" />
<line x1="246" y1="626" x2="254" y2="634" stroke="red" />
<line x1="246" y1="634" x2="254" y2="626" stroke="red" />
<text x="250" y="642" font-family="Verdana" font-size="8" text-anchor="middle"  dominant-baseline="middle" fill="black" > 615</text>
<circle cx="350" cy="613" r="4" fill="white" stroke="black" />
<line x1="350" y1="617" x2="350" y2="675" stroke="black" />
<line x1="346" y1="671" x2="354" y2="679" stroke="red" />
<line x1="346" y1="679" x2="354" y2="671" stroke="red" />
<text x="350" y="687" font-family="Verdana" font-size="8" text-anchor="middle"  dominant-baseline="middle" fill="black" > 660</text>
<circle cx="450" cy="613" r="4" fill="white" stroke="black" />
<line x1="450" y1="617" x2="450" y2="680" stroke="black" />
<line x1="446" y1="676" x2="454" y2="684" stroke="red" />
<line x1="446" y1="684" x2="454" y2="676" stroke="red" />
<text x="450" y="692" font-family="Verdana" font-size="8" text-anchor="middle"  dominant-baseline="middle" fill="black" > 665</text>
<text x="550" y="7" font-family="Verdana" font-size="7" text-anchor="middle"  dominant-baseline="middle" fill="black" > C3</text>
<circle cx="550" cy="15" r="4" fill="white" stroke="black" />
<line x1="550" y1="19" x2="550" y2="545" stroke="black" />
<line x1="546" y1="549" x2="550" y2="541" stroke="blue" />
<line x1="550" y1="549" x2="554" y2="541" stroke="blue" />
<text x="550" y="557" font-family="Verdana" font-size="8" text-anchor="middle"  dominant-baseline="middle" fill="black" > 530</text>
<text x="650" y="7" font-family="Verdana" font-size="7" text-anchor="middle"  dominant-baseline="middle" fill="black" > C4</text>
<circle cx="650" cy="15" r="4" fill="white" stroke="black" />
<line x1="650" y1="19" x2="650" y2="486" stroke="black" />
<line x1="646" y1="482" x2="654" y2="490" stroke="red" />
<line x1="646" y1="490" x2="654" y2="482" stroke="red" />
<text x="650" y="498" font-family="Verdana" font-size="8" text-anchor="middle"  dominant-baseline="middle" fill="black" > 471</text>
<text x="850" y="7" font-family="Verdana" font-size="7" text-anchor="middle"  dominant-baseline="middle" fill="black" > C5</text>
<circle cx="850" cy="15" r="4" fill="white" stroke="black" />
<line x1="850" y1="19" x2="850" y2="279" stroke="black" />
<line x1="750" y1="279" x2="950" y2="279" stroke="black" />
<text x="875" y="271" font-family="Verdana" font-size="8" text-anchor="middle"  dominant-baseline="middle" fill="black" > 264</text>
<circle cx="750" cy="279" r="4" fill="white" stroke="black" />
<circle cx="850" cy="279" r="4" fill="white" stroke="black" />
<circle cx="950" cy="279" r="4" fill="white" stroke="black" />
<line x1="750" y1="283" x2="750" y2="284" stroke="black" />
<line x1="750" y1="284" x2="850" y2="285" stroke="black" />
<line x1="850" y1="283" x2="850" y2="284" stroke="black" />
<line x1="850" y1="284" x2="850" y2="285" stroke="black" />
<line x1="950" y1="283" x2="950" y2="284" stroke="black" />
<line x1="950" y1="284" x2="850" y2="285" stroke="black" />
<text x="850" y="273" font-family="Verdana" font-size="8" text-anchor="middle"  dominant-baseline="middle" fill="black" > 270</text>
<circle cx="850" cy="285" r="4" fill="white" stroke="black" />
<line x1="850" y1="289" x2="850" y2="391" stroke="black" />
<line x1="846" y1="387" x2="854" y2="395" stroke="red" />
<line x1="846" y1="395" x2="854" y2="387" stroke="red" />
<text x="850" y="403" font-family="Verdana" font-size="8" text-anchor="middle"  dominant-baseline="middle" fill="black" > 376</text>
<text x="1100" y="7" font-family="Verdana" font-size="7" text-anchor="middle"  dominant-baseline="middle" fill="black" > C6</text>
<circle cx="1100" cy="15" r="4" fill="white" stroke="black" />
<line x1="1100" y1="19" x2="1100" y2="336" stroke="black" />
<line x1="1050" y1="336" x2="1150" y2="336" stroke="black" />
<text x="1125" y="328" font-family="Verdana" font-size="8" text-anchor="middle"  dominant-baseline="middle" fill="black" > 321</text>
<circle cx="1050" cy="336" r="4" fill="white" stroke="black" />
<circle cx="1150" cy="336" r="4" fill="white" stroke="black" />
<line x1="1050" y1="340" x2="1050" y2="366" stroke="black" />
<line x1="1050" y1="366" x2="1100" y2="375" stroke="black" />
<line x1="1150" y1="340" x2="1150" y2="366" stroke="black" />
<line x1="1150" y1="366" x2="1100" y2="375" stroke="black" />
<text x="1100" y="363" font-family="Verdana" font-size="8" text-anchor="middle"  dominant-baseline="middle" fill="black" > 360</text>
<circle cx="1100" cy="375" r="4" fill="white" stroke="black" />
<line x1="1100" y1="379" x2="1100" y2="471" stroke="black" />
<line x1="1096" y1="467" x2="1104" y2="475" stroke="red" />
<line x1="1096" y1="475" x2="1104" y2="467" stroke="red" />
<text x="1100" y="483" font-family="Verdana" font-size="8" text-anchor="middle"  dominant-baseline="middle" fill="black" > 456</text>
<text x="1400" y="7" font-family="Verdana" font-size="7" text-anchor="middle"  dominant-baseline="middle" fill="black" > C7</text>
<circle cx="1400" cy="15" r="4" fill="white" stroke="black" />
<line x1="1400" y1="19" x2="1400" y2="465" stroke="black" />
<line x1="1250" y1="465" x2="1550" y2="465" stroke="black" />
<text x="1425" y="457" font-family="Verdana" font-size="8" text-anchor="middle"  dominant-baseline="middle" fill="black" > 450</text>
<circle cx="1250" cy="465" r="4" fill="white" stroke="black" />
<line x1="1250" y1="469" x2="1250" y2="543" stroke="black" />
<line x1="1246" y1="539" x2="1254" y2="547" stroke="red" />
<line x1="1246" y1="547" x2="1254" y2="539" stroke="red" />
<text x="1250" y="555" font-family="Verdana" font-size="8" text-anchor="middle"  dominant-baseline="middle" fill="black" > 528</text>
<circle cx="1350" cy="465" r="4" fill="white" stroke="black" />
<circle cx="1450" cy="465" r="4" fill="white" stroke="black" />
<circle cx="1550" cy="465" r="4" fill="white" stroke="black" />
<line x1="1350" y1="469" x2="1350" y2="522" stroke="black" />
<line x1="1350" y1="522" x2="1450" y2="540" stroke="black" />
<line x1="1450" y1="469" x2="1450" y2="522" stroke="black" />
<line x1="1450" y1="522" x2="1450" y2="540" stroke="black" />
<line x1="1550" y1="469" x2="1550" y2="522" stroke="black" />
<line x1="1550" y1="522" x2="1450" y2="540" stroke="black" />
<text x="1450" y="528" font-family="Verdana" font-size="8" text-anchor="middle"  dominant-baseline="middle" fill="black" > 525</text>
<circle cx="1450" cy="540" r="4" fill="white" stroke="black" />
<line x1="1450" y1="544" x2="1450" y2="584" stroke="black" />
<line x1="1446" y1="580" x2="1454" y2="588" stroke="red" />
<line x1="1446" y1="588" x2="1454" y2="580" stroke="red" />
<text x="1450" y="596" font-family="Verdana" font-size="8" text-anchor="middle"  dominant-baseline="middle" fill="black" > 569</text>
<text x="1750" y="7" font-family="Verdana" font-size="7" text-anchor="middle"  dominant-baseline="middle" fill="black" > C8</text>
<circle cx="1750" cy="15" r="4" fill="white" stroke="black" />
<line x1="1750" y1="19" x2="1750" y2="488" stroke="black" />
<line x1="1650" y1="488" x2="1850" y2="488" stroke="black" />
<text x="1775" y="480" font-family="Verdana" font-size="8" text-anchor="middle"  dominant-baseline="middle" fill="black" > 473</text>
<circle cx="1650" cy="488" r="4" fill="white" stroke="black" />
<circle cx="1750" cy="488" r="4" fill="white" stroke="black" />
<circle cx="1850" cy="488" r="4" fill="white" stroke="black" />
<line x1="1650" y1="492" x2="1650" y2="505" stroke="black" />
<line x1="1650" y1="505" x2="1750" y2="510" stroke="black" />
<line x1="1750" y1="492" x2="1750" y2="505" stroke="black" />
<line x1="1750" y1="505" x2="1750" y2="510" stroke="black" />
<line x1="1850" y1="492" x2="1850" y2="505" stroke="black" />
<line x1="1850" y1="505" x2="1750" y2="510" stroke="black" />
<text x="1750" y="498" font-family="Verdana" font-size="8" text-anchor="middle"  dominant-baseline="middle" fill="black" > 495</text>
<circle cx="1750" cy="510" r="4" fill="white" stroke="black" />
<line x1="1750" y1="514" x2="1750" y2="736" stroke="black" />
<circle cx="1750" cy="736" r="4" fill="white" stroke="black" />
<text x="1750" y="748" font-family="Verdana" font-size="8" text-anchor="middle"  dominant-baseline="middle" fill="black" > 721</text>
<text x="2000" y="7" font-family="Verdana" font-size="7" text-anchor="middle"  dominant-baseline="middle" fill="black" > C9</text>
<circle cx="2000" cy="15" r="4" fill="white" stroke="black" />
<line x1="2000" y1="19" x2="2000" y2="373" stroke="black" />
<line x1="1950" y1="373" x2="2050" y2="373" stroke="black" />
<text x="2025" y="365" font-family="Verdana" font-size="8" text-anchor="middle"  dominant-baseline="middle" fill="black" > 358</text>
<circle cx="1950" cy="373" r="4" fill="white" stroke="black" />
<circle cx="2050" cy="373" r="4" fill="white" stroke="black" />
<line x1="1950" y1="377" x2="1950" y2="415" stroke="black" />
<line x1="1950" y1="415" x2="2000" y2="429" stroke="black" />
<line x1="2050" y1="377" x2="2050" y2="415" stroke="black" />
<line x1="2050" y1="415" x2="2000" y2="429" stroke="black" />
<text x="2000" y="417" font-family="Verdana" font-size="8" text-anchor="middle"  dominant-baseline="middle" fill="black" > 414</text>
<circle cx="2000" cy="429" r="4" fill="white" stroke="black" />
<line x1="2000" y1="433" x2="2000" y2="736" stroke="black" />
<circle cx="2000" cy="736" r="4" fill="white" stroke="black" />
<text x="2000" y="748" font-family="Verdana" font-size="8" text-anchor="middle"  dominant-baseline="middle" fill="black" > 721</text>
</svg>
