<?xml version="1.0" encoding="utf-8"?>
<svg xmlns="http://www.w3.org/2000/svg" version="1.1" width="1150" height="750">
<rect width="1150" height="15" x="0" y="0" fill="white" />
<rect width="1150" height="15" x="0" y="735" fill="white" />
<rect width="25" height="750" x="0" y="0" fill="white" />
<rect width="25" height="750" x="1125" y="0" fill="white" />
<rect width="1110" height="144" x="25" y="15" fill="ghostwhite" />
<rect width="1110" height="144" x="25" y="159" fill="snow" />
<rect width="1110" height="144" x="25" y="303" fill="ghostwhite" />
<rect width="1110" height="144" x="25" y="447" fill="snow" />
<rect width="1110" height="144" x="25" y="591" fill="ghostwhite" />
<text x="12" y="87" font-family="Verdana" font-size="10" text-anchor="middle"  dominant-baseline="middle" fill="red" > D0</text>
<text x="12" y="231" font-family="Verdana" font-size="10" text-anchor="middle"  dominant-baseline="middle" fill="red" > D1</text>
<text x="12" y="375" font-family="Verdana" font-size="10" text-anchor="middle"  dominant-baseline="middle" fill="red" > D2</text>
<text x="12" y="519" font-family="Verdana" font-size="10" text-anchor="middle"  dominant-baseline="middle" fill="red" > D3</text>
<text x="12" y="663" font-family="Verdana" font-size="10" text-anchor="middle"  dominant-baseline="middle" fill="red" > D4</text>
<text x="12" y="20" font-family="Verdana" font-size="10" text-anchor="middle"  dominant-baseline="middle" fill="black" > 0</text>
<text x="12" y="164" font-family="Verdana" font-size="10" text-anchor="middle"  dominant-baseline="middle" fill="black" > 144</text>
<text x="12" y="308" font-family="Verdana" font-size="10" text-anchor="middle"  dominant-baseline="middle" fill="black" > 288</text>
<text x="12" y="452" font-family="Verdana" font-size="10" text-anchor="middle"  dominant-baseline="middle" fill="black" > 432</text>
<text x="12" y="596" font-family="Verdana" font-size="10" text-anchor="middle"  dominant-baseline="middle" fill="black" > 576</text>
<text x="12" y="740" font-family="Verdana" font-size="10" text-anchor="middle"  dominant-baseline="middle" fill="black" > 720</text>
<text x="50" y="7" font-family="Verdana" font-size="7" text-anchor="middle"  dominant-baseline="middle" fill="black" > C1</text>
<circle cx="50" cy="15" r="4" fill="white" stroke="black" />
<line x1="50" y1="19" x2="50" y2="62" stroke="black" />
<line x1="46" y1="66" x2="50" y2="58" stroke="blue" />
<line x1="50" y1="66" x2="54" y2="58" stroke="blue" />
<text x="50" y="74" font-family="Verdana" font-size="8" text-anchor="middle"  dominant-baseline="middle" fill="black" > 47</text>
<text x="200" y="7" font-family="Verdana" font-size="7" text-anchor="middle"  dominant-baseline="middle" fill="black" > C2</text>
<circle cx="200" cy="15" r="4" fill="white" stroke="black" />
<line x1="200" y1="19" x2="200" y2="182" stroke="black" />
<line x1="150" y1="182" x2="250" y2="182" stroke="black" />
<text x="225" y="174" font-family="Verdana" font-size="8" text-anchor="middle"  dominant-baseline="middle" fill="black" > 167</text>
<circle cx="150" cy="182" r="4" fill="white" stroke="black" />
<line x1="150" y1="186" x2="150" y2="437" stroke="black" />
<line x1="125" y1="437" x2="175" y2="437" stroke="black" />
<text x="162" y="429" font-family="Verdana" font-size="8" text-anchor="middle"  dominant-baseline="middle" fill="black" > 422</text>
<circle cx="125" cy="437" r="4" fill="white" stroke="black" />
<line x1="125" y1="441" x2="125" y2="578" stroke="black" />
<line x1="112" y1="578" x2="138" y2="578" stroke="black" />
<text x="131" y="570" font-family="Verdana" font-size="8" text-anchor="middle"  dominant-baseline="middle" fill="black" > 563</text>
<circle cx="112" cy="578" r="4" fill="white" stroke="black" />
<line x1="112" y1="582" x2="112" y2="736" stroke="black" />
<circle cx="112" cy="736" r="4" fill="white" stroke="black" />
<text x="112" y="748" font-family="Verdana" font-size="8" text-anchor="middle"  dominant-baseline="middle" fill="black" > 721</text>
<circle cx="137" cy="578" r="4" fill="white" stroke="black" />
<line x1="137" y1="582" x2="137" y2="736" stroke="black" />
<circle cx="137" cy="736" r="4" fill="white" stroke="black" />
<text x="137" y="748" font-family="Verdana" font-size="8" text-anchor="middle"  dominant-baseline="middle" fill="black" > 721</text>
<circle cx="175" cy="437" r="4" fill="white" stroke="black" />
<line x1="175" y1="441" x2="175" y2="571" stroke="black" />
<line x1="162" y1="571" x2="188" y2="571" stroke="black" />
<text x="181" y="563" font-family="Verdana" font-size="8" text-anchor="middle"  dominant-baseline="middle" fill="black" > 556</text>
<circle cx="162" cy="571" r="4" fill="white" stroke="black" />
<line x1="162" y1="575" x2="162" y2="736" stroke="black" />
<circle cx="162" cy="736" r="4" fill="white" stroke="black" />
<text x="162" y="748" font-family="Verdana" font-size="8" text-anchor="middle"  dominant-baseline="middle" fill="black" > 721</text>
<circle cx="187" cy="571" r="4" fill="white" stroke="black" />
<line x1="187" y1="575" x2="187" y2="736" stroke="black" />
<circle cx="187" cy="736" r="4" fill="white" stroke="black" />
<text x="187" y="748" font-family="Verdana" font-size="8" text-anchor="middle"  dominant-baseline="middle" fill="black" > 721</text>
<circle cx="250" cy="182" r="4" fill="white" stroke="black" />
<line x1="250" y1="186" x2="250" y2="436" stroke="black" />
<line x1="246" y1="432" x2="254" y2="440" stroke="red" />
<line x1="246" y1="440" x2="254" y2="432" stroke="red" />
<text x="250" y="448" font-family="Verdana" font-size="8" text-anchor="middle"  dominant-baseline="middle" fill="black" > 421</text>
<text x="400" y="7" font-family="Verdana" font-size="7" text-anchor="middle"  dominant-baseline="middle" fill="black" > C3</text>
<circle cx="400" cy="15" r="4" fill="white" stroke="black" />
<line x1="400" y1="19" x2="400" y2="544" stroke="black" />
<line x1="350" y1="544" x2="450" y2="544" stroke="black" />
<text x="425" y="536" font-family="Verdana" font-size="8" text-anchor="middle"  dominant-baseline="middle" fill="black" > 529</text>
<circle cx="350" cy="544" r="4" fill="white" stroke="black" />
<line x1="350" y1="548" x2="350" y2="686" stroke="black" />
<line x1="316" y1="686" x2="384" y2="686" stroke="black" />
<text x="358" y="678" font-family="Verdana" font-size="8" text-anchor="middle"  dominant-baseline="middle" fill="black" > 671</text>
<circle cx="316" cy="686" r="4" fill="white" stroke="black" />
<circle cx="349" cy="686" r="4" fill="white" stroke="black" />
<line x1="316" y1="690" x2="316" y2="691" stroke="black" />
<line x1="316" y1="691" x2="332" y2="692" stroke="black" />
<line x1="349" y1="690" x2="349" y2="691" stroke="black" />
<line x1="349" y1="691" x2="332" y2="692" stroke="black" />
<text x="332" y="680" font-family="Verdana" font-size="8" text-anchor="middle"  dominant-baseline="middle" fill="black" > 677</text>
<circle cx="332" cy="692" r="4" fill="white" stroke="black" />
<line x1="332" y1="696" x2="332" y2="736" stroke="black" />
<circle cx="332" cy="736" r="4" fill="white" stroke="black" />
<text x="332" y="748" font-family="Verdana" font-size="8" text-anchor="middle"  dominant-baseline="middle" fill="black" > 721</text>
<circle cx="382" cy="686" r="4" fill="white" stroke="black" />
<line x1="382" y1="690" x2="382" y2="736" stroke="black" />
<circle cx="382" cy="736" r="4" fill="white" stroke="black" />
<text x="382" y="748" font-family="Verdana" font-size="8" text-anchor="middle"  dominant-baseline="middle" fill="black" > 721</text>
<circle cx="450" cy="544" r="4" fill="white" stroke="black" />
<line x1="450" y1="548" x2="450" y2="666" stroke="black" />
<line x1="446" y1="662" x2="454" y2="670" stroke="red" />
<line x1="446" y1="670" x2="454" y2="662" stroke="red" />
<text x="450" y="678" font-family="Verdana" font-size="8" text-anchor="middle"  dominant-baseline="middle" fill="black" > 651</text>
<text x="600" y="7" font-family="Verdana" font-size="7" text-anchor="middle"  dominant-baseline="middle" fill="black" > C4</text>
<circle cx="600" cy="15" r="4" fill="white" stroke="black" />
<line x1="600" y1="19" x2="600" y2="52" stroke="black" />
<line x1="550" y1="52" x2="650" y2="52" stroke="black" />
<text x="625" y="44" font-family="Verdana" font-size="8" text-anchor="middle"  dominant-baseline="middle" fill="black" > 37</text>
<circle cx="550" cy="52" r="4" fill="white" stroke="black" />
<line x1="550" y1="56" x2="550" y2="236" stroke="black" />
<line x1="525" y1="236" x2="575" y2="236" stroke="black" />
<text x="562" y="228" font-family="Verdana" font-size="8" text-anchor="middle"  dominant-baseline="middle" fill="black" > 221</text>
<circle cx="525" cy="236" r="4" fill="white" stroke="black" />
<line x1="525" y1="240" x2="525" y2="450" stroke="black" />
<line x1="512" y1="450" x2="538" y2="450" stroke="black" />
<text x="531" y="442" font-family="Verdana" font-size="8" text-anchor="middle"  dominant-baseline="middle" fill="black" > 435</text>
<circle cx="512" cy="450" r="4" fill="white" stroke="black" />
<line x1="512" y1="454" x2="512" y2="736" stroke="black" />
<circle cx="512" cy="736" r="4" fill="white" stroke="black" />
<text x="512" y="748" font-family="Verdana" font-size="8" text-anchor="middle"  dominant-baseline="middle" fill="black" > 721</text>
<circle cx="537" cy="450" r="4" fill="white" stroke="black" />
<line x1="537" y1="454" x2="537" y2="736" stroke="black" />
<circle cx="537" cy="736" r="4" fill="white" stroke="black" />
<text x="537" y="748" font-family="Verdana" font-size="8" text-anchor="middle"  dominant-baseline="middle" fill="black" > 721</text>
<circle cx="575" cy="236" r="4" fill="white" stroke="black" />
<line x1="575" y1="240" x2="575" y2="433" stroke="black" />
<line x1="562" y1="433" x2="588" y2="433" stroke="black" />
<text x="581" y="425" font-family="Verdana" font-size="8" text-anchor="middle"  dominant-baseline="middle" fill="black" > 418</text>
<circle cx="562" cy="433" r="4" fill="white" stroke="black" />
<line x1="562" y1="437" x2="562" y2="736" stroke="black" />
<circle cx="562" cy="736" r="4" fill="white" stroke="black" />
<text x="562" y="748" font-family="Verdana" font-size="8" text-anchor="middle"  dominant-baseline="middle" fill="black" > 721</text>
<circle cx="587" cy="433" r="4" fill="white" stroke="black" />
<line x1="587" y1="437" x2="587" y2="736" stroke="black" />
<line x1="583" y1="732" x2="591" y2="740" stroke="red" />
<line x1="583" y1="740" x2="591" y2="732" stroke="red" />
<text x="587" y="748" font-family="Verdana" font-size="8" text-anchor="middle"  dominant-baseline="middle" fill="black" > 721</text>
<circle cx="650" cy="52" r="4" fill="white" stroke="black" />
<line x1="650" y1="56" x2="650" y2="231" stroke="black" />
<line x1="625" y1="231" x2="675" y2="231" stroke="black" />
<text x="662" y="223" font-family="Verdana" font-size="8" text-anchor="middle"  dominant-baseline="middle" fill="black" > 216</text>
<circle cx="625" cy="231" r="4" fill="white" stroke="black" />
<line x1="625" y1="235" x2="625" y2="437" stroke="black" />
<line x1="612" y1="437" x2="638" y2="437" stroke="black" />
<text x="631" y="429" font-family="Verdana" font-size="8" text-anchor="middle"  dominant-baseline="middle" fill="black" > 422</text>
<circle cx="612" cy="437" r="4" fill="white" stroke="black" />
<line x1="612" y1="441" x2="612" y2="700" stroke="black" />
<line x1="606" y1="700" x2="619" y2="700" stroke="black" />
<text x="615" y="692" font-family="Verdana" font-size="8" text-anchor="middle"  dominant-baseline="middle" fill="black" > 685</text>
<circle cx="606" cy="700" r="4" fill="white" stroke="black" />
<line x1="606" y1="704" x2="606" y2="736" stroke="black" />
<circle cx="606" cy="736" r="4" fill="white" stroke="black" />
<text x="606" y="748" font-family="Verdana" font-size="8" text-anchor="middle"  dominant-baseline="middle" fill="black" > 721</text>
<circle cx="618" cy="700" r="4" fill="white" stroke="black" />
<line x1="618" y1="704" x2="618" y2="736" stroke="black" />
<circle cx="618" cy="736" r="4" fill="white" stroke="black" />
<text x="618" y="748" font-family="Verdana" font-size="8" text-anchor="middle"  dominant-baseline="middle" fill="black" > 721</text>
<circle cx="637" cy="437" r="4" fill="white" stroke="black" />
<line x1="637" y1="441" x2="637" y2="645" stroke="black" />
<line x1="629" y1="645" x2="646" y2="645" stroke="black" />
<text x="639" y="637" font-family="Verdana" font-size="8" text-anchor="middle"  dominant-baseline="middle" fill="black" > 630</text>
<circle cx="629" cy="645" r="4" fill="white" stroke="black" />
<line x1="629" y1="649" x2="629" y2="736" stroke="black" />
<circle cx="629" cy="736" r="4" fill="white" stroke="black" />
<text x="629" y="748" font-family="Verdana" font-size="8" text-anchor="middle"  dominant-baseline="middle" fill="black" > 721</text>
<circle cx="637" cy="645" r="4" fill="white" stroke="black" />
<line x1="637" y1="649" x2="637" y2="736" stroke="black" />
<circle cx="637" cy="736" r="4" fill="white" stroke="black" />
<text x="637" y="748" font-family="Verdana" font-size="8" text-anchor="middle"  dominant-baseline="middle" fill="black" > 721</text>
<circle cx="645" cy="645" r="4" fill="white" stroke="black" />
<line x1="645" y1="649" x2="645" y2="736" stroke="black" />
<circle cx="645" cy="736" r="4" fill="white" stroke="black" />
<text x="645" y="748" font-family="Verdana" font-size="8" text-anchor="middle"  dominant-baseline="middle" fill="black" > 721</text>
<circle cx="675" cy="231" r="4" fill="white" stroke="black" />
<line x1="675" y1="235" x2="675" y2="430" stroke="black" />
<line x1="662" y1="430" x2="688" y2="430" stroke="black" />
<text x="681" y="422" font-family="Verdana" font-size="8" text-anchor="middle"  dominant-baseline="middle" fill="black" > 415</text>
<circle cx="662" cy="430" r="4" fill="white" stroke="black" />
<line x1="662" y1="434" x2="662" y2="605" stroke="black" />
<line x1="656" y1="605" x2="669" y2="605" stroke="black" />
<text x="665" y="597" font-family="Verdana" font-size="8" text-anchor="middle"  dominant-baseline="middle" fill="black" > 590</text>
<circle cx="656" cy="605" r="4" fill="white" stroke="black" />
<line x1="656" y1="609" x2="656" y2="736" stroke="black" />
<circle cx="656" cy="736" r="4" fill="white" stroke="black" />
<text x="656" y="748" font-family="Verdana" font-size="8" text-anchor="middle"  dominant-baseline="middle" fill="black" > 721</text>
<circle cx="668" cy="605" r="4" fill="white" stroke="black" />
<line x1="668" y1="609" x2="668" y2="736" stroke="black" />
<circle cx="668" cy="736" r="4" fill="white" stroke="black" />
<text x="668" y="748" font-family="Verdana" font-size="8" text-anchor="middle"  dominant-baseline="middle" fill="black" > 721</text>
<circle cx="687" cy="430" r="4" fill="white" stroke="black" />
<line x1="687" y1="434" x2="687" y2="623" stroke="black" />
<line x1="681" y1="623" x2="694" y2="623" stroke="black" />
<text x="690" y="615" font-family="Verdana" font-size="8" text-anchor="middle"  dominant-baseline="middle" fill="black" > 608</text>
<circle cx="681" cy="623" r="4" fill="white" stroke="black" />
<line x1="681" y1="627" x2="681" y2="736" stroke="black" />
<circle cx="681" cy="736" r="4" fill="white" stroke="black" />
<text x="681" y="748" font-family="Verdana" font-size="8" text-anchor="middle"  dominant-baseline="middle" fill="black" > 721</text>
<circle cx="693" cy="623" r="4" fill="white" stroke="black" />
<line x1="693" y1="627" x2="693" y2="736" stroke="black" />
<circle cx="693" cy="736" r="4" fill="white" stroke="black" />
<text x="693" y="748" font-family="Verdana" font-size="8" text-anchor="middle"  dominant-baseline="middle" fill="black" > 721</text>
<text x="800" y="7" font-family="Verdana" font-size="7" text-anchor="middle"  dominant-baseline="middle" fill="black" > C5</text>
<circle cx="800" cy="15" r="4" fill="white" stroke="black" />
<line x1="800" y1="19" x2="800" y2="168" stroke="black" />
<line x1="750" y1="168" x2="850" y2="168" stroke="black" />
<text x="825" y="160" font-family="Verdana" font-size="8" text-anchor="middle"  dominant-baseline="middle" fill="black" > 153</text>
<circle cx="750" cy="168" r="4" fill="white" stroke="black" />
<line x1="750" y1="172" x2="750" y2="589" stroke="black" />
<line x1="746" y1="585" x2="754" y2="593" stroke="red" />
<line x1="746" y1="593" x2="754" y2="585" stroke="red" />
<text x="750" y="601" font-family="Verdana" font-size="8" text-anchor="middle"  dominant-baseline="middle" fill="black" > 574</text>
<circle cx="850" cy="168" r="4" fill="white" stroke="black" />
<line x1="850" y1="172" x2="850" y2="387" stroke="black" />
<line x1="825" y1="387" x2="875" y2="387" stroke="black" />
<text x="862" y="379" font-family="Verdana" font-size="8" text-anchor="middle"  dominant-baseline="middle" fill="black" > 372</text>
<circle cx="825" cy="387" r="4" fill="white" stroke="black" />
<line x1="825" y1="391" x2="825" y2="551" stroke="black" />
<line x1="812" y1="551" x2="838" y2="551" stroke="black" />
<text x="831" y="543" font-family="Verdana" font-size="8" text-anchor="middle"  dominant-baseline="middle" fill="black" > 536</text>
<circle cx="812" cy="551" r="4" fill="white" stroke="black" />
<line x1="812" y1="555" x2="812" y2="736" stroke="black" />
<circle cx="812" cy="736" r="4" fill="white" stroke="black" />
<text x="812" y="748" font-family="Verdana" font-size="8" text-anchor="middle"  dominant-baseline="middle" fill="black" > 721</text>
<circle cx="837" cy="551" r="4" fill="white" stroke="black" />
<line x1="837" y1="555" x2="837" y2="736" stroke="black" />
<circle cx="837" cy="736" r="4" fill="white" stroke="black" />
<text x="837" y="748" font-family="Verdana" font-size="8" text-anchor="middle"  dominant-baseline="middle" fill="black" > 721</text>
<circle cx="875" cy="387" r="4" fill="white" stroke="black" />
<line x1="875" y1="391" x2="875" y2="554" stroke="black" />
<line x1="862" y1="554" x2="888" y2="554" stroke="black" />
<text x="881" y="546" font-family="Verdana" font-size="8" text-anchor="middle"  dominant-baseline="middle" fill="black" > 539</text>
<circle cx="862" cy="554" r="4" fill="white" stroke="black" />
<line x1="862" y1="558" x2="862" y2="736" stroke="black" />
<circle cx="862" cy="736" r="4" fill="white" stroke="black" />
<text x="862" y="748" font-family="Verdana" font-size="8" text-anchor="middle"  dominant-baseline="middle" fill="black" > 721</text>
<circle cx="887" cy="554" r="4" fill="white" stroke="black" />
<line x1="887" y1="558" x2="887" y2="730" stroke="black" />
<line x1="881" y1="730" x2="894" y2="730" stroke="black" />
<text x="890" y="722" font-family="Verdana" font-size="8" text-anchor="middle"  dominant-baseline="middle" fill="black" > 715</text>
<circle cx="881" cy="730" r="4" fill="white" stroke="black" />
<line x1="881" y1="734" x2="881" y2="736" stroke="black" />
<circle cx="881" cy="736" r="4" fill="white" stroke="black" />
<text x="881" y="748" font-family="Verdana" font-size="8" text-anchor="middle"  dominant-baseline="middle" fill="black" > 721</text>
<circle cx="893" cy="730" r="4" fill="white" stroke="black" />
<line x1="893" y1="734" x2="893" y2="736" stroke="black" />
<circle cx="893" cy="736" r="4" fill="white" stroke="black" />
<text x="893" y="748" font-family="Verdana" font-size="8" text-anchor="middle"  dominant-baseline="middle" fill="black" > 721</text>
<text x="1000" y="7" font-family="Verdana" font-size="7" text-anchor="middle"  dominant-baseline="middle" fill="black" > C6</text>
<circle cx="1000" cy="15" r="4" fill="white" stroke="black" />
<line x1="1000" y1="19" x2="1000" y2="140" stroke="black" />
<line x1="950" y1="140" x2="1050" y2="140" stroke="black" />
<text x="1025" y="132" font-family="Verdana" font-size="8" text-anchor="middle"  dominant-baseline="middle" fill="black" > 125</text>
<circle cx="950" cy="140" r="4" fill="white" stroke="black" />
<line x1="950" y1="144" x2="950" y2="415" stroke="black" />
<line x1="925" y1="415" x2="975" y2="415" stroke="black" />
<text x="962" y="407" font-family="Verdana" font-size="8" text-anchor="middle"  dominant-baseline="middle" fill="black" > 400</text>
<circle cx="925" cy="415" r="4" fill="white" stroke="black" />
<line x1="925" y1="419" x2="925" y2="708" stroke="black" />
<line x1="912" y1="708" x2="938" y2="708" stroke="black" />
<text x="931" y="700" font-family="Verdana" font-size="8" text-anchor="middle"  dominant-baseline="middle" fill="black" > 693</text>
<circle cx="912" cy="708" r="4" fill="white" stroke="black" />
<line x1="912" y1="712" x2="912" y2="736" stroke="black" />
<circle cx="912" cy="736" r="4" fill="white" stroke="black" />
<text x="912" y="748" font-family="Verdana" font-size="8" text-anchor="middle"  dominant-baseline="middle" fill="black" > 721</text>
<circle cx="937" cy="708" r="4" fill="white" stroke="black" />
<line x1="937" y1="712" x2="937" y2="736" stroke="black" />
<circle cx="937" cy="736" r="4" fill="white" stroke="black" />
<text x="937" y="748" font-family="Verdana" font-size="8" text-anchor="middle"  dominant-baseline="middle" fill="black" > 721</text>
<circle cx="975" cy="415" r="4" fill="white" stroke="black" />
<line x1="975" y1="419" x2="975" y2="649" stroke="black" />
<line x1="962" y1="649" x2="988" y2="649" stroke="black" />
<text x="981" y="641" font-family="Verdana" font-size="8" text-anchor="middle"  dominant-baseline="middle" fill="black" > 634</text>
<circle cx="962" cy="649" r="4" fill="white" stroke="black" />
<line x1="962" y1="653" x2="962" y2="736" stroke="black" />
<circle cx="962" cy="736" r="4" fill="white" stroke="black" />
<text x="962" y="748" font-family="Verdana" font-size="8" text-anchor="middle"  dominant-baseline="middle" fill="black" > 721</text>
<circle cx="987" cy="649" r="4" fill="white" stroke="black" />
<line x1="987" y1="653" x2="987" y2="736" stroke="black" />
<circle cx="987" cy="736" r="4" fill="white" stroke="black" />
<text x="987" y="748" font-family="Verdana" font-size="8" text-anchor="middle"  dominant-baseline="middle" fill="black" > 721</text>
<circle cx="1050" cy="140" r="4" fill="white" stroke="black" />
<line x1="1050" y1="144" x2="1050" y2="384" stroke="black" />
<line x1="1025" y1="384" x2="1075" y2="384" stroke="black" />
<text x="1062" y="376" font-family="Verdana" font-size="8" text-anchor="middle"  dominant-baseline="middle" fill="black" > 369</text>
<circle cx="1025" cy="384" r="4" fill="white" stroke="black" />
<line x1="1025" y1="388" x2="1025" y2="736" stroke="black" />
<circle cx="1025" cy="736" r="4" fill="white" stroke="black" />
<text x="1025" y="748" font-family="Verdana" font-size="8" text-anchor="middle"  dominant-baseline="middle" fill="black" > 721</text>
<circle cx="1075" cy="384" r="4" fill="white" stroke="black" />
<line x1="1075" y1="388" x2="1075" y2="575" stroke="black" />
<line x1="1062" y1="575" x2="1088" y2="575" stroke="black" />
<text x="1081" y="567" font-family="Verdana" font-size="8" text-anchor="middle"  dominant-baseline="middle" fill="black" > 560</text>
<circle cx="1062" cy="575" r="4" fill="white" stroke="black" />
<line x1="1062" y1="579" x2="1062" y2="736" stroke="black" />
<circle cx="1062" cy="736" r="4" fill="white" stroke="black" />
<text x="1062" y="748" font-family="Verdana" font-size="8" text-anchor="middle"  dominant-baseline="middle" fill="black" > 721</text>
<circle cx="1087" cy="575" r="4" fill="white" stroke="black" />
<line x1="1087" y1="579" x2="1087" y2="736" stroke="black" />
<circle cx="1087" cy="736" r="4" fill="white" stroke="black" />
<text x="1087" y="748" font-family="Verdana" font-size="8" text-anchor="middle"  dominant-baseline="middle" fill="black" > 721</text>
</svg>
