<?xml version="1.0" encoding="utf-8"?>
<svg xmlns="http://www.w3.org/2000/svg" version="1.1" width="3450" height="750">
<rect width="3450" height="15" x="0" y="0" fill="white" />
<rect width="3450" height="15" x="0" y="735" fill="white" />
<rect width="25" height="750" x="0" y="0" fill="white" />
<rect width="25" height="750" x="3425" y="0" fill="white" />
<rect width="3410" height="144" x="25" y="15" fill="ghostwhite" />
<rect width="3410" height="144" x="25" y="159" fill="snow" />
<rect width="3410" height="144" x="25" y="303" fill="ghostwhite" />
<rect width="3410" height="144" x="25" y="447" fill="snow" />
<rect width="3410" height="144" x="25" y="591" fill="ghostwhite" />
<text x="12" y="87" font-family="Verdana" font-size="10" text-anchor="middle"  dominant-baseline="middle" fill="red" > D0</text>
<text x="12" y="231" font-family="Verdana" font-size="10" text-anchor="middle"  dominant-baseline="middle" fill="red" > D1</text>
<text x="12" y="375" font-family="Verdana" font-size="10" text-anchor="middle"  dominant-baseline="middle" fill="red" > D2</text>
<text x="12" y="519" font-family="Verdana" font-size="10" text-anchor="middle"  dominant-baseline="middle" fill="red" > D3</text>
<text x="12" y="663" font-family="Verdana" font-size="10" text-anchor="middle"  dominant-baseline="middle" fill="red" > D4</text>
<text x="12" y="20" font-family="Verdana" font-size="10" text-anchor="middle"  dominant-baseline="middle" fill="black" > 0</text>
<text x="12" y="164" font-family="Verdana" font-size="10" text-anchor="middle"  dominant-baseline="middle" fill="black" > 144</text>
<text x="12" y="308" font-family="Verdana" font-size="10" text-anchor="middle"  dominant-baseline="middle" fill="black" > 288</text>
<text x="12" y="452" font-family="Verdana" font-size="10" text-anchor="middle"  dominant-baseline="middle" fill="black" > 432</text>
<text x="12" y="596" font-family="Verdana" font-size="10" text-anchor="middle"  dominant-baseline="middle" fill="black" > 576</text>
<text x="12" y="740" font-family="Verdana" font-size="10" text-anchor="middle"  dominant-baseline="middle" fill="black" > 720</text>
<text x="150" y="7" font-family="Verdana" font-size="7" text-anchor="middle"  dominant-baseline="middle" fill="black" > C1</text>
<circle cx="150" cy="15" r="4" fill="white" stroke="black" />
<line x1="150" y1="19" x2="150" y2="401" stroke="black" />
<line x1="50" y1="401" x2="250" y2="401" stroke="black" />
<text x="175" y="393" font-family="Verdana" font-size="8" text-anchor="middle"  dominant-baseline="middle" fill="black" > 386</text>
<circle cx="50" cy="401" r="4" fill="white" stroke="black" />
<circle cx="150" cy="401" r="4" fill="white" stroke="black" />
<line x1="50" y1="405" x2="50" y2="417" stroke="black" />
<line x1="50" y1="417" x2="100" y2="422" stroke="black" />
<line x1="150" y1="405" x2="150" y2="417" stroke="black" />
<line x1="150" y1="417" x2="100" y2="422" stroke="black" />
<text x="100" y="410" font-family="Verdana" font-size="8" text-anchor="middle"  dominant-baseline="middle" fill="black" > 407</text>
<circle cx="100" cy="422" r="4" fill="white" stroke="black" />
<circle cx="250" cy="401" r="4" fill="white" stroke="black" />
<line x1="100" y1="426" x2="100" y2="425" stroke="black" />
<line x1="100" y1="425" x2="175" y2="425" stroke="black" />
<line x1="250" y1="405" x2="250" y2="425" stroke="black" />
<line x1="250" y1="425" x2="175" y2="425" stroke="black" />
<text x="175" y="413" font-family="Verdana" font-size="8" text-anchor="middle"  dominant-baseline="middle" fill="black" > 410</text>
<circle cx="175" cy="425" r="4" fill="white" stroke="black" />
<line x1="175" y1="429" x2="175" y2="588" stroke="black" />
<line x1="171" y1="584" x2="179" y2="592" stroke="red" />
<line x1="171" y1="592" x2="179" y2="584" stroke="red" />
<text x="175" y="600" font-family="Verdana" font-size="8" text-anchor="middle"  dominant-baseline="middle" fill="black" > 573</text>
<text x="350" y="7" font-family="Verdana" font-size="7" text-anchor="middle"  dominant-baseline="middle" fill="black" > C2</text>
<circle cx="350" cy="15" r="4" fill="white" stroke="black" />
<line x1="350" y1="19" x2="350" y2="411" stroke="black" />
<line x1="346" y1="415" x2="350" y2="407" stroke="blue" />
<line x1="350" y1="415" x2="354" y2="407" stroke="blue" />
<text x="350" y="423" font-family="Verdana" font-size="8" text-anchor="middle"  dominant-baseline="middle" fill="black" > 396</text>
<text x="550" y="7" font-family="Verdana" font-size="7" text-anchor="middle"  dominant-baseline="middle" fill="black" > C3</text>
<circle cx="550" cy="15" r="4" fill="white" stroke="black" />
<line x1="550" y1="19" x2="550" y2="225" stroke="black" />
<line x1="450" y1="225" x2="650" y2="225" stroke="black" />
<text x="575" y="217" font-family="Verdana" font-size="8" text-anchor="middle"  dominant-baseline="middle" fill="black" > 210</text>
<circle cx="450" cy="225" r="4" fill="white" stroke="black" />
<line x1="450" y1="229" x2="450" y2="333" stroke="black" />
<line x1="446" y1="329" x2="454" y2="337" stroke="red" />
<line x1="446" y1="337" x2="454" y2="329" stroke="red" />
<text x="450" y="345" font-family="Verdana" font-size="8" text-anchor="middle"  dominant-baseline="middle" fill="black" > 318</text>
<circle cx="550" cy="225" r="4" fill="white" stroke="black" />
<circle cx="650" cy="225" r="4" fill="white" stroke="black" />
<line x1="550" y1="229" x2="550" y2="239" stroke="black" />
<line x1="550" y1="239" x2="600" y2="243" stroke="black" />
<line x1="650" y1="229" x2="650" y2="239" stroke="black" />
<line x1="650" y1="239" x2="600" y2="243" stroke="black" />
<text x="600" y="231" font-family="Verdana" font-size="8" text-anchor="middle"  dominant-baseline="middle" fill="black" > 228</text>
<circle cx="600" cy="243" r="4" fill="white" stroke="black" />
<line x1="600" y1="247" x2="600" y2="361" stroke="black" />
<line x1="596" y1="357" x2="604" y2="365" stroke="red" />
<line x1="596" y1="365" x2="604" y2="357" stroke="red" />
<text x="600" y="373" font-family="Verdana" font-size="8" text-anchor="middle"  dominant-baseline="middle" fill="black" > 346</text>
<text x="800" y="7" font-family="Verdana" font-size="7" text-anchor="middle"  dominant-baseline="middle" fill="black" > C4</text>
<circle cx="800" cy="15" r="4" fill="white" stroke="black" />
<line x1="800" y1="19" x2="800" y2="20" stroke="black" />
<line x1="750" y1="20" x2="850" y2="20" stroke="black" />
<text x="825" y="12" font-family="Verdana" font-size="8" text-anchor="middle"  dominant-baseline="middle" fill="black" > 5</text>
<circle cx="750" cy="20" r="4" fill="white" stroke="black" />
<circle cx="850" cy="20" r="4" fill="white" stroke="black" />
<line x1="750" y1="24" x2="750" y2="98" stroke="black" />
<line x1="750" y1="98" x2="800" y2="124" stroke="black" />
<line x1="850" y1="24" x2="850" y2="98" stroke="black" />
<line x1="850" y1="98" x2="800" y2="124" stroke="black" />
<text x="800" y="112" font-family="Verdana" font-size="8" text-anchor="middle"  dominant-baseline="middle" fill="black" > 109</text>
<circle cx="800" cy="124" r="4" fill="white" stroke="black" />
<line x1="800" y1="128" x2="800" y2="380" stroke="black" />
<line x1="796" y1="384" x2="800" y2="376" stroke="blue" />
<line x1="800" y1="384" x2="804" y2="376" stroke="blue" />
<text x="800" y="392" font-family="Verdana" font-size="8" text-anchor="middle"  dominant-baseline="middle" fill="black" > 365</text>
<text x="1050" y="7" font-family="Verdana" font-size="7" text-anchor="middle"  dominant-baseline="middle" fill="black" > C5</text>
<circle cx="1050" cy="15" r="4" fill="white" stroke="black" />
<line x1="1050" y1="19" x2="1050" y2="267" stroke="black" />
<line x1="950" y1="267" x2="1150" y2="267" stroke="black" />
<text x="1075" y="259" font-family="Verdana" font-size="8" text-anchor="middle"  dominant-baseline="middle" fill="black" > 252</text>
<circle cx="950" cy="267" r="4" fill="white" stroke="black" />
<circle cx="1050" cy="267" r="4" fill="white" stroke="black" />
<line x1="950" y1="271" x2="950" y2="297" stroke="black" />
<line x1="950" y1="297" x2="1000" y2="306" stroke="black" />
<line x1="1050" y1="271" x2="1050" y2="297" stroke="black" />
<line x1="1050" y1="297" x2="1000" y2="306" stroke="black" />
<text x="1000" y="294" font-family="Verdana" font-size="8" text-anchor="middle"  dominant-baseline="middle" fill="black" > 291</text>
<circle cx="1000" cy="306" r="4" fill="white" stroke="black" />
<line x1="1000" y1="310" x2="1000" y2="326" stroke="black" />
<line x1="996" y1="322" x2="1004" y2="330" stroke="red" />
<line x1="996" y1="330" x2="1004" y2="322" stroke="red" />
<text x="1000" y="338" font-family="Verdana" font-size="8" text-anchor="middle"  dominant-baseline="middle" fill="black" > 311</text>
<circle cx="1150" cy="267" r="4" fill="white" stroke="black" />
<line x1="1150" y1="271" x2="1150" y2="349" stroke="black" />
<line x1="1146" y1="345" x2="1154" y2="353" stroke="red" />
<line x1="1146" y1="353" x2="1154" y2="345" stroke="red" />
<text x="1150" y="361" font-family="Verdana" font-size="8" text-anchor="middle"  dominant-baseline="middle" fill="black" > 334</text>
<text x="1300" y="7" font-family="Verdana" font-size="7" text-anchor="middle"  dominant-baseline="middle" fill="black" > C6</text>
<circle cx="1300" cy="15" r="4" fill="white" stroke="black" />
<line x1="1300" y1="19" x2="1300" y2="147" stroke="black" />
<line x1="1250" y1="147" x2="1350" y2="147" stroke="black" />
<text x="1325" y="139" font-family="Verdana" font-size="8" text-anchor="middle"  dominant-baseline="middle" fill="black" > 132</text>
<circle cx="1250" cy="147" r="4" fill="white" stroke="black" />
<line x1="1250" y1="151" x2="1250" y2="292" stroke="black" />
<line x1="1225" y1="292" x2="1275" y2="292" stroke="black" />
<text x="1262" y="284" font-family="Verdana" font-size="8" text-anchor="middle"  dominant-baseline="middle" fill="black" > 277</text>
<circle cx="1225" cy="292" r="4" fill="white" stroke="black" />
<line x1="1225" y1="296" x2="1225" y2="394" stroke="black" />
<line x1="1221" y1="390" x2="1229" y2="398" stroke="red" />
<line x1="1221" y1="398" x2="1229" y2="390" stroke="red" />
<text x="1225" y="406" font-family="Verdana" font-size="8" text-anchor="middle"  dominant-baseline="middle" fill="black" > 379</text>
<circle cx="1275" cy="292" r="4" fill="white" stroke="black" />
<line x1="1275" y1="296" x2="1275" y2="416" stroke="black" />
<line x1="1262" y1="416" x2="1288" y2="416" stroke="black" />
<text x="1281" y="408" font-family="Verdana" font-size="8" text-anchor="middle"  dominant-baseline="middle" fill="black" > 401</text>
<circle cx="1262" cy="416" r="4" fill="white" stroke="black" />
<line x1="1262" y1="420" x2="1262" y2="632" stroke="black" />
<line x1="1256" y1="632" x2="1269" y2="632" stroke="black" />
<text x="1265" y="624" font-family="Verdana" font-size="8" text-anchor="middle"  dominant-baseline="middle" fill="black" > 617</text>
<circle cx="1256" cy="632" r="4" fill="white" stroke="black" />
<line x1="1256" y1="636" x2="1256" y2="655" stroke="black" />
<line x1="1252" y1="659" x2="1256" y2="651" stroke="blue" />
<line x1="1256" y1="659" x2="1260" y2="651" stroke="blue" />
<text x="1256" y="667" font-family="Verdana" font-size="8" text-anchor="middle"  dominant-baseline="middle" fill="black" > 640</text>
<circle cx="1268" cy="632" r="4" fill="white" stroke="black" />
<line x1="1268" y1="636" x2="1268" y2="736" stroke="black" />
<circle cx="1268" cy="736" r="4" fill="white" stroke="black" />
<text x="1268" y="748" font-family="Verdana" font-size="8" text-anchor="middle"  dominant-baseline="middle" fill="black" > 721</text>
<circle cx="1287" cy="416" r="4" fill="white" stroke="black" />
<line x1="1287" y1="420" x2="1287" y2="645" stroke="black" />
<line x1="1281" y1="645" x2="1294" y2="645" stroke="black" />
<text x="1290" y="637" font-family="Verdana" font-size="8" text-anchor="middle"  dominant-baseline="middle" fill="black" > 630</text>
<circle cx="1281" cy="645" r="4" fill="white" stroke="black" />
<line x1="1281" y1="649" x2="1281" y2="736" stroke="black" />
<circle cx="1281" cy="736" r="4" fill="white" stroke="black" />
<text x="1281" y="748" font-family="Verdana" font-size="8" text-anchor="middle"  dominant-baseline="middle" fill="black" > 721</text>
<circle cx="1293" cy="645" r="4" fill="white" stroke="black" />
<line x1="1293" y1="649" x2="1293" y2="736" stroke="black" />
<circle cx="1293" cy="736" r="4" fill="white" stroke="black" />
<text x="1293" y="748" font-family="Verdana" font-size="8" text-anchor="middle"  dominant-baseline="middle" fill="black" > 721</text>
<circle cx="1350" cy="147" r="4" fill="white" stroke="black" />
<line x1="1350" y1="151" x2="1350" y2="282" stroke="black" />
<line x1="1325" y1="282" x2="1375" y2="282" stroke="black" />
<text x="1362" y="274" font-family="Verdana" font-size="8" text-anchor="middle"  dominant-baseline="middle" fill="black" > 267</text>
<circle cx="1325" cy="282" r="4" fill="white" stroke="black" />
<line x1="1325" y1="286" x2="1325" y2="422" stroke="black" />
<line x1="1312" y1="422" x2="1338" y2="422" stroke="black" />
<text x="1331" y="414" font-family="Verdana" font-size="8" text-anchor="middle"  dominant-baseline="middle" fill="black" > 407</text>
<circle cx="1312" cy="422" r="4" fill="white" stroke="black" />
<line x1="1312" y1="426" x2="1312" y2="688" stroke="black" />
<line x1="1308" y1="684" x2="1316" y2="692" stroke="red" />
<line x1="1308" y1="692" x2="1316" y2="684" stroke="red" />
<text x="1312" y="700" font-family="Verdana" font-size="8" text-anchor="middle"  dominant-baseline="middle" fill="black" > 673</text>
<circle cx="1337" cy="422" r="4" fill="white" stroke="black" />
<line x1="1337" y1="426" x2="1337" y2="637" stroke="black" />
<line x1="1331" y1="637" x2="1344" y2="637" stroke="black" />
<text x="1340" y="629" font-family="Verdana" font-size="8" text-anchor="middle"  dominant-baseline="middle" fill="black" > 622</text>
<circle cx="1331" cy="637" r="4" fill="white" stroke="black" />
<line x1="1331" y1="641" x2="1331" y2="680" stroke="black" />
<line x1="1327" y1="676" x2="1335" y2="684" stroke="red" />
<line x1="1327" y1="684" x2="1335" y2="676" stroke="red" />
<text x="1331" y="692" font-family="Verdana" font-size="8" text-anchor="middle"  dominant-baseline="middle" fill="black" > 665</text>
<circle cx="1343" cy="637" r="4" fill="white" stroke="black" />
<line x1="1343" y1="641" x2="1343" y2="736" stroke="black" />
<circle cx="1343" cy="736" r="4" fill="white" stroke="black" />
<text x="1343" y="748" font-family="Verdana" font-size="8" text-anchor="middle"  dominant-baseline="middle" fill="black" > 721</text>
<circle cx="1375" cy="282" r="4" fill="white" stroke="black" />
<line x1="1375" y1="286" x2="1375" y2="421" stroke="black" />
<line x1="1362" y1="421" x2="1388" y2="421" stroke="black" />
<text x="1381" y="413" font-family="Verdana" font-size="8" text-anchor="middle"  dominant-baseline="middle" fill="black" > 406</text>
<circle cx="1362" cy="421" r="4" fill="white" stroke="black" />
<line x1="1362" y1="425" x2="1362" y2="570" stroke="black" />
<line x1="1356" y1="570" x2="1369" y2="570" stroke="black" />
<text x="1365" y="562" font-family="Verdana" font-size="8" text-anchor="middle"  dominant-baseline="middle" fill="black" > 555</text>
<circle cx="1356" cy="570" r="4" fill="white" stroke="black" />
<line x1="1356" y1="574" x2="1356" y2="736" stroke="black" />
<circle cx="1356" cy="736" r="4" fill="white" stroke="black" />
<text x="1356" y="748" font-family="Verdana" font-size="8" text-anchor="middle"  dominant-baseline="middle" fill="black" > 721</text>
<circle cx="1368" cy="570" r="4" fill="white" stroke="black" />
<line x1="1368" y1="574" x2="1368" y2="736" stroke="black" />
<circle cx="1368" cy="736" r="4" fill="white" stroke="black" />
<text x="1368" y="748" font-family="Verdana" font-size="8" text-anchor="middle"  dominant-baseline="middle" fill="black" > 721</text>
<circle cx="1387" cy="421" r="4" fill="white" stroke="black" />
<line x1="1387" y1="425" x2="1387" y2="578" stroke="black" />
<line x1="1381" y1="578" x2="1394" y2="578" stroke="black" />
<text x="1390" y="570" font-family="Verdana" font-size="8" text-anchor="middle"  dominant-baseline="middle" fill="black" > 563</text>
<circle cx="1381" cy="578" r="4" fill="white" stroke="black" />
<line x1="1381" y1="582" x2="1381" y2="654" stroke="black" />
<line x1="1377" y1="650" x2="1385" y2="658" stroke="red" />
<line x1="1377" y1="658" x2="1385" y2="650" stroke="red" />
<text x="1381" y="666" font-family="Verdana" font-size="8" text-anchor="middle"  dominant-baseline="middle" fill="black" > 639</text>
<circle cx="1393" cy="578" r="4" fill="white" stroke="black" />
<line x1="1393" y1="582" x2="1393" y2="736" stroke="black" />
<circle cx="1393" cy="736" r="4" fill="white" stroke="black" />
<text x="1393" y="748" font-family="Verdana" font-size="8" text-anchor="middle"  dominant-baseline="middle" fill="black" > 721</text>
<text x="1500" y="7" font-family="Verdana" font-size="7" text-anchor="middle"  dominant-baseline="middle" fill="black" > C7</text>
<circle cx="1500" cy="15" r="4" fill="white" stroke="black" />
<line x1="1500" y1="19" x2="1500" y2="179" stroke="black" />
<line x1="1450" y1="179" x2="1550" y2="179" stroke="black" />
<text x="1525" y="171" font-family="Verdana" font-size="8" text-anchor="middle"  dominant-baseline="middle" fill="black" > 164</text>
<circle cx="1450" cy="179" r="4" fill="white" stroke="black" />
<line x1="1450" y1="183" x2="1450" y2="335" stroke="black" />
<line x1="1425" y1="335" x2="1475" y2="335" stroke="black" />
<text x="1462" y="327" font-family="Verdana" font-size="8" text-anchor="middle"  dominant-baseline="middle" fill="black" > 320</text>
<circle cx="1425" cy="335" r="4" fill="white" stroke="black" />
<line x1="1425" y1="339" x2="1425" y2="736" stroke="black" />
<circle cx="1425" cy="736" r="4" fill="white" stroke="black" />
<text x="1425" y="748" font-family="Verdana" font-size="8" text-anchor="middle"  dominant-baseline="middle" fill="black" > 721</text>
<circle cx="1475" cy="335" r="4" fill="white" stroke="black" />
<line x1="1475" y1="339" x2="1475" y2="542" stroke="black" />
<line x1="1462" y1="542" x2="1488" y2="542" stroke="black" />
<text x="1481" y="534" font-family="Verdana" font-size="8" text-anchor="middle"  dominant-baseline="middle" fill="black" > 527</text>
<circle cx="1462" cy="542" r="4" fill="white" stroke="black" />
<line x1="1462" y1="546" x2="1462" y2="736" stroke="black" />
<circle cx="1462" cy="736" r="4" fill="white" stroke="black" />
<text x="1462" y="748" font-family="Verdana" font-size="8" text-anchor="middle"  dominant-baseline="middle" fill="black" > 721</text>
<circle cx="1487" cy="542" r="4" fill="white" stroke="black" />
<line x1="1487" y1="546" x2="1487" y2="736" stroke="black" />
<circle cx="1487" cy="736" r="4" fill="white" stroke="black" />
<text x="1487" y="748" font-family="Verdana" font-size="8" text-anchor="middle"  dominant-baseline="middle" fill="black" > 721</text>
<circle cx="1550" cy="179" r="4" fill="white" stroke="black" />
<line x1="1550" y1="183" x2="1550" y2="346" stroke="black" />
<line x1="1525" y1="346" x2="1575" y2="346" stroke="black" />
<text x="1562" y="338" font-family="Verdana" font-size="8" text-anchor="middle"  dominant-baseline="middle" fill="black" > 331</text>
<circle cx="1525" cy="346" r="4" fill="white" stroke="black" />
<line x1="1525" y1="350" x2="1525" y2="464" stroke="black" />
<line x1="1521" y1="460" x2="1529" y2="468" stroke="red" />
<line x1="1521" y1="468" x2="1529" y2="460" stroke="red" />
<text x="1525" y="476" font-family="Verdana" font-size="8" text-anchor="middle"  dominant-baseline="middle" fill="black" > 449</text>
<circle cx="1575" cy="346" r="4" fill="white" stroke="black" />
<line x1="1575" y1="350" x2="1575" y2="502" stroke="black" />
<line x1="1571" y1="506" x2="1575" y2="498" stroke="blue" />
<line x1="1575" y1="506" x2="1579" y2="498" stroke="blue" />
<text x="1575" y="514" font-family="Verdana" font-size="8" text-anchor="middle"  dominant-baseline="middle" fill="black" > 487</text>
<text x="1700" y="7" font-family="Verdana" font-size="7" text-anchor="middle"  dominant-baseline="middle" fill="black" > C8</text>
<circle cx="1700" cy="15" r="4" fill="white" stroke="black" />
<line x1="1700" y1="19" x2="1700" y2="151" stroke="black" />
<line x1="1650" y1="151" x2="1750" y2="151" stroke="black" />
<text x="1725" y="143" font-family="Verdana" font-size="8" text-anchor="middle"  dominant-baseline="middle" fill="black" > 136</text>
<circle cx="1650" cy="151" r="4" fill="white" stroke="black" />
<circle cx="1750" cy="151" r="4" fill="white" stroke="black" />
<line x1="1750" y1="155" x2="1750" y2="275" stroke="black" />
<line x1="1725" y1="275" x2="1775" y2="275" stroke="black" />
<text x="1762" y="267" font-family="Verdana" font-size="8" text-anchor="middle"  dominant-baseline="middle" fill="black" > 260</text>
<circle cx="1725" cy="275" r="4" fill="white" stroke="black" />
<line x1="1650" y1="155" x2="1650" y2="386" stroke="black" />
<line x1="1650" y1="386" x2="1687" y2="422" stroke="black" />
<line x1="1725" y1="279" x2="1725" y2="386" stroke="black" />
<line x1="1725" y1="386" x2="1687" y2="422" stroke="black" />
<text x="1687" y="410" font-family="Verdana" font-size="8" text-anchor="middle"  dominant-baseline="middle" fill="black" > 407</text>
<circle cx="1687" cy="422" r="4" fill="white" stroke="black" />
<circle cx="1775" cy="275" r="4" fill="white" stroke="black" />
<line x1="1687" y1="426" x2="1687" y2="454" stroke="black" />
<line x1="1687" y1="454" x2="1731" y2="464" stroke="black" />
<line x1="1775" y1="279" x2="1775" y2="454" stroke="black" />
<line x1="1775" y1="454" x2="1731" y2="464" stroke="black" />
<text x="1731" y="452" font-family="Verdana" font-size="8" text-anchor="middle"  dominant-baseline="middle" fill="black" > 449</text>
<circle cx="1731" cy="464" r="4" fill="white" stroke="black" />
<line x1="1731" y1="468" x2="1731" y2="577" stroke="black" />
<line x1="1709" y1="577" x2="1753" y2="577" stroke="black" />
<text x="1742" y="569" font-family="Verdana" font-size="8" text-anchor="middle"  dominant-baseline="middle" fill="black" > 562</text>
<circle cx="1709" cy="577" r="4" fill="white" stroke="black" />
<line x1="1709" y1="581" x2="1709" y2="584" stroke="black" />
<line x1="1705" y1="580" x2="1713" y2="588" stroke="red" />
<line x1="1705" y1="588" x2="1713" y2="580" stroke="red" />
<text x="1709" y="596" font-family="Verdana" font-size="8" text-anchor="middle"  dominant-baseline="middle" fill="black" > 569</text>
<circle cx="1753" cy="577" r="4" fill="white" stroke="black" />
<line x1="1753" y1="581" x2="1753" y2="584" stroke="black" />
<line x1="1749" y1="580" x2="1757" y2="588" stroke="red" />
<line x1="1749" y1="588" x2="1757" y2="580" stroke="red" />
<text x="1753" y="596" font-family="Verdana" font-size="8" text-anchor="middle"  dominant-baseline="middle" fill="black" > 569</text>
<text x="2000" y="7" font-family="Verdana" font-size="7" text-anchor="middle"  dominant-baseline="middle" fill="black" > C9</text>
<circle cx="2000" cy="15" r="4" fill="white" stroke="black" />
<line x1="2000" y1="19" x2="2000" y2="364" stroke="black" />
<line x1="1850" y1="364" x2="2150" y2="364" stroke="black" />
<text x="2025" y="356" font-family="Verdana" font-size="8" text-anchor="middle"  dominant-baseline="middle" fill="black" > 349</text>
<circle cx="1850" cy="364" r="4" fill="white" stroke="black" />
<line x1="1850" y1="368" x2="1850" y2="433" stroke="black" />
<line x1="1846" y1="429" x2="1854" y2="437" stroke="red" />
<line x1="1846" y1="437" x2="1854" y2="429" stroke="red" />
<text x="1850" y="445" font-family="Verdana" font-size="8" text-anchor="middle"  dominant-baseline="middle" fill="black" > 418</text>
<circle cx="1950" cy="364" r="4" fill="white" stroke="black" />
<circle cx="2050" cy="364" r="4" fill="white" stroke="black" />
<line x1="1950" y1="368" x2="1950" y2="384" stroke="black" />
<line x1="1950" y1="384" x2="2000" y2="390" stroke="black" />
<line x1="2050" y1="368" x2="2050" y2="384" stroke="black" />
<line x1="2050" y1="384" x2="2000" y2="390" stroke="black" />
<text x="2000" y="378" font-family="Verdana" font-size="8" text-anchor="middle"  dominant-baseline="middle" fill="black" > 375</text>
<circle cx="2000" cy="390" r="4" fill="white" stroke="black" />
<circle cx="2150" cy="364" r="4" fill="white" stroke="black" />
<line x1="2000" y1="394" x2="2000" y2="393" stroke="black" />
<line x1="2000" y1="393" x2="2075" y2="394" stroke="black" />
<line x1="2150" y1="368" x2="2150" y2="393" stroke="black" />
<line x1="2150" y1="393" x2="2075" y2="394" stroke="black" />
<text x="2075" y="382" font-family="Verdana" font-size="8" text-anchor="middle"  dominant-baseline="middle" fill="black" > 379</text>
<circle cx="2075" cy="394" r="4" fill="white" stroke="black" />
<line x1="2075" y1="398" x2="2075" y2="557" stroke="black" />
<line x1="2071" y1="553" x2="2079" y2="561" stroke="red" />
<line x1="2071" y1="561" x2="2079" y2="553" stroke="red" />
<text x="2075" y="569" font-family="Verdana" font-size="8" text-anchor="middle"  dominant-baseline="middle" fill="black" > 542</text>
<text x="2350" y="7" font-family="Verdana" font-size="7" text-anchor="middle"  dominant-baseline="middle" fill="black" > C10</text>
<circle cx="2350" cy="15" r="4" fill="white" stroke="black" />
<line x1="2350" y1="19" x2="2350" y2="328" stroke="black" />
<line x1="2250" y1="328" x2="2450" y2="328" stroke="black" />
<text x="2375" y="320" font-family="Verdana" font-size="8" text-anchor="middle"  dominant-baseline="middle" fill="black" > 313</text>
<circle cx="2250" cy="328" r="4" fill="white" stroke="black" />
<circle cx="2350" cy="328" r="4" fill="white" stroke="black" />
<line x1="2250" y1="332" x2="2250" y2="346" stroke="black" />
<line x1="2250" y1="346" x2="2300" y2="351" stroke="black" />
<line x1="2350" y1="332" x2="2350" y2="346" stroke="black" />
<line x1="2350" y1="346" x2="2300" y2="351" stroke="black" />
<text x="2300" y="339" font-family="Verdana" font-size="8" text-anchor="middle"  dominant-baseline="middle" fill="black" > 336</text>
<circle cx="2300" cy="351" r="4" fill="white" stroke="black" />
<circle cx="2450" cy="328" r="4" fill="white" stroke="black" />
<line x1="2300" y1="355" x2="2300" y2="357" stroke="black" />
<line x1="2300" y1="357" x2="2375" y2="358" stroke="black" />
<line x1="2450" y1="332" x2="2450" y2="357" stroke="black" />
<line x1="2450" y1="357" x2="2375" y2="358" stroke="black" />
<text x="2375" y="346" font-family="Verdana" font-size="8" text-anchor="middle"  dominant-baseline="middle" fill="black" > 343</text>
<circle cx="2375" cy="358" r="4" fill="white" stroke="black" />
<line x1="2375" y1="362" x2="2375" y2="688" stroke="black" />
<line x1="2371" y1="684" x2="2379" y2="692" stroke="red" />
<line x1="2371" y1="692" x2="2379" y2="684" stroke="red" />
<text x="2375" y="700" font-family="Verdana" font-size="8" text-anchor="middle"  dominant-baseline="middle" fill="black" > 673</text>
<text x="2550" y="7" font-family="Verdana" font-size="7" text-anchor="middle"  dominant-baseline="middle" fill="black" > C11</text>
<circle cx="2550" cy="15" r="4" fill="white" stroke="black" />
<line x1="2550" y1="19" x2="2550" y2="193" stroke="black" />
<line x1="2546" y1="189" x2="2554" y2="197" stroke="red" />
<line x1="2546" y1="197" x2="2554" y2="189" stroke="red" />
<text x="2550" y="205" font-family="Verdana" font-size="8" text-anchor="middle"  dominant-baseline="middle" fill="black" > 178</text>
<text x="2700" y="7" font-family="Verdana" font-size="7" text-anchor="middle"  dominant-baseline="middle" fill="black" > C12</text>
<circle cx="2700" cy="15" r="4" fill="white" stroke="black" />
<line x1="2700" y1="19" x2="2700" y2="176" stroke="black" />
<line x1="2650" y1="176" x2="2750" y2="176" stroke="black" />
<text x="2725" y="168" font-family="Verdana" font-size="8" text-anchor="middle"  dominant-baseline="middle" fill="black" > 161</text>
<circle cx="2650" cy="176" r="4" fill="white" stroke="black" />
<line x1="2650" y1="180" x2="2650" y2="335" stroke="black" />
<line x1="2625" y1="335" x2="2675" y2="335" stroke="black" />
<text x="2662" y="327" font-family="Verdana" font-size="8" text-anchor="middle"  dominant-baseline="middle" fill="black" > 320</text>
<circle cx="2625" cy="335" r="4" fill="white" stroke="black" />
<line x1="2625" y1="339" x2="2625" y2="736" stroke="black" />
<circle cx="2625" cy="736" r="4" fill="white" stroke="black" />
<text x="2625" y="748" font-family="Verdana" font-size="8" text-anchor="middle"  dominant-baseline="middle" fill="black" > 721</text>
<circle cx="2675" cy="335" r="4" fill="white" stroke="black" />
<line x1="2675" y1="339" x2="2675" y2="484" stroke="black" />
<line x1="2662" y1="484" x2="2688" y2="484" stroke="black" />
<text x="2681" y="476" font-family="Verdana" font-size="8" text-anchor="middle"  dominant-baseline="middle" fill="black" > 469</text>
<circle cx="2662" cy="484" r="4" fill="white" stroke="black" />
<line x1="2662" y1="488" x2="2662" y2="736" stroke="black" />
<circle cx="2662" cy="736" r="4" fill="white" stroke="black" />
<text x="2662" y="748" font-family="Verdana" font-size="8" text-anchor="middle"  dominant-baseline="middle" fill="black" > 721</text>
<circle cx="2687" cy="484" r="4" fill="white" stroke="black" />
<line x1="2687" y1="488" x2="2687" y2="736" stroke="black" />
<circle cx="2687" cy="736" r="4" fill="white" stroke="black" />
<text x="2687" y="748" font-family="Verdana" font-size="8" text-anchor="middle"  dominant-baseline="middle" fill="black" > 721</text>
<circle cx="2750" cy="176" r="4" fill="white" stroke="black" />
<line x1="2750" y1="180" x2="2750" y2="624" stroke="black" />
<line x1="2746" y1="620" x2="2754" y2="628" stroke="red" />
<line x1="2746" y1="628" x2="2754" y2="620" stroke="red" />
<text x="2750" y="636" font-family="Verdana" font-size="8" text-anchor="middle"  dominant-baseline="middle" fill="black" > 609</text>
<text x="2900" y="7" font-family="Verdana" font-size="7" text-anchor="middle"  dominant-baseline="middle" fill="black" > C13</text>
<circle cx="2900" cy="15" r="4" fill="white" stroke="black" />
<line x1="2900" y1="19" x2="2900" y2="213" stroke="black" />
<line x1="2850" y1="213" x2="2950" y2="213" stroke="black" />
<text x="2925" y="205" font-family="Verdana" font-size="8" text-anchor="middle"  dominant-baseline="middle" fill="black" > 198</text>
<circle cx="2850" cy="213" r="4" fill="white" stroke="black" />
<line x1="2850" y1="217" x2="2850" y2="341" stroke="black" />
<line x1="2825" y1="341" x2="2875" y2="341" stroke="black" />
<text x="2862" y="333" font-family="Verdana" font-size="8" text-anchor="middle"  dominant-baseline="middle" fill="black" > 326</text>
<circle cx="2825" cy="341" r="4" fill="white" stroke="black" />
<line x1="2825" y1="345" x2="2825" y2="695" stroke="black" />
<line x1="2821" y1="691" x2="2829" y2="699" stroke="red" />
<line x1="2821" y1="699" x2="2829" y2="691" stroke="red" />
<text x="2825" y="707" font-family="Verdana" font-size="8" text-anchor="middle"  dominant-baseline="middle" fill="black" > 680</text>
<circle cx="2875" cy="341" r="4" fill="white" stroke="black" />
<line x1="2875" y1="345" x2="2875" y2="618" stroke="black" />
<line x1="2858" y1="618" x2="2892" y2="618" stroke="black" />
<text x="2879" y="610" font-family="Verdana" font-size="8" text-anchor="middle"  dominant-baseline="middle" fill="black" > 603</text>
<circle cx="2858" cy="618" r="4" fill="white" stroke="black" />
<circle cx="2874" cy="618" r="4" fill="white" stroke="black" />
<circle cx="2890" cy="618" r="4" fill="white" stroke="black" />
<line x1="2858" y1="622" x2="2858" y2="638" stroke="black" />
<line x1="2858" y1="638" x2="2874" y2="644" stroke="black" />
<line x1="2874" y1="622" x2="2874" y2="638" stroke="black" />
<line x1="2874" y1="638" x2="2874" y2="644" stroke="black" />
<line x1="2890" y1="622" x2="2890" y2="638" stroke="black" />
<line x1="2890" y1="638" x2="2874" y2="644" stroke="black" />
<text x="2874" y="632" font-family="Verdana" font-size="8" text-anchor="middle"  dominant-baseline="middle" fill="black" > 629</text>
<circle cx="2874" cy="644" r="4" fill="white" stroke="black" />
<line x1="2874" y1="648" x2="2874" y2="736" stroke="black" />
<circle cx="2874" cy="736" r="4" fill="white" stroke="black" />
<text x="2874" y="748" font-family="Verdana" font-size="8" text-anchor="middle"  dominant-baseline="middle" fill="black" > 721</text>
<circle cx="2950" cy="213" r="4" fill="white" stroke="black" />
<line x1="2950" y1="217" x2="2950" y2="330" stroke="black" />
<line x1="2925" y1="330" x2="2975" y2="330" stroke="black" />
<text x="2962" y="322" font-family="Verdana" font-size="8" text-anchor="middle"  dominant-baseline="middle" fill="black" > 315</text>
<circle cx="2925" cy="330" r="4" fill="white" stroke="black" />
<circle cx="2975" cy="330" r="4" fill="white" stroke="black" />
<line x1="2925" y1="334" x2="2925" y2="336" stroke="black" />
<line x1="2925" y1="336" x2="2950" y2="338" stroke="black" />
<line x1="2975" y1="334" x2="2975" y2="336" stroke="black" />
<line x1="2975" y1="336" x2="2950" y2="338" stroke="black" />
<text x="2950" y="326" font-family="Verdana" font-size="8" text-anchor="middle"  dominant-baseline="middle" fill="black" > 323</text>
<circle cx="2950" cy="338" r="4" fill="white" stroke="black" />
<line x1="2950" y1="342" x2="2950" y2="618" stroke="black" />
<line x1="2933" y1="618" x2="2967" y2="618" stroke="black" />
<text x="2954" y="610" font-family="Verdana" font-size="8" text-anchor="middle"  dominant-baseline="middle" fill="black" > 603</text>
<circle cx="2933" cy="618" r="4" fill="white" stroke="black" />
<line x1="2933" y1="622" x2="2933" y2="693" stroke="black" />
<line x1="2929" y1="689" x2="2937" y2="697" stroke="red" />
<line x1="2929" y1="697" x2="2937" y2="689" stroke="red" />
<text x="2933" y="705" font-family="Verdana" font-size="8" text-anchor="middle"  dominant-baseline="middle" fill="black" > 678</text>
<circle cx="2949" cy="618" r="4" fill="white" stroke="black" />
<line x1="2949" y1="622" x2="2949" y2="736" stroke="black" />
<circle cx="2949" cy="736" r="4" fill="white" stroke="black" />
<text x="2949" y="748" font-family="Verdana" font-size="8" text-anchor="middle"  dominant-baseline="middle" fill="black" > 721</text>
<circle cx="2965" cy="618" r="4" fill="white" stroke="black" />
<line x1="2965" y1="622" x2="2965" y2="736" stroke="black" />
<circle cx="2965" cy="736" r="4" fill="white" stroke="black" />
<text x="2965" y="748" font-family="Verdana" font-size="8" text-anchor="middle"  dominant-baseline="middle" fill="black" > 721</text>
<text x="3100" y="7" font-family="Verdana" font-size="7" text-anchor="middle"  dominant-baseline="middle" fill="black" > C14</text>
<circle cx="3100" cy="15" r="4" fill="white" stroke="black" />
<line x1="3100" y1="19" x2="3100" y2="173" stroke="black" />
<line x1="3050" y1="173" x2="3150" y2="173" stroke="black" />
<text x="3125" y="165" font-family="Verdana" font-size="8" text-anchor="middle"  dominant-baseline="middle" fill="black" > 158</text>
<circle cx="3050" cy="173" r="4" fill="white" stroke="black" />
<line x1="3050" y1="177" x2="3050" y2="302" stroke="black" />
<line x1="3046" y1="306" x2="3050" y2="298" stroke="blue" />
<line x1="3050" y1="306" x2="3054" y2="298" stroke="blue" />
<text x="3050" y="314" font-family="Verdana" font-size="8" text-anchor="middle"  dominant-baseline="middle" fill="black" > 287</text>
<circle cx="3150" cy="173" r="4" fill="white" stroke="black" />
<line x1="3150" y1="177" x2="3150" y2="690" stroke="black" />
<line x1="3125" y1="690" x2="3175" y2="690" stroke="black" />
<text x="3162" y="682" font-family="Verdana" font-size="8" text-anchor="middle"  dominant-baseline="middle" fill="black" > 675</text>
<circle cx="3125" cy="690" r="4" fill="white" stroke="black" />
<line x1="3125" y1="694" x2="3125" y2="736" stroke="black" />
<circle cx="3125" cy="736" r="4" fill="white" stroke="black" />
<text x="3125" y="748" font-family="Verdana" font-size="8" text-anchor="middle"  dominant-baseline="middle" fill="black" > 721</text>
<circle cx="3175" cy="690" r="4" fill="white" stroke="black" />
<line x1="3175" y1="694" x2="3175" y2="736" stroke="black" />
<circle cx="3175" cy="736" r="4" fill="white" stroke="black" />
<text x="3175" y="748" font-family="Verdana" font-size="8" text-anchor="middle"  dominant-baseline="middle" fill="black" > 721</text>
<text x="3300" y="7" font-family="Verdana" font-size="7" text-anchor="middle"  dominant-baseline="middle" fill="black" > C15</text>
<circle cx="3300" cy="15" r="4" fill="white" stroke="black" />
<line x1="3300" y1="19" x2="3300" y2="215" stroke="black" />
<line x1="3250" y1="215" x2="3350" y2="215" stroke="black" />
<text x="3325" y="207" font-family="Verdana" font-size="8" text-anchor="middle"  dominant-baseline="middle" fill="black" > 200</text>
<circle cx="3250" cy="215" r="4" fill="white" stroke="black" />
<line x1="3250" y1="219" x2="3250" y2="512" stroke="black" />
<line x1="3246" y1="516" x2="3250" y2="508" stroke="blue" />
<line x1="3250" y1="516" x2="3254" y2="508" stroke="blue" />
<text x="3250" y="524" font-family="Verdana" font-size="8" text-anchor="middle"  dominant-baseline="middle" fill="black" > 497</text>
<circle cx="3350" cy="215" r="4" fill="white" stroke="black" />
<line x1="3350" y1="219" x2="3350" y2="417" stroke="black" />
<line x1="3325" y1="417" x2="3375" y2="417" stroke="black" />
<text x="3362" y="409" font-family="Verdana" font-size="8" text-anchor="middle"  dominant-baseline="middle" fill="black" > 402</text>
<circle cx="3325" cy="417" r="4" fill="white" stroke="black" />
<line x1="3325" y1="421" x2="3325" y2="736" stroke="black" />
<circle cx="3325" cy="736" r="4" fill="white" stroke="black" />
<text x="3325" y="748" font-family="Verdana" font-size="8" text-anchor="middle"  dominant-baseline="middle" fill="black" > 721</text>
<circle cx="3375" cy="417" r="4" fill="white" stroke="black" />
<line x1="3375" y1="421" x2="3375" y2="736" stroke="black" />
<circle cx="3375" cy="736" r="4" fill="white" stroke="black" />
<text x="3375" y="748" font-family="Verdana" font-size="8" text-anchor="middle"  dominant-baseline="middle" fill="black" > 721</text>
</svg>
