<?xml version="1.0" encoding="utf-8"?>
<svg xmlns="http://www.w3.org/2000/svg" version="1.1" width="3550" height="750">
<rect width="3550" height="15" x="0" y="0" fill="white" />
<rect width="3550" height="15" x="0" y="735" fill="white" />
<rect width="25" height="750" x="0" y="0" fill="white" />
<rect width="25" height="750" x="3525" y="0" fill="white" />
<rect width="3510" height="144" x="25" y="15" fill="ghostwhite" />
<rect width="3510" height="144" x="25" y="159" fill="snow" />
<rect width="3510" height="144" x="25" y="303" fill="ghostwhite" />
<rect width="3510" height="144" x="25" y="447" fill="snow" />
<rect width="3510" height="144" x="25" y="591" fill="ghostwhite" />
<text x="12" y="87" font-family="Verdana" font-size="10" text-anchor="middle"  dominant-baseline="middle" fill="red" > D0</text>
<text x="12" y="231" font-family="Verdana" font-size="10" text-anchor="middle"  dominant-baseline="middle" fill="red" > D1</text>
<text x="12" y="375" font-family="Verdana" font-size="10" text-anchor="middle"  dominant-baseline="middle" fill="red" > D2</text>
<text x="12" y="519" font-family="Verdana" font-size="10" text-anchor="middle"  dominant-baseline="middle" fill="red" > D3</text>
<text x="12" y="663" font-family="Verdana" font-size="10" text-anchor="middle"  dominant-baseline="middle" fill="red" > D4</text>
<text x="12" y="20" font-family="Verdana" font-size="10" text-anchor="middle"  dominant-baseline="middle" fill="black" > 0</text>
<text x="12" y="164" font-family="Verdana" font-size="10" text-anchor="middle"  dominant-baseline="middle" fill="black" > 144</text>
<text x="12" y="308" font-family="Verdana" font-size="10" text-anchor="middle"  dominant-baseline="middle" fill="black" > 288</text>
<text x="12" y="452" font-family="Verdana" font-size="10" text-anchor="middle"  dominant-baseline="middle" fill="black" > 432</text>
<text x="12" y="596" font-family="Verdana" font-size="10" text-anchor="middle"  dominant-baseline="middle" fill="black" > 576</text>
<text x="12" y="740" font-family="Verdana" font-size="10" text-anchor="middle"  dominant-baseline="middle" fill="black" > 720</text>
<text x="50" y="7" font-family="Verdana" font-size="7" text-anchor="middle"  dominant-baseline="middle" fill="black" > C1</text>
<circle cx="50" cy="15" r="4" fill="white" stroke="black" />
<line x1="50" y1="19" x2="50" y2="28" stroke="black" />
<line x1="46" y1="32" x2="50" y2="24" stroke="blue" />
<line x1="50" y1="32" x2="54" y2="24" stroke="blue" />
<text x="50" y="40" font-family="Verdana" font-size="8" text-anchor="middle"  dominant-baseline="middle" fill="black" > 13</text>
<text x="150" y="7" font-family="Verdana" font-size="7" text-anchor="middle"  dominant-baseline="middle" fill="black" > C2</text>
<circle cx="150" cy="15" r="4" fill="white" stroke="black" />
<line x1="150" y1="19" x2="150" y2="34" stroke="black" />
<line x1="146" y1="38" x2="150" y2="30" stroke="blue" />
<line x1="150" y1="38" x2="154" y2="30" stroke="blue" />
<text x="150" y="46" font-family="Verdana" font-size="8" text-anchor="middle"  dominant-baseline="middle" fill="black" > 19</text>
<text x="300" y="7" font-family="Verdana" font-size="7" text-anchor="middle"  dominant-baseline="middle" fill="black" > C3</text>
<circle cx="300" cy="15" r="4" fill="white" stroke="black" />
<line x1="300" y1="19" x2="300" y2="157" stroke="black" />
<line x1="250" y1="157" x2="350" y2="157" stroke="black" />
<text x="325" y="149" font-family="Verdana" font-size="8" text-anchor="middle"  dominant-baseline="middle" fill="black" > 142</text>
<circle cx="250" cy="157" r="4" fill="white" stroke="black" />
<line x1="250" y1="161" x2="250" y2="621" stroke="black" />
<line x1="246" y1="617" x2="254" y2="625" stroke="red" />
<line x1="246" y1="625" x2="254" y2="617" stroke="red" />
<text x="250" y="633" font-family="Verdana" font-size="8" text-anchor="middle"  dominant-baseline="middle" fill="black" > 606</text>
<circle cx="350" cy="157" r="4" fill="white" stroke="black" />
<line x1="350" y1="161" x2="350" y2="736" stroke="black" />
<circle cx="350" cy="736" r="4" fill="white" stroke="black" />
<text x="350" y="748" font-family="Verdana" font-size="8" text-anchor="middle"  dominant-baseline="middle" fill="black" > 721</text>
<text x="500" y="7" font-family="Verdana" font-size="7" text-anchor="middle"  dominant-baseline="middle" fill="black" > C4</text>
<circle cx="500" cy="15" r="4" fill="white" stroke="black" />
<line x1="500" y1="19" x2="500" y2="183" stroke="black" />
<line x1="450" y1="183" x2="550" y2="183" stroke="black" />
<text x="525" y="175" font-family="Verdana" font-size="8" text-anchor="middle"  dominant-baseline="middle" fill="black" > 168</text>
<circle cx="450" cy="183" r="4" fill="white" stroke="black" />
<line x1="450" y1="187" x2="450" y2="298" stroke="black" />
<line x1="446" y1="302" x2="450" y2="294" stroke="blue" />
<line x1="450" y1="302" x2="454" y2="294" stroke="blue" />
<text x="450" y="310" font-family="Verdana" font-size="8" text-anchor="middle"  dominant-baseline="middle" fill="black" > 283</text>
<circle cx="550" cy="183" r="4" fill="white" stroke="black" />
<line x1="550" y1="187" x2="550" y2="235" stroke="black" />
<line x1="546" y1="239" x2="550" y2="231" stroke="blue" />
<line x1="550" y1="239" x2="554" y2="231" stroke="blue" />
<text x="550" y="247" font-family="Verdana" font-size="8" text-anchor="middle"  dominant-baseline="middle" fill="black" > 220</text>
<text x="800" y="7" font-family="Verdana" font-size="7" text-anchor="middle"  dominant-baseline="middle" fill="black" > C5</text>
<circle cx="800" cy="15" r="4" fill="white" stroke="black" />
<line x1="800" y1="19" x2="800" y2="348" stroke="black" />
<line x1="650" y1="348" x2="950" y2="348" stroke="black" />
<text x="825" y="340" font-family="Verdana" font-size="8" text-anchor="middle"  dominant-baseline="middle" fill="black" > 333</text>
<circle cx="650" cy="348" r="4" fill="white" stroke="black" />
<circle cx="750" cy="348" r="4" fill="white" stroke="black" />
<line x1="650" y1="352" x2="650" y2="375" stroke="black" />
<line x1="650" y1="375" x2="700" y2="383" stroke="black" />
<line x1="750" y1="352" x2="750" y2="375" stroke="black" />
<line x1="750" y1="375" x2="700" y2="383" stroke="black" />
<text x="700" y="371" font-family="Verdana" font-size="8" text-anchor="middle"  dominant-baseline="middle" fill="black" > 368</text>
<circle cx="700" cy="383" r="4" fill="white" stroke="black" />
<circle cx="850" cy="348" r="4" fill="white" stroke="black" />
<circle cx="950" cy="348" r="4" fill="white" stroke="black" />
<line x1="850" y1="352" x2="850" y2="374" stroke="black" />
<line x1="850" y1="374" x2="900" y2="382" stroke="black" />
<line x1="950" y1="352" x2="950" y2="374" stroke="black" />
<line x1="950" y1="374" x2="900" y2="382" stroke="black" />
<text x="900" y="370" font-family="Verdana" font-size="8" text-anchor="middle"  dominant-baseline="middle" fill="black" > 367</text>
<circle cx="900" cy="382" r="4" fill="white" stroke="black" />
<line x1="700" y1="387" x2="700" y2="396" stroke="black" />
<line x1="700" y1="396" x2="800" y2="400" stroke="black" />
<line x1="900" y1="386" x2="900" y2="396" stroke="black" />
<line x1="900" y1="396" x2="800" y2="400" stroke="black" />
<text x="800" y="388" font-family="Verdana" font-size="8" text-anchor="middle"  dominant-baseline="middle" fill="black" > 385</text>
<circle cx="800" cy="400" r="4" fill="white" stroke="black" />
<line x1="800" y1="404" x2="800" y2="495" stroke="black" />
<line x1="796" y1="491" x2="804" y2="499" stroke="red" />
<line x1="796" y1="499" x2="804" y2="491" stroke="red" />
<text x="800" y="507" font-family="Verdana" font-size="8" text-anchor="middle"  dominant-baseline="middle" fill="black" > 480</text>
<text x="1050" y="7" font-family="Verdana" font-size="7" text-anchor="middle"  dominant-baseline="middle" fill="black" > C6</text>
<circle cx="1050" cy="15" r="4" fill="white" stroke="black" />
<line x1="1050" y1="19" x2="1050" y2="188" stroke="black" />
<line x1="1046" y1="192" x2="1050" y2="184" stroke="blue" />
<line x1="1050" y1="192" x2="1054" y2="184" stroke="blue" />
<text x="1050" y="200" font-family="Verdana" font-size="8" text-anchor="middle"  dominant-baseline="middle" fill="black" > 173</text>
<text x="1200" y="7" font-family="Verdana" font-size="7" text-anchor="middle"  dominant-baseline="middle" fill="black" > C7</text>
<circle cx="1200" cy="15" r="4" fill="white" stroke="black" />
<line x1="1200" y1="19" x2="1200" y2="157" stroke="black" />
<line x1="1150" y1="157" x2="1250" y2="157" stroke="black" />
<text x="1225" y="149" font-family="Verdana" font-size="8" text-anchor="middle"  dominant-baseline="middle" fill="black" > 142</text>
<circle cx="1150" cy="157" r="4" fill="white" stroke="black" />
<line x1="1150" y1="161" x2="1150" y2="643" stroke="black" />
<line x1="1146" y1="639" x2="1154" y2="647" stroke="red" />
<line x1="1146" y1="647" x2="1154" y2="639" stroke="red" />
<text x="1150" y="655" font-family="Verdana" font-size="8" text-anchor="middle"  dominant-baseline="middle" fill="black" > 628</text>
<circle cx="1250" cy="157" r="4" fill="white" stroke="black" />
<line x1="1250" y1="161" x2="1250" y2="736" stroke="black" />
<circle cx="1250" cy="736" r="4" fill="white" stroke="black" />
<text x="1250" y="748" font-family="Verdana" font-size="8" text-anchor="middle"  dominant-baseline="middle" fill="black" > 721</text>
<text x="1350" y="7" font-family="Verdana" font-size="7" text-anchor="middle"  dominant-baseline="middle" fill="black" > C8</text>
<circle cx="1350" cy="15" r="4" fill="white" stroke="black" />
<line x1="1350" y1="19" x2="1350" y2="242" stroke="black" />
<line x1="1346" y1="238" x2="1354" y2="246" stroke="red" />
<line x1="1346" y1="246" x2="1354" y2="238" stroke="red" />
<text x="1350" y="254" font-family="Verdana" font-size="8" text-anchor="middle"  dominant-baseline="middle" fill="black" > 227</text>
<text x="1550" y="7" font-family="Verdana" font-size="7" text-anchor="middle"  dominant-baseline="middle" fill="black" > C9</text>
<circle cx="1550" cy="15" r="4" fill="white" stroke="black" />
<line x1="1550" y1="19" x2="1550" y2="318" stroke="black" />
<line x1="1450" y1="318" x2="1650" y2="318" stroke="black" />
<text x="1575" y="310" font-family="Verdana" font-size="8" text-anchor="middle"  dominant-baseline="middle" fill="black" > 303</text>
<circle cx="1450" cy="318" r="4" fill="white" stroke="black" />
<line x1="1450" y1="322" x2="1450" y2="535" stroke="black" />
<line x1="1446" y1="531" x2="1454" y2="539" stroke="red" />
<line x1="1446" y1="539" x2="1454" y2="531" stroke="red" />
<text x="1450" y="547" font-family="Verdana" font-size="8" text-anchor="middle"  dominant-baseline="middle" fill="black" > 520</text>
<circle cx="1550" cy="318" r="4" fill="white" stroke="black" />
<circle cx="1650" cy="318" r="4" fill="white" stroke="black" />
<line x1="1550" y1="322" x2="1550" y2="335" stroke="black" />
<line x1="1550" y1="335" x2="1600" y2="340" stroke="black" />
<line x1="1650" y1="322" x2="1650" y2="335" stroke="black" />
<line x1="1650" y1="335" x2="1600" y2="340" stroke="black" />
<text x="1600" y="328" font-family="Verdana" font-size="8" text-anchor="middle"  dominant-baseline="middle" fill="black" > 325</text>
<circle cx="1600" cy="340" r="4" fill="white" stroke="black" />
<line x1="1600" y1="344" x2="1600" y2="700" stroke="black" />
<line x1="1596" y1="696" x2="1604" y2="704" stroke="red" />
<line x1="1596" y1="704" x2="1604" y2="696" stroke="red" />
<text x="1600" y="712" font-family="Verdana" font-size="8" text-anchor="middle"  dominant-baseline="middle" fill="black" > 685</text>
<text x="1850" y="7" font-family="Verdana" font-size="7" text-anchor="middle"  dominant-baseline="middle" fill="black" > C10</text>
<circle cx="1850" cy="15" r="4" fill="white" stroke="black" />
<line x1="1850" y1="19" x2="1850" y2="381" stroke="black" />
<line x1="1750" y1="381" x2="1950" y2="381" stroke="black" />
<text x="1875" y="373" font-family="Verdana" font-size="8" text-anchor="middle"  dominant-baseline="middle" fill="black" > 366</text>
<circle cx="1750" cy="381" r="4" fill="white" stroke="black" />
<circle cx="1850" cy="381" r="4" fill="white" stroke="black" />
<line x1="1750" y1="385" x2="1750" y2="385" stroke="black" />
<line x1="1750" y1="385" x2="1800" y2="386" stroke="black" />
<line x1="1850" y1="385" x2="1850" y2="385" stroke="black" />
<line x1="1850" y1="385" x2="1800" y2="386" stroke="black" />
<text x="1800" y="374" font-family="Verdana" font-size="8" text-anchor="middle"  dominant-baseline="middle" fill="black" > 371</text>
<circle cx="1800" cy="386" r="4" fill="white" stroke="black" />
<circle cx="1950" cy="381" r="4" fill="white" stroke="black" />
<line x1="1800" y1="390" x2="1800" y2="394" stroke="black" />
<line x1="1800" y1="394" x2="1875" y2="396" stroke="black" />
<line x1="1950" y1="385" x2="1950" y2="394" stroke="black" />
<line x1="1950" y1="394" x2="1875" y2="396" stroke="black" />
<text x="1875" y="384" font-family="Verdana" font-size="8" text-anchor="middle"  dominant-baseline="middle" fill="black" > 381</text>
<circle cx="1875" cy="396" r="4" fill="white" stroke="black" />
<line x1="1875" y1="400" x2="1875" y2="736" stroke="black" />
<circle cx="1875" cy="736" r="4" fill="white" stroke="black" />
<text x="1875" y="748" font-family="Verdana" font-size="8" text-anchor="middle"  dominant-baseline="middle" fill="black" > 721</text>
<text x="2050" y="7" font-family="Verdana" font-size="7" text-anchor="middle"  dominant-baseline="middle" fill="black" > C11</text>
<circle cx="2050" cy="15" r="4" fill="white" stroke="black" />
<line x1="2050" y1="19" x2="2050" y2="174" stroke="black" />
<line x1="2046" y1="170" x2="2054" y2="178" stroke="red" />
<line x1="2046" y1="178" x2="2054" y2="170" stroke="red" />
<text x="2050" y="186" font-family="Verdana" font-size="8" text-anchor="middle"  dominant-baseline="middle" fill="black" > 159</text>
<text x="2200" y="7" font-family="Verdana" font-size="7" text-anchor="middle"  dominant-baseline="middle" fill="black" > C12</text>
<circle cx="2200" cy="15" r="4" fill="white" stroke="black" />
<line x1="2200" y1="19" x2="2200" y2="169" stroke="black" />
<line x1="2150" y1="169" x2="2250" y2="169" stroke="black" />
<text x="2225" y="161" font-family="Verdana" font-size="8" text-anchor="middle"  dominant-baseline="middle" fill="black" > 154</text>
<circle cx="2150" cy="169" r="4" fill="white" stroke="black" />
<line x1="2150" y1="173" x2="2150" y2="308" stroke="black" />
<line x1="2125" y1="308" x2="2175" y2="308" stroke="black" />
<text x="2162" y="300" font-family="Verdana" font-size="8" text-anchor="middle"  dominant-baseline="middle" fill="black" > 293</text>
<circle cx="2125" cy="308" r="4" fill="white" stroke="black" />
<circle cx="2175" cy="308" r="4" fill="white" stroke="black" />
<line x1="2125" y1="312" x2="2125" y2="387" stroke="black" />
<line x1="2125" y1="387" x2="2150" y2="413" stroke="black" />
<line x1="2175" y1="312" x2="2175" y2="387" stroke="black" />
<line x1="2175" y1="387" x2="2150" y2="413" stroke="black" />
<text x="2150" y="401" font-family="Verdana" font-size="8" text-anchor="middle"  dominant-baseline="middle" fill="black" > 398</text>
<circle cx="2150" cy="413" r="4" fill="white" stroke="black" />
<line x1="2150" y1="417" x2="2150" y2="453" stroke="black" />
<line x1="2133" y1="453" x2="2167" y2="453" stroke="black" />
<text x="2154" y="445" font-family="Verdana" font-size="8" text-anchor="middle"  dominant-baseline="middle" fill="black" > 438</text>
<circle cx="2133" cy="453" r="4" fill="white" stroke="black" />
<line x1="2133" y1="457" x2="2133" y2="633" stroke="black" />
<line x1="2129" y1="629" x2="2137" y2="637" stroke="red" />
<line x1="2129" y1="637" x2="2137" y2="629" stroke="red" />
<text x="2133" y="645" font-family="Verdana" font-size="8" text-anchor="middle"  dominant-baseline="middle" fill="black" > 618</text>
<circle cx="2149" cy="453" r="4" fill="white" stroke="black" />
<circle cx="2165" cy="453" r="4" fill="white" stroke="black" />
<line x1="2149" y1="457" x2="2149" y2="538" stroke="black" />
<line x1="2149" y1="538" x2="2157" y2="566" stroke="black" />
<line x1="2165" y1="457" x2="2165" y2="538" stroke="black" />
<line x1="2165" y1="538" x2="2157" y2="566" stroke="black" />
<text x="2157" y="554" font-family="Verdana" font-size="8" text-anchor="middle"  dominant-baseline="middle" fill="black" > 551</text>
<circle cx="2157" cy="566" r="4" fill="white" stroke="black" />
<line x1="2157" y1="570" x2="2157" y2="578" stroke="black" />
<line x1="2153" y1="574" x2="2161" y2="582" stroke="red" />
<line x1="2153" y1="582" x2="2161" y2="574" stroke="red" />
<text x="2157" y="590" font-family="Verdana" font-size="8" text-anchor="middle"  dominant-baseline="middle" fill="black" > 563</text>
<circle cx="2250" cy="169" r="4" fill="white" stroke="black" />
<line x1="2250" y1="173" x2="2250" y2="303" stroke="black" />
<line x1="2225" y1="303" x2="2275" y2="303" stroke="black" />
<text x="2262" y="295" font-family="Verdana" font-size="8" text-anchor="middle"  dominant-baseline="middle" fill="black" > 288</text>
<circle cx="2225" cy="303" r="4" fill="white" stroke="black" />
<line x1="2225" y1="307" x2="2225" y2="705" stroke="black" />
<line x1="2221" y1="701" x2="2229" y2="709" stroke="red" />
<line x1="2221" y1="709" x2="2229" y2="701" stroke="red" />
<text x="2225" y="717" font-family="Verdana" font-size="8" text-anchor="middle"  dominant-baseline="middle" fill="black" > 690</text>
<circle cx="2275" cy="303" r="4" fill="white" stroke="black" />
<line x1="2275" y1="307" x2="2275" y2="576" stroke="black" />
<line x1="2262" y1="576" x2="2288" y2="576" stroke="black" />
<text x="2281" y="568" font-family="Verdana" font-size="8" text-anchor="middle"  dominant-baseline="middle" fill="black" > 561</text>
<circle cx="2262" cy="576" r="4" fill="white" stroke="black" />
<circle cx="2287" cy="576" r="4" fill="white" stroke="black" />
<line x1="2262" y1="580" x2="2262" y2="580" stroke="black" />
<line x1="2262" y1="580" x2="2274" y2="581" stroke="black" />
<line x1="2287" y1="580" x2="2287" y2="580" stroke="black" />
<line x1="2287" y1="580" x2="2274" y2="581" stroke="black" />
<text x="2274" y="569" font-family="Verdana" font-size="8" text-anchor="middle"  dominant-baseline="middle" fill="black" > 566</text>
<circle cx="2274" cy="581" r="4" fill="white" stroke="black" />
<line x1="2274" y1="585" x2="2274" y2="736" stroke="black" />
<circle cx="2274" cy="736" r="4" fill="white" stroke="black" />
<text x="2274" y="748" font-family="Verdana" font-size="8" text-anchor="middle"  dominant-baseline="middle" fill="black" > 721</text>
<text x="2400" y="7" font-family="Verdana" font-size="7" text-anchor="middle"  dominant-baseline="middle" fill="black" > C13</text>
<circle cx="2400" cy="15" r="4" fill="white" stroke="black" />
<line x1="2400" y1="19" x2="2400" y2="143" stroke="black" />
<line x1="2350" y1="143" x2="2450" y2="143" stroke="black" />
<text x="2425" y="135" font-family="Verdana" font-size="8" text-anchor="middle"  dominant-baseline="middle" fill="black" > 128</text>
<circle cx="2350" cy="143" r="4" fill="white" stroke="black" />
<line x1="2350" y1="147" x2="2350" y2="279" stroke="black" />
<line x1="2325" y1="279" x2="2375" y2="279" stroke="black" />
<text x="2362" y="271" font-family="Verdana" font-size="8" text-anchor="middle"  dominant-baseline="middle" fill="black" > 264</text>
<circle cx="2325" cy="279" r="4" fill="white" stroke="black" />
<line x1="2325" y1="283" x2="2325" y2="736" stroke="black" />
<circle cx="2325" cy="736" r="4" fill="white" stroke="black" />
<text x="2325" y="748" font-family="Verdana" font-size="8" text-anchor="middle"  dominant-baseline="middle" fill="black" > 721</text>
<circle cx="2375" cy="279" r="4" fill="white" stroke="black" />
<line x1="2375" y1="283" x2="2375" y2="715" stroke="black" />
<line x1="2371" y1="711" x2="2379" y2="719" stroke="red" />
<line x1="2371" y1="719" x2="2379" y2="711" stroke="red" />
<text x="2375" y="727" font-family="Verdana" font-size="8" text-anchor="middle"  dominant-baseline="middle" fill="black" > 700</text>
<circle cx="2450" cy="143" r="4" fill="white" stroke="black" />
<line x1="2450" y1="147" x2="2450" y2="273" stroke="black" />
<line x1="2425" y1="273" x2="2475" y2="273" stroke="black" />
<text x="2462" y="265" font-family="Verdana" font-size="8" text-anchor="middle"  dominant-baseline="middle" fill="black" > 258</text>
<circle cx="2425" cy="273" r="4" fill="white" stroke="black" />
<line x1="2425" y1="277" x2="2425" y2="448" stroke="black" />
<line x1="2412" y1="448" x2="2438" y2="448" stroke="black" />
<text x="2431" y="440" font-family="Verdana" font-size="8" text-anchor="middle"  dominant-baseline="middle" fill="black" > 433</text>
<circle cx="2412" cy="448" r="4" fill="white" stroke="black" />
<line x1="2412" y1="452" x2="2412" y2="530" stroke="black" />
<line x1="2408" y1="534" x2="2412" y2="526" stroke="blue" />
<line x1="2412" y1="534" x2="2416" y2="526" stroke="blue" />
<text x="2412" y="542" font-family="Verdana" font-size="8" text-anchor="middle"  dominant-baseline="middle" fill="black" > 515</text>
<circle cx="2437" cy="448" r="4" fill="white" stroke="black" />
<line x1="2437" y1="452" x2="2437" y2="736" stroke="black" />
<circle cx="2437" cy="736" r="4" fill="white" stroke="black" />
<text x="2437" y="748" font-family="Verdana" font-size="8" text-anchor="middle"  dominant-baseline="middle" fill="black" > 721</text>
<circle cx="2475" cy="273" r="4" fill="white" stroke="black" />
<line x1="2475" y1="277" x2="2475" y2="446" stroke="black" />
<line x1="2462" y1="446" x2="2488" y2="446" stroke="black" />
<text x="2481" y="438" font-family="Verdana" font-size="8" text-anchor="middle"  dominant-baseline="middle" fill="black" > 431</text>
<circle cx="2462" cy="446" r="4" fill="white" stroke="black" />
<line x1="2462" y1="450" x2="2462" y2="736" stroke="black" />
<circle cx="2462" cy="736" r="4" fill="white" stroke="black" />
<text x="2462" y="748" font-family="Verdana" font-size="8" text-anchor="middle"  dominant-baseline="middle" fill="black" > 721</text>
<circle cx="2487" cy="446" r="4" fill="white" stroke="black" />
<line x1="2487" y1="450" x2="2487" y2="637" stroke="black" />
<line x1="2483" y1="633" x2="2491" y2="641" stroke="red" />
<line x1="2483" y1="641" x2="2491" y2="633" stroke="red" />
<text x="2487" y="649" font-family="Verdana" font-size="8" text-anchor="middle"  dominant-baseline="middle" fill="black" > 622</text>
<text x="2600" y="7" font-family="Verdana" font-size="7" text-anchor="middle"  dominant-baseline="middle" fill="black" > C14</text>
<circle cx="2600" cy="15" r="4" fill="white" stroke="black" />
<line x1="2600" y1="19" x2="2600" y2="148" stroke="black" />
<line x1="2550" y1="148" x2="2650" y2="148" stroke="black" />
<text x="2625" y="140" font-family="Verdana" font-size="8" text-anchor="middle"  dominant-baseline="middle" fill="black" > 133</text>
<circle cx="2550" cy="148" r="4" fill="white" stroke="black" />
<line x1="2550" y1="152" x2="2550" y2="736" stroke="black" />
<circle cx="2550" cy="736" r="4" fill="white" stroke="black" />
<text x="2550" y="748" font-family="Verdana" font-size="8" text-anchor="middle"  dominant-baseline="middle" fill="black" > 721</text>
<circle cx="2650" cy="148" r="4" fill="white" stroke="black" />
<line x1="2650" y1="152" x2="2650" y2="357" stroke="black" />
<line x1="2625" y1="357" x2="2675" y2="357" stroke="black" />
<text x="2662" y="349" font-family="Verdana" font-size="8" text-anchor="middle"  dominant-baseline="middle" fill="black" > 342</text>
<circle cx="2625" cy="357" r="4" fill="white" stroke="black" />
<circle cx="2675" cy="357" r="4" fill="white" stroke="black" />
<line x1="2625" y1="361" x2="2625" y2="378" stroke="black" />
<line x1="2625" y1="378" x2="2650" y2="384" stroke="black" />
<line x1="2675" y1="361" x2="2675" y2="378" stroke="black" />
<line x1="2675" y1="378" x2="2650" y2="384" stroke="black" />
<text x="2650" y="372" font-family="Verdana" font-size="8" text-anchor="middle"  dominant-baseline="middle" fill="black" > 369</text>
<circle cx="2650" cy="384" r="4" fill="white" stroke="black" />
<line x1="2650" y1="388" x2="2650" y2="736" stroke="black" />
<circle cx="2650" cy="736" r="4" fill="white" stroke="black" />
<text x="2650" y="748" font-family="Verdana" font-size="8" text-anchor="middle"  dominant-baseline="middle" fill="black" > 721</text>
<text x="2900" y="7" font-family="Verdana" font-size="7" text-anchor="middle"  dominant-baseline="middle" fill="black" > C15</text>
<circle cx="2900" cy="15" r="4" fill="white" stroke="black" />
<line x1="2900" y1="19" x2="2900" y2="235" stroke="black" />
<line x1="2750" y1="235" x2="3050" y2="235" stroke="black" />
<text x="2925" y="227" font-family="Verdana" font-size="8" text-anchor="middle"  dominant-baseline="middle" fill="black" > 220</text>
<circle cx="2750" cy="235" r="4" fill="white" stroke="black" />
<circle cx="2850" cy="235" r="4" fill="white" stroke="black" />
<circle cx="2950" cy="235" r="4" fill="white" stroke="black" />
<circle cx="3050" cy="235" r="4" fill="white" stroke="black" />
<line x1="2750" y1="239" x2="2750" y2="254" stroke="black" />
<line x1="2750" y1="254" x2="2900" y2="260" stroke="black" />
<line x1="2850" y1="239" x2="2850" y2="254" stroke="black" />
<line x1="2850" y1="254" x2="2900" y2="260" stroke="black" />
<line x1="2950" y1="239" x2="2950" y2="254" stroke="black" />
<line x1="2950" y1="254" x2="2900" y2="260" stroke="black" />
<line x1="3050" y1="239" x2="3050" y2="254" stroke="black" />
<line x1="3050" y1="254" x2="2900" y2="260" stroke="black" />
<text x="2900" y="248" font-family="Verdana" font-size="8" text-anchor="middle"  dominant-baseline="middle" fill="black" > 245</text>
<circle cx="2900" cy="260" r="4" fill="white" stroke="black" />
<line x1="2900" y1="264" x2="2900" y2="402" stroke="black" />
<line x1="2787" y1="402" x2="3013" y2="402" stroke="black" />
<text x="2918" y="394" font-family="Verdana" font-size="8" text-anchor="middle"  dominant-baseline="middle" fill="black" > 387</text>
<circle cx="2787" cy="402" r="4" fill="white" stroke="black" />
<circle cx="2862" cy="402" r="4" fill="white" stroke="black" />
<line x1="2787" y1="406" x2="2787" y2="418" stroke="black" />
<line x1="2787" y1="418" x2="2824" y2="423" stroke="black" />
<line x1="2862" y1="406" x2="2862" y2="418" stroke="black" />
<line x1="2862" y1="418" x2="2824" y2="423" stroke="black" />
<text x="2824" y="411" font-family="Verdana" font-size="8" text-anchor="middle"  dominant-baseline="middle" fill="black" > 408</text>
<circle cx="2824" cy="423" r="4" fill="white" stroke="black" />
<circle cx="2937" cy="402" r="4" fill="white" stroke="black" />
<circle cx="3012" cy="402" r="4" fill="white" stroke="black" />
<line x1="2937" y1="406" x2="2937" y2="429" stroke="black" />
<line x1="2937" y1="429" x2="2974" y2="438" stroke="black" />
<line x1="3012" y1="406" x2="3012" y2="429" stroke="black" />
<line x1="3012" y1="429" x2="2974" y2="438" stroke="black" />
<text x="2974" y="426" font-family="Verdana" font-size="8" text-anchor="middle"  dominant-baseline="middle" fill="black" > 423</text>
<circle cx="2974" cy="438" r="4" fill="white" stroke="black" />
<line x1="2824" y1="427" x2="2824" y2="441" stroke="black" />
<line x1="2824" y1="441" x2="2899" y2="441" stroke="black" />
<line x1="2974" y1="442" x2="2974" y2="441" stroke="black" />
<line x1="2974" y1="441" x2="2899" y2="441" stroke="black" />
<text x="2899" y="429" font-family="Verdana" font-size="8" text-anchor="middle"  dominant-baseline="middle" fill="black" > 426</text>
<circle cx="2899" cy="441" r="4" fill="white" stroke="black" />
<line x1="2899" y1="445" x2="2899" y2="736" stroke="black" />
<circle cx="2899" cy="736" r="4" fill="white" stroke="black" />
<text x="2899" y="748" font-family="Verdana" font-size="8" text-anchor="middle"  dominant-baseline="middle" fill="black" > 721</text>
<text x="3200" y="7" font-family="Verdana" font-size="7" text-anchor="middle"  dominant-baseline="middle" fill="black" > C16</text>
<circle cx="3200" cy="15" r="4" fill="white" stroke="black" />
<line x1="3200" y1="19" x2="3200" y2="149" stroke="black" />
<line x1="3150" y1="149" x2="3250" y2="149" stroke="black" />
<text x="3225" y="141" font-family="Verdana" font-size="8" text-anchor="middle"  dominant-baseline="middle" fill="black" > 134</text>
<circle cx="3150" cy="149" r="4" fill="white" stroke="black" />
<line x1="3150" y1="153" x2="3150" y2="398" stroke="black" />
<line x1="3116" y1="398" x2="3184" y2="398" stroke="black" />
<text x="3158" y="390" font-family="Verdana" font-size="8" text-anchor="middle"  dominant-baseline="middle" fill="black" > 383</text>
<circle cx="3116" cy="398" r="4" fill="white" stroke="black" />
<circle cx="3149" cy="398" r="4" fill="white" stroke="black" />
<line x1="3116" y1="402" x2="3116" y2="424" stroke="black" />
<line x1="3116" y1="424" x2="3132" y2="432" stroke="black" />
<line x1="3149" y1="402" x2="3149" y2="424" stroke="black" />
<line x1="3149" y1="424" x2="3132" y2="432" stroke="black" />
<text x="3132" y="420" font-family="Verdana" font-size="8" text-anchor="middle"  dominant-baseline="middle" fill="black" > 417</text>
<circle cx="3132" cy="432" r="4" fill="white" stroke="black" />
<circle cx="3182" cy="398" r="4" fill="white" stroke="black" />
<line x1="3132" y1="436" x2="3132" y2="433" stroke="black" />
<line x1="3132" y1="433" x2="3157" y2="433" stroke="black" />
<line x1="3182" y1="402" x2="3182" y2="433" stroke="black" />
<line x1="3182" y1="433" x2="3157" y2="433" stroke="black" />
<text x="3157" y="421" font-family="Verdana" font-size="8" text-anchor="middle"  dominant-baseline="middle" fill="black" > 418</text>
<circle cx="3157" cy="433" r="4" fill="white" stroke="black" />
<line x1="3157" y1="437" x2="3157" y2="736" stroke="black" />
<circle cx="3157" cy="736" r="4" fill="white" stroke="black" />
<text x="3157" y="748" font-family="Verdana" font-size="8" text-anchor="middle"  dominant-baseline="middle" fill="black" > 721</text>
<circle cx="3250" cy="149" r="4" fill="white" stroke="black" />
<line x1="3250" y1="153" x2="3250" y2="257" stroke="black" />
<line x1="3225" y1="257" x2="3275" y2="257" stroke="black" />
<text x="3262" y="249" font-family="Verdana" font-size="8" text-anchor="middle"  dominant-baseline="middle" fill="black" > 242</text>
<circle cx="3225" cy="257" r="4" fill="white" stroke="black" />
<line x1="3225" y1="261" x2="3225" y2="383" stroke="black" />
<line x1="3212" y1="383" x2="3238" y2="383" stroke="black" />
<text x="3231" y="375" font-family="Verdana" font-size="8" text-anchor="middle"  dominant-baseline="middle" fill="black" > 368</text>
<circle cx="3212" cy="383" r="4" fill="white" stroke="black" />
<line x1="3212" y1="387" x2="3212" y2="736" stroke="black" />
<circle cx="3212" cy="736" r="4" fill="white" stroke="black" />
<text x="3212" y="748" font-family="Verdana" font-size="8" text-anchor="middle"  dominant-baseline="middle" fill="black" > 721</text>
<circle cx="3237" cy="383" r="4" fill="white" stroke="black" />
<line x1="3237" y1="387" x2="3237" y2="539" stroke="black" />
<line x1="3229" y1="539" x2="3246" y2="539" stroke="black" />
<text x="3239" y="531" font-family="Verdana" font-size="8" text-anchor="middle"  dominant-baseline="middle" fill="black" > 524</text>
<circle cx="3229" cy="539" r="4" fill="white" stroke="black" />
<line x1="3229" y1="543" x2="3229" y2="736" stroke="black" />
<circle cx="3229" cy="736" r="4" fill="white" stroke="black" />
<text x="3229" y="748" font-family="Verdana" font-size="8" text-anchor="middle"  dominant-baseline="middle" fill="black" > 721</text>
<circle cx="3237" cy="539" r="4" fill="white" stroke="black" />
<line x1="3237" y1="543" x2="3237" y2="736" stroke="black" />
<circle cx="3237" cy="736" r="4" fill="white" stroke="black" />
<text x="3237" y="748" font-family="Verdana" font-size="8" text-anchor="middle"  dominant-baseline="middle" fill="black" > 721</text>
<circle cx="3245" cy="539" r="4" fill="white" stroke="black" />
<line x1="3245" y1="543" x2="3245" y2="736" stroke="black" />
<circle cx="3245" cy="736" r="4" fill="white" stroke="black" />
<text x="3245" y="748" font-family="Verdana" font-size="8" text-anchor="middle"  dominant-baseline="middle" fill="black" > 721</text>
<circle cx="3275" cy="257" r="4" fill="white" stroke="black" />
<line x1="3275" y1="261" x2="3275" y2="588" stroke="black" />
<line x1="3258" y1="588" x2="3292" y2="588" stroke="black" />
<text x="3279" y="580" font-family="Verdana" font-size="8" text-anchor="middle"  dominant-baseline="middle" fill="black" > 573</text>
<circle cx="3258" cy="588" r="4" fill="white" stroke="black" />
<circle cx="3274" cy="588" r="4" fill="white" stroke="black" />
<circle cx="3290" cy="588" r="4" fill="white" stroke="black" />
<line x1="3258" y1="592" x2="3258" y2="601" stroke="black" />
<line x1="3258" y1="601" x2="3274" y2="605" stroke="black" />
<line x1="3274" y1="592" x2="3274" y2="601" stroke="black" />
<line x1="3274" y1="601" x2="3274" y2="605" stroke="black" />
<line x1="3290" y1="592" x2="3290" y2="601" stroke="black" />
<line x1="3290" y1="601" x2="3274" y2="605" stroke="black" />
<text x="3274" y="593" font-family="Verdana" font-size="8" text-anchor="middle"  dominant-baseline="middle" fill="black" > 590</text>
<circle cx="3274" cy="605" r="4" fill="white" stroke="black" />
<line x1="3274" y1="609" x2="3274" y2="665" stroke="black" />
<line x1="3270" y1="661" x2="3278" y2="669" stroke="red" />
<line x1="3270" y1="669" x2="3278" y2="661" stroke="red" />
<text x="3274" y="677" font-family="Verdana" font-size="8" text-anchor="middle"  dominant-baseline="middle" fill="black" > 650</text>
<text x="3400" y="7" font-family="Verdana" font-size="7" text-anchor="middle"  dominant-baseline="middle" fill="black" > C17</text>
<circle cx="3400" cy="15" r="4" fill="white" stroke="black" />
<line x1="3400" y1="19" x2="3400" y2="172" stroke="black" />
<line x1="3350" y1="172" x2="3450" y2="172" stroke="black" />
<text x="3425" y="164" font-family="Verdana" font-size="8" text-anchor="middle"  dominant-baseline="middle" fill="black" > 157</text>
<circle cx="3350" cy="172" r="4" fill="white" stroke="black" />
<line x1="3350" y1="176" x2="3350" y2="499" stroke="black" />
<line x1="3316" y1="499" x2="3384" y2="499" stroke="black" />
<text x="3358" y="491" font-family="Verdana" font-size="8" text-anchor="middle"  dominant-baseline="middle" fill="black" > 484</text>
<circle cx="3316" cy="499" r="4" fill="white" stroke="black" />
<line x1="3316" y1="503" x2="3316" y2="736" stroke="black" />
<circle cx="3316" cy="736" r="4" fill="white" stroke="black" />
<text x="3316" y="748" font-family="Verdana" font-size="8" text-anchor="middle"  dominant-baseline="middle" fill="black" > 721</text>
<circle cx="3349" cy="499" r="4" fill="white" stroke="black" />
<circle cx="3382" cy="499" r="4" fill="white" stroke="black" />
<line x1="3349" y1="503" x2="3349" y2="507" stroke="black" />
<line x1="3349" y1="507" x2="3365" y2="509" stroke="black" />
<line x1="3382" y1="503" x2="3382" y2="507" stroke="black" />
<line x1="3382" y1="507" x2="3365" y2="509" stroke="black" />
<text x="3365" y="497" font-family="Verdana" font-size="8" text-anchor="middle"  dominant-baseline="middle" fill="black" > 494</text>
<circle cx="3365" cy="509" r="4" fill="white" stroke="black" />
<line x1="3365" y1="513" x2="3365" y2="736" stroke="black" />
<circle cx="3365" cy="736" r="4" fill="white" stroke="black" />
<text x="3365" y="748" font-family="Verdana" font-size="8" text-anchor="middle"  dominant-baseline="middle" fill="black" > 721</text>
<circle cx="3450" cy="172" r="4" fill="white" stroke="black" />
<line x1="3450" y1="176" x2="3450" y2="314" stroke="black" />
<line x1="3425" y1="314" x2="3475" y2="314" stroke="black" />
<text x="3462" y="306" font-family="Verdana" font-size="8" text-anchor="middle"  dominant-baseline="middle" fill="black" > 299</text>
<circle cx="3425" cy="314" r="4" fill="white" stroke="black" />
<line x1="3425" y1="318" x2="3425" y2="412" stroke="black" />
<line x1="3412" y1="412" x2="3438" y2="412" stroke="black" />
<text x="3431" y="404" font-family="Verdana" font-size="8" text-anchor="middle"  dominant-baseline="middle" fill="black" > 397</text>
<circle cx="3412" cy="412" r="4" fill="white" stroke="black" />
<line x1="3412" y1="416" x2="3412" y2="532" stroke="black" />
<line x1="3406" y1="532" x2="3419" y2="532" stroke="black" />
<text x="3415" y="524" font-family="Verdana" font-size="8" text-anchor="middle"  dominant-baseline="middle" fill="black" > 517</text>
<circle cx="3406" cy="532" r="4" fill="white" stroke="black" />
<line x1="3406" y1="536" x2="3406" y2="689" stroke="black" />
<line x1="3403" y1="689" x2="3409" y2="689" stroke="black" />
<text x="3407" y="681" font-family="Verdana" font-size="8" text-anchor="middle"  dominant-baseline="middle" fill="black" > 674</text>
<circle cx="3403" cy="689" r="4" fill="white" stroke="black" />
<line x1="3403" y1="693" x2="3403" y2="736" stroke="black" />
<circle cx="3403" cy="736" r="4" fill="white" stroke="black" />
<text x="3403" y="748" font-family="Verdana" font-size="8" text-anchor="middle"  dominant-baseline="middle" fill="black" > 721</text>
<circle cx="3409" cy="689" r="4" fill="white" stroke="black" />
<line x1="3409" y1="693" x2="3409" y2="736" stroke="black" />
<circle cx="3409" cy="736" r="4" fill="white" stroke="black" />
<text x="3409" y="748" font-family="Verdana" font-size="8" text-anchor="middle"  dominant-baseline="middle" fill="black" > 721</text>
<circle cx="3418" cy="532" r="4" fill="white" stroke="black" />
<line x1="3418" y1="536" x2="3418" y2="705" stroke="black" />
<line x1="3415" y1="705" x2="3421" y2="705" stroke="black" />
<text x="3419" y="697" font-family="Verdana" font-size="8" text-anchor="middle"  dominant-baseline="middle" fill="black" > 690</text>
<circle cx="3415" cy="705" r="4" fill="white" stroke="black" />
<line x1="3415" y1="709" x2="3415" y2="736" stroke="black" />
<circle cx="3415" cy="736" r="4" fill="white" stroke="black" />
<text x="3415" y="748" font-family="Verdana" font-size="8" text-anchor="middle"  dominant-baseline="middle" fill="black" > 721</text>
<circle cx="3421" cy="705" r="4" fill="white" stroke="black" />
<line x1="3421" y1="709" x2="3421" y2="736" stroke="black" />
<circle cx="3421" cy="736" r="4" fill="white" stroke="black" />
<text x="3421" y="748" font-family="Verdana" font-size="8" text-anchor="middle"  dominant-baseline="middle" fill="black" > 721</text>
<circle cx="3437" cy="412" r="4" fill="white" stroke="black" />
<line x1="3437" y1="416" x2="3437" y2="536" stroke="black" />
<line x1="3431" y1="536" x2="3444" y2="536" stroke="black" />
<text x="3440" y="528" font-family="Verdana" font-size="8" text-anchor="middle"  dominant-baseline="middle" fill="black" > 521</text>
<circle cx="3431" cy="536" r="4" fill="white" stroke="black" />
<line x1="3431" y1="540" x2="3431" y2="721" stroke="black" />
<line x1="3428" y1="721" x2="3434" y2="721" stroke="black" />
<text x="3432" y="713" font-family="Verdana" font-size="8" text-anchor="middle"  dominant-baseline="middle" fill="black" > 706</text>
<circle cx="3428" cy="721" r="4" fill="white" stroke="black" />
<line x1="3428" y1="725" x2="3428" y2="736" stroke="black" />
<circle cx="3428" cy="736" r="4" fill="white" stroke="black" />
<text x="3428" y="748" font-family="Verdana" font-size="8" text-anchor="middle"  dominant-baseline="middle" fill="black" > 721</text>
<circle cx="3434" cy="721" r="4" fill="white" stroke="black" />
<line x1="3434" y1="725" x2="3434" y2="736" stroke="black" />
<circle cx="3434" cy="736" r="4" fill="white" stroke="black" />
<text x="3434" y="748" font-family="Verdana" font-size="8" text-anchor="middle"  dominant-baseline="middle" fill="black" > 721</text>
<circle cx="3443" cy="536" r="4" fill="white" stroke="black" />
<line x1="3443" y1="540" x2="3443" y2="714" stroke="black" />
<line x1="3440" y1="714" x2="3446" y2="714" stroke="black" />
<text x="3444" y="706" font-family="Verdana" font-size="8" text-anchor="middle"  dominant-baseline="middle" fill="black" > 699</text>
<circle cx="3440" cy="714" r="4" fill="white" stroke="black" />
<line x1="3440" y1="718" x2="3440" y2="736" stroke="black" />
<circle cx="3440" cy="736" r="4" fill="white" stroke="black" />
<text x="3440" y="748" font-family="Verdana" font-size="8" text-anchor="middle"  dominant-baseline="middle" fill="black" > 721</text>
<circle cx="3446" cy="714" r="4" fill="white" stroke="black" />
<line x1="3446" y1="718" x2="3446" y2="736" stroke="black" />
<circle cx="3446" cy="736" r="4" fill="white" stroke="black" />
<text x="3446" y="748" font-family="Verdana" font-size="8" text-anchor="middle"  dominant-baseline="middle" fill="black" > 721</text>
<circle cx="3475" cy="314" r="4" fill="white" stroke="black" />
<line x1="3475" y1="318" x2="3475" y2="407" stroke="black" />
<line x1="3462" y1="407" x2="3488" y2="407" stroke="black" />
<text x="3481" y="399" font-family="Verdana" font-size="8" text-anchor="middle"  dominant-baseline="middle" fill="black" > 392</text>
<circle cx="3462" cy="407" r="4" fill="white" stroke="black" />
<line x1="3462" y1="411" x2="3462" y2="736" stroke="black" />
<circle cx="3462" cy="736" r="4" fill="white" stroke="black" />
<text x="3462" y="748" font-family="Verdana" font-size="8" text-anchor="middle"  dominant-baseline="middle" fill="black" > 721</text>
<circle cx="3487" cy="407" r="4" fill="white" stroke="black" />
<line x1="3487" y1="411" x2="3487" y2="586" stroke="black" />
<line x1="3481" y1="586" x2="3494" y2="586" stroke="black" />
<text x="3490" y="578" font-family="Verdana" font-size="8" text-anchor="middle"  dominant-baseline="middle" fill="black" > 571</text>
<circle cx="3481" cy="586" r="4" fill="white" stroke="black" />
<line x1="3481" y1="590" x2="3481" y2="736" stroke="black" />
<circle cx="3481" cy="736" r="4" fill="white" stroke="black" />
<text x="3481" y="748" font-family="Verdana" font-size="8" text-anchor="middle"  dominant-baseline="middle" fill="black" > 721</text>
<circle cx="3493" cy="586" r="4" fill="white" stroke="black" />
<line x1="3493" y1="590" x2="3493" y2="736" stroke="black" />
<circle cx="3493" cy="736" r="4" fill="white" stroke="black" />
<text x="3493" y="748" font-family="Verdana" font-size="8" text-anchor="middle"  dominant-baseline="middle" fill="black" > 721</text>
</svg>
