<?xml version="1.0" encoding="utf-8"?>
<svg xmlns="http://www.w3.org/2000/svg" version="1.1" width="2350" height="750">
<rect width="2350" height="15" x="0" y="0" fill="white" />
<rect width="2350" height="15" x="0" y="735" fill="white" />
<rect width="25" height="750" x="0" y="0" fill="white" />
<rect width="25" height="750" x="2325" y="0" fill="white" />
<rect width="2310" height="144" x="25" y="15" fill="ghostwhite" />
<rect width="2310" height="144" x="25" y="159" fill="snow" />
<rect width="2310" height="144" x="25" y="303" fill="ghostwhite" />
<rect width="2310" height="144" x="25" y="447" fill="snow" />
<rect width="2310" height="144" x="25" y="591" fill="ghostwhite" />
<text x="12" y="87" font-family="Verdana" font-size="10" text-anchor="middle"  dominant-baseline="middle" fill="red" > D0</text>
<text x="12" y="231" font-family="Verdana" font-size="10" text-anchor="middle"  dominant-baseline="middle" fill="red" > D1</text>
<text x="12" y="375" font-family="Verdana" font-size="10" text-anchor="middle"  dominant-baseline="middle" fill="red" > D2</text>
<text x="12" y="519" font-family="Verdana" font-size="10" text-anchor="middle"  dominant-baseline="middle" fill="red" > D3</text>
<text x="12" y="663" font-family="Verdana" font-size="10" text-anchor="middle"  dominant-baseline="middle" fill="red" > D4</text>
<text x="12" y="20" font-family="Verdana" font-size="10" text-anchor="middle"  dominant-baseline="middle" fill="black" > 0</text>
<text x="12" y="164" font-family="Verdana" font-size="10" text-anchor="middle"  dominant-baseline="middle" fill="black" > 144</text>
<text x="12" y="308" font-family="Verdana" font-size="10" text-anchor="middle"  dominant-baseline="middle" fill="black" > 288</text>
<text x="12" y="452" font-family="Verdana" font-size="10" text-anchor="middle"  dominant-baseline="middle" fill="black" > 432</text>
<text x="12" y="596" font-family="Verdana" font-size="10" text-anchor="middle"  dominant-baseline="middle" fill="black" > 576</text>
<text x="12" y="740" font-family="Verdana" font-size="10" text-anchor="middle"  dominant-baseline="middle" fill="black" > 720</text>
<text x="100" y="7" font-family="Verdana" font-size="7" text-anchor="middle"  dominant-baseline="middle" fill="black" > C1</text>
<circle cx="100" cy="15" r="4" fill="white" stroke="black" />
<line x1="100" y1="19" x2="100" y2="158" stroke="black" />
<line x1="50" y1="158" x2="150" y2="158" stroke="black" />
<text x="125" y="150" font-family="Verdana" font-size="8" text-anchor="middle"  dominant-baseline="middle" fill="black" > 143</text>
<circle cx="50" cy="158" r="4" fill="white" stroke="black" />
<line x1="50" y1="162" x2="50" y2="296" stroke="black" />
<line x1="25" y1="296" x2="75" y2="296" stroke="black" />
<text x="62" y="288" font-family="Verdana" font-size="8" text-anchor="middle"  dominant-baseline="middle" fill="black" > 281</text>
<circle cx="25" cy="296" r="4" fill="white" stroke="black" />
<line x1="25" y1="300" x2="25" y2="296" stroke="black" />
<line x1="21" y1="300" x2="25" y2="292" stroke="blue" />
<line x1="25" y1="300" x2="29" y2="292" stroke="blue" />
<text x="25" y="308" font-family="Verdana" font-size="8" text-anchor="middle"  dominant-baseline="middle" fill="black" > 281</text>
<circle cx="75" cy="296" r="4" fill="white" stroke="black" />
<line x1="75" y1="300" x2="75" y2="398" stroke="black" />
<line x1="71" y1="394" x2="79" y2="402" stroke="red" />
<line x1="71" y1="402" x2="79" y2="394" stroke="red" />
<text x="75" y="410" font-family="Verdana" font-size="8" text-anchor="middle"  dominant-baseline="middle" fill="black" > 383</text>
<circle cx="150" cy="158" r="4" fill="white" stroke="black" />
<line x1="150" y1="162" x2="150" y2="293" stroke="black" />
<line x1="125" y1="293" x2="175" y2="293" stroke="black" />
<text x="162" y="285" font-family="Verdana" font-size="8" text-anchor="middle"  dominant-baseline="middle" fill="black" > 278</text>
<circle cx="125" cy="293" r="4" fill="white" stroke="black" />
<line x1="125" y1="297" x2="125" y2="398" stroke="black" />
<line x1="108" y1="398" x2="142" y2="398" stroke="black" />
<text x="129" y="390" font-family="Verdana" font-size="8" text-anchor="middle"  dominant-baseline="middle" fill="black" > 383</text>
<circle cx="108" cy="398" r="4" fill="white" stroke="black" />
<line x1="108" y1="402" x2="108" y2="514" stroke="black" />
<line x1="104" y1="510" x2="112" y2="518" stroke="red" />
<line x1="104" y1="518" x2="112" y2="510" stroke="red" />
<text x="108" y="526" font-family="Verdana" font-size="8" text-anchor="middle"  dominant-baseline="middle" fill="black" > 499</text>
<circle cx="124" cy="398" r="4" fill="white" stroke="black" />
<line x1="124" y1="402" x2="124" y2="524" stroke="black" />
<line x1="120" y1="520" x2="128" y2="528" stroke="red" />
<line x1="120" y1="528" x2="128" y2="520" stroke="red" />
<text x="124" y="536" font-family="Verdana" font-size="8" text-anchor="middle"  dominant-baseline="middle" fill="black" > 509</text>
<circle cx="140" cy="398" r="4" fill="white" stroke="black" />
<line x1="140" y1="402" x2="140" y2="571" stroke="black" />
<line x1="136" y1="571" x2="144" y2="571" stroke="black" />
<text x="142" y="563" font-family="Verdana" font-size="8" text-anchor="middle"  dominant-baseline="middle" fill="black" > 556</text>
<circle cx="136" cy="571" r="4" fill="white" stroke="black" />
<line x1="136" y1="575" x2="136" y2="582" stroke="black" />
<line x1="132" y1="586" x2="136" y2="578" stroke="blue" />
<line x1="136" y1="586" x2="140" y2="578" stroke="blue" />
<text x="136" y="594" font-family="Verdana" font-size="8" text-anchor="middle"  dominant-baseline="middle" fill="black" > 567</text>
<circle cx="144" cy="571" r="4" fill="white" stroke="black" />
<line x1="144" y1="575" x2="144" y2="610" stroke="black" />
<line x1="140" y1="614" x2="144" y2="606" stroke="blue" />
<line x1="144" y1="614" x2="148" y2="606" stroke="blue" />
<text x="144" y="622" font-family="Verdana" font-size="8" text-anchor="middle"  dominant-baseline="middle" fill="black" > 595</text>
<circle cx="175" cy="293" r="4" fill="white" stroke="black" />
<line x1="175" y1="297" x2="175" y2="409" stroke="black" />
<line x1="162" y1="409" x2="188" y2="409" stroke="black" />
<text x="181" y="401" font-family="Verdana" font-size="8" text-anchor="middle"  dominant-baseline="middle" fill="black" > 394</text>
<circle cx="162" cy="409" r="4" fill="white" stroke="black" />
<line x1="162" y1="413" x2="162" y2="554" stroke="black" />
<line x1="156" y1="554" x2="169" y2="554" stroke="black" />
<text x="165" y="546" font-family="Verdana" font-size="8" text-anchor="middle"  dominant-baseline="middle" fill="black" > 539</text>
<circle cx="156" cy="554" r="4" fill="white" stroke="black" />
<line x1="156" y1="558" x2="156" y2="733" stroke="black" />
<line x1="153" y1="733" x2="159" y2="733" stroke="black" />
<text x="157" y="725" font-family="Verdana" font-size="8" text-anchor="middle"  dominant-baseline="middle" fill="black" > 718</text>
<circle cx="153" cy="733" r="4" fill="white" stroke="black" />
<line x1="153" y1="737" x2="153" y2="736" stroke="black" />
<circle cx="153" cy="736" r="4" fill="white" stroke="black" />
<text x="153" y="748" font-family="Verdana" font-size="8" text-anchor="middle"  dominant-baseline="middle" fill="black" > 721</text>
<circle cx="159" cy="733" r="4" fill="white" stroke="black" />
<line x1="159" y1="737" x2="159" y2="736" stroke="black" />
<circle cx="159" cy="736" r="4" fill="white" stroke="black" />
<text x="159" y="748" font-family="Verdana" font-size="8" text-anchor="middle"  dominant-baseline="middle" fill="black" > 721</text>
<circle cx="168" cy="554" r="4" fill="white" stroke="black" />
<line x1="168" y1="558" x2="168" y2="710" stroke="black" />
<line x1="165" y1="710" x2="171" y2="710" stroke="black" />
<text x="169" y="702" font-family="Verdana" font-size="8" text-anchor="middle"  dominant-baseline="middle" fill="black" > 695</text>
<circle cx="165" cy="710" r="4" fill="white" stroke="black" />
<line x1="165" y1="714" x2="165" y2="736" stroke="black" />
<circle cx="165" cy="736" r="4" fill="white" stroke="black" />
<text x="165" y="748" font-family="Verdana" font-size="8" text-anchor="middle"  dominant-baseline="middle" fill="black" > 721</text>
<circle cx="171" cy="710" r="4" fill="white" stroke="black" />
<line x1="171" y1="714" x2="171" y2="736" stroke="black" />
<circle cx="171" cy="736" r="4" fill="white" stroke="black" />
<text x="171" y="748" font-family="Verdana" font-size="8" text-anchor="middle"  dominant-baseline="middle" fill="black" > 721</text>
<circle cx="187" cy="409" r="4" fill="white" stroke="black" />
<line x1="187" y1="413" x2="187" y2="553" stroke="black" />
<line x1="181" y1="553" x2="194" y2="553" stroke="black" />
<text x="190" y="545" font-family="Verdana" font-size="8" text-anchor="middle"  dominant-baseline="middle" fill="black" > 538</text>
<circle cx="181" cy="553" r="4" fill="white" stroke="black" />
<line x1="181" y1="557" x2="181" y2="694" stroke="black" />
<line x1="178" y1="694" x2="184" y2="694" stroke="black" />
<text x="182" y="686" font-family="Verdana" font-size="8" text-anchor="middle"  dominant-baseline="middle" fill="black" > 679</text>
<circle cx="178" cy="694" r="4" fill="white" stroke="black" />
<line x1="178" y1="698" x2="178" y2="736" stroke="black" />
<circle cx="178" cy="736" r="4" fill="white" stroke="black" />
<text x="178" y="748" font-family="Verdana" font-size="8" text-anchor="middle"  dominant-baseline="middle" fill="black" > 721</text>
<circle cx="184" cy="694" r="4" fill="white" stroke="black" />
<line x1="184" y1="698" x2="184" y2="736" stroke="black" />
<circle cx="184" cy="736" r="4" fill="white" stroke="black" />
<text x="184" y="748" font-family="Verdana" font-size="8" text-anchor="middle"  dominant-baseline="middle" fill="black" > 721</text>
<circle cx="193" cy="553" r="4" fill="white" stroke="black" />
<line x1="193" y1="557" x2="193" y2="688" stroke="black" />
<line x1="190" y1="688" x2="196" y2="688" stroke="black" />
<text x="194" y="680" font-family="Verdana" font-size="8" text-anchor="middle"  dominant-baseline="middle" fill="black" > 673</text>
<circle cx="190" cy="688" r="4" fill="white" stroke="black" />
<line x1="190" y1="692" x2="190" y2="736" stroke="black" />
<circle cx="190" cy="736" r="4" fill="white" stroke="black" />
<text x="190" y="748" font-family="Verdana" font-size="8" text-anchor="middle"  dominant-baseline="middle" fill="black" > 721</text>
<circle cx="196" cy="688" r="4" fill="white" stroke="black" />
<line x1="196" y1="692" x2="196" y2="736" stroke="black" />
<circle cx="196" cy="736" r="4" fill="white" stroke="black" />
<text x="196" y="748" font-family="Verdana" font-size="8" text-anchor="middle"  dominant-baseline="middle" fill="black" > 721</text>
<text x="300" y="7" font-family="Verdana" font-size="7" text-anchor="middle"  dominant-baseline="middle" fill="black" > C2</text>
<circle cx="300" cy="15" r="4" fill="white" stroke="black" />
<line x1="300" y1="19" x2="300" y2="186" stroke="black" />
<line x1="250" y1="186" x2="350" y2="186" stroke="black" />
<text x="325" y="178" font-family="Verdana" font-size="8" text-anchor="middle"  dominant-baseline="middle" fill="black" > 171</text>
<circle cx="250" cy="186" r="4" fill="white" stroke="black" />
<line x1="250" y1="190" x2="250" y2="494" stroke="black" />
<line x1="225" y1="494" x2="275" y2="494" stroke="black" />
<text x="262" y="486" font-family="Verdana" font-size="8" text-anchor="middle"  dominant-baseline="middle" fill="black" > 479</text>
<circle cx="225" cy="494" r="4" fill="white" stroke="black" />
<line x1="225" y1="498" x2="225" y2="530" stroke="black" />
<line x1="221" y1="526" x2="229" y2="534" stroke="red" />
<line x1="221" y1="534" x2="229" y2="526" stroke="red" />
<text x="225" y="542" font-family="Verdana" font-size="8" text-anchor="middle"  dominant-baseline="middle" fill="black" > 515</text>
<circle cx="275" cy="494" r="4" fill="white" stroke="black" />
<line x1="275" y1="498" x2="275" y2="529" stroke="black" />
<line x1="271" y1="525" x2="279" y2="533" stroke="red" />
<line x1="271" y1="533" x2="279" y2="525" stroke="red" />
<text x="275" y="541" font-family="Verdana" font-size="8" text-anchor="middle"  dominant-baseline="middle" fill="black" > 514</text>
<circle cx="350" cy="186" r="4" fill="white" stroke="black" />
<line x1="350" y1="190" x2="350" y2="327" stroke="black" />
<line x1="325" y1="327" x2="375" y2="327" stroke="black" />
<text x="362" y="319" font-family="Verdana" font-size="8" text-anchor="middle"  dominant-baseline="middle" fill="black" > 312</text>
<circle cx="325" cy="327" r="4" fill="white" stroke="black" />
<line x1="325" y1="331" x2="325" y2="736" stroke="black" />
<circle cx="325" cy="736" r="4" fill="white" stroke="black" />
<text x="325" y="748" font-family="Verdana" font-size="8" text-anchor="middle"  dominant-baseline="middle" fill="black" > 721</text>
<circle cx="375" cy="327" r="4" fill="white" stroke="black" />
<line x1="375" y1="331" x2="375" y2="509" stroke="black" />
<line x1="362" y1="509" x2="388" y2="509" stroke="black" />
<text x="381" y="501" font-family="Verdana" font-size="8" text-anchor="middle"  dominant-baseline="middle" fill="black" > 494</text>
<circle cx="362" cy="509" r="4" fill="white" stroke="black" />
<line x1="362" y1="513" x2="362" y2="736" stroke="black" />
<circle cx="362" cy="736" r="4" fill="white" stroke="black" />
<text x="362" y="748" font-family="Verdana" font-size="8" text-anchor="middle"  dominant-baseline="middle" fill="black" > 721</text>
<circle cx="387" cy="509" r="4" fill="white" stroke="black" />
<line x1="387" y1="513" x2="387" y2="736" stroke="black" />
<circle cx="387" cy="736" r="4" fill="white" stroke="black" />
<text x="387" y="748" font-family="Verdana" font-size="8" text-anchor="middle"  dominant-baseline="middle" fill="black" > 721</text>
<text x="450" y="7" font-family="Verdana" font-size="7" text-anchor="middle"  dominant-baseline="middle" fill="black" > C3</text>
<circle cx="450" cy="15" r="4" fill="white" stroke="black" />
<line x1="450" y1="19" x2="450" y2="502" stroke="black" />
<line x1="446" y1="506" x2="450" y2="498" stroke="blue" />
<line x1="450" y1="506" x2="454" y2="498" stroke="blue" />
<text x="450" y="514" font-family="Verdana" font-size="8" text-anchor="middle"  dominant-baseline="middle" fill="black" > 487</text>
<text x="600" y="7" font-family="Verdana" font-size="7" text-anchor="middle"  dominant-baseline="middle" fill="black" > C4</text>
<circle cx="600" cy="15" r="4" fill="white" stroke="black" />
<line x1="600" y1="19" x2="600" y2="188" stroke="black" />
<line x1="550" y1="188" x2="650" y2="188" stroke="black" />
<text x="625" y="180" font-family="Verdana" font-size="8" text-anchor="middle"  dominant-baseline="middle" fill="black" > 173</text>
<circle cx="550" cy="188" r="4" fill="white" stroke="black" />
<line x1="550" y1="192" x2="550" y2="307" stroke="black" />
<line x1="525" y1="307" x2="575" y2="307" stroke="black" />
<text x="562" y="299" font-family="Verdana" font-size="8" text-anchor="middle"  dominant-baseline="middle" fill="black" > 292</text>
<circle cx="525" cy="307" r="4" fill="white" stroke="black" />
<line x1="525" y1="311" x2="525" y2="736" stroke="black" />
<circle cx="525" cy="736" r="4" fill="white" stroke="black" />
<text x="525" y="748" font-family="Verdana" font-size="8" text-anchor="middle"  dominant-baseline="middle" fill="black" > 721</text>
<circle cx="575" cy="307" r="4" fill="white" stroke="black" />
<line x1="575" y1="311" x2="575" y2="736" stroke="black" />
<circle cx="575" cy="736" r="4" fill="white" stroke="black" />
<text x="575" y="748" font-family="Verdana" font-size="8" text-anchor="middle"  dominant-baseline="middle" fill="black" > 721</text>
<circle cx="650" cy="188" r="4" fill="white" stroke="black" />
<line x1="650" y1="192" x2="650" y2="308" stroke="black" />
<line x1="625" y1="308" x2="675" y2="308" stroke="black" />
<text x="662" y="300" font-family="Verdana" font-size="8" text-anchor="middle"  dominant-baseline="middle" fill="black" > 293</text>
<circle cx="625" cy="308" r="4" fill="white" stroke="black" />
<line x1="625" y1="312" x2="625" y2="736" stroke="black" />
<circle cx="625" cy="736" r="4" fill="white" stroke="black" />
<text x="625" y="748" font-family="Verdana" font-size="8" text-anchor="middle"  dominant-baseline="middle" fill="black" > 721</text>
<circle cx="675" cy="308" r="4" fill="white" stroke="black" />
<line x1="675" y1="312" x2="675" y2="736" stroke="black" />
<circle cx="675" cy="736" r="4" fill="white" stroke="black" />
<text x="675" y="748" font-family="Verdana" font-size="8" text-anchor="middle"  dominant-baseline="middle" fill="black" > 721</text>
<text x="750" y="7" font-family="Verdana" font-size="7" text-anchor="middle"  dominant-baseline="middle" fill="black" > C5</text>
<circle cx="750" cy="15" r="4" fill="white" stroke="black" />
<line x1="750" y1="19" x2="750" y2="428" stroke="black" />
<line x1="746" y1="424" x2="754" y2="432" stroke="red" />
<line x1="746" y1="432" x2="754" y2="424" stroke="red" />
<text x="750" y="440" font-family="Verdana" font-size="8" text-anchor="middle"  dominant-baseline="middle" fill="black" > 413</text>
<text x="900" y="7" font-family="Verdana" font-size="7" text-anchor="middle"  dominant-baseline="middle" fill="black" > C6</text>
<circle cx="900" cy="15" r="4" fill="white" stroke="black" />
<line x1="900" y1="19" x2="900" y2="143" stroke="black" />
<line x1="850" y1="143" x2="950" y2="143" stroke="black" />
<text x="925" y="135" font-family="Verdana" font-size="8" text-anchor="middle"  dominant-baseline="middle" fill="black" > 128</text>
<circle cx="850" cy="143" r="4" fill="white" stroke="black" />
<line x1="850" y1="147" x2="850" y2="293" stroke="black" />
<line x1="825" y1="293" x2="875" y2="293" stroke="black" />
<text x="862" y="285" font-family="Verdana" font-size="8" text-anchor="middle"  dominant-baseline="middle" fill="black" > 278</text>
<circle cx="825" cy="293" r="4" fill="white" stroke="black" />
<line x1="825" y1="297" x2="825" y2="571" stroke="black" />
<line x1="821" y1="567" x2="829" y2="575" stroke="red" />
<line x1="821" y1="575" x2="829" y2="567" stroke="red" />
<text x="825" y="583" font-family="Verdana" font-size="8" text-anchor="middle"  dominant-baseline="middle" fill="black" > 556</text>
<circle cx="875" cy="293" r="4" fill="white" stroke="black" />
<line x1="875" y1="297" x2="875" y2="658" stroke="black" />
<line x1="871" y1="654" x2="879" y2="662" stroke="red" />
<line x1="871" y1="662" x2="879" y2="654" stroke="red" />
<text x="875" y="670" font-family="Verdana" font-size="8" text-anchor="middle"  dominant-baseline="middle" fill="black" > 643</text>
<circle cx="950" cy="143" r="4" fill="white" stroke="black" />
<line x1="950" y1="147" x2="950" y2="253" stroke="black" />
<line x1="925" y1="253" x2="975" y2="253" stroke="black" />
<text x="962" y="245" font-family="Verdana" font-size="8" text-anchor="middle"  dominant-baseline="middle" fill="black" > 238</text>
<circle cx="925" cy="253" r="4" fill="white" stroke="black" />
<circle cx="975" cy="253" r="4" fill="white" stroke="black" />
<line x1="925" y1="257" x2="925" y2="334" stroke="black" />
<line x1="925" y1="334" x2="950" y2="360" stroke="black" />
<line x1="975" y1="257" x2="975" y2="334" stroke="black" />
<line x1="975" y1="334" x2="950" y2="360" stroke="black" />
<text x="950" y="348" font-family="Verdana" font-size="8" text-anchor="middle"  dominant-baseline="middle" fill="black" > 345</text>
<circle cx="950" cy="360" r="4" fill="white" stroke="black" />
<line x1="950" y1="364" x2="950" y2="459" stroke="black" />
<line x1="931" y1="459" x2="969" y2="459" stroke="black" />
<text x="953" y="451" font-family="Verdana" font-size="8" text-anchor="middle"  dominant-baseline="middle" fill="black" > 444</text>
<circle cx="931" cy="459" r="4" fill="white" stroke="black" />
<circle cx="943" cy="459" r="4" fill="white" stroke="black" />
<line x1="931" y1="463" x2="931" y2="463" stroke="black" />
<line x1="931" y1="463" x2="937" y2="464" stroke="black" />
<line x1="943" y1="463" x2="943" y2="463" stroke="black" />
<line x1="943" y1="463" x2="937" y2="464" stroke="black" />
<text x="937" y="452" font-family="Verdana" font-size="8" text-anchor="middle"  dominant-baseline="middle" fill="black" > 449</text>
<circle cx="937" cy="464" r="4" fill="white" stroke="black" />
<line x1="937" y1="468" x2="937" y2="736" stroke="black" />
<circle cx="937" cy="736" r="4" fill="white" stroke="black" />
<text x="937" y="748" font-family="Verdana" font-size="8" text-anchor="middle"  dominant-baseline="middle" fill="black" > 721</text>
<circle cx="955" cy="459" r="4" fill="white" stroke="black" />
<line x1="955" y1="463" x2="955" y2="674" stroke="black" />
<line x1="951" y1="670" x2="959" y2="678" stroke="red" />
<line x1="951" y1="678" x2="959" y2="670" stroke="red" />
<text x="955" y="686" font-family="Verdana" font-size="8" text-anchor="middle"  dominant-baseline="middle" fill="black" > 659</text>
<circle cx="967" cy="459" r="4" fill="white" stroke="black" />
<line x1="967" y1="463" x2="967" y2="662" stroke="black" />
<line x1="964" y1="662" x2="970" y2="662" stroke="black" />
<text x="968" y="654" font-family="Verdana" font-size="8" text-anchor="middle"  dominant-baseline="middle" fill="black" > 647</text>
<circle cx="964" cy="662" r="4" fill="white" stroke="black" />
<line x1="964" y1="666" x2="964" y2="736" stroke="black" />
<circle cx="964" cy="736" r="4" fill="white" stroke="black" />
<text x="964" y="748" font-family="Verdana" font-size="8" text-anchor="middle"  dominant-baseline="middle" fill="black" > 721</text>
<circle cx="970" cy="662" r="4" fill="white" stroke="black" />
<line x1="970" y1="666" x2="970" y2="736" stroke="black" />
<circle cx="970" cy="736" r="4" fill="white" stroke="black" />
<text x="970" y="748" font-family="Verdana" font-size="8" text-anchor="middle"  dominant-baseline="middle" fill="black" > 721</text>
<text x="1200" y="7" font-family="Verdana" font-size="7" text-anchor="middle"  dominant-baseline="middle" fill="black" > C7</text>
<circle cx="1200" cy="15" r="4" fill="white" stroke="black" />
<line x1="1200" y1="19" x2="1200" y2="353" stroke="black" />
<line x1="1050" y1="353" x2="1350" y2="353" stroke="black" />
<text x="1225" y="345" font-family="Verdana" font-size="8" text-anchor="middle"  dominant-baseline="middle" fill="black" > 338</text>
<circle cx="1050" cy="353" r="4" fill="white" stroke="black" />
<circle cx="1150" cy="353" r="4" fill="white" stroke="black" />
<line x1="1050" y1="357" x2="1050" y2="370" stroke="black" />
<line x1="1050" y1="370" x2="1100" y2="375" stroke="black" />
<line x1="1150" y1="357" x2="1150" y2="370" stroke="black" />
<line x1="1150" y1="370" x2="1100" y2="375" stroke="black" />
<text x="1100" y="363" font-family="Verdana" font-size="8" text-anchor="middle"  dominant-baseline="middle" fill="black" > 360</text>
<circle cx="1100" cy="375" r="4" fill="white" stroke="black" />
<circle cx="1250" cy="353" r="4" fill="white" stroke="black" />
<line x1="1100" y1="379" x2="1100" y2="387" stroke="black" />
<line x1="1100" y1="387" x2="1175" y2="391" stroke="black" />
<line x1="1250" y1="357" x2="1250" y2="387" stroke="black" />
<line x1="1250" y1="387" x2="1175" y2="391" stroke="black" />
<text x="1175" y="379" font-family="Verdana" font-size="8" text-anchor="middle"  dominant-baseline="middle" fill="black" > 376</text>
<circle cx="1175" cy="391" r="4" fill="white" stroke="black" />
<circle cx="1350" cy="353" r="4" fill="white" stroke="black" />
<line x1="1175" y1="395" x2="1175" y2="418" stroke="black" />
<line x1="1175" y1="418" x2="1262" y2="427" stroke="black" />
<line x1="1350" y1="357" x2="1350" y2="418" stroke="black" />
<line x1="1350" y1="418" x2="1262" y2="427" stroke="black" />
<text x="1262" y="415" font-family="Verdana" font-size="8" text-anchor="middle"  dominant-baseline="middle" fill="black" > 412</text>
<circle cx="1262" cy="427" r="4" fill="white" stroke="black" />
<line x1="1262" y1="431" x2="1262" y2="501" stroke="black" />
<line x1="1258" y1="497" x2="1266" y2="505" stroke="red" />
<line x1="1258" y1="505" x2="1266" y2="497" stroke="red" />
<text x="1262" y="513" font-family="Verdana" font-size="8" text-anchor="middle"  dominant-baseline="middle" fill="black" > 486</text>
<text x="1500" y="7" font-family="Verdana" font-size="7" text-anchor="middle"  dominant-baseline="middle" fill="black" > C8</text>
<circle cx="1500" cy="15" r="4" fill="white" stroke="black" />
<line x1="1500" y1="19" x2="1500" y2="188" stroke="black" />
<line x1="1450" y1="188" x2="1550" y2="188" stroke="black" />
<text x="1525" y="180" font-family="Verdana" font-size="8" text-anchor="middle"  dominant-baseline="middle" fill="black" > 173</text>
<circle cx="1450" cy="188" r="4" fill="white" stroke="black" />
<line x1="1450" y1="192" x2="1450" y2="679" stroke="black" />
<line x1="1446" y1="675" x2="1454" y2="683" stroke="red" />
<line x1="1446" y1="683" x2="1454" y2="675" stroke="red" />
<text x="1450" y="691" font-family="Verdana" font-size="8" text-anchor="middle"  dominant-baseline="middle" fill="black" > 664</text>
<circle cx="1550" cy="188" r="4" fill="white" stroke="black" />
<line x1="1550" y1="192" x2="1550" y2="706" stroke="black" />
<line x1="1546" y1="702" x2="1554" y2="710" stroke="red" />
<line x1="1546" y1="710" x2="1554" y2="702" stroke="red" />
<text x="1550" y="718" font-family="Verdana" font-size="8" text-anchor="middle"  dominant-baseline="middle" fill="black" > 691</text>
<text x="1700" y="7" font-family="Verdana" font-size="7" text-anchor="middle"  dominant-baseline="middle" fill="black" > C9</text>
<circle cx="1700" cy="15" r="4" fill="white" stroke="black" />
<line x1="1700" y1="19" x2="1700" y2="162" stroke="black" />
<line x1="1650" y1="162" x2="1750" y2="162" stroke="black" />
<text x="1725" y="154" font-family="Verdana" font-size="8" text-anchor="middle"  dominant-baseline="middle" fill="black" > 147</text>
<circle cx="1650" cy="162" r="4" fill="white" stroke="black" />
<line x1="1650" y1="166" x2="1650" y2="736" stroke="black" />
<circle cx="1650" cy="736" r="4" fill="white" stroke="black" />
<text x="1650" y="748" font-family="Verdana" font-size="8" text-anchor="middle"  dominant-baseline="middle" fill="black" > 721</text>
<circle cx="1750" cy="162" r="4" fill="white" stroke="black" />
<line x1="1750" y1="166" x2="1750" y2="480" stroke="black" />
<line x1="1725" y1="480" x2="1775" y2="480" stroke="black" />
<text x="1762" y="472" font-family="Verdana" font-size="8" text-anchor="middle"  dominant-baseline="middle" fill="black" > 465</text>
<circle cx="1725" cy="480" r="4" fill="white" stroke="black" />
<line x1="1725" y1="484" x2="1725" y2="736" stroke="black" />
<circle cx="1725" cy="736" r="4" fill="white" stroke="black" />
<text x="1725" y="748" font-family="Verdana" font-size="8" text-anchor="middle"  dominant-baseline="middle" fill="black" > 721</text>
<circle cx="1775" cy="480" r="4" fill="white" stroke="black" />
<line x1="1775" y1="484" x2="1775" y2="629" stroke="black" />
<line x1="1762" y1="629" x2="1788" y2="629" stroke="black" />
<text x="1781" y="621" font-family="Verdana" font-size="8" text-anchor="middle"  dominant-baseline="middle" fill="black" > 614</text>
<circle cx="1762" cy="629" r="4" fill="white" stroke="black" />
<line x1="1762" y1="633" x2="1762" y2="736" stroke="black" />
<circle cx="1762" cy="736" r="4" fill="white" stroke="black" />
<text x="1762" y="748" font-family="Verdana" font-size="8" text-anchor="middle"  dominant-baseline="middle" fill="black" > 721</text>
<circle cx="1787" cy="629" r="4" fill="white" stroke="black" />
<line x1="1787" y1="633" x2="1787" y2="736" stroke="black" />
<circle cx="1787" cy="736" r="4" fill="white" stroke="black" />
<text x="1787" y="748" font-family="Verdana" font-size="8" text-anchor="middle"  dominant-baseline="middle" fill="black" > 721</text>
<text x="1900" y="7" font-family="Verdana" font-size="7" text-anchor="middle"  dominant-baseline="middle" fill="black" > C10</text>
<circle cx="1900" cy="15" r="4" fill="white" stroke="black" />
<line x1="1900" y1="19" x2="1900" y2="157" stroke="black" />
<line x1="1850" y1="157" x2="1950" y2="157" stroke="black" />
<text x="1925" y="149" font-family="Verdana" font-size="8" text-anchor="middle"  dominant-baseline="middle" fill="black" > 142</text>
<circle cx="1850" cy="157" r="4" fill="white" stroke="black" />
<line x1="1850" y1="161" x2="1850" y2="469" stroke="black" />
<line x1="1816" y1="469" x2="1884" y2="469" stroke="black" />
<text x="1858" y="461" font-family="Verdana" font-size="8" text-anchor="middle"  dominant-baseline="middle" fill="black" > 454</text>
<circle cx="1816" cy="469" r="4" fill="white" stroke="black" />
<line x1="1816" y1="473" x2="1816" y2="500" stroke="black" />
<line x1="1812" y1="496" x2="1820" y2="504" stroke="red" />
<line x1="1812" y1="504" x2="1820" y2="496" stroke="red" />
<text x="1816" y="512" font-family="Verdana" font-size="8" text-anchor="middle"  dominant-baseline="middle" fill="black" > 485</text>
<circle cx="1849" cy="469" r="4" fill="white" stroke="black" />
<line x1="1849" y1="473" x2="1849" y2="500" stroke="black" />
<line x1="1845" y1="496" x2="1853" y2="504" stroke="red" />
<line x1="1845" y1="504" x2="1853" y2="496" stroke="red" />
<text x="1849" y="512" font-family="Verdana" font-size="8" text-anchor="middle"  dominant-baseline="middle" fill="black" > 485</text>
<circle cx="1882" cy="469" r="4" fill="white" stroke="black" />
<line x1="1882" y1="473" x2="1882" y2="500" stroke="black" />
<line x1="1878" y1="496" x2="1886" y2="504" stroke="red" />
<line x1="1878" y1="504" x2="1886" y2="496" stroke="red" />
<text x="1882" y="512" font-family="Verdana" font-size="8" text-anchor="middle"  dominant-baseline="middle" fill="black" > 485</text>
<circle cx="1950" cy="157" r="4" fill="white" stroke="black" />
<line x1="1950" y1="161" x2="1950" y2="439" stroke="black" />
<line x1="1925" y1="439" x2="1975" y2="439" stroke="black" />
<text x="1962" y="431" font-family="Verdana" font-size="8" text-anchor="middle"  dominant-baseline="middle" fill="black" > 424</text>
<circle cx="1925" cy="439" r="4" fill="white" stroke="black" />
<circle cx="1975" cy="439" r="4" fill="white" stroke="black" />
<line x1="1925" y1="443" x2="1925" y2="565" stroke="black" />
<line x1="1925" y1="565" x2="1950" y2="607" stroke="black" />
<line x1="1975" y1="443" x2="1975" y2="565" stroke="black" />
<line x1="1975" y1="565" x2="1950" y2="607" stroke="black" />
<text x="1950" y="595" font-family="Verdana" font-size="8" text-anchor="middle"  dominant-baseline="middle" fill="black" > 592</text>
<circle cx="1950" cy="607" r="4" fill="white" stroke="black" />
<line x1="1950" y1="611" x2="1950" y2="670" stroke="black" />
<line x1="1933" y1="670" x2="1967" y2="670" stroke="black" />
<text x="1954" y="662" font-family="Verdana" font-size="8" text-anchor="middle"  dominant-baseline="middle" fill="black" > 655</text>
<circle cx="1933" cy="670" r="4" fill="white" stroke="black" />
<circle cx="1949" cy="670" r="4" fill="white" stroke="black" />
<line x1="1933" y1="674" x2="1933" y2="693" stroke="black" />
<line x1="1933" y1="693" x2="1941" y2="700" stroke="black" />
<line x1="1949" y1="674" x2="1949" y2="693" stroke="black" />
<line x1="1949" y1="693" x2="1941" y2="700" stroke="black" />
<text x="1941" y="688" font-family="Verdana" font-size="8" text-anchor="middle"  dominant-baseline="middle" fill="black" > 685</text>
<circle cx="1941" cy="700" r="4" fill="white" stroke="black" />
<circle cx="1965" cy="670" r="4" fill="white" stroke="black" />
<line x1="1941" y1="704" x2="1941" y2="706" stroke="black" />
<line x1="1941" y1="706" x2="1953" y2="707" stroke="black" />
<line x1="1965" y1="674" x2="1965" y2="706" stroke="black" />
<line x1="1965" y1="706" x2="1953" y2="707" stroke="black" />
<text x="1953" y="695" font-family="Verdana" font-size="8" text-anchor="middle"  dominant-baseline="middle" fill="black" > 692</text>
<circle cx="1953" cy="707" r="4" fill="white" stroke="black" />
<line x1="1953" y1="711" x2="1953" y2="736" stroke="black" />
<circle cx="1953" cy="736" r="4" fill="white" stroke="black" />
<text x="1953" y="748" font-family="Verdana" font-size="8" text-anchor="middle"  dominant-baseline="middle" fill="black" > 721</text>
<text x="2100" y="7" font-family="Verdana" font-size="7" text-anchor="middle"  dominant-baseline="middle" fill="black" > C11</text>
<circle cx="2100" cy="15" r="4" fill="white" stroke="black" />
<line x1="2100" y1="19" x2="2100" y2="230" stroke="black" />
<line x1="2050" y1="230" x2="2150" y2="230" stroke="black" />
<text x="2125" y="222" font-family="Verdana" font-size="8" text-anchor="middle"  dominant-baseline="middle" fill="black" > 215</text>
<circle cx="2050" cy="230" r="4" fill="white" stroke="black" />
<line x1="2050" y1="234" x2="2050" y2="681" stroke="black" />
<line x1="2046" y1="677" x2="2054" y2="685" stroke="red" />
<line x1="2046" y1="685" x2="2054" y2="677" stroke="red" />
<text x="2050" y="693" font-family="Verdana" font-size="8" text-anchor="middle"  dominant-baseline="middle" fill="black" > 666</text>
<circle cx="2150" cy="230" r="4" fill="white" stroke="black" />
<line x1="2150" y1="234" x2="2150" y2="568" stroke="black" />
<line x1="2146" y1="564" x2="2154" y2="572" stroke="red" />
<line x1="2146" y1="572" x2="2154" y2="564" stroke="red" />
<text x="2150" y="580" font-family="Verdana" font-size="8" text-anchor="middle"  dominant-baseline="middle" fill="black" > 553</text>
<text x="2250" y="7" font-family="Verdana" font-size="7" text-anchor="middle"  dominant-baseline="middle" fill="black" > C12</text>
<circle cx="2250" cy="15" r="4" fill="white" stroke="black" />
<line x1="2250" y1="19" x2="2250" y2="21" stroke="black" />
<line x1="2246" y1="25" x2="2250" y2="17" stroke="blue" />
<line x1="2250" y1="25" x2="2254" y2="17" stroke="blue" />
<text x="2250" y="33" font-family="Verdana" font-size="8" text-anchor="middle"  dominant-baseline="middle" fill="black" > 6</text>
</svg>
