<?xml version="1.0" encoding="utf-8"?>
<svg xmlns="http://www.w3.org/2000/svg" version="1.1" width="3150" height="750">
<rect width="3150" height="15" x="0" y="0" fill="white" />
<rect width="3150" height="15" x="0" y="735" fill="white" />
<rect width="25" height="750" x="0" y="0" fill="white" />
<rect width="25" height="750" x="3125" y="0" fill="white" />
<rect width="3110" height="144" x="25" y="15" fill="ghostwhite" />
<rect width="3110" height="144" x="25" y="159" fill="snow" />
<rect width="3110" height="144" x="25" y="303" fill="ghostwhite" />
<rect width="3110" height="144" x="25" y="447" fill="snow" />
<rect width="3110" height="144" x="25" y="591" fill="ghostwhite" />
<text x="12" y="87" font-family="Verdana" font-size="10" text-anchor="middle"  dominant-baseline="middle" fill="red" > D0</text>
<text x="12" y="231" font-family="Verdana" font-size="10" text-anchor="middle"  dominant-baseline="middle" fill="red" > D1</text>
<text x="12" y="375" font-family="Verdana" font-size="10" text-anchor="middle"  dominant-baseline="middle" fill="red" > D2</text>
<text x="12" y="519" font-family="Verdana" font-size="10" text-anchor="middle"  dominant-baseline="middle" fill="red" > D3</text>
<text x="12" y="663" font-family="Verdana" font-size="10" text-anchor="middle"  dominant-baseline="middle" fill="red" > D4</text>
<text x="12" y="20" font-family="Verdana" font-size="10" text-anchor="middle"  dominant-baseline="middle" fill="black" > 0</text>
<text x="12" y="164" font-family="Verdana" font-size="10" text-anchor="middle"  dominant-baseline="middle" fill="black" > 144</text>
<text x="12" y="308" font-family="Verdana" font-size="10" text-anchor="middle"  dominant-baseline="middle" fill="black" > 288</text>
<text x="12" y="452" font-family="Verdana" font-size="10" text-anchor="middle"  dominant-baseline="middle" fill="black" > 432</text>
<text x="12" y="596" font-family="Verdana" font-size="10" text-anchor="middle"  dominant-baseline="middle" fill="black" > 576</text>
<text x="12" y="740" font-family="Verdana" font-size="10" text-anchor="middle"  dominant-baseline="middle" fill="black" > 720</text>
<text x="50" y="7" font-family="Verdana" font-size="7" text-anchor="middle"  dominant-baseline="middle" fill="black" > C1</text>
<circle cx="50" cy="15" r="4" fill="white" stroke="black" />
<line x1="50" y1="19" x2="50" y2="91" stroke="black" />
<line x1="46" y1="95" x2="50" y2="87" stroke="blue" />
<line x1="50" y1="95" x2="54" y2="87" stroke="blue" />
<text x="50" y="103" font-family="Verdana" font-size="8" text-anchor="middle"  dominant-baseline="middle" fill="black" > 76</text>
<text x="200" y="7" font-family="Verdana" font-size="7" text-anchor="middle"  dominant-baseline="middle" fill="black" > C2</text>
<circle cx="200" cy="15" r="4" fill="white" stroke="black" />
<line x1="200" y1="19" x2="200" y2="157" stroke="black" />
<line x1="150" y1="157" x2="250" y2="157" stroke="black" />
<text x="225" y="149" font-family="Verdana" font-size="8" text-anchor="middle"  dominant-baseline="middle" fill="black" > 142</text>
<circle cx="150" cy="157" r="4" fill="white" stroke="black" />
<line x1="150" y1="161" x2="150" y2="370" stroke="black" />
<line x1="146" y1="374" x2="150" y2="366" stroke="blue" />
<line x1="150" y1="374" x2="154" y2="366" stroke="blue" />
<text x="150" y="382" font-family="Verdana" font-size="8" text-anchor="middle"  dominant-baseline="middle" fill="black" > 355</text>
<circle cx="250" cy="157" r="4" fill="white" stroke="black" />
<line x1="250" y1="161" x2="250" y2="291" stroke="black" />
<line x1="225" y1="291" x2="275" y2="291" stroke="black" />
<text x="262" y="283" font-family="Verdana" font-size="8" text-anchor="middle"  dominant-baseline="middle" fill="black" > 276</text>
<circle cx="225" cy="291" r="4" fill="white" stroke="black" />
<line x1="225" y1="295" x2="225" y2="492" stroke="black" />
<line x1="221" y1="496" x2="225" y2="488" stroke="blue" />
<line x1="225" y1="496" x2="229" y2="488" stroke="blue" />
<text x="225" y="504" font-family="Verdana" font-size="8" text-anchor="middle"  dominant-baseline="middle" fill="black" > 477</text>
<circle cx="275" cy="291" r="4" fill="white" stroke="black" />
<line x1="275" y1="295" x2="275" y2="736" stroke="black" />
<circle cx="275" cy="736" r="4" fill="white" stroke="black" />
<text x="275" y="748" font-family="Verdana" font-size="8" text-anchor="middle"  dominant-baseline="middle" fill="black" > 721</text>
<text x="450" y="7" font-family="Verdana" font-size="7" text-anchor="middle"  dominant-baseline="middle" fill="black" > C3</text>
<circle cx="450" cy="15" r="4" fill="white" stroke="black" />
<line x1="450" y1="19" x2="450" y2="325" stroke="black" />
<line x1="350" y1="325" x2="550" y2="325" stroke="black" />
<text x="475" y="317" font-family="Verdana" font-size="8" text-anchor="middle"  dominant-baseline="middle" fill="black" > 310</text>
<circle cx="350" cy="325" r="4" fill="white" stroke="black" />
<line x1="350" y1="329" x2="350" y2="404" stroke="black" />
<line x1="346" y1="400" x2="354" y2="408" stroke="red" />
<line x1="346" y1="408" x2="354" y2="400" stroke="red" />
<text x="350" y="416" font-family="Verdana" font-size="8" text-anchor="middle"  dominant-baseline="middle" fill="black" > 389</text>
<circle cx="450" cy="325" r="4" fill="white" stroke="black" />
<line x1="450" y1="329" x2="450" y2="405" stroke="black" />
<line x1="446" y1="401" x2="454" y2="409" stroke="red" />
<line x1="446" y1="409" x2="454" y2="401" stroke="red" />
<text x="450" y="417" font-family="Verdana" font-size="8" text-anchor="middle"  dominant-baseline="middle" fill="black" > 390</text>
<circle cx="550" cy="325" r="4" fill="white" stroke="black" />
<line x1="550" y1="329" x2="550" y2="407" stroke="black" />
<line x1="546" y1="403" x2="554" y2="411" stroke="red" />
<line x1="546" y1="411" x2="554" y2="403" stroke="red" />
<text x="550" y="419" font-family="Verdana" font-size="8" text-anchor="middle"  dominant-baseline="middle" fill="black" > 392</text>
<text x="700" y="7" font-family="Verdana" font-size="7" text-anchor="middle"  dominant-baseline="middle" fill="black" > C4</text>
<circle cx="700" cy="15" r="4" fill="white" stroke="black" />
<line x1="700" y1="19" x2="700" y2="20" stroke="black" />
<line x1="650" y1="20" x2="750" y2="20" stroke="black" />
<text x="725" y="12" font-family="Verdana" font-size="8" text-anchor="middle"  dominant-baseline="middle" fill="black" > 5</text>
<circle cx="650" cy="20" r="4" fill="white" stroke="black" />
<circle cx="750" cy="20" r="4" fill="white" stroke="black" />
<text x="850" y="7" font-family="Verdana" font-size="7" text-anchor="middle"  dominant-baseline="middle" fill="black" > C5</text>
<circle cx="850" cy="15" r="4" fill="white" stroke="black" />
<line x1="650" y1="24" x2="650" y2="21" stroke="black" />
<line x1="650" y1="21" x2="750" y2="21" stroke="black" />
<line x1="750" y1="24" x2="750" y2="21" stroke="black" />
<line x1="750" y1="21" x2="750" y2="21" stroke="black" />
<line x1="850" y1="19" x2="850" y2="21" stroke="black" />
<line x1="850" y1="21" x2="750" y2="21" stroke="black" />
<text x="750" y="9" font-family="Verdana" font-size="8" text-anchor="middle"  dominant-baseline="middle" fill="black" > 6</text>
<circle cx="750" cy="21" r="4" fill="white" stroke="black" />
<line x1="750" y1="25" x2="750" y2="323" stroke="black" />
<line x1="683" y1="323" x2="817" y2="323" stroke="black" />
<text x="766" y="315" font-family="Verdana" font-size="8" text-anchor="middle"  dominant-baseline="middle" fill="black" > 308</text>
<circle cx="683" cy="323" r="4" fill="white" stroke="black" />
<circle cx="749" cy="323" r="4" fill="white" stroke="black" />
<line x1="683" y1="327" x2="683" y2="327" stroke="black" />
<line x1="683" y1="327" x2="716" y2="328" stroke="black" />
<line x1="749" y1="327" x2="749" y2="327" stroke="black" />
<line x1="749" y1="327" x2="716" y2="328" stroke="black" />
<text x="716" y="316" font-family="Verdana" font-size="8" text-anchor="middle"  dominant-baseline="middle" fill="black" > 313</text>
<circle cx="716" cy="328" r="4" fill="white" stroke="black" />
<circle cx="815" cy="323" r="4" fill="white" stroke="black" />
<line x1="716" y1="332" x2="716" y2="349" stroke="black" />
<line x1="716" y1="349" x2="765" y2="356" stroke="black" />
<line x1="815" y1="327" x2="815" y2="349" stroke="black" />
<line x1="815" y1="349" x2="765" y2="356" stroke="black" />
<text x="765" y="344" font-family="Verdana" font-size="8" text-anchor="middle"  dominant-baseline="middle" fill="black" > 341</text>
<circle cx="765" cy="356" r="4" fill="white" stroke="black" />
<line x1="765" y1="360" x2="765" y2="497" stroke="black" />
<line x1="761" y1="493" x2="769" y2="501" stroke="red" />
<line x1="761" y1="501" x2="769" y2="493" stroke="red" />
<text x="765" y="509" font-family="Verdana" font-size="8" text-anchor="middle"  dominant-baseline="middle" fill="black" > 482</text>
<text x="1150" y="7" font-family="Verdana" font-size="7" text-anchor="middle"  dominant-baseline="middle" fill="black" > C6</text>
<circle cx="1150" cy="15" r="4" fill="white" stroke="black" />
<line x1="1150" y1="19" x2="1150" y2="367" stroke="black" />
<line x1="950" y1="367" x2="1350" y2="367" stroke="black" />
<text x="1175" y="359" font-family="Verdana" font-size="8" text-anchor="middle"  dominant-baseline="middle" fill="black" > 352</text>
<circle cx="950" cy="367" r="4" fill="white" stroke="black" />
<line x1="950" y1="371" x2="950" y2="375" stroke="black" />
<line x1="946" y1="379" x2="950" y2="371" stroke="blue" />
<line x1="950" y1="379" x2="954" y2="371" stroke="blue" />
<text x="950" y="387" font-family="Verdana" font-size="8" text-anchor="middle"  dominant-baseline="middle" fill="black" > 360</text>
<circle cx="1050" cy="367" r="4" fill="white" stroke="black" />
<circle cx="1150" cy="367" r="4" fill="white" stroke="black" />
<line x1="1050" y1="371" x2="1050" y2="371" stroke="black" />
<line x1="1050" y1="371" x2="1100" y2="372" stroke="black" />
<line x1="1150" y1="371" x2="1150" y2="371" stroke="black" />
<line x1="1150" y1="371" x2="1100" y2="372" stroke="black" />
<text x="1100" y="360" font-family="Verdana" font-size="8" text-anchor="middle"  dominant-baseline="middle" fill="black" > 357</text>
<circle cx="1100" cy="372" r="4" fill="white" stroke="black" />
<circle cx="1250" cy="367" r="4" fill="white" stroke="black" />
<line x1="1100" y1="376" x2="1100" y2="375" stroke="black" />
<line x1="1100" y1="375" x2="1175" y2="375" stroke="black" />
<line x1="1250" y1="371" x2="1250" y2="375" stroke="black" />
<line x1="1250" y1="375" x2="1175" y2="375" stroke="black" />
<text x="1175" y="363" font-family="Verdana" font-size="8" text-anchor="middle"  dominant-baseline="middle" fill="black" > 360</text>
<circle cx="1175" cy="375" r="4" fill="white" stroke="black" />
<circle cx="1350" cy="367" r="4" fill="white" stroke="black" />
<line x1="1175" y1="379" x2="1175" y2="384" stroke="black" />
<line x1="1175" y1="384" x2="1262" y2="386" stroke="black" />
<line x1="1350" y1="371" x2="1350" y2="384" stroke="black" />
<line x1="1350" y1="384" x2="1262" y2="386" stroke="black" />
<text x="1262" y="374" font-family="Verdana" font-size="8" text-anchor="middle"  dominant-baseline="middle" fill="black" > 371</text>
<circle cx="1262" cy="386" r="4" fill="white" stroke="black" />
<line x1="1262" y1="390" x2="1262" y2="507" stroke="black" />
<line x1="1258" y1="503" x2="1266" y2="511" stroke="red" />
<line x1="1258" y1="511" x2="1266" y2="503" stroke="red" />
<text x="1262" y="519" font-family="Verdana" font-size="8" text-anchor="middle"  dominant-baseline="middle" fill="black" > 492</text>
<text x="1500" y="7" font-family="Verdana" font-size="7" text-anchor="middle"  dominant-baseline="middle" fill="black" > C7</text>
<circle cx="1500" cy="15" r="4" fill="white" stroke="black" />
<line x1="1500" y1="19" x2="1500" y2="150" stroke="black" />
<line x1="1450" y1="150" x2="1550" y2="150" stroke="black" />
<text x="1525" y="142" font-family="Verdana" font-size="8" text-anchor="middle"  dominant-baseline="middle" fill="black" > 135</text>
<circle cx="1450" cy="150" r="4" fill="white" stroke="black" />
<line x1="1450" y1="154" x2="1450" y2="260" stroke="black" />
<line x1="1425" y1="260" x2="1475" y2="260" stroke="black" />
<text x="1462" y="252" font-family="Verdana" font-size="8" text-anchor="middle"  dominant-baseline="middle" fill="black" > 245</text>
<circle cx="1425" cy="260" r="4" fill="white" stroke="black" />
<line x1="1425" y1="264" x2="1425" y2="384" stroke="black" />
<line x1="1412" y1="384" x2="1438" y2="384" stroke="black" />
<text x="1431" y="376" font-family="Verdana" font-size="8" text-anchor="middle"  dominant-baseline="middle" fill="black" > 369</text>
<circle cx="1412" cy="384" r="4" fill="white" stroke="black" />
<line x1="1412" y1="388" x2="1412" y2="736" stroke="black" />
<circle cx="1412" cy="736" r="4" fill="white" stroke="black" />
<text x="1412" y="748" font-family="Verdana" font-size="8" text-anchor="middle"  dominant-baseline="middle" fill="black" > 721</text>
<circle cx="1437" cy="384" r="4" fill="white" stroke="black" />
<line x1="1437" y1="388" x2="1437" y2="546" stroke="black" />
<line x1="1431" y1="546" x2="1444" y2="546" stroke="black" />
<text x="1440" y="538" font-family="Verdana" font-size="8" text-anchor="middle"  dominant-baseline="middle" fill="black" > 531</text>
<circle cx="1431" cy="546" r="4" fill="white" stroke="black" />
<line x1="1431" y1="550" x2="1431" y2="584" stroke="black" />
<line x1="1427" y1="580" x2="1435" y2="588" stroke="red" />
<line x1="1427" y1="588" x2="1435" y2="580" stroke="red" />
<text x="1431" y="596" font-family="Verdana" font-size="8" text-anchor="middle"  dominant-baseline="middle" fill="black" > 569</text>
<circle cx="1443" cy="546" r="4" fill="white" stroke="black" />
<line x1="1443" y1="550" x2="1443" y2="583" stroke="black" />
<line x1="1439" y1="579" x2="1447" y2="587" stroke="red" />
<line x1="1439" y1="587" x2="1447" y2="579" stroke="red" />
<text x="1443" y="595" font-family="Verdana" font-size="8" text-anchor="middle"  dominant-baseline="middle" fill="black" > 568</text>
<circle cx="1475" cy="260" r="4" fill="white" stroke="black" />
<circle cx="1550" cy="150" r="4" fill="white" stroke="black" />
<line x1="1475" y1="264" x2="1475" y2="325" stroke="black" />
<line x1="1475" y1="325" x2="1512" y2="346" stroke="black" />
<line x1="1550" y1="154" x2="1550" y2="325" stroke="black" />
<line x1="1550" y1="325" x2="1512" y2="346" stroke="black" />
<text x="1512" y="334" font-family="Verdana" font-size="8" text-anchor="middle"  dominant-baseline="middle" fill="black" > 331</text>
<circle cx="1512" cy="346" r="4" fill="white" stroke="black" />
<line x1="1512" y1="350" x2="1512" y2="376" stroke="black" />
<line x1="1482" y1="376" x2="1543" y2="376" stroke="black" />
<text x="1515" y="368" font-family="Verdana" font-size="8" text-anchor="middle"  dominant-baseline="middle" fill="black" > 361</text>
<circle cx="1482" cy="376" r="4" fill="white" stroke="black" />
<circle cx="1497" cy="376" r="4" fill="white" stroke="black" />
<line x1="1482" y1="380" x2="1482" y2="387" stroke="black" />
<line x1="1482" y1="387" x2="1489" y2="390" stroke="black" />
<line x1="1497" y1="380" x2="1497" y2="387" stroke="black" />
<line x1="1497" y1="387" x2="1489" y2="390" stroke="black" />
<text x="1489" y="378" font-family="Verdana" font-size="8" text-anchor="middle"  dominant-baseline="middle" fill="black" > 375</text>
<circle cx="1489" cy="390" r="4" fill="white" stroke="black" />
<circle cx="1512" cy="376" r="4" fill="white" stroke="black" />
<line x1="1489" y1="394" x2="1489" y2="392" stroke="black" />
<line x1="1489" y1="392" x2="1500" y2="392" stroke="black" />
<line x1="1512" y1="380" x2="1512" y2="392" stroke="black" />
<line x1="1512" y1="392" x2="1500" y2="392" stroke="black" />
<text x="1500" y="380" font-family="Verdana" font-size="8" text-anchor="middle"  dominant-baseline="middle" fill="black" > 377</text>
<circle cx="1500" cy="392" r="4" fill="white" stroke="black" />
<circle cx="1527" cy="376" r="4" fill="white" stroke="black" />
<line x1="1500" y1="396" x2="1500" y2="398" stroke="black" />
<line x1="1500" y1="398" x2="1513" y2="399" stroke="black" />
<line x1="1527" y1="380" x2="1527" y2="398" stroke="black" />
<line x1="1527" y1="398" x2="1513" y2="399" stroke="black" />
<text x="1513" y="387" font-family="Verdana" font-size="8" text-anchor="middle"  dominant-baseline="middle" fill="black" > 384</text>
<circle cx="1513" cy="399" r="4" fill="white" stroke="black" />
<line x1="1513" y1="403" x2="1513" y2="460" stroke="black" />
<line x1="1509" y1="456" x2="1517" y2="464" stroke="red" />
<line x1="1509" y1="464" x2="1517" y2="456" stroke="red" />
<text x="1513" y="472" font-family="Verdana" font-size="8" text-anchor="middle"  dominant-baseline="middle" fill="black" > 445</text>
<circle cx="1542" cy="376" r="4" fill="white" stroke="black" />
<line x1="1542" y1="380" x2="1542" y2="464" stroke="black" />
<line x1="1538" y1="460" x2="1546" y2="468" stroke="red" />
<line x1="1538" y1="468" x2="1546" y2="460" stroke="red" />
<text x="1542" y="476" font-family="Verdana" font-size="8" text-anchor="middle"  dominant-baseline="middle" fill="black" > 449</text>
<text x="1700" y="7" font-family="Verdana" font-size="7" text-anchor="middle"  dominant-baseline="middle" fill="black" > C8</text>
<circle cx="1700" cy="15" r="4" fill="white" stroke="black" />
<line x1="1700" y1="19" x2="1700" y2="164" stroke="black" />
<line x1="1650" y1="164" x2="1750" y2="164" stroke="black" />
<text x="1725" y="156" font-family="Verdana" font-size="8" text-anchor="middle"  dominant-baseline="middle" fill="black" > 149</text>
<circle cx="1650" cy="164" r="4" fill="white" stroke="black" />
<line x1="1650" y1="168" x2="1650" y2="518" stroke="black" />
<line x1="1646" y1="514" x2="1654" y2="522" stroke="red" />
<line x1="1646" y1="522" x2="1654" y2="514" stroke="red" />
<text x="1650" y="530" font-family="Verdana" font-size="8" text-anchor="middle"  dominant-baseline="middle" fill="black" > 503</text>
<circle cx="1750" cy="164" r="4" fill="white" stroke="black" />
<line x1="1750" y1="168" x2="1750" y2="510" stroke="black" />
<line x1="1746" y1="514" x2="1750" y2="506" stroke="blue" />
<line x1="1750" y1="514" x2="1754" y2="506" stroke="blue" />
<text x="1750" y="522" font-family="Verdana" font-size="8" text-anchor="middle"  dominant-baseline="middle" fill="black" > 495</text>
<text x="1850" y="7" font-family="Verdana" font-size="7" text-anchor="middle"  dominant-baseline="middle" fill="black" > C9</text>
<circle cx="1850" cy="15" r="4" fill="white" stroke="black" />
<line x1="1850" y1="19" x2="1850" y2="322" stroke="black" />
<line x1="1846" y1="318" x2="1854" y2="326" stroke="red" />
<line x1="1846" y1="326" x2="1854" y2="318" stroke="red" />
<text x="1850" y="334" font-family="Verdana" font-size="8" text-anchor="middle"  dominant-baseline="middle" fill="black" > 307</text>
<text x="2000" y="7" font-family="Verdana" font-size="7" text-anchor="middle"  dominant-baseline="middle" fill="black" > C10</text>
<circle cx="2000" cy="15" r="4" fill="white" stroke="black" />
<line x1="2000" y1="19" x2="2000" y2="362" stroke="black" />
<line x1="1950" y1="362" x2="2050" y2="362" stroke="black" />
<text x="2025" y="354" font-family="Verdana" font-size="8" text-anchor="middle"  dominant-baseline="middle" fill="black" > 347</text>
<circle cx="1950" cy="362" r="4" fill="white" stroke="black" />
<line x1="1950" y1="366" x2="1950" y2="441" stroke="black" />
<line x1="1946" y1="437" x2="1954" y2="445" stroke="red" />
<line x1="1946" y1="445" x2="1954" y2="437" stroke="red" />
<text x="1950" y="453" font-family="Verdana" font-size="8" text-anchor="middle"  dominant-baseline="middle" fill="black" > 426</text>
<circle cx="2050" cy="362" r="4" fill="white" stroke="black" />
<line x1="2050" y1="366" x2="2050" y2="429" stroke="black" />
<line x1="2046" y1="425" x2="2054" y2="433" stroke="red" />
<line x1="2046" y1="433" x2="2054" y2="425" stroke="red" />
<text x="2050" y="441" font-family="Verdana" font-size="8" text-anchor="middle"  dominant-baseline="middle" fill="black" > 414</text>
<text x="2150" y="7" font-family="Verdana" font-size="7" text-anchor="middle"  dominant-baseline="middle" fill="black" > C11</text>
<circle cx="2150" cy="15" r="4" fill="white" stroke="black" />
<line x1="2150" y1="19" x2="2150" y2="42" stroke="black" />
<line x1="2146" y1="38" x2="2154" y2="46" stroke="red" />
<line x1="2146" y1="46" x2="2154" y2="38" stroke="red" />
<text x="2150" y="54" font-family="Verdana" font-size="8" text-anchor="middle"  dominant-baseline="middle" fill="black" > 27</text>
<text x="2350" y="7" font-family="Verdana" font-size="7" text-anchor="middle"  dominant-baseline="middle" fill="black" > C12</text>
<circle cx="2350" cy="15" r="4" fill="white" stroke="black" />
<line x1="2350" y1="19" x2="2350" y2="335" stroke="black" />
<line x1="2250" y1="335" x2="2450" y2="335" stroke="black" />
<text x="2375" y="327" font-family="Verdana" font-size="8" text-anchor="middle"  dominant-baseline="middle" fill="black" > 320</text>
<circle cx="2250" cy="335" r="4" fill="white" stroke="black" />
<circle cx="2350" cy="335" r="4" fill="white" stroke="black" />
<line x1="2250" y1="339" x2="2250" y2="341" stroke="black" />
<line x1="2250" y1="341" x2="2300" y2="342" stroke="black" />
<line x1="2350" y1="339" x2="2350" y2="341" stroke="black" />
<line x1="2350" y1="341" x2="2300" y2="342" stroke="black" />
<text x="2300" y="330" font-family="Verdana" font-size="8" text-anchor="middle"  dominant-baseline="middle" fill="black" > 327</text>
<circle cx="2300" cy="342" r="4" fill="white" stroke="black" />
<line x1="2300" y1="346" x2="2300" y2="496" stroke="black" />
<line x1="2296" y1="492" x2="2304" y2="500" stroke="red" />
<line x1="2296" y1="500" x2="2304" y2="492" stroke="red" />
<text x="2300" y="508" font-family="Verdana" font-size="8" text-anchor="middle"  dominant-baseline="middle" fill="black" > 481</text>
<circle cx="2450" cy="335" r="4" fill="white" stroke="black" />
<line x1="2450" y1="339" x2="2450" y2="470" stroke="black" />
<line x1="2446" y1="466" x2="2454" y2="474" stroke="red" />
<line x1="2446" y1="474" x2="2454" y2="466" stroke="red" />
<text x="2450" y="482" font-family="Verdana" font-size="8" text-anchor="middle"  dominant-baseline="middle" fill="black" > 455</text>
<text x="2550" y="7" font-family="Verdana" font-size="7" text-anchor="middle"  dominant-baseline="middle" fill="black" > C13</text>
<circle cx="2550" cy="15" r="4" fill="white" stroke="black" />
<line x1="2550" y1="19" x2="2550" y2="408" stroke="black" />
<line x1="2546" y1="404" x2="2554" y2="412" stroke="red" />
<line x1="2546" y1="412" x2="2554" y2="404" stroke="red" />
<text x="2550" y="420" font-family="Verdana" font-size="8" text-anchor="middle"  dominant-baseline="middle" fill="black" > 393</text>
<text x="2650" y="7" font-family="Verdana" font-size="7" text-anchor="middle"  dominant-baseline="middle" fill="black" > C14</text>
<circle cx="2650" cy="15" r="4" fill="white" stroke="black" />
<line x1="2650" y1="19" x2="2650" y2="268" stroke="black" />
<line x1="2646" y1="264" x2="2654" y2="272" stroke="red" />
<line x1="2646" y1="272" x2="2654" y2="264" stroke="red" />
<text x="2650" y="280" font-family="Verdana" font-size="8" text-anchor="middle"  dominant-baseline="middle" fill="black" > 253</text>
<text x="2850" y="7" font-family="Verdana" font-size="7" text-anchor="middle"  dominant-baseline="middle" fill="black" > C15</text>
<circle cx="2850" cy="15" r="4" fill="white" stroke="black" />
<line x1="2850" y1="19" x2="2850" y2="344" stroke="black" />
<line x1="2750" y1="344" x2="2950" y2="344" stroke="black" />
<text x="2875" y="336" font-family="Verdana" font-size="8" text-anchor="middle"  dominant-baseline="middle" fill="black" > 329</text>
<circle cx="2750" cy="344" r="4" fill="white" stroke="black" />
<line x1="2750" y1="348" x2="2750" y2="358" stroke="black" />
<line x1="2746" y1="354" x2="2754" y2="362" stroke="red" />
<line x1="2746" y1="362" x2="2754" y2="354" stroke="red" />
<text x="2750" y="370" font-family="Verdana" font-size="8" text-anchor="middle"  dominant-baseline="middle" fill="black" > 343</text>
<circle cx="2850" cy="344" r="4" fill="white" stroke="black" />
<circle cx="2950" cy="344" r="4" fill="white" stroke="black" />
<line x1="2850" y1="348" x2="2850" y2="353" stroke="black" />
<line x1="2850" y1="353" x2="2900" y2="355" stroke="black" />
<line x1="2950" y1="348" x2="2950" y2="353" stroke="black" />
<line x1="2950" y1="353" x2="2900" y2="355" stroke="black" />
<text x="2900" y="343" font-family="Verdana" font-size="8" text-anchor="middle"  dominant-baseline="middle" fill="black" > 340</text>
<circle cx="2900" cy="355" r="4" fill="white" stroke="black" />
<line x1="2900" y1="359" x2="2900" y2="357" stroke="black" />
<line x1="2896" y1="353" x2="2904" y2="361" stroke="red" />
<line x1="2896" y1="361" x2="2904" y2="353" stroke="red" />
<text x="2900" y="369" font-family="Verdana" font-size="8" text-anchor="middle"  dominant-baseline="middle" fill="black" > 342</text>
<text x="3050" y="7" font-family="Verdana" font-size="7" text-anchor="middle"  dominant-baseline="middle" fill="black" > C16</text>
<circle cx="3050" cy="15" r="4" fill="white" stroke="black" />
<line x1="3050" y1="19" x2="3050" y2="138" stroke="black" />
<line x1="3046" y1="134" x2="3054" y2="142" stroke="red" />
<line x1="3046" y1="142" x2="3054" y2="134" stroke="red" />
<text x="3050" y="150" font-family="Verdana" font-size="8" text-anchor="middle"  dominant-baseline="middle" fill="black" > 123</text>
</svg>
