<?xml version="1.0" encoding="utf-8"?>
<svg xmlns="http://www.w3.org/2000/svg" version="1.1" width="2050" height="750">
<rect width="2050" height="15" x="0" y="0" fill="white" />
<rect width="2050" height="15" x="0" y="735" fill="white" />
<rect width="25" height="750" x="0" y="0" fill="white" />
<rect width="25" height="750" x="2025" y="0" fill="white" />
<rect width="2010" height="144" x="25" y="15" fill="ghostwhite" />
<rect width="2010" height="144" x="25" y="159" fill="snow" />
<rect width="2010" height="144" x="25" y="303" fill="ghostwhite" />
<rect width="2010" height="144" x="25" y="447" fill="snow" />
<rect width="2010" height="144" x="25" y="591" fill="ghostwhite" />
<text x="12" y="87" font-family="Verdana" font-size="10" text-anchor="middle"  dominant-baseline="middle" fill="red" > D0</text>
<text x="12" y="231" font-family="Verdana" font-size="10" text-anchor="middle"  dominant-baseline="middle" fill="red" > D1</text>
<text x="12" y="375" font-family="Verdana" font-size="10" text-anchor="middle"  dominant-baseline="middle" fill="red" > D2</text>
<text x="12" y="519" font-family="Verdana" font-size="10" text-anchor="middle"  dominant-baseline="middle" fill="red" > D3</text>
<text x="12" y="663" font-family="Verdana" font-size="10" text-anchor="middle"  dominant-baseline="middle" fill="red" > D4</text>
<text x="12" y="20" font-family="Verdana" font-size="10" text-anchor="middle"  dominant-baseline="middle" fill="black" > 0</text>
<text x="12" y="164" font-family="Verdana" font-size="10" text-anchor="middle"  dominant-baseline="middle" fill="black" > 144</text>
<text x="12" y="308" font-family="Verdana" font-size="10" text-anchor="middle"  dominant-baseline="middle" fill="black" > 288</text>
<text x="12" y="452" font-family="Verdana" font-size="10" text-anchor="middle"  dominant-baseline="middle" fill="black" > 432</text>
<text x="12" y="596" font-family="Verdana" font-size="10" text-anchor="middle"  dominant-baseline="middle" fill="black" > 576</text>
<text x="12" y="740" font-family="Verdana" font-size="10" text-anchor="middle"  dominant-baseline="middle" fill="black" > 720</text>
<text x="50" y="7" font-family="Verdana" font-size="7" text-anchor="middle"  dominant-baseline="middle" fill="black" > C1</text>
<circle cx="50" cy="15" r="4" fill="white" stroke="black" />
<line x1="50" y1="19" x2="50" y2="116" stroke="black" />
<line x1="46" y1="112" x2="54" y2="120" stroke="red" />
<line x1="46" y1="120" x2="54" y2="112" stroke="red" />
<text x="50" y="128" font-family="Verdana" font-size="8" text-anchor="middle"  dominant-baseline="middle" fill="black" > 101</text>
<text x="150" y="7" font-family="Verdana" font-size="7" text-anchor="middle"  dominant-baseline="middle" fill="black" > C2</text>
<circle cx="150" cy="15" r="4" fill="white" stroke="black" />
<line x1="150" y1="19" x2="150" y2="84" stroke="black" />
<line x1="146" y1="80" x2="154" y2="88" stroke="red" />
<line x1="146" y1="88" x2="154" y2="80" stroke="red" />
<text x="150" y="96" font-family="Verdana" font-size="8" text-anchor="middle"  dominant-baseline="middle" fill="black" > 69</text>
<text x="300" y="7" font-family="Verdana" font-size="7" text-anchor="middle"  dominant-baseline="middle" fill="black" > C3</text>
<circle cx="300" cy="15" r="4" fill="white" stroke="black" />
<line x1="300" y1="19" x2="300" y2="174" stroke="black" />
<line x1="250" y1="174" x2="350" y2="174" stroke="black" />
<text x="325" y="166" font-family="Verdana" font-size="8" text-anchor="middle"  dominant-baseline="middle" fill="black" > 159</text>
<circle cx="250" cy="174" r="4" fill="white" stroke="black" />
<line x1="250" y1="178" x2="250" y2="413" stroke="black" />
<line x1="246" y1="409" x2="254" y2="417" stroke="red" />
<line x1="246" y1="417" x2="254" y2="409" stroke="red" />
<text x="250" y="425" font-family="Verdana" font-size="8" text-anchor="middle"  dominant-baseline="middle" fill="black" > 398</text>
<circle cx="350" cy="174" r="4" fill="white" stroke="black" />
<line x1="350" y1="178" x2="350" y2="383" stroke="black" />
<line x1="325" y1="383" x2="375" y2="383" stroke="black" />
<text x="362" y="375" font-family="Verdana" font-size="8" text-anchor="middle"  dominant-baseline="middle" fill="black" > 368</text>
<circle cx="325" cy="383" r="4" fill="white" stroke="black" />
<line x1="325" y1="387" x2="325" y2="598" stroke="black" />
<line x1="312" y1="598" x2="338" y2="598" stroke="black" />
<text x="331" y="590" font-family="Verdana" font-size="8" text-anchor="middle"  dominant-baseline="middle" fill="black" > 583</text>
<circle cx="312" cy="598" r="4" fill="white" stroke="black" />
<line x1="312" y1="602" x2="312" y2="736" stroke="black" />
<circle cx="312" cy="736" r="4" fill="white" stroke="black" />
<text x="312" y="748" font-family="Verdana" font-size="8" text-anchor="middle"  dominant-baseline="middle" fill="black" > 721</text>
<circle cx="337" cy="598" r="4" fill="white" stroke="black" />
<line x1="337" y1="602" x2="337" y2="736" stroke="black" />
<circle cx="337" cy="736" r="4" fill="white" stroke="black" />
<text x="337" y="748" font-family="Verdana" font-size="8" text-anchor="middle"  dominant-baseline="middle" fill="black" > 721</text>
<circle cx="375" cy="383" r="4" fill="white" stroke="black" />
<line x1="375" y1="387" x2="375" y2="586" stroke="black" />
<line x1="362" y1="586" x2="388" y2="586" stroke="black" />
<text x="381" y="578" font-family="Verdana" font-size="8" text-anchor="middle"  dominant-baseline="middle" fill="black" > 571</text>
<circle cx="362" cy="586" r="4" fill="white" stroke="black" />
<line x1="362" y1="590" x2="362" y2="736" stroke="black" />
<circle cx="362" cy="736" r="4" fill="white" stroke="black" />
<text x="362" y="748" font-family="Verdana" font-size="8" text-anchor="middle"  dominant-baseline="middle" fill="black" > 721</text>
<circle cx="387" cy="586" r="4" fill="white" stroke="black" />
<line x1="387" y1="590" x2="387" y2="736" stroke="black" />
<circle cx="387" cy="736" r="4" fill="white" stroke="black" />
<text x="387" y="748" font-family="Verdana" font-size="8" text-anchor="middle"  dominant-baseline="middle" fill="black" > 721</text>
<text x="500" y="7" font-family="Verdana" font-size="7" text-anchor="middle"  dominant-baseline="middle" fill="black" > C4</text>
<circle cx="500" cy="15" r="4" fill="white" stroke="black" />
<line x1="500" y1="19" x2="500" y2="169" stroke="black" />
<line x1="450" y1="169" x2="550" y2="169" stroke="black" />
<text x="525" y="161" font-family="Verdana" font-size="8" text-anchor="middle"  dominant-baseline="middle" fill="black" > 154</text>
<circle cx="450" cy="169" r="4" fill="white" stroke="black" />
<line x1="450" y1="173" x2="450" y2="682" stroke="black" />
<line x1="446" y1="678" x2="454" y2="686" stroke="red" />
<line x1="446" y1="686" x2="454" y2="678" stroke="red" />
<text x="450" y="694" font-family="Verdana" font-size="8" text-anchor="middle"  dominant-baseline="middle" fill="black" > 667</text>
<circle cx="550" cy="169" r="4" fill="white" stroke="black" />
<line x1="550" y1="173" x2="550" y2="598" stroke="black" />
<line x1="546" y1="594" x2="554" y2="602" stroke="red" />
<line x1="546" y1="602" x2="554" y2="594" stroke="red" />
<text x="550" y="610" font-family="Verdana" font-size="8" text-anchor="middle"  dominant-baseline="middle" fill="black" > 583</text>
<text x="800" y="7" font-family="Verdana" font-size="7" text-anchor="middle"  dominant-baseline="middle" fill="black" > C5</text>
<circle cx="800" cy="15" r="4" fill="white" stroke="black" />
<line x1="800" y1="19" x2="800" y2="372" stroke="black" />
<line x1="650" y1="372" x2="950" y2="372" stroke="black" />
<text x="825" y="364" font-family="Verdana" font-size="8" text-anchor="middle"  dominant-baseline="middle" fill="black" > 357</text>
<circle cx="650" cy="372" r="4" fill="white" stroke="black" />
<circle cx="750" cy="372" r="4" fill="white" stroke="black" />
<line x1="650" y1="376" x2="650" y2="411" stroke="black" />
<line x1="650" y1="411" x2="700" y2="424" stroke="black" />
<line x1="750" y1="376" x2="750" y2="411" stroke="black" />
<line x1="750" y1="411" x2="700" y2="424" stroke="black" />
<text x="700" y="412" font-family="Verdana" font-size="8" text-anchor="middle"  dominant-baseline="middle" fill="black" > 409</text>
<circle cx="700" cy="424" r="4" fill="white" stroke="black" />
<line x1="700" y1="428" x2="700" y2="485" stroke="black" />
<line x1="696" y1="481" x2="704" y2="489" stroke="red" />
<line x1="696" y1="489" x2="704" y2="481" stroke="red" />
<text x="700" y="497" font-family="Verdana" font-size="8" text-anchor="middle"  dominant-baseline="middle" fill="black" > 470</text>
<circle cx="850" cy="372" r="4" fill="white" stroke="black" />
<circle cx="950" cy="372" r="4" fill="white" stroke="black" />
<line x1="850" y1="376" x2="850" y2="402" stroke="black" />
<line x1="850" y1="402" x2="900" y2="412" stroke="black" />
<line x1="950" y1="376" x2="950" y2="402" stroke="black" />
<line x1="950" y1="402" x2="900" y2="412" stroke="black" />
<text x="900" y="400" font-family="Verdana" font-size="8" text-anchor="middle"  dominant-baseline="middle" fill="black" > 397</text>
<circle cx="900" cy="412" r="4" fill="white" stroke="black" />
<line x1="900" y1="416" x2="900" y2="481" stroke="black" />
<line x1="896" y1="477" x2="904" y2="485" stroke="red" />
<line x1="896" y1="485" x2="904" y2="477" stroke="red" />
<text x="900" y="493" font-family="Verdana" font-size="8" text-anchor="middle"  dominant-baseline="middle" fill="black" > 466</text>
<text x="1150" y="7" font-family="Verdana" font-size="7" text-anchor="middle"  dominant-baseline="middle" fill="black" > C6</text>
<circle cx="1150" cy="15" r="4" fill="white" stroke="black" />
<line x1="1150" y1="19" x2="1150" y2="393" stroke="black" />
<line x1="1050" y1="393" x2="1250" y2="393" stroke="black" />
<text x="1175" y="385" font-family="Verdana" font-size="8" text-anchor="middle"  dominant-baseline="middle" fill="black" > 378</text>
<circle cx="1050" cy="393" r="4" fill="white" stroke="black" />
<circle cx="1150" cy="393" r="4" fill="white" stroke="black" />
<line x1="1050" y1="397" x2="1050" y2="407" stroke="black" />
<line x1="1050" y1="407" x2="1100" y2="411" stroke="black" />
<line x1="1150" y1="397" x2="1150" y2="407" stroke="black" />
<line x1="1150" y1="407" x2="1100" y2="411" stroke="black" />
<text x="1100" y="399" font-family="Verdana" font-size="8" text-anchor="middle"  dominant-baseline="middle" fill="black" > 396</text>
<circle cx="1100" cy="411" r="4" fill="white" stroke="black" />
<circle cx="1250" cy="393" r="4" fill="white" stroke="black" />
<line x1="1100" y1="415" x2="1100" y2="435" stroke="black" />
<line x1="1100" y1="435" x2="1175" y2="442" stroke="black" />
<line x1="1250" y1="397" x2="1250" y2="435" stroke="black" />
<line x1="1250" y1="435" x2="1175" y2="442" stroke="black" />
<text x="1175" y="430" font-family="Verdana" font-size="8" text-anchor="middle"  dominant-baseline="middle" fill="black" > 427</text>
<circle cx="1175" cy="442" r="4" fill="white" stroke="black" />
<line x1="1175" y1="446" x2="1175" y2="447" stroke="black" />
<line x1="1171" y1="443" x2="1179" y2="451" stroke="red" />
<line x1="1171" y1="451" x2="1179" y2="443" stroke="red" />
<text x="1175" y="459" font-family="Verdana" font-size="8" text-anchor="middle"  dominant-baseline="middle" fill="black" > 432</text>
<text x="1400" y="7" font-family="Verdana" font-size="7" text-anchor="middle"  dominant-baseline="middle" fill="black" > C7</text>
<circle cx="1400" cy="15" r="4" fill="white" stroke="black" />
<line x1="1400" y1="19" x2="1400" y2="451" stroke="black" />
<line x1="1350" y1="451" x2="1450" y2="451" stroke="black" />
<text x="1425" y="443" font-family="Verdana" font-size="8" text-anchor="middle"  dominant-baseline="middle" fill="black" > 436</text>
<circle cx="1350" cy="451" r="4" fill="white" stroke="black" />
<circle cx="1450" cy="451" r="4" fill="white" stroke="black" />
<line x1="1350" y1="455" x2="1350" y2="522" stroke="black" />
<line x1="1350" y1="522" x2="1400" y2="545" stroke="black" />
<line x1="1450" y1="455" x2="1450" y2="522" stroke="black" />
<line x1="1450" y1="522" x2="1400" y2="545" stroke="black" />
<text x="1400" y="533" font-family="Verdana" font-size="8" text-anchor="middle"  dominant-baseline="middle" fill="black" > 530</text>
<circle cx="1400" cy="545" r="4" fill="white" stroke="black" />
<line x1="1400" y1="549" x2="1400" y2="557" stroke="black" />
<line x1="1396" y1="561" x2="1400" y2="553" stroke="blue" />
<line x1="1400" y1="561" x2="1404" y2="553" stroke="blue" />
<text x="1400" y="569" font-family="Verdana" font-size="8" text-anchor="middle"  dominant-baseline="middle" fill="black" > 542</text>
<text x="1550" y="7" font-family="Verdana" font-size="7" text-anchor="middle"  dominant-baseline="middle" fill="black" > C8</text>
<circle cx="1550" cy="15" r="4" fill="white" stroke="black" />
<line x1="1550" y1="19" x2="1550" y2="554" stroke="black" />
<line x1="1546" y1="558" x2="1550" y2="550" stroke="blue" />
<line x1="1550" y1="558" x2="1554" y2="550" stroke="blue" />
<text x="1550" y="566" font-family="Verdana" font-size="8" text-anchor="middle"  dominant-baseline="middle" fill="black" > 539</text>
<text x="1750" y="7" font-family="Verdana" font-size="7" text-anchor="middle"  dominant-baseline="middle" fill="black" > C9</text>
<circle cx="1750" cy="15" r="4" fill="white" stroke="black" />
<line x1="1750" y1="19" x2="1750" y2="270" stroke="black" />
<line x1="1650" y1="270" x2="1850" y2="270" stroke="black" />
<text x="1775" y="262" font-family="Verdana" font-size="8" text-anchor="middle"  dominant-baseline="middle" fill="black" > 255</text>
<circle cx="1650" cy="270" r="4" fill="white" stroke="black" />
<circle cx="1750" cy="270" r="4" fill="white" stroke="black" />
<line x1="1650" y1="274" x2="1650" y2="276" stroke="black" />
<line x1="1650" y1="276" x2="1700" y2="277" stroke="black" />
<line x1="1750" y1="274" x2="1750" y2="276" stroke="black" />
<line x1="1750" y1="276" x2="1700" y2="277" stroke="black" />
<text x="1700" y="265" font-family="Verdana" font-size="8" text-anchor="middle"  dominant-baseline="middle" fill="black" > 262</text>
<circle cx="1700" cy="277" r="4" fill="white" stroke="black" />
<circle cx="1850" cy="270" r="4" fill="white" stroke="black" />
<line x1="1700" y1="281" x2="1700" y2="291" stroke="black" />
<line x1="1700" y1="291" x2="1775" y2="295" stroke="black" />
<line x1="1850" y1="274" x2="1850" y2="291" stroke="black" />
<line x1="1850" y1="291" x2="1775" y2="295" stroke="black" />
<text x="1775" y="283" font-family="Verdana" font-size="8" text-anchor="middle"  dominant-baseline="middle" fill="black" > 280</text>
<circle cx="1775" cy="295" r="4" fill="white" stroke="black" />
<line x1="1775" y1="299" x2="1775" y2="368" stroke="black" />
<line x1="1771" y1="364" x2="1779" y2="372" stroke="red" />
<line x1="1771" y1="372" x2="1779" y2="364" stroke="red" />
<text x="1775" y="380" font-family="Verdana" font-size="8" text-anchor="middle"  dominant-baseline="middle" fill="black" > 353</text>
<text x="1950" y="7" font-family="Verdana" font-size="7" text-anchor="middle"  dominant-baseline="middle" fill="black" > C10</text>
<circle cx="1950" cy="15" r="4" fill="white" stroke="black" />
<line x1="1950" y1="19" x2="1950" y2="189" stroke="black" />
<line x1="1946" y1="193" x2="1950" y2="185" stroke="blue" />
<line x1="1950" y1="193" x2="1954" y2="185" stroke="blue" />
<text x="1950" y="201" font-family="Verdana" font-size="8" text-anchor="middle"  dominant-baseline="middle" fill="black" > 174</text>
</svg>
