<?xml version="1.0" encoding="utf-8"?>
<svg xmlns="http://www.w3.org/2000/svg" version="1.1" width="6550" height="750">
<rect width="6550" height="15" x="0" y="0" fill="white" />
<rect width="6550" height="15" x="0" y="735" fill="white" />
<rect width="25" height="750" x="0" y="0" fill="white" />
<rect width="25" height="750" x="6525" y="0" fill="white" />
<rect width="6510" height="144" x="25" y="15" fill="ghostwhite" />
<rect width="6510" height="144" x="25" y="159" fill="snow" />
<rect width="6510" height="144" x="25" y="303" fill="ghostwhite" />
<rect width="6510" height="144" x="25" y="447" fill="snow" />
<rect width="6510" height="144" x="25" y="591" fill="ghostwhite" />
<text x="12" y="87" font-family="Verdana" font-size="10" text-anchor="middle"  dominant-baseline="middle" fill="red" > D0</text>
<text x="12" y="231" font-family="Verdana" font-size="10" text-anchor="middle"  dominant-baseline="middle" fill="red" > D1</text>
<text x="12" y="375" font-family="Verdana" font-size="10" text-anchor="middle"  dominant-baseline="middle" fill="red" > D2</text>
<text x="12" y="519" font-family="Verdana" font-size="10" text-anchor="middle"  dominant-baseline="middle" fill="red" > D3</text>
<text x="12" y="663" font-family="Verdana" font-size="10" text-anchor="middle"  dominant-baseline="middle" fill="red" > D4</text>
<text x="12" y="20" font-family="Verdana" font-size="10" text-anchor="middle"  dominant-baseline="middle" fill="black" > 0</text>
<text x="12" y="164" font-family="Verdana" font-size="10" text-anchor="middle"  dominant-baseline="middle" fill="black" > 144</text>
<text x="12" y="308" font-family="Verdana" font-size="10" text-anchor="middle"  dominant-baseline="middle" fill="black" > 288</text>
<text x="12" y="452" font-family="Verdana" font-size="10" text-anchor="middle"  dominant-baseline="middle" fill="black" > 432</text>
<text x="12" y="596" font-family="Verdana" font-size="10" text-anchor="middle"  dominant-baseline="middle" fill="black" > 576</text>
<text x="12" y="740" font-family="Verdana" font-size="10" text-anchor="middle"  dominant-baseline="middle" fill="black" > 720</text>
<text x="50" y="7" font-family="Verdana" font-size="7" text-anchor="middle"  dominant-baseline="middle" fill="black" > C1</text>
<circle cx="50" cy="15" r="4" fill="white" stroke="black" />
<line x1="50" y1="19" x2="50" y2="323" stroke="black" />
<line x1="46" y1="327" x2="50" y2="319" stroke="blue" />
<line x1="50" y1="327" x2="54" y2="319" stroke="blue" />
<text x="50" y="335" font-family="Verdana" font-size="8" text-anchor="middle"  dominant-baseline="middle" fill="black" > 308</text>
<text x="250" y="7" font-family="Verdana" font-size="7" text-anchor="middle"  dominant-baseline="middle" fill="black" > C2</text>
<circle cx="250" cy="15" r="4" fill="white" stroke="black" />
<line x1="250" y1="19" x2="250" y2="259" stroke="black" />
<line x1="150" y1="259" x2="350" y2="259" stroke="black" />
<text x="275" y="251" font-family="Verdana" font-size="8" text-anchor="middle"  dominant-baseline="middle" fill="black" > 244</text>
<circle cx="150" cy="259" r="4" fill="white" stroke="black" />
<circle cx="250" cy="259" r="4" fill="white" stroke="black" />
<line x1="150" y1="263" x2="150" y2="367" stroke="black" />
<line x1="150" y1="367" x2="200" y2="403" stroke="black" />
<line x1="250" y1="263" x2="250" y2="367" stroke="black" />
<line x1="250" y1="367" x2="200" y2="403" stroke="black" />
<text x="200" y="391" font-family="Verdana" font-size="8" text-anchor="middle"  dominant-baseline="middle" fill="black" > 388</text>
<circle cx="200" cy="403" r="4" fill="white" stroke="black" />
<line x1="200" y1="407" x2="200" y2="574" stroke="black" />
<line x1="196" y1="570" x2="204" y2="578" stroke="red" />
<line x1="196" y1="578" x2="204" y2="570" stroke="red" />
<text x="200" y="586" font-family="Verdana" font-size="8" text-anchor="middle"  dominant-baseline="middle" fill="black" > 559</text>
<circle cx="350" cy="259" r="4" fill="white" stroke="black" />
<line x1="350" y1="263" x2="350" y2="459" stroke="black" />
<line x1="346" y1="463" x2="350" y2="455" stroke="blue" />
<line x1="350" y1="463" x2="354" y2="455" stroke="blue" />
<text x="350" y="471" font-family="Verdana" font-size="8" text-anchor="middle"  dominant-baseline="middle" fill="black" > 444</text>
<text x="450" y="7" font-family="Verdana" font-size="7" text-anchor="middle"  dominant-baseline="middle" fill="black" > C3</text>
<circle cx="450" cy="15" r="4" fill="white" stroke="black" />
<line x1="450" y1="19" x2="450" y2="314" stroke="black" />
<line x1="446" y1="318" x2="450" y2="310" stroke="blue" />
<line x1="450" y1="318" x2="454" y2="310" stroke="blue" />
<text x="450" y="326" font-family="Verdana" font-size="8" text-anchor="middle"  dominant-baseline="middle" fill="black" > 299</text>
<text x="650" y="7" font-family="Verdana" font-size="7" text-anchor="middle"  dominant-baseline="middle" fill="black" > C4</text>
<circle cx="650" cy="15" r="4" fill="white" stroke="black" />
<line x1="650" y1="19" x2="650" y2="249" stroke="black" />
<line x1="550" y1="249" x2="750" y2="249" stroke="black" />
<text x="675" y="241" font-family="Verdana" font-size="8" text-anchor="middle"  dominant-baseline="middle" fill="black" > 234</text>
<circle cx="550" cy="249" r="4" fill="white" stroke="black" />
<line x1="550" y1="253" x2="550" y2="736" stroke="black" />
<circle cx="550" cy="736" r="4" fill="white" stroke="black" />
<text x="550" y="748" font-family="Verdana" font-size="8" text-anchor="middle"  dominant-baseline="middle" fill="black" > 721</text>
<circle cx="650" cy="249" r="4" fill="white" stroke="black" />
<line x1="650" y1="253" x2="650" y2="449" stroke="black" />
<line x1="646" y1="445" x2="654" y2="453" stroke="red" />
<line x1="646" y1="453" x2="654" y2="445" stroke="red" />
<text x="650" y="461" font-family="Verdana" font-size="8" text-anchor="middle"  dominant-baseline="middle" fill="black" > 434</text>
<circle cx="750" cy="249" r="4" fill="white" stroke="black" />
<line x1="750" y1="253" x2="750" y2="442" stroke="black" />
<line x1="746" y1="438" x2="754" y2="446" stroke="red" />
<line x1="746" y1="446" x2="754" y2="438" stroke="red" />
<text x="750" y="454" font-family="Verdana" font-size="8" text-anchor="middle"  dominant-baseline="middle" fill="black" > 427</text>
<text x="950" y="7" font-family="Verdana" font-size="7" text-anchor="middle"  dominant-baseline="middle" fill="black" > C5</text>
<circle cx="950" cy="15" r="4" fill="white" stroke="black" />
<line x1="950" y1="19" x2="950" y2="254" stroke="black" />
<line x1="850" y1="254" x2="1050" y2="254" stroke="black" />
<text x="975" y="246" font-family="Verdana" font-size="8" text-anchor="middle"  dominant-baseline="middle" fill="black" > 239</text>
<circle cx="850" cy="254" r="4" fill="white" stroke="black" />
<circle cx="950" cy="254" r="4" fill="white" stroke="black" />
<line x1="850" y1="258" x2="850" y2="263" stroke="black" />
<line x1="850" y1="263" x2="900" y2="265" stroke="black" />
<line x1="950" y1="258" x2="950" y2="263" stroke="black" />
<line x1="950" y1="263" x2="900" y2="265" stroke="black" />
<text x="900" y="253" font-family="Verdana" font-size="8" text-anchor="middle"  dominant-baseline="middle" fill="black" > 250</text>
<circle cx="900" cy="265" r="4" fill="white" stroke="black" />
<circle cx="1050" cy="254" r="4" fill="white" stroke="black" />
<line x1="900" y1="269" x2="900" y2="304" stroke="black" />
<line x1="900" y1="304" x2="975" y2="317" stroke="black" />
<line x1="1050" y1="258" x2="1050" y2="304" stroke="black" />
<line x1="1050" y1="304" x2="975" y2="317" stroke="black" />
<text x="975" y="305" font-family="Verdana" font-size="8" text-anchor="middle"  dominant-baseline="middle" fill="black" > 302</text>
<circle cx="975" cy="317" r="4" fill="white" stroke="black" />
<line x1="975" y1="321" x2="975" y2="371" stroke="black" />
<line x1="971" y1="367" x2="979" y2="375" stroke="red" />
<line x1="971" y1="375" x2="979" y2="367" stroke="red" />
<text x="975" y="383" font-family="Verdana" font-size="8" text-anchor="middle"  dominant-baseline="middle" fill="black" > 356</text>
<text x="1150" y="7" font-family="Verdana" font-size="7" text-anchor="middle"  dominant-baseline="middle" fill="black" > C6</text>
<circle cx="1150" cy="15" r="4" fill="white" stroke="black" />
<line x1="1150" y1="19" x2="1150" y2="485" stroke="black" />
<line x1="1146" y1="481" x2="1154" y2="489" stroke="red" />
<line x1="1146" y1="489" x2="1154" y2="481" stroke="red" />
<text x="1150" y="497" font-family="Verdana" font-size="8" text-anchor="middle"  dominant-baseline="middle" fill="black" > 470</text>
<text x="1450" y="7" font-family="Verdana" font-size="7" text-anchor="middle"  dominant-baseline="middle" fill="black" > C7</text>
<circle cx="1450" cy="15" r="4" fill="white" stroke="black" />
<line x1="1450" y1="19" x2="1450" y2="588" stroke="black" />
<line x1="1250" y1="588" x2="1650" y2="588" stroke="black" />
<text x="1475" y="580" font-family="Verdana" font-size="8" text-anchor="middle"  dominant-baseline="middle" fill="black" > 573</text>
<circle cx="1250" cy="588" r="4" fill="white" stroke="black" />
<line x1="1250" y1="592" x2="1250" y2="736" stroke="black" />
<circle cx="1250" cy="736" r="4" fill="white" stroke="black" />
<text x="1250" y="748" font-family="Verdana" font-size="8" text-anchor="middle"  dominant-baseline="middle" fill="black" > 721</text>
<circle cx="1350" cy="588" r="4" fill="white" stroke="black" />
<line x1="1350" y1="592" x2="1350" y2="720" stroke="black" />
<line x1="1346" y1="716" x2="1354" y2="724" stroke="red" />
<line x1="1346" y1="724" x2="1354" y2="716" stroke="red" />
<text x="1350" y="732" font-family="Verdana" font-size="8" text-anchor="middle"  dominant-baseline="middle" fill="black" > 705</text>
<circle cx="1450" cy="588" r="4" fill="white" stroke="black" />
<circle cx="1550" cy="588" r="4" fill="white" stroke="black" />
<line x1="1450" y1="592" x2="1450" y2="606" stroke="black" />
<line x1="1450" y1="606" x2="1500" y2="612" stroke="black" />
<line x1="1550" y1="592" x2="1550" y2="606" stroke="black" />
<line x1="1550" y1="606" x2="1500" y2="612" stroke="black" />
<text x="1500" y="600" font-family="Verdana" font-size="8" text-anchor="middle"  dominant-baseline="middle" fill="black" > 597</text>
<circle cx="1500" cy="612" r="4" fill="white" stroke="black" />
<circle cx="1650" cy="588" r="4" fill="white" stroke="black" />
<line x1="1500" y1="616" x2="1500" y2="666" stroke="black" />
<line x1="1500" y1="666" x2="1575" y2="684" stroke="black" />
<line x1="1650" y1="592" x2="1650" y2="666" stroke="black" />
<line x1="1650" y1="666" x2="1575" y2="684" stroke="black" />
<text x="1575" y="672" font-family="Verdana" font-size="8" text-anchor="middle"  dominant-baseline="middle" fill="black" > 669</text>
<circle cx="1575" cy="684" r="4" fill="white" stroke="black" />
<line x1="1575" y1="688" x2="1575" y2="707" stroke="black" />
<line x1="1571" y1="703" x2="1579" y2="711" stroke="red" />
<line x1="1571" y1="711" x2="1579" y2="703" stroke="red" />
<text x="1575" y="719" font-family="Verdana" font-size="8" text-anchor="middle"  dominant-baseline="middle" fill="black" > 692</text>
<text x="1850" y="7" font-family="Verdana" font-size="7" text-anchor="middle"  dominant-baseline="middle" fill="black" > C8</text>
<circle cx="1850" cy="15" r="4" fill="white" stroke="black" />
<line x1="1850" y1="19" x2="1850" y2="514" stroke="black" />
<line x1="1750" y1="514" x2="1950" y2="514" stroke="black" />
<text x="1875" y="506" font-family="Verdana" font-size="8" text-anchor="middle"  dominant-baseline="middle" fill="black" > 499</text>
<circle cx="1750" cy="514" r="4" fill="white" stroke="black" />
<circle cx="1850" cy="514" r="4" fill="white" stroke="black" />
<line x1="1750" y1="518" x2="1750" y2="521" stroke="black" />
<line x1="1750" y1="521" x2="1800" y2="523" stroke="black" />
<line x1="1850" y1="518" x2="1850" y2="521" stroke="black" />
<line x1="1850" y1="521" x2="1800" y2="523" stroke="black" />
<text x="1800" y="511" font-family="Verdana" font-size="8" text-anchor="middle"  dominant-baseline="middle" fill="black" > 508</text>
<circle cx="1800" cy="523" r="4" fill="white" stroke="black" />
<circle cx="1950" cy="514" r="4" fill="white" stroke="black" />
<line x1="1800" y1="527" x2="1800" y2="527" stroke="black" />
<line x1="1800" y1="527" x2="1875" y2="528" stroke="black" />
<line x1="1950" y1="518" x2="1950" y2="527" stroke="black" />
<line x1="1950" y1="527" x2="1875" y2="528" stroke="black" />
<text x="1875" y="516" font-family="Verdana" font-size="8" text-anchor="middle"  dominant-baseline="middle" fill="black" > 513</text>
<circle cx="1875" cy="528" r="4" fill="white" stroke="black" />
<line x1="1875" y1="532" x2="1875" y2="565" stroke="black" />
<line x1="1871" y1="561" x2="1879" y2="569" stroke="red" />
<line x1="1871" y1="569" x2="1879" y2="561" stroke="red" />
<text x="1875" y="577" font-family="Verdana" font-size="8" text-anchor="middle"  dominant-baseline="middle" fill="black" > 550</text>
<text x="2250" y="7" font-family="Verdana" font-size="7" text-anchor="middle"  dominant-baseline="middle" fill="black" > C9</text>
<circle cx="2250" cy="15" r="4" fill="white" stroke="black" />
<line x1="2250" y1="19" x2="2250" y2="517" stroke="black" />
<line x1="2050" y1="517" x2="2450" y2="517" stroke="black" />
<text x="2275" y="509" font-family="Verdana" font-size="8" text-anchor="middle"  dominant-baseline="middle" fill="black" > 502</text>
<circle cx="2050" cy="517" r="4" fill="white" stroke="black" />
<circle cx="2150" cy="517" r="4" fill="white" stroke="black" />
<line x1="2050" y1="521" x2="2050" y2="532" stroke="black" />
<line x1="2050" y1="532" x2="2100" y2="537" stroke="black" />
<line x1="2150" y1="521" x2="2150" y2="532" stroke="black" />
<line x1="2150" y1="532" x2="2100" y2="537" stroke="black" />
<text x="2100" y="525" font-family="Verdana" font-size="8" text-anchor="middle"  dominant-baseline="middle" fill="black" > 522</text>
<circle cx="2100" cy="537" r="4" fill="white" stroke="black" />
<circle cx="2250" cy="517" r="4" fill="white" stroke="black" />
<line x1="2100" y1="541" x2="2100" y2="545" stroke="black" />
<line x1="2100" y1="545" x2="2175" y2="547" stroke="black" />
<line x1="2250" y1="521" x2="2250" y2="545" stroke="black" />
<line x1="2250" y1="545" x2="2175" y2="547" stroke="black" />
<text x="2175" y="535" font-family="Verdana" font-size="8" text-anchor="middle"  dominant-baseline="middle" fill="black" > 532</text>
<circle cx="2175" cy="547" r="4" fill="white" stroke="black" />
<circle cx="2350" cy="517" r="4" fill="white" stroke="black" />
<circle cx="2450" cy="517" r="4" fill="white" stroke="black" />
<line x1="2350" y1="521" x2="2350" y2="541" stroke="black" />
<line x1="2350" y1="541" x2="2400" y2="549" stroke="black" />
<line x1="2450" y1="521" x2="2450" y2="541" stroke="black" />
<line x1="2450" y1="541" x2="2400" y2="549" stroke="black" />
<text x="2400" y="537" font-family="Verdana" font-size="8" text-anchor="middle"  dominant-baseline="middle" fill="black" > 534</text>
<circle cx="2400" cy="549" r="4" fill="white" stroke="black" />
<line x1="2175" y1="551" x2="2175" y2="552" stroke="black" />
<line x1="2175" y1="552" x2="2287" y2="553" stroke="black" />
<line x1="2400" y1="553" x2="2400" y2="552" stroke="black" />
<line x1="2400" y1="552" x2="2287" y2="553" stroke="black" />
<text x="2287" y="541" font-family="Verdana" font-size="8" text-anchor="middle"  dominant-baseline="middle" fill="black" > 538</text>
<circle cx="2287" cy="553" r="4" fill="white" stroke="black" />
<line x1="2287" y1="557" x2="2287" y2="584" stroke="black" />
<line x1="2283" y1="580" x2="2291" y2="588" stroke="red" />
<line x1="2283" y1="588" x2="2291" y2="580" stroke="red" />
<text x="2287" y="596" font-family="Verdana" font-size="8" text-anchor="middle"  dominant-baseline="middle" fill="black" > 569</text>
<text x="2650" y="7" font-family="Verdana" font-size="7" text-anchor="middle"  dominant-baseline="middle" fill="black" > C10</text>
<circle cx="2650" cy="15" r="4" fill="white" stroke="black" />
<line x1="2650" y1="19" x2="2650" y2="352" stroke="black" />
<line x1="2550" y1="352" x2="2750" y2="352" stroke="black" />
<text x="2675" y="344" font-family="Verdana" font-size="8" text-anchor="middle"  dominant-baseline="middle" fill="black" > 337</text>
<circle cx="2550" cy="352" r="4" fill="white" stroke="black" />
<circle cx="2650" cy="352" r="4" fill="white" stroke="black" />
<line x1="2550" y1="356" x2="2550" y2="365" stroke="black" />
<line x1="2550" y1="365" x2="2600" y2="369" stroke="black" />
<line x1="2650" y1="356" x2="2650" y2="365" stroke="black" />
<line x1="2650" y1="365" x2="2600" y2="369" stroke="black" />
<text x="2600" y="357" font-family="Verdana" font-size="8" text-anchor="middle"  dominant-baseline="middle" fill="black" > 354</text>
<circle cx="2600" cy="369" r="4" fill="white" stroke="black" />
<circle cx="2750" cy="352" r="4" fill="white" stroke="black" />
<line x1="2600" y1="373" x2="2600" y2="373" stroke="black" />
<line x1="2600" y1="373" x2="2675" y2="374" stroke="black" />
<line x1="2750" y1="356" x2="2750" y2="373" stroke="black" />
<line x1="2750" y1="373" x2="2675" y2="374" stroke="black" />
<text x="2675" y="362" font-family="Verdana" font-size="8" text-anchor="middle"  dominant-baseline="middle" fill="black" > 359</text>
<circle cx="2675" cy="374" r="4" fill="white" stroke="black" />
<line x1="2675" y1="378" x2="2675" y2="470" stroke="black" />
<line x1="2671" y1="466" x2="2679" y2="474" stroke="red" />
<line x1="2671" y1="474" x2="2679" y2="466" stroke="red" />
<text x="2675" y="482" font-family="Verdana" font-size="8" text-anchor="middle"  dominant-baseline="middle" fill="black" > 455</text>
<text x="2950" y="7" font-family="Verdana" font-size="7" text-anchor="middle"  dominant-baseline="middle" fill="black" > C11</text>
<circle cx="2950" cy="15" r="4" fill="white" stroke="black" />
<line x1="2950" y1="19" x2="2950" y2="277" stroke="black" />
<line x1="2850" y1="277" x2="3050" y2="277" stroke="black" />
<text x="2975" y="269" font-family="Verdana" font-size="8" text-anchor="middle"  dominant-baseline="middle" fill="black" > 262</text>
<circle cx="2850" cy="277" r="4" fill="white" stroke="black" />
<circle cx="2950" cy="277" r="4" fill="white" stroke="black" />
<line x1="2850" y1="281" x2="2850" y2="295" stroke="black" />
<line x1="2850" y1="295" x2="2900" y2="301" stroke="black" />
<line x1="2950" y1="281" x2="2950" y2="295" stroke="black" />
<line x1="2950" y1="295" x2="2900" y2="301" stroke="black" />
<text x="2900" y="289" font-family="Verdana" font-size="8" text-anchor="middle"  dominant-baseline="middle" fill="black" > 286</text>
<circle cx="2900" cy="301" r="4" fill="white" stroke="black" />
<circle cx="3050" cy="277" r="4" fill="white" stroke="black" />
<line x1="2900" y1="305" x2="2900" y2="330" stroke="black" />
<line x1="2900" y1="330" x2="2975" y2="339" stroke="black" />
<line x1="3050" y1="281" x2="3050" y2="330" stroke="black" />
<line x1="3050" y1="330" x2="2975" y2="339" stroke="black" />
<text x="2975" y="327" font-family="Verdana" font-size="8" text-anchor="middle"  dominant-baseline="middle" fill="black" > 324</text>
<circle cx="2975" cy="339" r="4" fill="white" stroke="black" />
<line x1="2975" y1="343" x2="2975" y2="508" stroke="black" />
<line x1="2971" y1="504" x2="2979" y2="512" stroke="red" />
<line x1="2971" y1="512" x2="2979" y2="504" stroke="red" />
<text x="2975" y="520" font-family="Verdana" font-size="8" text-anchor="middle"  dominant-baseline="middle" fill="black" > 493</text>
<text x="3250" y="7" font-family="Verdana" font-size="7" text-anchor="middle"  dominant-baseline="middle" fill="black" > C12</text>
<circle cx="3250" cy="15" r="4" fill="white" stroke="black" />
<line x1="3250" y1="19" x2="3250" y2="444" stroke="black" />
<line x1="3150" y1="444" x2="3350" y2="444" stroke="black" />
<text x="3275" y="436" font-family="Verdana" font-size="8" text-anchor="middle"  dominant-baseline="middle" fill="black" > 429</text>
<circle cx="3150" cy="444" r="4" fill="white" stroke="black" />
<circle cx="3250" cy="444" r="4" fill="white" stroke="black" />
<line x1="3150" y1="448" x2="3150" y2="459" stroke="black" />
<line x1="3150" y1="459" x2="3200" y2="463" stroke="black" />
<line x1="3250" y1="448" x2="3250" y2="459" stroke="black" />
<line x1="3250" y1="459" x2="3200" y2="463" stroke="black" />
<text x="3200" y="451" font-family="Verdana" font-size="8" text-anchor="middle"  dominant-baseline="middle" fill="black" > 448</text>
<circle cx="3200" cy="463" r="4" fill="white" stroke="black" />
<circle cx="3350" cy="444" r="4" fill="white" stroke="black" />
<line x1="3200" y1="467" x2="3200" y2="468" stroke="black" />
<line x1="3200" y1="468" x2="3275" y2="469" stroke="black" />
<line x1="3350" y1="448" x2="3350" y2="468" stroke="black" />
<line x1="3350" y1="468" x2="3275" y2="469" stroke="black" />
<text x="3275" y="457" font-family="Verdana" font-size="8" text-anchor="middle"  dominant-baseline="middle" fill="black" > 454</text>
<circle cx="3275" cy="469" r="4" fill="white" stroke="black" />
<line x1="3275" y1="473" x2="3275" y2="562" stroke="black" />
<line x1="3271" y1="558" x2="3279" y2="566" stroke="red" />
<line x1="3271" y1="566" x2="3279" y2="558" stroke="red" />
<text x="3275" y="574" font-family="Verdana" font-size="8" text-anchor="middle"  dominant-baseline="middle" fill="black" > 547</text>
<text x="3600" y="7" font-family="Verdana" font-size="7" text-anchor="middle"  dominant-baseline="middle" fill="black" > C13</text>
<circle cx="3600" cy="15" r="4" fill="white" stroke="black" />
<line x1="3600" y1="19" x2="3600" y2="445" stroke="black" />
<line x1="3450" y1="445" x2="3750" y2="445" stroke="black" />
<text x="3625" y="437" font-family="Verdana" font-size="8" text-anchor="middle"  dominant-baseline="middle" fill="black" > 430</text>
<circle cx="3450" cy="445" r="4" fill="white" stroke="black" />
<circle cx="3550" cy="445" r="4" fill="white" stroke="black" />
<line x1="3450" y1="449" x2="3450" y2="451" stroke="black" />
<line x1="3450" y1="451" x2="3500" y2="453" stroke="black" />
<line x1="3550" y1="449" x2="3550" y2="451" stroke="black" />
<line x1="3550" y1="451" x2="3500" y2="453" stroke="black" />
<text x="3500" y="441" font-family="Verdana" font-size="8" text-anchor="middle"  dominant-baseline="middle" fill="black" > 438</text>
<circle cx="3500" cy="453" r="4" fill="white" stroke="black" />
<circle cx="3650" cy="445" r="4" fill="white" stroke="black" />
<line x1="3500" y1="457" x2="3500" y2="456" stroke="black" />
<line x1="3500" y1="456" x2="3575" y2="457" stroke="black" />
<line x1="3650" y1="449" x2="3650" y2="456" stroke="black" />
<line x1="3650" y1="456" x2="3575" y2="457" stroke="black" />
<text x="3575" y="445" font-family="Verdana" font-size="8" text-anchor="middle"  dominant-baseline="middle" fill="black" > 442</text>
<circle cx="3575" cy="457" r="4" fill="white" stroke="black" />
<circle cx="3750" cy="445" r="4" fill="white" stroke="black" />
<line x1="3575" y1="461" x2="3575" y2="463" stroke="black" />
<line x1="3575" y1="463" x2="3662" y2="464" stroke="black" />
<line x1="3750" y1="449" x2="3750" y2="463" stroke="black" />
<line x1="3750" y1="463" x2="3662" y2="464" stroke="black" />
<text x="3662" y="452" font-family="Verdana" font-size="8" text-anchor="middle"  dominant-baseline="middle" fill="black" > 449</text>
<circle cx="3662" cy="464" r="4" fill="white" stroke="black" />
<line x1="3662" y1="468" x2="3662" y2="530" stroke="black" />
<line x1="3658" y1="534" x2="3662" y2="526" stroke="blue" />
<line x1="3662" y1="534" x2="3666" y2="526" stroke="blue" />
<text x="3662" y="542" font-family="Verdana" font-size="8" text-anchor="middle"  dominant-baseline="middle" fill="black" > 515</text>
<text x="4000" y="7" font-family="Verdana" font-size="7" text-anchor="middle"  dominant-baseline="middle" fill="black" > C14</text>
<circle cx="4000" cy="15" r="4" fill="white" stroke="black" />
<line x1="4000" y1="19" x2="4000" y2="395" stroke="black" />
<line x1="3850" y1="395" x2="4150" y2="395" stroke="black" />
<text x="4025" y="387" font-family="Verdana" font-size="8" text-anchor="middle"  dominant-baseline="middle" fill="black" > 380</text>
<circle cx="3850" cy="395" r="4" fill="white" stroke="black" />
<circle cx="3950" cy="395" r="4" fill="white" stroke="black" />
<circle cx="4050" cy="395" r="4" fill="white" stroke="black" />
<line x1="3850" y1="399" x2="3850" y2="412" stroke="black" />
<line x1="3850" y1="412" x2="3950" y2="417" stroke="black" />
<line x1="3950" y1="399" x2="3950" y2="412" stroke="black" />
<line x1="3950" y1="412" x2="3950" y2="417" stroke="black" />
<line x1="4050" y1="399" x2="4050" y2="412" stroke="black" />
<line x1="4050" y1="412" x2="3950" y2="417" stroke="black" />
<text x="3950" y="405" font-family="Verdana" font-size="8" text-anchor="middle"  dominant-baseline="middle" fill="black" > 402</text>
<circle cx="3950" cy="417" r="4" fill="white" stroke="black" />
<circle cx="4150" cy="395" r="4" fill="white" stroke="black" />
<line x1="3950" y1="421" x2="3950" y2="425" stroke="black" />
<line x1="3950" y1="425" x2="4050" y2="427" stroke="black" />
<line x1="4150" y1="399" x2="4150" y2="425" stroke="black" />
<line x1="4150" y1="425" x2="4050" y2="427" stroke="black" />
<text x="4050" y="415" font-family="Verdana" font-size="8" text-anchor="middle"  dominant-baseline="middle" fill="black" > 412</text>
<circle cx="4050" cy="427" r="4" fill="white" stroke="black" />
<line x1="4050" y1="431" x2="4050" y2="736" stroke="black" />
<circle cx="4050" cy="736" r="4" fill="white" stroke="black" />
<text x="4050" y="748" font-family="Verdana" font-size="8" text-anchor="middle"  dominant-baseline="middle" fill="black" > 721</text>
<text x="4450" y="7" font-family="Verdana" font-size="7" text-anchor="middle"  dominant-baseline="middle" fill="black" > C15</text>
<circle cx="4450" cy="15" r="4" fill="white" stroke="black" />
<line x1="4450" y1="19" x2="4450" y2="385" stroke="black" />
<line x1="4250" y1="385" x2="4650" y2="385" stroke="black" />
<text x="4475" y="377" font-family="Verdana" font-size="8" text-anchor="middle"  dominant-baseline="middle" fill="black" > 370</text>
<circle cx="4250" cy="385" r="4" fill="white" stroke="black" />
<line x1="4250" y1="389" x2="4250" y2="735" stroke="black" />
<line x1="4246" y1="731" x2="4254" y2="739" stroke="red" />
<line x1="4246" y1="739" x2="4254" y2="731" stroke="red" />
<text x="4250" y="747" font-family="Verdana" font-size="8" text-anchor="middle"  dominant-baseline="middle" fill="black" > 720</text>
<circle cx="4350" cy="385" r="4" fill="white" stroke="black" />
<circle cx="4450" cy="385" r="4" fill="white" stroke="black" />
<line x1="4350" y1="389" x2="4350" y2="397" stroke="black" />
<line x1="4350" y1="397" x2="4400" y2="400" stroke="black" />
<line x1="4450" y1="389" x2="4450" y2="397" stroke="black" />
<line x1="4450" y1="397" x2="4400" y2="400" stroke="black" />
<text x="4400" y="388" font-family="Verdana" font-size="8" text-anchor="middle"  dominant-baseline="middle" fill="black" > 385</text>
<circle cx="4400" cy="400" r="4" fill="white" stroke="black" />
<circle cx="4550" cy="385" r="4" fill="white" stroke="black" />
<line x1="4400" y1="404" x2="4400" y2="403" stroke="black" />
<line x1="4400" y1="403" x2="4475" y2="403" stroke="black" />
<line x1="4550" y1="389" x2="4550" y2="403" stroke="black" />
<line x1="4550" y1="403" x2="4475" y2="403" stroke="black" />
<text x="4475" y="391" font-family="Verdana" font-size="8" text-anchor="middle"  dominant-baseline="middle" fill="black" > 388</text>
<circle cx="4475" cy="403" r="4" fill="white" stroke="black" />
<circle cx="4650" cy="385" r="4" fill="white" stroke="black" />
<line x1="4475" y1="407" x2="4475" y2="409" stroke="black" />
<line x1="4475" y1="409" x2="4562" y2="410" stroke="black" />
<line x1="4650" y1="389" x2="4650" y2="409" stroke="black" />
<line x1="4650" y1="409" x2="4562" y2="410" stroke="black" />
<text x="4562" y="398" font-family="Verdana" font-size="8" text-anchor="middle"  dominant-baseline="middle" fill="black" > 395</text>
<circle cx="4562" cy="410" r="4" fill="white" stroke="black" />
<line x1="4562" y1="414" x2="4562" y2="568" stroke="black" />
<line x1="4558" y1="564" x2="4566" y2="572" stroke="red" />
<line x1="4558" y1="572" x2="4566" y2="564" stroke="red" />
<text x="4562" y="580" font-family="Verdana" font-size="8" text-anchor="middle"  dominant-baseline="middle" fill="black" > 553</text>
<text x="4900" y="7" font-family="Verdana" font-size="7" text-anchor="middle"  dominant-baseline="middle" fill="black" > C16</text>
<circle cx="4900" cy="15" r="4" fill="white" stroke="black" />
<line x1="4900" y1="19" x2="4900" y2="487" stroke="black" />
<line x1="4750" y1="487" x2="5050" y2="487" stroke="black" />
<text x="4925" y="479" font-family="Verdana" font-size="8" text-anchor="middle"  dominant-baseline="middle" fill="black" > 472</text>
<circle cx="4750" cy="487" r="4" fill="white" stroke="black" />
<line x1="4750" y1="491" x2="4750" y2="502" stroke="black" />
<line x1="4746" y1="498" x2="4754" y2="506" stroke="red" />
<line x1="4746" y1="506" x2="4754" y2="498" stroke="red" />
<text x="4750" y="514" font-family="Verdana" font-size="8" text-anchor="middle"  dominant-baseline="middle" fill="black" > 487</text>
<circle cx="4850" cy="487" r="4" fill="white" stroke="black" />
<line x1="4850" y1="491" x2="4850" y2="495" stroke="black" />
<line x1="4846" y1="491" x2="4854" y2="499" stroke="red" />
<line x1="4846" y1="499" x2="4854" y2="491" stroke="red" />
<text x="4850" y="507" font-family="Verdana" font-size="8" text-anchor="middle"  dominant-baseline="middle" fill="black" > 480</text>
<circle cx="4950" cy="487" r="4" fill="white" stroke="black" />
<circle cx="5050" cy="487" r="4" fill="white" stroke="black" />
<line x1="4950" y1="491" x2="4950" y2="491" stroke="black" />
<line x1="4950" y1="491" x2="5000" y2="492" stroke="black" />
<line x1="5050" y1="491" x2="5050" y2="491" stroke="black" />
<line x1="5050" y1="491" x2="5000" y2="492" stroke="black" />
<text x="5000" y="480" font-family="Verdana" font-size="8" text-anchor="middle"  dominant-baseline="middle" fill="black" > 477</text>
<circle cx="5000" cy="492" r="4" fill="white" stroke="black" />
<line x1="5000" y1="496" x2="5000" y2="501" stroke="black" />
<line x1="4996" y1="497" x2="5004" y2="505" stroke="red" />
<line x1="4996" y1="505" x2="5004" y2="497" stroke="red" />
<text x="5000" y="513" font-family="Verdana" font-size="8" text-anchor="middle"  dominant-baseline="middle" fill="black" > 486</text>
<text x="5250" y="7" font-family="Verdana" font-size="7" text-anchor="middle"  dominant-baseline="middle" fill="black" > C17</text>
<circle cx="5250" cy="15" r="4" fill="white" stroke="black" />
<line x1="5250" y1="19" x2="5250" y2="478" stroke="black" />
<line x1="5150" y1="478" x2="5350" y2="478" stroke="black" />
<text x="5275" y="470" font-family="Verdana" font-size="8" text-anchor="middle"  dominant-baseline="middle" fill="black" > 463</text>
<circle cx="5150" cy="478" r="4" fill="white" stroke="black" />
<circle cx="5250" cy="478" r="4" fill="white" stroke="black" />
<circle cx="5350" cy="478" r="4" fill="white" stroke="black" />
<line x1="5150" y1="482" x2="5150" y2="482" stroke="black" />
<line x1="5150" y1="482" x2="5250" y2="483" stroke="black" />
<line x1="5250" y1="482" x2="5250" y2="482" stroke="black" />
<line x1="5250" y1="482" x2="5250" y2="483" stroke="black" />
<line x1="5350" y1="482" x2="5350" y2="482" stroke="black" />
<line x1="5350" y1="482" x2="5250" y2="483" stroke="black" />
<text x="5250" y="471" font-family="Verdana" font-size="8" text-anchor="middle"  dominant-baseline="middle" fill="black" > 468</text>
<circle cx="5250" cy="483" r="4" fill="white" stroke="black" />
<line x1="5250" y1="487" x2="5250" y2="485" stroke="black" />
<line x1="5246" y1="481" x2="5254" y2="489" stroke="red" />
<line x1="5246" y1="489" x2="5254" y2="481" stroke="red" />
<text x="5250" y="497" font-family="Verdana" font-size="8" text-anchor="middle"  dominant-baseline="middle" fill="black" > 470</text>
<text x="5500" y="7" font-family="Verdana" font-size="7" text-anchor="middle"  dominant-baseline="middle" fill="black" > C18</text>
<circle cx="5500" cy="15" r="4" fill="white" stroke="black" />
<line x1="5500" y1="19" x2="5500" y2="225" stroke="black" />
<line x1="5450" y1="225" x2="5550" y2="225" stroke="black" />
<text x="5525" y="217" font-family="Verdana" font-size="8" text-anchor="middle"  dominant-baseline="middle" fill="black" > 210</text>
<circle cx="5450" cy="225" r="4" fill="white" stroke="black" />
<circle cx="5550" cy="225" r="4" fill="white" stroke="black" />
<line x1="5450" y1="229" x2="5450" y2="293" stroke="black" />
<line x1="5450" y1="293" x2="5500" y2="315" stroke="black" />
<line x1="5550" y1="229" x2="5550" y2="293" stroke="black" />
<line x1="5550" y1="293" x2="5500" y2="315" stroke="black" />
<text x="5500" y="303" font-family="Verdana" font-size="8" text-anchor="middle"  dominant-baseline="middle" fill="black" > 300</text>
<circle cx="5500" cy="315" r="4" fill="white" stroke="black" />
<line x1="5500" y1="319" x2="5500" y2="568" stroke="black" />
<line x1="5475" y1="568" x2="5525" y2="568" stroke="black" />
<text x="5512" y="560" font-family="Verdana" font-size="8" text-anchor="middle"  dominant-baseline="middle" fill="black" > 553</text>
<circle cx="5475" cy="568" r="4" fill="white" stroke="black" />
<line x1="5475" y1="572" x2="5475" y2="590" stroke="black" />
<line x1="5471" y1="586" x2="5479" y2="594" stroke="red" />
<line x1="5471" y1="594" x2="5479" y2="586" stroke="red" />
<text x="5475" y="602" font-family="Verdana" font-size="8" text-anchor="middle"  dominant-baseline="middle" fill="black" > 575</text>
<circle cx="5525" cy="568" r="4" fill="white" stroke="black" />
<line x1="5525" y1="572" x2="5525" y2="590" stroke="black" />
<line x1="5521" y1="586" x2="5529" y2="594" stroke="red" />
<line x1="5521" y1="594" x2="5529" y2="586" stroke="red" />
<text x="5525" y="602" font-family="Verdana" font-size="8" text-anchor="middle"  dominant-baseline="middle" fill="black" > 575</text>
<text x="5700" y="7" font-family="Verdana" font-size="7" text-anchor="middle"  dominant-baseline="middle" fill="black" > C19</text>
<circle cx="5700" cy="15" r="4" fill="white" stroke="black" />
<line x1="5700" y1="19" x2="5700" y2="229" stroke="black" />
<line x1="5650" y1="229" x2="5750" y2="229" stroke="black" />
<text x="5725" y="221" font-family="Verdana" font-size="8" text-anchor="middle"  dominant-baseline="middle" fill="black" > 214</text>
<circle cx="5650" cy="229" r="4" fill="white" stroke="black" />
<circle cx="5750" cy="229" r="4" fill="white" stroke="black" />
<line x1="5650" y1="233" x2="5650" y2="304" stroke="black" />
<line x1="5650" y1="304" x2="5700" y2="329" stroke="black" />
<line x1="5750" y1="233" x2="5750" y2="304" stroke="black" />
<line x1="5750" y1="304" x2="5700" y2="329" stroke="black" />
<text x="5700" y="317" font-family="Verdana" font-size="8" text-anchor="middle"  dominant-baseline="middle" fill="black" > 314</text>
<circle cx="5700" cy="329" r="4" fill="white" stroke="black" />
<line x1="5700" y1="333" x2="5700" y2="503" stroke="black" />
<line x1="5696" y1="507" x2="5700" y2="499" stroke="blue" />
<line x1="5700" y1="507" x2="5704" y2="499" stroke="blue" />
<text x="5700" y="515" font-family="Verdana" font-size="8" text-anchor="middle"  dominant-baseline="middle" fill="black" > 488</text>
<text x="5900" y="7" font-family="Verdana" font-size="7" text-anchor="middle"  dominant-baseline="middle" fill="black" > C20</text>
<circle cx="5900" cy="15" r="4" fill="white" stroke="black" />
<line x1="5900" y1="19" x2="5900" y2="303" stroke="black" />
<line x1="5850" y1="303" x2="5950" y2="303" stroke="black" />
<text x="5925" y="295" font-family="Verdana" font-size="8" text-anchor="middle"  dominant-baseline="middle" fill="black" > 288</text>
<circle cx="5850" cy="303" r="4" fill="white" stroke="black" />
<circle cx="5950" cy="303" r="4" fill="white" stroke="black" />
<line x1="5850" y1="307" x2="5850" y2="461" stroke="black" />
<line x1="5850" y1="461" x2="5900" y2="513" stroke="black" />
<line x1="5950" y1="307" x2="5950" y2="461" stroke="black" />
<line x1="5950" y1="461" x2="5900" y2="513" stroke="black" />
<text x="5900" y="501" font-family="Verdana" font-size="8" text-anchor="middle"  dominant-baseline="middle" fill="black" > 498</text>
<circle cx="5900" cy="513" r="4" fill="white" stroke="black" />
<line x1="5900" y1="517" x2="5900" y2="736" stroke="black" />
<circle cx="5900" cy="736" r="4" fill="white" stroke="black" />
<text x="5900" y="748" font-family="Verdana" font-size="8" text-anchor="middle"  dominant-baseline="middle" fill="black" > 721</text>
<text x="6100" y="7" font-family="Verdana" font-size="7" text-anchor="middle"  dominant-baseline="middle" fill="black" > C21</text>
<circle cx="6100" cy="15" r="4" fill="white" stroke="black" />
<line x1="6100" y1="19" x2="6100" y2="365" stroke="black" />
<line x1="6050" y1="365" x2="6150" y2="365" stroke="black" />
<text x="6125" y="357" font-family="Verdana" font-size="8" text-anchor="middle"  dominant-baseline="middle" fill="black" > 350</text>
<circle cx="6050" cy="365" r="4" fill="white" stroke="black" />
<line x1="6050" y1="369" x2="6050" y2="391" stroke="black" />
<line x1="6046" y1="387" x2="6054" y2="395" stroke="red" />
<line x1="6046" y1="395" x2="6054" y2="387" stroke="red" />
<text x="6050" y="403" font-family="Verdana" font-size="8" text-anchor="middle"  dominant-baseline="middle" fill="black" > 376</text>
<circle cx="6150" cy="365" r="4" fill="white" stroke="black" />
<line x1="6150" y1="369" x2="6150" y2="391" stroke="black" />
<line x1="6146" y1="387" x2="6154" y2="395" stroke="red" />
<line x1="6146" y1="395" x2="6154" y2="387" stroke="red" />
<text x="6150" y="403" font-family="Verdana" font-size="8" text-anchor="middle"  dominant-baseline="middle" fill="black" > 376</text>
<text x="6250" y="7" font-family="Verdana" font-size="7" text-anchor="middle"  dominant-baseline="middle" fill="black" > C22</text>
<circle cx="6250" cy="15" r="4" fill="white" stroke="black" />
<line x1="6250" y1="19" x2="6250" y2="736" stroke="black" />
<circle cx="6250" cy="736" r="4" fill="white" stroke="black" />
<text x="6250" y="748" font-family="Verdana" font-size="8" text-anchor="middle"  dominant-baseline="middle" fill="black" > 721</text>
<text x="6350" y="7" font-family="Verdana" font-size="7" text-anchor="middle"  dominant-baseline="middle" fill="black" > C23</text>
<circle cx="6350" cy="15" r="4" fill="white" stroke="black" />
<line x1="6350" y1="19" x2="6350" y2="277" stroke="black" />
<line x1="6346" y1="281" x2="6350" y2="273" stroke="blue" />
<line x1="6350" y1="281" x2="6354" y2="273" stroke="blue" />
<text x="6350" y="289" font-family="Verdana" font-size="8" text-anchor="middle"  dominant-baseline="middle" fill="black" > 262</text>
<text x="6450" y="7" font-family="Verdana" font-size="7" text-anchor="middle"  dominant-baseline="middle" fill="black" > C24</text>
<circle cx="6450" cy="15" r="4" fill="white" stroke="black" />
<line x1="6450" y1="19" x2="6450" y2="300" stroke="black" />
<line x1="6446" y1="296" x2="6454" y2="304" stroke="red" />
<line x1="6446" y1="304" x2="6454" y2="296" stroke="red" />
<text x="6450" y="312" font-family="Verdana" font-size="8" text-anchor="middle"  dominant-baseline="middle" fill="black" > 285</text>
</svg>
