<?xml version="1.0" encoding="utf-8"?>
<svg xmlns="http://www.w3.org/2000/svg" version="1.1" width="2450" height="750">
<rect width="2450" height="15" x="0" y="0" fill="white" />
<rect width="2450" height="15" x="0" y="735" fill="white" />
<rect width="25" height="750" x="0" y="0" fill="white" />
<rect width="25" height="750" x="2425" y="0" fill="white" />
<rect width="2410" height="144" x="25" y="15" fill="ghostwhite" />
<rect width="2410" height="144" x="25" y="159" fill="snow" />
<rect width="2410" height="144" x="25" y="303" fill="ghostwhite" />
<rect width="2410" height="144" x="25" y="447" fill="snow" />
<rect width="2410" height="144" x="25" y="591" fill="ghostwhite" />
<text x="12" y="87" font-family="Verdana" font-size="10" text-anchor="middle"  dominant-baseline="middle" fill="red" > D0</text>
<text x="12" y="231" font-family="Verdana" font-size="10" text-anchor="middle"  dominant-baseline="middle" fill="red" > D1</text>
<text x="12" y="375" font-family="Verdana" font-size="10" text-anchor="middle"  dominant-baseline="middle" fill="red" > D2</text>
<text x="12" y="519" font-family="Verdana" font-size="10" text-anchor="middle"  dominant-baseline="middle" fill="red" > D3</text>
<text x="12" y="663" font-family="Verdana" font-size="10" text-anchor="middle"  dominant-baseline="middle" fill="red" > D4</text>
<text x="12" y="20" font-family="Verdana" font-size="10" text-anchor="middle"  dominant-baseline="middle" fill="black" > 0</text>
<text x="12" y="164" font-family="Verdana" font-size="10" text-anchor="middle"  dominant-baseline="middle" fill="black" > 144</text>
<text x="12" y="308" font-family="Verdana" font-size="10" text-anchor="middle"  dominant-baseline="middle" fill="black" > 288</text>
<text x="12" y="452" font-family="Verdana" font-size="10" text-anchor="middle"  dominant-baseline="middle" fill="black" > 432</text>
<text x="12" y="596" font-family="Verdana" font-size="10" text-anchor="middle"  dominant-baseline="middle" fill="black" > 576</text>
<text x="12" y="740" font-family="Verdana" font-size="10" text-anchor="middle"  dominant-baseline="middle" fill="black" > 720</text>
<text x="50" y="7" font-family="Verdana" font-size="7" text-anchor="middle"  dominant-baseline="middle" fill="black" > C188</text>
<circle cx="50" cy="15" r="4" fill="white" stroke="black" />
<line x1="50" y1="19" x2="50" y2="454" stroke="black" />
<line x1="46" y1="458" x2="50" y2="450" stroke="blue" />
<line x1="50" y1="458" x2="54" y2="450" stroke="blue" />
<text x="50" y="466" font-family="Verdana" font-size="8" text-anchor="middle"  dominant-baseline="middle" fill="black" > 439</text>
<text x="150" y="7" font-family="Verdana" font-size="7" text-anchor="middle"  dominant-baseline="middle" fill="black" > C189</text>
<circle cx="150" cy="15" r="4" fill="white" stroke="black" />
<line x1="150" y1="19" x2="150" y2="212" stroke="black" />
<line x1="146" y1="216" x2="150" y2="208" stroke="blue" />
<line x1="150" y1="216" x2="154" y2="208" stroke="blue" />
<text x="150" y="224" font-family="Verdana" font-size="8" text-anchor="middle"  dominant-baseline="middle" fill="black" > 197</text>
<text x="400" y="7" font-family="Verdana" font-size="7" text-anchor="middle"  dominant-baseline="middle" fill="black" > C3</text>
<circle cx="400" cy="15" r="4" fill="white" stroke="black" />
<line x1="400" y1="19" x2="400" y2="533" stroke="black" />
<line x1="250" y1="533" x2="550" y2="533" stroke="black" />
<text x="425" y="525" font-family="Verdana" font-size="8" text-anchor="middle"  dominant-baseline="middle" fill="black" > 518</text>
<circle cx="250" cy="533" r="4" fill="white" stroke="black" />
<circle cx="350" cy="533" r="4" fill="white" stroke="black" />
<line x1="250" y1="537" x2="250" y2="544" stroke="black" />
<line x1="250" y1="544" x2="300" y2="547" stroke="black" />
<line x1="350" y1="537" x2="350" y2="544" stroke="black" />
<line x1="350" y1="544" x2="300" y2="547" stroke="black" />
<text x="300" y="535" font-family="Verdana" font-size="8" text-anchor="middle"  dominant-baseline="middle" fill="black" > 532</text>
<circle cx="300" cy="547" r="4" fill="white" stroke="black" />
<circle cx="450" cy="533" r="4" fill="white" stroke="black" />
<line x1="300" y1="551" x2="300" y2="549" stroke="black" />
<line x1="300" y1="549" x2="375" y2="549" stroke="black" />
<line x1="450" y1="537" x2="450" y2="549" stroke="black" />
<line x1="450" y1="549" x2="375" y2="549" stroke="black" />
<text x="375" y="537" font-family="Verdana" font-size="8" text-anchor="middle"  dominant-baseline="middle" fill="black" > 534</text>
<circle cx="375" cy="549" r="4" fill="white" stroke="black" />
<circle cx="550" cy="533" r="4" fill="white" stroke="black" />
<line x1="375" y1="553" x2="375" y2="567" stroke="black" />
<line x1="375" y1="567" x2="462" y2="573" stroke="black" />
<line x1="550" y1="537" x2="550" y2="567" stroke="black" />
<line x1="550" y1="567" x2="462" y2="573" stroke="black" />
<text x="462" y="561" font-family="Verdana" font-size="8" text-anchor="middle"  dominant-baseline="middle" fill="black" > 558</text>
<circle cx="462" cy="573" r="4" fill="white" stroke="black" />
<line x1="462" y1="577" x2="462" y2="736" stroke="black" />
<circle cx="462" cy="736" r="4" fill="white" stroke="black" />
<text x="462" y="748" font-family="Verdana" font-size="8" text-anchor="middle"  dominant-baseline="middle" fill="black" > 721</text>
<text x="650" y="7" font-family="Verdana" font-size="7" text-anchor="middle"  dominant-baseline="middle" fill="black" > C4</text>
<circle cx="650" cy="15" r="4" fill="white" stroke="black" />
<line x1="650" y1="19" x2="650" y2="111" stroke="black" />
<line x1="646" y1="107" x2="654" y2="115" stroke="red" />
<line x1="646" y1="115" x2="654" y2="107" stroke="red" />
<text x="650" y="123" font-family="Verdana" font-size="8" text-anchor="middle"  dominant-baseline="middle" fill="black" > 96</text>
<text x="750" y="7" font-family="Verdana" font-size="7" text-anchor="middle"  dominant-baseline="middle" fill="black" > C5</text>
<circle cx="750" cy="15" r="4" fill="white" stroke="black" />
<line x1="750" y1="19" x2="750" y2="18" stroke="black" />
<line x1="746" y1="14" x2="754" y2="22" stroke="red" />
<line x1="746" y1="22" x2="754" y2="14" stroke="red" />
<text x="750" y="30" font-family="Verdana" font-size="8" text-anchor="middle"  dominant-baseline="middle" fill="black" > 3</text>
<text x="850" y="7" font-family="Verdana" font-size="7" text-anchor="middle"  dominant-baseline="middle" fill="black" > C6</text>
<circle cx="850" cy="15" r="4" fill="white" stroke="black" />
<line x1="850" y1="19" x2="850" y2="111" stroke="black" />
<line x1="846" y1="115" x2="850" y2="107" stroke="blue" />
<line x1="850" y1="115" x2="854" y2="107" stroke="blue" />
<text x="850" y="123" font-family="Verdana" font-size="8" text-anchor="middle"  dominant-baseline="middle" fill="black" > 96</text>
<text x="950" y="7" font-family="Verdana" font-size="7" text-anchor="middle"  dominant-baseline="middle" fill="black" > C7</text>
<circle cx="950" cy="15" r="4" fill="white" stroke="black" />
<line x1="950" y1="19" x2="950" y2="498" stroke="black" />
<line x1="946" y1="494" x2="954" y2="502" stroke="red" />
<line x1="946" y1="502" x2="954" y2="494" stroke="red" />
<text x="950" y="510" font-family="Verdana" font-size="8" text-anchor="middle"  dominant-baseline="middle" fill="black" > 483</text>
<text x="1100" y="7" font-family="Verdana" font-size="7" text-anchor="middle"  dominant-baseline="middle" fill="black" > C8</text>
<circle cx="1100" cy="15" r="4" fill="white" stroke="black" />
<line x1="1100" y1="19" x2="1100" y2="266" stroke="black" />
<line x1="1050" y1="266" x2="1150" y2="266" stroke="black" />
<text x="1125" y="258" font-family="Verdana" font-size="8" text-anchor="middle"  dominant-baseline="middle" fill="black" > 251</text>
<circle cx="1050" cy="266" r="4" fill="white" stroke="black" />
<line x1="1050" y1="270" x2="1050" y2="295" stroke="black" />
<line x1="1046" y1="299" x2="1050" y2="291" stroke="blue" />
<line x1="1050" y1="299" x2="1054" y2="291" stroke="blue" />
<text x="1050" y="307" font-family="Verdana" font-size="8" text-anchor="middle"  dominant-baseline="middle" fill="black" > 280</text>
<circle cx="1150" cy="266" r="4" fill="white" stroke="black" />
<line x1="1150" y1="270" x2="1150" y2="505" stroke="black" />
<line x1="1146" y1="509" x2="1150" y2="501" stroke="blue" />
<line x1="1150" y1="509" x2="1154" y2="501" stroke="blue" />
<text x="1150" y="517" font-family="Verdana" font-size="8" text-anchor="middle"  dominant-baseline="middle" fill="black" > 490</text>
<text x="1400" y="7" font-family="Verdana" font-size="7" text-anchor="middle"  dominant-baseline="middle" fill="black" > C9</text>
<circle cx="1400" cy="15" r="4" fill="white" stroke="black" />
<line x1="1400" y1="19" x2="1400" y2="272" stroke="black" />
<line x1="1250" y1="272" x2="1550" y2="272" stroke="black" />
<text x="1425" y="264" font-family="Verdana" font-size="8" text-anchor="middle"  dominant-baseline="middle" fill="black" > 257</text>
<circle cx="1250" cy="272" r="4" fill="white" stroke="black" />
<circle cx="1350" cy="272" r="4" fill="white" stroke="black" />
<circle cx="1450" cy="272" r="4" fill="white" stroke="black" />
<line x1="1250" y1="276" x2="1250" y2="305" stroke="black" />
<line x1="1250" y1="305" x2="1350" y2="315" stroke="black" />
<line x1="1350" y1="276" x2="1350" y2="305" stroke="black" />
<line x1="1350" y1="305" x2="1350" y2="315" stroke="black" />
<line x1="1450" y1="276" x2="1450" y2="305" stroke="black" />
<line x1="1450" y1="305" x2="1350" y2="315" stroke="black" />
<text x="1350" y="303" font-family="Verdana" font-size="8" text-anchor="middle"  dominant-baseline="middle" fill="black" > 300</text>
<circle cx="1350" cy="315" r="4" fill="white" stroke="black" />
<line x1="1350" y1="319" x2="1350" y2="342" stroke="black" />
<line x1="1346" y1="338" x2="1354" y2="346" stroke="red" />
<line x1="1346" y1="346" x2="1354" y2="338" stroke="red" />
<text x="1350" y="354" font-family="Verdana" font-size="8" text-anchor="middle"  dominant-baseline="middle" fill="black" > 327</text>
<circle cx="1550" cy="272" r="4" fill="white" stroke="black" />
<line x1="1550" y1="276" x2="1550" y2="674" stroke="black" />
<line x1="1546" y1="670" x2="1554" y2="678" stroke="red" />
<line x1="1546" y1="678" x2="1554" y2="670" stroke="red" />
<text x="1550" y="686" font-family="Verdana" font-size="8" text-anchor="middle"  dominant-baseline="middle" fill="black" > 659</text>
<text x="1800" y="7" font-family="Verdana" font-size="7" text-anchor="middle"  dominant-baseline="middle" fill="black" > C10</text>
<circle cx="1800" cy="15" r="4" fill="white" stroke="black" />
<line x1="1800" y1="19" x2="1800" y2="502" stroke="black" />
<line x1="1650" y1="502" x2="1950" y2="502" stroke="black" />
<text x="1825" y="494" font-family="Verdana" font-size="8" text-anchor="middle"  dominant-baseline="middle" fill="black" > 487</text>
<circle cx="1650" cy="502" r="4" fill="white" stroke="black" />
<circle cx="1750" cy="502" r="4" fill="white" stroke="black" />
<line x1="1650" y1="506" x2="1650" y2="517" stroke="black" />
<line x1="1650" y1="517" x2="1700" y2="522" stroke="black" />
<line x1="1750" y1="506" x2="1750" y2="517" stroke="black" />
<line x1="1750" y1="517" x2="1700" y2="522" stroke="black" />
<text x="1700" y="510" font-family="Verdana" font-size="8" text-anchor="middle"  dominant-baseline="middle" fill="black" > 507</text>
<circle cx="1700" cy="522" r="4" fill="white" stroke="black" />
<circle cx="1850" cy="502" r="4" fill="white" stroke="black" />
<circle cx="1950" cy="502" r="4" fill="white" stroke="black" />
<line x1="1850" y1="506" x2="1850" y2="517" stroke="black" />
<line x1="1850" y1="517" x2="1900" y2="522" stroke="black" />
<line x1="1950" y1="506" x2="1950" y2="517" stroke="black" />
<line x1="1950" y1="517" x2="1900" y2="522" stroke="black" />
<text x="1900" y="510" font-family="Verdana" font-size="8" text-anchor="middle"  dominant-baseline="middle" fill="black" > 507</text>
<circle cx="1900" cy="522" r="4" fill="white" stroke="black" />
<line x1="1700" y1="526" x2="1700" y2="532" stroke="black" />
<line x1="1700" y1="532" x2="1800" y2="535" stroke="black" />
<line x1="1900" y1="526" x2="1900" y2="532" stroke="black" />
<line x1="1900" y1="532" x2="1800" y2="535" stroke="black" />
<text x="1800" y="523" font-family="Verdana" font-size="8" text-anchor="middle"  dominant-baseline="middle" fill="black" > 520</text>
<circle cx="1800" cy="535" r="4" fill="white" stroke="black" />
<line x1="1800" y1="539" x2="1800" y2="567" stroke="black" />
<line x1="1796" y1="563" x2="1804" y2="571" stroke="red" />
<line x1="1796" y1="571" x2="1804" y2="563" stroke="red" />
<text x="1800" y="579" font-family="Verdana" font-size="8" text-anchor="middle"  dominant-baseline="middle" fill="black" > 552</text>
<text x="2200" y="7" font-family="Verdana" font-size="7" text-anchor="middle"  dominant-baseline="middle" fill="black" > C11</text>
<circle cx="2200" cy="15" r="4" fill="white" stroke="black" />
<line x1="2200" y1="19" x2="2200" y2="388" stroke="black" />
<line x1="2050" y1="388" x2="2350" y2="388" stroke="black" />
<text x="2225" y="380" font-family="Verdana" font-size="8" text-anchor="middle"  dominant-baseline="middle" fill="black" > 373</text>
<circle cx="2050" cy="388" r="4" fill="white" stroke="black" />
<circle cx="2150" cy="388" r="4" fill="white" stroke="black" />
<circle cx="2250" cy="388" r="4" fill="white" stroke="black" />
<circle cx="2350" cy="388" r="4" fill="white" stroke="black" />
<line x1="2050" y1="392" x2="2050" y2="400" stroke="black" />
<line x1="2050" y1="400" x2="2200" y2="404" stroke="black" />
<line x1="2150" y1="392" x2="2150" y2="400" stroke="black" />
<line x1="2150" y1="400" x2="2200" y2="404" stroke="black" />
<line x1="2250" y1="392" x2="2250" y2="400" stroke="black" />
<line x1="2250" y1="400" x2="2200" y2="404" stroke="black" />
<line x1="2350" y1="392" x2="2350" y2="400" stroke="black" />
<line x1="2350" y1="400" x2="2200" y2="404" stroke="black" />
<text x="2200" y="392" font-family="Verdana" font-size="8" text-anchor="middle"  dominant-baseline="middle" fill="black" > 389</text>
<circle cx="2200" cy="404" r="4" fill="white" stroke="black" />
<line x1="2200" y1="408" x2="2200" y2="577" stroke="black" />
<line x1="2100" y1="577" x2="2300" y2="577" stroke="black" />
<text x="2225" y="569" font-family="Verdana" font-size="8" text-anchor="middle"  dominant-baseline="middle" fill="black" > 562</text>
<circle cx="2100" cy="577" r="4" fill="white" stroke="black" />
<circle cx="2200" cy="577" r="4" fill="white" stroke="black" />
<line x1="2100" y1="581" x2="2100" y2="607" stroke="black" />
<line x1="2100" y1="607" x2="2150" y2="616" stroke="black" />
<line x1="2200" y1="581" x2="2200" y2="607" stroke="black" />
<line x1="2200" y1="607" x2="2150" y2="616" stroke="black" />
<text x="2150" y="604" font-family="Verdana" font-size="8" text-anchor="middle"  dominant-baseline="middle" fill="black" > 601</text>
<circle cx="2150" cy="616" r="4" fill="white" stroke="black" />
<circle cx="2300" cy="577" r="4" fill="white" stroke="black" />
<line x1="2150" y1="620" x2="2150" y2="634" stroke="black" />
<line x1="2150" y1="634" x2="2225" y2="640" stroke="black" />
<line x1="2300" y1="581" x2="2300" y2="634" stroke="black" />
<line x1="2300" y1="634" x2="2225" y2="640" stroke="black" />
<text x="2225" y="628" font-family="Verdana" font-size="8" text-anchor="middle"  dominant-baseline="middle" fill="black" > 625</text>
<circle cx="2225" cy="640" r="4" fill="white" stroke="black" />
<line x1="2225" y1="644" x2="2225" y2="670" stroke="black" />
<line x1="2221" y1="666" x2="2229" y2="674" stroke="red" />
<line x1="2221" y1="674" x2="2229" y2="666" stroke="red" />
<text x="2225" y="682" font-family="Verdana" font-size="8" text-anchor="middle"  dominant-baseline="middle" fill="black" > 655</text>
</svg>
