<?xml version="1.0" encoding="utf-8"?>
<svg xmlns="http://www.w3.org/2000/svg" version="1.1" width="6650" height="750">
<rect width="6650" height="15" x="0" y="0" fill="white" />
<rect width="6650" height="15" x="0" y="735" fill="white" />
<rect width="25" height="750" x="0" y="0" fill="white" />
<rect width="25" height="750" x="6625" y="0" fill="white" />
<rect width="6610" height="144" x="25" y="15" fill="ghostwhite" />
<rect width="6610" height="144" x="25" y="159" fill="snow" />
<rect width="6610" height="144" x="25" y="303" fill="ghostwhite" />
<rect width="6610" height="144" x="25" y="447" fill="snow" />
<rect width="6610" height="144" x="25" y="591" fill="ghostwhite" />
<text x="12" y="87" font-family="Verdana" font-size="10" text-anchor="middle"  dominant-baseline="middle" fill="red" > D0</text>
<text x="12" y="231" font-family="Verdana" font-size="10" text-anchor="middle"  dominant-baseline="middle" fill="red" > D1</text>
<text x="12" y="375" font-family="Verdana" font-size="10" text-anchor="middle"  dominant-baseline="middle" fill="red" > D2</text>
<text x="12" y="519" font-family="Verdana" font-size="10" text-anchor="middle"  dominant-baseline="middle" fill="red" > D3</text>
<text x="12" y="663" font-family="Verdana" font-size="10" text-anchor="middle"  dominant-baseline="middle" fill="red" > D4</text>
<text x="12" y="20" font-family="Verdana" font-size="10" text-anchor="middle"  dominant-baseline="middle" fill="black" > 0</text>
<text x="12" y="164" font-family="Verdana" font-size="10" text-anchor="middle"  dominant-baseline="middle" fill="black" > 144</text>
<text x="12" y="308" font-family="Verdana" font-size="10" text-anchor="middle"  dominant-baseline="middle" fill="black" > 288</text>
<text x="12" y="452" font-family="Verdana" font-size="10" text-anchor="middle"  dominant-baseline="middle" fill="black" > 432</text>
<text x="12" y="596" font-family="Verdana" font-size="10" text-anchor="middle"  dominant-baseline="middle" fill="black" > 576</text>
<text x="12" y="740" font-family="Verdana" font-size="10" text-anchor="middle"  dominant-baseline="middle" fill="black" > 720</text>
<text x="200" y="7" font-family="Verdana" font-size="7" text-anchor="middle"  dominant-baseline="middle" fill="black" > C1</text>
<circle cx="200" cy="15" r="4" fill="white" stroke="black" />
<line x1="200" y1="19" x2="200" y2="334" stroke="black" />
<line x1="50" y1="334" x2="350" y2="334" stroke="black" />
<text x="225" y="326" font-family="Verdana" font-size="8" text-anchor="middle"  dominant-baseline="middle" fill="black" > 319</text>
<circle cx="50" cy="334" r="4" fill="white" stroke="black" />
<circle cx="150" cy="334" r="4" fill="white" stroke="black" />
<line x1="50" y1="338" x2="50" y2="348" stroke="black" />
<line x1="50" y1="348" x2="100" y2="352" stroke="black" />
<line x1="150" y1="338" x2="150" y2="348" stroke="black" />
<line x1="150" y1="348" x2="100" y2="352" stroke="black" />
<text x="100" y="340" font-family="Verdana" font-size="8" text-anchor="middle"  dominant-baseline="middle" fill="black" > 337</text>
<circle cx="100" cy="352" r="4" fill="white" stroke="black" />
<circle cx="250" cy="334" r="4" fill="white" stroke="black" />
<line x1="100" y1="356" x2="100" y2="355" stroke="black" />
<line x1="100" y1="355" x2="175" y2="355" stroke="black" />
<line x1="250" y1="338" x2="250" y2="355" stroke="black" />
<line x1="250" y1="355" x2="175" y2="355" stroke="black" />
<text x="175" y="343" font-family="Verdana" font-size="8" text-anchor="middle"  dominant-baseline="middle" fill="black" > 340</text>
<circle cx="175" cy="355" r="4" fill="white" stroke="black" />
<circle cx="350" cy="334" r="4" fill="white" stroke="black" />
<line x1="175" y1="359" x2="175" y2="364" stroke="black" />
<line x1="175" y1="364" x2="262" y2="367" stroke="black" />
<line x1="350" y1="338" x2="350" y2="364" stroke="black" />
<line x1="350" y1="364" x2="262" y2="367" stroke="black" />
<text x="262" y="355" font-family="Verdana" font-size="8" text-anchor="middle"  dominant-baseline="middle" fill="black" > 352</text>
<circle cx="262" cy="367" r="4" fill="white" stroke="black" />
<line x1="262" y1="371" x2="262" y2="734" stroke="black" />
<line x1="258" y1="730" x2="266" y2="738" stroke="red" />
<line x1="258" y1="738" x2="266" y2="730" stroke="red" />
<text x="262" y="746" font-family="Verdana" font-size="8" text-anchor="middle"  dominant-baseline="middle" fill="black" > 719</text>
<text x="450" y="7" font-family="Verdana" font-size="7" text-anchor="middle"  dominant-baseline="middle" fill="black" > C2</text>
<circle cx="450" cy="15" r="4" fill="white" stroke="black" />
<line x1="450" y1="19" x2="450" y2="40" stroke="black" />
<line x1="446" y1="44" x2="450" y2="36" stroke="blue" />
<line x1="450" y1="44" x2="454" y2="36" stroke="blue" />
<text x="450" y="52" font-family="Verdana" font-size="8" text-anchor="middle"  dominant-baseline="middle" fill="black" > 25</text>
<text x="600" y="7" font-family="Verdana" font-size="7" text-anchor="middle"  dominant-baseline="middle" fill="black" > C3</text>
<circle cx="600" cy="15" r="4" fill="white" stroke="black" />
<line x1="600" y1="19" x2="600" y2="196" stroke="black" />
<line x1="550" y1="196" x2="650" y2="196" stroke="black" />
<text x="625" y="188" font-family="Verdana" font-size="8" text-anchor="middle"  dominant-baseline="middle" fill="black" > 181</text>
<circle cx="550" cy="196" r="4" fill="white" stroke="black" />
<line x1="550" y1="200" x2="550" y2="443" stroke="black" />
<line x1="546" y1="447" x2="550" y2="439" stroke="blue" />
<line x1="550" y1="447" x2="554" y2="439" stroke="blue" />
<text x="550" y="455" font-family="Verdana" font-size="8" text-anchor="middle"  dominant-baseline="middle" fill="black" > 428</text>
<circle cx="650" cy="196" r="4" fill="white" stroke="black" />
<line x1="650" y1="200" x2="650" y2="607" stroke="black" />
<line x1="646" y1="603" x2="654" y2="611" stroke="red" />
<line x1="646" y1="611" x2="654" y2="603" stroke="red" />
<text x="650" y="619" font-family="Verdana" font-size="8" text-anchor="middle"  dominant-baseline="middle" fill="black" > 592</text>
<text x="900" y="7" font-family="Verdana" font-size="7" text-anchor="middle"  dominant-baseline="middle" fill="black" > C4</text>
<circle cx="900" cy="15" r="4" fill="white" stroke="black" />
<line x1="900" y1="19" x2="900" y2="317" stroke="black" />
<line x1="750" y1="317" x2="1050" y2="317" stroke="black" />
<text x="925" y="309" font-family="Verdana" font-size="8" text-anchor="middle"  dominant-baseline="middle" fill="black" > 302</text>
<circle cx="750" cy="317" r="4" fill="white" stroke="black" />
<circle cx="850" cy="317" r="4" fill="white" stroke="black" />
<line x1="750" y1="321" x2="750" y2="322" stroke="black" />
<line x1="750" y1="322" x2="800" y2="323" stroke="black" />
<line x1="850" y1="321" x2="850" y2="322" stroke="black" />
<line x1="850" y1="322" x2="800" y2="323" stroke="black" />
<text x="800" y="311" font-family="Verdana" font-size="8" text-anchor="middle"  dominant-baseline="middle" fill="black" > 308</text>
<circle cx="800" cy="323" r="4" fill="white" stroke="black" />
<circle cx="950" cy="317" r="4" fill="white" stroke="black" />
<circle cx="1050" cy="317" r="4" fill="white" stroke="black" />
<line x1="950" y1="321" x2="950" y2="327" stroke="black" />
<line x1="950" y1="327" x2="1000" y2="330" stroke="black" />
<line x1="1050" y1="321" x2="1050" y2="327" stroke="black" />
<line x1="1050" y1="327" x2="1000" y2="330" stroke="black" />
<text x="1000" y="318" font-family="Verdana" font-size="8" text-anchor="middle"  dominant-baseline="middle" fill="black" > 315</text>
<circle cx="1000" cy="330" r="4" fill="white" stroke="black" />
<line x1="800" y1="327" x2="800" y2="333" stroke="black" />
<line x1="800" y1="333" x2="900" y2="333" stroke="black" />
<line x1="1000" y1="334" x2="1000" y2="333" stroke="black" />
<line x1="1000" y1="333" x2="900" y2="333" stroke="black" />
<text x="900" y="321" font-family="Verdana" font-size="8" text-anchor="middle"  dominant-baseline="middle" fill="black" > 318</text>
<circle cx="900" cy="333" r="4" fill="white" stroke="black" />
<line x1="900" y1="337" x2="900" y2="659" stroke="black" />
<line x1="896" y1="655" x2="904" y2="663" stroke="red" />
<line x1="896" y1="663" x2="904" y2="655" stroke="red" />
<text x="900" y="671" font-family="Verdana" font-size="8" text-anchor="middle"  dominant-baseline="middle" fill="black" > 644</text>
<text x="1400" y="7" font-family="Verdana" font-size="7" text-anchor="middle"  dominant-baseline="middle" fill="black" > C5</text>
<circle cx="1400" cy="15" r="4" fill="white" stroke="black" />
<line x1="1400" y1="19" x2="1400" y2="385" stroke="black" />
<line x1="1150" y1="385" x2="1650" y2="385" stroke="black" />
<text x="1425" y="377" font-family="Verdana" font-size="8" text-anchor="middle"  dominant-baseline="middle" fill="black" > 370</text>
<circle cx="1150" cy="385" r="4" fill="white" stroke="black" />
<circle cx="1250" cy="385" r="4" fill="white" stroke="black" />
<line x1="1150" y1="389" x2="1150" y2="400" stroke="black" />
<line x1="1150" y1="400" x2="1200" y2="404" stroke="black" />
<line x1="1250" y1="389" x2="1250" y2="400" stroke="black" />
<line x1="1250" y1="400" x2="1200" y2="404" stroke="black" />
<text x="1200" y="392" font-family="Verdana" font-size="8" text-anchor="middle"  dominant-baseline="middle" fill="black" > 389</text>
<circle cx="1200" cy="404" r="4" fill="white" stroke="black" />
<circle cx="1350" cy="385" r="4" fill="white" stroke="black" />
<circle cx="1450" cy="385" r="4" fill="white" stroke="black" />
<line x1="1350" y1="389" x2="1350" y2="390" stroke="black" />
<line x1="1350" y1="390" x2="1400" y2="391" stroke="black" />
<line x1="1450" y1="389" x2="1450" y2="390" stroke="black" />
<line x1="1450" y1="390" x2="1400" y2="391" stroke="black" />
<text x="1400" y="379" font-family="Verdana" font-size="8" text-anchor="middle"  dominant-baseline="middle" fill="black" > 376</text>
<circle cx="1400" cy="391" r="4" fill="white" stroke="black" />
<circle cx="1550" cy="385" r="4" fill="white" stroke="black" />
<line x1="1200" y1="408" x2="1200" y2="412" stroke="black" />
<line x1="1200" y1="412" x2="1375" y2="414" stroke="black" />
<line x1="1400" y1="395" x2="1400" y2="412" stroke="black" />
<line x1="1400" y1="412" x2="1375" y2="414" stroke="black" />
<line x1="1550" y1="389" x2="1550" y2="412" stroke="black" />
<line x1="1550" y1="412" x2="1375" y2="414" stroke="black" />
<text x="1375" y="402" font-family="Verdana" font-size="8" text-anchor="middle"  dominant-baseline="middle" fill="black" > 399</text>
<circle cx="1375" cy="414" r="4" fill="white" stroke="black" />
<circle cx="1650" cy="385" r="4" fill="white" stroke="black" />
<line x1="1375" y1="418" x2="1375" y2="531" stroke="black" />
<line x1="1375" y1="531" x2="1512" y2="569" stroke="black" />
<line x1="1650" y1="389" x2="1650" y2="531" stroke="black" />
<line x1="1650" y1="531" x2="1512" y2="569" stroke="black" />
<text x="1512" y="557" font-family="Verdana" font-size="8" text-anchor="middle"  dominant-baseline="middle" fill="black" > 554</text>
<circle cx="1512" cy="569" r="4" fill="white" stroke="black" />
<line x1="1512" y1="573" x2="1512" y2="576" stroke="black" />
<line x1="1508" y1="572" x2="1516" y2="580" stroke="red" />
<line x1="1508" y1="580" x2="1516" y2="572" stroke="red" />
<text x="1512" y="588" font-family="Verdana" font-size="8" text-anchor="middle"  dominant-baseline="middle" fill="black" > 561</text>
<text x="1850" y="7" font-family="Verdana" font-size="7" text-anchor="middle"  dominant-baseline="middle" fill="black" > C6</text>
<circle cx="1850" cy="15" r="4" fill="white" stroke="black" />
<line x1="1850" y1="19" x2="1850" y2="340" stroke="black" />
<line x1="1750" y1="340" x2="1950" y2="340" stroke="black" />
<text x="1875" y="332" font-family="Verdana" font-size="8" text-anchor="middle"  dominant-baseline="middle" fill="black" > 325</text>
<circle cx="1750" cy="340" r="4" fill="white" stroke="black" />
<circle cx="1850" cy="340" r="4" fill="white" stroke="black" />
<circle cx="1950" cy="340" r="4" fill="white" stroke="black" />
<line x1="1750" y1="344" x2="1750" y2="354" stroke="black" />
<line x1="1750" y1="354" x2="1850" y2="358" stroke="black" />
<line x1="1850" y1="344" x2="1850" y2="354" stroke="black" />
<line x1="1850" y1="354" x2="1850" y2="358" stroke="black" />
<line x1="1950" y1="344" x2="1950" y2="354" stroke="black" />
<line x1="1950" y1="354" x2="1850" y2="358" stroke="black" />
<text x="1850" y="346" font-family="Verdana" font-size="8" text-anchor="middle"  dominant-baseline="middle" fill="black" > 343</text>
<circle cx="1850" cy="358" r="4" fill="white" stroke="black" />
<line x1="1850" y1="362" x2="1850" y2="547" stroke="black" />
<line x1="1846" y1="543" x2="1854" y2="551" stroke="red" />
<line x1="1846" y1="551" x2="1854" y2="543" stroke="red" />
<text x="1850" y="559" font-family="Verdana" font-size="8" text-anchor="middle"  dominant-baseline="middle" fill="black" > 532</text>
<text x="2250" y="7" font-family="Verdana" font-size="7" text-anchor="middle"  dominant-baseline="middle" fill="black" > C7</text>
<circle cx="2250" cy="15" r="4" fill="white" stroke="black" />
<line x1="2250" y1="19" x2="2250" y2="548" stroke="black" />
<line x1="2050" y1="548" x2="2450" y2="548" stroke="black" />
<text x="2275" y="540" font-family="Verdana" font-size="8" text-anchor="middle"  dominant-baseline="middle" fill="black" > 533</text>
<circle cx="2050" cy="548" r="4" fill="white" stroke="black" />
<circle cx="2150" cy="548" r="4" fill="white" stroke="black" />
<line x1="2050" y1="552" x2="2050" y2="555" stroke="black" />
<line x1="2050" y1="555" x2="2100" y2="557" stroke="black" />
<line x1="2150" y1="552" x2="2150" y2="555" stroke="black" />
<line x1="2150" y1="555" x2="2100" y2="557" stroke="black" />
<text x="2100" y="545" font-family="Verdana" font-size="8" text-anchor="middle"  dominant-baseline="middle" fill="black" > 542</text>
<circle cx="2100" cy="557" r="4" fill="white" stroke="black" />
<circle cx="2250" cy="548" r="4" fill="white" stroke="black" />
<line x1="2100" y1="561" x2="2100" y2="563" stroke="black" />
<line x1="2100" y1="563" x2="2175" y2="564" stroke="black" />
<line x1="2250" y1="552" x2="2250" y2="563" stroke="black" />
<line x1="2250" y1="563" x2="2175" y2="564" stroke="black" />
<text x="2175" y="552" font-family="Verdana" font-size="8" text-anchor="middle"  dominant-baseline="middle" fill="black" > 549</text>
<circle cx="2175" cy="564" r="4" fill="white" stroke="black" />
<circle cx="2350" cy="548" r="4" fill="white" stroke="black" />
<circle cx="2450" cy="548" r="4" fill="white" stroke="black" />
<line x1="2175" y1="568" x2="2175" y2="570" stroke="black" />
<line x1="2175" y1="570" x2="2312" y2="571" stroke="black" />
<line x1="2350" y1="552" x2="2350" y2="570" stroke="black" />
<line x1="2350" y1="570" x2="2312" y2="571" stroke="black" />
<line x1="2450" y1="552" x2="2450" y2="570" stroke="black" />
<line x1="2450" y1="570" x2="2312" y2="571" stroke="black" />
<text x="2312" y="559" font-family="Verdana" font-size="8" text-anchor="middle"  dominant-baseline="middle" fill="black" > 556</text>
<circle cx="2312" cy="571" r="4" fill="white" stroke="black" />
<line x1="2312" y1="575" x2="2312" y2="670" stroke="black" />
<line x1="2308" y1="666" x2="2316" y2="674" stroke="red" />
<line x1="2308" y1="674" x2="2316" y2="666" stroke="red" />
<text x="2312" y="682" font-family="Verdana" font-size="8" text-anchor="middle"  dominant-baseline="middle" fill="black" > 655</text>
<text x="2700" y="7" font-family="Verdana" font-size="7" text-anchor="middle"  dominant-baseline="middle" fill="black" > C8</text>
<circle cx="2700" cy="15" r="4" fill="white" stroke="black" />
<line x1="2700" y1="19" x2="2700" y2="482" stroke="black" />
<line x1="2550" y1="482" x2="2850" y2="482" stroke="black" />
<text x="2725" y="474" font-family="Verdana" font-size="8" text-anchor="middle"  dominant-baseline="middle" fill="black" > 467</text>
<circle cx="2550" cy="482" r="4" fill="white" stroke="black" />
<circle cx="2650" cy="482" r="4" fill="white" stroke="black" />
<line x1="2550" y1="486" x2="2550" y2="494" stroke="black" />
<line x1="2550" y1="494" x2="2600" y2="497" stroke="black" />
<line x1="2650" y1="486" x2="2650" y2="494" stroke="black" />
<line x1="2650" y1="494" x2="2600" y2="497" stroke="black" />
<text x="2600" y="485" font-family="Verdana" font-size="8" text-anchor="middle"  dominant-baseline="middle" fill="black" > 482</text>
<circle cx="2600" cy="497" r="4" fill="white" stroke="black" />
<circle cx="2750" cy="482" r="4" fill="white" stroke="black" />
<line x1="2600" y1="501" x2="2600" y2="499" stroke="black" />
<line x1="2600" y1="499" x2="2675" y2="499" stroke="black" />
<line x1="2750" y1="486" x2="2750" y2="499" stroke="black" />
<line x1="2750" y1="499" x2="2675" y2="499" stroke="black" />
<text x="2675" y="487" font-family="Verdana" font-size="8" text-anchor="middle"  dominant-baseline="middle" fill="black" > 484</text>
<circle cx="2675" cy="499" r="4" fill="white" stroke="black" />
<circle cx="2850" cy="482" r="4" fill="white" stroke="black" />
<line x1="2675" y1="503" x2="2675" y2="504" stroke="black" />
<line x1="2675" y1="504" x2="2762" y2="505" stroke="black" />
<line x1="2850" y1="486" x2="2850" y2="504" stroke="black" />
<line x1="2850" y1="504" x2="2762" y2="505" stroke="black" />
<text x="2762" y="493" font-family="Verdana" font-size="8" text-anchor="middle"  dominant-baseline="middle" fill="black" > 490</text>
<circle cx="2762" cy="505" r="4" fill="white" stroke="black" />
<line x1="2762" y1="509" x2="2762" y2="736" stroke="black" />
<circle cx="2762" cy="736" r="4" fill="white" stroke="black" />
<text x="2762" y="748" font-family="Verdana" font-size="8" text-anchor="middle"  dominant-baseline="middle" fill="black" > 721</text>
<text x="3100" y="7" font-family="Verdana" font-size="7" text-anchor="middle"  dominant-baseline="middle" fill="black" > C9</text>
<circle cx="3100" cy="15" r="4" fill="white" stroke="black" />
<line x1="3100" y1="19" x2="3100" y2="312" stroke="black" />
<line x1="2950" y1="312" x2="3250" y2="312" stroke="black" />
<text x="3125" y="304" font-family="Verdana" font-size="8" text-anchor="middle"  dominant-baseline="middle" fill="black" > 297</text>
<circle cx="2950" cy="312" r="4" fill="white" stroke="black" />
<circle cx="3050" cy="312" r="4" fill="white" stroke="black" />
<circle cx="3150" cy="312" r="4" fill="white" stroke="black" />
<circle cx="3250" cy="312" r="4" fill="white" stroke="black" />
<line x1="2950" y1="316" x2="2950" y2="332" stroke="black" />
<line x1="2950" y1="332" x2="3100" y2="338" stroke="black" />
<line x1="3050" y1="316" x2="3050" y2="332" stroke="black" />
<line x1="3050" y1="332" x2="3100" y2="338" stroke="black" />
<line x1="3150" y1="316" x2="3150" y2="332" stroke="black" />
<line x1="3150" y1="332" x2="3100" y2="338" stroke="black" />
<line x1="3250" y1="316" x2="3250" y2="332" stroke="black" />
<line x1="3250" y1="332" x2="3100" y2="338" stroke="black" />
<text x="3100" y="326" font-family="Verdana" font-size="8" text-anchor="middle"  dominant-baseline="middle" fill="black" > 323</text>
<circle cx="3100" cy="338" r="4" fill="white" stroke="black" />
<line x1="3100" y1="342" x2="3100" y2="629" stroke="black" />
<line x1="3096" y1="625" x2="3104" y2="633" stroke="red" />
<line x1="3096" y1="633" x2="3104" y2="625" stroke="red" />
<text x="3100" y="641" font-family="Verdana" font-size="8" text-anchor="middle"  dominant-baseline="middle" fill="black" > 614</text>
<text x="3500" y="7" font-family="Verdana" font-size="7" text-anchor="middle"  dominant-baseline="middle" fill="black" > C10</text>
<circle cx="3500" cy="15" r="4" fill="white" stroke="black" />
<line x1="3500" y1="19" x2="3500" y2="365" stroke="black" />
<line x1="3350" y1="365" x2="3650" y2="365" stroke="black" />
<text x="3525" y="357" font-family="Verdana" font-size="8" text-anchor="middle"  dominant-baseline="middle" fill="black" > 350</text>
<circle cx="3350" cy="365" r="4" fill="white" stroke="black" />
<line x1="3350" y1="369" x2="3350" y2="391" stroke="black" />
<line x1="3346" y1="387" x2="3354" y2="395" stroke="red" />
<line x1="3346" y1="395" x2="3354" y2="387" stroke="red" />
<text x="3350" y="403" font-family="Verdana" font-size="8" text-anchor="middle"  dominant-baseline="middle" fill="black" > 376</text>
<circle cx="3450" cy="365" r="4" fill="white" stroke="black" />
<circle cx="3550" cy="365" r="4" fill="white" stroke="black" />
<line x1="3450" y1="369" x2="3450" y2="373" stroke="black" />
<line x1="3450" y1="373" x2="3500" y2="375" stroke="black" />
<line x1="3550" y1="369" x2="3550" y2="373" stroke="black" />
<line x1="3550" y1="373" x2="3500" y2="375" stroke="black" />
<text x="3500" y="363" font-family="Verdana" font-size="8" text-anchor="middle"  dominant-baseline="middle" fill="black" > 360</text>
<circle cx="3500" cy="375" r="4" fill="white" stroke="black" />
<circle cx="3650" cy="365" r="4" fill="white" stroke="black" />
<line x1="3500" y1="379" x2="3500" y2="420" stroke="black" />
<line x1="3500" y1="420" x2="3575" y2="435" stroke="black" />
<line x1="3650" y1="369" x2="3650" y2="420" stroke="black" />
<line x1="3650" y1="420" x2="3575" y2="435" stroke="black" />
<text x="3575" y="423" font-family="Verdana" font-size="8" text-anchor="middle"  dominant-baseline="middle" fill="black" > 420</text>
<circle cx="3575" cy="435" r="4" fill="white" stroke="black" />
<line x1="3575" y1="439" x2="3575" y2="471" stroke="black" />
<line x1="3571" y1="467" x2="3579" y2="475" stroke="red" />
<line x1="3571" y1="475" x2="3579" y2="467" stroke="red" />
<text x="3575" y="483" font-family="Verdana" font-size="8" text-anchor="middle"  dominant-baseline="middle" fill="black" > 456</text>
<text x="3750" y="7" font-family="Verdana" font-size="7" text-anchor="middle"  dominant-baseline="middle" fill="black" > C11</text>
<circle cx="3750" cy="15" r="4" fill="white" stroke="black" />
<line x1="3750" y1="19" x2="3750" y2="428" stroke="black" />
<line x1="3746" y1="424" x2="3754" y2="432" stroke="red" />
<line x1="3746" y1="432" x2="3754" y2="424" stroke="red" />
<text x="3750" y="440" font-family="Verdana" font-size="8" text-anchor="middle"  dominant-baseline="middle" fill="black" > 413</text>
<text x="4000" y="7" font-family="Verdana" font-size="7" text-anchor="middle"  dominant-baseline="middle" fill="black" > C12</text>
<circle cx="4000" cy="15" r="4" fill="white" stroke="black" />
<line x1="4000" y1="19" x2="4000" y2="257" stroke="black" />
<line x1="3850" y1="257" x2="4150" y2="257" stroke="black" />
<text x="4025" y="249" font-family="Verdana" font-size="8" text-anchor="middle"  dominant-baseline="middle" fill="black" > 242</text>
<circle cx="3850" cy="257" r="4" fill="white" stroke="black" />
<circle cx="3950" cy="257" r="4" fill="white" stroke="black" />
<line x1="3850" y1="261" x2="3850" y2="275" stroke="black" />
<line x1="3850" y1="275" x2="3900" y2="280" stroke="black" />
<line x1="3950" y1="261" x2="3950" y2="275" stroke="black" />
<line x1="3950" y1="275" x2="3900" y2="280" stroke="black" />
<text x="3900" y="268" font-family="Verdana" font-size="8" text-anchor="middle"  dominant-baseline="middle" fill="black" > 265</text>
<circle cx="3900" cy="280" r="4" fill="white" stroke="black" />
<circle cx="4050" cy="257" r="4" fill="white" stroke="black" />
<circle cx="4150" cy="257" r="4" fill="white" stroke="black" />
<line x1="4050" y1="261" x2="4050" y2="268" stroke="black" />
<line x1="4050" y1="268" x2="4100" y2="271" stroke="black" />
<line x1="4150" y1="261" x2="4150" y2="268" stroke="black" />
<line x1="4150" y1="268" x2="4100" y2="271" stroke="black" />
<text x="4100" y="259" font-family="Verdana" font-size="8" text-anchor="middle"  dominant-baseline="middle" fill="black" > 256</text>
<circle cx="4100" cy="271" r="4" fill="white" stroke="black" />
<line x1="3900" y1="284" x2="3900" y2="299" stroke="black" />
<line x1="3900" y1="299" x2="4000" y2="305" stroke="black" />
<line x1="4100" y1="275" x2="4100" y2="299" stroke="black" />
<line x1="4100" y1="299" x2="4000" y2="305" stroke="black" />
<text x="4000" y="293" font-family="Verdana" font-size="8" text-anchor="middle"  dominant-baseline="middle" fill="black" > 290</text>
<circle cx="4000" cy="305" r="4" fill="white" stroke="black" />
<line x1="4000" y1="309" x2="4000" y2="736" stroke="black" />
<circle cx="4000" cy="736" r="4" fill="white" stroke="black" />
<text x="4000" y="748" font-family="Verdana" font-size="8" text-anchor="middle"  dominant-baseline="middle" fill="black" > 721</text>
<text x="4400" y="7" font-family="Verdana" font-size="7" text-anchor="middle"  dominant-baseline="middle" fill="black" > C13</text>
<circle cx="4400" cy="15" r="4" fill="white" stroke="black" />
<line x1="4400" y1="19" x2="4400" y2="240" stroke="black" />
<line x1="4250" y1="240" x2="4550" y2="240" stroke="black" />
<text x="4425" y="232" font-family="Verdana" font-size="8" text-anchor="middle"  dominant-baseline="middle" fill="black" > 225</text>
<circle cx="4250" cy="240" r="4" fill="white" stroke="black" />
<circle cx="4350" cy="240" r="4" fill="white" stroke="black" />
<line x1="4250" y1="244" x2="4250" y2="243" stroke="black" />
<line x1="4250" y1="243" x2="4300" y2="244" stroke="black" />
<line x1="4350" y1="244" x2="4350" y2="243" stroke="black" />
<line x1="4350" y1="243" x2="4300" y2="244" stroke="black" />
<text x="4300" y="232" font-family="Verdana" font-size="8" text-anchor="middle"  dominant-baseline="middle" fill="black" > 229</text>
<circle cx="4300" cy="244" r="4" fill="white" stroke="black" />
<circle cx="4450" cy="240" r="4" fill="white" stroke="black" />
<circle cx="4550" cy="240" r="4" fill="white" stroke="black" />
<line x1="4450" y1="244" x2="4450" y2="243" stroke="black" />
<line x1="4450" y1="243" x2="4500" y2="243" stroke="black" />
<line x1="4550" y1="244" x2="4550" y2="243" stroke="black" />
<line x1="4550" y1="243" x2="4500" y2="243" stroke="black" />
<text x="4500" y="231" font-family="Verdana" font-size="8" text-anchor="middle"  dominant-baseline="middle" fill="black" > 228</text>
<circle cx="4500" cy="243" r="4" fill="white" stroke="black" />
<line x1="4300" y1="248" x2="4300" y2="346" stroke="black" />
<line x1="4300" y1="346" x2="4400" y2="379" stroke="black" />
<line x1="4500" y1="247" x2="4500" y2="346" stroke="black" />
<line x1="4500" y1="346" x2="4400" y2="379" stroke="black" />
<text x="4400" y="367" font-family="Verdana" font-size="8" text-anchor="middle"  dominant-baseline="middle" fill="black" > 364</text>
<circle cx="4400" cy="379" r="4" fill="white" stroke="black" />
<line x1="4400" y1="383" x2="4400" y2="736" stroke="black" />
<circle cx="4400" cy="736" r="4" fill="white" stroke="black" />
<text x="4400" y="748" font-family="Verdana" font-size="8" text-anchor="middle"  dominant-baseline="middle" fill="black" > 721</text>
<text x="4700" y="7" font-family="Verdana" font-size="7" text-anchor="middle"  dominant-baseline="middle" fill="black" > C14</text>
<circle cx="4700" cy="15" r="4" fill="white" stroke="black" />
<line x1="4700" y1="19" x2="4700" y2="216" stroke="black" />
<line x1="4650" y1="216" x2="4750" y2="216" stroke="black" />
<text x="4725" y="208" font-family="Verdana" font-size="8" text-anchor="middle"  dominant-baseline="middle" fill="black" > 201</text>
<circle cx="4650" cy="216" r="4" fill="white" stroke="black" />
<line x1="4650" y1="220" x2="4650" y2="585" stroke="black" />
<line x1="4646" y1="581" x2="4654" y2="589" stroke="red" />
<line x1="4646" y1="589" x2="4654" y2="581" stroke="red" />
<text x="4650" y="597" font-family="Verdana" font-size="8" text-anchor="middle"  dominant-baseline="middle" fill="black" > 570</text>
<circle cx="4750" cy="216" r="4" fill="white" stroke="black" />
<line x1="4750" y1="220" x2="4750" y2="487" stroke="black" />
<line x1="4725" y1="487" x2="4775" y2="487" stroke="black" />
<text x="4762" y="479" font-family="Verdana" font-size="8" text-anchor="middle"  dominant-baseline="middle" fill="black" > 472</text>
<circle cx="4725" cy="487" r="4" fill="white" stroke="black" />
<circle cx="4775" cy="487" r="4" fill="white" stroke="black" />
<line x1="4725" y1="491" x2="4725" y2="494" stroke="black" />
<line x1="4725" y1="494" x2="4750" y2="496" stroke="black" />
<line x1="4775" y1="491" x2="4775" y2="494" stroke="black" />
<line x1="4775" y1="494" x2="4750" y2="496" stroke="black" />
<text x="4750" y="484" font-family="Verdana" font-size="8" text-anchor="middle"  dominant-baseline="middle" fill="black" > 481</text>
<circle cx="4750" cy="496" r="4" fill="white" stroke="black" />
<line x1="4750" y1="500" x2="4750" y2="736" stroke="black" />
<circle cx="4750" cy="736" r="4" fill="white" stroke="black" />
<text x="4750" y="748" font-family="Verdana" font-size="8" text-anchor="middle"  dominant-baseline="middle" fill="black" > 721</text>
<text x="4900" y="7" font-family="Verdana" font-size="7" text-anchor="middle"  dominant-baseline="middle" fill="black" > C15</text>
<circle cx="4900" cy="15" r="4" fill="white" stroke="black" />
<line x1="4900" y1="19" x2="4900" y2="209" stroke="black" />
<line x1="4850" y1="209" x2="4950" y2="209" stroke="black" />
<text x="4925" y="201" font-family="Verdana" font-size="8" text-anchor="middle"  dominant-baseline="middle" fill="black" > 194</text>
<circle cx="4850" cy="209" r="4" fill="white" stroke="black" />
<circle cx="4950" cy="209" r="4" fill="white" stroke="black" />
<line x1="4850" y1="213" x2="4850" y2="299" stroke="black" />
<line x1="4850" y1="299" x2="4900" y2="328" stroke="black" />
<line x1="4950" y1="213" x2="4950" y2="299" stroke="black" />
<line x1="4950" y1="299" x2="4900" y2="328" stroke="black" />
<text x="4900" y="316" font-family="Verdana" font-size="8" text-anchor="middle"  dominant-baseline="middle" fill="black" > 313</text>
<circle cx="4900" cy="328" r="4" fill="white" stroke="black" />
<line x1="4900" y1="332" x2="4900" y2="460" stroke="black" />
<line x1="4862" y1="460" x2="4938" y2="460" stroke="black" />
<text x="4906" y="452" font-family="Verdana" font-size="8" text-anchor="middle"  dominant-baseline="middle" fill="black" > 445</text>
<circle cx="4862" cy="460" r="4" fill="white" stroke="black" />
<circle cx="4887" cy="460" r="4" fill="white" stroke="black" />
<line x1="4862" y1="464" x2="4862" y2="478" stroke="black" />
<line x1="4862" y1="478" x2="4874" y2="483" stroke="black" />
<line x1="4887" y1="464" x2="4887" y2="478" stroke="black" />
<line x1="4887" y1="478" x2="4874" y2="483" stroke="black" />
<text x="4874" y="471" font-family="Verdana" font-size="8" text-anchor="middle"  dominant-baseline="middle" fill="black" > 468</text>
<circle cx="4874" cy="483" r="4" fill="white" stroke="black" />
<circle cx="4912" cy="460" r="4" fill="white" stroke="black" />
<circle cx="4937" cy="460" r="4" fill="white" stroke="black" />
<line x1="4874" y1="487" x2="4874" y2="487" stroke="black" />
<line x1="4874" y1="487" x2="4905" y2="488" stroke="black" />
<line x1="4912" y1="464" x2="4912" y2="487" stroke="black" />
<line x1="4912" y1="487" x2="4905" y2="488" stroke="black" />
<line x1="4937" y1="464" x2="4937" y2="487" stroke="black" />
<line x1="4937" y1="487" x2="4905" y2="488" stroke="black" />
<text x="4905" y="476" font-family="Verdana" font-size="8" text-anchor="middle"  dominant-baseline="middle" fill="black" > 473</text>
<circle cx="4905" cy="488" r="4" fill="white" stroke="black" />
<line x1="4905" y1="492" x2="4905" y2="551" stroke="black" />
<line x1="4901" y1="547" x2="4909" y2="555" stroke="red" />
<line x1="4901" y1="555" x2="4909" y2="547" stroke="red" />
<text x="4905" y="563" font-family="Verdana" font-size="8" text-anchor="middle"  dominant-baseline="middle" fill="black" > 536</text>
<text x="5100" y="7" font-family="Verdana" font-size="7" text-anchor="middle"  dominant-baseline="middle" fill="black" > C16</text>
<circle cx="5100" cy="15" r="4" fill="white" stroke="black" />
<line x1="5100" y1="19" x2="5100" y2="169" stroke="black" />
<line x1="5050" y1="169" x2="5150" y2="169" stroke="black" />
<text x="5125" y="161" font-family="Verdana" font-size="8" text-anchor="middle"  dominant-baseline="middle" fill="black" > 154</text>
<circle cx="5050" cy="169" r="4" fill="white" stroke="black" />
<circle cx="5150" cy="169" r="4" fill="white" stroke="black" />
<line x1="5050" y1="173" x2="5050" y2="262" stroke="black" />
<line x1="5050" y1="262" x2="5100" y2="293" stroke="black" />
<line x1="5150" y1="173" x2="5150" y2="262" stroke="black" />
<line x1="5150" y1="262" x2="5100" y2="293" stroke="black" />
<text x="5100" y="281" font-family="Verdana" font-size="8" text-anchor="middle"  dominant-baseline="middle" fill="black" > 278</text>
<circle cx="5100" cy="293" r="4" fill="white" stroke="black" />
<line x1="5100" y1="297" x2="5100" y2="298" stroke="black" />
<line x1="5066" y1="298" x2="5134" y2="298" stroke="black" />
<text x="5108" y="290" font-family="Verdana" font-size="8" text-anchor="middle"  dominant-baseline="middle" fill="black" > 283</text>
<circle cx="5066" cy="298" r="4" fill="white" stroke="black" />
<line x1="5066" y1="302" x2="5066" y2="647" stroke="black" />
<line x1="5062" y1="643" x2="5070" y2="651" stroke="red" />
<line x1="5062" y1="651" x2="5070" y2="643" stroke="red" />
<text x="5066" y="659" font-family="Verdana" font-size="8" text-anchor="middle"  dominant-baseline="middle" fill="black" > 632</text>
<circle cx="5099" cy="298" r="4" fill="white" stroke="black" />
<line x1="5099" y1="302" x2="5099" y2="646" stroke="black" />
<line x1="5095" y1="642" x2="5103" y2="650" stroke="red" />
<line x1="5095" y1="650" x2="5103" y2="642" stroke="red" />
<text x="5099" y="658" font-family="Verdana" font-size="8" text-anchor="middle"  dominant-baseline="middle" fill="black" > 631</text>
<circle cx="5132" cy="298" r="4" fill="white" stroke="black" />
<line x1="5132" y1="302" x2="5132" y2="615" stroke="black" />
<line x1="5128" y1="611" x2="5136" y2="619" stroke="red" />
<line x1="5128" y1="619" x2="5136" y2="611" stroke="red" />
<text x="5132" y="627" font-family="Verdana" font-size="8" text-anchor="middle"  dominant-baseline="middle" fill="black" > 600</text>
<text x="5250" y="7" font-family="Verdana" font-size="7" text-anchor="middle"  dominant-baseline="middle" fill="black" > C17</text>
<circle cx="5250" cy="15" r="4" fill="white" stroke="black" />
<line x1="5250" y1="19" x2="5250" y2="719" stroke="black" />
<line x1="5246" y1="715" x2="5254" y2="723" stroke="red" />
<line x1="5246" y1="723" x2="5254" y2="715" stroke="red" />
<text x="5250" y="731" font-family="Verdana" font-size="8" text-anchor="middle"  dominant-baseline="middle" fill="black" > 704</text>
<text x="5350" y="7" font-family="Verdana" font-size="7" text-anchor="middle"  dominant-baseline="middle" fill="black" > C18</text>
<circle cx="5350" cy="15" r="4" fill="white" stroke="black" />
<line x1="5350" y1="19" x2="5350" y2="50" stroke="black" />
<line x1="5346" y1="46" x2="5354" y2="54" stroke="red" />
<line x1="5346" y1="54" x2="5354" y2="46" stroke="red" />
<text x="5350" y="62" font-family="Verdana" font-size="8" text-anchor="middle"  dominant-baseline="middle" fill="black" > 35</text>
<text x="5550" y="7" font-family="Verdana" font-size="7" text-anchor="middle"  dominant-baseline="middle" fill="black" > C19</text>
<circle cx="5550" cy="15" r="4" fill="white" stroke="black" />
<line x1="5550" y1="19" x2="5550" y2="587" stroke="black" />
<line x1="5450" y1="587" x2="5650" y2="587" stroke="black" />
<text x="5575" y="579" font-family="Verdana" font-size="8" text-anchor="middle"  dominant-baseline="middle" fill="black" > 572</text>
<circle cx="5450" cy="587" r="4" fill="white" stroke="black" />
<line x1="5450" y1="591" x2="5450" y2="597" stroke="black" />
<line x1="5446" y1="593" x2="5454" y2="601" stroke="red" />
<line x1="5446" y1="601" x2="5454" y2="593" stroke="red" />
<text x="5450" y="609" font-family="Verdana" font-size="8" text-anchor="middle"  dominant-baseline="middle" fill="black" > 582</text>
<circle cx="5550" cy="587" r="4" fill="white" stroke="black" />
<line x1="5550" y1="591" x2="5550" y2="598" stroke="black" />
<line x1="5546" y1="594" x2="5554" y2="602" stroke="red" />
<line x1="5546" y1="602" x2="5554" y2="594" stroke="red" />
<text x="5550" y="610" font-family="Verdana" font-size="8" text-anchor="middle"  dominant-baseline="middle" fill="black" > 583</text>
<circle cx="5650" cy="587" r="4" fill="white" stroke="black" />
<line x1="5650" y1="591" x2="5650" y2="598" stroke="black" />
<line x1="5646" y1="594" x2="5654" y2="602" stroke="red" />
<line x1="5646" y1="602" x2="5654" y2="594" stroke="red" />
<text x="5650" y="610" font-family="Verdana" font-size="8" text-anchor="middle"  dominant-baseline="middle" fill="black" > 583</text>
<text x="5750" y="7" font-family="Verdana" font-size="7" text-anchor="middle"  dominant-baseline="middle" fill="black" > C20</text>
<circle cx="5750" cy="15" r="4" fill="white" stroke="black" />
<line x1="5750" y1="19" x2="5750" y2="73" stroke="black" />
<line x1="5746" y1="77" x2="5750" y2="69" stroke="blue" />
<line x1="5750" y1="77" x2="5754" y2="69" stroke="blue" />
<text x="5750" y="85" font-family="Verdana" font-size="8" text-anchor="middle"  dominant-baseline="middle" fill="black" > 58</text>
<text x="5900" y="7" font-family="Verdana" font-size="7" text-anchor="middle"  dominant-baseline="middle" fill="black" > C21</text>
<circle cx="5900" cy="15" r="4" fill="white" stroke="black" />
<line x1="5900" y1="19" x2="5900" y2="36" stroke="black" />
<line x1="5850" y1="36" x2="5950" y2="36" stroke="black" />
<text x="5925" y="28" font-family="Verdana" font-size="8" text-anchor="middle"  dominant-baseline="middle" fill="black" > 21</text>
<circle cx="5850" cy="36" r="4" fill="white" stroke="black" />
<line x1="5850" y1="40" x2="5850" y2="603" stroke="black" />
<line x1="5846" y1="607" x2="5850" y2="599" stroke="blue" />
<line x1="5850" y1="607" x2="5854" y2="599" stroke="blue" />
<text x="5850" y="615" font-family="Verdana" font-size="8" text-anchor="middle"  dominant-baseline="middle" fill="black" > 588</text>
<circle cx="5950" cy="36" r="4" fill="white" stroke="black" />
<line x1="5950" y1="40" x2="5950" y2="448" stroke="black" />
<line x1="5946" y1="444" x2="5954" y2="452" stroke="red" />
<line x1="5946" y1="452" x2="5954" y2="444" stroke="red" />
<text x="5950" y="460" font-family="Verdana" font-size="8" text-anchor="middle"  dominant-baseline="middle" fill="black" > 433</text>
<text x="6100" y="7" font-family="Verdana" font-size="7" text-anchor="middle"  dominant-baseline="middle" fill="black" > C22</text>
<circle cx="6100" cy="15" r="4" fill="white" stroke="black" />
<line x1="6100" y1="19" x2="6100" y2="209" stroke="black" />
<line x1="6050" y1="209" x2="6150" y2="209" stroke="black" />
<text x="6125" y="201" font-family="Verdana" font-size="8" text-anchor="middle"  dominant-baseline="middle" fill="black" > 194</text>
<circle cx="6050" cy="209" r="4" fill="white" stroke="black" />
<circle cx="6150" cy="209" r="4" fill="white" stroke="black" />
<line x1="6050" y1="213" x2="6050" y2="298" stroke="black" />
<line x1="6050" y1="298" x2="6100" y2="327" stroke="black" />
<line x1="6150" y1="213" x2="6150" y2="298" stroke="black" />
<line x1="6150" y1="298" x2="6100" y2="327" stroke="black" />
<text x="6100" y="315" font-family="Verdana" font-size="8" text-anchor="middle"  dominant-baseline="middle" fill="black" > 312</text>
<circle cx="6100" cy="327" r="4" fill="white" stroke="black" />
<line x1="6100" y1="331" x2="6100" y2="459" stroke="black" />
<line x1="6066" y1="459" x2="6134" y2="459" stroke="black" />
<text x="6108" y="451" font-family="Verdana" font-size="8" text-anchor="middle"  dominant-baseline="middle" fill="black" > 444</text>
<circle cx="6066" cy="459" r="4" fill="white" stroke="black" />
<circle cx="6099" cy="459" r="4" fill="white" stroke="black" />
<circle cx="6132" cy="459" r="4" fill="white" stroke="black" />
<line x1="6066" y1="463" x2="6066" y2="481" stroke="black" />
<line x1="6066" y1="481" x2="6099" y2="488" stroke="black" />
<line x1="6099" y1="463" x2="6099" y2="481" stroke="black" />
<line x1="6099" y1="481" x2="6099" y2="488" stroke="black" />
<line x1="6132" y1="463" x2="6132" y2="481" stroke="black" />
<line x1="6132" y1="481" x2="6099" y2="488" stroke="black" />
<text x="6099" y="476" font-family="Verdana" font-size="8" text-anchor="middle"  dominant-baseline="middle" fill="black" > 473</text>
<circle cx="6099" cy="488" r="4" fill="white" stroke="black" />
<line x1="6099" y1="492" x2="6099" y2="551" stroke="black" />
<line x1="6095" y1="547" x2="6103" y2="555" stroke="red" />
<line x1="6095" y1="555" x2="6103" y2="547" stroke="red" />
<text x="6099" y="563" font-family="Verdana" font-size="8" text-anchor="middle"  dominant-baseline="middle" fill="black" > 536</text>
<text x="6400" y="7" font-family="Verdana" font-size="7" text-anchor="middle"  dominant-baseline="middle" fill="black" > C23</text>
<circle cx="6400" cy="15" r="4" fill="white" stroke="black" />
<line x1="6400" y1="19" x2="6400" y2="287" stroke="black" />
<line x1="6250" y1="287" x2="6550" y2="287" stroke="black" />
<text x="6425" y="279" font-family="Verdana" font-size="8" text-anchor="middle"  dominant-baseline="middle" fill="black" > 272</text>
<circle cx="6250" cy="287" r="4" fill="white" stroke="black" />
<circle cx="6350" cy="287" r="4" fill="white" stroke="black" />
<circle cx="6450" cy="287" r="4" fill="white" stroke="black" />
<circle cx="6550" cy="287" r="4" fill="white" stroke="black" />
<line x1="6250" y1="291" x2="6250" y2="309" stroke="black" />
<line x1="6250" y1="309" x2="6400" y2="316" stroke="black" />
<line x1="6350" y1="291" x2="6350" y2="309" stroke="black" />
<line x1="6350" y1="309" x2="6400" y2="316" stroke="black" />
<line x1="6450" y1="291" x2="6450" y2="309" stroke="black" />
<line x1="6450" y1="309" x2="6400" y2="316" stroke="black" />
<line x1="6550" y1="291" x2="6550" y2="309" stroke="black" />
<line x1="6550" y1="309" x2="6400" y2="316" stroke="black" />
<text x="6400" y="304" font-family="Verdana" font-size="8" text-anchor="middle"  dominant-baseline="middle" fill="black" > 301</text>
<circle cx="6400" cy="316" r="4" fill="white" stroke="black" />
<line x1="6400" y1="320" x2="6400" y2="336" stroke="black" />
<line x1="6396" y1="332" x2="6404" y2="340" stroke="red" />
<line x1="6396" y1="340" x2="6404" y2="332" stroke="red" />
<text x="6400" y="348" font-family="Verdana" font-size="8" text-anchor="middle"  dominant-baseline="middle" fill="black" > 321</text>
</svg>
