<?xml version="1.0" encoding="utf-8"?>
<svg xmlns="http://www.w3.org/2000/svg" version="1.1" width="6250" height="750">
<rect width="6250" height="15" x="0" y="0" fill="white" />
<rect width="6250" height="15" x="0" y="735" fill="white" />
<rect width="25" height="750" x="0" y="0" fill="white" />
<rect width="25" height="750" x="6225" y="0" fill="white" />
<rect width="6210" height="144" x="25" y="15" fill="ghostwhite" />
<rect width="6210" height="144" x="25" y="159" fill="snow" />
<rect width="6210" height="144" x="25" y="303" fill="ghostwhite" />
<rect width="6210" height="144" x="25" y="447" fill="snow" />
<rect width="6210" height="144" x="25" y="591" fill="ghostwhite" />
<text x="12" y="87" font-family="Verdana" font-size="10" text-anchor="middle"  dominant-baseline="middle" fill="red" > D0</text>
<text x="12" y="231" font-family="Verdana" font-size="10" text-anchor="middle"  dominant-baseline="middle" fill="red" > D1</text>
<text x="12" y="375" font-family="Verdana" font-size="10" text-anchor="middle"  dominant-baseline="middle" fill="red" > D2</text>
<text x="12" y="519" font-family="Verdana" font-size="10" text-anchor="middle"  dominant-baseline="middle" fill="red" > D3</text>
<text x="12" y="663" font-family="Verdana" font-size="10" text-anchor="middle"  dominant-baseline="middle" fill="red" > D4</text>
<text x="12" y="20" font-family="Verdana" font-size="10" text-anchor="middle"  dominant-baseline="middle" fill="black" > 0</text>
<text x="12" y="164" font-family="Verdana" font-size="10" text-anchor="middle"  dominant-baseline="middle" fill="black" > 144</text>
<text x="12" y="308" font-family="Verdana" font-size="10" text-anchor="middle"  dominant-baseline="middle" fill="black" > 288</text>
<text x="12" y="452" font-family="Verdana" font-size="10" text-anchor="middle"  dominant-baseline="middle" fill="black" > 432</text>
<text x="12" y="596" font-family="Verdana" font-size="10" text-anchor="middle"  dominant-baseline="middle" fill="black" > 576</text>
<text x="12" y="740" font-family="Verdana" font-size="10" text-anchor="middle"  dominant-baseline="middle" fill="black" > 720</text>
<text x="150" y="7" font-family="Verdana" font-size="7" text-anchor="middle"  dominant-baseline="middle" fill="black" > C1</text>
<circle cx="150" cy="15" r="4" fill="white" stroke="black" />
<line x1="150" y1="19" x2="150" y2="391" stroke="black" />
<line x1="50" y1="391" x2="250" y2="391" stroke="black" />
<text x="175" y="383" font-family="Verdana" font-size="8" text-anchor="middle"  dominant-baseline="middle" fill="black" > 376</text>
<circle cx="50" cy="391" r="4" fill="white" stroke="black" />
<circle cx="150" cy="391" r="4" fill="white" stroke="black" />
<circle cx="250" cy="391" r="4" fill="white" stroke="black" />
<line x1="50" y1="395" x2="50" y2="395" stroke="black" />
<line x1="50" y1="395" x2="150" y2="396" stroke="black" />
<line x1="150" y1="395" x2="150" y2="395" stroke="black" />
<line x1="150" y1="395" x2="150" y2="396" stroke="black" />
<line x1="250" y1="395" x2="250" y2="395" stroke="black" />
<line x1="250" y1="395" x2="150" y2="396" stroke="black" />
<text x="150" y="384" font-family="Verdana" font-size="8" text-anchor="middle"  dominant-baseline="middle" fill="black" > 381</text>
<circle cx="150" cy="396" r="4" fill="white" stroke="black" />
<line x1="150" y1="400" x2="150" y2="422" stroke="black" />
<line x1="146" y1="418" x2="154" y2="426" stroke="red" />
<line x1="146" y1="426" x2="154" y2="418" stroke="red" />
<text x="150" y="434" font-family="Verdana" font-size="8" text-anchor="middle"  dominant-baseline="middle" fill="black" > 407</text>
<text x="450" y="7" font-family="Verdana" font-size="7" text-anchor="middle"  dominant-baseline="middle" fill="black" > C2</text>
<circle cx="450" cy="15" r="4" fill="white" stroke="black" />
<line x1="450" y1="19" x2="450" y2="253" stroke="black" />
<line x1="350" y1="253" x2="550" y2="253" stroke="black" />
<text x="475" y="245" font-family="Verdana" font-size="8" text-anchor="middle"  dominant-baseline="middle" fill="black" > 238</text>
<circle cx="350" cy="253" r="4" fill="white" stroke="black" />
<circle cx="450" cy="253" r="4" fill="white" stroke="black" />
<line x1="350" y1="257" x2="350" y2="299" stroke="black" />
<line x1="350" y1="299" x2="400" y2="314" stroke="black" />
<line x1="450" y1="257" x2="450" y2="299" stroke="black" />
<line x1="450" y1="299" x2="400" y2="314" stroke="black" />
<text x="400" y="302" font-family="Verdana" font-size="8" text-anchor="middle"  dominant-baseline="middle" fill="black" > 299</text>
<circle cx="400" cy="314" r="4" fill="white" stroke="black" />
<circle cx="550" cy="253" r="4" fill="white" stroke="black" />
<line x1="400" y1="318" x2="400" y2="315" stroke="black" />
<line x1="400" y1="315" x2="475" y2="315" stroke="black" />
<line x1="550" y1="257" x2="550" y2="315" stroke="black" />
<line x1="550" y1="315" x2="475" y2="315" stroke="black" />
<text x="475" y="303" font-family="Verdana" font-size="8" text-anchor="middle"  dominant-baseline="middle" fill="black" > 300</text>
<circle cx="475" cy="315" r="4" fill="white" stroke="black" />
<line x1="475" y1="319" x2="475" y2="403" stroke="black" />
<line x1="425" y1="403" x2="525" y2="403" stroke="black" />
<text x="487" y="395" font-family="Verdana" font-size="8" text-anchor="middle"  dominant-baseline="middle" fill="black" > 388</text>
<circle cx="425" cy="403" r="4" fill="white" stroke="black" />
<circle cx="475" cy="403" r="4" fill="white" stroke="black" />
<line x1="425" y1="407" x2="425" y2="418" stroke="black" />
<line x1="425" y1="418" x2="450" y2="423" stroke="black" />
<line x1="475" y1="407" x2="475" y2="418" stroke="black" />
<line x1="475" y1="418" x2="450" y2="423" stroke="black" />
<text x="450" y="411" font-family="Verdana" font-size="8" text-anchor="middle"  dominant-baseline="middle" fill="black" > 408</text>
<circle cx="450" cy="423" r="4" fill="white" stroke="black" />
<circle cx="525" cy="403" r="4" fill="white" stroke="black" />
<line x1="450" y1="427" x2="450" y2="432" stroke="black" />
<line x1="450" y1="432" x2="487" y2="434" stroke="black" />
<line x1="525" y1="407" x2="525" y2="432" stroke="black" />
<line x1="525" y1="432" x2="487" y2="434" stroke="black" />
<text x="487" y="422" font-family="Verdana" font-size="8" text-anchor="middle"  dominant-baseline="middle" fill="black" > 419</text>
<circle cx="487" cy="434" r="4" fill="white" stroke="black" />
<line x1="487" y1="438" x2="487" y2="656" stroke="black" />
<line x1="483" y1="652" x2="491" y2="660" stroke="red" />
<line x1="483" y1="660" x2="491" y2="652" stroke="red" />
<text x="487" y="668" font-family="Verdana" font-size="8" text-anchor="middle"  dominant-baseline="middle" fill="black" > 641</text>
<text x="850" y="7" font-family="Verdana" font-size="7" text-anchor="middle"  dominant-baseline="middle" fill="black" > C3</text>
<circle cx="850" cy="15" r="4" fill="white" stroke="black" />
<line x1="850" y1="19" x2="850" y2="428" stroke="black" />
<line x1="650" y1="428" x2="1050" y2="428" stroke="black" />
<text x="875" y="420" font-family="Verdana" font-size="8" text-anchor="middle"  dominant-baseline="middle" fill="black" > 413</text>
<circle cx="650" cy="428" r="4" fill="white" stroke="black" />
<circle cx="750" cy="428" r="4" fill="white" stroke="black" />
<line x1="650" y1="432" x2="650" y2="437" stroke="black" />
<line x1="650" y1="437" x2="700" y2="439" stroke="black" />
<line x1="750" y1="432" x2="750" y2="437" stroke="black" />
<line x1="750" y1="437" x2="700" y2="439" stroke="black" />
<text x="700" y="427" font-family="Verdana" font-size="8" text-anchor="middle"  dominant-baseline="middle" fill="black" > 424</text>
<circle cx="700" cy="439" r="4" fill="white" stroke="black" />
<circle cx="850" cy="428" r="4" fill="white" stroke="black" />
<circle cx="950" cy="428" r="4" fill="white" stroke="black" />
<circle cx="1050" cy="428" r="4" fill="white" stroke="black" />
<line x1="850" y1="432" x2="850" y2="440" stroke="black" />
<line x1="850" y1="440" x2="950" y2="444" stroke="black" />
<line x1="950" y1="432" x2="950" y2="440" stroke="black" />
<line x1="950" y1="440" x2="950" y2="444" stroke="black" />
<line x1="1050" y1="432" x2="1050" y2="440" stroke="black" />
<line x1="1050" y1="440" x2="950" y2="444" stroke="black" />
<text x="950" y="432" font-family="Verdana" font-size="8" text-anchor="middle"  dominant-baseline="middle" fill="black" > 429</text>
<circle cx="950" cy="444" r="4" fill="white" stroke="black" />
<line x1="700" y1="443" x2="700" y2="450" stroke="black" />
<line x1="700" y1="450" x2="825" y2="452" stroke="black" />
<line x1="950" y1="448" x2="950" y2="450" stroke="black" />
<line x1="950" y1="450" x2="825" y2="452" stroke="black" />
<text x="825" y="440" font-family="Verdana" font-size="8" text-anchor="middle"  dominant-baseline="middle" fill="black" > 437</text>
<circle cx="825" cy="452" r="4" fill="white" stroke="black" />
<line x1="825" y1="456" x2="825" y2="598" stroke="black" />
<line x1="821" y1="594" x2="829" y2="602" stroke="red" />
<line x1="821" y1="602" x2="829" y2="594" stroke="red" />
<text x="825" y="610" font-family="Verdana" font-size="8" text-anchor="middle"  dominant-baseline="middle" fill="black" > 583</text>
<text x="1300" y="7" font-family="Verdana" font-size="7" text-anchor="middle"  dominant-baseline="middle" fill="black" > C4</text>
<circle cx="1300" cy="15" r="4" fill="white" stroke="black" />
<line x1="1300" y1="19" x2="1300" y2="525" stroke="black" />
<line x1="1150" y1="525" x2="1450" y2="525" stroke="black" />
<text x="1325" y="517" font-family="Verdana" font-size="8" text-anchor="middle"  dominant-baseline="middle" fill="black" > 510</text>
<circle cx="1150" cy="525" r="4" fill="white" stroke="black" />
<circle cx="1250" cy="525" r="4" fill="white" stroke="black" />
<circle cx="1350" cy="525" r="4" fill="white" stroke="black" />
<circle cx="1450" cy="525" r="4" fill="white" stroke="black" />
<line x1="1150" y1="529" x2="1150" y2="532" stroke="black" />
<line x1="1150" y1="532" x2="1300" y2="534" stroke="black" />
<line x1="1250" y1="529" x2="1250" y2="532" stroke="black" />
<line x1="1250" y1="532" x2="1300" y2="534" stroke="black" />
<line x1="1350" y1="529" x2="1350" y2="532" stroke="black" />
<line x1="1350" y1="532" x2="1300" y2="534" stroke="black" />
<line x1="1450" y1="529" x2="1450" y2="532" stroke="black" />
<line x1="1450" y1="532" x2="1300" y2="534" stroke="black" />
<text x="1300" y="522" font-family="Verdana" font-size="8" text-anchor="middle"  dominant-baseline="middle" fill="black" > 519</text>
<circle cx="1300" cy="534" r="4" fill="white" stroke="black" />
<line x1="1300" y1="538" x2="1300" y2="736" stroke="black" />
<circle cx="1300" cy="736" r="4" fill="white" stroke="black" />
<text x="1300" y="748" font-family="Verdana" font-size="8" text-anchor="middle"  dominant-baseline="middle" fill="black" > 721</text>
<text x="1700" y="7" font-family="Verdana" font-size="7" text-anchor="middle"  dominant-baseline="middle" fill="black" > C5</text>
<circle cx="1700" cy="15" r="4" fill="white" stroke="black" />
<line x1="1700" y1="19" x2="1700" y2="365" stroke="black" />
<line x1="1550" y1="365" x2="1850" y2="365" stroke="black" />
<text x="1725" y="357" font-family="Verdana" font-size="8" text-anchor="middle"  dominant-baseline="middle" fill="black" > 350</text>
<circle cx="1550" cy="365" r="4" fill="white" stroke="black" />
<circle cx="1650" cy="365" r="4" fill="white" stroke="black" />
<line x1="1550" y1="369" x2="1550" y2="377" stroke="black" />
<line x1="1550" y1="377" x2="1600" y2="381" stroke="black" />
<line x1="1650" y1="369" x2="1650" y2="377" stroke="black" />
<line x1="1650" y1="377" x2="1600" y2="381" stroke="black" />
<text x="1600" y="369" font-family="Verdana" font-size="8" text-anchor="middle"  dominant-baseline="middle" fill="black" > 366</text>
<circle cx="1600" cy="381" r="4" fill="white" stroke="black" />
<circle cx="1750" cy="365" r="4" fill="white" stroke="black" />
<circle cx="1850" cy="365" r="4" fill="white" stroke="black" />
<line x1="1600" y1="385" x2="1600" y2="384" stroke="black" />
<line x1="1600" y1="384" x2="1725" y2="384" stroke="black" />
<line x1="1750" y1="369" x2="1750" y2="384" stroke="black" />
<line x1="1750" y1="384" x2="1725" y2="384" stroke="black" />
<line x1="1850" y1="369" x2="1850" y2="384" stroke="black" />
<line x1="1850" y1="384" x2="1725" y2="384" stroke="black" />
<text x="1725" y="372" font-family="Verdana" font-size="8" text-anchor="middle"  dominant-baseline="middle" fill="black" > 369</text>
<circle cx="1725" cy="384" r="4" fill="white" stroke="black" />
<line x1="1725" y1="388" x2="1725" y2="736" stroke="black" />
<circle cx="1725" cy="736" r="4" fill="white" stroke="black" />
<text x="1725" y="748" font-family="Verdana" font-size="8" text-anchor="middle"  dominant-baseline="middle" fill="black" > 721</text>
<text x="1950" y="7" font-family="Verdana" font-size="7" text-anchor="middle"  dominant-baseline="middle" fill="black" > C6</text>
<circle cx="1950" cy="15" r="4" fill="white" stroke="black" />
<line x1="1950" y1="19" x2="1950" y2="428" stroke="black" />
<line x1="1946" y1="424" x2="1954" y2="432" stroke="red" />
<line x1="1946" y1="432" x2="1954" y2="424" stroke="red" />
<text x="1950" y="440" font-family="Verdana" font-size="8" text-anchor="middle"  dominant-baseline="middle" fill="black" > 413</text>
<text x="2100" y="7" font-family="Verdana" font-size="7" text-anchor="middle"  dominant-baseline="middle" fill="black" > C7</text>
<circle cx="2100" cy="15" r="4" fill="white" stroke="black" />
<line x1="2100" y1="19" x2="2100" y2="179" stroke="black" />
<line x1="2050" y1="179" x2="2150" y2="179" stroke="black" />
<text x="2125" y="171" font-family="Verdana" font-size="8" text-anchor="middle"  dominant-baseline="middle" fill="black" > 164</text>
<circle cx="2050" cy="179" r="4" fill="white" stroke="black" />
<line x1="2050" y1="183" x2="2050" y2="572" stroke="black" />
<line x1="2046" y1="568" x2="2054" y2="576" stroke="red" />
<line x1="2046" y1="576" x2="2054" y2="568" stroke="red" />
<text x="2050" y="584" font-family="Verdana" font-size="8" text-anchor="middle"  dominant-baseline="middle" fill="black" > 557</text>
<circle cx="2150" cy="179" r="4" fill="white" stroke="black" />
<line x1="2150" y1="183" x2="2150" y2="310" stroke="black" />
<line x1="2125" y1="310" x2="2175" y2="310" stroke="black" />
<text x="2162" y="302" font-family="Verdana" font-size="8" text-anchor="middle"  dominant-baseline="middle" fill="black" > 295</text>
<circle cx="2125" cy="310" r="4" fill="white" stroke="black" />
<circle cx="2175" cy="310" r="4" fill="white" stroke="black" />
<line x1="2125" y1="314" x2="2125" y2="429" stroke="black" />
<line x1="2125" y1="429" x2="2150" y2="468" stroke="black" />
<line x1="2175" y1="314" x2="2175" y2="429" stroke="black" />
<line x1="2175" y1="429" x2="2150" y2="468" stroke="black" />
<text x="2150" y="456" font-family="Verdana" font-size="8" text-anchor="middle"  dominant-baseline="middle" fill="black" > 453</text>
<circle cx="2150" cy="468" r="4" fill="white" stroke="black" />
<line x1="2150" y1="472" x2="2150" y2="736" stroke="black" />
<circle cx="2150" cy="736" r="4" fill="white" stroke="black" />
<text x="2150" y="748" font-family="Verdana" font-size="8" text-anchor="middle"  dominant-baseline="middle" fill="black" > 721</text>
<text x="2250" y="7" font-family="Verdana" font-size="7" text-anchor="middle"  dominant-baseline="middle" fill="black" > C8</text>
<circle cx="2250" cy="15" r="4" fill="white" stroke="black" />
<line x1="2250" y1="19" x2="2250" y2="36" stroke="black" />
<line x1="2246" y1="40" x2="2250" y2="32" stroke="blue" />
<line x1="2250" y1="40" x2="2254" y2="32" stroke="blue" />
<text x="2250" y="48" font-family="Verdana" font-size="8" text-anchor="middle"  dominant-baseline="middle" fill="black" > 21</text>
<text x="2350" y="7" font-family="Verdana" font-size="7" text-anchor="middle"  dominant-baseline="middle" fill="black" > C9</text>
<circle cx="2350" cy="15" r="4" fill="white" stroke="black" />
<line x1="2350" y1="19" x2="2350" y2="262" stroke="black" />
<line x1="2346" y1="258" x2="2354" y2="266" stroke="red" />
<line x1="2346" y1="266" x2="2354" y2="258" stroke="red" />
<text x="2350" y="274" font-family="Verdana" font-size="8" text-anchor="middle"  dominant-baseline="middle" fill="black" > 247</text>
<text x="2450" y="7" font-family="Verdana" font-size="7" text-anchor="middle"  dominant-baseline="middle" fill="black" > C10</text>
<circle cx="2450" cy="15" r="4" fill="white" stroke="black" />
<line x1="2450" y1="19" x2="2450" y2="52" stroke="black" />
<line x1="2446" y1="56" x2="2450" y2="48" stroke="blue" />
<line x1="2450" y1="56" x2="2454" y2="48" stroke="blue" />
<text x="2450" y="64" font-family="Verdana" font-size="8" text-anchor="middle"  dominant-baseline="middle" fill="black" > 37</text>
<text x="2700" y="7" font-family="Verdana" font-size="7" text-anchor="middle"  dominant-baseline="middle" fill="black" > C11</text>
<circle cx="2700" cy="15" r="4" fill="white" stroke="black" />
<line x1="2700" y1="19" x2="2700" y2="490" stroke="black" />
<line x1="2550" y1="490" x2="2850" y2="490" stroke="black" />
<text x="2725" y="482" font-family="Verdana" font-size="8" text-anchor="middle"  dominant-baseline="middle" fill="black" > 475</text>
<circle cx="2550" cy="490" r="4" fill="white" stroke="black" />
<circle cx="2650" cy="490" r="4" fill="white" stroke="black" />
<circle cx="2750" cy="490" r="4" fill="white" stroke="black" />
<line x1="2550" y1="494" x2="2550" y2="507" stroke="black" />
<line x1="2550" y1="507" x2="2650" y2="512" stroke="black" />
<line x1="2650" y1="494" x2="2650" y2="507" stroke="black" />
<line x1="2650" y1="507" x2="2650" y2="512" stroke="black" />
<line x1="2750" y1="494" x2="2750" y2="507" stroke="black" />
<line x1="2750" y1="507" x2="2650" y2="512" stroke="black" />
<text x="2650" y="500" font-family="Verdana" font-size="8" text-anchor="middle"  dominant-baseline="middle" fill="black" > 497</text>
<circle cx="2650" cy="512" r="4" fill="white" stroke="black" />
<circle cx="2850" cy="490" r="4" fill="white" stroke="black" />
<line x1="2650" y1="516" x2="2650" y2="517" stroke="black" />
<line x1="2650" y1="517" x2="2750" y2="518" stroke="black" />
<line x1="2850" y1="494" x2="2850" y2="517" stroke="black" />
<line x1="2850" y1="517" x2="2750" y2="518" stroke="black" />
<text x="2750" y="506" font-family="Verdana" font-size="8" text-anchor="middle"  dominant-baseline="middle" fill="black" > 503</text>
<circle cx="2750" cy="518" r="4" fill="white" stroke="black" />
<line x1="2750" y1="522" x2="2750" y2="605" stroke="black" />
<line x1="2746" y1="601" x2="2754" y2="609" stroke="red" />
<line x1="2746" y1="609" x2="2754" y2="601" stroke="red" />
<text x="2750" y="617" font-family="Verdana" font-size="8" text-anchor="middle"  dominant-baseline="middle" fill="black" > 590</text>
<text x="3000" y="7" font-family="Verdana" font-size="7" text-anchor="middle"  dominant-baseline="middle" fill="black" > C12</text>
<circle cx="3000" cy="15" r="4" fill="white" stroke="black" />
<line x1="3000" y1="19" x2="3000" y2="290" stroke="black" />
<line x1="2950" y1="290" x2="3050" y2="290" stroke="black" />
<text x="3025" y="282" font-family="Verdana" font-size="8" text-anchor="middle"  dominant-baseline="middle" fill="black" > 275</text>
<circle cx="2950" cy="290" r="4" fill="white" stroke="black" />
<line x1="2950" y1="294" x2="2950" y2="379" stroke="black" />
<line x1="2946" y1="375" x2="2954" y2="383" stroke="red" />
<line x1="2946" y1="383" x2="2954" y2="375" stroke="red" />
<text x="2950" y="391" font-family="Verdana" font-size="8" text-anchor="middle"  dominant-baseline="middle" fill="black" > 364</text>
<circle cx="3050" cy="290" r="4" fill="white" stroke="black" />
<line x1="3050" y1="294" x2="3050" y2="620" stroke="black" />
<line x1="3046" y1="616" x2="3054" y2="624" stroke="red" />
<line x1="3046" y1="624" x2="3054" y2="616" stroke="red" />
<text x="3050" y="632" font-family="Verdana" font-size="8" text-anchor="middle"  dominant-baseline="middle" fill="black" > 605</text>
<text x="3200" y="7" font-family="Verdana" font-size="7" text-anchor="middle"  dominant-baseline="middle" fill="black" > C13</text>
<circle cx="3200" cy="15" r="4" fill="white" stroke="black" />
<line x1="3200" y1="19" x2="3200" y2="240" stroke="black" />
<line x1="3150" y1="240" x2="3250" y2="240" stroke="black" />
<text x="3225" y="232" font-family="Verdana" font-size="8" text-anchor="middle"  dominant-baseline="middle" fill="black" > 225</text>
<circle cx="3150" cy="240" r="4" fill="white" stroke="black" />
<circle cx="3250" cy="240" r="4" fill="white" stroke="black" />
<line x1="3150" y1="244" x2="3150" y2="405" stroke="black" />
<line x1="3150" y1="405" x2="3200" y2="459" stroke="black" />
<line x1="3250" y1="244" x2="3250" y2="405" stroke="black" />
<line x1="3250" y1="405" x2="3200" y2="459" stroke="black" />
<text x="3200" y="447" font-family="Verdana" font-size="8" text-anchor="middle"  dominant-baseline="middle" fill="black" > 444</text>
<circle cx="3200" cy="459" r="4" fill="white" stroke="black" />
<line x1="3200" y1="463" x2="3200" y2="483" stroke="black" />
<line x1="3196" y1="479" x2="3204" y2="487" stroke="red" />
<line x1="3196" y1="487" x2="3204" y2="479" stroke="red" />
<text x="3200" y="495" font-family="Verdana" font-size="8" text-anchor="middle"  dominant-baseline="middle" fill="black" > 468</text>
<text x="3400" y="7" font-family="Verdana" font-size="7" text-anchor="middle"  dominant-baseline="middle" fill="black" > C14</text>
<circle cx="3400" cy="15" r="4" fill="white" stroke="black" />
<line x1="3400" y1="19" x2="3400" y2="23" stroke="black" />
<line x1="3350" y1="23" x2="3450" y2="23" stroke="black" />
<text x="3425" y="15" font-family="Verdana" font-size="8" text-anchor="middle"  dominant-baseline="middle" fill="black" > 8</text>
<circle cx="3350" cy="23" r="4" fill="white" stroke="black" />
<line x1="3350" y1="27" x2="3350" y2="68" stroke="black" />
<line x1="3346" y1="72" x2="3350" y2="64" stroke="blue" />
<line x1="3350" y1="72" x2="3354" y2="64" stroke="blue" />
<text x="3350" y="80" font-family="Verdana" font-size="8" text-anchor="middle"  dominant-baseline="middle" fill="black" > 53</text>
<circle cx="3450" cy="23" r="4" fill="white" stroke="black" />
<line x1="3450" y1="27" x2="3450" y2="68" stroke="black" />
<line x1="3446" y1="72" x2="3450" y2="64" stroke="blue" />
<line x1="3450" y1="72" x2="3454" y2="64" stroke="blue" />
<text x="3450" y="80" font-family="Verdana" font-size="8" text-anchor="middle"  dominant-baseline="middle" fill="black" > 53</text>
<text x="3550" y="7" font-family="Verdana" font-size="7" text-anchor="middle"  dominant-baseline="middle" fill="black" > C15</text>
<circle cx="3550" cy="15" r="4" fill="white" stroke="black" />
<line x1="3550" y1="19" x2="3550" y2="136" stroke="black" />
<line x1="3546" y1="140" x2="3550" y2="132" stroke="blue" />
<line x1="3550" y1="140" x2="3554" y2="132" stroke="blue" />
<text x="3550" y="148" font-family="Verdana" font-size="8" text-anchor="middle"  dominant-baseline="middle" fill="black" > 121</text>
<text x="3700" y="7" font-family="Verdana" font-size="7" text-anchor="middle"  dominant-baseline="middle" fill="black" > C16</text>
<circle cx="3700" cy="15" r="4" fill="white" stroke="black" />
<line x1="3700" y1="19" x2="3700" y2="282" stroke="black" />
<line x1="3650" y1="282" x2="3750" y2="282" stroke="black" />
<text x="3725" y="274" font-family="Verdana" font-size="8" text-anchor="middle"  dominant-baseline="middle" fill="black" > 267</text>
<circle cx="3650" cy="282" r="4" fill="white" stroke="black" />
<line x1="3650" y1="286" x2="3650" y2="487" stroke="black" />
<line x1="3646" y1="491" x2="3650" y2="483" stroke="blue" />
<line x1="3650" y1="491" x2="3654" y2="483" stroke="blue" />
<text x="3650" y="499" font-family="Verdana" font-size="8" text-anchor="middle"  dominant-baseline="middle" fill="black" > 472</text>
<circle cx="3750" cy="282" r="4" fill="white" stroke="black" />
<line x1="3750" y1="286" x2="3750" y2="367" stroke="black" />
<line x1="3746" y1="371" x2="3750" y2="363" stroke="blue" />
<line x1="3750" y1="371" x2="3754" y2="363" stroke="blue" />
<text x="3750" y="379" font-family="Verdana" font-size="8" text-anchor="middle"  dominant-baseline="middle" fill="black" > 352</text>
<text x="3850" y="7" font-family="Verdana" font-size="7" text-anchor="middle"  dominant-baseline="middle" fill="black" > C17</text>
<circle cx="3850" cy="15" r="4" fill="white" stroke="black" />
<line x1="3850" y1="19" x2="3850" y2="491" stroke="black" />
<line x1="3846" y1="487" x2="3854" y2="495" stroke="red" />
<line x1="3846" y1="495" x2="3854" y2="487" stroke="red" />
<text x="3850" y="503" font-family="Verdana" font-size="8" text-anchor="middle"  dominant-baseline="middle" fill="black" > 476</text>
<text x="4000" y="7" font-family="Verdana" font-size="7" text-anchor="middle"  dominant-baseline="middle" fill="black" > C18</text>
<circle cx="4000" cy="15" r="4" fill="white" stroke="black" />
<line x1="4000" y1="19" x2="4000" y2="419" stroke="black" />
<line x1="3950" y1="419" x2="4050" y2="419" stroke="black" />
<text x="4025" y="411" font-family="Verdana" font-size="8" text-anchor="middle"  dominant-baseline="middle" fill="black" > 404</text>
<circle cx="3950" cy="419" r="4" fill="white" stroke="black" />
<circle cx="4050" cy="419" r="4" fill="white" stroke="black" />
<line x1="3950" y1="423" x2="3950" y2="430" stroke="black" />
<line x1="3950" y1="430" x2="4000" y2="433" stroke="black" />
<line x1="4050" y1="423" x2="4050" y2="430" stroke="black" />
<line x1="4050" y1="430" x2="4000" y2="433" stroke="black" />
<text x="4000" y="421" font-family="Verdana" font-size="8" text-anchor="middle"  dominant-baseline="middle" fill="black" > 418</text>
<circle cx="4000" cy="433" r="4" fill="white" stroke="black" />
<line x1="4000" y1="437" x2="4000" y2="545" stroke="black" />
<line x1="3996" y1="541" x2="4004" y2="549" stroke="red" />
<line x1="3996" y1="549" x2="4004" y2="541" stroke="red" />
<text x="4000" y="557" font-family="Verdana" font-size="8" text-anchor="middle"  dominant-baseline="middle" fill="black" > 530</text>
<text x="4300" y="7" font-family="Verdana" font-size="7" text-anchor="middle"  dominant-baseline="middle" fill="black" > C19</text>
<circle cx="4300" cy="15" r="4" fill="white" stroke="black" />
<line x1="4300" y1="19" x2="4300" y2="442" stroke="black" />
<line x1="4150" y1="442" x2="4450" y2="442" stroke="black" />
<text x="4325" y="434" font-family="Verdana" font-size="8" text-anchor="middle"  dominant-baseline="middle" fill="black" > 427</text>
<circle cx="4150" cy="442" r="4" fill="white" stroke="black" />
<circle cx="4250" cy="442" r="4" fill="white" stroke="black" />
<line x1="4150" y1="446" x2="4150" y2="455" stroke="black" />
<line x1="4150" y1="455" x2="4200" y2="459" stroke="black" />
<line x1="4250" y1="446" x2="4250" y2="455" stroke="black" />
<line x1="4250" y1="455" x2="4200" y2="459" stroke="black" />
<text x="4200" y="447" font-family="Verdana" font-size="8" text-anchor="middle"  dominant-baseline="middle" fill="black" > 444</text>
<circle cx="4200" cy="459" r="4" fill="white" stroke="black" />
<circle cx="4350" cy="442" r="4" fill="white" stroke="black" />
<line x1="4200" y1="463" x2="4200" y2="463" stroke="black" />
<line x1="4200" y1="463" x2="4275" y2="464" stroke="black" />
<line x1="4350" y1="446" x2="4350" y2="463" stroke="black" />
<line x1="4350" y1="463" x2="4275" y2="464" stroke="black" />
<text x="4275" y="452" font-family="Verdana" font-size="8" text-anchor="middle"  dominant-baseline="middle" fill="black" > 449</text>
<circle cx="4275" cy="464" r="4" fill="white" stroke="black" />
<circle cx="4450" cy="442" r="4" fill="white" stroke="black" />
<line x1="4275" y1="468" x2="4275" y2="557" stroke="black" />
<line x1="4275" y1="557" x2="4362" y2="587" stroke="black" />
<line x1="4450" y1="446" x2="4450" y2="557" stroke="black" />
<line x1="4450" y1="557" x2="4362" y2="587" stroke="black" />
<text x="4362" y="575" font-family="Verdana" font-size="8" text-anchor="middle"  dominant-baseline="middle" fill="black" > 572</text>
<circle cx="4362" cy="587" r="4" fill="white" stroke="black" />
<line x1="4362" y1="591" x2="4362" y2="639" stroke="black" />
<line x1="4358" y1="635" x2="4366" y2="643" stroke="red" />
<line x1="4358" y1="643" x2="4366" y2="635" stroke="red" />
<text x="4362" y="651" font-family="Verdana" font-size="8" text-anchor="middle"  dominant-baseline="middle" fill="black" > 624</text>
<text x="4550" y="7" font-family="Verdana" font-size="7" text-anchor="middle"  dominant-baseline="middle" fill="black" > C20</text>
<circle cx="4550" cy="15" r="4" fill="white" stroke="black" />
<line x1="4550" y1="19" x2="4550" y2="289" stroke="black" />
<line x1="4546" y1="285" x2="4554" y2="293" stroke="red" />
<line x1="4546" y1="293" x2="4554" y2="285" stroke="red" />
<text x="4550" y="301" font-family="Verdana" font-size="8" text-anchor="middle"  dominant-baseline="middle" fill="black" > 274</text>
<text x="4650" y="7" font-family="Verdana" font-size="7" text-anchor="middle"  dominant-baseline="middle" fill="black" > C21</text>
<circle cx="4650" cy="15" r="4" fill="white" stroke="black" />
<line x1="4650" y1="19" x2="4650" y2="109" stroke="black" />
<line x1="4646" y1="113" x2="4650" y2="105" stroke="blue" />
<line x1="4650" y1="113" x2="4654" y2="105" stroke="blue" />
<text x="4650" y="121" font-family="Verdana" font-size="8" text-anchor="middle"  dominant-baseline="middle" fill="black" > 94</text>
<text x="4750" y="7" font-family="Verdana" font-size="7" text-anchor="middle"  dominant-baseline="middle" fill="black" > C22</text>
<circle cx="4750" cy="15" r="4" fill="white" stroke="black" />
<line x1="4750" y1="19" x2="4750" y2="16" stroke="black" />
<line x1="4746" y1="20" x2="4750" y2="12" stroke="blue" />
<line x1="4750" y1="20" x2="4754" y2="12" stroke="blue" />
<text x="4750" y="28" font-family="Verdana" font-size="8" text-anchor="middle"  dominant-baseline="middle" fill="black" > 1</text>
<text x="4950" y="7" font-family="Verdana" font-size="7" text-anchor="middle"  dominant-baseline="middle" fill="black" > C23</text>
<circle cx="4950" cy="15" r="4" fill="white" stroke="black" />
<line x1="4950" y1="19" x2="4950" y2="241" stroke="black" />
<line x1="4850" y1="241" x2="5050" y2="241" stroke="black" />
<text x="4975" y="233" font-family="Verdana" font-size="8" text-anchor="middle"  dominant-baseline="middle" fill="black" > 226</text>
<circle cx="4850" cy="241" r="4" fill="white" stroke="black" />
<line x1="4850" y1="245" x2="4850" y2="482" stroke="black" />
<line x1="4846" y1="478" x2="4854" y2="486" stroke="red" />
<line x1="4846" y1="486" x2="4854" y2="478" stroke="red" />
<text x="4850" y="494" font-family="Verdana" font-size="8" text-anchor="middle"  dominant-baseline="middle" fill="black" > 467</text>
<circle cx="4950" cy="241" r="4" fill="white" stroke="black" />
<line x1="4950" y1="245" x2="4950" y2="736" stroke="black" />
<circle cx="4950" cy="736" r="4" fill="white" stroke="black" />
<text x="4950" y="748" font-family="Verdana" font-size="8" text-anchor="middle"  dominant-baseline="middle" fill="black" > 721</text>
<circle cx="5050" cy="241" r="4" fill="white" stroke="black" />
<line x1="5050" y1="245" x2="5050" y2="614" stroke="black" />
<line x1="5025" y1="614" x2="5075" y2="614" stroke="black" />
<text x="5062" y="606" font-family="Verdana" font-size="8" text-anchor="middle"  dominant-baseline="middle" fill="black" > 599</text>
<circle cx="5025" cy="614" r="4" fill="white" stroke="black" />
<line x1="5025" y1="618" x2="5025" y2="663" stroke="black" />
<line x1="5021" y1="659" x2="5029" y2="667" stroke="red" />
<line x1="5021" y1="667" x2="5029" y2="659" stroke="red" />
<text x="5025" y="675" font-family="Verdana" font-size="8" text-anchor="middle"  dominant-baseline="middle" fill="black" > 648</text>
<circle cx="5075" cy="614" r="4" fill="white" stroke="black" />
<line x1="5075" y1="618" x2="5075" y2="666" stroke="black" />
<line x1="5071" y1="662" x2="5079" y2="670" stroke="red" />
<line x1="5071" y1="670" x2="5079" y2="662" stroke="red" />
<text x="5075" y="678" font-family="Verdana" font-size="8" text-anchor="middle"  dominant-baseline="middle" fill="black" > 651</text>
<text x="5150" y="7" font-family="Verdana" font-size="7" text-anchor="middle"  dominant-baseline="middle" fill="black" > C24</text>
<circle cx="5150" cy="15" r="4" fill="white" stroke="black" />
<line x1="5150" y1="19" x2="5150" y2="144" stroke="black" />
<line x1="5146" y1="148" x2="5150" y2="140" stroke="blue" />
<line x1="5150" y1="148" x2="5154" y2="140" stroke="blue" />
<text x="5150" y="156" font-family="Verdana" font-size="8" text-anchor="middle"  dominant-baseline="middle" fill="black" > 129</text>
<text x="5300" y="7" font-family="Verdana" font-size="7" text-anchor="middle"  dominant-baseline="middle" fill="black" > C25</text>
<circle cx="5300" cy="15" r="4" fill="white" stroke="black" />
<line x1="5300" y1="19" x2="5300" y2="163" stroke="black" />
<line x1="5250" y1="163" x2="5350" y2="163" stroke="black" />
<text x="5325" y="155" font-family="Verdana" font-size="8" text-anchor="middle"  dominant-baseline="middle" fill="black" > 148</text>
<circle cx="5250" cy="163" r="4" fill="white" stroke="black" />
<circle cx="5350" cy="163" r="4" fill="white" stroke="black" />
<line x1="5250" y1="167" x2="5250" y2="191" stroke="black" />
<line x1="5250" y1="191" x2="5300" y2="200" stroke="black" />
<line x1="5350" y1="167" x2="5350" y2="191" stroke="black" />
<line x1="5350" y1="191" x2="5300" y2="200" stroke="black" />
<text x="5300" y="188" font-family="Verdana" font-size="8" text-anchor="middle"  dominant-baseline="middle" fill="black" > 185</text>
<circle cx="5300" cy="200" r="4" fill="white" stroke="black" />
<line x1="5300" y1="204" x2="5300" y2="312" stroke="black" />
<line x1="5266" y1="312" x2="5334" y2="312" stroke="black" />
<text x="5308" y="304" font-family="Verdana" font-size="8" text-anchor="middle"  dominant-baseline="middle" fill="black" > 297</text>
<circle cx="5266" cy="312" r="4" fill="white" stroke="black" />
<line x1="5266" y1="316" x2="5266" y2="493" stroke="black" />
<line x1="5262" y1="489" x2="5270" y2="497" stroke="red" />
<line x1="5262" y1="497" x2="5270" y2="489" stroke="red" />
<text x="5266" y="505" font-family="Verdana" font-size="8" text-anchor="middle"  dominant-baseline="middle" fill="black" > 478</text>
<circle cx="5299" cy="312" r="4" fill="white" stroke="black" />
<circle cx="5332" cy="312" r="4" fill="white" stroke="black" />
<line x1="5299" y1="316" x2="5299" y2="355" stroke="black" />
<line x1="5299" y1="355" x2="5315" y2="369" stroke="black" />
<line x1="5332" y1="316" x2="5332" y2="355" stroke="black" />
<line x1="5332" y1="355" x2="5315" y2="369" stroke="black" />
<text x="5315" y="357" font-family="Verdana" font-size="8" text-anchor="middle"  dominant-baseline="middle" fill="black" > 354</text>
<circle cx="5315" cy="369" r="4" fill="white" stroke="black" />
<line x1="5315" y1="373" x2="5315" y2="482" stroke="black" />
<line x1="5311" y1="478" x2="5319" y2="486" stroke="red" />
<line x1="5311" y1="486" x2="5319" y2="478" stroke="red" />
<text x="5315" y="494" font-family="Verdana" font-size="8" text-anchor="middle"  dominant-baseline="middle" fill="black" > 467</text>
<text x="5500" y="7" font-family="Verdana" font-size="7" text-anchor="middle"  dominant-baseline="middle" fill="black" > C26</text>
<circle cx="5500" cy="15" r="4" fill="white" stroke="black" />
<line x1="5500" y1="19" x2="5500" y2="231" stroke="black" />
<line x1="5450" y1="231" x2="5550" y2="231" stroke="black" />
<text x="5525" y="223" font-family="Verdana" font-size="8" text-anchor="middle"  dominant-baseline="middle" fill="black" > 216</text>
<circle cx="5450" cy="231" r="4" fill="white" stroke="black" />
<line x1="5450" y1="235" x2="5450" y2="537" stroke="black" />
<line x1="5446" y1="533" x2="5454" y2="541" stroke="red" />
<line x1="5446" y1="541" x2="5454" y2="533" stroke="red" />
<text x="5450" y="549" font-family="Verdana" font-size="8" text-anchor="middle"  dominant-baseline="middle" fill="black" > 522</text>
<circle cx="5550" cy="231" r="4" fill="white" stroke="black" />
<line x1="5550" y1="235" x2="5550" y2="457" stroke="black" />
<line x1="5525" y1="457" x2="5575" y2="457" stroke="black" />
<text x="5562" y="449" font-family="Verdana" font-size="8" text-anchor="middle"  dominant-baseline="middle" fill="black" > 442</text>
<circle cx="5525" cy="457" r="4" fill="white" stroke="black" />
<circle cx="5575" cy="457" r="4" fill="white" stroke="black" />
<line x1="5525" y1="461" x2="5525" y2="473" stroke="black" />
<line x1="5525" y1="473" x2="5550" y2="478" stroke="black" />
<line x1="5575" y1="461" x2="5575" y2="473" stroke="black" />
<line x1="5575" y1="473" x2="5550" y2="478" stroke="black" />
<text x="5550" y="466" font-family="Verdana" font-size="8" text-anchor="middle"  dominant-baseline="middle" fill="black" > 463</text>
<circle cx="5550" cy="478" r="4" fill="white" stroke="black" />
<line x1="5550" y1="482" x2="5550" y2="556" stroke="black" />
<line x1="5546" y1="552" x2="5554" y2="560" stroke="red" />
<line x1="5546" y1="560" x2="5554" y2="552" stroke="red" />
<text x="5550" y="568" font-family="Verdana" font-size="8" text-anchor="middle"  dominant-baseline="middle" fill="black" > 541</text>
<text x="5800" y="7" font-family="Verdana" font-size="7" text-anchor="middle"  dominant-baseline="middle" fill="black" > C27</text>
<circle cx="5800" cy="15" r="4" fill="white" stroke="black" />
<line x1="5800" y1="19" x2="5800" y2="342" stroke="black" />
<line x1="5650" y1="342" x2="5950" y2="342" stroke="black" />
<text x="5825" y="334" font-family="Verdana" font-size="8" text-anchor="middle"  dominant-baseline="middle" fill="black" > 327</text>
<circle cx="5650" cy="342" r="4" fill="white" stroke="black" />
<circle cx="5750" cy="342" r="4" fill="white" stroke="black" />
<line x1="5650" y1="346" x2="5650" y2="359" stroke="black" />
<line x1="5650" y1="359" x2="5700" y2="364" stroke="black" />
<line x1="5750" y1="346" x2="5750" y2="359" stroke="black" />
<line x1="5750" y1="359" x2="5700" y2="364" stroke="black" />
<text x="5700" y="352" font-family="Verdana" font-size="8" text-anchor="middle"  dominant-baseline="middle" fill="black" > 349</text>
<circle cx="5700" cy="364" r="4" fill="white" stroke="black" />
<circle cx="5850" cy="342" r="4" fill="white" stroke="black" />
<circle cx="5950" cy="342" r="4" fill="white" stroke="black" />
<line x1="5850" y1="346" x2="5850" y2="358" stroke="black" />
<line x1="5850" y1="358" x2="5900" y2="363" stroke="black" />
<line x1="5950" y1="346" x2="5950" y2="358" stroke="black" />
<line x1="5950" y1="358" x2="5900" y2="363" stroke="black" />
<text x="5900" y="351" font-family="Verdana" font-size="8" text-anchor="middle"  dominant-baseline="middle" fill="black" > 348</text>
<circle cx="5900" cy="363" r="4" fill="white" stroke="black" />
<line x1="5700" y1="368" x2="5700" y2="375" stroke="black" />
<line x1="5700" y1="375" x2="5800" y2="378" stroke="black" />
<line x1="5900" y1="367" x2="5900" y2="375" stroke="black" />
<line x1="5900" y1="375" x2="5800" y2="378" stroke="black" />
<text x="5800" y="366" font-family="Verdana" font-size="8" text-anchor="middle"  dominant-baseline="middle" fill="black" > 363</text>
<circle cx="5800" cy="378" r="4" fill="white" stroke="black" />
<line x1="5800" y1="382" x2="5800" y2="490" stroke="black" />
<line x1="5796" y1="486" x2="5804" y2="494" stroke="red" />
<line x1="5796" y1="494" x2="5804" y2="486" stroke="red" />
<text x="5800" y="502" font-family="Verdana" font-size="8" text-anchor="middle"  dominant-baseline="middle" fill="black" > 475</text>
<text x="6100" y="7" font-family="Verdana" font-size="7" text-anchor="middle"  dominant-baseline="middle" fill="black" > C28</text>
<circle cx="6100" cy="15" r="4" fill="white" stroke="black" />
<line x1="6100" y1="19" x2="6100" y2="239" stroke="black" />
<line x1="6050" y1="239" x2="6150" y2="239" stroke="black" />
<text x="6125" y="231" font-family="Verdana" font-size="8" text-anchor="middle"  dominant-baseline="middle" fill="black" > 224</text>
<circle cx="6050" cy="239" r="4" fill="white" stroke="black" />
<line x1="6050" y1="243" x2="6050" y2="414" stroke="black" />
<line x1="6046" y1="410" x2="6054" y2="418" stroke="red" />
<line x1="6046" y1="418" x2="6054" y2="410" stroke="red" />
<text x="6050" y="426" font-family="Verdana" font-size="8" text-anchor="middle"  dominant-baseline="middle" fill="black" > 399</text>
<circle cx="6150" cy="239" r="4" fill="white" stroke="black" />
<line x1="6150" y1="243" x2="6150" y2="425" stroke="black" />
<line x1="6146" y1="421" x2="6154" y2="429" stroke="red" />
<line x1="6146" y1="429" x2="6154" y2="421" stroke="red" />
<text x="6150" y="437" font-family="Verdana" font-size="8" text-anchor="middle"  dominant-baseline="middle" fill="black" > 410</text>
</svg>
