<?xml version="1.0" encoding="utf-8"?>
<svg xmlns="http://www.w3.org/2000/svg" version="1.1" width="3450" height="750">
<rect width="3450" height="15" x="0" y="0" fill="white" />
<rect width="3450" height="15" x="0" y="735" fill="white" />
<rect width="25" height="750" x="0" y="0" fill="white" />
<rect width="25" height="750" x="3425" y="0" fill="white" />
<rect width="3410" height="144" x="25" y="15" fill="ghostwhite" />
<rect width="3410" height="144" x="25" y="159" fill="snow" />
<rect width="3410" height="144" x="25" y="303" fill="ghostwhite" />
<rect width="3410" height="144" x="25" y="447" fill="snow" />
<rect width="3410" height="144" x="25" y="591" fill="ghostwhite" />
<text x="12" y="87" font-family="Verdana" font-size="10" text-anchor="middle"  dominant-baseline="middle" fill="red" > D0</text>
<text x="12" y="231" font-family="Verdana" font-size="10" text-anchor="middle"  dominant-baseline="middle" fill="red" > D1</text>
<text x="12" y="375" font-family="Verdana" font-size="10" text-anchor="middle"  dominant-baseline="middle" fill="red" > D2</text>
<text x="12" y="519" font-family="Verdana" font-size="10" text-anchor="middle"  dominant-baseline="middle" fill="red" > D3</text>
<text x="12" y="663" font-family="Verdana" font-size="10" text-anchor="middle"  dominant-baseline="middle" fill="red" > D4</text>
<text x="12" y="20" font-family="Verdana" font-size="10" text-anchor="middle"  dominant-baseline="middle" fill="black" > 0</text>
<text x="12" y="164" font-family="Verdana" font-size="10" text-anchor="middle"  dominant-baseline="middle" fill="black" > 144</text>
<text x="12" y="308" font-family="Verdana" font-size="10" text-anchor="middle"  dominant-baseline="middle" fill="black" > 288</text>
<text x="12" y="452" font-family="Verdana" font-size="10" text-anchor="middle"  dominant-baseline="middle" fill="black" > 432</text>
<text x="12" y="596" font-family="Verdana" font-size="10" text-anchor="middle"  dominant-baseline="middle" fill="black" > 576</text>
<text x="12" y="740" font-family="Verdana" font-size="10" text-anchor="middle"  dominant-baseline="middle" fill="black" > 720</text>
<text x="50" y="7" font-family="Verdana" font-size="7" text-anchor="middle"  dominant-baseline="middle" fill="black" > C1</text>
<circle cx="50" cy="15" r="4" fill="white" stroke="black" />
<line x1="50" y1="19" x2="50" y2="240" stroke="black" />
<line x1="46" y1="236" x2="54" y2="244" stroke="red" />
<line x1="46" y1="244" x2="54" y2="236" stroke="red" />
<text x="50" y="252" font-family="Verdana" font-size="8" text-anchor="middle"  dominant-baseline="middle" fill="black" > 225</text>
<text x="150" y="7" font-family="Verdana" font-size="7" text-anchor="middle"  dominant-baseline="middle" fill="black" > C2</text>
<circle cx="150" cy="15" r="4" fill="white" stroke="black" />
<line x1="150" y1="19" x2="150" y2="248" stroke="black" />
<line x1="146" y1="252" x2="150" y2="244" stroke="blue" />
<line x1="150" y1="252" x2="154" y2="244" stroke="blue" />
<text x="150" y="260" font-family="Verdana" font-size="8" text-anchor="middle"  dominant-baseline="middle" fill="black" > 233</text>
<text x="250" y="7" font-family="Verdana" font-size="7" text-anchor="middle"  dominant-baseline="middle" fill="black" > C3</text>
<circle cx="250" cy="15" r="4" fill="white" stroke="black" />
<line x1="250" y1="19" x2="250" y2="86" stroke="black" />
<line x1="246" y1="90" x2="250" y2="82" stroke="blue" />
<line x1="250" y1="90" x2="254" y2="82" stroke="blue" />
<text x="250" y="98" font-family="Verdana" font-size="8" text-anchor="middle"  dominant-baseline="middle" fill="black" > 71</text>
<text x="350" y="7" font-family="Verdana" font-size="7" text-anchor="middle"  dominant-baseline="middle" fill="black" > C4</text>
<circle cx="350" cy="15" r="4" fill="white" stroke="black" />
<line x1="350" y1="19" x2="350" y2="69" stroke="black" />
<line x1="346" y1="73" x2="350" y2="65" stroke="blue" />
<line x1="350" y1="73" x2="354" y2="65" stroke="blue" />
<text x="350" y="81" font-family="Verdana" font-size="8" text-anchor="middle"  dominant-baseline="middle" fill="black" > 54</text>
<text x="450" y="7" font-family="Verdana" font-size="7" text-anchor="middle"  dominant-baseline="middle" fill="black" > C5</text>
<circle cx="450" cy="15" r="4" fill="white" stroke="black" />
<line x1="450" y1="19" x2="450" y2="736" stroke="black" />
<circle cx="450" cy="736" r="4" fill="white" stroke="black" />
<text x="450" y="748" font-family="Verdana" font-size="8" text-anchor="middle"  dominant-baseline="middle" fill="black" > 721</text>
<text x="750" y="7" font-family="Verdana" font-size="7" text-anchor="middle"  dominant-baseline="middle" fill="black" > C6</text>
<circle cx="750" cy="15" r="4" fill="white" stroke="black" />
<line x1="750" y1="19" x2="750" y2="484" stroke="black" />
<line x1="550" y1="484" x2="950" y2="484" stroke="black" />
<text x="775" y="476" font-family="Verdana" font-size="8" text-anchor="middle"  dominant-baseline="middle" fill="black" > 469</text>
<circle cx="550" cy="484" r="4" fill="white" stroke="black" />
<line x1="550" y1="488" x2="550" y2="523" stroke="black" />
<line x1="546" y1="519" x2="554" y2="527" stroke="red" />
<line x1="546" y1="527" x2="554" y2="519" stroke="red" />
<text x="550" y="535" font-family="Verdana" font-size="8" text-anchor="middle"  dominant-baseline="middle" fill="black" > 508</text>
<circle cx="650" cy="484" r="4" fill="white" stroke="black" />
<circle cx="750" cy="484" r="4" fill="white" stroke="black" />
<circle cx="850" cy="484" r="4" fill="white" stroke="black" />
<circle cx="950" cy="484" r="4" fill="white" stroke="black" />
<line x1="650" y1="488" x2="650" y2="501" stroke="black" />
<line x1="650" y1="501" x2="800" y2="506" stroke="black" />
<line x1="750" y1="488" x2="750" y2="501" stroke="black" />
<line x1="750" y1="501" x2="800" y2="506" stroke="black" />
<line x1="850" y1="488" x2="850" y2="501" stroke="black" />
<line x1="850" y1="501" x2="800" y2="506" stroke="black" />
<line x1="950" y1="488" x2="950" y2="501" stroke="black" />
<line x1="950" y1="501" x2="800" y2="506" stroke="black" />
<text x="800" y="494" font-family="Verdana" font-size="8" text-anchor="middle"  dominant-baseline="middle" fill="black" > 491</text>
<circle cx="800" cy="506" r="4" fill="white" stroke="black" />
<line x1="800" y1="510" x2="800" y2="600" stroke="black" />
<line x1="796" y1="596" x2="804" y2="604" stroke="red" />
<line x1="796" y1="604" x2="804" y2="596" stroke="red" />
<text x="800" y="612" font-family="Verdana" font-size="8" text-anchor="middle"  dominant-baseline="middle" fill="black" > 585</text>
<text x="1200" y="7" font-family="Verdana" font-size="7" text-anchor="middle"  dominant-baseline="middle" fill="black" > C7</text>
<circle cx="1200" cy="15" r="4" fill="white" stroke="black" />
<line x1="1200" y1="19" x2="1200" y2="249" stroke="black" />
<line x1="1050" y1="249" x2="1350" y2="249" stroke="black" />
<text x="1225" y="241" font-family="Verdana" font-size="8" text-anchor="middle"  dominant-baseline="middle" fill="black" > 234</text>
<circle cx="1050" cy="249" r="4" fill="white" stroke="black" />
<circle cx="1150" cy="249" r="4" fill="white" stroke="black" />
<line x1="1050" y1="253" x2="1050" y2="263" stroke="black" />
<line x1="1050" y1="263" x2="1100" y2="267" stroke="black" />
<line x1="1150" y1="253" x2="1150" y2="263" stroke="black" />
<line x1="1150" y1="263" x2="1100" y2="267" stroke="black" />
<text x="1100" y="255" font-family="Verdana" font-size="8" text-anchor="middle"  dominant-baseline="middle" fill="black" > 252</text>
<circle cx="1100" cy="267" r="4" fill="white" stroke="black" />
<circle cx="1250" cy="249" r="4" fill="white" stroke="black" />
<circle cx="1350" cy="249" r="4" fill="white" stroke="black" />
<line x1="1250" y1="253" x2="1250" y2="262" stroke="black" />
<line x1="1250" y1="262" x2="1300" y2="266" stroke="black" />
<line x1="1350" y1="253" x2="1350" y2="262" stroke="black" />
<line x1="1350" y1="262" x2="1300" y2="266" stroke="black" />
<text x="1300" y="254" font-family="Verdana" font-size="8" text-anchor="middle"  dominant-baseline="middle" fill="black" > 251</text>
<circle cx="1300" cy="266" r="4" fill="white" stroke="black" />
<line x1="1100" y1="271" x2="1100" y2="321" stroke="black" />
<line x1="1100" y1="321" x2="1200" y2="338" stroke="black" />
<line x1="1300" y1="270" x2="1300" y2="321" stroke="black" />
<line x1="1300" y1="321" x2="1200" y2="338" stroke="black" />
<text x="1200" y="326" font-family="Verdana" font-size="8" text-anchor="middle"  dominant-baseline="middle" fill="black" > 323</text>
<circle cx="1200" cy="338" r="4" fill="white" stroke="black" />
<line x1="1200" y1="342" x2="1200" y2="427" stroke="black" />
<line x1="1125" y1="427" x2="1275" y2="427" stroke="black" />
<text x="1212" y="419" font-family="Verdana" font-size="8" text-anchor="middle"  dominant-baseline="middle" fill="black" > 412</text>
<circle cx="1125" cy="427" r="4" fill="white" stroke="black" />
<line x1="1125" y1="431" x2="1125" y2="546" stroke="black" />
<line x1="1121" y1="542" x2="1129" y2="550" stroke="red" />
<line x1="1121" y1="550" x2="1129" y2="542" stroke="red" />
<text x="1125" y="558" font-family="Verdana" font-size="8" text-anchor="middle"  dominant-baseline="middle" fill="black" > 531</text>
<circle cx="1175" cy="427" r="4" fill="white" stroke="black" />
<circle cx="1225" cy="427" r="4" fill="white" stroke="black" />
<line x1="1175" y1="431" x2="1175" y2="465" stroke="black" />
<line x1="1175" y1="465" x2="1200" y2="477" stroke="black" />
<line x1="1225" y1="431" x2="1225" y2="465" stroke="black" />
<line x1="1225" y1="465" x2="1200" y2="477" stroke="black" />
<text x="1200" y="465" font-family="Verdana" font-size="8" text-anchor="middle"  dominant-baseline="middle" fill="black" > 462</text>
<circle cx="1200" cy="477" r="4" fill="white" stroke="black" />
<circle cx="1275" cy="427" r="4" fill="white" stroke="black" />
<line x1="1200" y1="481" x2="1200" y2="492" stroke="black" />
<line x1="1200" y1="492" x2="1237" y2="497" stroke="black" />
<line x1="1275" y1="431" x2="1275" y2="492" stroke="black" />
<line x1="1275" y1="492" x2="1237" y2="497" stroke="black" />
<text x="1237" y="485" font-family="Verdana" font-size="8" text-anchor="middle"  dominant-baseline="middle" fill="black" > 482</text>
<circle cx="1237" cy="497" r="4" fill="white" stroke="black" />
<line x1="1237" y1="501" x2="1237" y2="603" stroke="black" />
<line x1="1233" y1="599" x2="1241" y2="607" stroke="red" />
<line x1="1233" y1="607" x2="1241" y2="599" stroke="red" />
<text x="1237" y="615" font-family="Verdana" font-size="8" text-anchor="middle"  dominant-baseline="middle" fill="black" > 588</text>
<text x="1550" y="7" font-family="Verdana" font-size="7" text-anchor="middle"  dominant-baseline="middle" fill="black" > C8</text>
<circle cx="1550" cy="15" r="4" fill="white" stroke="black" />
<line x1="1550" y1="19" x2="1550" y2="286" stroke="black" />
<line x1="1450" y1="286" x2="1650" y2="286" stroke="black" />
<text x="1575" y="278" font-family="Verdana" font-size="8" text-anchor="middle"  dominant-baseline="middle" fill="black" > 271</text>
<circle cx="1450" cy="286" r="4" fill="white" stroke="black" />
<circle cx="1550" cy="286" r="4" fill="white" stroke="black" />
<line x1="1450" y1="290" x2="1450" y2="296" stroke="black" />
<line x1="1450" y1="296" x2="1500" y2="299" stroke="black" />
<line x1="1550" y1="290" x2="1550" y2="296" stroke="black" />
<line x1="1550" y1="296" x2="1500" y2="299" stroke="black" />
<text x="1500" y="287" font-family="Verdana" font-size="8" text-anchor="middle"  dominant-baseline="middle" fill="black" > 284</text>
<circle cx="1500" cy="299" r="4" fill="white" stroke="black" />
<circle cx="1650" cy="286" r="4" fill="white" stroke="black" />
<line x1="1500" y1="303" x2="1500" y2="306" stroke="black" />
<line x1="1500" y1="306" x2="1575" y2="308" stroke="black" />
<line x1="1650" y1="290" x2="1650" y2="306" stroke="black" />
<line x1="1650" y1="306" x2="1575" y2="308" stroke="black" />
<text x="1575" y="296" font-family="Verdana" font-size="8" text-anchor="middle"  dominant-baseline="middle" fill="black" > 293</text>
<circle cx="1575" cy="308" r="4" fill="white" stroke="black" />
<line x1="1575" y1="312" x2="1575" y2="412" stroke="black" />
<line x1="1571" y1="408" x2="1579" y2="416" stroke="red" />
<line x1="1571" y1="416" x2="1579" y2="408" stroke="red" />
<text x="1575" y="424" font-family="Verdana" font-size="8" text-anchor="middle"  dominant-baseline="middle" fill="black" > 397</text>
<text x="1750" y="7" font-family="Verdana" font-size="7" text-anchor="middle"  dominant-baseline="middle" fill="black" > C9</text>
<circle cx="1750" cy="15" r="4" fill="white" stroke="black" />
<line x1="1750" y1="19" x2="1750" y2="374" stroke="black" />
<line x1="1746" y1="378" x2="1750" y2="370" stroke="blue" />
<line x1="1750" y1="378" x2="1754" y2="370" stroke="blue" />
<text x="1750" y="386" font-family="Verdana" font-size="8" text-anchor="middle"  dominant-baseline="middle" fill="black" > 359</text>
<text x="1900" y="7" font-family="Verdana" font-size="7" text-anchor="middle"  dominant-baseline="middle" fill="black" > C10</text>
<circle cx="1900" cy="15" r="4" fill="white" stroke="black" />
<line x1="1900" y1="19" x2="1900" y2="449" stroke="black" />
<line x1="1850" y1="449" x2="1950" y2="449" stroke="black" />
<text x="1925" y="441" font-family="Verdana" font-size="8" text-anchor="middle"  dominant-baseline="middle" fill="black" > 434</text>
<circle cx="1850" cy="449" r="4" fill="white" stroke="black" />
<circle cx="1950" cy="449" r="4" fill="white" stroke="black" />
<line x1="1850" y1="453" x2="1850" y2="457" stroke="black" />
<line x1="1850" y1="457" x2="1900" y2="459" stroke="black" />
<line x1="1950" y1="453" x2="1950" y2="457" stroke="black" />
<line x1="1950" y1="457" x2="1900" y2="459" stroke="black" />
<text x="1900" y="447" font-family="Verdana" font-size="8" text-anchor="middle"  dominant-baseline="middle" fill="black" > 444</text>
<circle cx="1900" cy="459" r="4" fill="white" stroke="black" />
<line x1="1900" y1="463" x2="1900" y2="513" stroke="black" />
<line x1="1896" y1="509" x2="1904" y2="517" stroke="red" />
<line x1="1896" y1="517" x2="1904" y2="509" stroke="red" />
<text x="1900" y="525" font-family="Verdana" font-size="8" text-anchor="middle"  dominant-baseline="middle" fill="black" > 498</text>
<text x="2050" y="7" font-family="Verdana" font-size="7" text-anchor="middle"  dominant-baseline="middle" fill="black" > C11</text>
<circle cx="2050" cy="15" r="4" fill="white" stroke="black" />
<line x1="2050" y1="19" x2="2050" y2="338" stroke="black" />
<line x1="2046" y1="342" x2="2050" y2="334" stroke="blue" />
<line x1="2050" y1="342" x2="2054" y2="334" stroke="blue" />
<text x="2050" y="350" font-family="Verdana" font-size="8" text-anchor="middle"  dominant-baseline="middle" fill="black" > 323</text>
<text x="2150" y="7" font-family="Verdana" font-size="7" text-anchor="middle"  dominant-baseline="middle" fill="black" > C12</text>
<circle cx="2150" cy="15" r="4" fill="white" stroke="black" />
<line x1="2150" y1="19" x2="2150" y2="145" stroke="black" />
<line x1="2146" y1="149" x2="2150" y2="141" stroke="blue" />
<line x1="2150" y1="149" x2="2154" y2="141" stroke="blue" />
<text x="2150" y="157" font-family="Verdana" font-size="8" text-anchor="middle"  dominant-baseline="middle" fill="black" > 130</text>
<text x="2300" y="7" font-family="Verdana" font-size="7" text-anchor="middle"  dominant-baseline="middle" fill="black" > C13</text>
<circle cx="2300" cy="15" r="4" fill="white" stroke="black" />
<line x1="2300" y1="19" x2="2300" y2="371" stroke="black" />
<line x1="2250" y1="371" x2="2350" y2="371" stroke="black" />
<text x="2325" y="363" font-family="Verdana" font-size="8" text-anchor="middle"  dominant-baseline="middle" fill="black" > 356</text>
<circle cx="2250" cy="371" r="4" fill="white" stroke="black" />
<circle cx="2350" cy="371" r="4" fill="white" stroke="black" />
<line x1="2250" y1="375" x2="2250" y2="404" stroke="black" />
<line x1="2250" y1="404" x2="2300" y2="415" stroke="black" />
<line x1="2350" y1="375" x2="2350" y2="404" stroke="black" />
<line x1="2350" y1="404" x2="2300" y2="415" stroke="black" />
<text x="2300" y="403" font-family="Verdana" font-size="8" text-anchor="middle"  dominant-baseline="middle" fill="black" > 400</text>
<circle cx="2300" cy="415" r="4" fill="white" stroke="black" />
<line x1="2300" y1="419" x2="2300" y2="521" stroke="black" />
<line x1="2296" y1="517" x2="2304" y2="525" stroke="red" />
<line x1="2296" y1="525" x2="2304" y2="517" stroke="red" />
<text x="2300" y="533" font-family="Verdana" font-size="8" text-anchor="middle"  dominant-baseline="middle" fill="black" > 506</text>
<text x="2450" y="7" font-family="Verdana" font-size="7" text-anchor="middle"  dominant-baseline="middle" fill="black" > C14</text>
<circle cx="2450" cy="15" r="4" fill="white" stroke="black" />
<line x1="2450" y1="19" x2="2450" y2="21" stroke="black" />
<line x1="2446" y1="25" x2="2450" y2="17" stroke="blue" />
<line x1="2450" y1="25" x2="2454" y2="17" stroke="blue" />
<text x="2450" y="33" font-family="Verdana" font-size="8" text-anchor="middle"  dominant-baseline="middle" fill="black" > 6</text>
<text x="2550" y="7" font-family="Verdana" font-size="7" text-anchor="middle"  dominant-baseline="middle" fill="black" > C15</text>
<circle cx="2550" cy="15" r="4" fill="white" stroke="black" />
<line x1="2550" y1="19" x2="2550" y2="31" stroke="black" />
<line x1="2546" y1="35" x2="2550" y2="27" stroke="blue" />
<line x1="2550" y1="35" x2="2554" y2="27" stroke="blue" />
<text x="2550" y="43" font-family="Verdana" font-size="8" text-anchor="middle"  dominant-baseline="middle" fill="black" > 16</text>
<text x="2750" y="7" font-family="Verdana" font-size="7" text-anchor="middle"  dominant-baseline="middle" fill="black" > C16</text>
<circle cx="2750" cy="15" r="4" fill="white" stroke="black" />
<line x1="2750" y1="19" x2="2750" y2="429" stroke="black" />
<line x1="2650" y1="429" x2="2850" y2="429" stroke="black" />
<text x="2775" y="421" font-family="Verdana" font-size="8" text-anchor="middle"  dominant-baseline="middle" fill="black" > 414</text>
<circle cx="2650" cy="429" r="4" fill="white" stroke="black" />
<line x1="2650" y1="433" x2="2650" y2="502" stroke="black" />
<line x1="2646" y1="498" x2="2654" y2="506" stroke="red" />
<line x1="2646" y1="506" x2="2654" y2="498" stroke="red" />
<text x="2650" y="514" font-family="Verdana" font-size="8" text-anchor="middle"  dominant-baseline="middle" fill="black" > 487</text>
<circle cx="2750" cy="429" r="4" fill="white" stroke="black" />
<circle cx="2850" cy="429" r="4" fill="white" stroke="black" />
<line x1="2750" y1="433" x2="2750" y2="462" stroke="black" />
<line x1="2750" y1="462" x2="2800" y2="473" stroke="black" />
<line x1="2850" y1="433" x2="2850" y2="462" stroke="black" />
<line x1="2850" y1="462" x2="2800" y2="473" stroke="black" />
<text x="2800" y="461" font-family="Verdana" font-size="8" text-anchor="middle"  dominant-baseline="middle" fill="black" > 458</text>
<circle cx="2800" cy="473" r="4" fill="white" stroke="black" />
<line x1="2800" y1="477" x2="2800" y2="575" stroke="black" />
<line x1="2796" y1="571" x2="2804" y2="579" stroke="red" />
<line x1="2796" y1="579" x2="2804" y2="571" stroke="red" />
<text x="2800" y="587" font-family="Verdana" font-size="8" text-anchor="middle"  dominant-baseline="middle" fill="black" > 560</text>
<text x="3100" y="7" font-family="Verdana" font-size="7" text-anchor="middle"  dominant-baseline="middle" fill="black" > C17</text>
<circle cx="3100" cy="15" r="4" fill="white" stroke="black" />
<line x1="3100" y1="19" x2="3100" y2="418" stroke="black" />
<line x1="2950" y1="418" x2="3250" y2="418" stroke="black" />
<text x="3125" y="410" font-family="Verdana" font-size="8" text-anchor="middle"  dominant-baseline="middle" fill="black" > 403</text>
<circle cx="2950" cy="418" r="4" fill="white" stroke="black" />
<circle cx="3050" cy="418" r="4" fill="white" stroke="black" />
<circle cx="3150" cy="418" r="4" fill="white" stroke="black" />
<circle cx="3250" cy="418" r="4" fill="white" stroke="black" />
<line x1="2950" y1="422" x2="2950" y2="454" stroke="black" />
<line x1="2950" y1="454" x2="3100" y2="466" stroke="black" />
<line x1="3050" y1="422" x2="3050" y2="454" stroke="black" />
<line x1="3050" y1="454" x2="3100" y2="466" stroke="black" />
<line x1="3150" y1="422" x2="3150" y2="454" stroke="black" />
<line x1="3150" y1="454" x2="3100" y2="466" stroke="black" />
<line x1="3250" y1="422" x2="3250" y2="454" stroke="black" />
<line x1="3250" y1="454" x2="3100" y2="466" stroke="black" />
<text x="3100" y="454" font-family="Verdana" font-size="8" text-anchor="middle"  dominant-baseline="middle" fill="black" > 451</text>
<circle cx="3100" cy="466" r="4" fill="white" stroke="black" />
<line x1="3100" y1="470" x2="3100" y2="583" stroke="black" />
<line x1="3096" y1="579" x2="3104" y2="587" stroke="red" />
<line x1="3096" y1="587" x2="3104" y2="579" stroke="red" />
<text x="3100" y="595" font-family="Verdana" font-size="8" text-anchor="middle"  dominant-baseline="middle" fill="black" > 568</text>
<text x="3350" y="7" font-family="Verdana" font-size="7" text-anchor="middle"  dominant-baseline="middle" fill="black" > C18</text>
<circle cx="3350" cy="15" r="4" fill="white" stroke="black" />
<line x1="3350" y1="19" x2="3350" y2="54" stroke="black" />
<line x1="3346" y1="58" x2="3350" y2="50" stroke="blue" />
<line x1="3350" y1="58" x2="3354" y2="50" stroke="blue" />
<text x="3350" y="66" font-family="Verdana" font-size="8" text-anchor="middle"  dominant-baseline="middle" fill="black" > 39</text>
</svg>
