<?xml version="1.0" encoding="utf-8"?>
<svg xmlns="http://www.w3.org/2000/svg" version="1.1" width="5350" height="750">
<rect width="5350" height="15" x="0" y="0" fill="white" />
<rect width="5350" height="15" x="0" y="735" fill="white" />
<rect width="25" height="750" x="0" y="0" fill="white" />
<rect width="25" height="750" x="5325" y="0" fill="white" />
<rect width="5310" height="144" x="25" y="15" fill="ghostwhite" />
<rect width="5310" height="144" x="25" y="159" fill="snow" />
<rect width="5310" height="144" x="25" y="303" fill="ghostwhite" />
<rect width="5310" height="144" x="25" y="447" fill="snow" />
<rect width="5310" height="144" x="25" y="591" fill="ghostwhite" />
<text x="12" y="87" font-family="Verdana" font-size="10" text-anchor="middle"  dominant-baseline="middle" fill="red" > D0</text>
<text x="12" y="231" font-family="Verdana" font-size="10" text-anchor="middle"  dominant-baseline="middle" fill="red" > D1</text>
<text x="12" y="375" font-family="Verdana" font-size="10" text-anchor="middle"  dominant-baseline="middle" fill="red" > D2</text>
<text x="12" y="519" font-family="Verdana" font-size="10" text-anchor="middle"  dominant-baseline="middle" fill="red" > D3</text>
<text x="12" y="663" font-family="Verdana" font-size="10" text-anchor="middle"  dominant-baseline="middle" fill="red" > D4</text>
<text x="12" y="20" font-family="Verdana" font-size="10" text-anchor="middle"  dominant-baseline="middle" fill="black" > 0</text>
<text x="12" y="164" font-family="Verdana" font-size="10" text-anchor="middle"  dominant-baseline="middle" fill="black" > 144</text>
<text x="12" y="308" font-family="Verdana" font-size="10" text-anchor="middle"  dominant-baseline="middle" fill="black" > 288</text>
<text x="12" y="452" font-family="Verdana" font-size="10" text-anchor="middle"  dominant-baseline="middle" fill="black" > 432</text>
<text x="12" y="596" font-family="Verdana" font-size="10" text-anchor="middle"  dominant-baseline="middle" fill="black" > 576</text>
<text x="12" y="740" font-family="Verdana" font-size="10" text-anchor="middle"  dominant-baseline="middle" fill="black" > 720</text>
<text x="200" y="7" font-family="Verdana" font-size="7" text-anchor="middle"  dominant-baseline="middle" fill="black" > C1</text>
<circle cx="200" cy="15" r="4" fill="white" stroke="black" />
<line x1="200" y1="19" x2="200" y2="385" stroke="black" />
<line x1="50" y1="385" x2="350" y2="385" stroke="black" />
<text x="225" y="377" font-family="Verdana" font-size="8" text-anchor="middle"  dominant-baseline="middle" fill="black" > 370</text>
<circle cx="50" cy="385" r="4" fill="white" stroke="black" />
<circle cx="150" cy="385" r="4" fill="white" stroke="black" />
<circle cx="250" cy="385" r="4" fill="white" stroke="black" />
<circle cx="350" cy="385" r="4" fill="white" stroke="black" />
<line x1="50" y1="389" x2="50" y2="408" stroke="black" />
<line x1="50" y1="408" x2="200" y2="415" stroke="black" />
<line x1="150" y1="389" x2="150" y2="408" stroke="black" />
<line x1="150" y1="408" x2="200" y2="415" stroke="black" />
<line x1="250" y1="389" x2="250" y2="408" stroke="black" />
<line x1="250" y1="408" x2="200" y2="415" stroke="black" />
<line x1="350" y1="389" x2="350" y2="408" stroke="black" />
<line x1="350" y1="408" x2="200" y2="415" stroke="black" />
<text x="200" y="403" font-family="Verdana" font-size="8" text-anchor="middle"  dominant-baseline="middle" fill="black" > 400</text>
<circle cx="200" cy="415" r="4" fill="white" stroke="black" />
<line x1="200" y1="419" x2="200" y2="612" stroke="black" />
<line x1="196" y1="608" x2="204" y2="616" stroke="red" />
<line x1="196" y1="616" x2="204" y2="608" stroke="red" />
<text x="200" y="624" font-family="Verdana" font-size="8" text-anchor="middle"  dominant-baseline="middle" fill="black" > 597</text>
<text x="450" y="7" font-family="Verdana" font-size="7" text-anchor="middle"  dominant-baseline="middle" fill="black" > C2</text>
<circle cx="450" cy="15" r="4" fill="white" stroke="black" />
<line x1="450" y1="19" x2="450" y2="431" stroke="black" />
<line x1="446" y1="435" x2="450" y2="427" stroke="blue" />
<line x1="450" y1="435" x2="454" y2="427" stroke="blue" />
<text x="450" y="443" font-family="Verdana" font-size="8" text-anchor="middle"  dominant-baseline="middle" fill="black" > 416</text>
<text x="600" y="7" font-family="Verdana" font-size="7" text-anchor="middle"  dominant-baseline="middle" fill="black" > C3</text>
<circle cx="600" cy="15" r="4" fill="white" stroke="black" />
<line x1="600" y1="19" x2="600" y2="246" stroke="black" />
<line x1="550" y1="246" x2="650" y2="246" stroke="black" />
<text x="625" y="238" font-family="Verdana" font-size="8" text-anchor="middle"  dominant-baseline="middle" fill="black" > 231</text>
<circle cx="550" cy="246" r="4" fill="white" stroke="black" />
<circle cx="650" cy="246" r="4" fill="white" stroke="black" />
<line x1="550" y1="250" x2="550" y2="423" stroke="black" />
<line x1="550" y1="423" x2="600" y2="481" stroke="black" />
<line x1="650" y1="250" x2="650" y2="423" stroke="black" />
<line x1="650" y1="423" x2="600" y2="481" stroke="black" />
<text x="600" y="469" font-family="Verdana" font-size="8" text-anchor="middle"  dominant-baseline="middle" fill="black" > 466</text>
<circle cx="600" cy="481" r="4" fill="white" stroke="black" />
<line x1="600" y1="485" x2="600" y2="544" stroke="black" />
<line x1="596" y1="540" x2="604" y2="548" stroke="red" />
<line x1="596" y1="548" x2="604" y2="540" stroke="red" />
<text x="600" y="556" font-family="Verdana" font-size="8" text-anchor="middle"  dominant-baseline="middle" fill="black" > 529</text>
<text x="850" y="7" font-family="Verdana" font-size="7" text-anchor="middle"  dominant-baseline="middle" fill="black" > C4</text>
<circle cx="850" cy="15" r="4" fill="white" stroke="black" />
<line x1="850" y1="19" x2="850" y2="301" stroke="black" />
<line x1="750" y1="301" x2="950" y2="301" stroke="black" />
<text x="875" y="293" font-family="Verdana" font-size="8" text-anchor="middle"  dominant-baseline="middle" fill="black" > 286</text>
<circle cx="750" cy="301" r="4" fill="white" stroke="black" />
<circle cx="850" cy="301" r="4" fill="white" stroke="black" />
<circle cx="950" cy="301" r="4" fill="white" stroke="black" />
<line x1="750" y1="305" x2="750" y2="321" stroke="black" />
<line x1="750" y1="321" x2="850" y2="327" stroke="black" />
<line x1="850" y1="305" x2="850" y2="321" stroke="black" />
<line x1="850" y1="321" x2="850" y2="327" stroke="black" />
<line x1="950" y1="305" x2="950" y2="321" stroke="black" />
<line x1="950" y1="321" x2="850" y2="327" stroke="black" />
<text x="850" y="315" font-family="Verdana" font-size="8" text-anchor="middle"  dominant-baseline="middle" fill="black" > 312</text>
<circle cx="850" cy="327" r="4" fill="white" stroke="black" />
<line x1="850" y1="331" x2="850" y2="736" stroke="black" />
<circle cx="850" cy="736" r="4" fill="white" stroke="black" />
<text x="850" y="748" font-family="Verdana" font-size="8" text-anchor="middle"  dominant-baseline="middle" fill="black" > 721</text>
<text x="1200" y="7" font-family="Verdana" font-size="7" text-anchor="middle"  dominant-baseline="middle" fill="black" > C5</text>
<circle cx="1200" cy="15" r="4" fill="white" stroke="black" />
<line x1="1200" y1="19" x2="1200" y2="402" stroke="black" />
<line x1="1050" y1="402" x2="1350" y2="402" stroke="black" />
<text x="1225" y="394" font-family="Verdana" font-size="8" text-anchor="middle"  dominant-baseline="middle" fill="black" > 387</text>
<circle cx="1050" cy="402" r="4" fill="white" stroke="black" />
<line x1="1050" y1="406" x2="1050" y2="405" stroke="black" />
<line x1="1046" y1="409" x2="1050" y2="401" stroke="blue" />
<line x1="1050" y1="409" x2="1054" y2="401" stroke="blue" />
<text x="1050" y="417" font-family="Verdana" font-size="8" text-anchor="middle"  dominant-baseline="middle" fill="black" > 390</text>
<circle cx="1150" cy="402" r="4" fill="white" stroke="black" />
<line x1="1150" y1="406" x2="1150" y2="405" stroke="black" />
<line x1="1146" y1="409" x2="1150" y2="401" stroke="blue" />
<line x1="1150" y1="409" x2="1154" y2="401" stroke="blue" />
<text x="1150" y="417" font-family="Verdana" font-size="8" text-anchor="middle"  dominant-baseline="middle" fill="black" > 390</text>
<circle cx="1250" cy="402" r="4" fill="white" stroke="black" />
<line x1="1250" y1="406" x2="1250" y2="405" stroke="black" />
<line x1="1246" y1="409" x2="1250" y2="401" stroke="blue" />
<line x1="1250" y1="409" x2="1254" y2="401" stroke="blue" />
<text x="1250" y="417" font-family="Verdana" font-size="8" text-anchor="middle"  dominant-baseline="middle" fill="black" > 390</text>
<circle cx="1350" cy="402" r="4" fill="white" stroke="black" />
<line x1="1350" y1="406" x2="1350" y2="405" stroke="black" />
<line x1="1346" y1="409" x2="1350" y2="401" stroke="blue" />
<line x1="1350" y1="409" x2="1354" y2="401" stroke="blue" />
<text x="1350" y="417" font-family="Verdana" font-size="8" text-anchor="middle"  dominant-baseline="middle" fill="black" > 390</text>
<text x="1450" y="7" font-family="Verdana" font-size="7" text-anchor="middle"  dominant-baseline="middle" fill="black" > C6</text>
<circle cx="1450" cy="15" r="4" fill="white" stroke="black" />
<line x1="1450" y1="19" x2="1450" y2="458" stroke="black" />
<line x1="1446" y1="462" x2="1450" y2="454" stroke="blue" />
<line x1="1450" y1="462" x2="1454" y2="454" stroke="blue" />
<text x="1450" y="470" font-family="Verdana" font-size="8" text-anchor="middle"  dominant-baseline="middle" fill="black" > 443</text>
<text x="1650" y="7" font-family="Verdana" font-size="7" text-anchor="middle"  dominant-baseline="middle" fill="black" > C7</text>
<circle cx="1650" cy="15" r="4" fill="white" stroke="black" />
<line x1="1650" y1="19" x2="1650" y2="379" stroke="black" />
<line x1="1550" y1="379" x2="1750" y2="379" stroke="black" />
<text x="1675" y="371" font-family="Verdana" font-size="8" text-anchor="middle"  dominant-baseline="middle" fill="black" > 364</text>
<circle cx="1550" cy="379" r="4" fill="white" stroke="black" />
<circle cx="1650" cy="379" r="4" fill="white" stroke="black" />
<line x1="1550" y1="383" x2="1550" y2="395" stroke="black" />
<line x1="1550" y1="395" x2="1600" y2="400" stroke="black" />
<line x1="1650" y1="383" x2="1650" y2="395" stroke="black" />
<line x1="1650" y1="395" x2="1600" y2="400" stroke="black" />
<text x="1600" y="388" font-family="Verdana" font-size="8" text-anchor="middle"  dominant-baseline="middle" fill="black" > 385</text>
<circle cx="1600" cy="400" r="4" fill="white" stroke="black" />
<circle cx="1750" cy="379" r="4" fill="white" stroke="black" />
<line x1="1600" y1="404" x2="1600" y2="404" stroke="black" />
<line x1="1600" y1="404" x2="1675" y2="405" stroke="black" />
<line x1="1750" y1="383" x2="1750" y2="404" stroke="black" />
<line x1="1750" y1="404" x2="1675" y2="405" stroke="black" />
<text x="1675" y="393" font-family="Verdana" font-size="8" text-anchor="middle"  dominant-baseline="middle" fill="black" > 390</text>
<circle cx="1675" cy="405" r="4" fill="white" stroke="black" />
<line x1="1675" y1="409" x2="1675" y2="574" stroke="black" />
<line x1="1671" y1="570" x2="1679" y2="578" stroke="red" />
<line x1="1671" y1="578" x2="1679" y2="570" stroke="red" />
<text x="1675" y="586" font-family="Verdana" font-size="8" text-anchor="middle"  dominant-baseline="middle" fill="black" > 559</text>
<text x="2000" y="7" font-family="Verdana" font-size="7" text-anchor="middle"  dominant-baseline="middle" fill="black" > C8</text>
<circle cx="2000" cy="15" r="4" fill="white" stroke="black" />
<line x1="2000" y1="19" x2="2000" y2="411" stroke="black" />
<line x1="1850" y1="411" x2="2150" y2="411" stroke="black" />
<text x="2025" y="403" font-family="Verdana" font-size="8" text-anchor="middle"  dominant-baseline="middle" fill="black" > 396</text>
<circle cx="1850" cy="411" r="4" fill="white" stroke="black" />
<line x1="1850" y1="415" x2="1850" y2="436" stroke="black" />
<circle cx="1850" cy="436" r="4" fill="white" stroke="black" />
<text x="1850" y="448" font-family="Verdana" font-size="8" text-anchor="middle"  dominant-baseline="middle" fill="black" > 421</text>
<circle cx="1950" cy="411" r="4" fill="white" stroke="black" />
<circle cx="2050" cy="411" r="4" fill="white" stroke="black" />
<circle cx="2150" cy="411" r="4" fill="white" stroke="black" />
<line x1="1950" y1="415" x2="1950" y2="427" stroke="black" />
<line x1="1950" y1="427" x2="2050" y2="432" stroke="black" />
<line x1="2050" y1="415" x2="2050" y2="427" stroke="black" />
<line x1="2050" y1="427" x2="2050" y2="432" stroke="black" />
<line x1="2150" y1="415" x2="2150" y2="427" stroke="black" />
<line x1="2150" y1="427" x2="2050" y2="432" stroke="black" />
<text x="2050" y="420" font-family="Verdana" font-size="8" text-anchor="middle"  dominant-baseline="middle" fill="black" > 417</text>
<circle cx="2050" cy="432" r="4" fill="white" stroke="black" />
<line x1="2050" y1="436" x2="2050" y2="434" stroke="black" />
<line x1="2046" y1="430" x2="2054" y2="438" stroke="red" />
<line x1="2046" y1="438" x2="2054" y2="430" stroke="red" />
<text x="2050" y="446" font-family="Verdana" font-size="8" text-anchor="middle"  dominant-baseline="middle" fill="black" > 419</text>
<text x="2300" y="7" font-family="Verdana" font-size="7" text-anchor="middle"  dominant-baseline="middle" fill="black" > C9</text>
<circle cx="2300" cy="15" r="4" fill="white" stroke="black" />
<line x1="2300" y1="19" x2="2300" y2="215" stroke="black" />
<line x1="2250" y1="215" x2="2350" y2="215" stroke="black" />
<text x="2325" y="207" font-family="Verdana" font-size="8" text-anchor="middle"  dominant-baseline="middle" fill="black" > 200</text>
<circle cx="2250" cy="215" r="4" fill="white" stroke="black" />
<circle cx="2350" cy="215" r="4" fill="white" stroke="black" />
<line x1="2250" y1="219" x2="2250" y2="297" stroke="black" />
<line x1="2250" y1="297" x2="2300" y2="324" stroke="black" />
<line x1="2350" y1="219" x2="2350" y2="297" stroke="black" />
<line x1="2350" y1="297" x2="2300" y2="324" stroke="black" />
<text x="2300" y="312" font-family="Verdana" font-size="8" text-anchor="middle"  dominant-baseline="middle" fill="black" > 309</text>
<circle cx="2300" cy="324" r="4" fill="white" stroke="black" />
<line x1="2300" y1="328" x2="2300" y2="366" stroke="black" />
<line x1="2266" y1="366" x2="2334" y2="366" stroke="black" />
<text x="2308" y="358" font-family="Verdana" font-size="8" text-anchor="middle"  dominant-baseline="middle" fill="black" > 351</text>
<circle cx="2266" cy="366" r="4" fill="white" stroke="black" />
<line x1="2266" y1="370" x2="2266" y2="596" stroke="black" />
<line x1="2262" y1="592" x2="2270" y2="600" stroke="red" />
<line x1="2262" y1="600" x2="2270" y2="592" stroke="red" />
<text x="2266" y="608" font-family="Verdana" font-size="8" text-anchor="middle"  dominant-baseline="middle" fill="black" > 581</text>
<circle cx="2299" cy="366" r="4" fill="white" stroke="black" />
<circle cx="2332" cy="366" r="4" fill="white" stroke="black" />
<line x1="2299" y1="370" x2="2299" y2="492" stroke="black" />
<line x1="2299" y1="492" x2="2315" y2="534" stroke="black" />
<line x1="2332" y1="370" x2="2332" y2="492" stroke="black" />
<line x1="2332" y1="492" x2="2315" y2="534" stroke="black" />
<text x="2315" y="522" font-family="Verdana" font-size="8" text-anchor="middle"  dominant-baseline="middle" fill="black" > 519</text>
<circle cx="2315" cy="534" r="4" fill="white" stroke="black" />
<line x1="2315" y1="538" x2="2315" y2="630" stroke="black" />
<line x1="2311" y1="626" x2="2319" y2="634" stroke="red" />
<line x1="2311" y1="634" x2="2319" y2="626" stroke="red" />
<text x="2315" y="642" font-family="Verdana" font-size="8" text-anchor="middle"  dominant-baseline="middle" fill="black" > 615</text>
<text x="2500" y="7" font-family="Verdana" font-size="7" text-anchor="middle"  dominant-baseline="middle" fill="black" > C10</text>
<circle cx="2500" cy="15" r="4" fill="white" stroke="black" />
<line x1="2500" y1="19" x2="2500" y2="266" stroke="black" />
<line x1="2450" y1="266" x2="2550" y2="266" stroke="black" />
<text x="2525" y="258" font-family="Verdana" font-size="8" text-anchor="middle"  dominant-baseline="middle" fill="black" > 251</text>
<circle cx="2450" cy="266" r="4" fill="white" stroke="black" />
<line x1="2450" y1="270" x2="2450" y2="344" stroke="black" />
<line x1="2446" y1="340" x2="2454" y2="348" stroke="red" />
<line x1="2446" y1="348" x2="2454" y2="340" stroke="red" />
<text x="2450" y="356" font-family="Verdana" font-size="8" text-anchor="middle"  dominant-baseline="middle" fill="black" > 329</text>
<circle cx="2550" cy="266" r="4" fill="white" stroke="black" />
<line x1="2550" y1="270" x2="2550" y2="557" stroke="black" />
<line x1="2516" y1="557" x2="2584" y2="557" stroke="black" />
<text x="2558" y="549" font-family="Verdana" font-size="8" text-anchor="middle"  dominant-baseline="middle" fill="black" > 542</text>
<circle cx="2516" cy="557" r="4" fill="white" stroke="black" />
<line x1="2516" y1="561" x2="2516" y2="608" stroke="black" />
<line x1="2512" y1="604" x2="2520" y2="612" stroke="red" />
<line x1="2512" y1="612" x2="2520" y2="604" stroke="red" />
<text x="2516" y="620" font-family="Verdana" font-size="8" text-anchor="middle"  dominant-baseline="middle" fill="black" > 593</text>
<circle cx="2549" cy="557" r="4" fill="white" stroke="black" />
<circle cx="2582" cy="557" r="4" fill="white" stroke="black" />
<line x1="2549" y1="561" x2="2549" y2="588" stroke="black" />
<line x1="2549" y1="588" x2="2565" y2="598" stroke="black" />
<line x1="2582" y1="561" x2="2582" y2="588" stroke="black" />
<line x1="2582" y1="588" x2="2565" y2="598" stroke="black" />
<text x="2565" y="586" font-family="Verdana" font-size="8" text-anchor="middle"  dominant-baseline="middle" fill="black" > 583</text>
<circle cx="2565" cy="598" r="4" fill="white" stroke="black" />
<line x1="2565" y1="602" x2="2565" y2="607" stroke="black" />
<line x1="2561" y1="603" x2="2569" y2="611" stroke="red" />
<line x1="2561" y1="611" x2="2569" y2="603" stroke="red" />
<text x="2565" y="619" font-family="Verdana" font-size="8" text-anchor="middle"  dominant-baseline="middle" fill="black" > 592</text>
<text x="2750" y="7" font-family="Verdana" font-size="7" text-anchor="middle"  dominant-baseline="middle" fill="black" > C11</text>
<circle cx="2750" cy="15" r="4" fill="white" stroke="black" />
<line x1="2750" y1="19" x2="2750" y2="412" stroke="black" />
<line x1="2650" y1="412" x2="2850" y2="412" stroke="black" />
<text x="2775" y="404" font-family="Verdana" font-size="8" text-anchor="middle"  dominant-baseline="middle" fill="black" > 397</text>
<circle cx="2650" cy="412" r="4" fill="white" stroke="black" />
<circle cx="2750" cy="412" r="4" fill="white" stroke="black" />
<line x1="2650" y1="416" x2="2650" y2="426" stroke="black" />
<line x1="2650" y1="426" x2="2700" y2="430" stroke="black" />
<line x1="2750" y1="416" x2="2750" y2="426" stroke="black" />
<line x1="2750" y1="426" x2="2700" y2="430" stroke="black" />
<text x="2700" y="418" font-family="Verdana" font-size="8" text-anchor="middle"  dominant-baseline="middle" fill="black" > 415</text>
<circle cx="2700" cy="430" r="4" fill="white" stroke="black" />
<line x1="2700" y1="434" x2="2700" y2="608" stroke="black" />
<line x1="2696" y1="604" x2="2704" y2="612" stroke="red" />
<line x1="2696" y1="612" x2="2704" y2="604" stroke="red" />
<text x="2700" y="620" font-family="Verdana" font-size="8" text-anchor="middle"  dominant-baseline="middle" fill="black" > 593</text>
<circle cx="2850" cy="412" r="4" fill="white" stroke="black" />
<line x1="2850" y1="416" x2="2850" y2="598" stroke="black" />
<line x1="2846" y1="594" x2="2854" y2="602" stroke="red" />
<line x1="2846" y1="602" x2="2854" y2="594" stroke="red" />
<text x="2850" y="610" font-family="Verdana" font-size="8" text-anchor="middle"  dominant-baseline="middle" fill="black" > 583</text>
<text x="2950" y="7" font-family="Verdana" font-size="7" text-anchor="middle"  dominant-baseline="middle" fill="black" > C12</text>
<circle cx="2950" cy="15" r="4" fill="white" stroke="black" />
<line x1="2950" y1="19" x2="2950" y2="97" stroke="black" />
<line x1="2946" y1="101" x2="2950" y2="93" stroke="blue" />
<line x1="2950" y1="101" x2="2954" y2="93" stroke="blue" />
<text x="2950" y="109" font-family="Verdana" font-size="8" text-anchor="middle"  dominant-baseline="middle" fill="black" > 82</text>
<text x="3200" y="7" font-family="Verdana" font-size="7" text-anchor="middle"  dominant-baseline="middle" fill="black" > C13</text>
<circle cx="3200" cy="15" r="4" fill="white" stroke="black" />
<line x1="3200" y1="19" x2="3200" y2="448" stroke="black" />
<line x1="3050" y1="448" x2="3350" y2="448" stroke="black" />
<text x="3225" y="440" font-family="Verdana" font-size="8" text-anchor="middle"  dominant-baseline="middle" fill="black" > 433</text>
<circle cx="3050" cy="448" r="4" fill="white" stroke="black" />
<line x1="3050" y1="452" x2="3050" y2="572" stroke="black" />
<line x1="3046" y1="568" x2="3054" y2="576" stroke="red" />
<line x1="3046" y1="576" x2="3054" y2="568" stroke="red" />
<text x="3050" y="584" font-family="Verdana" font-size="8" text-anchor="middle"  dominant-baseline="middle" fill="black" > 557</text>
<circle cx="3150" cy="448" r="4" fill="white" stroke="black" />
<circle cx="3250" cy="448" r="4" fill="white" stroke="black" />
<line x1="3150" y1="452" x2="3150" y2="456" stroke="black" />
<line x1="3150" y1="456" x2="3200" y2="458" stroke="black" />
<line x1="3250" y1="452" x2="3250" y2="456" stroke="black" />
<line x1="3250" y1="456" x2="3200" y2="458" stroke="black" />
<text x="3200" y="446" font-family="Verdana" font-size="8" text-anchor="middle"  dominant-baseline="middle" fill="black" > 443</text>
<circle cx="3200" cy="458" r="4" fill="white" stroke="black" />
<circle cx="3350" cy="448" r="4" fill="white" stroke="black" />
<line x1="3200" y1="462" x2="3200" y2="499" stroke="black" />
<line x1="3200" y1="499" x2="3275" y2="512" stroke="black" />
<line x1="3350" y1="452" x2="3350" y2="499" stroke="black" />
<line x1="3350" y1="499" x2="3275" y2="512" stroke="black" />
<text x="3275" y="500" font-family="Verdana" font-size="8" text-anchor="middle"  dominant-baseline="middle" fill="black" > 497</text>
<circle cx="3275" cy="512" r="4" fill="white" stroke="black" />
<line x1="3275" y1="516" x2="3275" y2="565" stroke="black" />
<line x1="3271" y1="561" x2="3279" y2="569" stroke="red" />
<line x1="3271" y1="569" x2="3279" y2="561" stroke="red" />
<text x="3275" y="577" font-family="Verdana" font-size="8" text-anchor="middle"  dominant-baseline="middle" fill="black" > 550</text>
<text x="3450" y="7" font-family="Verdana" font-size="7" text-anchor="middle"  dominant-baseline="middle" fill="black" > C14</text>
<circle cx="3450" cy="15" r="4" fill="white" stroke="black" />
<line x1="3450" y1="19" x2="3450" y2="736" stroke="black" />
<circle cx="3450" cy="736" r="4" fill="white" stroke="black" />
<text x="3450" y="748" font-family="Verdana" font-size="8" text-anchor="middle"  dominant-baseline="middle" fill="black" > 721</text>
<text x="3650" y="7" font-family="Verdana" font-size="7" text-anchor="middle"  dominant-baseline="middle" fill="black" > C15</text>
<circle cx="3650" cy="15" r="4" fill="white" stroke="black" />
<line x1="3650" y1="19" x2="3650" y2="252" stroke="black" />
<line x1="3550" y1="252" x2="3750" y2="252" stroke="black" />
<text x="3675" y="244" font-family="Verdana" font-size="8" text-anchor="middle"  dominant-baseline="middle" fill="black" > 237</text>
<circle cx="3550" cy="252" r="4" fill="white" stroke="black" />
<circle cx="3650" cy="252" r="4" fill="white" stroke="black" />
<line x1="3550" y1="256" x2="3550" y2="263" stroke="black" />
<line x1="3550" y1="263" x2="3600" y2="266" stroke="black" />
<line x1="3650" y1="256" x2="3650" y2="263" stroke="black" />
<line x1="3650" y1="263" x2="3600" y2="266" stroke="black" />
<text x="3600" y="254" font-family="Verdana" font-size="8" text-anchor="middle"  dominant-baseline="middle" fill="black" > 251</text>
<circle cx="3600" cy="266" r="4" fill="white" stroke="black" />
<circle cx="3750" cy="252" r="4" fill="white" stroke="black" />
<line x1="3600" y1="270" x2="3600" y2="314" stroke="black" />
<line x1="3600" y1="314" x2="3675" y2="330" stroke="black" />
<line x1="3750" y1="256" x2="3750" y2="314" stroke="black" />
<line x1="3750" y1="314" x2="3675" y2="330" stroke="black" />
<text x="3675" y="318" font-family="Verdana" font-size="8" text-anchor="middle"  dominant-baseline="middle" fill="black" > 315</text>
<circle cx="3675" cy="330" r="4" fill="white" stroke="black" />
<line x1="3675" y1="334" x2="3675" y2="563" stroke="black" />
<line x1="3671" y1="567" x2="3675" y2="559" stroke="blue" />
<line x1="3675" y1="567" x2="3679" y2="559" stroke="blue" />
<text x="3675" y="575" font-family="Verdana" font-size="8" text-anchor="middle"  dominant-baseline="middle" fill="black" > 548</text>
<text x="3850" y="7" font-family="Verdana" font-size="7" text-anchor="middle"  dominant-baseline="middle" fill="black" > C16</text>
<circle cx="3850" cy="15" r="4" fill="white" stroke="black" />
<line x1="3850" y1="19" x2="3850" y2="472" stroke="black" />
<line x1="3846" y1="468" x2="3854" y2="476" stroke="red" />
<line x1="3846" y1="476" x2="3854" y2="468" stroke="red" />
<text x="3850" y="484" font-family="Verdana" font-size="8" text-anchor="middle"  dominant-baseline="middle" fill="black" > 457</text>
<text x="3950" y="7" font-family="Verdana" font-size="7" text-anchor="middle"  dominant-baseline="middle" fill="black" > C17</text>
<circle cx="3950" cy="15" r="4" fill="white" stroke="black" />
<line x1="3950" y1="19" x2="3950" y2="453" stroke="black" />
<line x1="3946" y1="449" x2="3954" y2="457" stroke="red" />
<line x1="3946" y1="457" x2="3954" y2="449" stroke="red" />
<text x="3950" y="465" font-family="Verdana" font-size="8" text-anchor="middle"  dominant-baseline="middle" fill="black" > 438</text>
<text x="4150" y="7" font-family="Verdana" font-size="7" text-anchor="middle"  dominant-baseline="middle" fill="black" > C18</text>
<circle cx="4150" cy="15" r="4" fill="white" stroke="black" />
<line x1="4150" y1="19" x2="4150" y2="306" stroke="black" />
<line x1="4050" y1="306" x2="4250" y2="306" stroke="black" />
<text x="4175" y="298" font-family="Verdana" font-size="8" text-anchor="middle"  dominant-baseline="middle" fill="black" > 291</text>
<circle cx="4050" cy="306" r="4" fill="white" stroke="black" />
<circle cx="4150" cy="306" r="4" fill="white" stroke="black" />
<circle cx="4250" cy="306" r="4" fill="white" stroke="black" />
<line x1="4050" y1="310" x2="4050" y2="321" stroke="black" />
<line x1="4050" y1="321" x2="4150" y2="326" stroke="black" />
<line x1="4150" y1="310" x2="4150" y2="321" stroke="black" />
<line x1="4150" y1="321" x2="4150" y2="326" stroke="black" />
<line x1="4250" y1="310" x2="4250" y2="321" stroke="black" />
<line x1="4250" y1="321" x2="4150" y2="326" stroke="black" />
<text x="4150" y="314" font-family="Verdana" font-size="8" text-anchor="middle"  dominant-baseline="middle" fill="black" > 311</text>
<circle cx="4150" cy="326" r="4" fill="white" stroke="black" />
<line x1="4150" y1="330" x2="4150" y2="440" stroke="black" />
<line x1="4146" y1="436" x2="4154" y2="444" stroke="red" />
<line x1="4146" y1="444" x2="4154" y2="436" stroke="red" />
<text x="4150" y="452" font-family="Verdana" font-size="8" text-anchor="middle"  dominant-baseline="middle" fill="black" > 425</text>
<text x="4400" y="7" font-family="Verdana" font-size="7" text-anchor="middle"  dominant-baseline="middle" fill="black" > C19</text>
<circle cx="4400" cy="15" r="4" fill="white" stroke="black" />
<line x1="4400" y1="19" x2="4400" y2="301" stroke="black" />
<line x1="4350" y1="301" x2="4450" y2="301" stroke="black" />
<text x="4425" y="293" font-family="Verdana" font-size="8" text-anchor="middle"  dominant-baseline="middle" fill="black" > 286</text>
<circle cx="4350" cy="301" r="4" fill="white" stroke="black" />
<circle cx="4450" cy="301" r="4" fill="white" stroke="black" />
<line x1="4350" y1="305" x2="4350" y2="343" stroke="black" />
<line x1="4350" y1="343" x2="4400" y2="356" stroke="black" />
<line x1="4450" y1="305" x2="4450" y2="343" stroke="black" />
<line x1="4450" y1="343" x2="4400" y2="356" stroke="black" />
<text x="4400" y="344" font-family="Verdana" font-size="8" text-anchor="middle"  dominant-baseline="middle" fill="black" > 341</text>
<circle cx="4400" cy="356" r="4" fill="white" stroke="black" />
<line x1="4400" y1="360" x2="4400" y2="736" stroke="black" />
<circle cx="4400" cy="736" r="4" fill="white" stroke="black" />
<text x="4400" y="748" font-family="Verdana" font-size="8" text-anchor="middle"  dominant-baseline="middle" fill="black" > 721</text>
<text x="4700" y="7" font-family="Verdana" font-size="7" text-anchor="middle"  dominant-baseline="middle" fill="black" > C20</text>
<circle cx="4700" cy="15" r="4" fill="white" stroke="black" />
<line x1="4700" y1="19" x2="4700" y2="405" stroke="black" />
<line x1="4550" y1="405" x2="4850" y2="405" stroke="black" />
<text x="4725" y="397" font-family="Verdana" font-size="8" text-anchor="middle"  dominant-baseline="middle" fill="black" > 390</text>
<circle cx="4550" cy="405" r="4" fill="white" stroke="black" />
<circle cx="4650" cy="405" r="4" fill="white" stroke="black" />
<line x1="4550" y1="409" x2="4550" y2="422" stroke="black" />
<line x1="4550" y1="422" x2="4600" y2="427" stroke="black" />
<line x1="4650" y1="409" x2="4650" y2="422" stroke="black" />
<line x1="4650" y1="422" x2="4600" y2="427" stroke="black" />
<text x="4600" y="415" font-family="Verdana" font-size="8" text-anchor="middle"  dominant-baseline="middle" fill="black" > 412</text>
<circle cx="4600" cy="427" r="4" fill="white" stroke="black" />
<circle cx="4750" cy="405" r="4" fill="white" stroke="black" />
<circle cx="4850" cy="405" r="4" fill="white" stroke="black" />
<line x1="4600" y1="431" x2="4600" y2="459" stroke="black" />
<line x1="4600" y1="459" x2="4725" y2="469" stroke="black" />
<line x1="4750" y1="409" x2="4750" y2="459" stroke="black" />
<line x1="4750" y1="459" x2="4725" y2="469" stroke="black" />
<line x1="4850" y1="409" x2="4850" y2="459" stroke="black" />
<line x1="4850" y1="459" x2="4725" y2="469" stroke="black" />
<text x="4725" y="457" font-family="Verdana" font-size="8" text-anchor="middle"  dominant-baseline="middle" fill="black" > 454</text>
<circle cx="4725" cy="469" r="4" fill="white" stroke="black" />
<line x1="4725" y1="473" x2="4725" y2="736" stroke="black" />
<circle cx="4725" cy="736" r="4" fill="white" stroke="black" />
<text x="4725" y="748" font-family="Verdana" font-size="8" text-anchor="middle"  dominant-baseline="middle" fill="black" > 721</text>
<text x="4950" y="7" font-family="Verdana" font-size="7" text-anchor="middle"  dominant-baseline="middle" fill="black" > C21</text>
<circle cx="4950" cy="15" r="4" fill="white" stroke="black" />
<line x1="4950" y1="19" x2="4950" y2="270" stroke="black" />
<line x1="4946" y1="274" x2="4950" y2="266" stroke="blue" />
<line x1="4950" y1="274" x2="4954" y2="266" stroke="blue" />
<text x="4950" y="282" font-family="Verdana" font-size="8" text-anchor="middle"  dominant-baseline="middle" fill="black" > 255</text>
<text x="5050" y="7" font-family="Verdana" font-size="7" text-anchor="middle"  dominant-baseline="middle" fill="black" > C22</text>
<circle cx="5050" cy="15" r="4" fill="white" stroke="black" />
<line x1="5050" y1="19" x2="5050" y2="16" stroke="black" />
<line x1="5046" y1="20" x2="5050" y2="12" stroke="blue" />
<line x1="5050" y1="20" x2="5054" y2="12" stroke="blue" />
<text x="5050" y="28" font-family="Verdana" font-size="8" text-anchor="middle"  dominant-baseline="middle" fill="black" > 1</text>
<text x="5150" y="7" font-family="Verdana" font-size="7" text-anchor="middle"  dominant-baseline="middle" fill="black" > C23</text>
<circle cx="5150" cy="15" r="4" fill="white" stroke="black" />
<line x1="5150" y1="19" x2="5150" y2="285" stroke="black" />
<line x1="5146" y1="289" x2="5150" y2="281" stroke="blue" />
<line x1="5150" y1="289" x2="5154" y2="281" stroke="blue" />
<text x="5150" y="297" font-family="Verdana" font-size="8" text-anchor="middle"  dominant-baseline="middle" fill="black" > 270</text>
<text x="5250" y="7" font-family="Verdana" font-size="7" text-anchor="middle"  dominant-baseline="middle" fill="black" > C24</text>
<circle cx="5250" cy="15" r="4" fill="white" stroke="black" />
<line x1="5250" y1="19" x2="5250" y2="58" stroke="black" />
<line x1="5246" y1="62" x2="5250" y2="54" stroke="blue" />
<line x1="5250" y1="62" x2="5254" y2="54" stroke="blue" />
<text x="5250" y="70" font-family="Verdana" font-size="8" text-anchor="middle"  dominant-baseline="middle" fill="black" > 43</text>
</svg>
