<?xml version="1.0" encoding="utf-8"?>
<svg xmlns="http://www.w3.org/2000/svg" version="1.1" width="4850" height="750">
<rect width="4850" height="15" x="0" y="0" fill="white" />
<rect width="4850" height="15" x="0" y="735" fill="white" />
<rect width="25" height="750" x="0" y="0" fill="white" />
<rect width="25" height="750" x="4825" y="0" fill="white" />
<rect width="4810" height="144" x="25" y="15" fill="ghostwhite" />
<rect width="4810" height="144" x="25" y="159" fill="snow" />
<rect width="4810" height="144" x="25" y="303" fill="ghostwhite" />
<rect width="4810" height="144" x="25" y="447" fill="snow" />
<rect width="4810" height="144" x="25" y="591" fill="ghostwhite" />
<text x="12" y="87" font-family="Verdana" font-size="10" text-anchor="middle"  dominant-baseline="middle" fill="red" > D0</text>
<text x="12" y="231" font-family="Verdana" font-size="10" text-anchor="middle"  dominant-baseline="middle" fill="red" > D1</text>
<text x="12" y="375" font-family="Verdana" font-size="10" text-anchor="middle"  dominant-baseline="middle" fill="red" > D2</text>
<text x="12" y="519" font-family="Verdana" font-size="10" text-anchor="middle"  dominant-baseline="middle" fill="red" > D3</text>
<text x="12" y="663" font-family="Verdana" font-size="10" text-anchor="middle"  dominant-baseline="middle" fill="red" > D4</text>
<text x="12" y="20" font-family="Verdana" font-size="10" text-anchor="middle"  dominant-baseline="middle" fill="black" > 0</text>
<text x="12" y="164" font-family="Verdana" font-size="10" text-anchor="middle"  dominant-baseline="middle" fill="black" > 144</text>
<text x="12" y="308" font-family="Verdana" font-size="10" text-anchor="middle"  dominant-baseline="middle" fill="black" > 288</text>
<text x="12" y="452" font-family="Verdana" font-size="10" text-anchor="middle"  dominant-baseline="middle" fill="black" > 432</text>
<text x="12" y="596" font-family="Verdana" font-size="10" text-anchor="middle"  dominant-baseline="middle" fill="black" > 576</text>
<text x="12" y="740" font-family="Verdana" font-size="10" text-anchor="middle"  dominant-baseline="middle" fill="black" > 720</text>
<text x="200" y="7" font-family="Verdana" font-size="7" text-anchor="middle"  dominant-baseline="middle" fill="black" > C1</text>
<circle cx="200" cy="15" r="4" fill="white" stroke="black" />
<line x1="200" y1="19" x2="200" y2="361" stroke="black" />
<line x1="50" y1="361" x2="350" y2="361" stroke="black" />
<text x="225" y="353" font-family="Verdana" font-size="8" text-anchor="middle"  dominant-baseline="middle" fill="black" > 346</text>
<circle cx="50" cy="361" r="4" fill="white" stroke="black" />
<circle cx="150" cy="361" r="4" fill="white" stroke="black" />
<line x1="50" y1="365" x2="50" y2="371" stroke="black" />
<line x1="50" y1="371" x2="100" y2="374" stroke="black" />
<line x1="150" y1="365" x2="150" y2="371" stroke="black" />
<line x1="150" y1="371" x2="100" y2="374" stroke="black" />
<text x="100" y="362" font-family="Verdana" font-size="8" text-anchor="middle"  dominant-baseline="middle" fill="black" > 359</text>
<circle cx="100" cy="374" r="4" fill="white" stroke="black" />
<circle cx="250" cy="361" r="4" fill="white" stroke="black" />
<circle cx="350" cy="361" r="4" fill="white" stroke="black" />
<line x1="250" y1="365" x2="250" y2="370" stroke="black" />
<line x1="250" y1="370" x2="300" y2="372" stroke="black" />
<line x1="350" y1="365" x2="350" y2="370" stroke="black" />
<line x1="350" y1="370" x2="300" y2="372" stroke="black" />
<text x="300" y="360" font-family="Verdana" font-size="8" text-anchor="middle"  dominant-baseline="middle" fill="black" > 357</text>
<circle cx="300" cy="372" r="4" fill="white" stroke="black" />
<line x1="100" y1="378" x2="100" y2="377" stroke="black" />
<line x1="100" y1="377" x2="200" y2="377" stroke="black" />
<line x1="300" y1="376" x2="300" y2="377" stroke="black" />
<line x1="300" y1="377" x2="200" y2="377" stroke="black" />
<text x="200" y="365" font-family="Verdana" font-size="8" text-anchor="middle"  dominant-baseline="middle" fill="black" > 362</text>
<circle cx="200" cy="377" r="4" fill="white" stroke="black" />
<line x1="200" y1="381" x2="200" y2="451" stroke="black" />
<line x1="196" y1="447" x2="204" y2="455" stroke="red" />
<line x1="196" y1="455" x2="204" y2="447" stroke="red" />
<text x="200" y="463" font-family="Verdana" font-size="8" text-anchor="middle"  dominant-baseline="middle" fill="black" > 436</text>
<text x="500" y="7" font-family="Verdana" font-size="7" text-anchor="middle"  dominant-baseline="middle" fill="black" > C2</text>
<circle cx="500" cy="15" r="4" fill="white" stroke="black" />
<line x1="500" y1="19" x2="500" y2="220" stroke="black" />
<line x1="450" y1="220" x2="550" y2="220" stroke="black" />
<text x="525" y="212" font-family="Verdana" font-size="8" text-anchor="middle"  dominant-baseline="middle" fill="black" > 205</text>
<circle cx="450" cy="220" r="4" fill="white" stroke="black" />
<circle cx="550" cy="220" r="4" fill="white" stroke="black" />
<line x1="450" y1="224" x2="450" y2="273" stroke="black" />
<line x1="450" y1="273" x2="500" y2="290" stroke="black" />
<line x1="550" y1="224" x2="550" y2="273" stroke="black" />
<line x1="550" y1="273" x2="500" y2="290" stroke="black" />
<text x="500" y="278" font-family="Verdana" font-size="8" text-anchor="middle"  dominant-baseline="middle" fill="black" > 275</text>
<circle cx="500" cy="290" r="4" fill="white" stroke="black" />
<line x1="500" y1="294" x2="500" y2="533" stroke="black" />
<line x1="496" y1="529" x2="504" y2="537" stroke="red" />
<line x1="496" y1="537" x2="504" y2="529" stroke="red" />
<text x="500" y="545" font-family="Verdana" font-size="8" text-anchor="middle"  dominant-baseline="middle" fill="black" > 518</text>
<text x="700" y="7" font-family="Verdana" font-size="7" text-anchor="middle"  dominant-baseline="middle" fill="black" > C3</text>
<circle cx="700" cy="15" r="4" fill="white" stroke="black" />
<line x1="700" y1="19" x2="700" y2="277" stroke="black" />
<line x1="650" y1="277" x2="750" y2="277" stroke="black" />
<text x="725" y="269" font-family="Verdana" font-size="8" text-anchor="middle"  dominant-baseline="middle" fill="black" > 262</text>
<circle cx="650" cy="277" r="4" fill="white" stroke="black" />
<circle cx="750" cy="277" r="4" fill="white" stroke="black" />
<line x1="650" y1="281" x2="650" y2="286" stroke="black" />
<line x1="650" y1="286" x2="700" y2="288" stroke="black" />
<line x1="750" y1="281" x2="750" y2="286" stroke="black" />
<line x1="750" y1="286" x2="700" y2="288" stroke="black" />
<text x="700" y="276" font-family="Verdana" font-size="8" text-anchor="middle"  dominant-baseline="middle" fill="black" > 273</text>
<circle cx="700" cy="288" r="4" fill="white" stroke="black" />
<line x1="700" y1="292" x2="700" y2="338" stroke="black" />
<line x1="696" y1="334" x2="704" y2="342" stroke="red" />
<line x1="696" y1="342" x2="704" y2="334" stroke="red" />
<text x="700" y="350" font-family="Verdana" font-size="8" text-anchor="middle"  dominant-baseline="middle" fill="black" > 323</text>
<text x="850" y="7" font-family="Verdana" font-size="7" text-anchor="middle"  dominant-baseline="middle" fill="black" > C4</text>
<circle cx="850" cy="15" r="4" fill="white" stroke="black" />
<line x1="850" y1="19" x2="850" y2="407" stroke="black" />
<line x1="846" y1="403" x2="854" y2="411" stroke="red" />
<line x1="846" y1="411" x2="854" y2="403" stroke="red" />
<text x="850" y="419" font-family="Verdana" font-size="8" text-anchor="middle"  dominant-baseline="middle" fill="black" > 392</text>
<text x="950" y="7" font-family="Verdana" font-size="7" text-anchor="middle"  dominant-baseline="middle" fill="black" > C5</text>
<circle cx="950" cy="15" r="4" fill="white" stroke="black" />
<line x1="950" y1="19" x2="950" y2="82" stroke="black" />
<line x1="946" y1="86" x2="950" y2="78" stroke="blue" />
<line x1="950" y1="86" x2="954" y2="78" stroke="blue" />
<text x="950" y="94" font-family="Verdana" font-size="8" text-anchor="middle"  dominant-baseline="middle" fill="black" > 67</text>
<text x="1200" y="7" font-family="Verdana" font-size="7" text-anchor="middle"  dominant-baseline="middle" fill="black" > C6</text>
<circle cx="1200" cy="15" r="4" fill="white" stroke="black" />
<line x1="1200" y1="19" x2="1200" y2="323" stroke="black" />
<line x1="1050" y1="323" x2="1350" y2="323" stroke="black" />
<text x="1225" y="315" font-family="Verdana" font-size="8" text-anchor="middle"  dominant-baseline="middle" fill="black" > 308</text>
<circle cx="1050" cy="323" r="4" fill="white" stroke="black" />
<circle cx="1150" cy="323" r="4" fill="white" stroke="black" />
<line x1="1050" y1="327" x2="1050" y2="338" stroke="black" />
<line x1="1050" y1="338" x2="1100" y2="343" stroke="black" />
<line x1="1150" y1="327" x2="1150" y2="338" stroke="black" />
<line x1="1150" y1="338" x2="1100" y2="343" stroke="black" />
<text x="1100" y="331" font-family="Verdana" font-size="8" text-anchor="middle"  dominant-baseline="middle" fill="black" > 328</text>
<circle cx="1100" cy="343" r="4" fill="white" stroke="black" />
<circle cx="1250" cy="323" r="4" fill="white" stroke="black" />
<line x1="1100" y1="347" x2="1100" y2="347" stroke="black" />
<line x1="1100" y1="347" x2="1175" y2="348" stroke="black" />
<line x1="1250" y1="327" x2="1250" y2="347" stroke="black" />
<line x1="1250" y1="347" x2="1175" y2="348" stroke="black" />
<text x="1175" y="336" font-family="Verdana" font-size="8" text-anchor="middle"  dominant-baseline="middle" fill="black" > 333</text>
<circle cx="1175" cy="348" r="4" fill="white" stroke="black" />
<line x1="1175" y1="352" x2="1175" y2="635" stroke="black" />
<line x1="1171" y1="631" x2="1179" y2="639" stroke="red" />
<line x1="1171" y1="639" x2="1179" y2="631" stroke="red" />
<text x="1175" y="647" font-family="Verdana" font-size="8" text-anchor="middle"  dominant-baseline="middle" fill="black" > 620</text>
<circle cx="1350" cy="323" r="4" fill="white" stroke="black" />
<line x1="1350" y1="327" x2="1350" y2="736" stroke="black" />
<circle cx="1350" cy="736" r="4" fill="white" stroke="black" />
<text x="1350" y="748" font-family="Verdana" font-size="8" text-anchor="middle"  dominant-baseline="middle" fill="black" > 721</text>
<text x="1450" y="7" font-family="Verdana" font-size="7" text-anchor="middle"  dominant-baseline="middle" fill="black" > C7</text>
<circle cx="1450" cy="15" r="4" fill="white" stroke="black" />
<line x1="1450" y1="19" x2="1450" y2="342" stroke="black" />
<line x1="1446" y1="346" x2="1450" y2="338" stroke="blue" />
<line x1="1450" y1="346" x2="1454" y2="338" stroke="blue" />
<text x="1450" y="354" font-family="Verdana" font-size="8" text-anchor="middle"  dominant-baseline="middle" fill="black" > 327</text>
<text x="1700" y="7" font-family="Verdana" font-size="7" text-anchor="middle"  dominant-baseline="middle" fill="black" > C8</text>
<circle cx="1700" cy="15" r="4" fill="white" stroke="black" />
<line x1="1700" y1="19" x2="1700" y2="668" stroke="black" />
<line x1="1550" y1="668" x2="1850" y2="668" stroke="black" />
<text x="1725" y="660" font-family="Verdana" font-size="8" text-anchor="middle"  dominant-baseline="middle" fill="black" > 653</text>
<circle cx="1550" cy="668" r="4" fill="white" stroke="black" />
<circle cx="1650" cy="668" r="4" fill="white" stroke="black" />
<line x1="1550" y1="672" x2="1550" y2="679" stroke="black" />
<line x1="1550" y1="679" x2="1600" y2="682" stroke="black" />
<line x1="1650" y1="672" x2="1650" y2="679" stroke="black" />
<line x1="1650" y1="679" x2="1600" y2="682" stroke="black" />
<text x="1600" y="670" font-family="Verdana" font-size="8" text-anchor="middle"  dominant-baseline="middle" fill="black" > 667</text>
<circle cx="1600" cy="682" r="4" fill="white" stroke="black" />
<circle cx="1750" cy="668" r="4" fill="white" stroke="black" />
<circle cx="1850" cy="668" r="4" fill="white" stroke="black" />
<line x1="1750" y1="672" x2="1750" y2="688" stroke="black" />
<line x1="1750" y1="688" x2="1800" y2="694" stroke="black" />
<line x1="1850" y1="672" x2="1850" y2="688" stroke="black" />
<line x1="1850" y1="688" x2="1800" y2="694" stroke="black" />
<text x="1800" y="682" font-family="Verdana" font-size="8" text-anchor="middle"  dominant-baseline="middle" fill="black" > 679</text>
<circle cx="1800" cy="694" r="4" fill="white" stroke="black" />
<line x1="1600" y1="686" x2="1600" y2="700" stroke="black" />
<line x1="1600" y1="700" x2="1700" y2="702" stroke="black" />
<line x1="1800" y1="698" x2="1800" y2="700" stroke="black" />
<line x1="1800" y1="700" x2="1700" y2="702" stroke="black" />
<text x="1700" y="690" font-family="Verdana" font-size="8" text-anchor="middle"  dominant-baseline="middle" fill="black" > 687</text>
<circle cx="1700" cy="702" r="4" fill="white" stroke="black" />
<line x1="1700" y1="706" x2="1700" y2="736" stroke="black" />
<circle cx="1700" cy="736" r="4" fill="white" stroke="black" />
<text x="1700" y="748" font-family="Verdana" font-size="8" text-anchor="middle"  dominant-baseline="middle" fill="black" > 721</text>
<text x="2100" y="7" font-family="Verdana" font-size="7" text-anchor="middle"  dominant-baseline="middle" fill="black" > C9</text>
<circle cx="2100" cy="15" r="4" fill="white" stroke="black" />
<line x1="2100" y1="19" x2="2100" y2="317" stroke="black" />
<line x1="1950" y1="317" x2="2250" y2="317" stroke="black" />
<text x="2125" y="309" font-family="Verdana" font-size="8" text-anchor="middle"  dominant-baseline="middle" fill="black" > 302</text>
<circle cx="1950" cy="317" r="4" fill="white" stroke="black" />
<circle cx="2050" cy="317" r="4" fill="white" stroke="black" />
<circle cx="2150" cy="317" r="4" fill="white" stroke="black" />
<circle cx="2250" cy="317" r="4" fill="white" stroke="black" />
<line x1="1950" y1="321" x2="1950" y2="329" stroke="black" />
<line x1="1950" y1="329" x2="2100" y2="332" stroke="black" />
<line x1="2050" y1="321" x2="2050" y2="329" stroke="black" />
<line x1="2050" y1="329" x2="2100" y2="332" stroke="black" />
<line x1="2150" y1="321" x2="2150" y2="329" stroke="black" />
<line x1="2150" y1="329" x2="2100" y2="332" stroke="black" />
<line x1="2250" y1="321" x2="2250" y2="329" stroke="black" />
<line x1="2250" y1="329" x2="2100" y2="332" stroke="black" />
<text x="2100" y="320" font-family="Verdana" font-size="8" text-anchor="middle"  dominant-baseline="middle" fill="black" > 317</text>
<circle cx="2100" cy="332" r="4" fill="white" stroke="black" />
<line x1="2100" y1="336" x2="2100" y2="661" stroke="black" />
<line x1="2096" y1="657" x2="2104" y2="665" stroke="red" />
<line x1="2096" y1="665" x2="2104" y2="657" stroke="red" />
<text x="2100" y="673" font-family="Verdana" font-size="8" text-anchor="middle"  dominant-baseline="middle" fill="black" > 646</text>
<text x="2350" y="7" font-family="Verdana" font-size="7" text-anchor="middle"  dominant-baseline="middle" fill="black" > C10</text>
<circle cx="2350" cy="15" r="4" fill="white" stroke="black" />
<line x1="2350" y1="19" x2="2350" y2="81" stroke="black" />
<line x1="2346" y1="85" x2="2350" y2="77" stroke="blue" />
<line x1="2350" y1="85" x2="2354" y2="77" stroke="blue" />
<text x="2350" y="93" font-family="Verdana" font-size="8" text-anchor="middle"  dominant-baseline="middle" fill="black" > 66</text>
<text x="2500" y="7" font-family="Verdana" font-size="7" text-anchor="middle"  dominant-baseline="middle" fill="black" > C11</text>
<circle cx="2500" cy="15" r="4" fill="white" stroke="black" />
<line x1="2500" y1="19" x2="2500" y2="175" stroke="black" />
<line x1="2450" y1="175" x2="2550" y2="175" stroke="black" />
<text x="2525" y="167" font-family="Verdana" font-size="8" text-anchor="middle"  dominant-baseline="middle" fill="black" > 160</text>
<circle cx="2450" cy="175" r="4" fill="white" stroke="black" />
<line x1="2450" y1="179" x2="2450" y2="736" stroke="black" />
<circle cx="2450" cy="736" r="4" fill="white" stroke="black" />
<text x="2450" y="748" font-family="Verdana" font-size="8" text-anchor="middle"  dominant-baseline="middle" fill="black" > 721</text>
<circle cx="2550" cy="175" r="4" fill="white" stroke="black" />
<line x1="2550" y1="179" x2="2550" y2="406" stroke="black" />
<line x1="2546" y1="410" x2="2550" y2="402" stroke="blue" />
<line x1="2550" y1="410" x2="2554" y2="402" stroke="blue" />
<text x="2550" y="418" font-family="Verdana" font-size="8" text-anchor="middle"  dominant-baseline="middle" fill="black" > 391</text>
<text x="2750" y="7" font-family="Verdana" font-size="7" text-anchor="middle"  dominant-baseline="middle" fill="black" > C12</text>
<circle cx="2750" cy="15" r="4" fill="white" stroke="black" />
<line x1="2750" y1="19" x2="2750" y2="358" stroke="black" />
<line x1="2650" y1="358" x2="2850" y2="358" stroke="black" />
<text x="2775" y="350" font-family="Verdana" font-size="8" text-anchor="middle"  dominant-baseline="middle" fill="black" > 343</text>
<circle cx="2650" cy="358" r="4" fill="white" stroke="black" />
<circle cx="2750" cy="358" r="4" fill="white" stroke="black" />
<circle cx="2850" cy="358" r="4" fill="white" stroke="black" />
<line x1="2650" y1="362" x2="2650" y2="397" stroke="black" />
<line x1="2650" y1="397" x2="2750" y2="410" stroke="black" />
<line x1="2750" y1="362" x2="2750" y2="397" stroke="black" />
<line x1="2750" y1="397" x2="2750" y2="410" stroke="black" />
<line x1="2850" y1="362" x2="2850" y2="397" stroke="black" />
<line x1="2850" y1="397" x2="2750" y2="410" stroke="black" />
<text x="2750" y="398" font-family="Verdana" font-size="8" text-anchor="middle"  dominant-baseline="middle" fill="black" > 395</text>
<circle cx="2750" cy="410" r="4" fill="white" stroke="black" />
<line x1="2750" y1="414" x2="2750" y2="429" stroke="black" />
<line x1="2746" y1="425" x2="2754" y2="433" stroke="red" />
<line x1="2746" y1="433" x2="2754" y2="425" stroke="red" />
<text x="2750" y="441" font-family="Verdana" font-size="8" text-anchor="middle"  dominant-baseline="middle" fill="black" > 414</text>
<text x="2950" y="7" font-family="Verdana" font-size="7" text-anchor="middle"  dominant-baseline="middle" fill="black" > C13</text>
<circle cx="2950" cy="15" r="4" fill="white" stroke="black" />
<line x1="2950" y1="19" x2="2950" y2="16" stroke="black" />
<line x1="2946" y1="20" x2="2950" y2="12" stroke="blue" />
<line x1="2950" y1="20" x2="2954" y2="12" stroke="blue" />
<text x="2950" y="28" font-family="Verdana" font-size="8" text-anchor="middle"  dominant-baseline="middle" fill="black" > 1</text>
<text x="3150" y="7" font-family="Verdana" font-size="7" text-anchor="middle"  dominant-baseline="middle" fill="black" > C14</text>
<circle cx="3150" cy="15" r="4" fill="white" stroke="black" />
<line x1="3150" y1="19" x2="3150" y2="139" stroke="black" />
<line x1="3050" y1="139" x2="3250" y2="139" stroke="black" />
<text x="3175" y="131" font-family="Verdana" font-size="8" text-anchor="middle"  dominant-baseline="middle" fill="black" > 124</text>
<circle cx="3050" cy="139" r="4" fill="white" stroke="black" />
<line x1="3050" y1="143" x2="3050" y2="515" stroke="black" />
<line x1="3046" y1="511" x2="3054" y2="519" stroke="red" />
<line x1="3046" y1="519" x2="3054" y2="511" stroke="red" />
<text x="3050" y="527" font-family="Verdana" font-size="8" text-anchor="middle"  dominant-baseline="middle" fill="black" > 500</text>
<circle cx="3150" cy="139" r="4" fill="white" stroke="black" />
<circle cx="3250" cy="139" r="4" fill="white" stroke="black" />
<line x1="3150" y1="143" x2="3150" y2="160" stroke="black" />
<line x1="3150" y1="160" x2="3200" y2="167" stroke="black" />
<line x1="3250" y1="143" x2="3250" y2="160" stroke="black" />
<line x1="3250" y1="160" x2="3200" y2="167" stroke="black" />
<text x="3200" y="155" font-family="Verdana" font-size="8" text-anchor="middle"  dominant-baseline="middle" fill="black" > 152</text>
<circle cx="3200" cy="167" r="4" fill="white" stroke="black" />
<line x1="3200" y1="171" x2="3200" y2="303" stroke="black" />
<line x1="3175" y1="303" x2="3225" y2="303" stroke="black" />
<text x="3212" y="295" font-family="Verdana" font-size="8" text-anchor="middle"  dominant-baseline="middle" fill="black" > 288</text>
<circle cx="3175" cy="303" r="4" fill="white" stroke="black" />
<line x1="3175" y1="307" x2="3175" y2="600" stroke="black" />
<line x1="3171" y1="596" x2="3179" y2="604" stroke="red" />
<line x1="3171" y1="604" x2="3179" y2="596" stroke="red" />
<text x="3175" y="612" font-family="Verdana" font-size="8" text-anchor="middle"  dominant-baseline="middle" fill="black" > 585</text>
<circle cx="3225" cy="303" r="4" fill="white" stroke="black" />
<line x1="3225" y1="307" x2="3225" y2="386" stroke="black" />
<line x1="3221" y1="382" x2="3229" y2="390" stroke="red" />
<line x1="3221" y1="390" x2="3229" y2="382" stroke="red" />
<text x="3225" y="398" font-family="Verdana" font-size="8" text-anchor="middle"  dominant-baseline="middle" fill="black" > 371</text>
<text x="3350" y="7" font-family="Verdana" font-size="7" text-anchor="middle"  dominant-baseline="middle" fill="black" > C15</text>
<circle cx="3350" cy="15" r="4" fill="white" stroke="black" />
<line x1="3350" y1="19" x2="3350" y2="300" stroke="black" />
<line x1="3346" y1="296" x2="3354" y2="304" stroke="red" />
<line x1="3346" y1="304" x2="3354" y2="296" stroke="red" />
<text x="3350" y="312" font-family="Verdana" font-size="8" text-anchor="middle"  dominant-baseline="middle" fill="black" > 285</text>
<text x="3450" y="7" font-family="Verdana" font-size="7" text-anchor="middle"  dominant-baseline="middle" fill="black" > C16</text>
<circle cx="3450" cy="15" r="4" fill="white" stroke="black" />
<line x1="3450" y1="19" x2="3450" y2="275" stroke="black" />
<line x1="3446" y1="271" x2="3454" y2="279" stroke="red" />
<line x1="3446" y1="279" x2="3454" y2="271" stroke="red" />
<text x="3450" y="287" font-family="Verdana" font-size="8" text-anchor="middle"  dominant-baseline="middle" fill="black" > 260</text>
<text x="3700" y="7" font-family="Verdana" font-size="7" text-anchor="middle"  dominant-baseline="middle" fill="black" > C17</text>
<circle cx="3700" cy="15" r="4" fill="white" stroke="black" />
<line x1="3700" y1="19" x2="3700" y2="287" stroke="black" />
<line x1="3550" y1="287" x2="3850" y2="287" stroke="black" />
<text x="3725" y="279" font-family="Verdana" font-size="8" text-anchor="middle"  dominant-baseline="middle" fill="black" > 272</text>
<circle cx="3550" cy="287" r="4" fill="white" stroke="black" />
<line x1="3550" y1="291" x2="3550" y2="348" stroke="black" />
<line x1="3546" y1="344" x2="3554" y2="352" stroke="red" />
<line x1="3546" y1="352" x2="3554" y2="344" stroke="red" />
<text x="3550" y="360" font-family="Verdana" font-size="8" text-anchor="middle"  dominant-baseline="middle" fill="black" > 333</text>
<circle cx="3650" cy="287" r="4" fill="white" stroke="black" />
<circle cx="3750" cy="287" r="4" fill="white" stroke="black" />
<line x1="3650" y1="291" x2="3650" y2="312" stroke="black" />
<line x1="3650" y1="312" x2="3700" y2="320" stroke="black" />
<line x1="3750" y1="291" x2="3750" y2="312" stroke="black" />
<line x1="3750" y1="312" x2="3700" y2="320" stroke="black" />
<text x="3700" y="308" font-family="Verdana" font-size="8" text-anchor="middle"  dominant-baseline="middle" fill="black" > 305</text>
<circle cx="3700" cy="320" r="4" fill="white" stroke="black" />
<circle cx="3850" cy="287" r="4" fill="white" stroke="black" />
<line x1="3700" y1="324" x2="3700" y2="325" stroke="black" />
<line x1="3700" y1="325" x2="3775" y2="326" stroke="black" />
<line x1="3850" y1="291" x2="3850" y2="325" stroke="black" />
<line x1="3850" y1="325" x2="3775" y2="326" stroke="black" />
<text x="3775" y="314" font-family="Verdana" font-size="8" text-anchor="middle"  dominant-baseline="middle" fill="black" > 311</text>
<circle cx="3775" cy="326" r="4" fill="white" stroke="black" />
<line x1="3775" y1="330" x2="3775" y2="475" stroke="black" />
<line x1="3771" y1="471" x2="3779" y2="479" stroke="red" />
<line x1="3771" y1="479" x2="3779" y2="471" stroke="red" />
<text x="3775" y="487" font-family="Verdana" font-size="8" text-anchor="middle"  dominant-baseline="middle" fill="black" > 460</text>
<text x="4000" y="7" font-family="Verdana" font-size="7" text-anchor="middle"  dominant-baseline="middle" fill="black" > C18</text>
<circle cx="4000" cy="15" r="4" fill="white" stroke="black" />
<line x1="4000" y1="19" x2="4000" y2="291" stroke="black" />
<line x1="3950" y1="291" x2="4050" y2="291" stroke="black" />
<text x="4025" y="283" font-family="Verdana" font-size="8" text-anchor="middle"  dominant-baseline="middle" fill="black" > 276</text>
<circle cx="3950" cy="291" r="4" fill="white" stroke="black" />
<circle cx="4050" cy="291" r="4" fill="white" stroke="black" />
<line x1="3950" y1="295" x2="3950" y2="340" stroke="black" />
<line x1="3950" y1="340" x2="4000" y2="356" stroke="black" />
<line x1="4050" y1="295" x2="4050" y2="340" stroke="black" />
<line x1="4050" y1="340" x2="4000" y2="356" stroke="black" />
<text x="4000" y="344" font-family="Verdana" font-size="8" text-anchor="middle"  dominant-baseline="middle" fill="black" > 341</text>
<circle cx="4000" cy="356" r="4" fill="white" stroke="black" />
<line x1="4000" y1="360" x2="4000" y2="408" stroke="black" />
<line x1="3996" y1="404" x2="4004" y2="412" stroke="red" />
<line x1="3996" y1="412" x2="4004" y2="404" stroke="red" />
<text x="4000" y="420" font-family="Verdana" font-size="8" text-anchor="middle"  dominant-baseline="middle" fill="black" > 393</text>
<text x="4150" y="7" font-family="Verdana" font-size="7" text-anchor="middle"  dominant-baseline="middle" fill="black" > C19</text>
<circle cx="4150" cy="15" r="4" fill="white" stroke="black" />
<line x1="4150" y1="19" x2="4150" y2="324" stroke="black" />
<line x1="4146" y1="320" x2="4154" y2="328" stroke="red" />
<line x1="4146" y1="328" x2="4154" y2="320" stroke="red" />
<text x="4150" y="336" font-family="Verdana" font-size="8" text-anchor="middle"  dominant-baseline="middle" fill="black" > 309</text>
<text x="4400" y="7" font-family="Verdana" font-size="7" text-anchor="middle"  dominant-baseline="middle" fill="black" > C20</text>
<circle cx="4400" cy="15" r="4" fill="white" stroke="black" />
<line x1="4400" y1="19" x2="4400" y2="341" stroke="black" />
<line x1="4250" y1="341" x2="4550" y2="341" stroke="black" />
<text x="4425" y="333" font-family="Verdana" font-size="8" text-anchor="middle"  dominant-baseline="middle" fill="black" > 326</text>
<circle cx="4250" cy="341" r="4" fill="white" stroke="black" />
<circle cx="4350" cy="341" r="4" fill="white" stroke="black" />
<circle cx="4450" cy="341" r="4" fill="white" stroke="black" />
<circle cx="4550" cy="341" r="4" fill="white" stroke="black" />
<line x1="4250" y1="345" x2="4250" y2="345" stroke="black" />
<line x1="4250" y1="345" x2="4400" y2="346" stroke="black" />
<line x1="4350" y1="345" x2="4350" y2="345" stroke="black" />
<line x1="4350" y1="345" x2="4400" y2="346" stroke="black" />
<line x1="4450" y1="345" x2="4450" y2="345" stroke="black" />
<line x1="4450" y1="345" x2="4400" y2="346" stroke="black" />
<line x1="4550" y1="345" x2="4550" y2="345" stroke="black" />
<line x1="4550" y1="345" x2="4400" y2="346" stroke="black" />
<text x="4400" y="334" font-family="Verdana" font-size="8" text-anchor="middle"  dominant-baseline="middle" fill="black" > 331</text>
<circle cx="4400" cy="346" r="4" fill="white" stroke="black" />
<line x1="4400" y1="350" x2="4400" y2="367" stroke="black" />
<line x1="4396" y1="363" x2="4404" y2="371" stroke="red" />
<line x1="4396" y1="371" x2="4404" y2="363" stroke="red" />
<text x="4400" y="379" font-family="Verdana" font-size="8" text-anchor="middle"  dominant-baseline="middle" fill="black" > 352</text>
<text x="4650" y="7" font-family="Verdana" font-size="7" text-anchor="middle"  dominant-baseline="middle" fill="black" > C21</text>
<circle cx="4650" cy="15" r="4" fill="white" stroke="black" />
<line x1="4650" y1="19" x2="4650" y2="423" stroke="black" />
<line x1="4646" y1="419" x2="4654" y2="427" stroke="red" />
<line x1="4646" y1="427" x2="4654" y2="419" stroke="red" />
<text x="4650" y="435" font-family="Verdana" font-size="8" text-anchor="middle"  dominant-baseline="middle" fill="black" > 408</text>
<text x="4750" y="7" font-family="Verdana" font-size="7" text-anchor="middle"  dominant-baseline="middle" fill="black" > C22</text>
<circle cx="4750" cy="15" r="4" fill="white" stroke="black" />
<line x1="4750" y1="19" x2="4750" y2="71" stroke="black" />
<line x1="4746" y1="75" x2="4750" y2="67" stroke="blue" />
<line x1="4750" y1="75" x2="4754" y2="67" stroke="blue" />
<text x="4750" y="83" font-family="Verdana" font-size="8" text-anchor="middle"  dominant-baseline="middle" fill="black" > 56</text>
</svg>
