<?xml version="1.0" encoding="utf-8"?>
<svg xmlns="http://www.w3.org/2000/svg" version="1.1" width="6550" height="750">
<rect width="6550" height="15" x="0" y="0" fill="white" />
<rect width="6550" height="15" x="0" y="735" fill="white" />
<rect width="25" height="750" x="0" y="0" fill="white" />
<rect width="25" height="750" x="6525" y="0" fill="white" />
<rect width="6510" height="144" x="25" y="15" fill="lavender" />
<rect width="6510" height="144" x="25" y="159" fill="lavenderblush" />
<rect width="6510" height="144" x="25" y="303" fill="lavender" />
<rect width="6510" height="144" x="25" y="447" fill="lavenderblush" />
<rect width="6510" height="144" x="25" y="591" fill="lavender" />
<text x="12" y="87" font-family="Verdana" font-size="10" text-anchor="middle"  dominant-baseline="middle" fill="red" > D0</text>
<text x="12" y="231" font-family="Verdana" font-size="10" text-anchor="middle"  dominant-baseline="middle" fill="red" > D1</text>
<text x="12" y="375" font-family="Verdana" font-size="10" text-anchor="middle"  dominant-baseline="middle" fill="red" > D2</text>
<text x="12" y="519" font-family="Verdana" font-size="10" text-anchor="middle"  dominant-baseline="middle" fill="red" > D3</text>
<text x="12" y="663" font-family="Verdana" font-size="10" text-anchor="middle"  dominant-baseline="middle" fill="red" > D4</text>
<text x="12" y="20" font-family="Verdana" font-size="10" text-anchor="middle"  dominant-baseline="middle" fill="black" > 0</text>
<text x="12" y="164" font-family="Verdana" font-size="10" text-anchor="middle"  dominant-baseline="middle" fill="black" > 144</text>
<text x="12" y="308" font-family="Verdana" font-size="10" text-anchor="middle"  dominant-baseline="middle" fill="black" > 288</text>
<text x="12" y="452" font-family="Verdana" font-size="10" text-anchor="middle"  dominant-baseline="middle" fill="black" > 432</text>
<text x="12" y="596" font-family="Verdana" font-size="10" text-anchor="middle"  dominant-baseline="middle" fill="black" > 576</text>
<text x="12" y="740" font-family="Verdana" font-size="10" text-anchor="middle"  dominant-baseline="middle" fill="black" > 720</text>
<text x="250" y="7" font-family="Verdana" font-size="7" text-anchor="middle"  dominant-baseline="middle" fill="black" > C1</text>
<circle cx="250" cy="15" r="4" fill="white" stroke="black" />
<line x1="250" y1="19" x2="250" y2="652" stroke="black" />
<line x1="50" y1="652" x2="450" y2="652" stroke="black" />
<text x="275" y="644" font-family="Verdana" font-size="8" text-anchor="middle"  dominant-baseline="middle" fill="black" > 637</text>
<circle cx="50" cy="652" r="4" fill="white" stroke="black" />
<circle cx="150" cy="652" r="4" fill="white" stroke="black" />
<line x1="50" y1="656" x2="50" y2="670" stroke="black" />
<line x1="50" y1="670" x2="100" y2="675" stroke="black" />
<line x1="150" y1="656" x2="150" y2="670" stroke="black" />
<line x1="150" y1="670" x2="100" y2="675" stroke="black" />
<text x="100" y="663" font-family="Verdana" font-size="8" text-anchor="middle"  dominant-baseline="middle" fill="black" > 660</text>
<circle cx="100" cy="675" r="4" fill="white" stroke="black" />
<line x1="100" y1="679" x2="100" y2="736" stroke="black" />
<circle cx="100" cy="736" r="4" fill="white" stroke="black" />
<text x="100" y="748" font-family="Verdana" font-size="8" text-anchor="middle"  dominant-baseline="middle" fill="black" > 721</text>
<circle cx="250" cy="652" r="4" fill="white" stroke="black" />
<line x1="250" y1="656" x2="250" y2="736" stroke="black" />
<circle cx="250" cy="736" r="4" fill="white" stroke="black" />
<text x="250" y="748" font-family="Verdana" font-size="8" text-anchor="middle"  dominant-baseline="middle" fill="black" > 721</text>
<circle cx="350" cy="652" r="4" fill="white" stroke="black" />
<line x1="350" y1="656" x2="350" y2="674" stroke="black" />
<line x1="346" y1="678" x2="350" y2="670" stroke="blue" />
<line x1="350" y1="678" x2="354" y2="670" stroke="blue" />
<text x="350" y="686" font-family="Verdana" font-size="8" text-anchor="middle"  dominant-baseline="middle" fill="black" > 659</text>
<circle cx="450" cy="652" r="4" fill="white" stroke="black" />
<line x1="450" y1="656" x2="450" y2="736" stroke="black" />
<circle cx="450" cy="736" r="4" fill="white" stroke="black" />
<text x="450" y="748" font-family="Verdana" font-size="8" text-anchor="middle"  dominant-baseline="middle" fill="black" > 721</text>
<text x="650" y="7" font-family="Verdana" font-size="7" text-anchor="middle"  dominant-baseline="middle" fill="black" > C2</text>
<circle cx="650" cy="15" r="4" fill="white" stroke="black" />
<line x1="650" y1="19" x2="650" y2="195" stroke="black" />
<line x1="550" y1="195" x2="750" y2="195" stroke="black" />
<text x="675" y="187" font-family="Verdana" font-size="8" text-anchor="middle"  dominant-baseline="middle" fill="black" > 180</text>
<circle cx="550" cy="195" r="4" fill="white" stroke="black" />
<circle cx="650" cy="195" r="4" fill="white" stroke="black" />
<line x1="550" y1="199" x2="550" y2="206" stroke="black" />
<line x1="550" y1="206" x2="600" y2="209" stroke="black" />
<line x1="650" y1="199" x2="650" y2="206" stroke="black" />
<line x1="650" y1="206" x2="600" y2="209" stroke="black" />
<text x="600" y="197" font-family="Verdana" font-size="8" text-anchor="middle"  dominant-baseline="middle" fill="black" > 194</text>
<circle cx="600" cy="209" r="4" fill="white" stroke="black" />
<circle cx="750" cy="195" r="4" fill="white" stroke="black" />
<line x1="600" y1="213" x2="600" y2="274" stroke="black" />
<line x1="600" y1="274" x2="675" y2="295" stroke="black" />
<line x1="750" y1="199" x2="750" y2="274" stroke="black" />
<line x1="750" y1="274" x2="675" y2="295" stroke="black" />
<text x="675" y="283" font-family="Verdana" font-size="8" text-anchor="middle"  dominant-baseline="middle" fill="black" > 280</text>
<circle cx="675" cy="295" r="4" fill="white" stroke="black" />
<line x1="675" y1="299" x2="675" y2="385" stroke="black" />
<line x1="671" y1="381" x2="679" y2="389" stroke="red" />
<line x1="671" y1="389" x2="679" y2="381" stroke="red" />
<text x="675" y="397" font-family="Verdana" font-size="8" text-anchor="middle"  dominant-baseline="middle" fill="black" > 370</text>
<text x="950" y="7" font-family="Verdana" font-size="7" text-anchor="middle"  dominant-baseline="middle" fill="black" > C3</text>
<circle cx="950" cy="15" r="4" fill="white" stroke="black" />
<line x1="950" y1="19" x2="950" y2="265" stroke="black" />
<line x1="850" y1="265" x2="1050" y2="265" stroke="black" />
<text x="975" y="257" font-family="Verdana" font-size="8" text-anchor="middle"  dominant-baseline="middle" fill="black" > 250</text>
<circle cx="850" cy="265" r="4" fill="white" stroke="black" />
<circle cx="950" cy="265" r="4" fill="white" stroke="black" />
<line x1="850" y1="269" x2="850" y2="310" stroke="black" />
<line x1="850" y1="310" x2="900" y2="325" stroke="black" />
<line x1="950" y1="269" x2="950" y2="310" stroke="black" />
<line x1="950" y1="310" x2="900" y2="325" stroke="black" />
<text x="900" y="313" font-family="Verdana" font-size="8" text-anchor="middle"  dominant-baseline="middle" fill="black" > 310</text>
<circle cx="900" cy="325" r="4" fill="white" stroke="black" />
<circle cx="1050" cy="265" r="4" fill="white" stroke="black" />
<line x1="900" y1="329" x2="900" y2="378" stroke="black" />
<line x1="900" y1="378" x2="975" y2="395" stroke="black" />
<line x1="1050" y1="269" x2="1050" y2="378" stroke="black" />
<line x1="1050" y1="378" x2="975" y2="395" stroke="black" />
<text x="975" y="383" font-family="Verdana" font-size="8" text-anchor="middle"  dominant-baseline="middle" fill="black" > 380</text>
<circle cx="975" cy="395" r="4" fill="white" stroke="black" />
<line x1="975" y1="399" x2="975" y2="403" stroke="black" />
<line x1="971" y1="399" x2="979" y2="407" stroke="red" />
<line x1="971" y1="407" x2="979" y2="399" stroke="red" />
<text x="975" y="415" font-family="Verdana" font-size="8" text-anchor="middle"  dominant-baseline="middle" fill="black" > 388</text>
<text x="1200" y="7" font-family="Verdana" font-size="7" text-anchor="middle"  dominant-baseline="middle" fill="black" > C4</text>
<circle cx="1200" cy="15" r="4" fill="white" stroke="black" />
<line x1="1200" y1="19" x2="1200" y2="185" stroke="black" />
<line x1="1150" y1="185" x2="1250" y2="185" stroke="black" />
<text x="1225" y="177" font-family="Verdana" font-size="8" text-anchor="middle"  dominant-baseline="middle" fill="black" > 170</text>
<circle cx="1150" cy="185" r="4" fill="white" stroke="black" />
<circle cx="1250" cy="185" r="4" fill="white" stroke="black" />
<line x1="1150" y1="189" x2="1150" y2="253" stroke="black" />
<line x1="1150" y1="253" x2="1200" y2="275" stroke="black" />
<line x1="1250" y1="189" x2="1250" y2="253" stroke="black" />
<line x1="1250" y1="253" x2="1200" y2="275" stroke="black" />
<text x="1200" y="263" font-family="Verdana" font-size="8" text-anchor="middle"  dominant-baseline="middle" fill="black" > 260</text>
<circle cx="1200" cy="275" r="4" fill="white" stroke="black" />
<line x1="1200" y1="279" x2="1200" y2="440" stroke="black" />
<line x1="1196" y1="436" x2="1204" y2="444" stroke="red" />
<line x1="1196" y1="444" x2="1204" y2="436" stroke="red" />
<text x="1200" y="452" font-family="Verdana" font-size="8" text-anchor="middle"  dominant-baseline="middle" fill="black" > 425</text>
<text x="1450" y="7" font-family="Verdana" font-size="7" text-anchor="middle"  dominant-baseline="middle" fill="black" > C5</text>
<circle cx="1450" cy="15" r="4" fill="white" stroke="black" />
<line x1="1450" y1="19" x2="1450" y2="285" stroke="black" />
<line x1="1350" y1="285" x2="1550" y2="285" stroke="black" />
<text x="1475" y="277" font-family="Verdana" font-size="8" text-anchor="middle"  dominant-baseline="middle" fill="black" > 270</text>
<circle cx="1350" cy="285" r="4" fill="white" stroke="black" />
<circle cx="1450" cy="285" r="4" fill="white" stroke="black" />
<circle cx="1550" cy="285" r="4" fill="white" stroke="black" />
<line x1="1350" y1="289" x2="1350" y2="300" stroke="black" />
<line x1="1350" y1="300" x2="1450" y2="305" stroke="black" />
<line x1="1450" y1="289" x2="1450" y2="300" stroke="black" />
<line x1="1450" y1="300" x2="1450" y2="305" stroke="black" />
<line x1="1550" y1="289" x2="1550" y2="300" stroke="black" />
<line x1="1550" y1="300" x2="1450" y2="305" stroke="black" />
<text x="1450" y="293" font-family="Verdana" font-size="8" text-anchor="middle"  dominant-baseline="middle" fill="black" > 290</text>
<circle cx="1450" cy="305" r="4" fill="white" stroke="black" />
<line x1="1450" y1="309" x2="1450" y2="736" stroke="black" />
<circle cx="1450" cy="736" r="4" fill="white" stroke="black" />
<text x="1450" y="748" font-family="Verdana" font-size="8" text-anchor="middle"  dominant-baseline="middle" fill="black" > 721</text>
<text x="1700" y="7" font-family="Verdana" font-size="7" text-anchor="middle"  dominant-baseline="middle" fill="black" > C6</text>
<circle cx="1700" cy="15" r="4" fill="white" stroke="black" />
<line x1="1700" y1="19" x2="1700" y2="172" stroke="black" />
<line x1="1650" y1="172" x2="1750" y2="172" stroke="black" />
<text x="1725" y="164" font-family="Verdana" font-size="8" text-anchor="middle"  dominant-baseline="middle" fill="black" > 157</text>
<circle cx="1650" cy="172" r="4" fill="white" stroke="black" />
<line x1="1650" y1="176" x2="1650" y2="273" stroke="black" />
<line x1="1646" y1="269" x2="1654" y2="277" stroke="red" />
<line x1="1646" y1="277" x2="1654" y2="269" stroke="red" />
<text x="1650" y="285" font-family="Verdana" font-size="8" text-anchor="middle"  dominant-baseline="middle" fill="black" > 258</text>
<circle cx="1750" cy="172" r="4" fill="white" stroke="black" />
<line x1="1750" y1="176" x2="1750" y2="273" stroke="black" />
<line x1="1746" y1="269" x2="1754" y2="277" stroke="red" />
<line x1="1746" y1="277" x2="1754" y2="269" stroke="red" />
<text x="1750" y="285" font-family="Verdana" font-size="8" text-anchor="middle"  dominant-baseline="middle" fill="black" > 258</text>
<text x="1950" y="7" font-family="Verdana" font-size="7" text-anchor="middle"  dominant-baseline="middle" fill="black" > C7</text>
<circle cx="1950" cy="15" r="4" fill="white" stroke="black" />
<line x1="1950" y1="19" x2="1950" y2="243" stroke="black" />
<line x1="1850" y1="243" x2="2050" y2="243" stroke="black" />
<text x="1975" y="235" font-family="Verdana" font-size="8" text-anchor="middle"  dominant-baseline="middle" fill="black" > 228</text>
<circle cx="1850" cy="243" r="4" fill="white" stroke="black" />
<line x1="1850" y1="247" x2="1850" y2="455" stroke="black" />
<line x1="1846" y1="459" x2="1850" y2="451" stroke="blue" />
<line x1="1850" y1="459" x2="1854" y2="451" stroke="blue" />
<text x="1850" y="467" font-family="Verdana" font-size="8" text-anchor="middle"  dominant-baseline="middle" fill="black" > 440</text>
<circle cx="1950" cy="243" r="4" fill="white" stroke="black" />
<circle cx="2050" cy="243" r="4" fill="white" stroke="black" />
<line x1="1950" y1="247" x2="1950" y2="275" stroke="black" />
<line x1="1950" y1="275" x2="2000" y2="285" stroke="black" />
<line x1="2050" y1="247" x2="2050" y2="275" stroke="black" />
<line x1="2050" y1="275" x2="2000" y2="285" stroke="black" />
<text x="2000" y="273" font-family="Verdana" font-size="8" text-anchor="middle"  dominant-baseline="middle" fill="black" > 270</text>
<circle cx="2000" cy="285" r="4" fill="white" stroke="black" />
<line x1="2000" y1="289" x2="2000" y2="535" stroke="black" />
<line x1="1996" y1="531" x2="2004" y2="539" stroke="red" />
<line x1="1996" y1="539" x2="2004" y2="531" stroke="red" />
<text x="2000" y="547" font-family="Verdana" font-size="8" text-anchor="middle"  dominant-baseline="middle" fill="black" > 520</text>
<text x="2150" y="7" font-family="Verdana" font-size="7" text-anchor="middle"  dominant-baseline="middle" fill="black" > C8</text>
<circle cx="2150" cy="15" r="4" fill="white" stroke="black" />
<line x1="2150" y1="19" x2="2150" y2="395" stroke="black" />
<line x1="2146" y1="391" x2="2154" y2="399" stroke="red" />
<line x1="2146" y1="399" x2="2154" y2="391" stroke="red" />
<text x="2150" y="407" font-family="Verdana" font-size="8" text-anchor="middle"  dominant-baseline="middle" fill="black" > 380</text>
<text x="2250" y="7" font-family="Verdana" font-size="7" text-anchor="middle"  dominant-baseline="middle" fill="black" > C9</text>
<circle cx="2250" cy="15" r="4" fill="white" stroke="black" />
<line x1="2250" y1="19" x2="2250" y2="595" stroke="black" />
<line x1="2246" y1="591" x2="2254" y2="599" stroke="red" />
<line x1="2246" y1="599" x2="2254" y2="591" stroke="red" />
<text x="2250" y="607" font-family="Verdana" font-size="8" text-anchor="middle"  dominant-baseline="middle" fill="black" > 580</text>
<text x="2450" y="7" font-family="Verdana" font-size="7" text-anchor="middle"  dominant-baseline="middle" fill="black" > C10</text>
<circle cx="2450" cy="15" r="4" fill="white" stroke="black" />
<line x1="2450" y1="19" x2="2450" y2="215" stroke="black" />
<line x1="2350" y1="215" x2="2550" y2="215" stroke="black" />
<text x="2475" y="207" font-family="Verdana" font-size="8" text-anchor="middle"  dominant-baseline="middle" fill="black" > 200</text>
<circle cx="2350" cy="215" r="4" fill="white" stroke="black" />
<line x1="2350" y1="219" x2="2350" y2="736" stroke="black" />
<circle cx="2350" cy="736" r="4" fill="white" stroke="black" />
<text x="2350" y="748" font-family="Verdana" font-size="8" text-anchor="middle"  dominant-baseline="middle" fill="black" > 721</text>
<circle cx="2450" cy="215" r="4" fill="white" stroke="black" />
<line x1="2450" y1="219" x2="2450" y2="453" stroke="black" />
<line x1="2425" y1="453" x2="2475" y2="453" stroke="black" />
<text x="2462" y="445" font-family="Verdana" font-size="8" text-anchor="middle"  dominant-baseline="middle" fill="black" > 438</text>
<circle cx="2425" cy="453" r="4" fill="white" stroke="black" />
<line x1="2425" y1="457" x2="2425" y2="474" stroke="black" />
<line x1="2421" y1="470" x2="2429" y2="478" stroke="red" />
<line x1="2421" y1="478" x2="2429" y2="470" stroke="red" />
<text x="2425" y="486" font-family="Verdana" font-size="8" text-anchor="middle"  dominant-baseline="middle" fill="black" > 459</text>
<circle cx="2475" cy="453" r="4" fill="white" stroke="black" />
<line x1="2475" y1="457" x2="2475" y2="475" stroke="black" />
<line x1="2471" y1="471" x2="2479" y2="479" stroke="red" />
<line x1="2471" y1="479" x2="2479" y2="471" stroke="red" />
<text x="2475" y="487" font-family="Verdana" font-size="8" text-anchor="middle"  dominant-baseline="middle" fill="black" > 460</text>
<circle cx="2550" cy="215" r="4" fill="white" stroke="black" />
<line x1="2550" y1="219" x2="2550" y2="542" stroke="black" />
<line x1="2516" y1="542" x2="2584" y2="542" stroke="black" />
<text x="2558" y="534" font-family="Verdana" font-size="8" text-anchor="middle"  dominant-baseline="middle" fill="black" > 527</text>
<circle cx="2516" cy="542" r="4" fill="white" stroke="black" />
<line x1="2516" y1="546" x2="2516" y2="736" stroke="black" />
<circle cx="2516" cy="736" r="4" fill="white" stroke="black" />
<text x="2516" y="748" font-family="Verdana" font-size="8" text-anchor="middle"  dominant-baseline="middle" fill="black" > 721</text>
<circle cx="2549" cy="542" r="4" fill="white" stroke="black" />
<line x1="2549" y1="546" x2="2549" y2="736" stroke="black" />
<circle cx="2549" cy="736" r="4" fill="white" stroke="black" />
<text x="2549" y="748" font-family="Verdana" font-size="8" text-anchor="middle"  dominant-baseline="middle" fill="black" > 721</text>
<circle cx="2582" cy="542" r="4" fill="white" stroke="black" />
<line x1="2582" y1="546" x2="2582" y2="574" stroke="black" />
<line x1="2578" y1="570" x2="2586" y2="578" stroke="red" />
<line x1="2578" y1="578" x2="2586" y2="570" stroke="red" />
<text x="2582" y="586" font-family="Verdana" font-size="8" text-anchor="middle"  dominant-baseline="middle" fill="black" > 559</text>
<text x="2800" y="7" font-family="Verdana" font-size="7" text-anchor="middle"  dominant-baseline="middle" fill="black" > C11</text>
<circle cx="2800" cy="15" r="4" fill="white" stroke="black" />
<line x1="2800" y1="19" x2="2800" y2="325" stroke="black" />
<line x1="2650" y1="325" x2="2950" y2="325" stroke="black" />
<text x="2825" y="317" font-family="Verdana" font-size="8" text-anchor="middle"  dominant-baseline="middle" fill="black" > 310</text>
<circle cx="2650" cy="325" r="4" fill="white" stroke="black" />
<circle cx="2750" cy="325" r="4" fill="white" stroke="black" />
<circle cx="2850" cy="325" r="4" fill="white" stroke="black" />
<circle cx="2950" cy="325" r="4" fill="white" stroke="black" />
<line x1="2650" y1="329" x2="2650" y2="400" stroke="black" />
<line x1="2650" y1="400" x2="2800" y2="425" stroke="black" />
<line x1="2750" y1="329" x2="2750" y2="400" stroke="black" />
<line x1="2750" y1="400" x2="2800" y2="425" stroke="black" />
<line x1="2850" y1="329" x2="2850" y2="400" stroke="black" />
<line x1="2850" y1="400" x2="2800" y2="425" stroke="black" />
<line x1="2950" y1="329" x2="2950" y2="400" stroke="black" />
<line x1="2950" y1="400" x2="2800" y2="425" stroke="black" />
<text x="2800" y="413" font-family="Verdana" font-size="8" text-anchor="middle"  dominant-baseline="middle" fill="black" > 410</text>
<circle cx="2800" cy="425" r="4" fill="white" stroke="black" />
<line x1="2800" y1="429" x2="2800" y2="635" stroke="black" />
<line x1="2796" y1="631" x2="2804" y2="639" stroke="red" />
<line x1="2796" y1="639" x2="2804" y2="631" stroke="red" />
<text x="2800" y="647" font-family="Verdana" font-size="8" text-anchor="middle"  dominant-baseline="middle" fill="black" > 620</text>
<text x="3050" y="7" font-family="Verdana" font-size="7" text-anchor="middle"  dominant-baseline="middle" fill="black" > C12</text>
<circle cx="3050" cy="15" r="4" fill="white" stroke="black" />
<line x1="3050" y1="19" x2="3050" y2="482" stroke="black" />
<line x1="3046" y1="478" x2="3054" y2="486" stroke="red" />
<line x1="3046" y1="486" x2="3054" y2="478" stroke="red" />
<text x="3050" y="494" font-family="Verdana" font-size="8" text-anchor="middle"  dominant-baseline="middle" fill="black" > 467</text>
<text x="3200" y="7" font-family="Verdana" font-size="7" text-anchor="middle"  dominant-baseline="middle" fill="black" > C13</text>
<circle cx="3200" cy="15" r="4" fill="white" stroke="black" />
<line x1="3200" y1="19" x2="3200" y2="640" stroke="black" />
<line x1="3150" y1="640" x2="3250" y2="640" stroke="black" />
<text x="3225" y="632" font-family="Verdana" font-size="8" text-anchor="middle"  dominant-baseline="middle" fill="black" > 625</text>
<circle cx="3150" cy="640" r="4" fill="white" stroke="black" />
<circle cx="3250" cy="640" r="4" fill="white" stroke="black" />
<line x1="3150" y1="644" x2="3150" y2="667" stroke="black" />
<line x1="3150" y1="667" x2="3200" y2="675" stroke="black" />
<line x1="3250" y1="644" x2="3250" y2="667" stroke="black" />
<line x1="3250" y1="667" x2="3200" y2="675" stroke="black" />
<text x="3200" y="663" font-family="Verdana" font-size="8" text-anchor="middle"  dominant-baseline="middle" fill="black" > 660</text>
<circle cx="3200" cy="675" r="4" fill="white" stroke="black" />
<line x1="3200" y1="679" x2="3200" y2="736" stroke="black" />
<circle cx="3200" cy="736" r="4" fill="white" stroke="black" />
<text x="3200" y="748" font-family="Verdana" font-size="8" text-anchor="middle"  dominant-baseline="middle" fill="black" > 721</text>
<text x="3400" y="7" font-family="Verdana" font-size="7" text-anchor="middle"  dominant-baseline="middle" fill="black" > C14</text>
<circle cx="3400" cy="15" r="4" fill="white" stroke="black" />
<line x1="3400" y1="19" x2="3400" y2="255" stroke="black" />
<line x1="3350" y1="255" x2="3450" y2="255" stroke="black" />
<text x="3425" y="247" font-family="Verdana" font-size="8" text-anchor="middle"  dominant-baseline="middle" fill="black" > 240</text>
<circle cx="3350" cy="255" r="4" fill="white" stroke="black" />
<line x1="3350" y1="259" x2="3350" y2="610" stroke="black" />
<line x1="3346" y1="606" x2="3354" y2="614" stroke="red" />
<line x1="3346" y1="614" x2="3354" y2="606" stroke="red" />
<text x="3350" y="622" font-family="Verdana" font-size="8" text-anchor="middle"  dominant-baseline="middle" fill="black" > 595</text>
<circle cx="3450" cy="255" r="4" fill="white" stroke="black" />
<line x1="3450" y1="259" x2="3450" y2="454" stroke="black" />
<line x1="3446" y1="458" x2="3450" y2="450" stroke="blue" />
<line x1="3450" y1="458" x2="3454" y2="450" stroke="blue" />
<text x="3450" y="466" font-family="Verdana" font-size="8" text-anchor="middle"  dominant-baseline="middle" fill="black" > 439</text>
<text x="3550" y="7" font-family="Verdana" font-size="7" text-anchor="middle"  dominant-baseline="middle" fill="black" > C15</text>
<circle cx="3550" cy="15" r="4" fill="white" stroke="black" />
<line x1="3550" y1="19" x2="3550" y2="584" stroke="black" />
<line x1="3546" y1="580" x2="3554" y2="588" stroke="red" />
<line x1="3546" y1="588" x2="3554" y2="580" stroke="red" />
<text x="3550" y="596" font-family="Verdana" font-size="8" text-anchor="middle"  dominant-baseline="middle" fill="black" > 569</text>
<text x="3700" y="7" font-family="Verdana" font-size="7" text-anchor="middle"  dominant-baseline="middle" fill="black" > C16</text>
<circle cx="3700" cy="15" r="4" fill="white" stroke="black" />
<line x1="3700" y1="19" x2="3700" y2="433" stroke="black" />
<line x1="3650" y1="433" x2="3750" y2="433" stroke="black" />
<text x="3725" y="425" font-family="Verdana" font-size="8" text-anchor="middle"  dominant-baseline="middle" fill="black" > 418</text>
<circle cx="3650" cy="433" r="4" fill="white" stroke="black" />
<circle cx="3750" cy="433" r="4" fill="white" stroke="black" />
<line x1="3650" y1="437" x2="3650" y2="457" stroke="black" />
<line x1="3650" y1="457" x2="3700" y2="465" stroke="black" />
<line x1="3750" y1="437" x2="3750" y2="457" stroke="black" />
<line x1="3750" y1="457" x2="3700" y2="465" stroke="black" />
<text x="3700" y="453" font-family="Verdana" font-size="8" text-anchor="middle"  dominant-baseline="middle" fill="black" > 450</text>
<circle cx="3700" cy="465" r="4" fill="white" stroke="black" />
<line x1="3700" y1="469" x2="3700" y2="587" stroke="black" />
<line x1="3696" y1="583" x2="3704" y2="591" stroke="red" />
<line x1="3696" y1="591" x2="3704" y2="583" stroke="red" />
<text x="3700" y="599" font-family="Verdana" font-size="8" text-anchor="middle"  dominant-baseline="middle" fill="black" > 572</text>
<text x="3900" y="7" font-family="Verdana" font-size="7" text-anchor="middle"  dominant-baseline="middle" fill="black" > C17</text>
<circle cx="3900" cy="15" r="4" fill="white" stroke="black" />
<line x1="3900" y1="19" x2="3900" y2="184" stroke="black" />
<line x1="3850" y1="184" x2="3950" y2="184" stroke="black" />
<text x="3925" y="176" font-family="Verdana" font-size="8" text-anchor="middle"  dominant-baseline="middle" fill="black" > 169</text>
<circle cx="3850" cy="184" r="4" fill="white" stroke="black" />
<line x1="3850" y1="188" x2="3850" y2="333" stroke="black" />
<line x1="3825" y1="333" x2="3875" y2="333" stroke="black" />
<text x="3862" y="325" font-family="Verdana" font-size="8" text-anchor="middle"  dominant-baseline="middle" fill="black" > 318</text>
<circle cx="3825" cy="333" r="4" fill="white" stroke="black" />
<line x1="3825" y1="337" x2="3825" y2="636" stroke="black" />
<line x1="3821" y1="640" x2="3825" y2="632" stroke="blue" />
<line x1="3825" y1="640" x2="3829" y2="632" stroke="blue" />
<text x="3825" y="648" font-family="Verdana" font-size="8" text-anchor="middle"  dominant-baseline="middle" fill="black" > 621</text>
<circle cx="3875" cy="333" r="4" fill="white" stroke="black" />
<line x1="3875" y1="337" x2="3875" y2="459" stroke="black" />
<line x1="3858" y1="459" x2="3892" y2="459" stroke="black" />
<text x="3879" y="451" font-family="Verdana" font-size="8" text-anchor="middle"  dominant-baseline="middle" fill="black" > 444</text>
<circle cx="3858" cy="459" r="4" fill="white" stroke="black" />
<line x1="3858" y1="463" x2="3858" y2="637" stroke="black" />
<line x1="3854" y1="641" x2="3858" y2="633" stroke="blue" />
<line x1="3858" y1="641" x2="3862" y2="633" stroke="blue" />
<text x="3858" y="649" font-family="Verdana" font-size="8" text-anchor="middle"  dominant-baseline="middle" fill="black" > 622</text>
<circle cx="3874" cy="459" r="4" fill="white" stroke="black" />
<line x1="3874" y1="463" x2="3874" y2="637" stroke="black" />
<line x1="3870" y1="641" x2="3874" y2="633" stroke="blue" />
<line x1="3874" y1="641" x2="3878" y2="633" stroke="blue" />
<text x="3874" y="649" font-family="Verdana" font-size="8" text-anchor="middle"  dominant-baseline="middle" fill="black" > 622</text>
<circle cx="3890" cy="459" r="4" fill="white" stroke="black" />
<line x1="3890" y1="463" x2="3890" y2="637" stroke="black" />
<line x1="3886" y1="641" x2="3890" y2="633" stroke="blue" />
<line x1="3890" y1="641" x2="3894" y2="633" stroke="blue" />
<text x="3890" y="649" font-family="Verdana" font-size="8" text-anchor="middle"  dominant-baseline="middle" fill="black" > 622</text>
<circle cx="3950" cy="184" r="4" fill="white" stroke="black" />
<line x1="3950" y1="188" x2="3950" y2="316" stroke="black" />
<line x1="3925" y1="316" x2="3975" y2="316" stroke="black" />
<text x="3962" y="308" font-family="Verdana" font-size="8" text-anchor="middle"  dominant-baseline="middle" fill="black" > 301</text>
<circle cx="3925" cy="316" r="4" fill="white" stroke="black" />
<line x1="3925" y1="320" x2="3925" y2="630" stroke="black" />
<line x1="3921" y1="634" x2="3925" y2="626" stroke="blue" />
<line x1="3925" y1="634" x2="3929" y2="626" stroke="blue" />
<text x="3925" y="642" font-family="Verdana" font-size="8" text-anchor="middle"  dominant-baseline="middle" fill="black" > 615</text>
<circle cx="3975" cy="316" r="4" fill="white" stroke="black" />
<line x1="3975" y1="320" x2="3975" y2="673" stroke="black" />
<line x1="3971" y1="669" x2="3979" y2="677" stroke="red" />
<line x1="3971" y1="677" x2="3979" y2="669" stroke="red" />
<text x="3975" y="685" font-family="Verdana" font-size="8" text-anchor="middle"  dominant-baseline="middle" fill="black" > 658</text>
<text x="4150" y="7" font-family="Verdana" font-size="7" text-anchor="middle"  dominant-baseline="middle" fill="black" > C18</text>
<circle cx="4150" cy="15" r="4" fill="white" stroke="black" />
<line x1="4150" y1="19" x2="4150" y2="345" stroke="black" />
<line x1="4050" y1="345" x2="4250" y2="345" stroke="black" />
<text x="4175" y="337" font-family="Verdana" font-size="8" text-anchor="middle"  dominant-baseline="middle" fill="black" > 330</text>
<circle cx="4050" cy="345" r="4" fill="white" stroke="black" />
<circle cx="4150" cy="345" r="4" fill="white" stroke="black" />
<line x1="4050" y1="349" x2="4050" y2="354" stroke="black" />
<line x1="4050" y1="354" x2="4100" y2="356" stroke="black" />
<line x1="4150" y1="349" x2="4150" y2="354" stroke="black" />
<line x1="4150" y1="354" x2="4100" y2="356" stroke="black" />
<text x="4100" y="344" font-family="Verdana" font-size="8" text-anchor="middle"  dominant-baseline="middle" fill="black" > 341</text>
<circle cx="4100" cy="356" r="4" fill="white" stroke="black" />
<circle cx="4250" cy="345" r="4" fill="white" stroke="black" />
<line x1="4100" y1="360" x2="4100" y2="409" stroke="black" />
<line x1="4100" y1="409" x2="4175" y2="426" stroke="black" />
<line x1="4250" y1="349" x2="4250" y2="409" stroke="black" />
<line x1="4250" y1="409" x2="4175" y2="426" stroke="black" />
<text x="4175" y="414" font-family="Verdana" font-size="8" text-anchor="middle"  dominant-baseline="middle" fill="black" > 411</text>
<circle cx="4175" cy="426" r="4" fill="white" stroke="black" />
<line x1="4175" y1="430" x2="4175" y2="736" stroke="black" />
<circle cx="4175" cy="736" r="4" fill="white" stroke="black" />
<text x="4175" y="748" font-family="Verdana" font-size="8" text-anchor="middle"  dominant-baseline="middle" fill="black" > 721</text>
<text x="4350" y="7" font-family="Verdana" font-size="7" text-anchor="middle"  dominant-baseline="middle" fill="black" > C19</text>
<circle cx="4350" cy="15" r="4" fill="white" stroke="black" />
<line x1="4350" y1="19" x2="4350" y2="736" stroke="black" />
<circle cx="4350" cy="736" r="4" fill="white" stroke="black" />
<text x="4350" y="748" font-family="Verdana" font-size="8" text-anchor="middle"  dominant-baseline="middle" fill="black" > 721</text>
<text x="4450" y="7" font-family="Verdana" font-size="7" text-anchor="middle"  dominant-baseline="middle" fill="black" > C20</text>
<circle cx="4450" cy="15" r="4" fill="white" stroke="black" />
<line x1="4450" y1="19" x2="4450" y2="736" stroke="black" />
<circle cx="4450" cy="736" r="4" fill="white" stroke="black" />
<text x="4450" y="748" font-family="Verdana" font-size="8" text-anchor="middle"  dominant-baseline="middle" fill="black" > 721</text>
<text x="4550" y="7" font-family="Verdana" font-size="7" text-anchor="middle"  dominant-baseline="middle" fill="black" > C21</text>
<circle cx="4550" cy="15" r="4" fill="white" stroke="black" />
<line x1="4550" y1="19" x2="4550" y2="359" stroke="black" />
<line x1="4546" y1="355" x2="4554" y2="363" stroke="red" />
<line x1="4546" y1="363" x2="4554" y2="355" stroke="red" />
<text x="4550" y="371" font-family="Verdana" font-size="8" text-anchor="middle"  dominant-baseline="middle" fill="black" > 344</text>
<text x="4650" y="7" font-family="Verdana" font-size="7" text-anchor="middle"  dominant-baseline="middle" fill="black" > C22</text>
<circle cx="4650" cy="15" r="4" fill="white" stroke="black" />
<line x1="4650" y1="19" x2="4650" y2="602" stroke="black" />
<line x1="4646" y1="598" x2="4654" y2="606" stroke="red" />
<line x1="4646" y1="606" x2="4654" y2="598" stroke="red" />
<text x="4650" y="614" font-family="Verdana" font-size="8" text-anchor="middle"  dominant-baseline="middle" fill="black" > 587</text>
<text x="4750" y="7" font-family="Verdana" font-size="7" text-anchor="middle"  dominant-baseline="middle" fill="black" > C23</text>
<circle cx="4750" cy="15" r="4" fill="white" stroke="black" />
<line x1="4750" y1="19" x2="4750" y2="736" stroke="black" />
<circle cx="4750" cy="736" r="4" fill="white" stroke="black" />
<text x="4750" y="748" font-family="Verdana" font-size="8" text-anchor="middle"  dominant-baseline="middle" fill="black" > 721</text>
<text x="4950" y="7" font-family="Verdana" font-size="7" text-anchor="middle"  dominant-baseline="middle" fill="black" > C24</text>
<circle cx="4950" cy="15" r="4" fill="white" stroke="black" />
<line x1="4950" y1="19" x2="4950" y2="221" stroke="black" />
<line x1="4850" y1="221" x2="5050" y2="221" stroke="black" />
<text x="4975" y="213" font-family="Verdana" font-size="8" text-anchor="middle"  dominant-baseline="middle" fill="black" > 206</text>
<circle cx="4850" cy="221" r="4" fill="white" stroke="black" />
<circle cx="4950" cy="221" r="4" fill="white" stroke="black" />
<line x1="4850" y1="225" x2="4850" y2="293" stroke="black" />
<line x1="4850" y1="293" x2="4900" y2="317" stroke="black" />
<line x1="4950" y1="225" x2="4950" y2="293" stroke="black" />
<line x1="4950" y1="293" x2="4900" y2="317" stroke="black" />
<text x="4900" y="305" font-family="Verdana" font-size="8" text-anchor="middle"  dominant-baseline="middle" fill="black" > 302</text>
<circle cx="4900" cy="317" r="4" fill="white" stroke="black" />
<line x1="4900" y1="321" x2="4900" y2="449" stroke="black" />
<line x1="4866" y1="449" x2="4934" y2="449" stroke="black" />
<text x="4908" y="441" font-family="Verdana" font-size="8" text-anchor="middle"  dominant-baseline="middle" fill="black" > 434</text>
<circle cx="4866" cy="449" r="4" fill="white" stroke="black" />
<line x1="4866" y1="453" x2="4866" y2="635" stroke="black" />
<line x1="4862" y1="631" x2="4870" y2="639" stroke="red" />
<line x1="4862" y1="639" x2="4870" y2="631" stroke="red" />
<text x="4866" y="647" font-family="Verdana" font-size="8" text-anchor="middle"  dominant-baseline="middle" fill="black" > 620</text>
<circle cx="4899" cy="449" r="4" fill="white" stroke="black" />
<line x1="4899" y1="453" x2="4899" y2="736" stroke="black" />
<circle cx="4899" cy="736" r="4" fill="white" stroke="black" />
<text x="4899" y="748" font-family="Verdana" font-size="8" text-anchor="middle"  dominant-baseline="middle" fill="black" > 721</text>
<circle cx="4932" cy="449" r="4" fill="white" stroke="black" />
<line x1="4932" y1="453" x2="4932" y2="736" stroke="black" />
<circle cx="4932" cy="736" r="4" fill="white" stroke="black" />
<text x="4932" y="748" font-family="Verdana" font-size="8" text-anchor="middle"  dominant-baseline="middle" fill="black" > 721</text>
<circle cx="5050" cy="221" r="4" fill="white" stroke="black" />
<line x1="5050" y1="225" x2="5050" y2="560" stroke="black" />
<line x1="5046" y1="556" x2="5054" y2="564" stroke="red" />
<line x1="5046" y1="564" x2="5054" y2="556" stroke="red" />
<text x="5050" y="572" font-family="Verdana" font-size="8" text-anchor="middle"  dominant-baseline="middle" fill="black" > 545</text>
<text x="5150" y="7" font-family="Verdana" font-size="7" text-anchor="middle"  dominant-baseline="middle" fill="black" > C25</text>
<circle cx="5150" cy="15" r="4" fill="white" stroke="black" />
<line x1="5150" y1="19" x2="5150" y2="458" stroke="black" />
<line x1="5146" y1="454" x2="5154" y2="462" stroke="red" />
<line x1="5146" y1="462" x2="5154" y2="454" stroke="red" />
<text x="5150" y="470" font-family="Verdana" font-size="8" text-anchor="middle"  dominant-baseline="middle" fill="black" > 443</text>
<text x="5350" y="7" font-family="Verdana" font-size="7" text-anchor="middle"  dominant-baseline="middle" fill="black" > C26</text>
<circle cx="5350" cy="15" r="4" fill="white" stroke="black" />
<line x1="5350" y1="19" x2="5350" y2="533" stroke="black" />
<line x1="5250" y1="533" x2="5450" y2="533" stroke="black" />
<text x="5375" y="525" font-family="Verdana" font-size="8" text-anchor="middle"  dominant-baseline="middle" fill="black" > 518</text>
<circle cx="5250" cy="533" r="4" fill="white" stroke="black" />
<circle cx="5350" cy="533" r="4" fill="white" stroke="black" />
<circle cx="5450" cy="533" r="4" fill="white" stroke="black" />
<line x1="5250" y1="537" x2="5250" y2="550" stroke="black" />
<line x1="5250" y1="550" x2="5350" y2="555" stroke="black" />
<line x1="5350" y1="537" x2="5350" y2="550" stroke="black" />
<line x1="5350" y1="550" x2="5350" y2="555" stroke="black" />
<line x1="5450" y1="537" x2="5450" y2="550" stroke="black" />
<line x1="5450" y1="550" x2="5350" y2="555" stroke="black" />
<text x="5350" y="543" font-family="Verdana" font-size="8" text-anchor="middle"  dominant-baseline="middle" fill="black" > 540</text>
<circle cx="5350" cy="555" r="4" fill="white" stroke="black" />
<line x1="5350" y1="559" x2="5350" y2="736" stroke="black" />
<circle cx="5350" cy="736" r="4" fill="white" stroke="black" />
<text x="5350" y="748" font-family="Verdana" font-size="8" text-anchor="middle"  dominant-baseline="middle" fill="black" > 721</text>
<text x="5650" y="7" font-family="Verdana" font-size="7" text-anchor="middle"  dominant-baseline="middle" fill="black" > C27</text>
<circle cx="5650" cy="15" r="4" fill="white" stroke="black" />
<line x1="5650" y1="19" x2="5650" y2="312" stroke="black" />
<line x1="5550" y1="312" x2="5750" y2="312" stroke="black" />
<text x="5675" y="304" font-family="Verdana" font-size="8" text-anchor="middle"  dominant-baseline="middle" fill="black" > 297</text>
<circle cx="5550" cy="312" r="4" fill="white" stroke="black" />
<circle cx="5650" cy="312" r="4" fill="white" stroke="black" />
<circle cx="5750" cy="312" r="4" fill="white" stroke="black" />
<line x1="5550" y1="316" x2="5550" y2="333" stroke="black" />
<line x1="5550" y1="333" x2="5650" y2="340" stroke="black" />
<line x1="5650" y1="316" x2="5650" y2="333" stroke="black" />
<line x1="5650" y1="333" x2="5650" y2="340" stroke="black" />
<line x1="5750" y1="316" x2="5750" y2="333" stroke="black" />
<line x1="5750" y1="333" x2="5650" y2="340" stroke="black" />
<text x="5650" y="328" font-family="Verdana" font-size="8" text-anchor="middle"  dominant-baseline="middle" fill="black" > 325</text>
<circle cx="5650" cy="340" r="4" fill="white" stroke="black" />
<line x1="5650" y1="344" x2="5650" y2="704" stroke="black" />
<line x1="5646" y1="700" x2="5654" y2="708" stroke="red" />
<line x1="5646" y1="708" x2="5654" y2="700" stroke="red" />
<text x="5650" y="716" font-family="Verdana" font-size="8" text-anchor="middle"  dominant-baseline="middle" fill="black" > 689</text>
<text x="5900" y="7" font-family="Verdana" font-size="7" text-anchor="middle"  dominant-baseline="middle" fill="black" > C28</text>
<circle cx="5900" cy="15" r="4" fill="white" stroke="black" />
<line x1="5900" y1="19" x2="5900" y2="302" stroke="black" />
<line x1="5850" y1="302" x2="5950" y2="302" stroke="black" />
<text x="5925" y="294" font-family="Verdana" font-size="8" text-anchor="middle"  dominant-baseline="middle" fill="black" > 287</text>
<circle cx="5850" cy="302" r="4" fill="white" stroke="black" />
<circle cx="5950" cy="302" r="4" fill="white" stroke="black" />
<line x1="5850" y1="306" x2="5850" y2="377" stroke="black" />
<line x1="5850" y1="377" x2="5900" y2="402" stroke="black" />
<line x1="5950" y1="306" x2="5950" y2="377" stroke="black" />
<line x1="5950" y1="377" x2="5900" y2="402" stroke="black" />
<text x="5900" y="390" font-family="Verdana" font-size="8" text-anchor="middle"  dominant-baseline="middle" fill="black" > 387</text>
<circle cx="5900" cy="402" r="4" fill="white" stroke="black" />
<line x1="5900" y1="406" x2="5900" y2="736" stroke="black" />
<circle cx="5900" cy="736" r="4" fill="white" stroke="black" />
<text x="5900" y="748" font-family="Verdana" font-size="8" text-anchor="middle"  dominant-baseline="middle" fill="black" > 721</text>
<text x="6250" y="7" font-family="Verdana" font-size="7" text-anchor="middle"  dominant-baseline="middle" fill="black" > C29</text>
<circle cx="6250" cy="15" r="4" fill="white" stroke="black" />
<line x1="6250" y1="19" x2="6250" y2="440" stroke="black" />
<line x1="6050" y1="440" x2="6450" y2="440" stroke="black" />
<text x="6275" y="432" font-family="Verdana" font-size="8" text-anchor="middle"  dominant-baseline="middle" fill="black" > 425</text>
<circle cx="6050" cy="440" r="4" fill="white" stroke="black" />
<line x1="6050" y1="444" x2="6050" y2="736" stroke="black" />
<circle cx="6050" cy="736" r="4" fill="white" stroke="black" />
<text x="6050" y="748" font-family="Verdana" font-size="8" text-anchor="middle"  dominant-baseline="middle" fill="black" > 721</text>
<circle cx="6150" cy="440" r="4" fill="white" stroke="black" />
<circle cx="6250" cy="440" r="4" fill="white" stroke="black" />
<circle cx="6350" cy="440" r="4" fill="white" stroke="black" />
<line x1="6150" y1="444" x2="6150" y2="478" stroke="black" />
<line x1="6150" y1="478" x2="6250" y2="490" stroke="black" />
<line x1="6250" y1="444" x2="6250" y2="478" stroke="black" />
<line x1="6250" y1="478" x2="6250" y2="490" stroke="black" />
<line x1="6350" y1="444" x2="6350" y2="478" stroke="black" />
<line x1="6350" y1="478" x2="6250" y2="490" stroke="black" />
<text x="6250" y="478" font-family="Verdana" font-size="8" text-anchor="middle"  dominant-baseline="middle" fill="black" > 475</text>
<circle cx="6250" cy="490" r="4" fill="white" stroke="black" />
<circle cx="6450" cy="440" r="4" fill="white" stroke="black" />
<line x1="6250" y1="494" x2="6250" y2="533" stroke="black" />
<line x1="6250" y1="533" x2="6350" y2="547" stroke="black" />
<line x1="6450" y1="444" x2="6450" y2="533" stroke="black" />
<line x1="6450" y1="533" x2="6350" y2="547" stroke="black" />
<text x="6350" y="535" font-family="Verdana" font-size="8" text-anchor="middle"  dominant-baseline="middle" fill="black" > 532</text>
<circle cx="6350" cy="547" r="4" fill="white" stroke="black" />
<line x1="6350" y1="551" x2="6350" y2="715" stroke="black" />
<line x1="6346" y1="711" x2="6354" y2="719" stroke="red" />
<line x1="6346" y1="719" x2="6354" y2="711" stroke="red" />
<text x="6350" y="727" font-family="Verdana" font-size="8" text-anchor="middle"  dominant-baseline="middle" fill="black" > 700</text>
</svg>
