<?xml version="1.0" encoding="utf-8"?>
<svg xmlns="http://www.w3.org/2000/svg" version="1.1" width="4050" height="750">
<rect width="4050" height="15" x="0" y="0" fill="white" />
<rect width="4050" height="15" x="0" y="735" fill="white" />
<rect width="25" height="750" x="0" y="0" fill="white" />
<rect width="25" height="750" x="4025" y="0" fill="white" />
<rect width="4010" height="144" x="25" y="15" fill="lavender" />
<rect width="4010" height="144" x="25" y="159" fill="lavenderblush" />
<rect width="4010" height="144" x="25" y="303" fill="lavender" />
<rect width="4010" height="144" x="25" y="447" fill="lavenderblush" />
<rect width="4010" height="144" x="25" y="591" fill="lavender" />
<text x="12" y="87" font-family="Verdana" font-size="10" text-anchor="middle"  dominant-baseline="middle" fill="red" > D0</text>
<text x="12" y="231" font-family="Verdana" font-size="10" text-anchor="middle"  dominant-baseline="middle" fill="red" > D1</text>
<text x="12" y="375" font-family="Verdana" font-size="10" text-anchor="middle"  dominant-baseline="middle" fill="red" > D2</text>
<text x="12" y="519" font-family="Verdana" font-size="10" text-anchor="middle"  dominant-baseline="middle" fill="red" > D3</text>
<text x="12" y="663" font-family="Verdana" font-size="10" text-anchor="middle"  dominant-baseline="middle" fill="red" > D4</text>
<text x="12" y="20" font-family="Verdana" font-size="10" text-anchor="middle"  dominant-baseline="middle" fill="black" > 0</text>
<text x="12" y="164" font-family="Verdana" font-size="10" text-anchor="middle"  dominant-baseline="middle" fill="black" > 144</text>
<text x="12" y="308" font-family="Verdana" font-size="10" text-anchor="middle"  dominant-baseline="middle" fill="black" > 288</text>
<text x="12" y="452" font-family="Verdana" font-size="10" text-anchor="middle"  dominant-baseline="middle" fill="black" > 432</text>
<text x="12" y="596" font-family="Verdana" font-size="10" text-anchor="middle"  dominant-baseline="middle" fill="black" > 576</text>
<text x="12" y="740" font-family="Verdana" font-size="10" text-anchor="middle"  dominant-baseline="middle" fill="black" > 720</text>
<text x="150" y="7" font-family="Verdana" font-size="7" text-anchor="middle"  dominant-baseline="middle" fill="black" > C1</text>
<circle cx="150" cy="15" r="4" fill="white" stroke="black" />
<line x1="150" y1="19" x2="150" y2="249" stroke="black" />
<line x1="50" y1="249" x2="250" y2="249" stroke="black" />
<text x="175" y="241" font-family="Verdana" font-size="8" text-anchor="middle"  dominant-baseline="middle" fill="black" > 234</text>
<circle cx="50" cy="249" r="4" fill="white" stroke="black" />
<circle cx="150" cy="249" r="4" fill="white" stroke="black" />
<line x1="50" y1="253" x2="50" y2="267" stroke="black" />
<line x1="50" y1="267" x2="100" y2="272" stroke="black" />
<line x1="150" y1="253" x2="150" y2="267" stroke="black" />
<line x1="150" y1="267" x2="100" y2="272" stroke="black" />
<text x="100" y="260" font-family="Verdana" font-size="8" text-anchor="middle"  dominant-baseline="middle" fill="black" > 257</text>
<circle cx="100" cy="272" r="4" fill="white" stroke="black" />
<line x1="100" y1="276" x2="100" y2="704" stroke="black" />
<line x1="96" y1="700" x2="104" y2="708" stroke="red" />
<line x1="96" y1="708" x2="104" y2="700" stroke="red" />
<text x="100" y="716" font-family="Verdana" font-size="8" text-anchor="middle"  dominant-baseline="middle" fill="black" > 689</text>
<circle cx="250" cy="249" r="4" fill="white" stroke="black" />
<line x1="250" y1="253" x2="250" y2="528" stroke="black" />
<line x1="246" y1="524" x2="254" y2="532" stroke="red" />
<line x1="246" y1="532" x2="254" y2="524" stroke="red" />
<text x="250" y="540" font-family="Verdana" font-size="8" text-anchor="middle"  dominant-baseline="middle" fill="black" > 513</text>
<text x="450" y="7" font-family="Verdana" font-size="7" text-anchor="middle"  dominant-baseline="middle" fill="black" > C2</text>
<circle cx="450" cy="15" r="4" fill="white" stroke="black" />
<line x1="450" y1="19" x2="450" y2="303" stroke="black" />
<line x1="350" y1="303" x2="550" y2="303" stroke="black" />
<text x="475" y="295" font-family="Verdana" font-size="8" text-anchor="middle"  dominant-baseline="middle" fill="black" > 288</text>
<circle cx="350" cy="303" r="4" fill="white" stroke="black" />
<line x1="350" y1="307" x2="350" y2="515" stroke="black" />
<line x1="346" y1="511" x2="354" y2="519" stroke="red" />
<line x1="346" y1="519" x2="354" y2="511" stroke="red" />
<text x="350" y="527" font-family="Verdana" font-size="8" text-anchor="middle"  dominant-baseline="middle" fill="black" > 500</text>
<circle cx="450" cy="303" r="4" fill="white" stroke="black" />
<line x1="450" y1="307" x2="450" y2="736" stroke="black" />
<circle cx="450" cy="736" r="4" fill="white" stroke="black" />
<text x="450" y="748" font-family="Verdana" font-size="8" text-anchor="middle"  dominant-baseline="middle" fill="black" > 721</text>
<circle cx="550" cy="303" r="4" fill="white" stroke="black" />
<line x1="550" y1="307" x2="550" y2="736" stroke="black" />
<circle cx="550" cy="736" r="4" fill="white" stroke="black" />
<text x="550" y="748" font-family="Verdana" font-size="8" text-anchor="middle"  dominant-baseline="middle" fill="black" > 721</text>
<text x="650" y="7" font-family="Verdana" font-size="7" text-anchor="middle"  dominant-baseline="middle" fill="black" > C3</text>
<circle cx="650" cy="15" r="4" fill="white" stroke="black" />
<line x1="650" y1="19" x2="650" y2="613" stroke="black" />
<line x1="646" y1="609" x2="654" y2="617" stroke="red" />
<line x1="646" y1="617" x2="654" y2="609" stroke="red" />
<text x="650" y="625" font-family="Verdana" font-size="8" text-anchor="middle"  dominant-baseline="middle" fill="black" > 598</text>
<text x="800" y="7" font-family="Verdana" font-size="7" text-anchor="middle"  dominant-baseline="middle" fill="black" > C4</text>
<circle cx="800" cy="15" r="4" fill="white" stroke="black" />
<line x1="800" y1="19" x2="800" y2="205" stroke="black" />
<line x1="750" y1="205" x2="850" y2="205" stroke="black" />
<text x="825" y="197" font-family="Verdana" font-size="8" text-anchor="middle"  dominant-baseline="middle" fill="black" > 190</text>
<circle cx="750" cy="205" r="4" fill="white" stroke="black" />
<circle cx="850" cy="205" r="4" fill="white" stroke="black" />
<line x1="750" y1="209" x2="750" y2="213" stroke="black" />
<line x1="750" y1="213" x2="800" y2="215" stroke="black" />
<line x1="850" y1="209" x2="850" y2="213" stroke="black" />
<line x1="850" y1="213" x2="800" y2="215" stroke="black" />
<text x="800" y="203" font-family="Verdana" font-size="8" text-anchor="middle"  dominant-baseline="middle" fill="black" > 200</text>
<circle cx="800" cy="215" r="4" fill="white" stroke="black" />
<line x1="800" y1="219" x2="800" y2="635" stroke="black" />
<line x1="796" y1="631" x2="804" y2="639" stroke="red" />
<line x1="796" y1="639" x2="804" y2="631" stroke="red" />
<text x="800" y="647" font-family="Verdana" font-size="8" text-anchor="middle"  dominant-baseline="middle" fill="black" > 620</text>
<text x="950" y="7" font-family="Verdana" font-size="7" text-anchor="middle"  dominant-baseline="middle" fill="black" > C5</text>
<circle cx="950" cy="15" r="4" fill="white" stroke="black" />
<line x1="950" y1="19" x2="950" y2="493" stroke="black" />
<line x1="946" y1="489" x2="954" y2="497" stroke="red" />
<line x1="946" y1="497" x2="954" y2="489" stroke="red" />
<text x="950" y="505" font-family="Verdana" font-size="8" text-anchor="middle"  dominant-baseline="middle" fill="black" > 478</text>
<text x="1150" y="7" font-family="Verdana" font-size="7" text-anchor="middle"  dominant-baseline="middle" fill="black" > C6</text>
<circle cx="1150" cy="15" r="4" fill="white" stroke="black" />
<line x1="1150" y1="19" x2="1150" y2="147" stroke="black" />
<line x1="1050" y1="147" x2="1250" y2="147" stroke="black" />
<text x="1175" y="139" font-family="Verdana" font-size="8" text-anchor="middle"  dominant-baseline="middle" fill="black" > 132</text>
<circle cx="1050" cy="147" r="4" fill="white" stroke="black" />
<line x1="1050" y1="151" x2="1050" y2="230" stroke="black" />
<line x1="1046" y1="234" x2="1050" y2="226" stroke="blue" />
<line x1="1050" y1="234" x2="1054" y2="226" stroke="blue" />
<text x="1050" y="242" font-family="Verdana" font-size="8" text-anchor="middle"  dominant-baseline="middle" fill="black" > 215</text>
<circle cx="1150" cy="147" r="4" fill="white" stroke="black" />
<line x1="1150" y1="151" x2="1150" y2="230" stroke="black" />
<line x1="1146" y1="234" x2="1150" y2="226" stroke="blue" />
<line x1="1150" y1="234" x2="1154" y2="226" stroke="blue" />
<text x="1150" y="242" font-family="Verdana" font-size="8" text-anchor="middle"  dominant-baseline="middle" fill="black" > 215</text>
<circle cx="1250" cy="147" r="4" fill="white" stroke="black" />
<line x1="1250" y1="151" x2="1250" y2="736" stroke="black" />
<circle cx="1250" cy="736" r="4" fill="white" stroke="black" />
<text x="1250" y="748" font-family="Verdana" font-size="8" text-anchor="middle"  dominant-baseline="middle" fill="black" > 721</text>
<text x="1400" y="7" font-family="Verdana" font-size="7" text-anchor="middle"  dominant-baseline="middle" fill="black" > C8</text>
<circle cx="1400" cy="15" r="4" fill="white" stroke="black" />
<line x1="1400" y1="19" x2="1400" y2="197" stroke="black" />
<line x1="1350" y1="197" x2="1450" y2="197" stroke="black" />
<text x="1425" y="189" font-family="Verdana" font-size="8" text-anchor="middle"  dominant-baseline="middle" fill="black" > 182</text>
<circle cx="1350" cy="197" r="4" fill="white" stroke="black" />
<line x1="1350" y1="201" x2="1350" y2="337" stroke="black" />
<line x1="1325" y1="337" x2="1375" y2="337" stroke="black" />
<text x="1362" y="329" font-family="Verdana" font-size="8" text-anchor="middle"  dominant-baseline="middle" fill="black" > 322</text>
<circle cx="1325" cy="337" r="4" fill="white" stroke="black" />
<line x1="1325" y1="341" x2="1325" y2="736" stroke="black" />
<circle cx="1325" cy="736" r="4" fill="white" stroke="black" />
<text x="1325" y="748" font-family="Verdana" font-size="8" text-anchor="middle"  dominant-baseline="middle" fill="black" > 721</text>
<circle cx="1375" cy="337" r="4" fill="white" stroke="black" />
<line x1="1375" y1="341" x2="1375" y2="464" stroke="black" />
<line x1="1358" y1="464" x2="1392" y2="464" stroke="black" />
<text x="1379" y="456" font-family="Verdana" font-size="8" text-anchor="middle"  dominant-baseline="middle" fill="black" > 449</text>
<circle cx="1358" cy="464" r="4" fill="white" stroke="black" />
<line x1="1358" y1="468" x2="1358" y2="736" stroke="black" />
<circle cx="1358" cy="736" r="4" fill="white" stroke="black" />
<text x="1358" y="748" font-family="Verdana" font-size="8" text-anchor="middle"  dominant-baseline="middle" fill="black" > 721</text>
<circle cx="1374" cy="464" r="4" fill="white" stroke="black" />
<line x1="1374" y1="468" x2="1374" y2="736" stroke="black" />
<circle cx="1374" cy="736" r="4" fill="white" stroke="black" />
<text x="1374" y="748" font-family="Verdana" font-size="8" text-anchor="middle"  dominant-baseline="middle" fill="black" > 721</text>
<circle cx="1390" cy="464" r="4" fill="white" stroke="black" />
<line x1="1390" y1="468" x2="1390" y2="736" stroke="black" />
<circle cx="1390" cy="736" r="4" fill="white" stroke="black" />
<text x="1390" y="748" font-family="Verdana" font-size="8" text-anchor="middle"  dominant-baseline="middle" fill="black" > 721</text>
<circle cx="1450" cy="197" r="4" fill="white" stroke="black" />
<line x1="1450" y1="201" x2="1450" y2="323" stroke="black" />
<line x1="1425" y1="323" x2="1475" y2="323" stroke="black" />
<text x="1462" y="315" font-family="Verdana" font-size="8" text-anchor="middle"  dominant-baseline="middle" fill="black" > 308</text>
<circle cx="1425" cy="323" r="4" fill="white" stroke="black" />
<line x1="1425" y1="327" x2="1425" y2="447" stroke="black" />
<line x1="1412" y1="447" x2="1438" y2="447" stroke="black" />
<text x="1431" y="439" font-family="Verdana" font-size="8" text-anchor="middle"  dominant-baseline="middle" fill="black" > 432</text>
<circle cx="1412" cy="447" r="4" fill="white" stroke="black" />
<line x1="1412" y1="451" x2="1412" y2="634" stroke="black" />
<line x1="1406" y1="634" x2="1419" y2="634" stroke="black" />
<text x="1415" y="626" font-family="Verdana" font-size="8" text-anchor="middle"  dominant-baseline="middle" fill="black" > 619</text>
<circle cx="1406" cy="634" r="4" fill="white" stroke="black" />
<line x1="1406" y1="638" x2="1406" y2="736" stroke="black" />
<circle cx="1406" cy="736" r="4" fill="white" stroke="black" />
<text x="1406" y="748" font-family="Verdana" font-size="8" text-anchor="middle"  dominant-baseline="middle" fill="black" > 721</text>
<circle cx="1418" cy="634" r="4" fill="white" stroke="black" />
<line x1="1418" y1="638" x2="1418" y2="736" stroke="black" />
<circle cx="1418" cy="736" r="4" fill="white" stroke="black" />
<text x="1418" y="748" font-family="Verdana" font-size="8" text-anchor="middle"  dominant-baseline="middle" fill="black" > 721</text>
<circle cx="1437" cy="447" r="4" fill="white" stroke="black" />
<line x1="1437" y1="451" x2="1437" y2="637" stroke="black" />
<line x1="1431" y1="637" x2="1444" y2="637" stroke="black" />
<text x="1440" y="629" font-family="Verdana" font-size="8" text-anchor="middle"  dominant-baseline="middle" fill="black" > 622</text>
<circle cx="1431" cy="637" r="4" fill="white" stroke="black" />
<line x1="1431" y1="641" x2="1431" y2="736" stroke="black" />
<circle cx="1431" cy="736" r="4" fill="white" stroke="black" />
<text x="1431" y="748" font-family="Verdana" font-size="8" text-anchor="middle"  dominant-baseline="middle" fill="black" > 721</text>
<circle cx="1443" cy="637" r="4" fill="white" stroke="black" />
<line x1="1443" y1="641" x2="1443" y2="736" stroke="black" />
<circle cx="1443" cy="736" r="4" fill="white" stroke="black" />
<text x="1443" y="748" font-family="Verdana" font-size="8" text-anchor="middle"  dominant-baseline="middle" fill="black" > 721</text>
<circle cx="1475" cy="323" r="4" fill="white" stroke="black" />
<line x1="1475" y1="327" x2="1475" y2="585" stroke="black" />
<line x1="1462" y1="585" x2="1488" y2="585" stroke="black" />
<text x="1481" y="577" font-family="Verdana" font-size="8" text-anchor="middle"  dominant-baseline="middle" fill="black" > 570</text>
<circle cx="1462" cy="585" r="4" fill="white" stroke="black" />
<line x1="1462" y1="589" x2="1462" y2="736" stroke="black" />
<circle cx="1462" cy="736" r="4" fill="white" stroke="black" />
<text x="1462" y="748" font-family="Verdana" font-size="8" text-anchor="middle"  dominant-baseline="middle" fill="black" > 721</text>
<circle cx="1487" cy="585" r="4" fill="white" stroke="black" />
<line x1="1487" y1="589" x2="1487" y2="736" stroke="black" />
<circle cx="1487" cy="736" r="4" fill="white" stroke="black" />
<text x="1487" y="748" font-family="Verdana" font-size="8" text-anchor="middle"  dominant-baseline="middle" fill="black" > 721</text>
<text x="1650" y="7" font-family="Verdana" font-size="7" text-anchor="middle"  dominant-baseline="middle" fill="black" > C9</text>
<circle cx="1650" cy="15" r="4" fill="white" stroke="black" />
<line x1="1650" y1="19" x2="1650" y2="485" stroke="black" />
<line x1="1550" y1="485" x2="1750" y2="485" stroke="black" />
<text x="1675" y="477" font-family="Verdana" font-size="8" text-anchor="middle"  dominant-baseline="middle" fill="black" > 470</text>
<circle cx="1550" cy="485" r="4" fill="white" stroke="black" />
<circle cx="1650" cy="485" r="4" fill="white" stroke="black" />
<line x1="1550" y1="489" x2="1550" y2="500" stroke="black" />
<line x1="1550" y1="500" x2="1600" y2="505" stroke="black" />
<line x1="1650" y1="489" x2="1650" y2="500" stroke="black" />
<line x1="1650" y1="500" x2="1600" y2="505" stroke="black" />
<text x="1600" y="493" font-family="Verdana" font-size="8" text-anchor="middle"  dominant-baseline="middle" fill="black" > 490</text>
<circle cx="1600" cy="505" r="4" fill="white" stroke="black" />
<line x1="1600" y1="509" x2="1600" y2="687" stroke="black" />
<line x1="1596" y1="683" x2="1604" y2="691" stroke="red" />
<line x1="1596" y1="691" x2="1604" y2="683" stroke="red" />
<text x="1600" y="699" font-family="Verdana" font-size="8" text-anchor="middle"  dominant-baseline="middle" fill="black" > 672</text>
<circle cx="1750" cy="485" r="4" fill="white" stroke="black" />
<line x1="1750" y1="489" x2="1750" y2="736" stroke="black" />
<circle cx="1750" cy="736" r="4" fill="white" stroke="black" />
<text x="1750" y="748" font-family="Verdana" font-size="8" text-anchor="middle"  dominant-baseline="middle" fill="black" > 721</text>
<text x="1850" y="7" font-family="Verdana" font-size="7" text-anchor="middle"  dominant-baseline="middle" fill="black" > C10</text>
<circle cx="1850" cy="15" r="4" fill="white" stroke="black" />
<line x1="1850" y1="19" x2="1850" y2="709" stroke="black" />
<line x1="1846" y1="705" x2="1854" y2="713" stroke="red" />
<line x1="1846" y1="713" x2="1854" y2="705" stroke="red" />
<text x="1850" y="721" font-family="Verdana" font-size="8" text-anchor="middle"  dominant-baseline="middle" fill="black" > 694</text>
<text x="2050" y="7" font-family="Verdana" font-size="7" text-anchor="middle"  dominant-baseline="middle" fill="black" > C11</text>
<circle cx="2050" cy="15" r="4" fill="white" stroke="black" />
<line x1="2050" y1="19" x2="2050" y2="257" stroke="black" />
<line x1="1950" y1="257" x2="2150" y2="257" stroke="black" />
<text x="2075" y="249" font-family="Verdana" font-size="8" text-anchor="middle"  dominant-baseline="middle" fill="black" > 242</text>
<circle cx="1950" cy="257" r="4" fill="white" stroke="black" />
<line x1="1950" y1="261" x2="1950" y2="736" stroke="black" />
<circle cx="1950" cy="736" r="4" fill="white" stroke="black" />
<text x="1950" y="748" font-family="Verdana" font-size="8" text-anchor="middle"  dominant-baseline="middle" fill="black" > 721</text>
<circle cx="2050" cy="257" r="4" fill="white" stroke="black" />
<line x1="2050" y1="261" x2="2050" y2="736" stroke="black" />
<circle cx="2050" cy="736" r="4" fill="white" stroke="black" />
<text x="2050" y="748" font-family="Verdana" font-size="8" text-anchor="middle"  dominant-baseline="middle" fill="black" > 721</text>
<circle cx="2150" cy="257" r="4" fill="white" stroke="black" />
<line x1="2150" y1="261" x2="2150" y2="475" stroke="black" />
<line x1="2146" y1="471" x2="2154" y2="479" stroke="red" />
<line x1="2146" y1="479" x2="2154" y2="471" stroke="red" />
<text x="2150" y="487" font-family="Verdana" font-size="8" text-anchor="middle"  dominant-baseline="middle" fill="black" > 460</text>
<text x="2250" y="7" font-family="Verdana" font-size="7" text-anchor="middle"  dominant-baseline="middle" fill="black" > C12</text>
<circle cx="2250" cy="15" r="4" fill="white" stroke="black" />
<line x1="2250" y1="19" x2="2250" y2="25" stroke="black" />
<line x1="2246" y1="21" x2="2254" y2="29" stroke="red" />
<line x1="2246" y1="29" x2="2254" y2="21" stroke="red" />
<text x="2250" y="37" font-family="Verdana" font-size="8" text-anchor="middle"  dominant-baseline="middle" fill="black" > 10</text>
<text x="2350" y="7" font-family="Verdana" font-size="7" text-anchor="middle"  dominant-baseline="middle" fill="black" > C13</text>
<circle cx="2350" cy="15" r="4" fill="white" stroke="black" />
<line x1="2350" y1="19" x2="2350" y2="448" stroke="black" />
<line x1="2346" y1="444" x2="2354" y2="452" stroke="red" />
<line x1="2346" y1="452" x2="2354" y2="444" stroke="red" />
<text x="2350" y="460" font-family="Verdana" font-size="8" text-anchor="middle"  dominant-baseline="middle" fill="black" > 433</text>
<text x="2500" y="7" font-family="Verdana" font-size="7" text-anchor="middle"  dominant-baseline="middle" fill="black" > C14</text>
<circle cx="2500" cy="15" r="4" fill="white" stroke="black" />
<line x1="2500" y1="19" x2="2500" y2="185" stroke="black" />
<line x1="2450" y1="185" x2="2550" y2="185" stroke="black" />
<text x="2525" y="177" font-family="Verdana" font-size="8" text-anchor="middle"  dominant-baseline="middle" fill="black" > 170</text>
<circle cx="2450" cy="185" r="4" fill="white" stroke="black" />
<line x1="2450" y1="189" x2="2450" y2="360" stroke="black" />
<line x1="2446" y1="356" x2="2454" y2="364" stroke="red" />
<line x1="2446" y1="364" x2="2454" y2="356" stroke="red" />
<text x="2450" y="372" font-family="Verdana" font-size="8" text-anchor="middle"  dominant-baseline="middle" fill="black" > 345</text>
<circle cx="2550" cy="185" r="4" fill="white" stroke="black" />
<line x1="2550" y1="189" x2="2550" y2="648" stroke="black" />
<line x1="2546" y1="644" x2="2554" y2="652" stroke="red" />
<line x1="2546" y1="652" x2="2554" y2="644" stroke="red" />
<text x="2550" y="660" font-family="Verdana" font-size="8" text-anchor="middle"  dominant-baseline="middle" fill="black" > 633</text>
<text x="2700" y="7" font-family="Verdana" font-size="7" text-anchor="middle"  dominant-baseline="middle" fill="black" > C15</text>
<circle cx="2700" cy="15" r="4" fill="white" stroke="black" />
<line x1="2700" y1="19" x2="2700" y2="166" stroke="black" />
<line x1="2650" y1="166" x2="2750" y2="166" stroke="black" />
<text x="2725" y="158" font-family="Verdana" font-size="8" text-anchor="middle"  dominant-baseline="middle" fill="black" > 151</text>
<circle cx="2650" cy="166" r="4" fill="white" stroke="black" />
<line x1="2650" y1="170" x2="2650" y2="339" stroke="black" />
<line x1="2625" y1="339" x2="2675" y2="339" stroke="black" />
<text x="2662" y="331" font-family="Verdana" font-size="8" text-anchor="middle"  dominant-baseline="middle" fill="black" > 324</text>
<circle cx="2625" cy="339" r="4" fill="white" stroke="black" />
<line x1="2625" y1="343" x2="2625" y2="620" stroke="black" />
<line x1="2612" y1="620" x2="2638" y2="620" stroke="black" />
<text x="2631" y="612" font-family="Verdana" font-size="8" text-anchor="middle"  dominant-baseline="middle" fill="black" > 605</text>
<circle cx="2612" cy="620" r="4" fill="white" stroke="black" />
<line x1="2612" y1="624" x2="2612" y2="736" stroke="black" />
<circle cx="2612" cy="736" r="4" fill="white" stroke="black" />
<text x="2612" y="748" font-family="Verdana" font-size="8" text-anchor="middle"  dominant-baseline="middle" fill="black" > 721</text>
<circle cx="2637" cy="620" r="4" fill="white" stroke="black" />
<line x1="2637" y1="624" x2="2637" y2="736" stroke="black" />
<circle cx="2637" cy="736" r="4" fill="white" stroke="black" />
<text x="2637" y="748" font-family="Verdana" font-size="8" text-anchor="middle"  dominant-baseline="middle" fill="black" > 721</text>
<circle cx="2675" cy="339" r="4" fill="white" stroke="black" />
<line x1="2675" y1="343" x2="2675" y2="550" stroke="black" />
<line x1="2662" y1="550" x2="2688" y2="550" stroke="black" />
<text x="2681" y="542" font-family="Verdana" font-size="8" text-anchor="middle"  dominant-baseline="middle" fill="black" > 535</text>
<circle cx="2662" cy="550" r="4" fill="white" stroke="black" />
<circle cx="2687" cy="550" r="4" fill="white" stroke="black" />
<line x1="2662" y1="554" x2="2662" y2="629" stroke="black" />
<line x1="2662" y1="629" x2="2674" y2="655" stroke="black" />
<line x1="2687" y1="554" x2="2687" y2="629" stroke="black" />
<line x1="2687" y1="629" x2="2674" y2="655" stroke="black" />
<text x="2674" y="643" font-family="Verdana" font-size="8" text-anchor="middle"  dominant-baseline="middle" fill="black" > 640</text>
<circle cx="2674" cy="655" r="4" fill="white" stroke="black" />
<line x1="2674" y1="659" x2="2674" y2="736" stroke="black" />
<circle cx="2674" cy="736" r="4" fill="white" stroke="black" />
<text x="2674" y="748" font-family="Verdana" font-size="8" text-anchor="middle"  dominant-baseline="middle" fill="black" > 721</text>
<circle cx="2750" cy="166" r="4" fill="white" stroke="black" />
<line x1="2750" y1="170" x2="2750" y2="415" stroke="black" />
<line x1="2725" y1="415" x2="2775" y2="415" stroke="black" />
<text x="2762" y="407" font-family="Verdana" font-size="8" text-anchor="middle"  dominant-baseline="middle" fill="black" > 400</text>
<circle cx="2725" cy="415" r="4" fill="white" stroke="black" />
<line x1="2725" y1="419" x2="2725" y2="736" stroke="black" />
<circle cx="2725" cy="736" r="4" fill="white" stroke="black" />
<text x="2725" y="748" font-family="Verdana" font-size="8" text-anchor="middle"  dominant-baseline="middle" fill="black" > 721</text>
<circle cx="2775" cy="415" r="4" fill="white" stroke="black" />
<line x1="2775" y1="419" x2="2775" y2="736" stroke="black" />
<circle cx="2775" cy="736" r="4" fill="white" stroke="black" />
<text x="2775" y="748" font-family="Verdana" font-size="8" text-anchor="middle"  dominant-baseline="middle" fill="black" > 721</text>
<text x="2900" y="7" font-family="Verdana" font-size="7" text-anchor="middle"  dominant-baseline="middle" fill="black" > C16</text>
<circle cx="2900" cy="15" r="4" fill="white" stroke="black" />
<line x1="2900" y1="19" x2="2900" y2="145" stroke="black" />
<line x1="2850" y1="145" x2="2950" y2="145" stroke="black" />
<text x="2925" y="137" font-family="Verdana" font-size="8" text-anchor="middle"  dominant-baseline="middle" fill="black" > 130</text>
<circle cx="2850" cy="145" r="4" fill="white" stroke="black" />
<line x1="2850" y1="149" x2="2850" y2="325" stroke="black" />
<line x1="2825" y1="325" x2="2875" y2="325" stroke="black" />
<text x="2862" y="317" font-family="Verdana" font-size="8" text-anchor="middle"  dominant-baseline="middle" fill="black" > 310</text>
<circle cx="2825" cy="325" r="4" fill="white" stroke="black" />
<line x1="2825" y1="329" x2="2825" y2="672" stroke="black" />
<line x1="2821" y1="668" x2="2829" y2="676" stroke="red" />
<line x1="2821" y1="676" x2="2829" y2="668" stroke="red" />
<text x="2825" y="684" font-family="Verdana" font-size="8" text-anchor="middle"  dominant-baseline="middle" fill="black" > 657</text>
<circle cx="2875" cy="325" r="4" fill="white" stroke="black" />
<line x1="2875" y1="329" x2="2875" y2="736" stroke="black" />
<circle cx="2875" cy="736" r="4" fill="white" stroke="black" />
<text x="2875" y="748" font-family="Verdana" font-size="8" text-anchor="middle"  dominant-baseline="middle" fill="black" > 721</text>
<circle cx="2950" cy="145" r="4" fill="white" stroke="black" />
<line x1="2950" y1="149" x2="2950" y2="317" stroke="black" />
<line x1="2925" y1="317" x2="2975" y2="317" stroke="black" />
<text x="2962" y="309" font-family="Verdana" font-size="8" text-anchor="middle"  dominant-baseline="middle" fill="black" > 302</text>
<circle cx="2925" cy="317" r="4" fill="white" stroke="black" />
<line x1="2925" y1="321" x2="2925" y2="550" stroke="black" />
<line x1="2921" y1="546" x2="2929" y2="554" stroke="red" />
<line x1="2921" y1="554" x2="2929" y2="546" stroke="red" />
<text x="2925" y="562" font-family="Verdana" font-size="8" text-anchor="middle"  dominant-baseline="middle" fill="black" > 535</text>
<circle cx="2975" cy="317" r="4" fill="white" stroke="black" />
<line x1="2975" y1="321" x2="2975" y2="623" stroke="black" />
<line x1="2971" y1="619" x2="2979" y2="627" stroke="red" />
<line x1="2971" y1="627" x2="2979" y2="619" stroke="red" />
<text x="2975" y="635" font-family="Verdana" font-size="8" text-anchor="middle"  dominant-baseline="middle" fill="black" > 608</text>
<text x="3100" y="7" font-family="Verdana" font-size="7" text-anchor="middle"  dominant-baseline="middle" fill="black" > C17</text>
<circle cx="3100" cy="15" r="4" fill="white" stroke="black" />
<line x1="3100" y1="19" x2="3100" y2="148" stroke="black" />
<line x1="3050" y1="148" x2="3150" y2="148" stroke="black" />
<text x="3125" y="140" font-family="Verdana" font-size="8" text-anchor="middle"  dominant-baseline="middle" fill="black" > 133</text>
<circle cx="3050" cy="148" r="4" fill="white" stroke="black" />
<line x1="3050" y1="152" x2="3050" y2="316" stroke="black" />
<line x1="3025" y1="316" x2="3075" y2="316" stroke="black" />
<text x="3062" y="308" font-family="Verdana" font-size="8" text-anchor="middle"  dominant-baseline="middle" fill="black" > 301</text>
<circle cx="3025" cy="316" r="4" fill="white" stroke="black" />
<line x1="3025" y1="320" x2="3025" y2="674" stroke="black" />
<line x1="3021" y1="670" x2="3029" y2="678" stroke="red" />
<line x1="3021" y1="678" x2="3029" y2="670" stroke="red" />
<text x="3025" y="686" font-family="Verdana" font-size="8" text-anchor="middle"  dominant-baseline="middle" fill="black" > 659</text>
<circle cx="3075" cy="316" r="4" fill="white" stroke="black" />
<line x1="3075" y1="320" x2="3075" y2="736" stroke="black" />
<circle cx="3075" cy="736" r="4" fill="white" stroke="black" />
<text x="3075" y="748" font-family="Verdana" font-size="8" text-anchor="middle"  dominant-baseline="middle" fill="black" > 721</text>
<circle cx="3150" cy="148" r="4" fill="white" stroke="black" />
<line x1="3150" y1="152" x2="3150" y2="322" stroke="black" />
<line x1="3116" y1="322" x2="3184" y2="322" stroke="black" />
<text x="3158" y="314" font-family="Verdana" font-size="8" text-anchor="middle"  dominant-baseline="middle" fill="black" > 307</text>
<circle cx="3116" cy="322" r="4" fill="white" stroke="black" />
<circle cx="3149" cy="322" r="4" fill="white" stroke="black" />
<line x1="3116" y1="326" x2="3116" y2="362" stroke="black" />
<line x1="3116" y1="362" x2="3132" y2="375" stroke="black" />
<line x1="3149" y1="326" x2="3149" y2="362" stroke="black" />
<line x1="3149" y1="362" x2="3132" y2="375" stroke="black" />
<text x="3132" y="363" font-family="Verdana" font-size="8" text-anchor="middle"  dominant-baseline="middle" fill="black" > 360</text>
<circle cx="3132" cy="375" r="4" fill="white" stroke="black" />
<line x1="3132" y1="379" x2="3132" y2="550" stroke="black" />
<line x1="3128" y1="546" x2="3136" y2="554" stroke="red" />
<line x1="3128" y1="554" x2="3136" y2="546" stroke="red" />
<text x="3132" y="562" font-family="Verdana" font-size="8" text-anchor="middle"  dominant-baseline="middle" fill="black" > 535</text>
<circle cx="3182" cy="322" r="4" fill="white" stroke="black" />
<line x1="3182" y1="326" x2="3182" y2="624" stroke="black" />
<line x1="3178" y1="620" x2="3186" y2="628" stroke="red" />
<line x1="3178" y1="628" x2="3186" y2="620" stroke="red" />
<text x="3182" y="636" font-family="Verdana" font-size="8" text-anchor="middle"  dominant-baseline="middle" fill="black" > 609</text>
<text x="3300" y="7" font-family="Verdana" font-size="7" text-anchor="middle"  dominant-baseline="middle" fill="black" > C18</text>
<circle cx="3300" cy="15" r="4" fill="white" stroke="black" />
<line x1="3300" y1="19" x2="3300" y2="190" stroke="black" />
<line x1="3250" y1="190" x2="3350" y2="190" stroke="black" />
<text x="3325" y="182" font-family="Verdana" font-size="8" text-anchor="middle"  dominant-baseline="middle" fill="black" > 175</text>
<circle cx="3250" cy="190" r="4" fill="white" stroke="black" />
<line x1="3250" y1="194" x2="3250" y2="360" stroke="black" />
<line x1="3246" y1="356" x2="3254" y2="364" stroke="red" />
<line x1="3246" y1="364" x2="3254" y2="356" stroke="red" />
<text x="3250" y="372" font-family="Verdana" font-size="8" text-anchor="middle"  dominant-baseline="middle" fill="black" > 345</text>
<circle cx="3350" cy="190" r="4" fill="white" stroke="black" />
<line x1="3350" y1="194" x2="3350" y2="646" stroke="black" />
<line x1="3346" y1="642" x2="3354" y2="650" stroke="red" />
<line x1="3346" y1="650" x2="3354" y2="642" stroke="red" />
<text x="3350" y="658" font-family="Verdana" font-size="8" text-anchor="middle"  dominant-baseline="middle" fill="black" > 631</text>
<text x="3450" y="7" font-family="Verdana" font-size="7" text-anchor="middle"  dominant-baseline="middle" fill="black" > C19</text>
<circle cx="3450" cy="15" r="4" fill="white" stroke="black" />
<line x1="3450" y1="19" x2="3450" y2="457" stroke="black" />
<line x1="3446" y1="453" x2="3454" y2="461" stroke="red" />
<line x1="3446" y1="461" x2="3454" y2="453" stroke="red" />
<text x="3450" y="469" font-family="Verdana" font-size="8" text-anchor="middle"  dominant-baseline="middle" fill="black" > 442</text>
<text x="3600" y="7" font-family="Verdana" font-size="7" text-anchor="middle"  dominant-baseline="middle" fill="black" > C20</text>
<circle cx="3600" cy="15" r="4" fill="white" stroke="black" />
<line x1="3600" y1="19" x2="3600" y2="168" stroke="black" />
<line x1="3550" y1="168" x2="3650" y2="168" stroke="black" />
<text x="3625" y="160" font-family="Verdana" font-size="8" text-anchor="middle"  dominant-baseline="middle" fill="black" > 153</text>
<circle cx="3550" cy="168" r="4" fill="white" stroke="black" />
<line x1="3550" y1="172" x2="3550" y2="342" stroke="black" />
<line x1="3525" y1="342" x2="3575" y2="342" stroke="black" />
<text x="3562" y="334" font-family="Verdana" font-size="8" text-anchor="middle"  dominant-baseline="middle" fill="black" > 327</text>
<circle cx="3525" cy="342" r="4" fill="white" stroke="black" />
<line x1="3525" y1="346" x2="3525" y2="736" stroke="black" />
<circle cx="3525" cy="736" r="4" fill="white" stroke="black" />
<text x="3525" y="748" font-family="Verdana" font-size="8" text-anchor="middle"  dominant-baseline="middle" fill="black" > 721</text>
<circle cx="3575" cy="342" r="4" fill="white" stroke="black" />
<line x1="3575" y1="346" x2="3575" y2="416" stroke="black" />
<line x1="3562" y1="416" x2="3588" y2="416" stroke="black" />
<text x="3581" y="408" font-family="Verdana" font-size="8" text-anchor="middle"  dominant-baseline="middle" fill="black" > 401</text>
<circle cx="3562" cy="416" r="4" fill="white" stroke="black" />
<line x1="3562" y1="420" x2="3562" y2="736" stroke="black" />
<circle cx="3562" cy="736" r="4" fill="white" stroke="black" />
<text x="3562" y="748" font-family="Verdana" font-size="8" text-anchor="middle"  dominant-baseline="middle" fill="black" > 721</text>
<circle cx="3587" cy="416" r="4" fill="white" stroke="black" />
<line x1="3587" y1="420" x2="3587" y2="445" stroke="black" />
<line x1="3581" y1="445" x2="3594" y2="445" stroke="black" />
<text x="3590" y="437" font-family="Verdana" font-size="8" text-anchor="middle"  dominant-baseline="middle" fill="black" > 430</text>
<circle cx="3581" cy="445" r="4" fill="white" stroke="black" />
<line x1="3581" y1="449" x2="3581" y2="736" stroke="black" />
<circle cx="3581" cy="736" r="4" fill="white" stroke="black" />
<text x="3581" y="748" font-family="Verdana" font-size="8" text-anchor="middle"  dominant-baseline="middle" fill="black" > 721</text>
<circle cx="3593" cy="445" r="4" fill="white" stroke="black" />
<line x1="3593" y1="449" x2="3593" y2="736" stroke="black" />
<circle cx="3593" cy="736" r="4" fill="white" stroke="black" />
<text x="3593" y="748" font-family="Verdana" font-size="8" text-anchor="middle"  dominant-baseline="middle" fill="black" > 721</text>
<circle cx="3650" cy="168" r="4" fill="white" stroke="black" />
<line x1="3650" y1="172" x2="3650" y2="403" stroke="black" />
<line x1="3616" y1="403" x2="3684" y2="403" stroke="black" />
<text x="3658" y="395" font-family="Verdana" font-size="8" text-anchor="middle"  dominant-baseline="middle" fill="black" > 388</text>
<circle cx="3616" cy="403" r="4" fill="white" stroke="black" />
<line x1="3616" y1="407" x2="3616" y2="736" stroke="black" />
<circle cx="3616" cy="736" r="4" fill="white" stroke="black" />
<text x="3616" y="748" font-family="Verdana" font-size="8" text-anchor="middle"  dominant-baseline="middle" fill="black" > 721</text>
<circle cx="3649" cy="403" r="4" fill="white" stroke="black" />
<circle cx="3682" cy="403" r="4" fill="white" stroke="black" />
<line x1="3649" y1="407" x2="3649" y2="450" stroke="black" />
<line x1="3649" y1="450" x2="3665" y2="465" stroke="black" />
<line x1="3682" y1="407" x2="3682" y2="450" stroke="black" />
<line x1="3682" y1="450" x2="3665" y2="465" stroke="black" />
<text x="3665" y="453" font-family="Verdana" font-size="8" text-anchor="middle"  dominant-baseline="middle" fill="black" > 450</text>
<circle cx="3665" cy="465" r="4" fill="white" stroke="black" />
<line x1="3665" y1="469" x2="3665" y2="510" stroke="black" />
<line x1="3657" y1="510" x2="3674" y2="510" stroke="black" />
<text x="3669" y="502" font-family="Verdana" font-size="8" text-anchor="middle"  dominant-baseline="middle" fill="black" > 495</text>
<circle cx="3657" cy="510" r="4" fill="white" stroke="black" />
<circle cx="3673" cy="510" r="4" fill="white" stroke="black" />
<line x1="3657" y1="514" x2="3657" y2="642" stroke="black" />
<line x1="3657" y1="642" x2="3665" y2="685" stroke="black" />
<line x1="3673" y1="514" x2="3673" y2="642" stroke="black" />
<line x1="3673" y1="642" x2="3665" y2="685" stroke="black" />
<text x="3665" y="673" font-family="Verdana" font-size="8" text-anchor="middle"  dominant-baseline="middle" fill="black" > 670</text>
<circle cx="3665" cy="685" r="4" fill="white" stroke="black" />
<line x1="3665" y1="689" x2="3665" y2="736" stroke="black" />
<circle cx="3665" cy="736" r="4" fill="white" stroke="black" />
<text x="3665" y="748" font-family="Verdana" font-size="8" text-anchor="middle"  dominant-baseline="middle" fill="black" > 721</text>
<text x="3800" y="7" font-family="Verdana" font-size="7" text-anchor="middle"  dominant-baseline="middle" fill="black" > C21</text>
<circle cx="3800" cy="15" r="4" fill="white" stroke="black" />
<line x1="3800" y1="19" x2="3800" y2="124" stroke="black" />
<line x1="3750" y1="124" x2="3850" y2="124" stroke="black" />
<text x="3825" y="116" font-family="Verdana" font-size="8" text-anchor="middle"  dominant-baseline="middle" fill="black" > 109</text>
<circle cx="3750" cy="124" r="4" fill="white" stroke="black" />
<line x1="3750" y1="128" x2="3750" y2="266" stroke="black" />
<line x1="3725" y1="266" x2="3775" y2="266" stroke="black" />
<text x="3762" y="258" font-family="Verdana" font-size="8" text-anchor="middle"  dominant-baseline="middle" fill="black" > 251</text>
<circle cx="3725" cy="266" r="4" fill="white" stroke="black" />
<line x1="3725" y1="270" x2="3725" y2="430" stroke="black" />
<line x1="3708" y1="430" x2="3742" y2="430" stroke="black" />
<text x="3729" y="422" font-family="Verdana" font-size="8" text-anchor="middle"  dominant-baseline="middle" fill="black" > 415</text>
<circle cx="3708" cy="430" r="4" fill="white" stroke="black" />
<line x1="3708" y1="434" x2="3708" y2="455" stroke="black" />
<line x1="3704" y1="459" x2="3708" y2="451" stroke="blue" />
<line x1="3708" y1="459" x2="3712" y2="451" stroke="blue" />
<text x="3708" y="467" font-family="Verdana" font-size="8" text-anchor="middle"  dominant-baseline="middle" fill="black" > 440</text>
<circle cx="3724" cy="430" r="4" fill="white" stroke="black" />
<line x1="3724" y1="434" x2="3724" y2="455" stroke="black" />
<line x1="3720" y1="459" x2="3724" y2="451" stroke="blue" />
<line x1="3724" y1="459" x2="3728" y2="451" stroke="blue" />
<text x="3724" y="467" font-family="Verdana" font-size="8" text-anchor="middle"  dominant-baseline="middle" fill="black" > 440</text>
<circle cx="3740" cy="430" r="4" fill="white" stroke="black" />
<line x1="3740" y1="434" x2="3740" y2="455" stroke="black" />
<line x1="3736" y1="459" x2="3740" y2="451" stroke="blue" />
<line x1="3740" y1="459" x2="3744" y2="451" stroke="blue" />
<text x="3740" y="467" font-family="Verdana" font-size="8" text-anchor="middle"  dominant-baseline="middle" fill="black" > 440</text>
<circle cx="3775" cy="266" r="4" fill="white" stroke="black" />
<line x1="3775" y1="270" x2="3775" y2="449" stroke="black" />
<line x1="3762" y1="449" x2="3788" y2="449" stroke="black" />
<text x="3781" y="441" font-family="Verdana" font-size="8" text-anchor="middle"  dominant-baseline="middle" fill="black" > 434</text>
<circle cx="3762" cy="449" r="4" fill="white" stroke="black" />
<line x1="3762" y1="453" x2="3762" y2="736" stroke="black" />
<circle cx="3762" cy="736" r="4" fill="white" stroke="black" />
<text x="3762" y="748" font-family="Verdana" font-size="8" text-anchor="middle"  dominant-baseline="middle" fill="black" > 721</text>
<circle cx="3787" cy="449" r="4" fill="white" stroke="black" />
<line x1="3787" y1="453" x2="3787" y2="693" stroke="black" />
<line x1="3779" y1="693" x2="3796" y2="693" stroke="black" />
<text x="3789" y="685" font-family="Verdana" font-size="8" text-anchor="middle"  dominant-baseline="middle" fill="black" > 678</text>
<circle cx="3779" cy="693" r="4" fill="white" stroke="black" />
<line x1="3779" y1="697" x2="3779" y2="736" stroke="black" />
<circle cx="3779" cy="736" r="4" fill="white" stroke="black" />
<text x="3779" y="748" font-family="Verdana" font-size="8" text-anchor="middle"  dominant-baseline="middle" fill="black" > 721</text>
<circle cx="3787" cy="693" r="4" fill="white" stroke="black" />
<line x1="3787" y1="697" x2="3787" y2="736" stroke="black" />
<circle cx="3787" cy="736" r="4" fill="white" stroke="black" />
<text x="3787" y="748" font-family="Verdana" font-size="8" text-anchor="middle"  dominant-baseline="middle" fill="black" > 721</text>
<circle cx="3795" cy="693" r="4" fill="white" stroke="black" />
<line x1="3795" y1="697" x2="3795" y2="736" stroke="black" />
<circle cx="3795" cy="736" r="4" fill="white" stroke="black" />
<text x="3795" y="748" font-family="Verdana" font-size="8" text-anchor="middle"  dominant-baseline="middle" fill="black" > 721</text>
<circle cx="3850" cy="124" r="4" fill="white" stroke="black" />
<line x1="3850" y1="128" x2="3850" y2="315" stroke="black" />
<line x1="3816" y1="315" x2="3884" y2="315" stroke="black" />
<text x="3858" y="307" font-family="Verdana" font-size="8" text-anchor="middle"  dominant-baseline="middle" fill="black" > 300</text>
<circle cx="3816" cy="315" r="4" fill="white" stroke="black" />
<line x1="3816" y1="319" x2="3816" y2="736" stroke="black" />
<circle cx="3816" cy="736" r="4" fill="white" stroke="black" />
<text x="3816" y="748" font-family="Verdana" font-size="8" text-anchor="middle"  dominant-baseline="middle" fill="black" > 721</text>
<circle cx="3849" cy="315" r="4" fill="white" stroke="black" />
<line x1="3849" y1="319" x2="3849" y2="319" stroke="black" />
<line x1="3845" y1="323" x2="3849" y2="315" stroke="blue" />
<line x1="3849" y1="323" x2="3853" y2="315" stroke="blue" />
<text x="3849" y="331" font-family="Verdana" font-size="8" text-anchor="middle"  dominant-baseline="middle" fill="black" > 304</text>
<circle cx="3882" cy="315" r="4" fill="white" stroke="black" />
<line x1="3882" y1="319" x2="3882" y2="319" stroke="black" />
<line x1="3878" y1="323" x2="3882" y2="315" stroke="blue" />
<line x1="3882" y1="323" x2="3886" y2="315" stroke="blue" />
<text x="3882" y="331" font-family="Verdana" font-size="8" text-anchor="middle"  dominant-baseline="middle" fill="black" > 304</text>
<text x="3950" y="7" font-family="Verdana" font-size="7" text-anchor="middle"  dominant-baseline="middle" fill="black" > C22</text>
<circle cx="3950" cy="15" r="4" fill="white" stroke="black" />
<line x1="3950" y1="19" x2="3950" y2="29" stroke="black" />
<line x1="3946" y1="25" x2="3954" y2="33" stroke="red" />
<line x1="3946" y1="33" x2="3954" y2="25" stroke="red" />
<text x="3950" y="41" font-family="Verdana" font-size="8" text-anchor="middle"  dominant-baseline="middle" fill="black" > 14</text>
</svg>
