<?xml version="1.0" encoding="utf-8"?>
<svg xmlns="http://www.w3.org/2000/svg" version="1.1" width="1950" height="750">
<rect width="1950" height="15" x="0" y="0" fill="white" />
<rect width="1950" height="15" x="0" y="735" fill="white" />
<rect width="25" height="750" x="0" y="0" fill="white" />
<rect width="25" height="750" x="1925" y="0" fill="white" />
<rect width="1910" height="144" x="25" y="15" fill="ghostwhite" />
<rect width="1910" height="144" x="25" y="159" fill="snow" />
<rect width="1910" height="144" x="25" y="303" fill="ghostwhite" />
<rect width="1910" height="144" x="25" y="447" fill="snow" />
<rect width="1910" height="144" x="25" y="591" fill="ghostwhite" />
<text x="12" y="87" font-family="Verdana" font-size="10" text-anchor="middle"  dominant-baseline="middle" fill="red" > D0</text>
<text x="12" y="231" font-family="Verdana" font-size="10" text-anchor="middle"  dominant-baseline="middle" fill="red" > D1</text>
<text x="12" y="375" font-family="Verdana" font-size="10" text-anchor="middle"  dominant-baseline="middle" fill="red" > D2</text>
<text x="12" y="519" font-family="Verdana" font-size="10" text-anchor="middle"  dominant-baseline="middle" fill="red" > D3</text>
<text x="12" y="663" font-family="Verdana" font-size="10" text-anchor="middle"  dominant-baseline="middle" fill="red" > D4</text>
<text x="12" y="20" font-family="Verdana" font-size="10" text-anchor="middle"  dominant-baseline="middle" fill="black" > 0</text>
<text x="12" y="164" font-family="Verdana" font-size="10" text-anchor="middle"  dominant-baseline="middle" fill="black" > 144</text>
<text x="12" y="308" font-family="Verdana" font-size="10" text-anchor="middle"  dominant-baseline="middle" fill="black" > 288</text>
<text x="12" y="452" font-family="Verdana" font-size="10" text-anchor="middle"  dominant-baseline="middle" fill="black" > 432</text>
<text x="12" y="596" font-family="Verdana" font-size="10" text-anchor="middle"  dominant-baseline="middle" fill="black" > 576</text>
<text x="12" y="740" font-family="Verdana" font-size="10" text-anchor="middle"  dominant-baseline="middle" fill="black" > 720</text>
<text x="100" y="7" font-family="Verdana" font-size="7" text-anchor="middle"  dominant-baseline="middle" fill="black" > C1</text>
<circle cx="100" cy="15" r="4" fill="white" stroke="black" />
<line x1="100" y1="19" x2="100" y2="203" stroke="black" />
<line x1="50" y1="203" x2="150" y2="203" stroke="black" />
<text x="125" y="195" font-family="Verdana" font-size="8" text-anchor="middle"  dominant-baseline="middle" fill="black" > 188</text>
<circle cx="50" cy="203" r="4" fill="white" stroke="black" />
<line x1="50" y1="207" x2="50" y2="293" stroke="black" />
<line x1="46" y1="297" x2="50" y2="289" stroke="blue" />
<line x1="50" y1="297" x2="54" y2="289" stroke="blue" />
<text x="50" y="305" font-family="Verdana" font-size="8" text-anchor="middle"  dominant-baseline="middle" fill="black" > 278</text>
<circle cx="150" cy="203" r="4" fill="white" stroke="black" />
<line x1="150" y1="207" x2="150" y2="405" stroke="black" />
<line x1="146" y1="401" x2="154" y2="409" stroke="red" />
<line x1="146" y1="409" x2="154" y2="401" stroke="red" />
<text x="150" y="417" font-family="Verdana" font-size="8" text-anchor="middle"  dominant-baseline="middle" fill="black" > 390</text>
<text x="300" y="7" font-family="Verdana" font-size="7" text-anchor="middle"  dominant-baseline="middle" fill="black" > C2</text>
<circle cx="300" cy="15" r="4" fill="white" stroke="black" />
<line x1="300" y1="19" x2="300" y2="51" stroke="black" />
<line x1="250" y1="51" x2="350" y2="51" stroke="black" />
<text x="325" y="43" font-family="Verdana" font-size="8" text-anchor="middle"  dominant-baseline="middle" fill="black" > 36</text>
<circle cx="250" cy="51" r="4" fill="white" stroke="black" />
<line x1="250" y1="55" x2="250" y2="341" stroke="black" />
<line x1="225" y1="341" x2="275" y2="341" stroke="black" />
<text x="262" y="333" font-family="Verdana" font-size="8" text-anchor="middle"  dominant-baseline="middle" fill="black" > 326</text>
<circle cx="225" cy="341" r="4" fill="white" stroke="black" />
<line x1="225" y1="345" x2="225" y2="447" stroke="black" />
<circle cx="225" cy="447" r="4" fill="white" stroke="black" />
<text x="225" y="459" font-family="Verdana" font-size="8" text-anchor="middle"  dominant-baseline="middle" fill="black" > 432</text>
<circle cx="275" cy="341" r="4" fill="white" stroke="black" />
<line x1="275" y1="345" x2="275" y2="447" stroke="black" />
<circle cx="275" cy="447" r="4" fill="white" stroke="black" />
<text x="275" y="459" font-family="Verdana" font-size="8" text-anchor="middle"  dominant-baseline="middle" fill="black" > 432</text>
<circle cx="350" cy="51" r="4" fill="white" stroke="black" />
<line x1="350" y1="55" x2="350" y2="257" stroke="black" />
<line x1="325" y1="257" x2="375" y2="257" stroke="black" />
<text x="362" y="249" font-family="Verdana" font-size="8" text-anchor="middle"  dominant-baseline="middle" fill="black" > 242</text>
<circle cx="325" cy="257" r="4" fill="white" stroke="black" />
<line x1="325" y1="261" x2="325" y2="447" stroke="black" />
<circle cx="325" cy="447" r="4" fill="white" stroke="black" />
<text x="325" y="459" font-family="Verdana" font-size="8" text-anchor="middle"  dominant-baseline="middle" fill="black" > 432</text>
<circle cx="375" cy="257" r="4" fill="white" stroke="black" />
<line x1="375" y1="261" x2="375" y2="447" stroke="black" />
<circle cx="375" cy="447" r="4" fill="white" stroke="black" />
<text x="375" y="459" font-family="Verdana" font-size="8" text-anchor="middle"  dominant-baseline="middle" fill="black" > 432</text>
<text x="550" y="7" font-family="Verdana" font-size="7" text-anchor="middle"  dominant-baseline="middle" fill="black" > C3</text>
<circle cx="550" cy="15" r="4" fill="white" stroke="black" />
<line x1="550" y1="19" x2="550" y2="216" stroke="black" />
<line x1="450" y1="216" x2="650" y2="216" stroke="black" />
<text x="575" y="208" font-family="Verdana" font-size="8" text-anchor="middle"  dominant-baseline="middle" fill="black" > 201</text>
<circle cx="450" cy="216" r="4" fill="white" stroke="black" />
<line x1="450" y1="220" x2="450" y2="431" stroke="black" />
<line x1="446" y1="427" x2="454" y2="435" stroke="red" />
<line x1="446" y1="435" x2="454" y2="427" stroke="red" />
<text x="450" y="443" font-family="Verdana" font-size="8" text-anchor="middle"  dominant-baseline="middle" fill="black" > 416</text>
<circle cx="550" cy="216" r="4" fill="white" stroke="black" />
<line x1="550" y1="220" x2="550" y2="431" stroke="black" />
<line x1="546" y1="427" x2="554" y2="435" stroke="red" />
<line x1="546" y1="435" x2="554" y2="427" stroke="red" />
<text x="550" y="443" font-family="Verdana" font-size="8" text-anchor="middle"  dominant-baseline="middle" fill="black" > 416</text>
<circle cx="650" cy="216" r="4" fill="white" stroke="black" />
<line x1="650" y1="220" x2="650" y2="447" stroke="black" />
<circle cx="650" cy="447" r="4" fill="white" stroke="black" />
<text x="650" y="459" font-family="Verdana" font-size="8" text-anchor="middle"  dominant-baseline="middle" fill="black" > 432</text>
<text x="800" y="7" font-family="Verdana" font-size="7" text-anchor="middle"  dominant-baseline="middle" fill="black" > C4</text>
<circle cx="800" cy="15" r="4" fill="white" stroke="black" />
<line x1="800" y1="19" x2="800" y2="77" stroke="black" />
<line x1="750" y1="77" x2="850" y2="77" stroke="black" />
<text x="825" y="69" font-family="Verdana" font-size="8" text-anchor="middle"  dominant-baseline="middle" fill="black" > 62</text>
<circle cx="750" cy="77" r="4" fill="white" stroke="black" />
<line x1="750" y1="81" x2="750" y2="447" stroke="black" />
<circle cx="750" cy="447" r="4" fill="white" stroke="black" />
<text x="750" y="459" font-family="Verdana" font-size="8" text-anchor="middle"  dominant-baseline="middle" fill="black" > 432</text>
<circle cx="850" cy="77" r="4" fill="white" stroke="black" />
<line x1="850" y1="81" x2="850" y2="447" stroke="black" />
<circle cx="850" cy="447" r="4" fill="white" stroke="black" />
<text x="850" y="459" font-family="Verdana" font-size="8" text-anchor="middle"  dominant-baseline="middle" fill="black" > 432</text>
<text x="1000" y="7" font-family="Verdana" font-size="7" text-anchor="middle"  dominant-baseline="middle" fill="black" > C5</text>
<circle cx="1000" cy="15" r="4" fill="white" stroke="black" />
<line x1="1000" y1="19" x2="1000" y2="32" stroke="black" />
<line x1="950" y1="32" x2="1050" y2="32" stroke="black" />
<text x="1025" y="24" font-family="Verdana" font-size="8" text-anchor="middle"  dominant-baseline="middle" fill="black" > 17</text>
<circle cx="950" cy="32" r="4" fill="white" stroke="black" />
<line x1="950" y1="36" x2="950" y2="384" stroke="black" />
<line x1="925" y1="384" x2="975" y2="384" stroke="black" />
<text x="962" y="376" font-family="Verdana" font-size="8" text-anchor="middle"  dominant-baseline="middle" fill="black" > 369</text>
<circle cx="925" cy="384" r="4" fill="white" stroke="black" />
<line x1="925" y1="388" x2="925" y2="447" stroke="black" />
<circle cx="925" cy="447" r="4" fill="white" stroke="black" />
<text x="925" y="459" font-family="Verdana" font-size="8" text-anchor="middle"  dominant-baseline="middle" fill="black" > 432</text>
<circle cx="975" cy="384" r="4" fill="white" stroke="black" />
<line x1="975" y1="388" x2="975" y2="447" stroke="black" />
<circle cx="975" cy="447" r="4" fill="white" stroke="black" />
<text x="975" y="459" font-family="Verdana" font-size="8" text-anchor="middle"  dominant-baseline="middle" fill="black" > 432</text>
<circle cx="1050" cy="32" r="4" fill="white" stroke="black" />
<line x1="1050" y1="36" x2="1050" y2="333" stroke="black" />
<line x1="1025" y1="333" x2="1075" y2="333" stroke="black" />
<text x="1062" y="325" font-family="Verdana" font-size="8" text-anchor="middle"  dominant-baseline="middle" fill="black" > 318</text>
<circle cx="1025" cy="333" r="4" fill="white" stroke="black" />
<line x1="1025" y1="337" x2="1025" y2="447" stroke="black" />
<circle cx="1025" cy="447" r="4" fill="white" stroke="black" />
<text x="1025" y="459" font-family="Verdana" font-size="8" text-anchor="middle"  dominant-baseline="middle" fill="black" > 432</text>
<circle cx="1075" cy="333" r="4" fill="white" stroke="black" />
<line x1="1075" y1="337" x2="1075" y2="447" stroke="black" />
<circle cx="1075" cy="447" r="4" fill="white" stroke="black" />
<text x="1075" y="459" font-family="Verdana" font-size="8" text-anchor="middle"  dominant-baseline="middle" fill="black" > 432</text>
<text x="1200" y="7" font-family="Verdana" font-size="7" text-anchor="middle"  dominant-baseline="middle" fill="black" > C6</text>
<circle cx="1200" cy="15" r="4" fill="white" stroke="black" />
<line x1="1200" y1="19" x2="1200" y2="173" stroke="black" />
<line x1="1150" y1="173" x2="1250" y2="173" stroke="black" />
<text x="1225" y="165" font-family="Verdana" font-size="8" text-anchor="middle"  dominant-baseline="middle" fill="black" > 158</text>
<circle cx="1150" cy="173" r="4" fill="white" stroke="black" />
<line x1="1150" y1="177" x2="1150" y2="354" stroke="black" />
<line x1="1125" y1="354" x2="1175" y2="354" stroke="black" />
<text x="1162" y="346" font-family="Verdana" font-size="8" text-anchor="middle"  dominant-baseline="middle" fill="black" > 339</text>
<circle cx="1125" cy="354" r="4" fill="white" stroke="black" />
<line x1="1125" y1="358" x2="1125" y2="447" stroke="black" />
<circle cx="1125" cy="447" r="4" fill="white" stroke="black" />
<text x="1125" y="459" font-family="Verdana" font-size="8" text-anchor="middle"  dominant-baseline="middle" fill="black" > 432</text>
<circle cx="1175" cy="354" r="4" fill="white" stroke="black" />
<line x1="1175" y1="358" x2="1175" y2="447" stroke="black" />
<circle cx="1175" cy="447" r="4" fill="white" stroke="black" />
<text x="1175" y="459" font-family="Verdana" font-size="8" text-anchor="middle"  dominant-baseline="middle" fill="black" > 432</text>
<circle cx="1250" cy="173" r="4" fill="white" stroke="black" />
<line x1="1250" y1="177" x2="1250" y2="324" stroke="black" />
<line x1="1225" y1="324" x2="1275" y2="324" stroke="black" />
<text x="1262" y="316" font-family="Verdana" font-size="8" text-anchor="middle"  dominant-baseline="middle" fill="black" > 309</text>
<circle cx="1225" cy="324" r="4" fill="white" stroke="black" />
<line x1="1225" y1="328" x2="1225" y2="447" stroke="black" />
<circle cx="1225" cy="447" r="4" fill="white" stroke="black" />
<text x="1225" y="459" font-family="Verdana" font-size="8" text-anchor="middle"  dominant-baseline="middle" fill="black" > 432</text>
<circle cx="1275" cy="324" r="4" fill="white" stroke="black" />
<line x1="1275" y1="328" x2="1275" y2="447" stroke="black" />
<circle cx="1275" cy="447" r="4" fill="white" stroke="black" />
<text x="1275" y="459" font-family="Verdana" font-size="8" text-anchor="middle"  dominant-baseline="middle" fill="black" > 432</text>
<text x="1400" y="7" font-family="Verdana" font-size="7" text-anchor="middle"  dominant-baseline="middle" fill="black" > C7</text>
<circle cx="1400" cy="15" r="4" fill="white" stroke="black" />
<line x1="1400" y1="19" x2="1400" y2="172" stroke="black" />
<line x1="1350" y1="172" x2="1450" y2="172" stroke="black" />
<text x="1425" y="164" font-family="Verdana" font-size="8" text-anchor="middle"  dominant-baseline="middle" fill="black" > 157</text>
<circle cx="1350" cy="172" r="4" fill="white" stroke="black" />
<line x1="1350" y1="176" x2="1350" y2="447" stroke="black" />
<circle cx="1350" cy="447" r="4" fill="white" stroke="black" />
<text x="1350" y="459" font-family="Verdana" font-size="8" text-anchor="middle"  dominant-baseline="middle" fill="black" > 432</text>
<circle cx="1450" cy="172" r="4" fill="white" stroke="black" />
<line x1="1450" y1="176" x2="1450" y2="328" stroke="black" />
<line x1="1425" y1="328" x2="1475" y2="328" stroke="black" />
<text x="1462" y="320" font-family="Verdana" font-size="8" text-anchor="middle"  dominant-baseline="middle" fill="black" > 313</text>
<circle cx="1425" cy="328" r="4" fill="white" stroke="black" />
<line x1="1425" y1="332" x2="1425" y2="447" stroke="black" />
<circle cx="1425" cy="447" r="4" fill="white" stroke="black" />
<text x="1425" y="459" font-family="Verdana" font-size="8" text-anchor="middle"  dominant-baseline="middle" fill="black" > 432</text>
<circle cx="1475" cy="328" r="4" fill="white" stroke="black" />
<line x1="1475" y1="332" x2="1475" y2="447" stroke="black" />
<circle cx="1475" cy="447" r="4" fill="white" stroke="black" />
<text x="1475" y="459" font-family="Verdana" font-size="8" text-anchor="middle"  dominant-baseline="middle" fill="black" > 432</text>
<text x="1600" y="7" font-family="Verdana" font-size="7" text-anchor="middle"  dominant-baseline="middle" fill="black" > C8</text>
<circle cx="1600" cy="15" r="4" fill="white" stroke="black" />
<line x1="1600" y1="19" x2="1600" y2="89" stroke="black" />
<line x1="1550" y1="89" x2="1650" y2="89" stroke="black" />
<text x="1625" y="81" font-family="Verdana" font-size="8" text-anchor="middle"  dominant-baseline="middle" fill="black" > 74</text>
<circle cx="1550" cy="89" r="4" fill="white" stroke="black" />
<line x1="1550" y1="93" x2="1550" y2="329" stroke="black" />
<line x1="1525" y1="329" x2="1575" y2="329" stroke="black" />
<text x="1562" y="321" font-family="Verdana" font-size="8" text-anchor="middle"  dominant-baseline="middle" fill="black" > 314</text>
<circle cx="1525" cy="329" r="4" fill="white" stroke="black" />
<line x1="1525" y1="333" x2="1525" y2="447" stroke="black" />
<circle cx="1525" cy="447" r="4" fill="white" stroke="black" />
<text x="1525" y="459" font-family="Verdana" font-size="8" text-anchor="middle"  dominant-baseline="middle" fill="black" > 432</text>
<circle cx="1575" cy="329" r="4" fill="white" stroke="black" />
<line x1="1575" y1="333" x2="1575" y2="447" stroke="black" />
<circle cx="1575" cy="447" r="4" fill="white" stroke="black" />
<text x="1575" y="459" font-family="Verdana" font-size="8" text-anchor="middle"  dominant-baseline="middle" fill="black" > 432</text>
<circle cx="1650" cy="89" r="4" fill="white" stroke="black" />
<line x1="1650" y1="93" x2="1650" y2="447" stroke="black" />
<circle cx="1650" cy="447" r="4" fill="white" stroke="black" />
<text x="1650" y="459" font-family="Verdana" font-size="8" text-anchor="middle"  dominant-baseline="middle" fill="black" > 432</text>
<text x="1800" y="7" font-family="Verdana" font-size="7" text-anchor="middle"  dominant-baseline="middle" fill="black" > C9</text>
<circle cx="1800" cy="15" r="4" fill="white" stroke="black" />
<line x1="1800" y1="19" x2="1800" y2="107" stroke="black" />
<line x1="1750" y1="107" x2="1850" y2="107" stroke="black" />
<text x="1825" y="99" font-family="Verdana" font-size="8" text-anchor="middle"  dominant-baseline="middle" fill="black" > 92</text>
<circle cx="1750" cy="107" r="4" fill="white" stroke="black" />
<line x1="1750" y1="111" x2="1750" y2="447" stroke="black" />
<circle cx="1750" cy="447" r="4" fill="white" stroke="black" />
<text x="1750" y="459" font-family="Verdana" font-size="8" text-anchor="middle"  dominant-baseline="middle" fill="black" > 432</text>
<circle cx="1850" cy="107" r="4" fill="white" stroke="black" />
<line x1="1850" y1="111" x2="1850" y2="343" stroke="black" />
<line x1="1825" y1="343" x2="1875" y2="343" stroke="black" />
<text x="1862" y="335" font-family="Verdana" font-size="8" text-anchor="middle"  dominant-baseline="middle" fill="black" > 328</text>
<circle cx="1825" cy="343" r="4" fill="white" stroke="black" />
<line x1="1825" y1="347" x2="1825" y2="447" stroke="black" />
<circle cx="1825" cy="447" r="4" fill="white" stroke="black" />
<text x="1825" y="459" font-family="Verdana" font-size="8" text-anchor="middle"  dominant-baseline="middle" fill="black" > 432</text>
<circle cx="1875" cy="343" r="4" fill="white" stroke="black" />
<line x1="1875" y1="347" x2="1875" y2="447" stroke="black" />
<circle cx="1875" cy="447" r="4" fill="white" stroke="black" />
<text x="1875" y="459" font-family="Verdana" font-size="8" text-anchor="middle"  dominant-baseline="middle" fill="black" > 432</text>
</svg>
