<?xml version="1.0" encoding="utf-8"?>
<svg xmlns="http://www.w3.org/2000/svg" version="1.1" width="1650" height="750">
<rect width="1650" height="15" x="0" y="0" fill="white" />
<rect width="1650" height="15" x="0" y="735" fill="white" />
<rect width="25" height="750" x="0" y="0" fill="white" />
<rect width="25" height="750" x="1625" y="0" fill="white" />
<rect width="1610" height="144" x="25" y="15" fill="ghostwhite" />
<rect width="1610" height="144" x="25" y="159" fill="snow" />
<rect width="1610" height="144" x="25" y="303" fill="ghostwhite" />
<rect width="1610" height="144" x="25" y="447" fill="snow" />
<rect width="1610" height="144" x="25" y="591" fill="ghostwhite" />
<text x="12" y="87" font-family="Verdana" font-size="10" text-anchor="middle"  dominant-baseline="middle" fill="red" > D0</text>
<text x="12" y="231" font-family="Verdana" font-size="10" text-anchor="middle"  dominant-baseline="middle" fill="red" > D1</text>
<text x="12" y="375" font-family="Verdana" font-size="10" text-anchor="middle"  dominant-baseline="middle" fill="red" > D2</text>
<text x="12" y="519" font-family="Verdana" font-size="10" text-anchor="middle"  dominant-baseline="middle" fill="red" > D3</text>
<text x="12" y="663" font-family="Verdana" font-size="10" text-anchor="middle"  dominant-baseline="middle" fill="red" > D4</text>
<text x="12" y="20" font-family="Verdana" font-size="10" text-anchor="middle"  dominant-baseline="middle" fill="black" > 0</text>
<text x="12" y="164" font-family="Verdana" font-size="10" text-anchor="middle"  dominant-baseline="middle" fill="black" > 144</text>
<text x="12" y="308" font-family="Verdana" font-size="10" text-anchor="middle"  dominant-baseline="middle" fill="black" > 288</text>
<text x="12" y="452" font-family="Verdana" font-size="10" text-anchor="middle"  dominant-baseline="middle" fill="black" > 432</text>
<text x="12" y="596" font-family="Verdana" font-size="10" text-anchor="middle"  dominant-baseline="middle" fill="black" > 576</text>
<text x="12" y="740" font-family="Verdana" font-size="10" text-anchor="middle"  dominant-baseline="middle" fill="black" > 720</text>
<text x="100" y="7" font-family="Verdana" font-size="7" text-anchor="middle"  dominant-baseline="middle" fill="black" > C1</text>
<circle cx="100" cy="15" r="4" fill="white" stroke="black" />
<line x1="100" y1="19" x2="100" y2="208" stroke="black" />
<line x1="50" y1="208" x2="150" y2="208" stroke="black" />
<text x="125" y="200" font-family="Verdana" font-size="8" text-anchor="middle"  dominant-baseline="middle" fill="black" > 193</text>
<circle cx="50" cy="208" r="4" fill="white" stroke="black" />
<line x1="50" y1="212" x2="50" y2="447" stroke="black" />
<circle cx="50" cy="447" r="4" fill="white" stroke="black" />
<text x="50" y="459" font-family="Verdana" font-size="8" text-anchor="middle"  dominant-baseline="middle" fill="black" > 432</text>
<circle cx="150" cy="208" r="4" fill="white" stroke="black" />
<line x1="150" y1="212" x2="150" y2="447" stroke="black" />
<circle cx="150" cy="447" r="4" fill="white" stroke="black" />
<text x="150" y="459" font-family="Verdana" font-size="8" text-anchor="middle"  dominant-baseline="middle" fill="black" > 432</text>
<text x="300" y="7" font-family="Verdana" font-size="7" text-anchor="middle"  dominant-baseline="middle" fill="black" > C2</text>
<circle cx="300" cy="15" r="4" fill="white" stroke="black" />
<line x1="300" y1="19" x2="300" y2="191" stroke="black" />
<line x1="250" y1="191" x2="350" y2="191" stroke="black" />
<text x="325" y="183" font-family="Verdana" font-size="8" text-anchor="middle"  dominant-baseline="middle" fill="black" > 176</text>
<circle cx="250" cy="191" r="4" fill="white" stroke="black" />
<line x1="250" y1="195" x2="250" y2="447" stroke="black" />
<circle cx="250" cy="447" r="4" fill="white" stroke="black" />
<text x="250" y="459" font-family="Verdana" font-size="8" text-anchor="middle"  dominant-baseline="middle" fill="black" > 432</text>
<circle cx="350" cy="191" r="4" fill="white" stroke="black" />
<line x1="350" y1="195" x2="350" y2="447" stroke="black" />
<circle cx="350" cy="447" r="4" fill="white" stroke="black" />
<text x="350" y="459" font-family="Verdana" font-size="8" text-anchor="middle"  dominant-baseline="middle" fill="black" > 432</text>
<text x="500" y="7" font-family="Verdana" font-size="7" text-anchor="middle"  dominant-baseline="middle" fill="black" > C3</text>
<circle cx="500" cy="15" r="4" fill="white" stroke="black" />
<line x1="500" y1="19" x2="500" y2="158" stroke="black" />
<line x1="450" y1="158" x2="550" y2="158" stroke="black" />
<text x="525" y="150" font-family="Verdana" font-size="8" text-anchor="middle"  dominant-baseline="middle" fill="black" > 143</text>
<circle cx="450" cy="158" r="4" fill="white" stroke="black" />
<line x1="450" y1="162" x2="450" y2="447" stroke="black" />
<circle cx="450" cy="447" r="4" fill="white" stroke="black" />
<text x="450" y="459" font-family="Verdana" font-size="8" text-anchor="middle"  dominant-baseline="middle" fill="black" > 432</text>
<circle cx="550" cy="158" r="4" fill="white" stroke="black" />
<line x1="550" y1="162" x2="550" y2="447" stroke="black" />
<circle cx="550" cy="447" r="4" fill="white" stroke="black" />
<text x="550" y="459" font-family="Verdana" font-size="8" text-anchor="middle"  dominant-baseline="middle" fill="black" > 432</text>
<text x="700" y="7" font-family="Verdana" font-size="7" text-anchor="middle"  dominant-baseline="middle" fill="black" > C4</text>
<circle cx="700" cy="15" r="4" fill="white" stroke="black" />
<line x1="700" y1="19" x2="700" y2="132" stroke="black" />
<line x1="650" y1="132" x2="750" y2="132" stroke="black" />
<text x="725" y="124" font-family="Verdana" font-size="8" text-anchor="middle"  dominant-baseline="middle" fill="black" > 117</text>
<circle cx="650" cy="132" r="4" fill="white" stroke="black" />
<line x1="650" y1="136" x2="650" y2="447" stroke="black" />
<circle cx="650" cy="447" r="4" fill="white" stroke="black" />
<text x="650" y="459" font-family="Verdana" font-size="8" text-anchor="middle"  dominant-baseline="middle" fill="black" > 432</text>
<circle cx="750" cy="132" r="4" fill="white" stroke="black" />
<line x1="750" y1="136" x2="750" y2="401" stroke="black" />
<line x1="725" y1="401" x2="775" y2="401" stroke="black" />
<text x="762" y="393" font-family="Verdana" font-size="8" text-anchor="middle"  dominant-baseline="middle" fill="black" > 386</text>
<circle cx="725" cy="401" r="4" fill="white" stroke="black" />
<line x1="725" y1="405" x2="725" y2="447" stroke="black" />
<circle cx="725" cy="447" r="4" fill="white" stroke="black" />
<text x="725" y="459" font-family="Verdana" font-size="8" text-anchor="middle"  dominant-baseline="middle" fill="black" > 432</text>
<circle cx="775" cy="401" r="4" fill="white" stroke="black" />
<line x1="775" y1="405" x2="775" y2="447" stroke="black" />
<circle cx="775" cy="447" r="4" fill="white" stroke="black" />
<text x="775" y="459" font-family="Verdana" font-size="8" text-anchor="middle"  dominant-baseline="middle" fill="black" > 432</text>
<text x="900" y="7" font-family="Verdana" font-size="7" text-anchor="middle"  dominant-baseline="middle" fill="black" > C5</text>
<circle cx="900" cy="15" r="4" fill="white" stroke="black" />
<line x1="900" y1="19" x2="900" y2="59" stroke="black" />
<line x1="850" y1="59" x2="950" y2="59" stroke="black" />
<text x="925" y="51" font-family="Verdana" font-size="8" text-anchor="middle"  dominant-baseline="middle" fill="black" > 44</text>
<circle cx="850" cy="59" r="4" fill="white" stroke="black" />
<line x1="850" y1="63" x2="850" y2="447" stroke="black" />
<circle cx="850" cy="447" r="4" fill="white" stroke="black" />
<text x="850" y="459" font-family="Verdana" font-size="8" text-anchor="middle"  dominant-baseline="middle" fill="black" > 432</text>
<circle cx="950" cy="59" r="4" fill="white" stroke="black" />
<line x1="950" y1="63" x2="950" y2="106" stroke="black" />
<line x1="946" y1="110" x2="950" y2="102" stroke="blue" />
<line x1="950" y1="110" x2="954" y2="102" stroke="blue" />
<text x="950" y="118" font-family="Verdana" font-size="8" text-anchor="middle"  dominant-baseline="middle" fill="black" > 91</text>
<text x="1100" y="7" font-family="Verdana" font-size="7" text-anchor="middle"  dominant-baseline="middle" fill="black" > C6</text>
<circle cx="1100" cy="15" r="4" fill="white" stroke="black" />
<line x1="1100" y1="19" x2="1100" y2="194" stroke="black" />
<line x1="1050" y1="194" x2="1150" y2="194" stroke="black" />
<text x="1125" y="186" font-family="Verdana" font-size="8" text-anchor="middle"  dominant-baseline="middle" fill="black" > 179</text>
<circle cx="1050" cy="194" r="4" fill="white" stroke="black" />
<line x1="1050" y1="198" x2="1050" y2="447" stroke="black" />
<circle cx="1050" cy="447" r="4" fill="white" stroke="black" />
<text x="1050" y="459" font-family="Verdana" font-size="8" text-anchor="middle"  dominant-baseline="middle" fill="black" > 432</text>
<circle cx="1150" cy="194" r="4" fill="white" stroke="black" />
<line x1="1150" y1="198" x2="1150" y2="447" stroke="black" />
<circle cx="1150" cy="447" r="4" fill="white" stroke="black" />
<text x="1150" y="459" font-family="Verdana" font-size="8" text-anchor="middle"  dominant-baseline="middle" fill="black" > 432</text>
<text x="1300" y="7" font-family="Verdana" font-size="7" text-anchor="middle"  dominant-baseline="middle" fill="black" > C7</text>
<circle cx="1300" cy="15" r="4" fill="white" stroke="black" />
<line x1="1300" y1="19" x2="1300" y2="44" stroke="black" />
<line x1="1250" y1="44" x2="1350" y2="44" stroke="black" />
<text x="1325" y="36" font-family="Verdana" font-size="8" text-anchor="middle"  dominant-baseline="middle" fill="black" > 29</text>
<circle cx="1250" cy="44" r="4" fill="white" stroke="black" />
<line x1="1250" y1="48" x2="1250" y2="447" stroke="black" />
<circle cx="1250" cy="447" r="4" fill="white" stroke="black" />
<text x="1250" y="459" font-family="Verdana" font-size="8" text-anchor="middle"  dominant-baseline="middle" fill="black" > 432</text>
<circle cx="1350" cy="44" r="4" fill="white" stroke="black" />
<line x1="1350" y1="48" x2="1350" y2="447" stroke="black" />
<circle cx="1350" cy="447" r="4" fill="white" stroke="black" />
<text x="1350" y="459" font-family="Verdana" font-size="8" text-anchor="middle"  dominant-baseline="middle" fill="black" > 432</text>
<text x="1500" y="7" font-family="Verdana" font-size="7" text-anchor="middle"  dominant-baseline="middle" fill="black" > C8</text>
<circle cx="1500" cy="15" r="4" fill="white" stroke="black" />
<line x1="1500" y1="19" x2="1500" y2="223" stroke="black" />
<line x1="1450" y1="223" x2="1550" y2="223" stroke="black" />
<text x="1525" y="215" font-family="Verdana" font-size="8" text-anchor="middle"  dominant-baseline="middle" fill="black" > 208</text>
<circle cx="1450" cy="223" r="4" fill="white" stroke="black" />
<line x1="1450" y1="227" x2="1450" y2="447" stroke="black" />
<circle cx="1450" cy="447" r="4" fill="white" stroke="black" />
<text x="1450" y="459" font-family="Verdana" font-size="8" text-anchor="middle"  dominant-baseline="middle" fill="black" > 432</text>
<circle cx="1550" cy="223" r="4" fill="white" stroke="black" />
<line x1="1550" y1="227" x2="1550" y2="447" stroke="black" />
<circle cx="1550" cy="447" r="4" fill="white" stroke="black" />
<text x="1550" y="459" font-family="Verdana" font-size="8" text-anchor="middle"  dominant-baseline="middle" fill="black" > 432</text>
</svg>
