<?xml version="1.0" encoding="utf-8"?>
<svg xmlns="http://www.w3.org/2000/svg" version="1.1" width="4750" height="750">
<rect width="4750" height="15" x="0" y="0" fill="white" />
<rect width="4750" height="15" x="0" y="735" fill="white" />
<rect width="25" height="750" x="0" y="0" fill="white" />
<rect width="25" height="750" x="4725" y="0" fill="white" />
<rect width="4710" height="144" x="25" y="15" fill="lavender" />
<rect width="4710" height="144" x="25" y="159" fill="lavenderblush" />
<rect width="4710" height="144" x="25" y="303" fill="lavender" />
<rect width="4710" height="144" x="25" y="447" fill="lavenderblush" />
<rect width="4710" height="144" x="25" y="591" fill="lavender" />
<text x="12" y="87" font-family="Verdana" font-size="10" text-anchor="middle"  dominant-baseline="middle" fill="red" > D0</text>
<text x="12" y="231" font-family="Verdana" font-size="10" text-anchor="middle"  dominant-baseline="middle" fill="red" > D1</text>
<text x="12" y="375" font-family="Verdana" font-size="10" text-anchor="middle"  dominant-baseline="middle" fill="red" > D2</text>
<text x="12" y="519" font-family="Verdana" font-size="10" text-anchor="middle"  dominant-baseline="middle" fill="red" > D3</text>
<text x="12" y="663" font-family="Verdana" font-size="10" text-anchor="middle"  dominant-baseline="middle" fill="red" > D4</text>
<text x="12" y="20" font-family="Verdana" font-size="10" text-anchor="middle"  dominant-baseline="middle" fill="black" > 0</text>
<text x="12" y="164" font-family="Verdana" font-size="10" text-anchor="middle"  dominant-baseline="middle" fill="black" > 144</text>
<text x="12" y="308" font-family="Verdana" font-size="10" text-anchor="middle"  dominant-baseline="middle" fill="black" > 288</text>
<text x="12" y="452" font-family="Verdana" font-size="10" text-anchor="middle"  dominant-baseline="middle" fill="black" > 432</text>
<text x="12" y="596" font-family="Verdana" font-size="10" text-anchor="middle"  dominant-baseline="middle" fill="black" > 576</text>
<text x="12" y="740" font-family="Verdana" font-size="10" text-anchor="middle"  dominant-baseline="middle" fill="black" > 720</text>
<text x="100" y="7" font-family="Verdana" font-size="7" text-anchor="middle"  dominant-baseline="middle" fill="black" > C1</text>
<circle cx="100" cy="15" r="4" fill="white" stroke="black" />
<line x1="100" y1="19" x2="100" y2="312" stroke="black" />
<line x1="50" y1="312" x2="150" y2="312" stroke="black" />
<text x="125" y="304" font-family="Verdana" font-size="8" text-anchor="middle"  dominant-baseline="middle" fill="black" > 297</text>
<circle cx="50" cy="312" r="4" fill="white" stroke="black" />
<circle cx="150" cy="312" r="4" fill="white" stroke="black" />
<line x1="50" y1="316" x2="50" y2="630" stroke="black" />
<line x1="50" y1="630" x2="100" y2="735" stroke="black" />
<line x1="150" y1="316" x2="150" y2="630" stroke="black" />
<line x1="150" y1="630" x2="100" y2="735" stroke="black" />
<text x="100" y="723" font-family="Verdana" font-size="8" text-anchor="middle"  dominant-baseline="middle" fill="black" > 720</text>
<circle cx="100" cy="735" r="4" fill="white" stroke="black" />
<line x1="100" y1="739" x2="100" y2="736" stroke="black" />
<circle cx="100" cy="736" r="4" fill="white" stroke="black" />
<text x="100" y="748" font-family="Verdana" font-size="8" text-anchor="middle"  dominant-baseline="middle" fill="black" > 721</text>
<text x="350" y="7" font-family="Verdana" font-size="7" text-anchor="middle"  dominant-baseline="middle" fill="black" > C2</text>
<circle cx="350" cy="15" r="4" fill="white" stroke="black" />
<line x1="350" y1="19" x2="350" y2="613" stroke="black" />
<line x1="250" y1="613" x2="450" y2="613" stroke="black" />
<text x="375" y="605" font-family="Verdana" font-size="8" text-anchor="middle"  dominant-baseline="middle" fill="black" > 598</text>
<circle cx="250" cy="613" r="4" fill="white" stroke="black" />
<line x1="250" y1="617" x2="250" y2="630" stroke="black" />
<line x1="246" y1="626" x2="254" y2="634" stroke="red" />
<line x1="246" y1="634" x2="254" y2="626" stroke="red" />
<text x="250" y="642" font-family="Verdana" font-size="8" text-anchor="middle"  dominant-baseline="middle" fill="black" > 615</text>
<circle cx="350" cy="613" r="4" fill="white" stroke="black" />
<line x1="350" y1="617" x2="350" y2="675" stroke="black" />
<line x1="346" y1="671" x2="354" y2="679" stroke="red" />
<line x1="346" y1="679" x2="354" y2="671" stroke="red" />
<text x="350" y="687" font-family="Verdana" font-size="8" text-anchor="middle"  dominant-baseline="middle" fill="black" > 660</text>
<circle cx="450" cy="613" r="4" fill="white" stroke="black" />
<line x1="450" y1="617" x2="450" y2="680" stroke="black" />
<line x1="446" y1="676" x2="454" y2="684" stroke="red" />
<line x1="446" y1="684" x2="454" y2="676" stroke="red" />
<text x="450" y="692" font-family="Verdana" font-size="8" text-anchor="middle"  dominant-baseline="middle" fill="black" > 665</text>
<text x="550" y="7" font-family="Verdana" font-size="7" text-anchor="middle"  dominant-baseline="middle" fill="black" > C3</text>
<circle cx="550" cy="15" r="4" fill="white" stroke="black" />
<line x1="550" y1="19" x2="550" y2="486" stroke="black" />
<line x1="546" y1="482" x2="554" y2="490" stroke="red" />
<line x1="546" y1="490" x2="554" y2="482" stroke="red" />
<text x="550" y="498" font-family="Verdana" font-size="8" text-anchor="middle"  dominant-baseline="middle" fill="black" > 471</text>
<text x="750" y="7" font-family="Verdana" font-size="7" text-anchor="middle"  dominant-baseline="middle" fill="black" > C4</text>
<circle cx="750" cy="15" r="4" fill="white" stroke="black" />
<line x1="750" y1="19" x2="750" y2="279" stroke="black" />
<line x1="650" y1="279" x2="850" y2="279" stroke="black" />
<text x="775" y="271" font-family="Verdana" font-size="8" text-anchor="middle"  dominant-baseline="middle" fill="black" > 264</text>
<circle cx="650" cy="279" r="4" fill="white" stroke="black" />
<circle cx="750" cy="279" r="4" fill="white" stroke="black" />
<circle cx="850" cy="279" r="4" fill="white" stroke="black" />
<line x1="650" y1="283" x2="650" y2="284" stroke="black" />
<line x1="650" y1="284" x2="750" y2="285" stroke="black" />
<line x1="750" y1="283" x2="750" y2="284" stroke="black" />
<line x1="750" y1="284" x2="750" y2="285" stroke="black" />
<line x1="850" y1="283" x2="850" y2="284" stroke="black" />
<line x1="850" y1="284" x2="750" y2="285" stroke="black" />
<text x="750" y="273" font-family="Verdana" font-size="8" text-anchor="middle"  dominant-baseline="middle" fill="black" > 270</text>
<circle cx="750" cy="285" r="4" fill="white" stroke="black" />
<line x1="750" y1="289" x2="750" y2="391" stroke="black" />
<line x1="746" y1="387" x2="754" y2="395" stroke="red" />
<line x1="746" y1="395" x2="754" y2="387" stroke="red" />
<text x="750" y="403" font-family="Verdana" font-size="8" text-anchor="middle"  dominant-baseline="middle" fill="black" > 376</text>
<text x="1000" y="7" font-family="Verdana" font-size="7" text-anchor="middle"  dominant-baseline="middle" fill="black" > C5</text>
<circle cx="1000" cy="15" r="4" fill="white" stroke="black" />
<line x1="1000" y1="19" x2="1000" y2="336" stroke="black" />
<line x1="950" y1="336" x2="1050" y2="336" stroke="black" />
<text x="1025" y="328" font-family="Verdana" font-size="8" text-anchor="middle"  dominant-baseline="middle" fill="black" > 321</text>
<circle cx="950" cy="336" r="4" fill="white" stroke="black" />
<circle cx="1050" cy="336" r="4" fill="white" stroke="black" />
<line x1="950" y1="340" x2="950" y2="366" stroke="black" />
<line x1="950" y1="366" x2="1000" y2="375" stroke="black" />
<line x1="1050" y1="340" x2="1050" y2="366" stroke="black" />
<line x1="1050" y1="366" x2="1000" y2="375" stroke="black" />
<text x="1000" y="363" font-family="Verdana" font-size="8" text-anchor="middle"  dominant-baseline="middle" fill="black" > 360</text>
<circle cx="1000" cy="375" r="4" fill="white" stroke="black" />
<line x1="1000" y1="379" x2="1000" y2="471" stroke="black" />
<line x1="996" y1="467" x2="1004" y2="475" stroke="red" />
<line x1="996" y1="475" x2="1004" y2="467" stroke="red" />
<text x="1000" y="483" font-family="Verdana" font-size="8" text-anchor="middle"  dominant-baseline="middle" fill="black" > 456</text>
<text x="1300" y="7" font-family="Verdana" font-size="7" text-anchor="middle"  dominant-baseline="middle" fill="black" > C6</text>
<circle cx="1300" cy="15" r="4" fill="white" stroke="black" />
<line x1="1300" y1="19" x2="1300" y2="465" stroke="black" />
<line x1="1150" y1="465" x2="1450" y2="465" stroke="black" />
<text x="1325" y="457" font-family="Verdana" font-size="8" text-anchor="middle"  dominant-baseline="middle" fill="black" > 450</text>
<circle cx="1150" cy="465" r="4" fill="white" stroke="black" />
<line x1="1150" y1="469" x2="1150" y2="543" stroke="black" />
<line x1="1146" y1="539" x2="1154" y2="547" stroke="red" />
<line x1="1146" y1="547" x2="1154" y2="539" stroke="red" />
<text x="1150" y="555" font-family="Verdana" font-size="8" text-anchor="middle"  dominant-baseline="middle" fill="black" > 528</text>
<circle cx="1250" cy="465" r="4" fill="white" stroke="black" />
<circle cx="1350" cy="465" r="4" fill="white" stroke="black" />
<circle cx="1450" cy="465" r="4" fill="white" stroke="black" />
<line x1="1250" y1="469" x2="1250" y2="522" stroke="black" />
<line x1="1250" y1="522" x2="1350" y2="540" stroke="black" />
<line x1="1350" y1="469" x2="1350" y2="522" stroke="black" />
<line x1="1350" y1="522" x2="1350" y2="540" stroke="black" />
<line x1="1450" y1="469" x2="1450" y2="522" stroke="black" />
<line x1="1450" y1="522" x2="1350" y2="540" stroke="black" />
<text x="1350" y="528" font-family="Verdana" font-size="8" text-anchor="middle"  dominant-baseline="middle" fill="black" > 525</text>
<circle cx="1350" cy="540" r="4" fill="white" stroke="black" />
<line x1="1350" y1="544" x2="1350" y2="584" stroke="black" />
<line x1="1346" y1="580" x2="1354" y2="588" stroke="red" />
<line x1="1346" y1="588" x2="1354" y2="580" stroke="red" />
<text x="1350" y="596" font-family="Verdana" font-size="8" text-anchor="middle"  dominant-baseline="middle" fill="black" > 569</text>
<text x="1650" y="7" font-family="Verdana" font-size="7" text-anchor="middle"  dominant-baseline="middle" fill="black" > C7</text>
<circle cx="1650" cy="15" r="4" fill="white" stroke="black" />
<line x1="1650" y1="19" x2="1650" y2="488" stroke="black" />
<line x1="1550" y1="488" x2="1750" y2="488" stroke="black" />
<text x="1675" y="480" font-family="Verdana" font-size="8" text-anchor="middle"  dominant-baseline="middle" fill="black" > 473</text>
<circle cx="1550" cy="488" r="4" fill="white" stroke="black" />
<circle cx="1650" cy="488" r="4" fill="white" stroke="black" />
<circle cx="1750" cy="488" r="4" fill="white" stroke="black" />
<line x1="1550" y1="492" x2="1550" y2="505" stroke="black" />
<line x1="1550" y1="505" x2="1650" y2="510" stroke="black" />
<line x1="1650" y1="492" x2="1650" y2="505" stroke="black" />
<line x1="1650" y1="505" x2="1650" y2="510" stroke="black" />
<line x1="1750" y1="492" x2="1750" y2="505" stroke="black" />
<line x1="1750" y1="505" x2="1650" y2="510" stroke="black" />
<text x="1650" y="498" font-family="Verdana" font-size="8" text-anchor="middle"  dominant-baseline="middle" fill="black" > 495</text>
<circle cx="1650" cy="510" r="4" fill="white" stroke="black" />
<line x1="1650" y1="514" x2="1650" y2="736" stroke="black" />
<circle cx="1650" cy="736" r="4" fill="white" stroke="black" />
<text x="1650" y="748" font-family="Verdana" font-size="8" text-anchor="middle"  dominant-baseline="middle" fill="black" > 721</text>
<text x="1900" y="7" font-family="Verdana" font-size="7" text-anchor="middle"  dominant-baseline="middle" fill="black" > C8</text>
<circle cx="1900" cy="15" r="4" fill="white" stroke="black" />
<line x1="1900" y1="19" x2="1900" y2="373" stroke="black" />
<line x1="1850" y1="373" x2="1950" y2="373" stroke="black" />
<text x="1925" y="365" font-family="Verdana" font-size="8" text-anchor="middle"  dominant-baseline="middle" fill="black" > 358</text>
<circle cx="1850" cy="373" r="4" fill="white" stroke="black" />
<circle cx="1950" cy="373" r="4" fill="white" stroke="black" />
<line x1="1850" y1="377" x2="1850" y2="415" stroke="black" />
<line x1="1850" y1="415" x2="1900" y2="429" stroke="black" />
<line x1="1950" y1="377" x2="1950" y2="415" stroke="black" />
<line x1="1950" y1="415" x2="1900" y2="429" stroke="black" />
<text x="1900" y="417" font-family="Verdana" font-size="8" text-anchor="middle"  dominant-baseline="middle" fill="black" > 414</text>
<circle cx="1900" cy="429" r="4" fill="white" stroke="black" />
<line x1="1900" y1="433" x2="1900" y2="736" stroke="black" />
<circle cx="1900" cy="736" r="4" fill="white" stroke="black" />
<text x="1900" y="748" font-family="Verdana" font-size="8" text-anchor="middle"  dominant-baseline="middle" fill="black" > 721</text>
<text x="2150" y="7" font-family="Verdana" font-size="7" text-anchor="middle"  dominant-baseline="middle" fill="black" > C9</text>
<circle cx="2150" cy="15" r="4" fill="white" stroke="black" />
<line x1="2150" y1="19" x2="2150" y2="312" stroke="black" />
<line x1="2050" y1="312" x2="2250" y2="312" stroke="black" />
<text x="2175" y="304" font-family="Verdana" font-size="8" text-anchor="middle"  dominant-baseline="middle" fill="black" > 297</text>
<circle cx="2050" cy="312" r="4" fill="white" stroke="black" />
<line x1="2050" y1="316" x2="2050" y2="396" stroke="black" />
<line x1="2046" y1="392" x2="2054" y2="400" stroke="red" />
<line x1="2046" y1="400" x2="2054" y2="392" stroke="red" />
<text x="2050" y="408" font-family="Verdana" font-size="8" text-anchor="middle"  dominant-baseline="middle" fill="black" > 381</text>
<circle cx="2150" cy="312" r="4" fill="white" stroke="black" />
<line x1="2150" y1="316" x2="2150" y2="454" stroke="black" />
<line x1="2146" y1="450" x2="2154" y2="458" stroke="red" />
<line x1="2146" y1="458" x2="2154" y2="450" stroke="red" />
<text x="2150" y="466" font-family="Verdana" font-size="8" text-anchor="middle"  dominant-baseline="middle" fill="black" > 439</text>
<circle cx="2250" cy="312" r="4" fill="white" stroke="black" />
<line x1="2250" y1="316" x2="2250" y2="466" stroke="black" />
<line x1="2246" y1="462" x2="2254" y2="470" stroke="red" />
<line x1="2246" y1="470" x2="2254" y2="462" stroke="red" />
<text x="2250" y="478" font-family="Verdana" font-size="8" text-anchor="middle"  dominant-baseline="middle" fill="black" > 451</text>
<text x="2350" y="7" font-family="Verdana" font-size="7" text-anchor="middle"  dominant-baseline="middle" fill="black" > C10</text>
<circle cx="2350" cy="15" r="4" fill="white" stroke="black" />
<line x1="2350" y1="19" x2="2350" y2="306" stroke="black" />
<line x1="2346" y1="302" x2="2354" y2="310" stroke="red" />
<line x1="2346" y1="310" x2="2354" y2="302" stroke="red" />
<text x="2350" y="318" font-family="Verdana" font-size="8" text-anchor="middle"  dominant-baseline="middle" fill="black" > 291</text>
<text x="2450" y="7" font-family="Verdana" font-size="7" text-anchor="middle"  dominant-baseline="middle" fill="black" > C11</text>
<circle cx="2450" cy="15" r="4" fill="white" stroke="black" />
<line x1="2450" y1="19" x2="2450" y2="277" stroke="black" />
<line x1="2446" y1="273" x2="2454" y2="281" stroke="red" />
<line x1="2446" y1="281" x2="2454" y2="273" stroke="red" />
<text x="2450" y="289" font-family="Verdana" font-size="8" text-anchor="middle"  dominant-baseline="middle" fill="black" > 262</text>
<text x="2550" y="7" font-family="Verdana" font-size="7" text-anchor="middle"  dominant-baseline="middle" fill="black" > C12</text>
<circle cx="2550" cy="15" r="4" fill="white" stroke="black" />
<line x1="2550" y1="19" x2="2550" y2="736" stroke="black" />
<circle cx="2550" cy="736" r="4" fill="white" stroke="black" />
<text x="2550" y="748" font-family="Verdana" font-size="8" text-anchor="middle"  dominant-baseline="middle" fill="black" > 721</text>
<text x="2700" y="7" font-family="Verdana" font-size="7" text-anchor="middle"  dominant-baseline="middle" fill="black" > C13</text>
<circle cx="2700" cy="15" r="4" fill="white" stroke="black" />
<line x1="2700" y1="19" x2="2700" y2="305" stroke="black" />
<line x1="2650" y1="305" x2="2750" y2="305" stroke="black" />
<text x="2725" y="297" font-family="Verdana" font-size="8" text-anchor="middle"  dominant-baseline="middle" fill="black" > 290</text>
<circle cx="2650" cy="305" r="4" fill="white" stroke="black" />
<circle cx="2750" cy="305" r="4" fill="white" stroke="black" />
<line x1="2650" y1="309" x2="2650" y2="365" stroke="black" />
<line x1="2650" y1="365" x2="2700" y2="384" stroke="black" />
<line x1="2750" y1="309" x2="2750" y2="365" stroke="black" />
<line x1="2750" y1="365" x2="2700" y2="384" stroke="black" />
<text x="2700" y="372" font-family="Verdana" font-size="8" text-anchor="middle"  dominant-baseline="middle" fill="black" > 369</text>
<circle cx="2700" cy="384" r="4" fill="white" stroke="black" />
<line x1="2700" y1="388" x2="2700" y2="538" stroke="black" />
<line x1="2696" y1="534" x2="2704" y2="542" stroke="red" />
<line x1="2696" y1="542" x2="2704" y2="534" stroke="red" />
<text x="2700" y="550" font-family="Verdana" font-size="8" text-anchor="middle"  dominant-baseline="middle" fill="black" > 523</text>
<text x="2850" y="7" font-family="Verdana" font-size="7" text-anchor="middle"  dominant-baseline="middle" fill="black" > C14</text>
<circle cx="2850" cy="15" r="4" fill="white" stroke="black" />
<line x1="2850" y1="19" x2="2850" y2="736" stroke="black" />
<circle cx="2850" cy="736" r="4" fill="white" stroke="black" />
<text x="2850" y="748" font-family="Verdana" font-size="8" text-anchor="middle"  dominant-baseline="middle" fill="black" > 721</text>
<text x="2950" y="7" font-family="Verdana" font-size="7" text-anchor="middle"  dominant-baseline="middle" fill="black" > C15</text>
<circle cx="2950" cy="15" r="4" fill="white" stroke="black" />
<line x1="2950" y1="19" x2="2950" y2="502" stroke="black" />
<line x1="2946" y1="498" x2="2954" y2="506" stroke="red" />
<line x1="2946" y1="506" x2="2954" y2="498" stroke="red" />
<text x="2950" y="514" font-family="Verdana" font-size="8" text-anchor="middle"  dominant-baseline="middle" fill="black" > 487</text>
<text x="3100" y="7" font-family="Verdana" font-size="7" text-anchor="middle"  dominant-baseline="middle" fill="black" > C16</text>
<circle cx="3100" cy="15" r="4" fill="white" stroke="black" />
<line x1="3100" y1="19" x2="3100" y2="501" stroke="black" />
<line x1="3050" y1="501" x2="3150" y2="501" stroke="black" />
<text x="3125" y="493" font-family="Verdana" font-size="8" text-anchor="middle"  dominant-baseline="middle" fill="black" > 486</text>
<circle cx="3050" cy="501" r="4" fill="white" stroke="black" />
<circle cx="3150" cy="501" r="4" fill="white" stroke="black" />
<line x1="3050" y1="505" x2="3050" y2="509" stroke="black" />
<line x1="3050" y1="509" x2="3100" y2="511" stroke="black" />
<line x1="3150" y1="505" x2="3150" y2="509" stroke="black" />
<line x1="3150" y1="509" x2="3100" y2="511" stroke="black" />
<text x="3100" y="499" font-family="Verdana" font-size="8" text-anchor="middle"  dominant-baseline="middle" fill="black" > 496</text>
<circle cx="3100" cy="511" r="4" fill="white" stroke="black" />
<line x1="3100" y1="515" x2="3100" y2="626" stroke="black" />
<line x1="3096" y1="622" x2="3104" y2="630" stroke="red" />
<line x1="3096" y1="630" x2="3104" y2="622" stroke="red" />
<text x="3100" y="638" font-family="Verdana" font-size="8" text-anchor="middle"  dominant-baseline="middle" fill="black" > 611</text>
<text x="3250" y="7" font-family="Verdana" font-size="7" text-anchor="middle"  dominant-baseline="middle" fill="black" > C17</text>
<circle cx="3250" cy="15" r="4" fill="white" stroke="black" />
<line x1="3250" y1="19" x2="3250" y2="383" stroke="black" />
<line x1="3246" y1="379" x2="3254" y2="387" stroke="red" />
<line x1="3246" y1="387" x2="3254" y2="379" stroke="red" />
<text x="3250" y="395" font-family="Verdana" font-size="8" text-anchor="middle"  dominant-baseline="middle" fill="black" > 368</text>
<text x="3350" y="7" font-family="Verdana" font-size="7" text-anchor="middle"  dominant-baseline="middle" fill="black" > C18</text>
<circle cx="3350" cy="15" r="4" fill="white" stroke="black" />
<text x="3450" y="7" font-family="Verdana" font-size="7" text-anchor="middle"  dominant-baseline="middle" fill="black" > C19</text>
<circle cx="3450" cy="15" r="4" fill="white" stroke="black" />
<line x1="3350" y1="19" x2="3350" y2="49" stroke="black" />
<line x1="3350" y1="49" x2="3400" y2="60" stroke="black" />
<line x1="3450" y1="19" x2="3450" y2="49" stroke="black" />
<line x1="3450" y1="49" x2="3400" y2="60" stroke="black" />
<text x="3400" y="48" font-family="Verdana" font-size="8" text-anchor="middle"  dominant-baseline="middle" fill="black" > 45</text>
<circle cx="3400" cy="60" r="4" fill="white" stroke="black" />
<line x1="3400" y1="64" x2="3400" y2="69" stroke="black" />
<line x1="3375" y1="69" x2="3425" y2="69" stroke="black" />
<text x="3412" y="61" font-family="Verdana" font-size="8" text-anchor="middle"  dominant-baseline="middle" fill="black" > 54</text>
<circle cx="3375" cy="69" r="4" fill="white" stroke="black" />
<line x1="3375" y1="73" x2="3375" y2="168" stroke="black" />
<line x1="3371" y1="164" x2="3379" y2="172" stroke="red" />
<line x1="3371" y1="172" x2="3379" y2="164" stroke="red" />
<text x="3375" y="180" font-family="Verdana" font-size="8" text-anchor="middle"  dominant-baseline="middle" fill="black" > 153</text>
<circle cx="3425" cy="69" r="4" fill="white" stroke="black" />
<line x1="3425" y1="73" x2="3425" y2="736" stroke="black" />
<circle cx="3425" cy="736" r="4" fill="white" stroke="black" />
<text x="3425" y="748" font-family="Verdana" font-size="8" text-anchor="middle"  dominant-baseline="middle" fill="black" > 721</text>
<text x="3550" y="7" font-family="Verdana" font-size="7" text-anchor="middle"  dominant-baseline="middle" fill="black" > C20</text>
<circle cx="3550" cy="15" r="4" fill="white" stroke="black" />
<line x1="3550" y1="19" x2="3550" y2="318" stroke="black" />
<line x1="3546" y1="314" x2="3554" y2="322" stroke="red" />
<line x1="3546" y1="322" x2="3554" y2="314" stroke="red" />
<text x="3550" y="330" font-family="Verdana" font-size="8" text-anchor="middle"  dominant-baseline="middle" fill="black" > 303</text>
<text x="3650" y="7" font-family="Verdana" font-size="7" text-anchor="middle"  dominant-baseline="middle" fill="black" > C21</text>
<circle cx="3650" cy="15" r="4" fill="white" stroke="black" />
<line x1="3650" y1="19" x2="3650" y2="405" stroke="black" />
<line x1="3646" y1="401" x2="3654" y2="409" stroke="red" />
<line x1="3646" y1="409" x2="3654" y2="401" stroke="red" />
<text x="3650" y="417" font-family="Verdana" font-size="8" text-anchor="middle"  dominant-baseline="middle" fill="black" > 390</text>
<text x="3750" y="7" font-family="Verdana" font-size="7" text-anchor="middle"  dominant-baseline="middle" fill="black" > C22</text>
<circle cx="3750" cy="15" r="4" fill="white" stroke="black" />
<line x1="3750" y1="19" x2="3750" y2="555" stroke="black" />
<line x1="3746" y1="551" x2="3754" y2="559" stroke="red" />
<line x1="3746" y1="559" x2="3754" y2="551" stroke="red" />
<text x="3750" y="567" font-family="Verdana" font-size="8" text-anchor="middle"  dominant-baseline="middle" fill="black" > 540</text>
<text x="3900" y="7" font-family="Verdana" font-size="7" text-anchor="middle"  dominant-baseline="middle" fill="black" > C23</text>
<circle cx="3900" cy="15" r="4" fill="white" stroke="black" />
<line x1="3900" y1="19" x2="3900" y2="284" stroke="black" />
<line x1="3850" y1="284" x2="3950" y2="284" stroke="black" />
<text x="3925" y="276" font-family="Verdana" font-size="8" text-anchor="middle"  dominant-baseline="middle" fill="black" > 269</text>
<circle cx="3850" cy="284" r="4" fill="white" stroke="black" />
<line x1="3850" y1="288" x2="3850" y2="356" stroke="black" />
<line x1="3846" y1="352" x2="3854" y2="360" stroke="red" />
<line x1="3846" y1="360" x2="3854" y2="352" stroke="red" />
<text x="3850" y="368" font-family="Verdana" font-size="8" text-anchor="middle"  dominant-baseline="middle" fill="black" > 341</text>
<circle cx="3950" cy="284" r="4" fill="white" stroke="black" />
<line x1="3950" y1="288" x2="3950" y2="356" stroke="black" />
<line x1="3946" y1="352" x2="3954" y2="360" stroke="red" />
<line x1="3946" y1="360" x2="3954" y2="352" stroke="red" />
<text x="3950" y="368" font-family="Verdana" font-size="8" text-anchor="middle"  dominant-baseline="middle" fill="black" > 341</text>
<text x="4100" y="7" font-family="Verdana" font-size="7" text-anchor="middle"  dominant-baseline="middle" fill="black" > C24</text>
<circle cx="4100" cy="15" r="4" fill="white" stroke="black" />
<line x1="4100" y1="19" x2="4100" y2="478" stroke="black" />
<line x1="4050" y1="478" x2="4150" y2="478" stroke="black" />
<text x="4125" y="470" font-family="Verdana" font-size="8" text-anchor="middle"  dominant-baseline="middle" fill="black" > 463</text>
<circle cx="4050" cy="478" r="4" fill="white" stroke="black" />
<line x1="4050" y1="482" x2="4050" y2="596" stroke="black" />
<line x1="4046" y1="592" x2="4054" y2="600" stroke="red" />
<line x1="4046" y1="600" x2="4054" y2="592" stroke="red" />
<text x="4050" y="608" font-family="Verdana" font-size="8" text-anchor="middle"  dominant-baseline="middle" fill="black" > 581</text>
<circle cx="4150" cy="478" r="4" fill="white" stroke="black" />
<line x1="4150" y1="482" x2="4150" y2="630" stroke="black" />
<line x1="4146" y1="634" x2="4150" y2="626" stroke="blue" />
<line x1="4150" y1="634" x2="4154" y2="626" stroke="blue" />
<text x="4150" y="642" font-family="Verdana" font-size="8" text-anchor="middle"  dominant-baseline="middle" fill="black" > 615</text>
<text x="4250" y="7" font-family="Verdana" font-size="7" text-anchor="middle"  dominant-baseline="middle" fill="black" > C25</text>
<circle cx="4250" cy="15" r="4" fill="white" stroke="black" />
<line x1="4250" y1="19" x2="4250" y2="736" stroke="black" />
<circle cx="4250" cy="736" r="4" fill="white" stroke="black" />
<text x="4250" y="748" font-family="Verdana" font-size="8" text-anchor="middle"  dominant-baseline="middle" fill="black" > 721</text>
<text x="4400" y="7" font-family="Verdana" font-size="7" text-anchor="middle"  dominant-baseline="middle" fill="black" > C26</text>
<circle cx="4400" cy="15" r="4" fill="white" stroke="black" />
<line x1="4400" y1="19" x2="4400" y2="405" stroke="black" />
<line x1="4350" y1="405" x2="4450" y2="405" stroke="black" />
<text x="4425" y="397" font-family="Verdana" font-size="8" text-anchor="middle"  dominant-baseline="middle" fill="black" > 390</text>
<circle cx="4350" cy="405" r="4" fill="white" stroke="black" />
<circle cx="4450" cy="405" r="4" fill="white" stroke="black" />
<line x1="4350" y1="409" x2="4350" y2="420" stroke="black" />
<line x1="4350" y1="420" x2="4400" y2="424" stroke="black" />
<line x1="4450" y1="409" x2="4450" y2="420" stroke="black" />
<line x1="4450" y1="420" x2="4400" y2="424" stroke="black" />
<text x="4400" y="412" font-family="Verdana" font-size="8" text-anchor="middle"  dominant-baseline="middle" fill="black" > 409</text>
<circle cx="4400" cy="424" r="4" fill="white" stroke="black" />
<line x1="4400" y1="428" x2="4400" y2="657" stroke="black" />
<line x1="4396" y1="653" x2="4404" y2="661" stroke="red" />
<line x1="4396" y1="661" x2="4404" y2="653" stroke="red" />
<text x="4400" y="669" font-family="Verdana" font-size="8" text-anchor="middle"  dominant-baseline="middle" fill="black" > 642</text>
<text x="4550" y="7" font-family="Verdana" font-size="7" text-anchor="middle"  dominant-baseline="middle" fill="black" > C27</text>
<circle cx="4550" cy="15" r="4" fill="white" stroke="black" />
<line x1="4550" y1="19" x2="4550" y2="476" stroke="black" />
<line x1="4546" y1="472" x2="4554" y2="480" stroke="red" />
<line x1="4546" y1="480" x2="4554" y2="472" stroke="red" />
<text x="4550" y="488" font-family="Verdana" font-size="8" text-anchor="middle"  dominant-baseline="middle" fill="black" > 461</text>
<text x="4650" y="7" font-family="Verdana" font-size="7" text-anchor="middle"  dominant-baseline="middle" fill="black" > C28</text>
<circle cx="4650" cy="15" r="4" fill="white" stroke="black" />
<line x1="4650" y1="19" x2="4650" y2="736" stroke="black" />
<circle cx="4650" cy="736" r="4" fill="white" stroke="black" />
<text x="4650" y="748" font-family="Verdana" font-size="8" text-anchor="middle"  dominant-baseline="middle" fill="black" > 721</text>
</svg>
