<?xml version="1.0" encoding="utf-8"?>
<svg xmlns="http://www.w3.org/2000/svg" version="1.1" width="1450" height="750">
<rect width="1450" height="15" x="0" y="0" fill="white" />
<rect width="1450" height="15" x="0" y="735" fill="white" />
<rect width="25" height="750" x="0" y="0" fill="white" />
<rect width="25" height="750" x="1425" y="0" fill="white" />
<rect width="1410" height="144" x="25" y="15" fill="ghostwhite" />
<rect width="1410" height="144" x="25" y="159" fill="snow" />
<rect width="1410" height="144" x="25" y="303" fill="ghostwhite" />
<rect width="1410" height="144" x="25" y="447" fill="snow" />
<rect width="1410" height="144" x="25" y="591" fill="ghostwhite" />
<text x="12" y="87" font-family="Verdana" font-size="10" text-anchor="middle"  dominant-baseline="middle" fill="red" > D0</text>
<text x="12" y="231" font-family="Verdana" font-size="10" text-anchor="middle"  dominant-baseline="middle" fill="red" > D1</text>
<text x="12" y="375" font-family="Verdana" font-size="10" text-anchor="middle"  dominant-baseline="middle" fill="red" > D2</text>
<text x="12" y="519" font-family="Verdana" font-size="10" text-anchor="middle"  dominant-baseline="middle" fill="red" > D3</text>
<text x="12" y="663" font-family="Verdana" font-size="10" text-anchor="middle"  dominant-baseline="middle" fill="red" > D4</text>
<text x="12" y="20" font-family="Verdana" font-size="10" text-anchor="middle"  dominant-baseline="middle" fill="black" > 0</text>
<text x="12" y="164" font-family="Verdana" font-size="10" text-anchor="middle"  dominant-baseline="middle" fill="black" > 144</text>
<text x="12" y="308" font-family="Verdana" font-size="10" text-anchor="middle"  dominant-baseline="middle" fill="black" > 288</text>
<text x="12" y="452" font-family="Verdana" font-size="10" text-anchor="middle"  dominant-baseline="middle" fill="black" > 432</text>
<text x="12" y="596" font-family="Verdana" font-size="10" text-anchor="middle"  dominant-baseline="middle" fill="black" > 576</text>
<text x="12" y="740" font-family="Verdana" font-size="10" text-anchor="middle"  dominant-baseline="middle" fill="black" > 720</text>
<text x="100" y="7" font-family="Verdana" font-size="7" text-anchor="middle"  dominant-baseline="middle" fill="black" > C1</text>
<circle cx="100" cy="15" r="4" fill="white" stroke="black" />
<line x1="100" y1="19" x2="100" y2="123" stroke="black" />
<line x1="50" y1="123" x2="150" y2="123" stroke="black" />
<text x="125" y="115" font-family="Verdana" font-size="8" text-anchor="middle"  dominant-baseline="middle" fill="black" > 108</text>
<circle cx="50" cy="123" r="4" fill="white" stroke="black" />
<line x1="50" y1="127" x2="50" y2="124" stroke="black" />
<line x1="46" y1="128" x2="50" y2="120" stroke="blue" />
<line x1="50" y1="128" x2="54" y2="120" stroke="blue" />
<text x="50" y="136" font-family="Verdana" font-size="8" text-anchor="middle"  dominant-baseline="middle" fill="black" > 109</text>
<circle cx="150" cy="123" r="4" fill="white" stroke="black" />
<line x1="150" y1="127" x2="150" y2="265" stroke="black" />
<line x1="125" y1="265" x2="175" y2="265" stroke="black" />
<text x="162" y="257" font-family="Verdana" font-size="8" text-anchor="middle"  dominant-baseline="middle" fill="black" > 250</text>
<circle cx="125" cy="265" r="4" fill="white" stroke="black" />
<line x1="125" y1="269" x2="125" y2="520" stroke="black" />
<line x1="112" y1="520" x2="138" y2="520" stroke="black" />
<text x="131" y="512" font-family="Verdana" font-size="8" text-anchor="middle"  dominant-baseline="middle" fill="black" > 505</text>
<circle cx="112" cy="520" r="4" fill="white" stroke="black" />
<line x1="112" y1="524" x2="112" y2="591" stroke="black" />
<circle cx="112" cy="591" r="4" fill="white" stroke="black" />
<text x="112" y="603" font-family="Verdana" font-size="8" text-anchor="middle"  dominant-baseline="middle" fill="black" > 576</text>
<circle cx="137" cy="520" r="4" fill="white" stroke="black" />
<line x1="137" y1="524" x2="137" y2="591" stroke="black" />
<circle cx="137" cy="591" r="4" fill="white" stroke="black" />
<text x="137" y="603" font-family="Verdana" font-size="8" text-anchor="middle"  dominant-baseline="middle" fill="black" > 576</text>
<circle cx="175" cy="265" r="4" fill="white" stroke="black" />
<line x1="175" y1="269" x2="175" y2="482" stroke="black" />
<line x1="162" y1="482" x2="188" y2="482" stroke="black" />
<text x="181" y="474" font-family="Verdana" font-size="8" text-anchor="middle"  dominant-baseline="middle" fill="black" > 467</text>
<circle cx="162" cy="482" r="4" fill="white" stroke="black" />
<line x1="162" y1="486" x2="162" y2="591" stroke="black" />
<circle cx="162" cy="591" r="4" fill="white" stroke="black" />
<text x="162" y="603" font-family="Verdana" font-size="8" text-anchor="middle"  dominant-baseline="middle" fill="black" > 576</text>
<circle cx="187" cy="482" r="4" fill="white" stroke="black" />
<line x1="187" y1="486" x2="187" y2="591" stroke="black" />
<circle cx="187" cy="591" r="4" fill="white" stroke="black" />
<text x="187" y="603" font-family="Verdana" font-size="8" text-anchor="middle"  dominant-baseline="middle" fill="black" > 576</text>
<text x="300" y="7" font-family="Verdana" font-size="7" text-anchor="middle"  dominant-baseline="middle" fill="black" > C2</text>
<circle cx="300" cy="15" r="4" fill="white" stroke="black" />
<line x1="300" y1="19" x2="300" y2="126" stroke="black" />
<line x1="250" y1="126" x2="350" y2="126" stroke="black" />
<text x="325" y="118" font-family="Verdana" font-size="8" text-anchor="middle"  dominant-baseline="middle" fill="black" > 111</text>
<circle cx="250" cy="126" r="4" fill="white" stroke="black" />
<line x1="250" y1="130" x2="250" y2="328" stroke="black" />
<line x1="225" y1="328" x2="275" y2="328" stroke="black" />
<text x="262" y="320" font-family="Verdana" font-size="8" text-anchor="middle"  dominant-baseline="middle" fill="black" > 313</text>
<circle cx="225" cy="328" r="4" fill="white" stroke="black" />
<line x1="225" y1="332" x2="225" y2="473" stroke="black" />
<line x1="221" y1="477" x2="225" y2="469" stroke="blue" />
<line x1="225" y1="477" x2="229" y2="469" stroke="blue" />
<text x="225" y="485" font-family="Verdana" font-size="8" text-anchor="middle"  dominant-baseline="middle" fill="black" > 458</text>
<circle cx="275" cy="328" r="4" fill="white" stroke="black" />
<line x1="275" y1="332" x2="275" y2="412" stroke="black" />
<line x1="271" y1="416" x2="275" y2="408" stroke="blue" />
<line x1="275" y1="416" x2="279" y2="408" stroke="blue" />
<text x="275" y="424" font-family="Verdana" font-size="8" text-anchor="middle"  dominant-baseline="middle" fill="black" > 397</text>
<circle cx="350" cy="126" r="4" fill="white" stroke="black" />
<line x1="350" y1="130" x2="350" y2="307" stroke="black" />
<line x1="325" y1="307" x2="375" y2="307" stroke="black" />
<text x="362" y="299" font-family="Verdana" font-size="8" text-anchor="middle"  dominant-baseline="middle" fill="black" > 292</text>
<circle cx="325" cy="307" r="4" fill="white" stroke="black" />
<line x1="325" y1="311" x2="325" y2="441" stroke="black" />
<line x1="321" y1="437" x2="329" y2="445" stroke="red" />
<line x1="321" y1="445" x2="329" y2="437" stroke="red" />
<text x="325" y="453" font-family="Verdana" font-size="8" text-anchor="middle"  dominant-baseline="middle" fill="black" > 426</text>
<circle cx="375" cy="307" r="4" fill="white" stroke="black" />
<line x1="375" y1="311" x2="375" y2="439" stroke="black" />
<line x1="362" y1="439" x2="388" y2="439" stroke="black" />
<text x="381" y="431" font-family="Verdana" font-size="8" text-anchor="middle"  dominant-baseline="middle" fill="black" > 424</text>
<circle cx="362" cy="439" r="4" fill="white" stroke="black" />
<line x1="362" y1="443" x2="362" y2="591" stroke="black" />
<circle cx="362" cy="591" r="4" fill="white" stroke="black" />
<text x="362" y="603" font-family="Verdana" font-size="8" text-anchor="middle"  dominant-baseline="middle" fill="black" > 576</text>
<circle cx="387" cy="439" r="4" fill="white" stroke="black" />
<line x1="387" y1="443" x2="387" y2="549" stroke="black" />
<line x1="381" y1="549" x2="394" y2="549" stroke="black" />
<text x="390" y="541" font-family="Verdana" font-size="8" text-anchor="middle"  dominant-baseline="middle" fill="black" > 534</text>
<circle cx="381" cy="549" r="4" fill="white" stroke="black" />
<line x1="381" y1="553" x2="381" y2="591" stroke="black" />
<circle cx="381" cy="591" r="4" fill="white" stroke="black" />
<text x="381" y="603" font-family="Verdana" font-size="8" text-anchor="middle"  dominant-baseline="middle" fill="black" > 576</text>
<circle cx="393" cy="549" r="4" fill="white" stroke="black" />
<line x1="393" y1="553" x2="393" y2="591" stroke="black" />
<circle cx="393" cy="591" r="4" fill="white" stroke="black" />
<text x="393" y="603" font-family="Verdana" font-size="8" text-anchor="middle"  dominant-baseline="middle" fill="black" > 576</text>
<text x="500" y="7" font-family="Verdana" font-size="7" text-anchor="middle"  dominant-baseline="middle" fill="black" > C3</text>
<circle cx="500" cy="15" r="4" fill="white" stroke="black" />
<line x1="500" y1="19" x2="500" y2="175" stroke="black" />
<line x1="450" y1="175" x2="550" y2="175" stroke="black" />
<text x="525" y="167" font-family="Verdana" font-size="8" text-anchor="middle"  dominant-baseline="middle" fill="black" > 160</text>
<circle cx="450" cy="175" r="4" fill="white" stroke="black" />
<line x1="450" y1="179" x2="450" y2="324" stroke="black" />
<line x1="425" y1="324" x2="475" y2="324" stroke="black" />
<text x="462" y="316" font-family="Verdana" font-size="8" text-anchor="middle"  dominant-baseline="middle" fill="black" > 309</text>
<circle cx="425" cy="324" r="4" fill="white" stroke="black" />
<line x1="425" y1="328" x2="425" y2="444" stroke="black" />
<line x1="412" y1="444" x2="438" y2="444" stroke="black" />
<text x="431" y="436" font-family="Verdana" font-size="8" text-anchor="middle"  dominant-baseline="middle" fill="black" > 429</text>
<circle cx="412" cy="444" r="4" fill="white" stroke="black" />
<line x1="412" y1="448" x2="412" y2="591" stroke="black" />
<circle cx="412" cy="591" r="4" fill="white" stroke="black" />
<text x="412" y="603" font-family="Verdana" font-size="8" text-anchor="middle"  dominant-baseline="middle" fill="black" > 576</text>
<circle cx="437" cy="444" r="4" fill="white" stroke="black" />
<line x1="437" y1="448" x2="437" y2="591" stroke="black" />
<circle cx="437" cy="591" r="4" fill="white" stroke="black" />
<text x="437" y="603" font-family="Verdana" font-size="8" text-anchor="middle"  dominant-baseline="middle" fill="black" > 576</text>
<circle cx="475" cy="324" r="4" fill="white" stroke="black" />
<line x1="475" y1="328" x2="475" y2="473" stroke="black" />
<line x1="462" y1="473" x2="488" y2="473" stroke="black" />
<text x="481" y="465" font-family="Verdana" font-size="8" text-anchor="middle"  dominant-baseline="middle" fill="black" > 458</text>
<circle cx="462" cy="473" r="4" fill="white" stroke="black" />
<line x1="462" y1="477" x2="462" y2="591" stroke="black" />
<circle cx="462" cy="591" r="4" fill="white" stroke="black" />
<text x="462" y="603" font-family="Verdana" font-size="8" text-anchor="middle"  dominant-baseline="middle" fill="black" > 576</text>
<circle cx="487" cy="473" r="4" fill="white" stroke="black" />
<line x1="487" y1="477" x2="487" y2="565" stroke="black" />
<line x1="481" y1="565" x2="494" y2="565" stroke="black" />
<text x="490" y="557" font-family="Verdana" font-size="8" text-anchor="middle"  dominant-baseline="middle" fill="black" > 550</text>
<circle cx="481" cy="565" r="4" fill="white" stroke="black" />
<line x1="481" y1="569" x2="481" y2="591" stroke="black" />
<circle cx="481" cy="591" r="4" fill="white" stroke="black" />
<text x="481" y="603" font-family="Verdana" font-size="8" text-anchor="middle"  dominant-baseline="middle" fill="black" > 576</text>
<circle cx="493" cy="565" r="4" fill="white" stroke="black" />
<line x1="493" y1="569" x2="493" y2="591" stroke="black" />
<circle cx="493" cy="591" r="4" fill="white" stroke="black" />
<text x="493" y="603" font-family="Verdana" font-size="8" text-anchor="middle"  dominant-baseline="middle" fill="black" > 576</text>
<circle cx="550" cy="175" r="4" fill="white" stroke="black" />
<line x1="550" y1="179" x2="550" y2="349" stroke="black" />
<line x1="525" y1="349" x2="575" y2="349" stroke="black" />
<text x="562" y="341" font-family="Verdana" font-size="8" text-anchor="middle"  dominant-baseline="middle" fill="black" > 334</text>
<circle cx="525" cy="349" r="4" fill="white" stroke="black" />
<line x1="525" y1="353" x2="525" y2="441" stroke="black" />
<line x1="512" y1="441" x2="538" y2="441" stroke="black" />
<text x="531" y="433" font-family="Verdana" font-size="8" text-anchor="middle"  dominant-baseline="middle" fill="black" > 426</text>
<circle cx="512" cy="441" r="4" fill="white" stroke="black" />
<line x1="512" y1="445" x2="512" y2="562" stroke="black" />
<line x1="506" y1="562" x2="519" y2="562" stroke="black" />
<text x="515" y="554" font-family="Verdana" font-size="8" text-anchor="middle"  dominant-baseline="middle" fill="black" > 547</text>
<circle cx="506" cy="562" r="4" fill="white" stroke="black" />
<line x1="506" y1="566" x2="506" y2="591" stroke="black" />
<circle cx="506" cy="591" r="4" fill="white" stroke="black" />
<text x="506" y="603" font-family="Verdana" font-size="8" text-anchor="middle"  dominant-baseline="middle" fill="black" > 576</text>
<circle cx="518" cy="562" r="4" fill="white" stroke="black" />
<line x1="518" y1="566" x2="518" y2="591" stroke="black" />
<circle cx="518" cy="591" r="4" fill="white" stroke="black" />
<text x="518" y="603" font-family="Verdana" font-size="8" text-anchor="middle"  dominant-baseline="middle" fill="black" > 576</text>
<circle cx="537" cy="441" r="4" fill="white" stroke="black" />
<line x1="537" y1="445" x2="537" y2="550" stroke="black" />
<line x1="531" y1="550" x2="544" y2="550" stroke="black" />
<text x="540" y="542" font-family="Verdana" font-size="8" text-anchor="middle"  dominant-baseline="middle" fill="black" > 535</text>
<circle cx="531" cy="550" r="4" fill="white" stroke="black" />
<line x1="531" y1="554" x2="531" y2="591" stroke="black" />
<circle cx="531" cy="591" r="4" fill="white" stroke="black" />
<text x="531" y="603" font-family="Verdana" font-size="8" text-anchor="middle"  dominant-baseline="middle" fill="black" > 576</text>
<circle cx="543" cy="550" r="4" fill="white" stroke="black" />
<line x1="543" y1="554" x2="543" y2="591" stroke="black" />
<circle cx="543" cy="591" r="4" fill="white" stroke="black" />
<text x="543" y="603" font-family="Verdana" font-size="8" text-anchor="middle"  dominant-baseline="middle" fill="black" > 576</text>
<circle cx="575" cy="349" r="4" fill="white" stroke="black" />
<line x1="575" y1="353" x2="575" y2="435" stroke="black" />
<line x1="562" y1="435" x2="588" y2="435" stroke="black" />
<text x="581" y="427" font-family="Verdana" font-size="8" text-anchor="middle"  dominant-baseline="middle" fill="black" > 420</text>
<circle cx="562" cy="435" r="4" fill="white" stroke="black" />
<line x1="562" y1="439" x2="562" y2="591" stroke="black" />
<circle cx="562" cy="591" r="4" fill="white" stroke="black" />
<text x="562" y="603" font-family="Verdana" font-size="8" text-anchor="middle"  dominant-baseline="middle" fill="black" > 576</text>
<circle cx="587" cy="435" r="4" fill="white" stroke="black" />
<line x1="587" y1="439" x2="587" y2="591" stroke="black" />
<circle cx="587" cy="591" r="4" fill="white" stroke="black" />
<text x="587" y="603" font-family="Verdana" font-size="8" text-anchor="middle"  dominant-baseline="middle" fill="black" > 576</text>
<text x="700" y="7" font-family="Verdana" font-size="7" text-anchor="middle"  dominant-baseline="middle" fill="black" > C4</text>
<circle cx="700" cy="15" r="4" fill="white" stroke="black" />
<line x1="700" y1="19" x2="700" y2="76" stroke="black" />
<line x1="650" y1="76" x2="750" y2="76" stroke="black" />
<text x="725" y="68" font-family="Verdana" font-size="8" text-anchor="middle"  dominant-baseline="middle" fill="black" > 61</text>
<circle cx="650" cy="76" r="4" fill="white" stroke="black" />
<line x1="650" y1="80" x2="650" y2="269" stroke="black" />
<line x1="625" y1="269" x2="675" y2="269" stroke="black" />
<text x="662" y="261" font-family="Verdana" font-size="8" text-anchor="middle"  dominant-baseline="middle" fill="black" > 254</text>
<circle cx="625" cy="269" r="4" fill="white" stroke="black" />
<line x1="625" y1="273" x2="625" y2="591" stroke="black" />
<circle cx="625" cy="591" r="4" fill="white" stroke="black" />
<text x="625" y="603" font-family="Verdana" font-size="8" text-anchor="middle"  dominant-baseline="middle" fill="black" > 576</text>
<circle cx="675" cy="269" r="4" fill="white" stroke="black" />
<line x1="675" y1="273" x2="675" y2="509" stroke="black" />
<line x1="662" y1="509" x2="688" y2="509" stroke="black" />
<text x="681" y="501" font-family="Verdana" font-size="8" text-anchor="middle"  dominant-baseline="middle" fill="black" > 494</text>
<circle cx="662" cy="509" r="4" fill="white" stroke="black" />
<line x1="662" y1="513" x2="662" y2="591" stroke="black" />
<circle cx="662" cy="591" r="4" fill="white" stroke="black" />
<text x="662" y="603" font-family="Verdana" font-size="8" text-anchor="middle"  dominant-baseline="middle" fill="black" > 576</text>
<circle cx="687" cy="509" r="4" fill="white" stroke="black" />
<line x1="687" y1="513" x2="687" y2="591" stroke="black" />
<circle cx="687" cy="591" r="4" fill="white" stroke="black" />
<text x="687" y="603" font-family="Verdana" font-size="8" text-anchor="middle"  dominant-baseline="middle" fill="black" > 576</text>
<circle cx="750" cy="76" r="4" fill="white" stroke="black" />
<line x1="750" y1="80" x2="750" y2="259" stroke="black" />
<line x1="725" y1="259" x2="775" y2="259" stroke="black" />
<text x="762" y="251" font-family="Verdana" font-size="8" text-anchor="middle"  dominant-baseline="middle" fill="black" > 244</text>
<circle cx="725" cy="259" r="4" fill="white" stroke="black" />
<line x1="725" y1="263" x2="725" y2="435" stroke="black" />
<line x1="712" y1="435" x2="738" y2="435" stroke="black" />
<text x="731" y="427" font-family="Verdana" font-size="8" text-anchor="middle"  dominant-baseline="middle" fill="black" > 420</text>
<circle cx="712" cy="435" r="4" fill="white" stroke="black" />
<line x1="712" y1="439" x2="712" y2="591" stroke="black" />
<circle cx="712" cy="591" r="4" fill="white" stroke="black" />
<text x="712" y="603" font-family="Verdana" font-size="8" text-anchor="middle"  dominant-baseline="middle" fill="black" > 576</text>
<circle cx="737" cy="435" r="4" fill="white" stroke="black" />
<line x1="737" y1="439" x2="737" y2="591" stroke="black" />
<circle cx="737" cy="591" r="4" fill="white" stroke="black" />
<text x="737" y="603" font-family="Verdana" font-size="8" text-anchor="middle"  dominant-baseline="middle" fill="black" > 576</text>
<circle cx="775" cy="259" r="4" fill="white" stroke="black" />
<line x1="775" y1="263" x2="775" y2="452" stroke="black" />
<line x1="762" y1="452" x2="788" y2="452" stroke="black" />
<text x="781" y="444" font-family="Verdana" font-size="8" text-anchor="middle"  dominant-baseline="middle" fill="black" > 437</text>
<circle cx="762" cy="452" r="4" fill="white" stroke="black" />
<line x1="762" y1="456" x2="762" y2="591" stroke="black" />
<circle cx="762" cy="591" r="4" fill="white" stroke="black" />
<text x="762" y="603" font-family="Verdana" font-size="8" text-anchor="middle"  dominant-baseline="middle" fill="black" > 576</text>
<circle cx="787" cy="452" r="4" fill="white" stroke="black" />
<line x1="787" y1="456" x2="787" y2="591" stroke="black" />
<circle cx="787" cy="591" r="4" fill="white" stroke="black" />
<text x="787" y="603" font-family="Verdana" font-size="8" text-anchor="middle"  dominant-baseline="middle" fill="black" > 576</text>
<text x="900" y="7" font-family="Verdana" font-size="7" text-anchor="middle"  dominant-baseline="middle" fill="black" > C5</text>
<circle cx="900" cy="15" r="4" fill="white" stroke="black" />
<line x1="900" y1="19" x2="900" y2="73" stroke="black" />
<line x1="850" y1="73" x2="950" y2="73" stroke="black" />
<text x="925" y="65" font-family="Verdana" font-size="8" text-anchor="middle"  dominant-baseline="middle" fill="black" > 58</text>
<circle cx="850" cy="73" r="4" fill="white" stroke="black" />
<line x1="850" y1="77" x2="850" y2="591" stroke="black" />
<circle cx="850" cy="591" r="4" fill="white" stroke="black" />
<text x="850" y="603" font-family="Verdana" font-size="8" text-anchor="middle"  dominant-baseline="middle" fill="black" > 576</text>
<circle cx="950" cy="73" r="4" fill="white" stroke="black" />
<line x1="950" y1="77" x2="950" y2="278" stroke="black" />
<line x1="925" y1="278" x2="975" y2="278" stroke="black" />
<text x="962" y="270" font-family="Verdana" font-size="8" text-anchor="middle"  dominant-baseline="middle" fill="black" > 263</text>
<circle cx="925" cy="278" r="4" fill="white" stroke="black" />
<line x1="925" y1="282" x2="925" y2="441" stroke="black" />
<line x1="912" y1="441" x2="938" y2="441" stroke="black" />
<text x="931" y="433" font-family="Verdana" font-size="8" text-anchor="middle"  dominant-baseline="middle" fill="black" > 426</text>
<circle cx="912" cy="441" r="4" fill="white" stroke="black" />
<line x1="912" y1="445" x2="912" y2="591" stroke="black" />
<circle cx="912" cy="591" r="4" fill="white" stroke="black" />
<text x="912" y="603" font-family="Verdana" font-size="8" text-anchor="middle"  dominant-baseline="middle" fill="black" > 576</text>
<circle cx="937" cy="441" r="4" fill="white" stroke="black" />
<line x1="937" y1="445" x2="937" y2="591" stroke="black" />
<circle cx="937" cy="591" r="4" fill="white" stroke="black" />
<text x="937" y="603" font-family="Verdana" font-size="8" text-anchor="middle"  dominant-baseline="middle" fill="black" > 576</text>
<circle cx="975" cy="278" r="4" fill="white" stroke="black" />
<line x1="975" y1="282" x2="975" y2="482" stroke="black" />
<line x1="962" y1="482" x2="988" y2="482" stroke="black" />
<text x="981" y="474" font-family="Verdana" font-size="8" text-anchor="middle"  dominant-baseline="middle" fill="black" > 467</text>
<circle cx="962" cy="482" r="4" fill="white" stroke="black" />
<circle cx="987" cy="482" r="4" fill="white" stroke="black" />
<line x1="962" y1="486" x2="962" y2="535" stroke="black" />
<line x1="962" y1="535" x2="974" y2="552" stroke="black" />
<line x1="987" y1="486" x2="987" y2="535" stroke="black" />
<line x1="987" y1="535" x2="974" y2="552" stroke="black" />
<text x="974" y="540" font-family="Verdana" font-size="8" text-anchor="middle"  dominant-baseline="middle" fill="black" > 537</text>
<circle cx="974" cy="552" r="4" fill="white" stroke="black" />
<line x1="974" y1="556" x2="974" y2="591" stroke="black" />
<circle cx="974" cy="591" r="4" fill="white" stroke="black" />
<text x="974" y="603" font-family="Verdana" font-size="8" text-anchor="middle"  dominant-baseline="middle" fill="black" > 576</text>
<text x="1100" y="7" font-family="Verdana" font-size="7" text-anchor="middle"  dominant-baseline="middle" fill="black" > C6</text>
<circle cx="1100" cy="15" r="4" fill="white" stroke="black" />
<line x1="1100" y1="19" x2="1100" y2="82" stroke="black" />
<line x1="1050" y1="82" x2="1150" y2="82" stroke="black" />
<text x="1125" y="74" font-family="Verdana" font-size="8" text-anchor="middle"  dominant-baseline="middle" fill="black" > 67</text>
<circle cx="1050" cy="82" r="4" fill="white" stroke="black" />
<line x1="1050" y1="86" x2="1050" y2="347" stroke="black" />
<line x1="1025" y1="347" x2="1075" y2="347" stroke="black" />
<text x="1062" y="339" font-family="Verdana" font-size="8" text-anchor="middle"  dominant-baseline="middle" fill="black" > 332</text>
<circle cx="1025" cy="347" r="4" fill="white" stroke="black" />
<line x1="1025" y1="351" x2="1025" y2="591" stroke="black" />
<circle cx="1025" cy="591" r="4" fill="white" stroke="black" />
<text x="1025" y="603" font-family="Verdana" font-size="8" text-anchor="middle"  dominant-baseline="middle" fill="black" > 576</text>
<circle cx="1075" cy="347" r="4" fill="white" stroke="black" />
<line x1="1075" y1="351" x2="1075" y2="591" stroke="black" />
<circle cx="1075" cy="591" r="4" fill="white" stroke="black" />
<text x="1075" y="603" font-family="Verdana" font-size="8" text-anchor="middle"  dominant-baseline="middle" fill="black" > 576</text>
<circle cx="1150" cy="82" r="4" fill="white" stroke="black" />
<line x1="1150" y1="86" x2="1150" y2="343" stroke="black" />
<line x1="1125" y1="343" x2="1175" y2="343" stroke="black" />
<text x="1162" y="335" font-family="Verdana" font-size="8" text-anchor="middle"  dominant-baseline="middle" fill="black" > 328</text>
<circle cx="1125" cy="343" r="4" fill="white" stroke="black" />
<line x1="1125" y1="347" x2="1125" y2="591" stroke="black" />
<circle cx="1125" cy="591" r="4" fill="white" stroke="black" />
<text x="1125" y="603" font-family="Verdana" font-size="8" text-anchor="middle"  dominant-baseline="middle" fill="black" > 576</text>
<circle cx="1175" cy="343" r="4" fill="white" stroke="black" />
<line x1="1175" y1="347" x2="1175" y2="591" stroke="black" />
<circle cx="1175" cy="591" r="4" fill="white" stroke="black" />
<text x="1175" y="603" font-family="Verdana" font-size="8" text-anchor="middle"  dominant-baseline="middle" fill="black" > 576</text>
<text x="1300" y="7" font-family="Verdana" font-size="7" text-anchor="middle"  dominant-baseline="middle" fill="black" > C7</text>
<circle cx="1300" cy="15" r="4" fill="white" stroke="black" />
<line x1="1300" y1="19" x2="1300" y2="105" stroke="black" />
<line x1="1250" y1="105" x2="1350" y2="105" stroke="black" />
<text x="1325" y="97" font-family="Verdana" font-size="8" text-anchor="middle"  dominant-baseline="middle" fill="black" > 90</text>
<circle cx="1250" cy="105" r="4" fill="white" stroke="black" />
<line x1="1250" y1="109" x2="1250" y2="272" stroke="black" />
<line x1="1246" y1="276" x2="1250" y2="268" stroke="blue" />
<line x1="1250" y1="276" x2="1254" y2="268" stroke="blue" />
<text x="1250" y="284" font-family="Verdana" font-size="8" text-anchor="middle"  dominant-baseline="middle" fill="black" > 257</text>
<circle cx="1350" cy="105" r="4" fill="white" stroke="black" />
<line x1="1350" y1="109" x2="1350" y2="290" stroke="black" />
<line x1="1325" y1="290" x2="1375" y2="290" stroke="black" />
<text x="1362" y="282" font-family="Verdana" font-size="8" text-anchor="middle"  dominant-baseline="middle" fill="black" > 275</text>
<circle cx="1325" cy="290" r="4" fill="white" stroke="black" />
<line x1="1325" y1="294" x2="1325" y2="291" stroke="black" />
<line x1="1321" y1="295" x2="1325" y2="287" stroke="blue" />
<line x1="1325" y1="295" x2="1329" y2="287" stroke="blue" />
<text x="1325" y="303" font-family="Verdana" font-size="8" text-anchor="middle"  dominant-baseline="middle" fill="black" > 276</text>
<circle cx="1375" cy="290" r="4" fill="white" stroke="black" />
<line x1="1375" y1="294" x2="1375" y2="291" stroke="black" />
<circle cx="1375" cy="291" r="4" fill="white" stroke="black" />
<text x="1375" y="303" font-family="Verdana" font-size="8" text-anchor="middle"  dominant-baseline="middle" fill="black" > 276</text>
</svg>
