<?xml version="1.0" encoding="utf-8"?>
<svg xmlns="http://www.w3.org/2000/svg" version="1.1" width="1850" height="750">
<rect width="1850" height="15" x="0" y="0" fill="white" />
<rect width="1850" height="15" x="0" y="735" fill="white" />
<rect width="25" height="750" x="0" y="0" fill="white" />
<rect width="25" height="750" x="1825" y="0" fill="white" />
<rect width="1810" height="144" x="25" y="15" fill="ghostwhite" />
<rect width="1810" height="144" x="25" y="159" fill="snow" />
<rect width="1810" height="144" x="25" y="303" fill="ghostwhite" />
<rect width="1810" height="144" x="25" y="447" fill="snow" />
<rect width="1810" height="144" x="25" y="591" fill="ghostwhite" />
<text x="12" y="87" font-family="Verdana" font-size="10" text-anchor="middle"  dominant-baseline="middle" fill="red" > D0</text>
<text x="12" y="231" font-family="Verdana" font-size="10" text-anchor="middle"  dominant-baseline="middle" fill="red" > D1</text>
<text x="12" y="375" font-family="Verdana" font-size="10" text-anchor="middle"  dominant-baseline="middle" fill="red" > D2</text>
<text x="12" y="519" font-family="Verdana" font-size="10" text-anchor="middle"  dominant-baseline="middle" fill="red" > D3</text>
<text x="12" y="663" font-family="Verdana" font-size="10" text-anchor="middle"  dominant-baseline="middle" fill="red" > D4</text>
<text x="12" y="20" font-family="Verdana" font-size="10" text-anchor="middle"  dominant-baseline="middle" fill="black" > 0</text>
<text x="12" y="164" font-family="Verdana" font-size="10" text-anchor="middle"  dominant-baseline="middle" fill="black" > 144</text>
<text x="12" y="308" font-family="Verdana" font-size="10" text-anchor="middle"  dominant-baseline="middle" fill="black" > 288</text>
<text x="12" y="452" font-family="Verdana" font-size="10" text-anchor="middle"  dominant-baseline="middle" fill="black" > 432</text>
<text x="12" y="596" font-family="Verdana" font-size="10" text-anchor="middle"  dominant-baseline="middle" fill="black" > 576</text>
<text x="12" y="740" font-family="Verdana" font-size="10" text-anchor="middle"  dominant-baseline="middle" fill="black" > 720</text>
<text x="100" y="7" font-family="Verdana" font-size="7" text-anchor="middle"  dominant-baseline="middle" fill="black" > C1</text>
<circle cx="100" cy="15" r="4" fill="white" stroke="black" />
<line x1="100" y1="19" x2="100" y2="151" stroke="black" />
<line x1="50" y1="151" x2="150" y2="151" stroke="black" />
<text x="125" y="143" font-family="Verdana" font-size="8" text-anchor="middle"  dominant-baseline="middle" fill="black" > 136</text>
<circle cx="50" cy="151" r="4" fill="white" stroke="black" />
<line x1="50" y1="155" x2="50" y2="288" stroke="black" />
<line x1="25" y1="288" x2="75" y2="288" stroke="black" />
<text x="62" y="280" font-family="Verdana" font-size="8" text-anchor="middle"  dominant-baseline="middle" fill="black" > 273</text>
<circle cx="25" cy="288" r="4" fill="white" stroke="black" />
<line x1="25" y1="292" x2="25" y2="575" stroke="black" />
<line x1="12" y1="575" x2="38" y2="575" stroke="black" />
<text x="31" y="567" font-family="Verdana" font-size="8" text-anchor="middle"  dominant-baseline="middle" fill="black" > 560</text>
<circle cx="12" cy="575" r="4" fill="white" stroke="black" />
<line x1="12" y1="579" x2="12" y2="591" stroke="black" />
<circle cx="12" cy="591" r="4" fill="white" stroke="black" />
<text x="12" y="603" font-family="Verdana" font-size="8" text-anchor="middle"  dominant-baseline="middle" fill="black" > 576</text>
<circle cx="37" cy="575" r="4" fill="white" stroke="black" />
<line x1="37" y1="579" x2="37" y2="591" stroke="black" />
<circle cx="37" cy="591" r="4" fill="white" stroke="black" />
<text x="37" y="603" font-family="Verdana" font-size="8" text-anchor="middle"  dominant-baseline="middle" fill="black" > 576</text>
<circle cx="75" cy="288" r="4" fill="white" stroke="black" />
<line x1="75" y1="292" x2="75" y2="441" stroke="black" />
<line x1="62" y1="441" x2="88" y2="441" stroke="black" />
<text x="81" y="433" font-family="Verdana" font-size="8" text-anchor="middle"  dominant-baseline="middle" fill="black" > 426</text>
<circle cx="62" cy="441" r="4" fill="white" stroke="black" />
<line x1="62" y1="445" x2="62" y2="591" stroke="black" />
<circle cx="62" cy="591" r="4" fill="white" stroke="black" />
<text x="62" y="603" font-family="Verdana" font-size="8" text-anchor="middle"  dominant-baseline="middle" fill="black" > 576</text>
<circle cx="87" cy="441" r="4" fill="white" stroke="black" />
<line x1="87" y1="445" x2="87" y2="591" stroke="black" />
<circle cx="87" cy="591" r="4" fill="white" stroke="black" />
<text x="87" y="603" font-family="Verdana" font-size="8" text-anchor="middle"  dominant-baseline="middle" fill="black" > 576</text>
<circle cx="150" cy="151" r="4" fill="white" stroke="black" />
<line x1="150" y1="155" x2="150" y2="272" stroke="black" />
<line x1="125" y1="272" x2="175" y2="272" stroke="black" />
<text x="162" y="264" font-family="Verdana" font-size="8" text-anchor="middle"  dominant-baseline="middle" fill="black" > 257</text>
<circle cx="125" cy="272" r="4" fill="white" stroke="black" />
<line x1="125" y1="276" x2="125" y2="529" stroke="black" />
<line x1="121" y1="525" x2="129" y2="533" stroke="red" />
<line x1="121" y1="533" x2="129" y2="525" stroke="red" />
<text x="125" y="541" font-family="Verdana" font-size="8" text-anchor="middle"  dominant-baseline="middle" fill="black" > 514</text>
<circle cx="175" cy="272" r="4" fill="white" stroke="black" />
<line x1="175" y1="276" x2="175" y2="419" stroke="black" />
<line x1="162" y1="419" x2="188" y2="419" stroke="black" />
<text x="181" y="411" font-family="Verdana" font-size="8" text-anchor="middle"  dominant-baseline="middle" fill="black" > 404</text>
<circle cx="162" cy="419" r="4" fill="white" stroke="black" />
<line x1="162" y1="423" x2="162" y2="591" stroke="black" />
<circle cx="162" cy="591" r="4" fill="white" stroke="black" />
<text x="162" y="603" font-family="Verdana" font-size="8" text-anchor="middle"  dominant-baseline="middle" fill="black" > 576</text>
<circle cx="187" cy="419" r="4" fill="white" stroke="black" />
<line x1="187" y1="423" x2="187" y2="591" stroke="black" />
<circle cx="187" cy="591" r="4" fill="white" stroke="black" />
<text x="187" y="603" font-family="Verdana" font-size="8" text-anchor="middle"  dominant-baseline="middle" fill="black" > 576</text>
<text x="300" y="7" font-family="Verdana" font-size="7" text-anchor="middle"  dominant-baseline="middle" fill="black" > C2</text>
<circle cx="300" cy="15" r="4" fill="white" stroke="black" />
<line x1="300" y1="19" x2="300" y2="150" stroke="black" />
<line x1="250" y1="150" x2="350" y2="150" stroke="black" />
<text x="325" y="142" font-family="Verdana" font-size="8" text-anchor="middle"  dominant-baseline="middle" fill="black" > 135</text>
<circle cx="250" cy="150" r="4" fill="white" stroke="black" />
<line x1="250" y1="154" x2="250" y2="283" stroke="black" />
<line x1="246" y1="287" x2="250" y2="279" stroke="blue" />
<line x1="250" y1="287" x2="254" y2="279" stroke="blue" />
<text x="250" y="295" font-family="Verdana" font-size="8" text-anchor="middle"  dominant-baseline="middle" fill="black" > 268</text>
<circle cx="350" cy="150" r="4" fill="white" stroke="black" />
<line x1="350" y1="154" x2="350" y2="278" stroke="black" />
<line x1="325" y1="278" x2="375" y2="278" stroke="black" />
<text x="362" y="270" font-family="Verdana" font-size="8" text-anchor="middle"  dominant-baseline="middle" fill="black" > 263</text>
<circle cx="325" cy="278" r="4" fill="white" stroke="black" />
<line x1="325" y1="282" x2="325" y2="440" stroke="black" />
<line x1="312" y1="440" x2="338" y2="440" stroke="black" />
<text x="331" y="432" font-family="Verdana" font-size="8" text-anchor="middle"  dominant-baseline="middle" fill="black" > 425</text>
<circle cx="312" cy="440" r="4" fill="white" stroke="black" />
<line x1="312" y1="444" x2="312" y2="591" stroke="black" />
<circle cx="312" cy="591" r="4" fill="white" stroke="black" />
<text x="312" y="603" font-family="Verdana" font-size="8" text-anchor="middle"  dominant-baseline="middle" fill="black" > 576</text>
<circle cx="337" cy="440" r="4" fill="white" stroke="black" />
<line x1="337" y1="444" x2="337" y2="591" stroke="black" />
<circle cx="337" cy="591" r="4" fill="white" stroke="black" />
<text x="337" y="603" font-family="Verdana" font-size="8" text-anchor="middle"  dominant-baseline="middle" fill="black" > 576</text>
<circle cx="375" cy="278" r="4" fill="white" stroke="black" />
<line x1="375" y1="282" x2="375" y2="439" stroke="black" />
<line x1="362" y1="439" x2="388" y2="439" stroke="black" />
<text x="381" y="431" font-family="Verdana" font-size="8" text-anchor="middle"  dominant-baseline="middle" fill="black" > 424</text>
<circle cx="362" cy="439" r="4" fill="white" stroke="black" />
<line x1="362" y1="443" x2="362" y2="444" stroke="black" />
<line x1="358" y1="448" x2="362" y2="440" stroke="blue" />
<line x1="362" y1="448" x2="366" y2="440" stroke="blue" />
<text x="362" y="456" font-family="Verdana" font-size="8" text-anchor="middle"  dominant-baseline="middle" fill="black" > 429</text>
<circle cx="387" cy="439" r="4" fill="white" stroke="black" />
<line x1="387" y1="443" x2="387" y2="591" stroke="black" />
<circle cx="387" cy="591" r="4" fill="white" stroke="black" />
<text x="387" y="603" font-family="Verdana" font-size="8" text-anchor="middle"  dominant-baseline="middle" fill="black" > 576</text>
<text x="500" y="7" font-family="Verdana" font-size="7" text-anchor="middle"  dominant-baseline="middle" fill="black" > C3</text>
<circle cx="500" cy="15" r="4" fill="white" stroke="black" />
<line x1="500" y1="19" x2="500" y2="131" stroke="black" />
<line x1="450" y1="131" x2="550" y2="131" stroke="black" />
<text x="525" y="123" font-family="Verdana" font-size="8" text-anchor="middle"  dominant-baseline="middle" fill="black" > 116</text>
<circle cx="450" cy="131" r="4" fill="white" stroke="black" />
<line x1="450" y1="135" x2="450" y2="321" stroke="black" />
<line x1="425" y1="321" x2="475" y2="321" stroke="black" />
<text x="462" y="313" font-family="Verdana" font-size="8" text-anchor="middle"  dominant-baseline="middle" fill="black" > 306</text>
<circle cx="425" cy="321" r="4" fill="white" stroke="black" />
<line x1="425" y1="325" x2="425" y2="591" stroke="black" />
<circle cx="425" cy="591" r="4" fill="white" stroke="black" />
<text x="425" y="603" font-family="Verdana" font-size="8" text-anchor="middle"  dominant-baseline="middle" fill="black" > 576</text>
<circle cx="475" cy="321" r="4" fill="white" stroke="black" />
<line x1="475" y1="325" x2="475" y2="410" stroke="black" />
<line x1="471" y1="406" x2="479" y2="414" stroke="red" />
<line x1="471" y1="414" x2="479" y2="406" stroke="red" />
<text x="475" y="422" font-family="Verdana" font-size="8" text-anchor="middle"  dominant-baseline="middle" fill="black" > 395</text>
<circle cx="550" cy="131" r="4" fill="white" stroke="black" />
<line x1="550" y1="135" x2="550" y2="320" stroke="black" />
<line x1="525" y1="320" x2="575" y2="320" stroke="black" />
<text x="562" y="312" font-family="Verdana" font-size="8" text-anchor="middle"  dominant-baseline="middle" fill="black" > 305</text>
<circle cx="525" cy="320" r="4" fill="white" stroke="black" />
<circle cx="575" cy="320" r="4" fill="white" stroke="black" />
<line x1="525" y1="324" x2="525" y2="357" stroke="black" />
<line x1="525" y1="357" x2="550" y2="369" stroke="black" />
<line x1="575" y1="324" x2="575" y2="357" stroke="black" />
<line x1="575" y1="357" x2="550" y2="369" stroke="black" />
<text x="550" y="357" font-family="Verdana" font-size="8" text-anchor="middle"  dominant-baseline="middle" fill="black" > 354</text>
<circle cx="550" cy="369" r="4" fill="white" stroke="black" />
<line x1="550" y1="373" x2="550" y2="560" stroke="black" />
<line x1="546" y1="564" x2="550" y2="556" stroke="blue" />
<line x1="550" y1="564" x2="554" y2="556" stroke="blue" />
<text x="550" y="572" font-family="Verdana" font-size="8" text-anchor="middle"  dominant-baseline="middle" fill="black" > 545</text>
<text x="700" y="7" font-family="Verdana" font-size="7" text-anchor="middle"  dominant-baseline="middle" fill="black" > C4</text>
<circle cx="700" cy="15" r="4" fill="white" stroke="black" />
<line x1="700" y1="19" x2="700" y2="209" stroke="black" />
<line x1="650" y1="209" x2="750" y2="209" stroke="black" />
<text x="725" y="201" font-family="Verdana" font-size="8" text-anchor="middle"  dominant-baseline="middle" fill="black" > 194</text>
<circle cx="650" cy="209" r="4" fill="white" stroke="black" />
<line x1="650" y1="213" x2="650" y2="433" stroke="black" />
<line x1="625" y1="433" x2="675" y2="433" stroke="black" />
<text x="662" y="425" font-family="Verdana" font-size="8" text-anchor="middle"  dominant-baseline="middle" fill="black" > 418</text>
<circle cx="625" cy="433" r="4" fill="white" stroke="black" />
<line x1="625" y1="437" x2="625" y2="574" stroke="black" />
<line x1="612" y1="574" x2="638" y2="574" stroke="black" />
<text x="631" y="566" font-family="Verdana" font-size="8" text-anchor="middle"  dominant-baseline="middle" fill="black" > 559</text>
<circle cx="612" cy="574" r="4" fill="white" stroke="black" />
<line x1="612" y1="578" x2="612" y2="591" stroke="black" />
<circle cx="612" cy="591" r="4" fill="white" stroke="black" />
<text x="612" y="603" font-family="Verdana" font-size="8" text-anchor="middle"  dominant-baseline="middle" fill="black" > 576</text>
<circle cx="637" cy="574" r="4" fill="white" stroke="black" />
<line x1="637" y1="578" x2="637" y2="591" stroke="black" />
<circle cx="637" cy="591" r="4" fill="white" stroke="black" />
<text x="637" y="603" font-family="Verdana" font-size="8" text-anchor="middle"  dominant-baseline="middle" fill="black" > 576</text>
<circle cx="675" cy="433" r="4" fill="white" stroke="black" />
<line x1="675" y1="437" x2="675" y2="580" stroke="black" />
<line x1="662" y1="580" x2="688" y2="580" stroke="black" />
<text x="681" y="572" font-family="Verdana" font-size="8" text-anchor="middle"  dominant-baseline="middle" fill="black" > 565</text>
<circle cx="662" cy="580" r="4" fill="white" stroke="black" />
<line x1="662" y1="584" x2="662" y2="591" stroke="black" />
<circle cx="662" cy="591" r="4" fill="white" stroke="black" />
<text x="662" y="603" font-family="Verdana" font-size="8" text-anchor="middle"  dominant-baseline="middle" fill="black" > 576</text>
<circle cx="687" cy="580" r="4" fill="white" stroke="black" />
<line x1="687" y1="584" x2="687" y2="591" stroke="black" />
<circle cx="687" cy="591" r="4" fill="white" stroke="black" />
<text x="687" y="603" font-family="Verdana" font-size="8" text-anchor="middle"  dominant-baseline="middle" fill="black" > 576</text>
<circle cx="750" cy="209" r="4" fill="white" stroke="black" />
<line x1="750" y1="213" x2="750" y2="363" stroke="black" />
<line x1="725" y1="363" x2="775" y2="363" stroke="black" />
<text x="762" y="355" font-family="Verdana" font-size="8" text-anchor="middle"  dominant-baseline="middle" fill="black" > 348</text>
<circle cx="725" cy="363" r="4" fill="white" stroke="black" />
<line x1="725" y1="367" x2="725" y2="503" stroke="black" />
<line x1="712" y1="503" x2="738" y2="503" stroke="black" />
<text x="731" y="495" font-family="Verdana" font-size="8" text-anchor="middle"  dominant-baseline="middle" fill="black" > 488</text>
<circle cx="712" cy="503" r="4" fill="white" stroke="black" />
<line x1="712" y1="507" x2="712" y2="591" stroke="black" />
<circle cx="712" cy="591" r="4" fill="white" stroke="black" />
<text x="712" y="603" font-family="Verdana" font-size="8" text-anchor="middle"  dominant-baseline="middle" fill="black" > 576</text>
<circle cx="737" cy="503" r="4" fill="white" stroke="black" />
<line x1="737" y1="507" x2="737" y2="591" stroke="black" />
<circle cx="737" cy="591" r="4" fill="white" stroke="black" />
<text x="737" y="603" font-family="Verdana" font-size="8" text-anchor="middle"  dominant-baseline="middle" fill="black" > 576</text>
<circle cx="775" cy="363" r="4" fill="white" stroke="black" />
<line x1="775" y1="367" x2="775" y2="471" stroke="black" />
<line x1="762" y1="471" x2="788" y2="471" stroke="black" />
<text x="781" y="463" font-family="Verdana" font-size="8" text-anchor="middle"  dominant-baseline="middle" fill="black" > 456</text>
<circle cx="762" cy="471" r="4" fill="white" stroke="black" />
<line x1="762" y1="475" x2="762" y2="591" stroke="black" />
<circle cx="762" cy="591" r="4" fill="white" stroke="black" />
<text x="762" y="603" font-family="Verdana" font-size="8" text-anchor="middle"  dominant-baseline="middle" fill="black" > 576</text>
<circle cx="787" cy="471" r="4" fill="white" stroke="black" />
<line x1="787" y1="475" x2="787" y2="581" stroke="black" />
<line x1="781" y1="581" x2="794" y2="581" stroke="black" />
<text x="790" y="573" font-family="Verdana" font-size="8" text-anchor="middle"  dominant-baseline="middle" fill="black" > 566</text>
<circle cx="781" cy="581" r="4" fill="white" stroke="black" />
<line x1="781" y1="585" x2="781" y2="591" stroke="black" />
<circle cx="781" cy="591" r="4" fill="white" stroke="black" />
<text x="781" y="603" font-family="Verdana" font-size="8" text-anchor="middle"  dominant-baseline="middle" fill="black" > 576</text>
<circle cx="793" cy="581" r="4" fill="white" stroke="black" />
<line x1="793" y1="585" x2="793" y2="591" stroke="black" />
<circle cx="793" cy="591" r="4" fill="white" stroke="black" />
<text x="793" y="603" font-family="Verdana" font-size="8" text-anchor="middle"  dominant-baseline="middle" fill="black" > 576</text>
<text x="900" y="7" font-family="Verdana" font-size="7" text-anchor="middle"  dominant-baseline="middle" fill="black" > C5</text>
<circle cx="900" cy="15" r="4" fill="white" stroke="black" />
<line x1="900" y1="19" x2="900" y2="139" stroke="black" />
<line x1="850" y1="139" x2="950" y2="139" stroke="black" />
<text x="925" y="131" font-family="Verdana" font-size="8" text-anchor="middle"  dominant-baseline="middle" fill="black" > 124</text>
<circle cx="850" cy="139" r="4" fill="white" stroke="black" />
<line x1="850" y1="143" x2="850" y2="304" stroke="black" />
<line x1="825" y1="304" x2="875" y2="304" stroke="black" />
<text x="862" y="296" font-family="Verdana" font-size="8" text-anchor="middle"  dominant-baseline="middle" fill="black" > 289</text>
<circle cx="825" cy="304" r="4" fill="white" stroke="black" />
<line x1="825" y1="308" x2="825" y2="404" stroke="black" />
<line x1="812" y1="404" x2="838" y2="404" stroke="black" />
<text x="831" y="396" font-family="Verdana" font-size="8" text-anchor="middle"  dominant-baseline="middle" fill="black" > 389</text>
<circle cx="812" cy="404" r="4" fill="white" stroke="black" />
<line x1="812" y1="408" x2="812" y2="505" stroke="black" />
<line x1="806" y1="505" x2="819" y2="505" stroke="black" />
<text x="815" y="497" font-family="Verdana" font-size="8" text-anchor="middle"  dominant-baseline="middle" fill="black" > 490</text>
<circle cx="806" cy="505" r="4" fill="white" stroke="black" />
<line x1="806" y1="509" x2="806" y2="591" stroke="black" />
<circle cx="806" cy="591" r="4" fill="white" stroke="black" />
<text x="806" y="603" font-family="Verdana" font-size="8" text-anchor="middle"  dominant-baseline="middle" fill="black" > 576</text>
<circle cx="818" cy="505" r="4" fill="white" stroke="black" />
<line x1="818" y1="509" x2="818" y2="591" stroke="black" />
<circle cx="818" cy="591" r="4" fill="white" stroke="black" />
<text x="818" y="603" font-family="Verdana" font-size="8" text-anchor="middle"  dominant-baseline="middle" fill="black" > 576</text>
<circle cx="837" cy="404" r="4" fill="white" stroke="black" />
<line x1="837" y1="408" x2="837" y2="519" stroke="black" />
<line x1="831" y1="519" x2="844" y2="519" stroke="black" />
<text x="840" y="511" font-family="Verdana" font-size="8" text-anchor="middle"  dominant-baseline="middle" fill="black" > 504</text>
<circle cx="831" cy="519" r="4" fill="white" stroke="black" />
<line x1="831" y1="523" x2="831" y2="591" stroke="black" />
<circle cx="831" cy="591" r="4" fill="white" stroke="black" />
<text x="831" y="603" font-family="Verdana" font-size="8" text-anchor="middle"  dominant-baseline="middle" fill="black" > 576</text>
<circle cx="843" cy="519" r="4" fill="white" stroke="black" />
<line x1="843" y1="523" x2="843" y2="591" stroke="black" />
<circle cx="843" cy="591" r="4" fill="white" stroke="black" />
<text x="843" y="603" font-family="Verdana" font-size="8" text-anchor="middle"  dominant-baseline="middle" fill="black" > 576</text>
<circle cx="875" cy="304" r="4" fill="white" stroke="black" />
<line x1="875" y1="308" x2="875" y2="431" stroke="black" />
<line x1="862" y1="431" x2="888" y2="431" stroke="black" />
<text x="881" y="423" font-family="Verdana" font-size="8" text-anchor="middle"  dominant-baseline="middle" fill="black" > 416</text>
<circle cx="862" cy="431" r="4" fill="white" stroke="black" />
<line x1="862" y1="435" x2="862" y2="573" stroke="black" />
<line x1="856" y1="573" x2="869" y2="573" stroke="black" />
<text x="865" y="565" font-family="Verdana" font-size="8" text-anchor="middle"  dominant-baseline="middle" fill="black" > 558</text>
<circle cx="856" cy="573" r="4" fill="white" stroke="black" />
<line x1="856" y1="577" x2="856" y2="591" stroke="black" />
<circle cx="856" cy="591" r="4" fill="white" stroke="black" />
<text x="856" y="603" font-family="Verdana" font-size="8" text-anchor="middle"  dominant-baseline="middle" fill="black" > 576</text>
<circle cx="868" cy="573" r="4" fill="white" stroke="black" />
<line x1="868" y1="577" x2="868" y2="591" stroke="black" />
<circle cx="868" cy="591" r="4" fill="white" stroke="black" />
<text x="868" y="603" font-family="Verdana" font-size="8" text-anchor="middle"  dominant-baseline="middle" fill="black" > 576</text>
<circle cx="887" cy="431" r="4" fill="white" stroke="black" />
<line x1="887" y1="435" x2="887" y2="505" stroke="black" />
<line x1="881" y1="505" x2="894" y2="505" stroke="black" />
<text x="890" y="497" font-family="Verdana" font-size="8" text-anchor="middle"  dominant-baseline="middle" fill="black" > 490</text>
<circle cx="881" cy="505" r="4" fill="white" stroke="black" />
<line x1="881" y1="509" x2="881" y2="591" stroke="black" />
<circle cx="881" cy="591" r="4" fill="white" stroke="black" />
<text x="881" y="603" font-family="Verdana" font-size="8" text-anchor="middle"  dominant-baseline="middle" fill="black" > 576</text>
<circle cx="893" cy="505" r="4" fill="white" stroke="black" />
<line x1="893" y1="509" x2="893" y2="591" stroke="black" />
<circle cx="893" cy="591" r="4" fill="white" stroke="black" />
<text x="893" y="603" font-family="Verdana" font-size="8" text-anchor="middle"  dominant-baseline="middle" fill="black" > 576</text>
<circle cx="950" cy="139" r="4" fill="white" stroke="black" />
<line x1="950" y1="143" x2="950" y2="293" stroke="black" />
<line x1="925" y1="293" x2="975" y2="293" stroke="black" />
<text x="962" y="285" font-family="Verdana" font-size="8" text-anchor="middle"  dominant-baseline="middle" fill="black" > 278</text>
<circle cx="925" cy="293" r="4" fill="white" stroke="black" />
<line x1="925" y1="297" x2="925" y2="429" stroke="black" />
<line x1="912" y1="429" x2="938" y2="429" stroke="black" />
<text x="931" y="421" font-family="Verdana" font-size="8" text-anchor="middle"  dominant-baseline="middle" fill="black" > 414</text>
<circle cx="912" cy="429" r="4" fill="white" stroke="black" />
<line x1="912" y1="433" x2="912" y2="548" stroke="black" />
<line x1="906" y1="548" x2="919" y2="548" stroke="black" />
<text x="915" y="540" font-family="Verdana" font-size="8" text-anchor="middle"  dominant-baseline="middle" fill="black" > 533</text>
<circle cx="906" cy="548" r="4" fill="white" stroke="black" />
<line x1="906" y1="552" x2="906" y2="591" stroke="black" />
<circle cx="906" cy="591" r="4" fill="white" stroke="black" />
<text x="906" y="603" font-family="Verdana" font-size="8" text-anchor="middle"  dominant-baseline="middle" fill="black" > 576</text>
<circle cx="918" cy="548" r="4" fill="white" stroke="black" />
<line x1="918" y1="552" x2="918" y2="591" stroke="black" />
<circle cx="918" cy="591" r="4" fill="white" stroke="black" />
<text x="918" y="603" font-family="Verdana" font-size="8" text-anchor="middle"  dominant-baseline="middle" fill="black" > 576</text>
<circle cx="937" cy="429" r="4" fill="white" stroke="black" />
<line x1="937" y1="433" x2="937" y2="564" stroke="black" />
<line x1="931" y1="564" x2="944" y2="564" stroke="black" />
<text x="940" y="556" font-family="Verdana" font-size="8" text-anchor="middle"  dominant-baseline="middle" fill="black" > 549</text>
<circle cx="931" cy="564" r="4" fill="white" stroke="black" />
<line x1="931" y1="568" x2="931" y2="591" stroke="black" />
<circle cx="931" cy="591" r="4" fill="white" stroke="black" />
<text x="931" y="603" font-family="Verdana" font-size="8" text-anchor="middle"  dominant-baseline="middle" fill="black" > 576</text>
<circle cx="943" cy="564" r="4" fill="white" stroke="black" />
<line x1="943" y1="568" x2="943" y2="591" stroke="black" />
<circle cx="943" cy="591" r="4" fill="white" stroke="black" />
<text x="943" y="603" font-family="Verdana" font-size="8" text-anchor="middle"  dominant-baseline="middle" fill="black" > 576</text>
<circle cx="975" cy="293" r="4" fill="white" stroke="black" />
<line x1="975" y1="297" x2="975" y2="406" stroke="black" />
<line x1="962" y1="406" x2="988" y2="406" stroke="black" />
<text x="981" y="398" font-family="Verdana" font-size="8" text-anchor="middle"  dominant-baseline="middle" fill="black" > 391</text>
<circle cx="962" cy="406" r="4" fill="white" stroke="black" />
<line x1="962" y1="410" x2="962" y2="591" stroke="black" />
<circle cx="962" cy="591" r="4" fill="white" stroke="black" />
<text x="962" y="603" font-family="Verdana" font-size="8" text-anchor="middle"  dominant-baseline="middle" fill="black" > 576</text>
<circle cx="987" cy="406" r="4" fill="white" stroke="black" />
<line x1="987" y1="410" x2="987" y2="555" stroke="black" />
<line x1="981" y1="555" x2="994" y2="555" stroke="black" />
<text x="990" y="547" font-family="Verdana" font-size="8" text-anchor="middle"  dominant-baseline="middle" fill="black" > 540</text>
<circle cx="981" cy="555" r="4" fill="white" stroke="black" />
<line x1="981" y1="559" x2="981" y2="591" stroke="black" />
<circle cx="981" cy="591" r="4" fill="white" stroke="black" />
<text x="981" y="603" font-family="Verdana" font-size="8" text-anchor="middle"  dominant-baseline="middle" fill="black" > 576</text>
<circle cx="993" cy="555" r="4" fill="white" stroke="black" />
<line x1="993" y1="559" x2="993" y2="591" stroke="black" />
<circle cx="993" cy="591" r="4" fill="white" stroke="black" />
<text x="993" y="603" font-family="Verdana" font-size="8" text-anchor="middle"  dominant-baseline="middle" fill="black" > 576</text>
<text x="1050" y="7" font-family="Verdana" font-size="7" text-anchor="middle"  dominant-baseline="middle" fill="black" > C7</text>
<circle cx="1050" cy="15" r="4" fill="white" stroke="black" />
<line x1="1050" y1="19" x2="1050" y2="74" stroke="black" />
<line x1="1046" y1="78" x2="1050" y2="70" stroke="blue" />
<line x1="1050" y1="78" x2="1054" y2="70" stroke="blue" />
<text x="1050" y="86" font-family="Verdana" font-size="8" text-anchor="middle"  dominant-baseline="middle" fill="black" > 59</text>
<text x="1150" y="7" font-family="Verdana" font-size="7" text-anchor="middle"  dominant-baseline="middle" fill="black" > C8</text>
<circle cx="1150" cy="15" r="4" fill="white" stroke="black" />
<line x1="1150" y1="19" x2="1150" y2="494" stroke="black" />
<line x1="1146" y1="490" x2="1154" y2="498" stroke="red" />
<line x1="1146" y1="498" x2="1154" y2="490" stroke="red" />
<text x="1150" y="506" font-family="Verdana" font-size="8" text-anchor="middle"  dominant-baseline="middle" fill="black" > 479</text>
<text x="1300" y="7" font-family="Verdana" font-size="7" text-anchor="middle"  dominant-baseline="middle" fill="black" > C9</text>
<circle cx="1300" cy="15" r="4" fill="white" stroke="black" />
<line x1="1300" y1="19" x2="1300" y2="183" stroke="black" />
<line x1="1250" y1="183" x2="1350" y2="183" stroke="black" />
<text x="1325" y="175" font-family="Verdana" font-size="8" text-anchor="middle"  dominant-baseline="middle" fill="black" > 168</text>
<circle cx="1250" cy="183" r="4" fill="white" stroke="black" />
<line x1="1250" y1="187" x2="1250" y2="346" stroke="black" />
<line x1="1225" y1="346" x2="1275" y2="346" stroke="black" />
<text x="1262" y="338" font-family="Verdana" font-size="8" text-anchor="middle"  dominant-baseline="middle" fill="black" > 331</text>
<circle cx="1225" cy="346" r="4" fill="white" stroke="black" />
<line x1="1225" y1="350" x2="1225" y2="455" stroke="black" />
<line x1="1212" y1="455" x2="1238" y2="455" stroke="black" />
<text x="1231" y="447" font-family="Verdana" font-size="8" text-anchor="middle"  dominant-baseline="middle" fill="black" > 440</text>
<circle cx="1212" cy="455" r="4" fill="white" stroke="black" />
<line x1="1212" y1="459" x2="1212" y2="591" stroke="black" />
<circle cx="1212" cy="591" r="4" fill="white" stroke="black" />
<text x="1212" y="603" font-family="Verdana" font-size="8" text-anchor="middle"  dominant-baseline="middle" fill="black" > 576</text>
<circle cx="1237" cy="455" r="4" fill="white" stroke="black" />
<line x1="1237" y1="459" x2="1237" y2="578" stroke="black" />
<line x1="1231" y1="578" x2="1244" y2="578" stroke="black" />
<text x="1240" y="570" font-family="Verdana" font-size="8" text-anchor="middle"  dominant-baseline="middle" fill="black" > 563</text>
<circle cx="1231" cy="578" r="4" fill="white" stroke="black" />
<line x1="1231" y1="582" x2="1231" y2="591" stroke="black" />
<circle cx="1231" cy="591" r="4" fill="white" stroke="black" />
<text x="1231" y="603" font-family="Verdana" font-size="8" text-anchor="middle"  dominant-baseline="middle" fill="black" > 576</text>
<circle cx="1243" cy="578" r="4" fill="white" stroke="black" />
<line x1="1243" y1="582" x2="1243" y2="591" stroke="black" />
<circle cx="1243" cy="591" r="4" fill="white" stroke="black" />
<text x="1243" y="603" font-family="Verdana" font-size="8" text-anchor="middle"  dominant-baseline="middle" fill="black" > 576</text>
<circle cx="1275" cy="346" r="4" fill="white" stroke="black" />
<line x1="1275" y1="350" x2="1275" y2="474" stroke="black" />
<line x1="1262" y1="474" x2="1288" y2="474" stroke="black" />
<text x="1281" y="466" font-family="Verdana" font-size="8" text-anchor="middle"  dominant-baseline="middle" fill="black" > 459</text>
<circle cx="1262" cy="474" r="4" fill="white" stroke="black" />
<line x1="1262" y1="478" x2="1262" y2="582" stroke="black" />
<line x1="1256" y1="582" x2="1269" y2="582" stroke="black" />
<text x="1265" y="574" font-family="Verdana" font-size="8" text-anchor="middle"  dominant-baseline="middle" fill="black" > 567</text>
<circle cx="1256" cy="582" r="4" fill="white" stroke="black" />
<line x1="1256" y1="586" x2="1256" y2="591" stroke="black" />
<circle cx="1256" cy="591" r="4" fill="white" stroke="black" />
<text x="1256" y="603" font-family="Verdana" font-size="8" text-anchor="middle"  dominant-baseline="middle" fill="black" > 576</text>
<circle cx="1268" cy="582" r="4" fill="white" stroke="black" />
<line x1="1268" y1="586" x2="1268" y2="591" stroke="black" />
<circle cx="1268" cy="591" r="4" fill="white" stroke="black" />
<text x="1268" y="603" font-family="Verdana" font-size="8" text-anchor="middle"  dominant-baseline="middle" fill="black" > 576</text>
<circle cx="1287" cy="474" r="4" fill="white" stroke="black" />
<line x1="1287" y1="478" x2="1287" y2="582" stroke="black" />
<line x1="1281" y1="582" x2="1294" y2="582" stroke="black" />
<text x="1290" y="574" font-family="Verdana" font-size="8" text-anchor="middle"  dominant-baseline="middle" fill="black" > 567</text>
<circle cx="1281" cy="582" r="4" fill="white" stroke="black" />
<line x1="1281" y1="586" x2="1281" y2="591" stroke="black" />
<circle cx="1281" cy="591" r="4" fill="white" stroke="black" />
<text x="1281" y="603" font-family="Verdana" font-size="8" text-anchor="middle"  dominant-baseline="middle" fill="black" > 576</text>
<circle cx="1293" cy="582" r="4" fill="white" stroke="black" />
<line x1="1293" y1="586" x2="1293" y2="591" stroke="black" />
<circle cx="1293" cy="591" r="4" fill="white" stroke="black" />
<text x="1293" y="603" font-family="Verdana" font-size="8" text-anchor="middle"  dominant-baseline="middle" fill="black" > 576</text>
<circle cx="1350" cy="183" r="4" fill="white" stroke="black" />
<line x1="1350" y1="187" x2="1350" y2="325" stroke="black" />
<line x1="1325" y1="325" x2="1375" y2="325" stroke="black" />
<text x="1362" y="317" font-family="Verdana" font-size="8" text-anchor="middle"  dominant-baseline="middle" fill="black" > 310</text>
<circle cx="1325" cy="325" r="4" fill="white" stroke="black" />
<line x1="1325" y1="329" x2="1325" y2="496" stroke="black" />
<line x1="1312" y1="496" x2="1338" y2="496" stroke="black" />
<text x="1331" y="488" font-family="Verdana" font-size="8" text-anchor="middle"  dominant-baseline="middle" fill="black" > 481</text>
<circle cx="1312" cy="496" r="4" fill="white" stroke="black" />
<line x1="1312" y1="500" x2="1312" y2="591" stroke="black" />
<circle cx="1312" cy="591" r="4" fill="white" stroke="black" />
<text x="1312" y="603" font-family="Verdana" font-size="8" text-anchor="middle"  dominant-baseline="middle" fill="black" > 576</text>
<circle cx="1337" cy="496" r="4" fill="white" stroke="black" />
<line x1="1337" y1="500" x2="1337" y2="587" stroke="black" />
<line x1="1331" y1="587" x2="1344" y2="587" stroke="black" />
<text x="1340" y="579" font-family="Verdana" font-size="8" text-anchor="middle"  dominant-baseline="middle" fill="black" > 572</text>
<circle cx="1331" cy="587" r="4" fill="white" stroke="black" />
<line x1="1331" y1="591" x2="1331" y2="591" stroke="black" />
<circle cx="1331" cy="591" r="4" fill="white" stroke="black" />
<text x="1331" y="603" font-family="Verdana" font-size="8" text-anchor="middle"  dominant-baseline="middle" fill="black" > 576</text>
<circle cx="1343" cy="587" r="4" fill="white" stroke="black" />
<line x1="1343" y1="591" x2="1343" y2="591" stroke="black" />
<circle cx="1343" cy="591" r="4" fill="white" stroke="black" />
<text x="1343" y="603" font-family="Verdana" font-size="8" text-anchor="middle"  dominant-baseline="middle" fill="black" > 576</text>
<circle cx="1375" cy="325" r="4" fill="white" stroke="black" />
<line x1="1375" y1="329" x2="1375" y2="469" stroke="black" />
<line x1="1362" y1="469" x2="1388" y2="469" stroke="black" />
<text x="1381" y="461" font-family="Verdana" font-size="8" text-anchor="middle"  dominant-baseline="middle" fill="black" > 454</text>
<circle cx="1362" cy="469" r="4" fill="white" stroke="black" />
<line x1="1362" y1="473" x2="1362" y2="591" stroke="black" />
<circle cx="1362" cy="591" r="4" fill="white" stroke="black" />
<text x="1362" y="603" font-family="Verdana" font-size="8" text-anchor="middle"  dominant-baseline="middle" fill="black" > 576</text>
<circle cx="1387" cy="469" r="4" fill="white" stroke="black" />
<line x1="1387" y1="473" x2="1387" y2="591" stroke="black" />
<circle cx="1387" cy="591" r="4" fill="white" stroke="black" />
<text x="1387" y="603" font-family="Verdana" font-size="8" text-anchor="middle"  dominant-baseline="middle" fill="black" > 576</text>
<text x="1500" y="7" font-family="Verdana" font-size="7" text-anchor="middle"  dominant-baseline="middle" fill="black" > C10</text>
<circle cx="1500" cy="15" r="4" fill="white" stroke="black" />
<line x1="1500" y1="19" x2="1500" y2="175" stroke="black" />
<line x1="1450" y1="175" x2="1550" y2="175" stroke="black" />
<text x="1525" y="167" font-family="Verdana" font-size="8" text-anchor="middle"  dominant-baseline="middle" fill="black" > 160</text>
<circle cx="1450" cy="175" r="4" fill="white" stroke="black" />
<line x1="1450" y1="179" x2="1450" y2="338" stroke="black" />
<line x1="1425" y1="338" x2="1475" y2="338" stroke="black" />
<text x="1462" y="330" font-family="Verdana" font-size="8" text-anchor="middle"  dominant-baseline="middle" fill="black" > 323</text>
<circle cx="1425" cy="338" r="4" fill="white" stroke="black" />
<line x1="1425" y1="342" x2="1425" y2="465" stroke="black" />
<line x1="1412" y1="465" x2="1438" y2="465" stroke="black" />
<text x="1431" y="457" font-family="Verdana" font-size="8" text-anchor="middle"  dominant-baseline="middle" fill="black" > 450</text>
<circle cx="1412" cy="465" r="4" fill="white" stroke="black" />
<line x1="1412" y1="469" x2="1412" y2="591" stroke="black" />
<circle cx="1412" cy="591" r="4" fill="white" stroke="black" />
<text x="1412" y="603" font-family="Verdana" font-size="8" text-anchor="middle"  dominant-baseline="middle" fill="black" > 576</text>
<circle cx="1437" cy="465" r="4" fill="white" stroke="black" />
<line x1="1437" y1="469" x2="1437" y2="591" stroke="black" />
<circle cx="1437" cy="591" r="4" fill="white" stroke="black" />
<text x="1437" y="603" font-family="Verdana" font-size="8" text-anchor="middle"  dominant-baseline="middle" fill="black" > 576</text>
<circle cx="1475" cy="338" r="4" fill="white" stroke="black" />
<line x1="1475" y1="342" x2="1475" y2="506" stroke="black" />
<line x1="1462" y1="506" x2="1488" y2="506" stroke="black" />
<text x="1481" y="498" font-family="Verdana" font-size="8" text-anchor="middle"  dominant-baseline="middle" fill="black" > 491</text>
<circle cx="1462" cy="506" r="4" fill="white" stroke="black" />
<line x1="1462" y1="510" x2="1462" y2="591" stroke="black" />
<circle cx="1462" cy="591" r="4" fill="white" stroke="black" />
<text x="1462" y="603" font-family="Verdana" font-size="8" text-anchor="middle"  dominant-baseline="middle" fill="black" > 576</text>
<circle cx="1487" cy="506" r="4" fill="white" stroke="black" />
<line x1="1487" y1="510" x2="1487" y2="591" stroke="black" />
<circle cx="1487" cy="591" r="4" fill="white" stroke="black" />
<text x="1487" y="603" font-family="Verdana" font-size="8" text-anchor="middle"  dominant-baseline="middle" fill="black" > 576</text>
<circle cx="1550" cy="175" r="4" fill="white" stroke="black" />
<line x1="1550" y1="179" x2="1550" y2="316" stroke="black" />
<line x1="1525" y1="316" x2="1575" y2="316" stroke="black" />
<text x="1562" y="308" font-family="Verdana" font-size="8" text-anchor="middle"  dominant-baseline="middle" fill="black" > 301</text>
<circle cx="1525" cy="316" r="4" fill="white" stroke="black" />
<line x1="1525" y1="320" x2="1525" y2="444" stroke="black" />
<line x1="1512" y1="444" x2="1538" y2="444" stroke="black" />
<text x="1531" y="436" font-family="Verdana" font-size="8" text-anchor="middle"  dominant-baseline="middle" fill="black" > 429</text>
<circle cx="1512" cy="444" r="4" fill="white" stroke="black" />
<line x1="1512" y1="448" x2="1512" y2="591" stroke="black" />
<circle cx="1512" cy="591" r="4" fill="white" stroke="black" />
<text x="1512" y="603" font-family="Verdana" font-size="8" text-anchor="middle"  dominant-baseline="middle" fill="black" > 576</text>
<circle cx="1537" cy="444" r="4" fill="white" stroke="black" />
<line x1="1537" y1="448" x2="1537" y2="591" stroke="black" />
<circle cx="1537" cy="591" r="4" fill="white" stroke="black" />
<text x="1537" y="603" font-family="Verdana" font-size="8" text-anchor="middle"  dominant-baseline="middle" fill="black" > 576</text>
<circle cx="1575" cy="316" r="4" fill="white" stroke="black" />
<line x1="1575" y1="320" x2="1575" y2="447" stroke="black" />
<line x1="1562" y1="447" x2="1588" y2="447" stroke="black" />
<text x="1581" y="439" font-family="Verdana" font-size="8" text-anchor="middle"  dominant-baseline="middle" fill="black" > 432</text>
<circle cx="1562" cy="447" r="4" fill="white" stroke="black" />
<line x1="1562" y1="451" x2="1562" y2="591" stroke="black" />
<circle cx="1562" cy="591" r="4" fill="white" stroke="black" />
<text x="1562" y="603" font-family="Verdana" font-size="8" text-anchor="middle"  dominant-baseline="middle" fill="black" > 576</text>
<circle cx="1587" cy="447" r="4" fill="white" stroke="black" />
<line x1="1587" y1="451" x2="1587" y2="591" stroke="black" />
<circle cx="1587" cy="591" r="4" fill="white" stroke="black" />
<text x="1587" y="603" font-family="Verdana" font-size="8" text-anchor="middle"  dominant-baseline="middle" fill="black" > 576</text>
<text x="1700" y="7" font-family="Verdana" font-size="7" text-anchor="middle"  dominant-baseline="middle" fill="black" > C11</text>
<circle cx="1700" cy="15" r="4" fill="white" stroke="black" />
<line x1="1700" y1="19" x2="1700" y2="99" stroke="black" />
<line x1="1650" y1="99" x2="1750" y2="99" stroke="black" />
<text x="1725" y="91" font-family="Verdana" font-size="8" text-anchor="middle"  dominant-baseline="middle" fill="black" > 84</text>
<circle cx="1650" cy="99" r="4" fill="white" stroke="black" />
<line x1="1650" y1="103" x2="1650" y2="285" stroke="black" />
<line x1="1625" y1="285" x2="1675" y2="285" stroke="black" />
<text x="1662" y="277" font-family="Verdana" font-size="8" text-anchor="middle"  dominant-baseline="middle" fill="black" > 270</text>
<circle cx="1625" cy="285" r="4" fill="white" stroke="black" />
<line x1="1625" y1="289" x2="1625" y2="390" stroke="black" />
<line x1="1612" y1="390" x2="1638" y2="390" stroke="black" />
<text x="1631" y="382" font-family="Verdana" font-size="8" text-anchor="middle"  dominant-baseline="middle" fill="black" > 375</text>
<circle cx="1612" cy="390" r="4" fill="white" stroke="black" />
<line x1="1612" y1="394" x2="1612" y2="517" stroke="black" />
<line x1="1606" y1="517" x2="1619" y2="517" stroke="black" />
<text x="1615" y="509" font-family="Verdana" font-size="8" text-anchor="middle"  dominant-baseline="middle" fill="black" > 502</text>
<circle cx="1606" cy="517" r="4" fill="white" stroke="black" />
<line x1="1606" y1="521" x2="1606" y2="591" stroke="black" />
<circle cx="1606" cy="591" r="4" fill="white" stroke="black" />
<text x="1606" y="603" font-family="Verdana" font-size="8" text-anchor="middle"  dominant-baseline="middle" fill="black" > 576</text>
<circle cx="1618" cy="517" r="4" fill="white" stroke="black" />
<line x1="1618" y1="521" x2="1618" y2="591" stroke="black" />
<circle cx="1618" cy="591" r="4" fill="white" stroke="black" />
<text x="1618" y="603" font-family="Verdana" font-size="8" text-anchor="middle"  dominant-baseline="middle" fill="black" > 576</text>
<circle cx="1637" cy="390" r="4" fill="white" stroke="black" />
<line x1="1637" y1="394" x2="1637" y2="517" stroke="black" />
<line x1="1631" y1="517" x2="1644" y2="517" stroke="black" />
<text x="1640" y="509" font-family="Verdana" font-size="8" text-anchor="middle"  dominant-baseline="middle" fill="black" > 502</text>
<circle cx="1631" cy="517" r="4" fill="white" stroke="black" />
<line x1="1631" y1="521" x2="1631" y2="591" stroke="black" />
<circle cx="1631" cy="591" r="4" fill="white" stroke="black" />
<text x="1631" y="603" font-family="Verdana" font-size="8" text-anchor="middle"  dominant-baseline="middle" fill="black" > 576</text>
<circle cx="1643" cy="517" r="4" fill="white" stroke="black" />
<line x1="1643" y1="521" x2="1643" y2="591" stroke="black" />
<circle cx="1643" cy="591" r="4" fill="white" stroke="black" />
<text x="1643" y="603" font-family="Verdana" font-size="8" text-anchor="middle"  dominant-baseline="middle" fill="black" > 576</text>
<circle cx="1675" cy="285" r="4" fill="white" stroke="black" />
<line x1="1675" y1="289" x2="1675" y2="396" stroke="black" />
<line x1="1662" y1="396" x2="1688" y2="396" stroke="black" />
<text x="1681" y="388" font-family="Verdana" font-size="8" text-anchor="middle"  dominant-baseline="middle" fill="black" > 381</text>
<circle cx="1662" cy="396" r="4" fill="white" stroke="black" />
<line x1="1662" y1="400" x2="1662" y2="536" stroke="black" />
<line x1="1656" y1="536" x2="1669" y2="536" stroke="black" />
<text x="1665" y="528" font-family="Verdana" font-size="8" text-anchor="middle"  dominant-baseline="middle" fill="black" > 521</text>
<circle cx="1656" cy="536" r="4" fill="white" stroke="black" />
<line x1="1656" y1="540" x2="1656" y2="591" stroke="black" />
<circle cx="1656" cy="591" r="4" fill="white" stroke="black" />
<text x="1656" y="603" font-family="Verdana" font-size="8" text-anchor="middle"  dominant-baseline="middle" fill="black" > 576</text>
<circle cx="1668" cy="536" r="4" fill="white" stroke="black" />
<line x1="1668" y1="540" x2="1668" y2="591" stroke="black" />
<circle cx="1668" cy="591" r="4" fill="white" stroke="black" />
<text x="1668" y="603" font-family="Verdana" font-size="8" text-anchor="middle"  dominant-baseline="middle" fill="black" > 576</text>
<circle cx="1687" cy="396" r="4" fill="white" stroke="black" />
<line x1="1687" y1="400" x2="1687" y2="522" stroke="black" />
<line x1="1681" y1="522" x2="1694" y2="522" stroke="black" />
<text x="1690" y="514" font-family="Verdana" font-size="8" text-anchor="middle"  dominant-baseline="middle" fill="black" > 507</text>
<circle cx="1681" cy="522" r="4" fill="white" stroke="black" />
<line x1="1681" y1="526" x2="1681" y2="591" stroke="black" />
<circle cx="1681" cy="591" r="4" fill="white" stroke="black" />
<text x="1681" y="603" font-family="Verdana" font-size="8" text-anchor="middle"  dominant-baseline="middle" fill="black" > 576</text>
<circle cx="1693" cy="522" r="4" fill="white" stroke="black" />
<line x1="1693" y1="526" x2="1693" y2="591" stroke="black" />
<circle cx="1693" cy="591" r="4" fill="white" stroke="black" />
<text x="1693" y="603" font-family="Verdana" font-size="8" text-anchor="middle"  dominant-baseline="middle" fill="black" > 576</text>
<circle cx="1750" cy="99" r="4" fill="white" stroke="black" />
<line x1="1750" y1="103" x2="1750" y2="269" stroke="black" />
<line x1="1725" y1="269" x2="1775" y2="269" stroke="black" />
<text x="1762" y="261" font-family="Verdana" font-size="8" text-anchor="middle"  dominant-baseline="middle" fill="black" > 254</text>
<circle cx="1725" cy="269" r="4" fill="white" stroke="black" />
<line x1="1725" y1="273" x2="1725" y2="454" stroke="black" />
<line x1="1712" y1="454" x2="1738" y2="454" stroke="black" />
<text x="1731" y="446" font-family="Verdana" font-size="8" text-anchor="middle"  dominant-baseline="middle" fill="black" > 439</text>
<circle cx="1712" cy="454" r="4" fill="white" stroke="black" />
<line x1="1712" y1="458" x2="1712" y2="591" stroke="black" />
<circle cx="1712" cy="591" r="4" fill="white" stroke="black" />
<text x="1712" y="603" font-family="Verdana" font-size="8" text-anchor="middle"  dominant-baseline="middle" fill="black" > 576</text>
<circle cx="1737" cy="454" r="4" fill="white" stroke="black" />
<line x1="1737" y1="458" x2="1737" y2="591" stroke="black" />
<circle cx="1737" cy="591" r="4" fill="white" stroke="black" />
<text x="1737" y="603" font-family="Verdana" font-size="8" text-anchor="middle"  dominant-baseline="middle" fill="black" > 576</text>
<circle cx="1775" cy="269" r="4" fill="white" stroke="black" />
<line x1="1775" y1="273" x2="1775" y2="416" stroke="black" />
<line x1="1762" y1="416" x2="1788" y2="416" stroke="black" />
<text x="1781" y="408" font-family="Verdana" font-size="8" text-anchor="middle"  dominant-baseline="middle" fill="black" > 401</text>
<circle cx="1762" cy="416" r="4" fill="white" stroke="black" />
<line x1="1762" y1="420" x2="1762" y2="551" stroke="black" />
<line x1="1756" y1="551" x2="1769" y2="551" stroke="black" />
<text x="1765" y="543" font-family="Verdana" font-size="8" text-anchor="middle"  dominant-baseline="middle" fill="black" > 536</text>
<circle cx="1756" cy="551" r="4" fill="white" stroke="black" />
<line x1="1756" y1="555" x2="1756" y2="591" stroke="black" />
<circle cx="1756" cy="591" r="4" fill="white" stroke="black" />
<text x="1756" y="603" font-family="Verdana" font-size="8" text-anchor="middle"  dominant-baseline="middle" fill="black" > 576</text>
<circle cx="1768" cy="551" r="4" fill="white" stroke="black" />
<line x1="1768" y1="555" x2="1768" y2="591" stroke="black" />
<circle cx="1768" cy="591" r="4" fill="white" stroke="black" />
<text x="1768" y="603" font-family="Verdana" font-size="8" text-anchor="middle"  dominant-baseline="middle" fill="black" > 576</text>
<circle cx="1787" cy="416" r="4" fill="white" stroke="black" />
<line x1="1787" y1="420" x2="1787" y2="552" stroke="black" />
<line x1="1781" y1="552" x2="1794" y2="552" stroke="black" />
<text x="1790" y="544" font-family="Verdana" font-size="8" text-anchor="middle"  dominant-baseline="middle" fill="black" > 537</text>
<circle cx="1781" cy="552" r="4" fill="white" stroke="black" />
<line x1="1781" y1="556" x2="1781" y2="591" stroke="black" />
<circle cx="1781" cy="591" r="4" fill="white" stroke="black" />
<text x="1781" y="603" font-family="Verdana" font-size="8" text-anchor="middle"  dominant-baseline="middle" fill="black" > 576</text>
<circle cx="1793" cy="552" r="4" fill="white" stroke="black" />
<line x1="1793" y1="556" x2="1793" y2="591" stroke="black" />
<circle cx="1793" cy="591" r="4" fill="white" stroke="black" />
<text x="1793" y="603" font-family="Verdana" font-size="8" text-anchor="middle"  dominant-baseline="middle" fill="black" > 576</text>
</svg>
