<?xml version="1.0" encoding="utf-8"?>
<svg xmlns="http://www.w3.org/2000/svg" version="1.1" width="1050" height="750">
<rect width="1050" height="15" x="0" y="0" fill="white" />
<rect width="1050" height="15" x="0" y="735" fill="white" />
<rect width="25" height="750" x="0" y="0" fill="white" />
<rect width="25" height="750" x="1025" y="0" fill="white" />
<rect width="1010" height="144" x="25" y="15" fill="ghostwhite" />
<rect width="1010" height="144" x="25" y="159" fill="snow" />
<rect width="1010" height="144" x="25" y="303" fill="ghostwhite" />
<rect width="1010" height="144" x="25" y="447" fill="snow" />
<rect width="1010" height="144" x="25" y="591" fill="ghostwhite" />
<text x="12" y="87" font-family="Verdana" font-size="10" text-anchor="middle"  dominant-baseline="middle" fill="red" > D0</text>
<text x="12" y="231" font-family="Verdana" font-size="10" text-anchor="middle"  dominant-baseline="middle" fill="red" > D1</text>
<text x="12" y="375" font-family="Verdana" font-size="10" text-anchor="middle"  dominant-baseline="middle" fill="red" > D2</text>
<text x="12" y="519" font-family="Verdana" font-size="10" text-anchor="middle"  dominant-baseline="middle" fill="red" > D3</text>
<text x="12" y="663" font-family="Verdana" font-size="10" text-anchor="middle"  dominant-baseline="middle" fill="red" > D4</text>
<text x="12" y="20" font-family="Verdana" font-size="10" text-anchor="middle"  dominant-baseline="middle" fill="black" > 0</text>
<text x="12" y="164" font-family="Verdana" font-size="10" text-anchor="middle"  dominant-baseline="middle" fill="black" > 144</text>
<text x="12" y="308" font-family="Verdana" font-size="10" text-anchor="middle"  dominant-baseline="middle" fill="black" > 288</text>
<text x="12" y="452" font-family="Verdana" font-size="10" text-anchor="middle"  dominant-baseline="middle" fill="black" > 432</text>
<text x="12" y="596" font-family="Verdana" font-size="10" text-anchor="middle"  dominant-baseline="middle" fill="black" > 576</text>
<text x="12" y="740" font-family="Verdana" font-size="10" text-anchor="middle"  dominant-baseline="middle" fill="black" > 720</text>
<text x="100" y="7" font-family="Verdana" font-size="7" text-anchor="middle"  dominant-baseline="middle" fill="black" > C1</text>
<circle cx="100" cy="15" r="4" fill="white" stroke="black" />
<line x1="100" y1="19" x2="100" y2="166" stroke="black" />
<line x1="50" y1="166" x2="150" y2="166" stroke="black" />
<text x="125" y="158" font-family="Verdana" font-size="8" text-anchor="middle"  dominant-baseline="middle" fill="black" > 151</text>
<circle cx="50" cy="166" r="4" fill="white" stroke="black" />
<line x1="50" y1="170" x2="50" y2="438" stroke="black" />
<line x1="46" y1="442" x2="50" y2="434" stroke="blue" />
<line x1="50" y1="442" x2="54" y2="434" stroke="blue" />
<text x="50" y="450" font-family="Verdana" font-size="8" text-anchor="middle"  dominant-baseline="middle" fill="black" > 423</text>
<circle cx="150" cy="166" r="4" fill="white" stroke="black" />
<line x1="150" y1="170" x2="150" y2="378" stroke="black" />
<line x1="125" y1="378" x2="175" y2="378" stroke="black" />
<text x="162" y="370" font-family="Verdana" font-size="8" text-anchor="middle"  dominant-baseline="middle" fill="black" > 363</text>
<circle cx="125" cy="378" r="4" fill="white" stroke="black" />
<circle cx="175" cy="378" r="4" fill="white" stroke="black" />
<line x1="125" y1="382" x2="125" y2="390" stroke="black" />
<line x1="125" y1="390" x2="150" y2="394" stroke="black" />
<line x1="175" y1="382" x2="175" y2="390" stroke="black" />
<line x1="175" y1="390" x2="150" y2="394" stroke="black" />
<text x="150" y="382" font-family="Verdana" font-size="8" text-anchor="middle"  dominant-baseline="middle" fill="black" > 379</text>
<circle cx="150" cy="394" r="4" fill="white" stroke="black" />
<line x1="150" y1="398" x2="150" y2="615" stroke="black" />
<line x1="146" y1="619" x2="150" y2="611" stroke="blue" />
<line x1="150" y1="619" x2="154" y2="611" stroke="blue" />
<text x="150" y="627" font-family="Verdana" font-size="8" text-anchor="middle"  dominant-baseline="middle" fill="black" > 600</text>
<text x="350" y="7" font-family="Verdana" font-size="7" text-anchor="middle"  dominant-baseline="middle" fill="black" > C2</text>
<circle cx="350" cy="15" r="4" fill="white" stroke="black" />
<line x1="350" y1="19" x2="350" y2="316" stroke="black" />
<line x1="250" y1="316" x2="450" y2="316" stroke="black" />
<text x="375" y="308" font-family="Verdana" font-size="8" text-anchor="middle"  dominant-baseline="middle" fill="black" > 301</text>
<circle cx="250" cy="316" r="4" fill="white" stroke="black" />
<line x1="250" y1="320" x2="250" y2="419" stroke="black" />
<line x1="246" y1="415" x2="254" y2="423" stroke="red" />
<line x1="246" y1="423" x2="254" y2="415" stroke="red" />
<text x="250" y="431" font-family="Verdana" font-size="8" text-anchor="middle"  dominant-baseline="middle" fill="black" > 404</text>
<circle cx="350" cy="316" r="4" fill="white" stroke="black" />
<line x1="350" y1="320" x2="350" y2="420" stroke="black" />
<line x1="346" y1="416" x2="354" y2="424" stroke="red" />
<line x1="346" y1="424" x2="354" y2="416" stroke="red" />
<text x="350" y="432" font-family="Verdana" font-size="8" text-anchor="middle"  dominant-baseline="middle" fill="black" > 405</text>
<circle cx="450" cy="316" r="4" fill="white" stroke="black" />
<line x1="450" y1="320" x2="450" y2="425" stroke="black" />
<line x1="446" y1="421" x2="454" y2="429" stroke="red" />
<line x1="446" y1="429" x2="454" y2="421" stroke="red" />
<text x="450" y="437" font-family="Verdana" font-size="8" text-anchor="middle"  dominant-baseline="middle" fill="black" > 410</text>
<text x="600" y="7" font-family="Verdana" font-size="7" text-anchor="middle"  dominant-baseline="middle" fill="black" > C3</text>
<circle cx="600" cy="15" r="4" fill="white" stroke="black" />
<line x1="600" y1="19" x2="600" y2="204" stroke="black" />
<line x1="550" y1="204" x2="650" y2="204" stroke="black" />
<text x="625" y="196" font-family="Verdana" font-size="8" text-anchor="middle"  dominant-baseline="middle" fill="black" > 189</text>
<circle cx="550" cy="204" r="4" fill="white" stroke="black" />
<line x1="550" y1="208" x2="550" y2="424" stroke="black" />
<line x1="516" y1="424" x2="584" y2="424" stroke="black" />
<text x="558" y="416" font-family="Verdana" font-size="8" text-anchor="middle"  dominant-baseline="middle" fill="black" > 409</text>
<circle cx="516" cy="424" r="4" fill="white" stroke="black" />
<circle cx="549" cy="424" r="4" fill="white" stroke="black" />
<line x1="516" y1="428" x2="516" y2="441" stroke="black" />
<line x1="516" y1="441" x2="532" y2="446" stroke="black" />
<line x1="549" y1="428" x2="549" y2="441" stroke="black" />
<line x1="549" y1="441" x2="532" y2="446" stroke="black" />
<text x="532" y="434" font-family="Verdana" font-size="8" text-anchor="middle"  dominant-baseline="middle" fill="black" > 431</text>
<circle cx="532" cy="446" r="4" fill="white" stroke="black" />
<line x1="532" y1="450" x2="532" y2="577" stroke="black" />
<line x1="528" y1="573" x2="536" y2="581" stroke="red" />
<line x1="528" y1="581" x2="536" y2="573" stroke="red" />
<text x="532" y="589" font-family="Verdana" font-size="8" text-anchor="middle"  dominant-baseline="middle" fill="black" > 562</text>
<circle cx="582" cy="424" r="4" fill="white" stroke="black" />
<line x1="582" y1="428" x2="582" y2="547" stroke="black" />
<line x1="578" y1="543" x2="586" y2="551" stroke="red" />
<line x1="578" y1="551" x2="586" y2="543" stroke="red" />
<text x="582" y="559" font-family="Verdana" font-size="8" text-anchor="middle"  dominant-baseline="middle" fill="black" > 532</text>
<circle cx="650" cy="204" r="4" fill="white" stroke="black" />
<line x1="650" y1="208" x2="650" y2="374" stroke="black" />
<line x1="625" y1="374" x2="675" y2="374" stroke="black" />
<text x="662" y="366" font-family="Verdana" font-size="8" text-anchor="middle"  dominant-baseline="middle" fill="black" > 359</text>
<circle cx="625" cy="374" r="4" fill="white" stroke="black" />
<line x1="625" y1="378" x2="625" y2="736" stroke="black" />
<circle cx="625" cy="736" r="4" fill="white" stroke="black" />
<text x="625" y="748" font-family="Verdana" font-size="8" text-anchor="middle"  dominant-baseline="middle" fill="black" > 721</text>
<circle cx="675" cy="374" r="4" fill="white" stroke="black" />
<line x1="675" y1="378" x2="675" y2="736" stroke="black" />
<circle cx="675" cy="736" r="4" fill="white" stroke="black" />
<text x="675" y="748" font-family="Verdana" font-size="8" text-anchor="middle"  dominant-baseline="middle" fill="black" > 721</text>
<text x="750" y="7" font-family="Verdana" font-size="7" text-anchor="middle"  dominant-baseline="middle" fill="black" > C4</text>
<circle cx="750" cy="15" r="4" fill="white" stroke="black" />
<line x1="750" y1="19" x2="750" y2="736" stroke="black" />
<circle cx="750" cy="736" r="4" fill="white" stroke="black" />
<text x="750" y="748" font-family="Verdana" font-size="8" text-anchor="middle"  dominant-baseline="middle" fill="black" > 721</text>
<text x="900" y="7" font-family="Verdana" font-size="7" text-anchor="middle"  dominant-baseline="middle" fill="black" > C5</text>
<circle cx="900" cy="15" r="4" fill="white" stroke="black" />
<line x1="900" y1="19" x2="900" y2="165" stroke="black" />
<line x1="850" y1="165" x2="950" y2="165" stroke="black" />
<text x="925" y="157" font-family="Verdana" font-size="8" text-anchor="middle"  dominant-baseline="middle" fill="black" > 150</text>
<circle cx="850" cy="165" r="4" fill="white" stroke="black" />
<circle cx="950" cy="165" r="4" fill="white" stroke="black" />
<line x1="850" y1="169" x2="850" y2="210" stroke="black" />
<line x1="850" y1="210" x2="900" y2="225" stroke="black" />
<line x1="950" y1="169" x2="950" y2="210" stroke="black" />
<line x1="950" y1="210" x2="900" y2="225" stroke="black" />
<text x="900" y="213" font-family="Verdana" font-size="8" text-anchor="middle"  dominant-baseline="middle" fill="black" > 210</text>
<circle cx="900" cy="225" r="4" fill="white" stroke="black" />
<line x1="900" y1="229" x2="900" y2="314" stroke="black" />
<line x1="896" y1="310" x2="904" y2="318" stroke="red" />
<line x1="896" y1="318" x2="904" y2="310" stroke="red" />
<text x="900" y="326" font-family="Verdana" font-size="8" text-anchor="middle"  dominant-baseline="middle" fill="black" > 299</text>
</svg>
