<?xml version="1.0" encoding="utf-8"?>
<svg xmlns="http://www.w3.org/2000/svg" version="1.1" width="1950" height="750">
<rect width="1950" height="15" x="0" y="0" fill="white" />
<rect width="1950" height="15" x="0" y="735" fill="white" />
<rect width="25" height="750" x="0" y="0" fill="white" />
<rect width="25" height="750" x="1925" y="0" fill="white" />
<rect width="1910" height="144" x="25" y="15" fill="ghostwhite" />
<rect width="1910" height="144" x="25" y="159" fill="snow" />
<rect width="1910" height="144" x="25" y="303" fill="ghostwhite" />
<rect width="1910" height="144" x="25" y="447" fill="snow" />
<rect width="1910" height="144" x="25" y="591" fill="ghostwhite" />
<text x="12" y="87" font-family="Verdana" font-size="10" text-anchor="middle"  dominant-baseline="middle" fill="red" > D0</text>
<text x="12" y="231" font-family="Verdana" font-size="10" text-anchor="middle"  dominant-baseline="middle" fill="red" > D1</text>
<text x="12" y="375" font-family="Verdana" font-size="10" text-anchor="middle"  dominant-baseline="middle" fill="red" > D2</text>
<text x="12" y="519" font-family="Verdana" font-size="10" text-anchor="middle"  dominant-baseline="middle" fill="red" > D3</text>
<text x="12" y="663" font-family="Verdana" font-size="10" text-anchor="middle"  dominant-baseline="middle" fill="red" > D4</text>
<text x="12" y="20" font-family="Verdana" font-size="10" text-anchor="middle"  dominant-baseline="middle" fill="black" > 0</text>
<text x="12" y="164" font-family="Verdana" font-size="10" text-anchor="middle"  dominant-baseline="middle" fill="black" > 144</text>
<text x="12" y="308" font-family="Verdana" font-size="10" text-anchor="middle"  dominant-baseline="middle" fill="black" > 288</text>
<text x="12" y="452" font-family="Verdana" font-size="10" text-anchor="middle"  dominant-baseline="middle" fill="black" > 432</text>
<text x="12" y="596" font-family="Verdana" font-size="10" text-anchor="middle"  dominant-baseline="middle" fill="black" > 576</text>
<text x="12" y="740" font-family="Verdana" font-size="10" text-anchor="middle"  dominant-baseline="middle" fill="black" > 720</text>
<text x="100" y="7" font-family="Verdana" font-size="7" text-anchor="middle"  dominant-baseline="middle" fill="black" > C1</text>
<circle cx="100" cy="15" r="4" fill="white" stroke="black" />
<line x1="100" y1="19" x2="100" y2="347" stroke="black" />
<line x1="50" y1="347" x2="150" y2="347" stroke="black" />
<text x="125" y="339" font-family="Verdana" font-size="8" text-anchor="middle"  dominant-baseline="middle" fill="black" > 332</text>
<circle cx="50" cy="347" r="4" fill="white" stroke="black" />
<line x1="50" y1="351" x2="50" y2="736" stroke="black" />
<circle cx="50" cy="736" r="4" fill="white" stroke="black" />
<text x="50" y="748" font-family="Verdana" font-size="8" text-anchor="middle"  dominant-baseline="middle" fill="black" > 721</text>
<circle cx="150" cy="347" r="4" fill="white" stroke="black" />
<line x1="150" y1="351" x2="150" y2="736" stroke="black" />
<line x1="146" y1="732" x2="154" y2="740" stroke="red" />
<line x1="146" y1="740" x2="154" y2="732" stroke="red" />
<text x="150" y="748" font-family="Verdana" font-size="8" text-anchor="middle"  dominant-baseline="middle" fill="black" > 721</text>
<text x="300" y="7" font-family="Verdana" font-size="7" text-anchor="middle"  dominant-baseline="middle" fill="black" > C2</text>
<circle cx="300" cy="15" r="4" fill="white" stroke="black" />
<line x1="300" y1="19" x2="300" y2="163" stroke="black" />
<line x1="250" y1="163" x2="350" y2="163" stroke="black" />
<text x="325" y="155" font-family="Verdana" font-size="8" text-anchor="middle"  dominant-baseline="middle" fill="black" > 148</text>
<circle cx="250" cy="163" r="4" fill="white" stroke="black" />
<circle cx="350" cy="163" r="4" fill="white" stroke="black" />
<line x1="250" y1="167" x2="250" y2="191" stroke="black" />
<line x1="250" y1="191" x2="300" y2="200" stroke="black" />
<line x1="350" y1="167" x2="350" y2="191" stroke="black" />
<line x1="350" y1="191" x2="300" y2="200" stroke="black" />
<text x="300" y="188" font-family="Verdana" font-size="8" text-anchor="middle"  dominant-baseline="middle" fill="black" > 185</text>
<circle cx="300" cy="200" r="4" fill="white" stroke="black" />
<line x1="300" y1="204" x2="300" y2="414" stroke="black" />
<line x1="296" y1="410" x2="304" y2="418" stroke="red" />
<line x1="296" y1="418" x2="304" y2="410" stroke="red" />
<text x="300" y="426" font-family="Verdana" font-size="8" text-anchor="middle"  dominant-baseline="middle" fill="black" > 399</text>
<text x="500" y="7" font-family="Verdana" font-size="7" text-anchor="middle"  dominant-baseline="middle" fill="black" > C3</text>
<circle cx="500" cy="15" r="4" fill="white" stroke="black" />
<line x1="500" y1="19" x2="500" y2="190" stroke="black" />
<line x1="450" y1="190" x2="550" y2="190" stroke="black" />
<text x="525" y="182" font-family="Verdana" font-size="8" text-anchor="middle"  dominant-baseline="middle" fill="black" > 175</text>
<circle cx="450" cy="190" r="4" fill="white" stroke="black" />
<line x1="450" y1="194" x2="450" y2="566" stroke="black" />
<line x1="446" y1="562" x2="454" y2="570" stroke="red" />
<line x1="446" y1="570" x2="454" y2="562" stroke="red" />
<text x="450" y="578" font-family="Verdana" font-size="8" text-anchor="middle"  dominant-baseline="middle" fill="black" > 551</text>
<circle cx="550" cy="190" r="4" fill="white" stroke="black" />
<line x1="550" y1="194" x2="550" y2="464" stroke="black" />
<line x1="546" y1="460" x2="554" y2="468" stroke="red" />
<line x1="546" y1="468" x2="554" y2="460" stroke="red" />
<text x="550" y="476" font-family="Verdana" font-size="8" text-anchor="middle"  dominant-baseline="middle" fill="black" > 449</text>
<text x="700" y="7" font-family="Verdana" font-size="7" text-anchor="middle"  dominant-baseline="middle" fill="black" > C5</text>
<circle cx="700" cy="15" r="4" fill="white" stroke="black" />
<line x1="700" y1="19" x2="700" y2="201" stroke="black" />
<line x1="650" y1="201" x2="750" y2="201" stroke="black" />
<text x="725" y="193" font-family="Verdana" font-size="8" text-anchor="middle"  dominant-baseline="middle" fill="black" > 186</text>
<circle cx="650" cy="201" r="4" fill="white" stroke="black" />
<circle cx="750" cy="201" r="4" fill="white" stroke="black" />
<line x1="650" y1="205" x2="650" y2="293" stroke="black" />
<line x1="650" y1="293" x2="700" y2="323" stroke="black" />
<line x1="750" y1="205" x2="750" y2="293" stroke="black" />
<line x1="750" y1="293" x2="700" y2="323" stroke="black" />
<text x="700" y="311" font-family="Verdana" font-size="8" text-anchor="middle"  dominant-baseline="middle" fill="black" > 308</text>
<circle cx="700" cy="323" r="4" fill="white" stroke="black" />
<line x1="700" y1="327" x2="700" y2="736" stroke="black" />
<circle cx="700" cy="736" r="4" fill="white" stroke="black" />
<text x="700" y="748" font-family="Verdana" font-size="8" text-anchor="middle"  dominant-baseline="middle" fill="black" > 721</text>
<text x="900" y="7" font-family="Verdana" font-size="7" text-anchor="middle"  dominant-baseline="middle" fill="black" > C6</text>
<circle cx="900" cy="15" r="4" fill="white" stroke="black" />
<line x1="900" y1="19" x2="900" y2="298" stroke="black" />
<line x1="850" y1="298" x2="950" y2="298" stroke="black" />
<text x="925" y="290" font-family="Verdana" font-size="8" text-anchor="middle"  dominant-baseline="middle" fill="black" > 283</text>
<circle cx="850" cy="298" r="4" fill="white" stroke="black" />
<circle cx="950" cy="298" r="4" fill="white" stroke="black" />
<line x1="850" y1="302" x2="850" y2="316" stroke="black" />
<line x1="850" y1="316" x2="900" y2="321" stroke="black" />
<line x1="950" y1="302" x2="950" y2="316" stroke="black" />
<line x1="950" y1="316" x2="900" y2="321" stroke="black" />
<text x="900" y="309" font-family="Verdana" font-size="8" text-anchor="middle"  dominant-baseline="middle" fill="black" > 306</text>
<circle cx="900" cy="321" r="4" fill="white" stroke="black" />
<line x1="900" y1="325" x2="900" y2="736" stroke="black" />
<circle cx="900" cy="736" r="4" fill="white" stroke="black" />
<text x="900" y="748" font-family="Verdana" font-size="8" text-anchor="middle"  dominant-baseline="middle" fill="black" > 721</text>
<text x="1050" y="7" font-family="Verdana" font-size="7" text-anchor="middle"  dominant-baseline="middle" fill="black" > C7</text>
<circle cx="1050" cy="15" r="4" fill="white" stroke="black" />
<line x1="1050" y1="19" x2="1050" y2="414" stroke="black" />
<line x1="1046" y1="410" x2="1054" y2="418" stroke="red" />
<line x1="1046" y1="418" x2="1054" y2="410" stroke="red" />
<text x="1050" y="426" font-family="Verdana" font-size="8" text-anchor="middle"  dominant-baseline="middle" fill="black" > 399</text>
<text x="1150" y="7" font-family="Verdana" font-size="7" text-anchor="middle"  dominant-baseline="middle" fill="black" > C8</text>
<circle cx="1150" cy="15" r="4" fill="white" stroke="black" />
<line x1="1150" y1="19" x2="1150" y2="416" stroke="black" />
<line x1="1146" y1="412" x2="1154" y2="420" stroke="red" />
<line x1="1146" y1="420" x2="1154" y2="412" stroke="red" />
<text x="1150" y="428" font-family="Verdana" font-size="8" text-anchor="middle"  dominant-baseline="middle" fill="black" > 401</text>
<text x="1250" y="7" font-family="Verdana" font-size="7" text-anchor="middle"  dominant-baseline="middle" fill="black" > C9</text>
<circle cx="1250" cy="15" r="4" fill="white" stroke="black" />
<line x1="1250" y1="19" x2="1250" y2="361" stroke="black" />
<line x1="1246" y1="365" x2="1250" y2="357" stroke="blue" />
<line x1="1250" y1="365" x2="1254" y2="357" stroke="blue" />
<text x="1250" y="373" font-family="Verdana" font-size="8" text-anchor="middle"  dominant-baseline="middle" fill="black" > 346</text>
<text x="1350" y="7" font-family="Verdana" font-size="7" text-anchor="middle"  dominant-baseline="middle" fill="black" > C10</text>
<circle cx="1350" cy="15" r="4" fill="white" stroke="black" />
<line x1="1350" y1="19" x2="1350" y2="302" stroke="black" />
<line x1="1346" y1="298" x2="1354" y2="306" stroke="red" />
<line x1="1346" y1="306" x2="1354" y2="298" stroke="red" />
<text x="1350" y="314" font-family="Verdana" font-size="8" text-anchor="middle"  dominant-baseline="middle" fill="black" > 287</text>
<text x="1500" y="7" font-family="Verdana" font-size="7" text-anchor="middle"  dominant-baseline="middle" fill="black" > C11</text>
<circle cx="1500" cy="15" r="4" fill="white" stroke="black" />
<line x1="1500" y1="19" x2="1500" y2="253" stroke="black" />
<line x1="1450" y1="253" x2="1550" y2="253" stroke="black" />
<text x="1525" y="245" font-family="Verdana" font-size="8" text-anchor="middle"  dominant-baseline="middle" fill="black" > 238</text>
<circle cx="1450" cy="253" r="4" fill="white" stroke="black" />
<line x1="1450" y1="257" x2="1450" y2="414" stroke="black" />
<line x1="1416" y1="414" x2="1484" y2="414" stroke="black" />
<text x="1458" y="406" font-family="Verdana" font-size="8" text-anchor="middle"  dominant-baseline="middle" fill="black" > 399</text>
<circle cx="1416" cy="414" r="4" fill="white" stroke="black" />
<line x1="1416" y1="418" x2="1416" y2="509" stroke="black" />
<line x1="1412" y1="505" x2="1420" y2="513" stroke="red" />
<line x1="1412" y1="513" x2="1420" y2="505" stroke="red" />
<text x="1416" y="521" font-family="Verdana" font-size="8" text-anchor="middle"  dominant-baseline="middle" fill="black" > 494</text>
<circle cx="1449" cy="414" r="4" fill="white" stroke="black" />
<line x1="1449" y1="418" x2="1449" y2="736" stroke="black" />
<circle cx="1449" cy="736" r="4" fill="white" stroke="black" />
<text x="1449" y="748" font-family="Verdana" font-size="8" text-anchor="middle"  dominant-baseline="middle" fill="black" > 721</text>
<circle cx="1482" cy="414" r="4" fill="white" stroke="black" />
<line x1="1482" y1="418" x2="1482" y2="736" stroke="black" />
<circle cx="1482" cy="736" r="4" fill="white" stroke="black" />
<text x="1482" y="748" font-family="Verdana" font-size="8" text-anchor="middle"  dominant-baseline="middle" fill="black" > 721</text>
<circle cx="1550" cy="253" r="4" fill="white" stroke="black" />
<line x1="1550" y1="257" x2="1550" y2="396" stroke="black" />
<line x1="1516" y1="396" x2="1584" y2="396" stroke="black" />
<text x="1558" y="388" font-family="Verdana" font-size="8" text-anchor="middle"  dominant-baseline="middle" fill="black" > 381</text>
<circle cx="1516" cy="396" r="4" fill="white" stroke="black" />
<circle cx="1549" cy="396" r="4" fill="white" stroke="black" />
<line x1="1516" y1="400" x2="1516" y2="425" stroke="black" />
<line x1="1516" y1="425" x2="1532" y2="434" stroke="black" />
<line x1="1549" y1="400" x2="1549" y2="425" stroke="black" />
<line x1="1549" y1="425" x2="1532" y2="434" stroke="black" />
<text x="1532" y="422" font-family="Verdana" font-size="8" text-anchor="middle"  dominant-baseline="middle" fill="black" > 419</text>
<circle cx="1532" cy="434" r="4" fill="white" stroke="black" />
<line x1="1532" y1="438" x2="1532" y2="528" stroke="black" />
<line x1="1521" y1="528" x2="1544" y2="528" stroke="black" />
<text x="1534" y="520" font-family="Verdana" font-size="8" text-anchor="middle"  dominant-baseline="middle" fill="black" > 513</text>
<circle cx="1521" cy="528" r="4" fill="white" stroke="black" />
<circle cx="1532" cy="528" r="4" fill="white" stroke="black" />
<line x1="1521" y1="532" x2="1521" y2="543" stroke="black" />
<line x1="1521" y1="543" x2="1526" y2="548" stroke="black" />
<line x1="1532" y1="532" x2="1532" y2="543" stroke="black" />
<line x1="1532" y1="543" x2="1526" y2="548" stroke="black" />
<text x="1526" y="536" font-family="Verdana" font-size="8" text-anchor="middle"  dominant-baseline="middle" fill="black" > 533</text>
<circle cx="1526" cy="548" r="4" fill="white" stroke="black" />
<line x1="1526" y1="552" x2="1526" y2="699" stroke="black" />
<line x1="1522" y1="699" x2="1531" y2="699" stroke="black" />
<text x="1526" y="691" font-family="Verdana" font-size="8" text-anchor="middle"  dominant-baseline="middle" fill="black" > 684</text>
<circle cx="1522" cy="699" r="4" fill="white" stroke="black" />
<line x1="1522" y1="703" x2="1522" y2="736" stroke="black" />
<circle cx="1522" cy="736" r="4" fill="white" stroke="black" />
<text x="1522" y="748" font-family="Verdana" font-size="8" text-anchor="middle"  dominant-baseline="middle" fill="black" > 721</text>
<circle cx="1525" cy="699" r="4" fill="white" stroke="black" />
<line x1="1525" y1="703" x2="1525" y2="736" stroke="black" />
<circle cx="1525" cy="736" r="4" fill="white" stroke="black" />
<text x="1525" y="748" font-family="Verdana" font-size="8" text-anchor="middle"  dominant-baseline="middle" fill="black" > 721</text>
<circle cx="1528" cy="699" r="4" fill="white" stroke="black" />
<line x1="1528" y1="703" x2="1528" y2="736" stroke="black" />
<circle cx="1528" cy="736" r="4" fill="white" stroke="black" />
<text x="1528" y="748" font-family="Verdana" font-size="8" text-anchor="middle"  dominant-baseline="middle" fill="black" > 721</text>
<circle cx="1543" cy="528" r="4" fill="white" stroke="black" />
<line x1="1543" y1="532" x2="1543" y2="715" stroke="black" />
<line x1="1539" y1="715" x2="1548" y2="715" stroke="black" />
<text x="1543" y="707" font-family="Verdana" font-size="8" text-anchor="middle"  dominant-baseline="middle" fill="black" > 700</text>
<circle cx="1539" cy="715" r="4" fill="white" stroke="black" />
<line x1="1539" y1="719" x2="1539" y2="736" stroke="black" />
<circle cx="1539" cy="736" r="4" fill="white" stroke="black" />
<text x="1539" y="748" font-family="Verdana" font-size="8" text-anchor="middle"  dominant-baseline="middle" fill="black" > 721</text>
<circle cx="1542" cy="715" r="4" fill="white" stroke="black" />
<line x1="1542" y1="719" x2="1542" y2="736" stroke="black" />
<circle cx="1542" cy="736" r="4" fill="white" stroke="black" />
<text x="1542" y="748" font-family="Verdana" font-size="8" text-anchor="middle"  dominant-baseline="middle" fill="black" > 721</text>
<circle cx="1545" cy="715" r="4" fill="white" stroke="black" />
<line x1="1545" y1="719" x2="1545" y2="736" stroke="black" />
<circle cx="1545" cy="736" r="4" fill="white" stroke="black" />
<text x="1545" y="748" font-family="Verdana" font-size="8" text-anchor="middle"  dominant-baseline="middle" fill="black" > 721</text>
<circle cx="1582" cy="396" r="4" fill="white" stroke="black" />
<line x1="1582" y1="400" x2="1582" y2="736" stroke="black" />
<circle cx="1582" cy="736" r="4" fill="white" stroke="black" />
<text x="1582" y="748" font-family="Verdana" font-size="8" text-anchor="middle"  dominant-baseline="middle" fill="black" > 721</text>
<text x="1650" y="7" font-family="Verdana" font-size="7" text-anchor="middle"  dominant-baseline="middle" fill="black" > C12</text>
<circle cx="1650" cy="15" r="4" fill="white" stroke="black" />
<line x1="1650" y1="19" x2="1650" y2="227" stroke="black" />
<line x1="1646" y1="231" x2="1650" y2="223" stroke="blue" />
<line x1="1650" y1="231" x2="1654" y2="223" stroke="blue" />
<text x="1650" y="239" font-family="Verdana" font-size="8" text-anchor="middle"  dominant-baseline="middle" fill="black" > 212</text>
<text x="1750" y="7" font-family="Verdana" font-size="7" text-anchor="middle"  dominant-baseline="middle" fill="black" > C13</text>
<circle cx="1750" cy="15" r="4" fill="white" stroke="black" />
<line x1="1750" y1="19" x2="1750" y2="227" stroke="black" />
<line x1="1746" y1="231" x2="1750" y2="223" stroke="blue" />
<line x1="1750" y1="231" x2="1754" y2="223" stroke="blue" />
<text x="1750" y="239" font-family="Verdana" font-size="8" text-anchor="middle"  dominant-baseline="middle" fill="black" > 212</text>
<text x="1850" y="7" font-family="Verdana" font-size="7" text-anchor="middle"  dominant-baseline="middle" fill="black" > C14</text>
<circle cx="1850" cy="15" r="4" fill="white" stroke="black" />
<line x1="1850" y1="19" x2="1850" y2="61" stroke="black" />
<line x1="1846" y1="65" x2="1850" y2="57" stroke="blue" />
<line x1="1850" y1="65" x2="1854" y2="57" stroke="blue" />
<text x="1850" y="73" font-family="Verdana" font-size="8" text-anchor="middle"  dominant-baseline="middle" fill="black" > 46</text>
</svg>
