<?xml version="1.0" encoding="utf-8"?>
<svg xmlns="http://www.w3.org/2000/svg" version="1.1" width="1850" height="750">
<rect width="1850" height="15" x="0" y="0" fill="white" />
<rect width="1850" height="15" x="0" y="735" fill="white" />
<rect width="25" height="750" x="0" y="0" fill="white" />
<rect width="25" height="750" x="1825" y="0" fill="white" />
<rect width="1810" height="144" x="25" y="15" fill="ghostwhite" />
<rect width="1810" height="144" x="25" y="159" fill="snow" />
<rect width="1810" height="144" x="25" y="303" fill="ghostwhite" />
<rect width="1810" height="144" x="25" y="447" fill="snow" />
<rect width="1810" height="144" x="25" y="591" fill="ghostwhite" />
<text x="12" y="87" font-family="Verdana" font-size="10" text-anchor="middle"  dominant-baseline="middle" fill="red" > D0</text>
<text x="12" y="231" font-family="Verdana" font-size="10" text-anchor="middle"  dominant-baseline="middle" fill="red" > D1</text>
<text x="12" y="375" font-family="Verdana" font-size="10" text-anchor="middle"  dominant-baseline="middle" fill="red" > D2</text>
<text x="12" y="519" font-family="Verdana" font-size="10" text-anchor="middle"  dominant-baseline="middle" fill="red" > D3</text>
<text x="12" y="663" font-family="Verdana" font-size="10" text-anchor="middle"  dominant-baseline="middle" fill="red" > D4</text>
<text x="12" y="20" font-family="Verdana" font-size="10" text-anchor="middle"  dominant-baseline="middle" fill="black" > 0</text>
<text x="12" y="164" font-family="Verdana" font-size="10" text-anchor="middle"  dominant-baseline="middle" fill="black" > 144</text>
<text x="12" y="308" font-family="Verdana" font-size="10" text-anchor="middle"  dominant-baseline="middle" fill="black" > 288</text>
<text x="12" y="452" font-family="Verdana" font-size="10" text-anchor="middle"  dominant-baseline="middle" fill="black" > 432</text>
<text x="12" y="596" font-family="Verdana" font-size="10" text-anchor="middle"  dominant-baseline="middle" fill="black" > 576</text>
<text x="12" y="740" font-family="Verdana" font-size="10" text-anchor="middle"  dominant-baseline="middle" fill="black" > 720</text>
<text x="50" y="7" font-family="Verdana" font-size="7" text-anchor="middle"  dominant-baseline="middle" fill="black" > C1</text>
<circle cx="50" cy="15" r="4" fill="white" stroke="black" />
<line x1="50" y1="19" x2="50" y2="432" stroke="black" />
<line x1="46" y1="436" x2="50" y2="428" stroke="blue" />
<line x1="50" y1="436" x2="54" y2="428" stroke="blue" />
<text x="50" y="444" font-family="Verdana" font-size="8" text-anchor="middle"  dominant-baseline="middle" fill="black" > 417</text>
<text x="150" y="7" font-family="Verdana" font-size="7" text-anchor="middle"  dominant-baseline="middle" fill="black" > C2</text>
<circle cx="150" cy="15" r="4" fill="white" stroke="black" />
<text x="250" y="7" font-family="Verdana" font-size="7" text-anchor="middle"  dominant-baseline="middle" fill="black" > C3</text>
<circle cx="250" cy="15" r="4" fill="white" stroke="black" />
<line x1="150" y1="19" x2="150" y2="119" stroke="black" />
<line x1="150" y1="119" x2="200" y2="153" stroke="black" />
<line x1="250" y1="19" x2="250" y2="119" stroke="black" />
<line x1="250" y1="119" x2="200" y2="153" stroke="black" />
<text x="200" y="141" font-family="Verdana" font-size="8" text-anchor="middle"  dominant-baseline="middle" fill="black" > 138</text>
<circle cx="200" cy="153" r="4" fill="white" stroke="black" />
<line x1="200" y1="157" x2="200" y2="286" stroke="black" />
<line x1="196" y1="290" x2="200" y2="282" stroke="blue" />
<line x1="200" y1="290" x2="204" y2="282" stroke="blue" />
<text x="200" y="298" font-family="Verdana" font-size="8" text-anchor="middle"  dominant-baseline="middle" fill="black" > 271</text>
<text x="500" y="7" font-family="Verdana" font-size="7" text-anchor="middle"  dominant-baseline="middle" fill="black" > C4</text>
<circle cx="500" cy="15" r="4" fill="white" stroke="black" />
<line x1="500" y1="19" x2="500" y2="498" stroke="black" />
<line x1="350" y1="498" x2="650" y2="498" stroke="black" />
<text x="525" y="490" font-family="Verdana" font-size="8" text-anchor="middle"  dominant-baseline="middle" fill="black" > 483</text>
<circle cx="350" cy="498" r="4" fill="white" stroke="black" />
<line x1="350" y1="502" x2="350" y2="736" stroke="black" />
<circle cx="350" cy="736" r="4" fill="white" stroke="black" />
<text x="350" y="748" font-family="Verdana" font-size="8" text-anchor="middle"  dominant-baseline="middle" fill="black" > 721</text>
<circle cx="450" cy="498" r="4" fill="white" stroke="black" />
<line x1="450" y1="502" x2="450" y2="690" stroke="black" />
<line x1="446" y1="686" x2="454" y2="694" stroke="red" />
<line x1="446" y1="694" x2="454" y2="686" stroke="red" />
<text x="450" y="702" font-family="Verdana" font-size="8" text-anchor="middle"  dominant-baseline="middle" fill="black" > 675</text>
<circle cx="550" cy="498" r="4" fill="white" stroke="black" />
<circle cx="650" cy="498" r="4" fill="white" stroke="black" />
<line x1="550" y1="502" x2="550" y2="528" stroke="black" />
<line x1="550" y1="528" x2="600" y2="537" stroke="black" />
<line x1="650" y1="502" x2="650" y2="528" stroke="black" />
<line x1="650" y1="528" x2="600" y2="537" stroke="black" />
<text x="600" y="525" font-family="Verdana" font-size="8" text-anchor="middle"  dominant-baseline="middle" fill="black" > 522</text>
<circle cx="600" cy="537" r="4" fill="white" stroke="black" />
<line x1="600" y1="541" x2="600" y2="690" stroke="black" />
<line x1="596" y1="686" x2="604" y2="694" stroke="red" />
<line x1="596" y1="694" x2="604" y2="686" stroke="red" />
<text x="600" y="702" font-family="Verdana" font-size="8" text-anchor="middle"  dominant-baseline="middle" fill="black" > 675</text>
<text x="850" y="7" font-family="Verdana" font-size="7" text-anchor="middle"  dominant-baseline="middle" fill="black" > C5</text>
<circle cx="850" cy="15" r="4" fill="white" stroke="black" />
<line x1="850" y1="19" x2="850" y2="502" stroke="black" />
<line x1="750" y1="502" x2="950" y2="502" stroke="black" />
<text x="875" y="494" font-family="Verdana" font-size="8" text-anchor="middle"  dominant-baseline="middle" fill="black" > 487</text>
<circle cx="750" cy="502" r="4" fill="white" stroke="black" />
<circle cx="850" cy="502" r="4" fill="white" stroke="black" />
<line x1="750" y1="506" x2="750" y2="509" stroke="black" />
<line x1="750" y1="509" x2="800" y2="511" stroke="black" />
<line x1="850" y1="506" x2="850" y2="509" stroke="black" />
<line x1="850" y1="509" x2="800" y2="511" stroke="black" />
<text x="800" y="499" font-family="Verdana" font-size="8" text-anchor="middle"  dominant-baseline="middle" fill="black" > 496</text>
<circle cx="800" cy="511" r="4" fill="white" stroke="black" />
<circle cx="950" cy="502" r="4" fill="white" stroke="black" />
<line x1="800" y1="515" x2="800" y2="517" stroke="black" />
<line x1="800" y1="517" x2="875" y2="518" stroke="black" />
<line x1="950" y1="506" x2="950" y2="517" stroke="black" />
<line x1="950" y1="517" x2="875" y2="518" stroke="black" />
<text x="875" y="506" font-family="Verdana" font-size="8" text-anchor="middle"  dominant-baseline="middle" fill="black" > 503</text>
<circle cx="875" cy="518" r="4" fill="white" stroke="black" />
<line x1="875" y1="522" x2="875" y2="575" stroke="black" />
<line x1="871" y1="571" x2="879" y2="579" stroke="red" />
<line x1="871" y1="579" x2="879" y2="571" stroke="red" />
<text x="875" y="587" font-family="Verdana" font-size="8" text-anchor="middle"  dominant-baseline="middle" fill="black" > 560</text>
<text x="1150" y="7" font-family="Verdana" font-size="7" text-anchor="middle"  dominant-baseline="middle" fill="black" > C6</text>
<circle cx="1150" cy="15" r="4" fill="white" stroke="black" />
<line x1="1150" y1="19" x2="1150" y2="431" stroke="black" />
<line x1="1050" y1="431" x2="1250" y2="431" stroke="black" />
<text x="1175" y="423" font-family="Verdana" font-size="8" text-anchor="middle"  dominant-baseline="middle" fill="black" > 416</text>
<circle cx="1050" cy="431" r="4" fill="white" stroke="black" />
<line x1="1050" y1="435" x2="1050" y2="617" stroke="black" />
<line x1="1046" y1="621" x2="1050" y2="613" stroke="blue" />
<line x1="1050" y1="621" x2="1054" y2="613" stroke="blue" />
<text x="1050" y="629" font-family="Verdana" font-size="8" text-anchor="middle"  dominant-baseline="middle" fill="black" > 602</text>
<circle cx="1150" cy="431" r="4" fill="white" stroke="black" />
<line x1="1150" y1="435" x2="1150" y2="736" stroke="black" />
<circle cx="1150" cy="736" r="4" fill="white" stroke="black" />
<text x="1150" y="748" font-family="Verdana" font-size="8" text-anchor="middle"  dominant-baseline="middle" fill="black" > 721</text>
<circle cx="1250" cy="431" r="4" fill="white" stroke="black" />
<line x1="1250" y1="435" x2="1250" y2="736" stroke="black" />
<circle cx="1250" cy="736" r="4" fill="white" stroke="black" />
<text x="1250" y="748" font-family="Verdana" font-size="8" text-anchor="middle"  dominant-baseline="middle" fill="black" > 721</text>
<text x="1400" y="7" font-family="Verdana" font-size="7" text-anchor="middle"  dominant-baseline="middle" fill="black" > C7</text>
<circle cx="1400" cy="15" r="4" fill="white" stroke="black" />
<line x1="1400" y1="19" x2="1400" y2="205" stroke="black" />
<line x1="1350" y1="205" x2="1450" y2="205" stroke="black" />
<text x="1425" y="197" font-family="Verdana" font-size="8" text-anchor="middle"  dominant-baseline="middle" fill="black" > 190</text>
<circle cx="1350" cy="205" r="4" fill="white" stroke="black" />
<line x1="1350" y1="209" x2="1350" y2="207" stroke="black" />
<line x1="1346" y1="211" x2="1350" y2="203" stroke="blue" />
<line x1="1350" y1="211" x2="1354" y2="203" stroke="blue" />
<text x="1350" y="219" font-family="Verdana" font-size="8" text-anchor="middle"  dominant-baseline="middle" fill="black" > 192</text>
<circle cx="1450" cy="205" r="4" fill="white" stroke="black" />
<line x1="1450" y1="209" x2="1450" y2="207" stroke="black" />
<line x1="1446" y1="211" x2="1450" y2="203" stroke="blue" />
<line x1="1450" y1="211" x2="1454" y2="203" stroke="blue" />
<text x="1450" y="219" font-family="Verdana" font-size="8" text-anchor="middle"  dominant-baseline="middle" fill="black" > 192</text>
<text x="1600" y="7" font-family="Verdana" font-size="7" text-anchor="middle"  dominant-baseline="middle" fill="black" > C8</text>
<circle cx="1600" cy="15" r="4" fill="white" stroke="black" />
<line x1="1600" y1="19" x2="1600" y2="238" stroke="black" />
<line x1="1550" y1="238" x2="1650" y2="238" stroke="black" />
<text x="1625" y="230" font-family="Verdana" font-size="8" text-anchor="middle"  dominant-baseline="middle" fill="black" > 223</text>
<circle cx="1550" cy="238" r="4" fill="white" stroke="black" />
<circle cx="1650" cy="238" r="4" fill="white" stroke="black" />
<line x1="1650" y1="242" x2="1650" y2="425" stroke="black" />
<line x1="1625" y1="425" x2="1675" y2="425" stroke="black" />
<text x="1662" y="417" font-family="Verdana" font-size="8" text-anchor="middle"  dominant-baseline="middle" fill="black" > 410</text>
<circle cx="1625" cy="425" r="4" fill="white" stroke="black" />
<line x1="1550" y1="242" x2="1550" y2="455" stroke="black" />
<line x1="1550" y1="455" x2="1587" y2="464" stroke="black" />
<line x1="1625" y1="429" x2="1625" y2="455" stroke="black" />
<line x1="1625" y1="455" x2="1587" y2="464" stroke="black" />
<text x="1587" y="452" font-family="Verdana" font-size="8" text-anchor="middle"  dominant-baseline="middle" fill="black" > 449</text>
<circle cx="1587" cy="464" r="4" fill="white" stroke="black" />
<line x1="1587" y1="468" x2="1587" y2="679" stroke="black" />
<line x1="1562" y1="679" x2="1613" y2="679" stroke="black" />
<text x="1593" y="671" font-family="Verdana" font-size="8" text-anchor="middle"  dominant-baseline="middle" fill="black" > 664</text>
<circle cx="1562" cy="679" r="4" fill="white" stroke="black" />
<circle cx="1587" cy="679" r="4" fill="white" stroke="black" />
<circle cx="1612" cy="679" r="4" fill="white" stroke="black" />
<line x1="1587" y1="683" x2="1587" y2="691" stroke="black" />
<line x1="1587" y1="691" x2="1599" y2="694" stroke="black" />
<line x1="1612" y1="683" x2="1612" y2="691" stroke="black" />
<line x1="1612" y1="691" x2="1599" y2="694" stroke="black" />
<text x="1599" y="682" font-family="Verdana" font-size="8" text-anchor="middle"  dominant-baseline="middle" fill="black" > 679</text>
<circle cx="1599" cy="694" r="4" fill="white" stroke="black" />
<line x1="1562" y1="683" x2="1562" y2="704" stroke="black" />
<line x1="1562" y1="704" x2="1580" y2="707" stroke="black" />
<line x1="1599" y1="698" x2="1599" y2="704" stroke="black" />
<line x1="1599" y1="704" x2="1580" y2="707" stroke="black" />
<text x="1580" y="695" font-family="Verdana" font-size="8" text-anchor="middle"  dominant-baseline="middle" fill="black" > 692</text>
<circle cx="1580" cy="707" r="4" fill="white" stroke="black" />
<line x1="1580" y1="711" x2="1580" y2="732" stroke="black" />
<line x1="1576" y1="728" x2="1584" y2="736" stroke="red" />
<line x1="1576" y1="736" x2="1584" y2="728" stroke="red" />
<text x="1580" y="744" font-family="Verdana" font-size="8" text-anchor="middle"  dominant-baseline="middle" fill="black" > 717</text>
<circle cx="1675" cy="425" r="4" fill="white" stroke="black" />
<line x1="1675" y1="429" x2="1675" y2="714" stroke="black" />
<line x1="1662" y1="714" x2="1688" y2="714" stroke="black" />
<text x="1681" y="706" font-family="Verdana" font-size="8" text-anchor="middle"  dominant-baseline="middle" fill="black" > 699</text>
<circle cx="1662" cy="714" r="4" fill="white" stroke="black" />
<line x1="1662" y1="718" x2="1662" y2="736" stroke="black" />
<circle cx="1662" cy="736" r="4" fill="white" stroke="black" />
<text x="1662" y="748" font-family="Verdana" font-size="8" text-anchor="middle"  dominant-baseline="middle" fill="black" > 721</text>
<circle cx="1687" cy="714" r="4" fill="white" stroke="black" />
<line x1="1687" y1="718" x2="1687" y2="736" stroke="black" />
<circle cx="1687" cy="736" r="4" fill="white" stroke="black" />
<text x="1687" y="748" font-family="Verdana" font-size="8" text-anchor="middle"  dominant-baseline="middle" fill="black" > 721</text>
<text x="1750" y="7" font-family="Verdana" font-size="7" text-anchor="middle"  dominant-baseline="middle" fill="black" > C9</text>
<circle cx="1750" cy="15" r="4" fill="white" stroke="black" />
<line x1="1750" y1="19" x2="1750" y2="178" stroke="black" />
<line x1="1746" y1="182" x2="1750" y2="174" stroke="blue" />
<line x1="1750" y1="182" x2="1754" y2="174" stroke="blue" />
<text x="1750" y="190" font-family="Verdana" font-size="8" text-anchor="middle"  dominant-baseline="middle" fill="black" > 163</text>
</svg>
