<?xml version="1.0" encoding="utf-8"?>
<svg xmlns="http://www.w3.org/2000/svg" version="1.1" width="4550" height="750">
<rect width="4550" height="15" x="0" y="0" fill="white" />
<rect width="4550" height="15" x="0" y="735" fill="white" />
<rect width="25" height="750" x="0" y="0" fill="white" />
<rect width="25" height="750" x="4525" y="0" fill="white" />
<rect width="4510" height="144" x="25" y="15" fill="ghostwhite" />
<rect width="4510" height="144" x="25" y="159" fill="snow" />
<rect width="4510" height="144" x="25" y="303" fill="ghostwhite" />
<rect width="4510" height="144" x="25" y="447" fill="snow" />
<rect width="4510" height="144" x="25" y="591" fill="ghostwhite" />
<text x="12" y="87" font-family="Verdana" font-size="10" text-anchor="middle"  dominant-baseline="middle" fill="red" > D0</text>
<text x="12" y="231" font-family="Verdana" font-size="10" text-anchor="middle"  dominant-baseline="middle" fill="red" > D1</text>
<text x="12" y="375" font-family="Verdana" font-size="10" text-anchor="middle"  dominant-baseline="middle" fill="red" > D2</text>
<text x="12" y="519" font-family="Verdana" font-size="10" text-anchor="middle"  dominant-baseline="middle" fill="red" > D3</text>
<text x="12" y="663" font-family="Verdana" font-size="10" text-anchor="middle"  dominant-baseline="middle" fill="red" > D4</text>
<text x="12" y="20" font-family="Verdana" font-size="10" text-anchor="middle"  dominant-baseline="middle" fill="black" > 0</text>
<text x="12" y="164" font-family="Verdana" font-size="10" text-anchor="middle"  dominant-baseline="middle" fill="black" > 144</text>
<text x="12" y="308" font-family="Verdana" font-size="10" text-anchor="middle"  dominant-baseline="middle" fill="black" > 288</text>
<text x="12" y="452" font-family="Verdana" font-size="10" text-anchor="middle"  dominant-baseline="middle" fill="black" > 432</text>
<text x="12" y="596" font-family="Verdana" font-size="10" text-anchor="middle"  dominant-baseline="middle" fill="black" > 576</text>
<text x="12" y="740" font-family="Verdana" font-size="10" text-anchor="middle"  dominant-baseline="middle" fill="black" > 720</text>
<text x="150" y="7" font-family="Verdana" font-size="7" text-anchor="middle"  dominant-baseline="middle" fill="black" > C1</text>
<circle cx="150" cy="15" r="4" fill="white" stroke="black" />
<line x1="150" y1="19" x2="150" y2="300" stroke="black" />
<line x1="50" y1="300" x2="250" y2="300" stroke="black" />
<text x="175" y="292" font-family="Verdana" font-size="8" text-anchor="middle"  dominant-baseline="middle" fill="black" > 285</text>
<circle cx="50" cy="300" r="4" fill="white" stroke="black" />
<line x1="50" y1="304" x2="50" y2="733" stroke="black" />
<line x1="46" y1="729" x2="54" y2="737" stroke="red" />
<line x1="46" y1="737" x2="54" y2="729" stroke="red" />
<text x="50" y="745" font-family="Verdana" font-size="8" text-anchor="middle"  dominant-baseline="middle" fill="black" > 718</text>
<circle cx="150" cy="300" r="4" fill="white" stroke="black" />
<line x1="150" y1="304" x2="150" y2="491" stroke="black" />
<line x1="146" y1="487" x2="154" y2="495" stroke="red" />
<line x1="146" y1="495" x2="154" y2="487" stroke="red" />
<text x="150" y="503" font-family="Verdana" font-size="8" text-anchor="middle"  dominant-baseline="middle" fill="black" > 476</text>
<circle cx="250" cy="300" r="4" fill="white" stroke="black" />
<line x1="250" y1="304" x2="250" y2="736" stroke="black" />
<circle cx="250" cy="736" r="4" fill="white" stroke="black" />
<text x="250" y="748" font-family="Verdana" font-size="8" text-anchor="middle"  dominant-baseline="middle" fill="black" > 721</text>
<text x="350" y="7" font-family="Verdana" font-size="7" text-anchor="middle"  dominant-baseline="middle" fill="black" > C2</text>
<circle cx="350" cy="15" r="4" fill="white" stroke="black" />
<line x1="350" y1="19" x2="350" y2="203" stroke="black" />
<line x1="346" y1="207" x2="350" y2="199" stroke="blue" />
<line x1="350" y1="207" x2="354" y2="199" stroke="blue" />
<text x="350" y="215" font-family="Verdana" font-size="8" text-anchor="middle"  dominant-baseline="middle" fill="black" > 188</text>
<text x="500" y="7" font-family="Verdana" font-size="7" text-anchor="middle"  dominant-baseline="middle" fill="black" > C3</text>
<circle cx="500" cy="15" r="4" fill="white" stroke="black" />
<line x1="500" y1="19" x2="500" y2="273" stroke="black" />
<line x1="450" y1="273" x2="550" y2="273" stroke="black" />
<text x="525" y="265" font-family="Verdana" font-size="8" text-anchor="middle"  dominant-baseline="middle" fill="black" > 258</text>
<circle cx="450" cy="273" r="4" fill="white" stroke="black" />
<line x1="450" y1="277" x2="450" y2="433" stroke="black" />
<line x1="425" y1="433" x2="475" y2="433" stroke="black" />
<text x="462" y="425" font-family="Verdana" font-size="8" text-anchor="middle"  dominant-baseline="middle" fill="black" > 418</text>
<circle cx="425" cy="433" r="4" fill="white" stroke="black" />
<line x1="425" y1="437" x2="425" y2="736" stroke="black" />
<circle cx="425" cy="736" r="4" fill="white" stroke="black" />
<text x="425" y="748" font-family="Verdana" font-size="8" text-anchor="middle"  dominant-baseline="middle" fill="black" > 721</text>
<circle cx="475" cy="433" r="4" fill="white" stroke="black" />
<line x1="475" y1="437" x2="475" y2="736" stroke="black" />
<circle cx="475" cy="736" r="4" fill="white" stroke="black" />
<text x="475" y="748" font-family="Verdana" font-size="8" text-anchor="middle"  dominant-baseline="middle" fill="black" > 721</text>
<circle cx="550" cy="273" r="4" fill="white" stroke="black" />
<line x1="550" y1="277" x2="550" y2="736" stroke="black" />
<circle cx="550" cy="736" r="4" fill="white" stroke="black" />
<text x="550" y="748" font-family="Verdana" font-size="8" text-anchor="middle"  dominant-baseline="middle" fill="black" > 721</text>
<text x="700" y="7" font-family="Verdana" font-size="7" text-anchor="middle"  dominant-baseline="middle" fill="black" > C4</text>
<circle cx="700" cy="15" r="4" fill="white" stroke="black" />
<line x1="700" y1="19" x2="700" y2="241" stroke="black" />
<line x1="650" y1="241" x2="750" y2="241" stroke="black" />
<text x="725" y="233" font-family="Verdana" font-size="8" text-anchor="middle"  dominant-baseline="middle" fill="black" > 226</text>
<circle cx="650" cy="241" r="4" fill="white" stroke="black" />
<circle cx="750" cy="241" r="4" fill="white" stroke="black" />
<line x1="750" y1="245" x2="750" y2="388" stroke="black" />
<line x1="725" y1="388" x2="775" y2="388" stroke="black" />
<text x="762" y="380" font-family="Verdana" font-size="8" text-anchor="middle"  dominant-baseline="middle" fill="black" > 373</text>
<circle cx="725" cy="388" r="4" fill="white" stroke="black" />
<line x1="725" y1="392" x2="725" y2="555" stroke="black" />
<line x1="721" y1="551" x2="729" y2="559" stroke="red" />
<line x1="721" y1="559" x2="729" y2="551" stroke="red" />
<text x="725" y="567" font-family="Verdana" font-size="8" text-anchor="middle"  dominant-baseline="middle" fill="black" > 540</text>
<circle cx="775" cy="388" r="4" fill="white" stroke="black" />
<line x1="650" y1="245" x2="650" y2="532" stroke="black" />
<line x1="650" y1="532" x2="712" y2="579" stroke="black" />
<line x1="775" y1="392" x2="775" y2="532" stroke="black" />
<line x1="775" y1="532" x2="712" y2="579" stroke="black" />
<text x="712" y="567" font-family="Verdana" font-size="8" text-anchor="middle"  dominant-baseline="middle" fill="black" > 564</text>
<circle cx="712" cy="579" r="4" fill="white" stroke="black" />
<line x1="712" y1="583" x2="712" y2="688" stroke="black" />
<line x1="708" y1="684" x2="716" y2="692" stroke="red" />
<line x1="708" y1="692" x2="716" y2="684" stroke="red" />
<text x="712" y="700" font-family="Verdana" font-size="8" text-anchor="middle"  dominant-baseline="middle" fill="black" > 673</text>
<text x="900" y="7" font-family="Verdana" font-size="7" text-anchor="middle"  dominant-baseline="middle" fill="black" > C5</text>
<circle cx="900" cy="15" r="4" fill="white" stroke="black" />
<line x1="900" y1="19" x2="900" y2="183" stroke="black" />
<line x1="850" y1="183" x2="950" y2="183" stroke="black" />
<text x="925" y="175" font-family="Verdana" font-size="8" text-anchor="middle"  dominant-baseline="middle" fill="black" > 168</text>
<circle cx="850" cy="183" r="4" fill="white" stroke="black" />
<circle cx="950" cy="183" r="4" fill="white" stroke="black" />
<line x1="850" y1="187" x2="850" y2="265" stroke="black" />
<line x1="850" y1="265" x2="900" y2="292" stroke="black" />
<line x1="950" y1="187" x2="950" y2="265" stroke="black" />
<line x1="950" y1="265" x2="900" y2="292" stroke="black" />
<text x="900" y="280" font-family="Verdana" font-size="8" text-anchor="middle"  dominant-baseline="middle" fill="black" > 277</text>
<circle cx="900" cy="292" r="4" fill="white" stroke="black" />
<line x1="900" y1="296" x2="900" y2="736" stroke="black" />
<circle cx="900" cy="736" r="4" fill="white" stroke="black" />
<text x="900" y="748" font-family="Verdana" font-size="8" text-anchor="middle"  dominant-baseline="middle" fill="black" > 721</text>
<text x="1100" y="7" font-family="Verdana" font-size="7" text-anchor="middle"  dominant-baseline="middle" fill="black" > C6</text>
<circle cx="1100" cy="15" r="4" fill="white" stroke="black" />
<line x1="1100" y1="19" x2="1100" y2="252" stroke="black" />
<line x1="1050" y1="252" x2="1150" y2="252" stroke="black" />
<text x="1125" y="244" font-family="Verdana" font-size="8" text-anchor="middle"  dominant-baseline="middle" fill="black" > 237</text>
<circle cx="1050" cy="252" r="4" fill="white" stroke="black" />
<line x1="1050" y1="256" x2="1050" y2="736" stroke="black" />
<circle cx="1050" cy="736" r="4" fill="white" stroke="black" />
<text x="1050" y="748" font-family="Verdana" font-size="8" text-anchor="middle"  dominant-baseline="middle" fill="black" > 721</text>
<circle cx="1150" cy="252" r="4" fill="white" stroke="black" />
<line x1="1150" y1="256" x2="1150" y2="673" stroke="black" />
<line x1="1125" y1="673" x2="1175" y2="673" stroke="black" />
<text x="1162" y="665" font-family="Verdana" font-size="8" text-anchor="middle"  dominant-baseline="middle" fill="black" > 658</text>
<circle cx="1125" cy="673" r="4" fill="white" stroke="black" />
<line x1="1125" y1="677" x2="1125" y2="736" stroke="black" />
<circle cx="1125" cy="736" r="4" fill="white" stroke="black" />
<text x="1125" y="748" font-family="Verdana" font-size="8" text-anchor="middle"  dominant-baseline="middle" fill="black" > 721</text>
<circle cx="1175" cy="673" r="4" fill="white" stroke="black" />
<line x1="1175" y1="677" x2="1175" y2="736" stroke="black" />
<circle cx="1175" cy="736" r="4" fill="white" stroke="black" />
<text x="1175" y="748" font-family="Verdana" font-size="8" text-anchor="middle"  dominant-baseline="middle" fill="black" > 721</text>
<text x="1250" y="7" font-family="Verdana" font-size="7" text-anchor="middle"  dominant-baseline="middle" fill="black" > C7</text>
<circle cx="1250" cy="15" r="4" fill="white" stroke="black" />
<line x1="1250" y1="19" x2="1250" y2="316" stroke="black" />
<line x1="1246" y1="320" x2="1250" y2="312" stroke="blue" />
<line x1="1250" y1="320" x2="1254" y2="312" stroke="blue" />
<text x="1250" y="328" font-family="Verdana" font-size="8" text-anchor="middle"  dominant-baseline="middle" fill="black" > 301</text>
<text x="1350" y="7" font-family="Verdana" font-size="7" text-anchor="middle"  dominant-baseline="middle" fill="black" > C8</text>
<circle cx="1350" cy="15" r="4" fill="white" stroke="black" />
<line x1="1350" y1="19" x2="1350" y2="316" stroke="black" />
<line x1="1346" y1="320" x2="1350" y2="312" stroke="blue" />
<line x1="1350" y1="320" x2="1354" y2="312" stroke="blue" />
<text x="1350" y="328" font-family="Verdana" font-size="8" text-anchor="middle"  dominant-baseline="middle" fill="black" > 301</text>
<text x="1450" y="7" font-family="Verdana" font-size="7" text-anchor="middle"  dominant-baseline="middle" fill="black" > C9</text>
<circle cx="1450" cy="15" r="4" fill="white" stroke="black" />
<text x="1550" y="7" font-family="Verdana" font-size="7" text-anchor="middle"  dominant-baseline="middle" fill="black" > C11</text>
<circle cx="1550" cy="15" r="4" fill="white" stroke="black" />
<line x1="1450" y1="19" x2="1450" y2="75" stroke="black" />
<line x1="1450" y1="75" x2="1500" y2="95" stroke="black" />
<line x1="1550" y1="19" x2="1550" y2="75" stroke="black" />
<line x1="1550" y1="75" x2="1500" y2="95" stroke="black" />
<text x="1500" y="83" font-family="Verdana" font-size="8" text-anchor="middle"  dominant-baseline="middle" fill="black" > 80</text>
<circle cx="1500" cy="95" r="4" fill="white" stroke="black" />
<line x1="1500" y1="99" x2="1500" y2="243" stroke="black" />
<line x1="1475" y1="243" x2="1525" y2="243" stroke="black" />
<text x="1512" y="235" font-family="Verdana" font-size="8" text-anchor="middle"  dominant-baseline="middle" fill="black" > 228</text>
<circle cx="1475" cy="243" r="4" fill="white" stroke="black" />
<line x1="1475" y1="247" x2="1475" y2="398" stroke="black" />
<line x1="1462" y1="398" x2="1488" y2="398" stroke="black" />
<text x="1481" y="390" font-family="Verdana" font-size="8" text-anchor="middle"  dominant-baseline="middle" fill="black" > 383</text>
<circle cx="1462" cy="398" r="4" fill="white" stroke="black" />
<line x1="1462" y1="402" x2="1462" y2="736" stroke="black" />
<circle cx="1462" cy="736" r="4" fill="white" stroke="black" />
<text x="1462" y="748" font-family="Verdana" font-size="8" text-anchor="middle"  dominant-baseline="middle" fill="black" > 721</text>
<circle cx="1487" cy="398" r="4" fill="white" stroke="black" />
<line x1="1487" y1="402" x2="1487" y2="704" stroke="black" />
<line x1="1481" y1="704" x2="1494" y2="704" stroke="black" />
<text x="1490" y="696" font-family="Verdana" font-size="8" text-anchor="middle"  dominant-baseline="middle" fill="black" > 689</text>
<circle cx="1481" cy="704" r="4" fill="white" stroke="black" />
<line x1="1481" y1="708" x2="1481" y2="736" stroke="black" />
<circle cx="1481" cy="736" r="4" fill="white" stroke="black" />
<text x="1481" y="748" font-family="Verdana" font-size="8" text-anchor="middle"  dominant-baseline="middle" fill="black" > 721</text>
<circle cx="1493" cy="704" r="4" fill="white" stroke="black" />
<line x1="1493" y1="708" x2="1493" y2="736" stroke="black" />
<circle cx="1493" cy="736" r="4" fill="white" stroke="black" />
<text x="1493" y="748" font-family="Verdana" font-size="8" text-anchor="middle"  dominant-baseline="middle" fill="black" > 721</text>
<circle cx="1525" cy="243" r="4" fill="white" stroke="black" />
<line x1="1525" y1="247" x2="1525" y2="369" stroke="black" />
<line x1="1512" y1="369" x2="1538" y2="369" stroke="black" />
<text x="1531" y="361" font-family="Verdana" font-size="8" text-anchor="middle"  dominant-baseline="middle" fill="black" > 354</text>
<circle cx="1512" cy="369" r="4" fill="white" stroke="black" />
<line x1="1512" y1="373" x2="1512" y2="736" stroke="black" />
<circle cx="1512" cy="736" r="4" fill="white" stroke="black" />
<text x="1512" y="748" font-family="Verdana" font-size="8" text-anchor="middle"  dominant-baseline="middle" fill="black" > 721</text>
<circle cx="1537" cy="369" r="4" fill="white" stroke="black" />
<line x1="1537" y1="373" x2="1537" y2="582" stroke="black" />
<line x1="1529" y1="582" x2="1546" y2="582" stroke="black" />
<text x="1539" y="574" font-family="Verdana" font-size="8" text-anchor="middle"  dominant-baseline="middle" fill="black" > 567</text>
<circle cx="1529" cy="582" r="4" fill="white" stroke="black" />
<line x1="1529" y1="586" x2="1529" y2="598" stroke="black" />
<line x1="1525" y1="594" x2="1533" y2="602" stroke="red" />
<line x1="1525" y1="602" x2="1533" y2="594" stroke="red" />
<text x="1529" y="610" font-family="Verdana" font-size="8" text-anchor="middle"  dominant-baseline="middle" fill="black" > 583</text>
<circle cx="1537" cy="582" r="4" fill="white" stroke="black" />
<line x1="1537" y1="586" x2="1537" y2="598" stroke="black" />
<line x1="1533" y1="594" x2="1541" y2="602" stroke="red" />
<line x1="1533" y1="602" x2="1541" y2="594" stroke="red" />
<text x="1537" y="610" font-family="Verdana" font-size="8" text-anchor="middle"  dominant-baseline="middle" fill="black" > 583</text>
<circle cx="1545" cy="582" r="4" fill="white" stroke="black" />
<line x1="1545" y1="586" x2="1545" y2="736" stroke="black" />
<circle cx="1545" cy="736" r="4" fill="white" stroke="black" />
<text x="1545" y="748" font-family="Verdana" font-size="8" text-anchor="middle"  dominant-baseline="middle" fill="black" > 721</text>
<text x="1700" y="7" font-family="Verdana" font-size="7" text-anchor="middle"  dominant-baseline="middle" fill="black" > C10</text>
<circle cx="1700" cy="15" r="4" fill="white" stroke="black" />
<line x1="1700" y1="19" x2="1700" y2="311" stroke="black" />
<line x1="1650" y1="311" x2="1750" y2="311" stroke="black" />
<text x="1725" y="303" font-family="Verdana" font-size="8" text-anchor="middle"  dominant-baseline="middle" fill="black" > 296</text>
<circle cx="1650" cy="311" r="4" fill="white" stroke="black" />
<line x1="1650" y1="315" x2="1650" y2="447" stroke="black" />
<line x1="1625" y1="447" x2="1675" y2="447" stroke="black" />
<text x="1662" y="439" font-family="Verdana" font-size="8" text-anchor="middle"  dominant-baseline="middle" fill="black" > 432</text>
<circle cx="1625" cy="447" r="4" fill="white" stroke="black" />
<line x1="1625" y1="451" x2="1625" y2="597" stroke="black" />
<line x1="1612" y1="597" x2="1638" y2="597" stroke="black" />
<text x="1631" y="589" font-family="Verdana" font-size="8" text-anchor="middle"  dominant-baseline="middle" fill="black" > 582</text>
<circle cx="1612" cy="597" r="4" fill="white" stroke="black" />
<line x1="1612" y1="601" x2="1612" y2="736" stroke="black" />
<circle cx="1612" cy="736" r="4" fill="white" stroke="black" />
<text x="1612" y="748" font-family="Verdana" font-size="8" text-anchor="middle"  dominant-baseline="middle" fill="black" > 721</text>
<circle cx="1637" cy="597" r="4" fill="white" stroke="black" />
<line x1="1637" y1="601" x2="1637" y2="735" stroke="black" />
<line x1="1631" y1="735" x2="1644" y2="735" stroke="black" />
<text x="1640" y="727" font-family="Verdana" font-size="8" text-anchor="middle"  dominant-baseline="middle" fill="black" > 720</text>
<circle cx="1631" cy="735" r="4" fill="white" stroke="black" />
<line x1="1631" y1="739" x2="1631" y2="736" stroke="black" />
<circle cx="1631" cy="736" r="4" fill="white" stroke="black" />
<text x="1631" y="748" font-family="Verdana" font-size="8" text-anchor="middle"  dominant-baseline="middle" fill="black" > 721</text>
<circle cx="1643" cy="735" r="4" fill="white" stroke="black" />
<line x1="1643" y1="739" x2="1643" y2="736" stroke="black" />
<circle cx="1643" cy="736" r="4" fill="white" stroke="black" />
<text x="1643" y="748" font-family="Verdana" font-size="8" text-anchor="middle"  dominant-baseline="middle" fill="black" > 721</text>
<circle cx="1675" cy="447" r="4" fill="white" stroke="black" />
<line x1="1675" y1="451" x2="1675" y2="592" stroke="black" />
<line x1="1658" y1="592" x2="1692" y2="592" stroke="black" />
<text x="1679" y="584" font-family="Verdana" font-size="8" text-anchor="middle"  dominant-baseline="middle" fill="black" > 577</text>
<circle cx="1658" cy="592" r="4" fill="white" stroke="black" />
<line x1="1658" y1="596" x2="1658" y2="736" stroke="black" />
<circle cx="1658" cy="736" r="4" fill="white" stroke="black" />
<text x="1658" y="748" font-family="Verdana" font-size="8" text-anchor="middle"  dominant-baseline="middle" fill="black" > 721</text>
<circle cx="1674" cy="592" r="4" fill="white" stroke="black" />
<line x1="1674" y1="596" x2="1674" y2="736" stroke="black" />
<circle cx="1674" cy="736" r="4" fill="white" stroke="black" />
<text x="1674" y="748" font-family="Verdana" font-size="8" text-anchor="middle"  dominant-baseline="middle" fill="black" > 721</text>
<circle cx="1690" cy="592" r="4" fill="white" stroke="black" />
<line x1="1690" y1="596" x2="1690" y2="736" stroke="black" />
<circle cx="1690" cy="736" r="4" fill="white" stroke="black" />
<text x="1690" y="748" font-family="Verdana" font-size="8" text-anchor="middle"  dominant-baseline="middle" fill="black" > 721</text>
<circle cx="1750" cy="311" r="4" fill="white" stroke="black" />
<line x1="1750" y1="315" x2="1750" y2="619" stroke="black" />
<line x1="1716" y1="619" x2="1784" y2="619" stroke="black" />
<text x="1758" y="611" font-family="Verdana" font-size="8" text-anchor="middle"  dominant-baseline="middle" fill="black" > 604</text>
<circle cx="1716" cy="619" r="4" fill="white" stroke="black" />
<line x1="1716" y1="623" x2="1716" y2="736" stroke="black" />
<circle cx="1716" cy="736" r="4" fill="white" stroke="black" />
<text x="1716" y="748" font-family="Verdana" font-size="8" text-anchor="middle"  dominant-baseline="middle" fill="black" > 721</text>
<circle cx="1749" cy="619" r="4" fill="white" stroke="black" />
<line x1="1749" y1="623" x2="1749" y2="736" stroke="black" />
<circle cx="1749" cy="736" r="4" fill="white" stroke="black" />
<text x="1749" y="748" font-family="Verdana" font-size="8" text-anchor="middle"  dominant-baseline="middle" fill="black" > 721</text>
<circle cx="1782" cy="619" r="4" fill="white" stroke="black" />
<line x1="1782" y1="623" x2="1782" y2="736" stroke="black" />
<circle cx="1782" cy="736" r="4" fill="white" stroke="black" />
<text x="1782" y="748" font-family="Verdana" font-size="8" text-anchor="middle"  dominant-baseline="middle" fill="black" > 721</text>
<text x="1900" y="7" font-family="Verdana" font-size="7" text-anchor="middle"  dominant-baseline="middle" fill="black" > C12</text>
<circle cx="1900" cy="15" r="4" fill="white" stroke="black" />
<line x1="1900" y1="19" x2="1900" y2="152" stroke="black" />
<line x1="1850" y1="152" x2="1950" y2="152" stroke="black" />
<text x="1925" y="144" font-family="Verdana" font-size="8" text-anchor="middle"  dominant-baseline="middle" fill="black" > 137</text>
<circle cx="1850" cy="152" r="4" fill="white" stroke="black" />
<line x1="1850" y1="156" x2="1850" y2="485" stroke="black" />
<line x1="1816" y1="485" x2="1884" y2="485" stroke="black" />
<text x="1858" y="477" font-family="Verdana" font-size="8" text-anchor="middle"  dominant-baseline="middle" fill="black" > 470</text>
<circle cx="1816" cy="485" r="4" fill="white" stroke="black" />
<line x1="1816" y1="489" x2="1816" y2="736" stroke="black" />
<circle cx="1816" cy="736" r="4" fill="white" stroke="black" />
<text x="1816" y="748" font-family="Verdana" font-size="8" text-anchor="middle"  dominant-baseline="middle" fill="black" > 721</text>
<circle cx="1849" cy="485" r="4" fill="white" stroke="black" />
<line x1="1849" y1="489" x2="1849" y2="736" stroke="black" />
<circle cx="1849" cy="736" r="4" fill="white" stroke="black" />
<text x="1849" y="748" font-family="Verdana" font-size="8" text-anchor="middle"  dominant-baseline="middle" fill="black" > 721</text>
<circle cx="1882" cy="485" r="4" fill="white" stroke="black" />
<line x1="1882" y1="489" x2="1882" y2="502" stroke="black" />
<line x1="1871" y1="502" x2="1894" y2="502" stroke="black" />
<text x="1884" y="494" font-family="Verdana" font-size="8" text-anchor="middle"  dominant-baseline="middle" fill="black" > 487</text>
<circle cx="1871" cy="502" r="4" fill="white" stroke="black" />
<circle cx="1882" cy="502" r="4" fill="white" stroke="black" />
<line x1="1871" y1="506" x2="1871" y2="674" stroke="black" />
<line x1="1871" y1="674" x2="1876" y2="731" stroke="black" />
<line x1="1882" y1="506" x2="1882" y2="674" stroke="black" />
<line x1="1882" y1="674" x2="1876" y2="731" stroke="black" />
<text x="1876" y="719" font-family="Verdana" font-size="8" text-anchor="middle"  dominant-baseline="middle" fill="black" > 716</text>
<circle cx="1876" cy="731" r="4" fill="white" stroke="black" />
<line x1="1876" y1="735" x2="1876" y2="736" stroke="black" />
<circle cx="1876" cy="736" r="4" fill="white" stroke="black" />
<text x="1876" y="748" font-family="Verdana" font-size="8" text-anchor="middle"  dominant-baseline="middle" fill="black" > 721</text>
<circle cx="1893" cy="502" r="4" fill="white" stroke="black" />
<line x1="1893" y1="506" x2="1893" y2="736" stroke="black" />
<circle cx="1893" cy="736" r="4" fill="white" stroke="black" />
<text x="1893" y="748" font-family="Verdana" font-size="8" text-anchor="middle"  dominant-baseline="middle" fill="black" > 721</text>
<circle cx="1950" cy="152" r="4" fill="white" stroke="black" />
<line x1="1950" y1="156" x2="1950" y2="299" stroke="black" />
<line x1="1925" y1="299" x2="1975" y2="299" stroke="black" />
<text x="1962" y="291" font-family="Verdana" font-size="8" text-anchor="middle"  dominant-baseline="middle" fill="black" > 284</text>
<circle cx="1925" cy="299" r="4" fill="white" stroke="black" />
<line x1="1925" y1="303" x2="1925" y2="525" stroke="black" />
<line x1="1912" y1="525" x2="1938" y2="525" stroke="black" />
<text x="1931" y="517" font-family="Verdana" font-size="8" text-anchor="middle"  dominant-baseline="middle" fill="black" > 510</text>
<circle cx="1912" cy="525" r="4" fill="white" stroke="black" />
<line x1="1912" y1="529" x2="1912" y2="736" stroke="black" />
<circle cx="1912" cy="736" r="4" fill="white" stroke="black" />
<text x="1912" y="748" font-family="Verdana" font-size="8" text-anchor="middle"  dominant-baseline="middle" fill="black" > 721</text>
<circle cx="1937" cy="525" r="4" fill="white" stroke="black" />
<line x1="1937" y1="529" x2="1937" y2="715" stroke="black" />
<line x1="1931" y1="715" x2="1944" y2="715" stroke="black" />
<text x="1940" y="707" font-family="Verdana" font-size="8" text-anchor="middle"  dominant-baseline="middle" fill="black" > 700</text>
<circle cx="1931" cy="715" r="4" fill="white" stroke="black" />
<line x1="1931" y1="719" x2="1931" y2="736" stroke="black" />
<circle cx="1931" cy="736" r="4" fill="white" stroke="black" />
<text x="1931" y="748" font-family="Verdana" font-size="8" text-anchor="middle"  dominant-baseline="middle" fill="black" > 721</text>
<circle cx="1943" cy="715" r="4" fill="white" stroke="black" />
<line x1="1943" y1="719" x2="1943" y2="736" stroke="black" />
<circle cx="1943" cy="736" r="4" fill="white" stroke="black" />
<text x="1943" y="748" font-family="Verdana" font-size="8" text-anchor="middle"  dominant-baseline="middle" fill="black" > 721</text>
<circle cx="1975" cy="299" r="4" fill="white" stroke="black" />
<line x1="1975" y1="303" x2="1975" y2="454" stroke="black" />
<line x1="1962" y1="454" x2="1988" y2="454" stroke="black" />
<text x="1981" y="446" font-family="Verdana" font-size="8" text-anchor="middle"  dominant-baseline="middle" fill="black" > 439</text>
<circle cx="1962" cy="454" r="4" fill="white" stroke="black" />
<line x1="1962" y1="458" x2="1962" y2="736" stroke="black" />
<circle cx="1962" cy="736" r="4" fill="white" stroke="black" />
<text x="1962" y="748" font-family="Verdana" font-size="8" text-anchor="middle"  dominant-baseline="middle" fill="black" > 721</text>
<circle cx="1987" cy="454" r="4" fill="white" stroke="black" />
<line x1="1987" y1="458" x2="1987" y2="736" stroke="black" />
<circle cx="1987" cy="736" r="4" fill="white" stroke="black" />
<text x="1987" y="748" font-family="Verdana" font-size="8" text-anchor="middle"  dominant-baseline="middle" fill="black" > 721</text>
<text x="2100" y="7" font-family="Verdana" font-size="7" text-anchor="middle"  dominant-baseline="middle" fill="black" > C13</text>
<circle cx="2100" cy="15" r="4" fill="white" stroke="black" />
<line x1="2100" y1="19" x2="2100" y2="201" stroke="black" />
<line x1="2050" y1="201" x2="2150" y2="201" stroke="black" />
<text x="2125" y="193" font-family="Verdana" font-size="8" text-anchor="middle"  dominant-baseline="middle" fill="black" > 186</text>
<circle cx="2050" cy="201" r="4" fill="white" stroke="black" />
<line x1="2050" y1="205" x2="2050" y2="564" stroke="black" />
<line x1="2016" y1="564" x2="2084" y2="564" stroke="black" />
<text x="2058" y="556" font-family="Verdana" font-size="8" text-anchor="middle"  dominant-baseline="middle" fill="black" > 549</text>
<circle cx="2016" cy="564" r="4" fill="white" stroke="black" />
<line x1="2016" y1="568" x2="2016" y2="736" stroke="black" />
<circle cx="2016" cy="736" r="4" fill="white" stroke="black" />
<text x="2016" y="748" font-family="Verdana" font-size="8" text-anchor="middle"  dominant-baseline="middle" fill="black" > 721</text>
<circle cx="2049" cy="564" r="4" fill="white" stroke="black" />
<circle cx="2082" cy="564" r="4" fill="white" stroke="black" />
<line x1="2049" y1="568" x2="2049" y2="593" stroke="black" />
<line x1="2049" y1="593" x2="2065" y2="602" stroke="black" />
<line x1="2082" y1="568" x2="2082" y2="593" stroke="black" />
<line x1="2082" y1="593" x2="2065" y2="602" stroke="black" />
<text x="2065" y="590" font-family="Verdana" font-size="8" text-anchor="middle"  dominant-baseline="middle" fill="black" > 587</text>
<circle cx="2065" cy="602" r="4" fill="white" stroke="black" />
<line x1="2065" y1="606" x2="2065" y2="658" stroke="black" />
<line x1="2061" y1="654" x2="2069" y2="662" stroke="red" />
<line x1="2061" y1="662" x2="2069" y2="654" stroke="red" />
<text x="2065" y="670" font-family="Verdana" font-size="8" text-anchor="middle"  dominant-baseline="middle" fill="black" > 643</text>
<circle cx="2150" cy="201" r="4" fill="white" stroke="black" />
<line x1="2150" y1="205" x2="2150" y2="347" stroke="black" />
<line x1="2125" y1="347" x2="2175" y2="347" stroke="black" />
<text x="2162" y="339" font-family="Verdana" font-size="8" text-anchor="middle"  dominant-baseline="middle" fill="black" > 332</text>
<circle cx="2125" cy="347" r="4" fill="white" stroke="black" />
<line x1="2125" y1="351" x2="2125" y2="736" stroke="black" />
<circle cx="2125" cy="736" r="4" fill="white" stroke="black" />
<text x="2125" y="748" font-family="Verdana" font-size="8" text-anchor="middle"  dominant-baseline="middle" fill="black" > 721</text>
<circle cx="2175" cy="347" r="4" fill="white" stroke="black" />
<line x1="2175" y1="351" x2="2175" y2="502" stroke="black" />
<line x1="2171" y1="498" x2="2179" y2="506" stroke="red" />
<line x1="2171" y1="506" x2="2179" y2="498" stroke="red" />
<text x="2175" y="514" font-family="Verdana" font-size="8" text-anchor="middle"  dominant-baseline="middle" fill="black" > 487</text>
<text x="2250" y="7" font-family="Verdana" font-size="7" text-anchor="middle"  dominant-baseline="middle" fill="black" > C14</text>
<circle cx="2250" cy="15" r="4" fill="white" stroke="black" />
<line x1="2250" y1="19" x2="2250" y2="280" stroke="black" />
<line x1="2246" y1="276" x2="2254" y2="284" stroke="red" />
<line x1="2246" y1="284" x2="2254" y2="276" stroke="red" />
<text x="2250" y="292" font-family="Verdana" font-size="8" text-anchor="middle"  dominant-baseline="middle" fill="black" > 265</text>
<text x="2500" y="7" font-family="Verdana" font-size="7" text-anchor="middle"  dominant-baseline="middle" fill="black" > C15</text>
<circle cx="2500" cy="15" r="4" fill="white" stroke="black" />
<line x1="2500" y1="19" x2="2500" y2="477" stroke="black" />
<line x1="2350" y1="477" x2="2650" y2="477" stroke="black" />
<text x="2525" y="469" font-family="Verdana" font-size="8" text-anchor="middle"  dominant-baseline="middle" fill="black" > 462</text>
<circle cx="2350" cy="477" r="4" fill="white" stroke="black" />
<line x1="2350" y1="481" x2="2350" y2="736" stroke="black" />
<circle cx="2350" cy="736" r="4" fill="white" stroke="black" />
<text x="2350" y="748" font-family="Verdana" font-size="8" text-anchor="middle"  dominant-baseline="middle" fill="black" > 721</text>
<circle cx="2450" cy="477" r="4" fill="white" stroke="black" />
<circle cx="2550" cy="477" r="4" fill="white" stroke="black" />
<line x1="2450" y1="481" x2="2450" y2="492" stroke="black" />
<line x1="2450" y1="492" x2="2500" y2="497" stroke="black" />
<line x1="2550" y1="481" x2="2550" y2="492" stroke="black" />
<line x1="2550" y1="492" x2="2500" y2="497" stroke="black" />
<text x="2500" y="485" font-family="Verdana" font-size="8" text-anchor="middle"  dominant-baseline="middle" fill="black" > 482</text>
<circle cx="2500" cy="497" r="4" fill="white" stroke="black" />
<circle cx="2650" cy="477" r="4" fill="white" stroke="black" />
<line x1="2500" y1="501" x2="2500" y2="503" stroke="black" />
<line x1="2500" y1="503" x2="2575" y2="504" stroke="black" />
<line x1="2650" y1="481" x2="2650" y2="503" stroke="black" />
<line x1="2650" y1="503" x2="2575" y2="504" stroke="black" />
<text x="2575" y="492" font-family="Verdana" font-size="8" text-anchor="middle"  dominant-baseline="middle" fill="black" > 489</text>
<circle cx="2575" cy="504" r="4" fill="white" stroke="black" />
<line x1="2575" y1="508" x2="2575" y2="736" stroke="black" />
<circle cx="2575" cy="736" r="4" fill="white" stroke="black" />
<text x="2575" y="748" font-family="Verdana" font-size="8" text-anchor="middle"  dominant-baseline="middle" fill="black" > 721</text>
<text x="2850" y="7" font-family="Verdana" font-size="7" text-anchor="middle"  dominant-baseline="middle" fill="black" > C16</text>
<circle cx="2850" cy="15" r="4" fill="white" stroke="black" />
<line x1="2850" y1="19" x2="2850" y2="441" stroke="black" />
<line x1="2750" y1="441" x2="2950" y2="441" stroke="black" />
<text x="2875" y="433" font-family="Verdana" font-size="8" text-anchor="middle"  dominant-baseline="middle" fill="black" > 426</text>
<circle cx="2750" cy="441" r="4" fill="white" stroke="black" />
<line x1="2750" y1="445" x2="2750" y2="498" stroke="black" />
<line x1="2746" y1="502" x2="2750" y2="494" stroke="blue" />
<line x1="2750" y1="502" x2="2754" y2="494" stroke="blue" />
<text x="2750" y="510" font-family="Verdana" font-size="8" text-anchor="middle"  dominant-baseline="middle" fill="black" > 483</text>
<circle cx="2850" cy="441" r="4" fill="white" stroke="black" />
<line x1="2850" y1="445" x2="2850" y2="498" stroke="black" />
<line x1="2846" y1="502" x2="2850" y2="494" stroke="blue" />
<line x1="2850" y1="502" x2="2854" y2="494" stroke="blue" />
<text x="2850" y="510" font-family="Verdana" font-size="8" text-anchor="middle"  dominant-baseline="middle" fill="black" > 483</text>
<circle cx="2950" cy="441" r="4" fill="white" stroke="black" />
<line x1="2950" y1="445" x2="2950" y2="735" stroke="black" />
<line x1="2925" y1="735" x2="2975" y2="735" stroke="black" />
<text x="2962" y="727" font-family="Verdana" font-size="8" text-anchor="middle"  dominant-baseline="middle" fill="black" > 720</text>
<circle cx="2925" cy="735" r="4" fill="white" stroke="black" />
<line x1="2925" y1="739" x2="2925" y2="736" stroke="black" />
<circle cx="2925" cy="736" r="4" fill="white" stroke="black" />
<text x="2925" y="748" font-family="Verdana" font-size="8" text-anchor="middle"  dominant-baseline="middle" fill="black" > 721</text>
<circle cx="2975" cy="735" r="4" fill="white" stroke="black" />
<line x1="2975" y1="739" x2="2975" y2="736" stroke="black" />
<circle cx="2975" cy="736" r="4" fill="white" stroke="black" />
<text x="2975" y="748" font-family="Verdana" font-size="8" text-anchor="middle"  dominant-baseline="middle" fill="black" > 721</text>
<text x="3100" y="7" font-family="Verdana" font-size="7" text-anchor="middle"  dominant-baseline="middle" fill="black" > C17</text>
<circle cx="3100" cy="15" r="4" fill="white" stroke="black" />
<line x1="3100" y1="19" x2="3100" y2="199" stroke="black" />
<line x1="3050" y1="199" x2="3150" y2="199" stroke="black" />
<text x="3125" y="191" font-family="Verdana" font-size="8" text-anchor="middle"  dominant-baseline="middle" fill="black" > 184</text>
<circle cx="3050" cy="199" r="4" fill="white" stroke="black" />
<line x1="3050" y1="203" x2="3050" y2="449" stroke="black" />
<line x1="3025" y1="449" x2="3075" y2="449" stroke="black" />
<text x="3062" y="441" font-family="Verdana" font-size="8" text-anchor="middle"  dominant-baseline="middle" fill="black" > 434</text>
<circle cx="3025" cy="449" r="4" fill="white" stroke="black" />
<circle cx="3075" cy="449" r="4" fill="white" stroke="black" />
<line x1="3025" y1="453" x2="3025" y2="480" stroke="black" />
<line x1="3025" y1="480" x2="3050" y2="490" stroke="black" />
<line x1="3075" y1="453" x2="3075" y2="480" stroke="black" />
<line x1="3075" y1="480" x2="3050" y2="490" stroke="black" />
<text x="3050" y="478" font-family="Verdana" font-size="8" text-anchor="middle"  dominant-baseline="middle" fill="black" > 475</text>
<circle cx="3050" cy="490" r="4" fill="white" stroke="black" />
<circle cx="3150" cy="199" r="4" fill="white" stroke="black" />
<line x1="3150" y1="203" x2="3150" y2="338" stroke="black" />
<line x1="3125" y1="338" x2="3175" y2="338" stroke="black" />
<text x="3162" y="330" font-family="Verdana" font-size="8" text-anchor="middle"  dominant-baseline="middle" fill="black" > 323</text>
<circle cx="3125" cy="338" r="4" fill="white" stroke="black" />
<line x1="3125" y1="342" x2="3125" y2="472" stroke="black" />
<line x1="3112" y1="472" x2="3138" y2="472" stroke="black" />
<text x="3131" y="464" font-family="Verdana" font-size="8" text-anchor="middle"  dominant-baseline="middle" fill="black" > 457</text>
<circle cx="3112" cy="472" r="4" fill="white" stroke="black" />
<line x1="3112" y1="476" x2="3112" y2="656" stroke="black" />
<line x1="3106" y1="656" x2="3119" y2="656" stroke="black" />
<text x="3115" y="648" font-family="Verdana" font-size="8" text-anchor="middle"  dominant-baseline="middle" fill="black" > 641</text>
<circle cx="3106" cy="656" r="4" fill="white" stroke="black" />
<circle cx="3118" cy="656" r="4" fill="white" stroke="black" />
<line x1="3050" y1="494" x2="3050" y2="677" stroke="black" />
<line x1="3050" y1="677" x2="3084" y2="684" stroke="black" />
<line x1="3106" y1="660" x2="3106" y2="677" stroke="black" />
<line x1="3106" y1="677" x2="3084" y2="684" stroke="black" />
<line x1="3118" y1="660" x2="3118" y2="677" stroke="black" />
<line x1="3118" y1="677" x2="3084" y2="684" stroke="black" />
<text x="3084" y="672" font-family="Verdana" font-size="8" text-anchor="middle"  dominant-baseline="middle" fill="black" > 669</text>
<circle cx="3084" cy="684" r="4" fill="white" stroke="black" />
<line x1="3084" y1="688" x2="3084" y2="685" stroke="black" />
<line x1="3080" y1="681" x2="3088" y2="689" stroke="red" />
<line x1="3080" y1="689" x2="3088" y2="681" stroke="red" />
<text x="3084" y="697" font-family="Verdana" font-size="8" text-anchor="middle"  dominant-baseline="middle" fill="black" > 670</text>
<circle cx="3137" cy="472" r="4" fill="white" stroke="black" />
<line x1="3137" y1="476" x2="3137" y2="666" stroke="black" />
<line x1="3131" y1="666" x2="3144" y2="666" stroke="black" />
<text x="3140" y="658" font-family="Verdana" font-size="8" text-anchor="middle"  dominant-baseline="middle" fill="black" > 651</text>
<circle cx="3131" cy="666" r="4" fill="white" stroke="black" />
<line x1="3131" y1="670" x2="3131" y2="736" stroke="black" />
<circle cx="3131" cy="736" r="4" fill="white" stroke="black" />
<text x="3131" y="748" font-family="Verdana" font-size="8" text-anchor="middle"  dominant-baseline="middle" fill="black" > 721</text>
<circle cx="3143" cy="666" r="4" fill="white" stroke="black" />
<line x1="3143" y1="670" x2="3143" y2="736" stroke="black" />
<circle cx="3143" cy="736" r="4" fill="white" stroke="black" />
<text x="3143" y="748" font-family="Verdana" font-size="8" text-anchor="middle"  dominant-baseline="middle" fill="black" > 721</text>
<circle cx="3175" cy="338" r="4" fill="white" stroke="black" />
<line x1="3175" y1="342" x2="3175" y2="469" stroke="black" />
<line x1="3162" y1="469" x2="3188" y2="469" stroke="black" />
<text x="3181" y="461" font-family="Verdana" font-size="8" text-anchor="middle"  dominant-baseline="middle" fill="black" > 454</text>
<circle cx="3162" cy="469" r="4" fill="white" stroke="black" />
<line x1="3162" y1="473" x2="3162" y2="706" stroke="black" />
<line x1="3156" y1="706" x2="3169" y2="706" stroke="black" />
<text x="3165" y="698" font-family="Verdana" font-size="8" text-anchor="middle"  dominant-baseline="middle" fill="black" > 691</text>
<circle cx="3156" cy="706" r="4" fill="white" stroke="black" />
<line x1="3156" y1="710" x2="3156" y2="736" stroke="black" />
<circle cx="3156" cy="736" r="4" fill="white" stroke="black" />
<text x="3156" y="748" font-family="Verdana" font-size="8" text-anchor="middle"  dominant-baseline="middle" fill="black" > 721</text>
<circle cx="3168" cy="706" r="4" fill="white" stroke="black" />
<line x1="3168" y1="710" x2="3168" y2="736" stroke="black" />
<circle cx="3168" cy="736" r="4" fill="white" stroke="black" />
<text x="3168" y="748" font-family="Verdana" font-size="8" text-anchor="middle"  dominant-baseline="middle" fill="black" > 721</text>
<circle cx="3187" cy="469" r="4" fill="white" stroke="black" />
<line x1="3187" y1="473" x2="3187" y2="648" stroke="black" />
<line x1="3181" y1="648" x2="3194" y2="648" stroke="black" />
<text x="3190" y="640" font-family="Verdana" font-size="8" text-anchor="middle"  dominant-baseline="middle" fill="black" > 633</text>
<circle cx="3181" cy="648" r="4" fill="white" stroke="black" />
<line x1="3181" y1="652" x2="3181" y2="736" stroke="black" />
<circle cx="3181" cy="736" r="4" fill="white" stroke="black" />
<text x="3181" y="748" font-family="Verdana" font-size="8" text-anchor="middle"  dominant-baseline="middle" fill="black" > 721</text>
<circle cx="3193" cy="648" r="4" fill="white" stroke="black" />
<line x1="3193" y1="652" x2="3193" y2="736" stroke="black" />
<circle cx="3193" cy="736" r="4" fill="white" stroke="black" />
<text x="3193" y="748" font-family="Verdana" font-size="8" text-anchor="middle"  dominant-baseline="middle" fill="black" > 721</text>
<text x="3300" y="7" font-family="Verdana" font-size="7" text-anchor="middle"  dominant-baseline="middle" fill="black" > C18</text>
<circle cx="3300" cy="15" r="4" fill="white" stroke="black" />
<line x1="3300" y1="19" x2="3300" y2="28" stroke="black" />
<line x1="3250" y1="28" x2="3350" y2="28" stroke="black" />
<text x="3325" y="20" font-family="Verdana" font-size="8" text-anchor="middle"  dominant-baseline="middle" fill="black" > 13</text>
<circle cx="3250" cy="28" r="4" fill="white" stroke="black" />
<circle cx="3350" cy="28" r="4" fill="white" stroke="black" />
<line x1="3250" y1="32" x2="3250" y2="55" stroke="black" />
<line x1="3250" y1="55" x2="3300" y2="64" stroke="black" />
<line x1="3350" y1="32" x2="3350" y2="55" stroke="black" />
<line x1="3350" y1="55" x2="3300" y2="64" stroke="black" />
<text x="3300" y="52" font-family="Verdana" font-size="8" text-anchor="middle"  dominant-baseline="middle" fill="black" > 49</text>
<circle cx="3300" cy="64" r="4" fill="white" stroke="black" />
<line x1="3300" y1="68" x2="3300" y2="157" stroke="black" />
<line x1="3296" y1="153" x2="3304" y2="161" stroke="red" />
<line x1="3296" y1="161" x2="3304" y2="153" stroke="red" />
<text x="3300" y="169" font-family="Verdana" font-size="8" text-anchor="middle"  dominant-baseline="middle" fill="black" > 142</text>
<text x="3450" y="7" font-family="Verdana" font-size="7" text-anchor="middle"  dominant-baseline="middle" fill="black" > C19</text>
<circle cx="3450" cy="15" r="4" fill="white" stroke="black" />
<line x1="3450" y1="19" x2="3450" y2="171" stroke="black" />
<line x1="3446" y1="167" x2="3454" y2="175" stroke="red" />
<line x1="3446" y1="175" x2="3454" y2="167" stroke="red" />
<text x="3450" y="183" font-family="Verdana" font-size="8" text-anchor="middle"  dominant-baseline="middle" fill="black" > 156</text>
<text x="3600" y="7" font-family="Verdana" font-size="7" text-anchor="middle"  dominant-baseline="middle" fill="black" > C20</text>
<circle cx="3600" cy="15" r="4" fill="white" stroke="black" />
<line x1="3600" y1="19" x2="3600" y2="192" stroke="black" />
<line x1="3550" y1="192" x2="3650" y2="192" stroke="black" />
<text x="3625" y="184" font-family="Verdana" font-size="8" text-anchor="middle"  dominant-baseline="middle" fill="black" > 177</text>
<circle cx="3550" cy="192" r="4" fill="white" stroke="black" />
<line x1="3550" y1="196" x2="3550" y2="204" stroke="black" />
<line x1="3546" y1="208" x2="3550" y2="200" stroke="blue" />
<line x1="3550" y1="208" x2="3554" y2="200" stroke="blue" />
<text x="3550" y="216" font-family="Verdana" font-size="8" text-anchor="middle"  dominant-baseline="middle" fill="black" > 189</text>
<circle cx="3650" cy="192" r="4" fill="white" stroke="black" />
<line x1="3650" y1="196" x2="3650" y2="647" stroke="black" />
<line x1="3646" y1="651" x2="3650" y2="643" stroke="blue" />
<line x1="3650" y1="651" x2="3654" y2="643" stroke="blue" />
<text x="3650" y="659" font-family="Verdana" font-size="8" text-anchor="middle"  dominant-baseline="middle" fill="black" > 632</text>
<text x="3800" y="7" font-family="Verdana" font-size="7" text-anchor="middle"  dominant-baseline="middle" fill="black" > C21</text>
<circle cx="3800" cy="15" r="4" fill="white" stroke="black" />
<line x1="3800" y1="19" x2="3800" y2="254" stroke="black" />
<line x1="3750" y1="254" x2="3850" y2="254" stroke="black" />
<text x="3825" y="246" font-family="Verdana" font-size="8" text-anchor="middle"  dominant-baseline="middle" fill="black" > 239</text>
<circle cx="3750" cy="254" r="4" fill="white" stroke="black" />
<line x1="3750" y1="258" x2="3750" y2="342" stroke="black" />
<line x1="3746" y1="338" x2="3754" y2="346" stroke="red" />
<line x1="3746" y1="346" x2="3754" y2="338" stroke="red" />
<text x="3750" y="354" font-family="Verdana" font-size="8" text-anchor="middle"  dominant-baseline="middle" fill="black" > 327</text>
<circle cx="3850" cy="254" r="4" fill="white" stroke="black" />
<line x1="3850" y1="258" x2="3850" y2="336" stroke="black" />
<line x1="3846" y1="332" x2="3854" y2="340" stroke="red" />
<line x1="3846" y1="340" x2="3854" y2="332" stroke="red" />
<text x="3850" y="348" font-family="Verdana" font-size="8" text-anchor="middle"  dominant-baseline="middle" fill="black" > 321</text>
<text x="4100" y="7" font-family="Verdana" font-size="7" text-anchor="middle"  dominant-baseline="middle" fill="black" > C22</text>
<circle cx="4100" cy="15" r="4" fill="white" stroke="black" />
<line x1="4100" y1="19" x2="4100" y2="515" stroke="black" />
<line x1="3950" y1="515" x2="4250" y2="515" stroke="black" />
<text x="4125" y="507" font-family="Verdana" font-size="8" text-anchor="middle"  dominant-baseline="middle" fill="black" > 500</text>
<circle cx="3950" cy="515" r="4" fill="white" stroke="black" />
<circle cx="4050" cy="515" r="4" fill="white" stroke="black" />
<line x1="3950" y1="519" x2="3950" y2="524" stroke="black" />
<line x1="3950" y1="524" x2="4000" y2="526" stroke="black" />
<line x1="4050" y1="519" x2="4050" y2="524" stroke="black" />
<line x1="4050" y1="524" x2="4000" y2="526" stroke="black" />
<text x="4000" y="514" font-family="Verdana" font-size="8" text-anchor="middle"  dominant-baseline="middle" fill="black" > 511</text>
<circle cx="4000" cy="526" r="4" fill="white" stroke="black" />
<circle cx="4150" cy="515" r="4" fill="white" stroke="black" />
<circle cx="4250" cy="515" r="4" fill="white" stroke="black" />
<line x1="4150" y1="519" x2="4150" y2="531" stroke="black" />
<line x1="4150" y1="531" x2="4200" y2="536" stroke="black" />
<line x1="4250" y1="519" x2="4250" y2="531" stroke="black" />
<line x1="4250" y1="531" x2="4200" y2="536" stroke="black" />
<text x="4200" y="524" font-family="Verdana" font-size="8" text-anchor="middle"  dominant-baseline="middle" fill="black" > 521</text>
<circle cx="4200" cy="536" r="4" fill="white" stroke="black" />
<line x1="4000" y1="530" x2="4000" y2="548" stroke="black" />
<line x1="4000" y1="548" x2="4100" y2="552" stroke="black" />
<line x1="4200" y1="540" x2="4200" y2="548" stroke="black" />
<line x1="4200" y1="548" x2="4100" y2="552" stroke="black" />
<text x="4100" y="540" font-family="Verdana" font-size="8" text-anchor="middle"  dominant-baseline="middle" fill="black" > 537</text>
<circle cx="4100" cy="552" r="4" fill="white" stroke="black" />
<line x1="4100" y1="556" x2="4100" y2="736" stroke="black" />
<circle cx="4100" cy="736" r="4" fill="white" stroke="black" />
<text x="4100" y="748" font-family="Verdana" font-size="8" text-anchor="middle"  dominant-baseline="middle" fill="black" > 721</text>
<text x="4400" y="7" font-family="Verdana" font-size="7" text-anchor="middle"  dominant-baseline="middle" fill="black" > C23</text>
<circle cx="4400" cy="15" r="4" fill="white" stroke="black" />
<line x1="4400" y1="19" x2="4400" y2="496" stroke="black" />
<line x1="4350" y1="496" x2="4450" y2="496" stroke="black" />
<text x="4425" y="488" font-family="Verdana" font-size="8" text-anchor="middle"  dominant-baseline="middle" fill="black" > 481</text>
<circle cx="4350" cy="496" r="4" fill="white" stroke="black" />
<circle cx="4450" cy="496" r="4" fill="white" stroke="black" />
<line x1="4350" y1="500" x2="4350" y2="616" stroke="black" />
<line x1="4350" y1="616" x2="4400" y2="656" stroke="black" />
<line x1="4450" y1="500" x2="4450" y2="616" stroke="black" />
<line x1="4450" y1="616" x2="4400" y2="656" stroke="black" />
<text x="4400" y="644" font-family="Verdana" font-size="8" text-anchor="middle"  dominant-baseline="middle" fill="black" > 641</text>
<circle cx="4400" cy="656" r="4" fill="white" stroke="black" />
<line x1="4400" y1="660" x2="4400" y2="736" stroke="black" />
<circle cx="4400" cy="736" r="4" fill="white" stroke="black" />
<text x="4400" y="748" font-family="Verdana" font-size="8" text-anchor="middle"  dominant-baseline="middle" fill="black" > 721</text>
</svg>
