<?xml version="1.0" encoding="utf-8"?>
<svg xmlns="http://www.w3.org/2000/svg" version="1.1" width="2650" height="750">
<rect width="2650" height="15" x="0" y="0" fill="white" />
<rect width="2650" height="15" x="0" y="735" fill="white" />
<rect width="25" height="750" x="0" y="0" fill="white" />
<rect width="25" height="750" x="2625" y="0" fill="white" />
<rect width="2610" height="144" x="25" y="15" fill="ghostwhite" />
<rect width="2610" height="144" x="25" y="159" fill="snow" />
<rect width="2610" height="144" x="25" y="303" fill="ghostwhite" />
<rect width="2610" height="144" x="25" y="447" fill="snow" />
<rect width="2610" height="144" x="25" y="591" fill="ghostwhite" />
<text x="12" y="87" font-family="Verdana" font-size="10" text-anchor="middle"  dominant-baseline="middle" fill="red" > D0</text>
<text x="12" y="231" font-family="Verdana" font-size="10" text-anchor="middle"  dominant-baseline="middle" fill="red" > D1</text>
<text x="12" y="375" font-family="Verdana" font-size="10" text-anchor="middle"  dominant-baseline="middle" fill="red" > D2</text>
<text x="12" y="519" font-family="Verdana" font-size="10" text-anchor="middle"  dominant-baseline="middle" fill="red" > D3</text>
<text x="12" y="663" font-family="Verdana" font-size="10" text-anchor="middle"  dominant-baseline="middle" fill="red" > D4</text>
<text x="12" y="20" font-family="Verdana" font-size="10" text-anchor="middle"  dominant-baseline="middle" fill="black" > 0</text>
<text x="12" y="164" font-family="Verdana" font-size="10" text-anchor="middle"  dominant-baseline="middle" fill="black" > 144</text>
<text x="12" y="308" font-family="Verdana" font-size="10" text-anchor="middle"  dominant-baseline="middle" fill="black" > 288</text>
<text x="12" y="452" font-family="Verdana" font-size="10" text-anchor="middle"  dominant-baseline="middle" fill="black" > 432</text>
<text x="12" y="596" font-family="Verdana" font-size="10" text-anchor="middle"  dominant-baseline="middle" fill="black" > 576</text>
<text x="12" y="740" font-family="Verdana" font-size="10" text-anchor="middle"  dominant-baseline="middle" fill="black" > 720</text>
<text x="50" y="7" font-family="Verdana" font-size="7" text-anchor="middle"  dominant-baseline="middle" fill="black" > C1</text>
<circle cx="50" cy="15" r="4" fill="white" stroke="black" />
<line x1="50" y1="19" x2="50" y2="18" stroke="black" />
<line x1="46" y1="22" x2="50" y2="14" stroke="blue" />
<line x1="50" y1="22" x2="54" y2="14" stroke="blue" />
<text x="50" y="30" font-family="Verdana" font-size="8" text-anchor="middle"  dominant-baseline="middle" fill="black" > 3</text>
<text x="150" y="7" font-family="Verdana" font-size="7" text-anchor="middle"  dominant-baseline="middle" fill="black" > C2</text>
<circle cx="150" cy="15" r="4" fill="white" stroke="black" />
<line x1="150" y1="19" x2="150" y2="384" stroke="black" />
<line x1="146" y1="388" x2="150" y2="380" stroke="blue" />
<line x1="150" y1="388" x2="154" y2="380" stroke="blue" />
<text x="150" y="396" font-family="Verdana" font-size="8" text-anchor="middle"  dominant-baseline="middle" fill="black" > 369</text>
<text x="300" y="7" font-family="Verdana" font-size="7" text-anchor="middle"  dominant-baseline="middle" fill="black" > C3</text>
<circle cx="300" cy="15" r="4" fill="white" stroke="black" />
<line x1="300" y1="19" x2="300" y2="472" stroke="black" />
<line x1="250" y1="472" x2="350" y2="472" stroke="black" />
<text x="325" y="464" font-family="Verdana" font-size="8" text-anchor="middle"  dominant-baseline="middle" fill="black" > 457</text>
<circle cx="250" cy="472" r="4" fill="white" stroke="black" />
<circle cx="350" cy="472" r="4" fill="white" stroke="black" />
<line x1="250" y1="476" x2="250" y2="518" stroke="black" />
<line x1="250" y1="518" x2="300" y2="533" stroke="black" />
<line x1="350" y1="476" x2="350" y2="518" stroke="black" />
<line x1="350" y1="518" x2="300" y2="533" stroke="black" />
<text x="300" y="521" font-family="Verdana" font-size="8" text-anchor="middle"  dominant-baseline="middle" fill="black" > 518</text>
<circle cx="300" cy="533" r="4" fill="white" stroke="black" />
<line x1="300" y1="537" x2="300" y2="736" stroke="black" />
<circle cx="300" cy="736" r="4" fill="white" stroke="black" />
<text x="300" y="748" font-family="Verdana" font-size="8" text-anchor="middle"  dominant-baseline="middle" fill="black" > 721</text>
<text x="450" y="7" font-family="Verdana" font-size="7" text-anchor="middle"  dominant-baseline="middle" fill="black" > C4</text>
<circle cx="450" cy="15" r="4" fill="white" stroke="black" />
<line x1="450" y1="19" x2="450" y2="17" stroke="black" />
<line x1="446" y1="21" x2="450" y2="13" stroke="blue" />
<line x1="450" y1="21" x2="454" y2="13" stroke="blue" />
<text x="450" y="29" font-family="Verdana" font-size="8" text-anchor="middle"  dominant-baseline="middle" fill="black" > 2</text>
<text x="550" y="7" font-family="Verdana" font-size="7" text-anchor="middle"  dominant-baseline="middle" fill="black" > C5</text>
<circle cx="550" cy="15" r="4" fill="white" stroke="black" />
<line x1="550" y1="19" x2="550" y2="340" stroke="black" />
<line x1="546" y1="336" x2="554" y2="344" stroke="red" />
<line x1="546" y1="344" x2="554" y2="336" stroke="red" />
<text x="550" y="352" font-family="Verdana" font-size="8" text-anchor="middle"  dominant-baseline="middle" fill="black" > 325</text>
<text x="650" y="7" font-family="Verdana" font-size="7" text-anchor="middle"  dominant-baseline="middle" fill="black" > C6</text>
<circle cx="650" cy="15" r="4" fill="white" stroke="black" />
<line x1="650" y1="19" x2="650" y2="375" stroke="black" />
<line x1="646" y1="371" x2="654" y2="379" stroke="red" />
<line x1="646" y1="379" x2="654" y2="371" stroke="red" />
<text x="650" y="387" font-family="Verdana" font-size="8" text-anchor="middle"  dominant-baseline="middle" fill="black" > 360</text>
<text x="800" y="7" font-family="Verdana" font-size="7" text-anchor="middle"  dominant-baseline="middle" fill="black" > C7</text>
<circle cx="800" cy="15" r="4" fill="white" stroke="black" />
<line x1="800" y1="19" x2="800" y2="586" stroke="black" />
<line x1="750" y1="586" x2="850" y2="586" stroke="black" />
<text x="825" y="578" font-family="Verdana" font-size="8" text-anchor="middle"  dominant-baseline="middle" fill="black" > 571</text>
<circle cx="750" cy="586" r="4" fill="white" stroke="black" />
<circle cx="850" cy="586" r="4" fill="white" stroke="black" />
<text x="1050" y="7" font-family="Verdana" font-size="7" text-anchor="middle"  dominant-baseline="middle" fill="black" > C11</text>
<circle cx="1050" cy="15" r="4" fill="white" stroke="black" />
<line x1="1050" y1="19" x2="1050" y2="268" stroke="black" />
<line x1="950" y1="268" x2="1150" y2="268" stroke="black" />
<text x="1075" y="260" font-family="Verdana" font-size="8" text-anchor="middle"  dominant-baseline="middle" fill="black" > 253</text>
<circle cx="950" cy="268" r="4" fill="white" stroke="black" />
<circle cx="1050" cy="268" r="4" fill="white" stroke="black" />
<circle cx="1150" cy="268" r="4" fill="white" stroke="black" />
<line x1="950" y1="272" x2="950" y2="281" stroke="black" />
<line x1="950" y1="281" x2="1050" y2="285" stroke="black" />
<line x1="1050" y1="272" x2="1050" y2="281" stroke="black" />
<line x1="1050" y1="281" x2="1050" y2="285" stroke="black" />
<line x1="1150" y1="272" x2="1150" y2="281" stroke="black" />
<line x1="1150" y1="281" x2="1050" y2="285" stroke="black" />
<text x="1050" y="273" font-family="Verdana" font-size="8" text-anchor="middle"  dominant-baseline="middle" fill="black" > 270</text>
<circle cx="1050" cy="285" r="4" fill="white" stroke="black" />
<line x1="750" y1="590" x2="750" y2="589" stroke="black" />
<line x1="750" y1="589" x2="900" y2="590" stroke="black" />
<line x1="850" y1="590" x2="850" y2="589" stroke="black" />
<line x1="850" y1="589" x2="900" y2="590" stroke="black" />
<line x1="1050" y1="289" x2="1050" y2="589" stroke="black" />
<line x1="1050" y1="589" x2="900" y2="590" stroke="black" />
<text x="900" y="578" font-family="Verdana" font-size="8" text-anchor="middle"  dominant-baseline="middle" fill="black" > 575</text>
<circle cx="900" cy="590" r="4" fill="white" stroke="black" />
<line x1="900" y1="594" x2="900" y2="736" stroke="black" />
<circle cx="900" cy="736" r="4" fill="white" stroke="black" />
<text x="900" y="748" font-family="Verdana" font-size="8" text-anchor="middle"  dominant-baseline="middle" fill="black" > 721</text>
<text x="1250" y="7" font-family="Verdana" font-size="7" text-anchor="middle"  dominant-baseline="middle" fill="black" > C8</text>
<circle cx="1250" cy="15" r="4" fill="white" stroke="black" />
<line x1="1250" y1="19" x2="1250" y2="287" stroke="black" />
<line x1="1246" y1="283" x2="1254" y2="291" stroke="red" />
<line x1="1246" y1="291" x2="1254" y2="283" stroke="red" />
<text x="1250" y="299" font-family="Verdana" font-size="8" text-anchor="middle"  dominant-baseline="middle" fill="black" > 272</text>
<text x="1350" y="7" font-family="Verdana" font-size="7" text-anchor="middle"  dominant-baseline="middle" fill="black" > C9</text>
<circle cx="1350" cy="15" r="4" fill="white" stroke="black" />
<line x1="1350" y1="19" x2="1350" y2="316" stroke="black" />
<line x1="1346" y1="312" x2="1354" y2="320" stroke="red" />
<line x1="1346" y1="320" x2="1354" y2="312" stroke="red" />
<text x="1350" y="328" font-family="Verdana" font-size="8" text-anchor="middle"  dominant-baseline="middle" fill="black" > 301</text>
<text x="1450" y="7" font-family="Verdana" font-size="7" text-anchor="middle"  dominant-baseline="middle" fill="black" > C10</text>
<circle cx="1450" cy="15" r="4" fill="white" stroke="black" />
<line x1="1450" y1="19" x2="1450" y2="95" stroke="black" />
<line x1="1446" y1="91" x2="1454" y2="99" stroke="red" />
<line x1="1446" y1="99" x2="1454" y2="91" stroke="red" />
<text x="1450" y="107" font-family="Verdana" font-size="8" text-anchor="middle"  dominant-baseline="middle" fill="black" > 80</text>
<text x="1550" y="7" font-family="Verdana" font-size="7" text-anchor="middle"  dominant-baseline="middle" fill="black" > C12</text>
<circle cx="1550" cy="15" r="4" fill="white" stroke="black" />
<line x1="1550" y1="19" x2="1550" y2="502" stroke="black" />
<line x1="1546" y1="498" x2="1554" y2="506" stroke="red" />
<line x1="1546" y1="506" x2="1554" y2="498" stroke="red" />
<text x="1550" y="514" font-family="Verdana" font-size="8" text-anchor="middle"  dominant-baseline="middle" fill="black" > 487</text>
<text x="1750" y="7" font-family="Verdana" font-size="7" text-anchor="middle"  dominant-baseline="middle" fill="black" > C13</text>
<circle cx="1750" cy="15" r="4" fill="white" stroke="black" />
<line x1="1750" y1="19" x2="1750" y2="182" stroke="black" />
<line x1="1650" y1="182" x2="1850" y2="182" stroke="black" />
<text x="1775" y="174" font-family="Verdana" font-size="8" text-anchor="middle"  dominant-baseline="middle" fill="black" > 167</text>
<circle cx="1650" cy="182" r="4" fill="white" stroke="black" />
<line x1="1650" y1="186" x2="1650" y2="198" stroke="black" />
<line x1="1646" y1="202" x2="1650" y2="194" stroke="blue" />
<line x1="1650" y1="202" x2="1654" y2="194" stroke="blue" />
<text x="1650" y="210" font-family="Verdana" font-size="8" text-anchor="middle"  dominant-baseline="middle" fill="black" > 183</text>
<circle cx="1750" cy="182" r="4" fill="white" stroke="black" />
<line x1="1750" y1="186" x2="1750" y2="381" stroke="black" />
<line x1="1725" y1="381" x2="1775" y2="381" stroke="black" />
<text x="1762" y="373" font-family="Verdana" font-size="8" text-anchor="middle"  dominant-baseline="middle" fill="black" > 366</text>
<circle cx="1725" cy="381" r="4" fill="white" stroke="black" />
<line x1="1725" y1="385" x2="1725" y2="558" stroke="black" />
<line x1="1712" y1="558" x2="1738" y2="558" stroke="black" />
<text x="1731" y="550" font-family="Verdana" font-size="8" text-anchor="middle"  dominant-baseline="middle" fill="black" > 543</text>
<circle cx="1712" cy="558" r="4" fill="white" stroke="black" />
<line x1="1712" y1="562" x2="1712" y2="736" stroke="black" />
<circle cx="1712" cy="736" r="4" fill="white" stroke="black" />
<text x="1712" y="748" font-family="Verdana" font-size="8" text-anchor="middle"  dominant-baseline="middle" fill="black" > 721</text>
<circle cx="1737" cy="558" r="4" fill="white" stroke="black" />
<line x1="1737" y1="562" x2="1737" y2="666" stroke="black" />
<line x1="1733" y1="670" x2="1737" y2="662" stroke="blue" />
<line x1="1737" y1="670" x2="1741" y2="662" stroke="blue" />
<text x="1737" y="678" font-family="Verdana" font-size="8" text-anchor="middle"  dominant-baseline="middle" fill="black" > 651</text>
<circle cx="1775" cy="381" r="4" fill="white" stroke="black" />
<line x1="1775" y1="385" x2="1775" y2="590" stroke="black" />
<line x1="1762" y1="590" x2="1788" y2="590" stroke="black" />
<text x="1781" y="582" font-family="Verdana" font-size="8" text-anchor="middle"  dominant-baseline="middle" fill="black" > 575</text>
<circle cx="1762" cy="590" r="4" fill="white" stroke="black" />
<line x1="1762" y1="594" x2="1762" y2="736" stroke="black" />
<circle cx="1762" cy="736" r="4" fill="white" stroke="black" />
<text x="1762" y="748" font-family="Verdana" font-size="8" text-anchor="middle"  dominant-baseline="middle" fill="black" > 721</text>
<circle cx="1787" cy="590" r="4" fill="white" stroke="black" />
<line x1="1787" y1="594" x2="1787" y2="736" stroke="black" />
<circle cx="1787" cy="736" r="4" fill="white" stroke="black" />
<text x="1787" y="748" font-family="Verdana" font-size="8" text-anchor="middle"  dominant-baseline="middle" fill="black" > 721</text>
<circle cx="1850" cy="182" r="4" fill="white" stroke="black" />
<line x1="1850" y1="186" x2="1850" y2="459" stroke="black" />
<line x1="1846" y1="463" x2="1850" y2="455" stroke="blue" />
<line x1="1850" y1="463" x2="1854" y2="455" stroke="blue" />
<text x="1850" y="471" font-family="Verdana" font-size="8" text-anchor="middle"  dominant-baseline="middle" fill="black" > 444</text>
<text x="2000" y="7" font-family="Verdana" font-size="7" text-anchor="middle"  dominant-baseline="middle" fill="black" > C14</text>
<circle cx="2000" cy="15" r="4" fill="white" stroke="black" />
<line x1="2000" y1="19" x2="2000" y2="293" stroke="black" />
<line x1="1950" y1="293" x2="2050" y2="293" stroke="black" />
<text x="2025" y="285" font-family="Verdana" font-size="8" text-anchor="middle"  dominant-baseline="middle" fill="black" > 278</text>
<circle cx="1950" cy="293" r="4" fill="white" stroke="black" />
<line x1="1950" y1="297" x2="1950" y2="472" stroke="black" />
<line x1="1925" y1="472" x2="1975" y2="472" stroke="black" />
<text x="1962" y="464" font-family="Verdana" font-size="8" text-anchor="middle"  dominant-baseline="middle" fill="black" > 457</text>
<circle cx="1925" cy="472" r="4" fill="white" stroke="black" />
<line x1="1925" y1="476" x2="1925" y2="736" stroke="black" />
<circle cx="1925" cy="736" r="4" fill="white" stroke="black" />
<text x="1925" y="748" font-family="Verdana" font-size="8" text-anchor="middle"  dominant-baseline="middle" fill="black" > 721</text>
<circle cx="1975" cy="472" r="4" fill="white" stroke="black" />
<line x1="1975" y1="476" x2="1975" y2="638" stroke="black" />
<line x1="1962" y1="638" x2="1988" y2="638" stroke="black" />
<text x="1981" y="630" font-family="Verdana" font-size="8" text-anchor="middle"  dominant-baseline="middle" fill="black" > 623</text>
<circle cx="1962" cy="638" r="4" fill="white" stroke="black" />
<line x1="1962" y1="642" x2="1962" y2="736" stroke="black" />
<circle cx="1962" cy="736" r="4" fill="white" stroke="black" />
<text x="1962" y="748" font-family="Verdana" font-size="8" text-anchor="middle"  dominant-baseline="middle" fill="black" > 721</text>
<circle cx="1987" cy="638" r="4" fill="white" stroke="black" />
<line x1="1987" y1="642" x2="1987" y2="736" stroke="black" />
<circle cx="1987" cy="736" r="4" fill="white" stroke="black" />
<text x="1987" y="748" font-family="Verdana" font-size="8" text-anchor="middle"  dominant-baseline="middle" fill="black" > 721</text>
<circle cx="2050" cy="293" r="4" fill="white" stroke="black" />
<line x1="2050" y1="297" x2="2050" y2="509" stroke="black" />
<line x1="2025" y1="509" x2="2075" y2="509" stroke="black" />
<text x="2062" y="501" font-family="Verdana" font-size="8" text-anchor="middle"  dominant-baseline="middle" fill="black" > 494</text>
<circle cx="2025" cy="509" r="4" fill="white" stroke="black" />
<line x1="2025" y1="513" x2="2025" y2="704" stroke="black" />
<line x1="2012" y1="704" x2="2038" y2="704" stroke="black" />
<text x="2031" y="696" font-family="Verdana" font-size="8" text-anchor="middle"  dominant-baseline="middle" fill="black" > 689</text>
<circle cx="2012" cy="704" r="4" fill="white" stroke="black" />
<line x1="2012" y1="708" x2="2012" y2="736" stroke="black" />
<circle cx="2012" cy="736" r="4" fill="white" stroke="black" />
<text x="2012" y="748" font-family="Verdana" font-size="8" text-anchor="middle"  dominant-baseline="middle" fill="black" > 721</text>
<circle cx="2037" cy="704" r="4" fill="white" stroke="black" />
<line x1="2037" y1="708" x2="2037" y2="736" stroke="black" />
<circle cx="2037" cy="736" r="4" fill="white" stroke="black" />
<text x="2037" y="748" font-family="Verdana" font-size="8" text-anchor="middle"  dominant-baseline="middle" fill="black" > 721</text>
<circle cx="2075" cy="509" r="4" fill="white" stroke="black" />
<line x1="2075" y1="513" x2="2075" y2="690" stroke="black" />
<line x1="2062" y1="690" x2="2088" y2="690" stroke="black" />
<text x="2081" y="682" font-family="Verdana" font-size="8" text-anchor="middle"  dominant-baseline="middle" fill="black" > 675</text>
<circle cx="2062" cy="690" r="4" fill="white" stroke="black" />
<line x1="2062" y1="694" x2="2062" y2="736" stroke="black" />
<circle cx="2062" cy="736" r="4" fill="white" stroke="black" />
<text x="2062" y="748" font-family="Verdana" font-size="8" text-anchor="middle"  dominant-baseline="middle" fill="black" > 721</text>
<circle cx="2087" cy="690" r="4" fill="white" stroke="black" />
<line x1="2087" y1="694" x2="2087" y2="736" stroke="black" />
<circle cx="2087" cy="736" r="4" fill="white" stroke="black" />
<text x="2087" y="748" font-family="Verdana" font-size="8" text-anchor="middle"  dominant-baseline="middle" fill="black" > 721</text>
<text x="2150" y="7" font-family="Verdana" font-size="7" text-anchor="middle"  dominant-baseline="middle" fill="black" > C15</text>
<circle cx="2150" cy="15" r="4" fill="white" stroke="black" />
<line x1="2150" y1="19" x2="2150" y2="452" stroke="black" />
<line x1="2146" y1="456" x2="2150" y2="448" stroke="blue" />
<line x1="2150" y1="456" x2="2154" y2="448" stroke="blue" />
<text x="2150" y="464" font-family="Verdana" font-size="8" text-anchor="middle"  dominant-baseline="middle" fill="black" > 437</text>
<text x="2250" y="7" font-family="Verdana" font-size="7" text-anchor="middle"  dominant-baseline="middle" fill="black" > C16</text>
<circle cx="2250" cy="15" r="4" fill="white" stroke="black" />
<line x1="2250" y1="19" x2="2250" y2="36" stroke="black" />
<line x1="2246" y1="40" x2="2250" y2="32" stroke="blue" />
<line x1="2250" y1="40" x2="2254" y2="32" stroke="blue" />
<text x="2250" y="48" font-family="Verdana" font-size="8" text-anchor="middle"  dominant-baseline="middle" fill="black" > 21</text>
<text x="2350" y="7" font-family="Verdana" font-size="7" text-anchor="middle"  dominant-baseline="middle" fill="black" > C17</text>
<circle cx="2350" cy="15" r="4" fill="white" stroke="black" />
<line x1="2350" y1="19" x2="2350" y2="222" stroke="black" />
<line x1="2346" y1="218" x2="2354" y2="226" stroke="red" />
<line x1="2346" y1="226" x2="2354" y2="218" stroke="red" />
<text x="2350" y="234" font-family="Verdana" font-size="8" text-anchor="middle"  dominant-baseline="middle" fill="black" > 207</text>
<text x="2500" y="7" font-family="Verdana" font-size="7" text-anchor="middle"  dominant-baseline="middle" fill="black" > C18</text>
<circle cx="2500" cy="15" r="4" fill="white" stroke="black" />
<line x1="2500" y1="19" x2="2500" y2="290" stroke="black" />
<line x1="2450" y1="290" x2="2550" y2="290" stroke="black" />
<text x="2525" y="282" font-family="Verdana" font-size="8" text-anchor="middle"  dominant-baseline="middle" fill="black" > 275</text>
<circle cx="2450" cy="290" r="4" fill="white" stroke="black" />
<circle cx="2550" cy="290" r="4" fill="white" stroke="black" />
<line x1="2450" y1="294" x2="2450" y2="338" stroke="black" />
<line x1="2450" y1="338" x2="2500" y2="353" stroke="black" />
<line x1="2550" y1="294" x2="2550" y2="338" stroke="black" />
<line x1="2550" y1="338" x2="2500" y2="353" stroke="black" />
<text x="2500" y="341" font-family="Verdana" font-size="8" text-anchor="middle"  dominant-baseline="middle" fill="black" > 338</text>
<circle cx="2500" cy="353" r="4" fill="white" stroke="black" />
<line x1="2500" y1="357" x2="2500" y2="446" stroke="black" />
<line x1="2496" y1="442" x2="2504" y2="450" stroke="red" />
<line x1="2496" y1="450" x2="2504" y2="442" stroke="red" />
<text x="2500" y="458" font-family="Verdana" font-size="8" text-anchor="middle"  dominant-baseline="middle" fill="black" > 431</text>
</svg>
