<?xml version="1.0" encoding="utf-8"?>
<svg xmlns="http://www.w3.org/2000/svg" version="1.1" width="1950" height="750">
<rect width="1950" height="15" x="0" y="0" fill="white" />
<rect width="1950" height="15" x="0" y="735" fill="white" />
<rect width="25" height="750" x="0" y="0" fill="white" />
<rect width="25" height="750" x="1925" y="0" fill="white" />
<rect width="1910" height="144" x="25" y="15" fill="ghostwhite" />
<rect width="1910" height="144" x="25" y="159" fill="snow" />
<rect width="1910" height="144" x="25" y="303" fill="ghostwhite" />
<rect width="1910" height="144" x="25" y="447" fill="snow" />
<rect width="1910" height="144" x="25" y="591" fill="ghostwhite" />
<text x="12" y="87" font-family="Verdana" font-size="10" text-anchor="middle"  dominant-baseline="middle" fill="red" > D0</text>
<text x="12" y="231" font-family="Verdana" font-size="10" text-anchor="middle"  dominant-baseline="middle" fill="red" > D1</text>
<text x="12" y="375" font-family="Verdana" font-size="10" text-anchor="middle"  dominant-baseline="middle" fill="red" > D2</text>
<text x="12" y="519" font-family="Verdana" font-size="10" text-anchor="middle"  dominant-baseline="middle" fill="red" > D3</text>
<text x="12" y="663" font-family="Verdana" font-size="10" text-anchor="middle"  dominant-baseline="middle" fill="red" > D4</text>
<text x="12" y="20" font-family="Verdana" font-size="10" text-anchor="middle"  dominant-baseline="middle" fill="black" > 0</text>
<text x="12" y="164" font-family="Verdana" font-size="10" text-anchor="middle"  dominant-baseline="middle" fill="black" > 144</text>
<text x="12" y="308" font-family="Verdana" font-size="10" text-anchor="middle"  dominant-baseline="middle" fill="black" > 288</text>
<text x="12" y="452" font-family="Verdana" font-size="10" text-anchor="middle"  dominant-baseline="middle" fill="black" > 432</text>
<text x="12" y="596" font-family="Verdana" font-size="10" text-anchor="middle"  dominant-baseline="middle" fill="black" > 576</text>
<text x="12" y="740" font-family="Verdana" font-size="10" text-anchor="middle"  dominant-baseline="middle" fill="black" > 720</text>
<text x="50" y="7" font-family="Verdana" font-size="7" text-anchor="middle"  dominant-baseline="middle" fill="black" > C1</text>
<circle cx="50" cy="15" r="4" fill="white" stroke="black" />
<line x1="50" y1="19" x2="50" y2="654" stroke="black" />
<line x1="46" y1="650" x2="54" y2="658" stroke="red" />
<line x1="46" y1="658" x2="54" y2="650" stroke="red" />
<text x="50" y="666" font-family="Verdana" font-size="8" text-anchor="middle"  dominant-baseline="middle" fill="black" > 639</text>
<text x="150" y="7" font-family="Verdana" font-size="7" text-anchor="middle"  dominant-baseline="middle" fill="black" > C2</text>
<circle cx="150" cy="15" r="4" fill="white" stroke="black" />
<line x1="150" y1="19" x2="150" y2="199" stroke="black" />
<line x1="146" y1="203" x2="150" y2="195" stroke="blue" />
<line x1="150" y1="203" x2="154" y2="195" stroke="blue" />
<text x="150" y="211" font-family="Verdana" font-size="8" text-anchor="middle"  dominant-baseline="middle" fill="black" > 184</text>
<text x="300" y="7" font-family="Verdana" font-size="7" text-anchor="middle"  dominant-baseline="middle" fill="black" > C3</text>
<circle cx="300" cy="15" r="4" fill="white" stroke="black" />
<line x1="300" y1="19" x2="300" y2="319" stroke="black" />
<line x1="250" y1="319" x2="350" y2="319" stroke="black" />
<text x="325" y="311" font-family="Verdana" font-size="8" text-anchor="middle"  dominant-baseline="middle" fill="black" > 304</text>
<circle cx="250" cy="319" r="4" fill="white" stroke="black" />
<line x1="250" y1="323" x2="250" y2="675" stroke="black" />
<line x1="246" y1="671" x2="254" y2="679" stroke="red" />
<line x1="246" y1="679" x2="254" y2="671" stroke="red" />
<text x="250" y="687" font-family="Verdana" font-size="8" text-anchor="middle"  dominant-baseline="middle" fill="black" > 660</text>
<circle cx="350" cy="319" r="4" fill="white" stroke="black" />
<line x1="350" y1="323" x2="350" y2="656" stroke="black" />
<line x1="346" y1="652" x2="354" y2="660" stroke="red" />
<line x1="346" y1="660" x2="354" y2="652" stroke="red" />
<text x="350" y="668" font-family="Verdana" font-size="8" text-anchor="middle"  dominant-baseline="middle" fill="black" > 641</text>
<text x="450" y="7" font-family="Verdana" font-size="7" text-anchor="middle"  dominant-baseline="middle" fill="black" > C4</text>
<circle cx="450" cy="15" r="4" fill="white" stroke="black" />
<line x1="450" y1="19" x2="450" y2="424" stroke="black" />
<line x1="446" y1="420" x2="454" y2="428" stroke="red" />
<line x1="446" y1="428" x2="454" y2="420" stroke="red" />
<text x="450" y="436" font-family="Verdana" font-size="8" text-anchor="middle"  dominant-baseline="middle" fill="black" > 409</text>
<text x="550" y="7" font-family="Verdana" font-size="7" text-anchor="middle"  dominant-baseline="middle" fill="black" > C5</text>
<circle cx="550" cy="15" r="4" fill="white" stroke="black" />
<line x1="550" y1="19" x2="550" y2="178" stroke="black" />
<line x1="546" y1="174" x2="554" y2="182" stroke="red" />
<line x1="546" y1="182" x2="554" y2="174" stroke="red" />
<text x="550" y="190" font-family="Verdana" font-size="8" text-anchor="middle"  dominant-baseline="middle" fill="black" > 163</text>
<text x="650" y="7" font-family="Verdana" font-size="7" text-anchor="middle"  dominant-baseline="middle" fill="black" > C6</text>
<circle cx="650" cy="15" r="4" fill="white" stroke="black" />
<line x1="650" y1="19" x2="650" y2="103" stroke="black" />
<line x1="646" y1="107" x2="650" y2="99" stroke="blue" />
<line x1="650" y1="107" x2="654" y2="99" stroke="blue" />
<text x="650" y="115" font-family="Verdana" font-size="8" text-anchor="middle"  dominant-baseline="middle" fill="black" > 88</text>
<text x="800" y="7" font-family="Verdana" font-size="7" text-anchor="middle"  dominant-baseline="middle" fill="black" > C7</text>
<circle cx="800" cy="15" r="4" fill="white" stroke="black" />
<line x1="800" y1="19" x2="800" y2="204" stroke="black" />
<line x1="750" y1="204" x2="850" y2="204" stroke="black" />
<text x="825" y="196" font-family="Verdana" font-size="8" text-anchor="middle"  dominant-baseline="middle" fill="black" > 189</text>
<circle cx="750" cy="204" r="4" fill="white" stroke="black" />
<line x1="750" y1="208" x2="750" y2="370" stroke="black" />
<line x1="710" y1="370" x2="790" y2="370" stroke="black" />
<text x="755" y="362" font-family="Verdana" font-size="8" text-anchor="middle"  dominant-baseline="middle" fill="black" > 355</text>
<circle cx="710" cy="370" r="4" fill="white" stroke="black" />
<circle cx="730" cy="370" r="4" fill="white" stroke="black" />
<line x1="710" y1="374" x2="710" y2="412" stroke="black" />
<line x1="710" y1="412" x2="720" y2="425" stroke="black" />
<line x1="730" y1="374" x2="730" y2="412" stroke="black" />
<line x1="730" y1="412" x2="720" y2="425" stroke="black" />
<text x="720" y="413" font-family="Verdana" font-size="8" text-anchor="middle"  dominant-baseline="middle" fill="black" > 410</text>
<circle cx="720" cy="425" r="4" fill="white" stroke="black" />
<line x1="720" y1="429" x2="720" y2="736" stroke="black" />
<circle cx="720" cy="736" r="4" fill="white" stroke="black" />
<text x="720" y="748" font-family="Verdana" font-size="8" text-anchor="middle"  dominant-baseline="middle" fill="black" > 721</text>
<circle cx="750" cy="370" r="4" fill="white" stroke="black" />
<circle cx="770" cy="370" r="4" fill="white" stroke="black" />
<circle cx="790" cy="370" r="4" fill="white" stroke="black" />
<line x1="770" y1="374" x2="770" y2="411" stroke="black" />
<line x1="770" y1="411" x2="780" y2="424" stroke="black" />
<line x1="790" y1="374" x2="790" y2="411" stroke="black" />
<line x1="790" y1="411" x2="780" y2="424" stroke="black" />
<text x="780" y="412" font-family="Verdana" font-size="8" text-anchor="middle"  dominant-baseline="middle" fill="black" > 409</text>
<circle cx="780" cy="424" r="4" fill="white" stroke="black" />
<line x1="750" y1="374" x2="750" y2="449" stroke="black" />
<line x1="750" y1="449" x2="765" y2="457" stroke="black" />
<line x1="780" y1="428" x2="780" y2="449" stroke="black" />
<line x1="780" y1="449" x2="765" y2="457" stroke="black" />
<text x="765" y="445" font-family="Verdana" font-size="8" text-anchor="middle"  dominant-baseline="middle" fill="black" > 442</text>
<circle cx="765" cy="457" r="4" fill="white" stroke="black" />
<line x1="765" y1="461" x2="765" y2="736" stroke="black" />
<circle cx="765" cy="736" r="4" fill="white" stroke="black" />
<text x="765" y="748" font-family="Verdana" font-size="8" text-anchor="middle"  dominant-baseline="middle" fill="black" > 721</text>
<circle cx="850" cy="204" r="4" fill="white" stroke="black" />
<line x1="850" y1="208" x2="850" y2="360" stroke="black" />
<line x1="846" y1="356" x2="854" y2="364" stroke="red" />
<line x1="846" y1="364" x2="854" y2="356" stroke="red" />
<text x="850" y="372" font-family="Verdana" font-size="8" text-anchor="middle"  dominant-baseline="middle" fill="black" > 345</text>
<text x="1000" y="7" font-family="Verdana" font-size="7" text-anchor="middle"  dominant-baseline="middle" fill="black" > C8</text>
<circle cx="1000" cy="15" r="4" fill="white" stroke="black" />
<line x1="1000" y1="19" x2="1000" y2="168" stroke="black" />
<line x1="950" y1="168" x2="1050" y2="168" stroke="black" />
<text x="1025" y="160" font-family="Verdana" font-size="8" text-anchor="middle"  dominant-baseline="middle" fill="black" > 153</text>
<circle cx="950" cy="168" r="4" fill="white" stroke="black" />
<line x1="950" y1="172" x2="950" y2="581" stroke="black" />
<line x1="925" y1="581" x2="975" y2="581" stroke="black" />
<text x="962" y="573" font-family="Verdana" font-size="8" text-anchor="middle"  dominant-baseline="middle" fill="black" > 566</text>
<circle cx="925" cy="581" r="4" fill="white" stroke="black" />
<line x1="925" y1="585" x2="925" y2="632" stroke="black" />
<line x1="921" y1="628" x2="929" y2="636" stroke="red" />
<line x1="921" y1="636" x2="929" y2="628" stroke="red" />
<text x="925" y="644" font-family="Verdana" font-size="8" text-anchor="middle"  dominant-baseline="middle" fill="black" > 617</text>
<circle cx="975" cy="581" r="4" fill="white" stroke="black" />
<line x1="975" y1="585" x2="975" y2="628" stroke="black" />
<line x1="971" y1="632" x2="975" y2="624" stroke="blue" />
<line x1="975" y1="632" x2="979" y2="624" stroke="blue" />
<text x="975" y="640" font-family="Verdana" font-size="8" text-anchor="middle"  dominant-baseline="middle" fill="black" > 613</text>
<circle cx="1050" cy="168" r="4" fill="white" stroke="black" />
<line x1="1050" y1="172" x2="1050" y2="347" stroke="black" />
<line x1="1025" y1="347" x2="1075" y2="347" stroke="black" />
<text x="1062" y="339" font-family="Verdana" font-size="8" text-anchor="middle"  dominant-baseline="middle" fill="black" > 332</text>
<circle cx="1025" cy="347" r="4" fill="white" stroke="black" />
<line x1="1025" y1="351" x2="1025" y2="569" stroke="black" />
<line x1="1012" y1="569" x2="1038" y2="569" stroke="black" />
<text x="1031" y="561" font-family="Verdana" font-size="8" text-anchor="middle"  dominant-baseline="middle" fill="black" > 554</text>
<circle cx="1012" cy="569" r="4" fill="white" stroke="black" />
<line x1="1012" y1="573" x2="1012" y2="626" stroke="black" />
<line x1="1008" y1="622" x2="1016" y2="630" stroke="red" />
<line x1="1008" y1="630" x2="1016" y2="622" stroke="red" />
<text x="1012" y="638" font-family="Verdana" font-size="8" text-anchor="middle"  dominant-baseline="middle" fill="black" > 611</text>
<circle cx="1037" cy="569" r="4" fill="white" stroke="black" />
<line x1="1037" y1="573" x2="1037" y2="625" stroke="black" />
<line x1="1033" y1="621" x2="1041" y2="629" stroke="red" />
<line x1="1033" y1="629" x2="1041" y2="621" stroke="red" />
<text x="1037" y="637" font-family="Verdana" font-size="8" text-anchor="middle"  dominant-baseline="middle" fill="black" > 610</text>
<circle cx="1075" cy="347" r="4" fill="white" stroke="black" />
<line x1="1075" y1="351" x2="1075" y2="680" stroke="black" />
<line x1="1071" y1="676" x2="1079" y2="684" stroke="red" />
<line x1="1071" y1="684" x2="1079" y2="676" stroke="red" />
<text x="1075" y="692" font-family="Verdana" font-size="8" text-anchor="middle"  dominant-baseline="middle" fill="black" > 665</text>
<text x="1250" y="7" font-family="Verdana" font-size="7" text-anchor="middle"  dominant-baseline="middle" fill="black" > C9</text>
<circle cx="1250" cy="15" r="4" fill="white" stroke="black" />
<line x1="1250" y1="19" x2="1250" y2="438" stroke="black" />
<line x1="1150" y1="438" x2="1350" y2="438" stroke="black" />
<text x="1275" y="430" font-family="Verdana" font-size="8" text-anchor="middle"  dominant-baseline="middle" fill="black" > 423</text>
<circle cx="1150" cy="438" r="4" fill="white" stroke="black" />
<circle cx="1250" cy="438" r="4" fill="white" stroke="black" />
<line x1="1150" y1="442" x2="1150" y2="446" stroke="black" />
<line x1="1150" y1="446" x2="1200" y2="448" stroke="black" />
<line x1="1250" y1="442" x2="1250" y2="446" stroke="black" />
<line x1="1250" y1="446" x2="1200" y2="448" stroke="black" />
<text x="1200" y="436" font-family="Verdana" font-size="8" text-anchor="middle"  dominant-baseline="middle" fill="black" > 433</text>
<circle cx="1200" cy="448" r="4" fill="white" stroke="black" />
<circle cx="1350" cy="438" r="4" fill="white" stroke="black" />
<line x1="1200" y1="452" x2="1200" y2="453" stroke="black" />
<line x1="1200" y1="453" x2="1275" y2="454" stroke="black" />
<line x1="1350" y1="442" x2="1350" y2="453" stroke="black" />
<line x1="1350" y1="453" x2="1275" y2="454" stroke="black" />
<text x="1275" y="442" font-family="Verdana" font-size="8" text-anchor="middle"  dominant-baseline="middle" fill="black" > 439</text>
<circle cx="1275" cy="454" r="4" fill="white" stroke="black" />
<line x1="1275" y1="458" x2="1275" y2="586" stroke="black" />
<line x1="1271" y1="582" x2="1279" y2="590" stroke="red" />
<line x1="1271" y1="590" x2="1279" y2="582" stroke="red" />
<text x="1275" y="598" font-family="Verdana" font-size="8" text-anchor="middle"  dominant-baseline="middle" fill="black" > 571</text>
<text x="1550" y="7" font-family="Verdana" font-size="7" text-anchor="middle"  dominant-baseline="middle" fill="black" > C10</text>
<circle cx="1550" cy="15" r="4" fill="white" stroke="black" />
<line x1="1550" y1="19" x2="1550" y2="313" stroke="black" />
<line x1="1450" y1="313" x2="1650" y2="313" stroke="black" />
<text x="1575" y="305" font-family="Verdana" font-size="8" text-anchor="middle"  dominant-baseline="middle" fill="black" > 298</text>
<circle cx="1450" cy="313" r="4" fill="white" stroke="black" />
<circle cx="1550" cy="313" r="4" fill="white" stroke="black" />
<line x1="1450" y1="317" x2="1450" y2="320" stroke="black" />
<line x1="1450" y1="320" x2="1500" y2="322" stroke="black" />
<line x1="1550" y1="317" x2="1550" y2="320" stroke="black" />
<line x1="1550" y1="320" x2="1500" y2="322" stroke="black" />
<text x="1500" y="310" font-family="Verdana" font-size="8" text-anchor="middle"  dominant-baseline="middle" fill="black" > 307</text>
<circle cx="1500" cy="322" r="4" fill="white" stroke="black" />
<circle cx="1650" cy="313" r="4" fill="white" stroke="black" />
<line x1="1500" y1="326" x2="1500" y2="374" stroke="black" />
<line x1="1500" y1="374" x2="1575" y2="391" stroke="black" />
<line x1="1650" y1="317" x2="1650" y2="374" stroke="black" />
<line x1="1650" y1="374" x2="1575" y2="391" stroke="black" />
<text x="1575" y="379" font-family="Verdana" font-size="8" text-anchor="middle"  dominant-baseline="middle" fill="black" > 376</text>
<circle cx="1575" cy="391" r="4" fill="white" stroke="black" />
<line x1="1575" y1="395" x2="1575" y2="498" stroke="black" />
<line x1="1571" y1="494" x2="1579" y2="502" stroke="red" />
<line x1="1571" y1="502" x2="1579" y2="494" stroke="red" />
<text x="1575" y="510" font-family="Verdana" font-size="8" text-anchor="middle"  dominant-baseline="middle" fill="black" > 483</text>
<text x="1800" y="7" font-family="Verdana" font-size="7" text-anchor="middle"  dominant-baseline="middle" fill="black" > C11</text>
<circle cx="1800" cy="15" r="4" fill="white" stroke="black" />
<line x1="1800" y1="19" x2="1800" y2="201" stroke="black" />
<line x1="1750" y1="201" x2="1850" y2="201" stroke="black" />
<text x="1825" y="193" font-family="Verdana" font-size="8" text-anchor="middle"  dominant-baseline="middle" fill="black" > 186</text>
<circle cx="1750" cy="201" r="4" fill="white" stroke="black" />
<line x1="1750" y1="205" x2="1750" y2="591" stroke="black" />
<line x1="1716" y1="591" x2="1784" y2="591" stroke="black" />
<text x="1758" y="583" font-family="Verdana" font-size="8" text-anchor="middle"  dominant-baseline="middle" fill="black" > 576</text>
<circle cx="1716" cy="591" r="4" fill="white" stroke="black" />
<line x1="1716" y1="595" x2="1716" y2="607" stroke="black" />
<line x1="1712" y1="603" x2="1720" y2="611" stroke="red" />
<line x1="1712" y1="611" x2="1720" y2="603" stroke="red" />
<text x="1716" y="619" font-family="Verdana" font-size="8" text-anchor="middle"  dominant-baseline="middle" fill="black" > 592</text>
<circle cx="1749" cy="591" r="4" fill="white" stroke="black" />
<circle cx="1782" cy="591" r="4" fill="white" stroke="black" />
<line x1="1749" y1="595" x2="1749" y2="602" stroke="black" />
<line x1="1749" y1="602" x2="1765" y2="605" stroke="black" />
<line x1="1782" y1="595" x2="1782" y2="602" stroke="black" />
<line x1="1782" y1="602" x2="1765" y2="605" stroke="black" />
<text x="1765" y="593" font-family="Verdana" font-size="8" text-anchor="middle"  dominant-baseline="middle" fill="black" > 590</text>
<circle cx="1765" cy="605" r="4" fill="white" stroke="black" />
<line x1="1765" y1="609" x2="1765" y2="608" stroke="black" />
<line x1="1761" y1="604" x2="1769" y2="612" stroke="red" />
<line x1="1761" y1="612" x2="1769" y2="604" stroke="red" />
<text x="1765" y="620" font-family="Verdana" font-size="8" text-anchor="middle"  dominant-baseline="middle" fill="black" > 593</text>
<circle cx="1850" cy="201" r="4" fill="white" stroke="black" />
<line x1="1850" y1="205" x2="1850" y2="411" stroke="black" />
<line x1="1825" y1="411" x2="1875" y2="411" stroke="black" />
<text x="1862" y="403" font-family="Verdana" font-size="8" text-anchor="middle"  dominant-baseline="middle" fill="black" > 396</text>
<circle cx="1825" cy="411" r="4" fill="white" stroke="black" />
<circle cx="1875" cy="411" r="4" fill="white" stroke="black" />
<line x1="1825" y1="415" x2="1825" y2="518" stroke="black" />
<line x1="1825" y1="518" x2="1850" y2="553" stroke="black" />
<line x1="1875" y1="415" x2="1875" y2="518" stroke="black" />
<line x1="1875" y1="518" x2="1850" y2="553" stroke="black" />
<text x="1850" y="541" font-family="Verdana" font-size="8" text-anchor="middle"  dominant-baseline="middle" fill="black" > 538</text>
<circle cx="1850" cy="553" r="4" fill="white" stroke="black" />
<line x1="1850" y1="557" x2="1850" y2="718" stroke="black" />
<line x1="1846" y1="714" x2="1854" y2="722" stroke="red" />
<line x1="1846" y1="722" x2="1854" y2="714" stroke="red" />
<text x="1850" y="730" font-family="Verdana" font-size="8" text-anchor="middle"  dominant-baseline="middle" fill="black" > 703</text>
</svg>
