<?xml version="1.0" encoding="utf-8"?>
<svg xmlns="http://www.w3.org/2000/svg" version="1.1" width="750" height="750">
<rect width="750" height="15" x="0" y="0" fill="white" />
<rect width="750" height="15" x="0" y="735" fill="white" />
<rect width="25" height="750" x="0" y="0" fill="white" />
<rect width="25" height="750" x="725" y="0" fill="white" />
<rect width="710" height="144" x="25" y="15" fill="ghostwhite" />
<rect width="710" height="144" x="25" y="159" fill="snow" />
<rect width="710" height="144" x="25" y="303" fill="ghostwhite" />
<rect width="710" height="144" x="25" y="447" fill="snow" />
<rect width="710" height="144" x="25" y="591" fill="ghostwhite" />
<text x="12" y="87" font-family="Verdana" font-size="10" text-anchor="middle"  dominant-baseline="middle" fill="red" > D0</text>
<text x="12" y="231" font-family="Verdana" font-size="10" text-anchor="middle"  dominant-baseline="middle" fill="red" > D1</text>
<text x="12" y="375" font-family="Verdana" font-size="10" text-anchor="middle"  dominant-baseline="middle" fill="red" > D2</text>
<text x="12" y="519" font-family="Verdana" font-size="10" text-anchor="middle"  dominant-baseline="middle" fill="red" > D3</text>
<text x="12" y="663" font-family="Verdana" font-size="10" text-anchor="middle"  dominant-baseline="middle" fill="red" > D4</text>
<text x="12" y="20" font-family="Verdana" font-size="10" text-anchor="middle"  dominant-baseline="middle" fill="black" > 0</text>
<text x="12" y="164" font-family="Verdana" font-size="10" text-anchor="middle"  dominant-baseline="middle" fill="black" > 144</text>
<text x="12" y="308" font-family="Verdana" font-size="10" text-anchor="middle"  dominant-baseline="middle" fill="black" > 288</text>
<text x="12" y="452" font-family="Verdana" font-size="10" text-anchor="middle"  dominant-baseline="middle" fill="black" > 432</text>
<text x="12" y="596" font-family="Verdana" font-size="10" text-anchor="middle"  dominant-baseline="middle" fill="black" > 576</text>
<text x="12" y="740" font-family="Verdana" font-size="10" text-anchor="middle"  dominant-baseline="middle" fill="black" > 720</text>
<text x="50" y="7" font-family="Verdana" font-size="7" text-anchor="middle"  dominant-baseline="middle" fill="black" > C1</text>
<circle cx="50" cy="15" r="4" fill="white" stroke="black" />
<line x1="50" y1="19" x2="50" y2="339" stroke="black" />
<line x1="46" y1="343" x2="50" y2="335" stroke="blue" />
<line x1="50" y1="343" x2="54" y2="335" stroke="blue" />
<text x="50" y="351" font-family="Verdana" font-size="8" text-anchor="middle"  dominant-baseline="middle" fill="black" > 324</text>
<text x="150" y="7" font-family="Verdana" font-size="7" text-anchor="middle"  dominant-baseline="middle" fill="black" > C2</text>
<circle cx="150" cy="15" r="4" fill="white" stroke="black" />
<line x1="150" y1="19" x2="150" y2="366" stroke="black" />
<line x1="146" y1="370" x2="150" y2="362" stroke="blue" />
<line x1="150" y1="370" x2="154" y2="362" stroke="blue" />
<text x="150" y="378" font-family="Verdana" font-size="8" text-anchor="middle"  dominant-baseline="middle" fill="black" > 351</text>
<text x="250" y="7" font-family="Verdana" font-size="7" text-anchor="middle"  dominant-baseline="middle" fill="black" > C3</text>
<circle cx="250" cy="15" r="4" fill="white" stroke="black" />
<line x1="250" y1="19" x2="250" y2="442" stroke="black" />
<line x1="246" y1="446" x2="250" y2="438" stroke="blue" />
<line x1="250" y1="446" x2="254" y2="438" stroke="blue" />
<text x="250" y="454" font-family="Verdana" font-size="8" text-anchor="middle"  dominant-baseline="middle" fill="black" > 427</text>
<text x="400" y="7" font-family="Verdana" font-size="7" text-anchor="middle"  dominant-baseline="middle" fill="black" > C4</text>
<circle cx="400" cy="15" r="4" fill="white" stroke="black" />
<line x1="400" y1="19" x2="400" y2="297" stroke="black" />
<line x1="350" y1="297" x2="450" y2="297" stroke="black" />
<text x="425" y="289" font-family="Verdana" font-size="8" text-anchor="middle"  dominant-baseline="middle" fill="black" > 282</text>
<circle cx="350" cy="297" r="4" fill="white" stroke="black" />
<line x1="350" y1="301" x2="350" y2="602" stroke="black" />
<line x1="346" y1="606" x2="350" y2="598" stroke="blue" />
<line x1="350" y1="606" x2="354" y2="598" stroke="blue" />
<text x="350" y="614" font-family="Verdana" font-size="8" text-anchor="middle"  dominant-baseline="middle" fill="black" > 587</text>
<circle cx="450" cy="297" r="4" fill="white" stroke="black" />
<line x1="450" y1="301" x2="450" y2="602" stroke="black" />
<line x1="446" y1="606" x2="450" y2="598" stroke="blue" />
<line x1="450" y1="606" x2="454" y2="598" stroke="blue" />
<text x="450" y="614" font-family="Verdana" font-size="8" text-anchor="middle"  dominant-baseline="middle" fill="black" > 587</text>
<text x="600" y="7" font-family="Verdana" font-size="7" text-anchor="middle"  dominant-baseline="middle" fill="black" > C5</text>
<circle cx="600" cy="15" r="4" fill="white" stroke="black" />
<line x1="600" y1="19" x2="600" y2="222" stroke="black" />
<line x1="550" y1="222" x2="650" y2="222" stroke="black" />
<text x="625" y="214" font-family="Verdana" font-size="8" text-anchor="middle"  dominant-baseline="middle" fill="black" > 207</text>
<circle cx="550" cy="222" r="4" fill="white" stroke="black" />
<line x1="550" y1="226" x2="550" y2="511" stroke="black" />
<line x1="525" y1="511" x2="575" y2="511" stroke="black" />
<text x="562" y="503" font-family="Verdana" font-size="8" text-anchor="middle"  dominant-baseline="middle" fill="black" > 496</text>
<circle cx="525" cy="511" r="4" fill="white" stroke="black" />
<line x1="525" y1="515" x2="525" y2="623" stroke="black" />
<line x1="521" y1="619" x2="529" y2="627" stroke="red" />
<line x1="521" y1="627" x2="529" y2="619" stroke="red" />
<text x="525" y="635" font-family="Verdana" font-size="8" text-anchor="middle"  dominant-baseline="middle" fill="black" > 608</text>
<circle cx="575" cy="511" r="4" fill="white" stroke="black" />
<line x1="575" y1="515" x2="575" y2="637" stroke="black" />
<line x1="571" y1="633" x2="579" y2="641" stroke="red" />
<line x1="571" y1="641" x2="579" y2="633" stroke="red" />
<text x="575" y="649" font-family="Verdana" font-size="8" text-anchor="middle"  dominant-baseline="middle" fill="black" > 622</text>
<circle cx="650" cy="222" r="4" fill="white" stroke="black" />
<line x1="650" y1="226" x2="650" y2="498" stroke="black" />
<line x1="625" y1="498" x2="675" y2="498" stroke="black" />
<text x="662" y="490" font-family="Verdana" font-size="8" text-anchor="middle"  dominant-baseline="middle" fill="black" > 483</text>
<circle cx="625" cy="498" r="4" fill="white" stroke="black" />
<circle cx="675" cy="498" r="4" fill="white" stroke="black" />
<line x1="625" y1="502" x2="625" y2="639" stroke="black" />
<line x1="625" y1="639" x2="650" y2="686" stroke="black" />
<line x1="675" y1="502" x2="675" y2="639" stroke="black" />
<line x1="675" y1="639" x2="650" y2="686" stroke="black" />
<text x="650" y="674" font-family="Verdana" font-size="8" text-anchor="middle"  dominant-baseline="middle" fill="black" > 671</text>
<circle cx="650" cy="686" r="4" fill="white" stroke="black" />
<line x1="650" y1="690" x2="650" y2="736" stroke="black" />
<circle cx="650" cy="736" r="4" fill="white" stroke="black" />
<text x="650" y="748" font-family="Verdana" font-size="8" text-anchor="middle"  dominant-baseline="middle" fill="black" > 721</text>
</svg>
