<?xml version="1.0" encoding="utf-8"?>
<svg xmlns="http://www.w3.org/2000/svg" version="1.1" width="3250" height="750">
<rect width="3250" height="15" x="0" y="0" fill="white" />
<rect width="3250" height="15" x="0" y="735" fill="white" />
<rect width="25" height="750" x="0" y="0" fill="white" />
<rect width="25" height="750" x="3225" y="0" fill="white" />
<rect width="3210" height="144" x="25" y="15" fill="ghostwhite" />
<rect width="3210" height="144" x="25" y="159" fill="snow" />
<rect width="3210" height="144" x="25" y="303" fill="ghostwhite" />
<rect width="3210" height="144" x="25" y="447" fill="snow" />
<rect width="3210" height="144" x="25" y="591" fill="ghostwhite" />
<text x="12" y="87" font-family="Verdana" font-size="10" text-anchor="middle"  dominant-baseline="middle" fill="red" > D0</text>
<text x="12" y="231" font-family="Verdana" font-size="10" text-anchor="middle"  dominant-baseline="middle" fill="red" > D1</text>
<text x="12" y="375" font-family="Verdana" font-size="10" text-anchor="middle"  dominant-baseline="middle" fill="red" > D2</text>
<text x="12" y="519" font-family="Verdana" font-size="10" text-anchor="middle"  dominant-baseline="middle" fill="red" > D3</text>
<text x="12" y="663" font-family="Verdana" font-size="10" text-anchor="middle"  dominant-baseline="middle" fill="red" > D4</text>
<text x="12" y="20" font-family="Verdana" font-size="10" text-anchor="middle"  dominant-baseline="middle" fill="black" > 0</text>
<text x="12" y="164" font-family="Verdana" font-size="10" text-anchor="middle"  dominant-baseline="middle" fill="black" > 144</text>
<text x="12" y="308" font-family="Verdana" font-size="10" text-anchor="middle"  dominant-baseline="middle" fill="black" > 288</text>
<text x="12" y="452" font-family="Verdana" font-size="10" text-anchor="middle"  dominant-baseline="middle" fill="black" > 432</text>
<text x="12" y="596" font-family="Verdana" font-size="10" text-anchor="middle"  dominant-baseline="middle" fill="black" > 576</text>
<text x="12" y="740" font-family="Verdana" font-size="10" text-anchor="middle"  dominant-baseline="middle" fill="black" > 720</text>
<text x="150" y="7" font-family="Verdana" font-size="7" text-anchor="middle"  dominant-baseline="middle" fill="black" > C1</text>
<circle cx="150" cy="15" r="4" fill="white" stroke="black" />
<line x1="150" y1="19" x2="150" y2="341" stroke="black" />
<line x1="50" y1="341" x2="250" y2="341" stroke="black" />
<text x="175" y="333" font-family="Verdana" font-size="8" text-anchor="middle"  dominant-baseline="middle" fill="black" > 326</text>
<circle cx="50" cy="341" r="4" fill="white" stroke="black" />
<line x1="50" y1="345" x2="50" y2="416" stroke="black" />
<line x1="46" y1="412" x2="54" y2="420" stroke="red" />
<line x1="46" y1="420" x2="54" y2="412" stroke="red" />
<text x="50" y="428" font-family="Verdana" font-size="8" text-anchor="middle"  dominant-baseline="middle" fill="black" > 401</text>
<circle cx="150" cy="341" r="4" fill="white" stroke="black" />
<line x1="150" y1="345" x2="150" y2="410" stroke="black" />
<line x1="146" y1="406" x2="154" y2="414" stroke="red" />
<line x1="146" y1="414" x2="154" y2="406" stroke="red" />
<text x="150" y="422" font-family="Verdana" font-size="8" text-anchor="middle"  dominant-baseline="middle" fill="black" > 395</text>
<circle cx="250" cy="341" r="4" fill="white" stroke="black" />
<line x1="250" y1="345" x2="250" y2="409" stroke="black" />
<line x1="246" y1="405" x2="254" y2="413" stroke="red" />
<line x1="246" y1="413" x2="254" y2="405" stroke="red" />
<text x="250" y="421" font-family="Verdana" font-size="8" text-anchor="middle"  dominant-baseline="middle" fill="black" > 394</text>
<text x="350" y="7" font-family="Verdana" font-size="7" text-anchor="middle"  dominant-baseline="middle" fill="black" > C2</text>
<circle cx="350" cy="15" r="4" fill="white" stroke="black" />
<line x1="350" y1="19" x2="350" y2="261" stroke="black" />
<line x1="346" y1="265" x2="350" y2="257" stroke="blue" />
<line x1="350" y1="265" x2="354" y2="257" stroke="blue" />
<text x="350" y="273" font-family="Verdana" font-size="8" text-anchor="middle"  dominant-baseline="middle" fill="black" > 246</text>
<text x="550" y="7" font-family="Verdana" font-size="7" text-anchor="middle"  dominant-baseline="middle" fill="black" > C3</text>
<circle cx="550" cy="15" r="4" fill="white" stroke="black" />
<line x1="550" y1="19" x2="550" y2="266" stroke="black" />
<line x1="450" y1="266" x2="650" y2="266" stroke="black" />
<text x="575" y="258" font-family="Verdana" font-size="8" text-anchor="middle"  dominant-baseline="middle" fill="black" > 251</text>
<circle cx="450" cy="266" r="4" fill="white" stroke="black" />
<circle cx="550" cy="266" r="4" fill="white" stroke="black" />
<line x1="450" y1="270" x2="450" y2="281" stroke="black" />
<line x1="450" y1="281" x2="500" y2="285" stroke="black" />
<line x1="550" y1="270" x2="550" y2="281" stroke="black" />
<line x1="550" y1="281" x2="500" y2="285" stroke="black" />
<text x="500" y="273" font-family="Verdana" font-size="8" text-anchor="middle"  dominant-baseline="middle" fill="black" > 270</text>
<circle cx="500" cy="285" r="4" fill="white" stroke="black" />
<circle cx="650" cy="266" r="4" fill="white" stroke="black" />
<line x1="500" y1="289" x2="500" y2="286" stroke="black" />
<line x1="500" y1="286" x2="575" y2="286" stroke="black" />
<line x1="650" y1="270" x2="650" y2="286" stroke="black" />
<line x1="650" y1="286" x2="575" y2="286" stroke="black" />
<text x="575" y="274" font-family="Verdana" font-size="8" text-anchor="middle"  dominant-baseline="middle" fill="black" > 271</text>
<circle cx="575" cy="286" r="4" fill="white" stroke="black" />
<line x1="575" y1="290" x2="575" y2="727" stroke="black" />
<line x1="571" y1="723" x2="579" y2="731" stroke="red" />
<line x1="571" y1="731" x2="579" y2="723" stroke="red" />
<text x="575" y="739" font-family="Verdana" font-size="8" text-anchor="middle"  dominant-baseline="middle" fill="black" > 712</text>
<text x="800" y="7" font-family="Verdana" font-size="7" text-anchor="middle"  dominant-baseline="middle" fill="black" > C4</text>
<circle cx="800" cy="15" r="4" fill="white" stroke="black" />
<line x1="800" y1="19" x2="800" y2="81" stroke="black" />
<line x1="750" y1="81" x2="850" y2="81" stroke="black" />
<text x="825" y="73" font-family="Verdana" font-size="8" text-anchor="middle"  dominant-baseline="middle" fill="black" > 66</text>
<circle cx="750" cy="81" r="4" fill="white" stroke="black" />
<circle cx="850" cy="81" r="4" fill="white" stroke="black" />
<line x1="750" y1="85" x2="750" y2="98" stroke="black" />
<line x1="750" y1="98" x2="800" y2="103" stroke="black" />
<line x1="850" y1="85" x2="850" y2="98" stroke="black" />
<line x1="850" y1="98" x2="800" y2="103" stroke="black" />
<text x="800" y="91" font-family="Verdana" font-size="8" text-anchor="middle"  dominant-baseline="middle" fill="black" > 88</text>
<circle cx="800" cy="103" r="4" fill="white" stroke="black" />
<line x1="800" y1="107" x2="800" y2="480" stroke="black" />
<line x1="796" y1="476" x2="804" y2="484" stroke="red" />
<line x1="796" y1="484" x2="804" y2="476" stroke="red" />
<text x="800" y="492" font-family="Verdana" font-size="8" text-anchor="middle"  dominant-baseline="middle" fill="black" > 465</text>
<text x="1000" y="7" font-family="Verdana" font-size="7" text-anchor="middle"  dominant-baseline="middle" fill="black" > C5</text>
<circle cx="1000" cy="15" r="4" fill="white" stroke="black" />
<line x1="1000" y1="19" x2="1000" y2="294" stroke="black" />
<line x1="950" y1="294" x2="1050" y2="294" stroke="black" />
<text x="1025" y="286" font-family="Verdana" font-size="8" text-anchor="middle"  dominant-baseline="middle" fill="black" > 279</text>
<circle cx="950" cy="294" r="4" fill="white" stroke="black" />
<line x1="950" y1="298" x2="950" y2="456" stroke="black" />
<line x1="916" y1="456" x2="984" y2="456" stroke="black" />
<text x="958" y="448" font-family="Verdana" font-size="8" text-anchor="middle"  dominant-baseline="middle" fill="black" > 441</text>
<circle cx="916" cy="456" r="4" fill="white" stroke="black" />
<line x1="916" y1="460" x2="916" y2="582" stroke="black" />
<line x1="908" y1="582" x2="925" y2="582" stroke="black" />
<text x="920" y="574" font-family="Verdana" font-size="8" text-anchor="middle"  dominant-baseline="middle" fill="black" > 567</text>
<circle cx="908" cy="582" r="4" fill="white" stroke="black" />
<line x1="908" y1="586" x2="908" y2="736" stroke="black" />
<circle cx="908" cy="736" r="4" fill="white" stroke="black" />
<text x="908" y="748" font-family="Verdana" font-size="8" text-anchor="middle"  dominant-baseline="middle" fill="black" > 721</text>
<circle cx="924" cy="582" r="4" fill="white" stroke="black" />
<line x1="924" y1="586" x2="924" y2="736" stroke="black" />
<circle cx="924" cy="736" r="4" fill="white" stroke="black" />
<text x="924" y="748" font-family="Verdana" font-size="8" text-anchor="middle"  dominant-baseline="middle" fill="black" > 721</text>
<circle cx="949" cy="456" r="4" fill="white" stroke="black" />
<circle cx="982" cy="456" r="4" fill="white" stroke="black" />
<line x1="949" y1="460" x2="949" y2="465" stroke="black" />
<line x1="949" y1="465" x2="965" y2="467" stroke="black" />
<line x1="982" y1="460" x2="982" y2="465" stroke="black" />
<line x1="982" y1="465" x2="965" y2="467" stroke="black" />
<text x="965" y="455" font-family="Verdana" font-size="8" text-anchor="middle"  dominant-baseline="middle" fill="black" > 452</text>
<circle cx="965" cy="467" r="4" fill="white" stroke="black" />
<line x1="965" y1="471" x2="965" y2="589" stroke="black" />
<line x1="957" y1="589" x2="974" y2="589" stroke="black" />
<text x="969" y="581" font-family="Verdana" font-size="8" text-anchor="middle"  dominant-baseline="middle" fill="black" > 574</text>
<circle cx="957" cy="589" r="4" fill="white" stroke="black" />
<circle cx="973" cy="589" r="4" fill="white" stroke="black" />
<line x1="957" y1="593" x2="957" y2="681" stroke="black" />
<line x1="957" y1="681" x2="965" y2="711" stroke="black" />
<line x1="973" y1="593" x2="973" y2="681" stroke="black" />
<line x1="973" y1="681" x2="965" y2="711" stroke="black" />
<text x="965" y="699" font-family="Verdana" font-size="8" text-anchor="middle"  dominant-baseline="middle" fill="black" > 696</text>
<circle cx="965" cy="711" r="4" fill="white" stroke="black" />
<line x1="965" y1="715" x2="965" y2="736" stroke="black" />
<circle cx="965" cy="736" r="4" fill="white" stroke="black" />
<text x="965" y="748" font-family="Verdana" font-size="8" text-anchor="middle"  dominant-baseline="middle" fill="black" > 721</text>
<circle cx="1050" cy="294" r="4" fill="white" stroke="black" />
<line x1="1050" y1="298" x2="1050" y2="424" stroke="black" />
<line x1="1025" y1="424" x2="1075" y2="424" stroke="black" />
<text x="1062" y="416" font-family="Verdana" font-size="8" text-anchor="middle"  dominant-baseline="middle" fill="black" > 409</text>
<circle cx="1025" cy="424" r="4" fill="white" stroke="black" />
<circle cx="1075" cy="424" r="4" fill="white" stroke="black" />
<line x1="1025" y1="428" x2="1025" y2="505" stroke="black" />
<line x1="1025" y1="505" x2="1050" y2="532" stroke="black" />
<line x1="1075" y1="428" x2="1075" y2="505" stroke="black" />
<line x1="1075" y1="505" x2="1050" y2="532" stroke="black" />
<text x="1050" y="520" font-family="Verdana" font-size="8" text-anchor="middle"  dominant-baseline="middle" fill="black" > 517</text>
<circle cx="1050" cy="532" r="4" fill="white" stroke="black" />
<line x1="1050" y1="536" x2="1050" y2="572" stroke="black" />
<line x1="1031" y1="572" x2="1069" y2="572" stroke="black" />
<text x="1053" y="564" font-family="Verdana" font-size="8" text-anchor="middle"  dominant-baseline="middle" fill="black" > 557</text>
<circle cx="1031" cy="572" r="4" fill="white" stroke="black" />
<circle cx="1043" cy="572" r="4" fill="white" stroke="black" />
<line x1="1031" y1="576" x2="1031" y2="586" stroke="black" />
<line x1="1031" y1="586" x2="1037" y2="590" stroke="black" />
<line x1="1043" y1="576" x2="1043" y2="586" stroke="black" />
<line x1="1043" y1="586" x2="1037" y2="590" stroke="black" />
<text x="1037" y="578" font-family="Verdana" font-size="8" text-anchor="middle"  dominant-baseline="middle" fill="black" > 575</text>
<circle cx="1037" cy="590" r="4" fill="white" stroke="black" />
<circle cx="1055" cy="572" r="4" fill="white" stroke="black" />
<line x1="1037" y1="594" x2="1037" y2="596" stroke="black" />
<line x1="1037" y1="596" x2="1046" y2="597" stroke="black" />
<line x1="1055" y1="576" x2="1055" y2="596" stroke="black" />
<line x1="1055" y1="596" x2="1046" y2="597" stroke="black" />
<text x="1046" y="585" font-family="Verdana" font-size="8" text-anchor="middle"  dominant-baseline="middle" fill="black" > 582</text>
<circle cx="1046" cy="597" r="4" fill="white" stroke="black" />
<line x1="1046" y1="601" x2="1046" y2="736" stroke="black" />
<circle cx="1046" cy="736" r="4" fill="white" stroke="black" />
<text x="1046" y="748" font-family="Verdana" font-size="8" text-anchor="middle"  dominant-baseline="middle" fill="black" > 721</text>
<circle cx="1067" cy="572" r="4" fill="white" stroke="black" />
<line x1="1067" y1="576" x2="1067" y2="736" stroke="black" />
<circle cx="1067" cy="736" r="4" fill="white" stroke="black" />
<text x="1067" y="748" font-family="Verdana" font-size="8" text-anchor="middle"  dominant-baseline="middle" fill="black" > 721</text>
<text x="1200" y="7" font-family="Verdana" font-size="7" text-anchor="middle"  dominant-baseline="middle" fill="black" > C6</text>
<circle cx="1200" cy="15" r="4" fill="white" stroke="black" />
<line x1="1200" y1="19" x2="1200" y2="186" stroke="black" />
<line x1="1150" y1="186" x2="1250" y2="186" stroke="black" />
<text x="1225" y="178" font-family="Verdana" font-size="8" text-anchor="middle"  dominant-baseline="middle" fill="black" > 171</text>
<circle cx="1150" cy="186" r="4" fill="white" stroke="black" />
<line x1="1150" y1="190" x2="1150" y2="466" stroke="black" />
<line x1="1116" y1="466" x2="1184" y2="466" stroke="black" />
<text x="1158" y="458" font-family="Verdana" font-size="8" text-anchor="middle"  dominant-baseline="middle" fill="black" > 451</text>
<circle cx="1116" cy="466" r="4" fill="white" stroke="black" />
<circle cx="1149" cy="466" r="4" fill="white" stroke="black" />
<line x1="1116" y1="470" x2="1116" y2="484" stroke="black" />
<line x1="1116" y1="484" x2="1132" y2="489" stroke="black" />
<line x1="1149" y1="470" x2="1149" y2="484" stroke="black" />
<line x1="1149" y1="484" x2="1132" y2="489" stroke="black" />
<text x="1132" y="477" font-family="Verdana" font-size="8" text-anchor="middle"  dominant-baseline="middle" fill="black" > 474</text>
<circle cx="1132" cy="489" r="4" fill="white" stroke="black" />
<circle cx="1182" cy="466" r="4" fill="white" stroke="black" />
<line x1="1132" y1="493" x2="1132" y2="504" stroke="black" />
<line x1="1132" y1="504" x2="1157" y2="508" stroke="black" />
<line x1="1182" y1="470" x2="1182" y2="504" stroke="black" />
<line x1="1182" y1="504" x2="1157" y2="508" stroke="black" />
<text x="1157" y="496" font-family="Verdana" font-size="8" text-anchor="middle"  dominant-baseline="middle" fill="black" > 493</text>
<circle cx="1157" cy="508" r="4" fill="white" stroke="black" />
<line x1="1157" y1="512" x2="1157" y2="736" stroke="black" />
<circle cx="1157" cy="736" r="4" fill="white" stroke="black" />
<text x="1157" y="748" font-family="Verdana" font-size="8" text-anchor="middle"  dominant-baseline="middle" fill="black" > 721</text>
<circle cx="1250" cy="186" r="4" fill="white" stroke="black" />
<line x1="1250" y1="190" x2="1250" y2="535" stroke="black" />
<line x1="1216" y1="535" x2="1284" y2="535" stroke="black" />
<text x="1258" y="527" font-family="Verdana" font-size="8" text-anchor="middle"  dominant-baseline="middle" fill="black" > 520</text>
<circle cx="1216" cy="535" r="4" fill="white" stroke="black" />
<circle cx="1249" cy="535" r="4" fill="white" stroke="black" />
<line x1="1216" y1="539" x2="1216" y2="542" stroke="black" />
<line x1="1216" y1="542" x2="1232" y2="544" stroke="black" />
<line x1="1249" y1="539" x2="1249" y2="542" stroke="black" />
<line x1="1249" y1="542" x2="1232" y2="544" stroke="black" />
<text x="1232" y="532" font-family="Verdana" font-size="8" text-anchor="middle"  dominant-baseline="middle" fill="black" > 529</text>
<circle cx="1232" cy="544" r="4" fill="white" stroke="black" />
<circle cx="1282" cy="535" r="4" fill="white" stroke="black" />
<line x1="1232" y1="548" x2="1232" y2="553" stroke="black" />
<line x1="1232" y1="553" x2="1257" y2="555" stroke="black" />
<line x1="1282" y1="539" x2="1282" y2="553" stroke="black" />
<line x1="1282" y1="553" x2="1257" y2="555" stroke="black" />
<text x="1257" y="543" font-family="Verdana" font-size="8" text-anchor="middle"  dominant-baseline="middle" fill="black" > 540</text>
<circle cx="1257" cy="555" r="4" fill="white" stroke="black" />
<line x1="1257" y1="559" x2="1257" y2="575" stroke="black" />
<line x1="1253" y1="571" x2="1261" y2="579" stroke="red" />
<line x1="1253" y1="579" x2="1261" y2="571" stroke="red" />
<text x="1257" y="587" font-family="Verdana" font-size="8" text-anchor="middle"  dominant-baseline="middle" fill="black" > 560</text>
<text x="1350" y="7" font-family="Verdana" font-size="7" text-anchor="middle"  dominant-baseline="middle" fill="black" > C7</text>
<circle cx="1350" cy="15" r="4" fill="white" stroke="black" />
<line x1="1350" y1="19" x2="1350" y2="736" stroke="black" />
<circle cx="1350" cy="736" r="4" fill="white" stroke="black" />
<text x="1350" y="748" font-family="Verdana" font-size="8" text-anchor="middle"  dominant-baseline="middle" fill="black" > 721</text>
<text x="1550" y="7" font-family="Verdana" font-size="7" text-anchor="middle"  dominant-baseline="middle" fill="black" > C8</text>
<circle cx="1550" cy="15" r="4" fill="white" stroke="black" />
<line x1="1550" y1="19" x2="1550" y2="362" stroke="black" />
<line x1="1450" y1="362" x2="1650" y2="362" stroke="black" />
<text x="1575" y="354" font-family="Verdana" font-size="8" text-anchor="middle"  dominant-baseline="middle" fill="black" > 347</text>
<circle cx="1450" cy="362" r="4" fill="white" stroke="black" />
<circle cx="1550" cy="362" r="4" fill="white" stroke="black" />
<circle cx="1650" cy="362" r="4" fill="white" stroke="black" />
<line x1="1450" y1="366" x2="1450" y2="374" stroke="black" />
<line x1="1450" y1="374" x2="1550" y2="378" stroke="black" />
<line x1="1550" y1="366" x2="1550" y2="374" stroke="black" />
<line x1="1550" y1="374" x2="1550" y2="378" stroke="black" />
<line x1="1650" y1="366" x2="1650" y2="374" stroke="black" />
<line x1="1650" y1="374" x2="1550" y2="378" stroke="black" />
<text x="1550" y="366" font-family="Verdana" font-size="8" text-anchor="middle"  dominant-baseline="middle" fill="black" > 363</text>
<circle cx="1550" cy="378" r="4" fill="white" stroke="black" />
<line x1="1550" y1="382" x2="1550" y2="553" stroke="black" />
<line x1="1546" y1="549" x2="1554" y2="557" stroke="red" />
<line x1="1546" y1="557" x2="1554" y2="549" stroke="red" />
<text x="1550" y="565" font-family="Verdana" font-size="8" text-anchor="middle"  dominant-baseline="middle" fill="black" > 538</text>
<text x="1800" y="7" font-family="Verdana" font-size="7" text-anchor="middle"  dominant-baseline="middle" fill="black" > C9</text>
<circle cx="1800" cy="15" r="4" fill="white" stroke="black" />
<line x1="1800" y1="19" x2="1800" y2="219" stroke="black" />
<line x1="1750" y1="219" x2="1850" y2="219" stroke="black" />
<text x="1825" y="211" font-family="Verdana" font-size="8" text-anchor="middle"  dominant-baseline="middle" fill="black" > 204</text>
<circle cx="1750" cy="219" r="4" fill="white" stroke="black" />
<circle cx="1850" cy="219" r="4" fill="white" stroke="black" />
<line x1="1750" y1="223" x2="1750" y2="317" stroke="black" />
<line x1="1750" y1="317" x2="1800" y2="349" stroke="black" />
<line x1="1850" y1="223" x2="1850" y2="317" stroke="black" />
<line x1="1850" y1="317" x2="1800" y2="349" stroke="black" />
<text x="1800" y="337" font-family="Verdana" font-size="8" text-anchor="middle"  dominant-baseline="middle" fill="black" > 334</text>
<circle cx="1800" cy="349" r="4" fill="white" stroke="black" />
<line x1="1800" y1="353" x2="1800" y2="695" stroke="black" />
<line x1="1796" y1="691" x2="1804" y2="699" stroke="red" />
<line x1="1796" y1="699" x2="1804" y2="691" stroke="red" />
<text x="1800" y="707" font-family="Verdana" font-size="8" text-anchor="middle"  dominant-baseline="middle" fill="black" > 680</text>
<text x="1950" y="7" font-family="Verdana" font-size="7" text-anchor="middle"  dominant-baseline="middle" fill="black" > C10</text>
<circle cx="1950" cy="15" r="4" fill="white" stroke="black" />
<line x1="1950" y1="19" x2="1950" y2="412" stroke="black" />
<line x1="1946" y1="408" x2="1954" y2="416" stroke="red" />
<line x1="1946" y1="416" x2="1954" y2="408" stroke="red" />
<text x="1950" y="424" font-family="Verdana" font-size="8" text-anchor="middle"  dominant-baseline="middle" fill="black" > 397</text>
<text x="2050" y="7" font-family="Verdana" font-size="7" text-anchor="middle"  dominant-baseline="middle" fill="black" > C11</text>
<circle cx="2050" cy="15" r="4" fill="white" stroke="black" />
<line x1="2050" y1="19" x2="2050" y2="97" stroke="black" />
<line x1="2046" y1="93" x2="2054" y2="101" stroke="red" />
<line x1="2046" y1="101" x2="2054" y2="93" stroke="red" />
<text x="2050" y="109" font-family="Verdana" font-size="8" text-anchor="middle"  dominant-baseline="middle" fill="black" > 82</text>
<text x="2150" y="7" font-family="Verdana" font-size="7" text-anchor="middle"  dominant-baseline="middle" fill="black" > C12</text>
<circle cx="2150" cy="15" r="4" fill="white" stroke="black" />
<line x1="2150" y1="19" x2="2150" y2="224" stroke="black" />
<line x1="2146" y1="228" x2="2150" y2="220" stroke="blue" />
<line x1="2150" y1="228" x2="2154" y2="220" stroke="blue" />
<text x="2150" y="236" font-family="Verdana" font-size="8" text-anchor="middle"  dominant-baseline="middle" fill="black" > 209</text>
<text x="2300" y="7" font-family="Verdana" font-size="7" text-anchor="middle"  dominant-baseline="middle" fill="black" > C13</text>
<circle cx="2300" cy="15" r="4" fill="white" stroke="black" />
<line x1="2300" y1="19" x2="2300" y2="159" stroke="black" />
<line x1="2250" y1="159" x2="2350" y2="159" stroke="black" />
<text x="2325" y="151" font-family="Verdana" font-size="8" text-anchor="middle"  dominant-baseline="middle" fill="black" > 144</text>
<circle cx="2250" cy="159" r="4" fill="white" stroke="black" />
<line x1="2250" y1="163" x2="2250" y2="562" stroke="black" />
<line x1="2246" y1="558" x2="2254" y2="566" stroke="red" />
<line x1="2246" y1="566" x2="2254" y2="558" stroke="red" />
<text x="2250" y="574" font-family="Verdana" font-size="8" text-anchor="middle"  dominant-baseline="middle" fill="black" > 547</text>
<circle cx="2350" cy="159" r="4" fill="white" stroke="black" />
<line x1="2350" y1="163" x2="2350" y2="494" stroke="black" />
<line x1="2325" y1="494" x2="2375" y2="494" stroke="black" />
<text x="2362" y="486" font-family="Verdana" font-size="8" text-anchor="middle"  dominant-baseline="middle" fill="black" > 479</text>
<circle cx="2325" cy="494" r="4" fill="white" stroke="black" />
<line x1="2325" y1="498" x2="2325" y2="639" stroke="black" />
<line x1="2308" y1="639" x2="2342" y2="639" stroke="black" />
<text x="2329" y="631" font-family="Verdana" font-size="8" text-anchor="middle"  dominant-baseline="middle" fill="black" > 624</text>
<circle cx="2308" cy="639" r="4" fill="white" stroke="black" />
<line x1="2308" y1="643" x2="2308" y2="736" stroke="black" />
<circle cx="2308" cy="736" r="4" fill="white" stroke="black" />
<text x="2308" y="748" font-family="Verdana" font-size="8" text-anchor="middle"  dominant-baseline="middle" fill="black" > 721</text>
<circle cx="2324" cy="639" r="4" fill="white" stroke="black" />
<line x1="2324" y1="643" x2="2324" y2="736" stroke="black" />
<circle cx="2324" cy="736" r="4" fill="white" stroke="black" />
<text x="2324" y="748" font-family="Verdana" font-size="8" text-anchor="middle"  dominant-baseline="middle" fill="black" > 721</text>
<circle cx="2340" cy="639" r="4" fill="white" stroke="black" />
<line x1="2340" y1="643" x2="2340" y2="736" stroke="black" />
<circle cx="2340" cy="736" r="4" fill="white" stroke="black" />
<text x="2340" y="748" font-family="Verdana" font-size="8" text-anchor="middle"  dominant-baseline="middle" fill="black" > 721</text>
<circle cx="2375" cy="494" r="4" fill="white" stroke="black" />
<line x1="2375" y1="498" x2="2375" y2="736" stroke="black" />
<circle cx="2375" cy="736" r="4" fill="white" stroke="black" />
<text x="2375" y="748" font-family="Verdana" font-size="8" text-anchor="middle"  dominant-baseline="middle" fill="black" > 721</text>
<text x="2500" y="7" font-family="Verdana" font-size="7" text-anchor="middle"  dominant-baseline="middle" fill="black" > C14</text>
<circle cx="2500" cy="15" r="4" fill="white" stroke="black" />
<line x1="2500" y1="19" x2="2500" y2="172" stroke="black" />
<line x1="2450" y1="172" x2="2550" y2="172" stroke="black" />
<text x="2525" y="164" font-family="Verdana" font-size="8" text-anchor="middle"  dominant-baseline="middle" fill="black" > 157</text>
<circle cx="2450" cy="172" r="4" fill="white" stroke="black" />
<line x1="2450" y1="176" x2="2450" y2="680" stroke="black" />
<line x1="2446" y1="676" x2="2454" y2="684" stroke="red" />
<line x1="2446" y1="684" x2="2454" y2="676" stroke="red" />
<text x="2450" y="692" font-family="Verdana" font-size="8" text-anchor="middle"  dominant-baseline="middle" fill="black" > 665</text>
<circle cx="2550" cy="172" r="4" fill="white" stroke="black" />
<line x1="2550" y1="176" x2="2550" y2="364" stroke="black" />
<line x1="2525" y1="364" x2="2575" y2="364" stroke="black" />
<text x="2562" y="356" font-family="Verdana" font-size="8" text-anchor="middle"  dominant-baseline="middle" fill="black" > 349</text>
<circle cx="2525" cy="364" r="4" fill="white" stroke="black" />
<line x1="2525" y1="368" x2="2525" y2="736" stroke="black" />
<circle cx="2525" cy="736" r="4" fill="white" stroke="black" />
<text x="2525" y="748" font-family="Verdana" font-size="8" text-anchor="middle"  dominant-baseline="middle" fill="black" > 721</text>
<circle cx="2575" cy="364" r="4" fill="white" stroke="black" />
<line x1="2575" y1="368" x2="2575" y2="736" stroke="black" />
<circle cx="2575" cy="736" r="4" fill="white" stroke="black" />
<text x="2575" y="748" font-family="Verdana" font-size="8" text-anchor="middle"  dominant-baseline="middle" fill="black" > 721</text>
<text x="2750" y="7" font-family="Verdana" font-size="7" text-anchor="middle"  dominant-baseline="middle" fill="black" > C15</text>
<circle cx="2750" cy="15" r="4" fill="white" stroke="black" />
<line x1="2750" y1="19" x2="2750" y2="206" stroke="black" />
<line x1="2650" y1="206" x2="2850" y2="206" stroke="black" />
<text x="2775" y="198" font-family="Verdana" font-size="8" text-anchor="middle"  dominant-baseline="middle" fill="black" > 191</text>
<circle cx="2650" cy="206" r="4" fill="white" stroke="black" />
<line x1="2650" y1="210" x2="2650" y2="622" stroke="black" />
<line x1="2646" y1="618" x2="2654" y2="626" stroke="red" />
<line x1="2646" y1="626" x2="2654" y2="618" stroke="red" />
<text x="2650" y="634" font-family="Verdana" font-size="8" text-anchor="middle"  dominant-baseline="middle" fill="black" > 607</text>
<circle cx="2750" cy="206" r="4" fill="white" stroke="black" />
<circle cx="2850" cy="206" r="4" fill="white" stroke="black" />
<line x1="2750" y1="210" x2="2750" y2="250" stroke="black" />
<line x1="2750" y1="250" x2="2800" y2="264" stroke="black" />
<line x1="2850" y1="210" x2="2850" y2="250" stroke="black" />
<line x1="2850" y1="250" x2="2800" y2="264" stroke="black" />
<text x="2800" y="252" font-family="Verdana" font-size="8" text-anchor="middle"  dominant-baseline="middle" fill="black" > 249</text>
<circle cx="2800" cy="264" r="4" fill="white" stroke="black" />
<line x1="2800" y1="268" x2="2800" y2="393" stroke="black" />
<line x1="2766" y1="393" x2="2834" y2="393" stroke="black" />
<text x="2808" y="385" font-family="Verdana" font-size="8" text-anchor="middle"  dominant-baseline="middle" fill="black" > 378</text>
<circle cx="2766" cy="393" r="4" fill="white" stroke="black" />
<circle cx="2799" cy="393" r="4" fill="white" stroke="black" />
<line x1="2766" y1="397" x2="2766" y2="430" stroke="black" />
<line x1="2766" y1="430" x2="2782" y2="442" stroke="black" />
<line x1="2799" y1="397" x2="2799" y2="430" stroke="black" />
<line x1="2799" y1="430" x2="2782" y2="442" stroke="black" />
<text x="2782" y="430" font-family="Verdana" font-size="8" text-anchor="middle"  dominant-baseline="middle" fill="black" > 427</text>
<circle cx="2782" cy="442" r="4" fill="white" stroke="black" />
<circle cx="2832" cy="393" r="4" fill="white" stroke="black" />
<line x1="2782" y1="446" x2="2782" y2="470" stroke="black" />
<line x1="2782" y1="470" x2="2807" y2="479" stroke="black" />
<line x1="2832" y1="397" x2="2832" y2="470" stroke="black" />
<line x1="2832" y1="470" x2="2807" y2="479" stroke="black" />
<text x="2807" y="467" font-family="Verdana" font-size="8" text-anchor="middle"  dominant-baseline="middle" fill="black" > 464</text>
<circle cx="2807" cy="479" r="4" fill="white" stroke="black" />
<line x1="2807" y1="483" x2="2807" y2="676" stroke="black" />
<line x1="2790" y1="676" x2="2824" y2="676" stroke="black" />
<text x="2811" y="668" font-family="Verdana" font-size="8" text-anchor="middle"  dominant-baseline="middle" fill="black" > 661</text>
<circle cx="2790" cy="676" r="4" fill="white" stroke="black" />
<line x1="2790" y1="680" x2="2790" y2="736" stroke="black" />
<circle cx="2790" cy="736" r="4" fill="white" stroke="black" />
<text x="2790" y="748" font-family="Verdana" font-size="8" text-anchor="middle"  dominant-baseline="middle" fill="black" > 721</text>
<circle cx="2806" cy="676" r="4" fill="white" stroke="black" />
<line x1="2806" y1="680" x2="2806" y2="736" stroke="black" />
<circle cx="2806" cy="736" r="4" fill="white" stroke="black" />
<text x="2806" y="748" font-family="Verdana" font-size="8" text-anchor="middle"  dominant-baseline="middle" fill="black" > 721</text>
<circle cx="2822" cy="676" r="4" fill="white" stroke="black" />
<line x1="2822" y1="680" x2="2822" y2="736" stroke="black" />
<circle cx="2822" cy="736" r="4" fill="white" stroke="black" />
<text x="2822" y="748" font-family="Verdana" font-size="8" text-anchor="middle"  dominant-baseline="middle" fill="black" > 721</text>
<text x="3050" y="7" font-family="Verdana" font-size="7" text-anchor="middle"  dominant-baseline="middle" fill="black" > C16</text>
<circle cx="3050" cy="15" r="4" fill="white" stroke="black" />
<line x1="3050" y1="19" x2="3050" y2="179" stroke="black" />
<line x1="2950" y1="179" x2="3150" y2="179" stroke="black" />
<text x="3075" y="171" font-family="Verdana" font-size="8" text-anchor="middle"  dominant-baseline="middle" fill="black" > 164</text>
<circle cx="2950" cy="179" r="4" fill="white" stroke="black" />
<circle cx="3050" cy="179" r="4" fill="white" stroke="black" />
<line x1="2950" y1="183" x2="2950" y2="200" stroke="black" />
<line x1="2950" y1="200" x2="3000" y2="207" stroke="black" />
<line x1="3050" y1="183" x2="3050" y2="200" stroke="black" />
<line x1="3050" y1="200" x2="3000" y2="207" stroke="black" />
<text x="3000" y="195" font-family="Verdana" font-size="8" text-anchor="middle"  dominant-baseline="middle" fill="black" > 192</text>
<circle cx="3000" cy="207" r="4" fill="white" stroke="black" />
<line x1="3000" y1="211" x2="3000" y2="345" stroke="black" />
<line x1="2962" y1="345" x2="3038" y2="345" stroke="black" />
<text x="3006" y="337" font-family="Verdana" font-size="8" text-anchor="middle"  dominant-baseline="middle" fill="black" > 330</text>
<circle cx="2962" cy="345" r="4" fill="white" stroke="black" />
<line x1="2962" y1="349" x2="2962" y2="570" stroke="black" />
<line x1="2958" y1="566" x2="2966" y2="574" stroke="red" />
<line x1="2958" y1="574" x2="2966" y2="566" stroke="red" />
<text x="2962" y="582" font-family="Verdana" font-size="8" text-anchor="middle"  dominant-baseline="middle" fill="black" > 555</text>
<circle cx="2987" cy="345" r="4" fill="white" stroke="black" />
<line x1="2987" y1="349" x2="2987" y2="597" stroke="black" />
<line x1="2983" y1="593" x2="2991" y2="601" stroke="red" />
<line x1="2983" y1="601" x2="2991" y2="593" stroke="red" />
<text x="2987" y="609" font-family="Verdana" font-size="8" text-anchor="middle"  dominant-baseline="middle" fill="black" > 582</text>
<circle cx="3012" cy="345" r="4" fill="white" stroke="black" />
<line x1="3012" y1="349" x2="3012" y2="657" stroke="black" />
<line x1="3008" y1="653" x2="3016" y2="661" stroke="red" />
<line x1="3008" y1="661" x2="3016" y2="653" stroke="red" />
<text x="3012" y="669" font-family="Verdana" font-size="8" text-anchor="middle"  dominant-baseline="middle" fill="black" > 642</text>
<circle cx="3037" cy="345" r="4" fill="white" stroke="black" />
<line x1="3037" y1="349" x2="3037" y2="516" stroke="black" />
<line x1="3033" y1="512" x2="3041" y2="520" stroke="red" />
<line x1="3033" y1="520" x2="3041" y2="512" stroke="red" />
<text x="3037" y="528" font-family="Verdana" font-size="8" text-anchor="middle"  dominant-baseline="middle" fill="black" > 501</text>
<circle cx="3150" cy="179" r="4" fill="white" stroke="black" />
<line x1="3150" y1="183" x2="3150" y2="736" stroke="black" />
<circle cx="3150" cy="736" r="4" fill="white" stroke="black" />
<text x="3150" y="748" font-family="Verdana" font-size="8" text-anchor="middle"  dominant-baseline="middle" fill="black" > 721</text>
</svg>
