<?xml version="1.0" encoding="utf-8"?>
<svg xmlns="http://www.w3.org/2000/svg" version="1.1" width="950" height="750">
<rect width="950" height="15" x="0" y="0" fill="white" />
<rect width="950" height="15" x="0" y="735" fill="white" />
<rect width="25" height="750" x="0" y="0" fill="white" />
<rect width="25" height="750" x="925" y="0" fill="white" />
<rect width="910" height="144" x="25" y="15" fill="ghostwhite" />
<rect width="910" height="144" x="25" y="159" fill="snow" />
<rect width="910" height="144" x="25" y="303" fill="ghostwhite" />
<rect width="910" height="144" x="25" y="447" fill="snow" />
<rect width="910" height="144" x="25" y="591" fill="ghostwhite" />
<text x="12" y="87" font-family="Verdana" font-size="10" text-anchor="middle"  dominant-baseline="middle" fill="red" > D0</text>
<text x="12" y="231" font-family="Verdana" font-size="10" text-anchor="middle"  dominant-baseline="middle" fill="red" > D1</text>
<text x="12" y="375" font-family="Verdana" font-size="10" text-anchor="middle"  dominant-baseline="middle" fill="red" > D2</text>
<text x="12" y="519" font-family="Verdana" font-size="10" text-anchor="middle"  dominant-baseline="middle" fill="red" > D3</text>
<text x="12" y="663" font-family="Verdana" font-size="10" text-anchor="middle"  dominant-baseline="middle" fill="red" > D4</text>
<text x="12" y="20" font-family="Verdana" font-size="10" text-anchor="middle"  dominant-baseline="middle" fill="black" > 0</text>
<text x="12" y="164" font-family="Verdana" font-size="10" text-anchor="middle"  dominant-baseline="middle" fill="black" > 144</text>
<text x="12" y="308" font-family="Verdana" font-size="10" text-anchor="middle"  dominant-baseline="middle" fill="black" > 288</text>
<text x="12" y="452" font-family="Verdana" font-size="10" text-anchor="middle"  dominant-baseline="middle" fill="black" > 432</text>
<text x="12" y="596" font-family="Verdana" font-size="10" text-anchor="middle"  dominant-baseline="middle" fill="black" > 576</text>
<text x="12" y="740" font-family="Verdana" font-size="10" text-anchor="middle"  dominant-baseline="middle" fill="black" > 720</text>
<text x="100" y="7" font-family="Verdana" font-size="7" text-anchor="middle"  dominant-baseline="middle" fill="black" > C1</text>
<circle cx="100" cy="15" r="4" fill="white" stroke="black" />
<line x1="100" y1="19" x2="100" y2="282" stroke="black" />
<line x1="50" y1="282" x2="150" y2="282" stroke="black" />
<text x="125" y="274" font-family="Verdana" font-size="8" text-anchor="middle"  dominant-baseline="middle" fill="black" > 267</text>
<circle cx="50" cy="282" r="4" fill="white" stroke="black" />
<line x1="50" y1="286" x2="50" y2="736" stroke="black" />
<circle cx="50" cy="736" r="4" fill="white" stroke="black" />
<text x="50" y="748" font-family="Verdana" font-size="8" text-anchor="middle"  dominant-baseline="middle" fill="black" > 721</text>
<circle cx="150" cy="282" r="4" fill="white" stroke="black" />
<line x1="150" y1="286" x2="150" y2="736" stroke="black" />
<circle cx="150" cy="736" r="4" fill="white" stroke="black" />
<text x="150" y="748" font-family="Verdana" font-size="8" text-anchor="middle"  dominant-baseline="middle" fill="black" > 721</text>
<text x="300" y="7" font-family="Verdana" font-size="7" text-anchor="middle"  dominant-baseline="middle" fill="black" > C2</text>
<circle cx="300" cy="15" r="4" fill="white" stroke="black" />
<line x1="300" y1="19" x2="300" y2="289" stroke="black" />
<line x1="250" y1="289" x2="350" y2="289" stroke="black" />
<text x="325" y="281" font-family="Verdana" font-size="8" text-anchor="middle"  dominant-baseline="middle" fill="black" > 274</text>
<circle cx="250" cy="289" r="4" fill="white" stroke="black" />
<line x1="250" y1="293" x2="250" y2="736" stroke="black" />
<circle cx="250" cy="736" r="4" fill="white" stroke="black" />
<text x="250" y="748" font-family="Verdana" font-size="8" text-anchor="middle"  dominant-baseline="middle" fill="black" > 721</text>
<circle cx="350" cy="289" r="4" fill="white" stroke="black" />
<line x1="350" y1="293" x2="350" y2="736" stroke="black" />
<circle cx="350" cy="736" r="4" fill="white" stroke="black" />
<text x="350" y="748" font-family="Verdana" font-size="8" text-anchor="middle"  dominant-baseline="middle" fill="black" > 721</text>
<text x="500" y="7" font-family="Verdana" font-size="7" text-anchor="middle"  dominant-baseline="middle" fill="black" > C3</text>
<circle cx="500" cy="15" r="4" fill="white" stroke="black" />
<line x1="500" y1="19" x2="500" y2="75" stroke="black" />
<line x1="450" y1="75" x2="550" y2="75" stroke="black" />
<text x="525" y="67" font-family="Verdana" font-size="8" text-anchor="middle"  dominant-baseline="middle" fill="black" > 60</text>
<circle cx="450" cy="75" r="4" fill="white" stroke="black" />
<line x1="450" y1="79" x2="450" y2="736" stroke="black" />
<circle cx="450" cy="736" r="4" fill="white" stroke="black" />
<text x="450" y="748" font-family="Verdana" font-size="8" text-anchor="middle"  dominant-baseline="middle" fill="black" > 721</text>
<circle cx="550" cy="75" r="4" fill="white" stroke="black" />
<line x1="550" y1="79" x2="550" y2="434" stroke="black" />
<line x1="525" y1="434" x2="575" y2="434" stroke="black" />
<text x="562" y="426" font-family="Verdana" font-size="8" text-anchor="middle"  dominant-baseline="middle" fill="black" > 419</text>
<circle cx="525" cy="434" r="4" fill="white" stroke="black" />
<circle cx="575" cy="434" r="4" fill="white" stroke="black" />
<line x1="525" y1="438" x2="525" y2="459" stroke="black" />
<line x1="525" y1="459" x2="550" y2="467" stroke="black" />
<line x1="575" y1="438" x2="575" y2="459" stroke="black" />
<line x1="575" y1="459" x2="550" y2="467" stroke="black" />
<text x="550" y="455" font-family="Verdana" font-size="8" text-anchor="middle"  dominant-baseline="middle" fill="black" > 452</text>
<circle cx="550" cy="467" r="4" fill="white" stroke="black" />
<line x1="550" y1="471" x2="550" y2="570" stroke="black" />
<line x1="546" y1="566" x2="554" y2="574" stroke="red" />
<line x1="546" y1="574" x2="554" y2="566" stroke="red" />
<text x="550" y="582" font-family="Verdana" font-size="8" text-anchor="middle"  dominant-baseline="middle" fill="black" > 555</text>
<text x="700" y="7" font-family="Verdana" font-size="7" text-anchor="middle"  dominant-baseline="middle" fill="black" > C4</text>
<circle cx="700" cy="15" r="4" fill="white" stroke="black" />
<line x1="700" y1="19" x2="700" y2="189" stroke="black" />
<line x1="650" y1="189" x2="750" y2="189" stroke="black" />
<text x="725" y="181" font-family="Verdana" font-size="8" text-anchor="middle"  dominant-baseline="middle" fill="black" > 174</text>
<circle cx="650" cy="189" r="4" fill="white" stroke="black" />
<circle cx="750" cy="189" r="4" fill="white" stroke="black" />
<line x1="650" y1="193" x2="650" y2="555" stroke="black" />
<line x1="650" y1="555" x2="700" y2="677" stroke="black" />
<line x1="750" y1="193" x2="750" y2="555" stroke="black" />
<line x1="750" y1="555" x2="700" y2="677" stroke="black" />
<text x="700" y="665" font-family="Verdana" font-size="8" text-anchor="middle"  dominant-baseline="middle" fill="black" > 662</text>
<circle cx="700" cy="677" r="4" fill="white" stroke="black" />
<line x1="700" y1="681" x2="700" y2="736" stroke="black" />
<circle cx="700" cy="736" r="4" fill="white" stroke="black" />
<text x="700" y="748" font-family="Verdana" font-size="8" text-anchor="middle"  dominant-baseline="middle" fill="black" > 721</text>
<text x="850" y="7" font-family="Verdana" font-size="7" text-anchor="middle"  dominant-baseline="middle" fill="black" > C5</text>
<circle cx="850" cy="15" r="4" fill="white" stroke="black" />
<line x1="850" y1="19" x2="850" y2="179" stroke="black" />
<line x1="846" y1="183" x2="850" y2="175" stroke="blue" />
<line x1="850" y1="183" x2="854" y2="175" stroke="blue" />
<text x="850" y="191" font-family="Verdana" font-size="8" text-anchor="middle"  dominant-baseline="middle" fill="black" > 164</text>
</svg>
