<?xml version="1.0" encoding="utf-8"?>
<svg xmlns="http://www.w3.org/2000/svg" version="1.1" width="1650" height="750">
<rect width="1650" height="15" x="0" y="0" fill="white" />
<rect width="1650" height="15" x="0" y="735" fill="white" />
<rect width="25" height="750" x="0" y="0" fill="white" />
<rect width="25" height="750" x="1625" y="0" fill="white" />
<rect width="1610" height="144" x="25" y="15" fill="ghostwhite" />
<rect width="1610" height="144" x="25" y="159" fill="snow" />
<rect width="1610" height="144" x="25" y="303" fill="ghostwhite" />
<rect width="1610" height="144" x="25" y="447" fill="snow" />
<rect width="1610" height="144" x="25" y="591" fill="ghostwhite" />
<text x="12" y="87" font-family="Verdana" font-size="10" text-anchor="middle"  dominant-baseline="middle" fill="red" > D0</text>
<text x="12" y="231" font-family="Verdana" font-size="10" text-anchor="middle"  dominant-baseline="middle" fill="red" > D1</text>
<text x="12" y="375" font-family="Verdana" font-size="10" text-anchor="middle"  dominant-baseline="middle" fill="red" > D2</text>
<text x="12" y="519" font-family="Verdana" font-size="10" text-anchor="middle"  dominant-baseline="middle" fill="red" > D3</text>
<text x="12" y="663" font-family="Verdana" font-size="10" text-anchor="middle"  dominant-baseline="middle" fill="red" > D4</text>
<text x="12" y="20" font-family="Verdana" font-size="10" text-anchor="middle"  dominant-baseline="middle" fill="black" > 0</text>
<text x="12" y="164" font-family="Verdana" font-size="10" text-anchor="middle"  dominant-baseline="middle" fill="black" > 144</text>
<text x="12" y="308" font-family="Verdana" font-size="10" text-anchor="middle"  dominant-baseline="middle" fill="black" > 288</text>
<text x="12" y="452" font-family="Verdana" font-size="10" text-anchor="middle"  dominant-baseline="middle" fill="black" > 432</text>
<text x="12" y="596" font-family="Verdana" font-size="10" text-anchor="middle"  dominant-baseline="middle" fill="black" > 576</text>
<text x="12" y="740" font-family="Verdana" font-size="10" text-anchor="middle"  dominant-baseline="middle" fill="black" > 720</text>
<text x="100" y="7" font-family="Verdana" font-size="7" text-anchor="middle"  dominant-baseline="middle" fill="black" > C1</text>
<circle cx="100" cy="15" r="4" fill="white" stroke="black" />
<line x1="100" y1="19" x2="100" y2="305" stroke="black" />
<line x1="50" y1="305" x2="150" y2="305" stroke="black" />
<text x="125" y="297" font-family="Verdana" font-size="8" text-anchor="middle"  dominant-baseline="middle" fill="black" > 290</text>
<circle cx="50" cy="305" r="4" fill="white" stroke="black" />
<line x1="50" y1="309" x2="50" y2="445" stroke="black" />
<line x1="25" y1="445" x2="75" y2="445" stroke="black" />
<text x="62" y="437" font-family="Verdana" font-size="8" text-anchor="middle"  dominant-baseline="middle" fill="black" > 430</text>
<circle cx="25" cy="445" r="4" fill="white" stroke="black" />
<line x1="25" y1="449" x2="25" y2="523" stroke="black" />
<line x1="21" y1="527" x2="25" y2="519" stroke="blue" />
<line x1="25" y1="527" x2="29" y2="519" stroke="blue" />
<text x="25" y="535" font-family="Verdana" font-size="8" text-anchor="middle"  dominant-baseline="middle" fill="black" > 508</text>
<circle cx="75" cy="445" r="4" fill="white" stroke="black" />
<line x1="75" y1="449" x2="75" y2="615" stroke="black" />
<line x1="71" y1="619" x2="75" y2="611" stroke="blue" />
<line x1="75" y1="619" x2="79" y2="611" stroke="blue" />
<text x="75" y="627" font-family="Verdana" font-size="8" text-anchor="middle"  dominant-baseline="middle" fill="black" > 600</text>
<circle cx="150" cy="305" r="4" fill="white" stroke="black" />
<line x1="150" y1="309" x2="150" y2="441" stroke="black" />
<line x1="125" y1="441" x2="175" y2="441" stroke="black" />
<text x="162" y="433" font-family="Verdana" font-size="8" text-anchor="middle"  dominant-baseline="middle" fill="black" > 426</text>
<circle cx="125" cy="441" r="4" fill="white" stroke="black" />
<line x1="125" y1="445" x2="125" y2="616" stroke="black" />
<line x1="112" y1="616" x2="138" y2="616" stroke="black" />
<text x="131" y="608" font-family="Verdana" font-size="8" text-anchor="middle"  dominant-baseline="middle" fill="black" > 601</text>
<circle cx="112" cy="616" r="4" fill="white" stroke="black" />
<line x1="112" y1="620" x2="112" y2="736" stroke="black" />
<circle cx="112" cy="736" r="4" fill="white" stroke="black" />
<text x="112" y="748" font-family="Verdana" font-size="8" text-anchor="middle"  dominant-baseline="middle" fill="black" > 721</text>
<circle cx="137" cy="616" r="4" fill="white" stroke="black" />
<line x1="137" y1="620" x2="137" y2="736" stroke="black" />
<circle cx="137" cy="736" r="4" fill="white" stroke="black" />
<text x="137" y="748" font-family="Verdana" font-size="8" text-anchor="middle"  dominant-baseline="middle" fill="black" > 721</text>
<circle cx="175" cy="441" r="4" fill="white" stroke="black" />
<line x1="175" y1="445" x2="175" y2="604" stroke="black" />
<line x1="162" y1="604" x2="188" y2="604" stroke="black" />
<text x="181" y="596" font-family="Verdana" font-size="8" text-anchor="middle"  dominant-baseline="middle" fill="black" > 589</text>
<circle cx="162" cy="604" r="4" fill="white" stroke="black" />
<line x1="162" y1="608" x2="162" y2="736" stroke="black" />
<circle cx="162" cy="736" r="4" fill="white" stroke="black" />
<text x="162" y="748" font-family="Verdana" font-size="8" text-anchor="middle"  dominant-baseline="middle" fill="black" > 721</text>
<circle cx="187" cy="604" r="4" fill="white" stroke="black" />
<line x1="187" y1="608" x2="187" y2="715" stroke="black" />
<line x1="183" y1="719" x2="187" y2="711" stroke="blue" />
<line x1="187" y1="719" x2="191" y2="711" stroke="blue" />
<text x="187" y="727" font-family="Verdana" font-size="8" text-anchor="middle"  dominant-baseline="middle" fill="black" > 700</text>
<text x="300" y="7" font-family="Verdana" font-size="7" text-anchor="middle"  dominant-baseline="middle" fill="black" > C2</text>
<circle cx="300" cy="15" r="4" fill="white" stroke="black" />
<line x1="300" y1="19" x2="300" y2="241" stroke="black" />
<line x1="250" y1="241" x2="350" y2="241" stroke="black" />
<text x="325" y="233" font-family="Verdana" font-size="8" text-anchor="middle"  dominant-baseline="middle" fill="black" > 226</text>
<circle cx="250" cy="241" r="4" fill="white" stroke="black" />
<line x1="250" y1="245" x2="250" y2="404" stroke="black" />
<line x1="225" y1="404" x2="275" y2="404" stroke="black" />
<text x="262" y="396" font-family="Verdana" font-size="8" text-anchor="middle"  dominant-baseline="middle" fill="black" > 389</text>
<circle cx="225" cy="404" r="4" fill="white" stroke="black" />
<line x1="225" y1="408" x2="225" y2="546" stroke="black" />
<line x1="212" y1="546" x2="238" y2="546" stroke="black" />
<text x="231" y="538" font-family="Verdana" font-size="8" text-anchor="middle"  dominant-baseline="middle" fill="black" > 531</text>
<circle cx="212" cy="546" r="4" fill="white" stroke="black" />
<line x1="212" y1="550" x2="212" y2="667" stroke="black" />
<line x1="206" y1="667" x2="219" y2="667" stroke="black" />
<text x="215" y="659" font-family="Verdana" font-size="8" text-anchor="middle"  dominant-baseline="middle" fill="black" > 652</text>
<circle cx="206" cy="667" r="4" fill="white" stroke="black" />
<line x1="206" y1="671" x2="206" y2="736" stroke="black" />
<circle cx="206" cy="736" r="4" fill="white" stroke="black" />
<text x="206" y="748" font-family="Verdana" font-size="8" text-anchor="middle"  dominant-baseline="middle" fill="black" > 721</text>
<circle cx="218" cy="667" r="4" fill="white" stroke="black" />
<line x1="218" y1="671" x2="218" y2="736" stroke="black" />
<circle cx="218" cy="736" r="4" fill="white" stroke="black" />
<text x="218" y="748" font-family="Verdana" font-size="8" text-anchor="middle"  dominant-baseline="middle" fill="black" > 721</text>
<circle cx="237" cy="546" r="4" fill="white" stroke="black" />
<line x1="237" y1="550" x2="237" y2="677" stroke="black" />
<line x1="231" y1="677" x2="244" y2="677" stroke="black" />
<text x="240" y="669" font-family="Verdana" font-size="8" text-anchor="middle"  dominant-baseline="middle" fill="black" > 662</text>
<circle cx="231" cy="677" r="4" fill="white" stroke="black" />
<line x1="231" y1="681" x2="231" y2="736" stroke="black" />
<circle cx="231" cy="736" r="4" fill="white" stroke="black" />
<text x="231" y="748" font-family="Verdana" font-size="8" text-anchor="middle"  dominant-baseline="middle" fill="black" > 721</text>
<circle cx="243" cy="677" r="4" fill="white" stroke="black" />
<line x1="243" y1="681" x2="243" y2="736" stroke="black" />
<circle cx="243" cy="736" r="4" fill="white" stroke="black" />
<text x="243" y="748" font-family="Verdana" font-size="8" text-anchor="middle"  dominant-baseline="middle" fill="black" > 721</text>
<circle cx="275" cy="404" r="4" fill="white" stroke="black" />
<line x1="275" y1="408" x2="275" y2="563" stroke="black" />
<line x1="262" y1="563" x2="288" y2="563" stroke="black" />
<text x="281" y="555" font-family="Verdana" font-size="8" text-anchor="middle"  dominant-baseline="middle" fill="black" > 548</text>
<circle cx="262" cy="563" r="4" fill="white" stroke="black" />
<line x1="262" y1="567" x2="262" y2="689" stroke="black" />
<line x1="256" y1="689" x2="269" y2="689" stroke="black" />
<text x="265" y="681" font-family="Verdana" font-size="8" text-anchor="middle"  dominant-baseline="middle" fill="black" > 674</text>
<circle cx="256" cy="689" r="4" fill="white" stroke="black" />
<line x1="256" y1="693" x2="256" y2="736" stroke="black" />
<circle cx="256" cy="736" r="4" fill="white" stroke="black" />
<text x="256" y="748" font-family="Verdana" font-size="8" text-anchor="middle"  dominant-baseline="middle" fill="black" > 721</text>
<circle cx="268" cy="689" r="4" fill="white" stroke="black" />
<line x1="268" y1="693" x2="268" y2="736" stroke="black" />
<circle cx="268" cy="736" r="4" fill="white" stroke="black" />
<text x="268" y="748" font-family="Verdana" font-size="8" text-anchor="middle"  dominant-baseline="middle" fill="black" > 721</text>
<circle cx="287" cy="563" r="4" fill="white" stroke="black" />
<line x1="287" y1="567" x2="287" y2="677" stroke="black" />
<line x1="281" y1="677" x2="294" y2="677" stroke="black" />
<text x="290" y="669" font-family="Verdana" font-size="8" text-anchor="middle"  dominant-baseline="middle" fill="black" > 662</text>
<circle cx="281" cy="677" r="4" fill="white" stroke="black" />
<line x1="281" y1="681" x2="281" y2="736" stroke="black" />
<circle cx="281" cy="736" r="4" fill="white" stroke="black" />
<text x="281" y="748" font-family="Verdana" font-size="8" text-anchor="middle"  dominant-baseline="middle" fill="black" > 721</text>
<circle cx="293" cy="677" r="4" fill="white" stroke="black" />
<line x1="293" y1="681" x2="293" y2="736" stroke="black" />
<circle cx="293" cy="736" r="4" fill="white" stroke="black" />
<text x="293" y="748" font-family="Verdana" font-size="8" text-anchor="middle"  dominant-baseline="middle" fill="black" > 721</text>
<circle cx="350" cy="241" r="4" fill="white" stroke="black" />
<line x1="350" y1="245" x2="350" y2="383" stroke="black" />
<line x1="325" y1="383" x2="375" y2="383" stroke="black" />
<text x="362" y="375" font-family="Verdana" font-size="8" text-anchor="middle"  dominant-baseline="middle" fill="black" > 368</text>
<circle cx="325" cy="383" r="4" fill="white" stroke="black" />
<line x1="325" y1="387" x2="325" y2="530" stroke="black" />
<line x1="312" y1="530" x2="338" y2="530" stroke="black" />
<text x="331" y="522" font-family="Verdana" font-size="8" text-anchor="middle"  dominant-baseline="middle" fill="black" > 515</text>
<circle cx="312" cy="530" r="4" fill="white" stroke="black" />
<line x1="312" y1="534" x2="312" y2="691" stroke="black" />
<line x1="306" y1="691" x2="319" y2="691" stroke="black" />
<text x="315" y="683" font-family="Verdana" font-size="8" text-anchor="middle"  dominant-baseline="middle" fill="black" > 676</text>
<circle cx="306" cy="691" r="4" fill="white" stroke="black" />
<line x1="306" y1="695" x2="306" y2="736" stroke="black" />
<circle cx="306" cy="736" r="4" fill="white" stroke="black" />
<text x="306" y="748" font-family="Verdana" font-size="8" text-anchor="middle"  dominant-baseline="middle" fill="black" > 721</text>
<circle cx="318" cy="691" r="4" fill="white" stroke="black" />
<line x1="318" y1="695" x2="318" y2="736" stroke="black" />
<circle cx="318" cy="736" r="4" fill="white" stroke="black" />
<text x="318" y="748" font-family="Verdana" font-size="8" text-anchor="middle"  dominant-baseline="middle" fill="black" > 721</text>
<circle cx="337" cy="530" r="4" fill="white" stroke="black" />
<line x1="337" y1="534" x2="337" y2="684" stroke="black" />
<line x1="331" y1="684" x2="344" y2="684" stroke="black" />
<text x="340" y="676" font-family="Verdana" font-size="8" text-anchor="middle"  dominant-baseline="middle" fill="black" > 669</text>
<circle cx="331" cy="684" r="4" fill="white" stroke="black" />
<line x1="331" y1="688" x2="331" y2="736" stroke="black" />
<circle cx="331" cy="736" r="4" fill="white" stroke="black" />
<text x="331" y="748" font-family="Verdana" font-size="8" text-anchor="middle"  dominant-baseline="middle" fill="black" > 721</text>
<circle cx="343" cy="684" r="4" fill="white" stroke="black" />
<line x1="343" y1="688" x2="343" y2="736" stroke="black" />
<circle cx="343" cy="736" r="4" fill="white" stroke="black" />
<text x="343" y="748" font-family="Verdana" font-size="8" text-anchor="middle"  dominant-baseline="middle" fill="black" > 721</text>
<circle cx="375" cy="383" r="4" fill="white" stroke="black" />
<line x1="375" y1="387" x2="375" y2="503" stroke="black" />
<line x1="362" y1="503" x2="388" y2="503" stroke="black" />
<text x="381" y="495" font-family="Verdana" font-size="8" text-anchor="middle"  dominant-baseline="middle" fill="black" > 488</text>
<circle cx="362" cy="503" r="4" fill="white" stroke="black" />
<line x1="362" y1="507" x2="362" y2="667" stroke="black" />
<line x1="356" y1="667" x2="369" y2="667" stroke="black" />
<text x="365" y="659" font-family="Verdana" font-size="8" text-anchor="middle"  dominant-baseline="middle" fill="black" > 652</text>
<circle cx="356" cy="667" r="4" fill="white" stroke="black" />
<line x1="356" y1="671" x2="356" y2="736" stroke="black" />
<circle cx="356" cy="736" r="4" fill="white" stroke="black" />
<text x="356" y="748" font-family="Verdana" font-size="8" text-anchor="middle"  dominant-baseline="middle" fill="black" > 721</text>
<circle cx="368" cy="667" r="4" fill="white" stroke="black" />
<line x1="368" y1="671" x2="368" y2="736" stroke="black" />
<circle cx="368" cy="736" r="4" fill="white" stroke="black" />
<text x="368" y="748" font-family="Verdana" font-size="8" text-anchor="middle"  dominant-baseline="middle" fill="black" > 721</text>
<circle cx="387" cy="503" r="4" fill="white" stroke="black" />
<line x1="387" y1="507" x2="387" y2="640" stroke="black" />
<line x1="381" y1="640" x2="394" y2="640" stroke="black" />
<text x="390" y="632" font-family="Verdana" font-size="8" text-anchor="middle"  dominant-baseline="middle" fill="black" > 625</text>
<circle cx="381" cy="640" r="4" fill="white" stroke="black" />
<line x1="381" y1="644" x2="381" y2="736" stroke="black" />
<circle cx="381" cy="736" r="4" fill="white" stroke="black" />
<text x="381" y="748" font-family="Verdana" font-size="8" text-anchor="middle"  dominant-baseline="middle" fill="black" > 721</text>
<circle cx="393" cy="640" r="4" fill="white" stroke="black" />
<line x1="393" y1="644" x2="393" y2="736" stroke="black" />
<circle cx="393" cy="736" r="4" fill="white" stroke="black" />
<text x="393" y="748" font-family="Verdana" font-size="8" text-anchor="middle"  dominant-baseline="middle" fill="black" > 721</text>
<text x="500" y="7" font-family="Verdana" font-size="7" text-anchor="middle"  dominant-baseline="middle" fill="black" > C3</text>
<circle cx="500" cy="15" r="4" fill="white" stroke="black" />
<line x1="500" y1="19" x2="500" y2="199" stroke="black" />
<line x1="450" y1="199" x2="550" y2="199" stroke="black" />
<text x="525" y="191" font-family="Verdana" font-size="8" text-anchor="middle"  dominant-baseline="middle" fill="black" > 184</text>
<circle cx="450" cy="199" r="4" fill="white" stroke="black" />
<line x1="450" y1="203" x2="450" y2="352" stroke="black" />
<line x1="446" y1="348" x2="454" y2="356" stroke="red" />
<line x1="446" y1="356" x2="454" y2="348" stroke="red" />
<text x="450" y="364" font-family="Verdana" font-size="8" text-anchor="middle"  dominant-baseline="middle" fill="black" > 337</text>
<circle cx="550" cy="199" r="4" fill="white" stroke="black" />
<line x1="550" y1="203" x2="550" y2="320" stroke="black" />
<line x1="546" y1="316" x2="554" y2="324" stroke="red" />
<line x1="546" y1="324" x2="554" y2="316" stroke="red" />
<text x="550" y="332" font-family="Verdana" font-size="8" text-anchor="middle"  dominant-baseline="middle" fill="black" > 305</text>
<text x="700" y="7" font-family="Verdana" font-size="7" text-anchor="middle"  dominant-baseline="middle" fill="black" > C4</text>
<circle cx="700" cy="15" r="4" fill="white" stroke="black" />
<line x1="700" y1="19" x2="700" y2="137" stroke="black" />
<line x1="650" y1="137" x2="750" y2="137" stroke="black" />
<text x="725" y="129" font-family="Verdana" font-size="8" text-anchor="middle"  dominant-baseline="middle" fill="black" > 122</text>
<circle cx="650" cy="137" r="4" fill="white" stroke="black" />
<line x1="650" y1="141" x2="650" y2="510" stroke="black" />
<line x1="616" y1="510" x2="684" y2="510" stroke="black" />
<text x="658" y="502" font-family="Verdana" font-size="8" text-anchor="middle"  dominant-baseline="middle" fill="black" > 495</text>
<circle cx="616" cy="510" r="4" fill="white" stroke="black" />
<circle cx="649" cy="510" r="4" fill="white" stroke="black" />
<circle cx="682" cy="510" r="4" fill="white" stroke="black" />
<line x1="616" y1="514" x2="616" y2="529" stroke="black" />
<line x1="616" y1="529" x2="649" y2="535" stroke="black" />
<line x1="649" y1="514" x2="649" y2="529" stroke="black" />
<line x1="649" y1="529" x2="649" y2="535" stroke="black" />
<line x1="682" y1="514" x2="682" y2="529" stroke="black" />
<line x1="682" y1="529" x2="649" y2="535" stroke="black" />
<text x="649" y="523" font-family="Verdana" font-size="8" text-anchor="middle"  dominant-baseline="middle" fill="black" > 520</text>
<circle cx="649" cy="535" r="4" fill="white" stroke="black" />
<line x1="649" y1="539" x2="649" y2="736" stroke="black" />
<circle cx="649" cy="736" r="4" fill="white" stroke="black" />
<text x="649" y="748" font-family="Verdana" font-size="8" text-anchor="middle"  dominant-baseline="middle" fill="black" > 721</text>
<circle cx="750" cy="137" r="4" fill="white" stroke="black" />
<line x1="750" y1="141" x2="750" y2="298" stroke="black" />
<line x1="725" y1="298" x2="775" y2="298" stroke="black" />
<text x="762" y="290" font-family="Verdana" font-size="8" text-anchor="middle"  dominant-baseline="middle" fill="black" > 283</text>
<circle cx="725" cy="298" r="4" fill="white" stroke="black" />
<line x1="725" y1="302" x2="725" y2="530" stroke="black" />
<line x1="712" y1="530" x2="738" y2="530" stroke="black" />
<text x="731" y="522" font-family="Verdana" font-size="8" text-anchor="middle"  dominant-baseline="middle" fill="black" > 515</text>
<circle cx="712" cy="530" r="4" fill="white" stroke="black" />
<line x1="712" y1="534" x2="712" y2="684" stroke="black" />
<line x1="706" y1="684" x2="719" y2="684" stroke="black" />
<text x="715" y="676" font-family="Verdana" font-size="8" text-anchor="middle"  dominant-baseline="middle" fill="black" > 669</text>
<circle cx="706" cy="684" r="4" fill="white" stroke="black" />
<line x1="706" y1="688" x2="706" y2="736" stroke="black" />
<circle cx="706" cy="736" r="4" fill="white" stroke="black" />
<text x="706" y="748" font-family="Verdana" font-size="8" text-anchor="middle"  dominant-baseline="middle" fill="black" > 721</text>
<circle cx="718" cy="684" r="4" fill="white" stroke="black" />
<line x1="718" y1="688" x2="718" y2="736" stroke="black" />
<circle cx="718" cy="736" r="4" fill="white" stroke="black" />
<text x="718" y="748" font-family="Verdana" font-size="8" text-anchor="middle"  dominant-baseline="middle" fill="black" > 721</text>
<circle cx="737" cy="530" r="4" fill="white" stroke="black" />
<line x1="737" y1="534" x2="737" y2="695" stroke="black" />
<line x1="731" y1="695" x2="744" y2="695" stroke="black" />
<text x="740" y="687" font-family="Verdana" font-size="8" text-anchor="middle"  dominant-baseline="middle" fill="black" > 680</text>
<circle cx="731" cy="695" r="4" fill="white" stroke="black" />
<line x1="731" y1="699" x2="731" y2="736" stroke="black" />
<circle cx="731" cy="736" r="4" fill="white" stroke="black" />
<text x="731" y="748" font-family="Verdana" font-size="8" text-anchor="middle"  dominant-baseline="middle" fill="black" > 721</text>
<circle cx="743" cy="695" r="4" fill="white" stroke="black" />
<line x1="743" y1="699" x2="743" y2="736" stroke="black" />
<circle cx="743" cy="736" r="4" fill="white" stroke="black" />
<text x="743" y="748" font-family="Verdana" font-size="8" text-anchor="middle"  dominant-baseline="middle" fill="black" > 721</text>
<circle cx="775" cy="298" r="4" fill="white" stroke="black" />
<line x1="775" y1="302" x2="775" y2="653" stroke="black" />
<line x1="771" y1="649" x2="779" y2="657" stroke="red" />
<line x1="771" y1="657" x2="779" y2="649" stroke="red" />
<text x="775" y="665" font-family="Verdana" font-size="8" text-anchor="middle"  dominant-baseline="middle" fill="black" > 638</text>
<text x="900" y="7" font-family="Verdana" font-size="7" text-anchor="middle"  dominant-baseline="middle" fill="black" > C5</text>
<circle cx="900" cy="15" r="4" fill="white" stroke="black" />
<line x1="900" y1="19" x2="900" y2="132" stroke="black" />
<line x1="850" y1="132" x2="950" y2="132" stroke="black" />
<text x="925" y="124" font-family="Verdana" font-size="8" text-anchor="middle"  dominant-baseline="middle" fill="black" > 117</text>
<circle cx="850" cy="132" r="4" fill="white" stroke="black" />
<line x1="850" y1="136" x2="850" y2="436" stroke="black" />
<line x1="846" y1="440" x2="850" y2="432" stroke="blue" />
<line x1="850" y1="440" x2="854" y2="432" stroke="blue" />
<text x="850" y="448" font-family="Verdana" font-size="8" text-anchor="middle"  dominant-baseline="middle" fill="black" > 421</text>
<circle cx="950" cy="132" r="4" fill="white" stroke="black" />
<line x1="950" y1="136" x2="950" y2="312" stroke="black" />
<line x1="925" y1="312" x2="975" y2="312" stroke="black" />
<text x="962" y="304" font-family="Verdana" font-size="8" text-anchor="middle"  dominant-baseline="middle" fill="black" > 297</text>
<circle cx="925" cy="312" r="4" fill="white" stroke="black" />
<line x1="925" y1="316" x2="925" y2="436" stroke="black" />
<line x1="921" y1="440" x2="925" y2="432" stroke="blue" />
<line x1="925" y1="440" x2="929" y2="432" stroke="blue" />
<text x="925" y="448" font-family="Verdana" font-size="8" text-anchor="middle"  dominant-baseline="middle" fill="black" > 421</text>
<circle cx="975" cy="312" r="4" fill="white" stroke="black" />
<line x1="975" y1="316" x2="975" y2="472" stroke="black" />
<line x1="971" y1="476" x2="975" y2="468" stroke="blue" />
<line x1="975" y1="476" x2="979" y2="468" stroke="blue" />
<text x="975" y="484" font-family="Verdana" font-size="8" text-anchor="middle"  dominant-baseline="middle" fill="black" > 457</text>
<text x="1100" y="7" font-family="Verdana" font-size="7" text-anchor="middle"  dominant-baseline="middle" fill="black" > C6</text>
<circle cx="1100" cy="15" r="4" fill="white" stroke="black" />
<line x1="1100" y1="19" x2="1100" y2="183" stroke="black" />
<line x1="1050" y1="183" x2="1150" y2="183" stroke="black" />
<text x="1125" y="175" font-family="Verdana" font-size="8" text-anchor="middle"  dominant-baseline="middle" fill="black" > 168</text>
<circle cx="1050" cy="183" r="4" fill="white" stroke="black" />
<line x1="1050" y1="187" x2="1050" y2="332" stroke="black" />
<line x1="1046" y1="328" x2="1054" y2="336" stroke="red" />
<line x1="1046" y1="336" x2="1054" y2="328" stroke="red" />
<text x="1050" y="344" font-family="Verdana" font-size="8" text-anchor="middle"  dominant-baseline="middle" fill="black" > 317</text>
<circle cx="1150" cy="183" r="4" fill="white" stroke="black" />
<line x1="1150" y1="187" x2="1150" y2="688" stroke="black" />
<line x1="1125" y1="688" x2="1175" y2="688" stroke="black" />
<text x="1162" y="680" font-family="Verdana" font-size="8" text-anchor="middle"  dominant-baseline="middle" fill="black" > 673</text>
<circle cx="1125" cy="688" r="4" fill="white" stroke="black" />
<line x1="1125" y1="692" x2="1125" y2="736" stroke="black" />
<circle cx="1125" cy="736" r="4" fill="white" stroke="black" />
<text x="1125" y="748" font-family="Verdana" font-size="8" text-anchor="middle"  dominant-baseline="middle" fill="black" > 721</text>
<circle cx="1175" cy="688" r="4" fill="white" stroke="black" />
<line x1="1175" y1="692" x2="1175" y2="736" stroke="black" />
<circle cx="1175" cy="736" r="4" fill="white" stroke="black" />
<text x="1175" y="748" font-family="Verdana" font-size="8" text-anchor="middle"  dominant-baseline="middle" fill="black" > 721</text>
<text x="1300" y="7" font-family="Verdana" font-size="7" text-anchor="middle"  dominant-baseline="middle" fill="black" > C7</text>
<circle cx="1300" cy="15" r="4" fill="white" stroke="black" />
<line x1="1300" y1="19" x2="1300" y2="143" stroke="black" />
<line x1="1250" y1="143" x2="1350" y2="143" stroke="black" />
<text x="1325" y="135" font-family="Verdana" font-size="8" text-anchor="middle"  dominant-baseline="middle" fill="black" > 128</text>
<circle cx="1250" cy="143" r="4" fill="white" stroke="black" />
<line x1="1250" y1="147" x2="1250" y2="719" stroke="black" />
<line x1="1246" y1="715" x2="1254" y2="723" stroke="red" />
<line x1="1246" y1="723" x2="1254" y2="715" stroke="red" />
<text x="1250" y="731" font-family="Verdana" font-size="8" text-anchor="middle"  dominant-baseline="middle" fill="black" > 704</text>
<circle cx="1350" cy="143" r="4" fill="white" stroke="black" />
<line x1="1350" y1="147" x2="1350" y2="317" stroke="black" />
<line x1="1325" y1="317" x2="1375" y2="317" stroke="black" />
<text x="1362" y="309" font-family="Verdana" font-size="8" text-anchor="middle"  dominant-baseline="middle" fill="black" > 302</text>
<circle cx="1325" cy="317" r="4" fill="white" stroke="black" />
<line x1="1325" y1="321" x2="1325" y2="368" stroke="black" />
<line x1="1321" y1="364" x2="1329" y2="372" stroke="red" />
<line x1="1321" y1="372" x2="1329" y2="364" stroke="red" />
<text x="1325" y="380" font-family="Verdana" font-size="8" text-anchor="middle"  dominant-baseline="middle" fill="black" > 353</text>
<circle cx="1375" cy="317" r="4" fill="white" stroke="black" />
<line x1="1375" y1="321" x2="1375" y2="373" stroke="black" />
<line x1="1371" y1="369" x2="1379" y2="377" stroke="red" />
<line x1="1371" y1="377" x2="1379" y2="369" stroke="red" />
<text x="1375" y="385" font-family="Verdana" font-size="8" text-anchor="middle"  dominant-baseline="middle" fill="black" > 358</text>
<text x="1500" y="7" font-family="Verdana" font-size="7" text-anchor="middle"  dominant-baseline="middle" fill="black" > C8</text>
<circle cx="1500" cy="15" r="4" fill="white" stroke="black" />
<line x1="1500" y1="19" x2="1500" y2="151" stroke="black" />
<line x1="1450" y1="151" x2="1550" y2="151" stroke="black" />
<text x="1525" y="143" font-family="Verdana" font-size="8" text-anchor="middle"  dominant-baseline="middle" fill="black" > 136</text>
<circle cx="1450" cy="151" r="4" fill="white" stroke="black" />
<line x1="1450" y1="155" x2="1450" y2="317" stroke="black" />
<line x1="1425" y1="317" x2="1475" y2="317" stroke="black" />
<text x="1462" y="309" font-family="Verdana" font-size="8" text-anchor="middle"  dominant-baseline="middle" fill="black" > 302</text>
<circle cx="1425" cy="317" r="4" fill="white" stroke="black" />
<line x1="1425" y1="321" x2="1425" y2="479" stroke="black" />
<line x1="1412" y1="479" x2="1438" y2="479" stroke="black" />
<text x="1431" y="471" font-family="Verdana" font-size="8" text-anchor="middle"  dominant-baseline="middle" fill="black" > 464</text>
<circle cx="1412" cy="479" r="4" fill="white" stroke="black" />
<line x1="1412" y1="483" x2="1412" y2="540" stroke="black" />
<line x1="1408" y1="536" x2="1416" y2="544" stroke="red" />
<line x1="1408" y1="544" x2="1416" y2="536" stroke="red" />
<text x="1412" y="552" font-family="Verdana" font-size="8" text-anchor="middle"  dominant-baseline="middle" fill="black" > 525</text>
<circle cx="1437" cy="479" r="4" fill="white" stroke="black" />
<line x1="1437" y1="483" x2="1437" y2="699" stroke="black" />
<line x1="1431" y1="699" x2="1444" y2="699" stroke="black" />
<text x="1440" y="691" font-family="Verdana" font-size="8" text-anchor="middle"  dominant-baseline="middle" fill="black" > 684</text>
<circle cx="1431" cy="699" r="4" fill="white" stroke="black" />
<line x1="1431" y1="703" x2="1431" y2="736" stroke="black" />
<circle cx="1431" cy="736" r="4" fill="white" stroke="black" />
<text x="1431" y="748" font-family="Verdana" font-size="8" text-anchor="middle"  dominant-baseline="middle" fill="black" > 721</text>
<circle cx="1443" cy="699" r="4" fill="white" stroke="black" />
<line x1="1443" y1="703" x2="1443" y2="736" stroke="black" />
<circle cx="1443" cy="736" r="4" fill="white" stroke="black" />
<text x="1443" y="748" font-family="Verdana" font-size="8" text-anchor="middle"  dominant-baseline="middle" fill="black" > 721</text>
<circle cx="1475" cy="317" r="4" fill="white" stroke="black" />
<line x1="1475" y1="321" x2="1475" y2="528" stroke="black" />
<line x1="1462" y1="528" x2="1488" y2="528" stroke="black" />
<text x="1481" y="520" font-family="Verdana" font-size="8" text-anchor="middle"  dominant-baseline="middle" fill="black" > 513</text>
<circle cx="1462" cy="528" r="4" fill="white" stroke="black" />
<line x1="1462" y1="532" x2="1462" y2="736" stroke="black" />
<circle cx="1462" cy="736" r="4" fill="white" stroke="black" />
<text x="1462" y="748" font-family="Verdana" font-size="8" text-anchor="middle"  dominant-baseline="middle" fill="black" > 721</text>
<circle cx="1487" cy="528" r="4" fill="white" stroke="black" />
<line x1="1487" y1="532" x2="1487" y2="736" stroke="black" />
<circle cx="1487" cy="736" r="4" fill="white" stroke="black" />
<text x="1487" y="748" font-family="Verdana" font-size="8" text-anchor="middle"  dominant-baseline="middle" fill="black" > 721</text>
<circle cx="1550" cy="151" r="4" fill="white" stroke="black" />
<line x1="1550" y1="155" x2="1550" y2="316" stroke="black" />
<line x1="1525" y1="316" x2="1575" y2="316" stroke="black" />
<text x="1562" y="308" font-family="Verdana" font-size="8" text-anchor="middle"  dominant-baseline="middle" fill="black" > 301</text>
<circle cx="1525" cy="316" r="4" fill="white" stroke="black" />
<line x1="1525" y1="320" x2="1525" y2="480" stroke="black" />
<line x1="1512" y1="480" x2="1538" y2="480" stroke="black" />
<text x="1531" y="472" font-family="Verdana" font-size="8" text-anchor="middle"  dominant-baseline="middle" fill="black" > 465</text>
<circle cx="1512" cy="480" r="4" fill="white" stroke="black" />
<line x1="1512" y1="484" x2="1512" y2="736" stroke="black" />
<circle cx="1512" cy="736" r="4" fill="white" stroke="black" />
<text x="1512" y="748" font-family="Verdana" font-size="8" text-anchor="middle"  dominant-baseline="middle" fill="black" > 721</text>
<circle cx="1537" cy="480" r="4" fill="white" stroke="black" />
<line x1="1537" y1="484" x2="1537" y2="736" stroke="black" />
<circle cx="1537" cy="736" r="4" fill="white" stroke="black" />
<text x="1537" y="748" font-family="Verdana" font-size="8" text-anchor="middle"  dominant-baseline="middle" fill="black" > 721</text>
<circle cx="1575" cy="316" r="4" fill="white" stroke="black" />
<line x1="1575" y1="320" x2="1575" y2="471" stroke="black" />
<line x1="1562" y1="471" x2="1588" y2="471" stroke="black" />
<text x="1581" y="463" font-family="Verdana" font-size="8" text-anchor="middle"  dominant-baseline="middle" fill="black" > 456</text>
<circle cx="1562" cy="471" r="4" fill="white" stroke="black" />
<line x1="1562" y1="475" x2="1562" y2="736" stroke="black" />
<circle cx="1562" cy="736" r="4" fill="white" stroke="black" />
<text x="1562" y="748" font-family="Verdana" font-size="8" text-anchor="middle"  dominant-baseline="middle" fill="black" > 721</text>
<circle cx="1587" cy="471" r="4" fill="white" stroke="black" />
<line x1="1587" y1="475" x2="1587" y2="736" stroke="black" />
<circle cx="1587" cy="736" r="4" fill="white" stroke="black" />
<text x="1587" y="748" font-family="Verdana" font-size="8" text-anchor="middle"  dominant-baseline="middle" fill="black" > 721</text>
</svg>
