<?xml version="1.0" encoding="utf-8"?>
<svg xmlns="http://www.w3.org/2000/svg" version="1.1" width="1950" height="750">
<rect width="1950" height="15" x="0" y="0" fill="white" />
<rect width="1950" height="15" x="0" y="735" fill="white" />
<rect width="25" height="750" x="0" y="0" fill="white" />
<rect width="25" height="750" x="1925" y="0" fill="white" />
<rect width="1910" height="144" x="25" y="15" fill="ghostwhite" />
<rect width="1910" height="144" x="25" y="159" fill="snow" />
<rect width="1910" height="144" x="25" y="303" fill="ghostwhite" />
<rect width="1910" height="144" x="25" y="447" fill="snow" />
<rect width="1910" height="144" x="25" y="591" fill="ghostwhite" />
<text x="12" y="87" font-family="Verdana" font-size="10" text-anchor="middle"  dominant-baseline="middle" fill="red" > D0</text>
<text x="12" y="231" font-family="Verdana" font-size="10" text-anchor="middle"  dominant-baseline="middle" fill="red" > D1</text>
<text x="12" y="375" font-family="Verdana" font-size="10" text-anchor="middle"  dominant-baseline="middle" fill="red" > D2</text>
<text x="12" y="519" font-family="Verdana" font-size="10" text-anchor="middle"  dominant-baseline="middle" fill="red" > D3</text>
<text x="12" y="663" font-family="Verdana" font-size="10" text-anchor="middle"  dominant-baseline="middle" fill="red" > D4</text>
<text x="12" y="20" font-family="Verdana" font-size="10" text-anchor="middle"  dominant-baseline="middle" fill="black" > 0</text>
<text x="12" y="164" font-family="Verdana" font-size="10" text-anchor="middle"  dominant-baseline="middle" fill="black" > 144</text>
<text x="12" y="308" font-family="Verdana" font-size="10" text-anchor="middle"  dominant-baseline="middle" fill="black" > 288</text>
<text x="12" y="452" font-family="Verdana" font-size="10" text-anchor="middle"  dominant-baseline="middle" fill="black" > 432</text>
<text x="12" y="596" font-family="Verdana" font-size="10" text-anchor="middle"  dominant-baseline="middle" fill="black" > 576</text>
<text x="12" y="740" font-family="Verdana" font-size="10" text-anchor="middle"  dominant-baseline="middle" fill="black" > 720</text>
<text x="100" y="7" font-family="Verdana" font-size="7" text-anchor="middle"  dominant-baseline="middle" fill="black" > C1</text>
<circle cx="100" cy="15" r="4" fill="white" stroke="black" />
<line x1="100" y1="19" x2="100" y2="191" stroke="black" />
<line x1="50" y1="191" x2="150" y2="191" stroke="black" />
<text x="125" y="183" font-family="Verdana" font-size="8" text-anchor="middle"  dominant-baseline="middle" fill="black" > 176</text>
<circle cx="50" cy="191" r="4" fill="white" stroke="black" />
<line x1="50" y1="195" x2="50" y2="389" stroke="black" />
<line x1="25" y1="389" x2="75" y2="389" stroke="black" />
<text x="62" y="381" font-family="Verdana" font-size="8" text-anchor="middle"  dominant-baseline="middle" fill="black" > 374</text>
<circle cx="25" cy="389" r="4" fill="white" stroke="black" />
<line x1="25" y1="393" x2="25" y2="463" stroke="black" />
<line x1="21" y1="467" x2="25" y2="459" stroke="blue" />
<line x1="25" y1="467" x2="29" y2="459" stroke="blue" />
<text x="25" y="475" font-family="Verdana" font-size="8" text-anchor="middle"  dominant-baseline="middle" fill="black" > 448</text>
<circle cx="75" cy="389" r="4" fill="white" stroke="black" />
<line x1="75" y1="393" x2="75" y2="651" stroke="black" />
<line x1="62" y1="651" x2="88" y2="651" stroke="black" />
<text x="81" y="643" font-family="Verdana" font-size="8" text-anchor="middle"  dominant-baseline="middle" fill="black" > 636</text>
<circle cx="62" cy="651" r="4" fill="white" stroke="black" />
<line x1="62" y1="655" x2="62" y2="736" stroke="black" />
<circle cx="62" cy="736" r="4" fill="white" stroke="black" />
<text x="62" y="748" font-family="Verdana" font-size="8" text-anchor="middle"  dominant-baseline="middle" fill="black" > 721</text>
<circle cx="87" cy="651" r="4" fill="white" stroke="black" />
<line x1="87" y1="655" x2="87" y2="736" stroke="black" />
<circle cx="87" cy="736" r="4" fill="white" stroke="black" />
<text x="87" y="748" font-family="Verdana" font-size="8" text-anchor="middle"  dominant-baseline="middle" fill="black" > 721</text>
<circle cx="150" cy="191" r="4" fill="white" stroke="black" />
<line x1="150" y1="195" x2="150" y2="202" stroke="black" />
<line x1="146" y1="206" x2="150" y2="198" stroke="blue" />
<line x1="150" y1="206" x2="154" y2="198" stroke="blue" />
<text x="150" y="214" font-family="Verdana" font-size="8" text-anchor="middle"  dominant-baseline="middle" fill="black" > 187</text>
<text x="250" y="7" font-family="Verdana" font-size="7" text-anchor="middle"  dominant-baseline="middle" fill="black" > C2</text>
<circle cx="250" cy="15" r="4" fill="white" stroke="black" />
<line x1="250" y1="19" x2="250" y2="113" stroke="black" />
<line x1="246" y1="117" x2="250" y2="109" stroke="blue" />
<line x1="250" y1="117" x2="254" y2="109" stroke="blue" />
<text x="250" y="125" font-family="Verdana" font-size="8" text-anchor="middle"  dominant-baseline="middle" fill="black" > 98</text>
<text x="400" y="7" font-family="Verdana" font-size="7" text-anchor="middle"  dominant-baseline="middle" fill="black" > C3</text>
<circle cx="400" cy="15" r="4" fill="white" stroke="black" />
<line x1="400" y1="19" x2="400" y2="123" stroke="black" />
<line x1="350" y1="123" x2="450" y2="123" stroke="black" />
<text x="425" y="115" font-family="Verdana" font-size="8" text-anchor="middle"  dominant-baseline="middle" fill="black" > 108</text>
<circle cx="350" cy="123" r="4" fill="white" stroke="black" />
<line x1="350" y1="127" x2="350" y2="298" stroke="black" />
<line x1="346" y1="302" x2="350" y2="294" stroke="blue" />
<line x1="350" y1="302" x2="354" y2="294" stroke="blue" />
<text x="350" y="310" font-family="Verdana" font-size="8" text-anchor="middle"  dominant-baseline="middle" fill="black" > 283</text>
<circle cx="450" cy="123" r="4" fill="white" stroke="black" />
<line x1="450" y1="127" x2="450" y2="392" stroke="black" />
<line x1="425" y1="392" x2="475" y2="392" stroke="black" />
<text x="462" y="384" font-family="Verdana" font-size="8" text-anchor="middle"  dominant-baseline="middle" fill="black" > 377</text>
<circle cx="425" cy="392" r="4" fill="white" stroke="black" />
<circle cx="475" cy="392" r="4" fill="white" stroke="black" />
<line x1="425" y1="396" x2="425" y2="623" stroke="black" />
<line x1="425" y1="623" x2="450" y2="700" stroke="black" />
<line x1="475" y1="396" x2="475" y2="623" stroke="black" />
<line x1="475" y1="623" x2="450" y2="700" stroke="black" />
<text x="450" y="688" font-family="Verdana" font-size="8" text-anchor="middle"  dominant-baseline="middle" fill="black" > 685</text>
<circle cx="450" cy="700" r="4" fill="white" stroke="black" />
<line x1="450" y1="704" x2="450" y2="736" stroke="black" />
<circle cx="450" cy="736" r="4" fill="white" stroke="black" />
<text x="450" y="748" font-family="Verdana" font-size="8" text-anchor="middle"  dominant-baseline="middle" fill="black" > 721</text>
<text x="600" y="7" font-family="Verdana" font-size="7" text-anchor="middle"  dominant-baseline="middle" fill="black" > C4</text>
<circle cx="600" cy="15" r="4" fill="white" stroke="black" />
<line x1="600" y1="19" x2="600" y2="209" stroke="black" />
<line x1="550" y1="209" x2="650" y2="209" stroke="black" />
<text x="625" y="201" font-family="Verdana" font-size="8" text-anchor="middle"  dominant-baseline="middle" fill="black" > 194</text>
<circle cx="550" cy="209" r="4" fill="white" stroke="black" />
<line x1="550" y1="213" x2="550" y2="736" stroke="black" />
<circle cx="550" cy="736" r="4" fill="white" stroke="black" />
<text x="550" y="748" font-family="Verdana" font-size="8" text-anchor="middle"  dominant-baseline="middle" fill="black" > 721</text>
<circle cx="650" cy="209" r="4" fill="white" stroke="black" />
<line x1="650" y1="213" x2="650" y2="736" stroke="black" />
<circle cx="650" cy="736" r="4" fill="white" stroke="black" />
<text x="650" y="748" font-family="Verdana" font-size="8" text-anchor="middle"  dominant-baseline="middle" fill="black" > 721</text>
<text x="800" y="7" font-family="Verdana" font-size="7" text-anchor="middle"  dominant-baseline="middle" fill="black" > C5</text>
<circle cx="800" cy="15" r="4" fill="white" stroke="black" />
<line x1="800" y1="19" x2="800" y2="190" stroke="black" />
<line x1="750" y1="190" x2="850" y2="190" stroke="black" />
<text x="825" y="182" font-family="Verdana" font-size="8" text-anchor="middle"  dominant-baseline="middle" fill="black" > 175</text>
<circle cx="750" cy="190" r="4" fill="white" stroke="black" />
<line x1="750" y1="194" x2="750" y2="736" stroke="black" />
<circle cx="750" cy="736" r="4" fill="white" stroke="black" />
<text x="750" y="748" font-family="Verdana" font-size="8" text-anchor="middle"  dominant-baseline="middle" fill="black" > 721</text>
<circle cx="850" cy="190" r="4" fill="white" stroke="black" />
<line x1="850" y1="194" x2="850" y2="736" stroke="black" />
<circle cx="850" cy="736" r="4" fill="white" stroke="black" />
<text x="850" y="748" font-family="Verdana" font-size="8" text-anchor="middle"  dominant-baseline="middle" fill="black" > 721</text>
<text x="1000" y="7" font-family="Verdana" font-size="7" text-anchor="middle"  dominant-baseline="middle" fill="black" > C6</text>
<circle cx="1000" cy="15" r="4" fill="white" stroke="black" />
<line x1="1000" y1="19" x2="1000" y2="183" stroke="black" />
<line x1="950" y1="183" x2="1050" y2="183" stroke="black" />
<text x="1025" y="175" font-family="Verdana" font-size="8" text-anchor="middle"  dominant-baseline="middle" fill="black" > 168</text>
<circle cx="950" cy="183" r="4" fill="white" stroke="black" />
<circle cx="1050" cy="183" r="4" fill="white" stroke="black" />
<line x1="950" y1="187" x2="950" y2="239" stroke="black" />
<line x1="950" y1="239" x2="1000" y2="257" stroke="black" />
<line x1="1050" y1="187" x2="1050" y2="239" stroke="black" />
<line x1="1050" y1="239" x2="1000" y2="257" stroke="black" />
<text x="1000" y="245" font-family="Verdana" font-size="8" text-anchor="middle"  dominant-baseline="middle" fill="black" > 242</text>
<circle cx="1000" cy="257" r="4" fill="white" stroke="black" />
<line x1="1000" y1="261" x2="1000" y2="311" stroke="black" />
<line x1="996" y1="307" x2="1004" y2="315" stroke="red" />
<line x1="996" y1="315" x2="1004" y2="307" stroke="red" />
<text x="1000" y="323" font-family="Verdana" font-size="8" text-anchor="middle"  dominant-baseline="middle" fill="black" > 296</text>
<text x="1200" y="7" font-family="Verdana" font-size="7" text-anchor="middle"  dominant-baseline="middle" fill="black" > C7</text>
<circle cx="1200" cy="15" r="4" fill="white" stroke="black" />
<line x1="1200" y1="19" x2="1200" y2="202" stroke="black" />
<line x1="1150" y1="202" x2="1250" y2="202" stroke="black" />
<text x="1225" y="194" font-family="Verdana" font-size="8" text-anchor="middle"  dominant-baseline="middle" fill="black" > 187</text>
<circle cx="1150" cy="202" r="4" fill="white" stroke="black" />
<circle cx="1250" cy="202" r="4" fill="white" stroke="black" />
<line x1="1150" y1="206" x2="1150" y2="406" stroke="black" />
<line x1="1150" y1="406" x2="1200" y2="474" stroke="black" />
<line x1="1250" y1="206" x2="1250" y2="406" stroke="black" />
<line x1="1250" y1="406" x2="1200" y2="474" stroke="black" />
<text x="1200" y="462" font-family="Verdana" font-size="8" text-anchor="middle"  dominant-baseline="middle" fill="black" > 459</text>
<circle cx="1200" cy="474" r="4" fill="white" stroke="black" />
<line x1="1200" y1="478" x2="1200" y2="579" stroke="black" />
<line x1="1166" y1="579" x2="1234" y2="579" stroke="black" />
<text x="1208" y="571" font-family="Verdana" font-size="8" text-anchor="middle"  dominant-baseline="middle" fill="black" > 564</text>
<circle cx="1166" cy="579" r="4" fill="white" stroke="black" />
<circle cx="1199" cy="579" r="4" fill="white" stroke="black" />
<line x1="1166" y1="583" x2="1166" y2="588" stroke="black" />
<line x1="1166" y1="588" x2="1182" y2="590" stroke="black" />
<line x1="1199" y1="583" x2="1199" y2="588" stroke="black" />
<line x1="1199" y1="588" x2="1182" y2="590" stroke="black" />
<text x="1182" y="578" font-family="Verdana" font-size="8" text-anchor="middle"  dominant-baseline="middle" fill="black" > 575</text>
<circle cx="1182" cy="590" r="4" fill="white" stroke="black" />
<line x1="1182" y1="594" x2="1182" y2="736" stroke="black" />
<circle cx="1182" cy="736" r="4" fill="white" stroke="black" />
<text x="1182" y="748" font-family="Verdana" font-size="8" text-anchor="middle"  dominant-baseline="middle" fill="black" > 721</text>
<circle cx="1232" cy="579" r="4" fill="white" stroke="black" />
<line x1="1232" y1="583" x2="1232" y2="736" stroke="black" />
<circle cx="1232" cy="736" r="4" fill="white" stroke="black" />
<text x="1232" y="748" font-family="Verdana" font-size="8" text-anchor="middle"  dominant-baseline="middle" fill="black" > 721</text>
<text x="1400" y="7" font-family="Verdana" font-size="7" text-anchor="middle"  dominant-baseline="middle" fill="black" > C8</text>
<circle cx="1400" cy="15" r="4" fill="white" stroke="black" />
<line x1="1400" y1="19" x2="1400" y2="246" stroke="black" />
<line x1="1350" y1="246" x2="1450" y2="246" stroke="black" />
<text x="1425" y="238" font-family="Verdana" font-size="8" text-anchor="middle"  dominant-baseline="middle" fill="black" > 231</text>
<circle cx="1350" cy="246" r="4" fill="white" stroke="black" />
<line x1="1350" y1="250" x2="1350" y2="496" stroke="black" />
<line x1="1346" y1="492" x2="1354" y2="500" stroke="red" />
<line x1="1346" y1="500" x2="1354" y2="492" stroke="red" />
<text x="1350" y="508" font-family="Verdana" font-size="8" text-anchor="middle"  dominant-baseline="middle" fill="black" > 481</text>
<circle cx="1450" cy="246" r="4" fill="white" stroke="black" />
<line x1="1450" y1="250" x2="1450" y2="360" stroke="black" />
<line x1="1446" y1="356" x2="1454" y2="364" stroke="red" />
<line x1="1446" y1="364" x2="1454" y2="356" stroke="red" />
<text x="1450" y="372" font-family="Verdana" font-size="8" text-anchor="middle"  dominant-baseline="middle" fill="black" > 345</text>
<text x="1600" y="7" font-family="Verdana" font-size="7" text-anchor="middle"  dominant-baseline="middle" fill="black" > C9</text>
<circle cx="1600" cy="15" r="4" fill="white" stroke="black" />
<line x1="1600" y1="19" x2="1600" y2="177" stroke="black" />
<line x1="1550" y1="177" x2="1650" y2="177" stroke="black" />
<text x="1625" y="169" font-family="Verdana" font-size="8" text-anchor="middle"  dominant-baseline="middle" fill="black" > 162</text>
<circle cx="1550" cy="177" r="4" fill="white" stroke="black" />
<line x1="1550" y1="181" x2="1550" y2="736" stroke="black" />
<circle cx="1550" cy="736" r="4" fill="white" stroke="black" />
<text x="1550" y="748" font-family="Verdana" font-size="8" text-anchor="middle"  dominant-baseline="middle" fill="black" > 721</text>
<circle cx="1650" cy="177" r="4" fill="white" stroke="black" />
<line x1="1650" y1="181" x2="1650" y2="595" stroke="black" />
<line x1="1646" y1="591" x2="1654" y2="599" stroke="red" />
<line x1="1646" y1="599" x2="1654" y2="591" stroke="red" />
<text x="1650" y="607" font-family="Verdana" font-size="8" text-anchor="middle"  dominant-baseline="middle" fill="black" > 580</text>
<text x="1800" y="7" font-family="Verdana" font-size="7" text-anchor="middle"  dominant-baseline="middle" fill="black" > C10</text>
<circle cx="1800" cy="15" r="4" fill="white" stroke="black" />
<line x1="1800" y1="19" x2="1800" y2="124" stroke="black" />
<line x1="1750" y1="124" x2="1850" y2="124" stroke="black" />
<text x="1825" y="116" font-family="Verdana" font-size="8" text-anchor="middle"  dominant-baseline="middle" fill="black" > 109</text>
<circle cx="1750" cy="124" r="4" fill="white" stroke="black" />
<line x1="1750" y1="128" x2="1750" y2="203" stroke="black" />
<line x1="1746" y1="199" x2="1754" y2="207" stroke="red" />
<line x1="1746" y1="207" x2="1754" y2="199" stroke="red" />
<text x="1750" y="215" font-family="Verdana" font-size="8" text-anchor="middle"  dominant-baseline="middle" fill="black" > 188</text>
<circle cx="1850" cy="124" r="4" fill="white" stroke="black" />
<line x1="1850" y1="128" x2="1850" y2="327" stroke="black" />
<line x1="1846" y1="323" x2="1854" y2="331" stroke="red" />
<line x1="1846" y1="331" x2="1854" y2="323" stroke="red" />
<text x="1850" y="339" font-family="Verdana" font-size="8" text-anchor="middle"  dominant-baseline="middle" fill="black" > 312</text>
</svg>
