<?xml version="1.0" encoding="utf-8"?>
<svg xmlns="http://www.w3.org/2000/svg" version="1.1" width="2050" height="750">
<rect width="2050" height="15" x="0" y="0" fill="white" />
<rect width="2050" height="15" x="0" y="735" fill="white" />
<rect width="25" height="750" x="0" y="0" fill="white" />
<rect width="25" height="750" x="2025" y="0" fill="white" />
<rect width="2010" height="144" x="25" y="15" fill="ghostwhite" />
<rect width="2010" height="144" x="25" y="159" fill="snow" />
<rect width="2010" height="144" x="25" y="303" fill="ghostwhite" />
<rect width="2010" height="144" x="25" y="447" fill="snow" />
<rect width="2010" height="144" x="25" y="591" fill="ghostwhite" />
<text x="12" y="87" font-family="Verdana" font-size="10" text-anchor="middle"  dominant-baseline="middle" fill="red" > D0</text>
<text x="12" y="231" font-family="Verdana" font-size="10" text-anchor="middle"  dominant-baseline="middle" fill="red" > D1</text>
<text x="12" y="375" font-family="Verdana" font-size="10" text-anchor="middle"  dominant-baseline="middle" fill="red" > D2</text>
<text x="12" y="519" font-family="Verdana" font-size="10" text-anchor="middle"  dominant-baseline="middle" fill="red" > D3</text>
<text x="12" y="663" font-family="Verdana" font-size="10" text-anchor="middle"  dominant-baseline="middle" fill="red" > D4</text>
<text x="12" y="20" font-family="Verdana" font-size="10" text-anchor="middle"  dominant-baseline="middle" fill="black" > 0</text>
<text x="12" y="164" font-family="Verdana" font-size="10" text-anchor="middle"  dominant-baseline="middle" fill="black" > 144</text>
<text x="12" y="308" font-family="Verdana" font-size="10" text-anchor="middle"  dominant-baseline="middle" fill="black" > 288</text>
<text x="12" y="452" font-family="Verdana" font-size="10" text-anchor="middle"  dominant-baseline="middle" fill="black" > 432</text>
<text x="12" y="596" font-family="Verdana" font-size="10" text-anchor="middle"  dominant-baseline="middle" fill="black" > 576</text>
<text x="12" y="740" font-family="Verdana" font-size="10" text-anchor="middle"  dominant-baseline="middle" fill="black" > 720</text>
<text x="100" y="7" font-family="Verdana" font-size="7" text-anchor="middle"  dominant-baseline="middle" fill="black" > C1</text>
<circle cx="100" cy="15" r="4" fill="white" stroke="black" />
<line x1="100" y1="19" x2="100" y2="67" stroke="black" />
<line x1="50" y1="67" x2="150" y2="67" stroke="black" />
<text x="125" y="59" font-family="Verdana" font-size="8" text-anchor="middle"  dominant-baseline="middle" fill="black" > 52</text>
<circle cx="50" cy="67" r="4" fill="white" stroke="black" />
<line x1="50" y1="71" x2="50" y2="386" stroke="black" />
<line x1="16" y1="386" x2="84" y2="386" stroke="black" />
<text x="58" y="378" font-family="Verdana" font-size="8" text-anchor="middle"  dominant-baseline="middle" fill="black" > 371</text>
<circle cx="16" cy="386" r="4" fill="white" stroke="black" />
<circle cx="49" cy="386" r="4" fill="white" stroke="black" />
<line x1="16" y1="390" x2="16" y2="484" stroke="black" />
<line x1="16" y1="484" x2="32" y2="516" stroke="black" />
<line x1="49" y1="390" x2="49" y2="484" stroke="black" />
<line x1="49" y1="484" x2="32" y2="516" stroke="black" />
<text x="32" y="504" font-family="Verdana" font-size="8" text-anchor="middle"  dominant-baseline="middle" fill="black" > 501</text>
<circle cx="32" cy="516" r="4" fill="white" stroke="black" />
<circle cx="82" cy="386" r="4" fill="white" stroke="black" />
<line x1="32" y1="520" x2="32" y2="534" stroke="black" />
<line x1="32" y1="534" x2="57" y2="540" stroke="black" />
<line x1="82" y1="390" x2="82" y2="534" stroke="black" />
<line x1="82" y1="534" x2="57" y2="540" stroke="black" />
<text x="57" y="528" font-family="Verdana" font-size="8" text-anchor="middle"  dominant-baseline="middle" fill="black" > 525</text>
<circle cx="57" cy="540" r="4" fill="white" stroke="black" />
<line x1="57" y1="544" x2="57" y2="736" stroke="black" />
<circle cx="57" cy="736" r="4" fill="white" stroke="black" />
<text x="57" y="748" font-family="Verdana" font-size="8" text-anchor="middle"  dominant-baseline="middle" fill="black" > 721</text>
<circle cx="150" cy="67" r="4" fill="white" stroke="black" />
<line x1="150" y1="71" x2="150" y2="291" stroke="black" />
<line x1="125" y1="291" x2="175" y2="291" stroke="black" />
<text x="162" y="283" font-family="Verdana" font-size="8" text-anchor="middle"  dominant-baseline="middle" fill="black" > 276</text>
<circle cx="125" cy="291" r="4" fill="white" stroke="black" />
<line x1="125" y1="295" x2="125" y2="736" stroke="black" />
<circle cx="125" cy="736" r="4" fill="white" stroke="black" />
<text x="125" y="748" font-family="Verdana" font-size="8" text-anchor="middle"  dominant-baseline="middle" fill="black" > 721</text>
<circle cx="175" cy="291" r="4" fill="white" stroke="black" />
<line x1="175" y1="295" x2="175" y2="653" stroke="black" />
<line x1="171" y1="649" x2="179" y2="657" stroke="red" />
<line x1="171" y1="657" x2="179" y2="649" stroke="red" />
<text x="175" y="665" font-family="Verdana" font-size="8" text-anchor="middle"  dominant-baseline="middle" fill="black" > 638</text>
<text x="300" y="7" font-family="Verdana" font-size="7" text-anchor="middle"  dominant-baseline="middle" fill="black" > C2</text>
<circle cx="300" cy="15" r="4" fill="white" stroke="black" />
<line x1="300" y1="19" x2="300" y2="164" stroke="black" />
<line x1="250" y1="164" x2="350" y2="164" stroke="black" />
<text x="325" y="156" font-family="Verdana" font-size="8" text-anchor="middle"  dominant-baseline="middle" fill="black" > 149</text>
<circle cx="250" cy="164" r="4" fill="white" stroke="black" />
<line x1="250" y1="168" x2="250" y2="389" stroke="black" />
<line x1="225" y1="389" x2="275" y2="389" stroke="black" />
<text x="262" y="381" font-family="Verdana" font-size="8" text-anchor="middle"  dominant-baseline="middle" fill="black" > 374</text>
<circle cx="225" cy="389" r="4" fill="white" stroke="black" />
<circle cx="275" cy="389" r="4" fill="white" stroke="black" />
<line x1="225" y1="393" x2="225" y2="423" stroke="black" />
<line x1="225" y1="423" x2="250" y2="434" stroke="black" />
<line x1="275" y1="393" x2="275" y2="423" stroke="black" />
<line x1="275" y1="423" x2="250" y2="434" stroke="black" />
<text x="250" y="422" font-family="Verdana" font-size="8" text-anchor="middle"  dominant-baseline="middle" fill="black" > 419</text>
<circle cx="250" cy="434" r="4" fill="white" stroke="black" />
<line x1="250" y1="438" x2="250" y2="633" stroke="black" />
<line x1="246" y1="629" x2="254" y2="637" stroke="red" />
<line x1="246" y1="637" x2="254" y2="629" stroke="red" />
<text x="250" y="645" font-family="Verdana" font-size="8" text-anchor="middle"  dominant-baseline="middle" fill="black" > 618</text>
<circle cx="350" cy="164" r="4" fill="white" stroke="black" />
<line x1="350" y1="168" x2="350" y2="399" stroke="black" />
<line x1="346" y1="395" x2="354" y2="403" stroke="red" />
<line x1="346" y1="403" x2="354" y2="395" stroke="red" />
<text x="350" y="411" font-family="Verdana" font-size="8" text-anchor="middle"  dominant-baseline="middle" fill="black" > 384</text>
<text x="550" y="7" font-family="Verdana" font-size="7" text-anchor="middle"  dominant-baseline="middle" fill="black" > C3</text>
<circle cx="550" cy="15" r="4" fill="white" stroke="black" />
<line x1="550" y1="19" x2="550" y2="340" stroke="black" />
<line x1="450" y1="340" x2="650" y2="340" stroke="black" />
<text x="575" y="332" font-family="Verdana" font-size="8" text-anchor="middle"  dominant-baseline="middle" fill="black" > 325</text>
<circle cx="450" cy="340" r="4" fill="white" stroke="black" />
<line x1="450" y1="344" x2="450" y2="677" stroke="black" />
<line x1="446" y1="673" x2="454" y2="681" stroke="red" />
<line x1="446" y1="681" x2="454" y2="673" stroke="red" />
<text x="450" y="689" font-family="Verdana" font-size="8" text-anchor="middle"  dominant-baseline="middle" fill="black" > 662</text>
<circle cx="550" cy="340" r="4" fill="white" stroke="black" />
<line x1="550" y1="344" x2="550" y2="736" stroke="black" />
<circle cx="550" cy="736" r="4" fill="white" stroke="black" />
<text x="550" y="748" font-family="Verdana" font-size="8" text-anchor="middle"  dominant-baseline="middle" fill="black" > 721</text>
<circle cx="650" cy="340" r="4" fill="white" stroke="black" />
<line x1="650" y1="344" x2="650" y2="478" stroke="black" />
<line x1="625" y1="478" x2="675" y2="478" stroke="black" />
<text x="662" y="470" font-family="Verdana" font-size="8" text-anchor="middle"  dominant-baseline="middle" fill="black" > 463</text>
<circle cx="625" cy="478" r="4" fill="white" stroke="black" />
<line x1="625" y1="482" x2="625" y2="736" stroke="black" />
<circle cx="625" cy="736" r="4" fill="white" stroke="black" />
<text x="625" y="748" font-family="Verdana" font-size="8" text-anchor="middle"  dominant-baseline="middle" fill="black" > 721</text>
<circle cx="675" cy="478" r="4" fill="white" stroke="black" />
<line x1="675" y1="482" x2="675" y2="736" stroke="black" />
<circle cx="675" cy="736" r="4" fill="white" stroke="black" />
<text x="675" y="748" font-family="Verdana" font-size="8" text-anchor="middle"  dominant-baseline="middle" fill="black" > 721</text>
<text x="850" y="7" font-family="Verdana" font-size="7" text-anchor="middle"  dominant-baseline="middle" fill="black" > C4</text>
<circle cx="850" cy="15" r="4" fill="white" stroke="black" />
<line x1="850" y1="19" x2="850" y2="349" stroke="black" />
<line x1="750" y1="349" x2="950" y2="349" stroke="black" />
<text x="875" y="341" font-family="Verdana" font-size="8" text-anchor="middle"  dominant-baseline="middle" fill="black" > 334</text>
<circle cx="750" cy="349" r="4" fill="white" stroke="black" />
<line x1="750" y1="353" x2="750" y2="595" stroke="black" />
<line x1="746" y1="591" x2="754" y2="599" stroke="red" />
<line x1="746" y1="599" x2="754" y2="591" stroke="red" />
<text x="750" y="607" font-family="Verdana" font-size="8" text-anchor="middle"  dominant-baseline="middle" fill="black" > 580</text>
<circle cx="850" cy="349" r="4" fill="white" stroke="black" />
<line x1="850" y1="353" x2="850" y2="639" stroke="black" />
<line x1="846" y1="635" x2="854" y2="643" stroke="red" />
<line x1="846" y1="643" x2="854" y2="635" stroke="red" />
<text x="850" y="651" font-family="Verdana" font-size="8" text-anchor="middle"  dominant-baseline="middle" fill="black" > 624</text>
<circle cx="950" cy="349" r="4" fill="white" stroke="black" />
<line x1="950" y1="353" x2="950" y2="693" stroke="black" />
<line x1="916" y1="693" x2="984" y2="693" stroke="black" />
<text x="958" y="685" font-family="Verdana" font-size="8" text-anchor="middle"  dominant-baseline="middle" fill="black" > 678</text>
<circle cx="916" cy="693" r="4" fill="white" stroke="black" />
<circle cx="949" cy="693" r="4" fill="white" stroke="black" />
<circle cx="982" cy="693" r="4" fill="white" stroke="black" />
<line x1="916" y1="697" x2="916" y2="718" stroke="black" />
<line x1="916" y1="718" x2="949" y2="726" stroke="black" />
<line x1="949" y1="697" x2="949" y2="718" stroke="black" />
<line x1="949" y1="718" x2="949" y2="726" stroke="black" />
<line x1="982" y1="697" x2="982" y2="718" stroke="black" />
<line x1="982" y1="718" x2="949" y2="726" stroke="black" />
<text x="949" y="714" font-family="Verdana" font-size="8" text-anchor="middle"  dominant-baseline="middle" fill="black" > 711</text>
<circle cx="949" cy="726" r="4" fill="white" stroke="black" />
<line x1="949" y1="730" x2="949" y2="736" stroke="black" />
<circle cx="949" cy="736" r="4" fill="white" stroke="black" />
<text x="949" y="748" font-family="Verdana" font-size="8" text-anchor="middle"  dominant-baseline="middle" fill="black" > 721</text>
<text x="1100" y="7" font-family="Verdana" font-size="7" text-anchor="middle"  dominant-baseline="middle" fill="black" > C5</text>
<circle cx="1100" cy="15" r="4" fill="white" stroke="black" />
<line x1="1100" y1="19" x2="1100" y2="150" stroke="black" />
<line x1="1050" y1="150" x2="1150" y2="150" stroke="black" />
<text x="1125" y="142" font-family="Verdana" font-size="8" text-anchor="middle"  dominant-baseline="middle" fill="black" > 135</text>
<circle cx="1050" cy="150" r="4" fill="white" stroke="black" />
<line x1="1050" y1="154" x2="1050" y2="217" stroke="black" />
<line x1="1046" y1="213" x2="1054" y2="221" stroke="red" />
<line x1="1046" y1="221" x2="1054" y2="213" stroke="red" />
<text x="1050" y="229" font-family="Verdana" font-size="8" text-anchor="middle"  dominant-baseline="middle" fill="black" > 202</text>
<circle cx="1150" cy="150" r="4" fill="white" stroke="black" />
<line x1="1150" y1="154" x2="1150" y2="394" stroke="black" />
<line x1="1116" y1="394" x2="1184" y2="394" stroke="black" />
<text x="1158" y="386" font-family="Verdana" font-size="8" text-anchor="middle"  dominant-baseline="middle" fill="black" > 379</text>
<circle cx="1116" cy="394" r="4" fill="white" stroke="black" />
<circle cx="1149" cy="394" r="4" fill="white" stroke="black" />
<line x1="1116" y1="398" x2="1116" y2="412" stroke="black" />
<line x1="1116" y1="412" x2="1132" y2="417" stroke="black" />
<line x1="1149" y1="398" x2="1149" y2="412" stroke="black" />
<line x1="1149" y1="412" x2="1132" y2="417" stroke="black" />
<text x="1132" y="405" font-family="Verdana" font-size="8" text-anchor="middle"  dominant-baseline="middle" fill="black" > 402</text>
<circle cx="1132" cy="417" r="4" fill="white" stroke="black" />
<circle cx="1182" cy="394" r="4" fill="white" stroke="black" />
<line x1="1132" y1="421" x2="1132" y2="423" stroke="black" />
<line x1="1132" y1="423" x2="1157" y2="424" stroke="black" />
<line x1="1182" y1="398" x2="1182" y2="423" stroke="black" />
<line x1="1182" y1="423" x2="1157" y2="424" stroke="black" />
<text x="1157" y="412" font-family="Verdana" font-size="8" text-anchor="middle"  dominant-baseline="middle" fill="black" > 409</text>
<circle cx="1157" cy="424" r="4" fill="white" stroke="black" />
<line x1="1157" y1="428" x2="1157" y2="490" stroke="black" />
<line x1="1153" y1="486" x2="1161" y2="494" stroke="red" />
<line x1="1153" y1="494" x2="1161" y2="486" stroke="red" />
<text x="1157" y="502" font-family="Verdana" font-size="8" text-anchor="middle"  dominant-baseline="middle" fill="black" > 475</text>
<text x="1300" y="7" font-family="Verdana" font-size="7" text-anchor="middle"  dominant-baseline="middle" fill="black" > C6</text>
<circle cx="1300" cy="15" r="4" fill="white" stroke="black" />
<line x1="1300" y1="19" x2="1300" y2="196" stroke="black" />
<line x1="1250" y1="196" x2="1350" y2="196" stroke="black" />
<text x="1325" y="188" font-family="Verdana" font-size="8" text-anchor="middle"  dominant-baseline="middle" fill="black" > 181</text>
<circle cx="1250" cy="196" r="4" fill="white" stroke="black" />
<line x1="1250" y1="200" x2="1250" y2="483" stroke="black" />
<line x1="1246" y1="479" x2="1254" y2="487" stroke="red" />
<line x1="1246" y1="487" x2="1254" y2="479" stroke="red" />
<text x="1250" y="495" font-family="Verdana" font-size="8" text-anchor="middle"  dominant-baseline="middle" fill="black" > 468</text>
<circle cx="1350" cy="196" r="4" fill="white" stroke="black" />
<line x1="1350" y1="200" x2="1350" y2="475" stroke="black" />
<line x1="1325" y1="475" x2="1375" y2="475" stroke="black" />
<text x="1362" y="467" font-family="Verdana" font-size="8" text-anchor="middle"  dominant-baseline="middle" fill="black" > 460</text>
<circle cx="1325" cy="475" r="4" fill="white" stroke="black" />
<line x1="1325" y1="479" x2="1325" y2="705" stroke="black" />
<line x1="1312" y1="705" x2="1338" y2="705" stroke="black" />
<text x="1331" y="697" font-family="Verdana" font-size="8" text-anchor="middle"  dominant-baseline="middle" fill="black" > 690</text>
<circle cx="1312" cy="705" r="4" fill="white" stroke="black" />
<line x1="1312" y1="709" x2="1312" y2="736" stroke="black" />
<circle cx="1312" cy="736" r="4" fill="white" stroke="black" />
<text x="1312" y="748" font-family="Verdana" font-size="8" text-anchor="middle"  dominant-baseline="middle" fill="black" > 721</text>
<circle cx="1337" cy="705" r="4" fill="white" stroke="black" />
<line x1="1337" y1="709" x2="1337" y2="736" stroke="black" />
<circle cx="1337" cy="736" r="4" fill="white" stroke="black" />
<text x="1337" y="748" font-family="Verdana" font-size="8" text-anchor="middle"  dominant-baseline="middle" fill="black" > 721</text>
<circle cx="1375" cy="475" r="4" fill="white" stroke="black" />
<line x1="1375" y1="479" x2="1375" y2="655" stroke="black" />
<line x1="1362" y1="655" x2="1388" y2="655" stroke="black" />
<text x="1381" y="647" font-family="Verdana" font-size="8" text-anchor="middle"  dominant-baseline="middle" fill="black" > 640</text>
<circle cx="1362" cy="655" r="4" fill="white" stroke="black" />
<line x1="1362" y1="659" x2="1362" y2="736" stroke="black" />
<circle cx="1362" cy="736" r="4" fill="white" stroke="black" />
<text x="1362" y="748" font-family="Verdana" font-size="8" text-anchor="middle"  dominant-baseline="middle" fill="black" > 721</text>
<circle cx="1387" cy="655" r="4" fill="white" stroke="black" />
<line x1="1387" y1="659" x2="1387" y2="736" stroke="black" />
<circle cx="1387" cy="736" r="4" fill="white" stroke="black" />
<text x="1387" y="748" font-family="Verdana" font-size="8" text-anchor="middle"  dominant-baseline="middle" fill="black" > 721</text>
<text x="1500" y="7" font-family="Verdana" font-size="7" text-anchor="middle"  dominant-baseline="middle" fill="black" > C7</text>
<circle cx="1500" cy="15" r="4" fill="white" stroke="black" />
<line x1="1500" y1="19" x2="1500" y2="250" stroke="black" />
<line x1="1450" y1="250" x2="1550" y2="250" stroke="black" />
<text x="1525" y="242" font-family="Verdana" font-size="8" text-anchor="middle"  dominant-baseline="middle" fill="black" > 235</text>
<circle cx="1450" cy="250" r="4" fill="white" stroke="black" />
<circle cx="1550" cy="250" r="4" fill="white" stroke="black" />
<line x1="1450" y1="254" x2="1450" y2="274" stroke="black" />
<line x1="1450" y1="274" x2="1500" y2="281" stroke="black" />
<line x1="1550" y1="254" x2="1550" y2="274" stroke="black" />
<line x1="1550" y1="274" x2="1500" y2="281" stroke="black" />
<text x="1500" y="269" font-family="Verdana" font-size="8" text-anchor="middle"  dominant-baseline="middle" fill="black" > 266</text>
<circle cx="1500" cy="281" r="4" fill="white" stroke="black" />
<line x1="1500" y1="285" x2="1500" y2="365" stroke="black" />
<line x1="1496" y1="361" x2="1504" y2="369" stroke="red" />
<line x1="1496" y1="369" x2="1504" y2="361" stroke="red" />
<text x="1500" y="377" font-family="Verdana" font-size="8" text-anchor="middle"  dominant-baseline="middle" fill="black" > 350</text>
<text x="1700" y="7" font-family="Verdana" font-size="7" text-anchor="middle"  dominant-baseline="middle" fill="black" > C8</text>
<circle cx="1700" cy="15" r="4" fill="white" stroke="black" />
<line x1="1700" y1="19" x2="1700" y2="178" stroke="black" />
<line x1="1650" y1="178" x2="1750" y2="178" stroke="black" />
<text x="1725" y="170" font-family="Verdana" font-size="8" text-anchor="middle"  dominant-baseline="middle" fill="black" > 163</text>
<circle cx="1650" cy="178" r="4" fill="white" stroke="black" />
<line x1="1650" y1="182" x2="1650" y2="398" stroke="black" />
<line x1="1625" y1="398" x2="1675" y2="398" stroke="black" />
<text x="1662" y="390" font-family="Verdana" font-size="8" text-anchor="middle"  dominant-baseline="middle" fill="black" > 383</text>
<circle cx="1625" cy="398" r="4" fill="white" stroke="black" />
<line x1="1625" y1="402" x2="1625" y2="463" stroke="black" />
<line x1="1621" y1="459" x2="1629" y2="467" stroke="red" />
<line x1="1621" y1="467" x2="1629" y2="459" stroke="red" />
<text x="1625" y="475" font-family="Verdana" font-size="8" text-anchor="middle"  dominant-baseline="middle" fill="black" > 448</text>
<circle cx="1675" cy="398" r="4" fill="white" stroke="black" />
<line x1="1675" y1="402" x2="1675" y2="736" stroke="black" />
<circle cx="1675" cy="736" r="4" fill="white" stroke="black" />
<text x="1675" y="748" font-family="Verdana" font-size="8" text-anchor="middle"  dominant-baseline="middle" fill="black" > 721</text>
<circle cx="1750" cy="178" r="4" fill="white" stroke="black" />
<line x1="1750" y1="182" x2="1750" y2="393" stroke="black" />
<line x1="1725" y1="393" x2="1775" y2="393" stroke="black" />
<text x="1762" y="385" font-family="Verdana" font-size="8" text-anchor="middle"  dominant-baseline="middle" fill="black" > 378</text>
<circle cx="1725" cy="393" r="4" fill="white" stroke="black" />
<circle cx="1775" cy="393" r="4" fill="white" stroke="black" />
<line x1="1725" y1="397" x2="1725" y2="516" stroke="black" />
<line x1="1725" y1="516" x2="1750" y2="557" stroke="black" />
<line x1="1775" y1="397" x2="1775" y2="516" stroke="black" />
<line x1="1775" y1="516" x2="1750" y2="557" stroke="black" />
<text x="1750" y="545" font-family="Verdana" font-size="8" text-anchor="middle"  dominant-baseline="middle" fill="black" > 542</text>
<circle cx="1750" cy="557" r="4" fill="white" stroke="black" />
<line x1="1750" y1="561" x2="1750" y2="579" stroke="black" />
<line x1="1746" y1="575" x2="1754" y2="583" stroke="red" />
<line x1="1746" y1="583" x2="1754" y2="575" stroke="red" />
<text x="1750" y="591" font-family="Verdana" font-size="8" text-anchor="middle"  dominant-baseline="middle" fill="black" > 564</text>
<text x="1900" y="7" font-family="Verdana" font-size="7" text-anchor="middle"  dominant-baseline="middle" fill="black" > C9</text>
<circle cx="1900" cy="15" r="4" fill="white" stroke="black" />
<line x1="1900" y1="19" x2="1900" y2="153" stroke="black" />
<line x1="1850" y1="153" x2="1950" y2="153" stroke="black" />
<text x="1925" y="145" font-family="Verdana" font-size="8" text-anchor="middle"  dominant-baseline="middle" fill="black" > 138</text>
<circle cx="1850" cy="153" r="4" fill="white" stroke="black" />
<line x1="1850" y1="157" x2="1850" y2="384" stroke="black" />
<line x1="1825" y1="384" x2="1875" y2="384" stroke="black" />
<text x="1862" y="376" font-family="Verdana" font-size="8" text-anchor="middle"  dominant-baseline="middle" fill="black" > 369</text>
<circle cx="1825" cy="384" r="4" fill="white" stroke="black" />
<line x1="1825" y1="388" x2="1825" y2="530" stroke="black" />
<line x1="1812" y1="530" x2="1838" y2="530" stroke="black" />
<text x="1831" y="522" font-family="Verdana" font-size="8" text-anchor="middle"  dominant-baseline="middle" fill="black" > 515</text>
<circle cx="1812" cy="530" r="4" fill="white" stroke="black" />
<line x1="1812" y1="534" x2="1812" y2="736" stroke="black" />
<circle cx="1812" cy="736" r="4" fill="white" stroke="black" />
<text x="1812" y="748" font-family="Verdana" font-size="8" text-anchor="middle"  dominant-baseline="middle" fill="black" > 721</text>
<circle cx="1837" cy="530" r="4" fill="white" stroke="black" />
<line x1="1837" y1="534" x2="1837" y2="736" stroke="black" />
<circle cx="1837" cy="736" r="4" fill="white" stroke="black" />
<text x="1837" y="748" font-family="Verdana" font-size="8" text-anchor="middle"  dominant-baseline="middle" fill="black" > 721</text>
<circle cx="1875" cy="384" r="4" fill="white" stroke="black" />
<line x1="1875" y1="388" x2="1875" y2="537" stroke="black" />
<line x1="1862" y1="537" x2="1888" y2="537" stroke="black" />
<text x="1881" y="529" font-family="Verdana" font-size="8" text-anchor="middle"  dominant-baseline="middle" fill="black" > 522</text>
<circle cx="1862" cy="537" r="4" fill="white" stroke="black" />
<line x1="1862" y1="541" x2="1862" y2="736" stroke="black" />
<circle cx="1862" cy="736" r="4" fill="white" stroke="black" />
<text x="1862" y="748" font-family="Verdana" font-size="8" text-anchor="middle"  dominant-baseline="middle" fill="black" > 721</text>
<circle cx="1887" cy="537" r="4" fill="white" stroke="black" />
<line x1="1887" y1="541" x2="1887" y2="736" stroke="black" />
<circle cx="1887" cy="736" r="4" fill="white" stroke="black" />
<text x="1887" y="748" font-family="Verdana" font-size="8" text-anchor="middle"  dominant-baseline="middle" fill="black" > 721</text>
<circle cx="1950" cy="153" r="4" fill="white" stroke="black" />
<line x1="1950" y1="157" x2="1950" y2="350" stroke="black" />
<line x1="1925" y1="350" x2="1975" y2="350" stroke="black" />
<text x="1962" y="342" font-family="Verdana" font-size="8" text-anchor="middle"  dominant-baseline="middle" fill="black" > 335</text>
<circle cx="1925" cy="350" r="4" fill="white" stroke="black" />
<line x1="1925" y1="354" x2="1925" y2="454" stroke="black" />
<line x1="1921" y1="450" x2="1929" y2="458" stroke="red" />
<line x1="1921" y1="458" x2="1929" y2="450" stroke="red" />
<text x="1925" y="466" font-family="Verdana" font-size="8" text-anchor="middle"  dominant-baseline="middle" fill="black" > 439</text>
<circle cx="1975" cy="350" r="4" fill="white" stroke="black" />
<line x1="1975" y1="354" x2="1975" y2="497" stroke="black" />
<line x1="1962" y1="497" x2="1988" y2="497" stroke="black" />
<text x="1981" y="489" font-family="Verdana" font-size="8" text-anchor="middle"  dominant-baseline="middle" fill="black" > 482</text>
<circle cx="1962" cy="497" r="4" fill="white" stroke="black" />
<line x1="1962" y1="501" x2="1962" y2="736" stroke="black" />
<circle cx="1962" cy="736" r="4" fill="white" stroke="black" />
<text x="1962" y="748" font-family="Verdana" font-size="8" text-anchor="middle"  dominant-baseline="middle" fill="black" > 721</text>
<circle cx="1987" cy="497" r="4" fill="white" stroke="black" />
<line x1="1987" y1="501" x2="1987" y2="618" stroke="black" />
<line x1="1983" y1="614" x2="1991" y2="622" stroke="red" />
<line x1="1983" y1="622" x2="1991" y2="614" stroke="red" />
<text x="1987" y="630" font-family="Verdana" font-size="8" text-anchor="middle"  dominant-baseline="middle" fill="black" > 603</text>
</svg>
