<?xml version="1.0" encoding="utf-8"?>
<svg xmlns="http://www.w3.org/2000/svg" version="1.1" width="1450" height="750">
<rect width="1450" height="15" x="0" y="0" fill="white" />
<rect width="1450" height="15" x="0" y="735" fill="white" />
<rect width="25" height="750" x="0" y="0" fill="white" />
<rect width="25" height="750" x="1425" y="0" fill="white" />
<rect width="1410" height="144" x="25" y="15" fill="ghostwhite" />
<rect width="1410" height="144" x="25" y="159" fill="snow" />
<rect width="1410" height="144" x="25" y="303" fill="ghostwhite" />
<rect width="1410" height="144" x="25" y="447" fill="snow" />
<rect width="1410" height="144" x="25" y="591" fill="ghostwhite" />
<text x="12" y="87" font-family="Verdana" font-size="10" text-anchor="middle"  dominant-baseline="middle" fill="red" > D0</text>
<text x="12" y="231" font-family="Verdana" font-size="10" text-anchor="middle"  dominant-baseline="middle" fill="red" > D1</text>
<text x="12" y="375" font-family="Verdana" font-size="10" text-anchor="middle"  dominant-baseline="middle" fill="red" > D2</text>
<text x="12" y="519" font-family="Verdana" font-size="10" text-anchor="middle"  dominant-baseline="middle" fill="red" > D3</text>
<text x="12" y="663" font-family="Verdana" font-size="10" text-anchor="middle"  dominant-baseline="middle" fill="red" > D4</text>
<text x="12" y="20" font-family="Verdana" font-size="10" text-anchor="middle"  dominant-baseline="middle" fill="black" > 0</text>
<text x="12" y="164" font-family="Verdana" font-size="10" text-anchor="middle"  dominant-baseline="middle" fill="black" > 144</text>
<text x="12" y="308" font-family="Verdana" font-size="10" text-anchor="middle"  dominant-baseline="middle" fill="black" > 288</text>
<text x="12" y="452" font-family="Verdana" font-size="10" text-anchor="middle"  dominant-baseline="middle" fill="black" > 432</text>
<text x="12" y="596" font-family="Verdana" font-size="10" text-anchor="middle"  dominant-baseline="middle" fill="black" > 576</text>
<text x="12" y="740" font-family="Verdana" font-size="10" text-anchor="middle"  dominant-baseline="middle" fill="black" > 720</text>
<text x="100" y="7" font-family="Verdana" font-size="7" text-anchor="middle"  dominant-baseline="middle" fill="black" > C1</text>
<circle cx="100" cy="15" r="4" fill="white" stroke="black" />
<line x1="100" y1="19" x2="100" y2="273" stroke="black" />
<line x1="50" y1="273" x2="150" y2="273" stroke="black" />
<text x="125" y="265" font-family="Verdana" font-size="8" text-anchor="middle"  dominant-baseline="middle" fill="black" > 258</text>
<circle cx="50" cy="273" r="4" fill="white" stroke="black" />
<line x1="50" y1="277" x2="50" y2="567" stroke="black" />
<line x1="25" y1="567" x2="75" y2="567" stroke="black" />
<text x="62" y="559" font-family="Verdana" font-size="8" text-anchor="middle"  dominant-baseline="middle" fill="black" > 552</text>
<circle cx="25" cy="567" r="4" fill="white" stroke="black" />
<line x1="25" y1="571" x2="25" y2="736" stroke="black" />
<circle cx="25" cy="736" r="4" fill="white" stroke="black" />
<text x="25" y="748" font-family="Verdana" font-size="8" text-anchor="middle"  dominant-baseline="middle" fill="black" > 721</text>
<circle cx="75" cy="567" r="4" fill="white" stroke="black" />
<line x1="75" y1="571" x2="75" y2="736" stroke="black" />
<circle cx="75" cy="736" r="4" fill="white" stroke="black" />
<text x="75" y="748" font-family="Verdana" font-size="8" text-anchor="middle"  dominant-baseline="middle" fill="black" > 721</text>
<circle cx="150" cy="273" r="4" fill="white" stroke="black" />
<line x1="150" y1="277" x2="150" y2="447" stroke="black" />
<line x1="125" y1="447" x2="175" y2="447" stroke="black" />
<text x="162" y="439" font-family="Verdana" font-size="8" text-anchor="middle"  dominant-baseline="middle" fill="black" > 432</text>
<circle cx="125" cy="447" r="4" fill="white" stroke="black" />
<line x1="125" y1="451" x2="125" y2="736" stroke="black" />
<circle cx="125" cy="736" r="4" fill="white" stroke="black" />
<text x="125" y="748" font-family="Verdana" font-size="8" text-anchor="middle"  dominant-baseline="middle" fill="black" > 721</text>
<circle cx="175" cy="447" r="4" fill="white" stroke="black" />
<line x1="175" y1="451" x2="175" y2="736" stroke="black" />
<circle cx="175" cy="736" r="4" fill="white" stroke="black" />
<text x="175" y="748" font-family="Verdana" font-size="8" text-anchor="middle"  dominant-baseline="middle" fill="black" > 721</text>
<text x="300" y="7" font-family="Verdana" font-size="7" text-anchor="middle"  dominant-baseline="middle" fill="black" > C2</text>
<circle cx="300" cy="15" r="4" fill="white" stroke="black" />
<line x1="300" y1="19" x2="300" y2="277" stroke="black" />
<line x1="250" y1="277" x2="350" y2="277" stroke="black" />
<text x="325" y="269" font-family="Verdana" font-size="8" text-anchor="middle"  dominant-baseline="middle" fill="black" > 262</text>
<circle cx="250" cy="277" r="4" fill="white" stroke="black" />
<line x1="250" y1="281" x2="250" y2="621" stroke="black" />
<line x1="225" y1="621" x2="275" y2="621" stroke="black" />
<text x="262" y="613" font-family="Verdana" font-size="8" text-anchor="middle"  dominant-baseline="middle" fill="black" > 606</text>
<circle cx="225" cy="621" r="4" fill="white" stroke="black" />
<line x1="225" y1="625" x2="225" y2="629" stroke="black" />
<line x1="221" y1="625" x2="229" y2="633" stroke="red" />
<line x1="221" y1="633" x2="229" y2="625" stroke="red" />
<text x="225" y="641" font-family="Verdana" font-size="8" text-anchor="middle"  dominant-baseline="middle" fill="black" > 614</text>
<circle cx="275" cy="621" r="4" fill="white" stroke="black" />
<line x1="275" y1="625" x2="275" y2="629" stroke="black" />
<line x1="271" y1="625" x2="279" y2="633" stroke="red" />
<line x1="271" y1="633" x2="279" y2="625" stroke="red" />
<text x="275" y="641" font-family="Verdana" font-size="8" text-anchor="middle"  dominant-baseline="middle" fill="black" > 614</text>
<circle cx="350" cy="277" r="4" fill="white" stroke="black" />
<line x1="350" y1="281" x2="350" y2="624" stroke="black" />
<line x1="346" y1="620" x2="354" y2="628" stroke="red" />
<line x1="346" y1="628" x2="354" y2="620" stroke="red" />
<text x="350" y="636" font-family="Verdana" font-size="8" text-anchor="middle"  dominant-baseline="middle" fill="black" > 609</text>
<text x="500" y="7" font-family="Verdana" font-size="7" text-anchor="middle"  dominant-baseline="middle" fill="black" > C3</text>
<circle cx="500" cy="15" r="4" fill="white" stroke="black" />
<line x1="500" y1="19" x2="500" y2="145" stroke="black" />
<line x1="450" y1="145" x2="550" y2="145" stroke="black" />
<text x="525" y="137" font-family="Verdana" font-size="8" text-anchor="middle"  dominant-baseline="middle" fill="black" > 130</text>
<circle cx="450" cy="145" r="4" fill="white" stroke="black" />
<line x1="450" y1="149" x2="450" y2="331" stroke="black" />
<line x1="425" y1="331" x2="475" y2="331" stroke="black" />
<text x="462" y="323" font-family="Verdana" font-size="8" text-anchor="middle"  dominant-baseline="middle" fill="black" > 316</text>
<circle cx="425" cy="331" r="4" fill="white" stroke="black" />
<line x1="425" y1="335" x2="425" y2="332" stroke="black" />
<line x1="421" y1="328" x2="429" y2="336" stroke="red" />
<line x1="421" y1="336" x2="429" y2="328" stroke="red" />
<text x="425" y="344" font-family="Verdana" font-size="8" text-anchor="middle"  dominant-baseline="middle" fill="black" > 317</text>
<circle cx="475" cy="331" r="4" fill="white" stroke="black" />
<line x1="475" y1="335" x2="475" y2="332" stroke="black" />
<line x1="471" y1="328" x2="479" y2="336" stroke="red" />
<line x1="471" y1="336" x2="479" y2="328" stroke="red" />
<text x="475" y="344" font-family="Verdana" font-size="8" text-anchor="middle"  dominant-baseline="middle" fill="black" > 317</text>
<circle cx="550" cy="145" r="4" fill="white" stroke="black" />
<line x1="550" y1="149" x2="550" y2="222" stroke="black" />
<line x1="546" y1="218" x2="554" y2="226" stroke="red" />
<line x1="546" y1="226" x2="554" y2="218" stroke="red" />
<text x="550" y="234" font-family="Verdana" font-size="8" text-anchor="middle"  dominant-baseline="middle" fill="black" > 207</text>
<text x="700" y="7" font-family="Verdana" font-size="7" text-anchor="middle"  dominant-baseline="middle" fill="black" > C4</text>
<circle cx="700" cy="15" r="4" fill="white" stroke="black" />
<line x1="700" y1="19" x2="700" y2="194" stroke="black" />
<line x1="650" y1="194" x2="750" y2="194" stroke="black" />
<text x="725" y="186" font-family="Verdana" font-size="8" text-anchor="middle"  dominant-baseline="middle" fill="black" > 179</text>
<circle cx="650" cy="194" r="4" fill="white" stroke="black" />
<line x1="650" y1="198" x2="650" y2="354" stroke="black" />
<line x1="625" y1="354" x2="675" y2="354" stroke="black" />
<text x="662" y="346" font-family="Verdana" font-size="8" text-anchor="middle"  dominant-baseline="middle" fill="black" > 339</text>
<circle cx="625" cy="354" r="4" fill="white" stroke="black" />
<line x1="625" y1="358" x2="625" y2="517" stroke="black" />
<line x1="612" y1="517" x2="638" y2="517" stroke="black" />
<text x="631" y="509" font-family="Verdana" font-size="8" text-anchor="middle"  dominant-baseline="middle" fill="black" > 502</text>
<circle cx="612" cy="517" r="4" fill="white" stroke="black" />
<line x1="612" y1="521" x2="612" y2="736" stroke="black" />
<circle cx="612" cy="736" r="4" fill="white" stroke="black" />
<text x="612" y="748" font-family="Verdana" font-size="8" text-anchor="middle"  dominant-baseline="middle" fill="black" > 721</text>
<circle cx="637" cy="517" r="4" fill="white" stroke="black" />
<line x1="637" y1="521" x2="637" y2="736" stroke="black" />
<circle cx="637" cy="736" r="4" fill="white" stroke="black" />
<text x="637" y="748" font-family="Verdana" font-size="8" text-anchor="middle"  dominant-baseline="middle" fill="black" > 721</text>
<circle cx="675" cy="354" r="4" fill="white" stroke="black" />
<line x1="675" y1="358" x2="675" y2="514" stroke="black" />
<line x1="662" y1="514" x2="688" y2="514" stroke="black" />
<text x="681" y="506" font-family="Verdana" font-size="8" text-anchor="middle"  dominant-baseline="middle" fill="black" > 499</text>
<circle cx="662" cy="514" r="4" fill="white" stroke="black" />
<line x1="662" y1="518" x2="662" y2="736" stroke="black" />
<circle cx="662" cy="736" r="4" fill="white" stroke="black" />
<text x="662" y="748" font-family="Verdana" font-size="8" text-anchor="middle"  dominant-baseline="middle" fill="black" > 721</text>
<circle cx="687" cy="514" r="4" fill="white" stroke="black" />
<line x1="687" y1="518" x2="687" y2="736" stroke="black" />
<circle cx="687" cy="736" r="4" fill="white" stroke="black" />
<text x="687" y="748" font-family="Verdana" font-size="8" text-anchor="middle"  dominant-baseline="middle" fill="black" > 721</text>
<circle cx="750" cy="194" r="4" fill="white" stroke="black" />
<line x1="750" y1="198" x2="750" y2="339" stroke="black" />
<line x1="746" y1="335" x2="754" y2="343" stroke="red" />
<line x1="746" y1="343" x2="754" y2="335" stroke="red" />
<text x="750" y="351" font-family="Verdana" font-size="8" text-anchor="middle"  dominant-baseline="middle" fill="black" > 324</text>
<text x="900" y="7" font-family="Verdana" font-size="7" text-anchor="middle"  dominant-baseline="middle" fill="black" > C5</text>
<circle cx="900" cy="15" r="4" fill="white" stroke="black" />
<line x1="900" y1="19" x2="900" y2="167" stroke="black" />
<line x1="850" y1="167" x2="950" y2="167" stroke="black" />
<text x="925" y="159" font-family="Verdana" font-size="8" text-anchor="middle"  dominant-baseline="middle" fill="black" > 152</text>
<circle cx="850" cy="167" r="4" fill="white" stroke="black" />
<line x1="850" y1="171" x2="850" y2="339" stroke="black" />
<line x1="825" y1="339" x2="875" y2="339" stroke="black" />
<text x="862" y="331" font-family="Verdana" font-size="8" text-anchor="middle"  dominant-baseline="middle" fill="black" > 324</text>
<circle cx="825" cy="339" r="4" fill="white" stroke="black" />
<line x1="825" y1="343" x2="825" y2="478" stroke="black" />
<line x1="812" y1="478" x2="838" y2="478" stroke="black" />
<text x="831" y="470" font-family="Verdana" font-size="8" text-anchor="middle"  dominant-baseline="middle" fill="black" > 463</text>
<circle cx="812" cy="478" r="4" fill="white" stroke="black" />
<line x1="812" y1="482" x2="812" y2="736" stroke="black" />
<circle cx="812" cy="736" r="4" fill="white" stroke="black" />
<text x="812" y="748" font-family="Verdana" font-size="8" text-anchor="middle"  dominant-baseline="middle" fill="black" > 721</text>
<circle cx="837" cy="478" r="4" fill="white" stroke="black" />
<line x1="837" y1="482" x2="837" y2="736" stroke="black" />
<circle cx="837" cy="736" r="4" fill="white" stroke="black" />
<text x="837" y="748" font-family="Verdana" font-size="8" text-anchor="middle"  dominant-baseline="middle" fill="black" > 721</text>
<circle cx="875" cy="339" r="4" fill="white" stroke="black" />
<line x1="875" y1="343" x2="875" y2="495" stroke="black" />
<line x1="862" y1="495" x2="888" y2="495" stroke="black" />
<text x="881" y="487" font-family="Verdana" font-size="8" text-anchor="middle"  dominant-baseline="middle" fill="black" > 480</text>
<circle cx="862" cy="495" r="4" fill="white" stroke="black" />
<line x1="862" y1="499" x2="862" y2="705" stroke="black" />
<line x1="856" y1="705" x2="869" y2="705" stroke="black" />
<text x="865" y="697" font-family="Verdana" font-size="8" text-anchor="middle"  dominant-baseline="middle" fill="black" > 690</text>
<circle cx="856" cy="705" r="4" fill="white" stroke="black" />
<line x1="856" y1="709" x2="856" y2="736" stroke="black" />
<circle cx="856" cy="736" r="4" fill="white" stroke="black" />
<text x="856" y="748" font-family="Verdana" font-size="8" text-anchor="middle"  dominant-baseline="middle" fill="black" > 721</text>
<circle cx="868" cy="705" r="4" fill="white" stroke="black" />
<line x1="868" y1="709" x2="868" y2="736" stroke="black" />
<circle cx="868" cy="736" r="4" fill="white" stroke="black" />
<text x="868" y="748" font-family="Verdana" font-size="8" text-anchor="middle"  dominant-baseline="middle" fill="black" > 721</text>
<circle cx="887" cy="495" r="4" fill="white" stroke="black" />
<line x1="887" y1="499" x2="887" y2="700" stroke="black" />
<line x1="881" y1="700" x2="894" y2="700" stroke="black" />
<text x="890" y="692" font-family="Verdana" font-size="8" text-anchor="middle"  dominant-baseline="middle" fill="black" > 685</text>
<circle cx="881" cy="700" r="4" fill="white" stroke="black" />
<line x1="881" y1="704" x2="881" y2="736" stroke="black" />
<circle cx="881" cy="736" r="4" fill="white" stroke="black" />
<text x="881" y="748" font-family="Verdana" font-size="8" text-anchor="middle"  dominant-baseline="middle" fill="black" > 721</text>
<circle cx="893" cy="700" r="4" fill="white" stroke="black" />
<line x1="893" y1="704" x2="893" y2="736" stroke="black" />
<circle cx="893" cy="736" r="4" fill="white" stroke="black" />
<text x="893" y="748" font-family="Verdana" font-size="8" text-anchor="middle"  dominant-baseline="middle" fill="black" > 721</text>
<circle cx="950" cy="167" r="4" fill="white" stroke="black" />
<line x1="950" y1="171" x2="950" y2="320" stroke="black" />
<line x1="925" y1="320" x2="975" y2="320" stroke="black" />
<text x="962" y="312" font-family="Verdana" font-size="8" text-anchor="middle"  dominant-baseline="middle" fill="black" > 305</text>
<circle cx="925" cy="320" r="4" fill="white" stroke="black" />
<line x1="925" y1="324" x2="925" y2="453" stroke="black" />
<line x1="912" y1="453" x2="938" y2="453" stroke="black" />
<text x="931" y="445" font-family="Verdana" font-size="8" text-anchor="middle"  dominant-baseline="middle" fill="black" > 438</text>
<circle cx="912" cy="453" r="4" fill="white" stroke="black" />
<line x1="912" y1="457" x2="912" y2="736" stroke="black" />
<circle cx="912" cy="736" r="4" fill="white" stroke="black" />
<text x="912" y="748" font-family="Verdana" font-size="8" text-anchor="middle"  dominant-baseline="middle" fill="black" > 721</text>
<circle cx="937" cy="453" r="4" fill="white" stroke="black" />
<line x1="937" y1="457" x2="937" y2="736" stroke="black" />
<circle cx="937" cy="736" r="4" fill="white" stroke="black" />
<text x="937" y="748" font-family="Verdana" font-size="8" text-anchor="middle"  dominant-baseline="middle" fill="black" > 721</text>
<circle cx="975" cy="320" r="4" fill="white" stroke="black" />
<line x1="975" y1="324" x2="975" y2="443" stroke="black" />
<line x1="962" y1="443" x2="988" y2="443" stroke="black" />
<text x="981" y="435" font-family="Verdana" font-size="8" text-anchor="middle"  dominant-baseline="middle" fill="black" > 428</text>
<circle cx="962" cy="443" r="4" fill="white" stroke="black" />
<line x1="962" y1="447" x2="962" y2="736" stroke="black" />
<circle cx="962" cy="736" r="4" fill="white" stroke="black" />
<text x="962" y="748" font-family="Verdana" font-size="8" text-anchor="middle"  dominant-baseline="middle" fill="black" > 721</text>
<circle cx="987" cy="443" r="4" fill="white" stroke="black" />
<line x1="987" y1="447" x2="987" y2="681" stroke="black" />
<line x1="978" y1="681" x2="997" y2="681" stroke="black" />
<text x="988" y="673" font-family="Verdana" font-size="8" text-anchor="middle"  dominant-baseline="middle" fill="black" > 666</text>
<circle cx="978" cy="681" r="4" fill="white" stroke="black" />
<line x1="978" y1="685" x2="978" y2="736" stroke="black" />
<circle cx="978" cy="736" r="4" fill="white" stroke="black" />
<text x="978" y="748" font-family="Verdana" font-size="8" text-anchor="middle"  dominant-baseline="middle" fill="black" > 721</text>
<circle cx="984" cy="681" r="4" fill="white" stroke="black" />
<line x1="984" y1="685" x2="984" y2="736" stroke="black" />
<circle cx="984" cy="736" r="4" fill="white" stroke="black" />
<text x="984" y="748" font-family="Verdana" font-size="8" text-anchor="middle"  dominant-baseline="middle" fill="black" > 721</text>
<circle cx="990" cy="681" r="4" fill="white" stroke="black" />
<circle cx="996" cy="681" r="4" fill="white" stroke="black" />
<line x1="990" y1="685" x2="990" y2="687" stroke="black" />
<line x1="990" y1="687" x2="993" y2="688" stroke="black" />
<line x1="996" y1="685" x2="996" y2="687" stroke="black" />
<line x1="996" y1="687" x2="993" y2="688" stroke="black" />
<text x="993" y="676" font-family="Verdana" font-size="8" text-anchor="middle"  dominant-baseline="middle" fill="black" > 673</text>
<circle cx="993" cy="688" r="4" fill="white" stroke="black" />
<line x1="993" y1="692" x2="993" y2="736" stroke="black" />
<circle cx="993" cy="736" r="4" fill="white" stroke="black" />
<text x="993" y="748" font-family="Verdana" font-size="8" text-anchor="middle"  dominant-baseline="middle" fill="black" > 721</text>
<text x="1100" y="7" font-family="Verdana" font-size="7" text-anchor="middle"  dominant-baseline="middle" fill="black" > C6</text>
<circle cx="1100" cy="15" r="4" fill="white" stroke="black" />
<line x1="1100" y1="19" x2="1100" y2="199" stroke="black" />
<line x1="1050" y1="199" x2="1150" y2="199" stroke="black" />
<text x="1125" y="191" font-family="Verdana" font-size="8" text-anchor="middle"  dominant-baseline="middle" fill="black" > 184</text>
<circle cx="1050" cy="199" r="4" fill="white" stroke="black" />
<line x1="1050" y1="203" x2="1050" y2="406" stroke="black" />
<line x1="1025" y1="406" x2="1075" y2="406" stroke="black" />
<text x="1062" y="398" font-family="Verdana" font-size="8" text-anchor="middle"  dominant-baseline="middle" fill="black" > 391</text>
<circle cx="1025" cy="406" r="4" fill="white" stroke="black" />
<line x1="1025" y1="410" x2="1025" y2="534" stroke="black" />
<line x1="1012" y1="534" x2="1038" y2="534" stroke="black" />
<text x="1031" y="526" font-family="Verdana" font-size="8" text-anchor="middle"  dominant-baseline="middle" fill="black" > 519</text>
<circle cx="1012" cy="534" r="4" fill="white" stroke="black" />
<line x1="1012" y1="538" x2="1012" y2="681" stroke="black" />
<line x1="1006" y1="681" x2="1019" y2="681" stroke="black" />
<text x="1015" y="673" font-family="Verdana" font-size="8" text-anchor="middle"  dominant-baseline="middle" fill="black" > 666</text>
<circle cx="1006" cy="681" r="4" fill="white" stroke="black" />
<line x1="1006" y1="685" x2="1006" y2="736" stroke="black" />
<circle cx="1006" cy="736" r="4" fill="white" stroke="black" />
<text x="1006" y="748" font-family="Verdana" font-size="8" text-anchor="middle"  dominant-baseline="middle" fill="black" > 721</text>
<circle cx="1018" cy="681" r="4" fill="white" stroke="black" />
<line x1="1018" y1="685" x2="1018" y2="736" stroke="black" />
<circle cx="1018" cy="736" r="4" fill="white" stroke="black" />
<text x="1018" y="748" font-family="Verdana" font-size="8" text-anchor="middle"  dominant-baseline="middle" fill="black" > 721</text>
<circle cx="1037" cy="534" r="4" fill="white" stroke="black" />
<line x1="1037" y1="538" x2="1037" y2="696" stroke="black" />
<line x1="1029" y1="696" x2="1046" y2="696" stroke="black" />
<text x="1039" y="688" font-family="Verdana" font-size="8" text-anchor="middle"  dominant-baseline="middle" fill="black" > 681</text>
<circle cx="1029" cy="696" r="4" fill="white" stroke="black" />
<line x1="1029" y1="700" x2="1029" y2="736" stroke="black" />
<circle cx="1029" cy="736" r="4" fill="white" stroke="black" />
<text x="1029" y="748" font-family="Verdana" font-size="8" text-anchor="middle"  dominant-baseline="middle" fill="black" > 721</text>
<circle cx="1037" cy="696" r="4" fill="white" stroke="black" />
<line x1="1037" y1="700" x2="1037" y2="736" stroke="black" />
<circle cx="1037" cy="736" r="4" fill="white" stroke="black" />
<text x="1037" y="748" font-family="Verdana" font-size="8" text-anchor="middle"  dominant-baseline="middle" fill="black" > 721</text>
<circle cx="1045" cy="696" r="4" fill="white" stroke="black" />
<line x1="1045" y1="700" x2="1045" y2="736" stroke="black" />
<circle cx="1045" cy="736" r="4" fill="white" stroke="black" />
<text x="1045" y="748" font-family="Verdana" font-size="8" text-anchor="middle"  dominant-baseline="middle" fill="black" > 721</text>
<circle cx="1075" cy="406" r="4" fill="white" stroke="black" />
<line x1="1075" y1="410" x2="1075" y2="490" stroke="black" />
<line x1="1071" y1="486" x2="1079" y2="494" stroke="red" />
<line x1="1071" y1="494" x2="1079" y2="486" stroke="red" />
<text x="1075" y="502" font-family="Verdana" font-size="8" text-anchor="middle"  dominant-baseline="middle" fill="black" > 475</text>
<circle cx="1150" cy="199" r="4" fill="white" stroke="black" />
<line x1="1150" y1="203" x2="1150" y2="380" stroke="black" />
<line x1="1125" y1="380" x2="1175" y2="380" stroke="black" />
<text x="1162" y="372" font-family="Verdana" font-size="8" text-anchor="middle"  dominant-baseline="middle" fill="black" > 365</text>
<circle cx="1125" cy="380" r="4" fill="white" stroke="black" />
<line x1="1125" y1="384" x2="1125" y2="579" stroke="black" />
<line x1="1112" y1="579" x2="1138" y2="579" stroke="black" />
<text x="1131" y="571" font-family="Verdana" font-size="8" text-anchor="middle"  dominant-baseline="middle" fill="black" > 564</text>
<circle cx="1112" cy="579" r="4" fill="white" stroke="black" />
<line x1="1112" y1="583" x2="1112" y2="736" stroke="black" />
<circle cx="1112" cy="736" r="4" fill="white" stroke="black" />
<text x="1112" y="748" font-family="Verdana" font-size="8" text-anchor="middle"  dominant-baseline="middle" fill="black" > 721</text>
<circle cx="1137" cy="579" r="4" fill="white" stroke="black" />
<line x1="1137" y1="583" x2="1137" y2="736" stroke="black" />
<circle cx="1137" cy="736" r="4" fill="white" stroke="black" />
<text x="1137" y="748" font-family="Verdana" font-size="8" text-anchor="middle"  dominant-baseline="middle" fill="black" > 721</text>
<circle cx="1175" cy="380" r="4" fill="white" stroke="black" />
<line x1="1175" y1="384" x2="1175" y2="580" stroke="black" />
<line x1="1162" y1="580" x2="1188" y2="580" stroke="black" />
<text x="1181" y="572" font-family="Verdana" font-size="8" text-anchor="middle"  dominant-baseline="middle" fill="black" > 565</text>
<circle cx="1162" cy="580" r="4" fill="white" stroke="black" />
<line x1="1162" y1="584" x2="1162" y2="729" stroke="black" />
<line x1="1156" y1="729" x2="1169" y2="729" stroke="black" />
<text x="1165" y="721" font-family="Verdana" font-size="8" text-anchor="middle"  dominant-baseline="middle" fill="black" > 714</text>
<circle cx="1156" cy="729" r="4" fill="white" stroke="black" />
<line x1="1156" y1="733" x2="1156" y2="736" stroke="black" />
<circle cx="1156" cy="736" r="4" fill="white" stroke="black" />
<text x="1156" y="748" font-family="Verdana" font-size="8" text-anchor="middle"  dominant-baseline="middle" fill="black" > 721</text>
<circle cx="1168" cy="729" r="4" fill="white" stroke="black" />
<line x1="1168" y1="733" x2="1168" y2="736" stroke="black" />
<circle cx="1168" cy="736" r="4" fill="white" stroke="black" />
<text x="1168" y="748" font-family="Verdana" font-size="8" text-anchor="middle"  dominant-baseline="middle" fill="black" > 721</text>
<circle cx="1187" cy="580" r="4" fill="white" stroke="black" />
<line x1="1187" y1="584" x2="1187" y2="736" stroke="black" />
<circle cx="1187" cy="736" r="4" fill="white" stroke="black" />
<text x="1187" y="748" font-family="Verdana" font-size="8" text-anchor="middle"  dominant-baseline="middle" fill="black" > 721</text>
<text x="1300" y="7" font-family="Verdana" font-size="7" text-anchor="middle"  dominant-baseline="middle" fill="black" > C7</text>
<circle cx="1300" cy="15" r="4" fill="white" stroke="black" />
<line x1="1300" y1="19" x2="1300" y2="256" stroke="black" />
<line x1="1250" y1="256" x2="1350" y2="256" stroke="black" />
<text x="1325" y="248" font-family="Verdana" font-size="8" text-anchor="middle"  dominant-baseline="middle" fill="black" > 241</text>
<circle cx="1250" cy="256" r="4" fill="white" stroke="black" />
<line x1="1250" y1="260" x2="1250" y2="736" stroke="black" />
<circle cx="1250" cy="736" r="4" fill="white" stroke="black" />
<text x="1250" y="748" font-family="Verdana" font-size="8" text-anchor="middle"  dominant-baseline="middle" fill="black" > 721</text>
<circle cx="1350" cy="256" r="4" fill="white" stroke="black" />
<line x1="1350" y1="260" x2="1350" y2="472" stroke="black" />
<line x1="1325" y1="472" x2="1375" y2="472" stroke="black" />
<text x="1362" y="464" font-family="Verdana" font-size="8" text-anchor="middle"  dominant-baseline="middle" fill="black" > 457</text>
<circle cx="1325" cy="472" r="4" fill="white" stroke="black" />
<line x1="1325" y1="476" x2="1325" y2="477" stroke="black" />
<line x1="1321" y1="473" x2="1329" y2="481" stroke="red" />
<line x1="1321" y1="481" x2="1329" y2="473" stroke="red" />
<text x="1325" y="489" font-family="Verdana" font-size="8" text-anchor="middle"  dominant-baseline="middle" fill="black" > 462</text>
<circle cx="1375" cy="472" r="4" fill="white" stroke="black" />
<line x1="1375" y1="476" x2="1375" y2="477" stroke="black" />
<line x1="1371" y1="473" x2="1379" y2="481" stroke="red" />
<line x1="1371" y1="481" x2="1379" y2="473" stroke="red" />
<text x="1375" y="489" font-family="Verdana" font-size="8" text-anchor="middle"  dominant-baseline="middle" fill="black" > 462</text>
</svg>
