<?xml version="1.0" encoding="utf-8"?>
<svg xmlns="http://www.w3.org/2000/svg" version="1.1" width="3350" height="750">
<rect width="3350" height="15" x="0" y="0" fill="white" />
<rect width="3350" height="15" x="0" y="735" fill="white" />
<rect width="25" height="750" x="0" y="0" fill="white" />
<rect width="25" height="750" x="3325" y="0" fill="white" />
<rect width="3310" height="144" x="25" y="15" fill="lavender" />
<rect width="3310" height="144" x="25" y="159" fill="lavenderblush" />
<rect width="3310" height="144" x="25" y="303" fill="lavender" />
<rect width="3310" height="144" x="25" y="447" fill="lavenderblush" />
<rect width="3310" height="144" x="25" y="591" fill="lavender" />
<text x="12" y="87" font-family="Verdana" font-size="10" text-anchor="middle"  dominant-baseline="middle" fill="red" > D0</text>
<text x="12" y="231" font-family="Verdana" font-size="10" text-anchor="middle"  dominant-baseline="middle" fill="red" > D1</text>
<text x="12" y="375" font-family="Verdana" font-size="10" text-anchor="middle"  dominant-baseline="middle" fill="red" > D2</text>
<text x="12" y="519" font-family="Verdana" font-size="10" text-anchor="middle"  dominant-baseline="middle" fill="red" > D3</text>
<text x="12" y="663" font-family="Verdana" font-size="10" text-anchor="middle"  dominant-baseline="middle" fill="red" > D4</text>
<text x="12" y="20" font-family="Verdana" font-size="10" text-anchor="middle"  dominant-baseline="middle" fill="black" > 0</text>
<text x="12" y="164" font-family="Verdana" font-size="10" text-anchor="middle"  dominant-baseline="middle" fill="black" > 144</text>
<text x="12" y="308" font-family="Verdana" font-size="10" text-anchor="middle"  dominant-baseline="middle" fill="black" > 288</text>
<text x="12" y="452" font-family="Verdana" font-size="10" text-anchor="middle"  dominant-baseline="middle" fill="black" > 432</text>
<text x="12" y="596" font-family="Verdana" font-size="10" text-anchor="middle"  dominant-baseline="middle" fill="black" > 576</text>
<text x="12" y="740" font-family="Verdana" font-size="10" text-anchor="middle"  dominant-baseline="middle" fill="black" > 720</text>
<text x="50" y="7" font-family="Verdana" font-size="7" text-anchor="middle"  dominant-baseline="middle" fill="black" > C1</text>
<circle cx="50" cy="15" r="4" fill="white" stroke="black" />
<line x1="50" y1="19" x2="50" y2="736" stroke="black" />
<circle cx="50" cy="736" r="4" fill="white" stroke="black" />
<text x="50" y="748" font-family="Verdana" font-size="8" text-anchor="middle"  dominant-baseline="middle" fill="black" > 721</text>
<text x="150" y="7" font-family="Verdana" font-size="7" text-anchor="middle"  dominant-baseline="middle" fill="black" > C2</text>
<circle cx="150" cy="15" r="4" fill="white" stroke="black" />
<line x1="150" y1="19" x2="150" y2="736" stroke="black" />
<circle cx="150" cy="736" r="4" fill="white" stroke="black" />
<text x="150" y="748" font-family="Verdana" font-size="8" text-anchor="middle"  dominant-baseline="middle" fill="black" > 721</text>
<text x="300" y="7" font-family="Verdana" font-size="7" text-anchor="middle"  dominant-baseline="middle" fill="black" > C3</text>
<circle cx="300" cy="15" r="4" fill="white" stroke="black" />
<line x1="300" y1="19" x2="300" y2="645" stroke="black" />
<line x1="250" y1="645" x2="350" y2="645" stroke="black" />
<text x="325" y="637" font-family="Verdana" font-size="8" text-anchor="middle"  dominant-baseline="middle" fill="black" > 630</text>
<circle cx="250" cy="645" r="4" fill="white" stroke="black" />
<circle cx="350" cy="645" r="4" fill="white" stroke="black" />
<line x1="250" y1="649" x2="250" y2="672" stroke="black" />
<line x1="250" y1="672" x2="300" y2="680" stroke="black" />
<line x1="350" y1="649" x2="350" y2="672" stroke="black" />
<line x1="350" y1="672" x2="300" y2="680" stroke="black" />
<text x="300" y="668" font-family="Verdana" font-size="8" text-anchor="middle"  dominant-baseline="middle" fill="black" > 665</text>
<circle cx="300" cy="680" r="4" fill="white" stroke="black" />
<line x1="300" y1="684" x2="300" y2="736" stroke="black" />
<circle cx="300" cy="736" r="4" fill="white" stroke="black" />
<text x="300" y="748" font-family="Verdana" font-size="8" text-anchor="middle"  dominant-baseline="middle" fill="black" > 721</text>
<text x="550" y="7" font-family="Verdana" font-size="7" text-anchor="middle"  dominant-baseline="middle" fill="black" > C4</text>
<circle cx="550" cy="15" r="4" fill="white" stroke="black" />
<line x1="550" y1="19" x2="550" y2="505" stroke="black" />
<line x1="450" y1="505" x2="650" y2="505" stroke="black" />
<text x="575" y="497" font-family="Verdana" font-size="8" text-anchor="middle"  dominant-baseline="middle" fill="black" > 490</text>
<circle cx="450" cy="505" r="4" fill="white" stroke="black" />
<circle cx="550" cy="505" r="4" fill="white" stroke="black" />
<line x1="450" y1="509" x2="450" y2="513" stroke="black" />
<line x1="450" y1="513" x2="500" y2="515" stroke="black" />
<line x1="550" y1="509" x2="550" y2="513" stroke="black" />
<line x1="550" y1="513" x2="500" y2="515" stroke="black" />
<text x="500" y="503" font-family="Verdana" font-size="8" text-anchor="middle"  dominant-baseline="middle" fill="black" > 500</text>
<circle cx="500" cy="515" r="4" fill="white" stroke="black" />
<circle cx="650" cy="505" r="4" fill="white" stroke="black" />
<line x1="500" y1="519" x2="500" y2="583" stroke="black" />
<line x1="500" y1="583" x2="575" y2="605" stroke="black" />
<line x1="650" y1="509" x2="650" y2="583" stroke="black" />
<line x1="650" y1="583" x2="575" y2="605" stroke="black" />
<text x="575" y="593" font-family="Verdana" font-size="8" text-anchor="middle"  dominant-baseline="middle" fill="black" > 590</text>
<circle cx="575" cy="605" r="4" fill="white" stroke="black" />
<line x1="575" y1="609" x2="575" y2="685" stroke="black" />
<line x1="571" y1="681" x2="579" y2="689" stroke="red" />
<line x1="571" y1="689" x2="579" y2="681" stroke="red" />
<text x="575" y="697" font-family="Verdana" font-size="8" text-anchor="middle"  dominant-baseline="middle" fill="black" > 670</text>
<text x="850" y="7" font-family="Verdana" font-size="7" text-anchor="middle"  dominant-baseline="middle" fill="black" > C5</text>
<circle cx="850" cy="15" r="4" fill="white" stroke="black" />
<line x1="850" y1="19" x2="850" y2="201" stroke="black" />
<line x1="750" y1="201" x2="950" y2="201" stroke="black" />
<text x="875" y="193" font-family="Verdana" font-size="8" text-anchor="middle"  dominant-baseline="middle" fill="black" > 186</text>
<circle cx="750" cy="201" r="4" fill="white" stroke="black" />
<circle cx="850" cy="201" r="4" fill="white" stroke="black" />
<line x1="750" y1="205" x2="750" y2="221" stroke="black" />
<line x1="750" y1="221" x2="800" y2="227" stroke="black" />
<line x1="850" y1="205" x2="850" y2="221" stroke="black" />
<line x1="850" y1="221" x2="800" y2="227" stroke="black" />
<text x="800" y="215" font-family="Verdana" font-size="8" text-anchor="middle"  dominant-baseline="middle" fill="black" > 212</text>
<circle cx="800" cy="227" r="4" fill="white" stroke="black" />
<line x1="800" y1="231" x2="800" y2="628" stroke="black" />
<line x1="796" y1="624" x2="804" y2="632" stroke="red" />
<line x1="796" y1="632" x2="804" y2="624" stroke="red" />
<text x="800" y="640" font-family="Verdana" font-size="8" text-anchor="middle"  dominant-baseline="middle" fill="black" > 613</text>
<circle cx="950" cy="201" r="4" fill="white" stroke="black" />
<line x1="950" y1="205" x2="950" y2="295" stroke="black" />
<line x1="925" y1="295" x2="975" y2="295" stroke="black" />
<text x="962" y="287" font-family="Verdana" font-size="8" text-anchor="middle"  dominant-baseline="middle" fill="black" > 280</text>
<circle cx="925" cy="295" r="4" fill="white" stroke="black" />
<line x1="925" y1="299" x2="925" y2="730" stroke="black" />
<line x1="921" y1="726" x2="929" y2="734" stroke="red" />
<line x1="921" y1="734" x2="929" y2="726" stroke="red" />
<text x="925" y="742" font-family="Verdana" font-size="8" text-anchor="middle"  dominant-baseline="middle" fill="black" > 715</text>
<circle cx="975" cy="295" r="4" fill="white" stroke="black" />
<line x1="975" y1="299" x2="975" y2="735" stroke="black" />
<line x1="971" y1="731" x2="979" y2="739" stroke="red" />
<line x1="971" y1="739" x2="979" y2="731" stroke="red" />
<text x="975" y="747" font-family="Verdana" font-size="8" text-anchor="middle"  dominant-baseline="middle" fill="black" > 720</text>
<text x="1050" y="7" font-family="Verdana" font-size="7" text-anchor="middle"  dominant-baseline="middle" fill="black" > C6</text>
<circle cx="1050" cy="15" r="4" fill="white" stroke="black" />
<line x1="1050" y1="19" x2="1050" y2="466" stroke="black" />
<line x1="1046" y1="470" x2="1050" y2="462" stroke="blue" />
<line x1="1050" y1="470" x2="1054" y2="462" stroke="blue" />
<text x="1050" y="478" font-family="Verdana" font-size="8" text-anchor="middle"  dominant-baseline="middle" fill="black" > 451</text>
<text x="1150" y="7" font-family="Verdana" font-size="7" text-anchor="middle"  dominant-baseline="middle" fill="black" > C7</text>
<circle cx="1150" cy="15" r="4" fill="white" stroke="black" />
<line x1="1150" y1="19" x2="1150" y2="364" stroke="black" />
<line x1="1146" y1="360" x2="1154" y2="368" stroke="red" />
<line x1="1146" y1="368" x2="1154" y2="360" stroke="red" />
<text x="1150" y="376" font-family="Verdana" font-size="8" text-anchor="middle"  dominant-baseline="middle" fill="black" > 349</text>
<text x="1350" y="7" font-family="Verdana" font-size="7" text-anchor="middle"  dominant-baseline="middle" fill="black" > C8</text>
<circle cx="1350" cy="15" r="4" fill="white" stroke="black" />
<line x1="1350" y1="19" x2="1350" y2="160" stroke="black" />
<line x1="1250" y1="160" x2="1450" y2="160" stroke="black" />
<text x="1375" y="152" font-family="Verdana" font-size="8" text-anchor="middle"  dominant-baseline="middle" fill="black" > 145</text>
<circle cx="1250" cy="160" r="4" fill="white" stroke="black" />
<line x1="1250" y1="164" x2="1250" y2="487" stroke="black" />
<line x1="1246" y1="483" x2="1254" y2="491" stroke="red" />
<line x1="1246" y1="491" x2="1254" y2="483" stroke="red" />
<text x="1250" y="499" font-family="Verdana" font-size="8" text-anchor="middle"  dominant-baseline="middle" fill="black" > 472</text>
<circle cx="1350" cy="160" r="4" fill="white" stroke="black" />
<line x1="1350" y1="164" x2="1350" y2="450" stroke="black" />
<line x1="1346" y1="446" x2="1354" y2="454" stroke="red" />
<line x1="1346" y1="454" x2="1354" y2="446" stroke="red" />
<text x="1350" y="462" font-family="Verdana" font-size="8" text-anchor="middle"  dominant-baseline="middle" fill="black" > 435</text>
<circle cx="1450" cy="160" r="4" fill="white" stroke="black" />
<line x1="1450" y1="164" x2="1450" y2="268" stroke="black" />
<line x1="1446" y1="264" x2="1454" y2="272" stroke="red" />
<line x1="1446" y1="272" x2="1454" y2="264" stroke="red" />
<text x="1450" y="280" font-family="Verdana" font-size="8" text-anchor="middle"  dominant-baseline="middle" fill="black" > 253</text>
<text x="1650" y="7" font-family="Verdana" font-size="7" text-anchor="middle"  dominant-baseline="middle" fill="black" > C9</text>
<circle cx="1650" cy="15" r="4" fill="white" stroke="black" />
<line x1="1650" y1="19" x2="1650" y2="451" stroke="black" />
<line x1="1550" y1="451" x2="1750" y2="451" stroke="black" />
<text x="1675" y="443" font-family="Verdana" font-size="8" text-anchor="middle"  dominant-baseline="middle" fill="black" > 436</text>
<circle cx="1550" cy="451" r="4" fill="white" stroke="black" />
<circle cx="1650" cy="451" r="4" fill="white" stroke="black" />
<line x1="1550" y1="455" x2="1550" y2="466" stroke="black" />
<line x1="1550" y1="466" x2="1600" y2="471" stroke="black" />
<line x1="1650" y1="455" x2="1650" y2="466" stroke="black" />
<line x1="1650" y1="466" x2="1600" y2="471" stroke="black" />
<text x="1600" y="459" font-family="Verdana" font-size="8" text-anchor="middle"  dominant-baseline="middle" fill="black" > 456</text>
<circle cx="1600" cy="471" r="4" fill="white" stroke="black" />
<line x1="1600" y1="475" x2="1600" y2="736" stroke="black" />
<circle cx="1600" cy="736" r="4" fill="white" stroke="black" />
<text x="1600" y="748" font-family="Verdana" font-size="8" text-anchor="middle"  dominant-baseline="middle" fill="black" > 721</text>
<circle cx="1750" cy="451" r="4" fill="white" stroke="black" />
<line x1="1750" y1="455" x2="1750" y2="736" stroke="black" />
<circle cx="1750" cy="736" r="4" fill="white" stroke="black" />
<text x="1750" y="748" font-family="Verdana" font-size="8" text-anchor="middle"  dominant-baseline="middle" fill="black" > 721</text>
<text x="1950" y="7" font-family="Verdana" font-size="7" text-anchor="middle"  dominant-baseline="middle" fill="black" > C10</text>
<circle cx="1950" cy="15" r="4" fill="white" stroke="black" />
<line x1="1950" y1="19" x2="1950" y2="508" stroke="black" />
<line x1="1850" y1="508" x2="2050" y2="508" stroke="black" />
<text x="1975" y="500" font-family="Verdana" font-size="8" text-anchor="middle"  dominant-baseline="middle" fill="black" > 493</text>
<circle cx="1850" cy="508" r="4" fill="white" stroke="black" />
<circle cx="1950" cy="508" r="4" fill="white" stroke="black" />
<circle cx="2050" cy="508" r="4" fill="white" stroke="black" />
<line x1="1850" y1="512" x2="1850" y2="525" stroke="black" />
<line x1="1850" y1="525" x2="1950" y2="530" stroke="black" />
<line x1="1950" y1="512" x2="1950" y2="525" stroke="black" />
<line x1="1950" y1="525" x2="1950" y2="530" stroke="black" />
<line x1="2050" y1="512" x2="2050" y2="525" stroke="black" />
<line x1="2050" y1="525" x2="1950" y2="530" stroke="black" />
<text x="1950" y="518" font-family="Verdana" font-size="8" text-anchor="middle"  dominant-baseline="middle" fill="black" > 515</text>
<circle cx="1950" cy="530" r="4" fill="white" stroke="black" />
<line x1="1950" y1="534" x2="1950" y2="612" stroke="black" />
<line x1="1946" y1="608" x2="1954" y2="616" stroke="red" />
<line x1="1946" y1="616" x2="1954" y2="608" stroke="red" />
<text x="1950" y="624" font-family="Verdana" font-size="8" text-anchor="middle"  dominant-baseline="middle" fill="black" > 597</text>
<text x="2150" y="7" font-family="Verdana" font-size="7" text-anchor="middle"  dominant-baseline="middle" fill="black" > C11</text>
<circle cx="2150" cy="15" r="4" fill="white" stroke="black" />
<line x1="2150" y1="19" x2="2150" y2="438" stroke="black" />
<line x1="2146" y1="434" x2="2154" y2="442" stroke="red" />
<line x1="2146" y1="442" x2="2154" y2="434" stroke="red" />
<text x="2150" y="450" font-family="Verdana" font-size="8" text-anchor="middle"  dominant-baseline="middle" fill="black" > 423</text>
<text x="2300" y="7" font-family="Verdana" font-size="7" text-anchor="middle"  dominant-baseline="middle" fill="black" > C12</text>
<circle cx="2300" cy="15" r="4" fill="white" stroke="black" />
<line x1="2300" y1="19" x2="2300" y2="410" stroke="black" />
<line x1="2250" y1="410" x2="2350" y2="410" stroke="black" />
<text x="2325" y="402" font-family="Verdana" font-size="8" text-anchor="middle"  dominant-baseline="middle" fill="black" > 395</text>
<circle cx="2250" cy="410" r="4" fill="white" stroke="black" />
<circle cx="2350" cy="410" r="4" fill="white" stroke="black" />
<line x1="2250" y1="414" x2="2250" y2="444" stroke="black" />
<line x1="2250" y1="444" x2="2300" y2="455" stroke="black" />
<line x1="2350" y1="414" x2="2350" y2="444" stroke="black" />
<line x1="2350" y1="444" x2="2300" y2="455" stroke="black" />
<text x="2300" y="443" font-family="Verdana" font-size="8" text-anchor="middle"  dominant-baseline="middle" fill="black" > 440</text>
<circle cx="2300" cy="455" r="4" fill="white" stroke="black" />
<line x1="2300" y1="459" x2="2300" y2="530" stroke="black" />
<line x1="2296" y1="526" x2="2304" y2="534" stroke="red" />
<line x1="2296" y1="534" x2="2304" y2="526" stroke="red" />
<text x="2300" y="542" font-family="Verdana" font-size="8" text-anchor="middle"  dominant-baseline="middle" fill="black" > 515</text>
<text x="2550" y="7" font-family="Verdana" font-size="7" text-anchor="middle"  dominant-baseline="middle" fill="black" > C13</text>
<circle cx="2550" cy="15" r="4" fill="white" stroke="black" />
<line x1="2550" y1="19" x2="2550" y2="700" stroke="black" />
<line x1="2450" y1="700" x2="2650" y2="700" stroke="black" />
<text x="2575" y="692" font-family="Verdana" font-size="8" text-anchor="middle"  dominant-baseline="middle" fill="black" > 685</text>
<circle cx="2450" cy="700" r="4" fill="white" stroke="black" />
<circle cx="2550" cy="700" r="4" fill="white" stroke="black" />
<circle cx="2650" cy="700" r="4" fill="white" stroke="black" />
<line x1="2450" y1="704" x2="2450" y2="725" stroke="black" />
<line x1="2450" y1="725" x2="2550" y2="733" stroke="black" />
<line x1="2550" y1="704" x2="2550" y2="725" stroke="black" />
<line x1="2550" y1="725" x2="2550" y2="733" stroke="black" />
<line x1="2650" y1="704" x2="2650" y2="725" stroke="black" />
<line x1="2650" y1="725" x2="2550" y2="733" stroke="black" />
<text x="2550" y="721" font-family="Verdana" font-size="8" text-anchor="middle"  dominant-baseline="middle" fill="black" > 718</text>
<circle cx="2550" cy="733" r="4" fill="white" stroke="black" />
<line x1="2550" y1="737" x2="2550" y2="736" stroke="black" />
<circle cx="2550" cy="736" r="4" fill="white" stroke="black" />
<text x="2550" y="748" font-family="Verdana" font-size="8" text-anchor="middle"  dominant-baseline="middle" fill="black" > 721</text>
<text x="2750" y="7" font-family="Verdana" font-size="7" text-anchor="middle"  dominant-baseline="middle" fill="black" > C14</text>
<circle cx="2750" cy="15" r="4" fill="white" stroke="black" />
<line x1="2750" y1="19" x2="2750" y2="387" stroke="black" />
<line x1="2746" y1="383" x2="2754" y2="391" stroke="red" />
<line x1="2746" y1="391" x2="2754" y2="383" stroke="red" />
<text x="2750" y="399" font-family="Verdana" font-size="8" text-anchor="middle"  dominant-baseline="middle" fill="black" > 372</text>
<text x="2950" y="7" font-family="Verdana" font-size="7" text-anchor="middle"  dominant-baseline="middle" fill="black" > C15</text>
<circle cx="2950" cy="15" r="4" fill="white" stroke="black" />
<line x1="2950" y1="19" x2="2950" y2="289" stroke="black" />
<line x1="2850" y1="289" x2="3050" y2="289" stroke="black" />
<text x="2975" y="281" font-family="Verdana" font-size="8" text-anchor="middle"  dominant-baseline="middle" fill="black" > 274</text>
<circle cx="2850" cy="289" r="4" fill="white" stroke="black" />
<circle cx="2950" cy="289" r="4" fill="white" stroke="black" />
<circle cx="3050" cy="289" r="4" fill="white" stroke="black" />
<line x1="2850" y1="293" x2="2850" y2="335" stroke="black" />
<line x1="2850" y1="335" x2="2950" y2="350" stroke="black" />
<line x1="2950" y1="293" x2="2950" y2="335" stroke="black" />
<line x1="2950" y1="335" x2="2950" y2="350" stroke="black" />
<line x1="3050" y1="293" x2="3050" y2="335" stroke="black" />
<line x1="3050" y1="335" x2="2950" y2="350" stroke="black" />
<text x="2950" y="338" font-family="Verdana" font-size="8" text-anchor="middle"  dominant-baseline="middle" fill="black" > 335</text>
<circle cx="2950" cy="350" r="4" fill="white" stroke="black" />
<line x1="2950" y1="354" x2="2950" y2="435" stroke="black" />
<line x1="2946" y1="439" x2="2950" y2="431" stroke="blue" />
<line x1="2950" y1="439" x2="2954" y2="431" stroke="blue" />
<text x="2950" y="447" font-family="Verdana" font-size="8" text-anchor="middle"  dominant-baseline="middle" fill="black" > 420</text>
<text x="3200" y="7" font-family="Verdana" font-size="7" text-anchor="middle"  dominant-baseline="middle" fill="black" > C16</text>
<circle cx="3200" cy="15" r="4" fill="white" stroke="black" />
<line x1="3200" y1="19" x2="3200" y2="112" stroke="black" />
<line x1="3150" y1="112" x2="3250" y2="112" stroke="black" />
<text x="3225" y="104" font-family="Verdana" font-size="8" text-anchor="middle"  dominant-baseline="middle" fill="black" > 97</text>
<circle cx="3150" cy="112" r="4" fill="white" stroke="black" />
<circle cx="3250" cy="112" r="4" fill="white" stroke="black" />
<line x1="3150" y1="116" x2="3150" y2="121" stroke="black" />
<line x1="3150" y1="121" x2="3200" y2="123" stroke="black" />
<line x1="3250" y1="116" x2="3250" y2="121" stroke="black" />
<line x1="3250" y1="121" x2="3200" y2="123" stroke="black" />
<text x="3200" y="111" font-family="Verdana" font-size="8" text-anchor="middle"  dominant-baseline="middle" fill="black" > 108</text>
<circle cx="3200" cy="123" r="4" fill="white" stroke="black" />
<line x1="3200" y1="127" x2="3200" y2="145" stroke="black" />
<line x1="3166" y1="145" x2="3234" y2="145" stroke="black" />
<text x="3208" y="137" font-family="Verdana" font-size="8" text-anchor="middle"  dominant-baseline="middle" fill="black" > 130</text>
<circle cx="3166" cy="145" r="4" fill="white" stroke="black" />
<circle cx="3199" cy="145" r="4" fill="white" stroke="black" />
<line x1="3166" y1="149" x2="3166" y2="157" stroke="black" />
<line x1="3166" y1="157" x2="3182" y2="160" stroke="black" />
<line x1="3199" y1="149" x2="3199" y2="157" stroke="black" />
<line x1="3199" y1="157" x2="3182" y2="160" stroke="black" />
<text x="3182" y="148" font-family="Verdana" font-size="8" text-anchor="middle"  dominant-baseline="middle" fill="black" > 145</text>
<circle cx="3182" cy="160" r="4" fill="white" stroke="black" />
<circle cx="3232" cy="145" r="4" fill="white" stroke="black" />
<line x1="3182" y1="164" x2="3182" y2="187" stroke="black" />
<line x1="3182" y1="187" x2="3207" y2="195" stroke="black" />
<line x1="3232" y1="149" x2="3232" y2="187" stroke="black" />
<line x1="3232" y1="187" x2="3207" y2="195" stroke="black" />
<text x="3207" y="183" font-family="Verdana" font-size="8" text-anchor="middle"  dominant-baseline="middle" fill="black" > 180</text>
<circle cx="3207" cy="195" r="4" fill="white" stroke="black" />
<line x1="3207" y1="199" x2="3207" y2="595" stroke="black" />
<line x1="3203" y1="591" x2="3211" y2="599" stroke="red" />
<line x1="3203" y1="599" x2="3211" y2="591" stroke="red" />
<text x="3207" y="607" font-family="Verdana" font-size="8" text-anchor="middle"  dominant-baseline="middle" fill="black" > 580</text>
</svg>
