<?xml version="1.0" encoding="utf-8"?>
<svg xmlns="http://www.w3.org/2000/svg" version="1.1" width="350" height="750">
<rect width="350" height="15" x="0" y="0" fill="white" />
<rect width="350" height="15" x="0" y="735" fill="white" />
<rect width="25" height="750" x="0" y="0" fill="white" />
<rect width="25" height="750" x="325" y="0" fill="white" />
<rect width="310" height="144" x="25" y="15" fill="rgb(192,192,192)" />
<rect width="310" height="144" x="25" y="159" fill="rgb(230,230,230)" />
<rect width="310" height="144" x="25" y="303" fill="rgb(192,192,192)" />
<rect width="310" height="144" x="25" y="447" fill="rgb(230,230,230)" />
<rect width="310" height="144" x="25" y="591" fill="rgb(192,192,192)" />
<text x="12" y="87" font-family="Verdana" font-size="10" text-anchor="middle"  dominant-baseline="middle" fill="red" > D0</text>
<text x="12" y="231" font-family="Verdana" font-size="10" text-anchor="middle"  dominant-baseline="middle" fill="red" > D1</text>
<text x="12" y="375" font-family="Verdana" font-size="10" text-anchor="middle"  dominant-baseline="middle" fill="red" > D2</text>
<text x="12" y="519" font-family="Verdana" font-size="10" text-anchor="middle"  dominant-baseline="middle" fill="red" > D3</text>
<text x="12" y="663" font-family="Verdana" font-size="10" text-anchor="middle"  dominant-baseline="middle" fill="red" > D4</text>
<text x="12" y="20" font-family="Verdana" font-size="10" text-anchor="middle"  dominant-baseline="middle" fill="black" > 0</text>
<text x="12" y="164" font-family="Verdana" font-size="10" text-anchor="middle"  dominant-baseline="middle" fill="black" > 144</text>
<text x="12" y="308" font-family="Verdana" font-size="10" text-anchor="middle"  dominant-baseline="middle" fill="black" > 288</text>
<text x="12" y="452" font-family="Verdana" font-size="10" text-anchor="middle"  dominant-baseline="middle" fill="black" > 432</text>
<text x="12" y="596" font-family="Verdana" font-size="10" text-anchor="middle"  dominant-baseline="middle" fill="black" > 576</text>
<text x="12" y="740" font-family="Verdana" font-size="10" text-anchor="middle"  dominant-baseline="middle" fill="black" > 720</text>
<text x="50" y="7" font-family="Verdana" font-size="7" text-anchor="middle"  dominant-baseline="middle" fill="black" > C1</text>
<circle cx="50" cy="15" r="4" fill="white" stroke="black" />
<line x1="50" y1="19" x2="50" y2="35" stroke="black" />
<line x1="46" y1="39" x2="50" y2="31" stroke="blue" />
<line x1="50" y1="39" x2="54" y2="31" stroke="blue" />
<text x="50" y="47" font-family="Verdana" font-size="8" text-anchor="middle"  dominant-baseline="middle" fill="black" > 20</text>
<text x="200" y="7" font-family="Verdana" font-size="7" text-anchor="middle"  dominant-baseline="middle" fill="black" > C2</text>
<circle cx="200" cy="15" r="4" fill="white" stroke="black" />
<line x1="200" y1="19" x2="200" y2="51" stroke="black" />
<line x1="150" y1="51" x2="250" y2="51" stroke="black" />
<text x="225" y="43" font-family="Verdana" font-size="8" text-anchor="middle"  dominant-baseline="middle" fill="black" > 36</text>
<circle cx="150" cy="51" r="4" fill="white" stroke="black" />
<line x1="150" y1="55" x2="150" y2="189" stroke="black" />
<line x1="116" y1="189" x2="184" y2="189" stroke="black" />
<text x="158" y="181" font-family="Verdana" font-size="8" text-anchor="middle"  dominant-baseline="middle" fill="black" > 174</text>
<circle cx="116" cy="189" r="4" fill="white" stroke="black" />
<line x1="116" y1="193" x2="116" y2="736" stroke="black" />
<circle cx="116" cy="736" r="4" fill="white" stroke="black" />
<text x="116" y="748" font-family="Verdana" font-size="8" text-anchor="middle"  dominant-baseline="middle" fill="black" > 721</text>
<circle cx="149" cy="189" r="4" fill="white" stroke="black" />
<line x1="149" y1="193" x2="149" y2="736" stroke="black" />
<circle cx="149" cy="736" r="4" fill="white" stroke="black" />
<text x="149" y="748" font-family="Verdana" font-size="8" text-anchor="middle"  dominant-baseline="middle" fill="black" > 721</text>
<circle cx="182" cy="189" r="4" fill="white" stroke="black" />
<line x1="182" y1="193" x2="182" y2="14" stroke="black" />
<circle cx="250" cy="51" r="4" fill="white" stroke="black" />
<line x1="250" y1="55" x2="250" y2="178" stroke="black" />
<line x1="225" y1="178" x2="275" y2="178" stroke="black" />
<text x="262" y="170" font-family="Verdana" font-size="8" text-anchor="middle"  dominant-baseline="middle" fill="black" > 163</text>
<circle cx="225" cy="178" r="4" fill="white" stroke="black" />
<line x1="225" y1="182" x2="225" y2="338" stroke="black" />
<line x1="212" y1="338" x2="238" y2="338" stroke="black" />
<text x="231" y="330" font-family="Verdana" font-size="8" text-anchor="middle"  dominant-baseline="middle" fill="black" > 323</text>
<circle cx="212" cy="338" r="4" fill="white" stroke="black" />
<line x1="212" y1="342" x2="212" y2="457" stroke="black" />
<line x1="206" y1="457" x2="219" y2="457" stroke="black" />
<text x="215" y="449" font-family="Verdana" font-size="8" text-anchor="middle"  dominant-baseline="middle" fill="black" > 442</text>
<circle cx="206" cy="457" r="4" fill="white" stroke="black" />
<line x1="206" y1="461" x2="206" y2="736" stroke="black" />
<circle cx="206" cy="736" r="4" fill="white" stroke="black" />
<text x="206" y="748" font-family="Verdana" font-size="8" text-anchor="middle"  dominant-baseline="middle" fill="black" > 721</text>
<circle cx="218" cy="457" r="4" fill="white" stroke="black" />
<line x1="218" y1="461" x2="218" y2="736" stroke="black" />
<circle cx="218" cy="736" r="4" fill="white" stroke="black" />
<text x="218" y="748" font-family="Verdana" font-size="8" text-anchor="middle"  dominant-baseline="middle" fill="black" > 721</text>
<circle cx="237" cy="338" r="4" fill="white" stroke="black" />
<line x1="237" y1="342" x2="237" y2="454" stroke="black" />
<line x1="231" y1="454" x2="244" y2="454" stroke="black" />
<text x="240" y="446" font-family="Verdana" font-size="8" text-anchor="middle"  dominant-baseline="middle" fill="black" > 439</text>
<circle cx="231" cy="454" r="4" fill="white" stroke="black" />
<line x1="231" y1="458" x2="231" y2="736" stroke="black" />
<circle cx="231" cy="736" r="4" fill="white" stroke="black" />
<text x="231" y="748" font-family="Verdana" font-size="8" text-anchor="middle"  dominant-baseline="middle" fill="black" > 721</text>
<circle cx="243" cy="454" r="4" fill="white" stroke="black" />
<line x1="243" y1="458" x2="243" y2="736" stroke="black" />
<circle cx="243" cy="736" r="4" fill="white" stroke="black" />
<text x="243" y="748" font-family="Verdana" font-size="8" text-anchor="middle"  dominant-baseline="middle" fill="black" > 721</text>
<circle cx="275" cy="178" r="4" fill="white" stroke="black" />
<line x1="275" y1="182" x2="275" y2="320" stroke="black" />
<line x1="262" y1="320" x2="288" y2="320" stroke="black" />
<text x="281" y="312" font-family="Verdana" font-size="8" text-anchor="middle"  dominant-baseline="middle" fill="black" > 305</text>
<circle cx="262" cy="320" r="4" fill="white" stroke="black" />
<line x1="262" y1="324" x2="262" y2="736" stroke="black" />
<circle cx="262" cy="736" r="4" fill="white" stroke="black" />
<text x="262" y="748" font-family="Verdana" font-size="8" text-anchor="middle"  dominant-baseline="middle" fill="black" > 721</text>
<circle cx="287" cy="320" r="4" fill="white" stroke="black" />
<line x1="287" y1="324" x2="287" y2="736" stroke="black" />
<circle cx="287" cy="736" r="4" fill="white" stroke="black" />
<text x="287" y="748" font-family="Verdana" font-size="8" text-anchor="middle"  dominant-baseline="middle" fill="black" > 721</text>
</svg>
