<?xml version="1.0" encoding="utf-8"?>
<svg xmlns="http://www.w3.org/2000/svg" version="1.1" width="2050" height="750">
<rect width="2050" height="15" x="0" y="0" fill="white" />
<rect width="2050" height="15" x="0" y="735" fill="white" />
<rect width="25" height="750" x="0" y="0" fill="white" />
<rect width="25" height="750" x="2025" y="0" fill="white" />
<rect width="2010" height="144" x="25" y="15" fill="ghostwhite" />
<rect width="2010" height="144" x="25" y="159" fill="snow" />
<rect width="2010" height="144" x="25" y="303" fill="ghostwhite" />
<rect width="2010" height="144" x="25" y="447" fill="snow" />
<rect width="2010" height="144" x="25" y="591" fill="ghostwhite" />
<text x="12" y="87" font-family="Verdana" font-size="10" text-anchor="middle"  dominant-baseline="middle" fill="red" > D0</text>
<text x="12" y="231" font-family="Verdana" font-size="10" text-anchor="middle"  dominant-baseline="middle" fill="red" > D1</text>
<text x="12" y="375" font-family="Verdana" font-size="10" text-anchor="middle"  dominant-baseline="middle" fill="red" > D2</text>
<text x="12" y="519" font-family="Verdana" font-size="10" text-anchor="middle"  dominant-baseline="middle" fill="red" > D3</text>
<text x="12" y="663" font-family="Verdana" font-size="10" text-anchor="middle"  dominant-baseline="middle" fill="red" > D4</text>
<text x="12" y="20" font-family="Verdana" font-size="10" text-anchor="middle"  dominant-baseline="middle" fill="black" > 0</text>
<text x="12" y="164" font-family="Verdana" font-size="10" text-anchor="middle"  dominant-baseline="middle" fill="black" > 144</text>
<text x="12" y="308" font-family="Verdana" font-size="10" text-anchor="middle"  dominant-baseline="middle" fill="black" > 288</text>
<text x="12" y="452" font-family="Verdana" font-size="10" text-anchor="middle"  dominant-baseline="middle" fill="black" > 432</text>
<text x="12" y="596" font-family="Verdana" font-size="10" text-anchor="middle"  dominant-baseline="middle" fill="black" > 576</text>
<text x="12" y="740" font-family="Verdana" font-size="10" text-anchor="middle"  dominant-baseline="middle" fill="black" > 720</text>
<text x="100" y="7" font-family="Verdana" font-size="7" text-anchor="middle"  dominant-baseline="middle" fill="black" > C1</text>
<circle cx="100" cy="15" r="4" fill="white" stroke="black" />
<line x1="100" y1="19" x2="100" y2="138" stroke="black" />
<line x1="50" y1="138" x2="150" y2="138" stroke="black" />
<text x="125" y="130" font-family="Verdana" font-size="8" text-anchor="middle"  dominant-baseline="middle" fill="black" > 123</text>
<circle cx="50" cy="138" r="4" fill="white" stroke="black" />
<line x1="50" y1="142" x2="50" y2="276" stroke="black" />
<line x1="25" y1="276" x2="75" y2="276" stroke="black" />
<text x="62" y="268" font-family="Verdana" font-size="8" text-anchor="middle"  dominant-baseline="middle" fill="black" > 261</text>
<circle cx="25" cy="276" r="4" fill="white" stroke="black" />
<line x1="25" y1="280" x2="25" y2="439" stroke="black" />
<line x1="12" y1="439" x2="38" y2="439" stroke="black" />
<text x="31" y="431" font-family="Verdana" font-size="8" text-anchor="middle"  dominant-baseline="middle" fill="black" > 424</text>
<circle cx="12" cy="439" r="4" fill="white" stroke="black" />
<line x1="12" y1="443" x2="12" y2="447" stroke="black" />
<circle cx="12" cy="447" r="4" fill="white" stroke="black" />
<text x="12" y="459" font-family="Verdana" font-size="8" text-anchor="middle"  dominant-baseline="middle" fill="black" > 432</text>
<circle cx="37" cy="439" r="4" fill="white" stroke="black" />
<line x1="37" y1="443" x2="37" y2="447" stroke="black" />
<circle cx="37" cy="447" r="4" fill="white" stroke="black" />
<text x="37" y="459" font-family="Verdana" font-size="8" text-anchor="middle"  dominant-baseline="middle" fill="black" > 432</text>
<circle cx="75" cy="276" r="4" fill="white" stroke="black" />
<line x1="75" y1="280" x2="75" y2="436" stroke="black" />
<line x1="62" y1="436" x2="88" y2="436" stroke="black" />
<text x="81" y="428" font-family="Verdana" font-size="8" text-anchor="middle"  dominant-baseline="middle" fill="black" > 421</text>
<circle cx="62" cy="436" r="4" fill="white" stroke="black" />
<line x1="62" y1="440" x2="62" y2="447" stroke="black" />
<circle cx="62" cy="447" r="4" fill="white" stroke="black" />
<text x="62" y="459" font-family="Verdana" font-size="8" text-anchor="middle"  dominant-baseline="middle" fill="black" > 432</text>
<circle cx="87" cy="436" r="4" fill="white" stroke="black" />
<line x1="87" y1="440" x2="87" y2="447" stroke="black" />
<circle cx="87" cy="447" r="4" fill="white" stroke="black" />
<text x="87" y="459" font-family="Verdana" font-size="8" text-anchor="middle"  dominant-baseline="middle" fill="black" > 432</text>
<circle cx="150" cy="138" r="4" fill="white" stroke="black" />
<line x1="150" y1="142" x2="150" y2="277" stroke="black" />
<line x1="125" y1="277" x2="175" y2="277" stroke="black" />
<text x="162" y="269" font-family="Verdana" font-size="8" text-anchor="middle"  dominant-baseline="middle" fill="black" > 262</text>
<circle cx="125" cy="277" r="4" fill="white" stroke="black" />
<line x1="125" y1="281" x2="125" y2="423" stroke="black" />
<line x1="112" y1="423" x2="138" y2="423" stroke="black" />
<text x="131" y="415" font-family="Verdana" font-size="8" text-anchor="middle"  dominant-baseline="middle" fill="black" > 408</text>
<circle cx="112" cy="423" r="4" fill="white" stroke="black" />
<line x1="112" y1="427" x2="112" y2="447" stroke="black" />
<circle cx="112" cy="447" r="4" fill="white" stroke="black" />
<text x="112" y="459" font-family="Verdana" font-size="8" text-anchor="middle"  dominant-baseline="middle" fill="black" > 432</text>
<circle cx="137" cy="423" r="4" fill="white" stroke="black" />
<line x1="137" y1="427" x2="137" y2="447" stroke="black" />
<circle cx="137" cy="447" r="4" fill="white" stroke="black" />
<text x="137" y="459" font-family="Verdana" font-size="8" text-anchor="middle"  dominant-baseline="middle" fill="black" > 432</text>
<circle cx="175" cy="277" r="4" fill="white" stroke="black" />
<line x1="175" y1="281" x2="175" y2="414" stroke="black" />
<line x1="162" y1="414" x2="188" y2="414" stroke="black" />
<text x="181" y="406" font-family="Verdana" font-size="8" text-anchor="middle"  dominant-baseline="middle" fill="black" > 399</text>
<circle cx="162" cy="414" r="4" fill="white" stroke="black" />
<line x1="162" y1="418" x2="162" y2="447" stroke="black" />
<circle cx="162" cy="447" r="4" fill="white" stroke="black" />
<text x="162" y="459" font-family="Verdana" font-size="8" text-anchor="middle"  dominant-baseline="middle" fill="black" > 432</text>
<circle cx="187" cy="414" r="4" fill="white" stroke="black" />
<line x1="187" y1="418" x2="187" y2="447" stroke="black" />
<circle cx="187" cy="447" r="4" fill="white" stroke="black" />
<text x="187" y="459" font-family="Verdana" font-size="8" text-anchor="middle"  dominant-baseline="middle" fill="black" > 432</text>
<text x="300" y="7" font-family="Verdana" font-size="7" text-anchor="middle"  dominant-baseline="middle" fill="black" > C2</text>
<circle cx="300" cy="15" r="4" fill="white" stroke="black" />
<line x1="300" y1="19" x2="300" y2="159" stroke="black" />
<line x1="250" y1="159" x2="350" y2="159" stroke="black" />
<text x="325" y="151" font-family="Verdana" font-size="8" text-anchor="middle"  dominant-baseline="middle" fill="black" > 144</text>
<circle cx="250" cy="159" r="4" fill="white" stroke="black" />
<line x1="250" y1="163" x2="250" y2="297" stroke="black" />
<line x1="225" y1="297" x2="275" y2="297" stroke="black" />
<text x="262" y="289" font-family="Verdana" font-size="8" text-anchor="middle"  dominant-baseline="middle" fill="black" > 282</text>
<circle cx="225" cy="297" r="4" fill="white" stroke="black" />
<line x1="225" y1="301" x2="225" y2="447" stroke="black" />
<circle cx="225" cy="447" r="4" fill="white" stroke="black" />
<text x="225" y="459" font-family="Verdana" font-size="8" text-anchor="middle"  dominant-baseline="middle" fill="black" > 432</text>
<circle cx="275" cy="297" r="4" fill="white" stroke="black" />
<line x1="275" y1="301" x2="275" y2="447" stroke="black" />
<circle cx="275" cy="447" r="4" fill="white" stroke="black" />
<text x="275" y="459" font-family="Verdana" font-size="8" text-anchor="middle"  dominant-baseline="middle" fill="black" > 432</text>
<circle cx="350" cy="159" r="4" fill="white" stroke="black" />
<line x1="350" y1="163" x2="350" y2="285" stroke="black" />
<line x1="316" y1="285" x2="384" y2="285" stroke="black" />
<text x="358" y="277" font-family="Verdana" font-size="8" text-anchor="middle"  dominant-baseline="middle" fill="black" > 270</text>
<circle cx="316" cy="285" r="4" fill="white" stroke="black" />
<line x1="316" y1="289" x2="316" y2="447" stroke="black" />
<circle cx="316" cy="447" r="4" fill="white" stroke="black" />
<text x="316" y="459" font-family="Verdana" font-size="8" text-anchor="middle"  dominant-baseline="middle" fill="black" > 432</text>
<circle cx="349" cy="285" r="4" fill="white" stroke="black" />
<line x1="349" y1="289" x2="349" y2="447" stroke="black" />
<circle cx="349" cy="447" r="4" fill="white" stroke="black" />
<text x="349" y="459" font-family="Verdana" font-size="8" text-anchor="middle"  dominant-baseline="middle" fill="black" > 432</text>
<circle cx="382" cy="285" r="4" fill="white" stroke="black" />
<line x1="382" y1="289" x2="382" y2="436" stroke="black" />
<line x1="374" y1="436" x2="391" y2="436" stroke="black" />
<text x="386" y="428" font-family="Verdana" font-size="8" text-anchor="middle"  dominant-baseline="middle" fill="black" > 421</text>
<circle cx="374" cy="436" r="4" fill="white" stroke="black" />
<line x1="374" y1="440" x2="374" y2="447" stroke="black" />
<circle cx="374" cy="447" r="4" fill="white" stroke="black" />
<text x="374" y="459" font-family="Verdana" font-size="8" text-anchor="middle"  dominant-baseline="middle" fill="black" > 432</text>
<circle cx="390" cy="436" r="4" fill="white" stroke="black" />
<line x1="390" y1="440" x2="390" y2="447" stroke="black" />
<circle cx="390" cy="447" r="4" fill="white" stroke="black" />
<text x="390" y="459" font-family="Verdana" font-size="8" text-anchor="middle"  dominant-baseline="middle" fill="black" > 432</text>
<text x="500" y="7" font-family="Verdana" font-size="7" text-anchor="middle"  dominant-baseline="middle" fill="black" > C3</text>
<circle cx="500" cy="15" r="4" fill="white" stroke="black" />
<line x1="500" y1="19" x2="500" y2="61" stroke="black" />
<line x1="450" y1="61" x2="550" y2="61" stroke="black" />
<text x="525" y="53" font-family="Verdana" font-size="8" text-anchor="middle"  dominant-baseline="middle" fill="black" > 46</text>
<circle cx="450" cy="61" r="4" fill="white" stroke="black" />
<line x1="450" y1="65" x2="450" y2="176" stroke="black" />
<line x1="425" y1="176" x2="475" y2="176" stroke="black" />
<text x="462" y="168" font-family="Verdana" font-size="8" text-anchor="middle"  dominant-baseline="middle" fill="black" > 161</text>
<circle cx="425" cy="176" r="4" fill="white" stroke="black" />
<line x1="425" y1="180" x2="425" y2="327" stroke="black" />
<line x1="412" y1="327" x2="438" y2="327" stroke="black" />
<text x="431" y="319" font-family="Verdana" font-size="8" text-anchor="middle"  dominant-baseline="middle" fill="black" > 312</text>
<circle cx="412" cy="327" r="4" fill="white" stroke="black" />
<line x1="412" y1="331" x2="412" y2="447" stroke="black" />
<circle cx="412" cy="447" r="4" fill="white" stroke="black" />
<text x="412" y="459" font-family="Verdana" font-size="8" text-anchor="middle"  dominant-baseline="middle" fill="black" > 432</text>
<circle cx="437" cy="327" r="4" fill="white" stroke="black" />
<line x1="437" y1="331" x2="437" y2="447" stroke="black" />
<circle cx="437" cy="447" r="4" fill="white" stroke="black" />
<text x="437" y="459" font-family="Verdana" font-size="8" text-anchor="middle"  dominant-baseline="middle" fill="black" > 432</text>
<circle cx="475" cy="176" r="4" fill="white" stroke="black" />
<line x1="475" y1="180" x2="475" y2="447" stroke="black" />
<circle cx="475" cy="447" r="4" fill="white" stroke="black" />
<text x="475" y="459" font-family="Verdana" font-size="8" text-anchor="middle"  dominant-baseline="middle" fill="black" > 432</text>
<circle cx="550" cy="61" r="4" fill="white" stroke="black" />
<line x1="550" y1="65" x2="550" y2="310" stroke="black" />
<line x1="525" y1="310" x2="575" y2="310" stroke="black" />
<text x="562" y="302" font-family="Verdana" font-size="8" text-anchor="middle"  dominant-baseline="middle" fill="black" > 295</text>
<circle cx="525" cy="310" r="4" fill="white" stroke="black" />
<line x1="525" y1="314" x2="525" y2="447" stroke="black" />
<circle cx="525" cy="447" r="4" fill="white" stroke="black" />
<text x="525" y="459" font-family="Verdana" font-size="8" text-anchor="middle"  dominant-baseline="middle" fill="black" > 432</text>
<circle cx="575" cy="310" r="4" fill="white" stroke="black" />
<line x1="575" y1="314" x2="575" y2="447" stroke="black" />
<circle cx="575" cy="447" r="4" fill="white" stroke="black" />
<text x="575" y="459" font-family="Verdana" font-size="8" text-anchor="middle"  dominant-baseline="middle" fill="black" > 432</text>
<text x="700" y="7" font-family="Verdana" font-size="7" text-anchor="middle"  dominant-baseline="middle" fill="black" > C4</text>
<circle cx="700" cy="15" r="4" fill="white" stroke="black" />
<line x1="700" y1="19" x2="700" y2="162" stroke="black" />
<line x1="650" y1="162" x2="750" y2="162" stroke="black" />
<text x="725" y="154" font-family="Verdana" font-size="8" text-anchor="middle"  dominant-baseline="middle" fill="black" > 147</text>
<circle cx="650" cy="162" r="4" fill="white" stroke="black" />
<line x1="650" y1="166" x2="650" y2="376" stroke="black" />
<line x1="625" y1="376" x2="675" y2="376" stroke="black" />
<text x="662" y="368" font-family="Verdana" font-size="8" text-anchor="middle"  dominant-baseline="middle" fill="black" > 361</text>
<circle cx="625" cy="376" r="4" fill="white" stroke="black" />
<line x1="625" y1="380" x2="625" y2="447" stroke="black" />
<circle cx="625" cy="447" r="4" fill="white" stroke="black" />
<text x="625" y="459" font-family="Verdana" font-size="8" text-anchor="middle"  dominant-baseline="middle" fill="black" > 432</text>
<circle cx="675" cy="376" r="4" fill="white" stroke="black" />
<line x1="675" y1="380" x2="675" y2="447" stroke="black" />
<circle cx="675" cy="447" r="4" fill="white" stroke="black" />
<text x="675" y="459" font-family="Verdana" font-size="8" text-anchor="middle"  dominant-baseline="middle" fill="black" > 432</text>
<circle cx="750" cy="162" r="4" fill="white" stroke="black" />
<line x1="750" y1="166" x2="750" y2="344" stroke="black" />
<line x1="725" y1="344" x2="775" y2="344" stroke="black" />
<text x="762" y="336" font-family="Verdana" font-size="8" text-anchor="middle"  dominant-baseline="middle" fill="black" > 329</text>
<circle cx="725" cy="344" r="4" fill="white" stroke="black" />
<line x1="725" y1="348" x2="725" y2="447" stroke="black" />
<circle cx="725" cy="447" r="4" fill="white" stroke="black" />
<text x="725" y="459" font-family="Verdana" font-size="8" text-anchor="middle"  dominant-baseline="middle" fill="black" > 432</text>
<circle cx="775" cy="344" r="4" fill="white" stroke="black" />
<line x1="775" y1="348" x2="775" y2="447" stroke="black" />
<circle cx="775" cy="447" r="4" fill="white" stroke="black" />
<text x="775" y="459" font-family="Verdana" font-size="8" text-anchor="middle"  dominant-baseline="middle" fill="black" > 432</text>
<text x="900" y="7" font-family="Verdana" font-size="7" text-anchor="middle"  dominant-baseline="middle" fill="black" > C5</text>
<circle cx="900" cy="15" r="4" fill="white" stroke="black" />
<line x1="900" y1="19" x2="900" y2="339" stroke="black" />
<line x1="850" y1="339" x2="950" y2="339" stroke="black" />
<text x="925" y="331" font-family="Verdana" font-size="8" text-anchor="middle"  dominant-baseline="middle" fill="black" > 324</text>
<circle cx="850" cy="339" r="4" fill="white" stroke="black" />
<line x1="850" y1="343" x2="850" y2="447" stroke="black" />
<circle cx="850" cy="447" r="4" fill="white" stroke="black" />
<text x="850" y="459" font-family="Verdana" font-size="8" text-anchor="middle"  dominant-baseline="middle" fill="black" > 432</text>
<circle cx="950" cy="339" r="4" fill="white" stroke="black" />
<line x1="950" y1="343" x2="950" y2="447" stroke="black" />
<circle cx="950" cy="447" r="4" fill="white" stroke="black" />
<text x="950" y="459" font-family="Verdana" font-size="8" text-anchor="middle"  dominant-baseline="middle" fill="black" > 432</text>
<text x="1100" y="7" font-family="Verdana" font-size="7" text-anchor="middle"  dominant-baseline="middle" fill="black" > C6</text>
<circle cx="1100" cy="15" r="4" fill="white" stroke="black" />
<line x1="1100" y1="19" x2="1100" y2="80" stroke="black" />
<line x1="1050" y1="80" x2="1150" y2="80" stroke="black" />
<text x="1125" y="72" font-family="Verdana" font-size="8" text-anchor="middle"  dominant-baseline="middle" fill="black" > 65</text>
<circle cx="1050" cy="80" r="4" fill="white" stroke="black" />
<line x1="1050" y1="84" x2="1050" y2="447" stroke="black" />
<circle cx="1050" cy="447" r="4" fill="white" stroke="black" />
<text x="1050" y="459" font-family="Verdana" font-size="8" text-anchor="middle"  dominant-baseline="middle" fill="black" > 432</text>
<circle cx="1150" cy="80" r="4" fill="white" stroke="black" />
<line x1="1150" y1="84" x2="1150" y2="447" stroke="black" />
<circle cx="1150" cy="447" r="4" fill="white" stroke="black" />
<text x="1150" y="459" font-family="Verdana" font-size="8" text-anchor="middle"  dominant-baseline="middle" fill="black" > 432</text>
<text x="1300" y="7" font-family="Verdana" font-size="7" text-anchor="middle"  dominant-baseline="middle" fill="black" > C7</text>
<circle cx="1300" cy="15" r="4" fill="white" stroke="black" />
<line x1="1300" y1="19" x2="1300" y2="202" stroke="black" />
<line x1="1250" y1="202" x2="1350" y2="202" stroke="black" />
<text x="1325" y="194" font-family="Verdana" font-size="8" text-anchor="middle"  dominant-baseline="middle" fill="black" > 187</text>
<circle cx="1250" cy="202" r="4" fill="white" stroke="black" />
<line x1="1250" y1="206" x2="1250" y2="447" stroke="black" />
<circle cx="1250" cy="447" r="4" fill="white" stroke="black" />
<text x="1250" y="459" font-family="Verdana" font-size="8" text-anchor="middle"  dominant-baseline="middle" fill="black" > 432</text>
<circle cx="1350" cy="202" r="4" fill="white" stroke="black" />
<line x1="1350" y1="206" x2="1350" y2="447" stroke="black" />
<circle cx="1350" cy="447" r="4" fill="white" stroke="black" />
<text x="1350" y="459" font-family="Verdana" font-size="8" text-anchor="middle"  dominant-baseline="middle" fill="black" > 432</text>
<text x="1500" y="7" font-family="Verdana" font-size="7" text-anchor="middle"  dominant-baseline="middle" fill="black" > C8</text>
<circle cx="1500" cy="15" r="4" fill="white" stroke="black" />
<line x1="1500" y1="19" x2="1500" y2="19" stroke="black" />
<line x1="1450" y1="19" x2="1550" y2="19" stroke="black" />
<text x="1525" y="11" font-family="Verdana" font-size="8" text-anchor="middle"  dominant-baseline="middle" fill="black" > 4</text>
<circle cx="1450" cy="19" r="4" fill="white" stroke="black" />
<line x1="1450" y1="23" x2="1450" y2="231" stroke="black" />
<line x1="1425" y1="231" x2="1475" y2="231" stroke="black" />
<text x="1462" y="223" font-family="Verdana" font-size="8" text-anchor="middle"  dominant-baseline="middle" fill="black" > 216</text>
<circle cx="1425" cy="231" r="4" fill="white" stroke="black" />
<line x1="1425" y1="235" x2="1425" y2="371" stroke="black" />
<line x1="1412" y1="371" x2="1438" y2="371" stroke="black" />
<text x="1431" y="363" font-family="Verdana" font-size="8" text-anchor="middle"  dominant-baseline="middle" fill="black" > 356</text>
<circle cx="1412" cy="371" r="4" fill="white" stroke="black" />
<line x1="1412" y1="375" x2="1412" y2="447" stroke="black" />
<circle cx="1412" cy="447" r="4" fill="white" stroke="black" />
<text x="1412" y="459" font-family="Verdana" font-size="8" text-anchor="middle"  dominant-baseline="middle" fill="black" > 432</text>
<circle cx="1437" cy="371" r="4" fill="white" stroke="black" />
<line x1="1437" y1="375" x2="1437" y2="447" stroke="black" />
<circle cx="1437" cy="447" r="4" fill="white" stroke="black" />
<text x="1437" y="459" font-family="Verdana" font-size="8" text-anchor="middle"  dominant-baseline="middle" fill="black" > 432</text>
<circle cx="1475" cy="231" r="4" fill="white" stroke="black" />
<line x1="1475" y1="235" x2="1475" y2="14" stroke="black" />
<circle cx="1550" cy="19" r="4" fill="white" stroke="black" />
<line x1="1550" y1="23" x2="1550" y2="391" stroke="black" />
<line x1="1525" y1="391" x2="1575" y2="391" stroke="black" />
<text x="1562" y="383" font-family="Verdana" font-size="8" text-anchor="middle"  dominant-baseline="middle" fill="black" > 376</text>
<circle cx="1525" cy="391" r="4" fill="white" stroke="black" />
<line x1="1525" y1="395" x2="1525" y2="447" stroke="black" />
<circle cx="1525" cy="447" r="4" fill="white" stroke="black" />
<text x="1525" y="459" font-family="Verdana" font-size="8" text-anchor="middle"  dominant-baseline="middle" fill="black" > 432</text>
<circle cx="1575" cy="391" r="4" fill="white" stroke="black" />
<line x1="1575" y1="395" x2="1575" y2="447" stroke="black" />
<circle cx="1575" cy="447" r="4" fill="white" stroke="black" />
<text x="1575" y="459" font-family="Verdana" font-size="8" text-anchor="middle"  dominant-baseline="middle" fill="black" > 432</text>
<text x="1700" y="7" font-family="Verdana" font-size="7" text-anchor="middle"  dominant-baseline="middle" fill="black" > C9</text>
<circle cx="1700" cy="15" r="4" fill="white" stroke="black" />
<line x1="1700" y1="19" x2="1700" y2="170" stroke="black" />
<line x1="1650" y1="170" x2="1750" y2="170" stroke="black" />
<text x="1725" y="162" font-family="Verdana" font-size="8" text-anchor="middle"  dominant-baseline="middle" fill="black" > 155</text>
<circle cx="1650" cy="170" r="4" fill="white" stroke="black" />
<line x1="1650" y1="174" x2="1650" y2="447" stroke="black" />
<circle cx="1650" cy="447" r="4" fill="white" stroke="black" />
<text x="1650" y="459" font-family="Verdana" font-size="8" text-anchor="middle"  dominant-baseline="middle" fill="black" > 432</text>
<circle cx="1750" cy="170" r="4" fill="white" stroke="black" />
<line x1="1750" y1="174" x2="1750" y2="298" stroke="black" />
<line x1="1725" y1="298" x2="1775" y2="298" stroke="black" />
<text x="1762" y="290" font-family="Verdana" font-size="8" text-anchor="middle"  dominant-baseline="middle" fill="black" > 283</text>
<circle cx="1725" cy="298" r="4" fill="white" stroke="black" />
<line x1="1725" y1="302" x2="1725" y2="447" stroke="black" />
<circle cx="1725" cy="447" r="4" fill="white" stroke="black" />
<text x="1725" y="459" font-family="Verdana" font-size="8" text-anchor="middle"  dominant-baseline="middle" fill="black" > 432</text>
<circle cx="1775" cy="298" r="4" fill="white" stroke="black" />
<line x1="1775" y1="302" x2="1775" y2="447" stroke="black" />
<circle cx="1775" cy="447" r="4" fill="white" stroke="black" />
<text x="1775" y="459" font-family="Verdana" font-size="8" text-anchor="middle"  dominant-baseline="middle" fill="black" > 432</text>
<text x="1900" y="7" font-family="Verdana" font-size="7" text-anchor="middle"  dominant-baseline="middle" fill="black" > C10</text>
<circle cx="1900" cy="15" r="4" fill="white" stroke="black" />
<line x1="1900" y1="19" x2="1900" y2="192" stroke="black" />
<line x1="1850" y1="192" x2="1950" y2="192" stroke="black" />
<text x="1925" y="184" font-family="Verdana" font-size="8" text-anchor="middle"  dominant-baseline="middle" fill="black" > 177</text>
<circle cx="1850" cy="192" r="4" fill="white" stroke="black" />
<line x1="1850" y1="196" x2="1850" y2="330" stroke="black" />
<line x1="1825" y1="330" x2="1875" y2="330" stroke="black" />
<text x="1862" y="322" font-family="Verdana" font-size="8" text-anchor="middle"  dominant-baseline="middle" fill="black" > 315</text>
<circle cx="1825" cy="330" r="4" fill="white" stroke="black" />
<line x1="1825" y1="334" x2="1825" y2="447" stroke="black" />
<circle cx="1825" cy="447" r="4" fill="white" stroke="black" />
<text x="1825" y="459" font-family="Verdana" font-size="8" text-anchor="middle"  dominant-baseline="middle" fill="black" > 432</text>
<circle cx="1875" cy="330" r="4" fill="white" stroke="black" />
<line x1="1875" y1="334" x2="1875" y2="447" stroke="black" />
<circle cx="1875" cy="447" r="4" fill="white" stroke="black" />
<text x="1875" y="459" font-family="Verdana" font-size="8" text-anchor="middle"  dominant-baseline="middle" fill="black" > 432</text>
<circle cx="1950" cy="192" r="4" fill="white" stroke="black" />
<line x1="1950" y1="196" x2="1950" y2="327" stroke="black" />
<line x1="1925" y1="327" x2="1975" y2="327" stroke="black" />
<text x="1962" y="319" font-family="Verdana" font-size="8" text-anchor="middle"  dominant-baseline="middle" fill="black" > 312</text>
<circle cx="1925" cy="327" r="4" fill="white" stroke="black" />
<line x1="1925" y1="331" x2="1925" y2="447" stroke="black" />
<circle cx="1925" cy="447" r="4" fill="white" stroke="black" />
<text x="1925" y="459" font-family="Verdana" font-size="8" text-anchor="middle"  dominant-baseline="middle" fill="black" > 432</text>
<circle cx="1975" cy="327" r="4" fill="white" stroke="black" />
<line x1="1975" y1="331" x2="1975" y2="447" stroke="black" />
<circle cx="1975" cy="447" r="4" fill="white" stroke="black" />
<text x="1975" y="459" font-family="Verdana" font-size="8" text-anchor="middle"  dominant-baseline="middle" fill="black" > 432</text>
</svg>
