<?xml version="1.0" encoding="utf-8"?>
<svg xmlns="http://www.w3.org/2000/svg" version="1.1" width="1550" height="750">
<rect width="1550" height="15" x="0" y="0" fill="white" />
<rect width="1550" height="15" x="0" y="735" fill="white" />
<rect width="25" height="750" x="0" y="0" fill="white" />
<rect width="25" height="750" x="1525" y="0" fill="white" />
<rect width="1510" height="144" x="25" y="15" fill="ghostwhite" />
<rect width="1510" height="144" x="25" y="159" fill="snow" />
<rect width="1510" height="144" x="25" y="303" fill="ghostwhite" />
<rect width="1510" height="144" x="25" y="447" fill="snow" />
<rect width="1510" height="144" x="25" y="591" fill="ghostwhite" />
<text x="12" y="87" font-family="Verdana" font-size="10" text-anchor="middle"  dominant-baseline="middle" fill="red" > D0</text>
<text x="12" y="231" font-family="Verdana" font-size="10" text-anchor="middle"  dominant-baseline="middle" fill="red" > D1</text>
<text x="12" y="375" font-family="Verdana" font-size="10" text-anchor="middle"  dominant-baseline="middle" fill="red" > D2</text>
<text x="12" y="519" font-family="Verdana" font-size="10" text-anchor="middle"  dominant-baseline="middle" fill="red" > D3</text>
<text x="12" y="663" font-family="Verdana" font-size="10" text-anchor="middle"  dominant-baseline="middle" fill="red" > D4</text>
<text x="12" y="20" font-family="Verdana" font-size="10" text-anchor="middle"  dominant-baseline="middle" fill="black" > 0</text>
<text x="12" y="164" font-family="Verdana" font-size="10" text-anchor="middle"  dominant-baseline="middle" fill="black" > 144</text>
<text x="12" y="308" font-family="Verdana" font-size="10" text-anchor="middle"  dominant-baseline="middle" fill="black" > 288</text>
<text x="12" y="452" font-family="Verdana" font-size="10" text-anchor="middle"  dominant-baseline="middle" fill="black" > 432</text>
<text x="12" y="596" font-family="Verdana" font-size="10" text-anchor="middle"  dominant-baseline="middle" fill="black" > 576</text>
<text x="12" y="740" font-family="Verdana" font-size="10" text-anchor="middle"  dominant-baseline="middle" fill="black" > 720</text>
<text x="50" y="7" font-family="Verdana" font-size="7" text-anchor="middle"  dominant-baseline="middle" fill="black" > C1</text>
<circle cx="50" cy="15" r="4" fill="white" stroke="black" />
<line x1="50" y1="19" x2="50" y2="258" stroke="black" />
<line x1="46" y1="262" x2="50" y2="254" stroke="blue" />
<line x1="50" y1="262" x2="54" y2="254" stroke="blue" />
<text x="50" y="270" font-family="Verdana" font-size="8" text-anchor="middle"  dominant-baseline="middle" fill="black" > 243</text>
<text x="200" y="7" font-family="Verdana" font-size="7" text-anchor="middle"  dominant-baseline="middle" fill="black" > C2</text>
<circle cx="200" cy="15" r="4" fill="white" stroke="black" />
<line x1="200" y1="19" x2="200" y2="133" stroke="black" />
<line x1="150" y1="133" x2="250" y2="133" stroke="black" />
<text x="225" y="125" font-family="Verdana" font-size="8" text-anchor="middle"  dominant-baseline="middle" fill="black" > 118</text>
<circle cx="150" cy="133" r="4" fill="white" stroke="black" />
<line x1="150" y1="137" x2="150" y2="324" stroke="black" />
<line x1="125" y1="324" x2="175" y2="324" stroke="black" />
<text x="162" y="316" font-family="Verdana" font-size="8" text-anchor="middle"  dominant-baseline="middle" fill="black" > 309</text>
<circle cx="125" cy="324" r="4" fill="white" stroke="black" />
<line x1="125" y1="328" x2="125" y2="447" stroke="black" />
<circle cx="125" cy="447" r="4" fill="white" stroke="black" />
<text x="125" y="459" font-family="Verdana" font-size="8" text-anchor="middle"  dominant-baseline="middle" fill="black" > 432</text>
<circle cx="175" cy="324" r="4" fill="white" stroke="black" />
<line x1="175" y1="328" x2="175" y2="447" stroke="black" />
<circle cx="175" cy="447" r="4" fill="white" stroke="black" />
<text x="175" y="459" font-family="Verdana" font-size="8" text-anchor="middle"  dominant-baseline="middle" fill="black" > 432</text>
<circle cx="250" cy="133" r="4" fill="white" stroke="black" />
<line x1="250" y1="137" x2="250" y2="307" stroke="black" />
<line x1="225" y1="307" x2="275" y2="307" stroke="black" />
<text x="262" y="299" font-family="Verdana" font-size="8" text-anchor="middle"  dominant-baseline="middle" fill="black" > 292</text>
<circle cx="225" cy="307" r="4" fill="white" stroke="black" />
<line x1="225" y1="311" x2="225" y2="447" stroke="black" />
<circle cx="225" cy="447" r="4" fill="white" stroke="black" />
<text x="225" y="459" font-family="Verdana" font-size="8" text-anchor="middle"  dominant-baseline="middle" fill="black" > 432</text>
<circle cx="275" cy="307" r="4" fill="white" stroke="black" />
<line x1="275" y1="311" x2="275" y2="447" stroke="black" />
<circle cx="275" cy="447" r="4" fill="white" stroke="black" />
<text x="275" y="459" font-family="Verdana" font-size="8" text-anchor="middle"  dominant-baseline="middle" fill="black" > 432</text>
<text x="400" y="7" font-family="Verdana" font-size="7" text-anchor="middle"  dominant-baseline="middle" fill="black" > C3</text>
<circle cx="400" cy="15" r="4" fill="white" stroke="black" />
<line x1="400" y1="19" x2="400" y2="149" stroke="black" />
<line x1="350" y1="149" x2="450" y2="149" stroke="black" />
<text x="425" y="141" font-family="Verdana" font-size="8" text-anchor="middle"  dominant-baseline="middle" fill="black" > 134</text>
<circle cx="350" cy="149" r="4" fill="white" stroke="black" />
<line x1="350" y1="153" x2="350" y2="376" stroke="black" />
<line x1="325" y1="376" x2="375" y2="376" stroke="black" />
<text x="362" y="368" font-family="Verdana" font-size="8" text-anchor="middle"  dominant-baseline="middle" fill="black" > 361</text>
<circle cx="325" cy="376" r="4" fill="white" stroke="black" />
<line x1="325" y1="380" x2="325" y2="447" stroke="black" />
<circle cx="325" cy="447" r="4" fill="white" stroke="black" />
<text x="325" y="459" font-family="Verdana" font-size="8" text-anchor="middle"  dominant-baseline="middle" fill="black" > 432</text>
<circle cx="375" cy="376" r="4" fill="white" stroke="black" />
<line x1="375" y1="380" x2="375" y2="447" stroke="black" />
<circle cx="375" cy="447" r="4" fill="white" stroke="black" />
<text x="375" y="459" font-family="Verdana" font-size="8" text-anchor="middle"  dominant-baseline="middle" fill="black" > 432</text>
<circle cx="450" cy="149" r="4" fill="white" stroke="black" />
<line x1="450" y1="153" x2="450" y2="365" stroke="black" />
<line x1="425" y1="365" x2="475" y2="365" stroke="black" />
<text x="462" y="357" font-family="Verdana" font-size="8" text-anchor="middle"  dominant-baseline="middle" fill="black" > 350</text>
<circle cx="425" cy="365" r="4" fill="white" stroke="black" />
<line x1="425" y1="369" x2="425" y2="447" stroke="black" />
<circle cx="425" cy="447" r="4" fill="white" stroke="black" />
<text x="425" y="459" font-family="Verdana" font-size="8" text-anchor="middle"  dominant-baseline="middle" fill="black" > 432</text>
<circle cx="475" cy="365" r="4" fill="white" stroke="black" />
<line x1="475" y1="369" x2="475" y2="447" stroke="black" />
<circle cx="475" cy="447" r="4" fill="white" stroke="black" />
<text x="475" y="459" font-family="Verdana" font-size="8" text-anchor="middle"  dominant-baseline="middle" fill="black" > 432</text>
<text x="550" y="7" font-family="Verdana" font-size="7" text-anchor="middle"  dominant-baseline="middle" fill="black" > C4</text>
<circle cx="550" cy="15" r="4" fill="white" stroke="black" />
<line x1="550" y1="19" x2="550" y2="321" stroke="black" />
<line x1="546" y1="317" x2="554" y2="325" stroke="red" />
<line x1="546" y1="325" x2="554" y2="317" stroke="red" />
<text x="550" y="333" font-family="Verdana" font-size="8" text-anchor="middle"  dominant-baseline="middle" fill="black" > 306</text>
<text x="650" y="7" font-family="Verdana" font-size="7" text-anchor="middle"  dominant-baseline="middle" fill="black" > C5</text>
<circle cx="650" cy="15" r="4" fill="white" stroke="black" />
<line x1="650" y1="19" x2="650" y2="333" stroke="black" />
<line x1="646" y1="329" x2="654" y2="337" stroke="red" />
<line x1="646" y1="337" x2="654" y2="329" stroke="red" />
<text x="650" y="345" font-family="Verdana" font-size="8" text-anchor="middle"  dominant-baseline="middle" fill="black" > 318</text>
<text x="800" y="7" font-family="Verdana" font-size="7" text-anchor="middle"  dominant-baseline="middle" fill="black" > C6</text>
<circle cx="800" cy="15" r="4" fill="white" stroke="black" />
<line x1="800" y1="19" x2="800" y2="40" stroke="black" />
<line x1="750" y1="40" x2="850" y2="40" stroke="black" />
<text x="825" y="32" font-family="Verdana" font-size="8" text-anchor="middle"  dominant-baseline="middle" fill="black" > 25</text>
<circle cx="750" cy="40" r="4" fill="white" stroke="black" />
<line x1="750" y1="44" x2="750" y2="236" stroke="black" />
<line x1="725" y1="236" x2="775" y2="236" stroke="black" />
<text x="762" y="228" font-family="Verdana" font-size="8" text-anchor="middle"  dominant-baseline="middle" fill="black" > 221</text>
<circle cx="725" cy="236" r="4" fill="white" stroke="black" />
<line x1="725" y1="240" x2="725" y2="447" stroke="black" />
<circle cx="725" cy="447" r="4" fill="white" stroke="black" />
<text x="725" y="459" font-family="Verdana" font-size="8" text-anchor="middle"  dominant-baseline="middle" fill="black" > 432</text>
<circle cx="775" cy="236" r="4" fill="white" stroke="black" />
<line x1="775" y1="240" x2="775" y2="447" stroke="black" />
<circle cx="775" cy="447" r="4" fill="white" stroke="black" />
<text x="775" y="459" font-family="Verdana" font-size="8" text-anchor="middle"  dominant-baseline="middle" fill="black" > 432</text>
<circle cx="850" cy="40" r="4" fill="white" stroke="black" />
<line x1="850" y1="44" x2="850" y2="220" stroke="black" />
<line x1="825" y1="220" x2="875" y2="220" stroke="black" />
<text x="862" y="212" font-family="Verdana" font-size="8" text-anchor="middle"  dominant-baseline="middle" fill="black" > 205</text>
<circle cx="825" cy="220" r="4" fill="white" stroke="black" />
<line x1="825" y1="224" x2="825" y2="447" stroke="black" />
<circle cx="825" cy="447" r="4" fill="white" stroke="black" />
<text x="825" y="459" font-family="Verdana" font-size="8" text-anchor="middle"  dominant-baseline="middle" fill="black" > 432</text>
<circle cx="875" cy="220" r="4" fill="white" stroke="black" />
<line x1="875" y1="224" x2="875" y2="447" stroke="black" />
<circle cx="875" cy="447" r="4" fill="white" stroke="black" />
<text x="875" y="459" font-family="Verdana" font-size="8" text-anchor="middle"  dominant-baseline="middle" fill="black" > 432</text>
<text x="1000" y="7" font-family="Verdana" font-size="7" text-anchor="middle"  dominant-baseline="middle" fill="black" > C7</text>
<circle cx="1000" cy="15" r="4" fill="white" stroke="black" />
<line x1="1000" y1="19" x2="1000" y2="342" stroke="black" />
<line x1="950" y1="342" x2="1050" y2="342" stroke="black" />
<text x="1025" y="334" font-family="Verdana" font-size="8" text-anchor="middle"  dominant-baseline="middle" fill="black" > 327</text>
<circle cx="950" cy="342" r="4" fill="white" stroke="black" />
<circle cx="1050" cy="342" r="4" fill="white" stroke="black" />
<line x1="950" y1="346" x2="950" y2="350" stroke="black" />
<line x1="950" y1="350" x2="1000" y2="352" stroke="black" />
<line x1="1050" y1="346" x2="1050" y2="350" stroke="black" />
<line x1="1050" y1="350" x2="1000" y2="352" stroke="black" />
<text x="1000" y="340" font-family="Verdana" font-size="8" text-anchor="middle"  dominant-baseline="middle" fill="black" > 337</text>
<circle cx="1000" cy="352" r="4" fill="white" stroke="black" />
<line x1="1000" y1="356" x2="1000" y2="368" stroke="black" />
<line x1="996" y1="364" x2="1004" y2="372" stroke="red" />
<line x1="996" y1="372" x2="1004" y2="364" stroke="red" />
<text x="1000" y="380" font-family="Verdana" font-size="8" text-anchor="middle"  dominant-baseline="middle" fill="black" > 353</text>
<text x="1150" y="7" font-family="Verdana" font-size="7" text-anchor="middle"  dominant-baseline="middle" fill="black" > C8</text>
<circle cx="1150" cy="15" r="4" fill="white" stroke="black" />
<line x1="1150" y1="19" x2="1150" y2="278" stroke="black" />
<line x1="1146" y1="274" x2="1154" y2="282" stroke="red" />
<line x1="1146" y1="282" x2="1154" y2="274" stroke="red" />
<text x="1150" y="290" font-family="Verdana" font-size="8" text-anchor="middle"  dominant-baseline="middle" fill="black" > 263</text>
<text x="1300" y="7" font-family="Verdana" font-size="7" text-anchor="middle"  dominant-baseline="middle" fill="black" > C9</text>
<circle cx="1300" cy="15" r="4" fill="white" stroke="black" />
<line x1="1300" y1="19" x2="1300" y2="210" stroke="black" />
<line x1="1250" y1="210" x2="1350" y2="210" stroke="black" />
<text x="1325" y="202" font-family="Verdana" font-size="8" text-anchor="middle"  dominant-baseline="middle" fill="black" > 195</text>
<circle cx="1250" cy="210" r="4" fill="white" stroke="black" />
<line x1="1250" y1="214" x2="1250" y2="397" stroke="black" />
<line x1="1246" y1="401" x2="1250" y2="393" stroke="blue" />
<line x1="1250" y1="401" x2="1254" y2="393" stroke="blue" />
<text x="1250" y="409" font-family="Verdana" font-size="8" text-anchor="middle"  dominant-baseline="middle" fill="black" > 382</text>
<circle cx="1350" cy="210" r="4" fill="white" stroke="black" />
<line x1="1350" y1="214" x2="1350" y2="397" stroke="black" />
<line x1="1346" y1="401" x2="1350" y2="393" stroke="blue" />
<line x1="1350" y1="401" x2="1354" y2="393" stroke="blue" />
<text x="1350" y="409" font-family="Verdana" font-size="8" text-anchor="middle"  dominant-baseline="middle" fill="black" > 382</text>
<text x="1450" y="7" font-family="Verdana" font-size="7" text-anchor="middle"  dominant-baseline="middle" fill="black" > C10</text>
<circle cx="1450" cy="15" r="4" fill="white" stroke="black" />
<line x1="1450" y1="19" x2="1450" y2="397" stroke="black" />
<line x1="1446" y1="401" x2="1450" y2="393" stroke="blue" />
<line x1="1450" y1="401" x2="1454" y2="393" stroke="blue" />
<text x="1450" y="409" font-family="Verdana" font-size="8" text-anchor="middle"  dominant-baseline="middle" fill="black" > 382</text>
</svg>
