<?xml version="1.0" encoding="utf-8"?>
<svg xmlns="http://www.w3.org/2000/svg" version="1.1" width="1250" height="750">
<rect width="1250" height="15" x="0" y="0" fill="white" />
<rect width="1250" height="15" x="0" y="735" fill="white" />
<rect width="25" height="750" x="0" y="0" fill="white" />
<rect width="25" height="750" x="1225" y="0" fill="white" />
<rect width="1210" height="144" x="25" y="15" fill="ghostwhite" />
<rect width="1210" height="144" x="25" y="159" fill="snow" />
<rect width="1210" height="144" x="25" y="303" fill="ghostwhite" />
<rect width="1210" height="144" x="25" y="447" fill="snow" />
<rect width="1210" height="144" x="25" y="591" fill="ghostwhite" />
<text x="12" y="87" font-family="Verdana" font-size="10" text-anchor="middle"  dominant-baseline="middle" fill="red" > D0</text>
<text x="12" y="231" font-family="Verdana" font-size="10" text-anchor="middle"  dominant-baseline="middle" fill="red" > D1</text>
<text x="12" y="375" font-family="Verdana" font-size="10" text-anchor="middle"  dominant-baseline="middle" fill="red" > D2</text>
<text x="12" y="519" font-family="Verdana" font-size="10" text-anchor="middle"  dominant-baseline="middle" fill="red" > D3</text>
<text x="12" y="663" font-family="Verdana" font-size="10" text-anchor="middle"  dominant-baseline="middle" fill="red" > D4</text>
<text x="12" y="20" font-family="Verdana" font-size="10" text-anchor="middle"  dominant-baseline="middle" fill="black" > 0</text>
<text x="12" y="164" font-family="Verdana" font-size="10" text-anchor="middle"  dominant-baseline="middle" fill="black" > 144</text>
<text x="12" y="308" font-family="Verdana" font-size="10" text-anchor="middle"  dominant-baseline="middle" fill="black" > 288</text>
<text x="12" y="452" font-family="Verdana" font-size="10" text-anchor="middle"  dominant-baseline="middle" fill="black" > 432</text>
<text x="12" y="596" font-family="Verdana" font-size="10" text-anchor="middle"  dominant-baseline="middle" fill="black" > 576</text>
<text x="12" y="740" font-family="Verdana" font-size="10" text-anchor="middle"  dominant-baseline="middle" fill="black" > 720</text>
<text x="100" y="7" font-family="Verdana" font-size="7" text-anchor="middle"  dominant-baseline="middle" fill="black" > C1</text>
<circle cx="100" cy="15" r="4" fill="white" stroke="black" />
<line x1="100" y1="19" x2="100" y2="207" stroke="black" />
<line x1="50" y1="207" x2="150" y2="207" stroke="black" />
<text x="125" y="199" font-family="Verdana" font-size="8" text-anchor="middle"  dominant-baseline="middle" fill="black" > 192</text>
<circle cx="50" cy="207" r="4" fill="white" stroke="black" />
<line x1="50" y1="211" x2="50" y2="366" stroke="black" />
<line x1="25" y1="366" x2="75" y2="366" stroke="black" />
<text x="62" y="358" font-family="Verdana" font-size="8" text-anchor="middle"  dominant-baseline="middle" fill="black" > 351</text>
<circle cx="25" cy="366" r="4" fill="white" stroke="black" />
<line x1="25" y1="370" x2="25" y2="447" stroke="black" />
<circle cx="25" cy="447" r="4" fill="white" stroke="black" />
<text x="25" y="459" font-family="Verdana" font-size="8" text-anchor="middle"  dominant-baseline="middle" fill="black" > 432</text>
<circle cx="75" cy="366" r="4" fill="white" stroke="black" />
<line x1="75" y1="370" x2="75" y2="447" stroke="black" />
<circle cx="75" cy="447" r="4" fill="white" stroke="black" />
<text x="75" y="459" font-family="Verdana" font-size="8" text-anchor="middle"  dominant-baseline="middle" fill="black" > 432</text>
<circle cx="150" cy="207" r="4" fill="white" stroke="black" />
<line x1="150" y1="211" x2="150" y2="354" stroke="black" />
<line x1="125" y1="354" x2="175" y2="354" stroke="black" />
<text x="162" y="346" font-family="Verdana" font-size="8" text-anchor="middle"  dominant-baseline="middle" fill="black" > 339</text>
<circle cx="125" cy="354" r="4" fill="white" stroke="black" />
<line x1="125" y1="358" x2="125" y2="447" stroke="black" />
<circle cx="125" cy="447" r="4" fill="white" stroke="black" />
<text x="125" y="459" font-family="Verdana" font-size="8" text-anchor="middle"  dominant-baseline="middle" fill="black" > 432</text>
<circle cx="175" cy="354" r="4" fill="white" stroke="black" />
<line x1="175" y1="358" x2="175" y2="447" stroke="black" />
<circle cx="175" cy="447" r="4" fill="white" stroke="black" />
<text x="175" y="459" font-family="Verdana" font-size="8" text-anchor="middle"  dominant-baseline="middle" fill="black" > 432</text>
<text x="350" y="7" font-family="Verdana" font-size="7" text-anchor="middle"  dominant-baseline="middle" fill="black" > C2</text>
<circle cx="350" cy="15" r="4" fill="white" stroke="black" />
<line x1="350" y1="19" x2="350" y2="285" stroke="black" />
<line x1="250" y1="285" x2="450" y2="285" stroke="black" />
<text x="375" y="277" font-family="Verdana" font-size="8" text-anchor="middle"  dominant-baseline="middle" fill="black" > 270</text>
<circle cx="250" cy="285" r="4" fill="white" stroke="black" />
<line x1="250" y1="289" x2="250" y2="447" stroke="black" />
<circle cx="250" cy="447" r="4" fill="white" stroke="black" />
<text x="250" y="459" font-family="Verdana" font-size="8" text-anchor="middle"  dominant-baseline="middle" fill="black" > 432</text>
<circle cx="350" cy="285" r="4" fill="white" stroke="black" />
<line x1="350" y1="289" x2="350" y2="447" stroke="black" />
<circle cx="350" cy="447" r="4" fill="white" stroke="black" />
<text x="350" y="459" font-family="Verdana" font-size="8" text-anchor="middle"  dominant-baseline="middle" fill="black" > 432</text>
<circle cx="450" cy="285" r="4" fill="white" stroke="black" />
<line x1="450" y1="289" x2="450" y2="406" stroke="black" />
<line x1="446" y1="402" x2="454" y2="410" stroke="red" />
<line x1="446" y1="410" x2="454" y2="402" stroke="red" />
<text x="450" y="418" font-family="Verdana" font-size="8" text-anchor="middle"  dominant-baseline="middle" fill="black" > 391</text>
<text x="600" y="7" font-family="Verdana" font-size="7" text-anchor="middle"  dominant-baseline="middle" fill="black" > C3</text>
<circle cx="600" cy="15" r="4" fill="white" stroke="black" />
<line x1="600" y1="19" x2="600" y2="73" stroke="black" />
<line x1="550" y1="73" x2="650" y2="73" stroke="black" />
<text x="625" y="65" font-family="Verdana" font-size="8" text-anchor="middle"  dominant-baseline="middle" fill="black" > 58</text>
<circle cx="550" cy="73" r="4" fill="white" stroke="black" />
<line x1="550" y1="77" x2="550" y2="189" stroke="black" />
<line x1="546" y1="185" x2="554" y2="193" stroke="red" />
<line x1="546" y1="193" x2="554" y2="185" stroke="red" />
<text x="550" y="201" font-family="Verdana" font-size="8" text-anchor="middle"  dominant-baseline="middle" fill="black" > 174</text>
<circle cx="650" cy="73" r="4" fill="white" stroke="black" />
<line x1="650" y1="77" x2="650" y2="258" stroke="black" />
<line x1="625" y1="258" x2="675" y2="258" stroke="black" />
<text x="662" y="250" font-family="Verdana" font-size="8" text-anchor="middle"  dominant-baseline="middle" fill="black" > 243</text>
<circle cx="625" cy="258" r="4" fill="white" stroke="black" />
<line x1="625" y1="262" x2="625" y2="382" stroke="black" />
<line x1="612" y1="382" x2="638" y2="382" stroke="black" />
<text x="631" y="374" font-family="Verdana" font-size="8" text-anchor="middle"  dominant-baseline="middle" fill="black" > 367</text>
<circle cx="612" cy="382" r="4" fill="white" stroke="black" />
<line x1="612" y1="386" x2="612" y2="447" stroke="black" />
<circle cx="612" cy="447" r="4" fill="white" stroke="black" />
<text x="612" y="459" font-family="Verdana" font-size="8" text-anchor="middle"  dominant-baseline="middle" fill="black" > 432</text>
<circle cx="637" cy="382" r="4" fill="white" stroke="black" />
<line x1="637" y1="386" x2="637" y2="447" stroke="black" />
<circle cx="637" cy="447" r="4" fill="white" stroke="black" />
<text x="637" y="459" font-family="Verdana" font-size="8" text-anchor="middle"  dominant-baseline="middle" fill="black" > 432</text>
<circle cx="675" cy="258" r="4" fill="white" stroke="black" />
<line x1="675" y1="262" x2="675" y2="381" stroke="black" />
<line x1="662" y1="381" x2="688" y2="381" stroke="black" />
<text x="681" y="373" font-family="Verdana" font-size="8" text-anchor="middle"  dominant-baseline="middle" fill="black" > 366</text>
<circle cx="662" cy="381" r="4" fill="white" stroke="black" />
<line x1="662" y1="385" x2="662" y2="447" stroke="black" />
<circle cx="662" cy="447" r="4" fill="white" stroke="black" />
<text x="662" y="459" font-family="Verdana" font-size="8" text-anchor="middle"  dominant-baseline="middle" fill="black" > 432</text>
<circle cx="687" cy="381" r="4" fill="white" stroke="black" />
<line x1="687" y1="385" x2="687" y2="447" stroke="black" />
<circle cx="687" cy="447" r="4" fill="white" stroke="black" />
<text x="687" y="459" font-family="Verdana" font-size="8" text-anchor="middle"  dominant-baseline="middle" fill="black" > 432</text>
<text x="800" y="7" font-family="Verdana" font-size="7" text-anchor="middle"  dominant-baseline="middle" fill="black" > C4</text>
<circle cx="800" cy="15" r="4" fill="white" stroke="black" />
<line x1="800" y1="19" x2="800" y2="217" stroke="black" />
<line x1="750" y1="217" x2="850" y2="217" stroke="black" />
<text x="825" y="209" font-family="Verdana" font-size="8" text-anchor="middle"  dominant-baseline="middle" fill="black" > 202</text>
<circle cx="750" cy="217" r="4" fill="white" stroke="black" />
<line x1="750" y1="221" x2="750" y2="299" stroke="black" />
<line x1="746" y1="295" x2="754" y2="303" stroke="red" />
<line x1="746" y1="303" x2="754" y2="295" stroke="red" />
<text x="750" y="311" font-family="Verdana" font-size="8" text-anchor="middle"  dominant-baseline="middle" fill="black" > 284</text>
<circle cx="850" cy="217" r="4" fill="white" stroke="black" />
<line x1="850" y1="221" x2="850" y2="353" stroke="black" />
<line x1="825" y1="353" x2="875" y2="353" stroke="black" />
<text x="862" y="345" font-family="Verdana" font-size="8" text-anchor="middle"  dominant-baseline="middle" fill="black" > 338</text>
<circle cx="825" cy="353" r="4" fill="white" stroke="black" />
<line x1="825" y1="357" x2="825" y2="447" stroke="black" />
<circle cx="825" cy="447" r="4" fill="white" stroke="black" />
<text x="825" y="459" font-family="Verdana" font-size="8" text-anchor="middle"  dominant-baseline="middle" fill="black" > 432</text>
<circle cx="875" cy="353" r="4" fill="white" stroke="black" />
<line x1="875" y1="357" x2="875" y2="446" stroke="black" />
<line x1="862" y1="446" x2="888" y2="446" stroke="black" />
<text x="881" y="438" font-family="Verdana" font-size="8" text-anchor="middle"  dominant-baseline="middle" fill="black" > 431</text>
<circle cx="862" cy="446" r="4" fill="white" stroke="black" />
<line x1="862" y1="450" x2="862" y2="447" stroke="black" />
<circle cx="862" cy="447" r="4" fill="white" stroke="black" />
<text x="862" y="459" font-family="Verdana" font-size="8" text-anchor="middle"  dominant-baseline="middle" fill="black" > 432</text>
<circle cx="887" cy="446" r="4" fill="white" stroke="black" />
<line x1="887" y1="450" x2="887" y2="447" stroke="black" />
<circle cx="887" cy="447" r="4" fill="white" stroke="black" />
<text x="887" y="459" font-family="Verdana" font-size="8" text-anchor="middle"  dominant-baseline="middle" fill="black" > 432</text>
<text x="1000" y="7" font-family="Verdana" font-size="7" text-anchor="middle"  dominant-baseline="middle" fill="black" > C6</text>
<circle cx="1000" cy="15" r="4" fill="white" stroke="black" />
<line x1="1000" y1="19" x2="1000" y2="192" stroke="black" />
<line x1="950" y1="192" x2="1050" y2="192" stroke="black" />
<text x="1025" y="184" font-family="Verdana" font-size="8" text-anchor="middle"  dominant-baseline="middle" fill="black" > 177</text>
<circle cx="950" cy="192" r="4" fill="white" stroke="black" />
<line x1="950" y1="196" x2="950" y2="329" stroke="black" />
<line x1="925" y1="329" x2="975" y2="329" stroke="black" />
<text x="962" y="321" font-family="Verdana" font-size="8" text-anchor="middle"  dominant-baseline="middle" fill="black" > 314</text>
<circle cx="925" cy="329" r="4" fill="white" stroke="black" />
<line x1="925" y1="333" x2="925" y2="447" stroke="black" />
<circle cx="925" cy="447" r="4" fill="white" stroke="black" />
<text x="925" y="459" font-family="Verdana" font-size="8" text-anchor="middle"  dominant-baseline="middle" fill="black" > 432</text>
<circle cx="975" cy="329" r="4" fill="white" stroke="black" />
<line x1="975" y1="333" x2="975" y2="446" stroke="black" />
<line x1="962" y1="446" x2="988" y2="446" stroke="black" />
<text x="981" y="438" font-family="Verdana" font-size="8" text-anchor="middle"  dominant-baseline="middle" fill="black" > 431</text>
<circle cx="962" cy="446" r="4" fill="white" stroke="black" />
<line x1="962" y1="450" x2="962" y2="447" stroke="black" />
<circle cx="962" cy="447" r="4" fill="white" stroke="black" />
<text x="962" y="459" font-family="Verdana" font-size="8" text-anchor="middle"  dominant-baseline="middle" fill="black" > 432</text>
<circle cx="987" cy="446" r="4" fill="white" stroke="black" />
<line x1="987" y1="450" x2="987" y2="447" stroke="black" />
<circle cx="987" cy="447" r="4" fill="white" stroke="black" />
<text x="987" y="459" font-family="Verdana" font-size="8" text-anchor="middle"  dominant-baseline="middle" fill="black" > 432</text>
<circle cx="1050" cy="192" r="4" fill="white" stroke="black" />
<line x1="1050" y1="196" x2="1050" y2="310" stroke="black" />
<line x1="1025" y1="310" x2="1075" y2="310" stroke="black" />
<text x="1062" y="302" font-family="Verdana" font-size="8" text-anchor="middle"  dominant-baseline="middle" fill="black" > 295</text>
<circle cx="1025" cy="310" r="4" fill="white" stroke="black" />
<line x1="1025" y1="314" x2="1025" y2="428" stroke="black" />
<line x1="1012" y1="428" x2="1038" y2="428" stroke="black" />
<text x="1031" y="420" font-family="Verdana" font-size="8" text-anchor="middle"  dominant-baseline="middle" fill="black" > 413</text>
<circle cx="1012" cy="428" r="4" fill="white" stroke="black" />
<line x1="1012" y1="432" x2="1012" y2="447" stroke="black" />
<circle cx="1012" cy="447" r="4" fill="white" stroke="black" />
<text x="1012" y="459" font-family="Verdana" font-size="8" text-anchor="middle"  dominant-baseline="middle" fill="black" > 432</text>
<circle cx="1037" cy="428" r="4" fill="white" stroke="black" />
<line x1="1037" y1="432" x2="1037" y2="447" stroke="black" />
<circle cx="1037" cy="447" r="4" fill="white" stroke="black" />
<text x="1037" y="459" font-family="Verdana" font-size="8" text-anchor="middle"  dominant-baseline="middle" fill="black" > 432</text>
<circle cx="1075" cy="310" r="4" fill="white" stroke="black" />
<line x1="1075" y1="314" x2="1075" y2="418" stroke="black" />
<line x1="1062" y1="418" x2="1088" y2="418" stroke="black" />
<text x="1081" y="410" font-family="Verdana" font-size="8" text-anchor="middle"  dominant-baseline="middle" fill="black" > 403</text>
<circle cx="1062" cy="418" r="4" fill="white" stroke="black" />
<line x1="1062" y1="422" x2="1062" y2="447" stroke="black" />
<circle cx="1062" cy="447" r="4" fill="white" stroke="black" />
<text x="1062" y="459" font-family="Verdana" font-size="8" text-anchor="middle"  dominant-baseline="middle" fill="black" > 432</text>
<circle cx="1087" cy="418" r="4" fill="white" stroke="black" />
<line x1="1087" y1="422" x2="1087" y2="447" stroke="black" />
<circle cx="1087" cy="447" r="4" fill="white" stroke="black" />
<text x="1087" y="459" font-family="Verdana" font-size="8" text-anchor="middle"  dominant-baseline="middle" fill="black" > 432</text>
<text x="1150" y="7" font-family="Verdana" font-size="7" text-anchor="middle"  dominant-baseline="middle" fill="black" > C7</text>
<circle cx="1150" cy="15" r="4" fill="white" stroke="black" />
<line x1="1150" y1="19" x2="1150" y2="296" stroke="black" />
<line x1="1146" y1="300" x2="1150" y2="292" stroke="blue" />
<line x1="1150" y1="300" x2="1154" y2="292" stroke="blue" />
<text x="1150" y="308" font-family="Verdana" font-size="8" text-anchor="middle"  dominant-baseline="middle" fill="black" > 281</text>
</svg>
