<?xml version="1.0" encoding="utf-8"?>
<svg xmlns="http://www.w3.org/2000/svg" version="1.1" width="1450" height="750">
<rect width="1450" height="15" x="0" y="0" fill="white" />
<rect width="1450" height="15" x="0" y="735" fill="white" />
<rect width="25" height="750" x="0" y="0" fill="white" />
<rect width="25" height="750" x="1425" y="0" fill="white" />
<rect width="1410" height="144" x="25" y="15" fill="ghostwhite" />
<rect width="1410" height="144" x="25" y="159" fill="snow" />
<rect width="1410" height="144" x="25" y="303" fill="ghostwhite" />
<rect width="1410" height="144" x="25" y="447" fill="snow" />
<rect width="1410" height="144" x="25" y="591" fill="ghostwhite" />
<text x="12" y="87" font-family="Verdana" font-size="10" text-anchor="middle"  dominant-baseline="middle" fill="red" > D0</text>
<text x="12" y="231" font-family="Verdana" font-size="10" text-anchor="middle"  dominant-baseline="middle" fill="red" > D1</text>
<text x="12" y="375" font-family="Verdana" font-size="10" text-anchor="middle"  dominant-baseline="middle" fill="red" > D2</text>
<text x="12" y="519" font-family="Verdana" font-size="10" text-anchor="middle"  dominant-baseline="middle" fill="red" > D3</text>
<text x="12" y="663" font-family="Verdana" font-size="10" text-anchor="middle"  dominant-baseline="middle" fill="red" > D4</text>
<text x="12" y="20" font-family="Verdana" font-size="10" text-anchor="middle"  dominant-baseline="middle" fill="black" > 0</text>
<text x="12" y="164" font-family="Verdana" font-size="10" text-anchor="middle"  dominant-baseline="middle" fill="black" > 144</text>
<text x="12" y="308" font-family="Verdana" font-size="10" text-anchor="middle"  dominant-baseline="middle" fill="black" > 288</text>
<text x="12" y="452" font-family="Verdana" font-size="10" text-anchor="middle"  dominant-baseline="middle" fill="black" > 432</text>
<text x="12" y="596" font-family="Verdana" font-size="10" text-anchor="middle"  dominant-baseline="middle" fill="black" > 576</text>
<text x="12" y="740" font-family="Verdana" font-size="10" text-anchor="middle"  dominant-baseline="middle" fill="black" > 720</text>
<text x="100" y="7" font-family="Verdana" font-size="7" text-anchor="middle"  dominant-baseline="middle" fill="black" > C1</text>
<circle cx="100" cy="15" r="4" fill="white" stroke="black" />
<line x1="100" y1="19" x2="100" y2="53" stroke="black" />
<line x1="50" y1="53" x2="150" y2="53" stroke="black" />
<text x="125" y="45" font-family="Verdana" font-size="8" text-anchor="middle"  dominant-baseline="middle" fill="black" > 38</text>
<circle cx="50" cy="53" r="4" fill="white" stroke="black" />
<line x1="50" y1="57" x2="50" y2="259" stroke="black" />
<line x1="25" y1="259" x2="75" y2="259" stroke="black" />
<text x="62" y="251" font-family="Verdana" font-size="8" text-anchor="middle"  dominant-baseline="middle" fill="black" > 244</text>
<circle cx="25" cy="259" r="4" fill="white" stroke="black" />
<line x1="25" y1="263" x2="25" y2="368" stroke="black" />
<line x1="12" y1="368" x2="38" y2="368" stroke="black" />
<text x="31" y="360" font-family="Verdana" font-size="8" text-anchor="middle"  dominant-baseline="middle" fill="black" > 353</text>
<circle cx="12" cy="368" r="4" fill="white" stroke="black" />
<line x1="12" y1="372" x2="12" y2="447" stroke="black" />
<circle cx="12" cy="447" r="4" fill="white" stroke="black" />
<text x="12" y="459" font-family="Verdana" font-size="8" text-anchor="middle"  dominant-baseline="middle" fill="black" > 432</text>
<circle cx="37" cy="368" r="4" fill="white" stroke="black" />
<line x1="37" y1="372" x2="37" y2="447" stroke="black" />
<circle cx="37" cy="447" r="4" fill="white" stroke="black" />
<text x="37" y="459" font-family="Verdana" font-size="8" text-anchor="middle"  dominant-baseline="middle" fill="black" > 432</text>
<circle cx="75" cy="259" r="4" fill="white" stroke="black" />
<line x1="75" y1="263" x2="75" y2="364" stroke="black" />
<line x1="62" y1="364" x2="88" y2="364" stroke="black" />
<text x="81" y="356" font-family="Verdana" font-size="8" text-anchor="middle"  dominant-baseline="middle" fill="black" > 349</text>
<circle cx="62" cy="364" r="4" fill="white" stroke="black" />
<line x1="62" y1="368" x2="62" y2="447" stroke="black" />
<circle cx="62" cy="447" r="4" fill="white" stroke="black" />
<text x="62" y="459" font-family="Verdana" font-size="8" text-anchor="middle"  dominant-baseline="middle" fill="black" > 432</text>
<circle cx="87" cy="364" r="4" fill="white" stroke="black" />
<line x1="87" y1="368" x2="87" y2="447" stroke="black" />
<circle cx="87" cy="447" r="4" fill="white" stroke="black" />
<text x="87" y="459" font-family="Verdana" font-size="8" text-anchor="middle"  dominant-baseline="middle" fill="black" > 432</text>
<circle cx="150" cy="53" r="4" fill="white" stroke="black" />
<line x1="150" y1="57" x2="150" y2="247" stroke="black" />
<line x1="125" y1="247" x2="175" y2="247" stroke="black" />
<text x="162" y="239" font-family="Verdana" font-size="8" text-anchor="middle"  dominant-baseline="middle" fill="black" > 232</text>
<circle cx="125" cy="247" r="4" fill="white" stroke="black" />
<line x1="125" y1="251" x2="125" y2="305" stroke="black" />
<line x1="121" y1="301" x2="129" y2="309" stroke="red" />
<line x1="121" y1="309" x2="129" y2="301" stroke="red" />
<text x="125" y="317" font-family="Verdana" font-size="8" text-anchor="middle"  dominant-baseline="middle" fill="black" > 290</text>
<circle cx="175" cy="247" r="4" fill="white" stroke="black" />
<line x1="175" y1="251" x2="175" y2="338" stroke="black" />
<line x1="171" y1="334" x2="179" y2="342" stroke="red" />
<line x1="171" y1="342" x2="179" y2="334" stroke="red" />
<text x="175" y="350" font-family="Verdana" font-size="8" text-anchor="middle"  dominant-baseline="middle" fill="black" > 323</text>
<text x="300" y="7" font-family="Verdana" font-size="7" text-anchor="middle"  dominant-baseline="middle" fill="black" > C2</text>
<circle cx="300" cy="15" r="4" fill="white" stroke="black" />
<line x1="300" y1="19" x2="300" y2="27" stroke="black" />
<line x1="250" y1="27" x2="350" y2="27" stroke="black" />
<text x="325" y="19" font-family="Verdana" font-size="8" text-anchor="middle"  dominant-baseline="middle" fill="black" > 12</text>
<circle cx="250" cy="27" r="4" fill="white" stroke="black" />
<line x1="250" y1="31" x2="250" y2="295" stroke="black" />
<line x1="225" y1="295" x2="275" y2="295" stroke="black" />
<text x="262" y="287" font-family="Verdana" font-size="8" text-anchor="middle"  dominant-baseline="middle" fill="black" > 280</text>
<circle cx="225" cy="295" r="4" fill="white" stroke="black" />
<line x1="225" y1="299" x2="225" y2="447" stroke="black" />
<circle cx="225" cy="447" r="4" fill="white" stroke="black" />
<text x="225" y="459" font-family="Verdana" font-size="8" text-anchor="middle"  dominant-baseline="middle" fill="black" > 432</text>
<circle cx="275" cy="295" r="4" fill="white" stroke="black" />
<line x1="275" y1="299" x2="275" y2="447" stroke="black" />
<circle cx="275" cy="447" r="4" fill="white" stroke="black" />
<text x="275" y="459" font-family="Verdana" font-size="8" text-anchor="middle"  dominant-baseline="middle" fill="black" > 432</text>
<circle cx="350" cy="27" r="4" fill="white" stroke="black" />
<line x1="350" y1="31" x2="350" y2="284" stroke="black" />
<line x1="325" y1="284" x2="375" y2="284" stroke="black" />
<text x="362" y="276" font-family="Verdana" font-size="8" text-anchor="middle"  dominant-baseline="middle" fill="black" > 269</text>
<circle cx="325" cy="284" r="4" fill="white" stroke="black" />
<line x1="325" y1="288" x2="325" y2="447" stroke="black" />
<circle cx="325" cy="447" r="4" fill="white" stroke="black" />
<text x="325" y="459" font-family="Verdana" font-size="8" text-anchor="middle"  dominant-baseline="middle" fill="black" > 432</text>
<circle cx="375" cy="284" r="4" fill="white" stroke="black" />
<line x1="375" y1="288" x2="375" y2="447" stroke="black" />
<circle cx="375" cy="447" r="4" fill="white" stroke="black" />
<text x="375" y="459" font-family="Verdana" font-size="8" text-anchor="middle"  dominant-baseline="middle" fill="black" > 432</text>
<text x="500" y="7" font-family="Verdana" font-size="7" text-anchor="middle"  dominant-baseline="middle" fill="black" > C3</text>
<circle cx="500" cy="15" r="4" fill="white" stroke="black" />
<line x1="500" y1="19" x2="500" y2="120" stroke="black" />
<line x1="450" y1="120" x2="550" y2="120" stroke="black" />
<text x="525" y="112" font-family="Verdana" font-size="8" text-anchor="middle"  dominant-baseline="middle" fill="black" > 105</text>
<circle cx="450" cy="120" r="4" fill="white" stroke="black" />
<line x1="450" y1="124" x2="450" y2="447" stroke="black" />
<circle cx="450" cy="447" r="4" fill="white" stroke="black" />
<text x="450" y="459" font-family="Verdana" font-size="8" text-anchor="middle"  dominant-baseline="middle" fill="black" > 432</text>
<circle cx="550" cy="120" r="4" fill="white" stroke="black" />
<line x1="550" y1="124" x2="550" y2="331" stroke="black" />
<line x1="525" y1="331" x2="575" y2="331" stroke="black" />
<text x="562" y="323" font-family="Verdana" font-size="8" text-anchor="middle"  dominant-baseline="middle" fill="black" > 316</text>
<circle cx="525" cy="331" r="4" fill="white" stroke="black" />
<line x1="525" y1="335" x2="525" y2="447" stroke="black" />
<circle cx="525" cy="447" r="4" fill="white" stroke="black" />
<text x="525" y="459" font-family="Verdana" font-size="8" text-anchor="middle"  dominant-baseline="middle" fill="black" > 432</text>
<circle cx="575" cy="331" r="4" fill="white" stroke="black" />
<line x1="575" y1="335" x2="575" y2="447" stroke="black" />
<circle cx="575" cy="447" r="4" fill="white" stroke="black" />
<text x="575" y="459" font-family="Verdana" font-size="8" text-anchor="middle"  dominant-baseline="middle" fill="black" > 432</text>
<text x="700" y="7" font-family="Verdana" font-size="7" text-anchor="middle"  dominant-baseline="middle" fill="black" > C4</text>
<circle cx="700" cy="15" r="4" fill="white" stroke="black" />
<line x1="700" y1="19" x2="700" y2="380" stroke="black" />
<line x1="650" y1="380" x2="750" y2="380" stroke="black" />
<text x="725" y="372" font-family="Verdana" font-size="8" text-anchor="middle"  dominant-baseline="middle" fill="black" > 365</text>
<circle cx="650" cy="380" r="4" fill="white" stroke="black" />
<line x1="650" y1="384" x2="650" y2="447" stroke="black" />
<circle cx="650" cy="447" r="4" fill="white" stroke="black" />
<text x="650" y="459" font-family="Verdana" font-size="8" text-anchor="middle"  dominant-baseline="middle" fill="black" > 432</text>
<circle cx="750" cy="380" r="4" fill="white" stroke="black" />
<line x1="750" y1="384" x2="750" y2="447" stroke="black" />
<circle cx="750" cy="447" r="4" fill="white" stroke="black" />
<text x="750" y="459" font-family="Verdana" font-size="8" text-anchor="middle"  dominant-baseline="middle" fill="black" > 432</text>
<text x="950" y="7" font-family="Verdana" font-size="7" text-anchor="middle"  dominant-baseline="middle" fill="black" > C5</text>
<circle cx="950" cy="15" r="4" fill="white" stroke="black" />
<line x1="950" y1="19" x2="950" y2="157" stroke="black" />
<line x1="850" y1="157" x2="1050" y2="157" stroke="black" />
<text x="975" y="149" font-family="Verdana" font-size="8" text-anchor="middle"  dominant-baseline="middle" fill="black" > 142</text>
<circle cx="850" cy="157" r="4" fill="white" stroke="black" />
<line x1="850" y1="161" x2="850" y2="444" stroke="black" />
<line x1="816" y1="444" x2="884" y2="444" stroke="black" />
<text x="858" y="436" font-family="Verdana" font-size="8" text-anchor="middle"  dominant-baseline="middle" fill="black" > 429</text>
<circle cx="816" cy="444" r="4" fill="white" stroke="black" />
<line x1="816" y1="448" x2="816" y2="447" stroke="black" />
<circle cx="816" cy="447" r="4" fill="white" stroke="black" />
<text x="816" y="459" font-family="Verdana" font-size="8" text-anchor="middle"  dominant-baseline="middle" fill="black" > 432</text>
<circle cx="849" cy="444" r="4" fill="white" stroke="black" />
<line x1="849" y1="448" x2="849" y2="447" stroke="black" />
<circle cx="849" cy="447" r="4" fill="white" stroke="black" />
<text x="849" y="459" font-family="Verdana" font-size="8" text-anchor="middle"  dominant-baseline="middle" fill="black" > 432</text>
<circle cx="882" cy="444" r="4" fill="white" stroke="black" />
<line x1="882" y1="448" x2="882" y2="447" stroke="black" />
<circle cx="882" cy="447" r="4" fill="white" stroke="black" />
<text x="882" y="459" font-family="Verdana" font-size="8" text-anchor="middle"  dominant-baseline="middle" fill="black" > 432</text>
<circle cx="950" cy="157" r="4" fill="white" stroke="black" />
<line x1="950" y1="161" x2="950" y2="447" stroke="black" />
<circle cx="950" cy="447" r="4" fill="white" stroke="black" />
<text x="950" y="459" font-family="Verdana" font-size="8" text-anchor="middle"  dominant-baseline="middle" fill="black" > 432</text>
<circle cx="1050" cy="157" r="4" fill="white" stroke="black" />
<line x1="1050" y1="161" x2="1050" y2="350" stroke="black" />
<line x1="1025" y1="350" x2="1075" y2="350" stroke="black" />
<text x="1062" y="342" font-family="Verdana" font-size="8" text-anchor="middle"  dominant-baseline="middle" fill="black" > 335</text>
<circle cx="1025" cy="350" r="4" fill="white" stroke="black" />
<line x1="1025" y1="354" x2="1025" y2="447" stroke="black" />
<circle cx="1025" cy="447" r="4" fill="white" stroke="black" />
<text x="1025" y="459" font-family="Verdana" font-size="8" text-anchor="middle"  dominant-baseline="middle" fill="black" > 432</text>
<circle cx="1075" cy="350" r="4" fill="white" stroke="black" />
<line x1="1075" y1="354" x2="1075" y2="447" stroke="black" />
<circle cx="1075" cy="447" r="4" fill="white" stroke="black" />
<text x="1075" y="459" font-family="Verdana" font-size="8" text-anchor="middle"  dominant-baseline="middle" fill="black" > 432</text>
<text x="1200" y="7" font-family="Verdana" font-size="7" text-anchor="middle"  dominant-baseline="middle" fill="black" > C6</text>
<circle cx="1200" cy="15" r="4" fill="white" stroke="black" />
<line x1="1200" y1="19" x2="1200" y2="192" stroke="black" />
<line x1="1150" y1="192" x2="1250" y2="192" stroke="black" />
<text x="1225" y="184" font-family="Verdana" font-size="8" text-anchor="middle"  dominant-baseline="middle" fill="black" > 177</text>
<circle cx="1150" cy="192" r="4" fill="white" stroke="black" />
<line x1="1150" y1="196" x2="1150" y2="329" stroke="black" />
<line x1="1125" y1="329" x2="1175" y2="329" stroke="black" />
<text x="1162" y="321" font-family="Verdana" font-size="8" text-anchor="middle"  dominant-baseline="middle" fill="black" > 314</text>
<circle cx="1125" cy="329" r="4" fill="white" stroke="black" />
<line x1="1125" y1="333" x2="1125" y2="447" stroke="black" />
<circle cx="1125" cy="447" r="4" fill="white" stroke="black" />
<text x="1125" y="459" font-family="Verdana" font-size="8" text-anchor="middle"  dominant-baseline="middle" fill="black" > 432</text>
<circle cx="1175" cy="329" r="4" fill="white" stroke="black" />
<line x1="1175" y1="333" x2="1175" y2="446" stroke="black" />
<line x1="1162" y1="446" x2="1188" y2="446" stroke="black" />
<text x="1181" y="438" font-family="Verdana" font-size="8" text-anchor="middle"  dominant-baseline="middle" fill="black" > 431</text>
<circle cx="1162" cy="446" r="4" fill="white" stroke="black" />
<line x1="1162" y1="450" x2="1162" y2="447" stroke="black" />
<circle cx="1162" cy="447" r="4" fill="white" stroke="black" />
<text x="1162" y="459" font-family="Verdana" font-size="8" text-anchor="middle"  dominant-baseline="middle" fill="black" > 432</text>
<circle cx="1187" cy="446" r="4" fill="white" stroke="black" />
<line x1="1187" y1="450" x2="1187" y2="447" stroke="black" />
<circle cx="1187" cy="447" r="4" fill="white" stroke="black" />
<text x="1187" y="459" font-family="Verdana" font-size="8" text-anchor="middle"  dominant-baseline="middle" fill="black" > 432</text>
<circle cx="1250" cy="192" r="4" fill="white" stroke="black" />
<line x1="1250" y1="196" x2="1250" y2="310" stroke="black" />
<line x1="1225" y1="310" x2="1275" y2="310" stroke="black" />
<text x="1262" y="302" font-family="Verdana" font-size="8" text-anchor="middle"  dominant-baseline="middle" fill="black" > 295</text>
<circle cx="1225" cy="310" r="4" fill="white" stroke="black" />
<line x1="1225" y1="314" x2="1225" y2="428" stroke="black" />
<line x1="1212" y1="428" x2="1238" y2="428" stroke="black" />
<text x="1231" y="420" font-family="Verdana" font-size="8" text-anchor="middle"  dominant-baseline="middle" fill="black" > 413</text>
<circle cx="1212" cy="428" r="4" fill="white" stroke="black" />
<line x1="1212" y1="432" x2="1212" y2="447" stroke="black" />
<circle cx="1212" cy="447" r="4" fill="white" stroke="black" />
<text x="1212" y="459" font-family="Verdana" font-size="8" text-anchor="middle"  dominant-baseline="middle" fill="black" > 432</text>
<circle cx="1237" cy="428" r="4" fill="white" stroke="black" />
<line x1="1237" y1="432" x2="1237" y2="447" stroke="black" />
<circle cx="1237" cy="447" r="4" fill="white" stroke="black" />
<text x="1237" y="459" font-family="Verdana" font-size="8" text-anchor="middle"  dominant-baseline="middle" fill="black" > 432</text>
<circle cx="1275" cy="310" r="4" fill="white" stroke="black" />
<line x1="1275" y1="314" x2="1275" y2="418" stroke="black" />
<line x1="1262" y1="418" x2="1288" y2="418" stroke="black" />
<text x="1281" y="410" font-family="Verdana" font-size="8" text-anchor="middle"  dominant-baseline="middle" fill="black" > 403</text>
<circle cx="1262" cy="418" r="4" fill="white" stroke="black" />
<line x1="1262" y1="422" x2="1262" y2="447" stroke="black" />
<circle cx="1262" cy="447" r="4" fill="white" stroke="black" />
<text x="1262" y="459" font-family="Verdana" font-size="8" text-anchor="middle"  dominant-baseline="middle" fill="black" > 432</text>
<circle cx="1287" cy="418" r="4" fill="white" stroke="black" />
<line x1="1287" y1="422" x2="1287" y2="447" stroke="black" />
<circle cx="1287" cy="447" r="4" fill="white" stroke="black" />
<text x="1287" y="459" font-family="Verdana" font-size="8" text-anchor="middle"  dominant-baseline="middle" fill="black" > 432</text>
<text x="1350" y="7" font-family="Verdana" font-size="7" text-anchor="middle"  dominant-baseline="middle" fill="black" > C7</text>
<circle cx="1350" cy="15" r="4" fill="white" stroke="black" />
<line x1="1350" y1="19" x2="1350" y2="296" stroke="black" />
<line x1="1346" y1="300" x2="1350" y2="292" stroke="blue" />
<line x1="1350" y1="300" x2="1354" y2="292" stroke="blue" />
<text x="1350" y="308" font-family="Verdana" font-size="8" text-anchor="middle"  dominant-baseline="middle" fill="black" > 281</text>
</svg>
