<?xml version="1.0" encoding="utf-8"?>
<svg xmlns="http://www.w3.org/2000/svg" version="1.1" width="450" height="750">
<rect width="450" height="15" x="0" y="0" fill="white" />
<rect width="450" height="15" x="0" y="735" fill="white" />
<rect width="25" height="750" x="0" y="0" fill="white" />
<rect width="25" height="750" x="425" y="0" fill="white" />
<rect width="410" height="144" x="25" y="15" fill="ghostwhite" />
<rect width="410" height="144" x="25" y="159" fill="snow" />
<rect width="410" height="144" x="25" y="303" fill="ghostwhite" />
<rect width="410" height="144" x="25" y="447" fill="snow" />
<rect width="410" height="144" x="25" y="591" fill="ghostwhite" />
<text x="12" y="87" font-family="Verdana" font-size="10" text-anchor="middle"  dominant-baseline="middle" fill="red" > D0</text>
<text x="12" y="231" font-family="Verdana" font-size="10" text-anchor="middle"  dominant-baseline="middle" fill="red" > D1</text>
<text x="12" y="375" font-family="Verdana" font-size="10" text-anchor="middle"  dominant-baseline="middle" fill="red" > D2</text>
<text x="12" y="519" font-family="Verdana" font-size="10" text-anchor="middle"  dominant-baseline="middle" fill="red" > D3</text>
<text x="12" y="663" font-family="Verdana" font-size="10" text-anchor="middle"  dominant-baseline="middle" fill="red" > D4</text>
<text x="12" y="20" font-family="Verdana" font-size="10" text-anchor="middle"  dominant-baseline="middle" fill="black" > 0</text>
<text x="12" y="164" font-family="Verdana" font-size="10" text-anchor="middle"  dominant-baseline="middle" fill="black" > 144</text>
<text x="12" y="308" font-family="Verdana" font-size="10" text-anchor="middle"  dominant-baseline="middle" fill="black" > 288</text>
<text x="12" y="452" font-family="Verdana" font-size="10" text-anchor="middle"  dominant-baseline="middle" fill="black" > 432</text>
<text x="12" y="596" font-family="Verdana" font-size="10" text-anchor="middle"  dominant-baseline="middle" fill="black" > 576</text>
<text x="12" y="740" font-family="Verdana" font-size="10" text-anchor="middle"  dominant-baseline="middle" fill="black" > 720</text>
<text x="50" y="7" font-family="Verdana" font-size="7" text-anchor="middle"  dominant-baseline="middle" fill="black" > C1</text>
<circle cx="50" cy="15" r="4" fill="white" stroke="black" />
<line x1="50" y1="19" x2="50" y2="140" stroke="black" />
<line x1="46" y1="144" x2="50" y2="136" stroke="blue" />
<line x1="50" y1="144" x2="54" y2="136" stroke="blue" />
<text x="50" y="152" font-family="Verdana" font-size="8" text-anchor="middle"  dominant-baseline="middle" fill="black" > 125</text>
<text x="200" y="7" font-family="Verdana" font-size="7" text-anchor="middle"  dominant-baseline="middle" fill="black" > C2</text>
<circle cx="200" cy="15" r="4" fill="white" stroke="black" />
<line x1="200" y1="19" x2="200" y2="303" stroke="black" />
<line x1="150" y1="303" x2="250" y2="303" stroke="black" />
<text x="225" y="295" font-family="Verdana" font-size="8" text-anchor="middle"  dominant-baseline="middle" fill="black" > 288</text>
<circle cx="150" cy="303" r="4" fill="white" stroke="black" />
<line x1="150" y1="307" x2="150" y2="521" stroke="black" />
<line x1="146" y1="517" x2="154" y2="525" stroke="red" />
<line x1="146" y1="525" x2="154" y2="517" stroke="red" />
<text x="150" y="533" font-family="Verdana" font-size="8" text-anchor="middle"  dominant-baseline="middle" fill="black" > 506</text>
<circle cx="250" cy="303" r="4" fill="white" stroke="black" />
<line x1="250" y1="307" x2="250" y2="509" stroke="black" />
<line x1="246" y1="505" x2="254" y2="513" stroke="red" />
<line x1="246" y1="513" x2="254" y2="505" stroke="red" />
<text x="250" y="521" font-family="Verdana" font-size="8" text-anchor="middle"  dominant-baseline="middle" fill="black" > 494</text>
<text x="350" y="7" font-family="Verdana" font-size="7" text-anchor="middle"  dominant-baseline="middle" fill="black" > C3</text>
<circle cx="350" cy="15" r="4" fill="white" stroke="black" />
<line x1="350" y1="19" x2="350" y2="479" stroke="black" />
<line x1="346" y1="483" x2="350" y2="475" stroke="blue" />
<line x1="350" y1="483" x2="354" y2="475" stroke="blue" />
<text x="350" y="491" font-family="Verdana" font-size="8" text-anchor="middle"  dominant-baseline="middle" fill="black" > 464</text>
</svg>
