<?xml version="1.0" encoding="utf-8"?>
<svg xmlns="http://www.w3.org/2000/svg" version="1.1" width="750" height="750">
<rect width="750" height="15" x="0" y="0" fill="white" />
<rect width="750" height="15" x="0" y="735" fill="white" />
<rect width="25" height="750" x="0" y="0" fill="white" />
<rect width="25" height="750" x="725" y="0" fill="white" />
<rect width="710" height="144" x="25" y="15" fill="ghostwhite" />
<rect width="710" height="144" x="25" y="159" fill="snow" />
<rect width="710" height="144" x="25" y="303" fill="ghostwhite" />
<rect width="710" height="144" x="25" y="447" fill="snow" />
<rect width="710" height="144" x="25" y="591" fill="ghostwhite" />
<text x="12" y="87" font-family="Verdana" font-size="10" text-anchor="middle"  dominant-baseline="middle" fill="red" > D0</text>
<text x="12" y="231" font-family="Verdana" font-size="10" text-anchor="middle"  dominant-baseline="middle" fill="red" > D1</text>
<text x="12" y="375" font-family="Verdana" font-size="10" text-anchor="middle"  dominant-baseline="middle" fill="red" > D2</text>
<text x="12" y="519" font-family="Verdana" font-size="10" text-anchor="middle"  dominant-baseline="middle" fill="red" > D3</text>
<text x="12" y="663" font-family="Verdana" font-size="10" text-anchor="middle"  dominant-baseline="middle" fill="red" > D4</text>
<text x="12" y="20" font-family="Verdana" font-size="10" text-anchor="middle"  dominant-baseline="middle" fill="black" > 0</text>
<text x="12" y="164" font-family="Verdana" font-size="10" text-anchor="middle"  dominant-baseline="middle" fill="black" > 144</text>
<text x="12" y="308" font-family="Verdana" font-size="10" text-anchor="middle"  dominant-baseline="middle" fill="black" > 288</text>
<text x="12" y="452" font-family="Verdana" font-size="10" text-anchor="middle"  dominant-baseline="middle" fill="black" > 432</text>
<text x="12" y="596" font-family="Verdana" font-size="10" text-anchor="middle"  dominant-baseline="middle" fill="black" > 576</text>
<text x="12" y="740" font-family="Verdana" font-size="10" text-anchor="middle"  dominant-baseline="middle" fill="black" > 720</text>
<text x="100" y="7" font-family="Verdana" font-size="7" text-anchor="middle"  dominant-baseline="middle" fill="black" > C1</text>
<circle cx="100" cy="15" r="4" fill="white" stroke="black" />
<line x1="100" y1="19" x2="100" y2="336" stroke="black" />
<line x1="50" y1="336" x2="150" y2="336" stroke="black" />
<text x="125" y="328" font-family="Verdana" font-size="8" text-anchor="middle"  dominant-baseline="middle" fill="black" > 321</text>
<circle cx="50" cy="336" r="4" fill="white" stroke="black" />
<circle cx="150" cy="336" r="4" fill="white" stroke="black" />
<line x1="50" y1="340" x2="50" y2="408" stroke="black" />
<line x1="50" y1="408" x2="100" y2="432" stroke="black" />
<line x1="150" y1="340" x2="150" y2="408" stroke="black" />
<line x1="150" y1="408" x2="100" y2="432" stroke="black" />
<text x="100" y="420" font-family="Verdana" font-size="8" text-anchor="middle"  dominant-baseline="middle" fill="black" > 417</text>
<circle cx="100" cy="432" r="4" fill="white" stroke="black" />
<line x1="100" y1="436" x2="100" y2="511" stroke="black" />
<line x1="96" y1="507" x2="104" y2="515" stroke="red" />
<line x1="96" y1="515" x2="104" y2="507" stroke="red" />
<text x="100" y="523" font-family="Verdana" font-size="8" text-anchor="middle"  dominant-baseline="middle" fill="black" > 496</text>
<text x="350" y="7" font-family="Verdana" font-size="7" text-anchor="middle"  dominant-baseline="middle" fill="black" > C2</text>
<circle cx="350" cy="15" r="4" fill="white" stroke="black" />
<line x1="350" y1="19" x2="350" y2="376" stroke="black" />
<line x1="250" y1="376" x2="450" y2="376" stroke="black" />
<text x="375" y="368" font-family="Verdana" font-size="8" text-anchor="middle"  dominant-baseline="middle" fill="black" > 361</text>
<circle cx="250" cy="376" r="4" fill="white" stroke="black" />
<circle cx="350" cy="376" r="4" fill="white" stroke="black" />
<line x1="250" y1="380" x2="250" y2="403" stroke="black" />
<line x1="250" y1="403" x2="300" y2="411" stroke="black" />
<line x1="350" y1="380" x2="350" y2="403" stroke="black" />
<line x1="350" y1="403" x2="300" y2="411" stroke="black" />
<text x="300" y="399" font-family="Verdana" font-size="8" text-anchor="middle"  dominant-baseline="middle" fill="black" > 396</text>
<circle cx="300" cy="411" r="4" fill="white" stroke="black" />
<line x1="300" y1="415" x2="300" y2="519" stroke="black" />
<line x1="296" y1="515" x2="304" y2="523" stroke="red" />
<line x1="296" y1="523" x2="304" y2="515" stroke="red" />
<text x="300" y="531" font-family="Verdana" font-size="8" text-anchor="middle"  dominant-baseline="middle" fill="black" > 504</text>
<circle cx="450" cy="376" r="4" fill="white" stroke="black" />
<line x1="450" y1="380" x2="450" y2="585" stroke="black" />
<line x1="446" y1="581" x2="454" y2="589" stroke="red" />
<line x1="446" y1="589" x2="454" y2="581" stroke="red" />
<text x="450" y="597" font-family="Verdana" font-size="8" text-anchor="middle"  dominant-baseline="middle" fill="black" > 570</text>
<text x="550" y="7" font-family="Verdana" font-size="7" text-anchor="middle"  dominant-baseline="middle" fill="black" > C3</text>
<circle cx="550" cy="15" r="4" fill="white" stroke="black" />
<line x1="550" y1="19" x2="550" y2="358" stroke="black" />
<line x1="546" y1="354" x2="554" y2="362" stroke="red" />
<line x1="546" y1="362" x2="554" y2="354" stroke="red" />
<text x="550" y="370" font-family="Verdana" font-size="8" text-anchor="middle"  dominant-baseline="middle" fill="black" > 343</text>
<text x="650" y="7" font-family="Verdana" font-size="7" text-anchor="middle"  dominant-baseline="middle" fill="black" > C4</text>
<circle cx="650" cy="15" r="4" fill="white" stroke="black" />
<line x1="650" y1="19" x2="650" y2="248" stroke="black" />
<line x1="646" y1="252" x2="650" y2="244" stroke="blue" />
<line x1="650" y1="252" x2="654" y2="244" stroke="blue" />
<text x="650" y="260" font-family="Verdana" font-size="8" text-anchor="middle"  dominant-baseline="middle" fill="black" > 233</text>
</svg>
