<?xml version="1.0" encoding="utf-8"?>
<svg xmlns="http://www.w3.org/2000/svg" version="1.1" width="1250" height="750">
<rect width="1250" height="15" x="0" y="0" fill="white" />
<rect width="1250" height="15" x="0" y="735" fill="white" />
<rect width="25" height="750" x="0" y="0" fill="white" />
<rect width="25" height="750" x="1225" y="0" fill="white" />
<rect width="1210" height="144" x="25" y="15" fill="ghostwhite" />
<rect width="1210" height="144" x="25" y="159" fill="snow" />
<rect width="1210" height="144" x="25" y="303" fill="ghostwhite" />
<rect width="1210" height="144" x="25" y="447" fill="snow" />
<rect width="1210" height="144" x="25" y="591" fill="ghostwhite" />
<text x="12" y="87" font-family="Verdana" font-size="10" text-anchor="middle"  dominant-baseline="middle" fill="red" > D0</text>
<text x="12" y="231" font-family="Verdana" font-size="10" text-anchor="middle"  dominant-baseline="middle" fill="red" > D1</text>
<text x="12" y="375" font-family="Verdana" font-size="10" text-anchor="middle"  dominant-baseline="middle" fill="red" > D2</text>
<text x="12" y="519" font-family="Verdana" font-size="10" text-anchor="middle"  dominant-baseline="middle" fill="red" > D3</text>
<text x="12" y="663" font-family="Verdana" font-size="10" text-anchor="middle"  dominant-baseline="middle" fill="red" > D4</text>
<text x="12" y="20" font-family="Verdana" font-size="10" text-anchor="middle"  dominant-baseline="middle" fill="black" > 0</text>
<text x="12" y="164" font-family="Verdana" font-size="10" text-anchor="middle"  dominant-baseline="middle" fill="black" > 144</text>
<text x="12" y="308" font-family="Verdana" font-size="10" text-anchor="middle"  dominant-baseline="middle" fill="black" > 288</text>
<text x="12" y="452" font-family="Verdana" font-size="10" text-anchor="middle"  dominant-baseline="middle" fill="black" > 432</text>
<text x="12" y="596" font-family="Verdana" font-size="10" text-anchor="middle"  dominant-baseline="middle" fill="black" > 576</text>
<text x="12" y="740" font-family="Verdana" font-size="10" text-anchor="middle"  dominant-baseline="middle" fill="black" > 720</text>
<text x="50" y="7" font-family="Verdana" font-size="7" text-anchor="middle"  dominant-baseline="middle" fill="black" > C1</text>
<circle cx="50" cy="15" r="4" fill="white" stroke="black" />
<line x1="50" y1="19" x2="50" y2="156" stroke="black" />
<line x1="46" y1="152" x2="54" y2="160" stroke="red" />
<line x1="46" y1="160" x2="54" y2="152" stroke="red" />
<text x="50" y="168" font-family="Verdana" font-size="8" text-anchor="middle"  dominant-baseline="middle" fill="black" > 141</text>
<text x="300" y="7" font-family="Verdana" font-size="7" text-anchor="middle"  dominant-baseline="middle" fill="black" > C2</text>
<circle cx="300" cy="15" r="4" fill="white" stroke="black" />
<line x1="300" y1="19" x2="300" y2="438" stroke="black" />
<line x1="150" y1="438" x2="450" y2="438" stroke="black" />
<text x="325" y="430" font-family="Verdana" font-size="8" text-anchor="middle"  dominant-baseline="middle" fill="black" > 423</text>
<circle cx="150" cy="438" r="4" fill="white" stroke="black" />
<circle cx="250" cy="438" r="4" fill="white" stroke="black" />
<line x1="150" y1="442" x2="150" y2="452" stroke="black" />
<line x1="150" y1="452" x2="200" y2="456" stroke="black" />
<line x1="250" y1="442" x2="250" y2="452" stroke="black" />
<line x1="250" y1="452" x2="200" y2="456" stroke="black" />
<text x="200" y="444" font-family="Verdana" font-size="8" text-anchor="middle"  dominant-baseline="middle" fill="black" > 441</text>
<circle cx="200" cy="456" r="4" fill="white" stroke="black" />
<circle cx="350" cy="438" r="4" fill="white" stroke="black" />
<line x1="200" y1="460" x2="200" y2="461" stroke="black" />
<line x1="200" y1="461" x2="275" y2="462" stroke="black" />
<line x1="350" y1="442" x2="350" y2="461" stroke="black" />
<line x1="350" y1="461" x2="275" y2="462" stroke="black" />
<text x="275" y="450" font-family="Verdana" font-size="8" text-anchor="middle"  dominant-baseline="middle" fill="black" > 447</text>
<circle cx="275" cy="462" r="4" fill="white" stroke="black" />
<circle cx="450" cy="438" r="4" fill="white" stroke="black" />
<line x1="275" y1="466" x2="275" y2="558" stroke="black" />
<line x1="275" y1="558" x2="362" y2="590" stroke="black" />
<line x1="450" y1="442" x2="450" y2="558" stroke="black" />
<line x1="450" y1="558" x2="362" y2="590" stroke="black" />
<text x="362" y="578" font-family="Verdana" font-size="8" text-anchor="middle"  dominant-baseline="middle" fill="black" > 575</text>
<circle cx="362" cy="590" r="4" fill="white" stroke="black" />
<line x1="362" y1="594" x2="362" y2="644" stroke="black" />
<line x1="358" y1="640" x2="366" y2="648" stroke="red" />
<line x1="358" y1="648" x2="366" y2="640" stroke="red" />
<text x="362" y="656" font-family="Verdana" font-size="8" text-anchor="middle"  dominant-baseline="middle" fill="black" > 629</text>
<text x="550" y="7" font-family="Verdana" font-size="7" text-anchor="middle"  dominant-baseline="middle" fill="black" > C3</text>
<circle cx="550" cy="15" r="4" fill="white" stroke="black" />
<line x1="550" y1="19" x2="550" y2="359" stroke="black" />
<line x1="546" y1="355" x2="554" y2="363" stroke="red" />
<line x1="546" y1="363" x2="554" y2="355" stroke="red" />
<text x="550" y="371" font-family="Verdana" font-size="8" text-anchor="middle"  dominant-baseline="middle" fill="black" > 344</text>
<text x="650" y="7" font-family="Verdana" font-size="7" text-anchor="middle"  dominant-baseline="middle" fill="black" > C4</text>
<circle cx="650" cy="15" r="4" fill="white" stroke="black" />
<line x1="650" y1="19" x2="650" y2="378" stroke="black" />
<line x1="646" y1="382" x2="650" y2="374" stroke="blue" />
<line x1="650" y1="382" x2="654" y2="374" stroke="blue" />
<text x="650" y="390" font-family="Verdana" font-size="8" text-anchor="middle"  dominant-baseline="middle" fill="black" > 363</text>
<text x="800" y="7" font-family="Verdana" font-size="7" text-anchor="middle"  dominant-baseline="middle" fill="black" > C5</text>
<circle cx="800" cy="15" r="4" fill="white" stroke="black" />
<line x1="800" y1="19" x2="800" y2="231" stroke="black" />
<line x1="750" y1="231" x2="850" y2="231" stroke="black" />
<text x="825" y="223" font-family="Verdana" font-size="8" text-anchor="middle"  dominant-baseline="middle" fill="black" > 216</text>
<circle cx="750" cy="231" r="4" fill="white" stroke="black" />
<line x1="750" y1="235" x2="750" y2="541" stroke="black" />
<line x1="746" y1="537" x2="754" y2="545" stroke="red" />
<line x1="746" y1="545" x2="754" y2="537" stroke="red" />
<text x="750" y="553" font-family="Verdana" font-size="8" text-anchor="middle"  dominant-baseline="middle" fill="black" > 526</text>
<circle cx="850" cy="231" r="4" fill="white" stroke="black" />
<line x1="850" y1="235" x2="850" y2="736" stroke="black" />
<circle cx="850" cy="736" r="4" fill="white" stroke="black" />
<text x="850" y="748" font-family="Verdana" font-size="8" text-anchor="middle"  dominant-baseline="middle" fill="black" > 721</text>
<text x="950" y="7" font-family="Verdana" font-size="7" text-anchor="middle"  dominant-baseline="middle" fill="black" > C6</text>
<circle cx="950" cy="15" r="4" fill="white" stroke="black" />
<line x1="950" y1="19" x2="950" y2="597" stroke="black" />
<line x1="946" y1="593" x2="954" y2="601" stroke="red" />
<line x1="946" y1="601" x2="954" y2="593" stroke="red" />
<text x="950" y="609" font-family="Verdana" font-size="8" text-anchor="middle"  dominant-baseline="middle" fill="black" > 582</text>
<text x="1100" y="7" font-family="Verdana" font-size="7" text-anchor="middle"  dominant-baseline="middle" fill="black" > C7</text>
<circle cx="1100" cy="15" r="4" fill="white" stroke="black" />
<line x1="1100" y1="19" x2="1100" y2="271" stroke="black" />
<line x1="1050" y1="271" x2="1150" y2="271" stroke="black" />
<text x="1125" y="263" font-family="Verdana" font-size="8" text-anchor="middle"  dominant-baseline="middle" fill="black" > 256</text>
<circle cx="1050" cy="271" r="4" fill="white" stroke="black" />
<line x1="1050" y1="275" x2="1050" y2="736" stroke="black" />
<circle cx="1050" cy="736" r="4" fill="white" stroke="black" />
<text x="1050" y="748" font-family="Verdana" font-size="8" text-anchor="middle"  dominant-baseline="middle" fill="black" > 721</text>
<circle cx="1150" cy="271" r="4" fill="white" stroke="black" />
<line x1="1150" y1="275" x2="1150" y2="307" stroke="black" />
<line x1="1146" y1="311" x2="1150" y2="303" stroke="blue" />
<line x1="1150" y1="311" x2="1154" y2="303" stroke="blue" />
<text x="1150" y="319" font-family="Verdana" font-size="8" text-anchor="middle"  dominant-baseline="middle" fill="black" > 292</text>
</svg>
