<?xml version="1.0" encoding="utf-8"?>
<svg xmlns="http://www.w3.org/2000/svg" version="1.1" width="850" height="750">
<rect width="850" height="15" x="0" y="0" fill="white" />
<rect width="850" height="15" x="0" y="735" fill="white" />
<rect width="25" height="750" x="0" y="0" fill="white" />
<rect width="25" height="750" x="825" y="0" fill="white" />
<rect width="810" height="144" x="25" y="15" fill="ghostwhite" />
<rect width="810" height="144" x="25" y="159" fill="snow" />
<rect width="810" height="144" x="25" y="303" fill="ghostwhite" />
<rect width="810" height="144" x="25" y="447" fill="snow" />
<rect width="810" height="144" x="25" y="591" fill="ghostwhite" />
<text x="12" y="87" font-family="Verdana" font-size="10" text-anchor="middle"  dominant-baseline="middle" fill="red" > D0</text>
<text x="12" y="231" font-family="Verdana" font-size="10" text-anchor="middle"  dominant-baseline="middle" fill="red" > D1</text>
<text x="12" y="375" font-family="Verdana" font-size="10" text-anchor="middle"  dominant-baseline="middle" fill="red" > D2</text>
<text x="12" y="519" font-family="Verdana" font-size="10" text-anchor="middle"  dominant-baseline="middle" fill="red" > D3</text>
<text x="12" y="663" font-family="Verdana" font-size="10" text-anchor="middle"  dominant-baseline="middle" fill="red" > D4</text>
<text x="12" y="20" font-family="Verdana" font-size="10" text-anchor="middle"  dominant-baseline="middle" fill="black" > 0</text>
<text x="12" y="164" font-family="Verdana" font-size="10" text-anchor="middle"  dominant-baseline="middle" fill="black" > 144</text>
<text x="12" y="308" font-family="Verdana" font-size="10" text-anchor="middle"  dominant-baseline="middle" fill="black" > 288</text>
<text x="12" y="452" font-family="Verdana" font-size="10" text-anchor="middle"  dominant-baseline="middle" fill="black" > 432</text>
<text x="12" y="596" font-family="Verdana" font-size="10" text-anchor="middle"  dominant-baseline="middle" fill="black" > 576</text>
<text x="12" y="740" font-family="Verdana" font-size="10" text-anchor="middle"  dominant-baseline="middle" fill="black" > 720</text>
<text x="100" y="7" font-family="Verdana" font-size="7" text-anchor="middle"  dominant-baseline="middle" fill="black" > C1</text>
<circle cx="100" cy="15" r="4" fill="white" stroke="black" />
<line x1="100" y1="19" x2="100" y2="231" stroke="black" />
<line x1="50" y1="231" x2="150" y2="231" stroke="black" />
<text x="125" y="223" font-family="Verdana" font-size="8" text-anchor="middle"  dominant-baseline="middle" fill="black" > 216</text>
<circle cx="50" cy="231" r="4" fill="white" stroke="black" />
<line x1="50" y1="235" x2="50" y2="736" stroke="black" />
<circle cx="50" cy="736" r="4" fill="white" stroke="black" />
<text x="50" y="748" font-family="Verdana" font-size="8" text-anchor="middle"  dominant-baseline="middle" fill="black" > 721</text>
<circle cx="150" cy="231" r="4" fill="white" stroke="black" />
<line x1="150" y1="235" x2="150" y2="636" stroke="black" />
<line x1="116" y1="636" x2="184" y2="636" stroke="black" />
<text x="158" y="628" font-family="Verdana" font-size="8" text-anchor="middle"  dominant-baseline="middle" fill="black" > 621</text>
<circle cx="116" cy="636" r="4" fill="white" stroke="black" />
<line x1="116" y1="640" x2="116" y2="656" stroke="black" />
<line x1="112" y1="652" x2="120" y2="660" stroke="red" />
<line x1="112" y1="660" x2="120" y2="652" stroke="red" />
<text x="116" y="668" font-family="Verdana" font-size="8" text-anchor="middle"  dominant-baseline="middle" fill="black" > 641</text>
<circle cx="149" cy="636" r="4" fill="white" stroke="black" />
<circle cx="182" cy="636" r="4" fill="white" stroke="black" />
<line x1="182" y1="640" x2="182" y2="656" stroke="black" />
<line x1="178" y1="652" x2="186" y2="660" stroke="red" />
<line x1="178" y1="660" x2="186" y2="652" stroke="red" />
<text x="182" y="668" font-family="Verdana" font-size="8" text-anchor="middle"  dominant-baseline="middle" fill="black" > 641</text>
<text x="300" y="7" font-family="Verdana" font-size="7" text-anchor="middle"  dominant-baseline="middle" fill="black" > C2</text>
<circle cx="300" cy="15" r="4" fill="white" stroke="black" />
<line x1="300" y1="19" x2="300" y2="252" stroke="black" />
<line x1="250" y1="252" x2="350" y2="252" stroke="black" />
<text x="325" y="244" font-family="Verdana" font-size="8" text-anchor="middle"  dominant-baseline="middle" fill="black" > 237</text>
<circle cx="250" cy="252" r="4" fill="white" stroke="black" />
<line x1="250" y1="256" x2="250" y2="598" stroke="black" />
<line x1="246" y1="602" x2="250" y2="594" stroke="blue" />
<line x1="250" y1="602" x2="254" y2="594" stroke="blue" />
<text x="250" y="610" font-family="Verdana" font-size="8" text-anchor="middle"  dominant-baseline="middle" fill="black" > 583</text>
<circle cx="350" cy="252" r="4" fill="white" stroke="black" />
<line x1="350" y1="256" x2="350" y2="253" stroke="black" />
<line x1="346" y1="257" x2="350" y2="249" stroke="blue" />
<line x1="350" y1="257" x2="354" y2="249" stroke="blue" />
<text x="350" y="265" font-family="Verdana" font-size="8" text-anchor="middle"  dominant-baseline="middle" fill="black" > 238</text>
<text x="500" y="7" font-family="Verdana" font-size="7" text-anchor="middle"  dominant-baseline="middle" fill="black" > C3</text>
<circle cx="500" cy="15" r="4" fill="white" stroke="black" />
<line x1="500" y1="19" x2="500" y2="263" stroke="black" />
<line x1="450" y1="263" x2="550" y2="263" stroke="black" />
<text x="525" y="255" font-family="Verdana" font-size="8" text-anchor="middle"  dominant-baseline="middle" fill="black" > 248</text>
<circle cx="450" cy="263" r="4" fill="white" stroke="black" />
<line x1="450" y1="267" x2="450" y2="591" stroke="black" />
<line x1="446" y1="587" x2="454" y2="595" stroke="red" />
<line x1="446" y1="595" x2="454" y2="587" stroke="red" />
<text x="450" y="603" font-family="Verdana" font-size="8" text-anchor="middle"  dominant-baseline="middle" fill="black" > 576</text>
<circle cx="550" cy="263" r="4" fill="white" stroke="black" />
<line x1="550" y1="267" x2="550" y2="285" stroke="black" />
<line x1="546" y1="289" x2="550" y2="281" stroke="blue" />
<line x1="550" y1="289" x2="554" y2="281" stroke="blue" />
<text x="550" y="297" font-family="Verdana" font-size="8" text-anchor="middle"  dominant-baseline="middle" fill="black" > 270</text>
<text x="700" y="7" font-family="Verdana" font-size="7" text-anchor="middle"  dominant-baseline="middle" fill="black" > C4</text>
<circle cx="700" cy="15" r="4" fill="white" stroke="black" />
<line x1="700" y1="19" x2="700" y2="240" stroke="black" />
<line x1="650" y1="240" x2="750" y2="240" stroke="black" />
<text x="725" y="232" font-family="Verdana" font-size="8" text-anchor="middle"  dominant-baseline="middle" fill="black" > 225</text>
<circle cx="650" cy="240" r="4" fill="white" stroke="black" />
<circle cx="750" cy="240" r="4" fill="white" stroke="black" />
<line x1="650" y1="244" x2="650" y2="295" stroke="black" />
<line x1="650" y1="295" x2="700" y2="313" stroke="black" />
<line x1="750" y1="244" x2="750" y2="295" stroke="black" />
<line x1="750" y1="295" x2="700" y2="313" stroke="black" />
<text x="700" y="301" font-family="Verdana" font-size="8" text-anchor="middle"  dominant-baseline="middle" fill="black" > 298</text>
<circle cx="700" cy="313" r="4" fill="white" stroke="black" />
<line x1="700" y1="317" x2="700" y2="450" stroke="black" />
<line x1="696" y1="446" x2="704" y2="454" stroke="red" />
<line x1="696" y1="454" x2="704" y2="446" stroke="red" />
<text x="700" y="462" font-family="Verdana" font-size="8" text-anchor="middle"  dominant-baseline="middle" fill="black" > 435</text>
</svg>
