<?xml version="1.0" encoding="utf-8"?>
<svg xmlns="http://www.w3.org/2000/svg" version="1.1" width="950" height="750">
<rect width="950" height="15" x="0" y="0" fill="white" />
<rect width="950" height="15" x="0" y="735" fill="white" />
<rect width="25" height="750" x="0" y="0" fill="white" />
<rect width="25" height="750" x="925" y="0" fill="white" />
<rect width="910" height="144" x="25" y="15" fill="ghostwhite" />
<rect width="910" height="144" x="25" y="159" fill="snow" />
<rect width="910" height="144" x="25" y="303" fill="ghostwhite" />
<rect width="910" height="144" x="25" y="447" fill="snow" />
<rect width="910" height="144" x="25" y="591" fill="ghostwhite" />
<text x="12" y="87" font-family="Verdana" font-size="10" text-anchor="middle"  dominant-baseline="middle" fill="red" > D0</text>
<text x="12" y="231" font-family="Verdana" font-size="10" text-anchor="middle"  dominant-baseline="middle" fill="red" > D1</text>
<text x="12" y="375" font-family="Verdana" font-size="10" text-anchor="middle"  dominant-baseline="middle" fill="red" > D2</text>
<text x="12" y="519" font-family="Verdana" font-size="10" text-anchor="middle"  dominant-baseline="middle" fill="red" > D3</text>
<text x="12" y="663" font-family="Verdana" font-size="10" text-anchor="middle"  dominant-baseline="middle" fill="red" > D4</text>
<text x="12" y="20" font-family="Verdana" font-size="10" text-anchor="middle"  dominant-baseline="middle" fill="black" > 0</text>
<text x="12" y="164" font-family="Verdana" font-size="10" text-anchor="middle"  dominant-baseline="middle" fill="black" > 144</text>
<text x="12" y="308" font-family="Verdana" font-size="10" text-anchor="middle"  dominant-baseline="middle" fill="black" > 288</text>
<text x="12" y="452" font-family="Verdana" font-size="10" text-anchor="middle"  dominant-baseline="middle" fill="black" > 432</text>
<text x="12" y="596" font-family="Verdana" font-size="10" text-anchor="middle"  dominant-baseline="middle" fill="black" > 576</text>
<text x="12" y="740" font-family="Verdana" font-size="10" text-anchor="middle"  dominant-baseline="middle" fill="black" > 720</text>
<text x="50" y="7" font-family="Verdana" font-size="7" text-anchor="middle"  dominant-baseline="middle" fill="black" > C1</text>
<circle cx="50" cy="15" r="4" fill="white" stroke="black" />
<line x1="50" y1="19" x2="50" y2="217" stroke="black" />
<line x1="46" y1="221" x2="50" y2="213" stroke="blue" />
<line x1="50" y1="221" x2="54" y2="213" stroke="blue" />
<text x="50" y="229" font-family="Verdana" font-size="8" text-anchor="middle"  dominant-baseline="middle" fill="black" > 202</text>
<text x="250" y="7" font-family="Verdana" font-size="7" text-anchor="middle"  dominant-baseline="middle" fill="black" > C2</text>
<circle cx="250" cy="15" r="4" fill="white" stroke="black" />
<line x1="250" y1="19" x2="250" y2="320" stroke="black" />
<line x1="150" y1="320" x2="350" y2="320" stroke="black" />
<text x="275" y="312" font-family="Verdana" font-size="8" text-anchor="middle"  dominant-baseline="middle" fill="black" > 305</text>
<circle cx="150" cy="320" r="4" fill="white" stroke="black" />
<circle cx="250" cy="320" r="4" fill="white" stroke="black" />
<circle cx="350" cy="320" r="4" fill="white" stroke="black" />
<line x1="250" y1="324" x2="250" y2="329" stroke="black" />
<line x1="250" y1="329" x2="300" y2="331" stroke="black" />
<line x1="350" y1="324" x2="350" y2="329" stroke="black" />
<line x1="350" y1="329" x2="300" y2="331" stroke="black" />
<text x="300" y="319" font-family="Verdana" font-size="8" text-anchor="middle"  dominant-baseline="middle" fill="black" > 316</text>
<circle cx="300" cy="331" r="4" fill="white" stroke="black" />
<line x1="150" y1="324" x2="150" y2="362" stroke="black" />
<line x1="150" y1="362" x2="225" y2="372" stroke="black" />
<line x1="300" y1="335" x2="300" y2="362" stroke="black" />
<line x1="300" y1="362" x2="225" y2="372" stroke="black" />
<text x="225" y="360" font-family="Verdana" font-size="8" text-anchor="middle"  dominant-baseline="middle" fill="black" > 357</text>
<circle cx="225" cy="372" r="4" fill="white" stroke="black" />
<line x1="225" y1="376" x2="225" y2="498" stroke="black" />
<line x1="221" y1="494" x2="229" y2="502" stroke="red" />
<line x1="221" y1="502" x2="229" y2="494" stroke="red" />
<text x="225" y="510" font-family="Verdana" font-size="8" text-anchor="middle"  dominant-baseline="middle" fill="black" > 483</text>
<text x="450" y="7" font-family="Verdana" font-size="7" text-anchor="middle"  dominant-baseline="middle" fill="black" > C3</text>
<circle cx="450" cy="15" r="4" fill="white" stroke="black" />
<line x1="450" y1="19" x2="450" y2="468" stroke="black" />
<line x1="446" y1="464" x2="454" y2="472" stroke="red" />
<line x1="446" y1="472" x2="454" y2="464" stroke="red" />
<text x="450" y="480" font-family="Verdana" font-size="8" text-anchor="middle"  dominant-baseline="middle" fill="black" > 453</text>
<text x="650" y="7" font-family="Verdana" font-size="7" text-anchor="middle"  dominant-baseline="middle" fill="black" > C4</text>
<circle cx="650" cy="15" r="4" fill="white" stroke="black" />
<line x1="650" y1="19" x2="650" y2="267" stroke="black" />
<line x1="550" y1="267" x2="750" y2="267" stroke="black" />
<text x="675" y="259" font-family="Verdana" font-size="8" text-anchor="middle"  dominant-baseline="middle" fill="black" > 252</text>
<circle cx="550" cy="267" r="4" fill="white" stroke="black" />
<circle cx="650" cy="267" r="4" fill="white" stroke="black" />
<line x1="550" y1="271" x2="550" y2="270" stroke="black" />
<line x1="550" y1="270" x2="600" y2="271" stroke="black" />
<line x1="650" y1="271" x2="650" y2="270" stroke="black" />
<line x1="650" y1="270" x2="600" y2="271" stroke="black" />
<text x="600" y="259" font-family="Verdana" font-size="8" text-anchor="middle"  dominant-baseline="middle" fill="black" > 256</text>
<circle cx="600" cy="271" r="4" fill="white" stroke="black" />
<line x1="600" y1="275" x2="600" y2="671" stroke="black" />
<line x1="596" y1="675" x2="600" y2="667" stroke="blue" />
<line x1="600" y1="675" x2="604" y2="667" stroke="blue" />
<text x="600" y="683" font-family="Verdana" font-size="8" text-anchor="middle"  dominant-baseline="middle" fill="black" > 656</text>
<circle cx="750" cy="267" r="4" fill="white" stroke="black" />
<line x1="750" y1="271" x2="750" y2="639" stroke="black" />
<line x1="725" y1="639" x2="775" y2="639" stroke="black" />
<text x="762" y="631" font-family="Verdana" font-size="8" text-anchor="middle"  dominant-baseline="middle" fill="black" > 624</text>
<circle cx="725" cy="639" r="4" fill="white" stroke="black" />
<circle cx="775" cy="639" r="4" fill="white" stroke="black" />
<line x1="725" y1="643" x2="725" y2="647" stroke="black" />
<line x1="725" y1="647" x2="750" y2="649" stroke="black" />
<line x1="775" y1="643" x2="775" y2="647" stroke="black" />
<line x1="775" y1="647" x2="750" y2="649" stroke="black" />
<text x="750" y="637" font-family="Verdana" font-size="8" text-anchor="middle"  dominant-baseline="middle" fill="black" > 634</text>
<circle cx="750" cy="649" r="4" fill="white" stroke="black" />
<line x1="750" y1="653" x2="750" y2="665" stroke="black" />
<line x1="746" y1="661" x2="754" y2="669" stroke="red" />
<line x1="746" y1="669" x2="754" y2="661" stroke="red" />
<text x="750" y="677" font-family="Verdana" font-size="8" text-anchor="middle"  dominant-baseline="middle" fill="black" > 650</text>
<text x="850" y="7" font-family="Verdana" font-size="7" text-anchor="middle"  dominant-baseline="middle" fill="black" > C5</text>
<circle cx="850" cy="15" r="4" fill="white" stroke="black" />
<line x1="850" y1="19" x2="850" y2="165" stroke="black" />
<line x1="846" y1="161" x2="854" y2="169" stroke="red" />
<line x1="846" y1="169" x2="854" y2="161" stroke="red" />
<text x="850" y="177" font-family="Verdana" font-size="8" text-anchor="middle"  dominant-baseline="middle" fill="black" > 150</text>
</svg>
