<?xml version="1.0" encoding="utf-8"?>
<svg xmlns="http://www.w3.org/2000/svg" version="1.1" width="1050" height="750">
<rect width="1050" height="15" x="0" y="0" fill="white" />
<rect width="1050" height="15" x="0" y="735" fill="white" />
<rect width="25" height="750" x="0" y="0" fill="white" />
<rect width="25" height="750" x="1025" y="0" fill="white" />
<rect width="1010" height="144" x="25" y="15" fill="ghostwhite" />
<rect width="1010" height="144" x="25" y="159" fill="snow" />
<rect width="1010" height="144" x="25" y="303" fill="ghostwhite" />
<rect width="1010" height="144" x="25" y="447" fill="snow" />
<rect width="1010" height="144" x="25" y="591" fill="ghostwhite" />
<text x="12" y="87" font-family="Verdana" font-size="10" text-anchor="middle"  dominant-baseline="middle" fill="red" > D0</text>
<text x="12" y="231" font-family="Verdana" font-size="10" text-anchor="middle"  dominant-baseline="middle" fill="red" > D1</text>
<text x="12" y="375" font-family="Verdana" font-size="10" text-anchor="middle"  dominant-baseline="middle" fill="red" > D2</text>
<text x="12" y="519" font-family="Verdana" font-size="10" text-anchor="middle"  dominant-baseline="middle" fill="red" > D3</text>
<text x="12" y="663" font-family="Verdana" font-size="10" text-anchor="middle"  dominant-baseline="middle" fill="red" > D4</text>
<text x="12" y="20" font-family="Verdana" font-size="10" text-anchor="middle"  dominant-baseline="middle" fill="black" > 0</text>
<text x="12" y="164" font-family="Verdana" font-size="10" text-anchor="middle"  dominant-baseline="middle" fill="black" > 144</text>
<text x="12" y="308" font-family="Verdana" font-size="10" text-anchor="middle"  dominant-baseline="middle" fill="black" > 288</text>
<text x="12" y="452" font-family="Verdana" font-size="10" text-anchor="middle"  dominant-baseline="middle" fill="black" > 432</text>
<text x="12" y="596" font-family="Verdana" font-size="10" text-anchor="middle"  dominant-baseline="middle" fill="black" > 576</text>
<text x="12" y="740" font-family="Verdana" font-size="10" text-anchor="middle"  dominant-baseline="middle" fill="black" > 720</text>
<text x="50" y="7" font-family="Verdana" font-size="7" text-anchor="middle"  dominant-baseline="middle" fill="black" > C1</text>
<circle cx="50" cy="15" r="4" fill="white" stroke="black" />
<line x1="50" y1="19" x2="50" y2="446" stroke="black" />
<line x1="46" y1="442" x2="54" y2="450" stroke="red" />
<line x1="46" y1="450" x2="54" y2="442" stroke="red" />
<text x="50" y="458" font-family="Verdana" font-size="8" text-anchor="middle"  dominant-baseline="middle" fill="black" > 431</text>
<text x="200" y="7" font-family="Verdana" font-size="7" text-anchor="middle"  dominant-baseline="middle" fill="black" > C2</text>
<circle cx="200" cy="15" r="4" fill="white" stroke="black" />
<line x1="200" y1="19" x2="200" y2="315" stroke="black" />
<line x1="150" y1="315" x2="250" y2="315" stroke="black" />
<text x="225" y="307" font-family="Verdana" font-size="8" text-anchor="middle"  dominant-baseline="middle" fill="black" > 300</text>
<circle cx="150" cy="315" r="4" fill="white" stroke="black" />
<circle cx="250" cy="315" r="4" fill="white" stroke="black" />
<line x1="150" y1="319" x2="150" y2="425" stroke="black" />
<line x1="150" y1="425" x2="200" y2="461" stroke="black" />
<line x1="250" y1="319" x2="250" y2="425" stroke="black" />
<line x1="250" y1="425" x2="200" y2="461" stroke="black" />
<text x="200" y="449" font-family="Verdana" font-size="8" text-anchor="middle"  dominant-baseline="middle" fill="black" > 446</text>
<circle cx="200" cy="461" r="4" fill="white" stroke="black" />
<line x1="200" y1="465" x2="200" y2="498" stroke="black" />
<line x1="196" y1="494" x2="204" y2="502" stroke="red" />
<line x1="196" y1="502" x2="204" y2="494" stroke="red" />
<text x="200" y="510" font-family="Verdana" font-size="8" text-anchor="middle"  dominant-baseline="middle" fill="black" > 483</text>
<text x="450" y="7" font-family="Verdana" font-size="7" text-anchor="middle"  dominant-baseline="middle" fill="black" > C3</text>
<circle cx="450" cy="15" r="4" fill="white" stroke="black" />
<line x1="450" y1="19" x2="450" y2="664" stroke="black" />
<line x1="350" y1="664" x2="550" y2="664" stroke="black" />
<text x="475" y="656" font-family="Verdana" font-size="8" text-anchor="middle"  dominant-baseline="middle" fill="black" > 649</text>
<circle cx="350" cy="664" r="4" fill="white" stroke="black" />
<line x1="350" y1="668" x2="350" y2="736" stroke="black" />
<circle cx="350" cy="736" r="4" fill="white" stroke="black" />
<text x="350" y="748" font-family="Verdana" font-size="8" text-anchor="middle"  dominant-baseline="middle" fill="black" > 721</text>
<circle cx="450" cy="664" r="4" fill="white" stroke="black" />
<circle cx="550" cy="664" r="4" fill="white" stroke="black" />
<line x1="450" y1="668" x2="450" y2="676" stroke="black" />
<line x1="450" y1="676" x2="500" y2="679" stroke="black" />
<line x1="550" y1="668" x2="550" y2="676" stroke="black" />
<line x1="550" y1="676" x2="500" y2="679" stroke="black" />
<text x="500" y="667" font-family="Verdana" font-size="8" text-anchor="middle"  dominant-baseline="middle" fill="black" > 664</text>
<circle cx="500" cy="679" r="4" fill="white" stroke="black" />
<line x1="500" y1="683" x2="500" y2="736" stroke="black" />
<circle cx="500" cy="736" r="4" fill="white" stroke="black" />
<text x="500" y="748" font-family="Verdana" font-size="8" text-anchor="middle"  dominant-baseline="middle" fill="black" > 721</text>
<text x="700" y="7" font-family="Verdana" font-size="7" text-anchor="middle"  dominant-baseline="middle" fill="black" > C4</text>
<circle cx="700" cy="15" r="4" fill="white" stroke="black" />
<line x1="700" y1="19" x2="700" y2="189" stroke="black" />
<line x1="650" y1="189" x2="750" y2="189" stroke="black" />
<text x="725" y="181" font-family="Verdana" font-size="8" text-anchor="middle"  dominant-baseline="middle" fill="black" > 174</text>
<circle cx="650" cy="189" r="4" fill="white" stroke="black" />
<circle cx="750" cy="189" r="4" fill="white" stroke="black" />
<line x1="750" y1="193" x2="750" y2="350" stroke="black" />
<line x1="725" y1="350" x2="775" y2="350" stroke="black" />
<text x="762" y="342" font-family="Verdana" font-size="8" text-anchor="middle"  dominant-baseline="middle" fill="black" > 335</text>
<circle cx="725" cy="350" r="4" fill="white" stroke="black" />
<line x1="650" y1="193" x2="650" y2="397" stroke="black" />
<line x1="650" y1="397" x2="687" y2="412" stroke="black" />
<line x1="725" y1="354" x2="725" y2="397" stroke="black" />
<line x1="725" y1="397" x2="687" y2="412" stroke="black" />
<text x="687" y="400" font-family="Verdana" font-size="8" text-anchor="middle"  dominant-baseline="middle" fill="black" > 397</text>
<circle cx="687" cy="412" r="4" fill="white" stroke="black" />
<circle cx="775" cy="350" r="4" fill="white" stroke="black" />
<line x1="687" y1="416" x2="687" y2="472" stroke="black" />
<line x1="687" y1="472" x2="731" y2="491" stroke="black" />
<line x1="775" y1="354" x2="775" y2="472" stroke="black" />
<line x1="775" y1="472" x2="731" y2="491" stroke="black" />
<text x="731" y="479" font-family="Verdana" font-size="8" text-anchor="middle"  dominant-baseline="middle" fill="black" > 476</text>
<circle cx="731" cy="491" r="4" fill="white" stroke="black" />
<line x1="731" y1="495" x2="731" y2="736" stroke="black" />
<circle cx="731" cy="736" r="4" fill="white" stroke="black" />
<text x="731" y="748" font-family="Verdana" font-size="8" text-anchor="middle"  dominant-baseline="middle" fill="black" > 721</text>
<text x="900" y="7" font-family="Verdana" font-size="7" text-anchor="middle"  dominant-baseline="middle" fill="black" > C5</text>
<circle cx="900" cy="15" r="4" fill="white" stroke="black" />
<line x1="900" y1="19" x2="900" y2="461" stroke="black" />
<line x1="850" y1="461" x2="950" y2="461" stroke="black" />
<text x="925" y="453" font-family="Verdana" font-size="8" text-anchor="middle"  dominant-baseline="middle" fill="black" > 446</text>
<circle cx="850" cy="461" r="4" fill="white" stroke="black" />
<line x1="850" y1="465" x2="850" y2="736" stroke="black" />
<circle cx="850" cy="736" r="4" fill="white" stroke="black" />
<text x="850" y="748" font-family="Verdana" font-size="8" text-anchor="middle"  dominant-baseline="middle" fill="black" > 721</text>
<circle cx="950" cy="461" r="4" fill="white" stroke="black" />
<line x1="950" y1="465" x2="950" y2="736" stroke="black" />
<circle cx="950" cy="736" r="4" fill="white" stroke="black" />
<text x="950" y="748" font-family="Verdana" font-size="8" text-anchor="middle"  dominant-baseline="middle" fill="black" > 721</text>
</svg>
