<?xml version="1.0" encoding="utf-8"?>
<svg xmlns="http://www.w3.org/2000/svg" version="1.1" width="1750" height="750">
<rect width="1750" height="15" x="0" y="0" fill="white" />
<rect width="1750" height="15" x="0" y="735" fill="white" />
<rect width="25" height="750" x="0" y="0" fill="white" />
<rect width="25" height="750" x="1725" y="0" fill="white" />
<rect width="1710" height="144" x="25" y="15" fill="ghostwhite" />
<rect width="1710" height="144" x="25" y="159" fill="snow" />
<rect width="1710" height="144" x="25" y="303" fill="ghostwhite" />
<rect width="1710" height="144" x="25" y="447" fill="snow" />
<rect width="1710" height="144" x="25" y="591" fill="ghostwhite" />
<text x="12" y="87" font-family="Verdana" font-size="10" text-anchor="middle"  dominant-baseline="middle" fill="red" > D0</text>
<text x="12" y="231" font-family="Verdana" font-size="10" text-anchor="middle"  dominant-baseline="middle" fill="red" > D1</text>
<text x="12" y="375" font-family="Verdana" font-size="10" text-anchor="middle"  dominant-baseline="middle" fill="red" > D2</text>
<text x="12" y="519" font-family="Verdana" font-size="10" text-anchor="middle"  dominant-baseline="middle" fill="red" > D3</text>
<text x="12" y="663" font-family="Verdana" font-size="10" text-anchor="middle"  dominant-baseline="middle" fill="red" > D4</text>
<text x="12" y="20" font-family="Verdana" font-size="10" text-anchor="middle"  dominant-baseline="middle" fill="black" > 0</text>
<text x="12" y="164" font-family="Verdana" font-size="10" text-anchor="middle"  dominant-baseline="middle" fill="black" > 144</text>
<text x="12" y="308" font-family="Verdana" font-size="10" text-anchor="middle"  dominant-baseline="middle" fill="black" > 288</text>
<text x="12" y="452" font-family="Verdana" font-size="10" text-anchor="middle"  dominant-baseline="middle" fill="black" > 432</text>
<text x="12" y="596" font-family="Verdana" font-size="10" text-anchor="middle"  dominant-baseline="middle" fill="black" > 576</text>
<text x="12" y="740" font-family="Verdana" font-size="10" text-anchor="middle"  dominant-baseline="middle" fill="black" > 720</text>
<text x="100" y="7" font-family="Verdana" font-size="7" text-anchor="middle"  dominant-baseline="middle" fill="black" > C1</text>
<circle cx="100" cy="15" r="4" fill="white" stroke="black" />
<line x1="100" y1="19" x2="100" y2="245" stroke="black" />
<line x1="50" y1="245" x2="150" y2="245" stroke="black" />
<text x="125" y="237" font-family="Verdana" font-size="8" text-anchor="middle"  dominant-baseline="middle" fill="black" > 230</text>
<circle cx="50" cy="245" r="4" fill="white" stroke="black" />
<circle cx="150" cy="245" r="4" fill="white" stroke="black" />
<line x1="50" y1="249" x2="50" y2="326" stroke="black" />
<line x1="50" y1="326" x2="100" y2="353" stroke="black" />
<line x1="150" y1="249" x2="150" y2="326" stroke="black" />
<line x1="150" y1="326" x2="100" y2="353" stroke="black" />
<text x="100" y="341" font-family="Verdana" font-size="8" text-anchor="middle"  dominant-baseline="middle" fill="black" > 338</text>
<circle cx="100" cy="353" r="4" fill="white" stroke="black" />
<line x1="100" y1="357" x2="100" y2="417" stroke="black" />
<line x1="96" y1="413" x2="104" y2="421" stroke="red" />
<line x1="96" y1="421" x2="104" y2="413" stroke="red" />
<text x="100" y="429" font-family="Verdana" font-size="8" text-anchor="middle"  dominant-baseline="middle" fill="black" > 402</text>
<text x="250" y="7" font-family="Verdana" font-size="7" text-anchor="middle"  dominant-baseline="middle" fill="black" > C2</text>
<circle cx="250" cy="15" r="4" fill="white" stroke="black" />
<line x1="250" y1="19" x2="250" y2="191" stroke="black" />
<line x1="246" y1="187" x2="254" y2="195" stroke="red" />
<line x1="246" y1="195" x2="254" y2="187" stroke="red" />
<text x="250" y="203" font-family="Verdana" font-size="8" text-anchor="middle"  dominant-baseline="middle" fill="black" > 176</text>
<text x="450" y="7" font-family="Verdana" font-size="7" text-anchor="middle"  dominant-baseline="middle" fill="black" > C3</text>
<circle cx="450" cy="15" r="4" fill="white" stroke="black" />
<line x1="450" y1="19" x2="450" y2="319" stroke="black" />
<line x1="350" y1="319" x2="550" y2="319" stroke="black" />
<text x="475" y="311" font-family="Verdana" font-size="8" text-anchor="middle"  dominant-baseline="middle" fill="black" > 304</text>
<circle cx="350" cy="319" r="4" fill="white" stroke="black" />
<circle cx="450" cy="319" r="4" fill="white" stroke="black" />
<line x1="350" y1="323" x2="350" y2="444" stroke="black" />
<line x1="350" y1="444" x2="400" y2="485" stroke="black" />
<line x1="450" y1="323" x2="450" y2="444" stroke="black" />
<line x1="450" y1="444" x2="400" y2="485" stroke="black" />
<text x="400" y="473" font-family="Verdana" font-size="8" text-anchor="middle"  dominant-baseline="middle" fill="black" > 470</text>
<circle cx="400" cy="485" r="4" fill="white" stroke="black" />
<line x1="400" y1="489" x2="400" y2="520" stroke="black" />
<line x1="396" y1="516" x2="404" y2="524" stroke="red" />
<line x1="396" y1="524" x2="404" y2="516" stroke="red" />
<text x="400" y="532" font-family="Verdana" font-size="8" text-anchor="middle"  dominant-baseline="middle" fill="black" > 505</text>
<circle cx="550" cy="319" r="4" fill="white" stroke="black" />
<line x1="550" y1="323" x2="550" y2="527" stroke="black" />
<line x1="546" y1="523" x2="554" y2="531" stroke="red" />
<line x1="546" y1="531" x2="554" y2="523" stroke="red" />
<text x="550" y="539" font-family="Verdana" font-size="8" text-anchor="middle"  dominant-baseline="middle" fill="black" > 512</text>
<text x="700" y="7" font-family="Verdana" font-size="7" text-anchor="middle"  dominant-baseline="middle" fill="black" > C4</text>
<circle cx="700" cy="15" r="4" fill="white" stroke="black" />
<line x1="700" y1="19" x2="700" y2="226" stroke="black" />
<line x1="650" y1="226" x2="750" y2="226" stroke="black" />
<text x="725" y="218" font-family="Verdana" font-size="8" text-anchor="middle"  dominant-baseline="middle" fill="black" > 211</text>
<circle cx="650" cy="226" r="4" fill="white" stroke="black" />
<line x1="650" y1="230" x2="650" y2="527" stroke="black" />
<line x1="646" y1="523" x2="654" y2="531" stroke="red" />
<line x1="646" y1="531" x2="654" y2="523" stroke="red" />
<text x="650" y="539" font-family="Verdana" font-size="8" text-anchor="middle"  dominant-baseline="middle" fill="black" > 512</text>
<circle cx="750" cy="226" r="4" fill="white" stroke="black" />
<line x1="750" y1="230" x2="750" y2="355" stroke="black" />
<line x1="746" y1="359" x2="750" y2="351" stroke="blue" />
<line x1="750" y1="359" x2="754" y2="351" stroke="blue" />
<text x="750" y="367" font-family="Verdana" font-size="8" text-anchor="middle"  dominant-baseline="middle" fill="black" > 340</text>
<text x="850" y="7" font-family="Verdana" font-size="7" text-anchor="middle"  dominant-baseline="middle" fill="black" > C5</text>
<circle cx="850" cy="15" r="4" fill="white" stroke="black" />
<line x1="850" y1="19" x2="850" y2="234" stroke="black" />
<line x1="846" y1="238" x2="850" y2="230" stroke="blue" />
<line x1="850" y1="238" x2="854" y2="230" stroke="blue" />
<text x="850" y="246" font-family="Verdana" font-size="8" text-anchor="middle"  dominant-baseline="middle" fill="black" > 219</text>
<text x="950" y="7" font-family="Verdana" font-size="7" text-anchor="middle"  dominant-baseline="middle" fill="black" > C6</text>
<circle cx="950" cy="15" r="4" fill="white" stroke="black" />
<line x1="950" y1="19" x2="950" y2="426" stroke="black" />
<line x1="946" y1="430" x2="950" y2="422" stroke="blue" />
<line x1="950" y1="430" x2="954" y2="422" stroke="blue" />
<text x="950" y="438" font-family="Verdana" font-size="8" text-anchor="middle"  dominant-baseline="middle" fill="black" > 411</text>
<text x="1150" y="7" font-family="Verdana" font-size="7" text-anchor="middle"  dominant-baseline="middle" fill="black" > C7</text>
<circle cx="1150" cy="15" r="4" fill="white" stroke="black" />
<line x1="1150" y1="19" x2="1150" y2="499" stroke="black" />
<line x1="1050" y1="499" x2="1250" y2="499" stroke="black" />
<text x="1175" y="491" font-family="Verdana" font-size="8" text-anchor="middle"  dominant-baseline="middle" fill="black" > 484</text>
<circle cx="1050" cy="499" r="4" fill="white" stroke="black" />
<circle cx="1150" cy="499" r="4" fill="white" stroke="black" />
<line x1="1050" y1="503" x2="1050" y2="509" stroke="black" />
<line x1="1050" y1="509" x2="1100" y2="512" stroke="black" />
<line x1="1150" y1="503" x2="1150" y2="509" stroke="black" />
<line x1="1150" y1="509" x2="1100" y2="512" stroke="black" />
<text x="1100" y="500" font-family="Verdana" font-size="8" text-anchor="middle"  dominant-baseline="middle" fill="black" > 497</text>
<circle cx="1100" cy="512" r="4" fill="white" stroke="black" />
<circle cx="1250" cy="499" r="4" fill="white" stroke="black" />
<line x1="1100" y1="516" x2="1100" y2="532" stroke="black" />
<line x1="1100" y1="532" x2="1175" y2="538" stroke="black" />
<line x1="1250" y1="503" x2="1250" y2="532" stroke="black" />
<line x1="1250" y1="532" x2="1175" y2="538" stroke="black" />
<text x="1175" y="526" font-family="Verdana" font-size="8" text-anchor="middle"  dominant-baseline="middle" fill="black" > 523</text>
<circle cx="1175" cy="538" r="4" fill="white" stroke="black" />
<line x1="1175" y1="542" x2="1175" y2="736" stroke="black" />
<circle cx="1175" cy="736" r="4" fill="white" stroke="black" />
<text x="1175" y="748" font-family="Verdana" font-size="8" text-anchor="middle"  dominant-baseline="middle" fill="black" > 721</text>
<text x="1350" y="7" font-family="Verdana" font-size="7" text-anchor="middle"  dominant-baseline="middle" fill="black" > C8</text>
<circle cx="1350" cy="15" r="4" fill="white" stroke="black" />
<line x1="1350" y1="19" x2="1350" y2="554" stroke="black" />
<line x1="1346" y1="550" x2="1354" y2="558" stroke="red" />
<line x1="1346" y1="558" x2="1354" y2="550" stroke="red" />
<text x="1350" y="566" font-family="Verdana" font-size="8" text-anchor="middle"  dominant-baseline="middle" fill="black" > 539</text>
<text x="1450" y="7" font-family="Verdana" font-size="7" text-anchor="middle"  dominant-baseline="middle" fill="black" > C9</text>
<circle cx="1450" cy="15" r="4" fill="white" stroke="black" />
<line x1="1450" y1="19" x2="1450" y2="92" stroke="black" />
<line x1="1446" y1="88" x2="1454" y2="96" stroke="red" />
<line x1="1446" y1="96" x2="1454" y2="88" stroke="red" />
<text x="1450" y="104" font-family="Verdana" font-size="8" text-anchor="middle"  dominant-baseline="middle" fill="black" > 77</text>
<text x="1550" y="7" font-family="Verdana" font-size="7" text-anchor="middle"  dominant-baseline="middle" fill="black" > C10</text>
<circle cx="1550" cy="15" r="4" fill="white" stroke="black" />
<line x1="1550" y1="19" x2="1550" y2="131" stroke="black" />
<line x1="1546" y1="135" x2="1550" y2="127" stroke="blue" />
<line x1="1550" y1="135" x2="1554" y2="127" stroke="blue" />
<text x="1550" y="143" font-family="Verdana" font-size="8" text-anchor="middle"  dominant-baseline="middle" fill="black" > 116</text>
<text x="1650" y="7" font-family="Verdana" font-size="7" text-anchor="middle"  dominant-baseline="middle" fill="black" > C11</text>
<circle cx="1650" cy="15" r="4" fill="white" stroke="black" />
<line x1="1650" y1="19" x2="1650" y2="281" stroke="black" />
<line x1="1646" y1="285" x2="1650" y2="277" stroke="blue" />
<line x1="1650" y1="285" x2="1654" y2="277" stroke="blue" />
<text x="1650" y="293" font-family="Verdana" font-size="8" text-anchor="middle"  dominant-baseline="middle" fill="black" > 266</text>
</svg>
