<?xml version="1.0" encoding="utf-8"?>
<svg xmlns="http://www.w3.org/2000/svg" version="1.1" width="650" height="750">
<rect width="650" height="15" x="0" y="0" fill="white" />
<rect width="650" height="15" x="0" y="735" fill="white" />
<rect width="25" height="750" x="0" y="0" fill="white" />
<rect width="25" height="750" x="625" y="0" fill="white" />
<rect width="610" height="144" x="25" y="15" fill="ghostwhite" />
<rect width="610" height="144" x="25" y="159" fill="snow" />
<rect width="610" height="144" x="25" y="303" fill="ghostwhite" />
<rect width="610" height="144" x="25" y="447" fill="snow" />
<rect width="610" height="144" x="25" y="591" fill="ghostwhite" />
<text x="12" y="87" font-family="Verdana" font-size="10" text-anchor="middle"  dominant-baseline="middle" fill="red" > D0</text>
<text x="12" y="231" font-family="Verdana" font-size="10" text-anchor="middle"  dominant-baseline="middle" fill="red" > D1</text>
<text x="12" y="375" font-family="Verdana" font-size="10" text-anchor="middle"  dominant-baseline="middle" fill="red" > D2</text>
<text x="12" y="519" font-family="Verdana" font-size="10" text-anchor="middle"  dominant-baseline="middle" fill="red" > D3</text>
<text x="12" y="663" font-family="Verdana" font-size="10" text-anchor="middle"  dominant-baseline="middle" fill="red" > D4</text>
<text x="12" y="20" font-family="Verdana" font-size="10" text-anchor="middle"  dominant-baseline="middle" fill="black" > 0</text>
<text x="12" y="164" font-family="Verdana" font-size="10" text-anchor="middle"  dominant-baseline="middle" fill="black" > 144</text>
<text x="12" y="308" font-family="Verdana" font-size="10" text-anchor="middle"  dominant-baseline="middle" fill="black" > 288</text>
<text x="12" y="452" font-family="Verdana" font-size="10" text-anchor="middle"  dominant-baseline="middle" fill="black" > 432</text>
<text x="12" y="596" font-family="Verdana" font-size="10" text-anchor="middle"  dominant-baseline="middle" fill="black" > 576</text>
<text x="12" y="740" font-family="Verdana" font-size="10" text-anchor="middle"  dominant-baseline="middle" fill="black" > 720</text>
<text x="50" y="7" font-family="Verdana" font-size="7" text-anchor="middle"  dominant-baseline="middle" fill="black" > C1</text>
<circle cx="50" cy="15" r="4" fill="white" stroke="black" />
<line x1="50" y1="19" x2="50" y2="449" stroke="black" />
<line x1="46" y1="445" x2="54" y2="453" stroke="red" />
<line x1="46" y1="453" x2="54" y2="445" stroke="red" />
<text x="50" y="461" font-family="Verdana" font-size="8" text-anchor="middle"  dominant-baseline="middle" fill="black" > 434</text>
<text x="150" y="7" font-family="Verdana" font-size="7" text-anchor="middle"  dominant-baseline="middle" fill="black" > C2</text>
<circle cx="150" cy="15" r="4" fill="white" stroke="black" />
<line x1="150" y1="19" x2="150" y2="562" stroke="black" />
<line x1="146" y1="566" x2="150" y2="558" stroke="blue" />
<line x1="150" y1="566" x2="154" y2="558" stroke="blue" />
<text x="150" y="574" font-family="Verdana" font-size="8" text-anchor="middle"  dominant-baseline="middle" fill="black" > 547</text>
<text x="250" y="7" font-family="Verdana" font-size="7" text-anchor="middle"  dominant-baseline="middle" fill="black" > C3</text>
<circle cx="250" cy="15" r="4" fill="white" stroke="black" />
<line x1="250" y1="19" x2="250" y2="368" stroke="black" />
<line x1="246" y1="364" x2="254" y2="372" stroke="red" />
<line x1="246" y1="372" x2="254" y2="364" stroke="red" />
<text x="250" y="380" font-family="Verdana" font-size="8" text-anchor="middle"  dominant-baseline="middle" fill="black" > 353</text>
<text x="350" y="7" font-family="Verdana" font-size="7" text-anchor="middle"  dominant-baseline="middle" fill="black" > C4</text>
<circle cx="350" cy="15" r="4" fill="white" stroke="black" />
<line x1="350" y1="19" x2="350" y2="553" stroke="black" />
<line x1="346" y1="549" x2="354" y2="557" stroke="red" />
<line x1="346" y1="557" x2="354" y2="549" stroke="red" />
<text x="350" y="565" font-family="Verdana" font-size="8" text-anchor="middle"  dominant-baseline="middle" fill="black" > 538</text>
<text x="500" y="7" font-family="Verdana" font-size="7" text-anchor="middle"  dominant-baseline="middle" fill="black" > C5</text>
<circle cx="500" cy="15" r="4" fill="white" stroke="black" />
<line x1="500" y1="19" x2="500" y2="21" stroke="black" />
<line x1="450" y1="21" x2="550" y2="21" stroke="black" />
<text x="525" y="13" font-family="Verdana" font-size="8" text-anchor="middle"  dominant-baseline="middle" fill="black" > 6</text>
<circle cx="450" cy="21" r="4" fill="white" stroke="black" />
<circle cx="550" cy="21" r="4" fill="white" stroke="black" />
<line x1="450" y1="25" x2="450" y2="38" stroke="black" />
<line x1="450" y1="38" x2="500" y2="43" stroke="black" />
<line x1="550" y1="25" x2="550" y2="38" stroke="black" />
<line x1="550" y1="38" x2="500" y2="43" stroke="black" />
<text x="500" y="31" font-family="Verdana" font-size="8" text-anchor="middle"  dominant-baseline="middle" fill="black" > 28</text>
<circle cx="500" cy="43" r="4" fill="white" stroke="black" />
<line x1="500" y1="47" x2="500" y2="366" stroke="black" />
<line x1="496" y1="362" x2="504" y2="370" stroke="red" />
<line x1="496" y1="370" x2="504" y2="362" stroke="red" />
<text x="500" y="378" font-family="Verdana" font-size="8" text-anchor="middle"  dominant-baseline="middle" fill="black" > 351</text>
</svg>
