<?xml version="1.0" encoding="utf-8"?>
<svg xmlns="http://www.w3.org/2000/svg" version="1.1" width="750" height="750">
<rect width="750" height="15" x="0" y="0" fill="white" />
<rect width="750" height="15" x="0" y="735" fill="white" />
<rect width="25" height="750" x="0" y="0" fill="white" />
<rect width="25" height="750" x="725" y="0" fill="white" />
<rect width="710" height="144" x="25" y="15" fill="ghostwhite" />
<rect width="710" height="144" x="25" y="159" fill="snow" />
<rect width="710" height="144" x="25" y="303" fill="ghostwhite" />
<rect width="710" height="144" x="25" y="447" fill="snow" />
<rect width="710" height="144" x="25" y="591" fill="ghostwhite" />
<text x="12" y="87" font-family="Verdana" font-size="10" text-anchor="middle"  dominant-baseline="middle" fill="red" > D0</text>
<text x="12" y="231" font-family="Verdana" font-size="10" text-anchor="middle"  dominant-baseline="middle" fill="red" > D1</text>
<text x="12" y="375" font-family="Verdana" font-size="10" text-anchor="middle"  dominant-baseline="middle" fill="red" > D2</text>
<text x="12" y="519" font-family="Verdana" font-size="10" text-anchor="middle"  dominant-baseline="middle" fill="red" > D3</text>
<text x="12" y="663" font-family="Verdana" font-size="10" text-anchor="middle"  dominant-baseline="middle" fill="red" > D4</text>
<text x="12" y="20" font-family="Verdana" font-size="10" text-anchor="middle"  dominant-baseline="middle" fill="black" > 0</text>
<text x="12" y="164" font-family="Verdana" font-size="10" text-anchor="middle"  dominant-baseline="middle" fill="black" > 144</text>
<text x="12" y="308" font-family="Verdana" font-size="10" text-anchor="middle"  dominant-baseline="middle" fill="black" > 288</text>
<text x="12" y="452" font-family="Verdana" font-size="10" text-anchor="middle"  dominant-baseline="middle" fill="black" > 432</text>
<text x="12" y="596" font-family="Verdana" font-size="10" text-anchor="middle"  dominant-baseline="middle" fill="black" > 576</text>
<text x="12" y="740" font-family="Verdana" font-size="10" text-anchor="middle"  dominant-baseline="middle" fill="black" > 720</text>
<text x="50" y="7" font-family="Verdana" font-size="7" text-anchor="middle"  dominant-baseline="middle" fill="black" > C1</text>
<circle cx="50" cy="15" r="4" fill="white" stroke="black" />
<line x1="50" y1="19" x2="50" y2="316" stroke="black" />
<line x1="46" y1="320" x2="50" y2="312" stroke="blue" />
<line x1="50" y1="320" x2="54" y2="312" stroke="blue" />
<text x="50" y="328" font-family="Verdana" font-size="8" text-anchor="middle"  dominant-baseline="middle" fill="black" > 301</text>
<text x="150" y="7" font-family="Verdana" font-size="7" text-anchor="middle"  dominant-baseline="middle" fill="black" > C2</text>
<circle cx="150" cy="15" r="4" fill="white" stroke="black" />
<line x1="150" y1="19" x2="150" y2="316" stroke="black" />
<line x1="146" y1="320" x2="150" y2="312" stroke="blue" />
<line x1="150" y1="320" x2="154" y2="312" stroke="blue" />
<text x="150" y="328" font-family="Verdana" font-size="8" text-anchor="middle"  dominant-baseline="middle" fill="black" > 301</text>
<text x="250" y="7" font-family="Verdana" font-size="7" text-anchor="middle"  dominant-baseline="middle" fill="black" > C3</text>
<circle cx="250" cy="15" r="4" fill="white" stroke="black" />
<line x1="250" y1="19" x2="250" y2="325" stroke="black" />
<line x1="246" y1="329" x2="250" y2="321" stroke="blue" />
<line x1="250" y1="329" x2="254" y2="321" stroke="blue" />
<text x="250" y="337" font-family="Verdana" font-size="8" text-anchor="middle"  dominant-baseline="middle" fill="black" > 310</text>
<text x="500" y="7" font-family="Verdana" font-size="7" text-anchor="middle"  dominant-baseline="middle" fill="black" > C4</text>
<circle cx="500" cy="15" r="4" fill="white" stroke="black" />
<line x1="500" y1="19" x2="500" y2="423" stroke="black" />
<line x1="350" y1="423" x2="650" y2="423" stroke="black" />
<text x="525" y="415" font-family="Verdana" font-size="8" text-anchor="middle"  dominant-baseline="middle" fill="black" > 408</text>
<circle cx="350" cy="423" r="4" fill="white" stroke="black" />
<line x1="350" y1="427" x2="350" y2="703" stroke="black" />
<line x1="346" y1="699" x2="354" y2="707" stroke="red" />
<line x1="346" y1="707" x2="354" y2="699" stroke="red" />
<text x="350" y="715" font-family="Verdana" font-size="8" text-anchor="middle"  dominant-baseline="middle" fill="black" > 688</text>
<circle cx="450" cy="423" r="4" fill="white" stroke="black" />
<circle cx="550" cy="423" r="4" fill="white" stroke="black" />
<line x1="450" y1="427" x2="450" y2="438" stroke="black" />
<line x1="450" y1="438" x2="500" y2="443" stroke="black" />
<line x1="550" y1="427" x2="550" y2="438" stroke="black" />
<line x1="550" y1="438" x2="500" y2="443" stroke="black" />
<text x="500" y="431" font-family="Verdana" font-size="8" text-anchor="middle"  dominant-baseline="middle" fill="black" > 428</text>
<circle cx="500" cy="443" r="4" fill="white" stroke="black" />
<circle cx="650" cy="423" r="4" fill="white" stroke="black" />
<line x1="500" y1="447" x2="500" y2="449" stroke="black" />
<line x1="500" y1="449" x2="575" y2="450" stroke="black" />
<line x1="650" y1="427" x2="650" y2="449" stroke="black" />
<line x1="650" y1="449" x2="575" y2="450" stroke="black" />
<text x="575" y="438" font-family="Verdana" font-size="8" text-anchor="middle"  dominant-baseline="middle" fill="black" > 435</text>
<circle cx="575" cy="450" r="4" fill="white" stroke="black" />
<line x1="575" y1="454" x2="575" y2="736" stroke="black" />
<circle cx="575" cy="736" r="4" fill="white" stroke="black" />
<text x="575" y="748" font-family="Verdana" font-size="8" text-anchor="middle"  dominant-baseline="middle" fill="black" > 721</text>
</svg>
