<?xml version="1.0" encoding="utf-8"?>
<svg xmlns="http://www.w3.org/2000/svg" version="1.1" width="2350" height="750">
<rect width="2350" height="15" x="0" y="0" fill="white" />
<rect width="2350" height="15" x="0" y="735" fill="white" />
<rect width="25" height="750" x="0" y="0" fill="white" />
<rect width="25" height="750" x="2325" y="0" fill="white" />
<rect width="2310" height="144" x="25" y="15" fill="ghostwhite" />
<rect width="2310" height="144" x="25" y="159" fill="snow" />
<rect width="2310" height="144" x="25" y="303" fill="ghostwhite" />
<rect width="2310" height="144" x="25" y="447" fill="snow" />
<rect width="2310" height="144" x="25" y="591" fill="ghostwhite" />
<text x="12" y="87" font-family="Verdana" font-size="10" text-anchor="middle"  dominant-baseline="middle" fill="red" > D0</text>
<text x="12" y="231" font-family="Verdana" font-size="10" text-anchor="middle"  dominant-baseline="middle" fill="red" > D1</text>
<text x="12" y="375" font-family="Verdana" font-size="10" text-anchor="middle"  dominant-baseline="middle" fill="red" > D2</text>
<text x="12" y="519" font-family="Verdana" font-size="10" text-anchor="middle"  dominant-baseline="middle" fill="red" > D3</text>
<text x="12" y="663" font-family="Verdana" font-size="10" text-anchor="middle"  dominant-baseline="middle" fill="red" > D4</text>
<text x="12" y="20" font-family="Verdana" font-size="10" text-anchor="middle"  dominant-baseline="middle" fill="black" > 0</text>
<text x="12" y="164" font-family="Verdana" font-size="10" text-anchor="middle"  dominant-baseline="middle" fill="black" > 144</text>
<text x="12" y="308" font-family="Verdana" font-size="10" text-anchor="middle"  dominant-baseline="middle" fill="black" > 288</text>
<text x="12" y="452" font-family="Verdana" font-size="10" text-anchor="middle"  dominant-baseline="middle" fill="black" > 432</text>
<text x="12" y="596" font-family="Verdana" font-size="10" text-anchor="middle"  dominant-baseline="middle" fill="black" > 576</text>
<text x="12" y="740" font-family="Verdana" font-size="10" text-anchor="middle"  dominant-baseline="middle" fill="black" > 720</text>
<text x="150" y="7" font-family="Verdana" font-size="7" text-anchor="middle"  dominant-baseline="middle" fill="black" > C1</text>
<circle cx="150" cy="15" r="4" fill="white" stroke="black" />
<line x1="150" y1="19" x2="150" y2="420" stroke="black" />
<line x1="50" y1="420" x2="250" y2="420" stroke="black" />
<text x="175" y="412" font-family="Verdana" font-size="8" text-anchor="middle"  dominant-baseline="middle" fill="black" > 405</text>
<circle cx="50" cy="420" r="4" fill="white" stroke="black" />
<line x1="50" y1="424" x2="50" y2="533" stroke="black" />
<line x1="46" y1="537" x2="50" y2="529" stroke="blue" />
<line x1="50" y1="537" x2="54" y2="529" stroke="blue" />
<text x="50" y="545" font-family="Verdana" font-size="8" text-anchor="middle"  dominant-baseline="middle" fill="black" > 518</text>
<circle cx="150" cy="420" r="4" fill="white" stroke="black" />
<circle cx="250" cy="420" r="4" fill="white" stroke="black" />
<line x1="150" y1="424" x2="150" y2="438" stroke="black" />
<line x1="150" y1="438" x2="200" y2="443" stroke="black" />
<line x1="250" y1="424" x2="250" y2="438" stroke="black" />
<line x1="250" y1="438" x2="200" y2="443" stroke="black" />
<text x="200" y="431" font-family="Verdana" font-size="8" text-anchor="middle"  dominant-baseline="middle" fill="black" > 428</text>
<circle cx="200" cy="443" r="4" fill="white" stroke="black" />
<line x1="200" y1="447" x2="200" y2="612" stroke="black" />
<line x1="196" y1="608" x2="204" y2="616" stroke="red" />
<line x1="196" y1="616" x2="204" y2="608" stroke="red" />
<text x="200" y="624" font-family="Verdana" font-size="8" text-anchor="middle"  dominant-baseline="middle" fill="black" > 597</text>
<text x="350" y="7" font-family="Verdana" font-size="7" text-anchor="middle"  dominant-baseline="middle" fill="black" > C2</text>
<circle cx="350" cy="15" r="4" fill="white" stroke="black" />
<line x1="350" y1="19" x2="350" y2="54" stroke="black" />
<line x1="346" y1="58" x2="350" y2="50" stroke="blue" />
<line x1="350" y1="58" x2="354" y2="50" stroke="blue" />
<text x="350" y="66" font-family="Verdana" font-size="8" text-anchor="middle"  dominant-baseline="middle" fill="black" > 39</text>
<text x="450" y="7" font-family="Verdana" font-size="7" text-anchor="middle"  dominant-baseline="middle" fill="black" > C3</text>
<circle cx="450" cy="15" r="4" fill="white" stroke="black" />
<line x1="450" y1="19" x2="450" y2="238" stroke="black" />
<line x1="446" y1="242" x2="450" y2="234" stroke="blue" />
<line x1="450" y1="242" x2="454" y2="234" stroke="blue" />
<text x="450" y="250" font-family="Verdana" font-size="8" text-anchor="middle"  dominant-baseline="middle" fill="black" > 223</text>
<text x="550" y="7" font-family="Verdana" font-size="7" text-anchor="middle"  dominant-baseline="middle" fill="black" > C4</text>
<circle cx="550" cy="15" r="4" fill="white" stroke="black" />
<line x1="550" y1="19" x2="550" y2="288" stroke="black" />
<line x1="546" y1="292" x2="550" y2="284" stroke="blue" />
<line x1="550" y1="292" x2="554" y2="284" stroke="blue" />
<text x="550" y="300" font-family="Verdana" font-size="8" text-anchor="middle"  dominant-baseline="middle" fill="black" > 273</text>
<text x="650" y="7" font-family="Verdana" font-size="7" text-anchor="middle"  dominant-baseline="middle" fill="black" > C5</text>
<circle cx="650" cy="15" r="4" fill="white" stroke="black" />
<line x1="650" y1="19" x2="650" y2="441" stroke="black" />
<line x1="646" y1="437" x2="654" y2="445" stroke="red" />
<line x1="646" y1="445" x2="654" y2="437" stroke="red" />
<text x="650" y="453" font-family="Verdana" font-size="8" text-anchor="middle"  dominant-baseline="middle" fill="black" > 426</text>
<text x="750" y="7" font-family="Verdana" font-size="7" text-anchor="middle"  dominant-baseline="middle" fill="black" > C6</text>
<circle cx="750" cy="15" r="4" fill="white" stroke="black" />
<line x1="750" y1="19" x2="750" y2="232" stroke="black" />
<line x1="746" y1="228" x2="754" y2="236" stroke="red" />
<line x1="746" y1="236" x2="754" y2="228" stroke="red" />
<text x="750" y="244" font-family="Verdana" font-size="8" text-anchor="middle"  dominant-baseline="middle" fill="black" > 217</text>
<text x="950" y="7" font-family="Verdana" font-size="7" text-anchor="middle"  dominant-baseline="middle" fill="black" > C7</text>
<circle cx="950" cy="15" r="4" fill="white" stroke="black" />
<line x1="950" y1="19" x2="950" y2="341" stroke="black" />
<line x1="850" y1="341" x2="1050" y2="341" stroke="black" />
<text x="975" y="333" font-family="Verdana" font-size="8" text-anchor="middle"  dominant-baseline="middle" fill="black" > 326</text>
<circle cx="850" cy="341" r="4" fill="white" stroke="black" />
<line x1="850" y1="345" x2="850" y2="531" stroke="black" />
<line x1="846" y1="527" x2="854" y2="535" stroke="red" />
<line x1="846" y1="535" x2="854" y2="527" stroke="red" />
<text x="850" y="543" font-family="Verdana" font-size="8" text-anchor="middle"  dominant-baseline="middle" fill="black" > 516</text>
<circle cx="950" cy="341" r="4" fill="white" stroke="black" />
<circle cx="1050" cy="341" r="4" fill="white" stroke="black" />
<line x1="950" y1="345" x2="950" y2="366" stroke="black" />
<line x1="950" y1="366" x2="1000" y2="374" stroke="black" />
<line x1="1050" y1="345" x2="1050" y2="366" stroke="black" />
<line x1="1050" y1="366" x2="1000" y2="374" stroke="black" />
<text x="1000" y="362" font-family="Verdana" font-size="8" text-anchor="middle"  dominant-baseline="middle" fill="black" > 359</text>
<circle cx="1000" cy="374" r="4" fill="white" stroke="black" />
<line x1="1000" y1="378" x2="1000" y2="494" stroke="black" />
<line x1="996" y1="490" x2="1004" y2="498" stroke="red" />
<line x1="996" y1="498" x2="1004" y2="490" stroke="red" />
<text x="1000" y="506" font-family="Verdana" font-size="8" text-anchor="middle"  dominant-baseline="middle" fill="black" > 479</text>
<text x="1200" y="7" font-family="Verdana" font-size="7" text-anchor="middle"  dominant-baseline="middle" fill="black" > C8</text>
<circle cx="1200" cy="15" r="4" fill="white" stroke="black" />
<line x1="1200" y1="19" x2="1200" y2="312" stroke="black" />
<line x1="1150" y1="312" x2="1250" y2="312" stroke="black" />
<text x="1225" y="304" font-family="Verdana" font-size="8" text-anchor="middle"  dominant-baseline="middle" fill="black" > 297</text>
<circle cx="1150" cy="312" r="4" fill="white" stroke="black" />
<line x1="1150" y1="316" x2="1150" y2="736" stroke="black" />
<circle cx="1150" cy="736" r="4" fill="white" stroke="black" />
<text x="1150" y="748" font-family="Verdana" font-size="8" text-anchor="middle"  dominant-baseline="middle" fill="black" > 721</text>
<circle cx="1250" cy="312" r="4" fill="white" stroke="black" />
<line x1="1250" y1="316" x2="1250" y2="368" stroke="black" />
<line x1="1246" y1="372" x2="1250" y2="364" stroke="blue" />
<line x1="1250" y1="372" x2="1254" y2="364" stroke="blue" />
<text x="1250" y="380" font-family="Verdana" font-size="8" text-anchor="middle"  dominant-baseline="middle" fill="black" > 353</text>
<text x="1350" y="7" font-family="Verdana" font-size="7" text-anchor="middle"  dominant-baseline="middle" fill="black" > C9</text>
<circle cx="1350" cy="15" r="4" fill="white" stroke="black" />
<line x1="1350" y1="19" x2="1350" y2="736" stroke="black" />
<circle cx="1350" cy="736" r="4" fill="white" stroke="black" />
<text x="1350" y="748" font-family="Verdana" font-size="8" text-anchor="middle"  dominant-baseline="middle" fill="black" > 721</text>
<text x="1500" y="7" font-family="Verdana" font-size="7" text-anchor="middle"  dominant-baseline="middle" fill="black" > C10</text>
<circle cx="1500" cy="15" r="4" fill="white" stroke="black" />
<line x1="1500" y1="19" x2="1500" y2="321" stroke="black" />
<line x1="1450" y1="321" x2="1550" y2="321" stroke="black" />
<text x="1525" y="313" font-family="Verdana" font-size="8" text-anchor="middle"  dominant-baseline="middle" fill="black" > 306</text>
<circle cx="1450" cy="321" r="4" fill="white" stroke="black" />
<circle cx="1550" cy="321" r="4" fill="white" stroke="black" />
<line x1="1450" y1="325" x2="1450" y2="354" stroke="black" />
<line x1="1450" y1="354" x2="1500" y2="364" stroke="black" />
<line x1="1550" y1="325" x2="1550" y2="354" stroke="black" />
<line x1="1550" y1="354" x2="1500" y2="364" stroke="black" />
<text x="1500" y="352" font-family="Verdana" font-size="8" text-anchor="middle"  dominant-baseline="middle" fill="black" > 349</text>
<circle cx="1500" cy="364" r="4" fill="white" stroke="black" />
<line x1="1500" y1="368" x2="1500" y2="736" stroke="black" />
<circle cx="1500" cy="736" r="4" fill="white" stroke="black" />
<text x="1500" y="748" font-family="Verdana" font-size="8" text-anchor="middle"  dominant-baseline="middle" fill="black" > 721</text>
<text x="1650" y="7" font-family="Verdana" font-size="7" text-anchor="middle"  dominant-baseline="middle" fill="black" > C11</text>
<circle cx="1650" cy="15" r="4" fill="white" stroke="black" />
<line x1="1650" y1="19" x2="1650" y2="469" stroke="black" />
<line x1="1646" y1="473" x2="1650" y2="465" stroke="blue" />
<line x1="1650" y1="473" x2="1654" y2="465" stroke="blue" />
<text x="1650" y="481" font-family="Verdana" font-size="8" text-anchor="middle"  dominant-baseline="middle" fill="black" > 454</text>
<text x="1800" y="7" font-family="Verdana" font-size="7" text-anchor="middle"  dominant-baseline="middle" fill="black" > C12</text>
<circle cx="1800" cy="15" r="4" fill="white" stroke="black" />
<line x1="1800" y1="19" x2="1800" y2="237" stroke="black" />
<line x1="1750" y1="237" x2="1850" y2="237" stroke="black" />
<text x="1825" y="229" font-family="Verdana" font-size="8" text-anchor="middle"  dominant-baseline="middle" fill="black" > 222</text>
<circle cx="1750" cy="237" r="4" fill="white" stroke="black" />
<circle cx="1850" cy="237" r="4" fill="white" stroke="black" />
<line x1="1750" y1="241" x2="1750" y2="387" stroke="black" />
<line x1="1750" y1="387" x2="1800" y2="436" stroke="black" />
<line x1="1850" y1="241" x2="1850" y2="387" stroke="black" />
<line x1="1850" y1="387" x2="1800" y2="436" stroke="black" />
<text x="1800" y="424" font-family="Verdana" font-size="8" text-anchor="middle"  dominant-baseline="middle" fill="black" > 421</text>
<circle cx="1800" cy="436" r="4" fill="white" stroke="black" />
<line x1="1800" y1="440" x2="1800" y2="736" stroke="black" />
<circle cx="1800" cy="736" r="4" fill="white" stroke="black" />
<text x="1800" y="748" font-family="Verdana" font-size="8" text-anchor="middle"  dominant-baseline="middle" fill="black" > 721</text>
<text x="2100" y="7" font-family="Verdana" font-size="7" text-anchor="middle"  dominant-baseline="middle" fill="black" > C13</text>
<circle cx="2100" cy="15" r="4" fill="white" stroke="black" />
<line x1="2100" y1="19" x2="2100" y2="397" stroke="black" />
<line x1="1950" y1="397" x2="2250" y2="397" stroke="black" />
<text x="2125" y="389" font-family="Verdana" font-size="8" text-anchor="middle"  dominant-baseline="middle" fill="black" > 382</text>
<circle cx="1950" cy="397" r="4" fill="white" stroke="black" />
<line x1="1950" y1="401" x2="1950" y2="405" stroke="black" />
<line x1="1946" y1="401" x2="1954" y2="409" stroke="red" />
<line x1="1946" y1="409" x2="1954" y2="401" stroke="red" />
<text x="1950" y="417" font-family="Verdana" font-size="8" text-anchor="middle"  dominant-baseline="middle" fill="black" > 390</text>
<circle cx="2050" cy="397" r="4" fill="white" stroke="black" />
<line x1="2050" y1="401" x2="2050" y2="407" stroke="black" />
<line x1="2046" y1="403" x2="2054" y2="411" stroke="red" />
<line x1="2046" y1="411" x2="2054" y2="403" stroke="red" />
<text x="2050" y="419" font-family="Verdana" font-size="8" text-anchor="middle"  dominant-baseline="middle" fill="black" > 392</text>
<circle cx="2150" cy="397" r="4" fill="white" stroke="black" />
<line x1="2150" y1="401" x2="2150" y2="408" stroke="black" />
<line x1="2146" y1="404" x2="2154" y2="412" stroke="red" />
<line x1="2146" y1="412" x2="2154" y2="404" stroke="red" />
<text x="2150" y="420" font-family="Verdana" font-size="8" text-anchor="middle"  dominant-baseline="middle" fill="black" > 393</text>
<circle cx="2250" cy="397" r="4" fill="white" stroke="black" />
<line x1="2250" y1="401" x2="2250" y2="408" stroke="black" />
<line x1="2246" y1="404" x2="2254" y2="412" stroke="red" />
<line x1="2246" y1="412" x2="2254" y2="404" stroke="red" />
<text x="2250" y="420" font-family="Verdana" font-size="8" text-anchor="middle"  dominant-baseline="middle" fill="black" > 393</text>
</svg>
