<?xml version="1.0" encoding="utf-8"?>
<svg xmlns="http://www.w3.org/2000/svg" version="1.1" width="1750" height="750">
<rect width="1750" height="15" x="0" y="0" fill="white" />
<rect width="1750" height="15" x="0" y="735" fill="white" />
<rect width="25" height="750" x="0" y="0" fill="white" />
<rect width="25" height="750" x="1725" y="0" fill="white" />
<rect width="1710" height="144" x="25" y="15" fill="ghostwhite" />
<rect width="1710" height="144" x="25" y="159" fill="snow" />
<rect width="1710" height="144" x="25" y="303" fill="ghostwhite" />
<rect width="1710" height="144" x="25" y="447" fill="snow" />
<rect width="1710" height="144" x="25" y="591" fill="ghostwhite" />
<text x="12" y="87" font-family="Verdana" font-size="10" text-anchor="middle"  dominant-baseline="middle" fill="red" > D0</text>
<text x="12" y="231" font-family="Verdana" font-size="10" text-anchor="middle"  dominant-baseline="middle" fill="red" > D1</text>
<text x="12" y="375" font-family="Verdana" font-size="10" text-anchor="middle"  dominant-baseline="middle" fill="red" > D2</text>
<text x="12" y="519" font-family="Verdana" font-size="10" text-anchor="middle"  dominant-baseline="middle" fill="red" > D3</text>
<text x="12" y="663" font-family="Verdana" font-size="10" text-anchor="middle"  dominant-baseline="middle" fill="red" > D4</text>
<text x="12" y="20" font-family="Verdana" font-size="10" text-anchor="middle"  dominant-baseline="middle" fill="black" > 0</text>
<text x="12" y="164" font-family="Verdana" font-size="10" text-anchor="middle"  dominant-baseline="middle" fill="black" > 144</text>
<text x="12" y="308" font-family="Verdana" font-size="10" text-anchor="middle"  dominant-baseline="middle" fill="black" > 288</text>
<text x="12" y="452" font-family="Verdana" font-size="10" text-anchor="middle"  dominant-baseline="middle" fill="black" > 432</text>
<text x="12" y="596" font-family="Verdana" font-size="10" text-anchor="middle"  dominant-baseline="middle" fill="black" > 576</text>
<text x="12" y="740" font-family="Verdana" font-size="10" text-anchor="middle"  dominant-baseline="middle" fill="black" > 720</text>
<text x="150" y="7" font-family="Verdana" font-size="7" text-anchor="middle"  dominant-baseline="middle" fill="black" > C1</text>
<circle cx="150" cy="15" r="4" fill="white" stroke="black" />
<line x1="150" y1="19" x2="150" y2="352" stroke="black" />
<line x1="50" y1="352" x2="250" y2="352" stroke="black" />
<text x="175" y="344" font-family="Verdana" font-size="8" text-anchor="middle"  dominant-baseline="middle" fill="black" > 337</text>
<circle cx="50" cy="352" r="4" fill="white" stroke="black" />
<circle cx="150" cy="352" r="4" fill="white" stroke="black" />
<line x1="50" y1="356" x2="50" y2="363" stroke="black" />
<line x1="50" y1="363" x2="100" y2="366" stroke="black" />
<line x1="150" y1="356" x2="150" y2="363" stroke="black" />
<line x1="150" y1="363" x2="100" y2="366" stroke="black" />
<text x="100" y="354" font-family="Verdana" font-size="8" text-anchor="middle"  dominant-baseline="middle" fill="black" > 351</text>
<circle cx="100" cy="366" r="4" fill="white" stroke="black" />
<circle cx="250" cy="352" r="4" fill="white" stroke="black" />
<line x1="100" y1="370" x2="100" y2="383" stroke="black" />
<line x1="100" y1="383" x2="175" y2="388" stroke="black" />
<line x1="250" y1="356" x2="250" y2="383" stroke="black" />
<line x1="250" y1="383" x2="175" y2="388" stroke="black" />
<text x="175" y="376" font-family="Verdana" font-size="8" text-anchor="middle"  dominant-baseline="middle" fill="black" > 373</text>
<circle cx="175" cy="388" r="4" fill="white" stroke="black" />
<line x1="175" y1="392" x2="175" y2="552" stroke="black" />
<line x1="171" y1="548" x2="179" y2="556" stroke="red" />
<line x1="171" y1="556" x2="179" y2="548" stroke="red" />
<text x="175" y="564" font-family="Verdana" font-size="8" text-anchor="middle"  dominant-baseline="middle" fill="black" > 537</text>
<text x="500" y="7" font-family="Verdana" font-size="7" text-anchor="middle"  dominant-baseline="middle" fill="black" > C2</text>
<circle cx="500" cy="15" r="4" fill="white" stroke="black" />
<line x1="500" y1="19" x2="500" y2="342" stroke="black" />
<line x1="350" y1="342" x2="650" y2="342" stroke="black" />
<text x="525" y="334" font-family="Verdana" font-size="8" text-anchor="middle"  dominant-baseline="middle" fill="black" > 327</text>
<circle cx="350" cy="342" r="4" fill="white" stroke="black" />
<circle cx="450" cy="342" r="4" fill="white" stroke="black" />
<line x1="350" y1="346" x2="350" y2="351" stroke="black" />
<line x1="350" y1="351" x2="400" y2="353" stroke="black" />
<line x1="450" y1="346" x2="450" y2="351" stroke="black" />
<line x1="450" y1="351" x2="400" y2="353" stroke="black" />
<text x="400" y="341" font-family="Verdana" font-size="8" text-anchor="middle"  dominant-baseline="middle" fill="black" > 338</text>
<circle cx="400" cy="353" r="4" fill="white" stroke="black" />
<circle cx="550" cy="342" r="4" fill="white" stroke="black" />
<line x1="400" y1="357" x2="400" y2="375" stroke="black" />
<line x1="400" y1="375" x2="475" y2="382" stroke="black" />
<line x1="550" y1="346" x2="550" y2="375" stroke="black" />
<line x1="550" y1="375" x2="475" y2="382" stroke="black" />
<text x="475" y="370" font-family="Verdana" font-size="8" text-anchor="middle"  dominant-baseline="middle" fill="black" > 367</text>
<circle cx="475" cy="382" r="4" fill="white" stroke="black" />
<line x1="475" y1="386" x2="475" y2="416" stroke="black" />
<line x1="471" y1="412" x2="479" y2="420" stroke="red" />
<line x1="471" y1="420" x2="479" y2="412" stroke="red" />
<text x="475" y="428" font-family="Verdana" font-size="8" text-anchor="middle"  dominant-baseline="middle" fill="black" > 401</text>
<circle cx="650" cy="342" r="4" fill="white" stroke="black" />
<line x1="650" y1="346" x2="650" y2="691" stroke="black" />
<line x1="646" y1="687" x2="654" y2="695" stroke="red" />
<line x1="646" y1="695" x2="654" y2="687" stroke="red" />
<text x="650" y="703" font-family="Verdana" font-size="8" text-anchor="middle"  dominant-baseline="middle" fill="black" > 676</text>
<text x="800" y="7" font-family="Verdana" font-size="7" text-anchor="middle"  dominant-baseline="middle" fill="black" > C3</text>
<circle cx="800" cy="15" r="4" fill="white" stroke="black" />
<line x1="800" y1="19" x2="800" y2="355" stroke="black" />
<line x1="750" y1="355" x2="850" y2="355" stroke="black" />
<text x="825" y="347" font-family="Verdana" font-size="8" text-anchor="middle"  dominant-baseline="middle" fill="black" > 340</text>
<circle cx="750" cy="355" r="4" fill="white" stroke="black" />
<line x1="750" y1="359" x2="750" y2="736" stroke="black" />
<circle cx="750" cy="736" r="4" fill="white" stroke="black" />
<text x="750" y="748" font-family="Verdana" font-size="8" text-anchor="middle"  dominant-baseline="middle" fill="black" > 721</text>
<circle cx="850" cy="355" r="4" fill="white" stroke="black" />
<line x1="850" y1="359" x2="850" y2="736" stroke="black" />
<circle cx="850" cy="736" r="4" fill="white" stroke="black" />
<text x="850" y="748" font-family="Verdana" font-size="8" text-anchor="middle"  dominant-baseline="middle" fill="black" > 721</text>
<text x="950" y="7" font-family="Verdana" font-size="7" text-anchor="middle"  dominant-baseline="middle" fill="black" > C4</text>
<circle cx="950" cy="15" r="4" fill="white" stroke="black" />
<line x1="950" y1="19" x2="950" y2="380" stroke="black" />
<line x1="946" y1="376" x2="954" y2="384" stroke="red" />
<line x1="946" y1="384" x2="954" y2="376" stroke="red" />
<text x="950" y="392" font-family="Verdana" font-size="8" text-anchor="middle"  dominant-baseline="middle" fill="black" > 365</text>
<text x="1150" y="7" font-family="Verdana" font-size="7" text-anchor="middle"  dominant-baseline="middle" fill="black" > C5</text>
<circle cx="1150" cy="15" r="4" fill="white" stroke="black" />
<line x1="1150" y1="19" x2="1150" y2="290" stroke="black" />
<line x1="1050" y1="290" x2="1250" y2="290" stroke="black" />
<text x="1175" y="282" font-family="Verdana" font-size="8" text-anchor="middle"  dominant-baseline="middle" fill="black" > 275</text>
<circle cx="1050" cy="290" r="4" fill="white" stroke="black" />
<circle cx="1150" cy="290" r="4" fill="white" stroke="black" />
<circle cx="1250" cy="290" r="4" fill="white" stroke="black" />
<line x1="1050" y1="294" x2="1050" y2="301" stroke="black" />
<line x1="1050" y1="301" x2="1150" y2="304" stroke="black" />
<line x1="1150" y1="294" x2="1150" y2="301" stroke="black" />
<line x1="1150" y1="301" x2="1150" y2="304" stroke="black" />
<line x1="1250" y1="294" x2="1250" y2="301" stroke="black" />
<line x1="1250" y1="301" x2="1150" y2="304" stroke="black" />
<text x="1150" y="292" font-family="Verdana" font-size="8" text-anchor="middle"  dominant-baseline="middle" fill="black" > 289</text>
<circle cx="1150" cy="304" r="4" fill="white" stroke="black" />
<line x1="1150" y1="308" x2="1150" y2="515" stroke="black" />
<line x1="1146" y1="511" x2="1154" y2="519" stroke="red" />
<line x1="1146" y1="519" x2="1154" y2="511" stroke="red" />
<text x="1150" y="527" font-family="Verdana" font-size="8" text-anchor="middle"  dominant-baseline="middle" fill="black" > 500</text>
<text x="1500" y="7" font-family="Verdana" font-size="7" text-anchor="middle"  dominant-baseline="middle" fill="black" > C6</text>
<circle cx="1500" cy="15" r="4" fill="white" stroke="black" />
<line x1="1500" y1="19" x2="1500" y2="274" stroke="black" />
<line x1="1350" y1="274" x2="1650" y2="274" stroke="black" />
<text x="1525" y="266" font-family="Verdana" font-size="8" text-anchor="middle"  dominant-baseline="middle" fill="black" > 259</text>
<circle cx="1350" cy="274" r="4" fill="white" stroke="black" />
<circle cx="1450" cy="274" r="4" fill="white" stroke="black" />
<circle cx="1550" cy="274" r="4" fill="white" stroke="black" />
<circle cx="1650" cy="274" r="4" fill="white" stroke="black" />
<line x1="1350" y1="278" x2="1350" y2="296" stroke="black" />
<line x1="1350" y1="296" x2="1500" y2="303" stroke="black" />
<line x1="1450" y1="278" x2="1450" y2="296" stroke="black" />
<line x1="1450" y1="296" x2="1500" y2="303" stroke="black" />
<line x1="1550" y1="278" x2="1550" y2="296" stroke="black" />
<line x1="1550" y1="296" x2="1500" y2="303" stroke="black" />
<line x1="1650" y1="278" x2="1650" y2="296" stroke="black" />
<line x1="1650" y1="296" x2="1500" y2="303" stroke="black" />
<text x="1500" y="291" font-family="Verdana" font-size="8" text-anchor="middle"  dominant-baseline="middle" fill="black" > 288</text>
<circle cx="1500" cy="303" r="4" fill="white" stroke="black" />
<line x1="1500" y1="307" x2="1500" y2="634" stroke="black" />
<line x1="1496" y1="630" x2="1504" y2="638" stroke="red" />
<line x1="1496" y1="638" x2="1504" y2="630" stroke="red" />
<text x="1500" y="646" font-family="Verdana" font-size="8" text-anchor="middle"  dominant-baseline="middle" fill="black" > 619</text>
</svg>
