<?xml version="1.0" encoding="utf-8"?>
<svg xmlns="http://www.w3.org/2000/svg" version="1.1" width="1550" height="750">
<rect width="1550" height="15" x="0" y="0" fill="white" />
<rect width="1550" height="15" x="0" y="735" fill="white" />
<rect width="25" height="750" x="0" y="0" fill="white" />
<rect width="25" height="750" x="1525" y="0" fill="white" />
<rect width="1510" height="144" x="25" y="15" fill="ghostwhite" />
<rect width="1510" height="144" x="25" y="159" fill="snow" />
<rect width="1510" height="144" x="25" y="303" fill="ghostwhite" />
<rect width="1510" height="144" x="25" y="447" fill="snow" />
<rect width="1510" height="144" x="25" y="591" fill="ghostwhite" />
<text x="12" y="87" font-family="Verdana" font-size="10" text-anchor="middle"  dominant-baseline="middle" fill="red" > D0</text>
<text x="12" y="231" font-family="Verdana" font-size="10" text-anchor="middle"  dominant-baseline="middle" fill="red" > D1</text>
<text x="12" y="375" font-family="Verdana" font-size="10" text-anchor="middle"  dominant-baseline="middle" fill="red" > D2</text>
<text x="12" y="519" font-family="Verdana" font-size="10" text-anchor="middle"  dominant-baseline="middle" fill="red" > D3</text>
<text x="12" y="663" font-family="Verdana" font-size="10" text-anchor="middle"  dominant-baseline="middle" fill="red" > D4</text>
<text x="12" y="20" font-family="Verdana" font-size="10" text-anchor="middle"  dominant-baseline="middle" fill="black" > 0</text>
<text x="12" y="164" font-family="Verdana" font-size="10" text-anchor="middle"  dominant-baseline="middle" fill="black" > 144</text>
<text x="12" y="308" font-family="Verdana" font-size="10" text-anchor="middle"  dominant-baseline="middle" fill="black" > 288</text>
<text x="12" y="452" font-family="Verdana" font-size="10" text-anchor="middle"  dominant-baseline="middle" fill="black" > 432</text>
<text x="12" y="596" font-family="Verdana" font-size="10" text-anchor="middle"  dominant-baseline="middle" fill="black" > 576</text>
<text x="12" y="740" font-family="Verdana" font-size="10" text-anchor="middle"  dominant-baseline="middle" fill="black" > 720</text>
<text x="50" y="7" font-family="Verdana" font-size="7" text-anchor="middle"  dominant-baseline="middle" fill="black" > C1</text>
<circle cx="50" cy="15" r="4" fill="white" stroke="black" />
<line x1="50" y1="19" x2="50" y2="289" stroke="black" />
<line x1="46" y1="285" x2="54" y2="293" stroke="red" />
<line x1="46" y1="293" x2="54" y2="285" stroke="red" />
<text x="50" y="301" font-family="Verdana" font-size="8" text-anchor="middle"  dominant-baseline="middle" fill="black" > 274</text>
<text x="150" y="7" font-family="Verdana" font-size="7" text-anchor="middle"  dominant-baseline="middle" fill="black" > C2</text>
<circle cx="150" cy="15" r="4" fill="white" stroke="black" />
<line x1="150" y1="19" x2="150" y2="736" stroke="black" />
<circle cx="150" cy="736" r="4" fill="white" stroke="black" />
<text x="150" y="748" font-family="Verdana" font-size="8" text-anchor="middle"  dominant-baseline="middle" fill="black" > 721</text>
<text x="250" y="7" font-family="Verdana" font-size="7" text-anchor="middle"  dominant-baseline="middle" fill="black" > C3</text>
<circle cx="250" cy="15" r="4" fill="white" stroke="black" />
<line x1="250" y1="19" x2="250" y2="404" stroke="black" />
<line x1="246" y1="400" x2="254" y2="408" stroke="red" />
<line x1="246" y1="408" x2="254" y2="400" stroke="red" />
<text x="250" y="416" font-family="Verdana" font-size="8" text-anchor="middle"  dominant-baseline="middle" fill="black" > 389</text>
<text x="400" y="7" font-family="Verdana" font-size="7" text-anchor="middle"  dominant-baseline="middle" fill="black" > C4</text>
<circle cx="400" cy="15" r="4" fill="white" stroke="black" />
<line x1="400" y1="19" x2="400" y2="315" stroke="black" />
<line x1="350" y1="315" x2="450" y2="315" stroke="black" />
<text x="425" y="307" font-family="Verdana" font-size="8" text-anchor="middle"  dominant-baseline="middle" fill="black" > 300</text>
<circle cx="350" cy="315" r="4" fill="white" stroke="black" />
<line x1="350" y1="319" x2="350" y2="589" stroke="black" />
<line x1="346" y1="585" x2="354" y2="593" stroke="red" />
<line x1="346" y1="593" x2="354" y2="585" stroke="red" />
<text x="350" y="601" font-family="Verdana" font-size="8" text-anchor="middle"  dominant-baseline="middle" fill="black" > 574</text>
<circle cx="450" cy="315" r="4" fill="white" stroke="black" />
<line x1="450" y1="319" x2="450" y2="390" stroke="black" />
<line x1="446" y1="386" x2="454" y2="394" stroke="red" />
<line x1="446" y1="394" x2="454" y2="386" stroke="red" />
<text x="450" y="402" font-family="Verdana" font-size="8" text-anchor="middle"  dominant-baseline="middle" fill="black" > 375</text>
<text x="550" y="7" font-family="Verdana" font-size="7" text-anchor="middle"  dominant-baseline="middle" fill="black" > C5</text>
<circle cx="550" cy="15" r="4" fill="white" stroke="black" />
<line x1="550" y1="19" x2="550" y2="278" stroke="black" />
<line x1="546" y1="282" x2="550" y2="274" stroke="blue" />
<line x1="550" y1="282" x2="554" y2="274" stroke="blue" />
<text x="550" y="290" font-family="Verdana" font-size="8" text-anchor="middle"  dominant-baseline="middle" fill="black" > 263</text>
<text x="650" y="7" font-family="Verdana" font-size="7" text-anchor="middle"  dominant-baseline="middle" fill="black" > C6</text>
<circle cx="650" cy="15" r="4" fill="white" stroke="black" />
<line x1="650" y1="19" x2="650" y2="221" stroke="black" />
<line x1="646" y1="225" x2="650" y2="217" stroke="blue" />
<line x1="650" y1="225" x2="654" y2="217" stroke="blue" />
<text x="650" y="233" font-family="Verdana" font-size="8" text-anchor="middle"  dominant-baseline="middle" fill="black" > 206</text>
<text x="800" y="7" font-family="Verdana" font-size="7" text-anchor="middle"  dominant-baseline="middle" fill="black" > C7</text>
<circle cx="800" cy="15" r="4" fill="white" stroke="black" />
<line x1="800" y1="19" x2="800" y2="278" stroke="black" />
<line x1="750" y1="278" x2="850" y2="278" stroke="black" />
<text x="825" y="270" font-family="Verdana" font-size="8" text-anchor="middle"  dominant-baseline="middle" fill="black" > 263</text>
<circle cx="750" cy="278" r="4" fill="white" stroke="black" />
<line x1="750" y1="282" x2="750" y2="736" stroke="black" />
<circle cx="750" cy="736" r="4" fill="white" stroke="black" />
<text x="750" y="748" font-family="Verdana" font-size="8" text-anchor="middle"  dominant-baseline="middle" fill="black" > 721</text>
<circle cx="850" cy="278" r="4" fill="white" stroke="black" />
<line x1="850" y1="282" x2="850" y2="557" stroke="black" />
<line x1="846" y1="553" x2="854" y2="561" stroke="red" />
<line x1="846" y1="561" x2="854" y2="553" stroke="red" />
<text x="850" y="569" font-family="Verdana" font-size="8" text-anchor="middle"  dominant-baseline="middle" fill="black" > 542</text>
<text x="950" y="7" font-family="Verdana" font-size="7" text-anchor="middle"  dominant-baseline="middle" fill="black" > C8</text>
<circle cx="950" cy="15" r="4" fill="white" stroke="black" />
<line x1="950" y1="19" x2="950" y2="356" stroke="black" />
<line x1="946" y1="352" x2="954" y2="360" stroke="red" />
<line x1="946" y1="360" x2="954" y2="352" stroke="red" />
<text x="950" y="368" font-family="Verdana" font-size="8" text-anchor="middle"  dominant-baseline="middle" fill="black" > 341</text>
<text x="1050" y="7" font-family="Verdana" font-size="7" text-anchor="middle"  dominant-baseline="middle" fill="black" > C9</text>
<circle cx="1050" cy="15" r="4" fill="white" stroke="black" />
<line x1="1050" y1="19" x2="1050" y2="522" stroke="black" />
<line x1="1046" y1="518" x2="1054" y2="526" stroke="red" />
<line x1="1046" y1="526" x2="1054" y2="518" stroke="red" />
<text x="1050" y="534" font-family="Verdana" font-size="8" text-anchor="middle"  dominant-baseline="middle" fill="black" > 507</text>
<text x="1150" y="7" font-family="Verdana" font-size="7" text-anchor="middle"  dominant-baseline="middle" fill="black" > C10</text>
<circle cx="1150" cy="15" r="4" fill="white" stroke="black" />
<line x1="1150" y1="19" x2="1150" y2="158" stroke="black" />
<line x1="1146" y1="162" x2="1150" y2="154" stroke="blue" />
<line x1="1150" y1="162" x2="1154" y2="154" stroke="blue" />
<text x="1150" y="170" font-family="Verdana" font-size="8" text-anchor="middle"  dominant-baseline="middle" fill="black" > 143</text>
<text x="1300" y="7" font-family="Verdana" font-size="7" text-anchor="middle"  dominant-baseline="middle" fill="black" > C11</text>
<circle cx="1300" cy="15" r="4" fill="white" stroke="black" />
<line x1="1300" y1="19" x2="1300" y2="266" stroke="black" />
<line x1="1250" y1="266" x2="1350" y2="266" stroke="black" />
<text x="1325" y="258" font-family="Verdana" font-size="8" text-anchor="middle"  dominant-baseline="middle" fill="black" > 251</text>
<circle cx="1250" cy="266" r="4" fill="white" stroke="black" />
<line x1="1250" y1="270" x2="1250" y2="361" stroke="black" />
<line x1="1246" y1="357" x2="1254" y2="365" stroke="red" />
<line x1="1246" y1="365" x2="1254" y2="357" stroke="red" />
<text x="1250" y="373" font-family="Verdana" font-size="8" text-anchor="middle"  dominant-baseline="middle" fill="black" > 346</text>
<circle cx="1350" cy="266" r="4" fill="white" stroke="black" />
<line x1="1350" y1="270" x2="1350" y2="727" stroke="black" />
<line x1="1346" y1="723" x2="1354" y2="731" stroke="red" />
<line x1="1346" y1="731" x2="1354" y2="723" stroke="red" />
<text x="1350" y="739" font-family="Verdana" font-size="8" text-anchor="middle"  dominant-baseline="middle" fill="black" > 712</text>
<text x="1450" y="7" font-family="Verdana" font-size="7" text-anchor="middle"  dominant-baseline="middle" fill="black" > C12</text>
<circle cx="1450" cy="15" r="4" fill="white" stroke="black" />
<line x1="1450" y1="19" x2="1450" y2="278" stroke="black" />
<line x1="1446" y1="274" x2="1454" y2="282" stroke="red" />
<line x1="1446" y1="282" x2="1454" y2="274" stroke="red" />
<text x="1450" y="290" font-family="Verdana" font-size="8" text-anchor="middle"  dominant-baseline="middle" fill="black" > 263</text>
</svg>
