<?xml version="1.0" encoding="utf-8"?>
<svg xmlns="http://www.w3.org/2000/svg" version="1.1" width="550" height="750">
<rect width="550" height="15" x="0" y="0" fill="white" />
<rect width="550" height="15" x="0" y="735" fill="white" />
<rect width="25" height="750" x="0" y="0" fill="white" />
<rect width="25" height="750" x="525" y="0" fill="white" />
<rect width="510" height="144" x="25" y="15" fill="ghostwhite" />
<rect width="510" height="144" x="25" y="159" fill="snow" />
<rect width="510" height="144" x="25" y="303" fill="ghostwhite" />
<rect width="510" height="144" x="25" y="447" fill="snow" />
<rect width="510" height="144" x="25" y="591" fill="ghostwhite" />
<text x="12" y="87" font-family="Verdana" font-size="10" text-anchor="middle"  dominant-baseline="middle" fill="red" > D0</text>
<text x="12" y="231" font-family="Verdana" font-size="10" text-anchor="middle"  dominant-baseline="middle" fill="red" > D1</text>
<text x="12" y="375" font-family="Verdana" font-size="10" text-anchor="middle"  dominant-baseline="middle" fill="red" > D2</text>
<text x="12" y="519" font-family="Verdana" font-size="10" text-anchor="middle"  dominant-baseline="middle" fill="red" > D3</text>
<text x="12" y="663" font-family="Verdana" font-size="10" text-anchor="middle"  dominant-baseline="middle" fill="red" > D4</text>
<text x="12" y="20" font-family="Verdana" font-size="10" text-anchor="middle"  dominant-baseline="middle" fill="black" > 0</text>
<text x="12" y="164" font-family="Verdana" font-size="10" text-anchor="middle"  dominant-baseline="middle" fill="black" > 144</text>
<text x="12" y="308" font-family="Verdana" font-size="10" text-anchor="middle"  dominant-baseline="middle" fill="black" > 288</text>
<text x="12" y="452" font-family="Verdana" font-size="10" text-anchor="middle"  dominant-baseline="middle" fill="black" > 432</text>
<text x="12" y="596" font-family="Verdana" font-size="10" text-anchor="middle"  dominant-baseline="middle" fill="black" > 576</text>
<text x="12" y="740" font-family="Verdana" font-size="10" text-anchor="middle"  dominant-baseline="middle" fill="black" > 720</text>
<text x="100" y="7" font-family="Verdana" font-size="7" text-anchor="middle"  dominant-baseline="middle" fill="black" > C1</text>
<circle cx="100" cy="15" r="4" fill="white" stroke="black" />
<line x1="100" y1="19" x2="100" y2="130" stroke="black" />
<line x1="50" y1="130" x2="150" y2="130" stroke="black" />
<text x="125" y="122" font-family="Verdana" font-size="8" text-anchor="middle"  dominant-baseline="middle" fill="black" > 115</text>
<circle cx="50" cy="130" r="4" fill="white" stroke="black" />
<line x1="50" y1="134" x2="50" y2="736" stroke="black" />
<circle cx="50" cy="736" r="4" fill="white" stroke="black" />
<text x="50" y="748" font-family="Verdana" font-size="8" text-anchor="middle"  dominant-baseline="middle" fill="black" > 721</text>
<circle cx="150" cy="130" r="4" fill="white" stroke="black" />
<line x1="150" y1="134" x2="150" y2="291" stroke="black" />
<line x1="146" y1="295" x2="150" y2="287" stroke="blue" />
<line x1="150" y1="295" x2="154" y2="287" stroke="blue" />
<text x="150" y="303" font-family="Verdana" font-size="8" text-anchor="middle"  dominant-baseline="middle" fill="black" > 276</text>
<text x="250" y="7" font-family="Verdana" font-size="7" text-anchor="middle"  dominant-baseline="middle" fill="black" > C2</text>
<circle cx="250" cy="15" r="4" fill="white" stroke="black" />
<line x1="250" y1="19" x2="250" y2="41" stroke="black" />
<line x1="246" y1="37" x2="254" y2="45" stroke="red" />
<line x1="246" y1="45" x2="254" y2="37" stroke="red" />
<text x="250" y="53" font-family="Verdana" font-size="8" text-anchor="middle"  dominant-baseline="middle" fill="black" > 26</text>
<text x="350" y="7" font-family="Verdana" font-size="7" text-anchor="middle"  dominant-baseline="middle" fill="black" > C3</text>
<circle cx="350" cy="15" r="4" fill="white" stroke="black" />
<line x1="350" y1="19" x2="350" y2="227" stroke="black" />
<line x1="346" y1="223" x2="354" y2="231" stroke="red" />
<line x1="346" y1="231" x2="354" y2="223" stroke="red" />
<text x="350" y="239" font-family="Verdana" font-size="8" text-anchor="middle"  dominant-baseline="middle" fill="black" > 212</text>
<text x="450" y="7" font-family="Verdana" font-size="7" text-anchor="middle"  dominant-baseline="middle" fill="black" > C4</text>
<circle cx="450" cy="15" r="4" fill="white" stroke="black" />
<line x1="450" y1="19" x2="450" y2="289" stroke="black" />
<line x1="446" y1="285" x2="454" y2="293" stroke="red" />
<line x1="446" y1="293" x2="454" y2="285" stroke="red" />
<text x="450" y="301" font-family="Verdana" font-size="8" text-anchor="middle"  dominant-baseline="middle" fill="black" > 274</text>
</svg>
