<?xml version="1.0" encoding="utf-8"?>
<svg xmlns="http://www.w3.org/2000/svg" version="1.1" width="1050" height="750">
<rect width="1050" height="15" x="0" y="0" fill="white" />
<rect width="1050" height="15" x="0" y="735" fill="white" />
<rect width="25" height="750" x="0" y="0" fill="white" />
<rect width="25" height="750" x="1025" y="0" fill="white" />
<rect width="1010" height="144" x="25" y="15" fill="ghostwhite" />
<rect width="1010" height="144" x="25" y="159" fill="snow" />
<rect width="1010" height="144" x="25" y="303" fill="ghostwhite" />
<rect width="1010" height="144" x="25" y="447" fill="snow" />
<rect width="1010" height="144" x="25" y="591" fill="ghostwhite" />
<text x="12" y="87" font-family="Verdana" font-size="10" text-anchor="middle"  dominant-baseline="middle" fill="red" > D0</text>
<text x="12" y="231" font-family="Verdana" font-size="10" text-anchor="middle"  dominant-baseline="middle" fill="red" > D1</text>
<text x="12" y="375" font-family="Verdana" font-size="10" text-anchor="middle"  dominant-baseline="middle" fill="red" > D2</text>
<text x="12" y="519" font-family="Verdana" font-size="10" text-anchor="middle"  dominant-baseline="middle" fill="red" > D3</text>
<text x="12" y="663" font-family="Verdana" font-size="10" text-anchor="middle"  dominant-baseline="middle" fill="red" > D4</text>
<text x="12" y="20" font-family="Verdana" font-size="10" text-anchor="middle"  dominant-baseline="middle" fill="black" > 0</text>
<text x="12" y="164" font-family="Verdana" font-size="10" text-anchor="middle"  dominant-baseline="middle" fill="black" > 144</text>
<text x="12" y="308" font-family="Verdana" font-size="10" text-anchor="middle"  dominant-baseline="middle" fill="black" > 288</text>
<text x="12" y="452" font-family="Verdana" font-size="10" text-anchor="middle"  dominant-baseline="middle" fill="black" > 432</text>
<text x="12" y="596" font-family="Verdana" font-size="10" text-anchor="middle"  dominant-baseline="middle" fill="black" > 576</text>
<text x="12" y="740" font-family="Verdana" font-size="10" text-anchor="middle"  dominant-baseline="middle" fill="black" > 720</text>
<text x="100" y="7" font-family="Verdana" font-size="7" text-anchor="middle"  dominant-baseline="middle" fill="black" > C1</text>
<circle cx="100" cy="15" r="4" fill="white" stroke="black" />
<line x1="100" y1="19" x2="100" y2="249" stroke="black" />
<line x1="50" y1="249" x2="150" y2="249" stroke="black" />
<text x="125" y="241" font-family="Verdana" font-size="8" text-anchor="middle"  dominant-baseline="middle" fill="black" > 234</text>
<circle cx="50" cy="249" r="4" fill="white" stroke="black" />
<line x1="50" y1="253" x2="50" y2="736" stroke="black" />
<circle cx="50" cy="736" r="4" fill="white" stroke="black" />
<text x="50" y="748" font-family="Verdana" font-size="8" text-anchor="middle"  dominant-baseline="middle" fill="black" > 721</text>
<circle cx="150" cy="249" r="4" fill="white" stroke="black" />
<line x1="150" y1="253" x2="150" y2="455" stroke="black" />
<line x1="146" y1="459" x2="150" y2="451" stroke="blue" />
<line x1="150" y1="459" x2="154" y2="451" stroke="blue" />
<text x="150" y="467" font-family="Verdana" font-size="8" text-anchor="middle"  dominant-baseline="middle" fill="black" > 440</text>
<text x="250" y="7" font-family="Verdana" font-size="7" text-anchor="middle"  dominant-baseline="middle" fill="black" > C2</text>
<circle cx="250" cy="15" r="4" fill="white" stroke="black" />
<line x1="250" y1="19" x2="250" y2="284" stroke="black" />
<line x1="246" y1="288" x2="250" y2="280" stroke="blue" />
<line x1="250" y1="288" x2="254" y2="280" stroke="blue" />
<text x="250" y="296" font-family="Verdana" font-size="8" text-anchor="middle"  dominant-baseline="middle" fill="black" > 269</text>
<text x="400" y="7" font-family="Verdana" font-size="7" text-anchor="middle"  dominant-baseline="middle" fill="black" > C3</text>
<circle cx="400" cy="15" r="4" fill="white" stroke="black" />
<line x1="400" y1="19" x2="400" y2="230" stroke="black" />
<line x1="350" y1="230" x2="450" y2="230" stroke="black" />
<text x="425" y="222" font-family="Verdana" font-size="8" text-anchor="middle"  dominant-baseline="middle" fill="black" > 215</text>
<circle cx="350" cy="230" r="4" fill="white" stroke="black" />
<line x1="350" y1="234" x2="350" y2="684" stroke="black" />
<line x1="346" y1="680" x2="354" y2="688" stroke="red" />
<line x1="346" y1="688" x2="354" y2="680" stroke="red" />
<text x="350" y="696" font-family="Verdana" font-size="8" text-anchor="middle"  dominant-baseline="middle" fill="black" > 669</text>
<circle cx="450" cy="230" r="4" fill="white" stroke="black" />
<line x1="450" y1="234" x2="450" y2="278" stroke="black" />
<line x1="446" y1="274" x2="454" y2="282" stroke="red" />
<line x1="446" y1="282" x2="454" y2="274" stroke="red" />
<text x="450" y="290" font-family="Verdana" font-size="8" text-anchor="middle"  dominant-baseline="middle" fill="black" > 263</text>
<text x="600" y="7" font-family="Verdana" font-size="7" text-anchor="middle"  dominant-baseline="middle" fill="black" > C4</text>
<circle cx="600" cy="15" r="4" fill="white" stroke="black" />
<line x1="600" y1="19" x2="600" y2="262" stroke="black" />
<line x1="550" y1="262" x2="650" y2="262" stroke="black" />
<text x="625" y="254" font-family="Verdana" font-size="8" text-anchor="middle"  dominant-baseline="middle" fill="black" > 247</text>
<circle cx="550" cy="262" r="4" fill="white" stroke="black" />
<line x1="550" y1="266" x2="550" y2="568" stroke="black" />
<line x1="525" y1="568" x2="575" y2="568" stroke="black" />
<text x="562" y="560" font-family="Verdana" font-size="8" text-anchor="middle"  dominant-baseline="middle" fill="black" > 553</text>
<circle cx="525" cy="568" r="4" fill="white" stroke="black" />
<line x1="525" y1="572" x2="525" y2="655" stroke="black" />
<line x1="521" y1="651" x2="529" y2="659" stroke="red" />
<line x1="521" y1="659" x2="529" y2="651" stroke="red" />
<text x="525" y="667" font-family="Verdana" font-size="8" text-anchor="middle"  dominant-baseline="middle" fill="black" > 640</text>
<circle cx="575" cy="568" r="4" fill="white" stroke="black" />
<line x1="575" y1="572" x2="575" y2="654" stroke="black" />
<line x1="571" y1="650" x2="579" y2="658" stroke="red" />
<line x1="571" y1="658" x2="579" y2="650" stroke="red" />
<text x="575" y="666" font-family="Verdana" font-size="8" text-anchor="middle"  dominant-baseline="middle" fill="black" > 639</text>
<circle cx="650" cy="262" r="4" fill="white" stroke="black" />
<line x1="650" y1="266" x2="650" y2="613" stroke="black" />
<line x1="616" y1="613" x2="684" y2="613" stroke="black" />
<text x="658" y="605" font-family="Verdana" font-size="8" text-anchor="middle"  dominant-baseline="middle" fill="black" > 598</text>
<circle cx="616" cy="613" r="4" fill="white" stroke="black" />
<circle cx="649" cy="613" r="4" fill="white" stroke="black" />
<line x1="649" y1="617" x2="649" y2="736" stroke="black" />
<circle cx="649" cy="736" r="4" fill="white" stroke="black" />
<text x="649" y="748" font-family="Verdana" font-size="8" text-anchor="middle"  dominant-baseline="middle" fill="black" > 721</text>
<circle cx="682" cy="613" r="4" fill="white" stroke="black" />
<line x1="616" y1="617" x2="616" y2="636" stroke="black" />
<line x1="616" y1="636" x2="649" y2="643" stroke="black" />
<line x1="682" y1="617" x2="682" y2="636" stroke="black" />
<line x1="682" y1="636" x2="649" y2="643" stroke="black" />
<text x="649" y="631" font-family="Verdana" font-size="8" text-anchor="middle"  dominant-baseline="middle" fill="black" > 628</text>
<circle cx="649" cy="643" r="4" fill="white" stroke="black" />
<line x1="649" y1="647" x2="649" y2="736" stroke="black" />
<circle cx="649" cy="736" r="4" fill="white" stroke="black" />
<text x="649" y="748" font-family="Verdana" font-size="8" text-anchor="middle"  dominant-baseline="middle" fill="black" > 721</text>
<text x="750" y="7" font-family="Verdana" font-size="7" text-anchor="middle"  dominant-baseline="middle" fill="black" > C5</text>
<circle cx="750" cy="15" r="4" fill="white" stroke="black" />
<line x1="750" y1="19" x2="750" y2="503" stroke="black" />
<line x1="746" y1="507" x2="750" y2="499" stroke="blue" />
<line x1="750" y1="507" x2="754" y2="499" stroke="blue" />
<text x="750" y="515" font-family="Verdana" font-size="8" text-anchor="middle"  dominant-baseline="middle" fill="black" > 488</text>
<text x="850" y="7" font-family="Verdana" font-size="7" text-anchor="middle"  dominant-baseline="middle" fill="black" > C6</text>
<circle cx="850" cy="15" r="4" fill="white" stroke="black" />
<line x1="850" y1="19" x2="850" y2="736" stroke="black" />
<circle cx="850" cy="736" r="4" fill="white" stroke="black" />
<text x="850" y="748" font-family="Verdana" font-size="8" text-anchor="middle"  dominant-baseline="middle" fill="black" > 721</text>
<text x="950" y="7" font-family="Verdana" font-size="7" text-anchor="middle"  dominant-baseline="middle" fill="black" > C7</text>
<circle cx="950" cy="15" r="4" fill="white" stroke="black" />
<line x1="950" y1="19" x2="950" y2="654" stroke="black" />
<line x1="946" y1="650" x2="954" y2="658" stroke="red" />
<line x1="946" y1="658" x2="954" y2="650" stroke="red" />
<text x="950" y="666" font-family="Verdana" font-size="8" text-anchor="middle"  dominant-baseline="middle" fill="black" > 639</text>
</svg>
