<?xml version="1.0" encoding="utf-8"?>
<svg xmlns="http://www.w3.org/2000/svg" version="1.1" width="850" height="750">
<rect width="850" height="15" x="0" y="0" fill="white" />
<rect width="850" height="15" x="0" y="735" fill="white" />
<rect width="25" height="750" x="0" y="0" fill="white" />
<rect width="25" height="750" x="825" y="0" fill="white" />
<rect width="810" height="144" x="25" y="15" fill="ghostwhite" />
<rect width="810" height="144" x="25" y="159" fill="snow" />
<rect width="810" height="144" x="25" y="303" fill="ghostwhite" />
<rect width="810" height="144" x="25" y="447" fill="snow" />
<rect width="810" height="144" x="25" y="591" fill="ghostwhite" />
<text x="12" y="87" font-family="Verdana" font-size="10" text-anchor="middle"  dominant-baseline="middle" fill="red" > D0</text>
<text x="12" y="231" font-family="Verdana" font-size="10" text-anchor="middle"  dominant-baseline="middle" fill="red" > D1</text>
<text x="12" y="375" font-family="Verdana" font-size="10" text-anchor="middle"  dominant-baseline="middle" fill="red" > D2</text>
<text x="12" y="519" font-family="Verdana" font-size="10" text-anchor="middle"  dominant-baseline="middle" fill="red" > D3</text>
<text x="12" y="663" font-family="Verdana" font-size="10" text-anchor="middle"  dominant-baseline="middle" fill="red" > D4</text>
<text x="12" y="20" font-family="Verdana" font-size="10" text-anchor="middle"  dominant-baseline="middle" fill="black" > 0</text>
<text x="12" y="164" font-family="Verdana" font-size="10" text-anchor="middle"  dominant-baseline="middle" fill="black" > 144</text>
<text x="12" y="308" font-family="Verdana" font-size="10" text-anchor="middle"  dominant-baseline="middle" fill="black" > 288</text>
<text x="12" y="452" font-family="Verdana" font-size="10" text-anchor="middle"  dominant-baseline="middle" fill="black" > 432</text>
<text x="12" y="596" font-family="Verdana" font-size="10" text-anchor="middle"  dominant-baseline="middle" fill="black" > 576</text>
<text x="12" y="740" font-family="Verdana" font-size="10" text-anchor="middle"  dominant-baseline="middle" fill="black" > 720</text>
<text x="150" y="7" font-family="Verdana" font-size="7" text-anchor="middle"  dominant-baseline="middle" fill="black" > C1</text>
<circle cx="150" cy="15" r="4" fill="white" stroke="black" />
<line x1="150" y1="19" x2="150" y2="107" stroke="black" />
<line x1="50" y1="107" x2="250" y2="107" stroke="black" />
<text x="175" y="99" font-family="Verdana" font-size="8" text-anchor="middle"  dominant-baseline="middle" fill="black" > 92</text>
<circle cx="50" cy="107" r="4" fill="white" stroke="black" />
<line x1="50" y1="111" x2="50" y2="310" stroke="black" />
<line x1="46" y1="306" x2="54" y2="314" stroke="red" />
<line x1="46" y1="314" x2="54" y2="306" stroke="red" />
<text x="50" y="322" font-family="Verdana" font-size="8" text-anchor="middle"  dominant-baseline="middle" fill="black" > 295</text>
<circle cx="150" cy="107" r="4" fill="white" stroke="black" />
<line x1="150" y1="111" x2="150" y2="280" stroke="black" />
<line x1="146" y1="276" x2="154" y2="284" stroke="red" />
<line x1="146" y1="284" x2="154" y2="276" stroke="red" />
<text x="150" y="292" font-family="Verdana" font-size="8" text-anchor="middle"  dominant-baseline="middle" fill="black" > 265</text>
<circle cx="250" cy="107" r="4" fill="white" stroke="black" />
<line x1="250" y1="111" x2="250" y2="255" stroke="black" />
<line x1="246" y1="251" x2="254" y2="259" stroke="red" />
<line x1="246" y1="259" x2="254" y2="251" stroke="red" />
<text x="250" y="267" font-family="Verdana" font-size="8" text-anchor="middle"  dominant-baseline="middle" fill="black" > 240</text>
<text x="350" y="7" font-family="Verdana" font-size="7" text-anchor="middle"  dominant-baseline="middle" fill="black" > C2</text>
<circle cx="350" cy="15" r="4" fill="white" stroke="black" />
<line x1="350" y1="19" x2="350" y2="238" stroke="black" />
<line x1="346" y1="234" x2="354" y2="242" stroke="red" />
<line x1="346" y1="242" x2="354" y2="234" stroke="red" />
<text x="350" y="250" font-family="Verdana" font-size="8" text-anchor="middle"  dominant-baseline="middle" fill="black" > 223</text>
<text x="450" y="7" font-family="Verdana" font-size="7" text-anchor="middle"  dominant-baseline="middle" fill="black" > C3</text>
<circle cx="450" cy="15" r="4" fill="white" stroke="black" />
<line x1="450" y1="19" x2="450" y2="122" stroke="black" />
<line x1="446" y1="126" x2="450" y2="118" stroke="blue" />
<line x1="450" y1="126" x2="454" y2="118" stroke="blue" />
<text x="450" y="134" font-family="Verdana" font-size="8" text-anchor="middle"  dominant-baseline="middle" fill="black" > 107</text>
<text x="600" y="7" font-family="Verdana" font-size="7" text-anchor="middle"  dominant-baseline="middle" fill="black" > C4</text>
<circle cx="600" cy="15" r="4" fill="white" stroke="black" />
<line x1="600" y1="19" x2="600" y2="233" stroke="black" />
<line x1="550" y1="233" x2="650" y2="233" stroke="black" />
<text x="625" y="225" font-family="Verdana" font-size="8" text-anchor="middle"  dominant-baseline="middle" fill="black" > 218</text>
<circle cx="550" cy="233" r="4" fill="white" stroke="black" />
<line x1="550" y1="237" x2="550" y2="736" stroke="black" />
<circle cx="550" cy="736" r="4" fill="white" stroke="black" />
<text x="550" y="748" font-family="Verdana" font-size="8" text-anchor="middle"  dominant-baseline="middle" fill="black" > 721</text>
<circle cx="650" cy="233" r="4" fill="white" stroke="black" />
<line x1="650" y1="237" x2="650" y2="736" stroke="black" />
<circle cx="650" cy="736" r="4" fill="white" stroke="black" />
<text x="650" y="748" font-family="Verdana" font-size="8" text-anchor="middle"  dominant-baseline="middle" fill="black" > 721</text>
<text x="750" y="7" font-family="Verdana" font-size="7" text-anchor="middle"  dominant-baseline="middle" fill="black" > C5</text>
<circle cx="750" cy="15" r="4" fill="white" stroke="black" />
<line x1="750" y1="19" x2="750" y2="363" stroke="black" />
<line x1="746" y1="359" x2="754" y2="367" stroke="red" />
<line x1="746" y1="367" x2="754" y2="359" stroke="red" />
<text x="750" y="375" font-family="Verdana" font-size="8" text-anchor="middle"  dominant-baseline="middle" fill="black" > 348</text>
</svg>
