<?xml version="1.0" encoding="utf-8"?>
<svg xmlns="http://www.w3.org/2000/svg" version="1.1" width="1350" height="750">
<rect width="1350" height="15" x="0" y="0" fill="white" />
<rect width="1350" height="15" x="0" y="735" fill="white" />
<rect width="25" height="750" x="0" y="0" fill="white" />
<rect width="25" height="750" x="1325" y="0" fill="white" />
<rect width="1310" height="144" x="25" y="15" fill="ghostwhite" />
<rect width="1310" height="144" x="25" y="159" fill="snow" />
<rect width="1310" height="144" x="25" y="303" fill="ghostwhite" />
<rect width="1310" height="144" x="25" y="447" fill="snow" />
<rect width="1310" height="144" x="25" y="591" fill="ghostwhite" />
<text x="12" y="87" font-family="Verdana" font-size="10" text-anchor="middle"  dominant-baseline="middle" fill="red" > D0</text>
<text x="12" y="231" font-family="Verdana" font-size="10" text-anchor="middle"  dominant-baseline="middle" fill="red" > D1</text>
<text x="12" y="375" font-family="Verdana" font-size="10" text-anchor="middle"  dominant-baseline="middle" fill="red" > D2</text>
<text x="12" y="519" font-family="Verdana" font-size="10" text-anchor="middle"  dominant-baseline="middle" fill="red" > D3</text>
<text x="12" y="663" font-family="Verdana" font-size="10" text-anchor="middle"  dominant-baseline="middle" fill="red" > D4</text>
<text x="12" y="20" font-family="Verdana" font-size="10" text-anchor="middle"  dominant-baseline="middle" fill="black" > 0</text>
<text x="12" y="164" font-family="Verdana" font-size="10" text-anchor="middle"  dominant-baseline="middle" fill="black" > 144</text>
<text x="12" y="308" font-family="Verdana" font-size="10" text-anchor="middle"  dominant-baseline="middle" fill="black" > 288</text>
<text x="12" y="452" font-family="Verdana" font-size="10" text-anchor="middle"  dominant-baseline="middle" fill="black" > 432</text>
<text x="12" y="596" font-family="Verdana" font-size="10" text-anchor="middle"  dominant-baseline="middle" fill="black" > 576</text>
<text x="12" y="740" font-family="Verdana" font-size="10" text-anchor="middle"  dominant-baseline="middle" fill="black" > 720</text>
<text x="50" y="7" font-family="Verdana" font-size="7" text-anchor="middle"  dominant-baseline="middle" fill="black" > C1</text>
<circle cx="50" cy="15" r="4" fill="white" stroke="black" />
<line x1="50" y1="19" x2="50" y2="155" stroke="black" />
<line x1="46" y1="159" x2="50" y2="151" stroke="blue" />
<line x1="50" y1="159" x2="54" y2="151" stroke="blue" />
<text x="50" y="167" font-family="Verdana" font-size="8" text-anchor="middle"  dominant-baseline="middle" fill="black" > 140</text>
<text x="200" y="7" font-family="Verdana" font-size="7" text-anchor="middle"  dominant-baseline="middle" fill="black" > C2</text>
<circle cx="200" cy="15" r="4" fill="white" stroke="black" />
<line x1="200" y1="19" x2="200" y2="160" stroke="black" />
<line x1="150" y1="160" x2="250" y2="160" stroke="black" />
<text x="225" y="152" font-family="Verdana" font-size="8" text-anchor="middle"  dominant-baseline="middle" fill="black" > 145</text>
<circle cx="150" cy="160" r="4" fill="white" stroke="black" />
<line x1="150" y1="164" x2="150" y2="336" stroke="black" />
<line x1="146" y1="340" x2="150" y2="332" stroke="blue" />
<line x1="150" y1="340" x2="154" y2="332" stroke="blue" />
<text x="150" y="348" font-family="Verdana" font-size="8" text-anchor="middle"  dominant-baseline="middle" fill="black" > 321</text>
<circle cx="250" cy="160" r="4" fill="white" stroke="black" />
<line x1="250" y1="164" x2="250" y2="255" stroke="black" />
<line x1="246" y1="259" x2="250" y2="251" stroke="blue" />
<line x1="250" y1="259" x2="254" y2="251" stroke="blue" />
<text x="250" y="267" font-family="Verdana" font-size="8" text-anchor="middle"  dominant-baseline="middle" fill="black" > 240</text>
<text x="350" y="7" font-family="Verdana" font-size="7" text-anchor="middle"  dominant-baseline="middle" fill="black" > C3</text>
<circle cx="350" cy="15" r="4" fill="white" stroke="black" />
<line x1="350" y1="19" x2="350" y2="475" stroke="black" />
<line x1="346" y1="471" x2="354" y2="479" stroke="red" />
<line x1="346" y1="479" x2="354" y2="471" stroke="red" />
<text x="350" y="487" font-family="Verdana" font-size="8" text-anchor="middle"  dominant-baseline="middle" fill="black" > 460</text>
<text x="450" y="7" font-family="Verdana" font-size="7" text-anchor="middle"  dominant-baseline="middle" fill="black" > C4</text>
<circle cx="450" cy="15" r="4" fill="white" stroke="black" />
<line x1="450" y1="19" x2="450" y2="353" stroke="black" />
<line x1="446" y1="357" x2="450" y2="349" stroke="blue" />
<line x1="450" y1="357" x2="454" y2="349" stroke="blue" />
<text x="450" y="365" font-family="Verdana" font-size="8" text-anchor="middle"  dominant-baseline="middle" fill="black" > 338</text>
<text x="550" y="7" font-family="Verdana" font-size="7" text-anchor="middle"  dominant-baseline="middle" fill="black" > C5</text>
<circle cx="550" cy="15" r="4" fill="white" stroke="black" />
<line x1="550" y1="19" x2="550" y2="289" stroke="black" />
<line x1="546" y1="285" x2="554" y2="293" stroke="red" />
<line x1="546" y1="293" x2="554" y2="285" stroke="red" />
<text x="550" y="301" font-family="Verdana" font-size="8" text-anchor="middle"  dominant-baseline="middle" fill="black" > 274</text>
<text x="750" y="7" font-family="Verdana" font-size="7" text-anchor="middle"  dominant-baseline="middle" fill="black" > C6</text>
<circle cx="750" cy="15" r="4" fill="white" stroke="black" />
<line x1="750" y1="19" x2="750" y2="301" stroke="black" />
<line x1="650" y1="301" x2="850" y2="301" stroke="black" />
<text x="775" y="293" font-family="Verdana" font-size="8" text-anchor="middle"  dominant-baseline="middle" fill="black" > 286</text>
<circle cx="650" cy="301" r="4" fill="white" stroke="black" />
<circle cx="750" cy="301" r="4" fill="white" stroke="black" />
<line x1="650" y1="305" x2="650" y2="346" stroke="black" />
<line x1="650" y1="346" x2="700" y2="360" stroke="black" />
<line x1="750" y1="305" x2="750" y2="346" stroke="black" />
<line x1="750" y1="346" x2="700" y2="360" stroke="black" />
<text x="700" y="348" font-family="Verdana" font-size="8" text-anchor="middle"  dominant-baseline="middle" fill="black" > 345</text>
<circle cx="700" cy="360" r="4" fill="white" stroke="black" />
<circle cx="850" cy="301" r="4" fill="white" stroke="black" />
<line x1="700" y1="364" x2="700" y2="365" stroke="black" />
<line x1="700" y1="365" x2="775" y2="366" stroke="black" />
<line x1="850" y1="305" x2="850" y2="365" stroke="black" />
<line x1="850" y1="365" x2="775" y2="366" stroke="black" />
<text x="775" y="354" font-family="Verdana" font-size="8" text-anchor="middle"  dominant-baseline="middle" fill="black" > 351</text>
<circle cx="775" cy="366" r="4" fill="white" stroke="black" />
<line x1="775" y1="370" x2="775" y2="471" stroke="black" />
<line x1="771" y1="467" x2="779" y2="475" stroke="red" />
<line x1="771" y1="475" x2="779" y2="467" stroke="red" />
<text x="775" y="483" font-family="Verdana" font-size="8" text-anchor="middle"  dominant-baseline="middle" fill="black" > 456</text>
<text x="1050" y="7" font-family="Verdana" font-size="7" text-anchor="middle"  dominant-baseline="middle" fill="black" > C7</text>
<circle cx="1050" cy="15" r="4" fill="white" stroke="black" />
<line x1="1050" y1="19" x2="1050" y2="614" stroke="black" />
<line x1="950" y1="614" x2="1150" y2="614" stroke="black" />
<text x="1075" y="606" font-family="Verdana" font-size="8" text-anchor="middle"  dominant-baseline="middle" fill="black" > 599</text>
<circle cx="950" cy="614" r="4" fill="white" stroke="black" />
<circle cx="1050" cy="614" r="4" fill="white" stroke="black" />
<line x1="950" y1="618" x2="950" y2="618" stroke="black" />
<line x1="950" y1="618" x2="1000" y2="619" stroke="black" />
<line x1="1050" y1="618" x2="1050" y2="618" stroke="black" />
<line x1="1050" y1="618" x2="1000" y2="619" stroke="black" />
<text x="1000" y="607" font-family="Verdana" font-size="8" text-anchor="middle"  dominant-baseline="middle" fill="black" > 604</text>
<circle cx="1000" cy="619" r="4" fill="white" stroke="black" />
<circle cx="1150" cy="614" r="4" fill="white" stroke="black" />
<line x1="1000" y1="623" x2="1000" y2="628" stroke="black" />
<line x1="1000" y1="628" x2="1075" y2="631" stroke="black" />
<line x1="1150" y1="618" x2="1150" y2="628" stroke="black" />
<line x1="1150" y1="628" x2="1075" y2="631" stroke="black" />
<text x="1075" y="619" font-family="Verdana" font-size="8" text-anchor="middle"  dominant-baseline="middle" fill="black" > 616</text>
<circle cx="1075" cy="631" r="4" fill="white" stroke="black" />
<line x1="1075" y1="635" x2="1075" y2="736" stroke="black" />
<circle cx="1075" cy="736" r="4" fill="white" stroke="black" />
<text x="1075" y="748" font-family="Verdana" font-size="8" text-anchor="middle"  dominant-baseline="middle" fill="black" > 721</text>
<text x="1250" y="7" font-family="Verdana" font-size="7" text-anchor="middle"  dominant-baseline="middle" fill="black" > C8</text>
<circle cx="1250" cy="15" r="4" fill="white" stroke="black" />
<line x1="1250" y1="19" x2="1250" y2="39" stroke="black" />
<line x1="1246" y1="43" x2="1250" y2="35" stroke="blue" />
<line x1="1250" y1="43" x2="1254" y2="35" stroke="blue" />
<text x="1250" y="51" font-family="Verdana" font-size="8" text-anchor="middle"  dominant-baseline="middle" fill="black" > 24</text>
</svg>
