<?xml version="1.0" encoding="utf-8"?>
<svg xmlns="http://www.w3.org/2000/svg" version="1.1" width="850" height="750">
<rect width="850" height="15" x="0" y="0" fill="white" />
<rect width="850" height="15" x="0" y="735" fill="white" />
<rect width="25" height="750" x="0" y="0" fill="white" />
<rect width="25" height="750" x="825" y="0" fill="white" />
<rect width="810" height="144" x="25" y="15" fill="ghostwhite" />
<rect width="810" height="144" x="25" y="159" fill="snow" />
<rect width="810" height="144" x="25" y="303" fill="ghostwhite" />
<rect width="810" height="144" x="25" y="447" fill="snow" />
<rect width="810" height="144" x="25" y="591" fill="ghostwhite" />
<text x="12" y="87" font-family="Verdana" font-size="10" text-anchor="middle"  dominant-baseline="middle" fill="red" > D0</text>
<text x="12" y="231" font-family="Verdana" font-size="10" text-anchor="middle"  dominant-baseline="middle" fill="red" > D1</text>
<text x="12" y="375" font-family="Verdana" font-size="10" text-anchor="middle"  dominant-baseline="middle" fill="red" > D2</text>
<text x="12" y="519" font-family="Verdana" font-size="10" text-anchor="middle"  dominant-baseline="middle" fill="red" > D3</text>
<text x="12" y="663" font-family="Verdana" font-size="10" text-anchor="middle"  dominant-baseline="middle" fill="red" > D4</text>
<text x="12" y="20" font-family="Verdana" font-size="10" text-anchor="middle"  dominant-baseline="middle" fill="black" > 0</text>
<text x="12" y="164" font-family="Verdana" font-size="10" text-anchor="middle"  dominant-baseline="middle" fill="black" > 144</text>
<text x="12" y="308" font-family="Verdana" font-size="10" text-anchor="middle"  dominant-baseline="middle" fill="black" > 288</text>
<text x="12" y="452" font-family="Verdana" font-size="10" text-anchor="middle"  dominant-baseline="middle" fill="black" > 432</text>
<text x="12" y="596" font-family="Verdana" font-size="10" text-anchor="middle"  dominant-baseline="middle" fill="black" > 576</text>
<text x="12" y="740" font-family="Verdana" font-size="10" text-anchor="middle"  dominant-baseline="middle" fill="black" > 720</text>
<text x="100" y="7" font-family="Verdana" font-size="7" text-anchor="middle"  dominant-baseline="middle" fill="black" > C1</text>
<circle cx="100" cy="15" r="4" fill="white" stroke="black" />
<line x1="100" y1="19" x2="100" y2="102" stroke="black" />
<line x1="50" y1="102" x2="150" y2="102" stroke="black" />
<text x="125" y="94" font-family="Verdana" font-size="8" text-anchor="middle"  dominant-baseline="middle" fill="black" > 87</text>
<circle cx="50" cy="102" r="4" fill="white" stroke="black" />
<circle cx="150" cy="102" r="4" fill="white" stroke="black" />
<line x1="50" y1="106" x2="50" y2="189" stroke="black" />
<line x1="50" y1="189" x2="100" y2="217" stroke="black" />
<line x1="150" y1="106" x2="150" y2="189" stroke="black" />
<line x1="150" y1="189" x2="100" y2="217" stroke="black" />
<text x="100" y="205" font-family="Verdana" font-size="8" text-anchor="middle"  dominant-baseline="middle" fill="black" > 202</text>
<circle cx="100" cy="217" r="4" fill="white" stroke="black" />
<line x1="100" y1="221" x2="100" y2="492" stroke="black" />
<line x1="96" y1="488" x2="104" y2="496" stroke="red" />
<line x1="96" y1="496" x2="104" y2="488" stroke="red" />
<text x="100" y="504" font-family="Verdana" font-size="8" text-anchor="middle"  dominant-baseline="middle" fill="black" > 477</text>
<text x="250" y="7" font-family="Verdana" font-size="7" text-anchor="middle"  dominant-baseline="middle" fill="black" > C2</text>
<circle cx="250" cy="15" r="4" fill="white" stroke="black" />
<line x1="250" y1="19" x2="250" y2="560" stroke="black" />
<line x1="246" y1="564" x2="250" y2="556" stroke="blue" />
<line x1="250" y1="564" x2="254" y2="556" stroke="blue" />
<text x="250" y="572" font-family="Verdana" font-size="8" text-anchor="middle"  dominant-baseline="middle" fill="black" > 545</text>
<text x="400" y="7" font-family="Verdana" font-size="7" text-anchor="middle"  dominant-baseline="middle" fill="black" > C3</text>
<circle cx="400" cy="15" r="4" fill="white" stroke="black" />
<line x1="400" y1="19" x2="400" y2="299" stroke="black" />
<line x1="350" y1="299" x2="450" y2="299" stroke="black" />
<text x="425" y="291" font-family="Verdana" font-size="8" text-anchor="middle"  dominant-baseline="middle" fill="black" > 284</text>
<circle cx="350" cy="299" r="4" fill="white" stroke="black" />
<circle cx="450" cy="299" r="4" fill="white" stroke="black" />
<line x1="350" y1="303" x2="350" y2="383" stroke="black" />
<line x1="350" y1="383" x2="400" y2="411" stroke="black" />
<line x1="450" y1="303" x2="450" y2="383" stroke="black" />
<line x1="450" y1="383" x2="400" y2="411" stroke="black" />
<text x="400" y="399" font-family="Verdana" font-size="8" text-anchor="middle"  dominant-baseline="middle" fill="black" > 396</text>
<circle cx="400" cy="411" r="4" fill="white" stroke="black" />
<line x1="400" y1="415" x2="400" y2="542" stroke="black" />
<line x1="366" y1="542" x2="434" y2="542" stroke="black" />
<text x="408" y="534" font-family="Verdana" font-size="8" text-anchor="middle"  dominant-baseline="middle" fill="black" > 527</text>
<circle cx="366" cy="542" r="4" fill="white" stroke="black" />
<line x1="366" y1="546" x2="366" y2="736" stroke="black" />
<circle cx="366" cy="736" r="4" fill="white" stroke="black" />
<text x="366" y="748" font-family="Verdana" font-size="8" text-anchor="middle"  dominant-baseline="middle" fill="black" > 721</text>
<circle cx="399" cy="542" r="4" fill="white" stroke="black" />
<line x1="399" y1="546" x2="399" y2="736" stroke="black" />
<circle cx="399" cy="736" r="4" fill="white" stroke="black" />
<text x="399" y="748" font-family="Verdana" font-size="8" text-anchor="middle"  dominant-baseline="middle" fill="black" > 721</text>
<circle cx="432" cy="542" r="4" fill="white" stroke="black" />
<line x1="432" y1="546" x2="432" y2="736" stroke="black" />
<circle cx="432" cy="736" r="4" fill="white" stroke="black" />
<text x="432" y="748" font-family="Verdana" font-size="8" text-anchor="middle"  dominant-baseline="middle" fill="black" > 721</text>
<text x="650" y="7" font-family="Verdana" font-size="7" text-anchor="middle"  dominant-baseline="middle" fill="black" > C4</text>
<circle cx="650" cy="15" r="4" fill="white" stroke="black" />
<line x1="650" y1="19" x2="650" y2="326" stroke="black" />
<line x1="550" y1="326" x2="750" y2="326" stroke="black" />
<text x="675" y="318" font-family="Verdana" font-size="8" text-anchor="middle"  dominant-baseline="middle" fill="black" > 311</text>
<circle cx="550" cy="326" r="4" fill="white" stroke="black" />
<circle cx="650" cy="326" r="4" fill="white" stroke="black" />
<line x1="550" y1="330" x2="550" y2="337" stroke="black" />
<line x1="550" y1="337" x2="600" y2="340" stroke="black" />
<line x1="650" y1="330" x2="650" y2="337" stroke="black" />
<line x1="650" y1="337" x2="600" y2="340" stroke="black" />
<text x="600" y="328" font-family="Verdana" font-size="8" text-anchor="middle"  dominant-baseline="middle" fill="black" > 325</text>
<circle cx="600" cy="340" r="4" fill="white" stroke="black" />
<circle cx="750" cy="326" r="4" fill="white" stroke="black" />
<line x1="600" y1="344" x2="600" y2="353" stroke="black" />
<line x1="600" y1="353" x2="675" y2="357" stroke="black" />
<line x1="750" y1="330" x2="750" y2="353" stroke="black" />
<line x1="750" y1="353" x2="675" y2="357" stroke="black" />
<text x="675" y="345" font-family="Verdana" font-size="8" text-anchor="middle"  dominant-baseline="middle" fill="black" > 342</text>
<circle cx="675" cy="357" r="4" fill="white" stroke="black" />
<line x1="675" y1="361" x2="675" y2="736" stroke="black" />
<circle cx="675" cy="736" r="4" fill="white" stroke="black" />
<text x="675" y="748" font-family="Verdana" font-size="8" text-anchor="middle"  dominant-baseline="middle" fill="black" > 721</text>
</svg>
