<?xml version="1.0" encoding="utf-8"?>
<svg xmlns="http://www.w3.org/2000/svg" version="1.1" width="2050" height="750">
<rect width="2050" height="15" x="0" y="0" fill="white" />
<rect width="2050" height="15" x="0" y="735" fill="white" />
<rect width="25" height="750" x="0" y="0" fill="white" />
<rect width="25" height="750" x="2025" y="0" fill="white" />
<rect width="2010" height="144" x="25" y="15" fill="ghostwhite" />
<rect width="2010" height="144" x="25" y="159" fill="snow" />
<rect width="2010" height="144" x="25" y="303" fill="ghostwhite" />
<rect width="2010" height="144" x="25" y="447" fill="snow" />
<rect width="2010" height="144" x="25" y="591" fill="ghostwhite" />
<text x="12" y="87" font-family="Verdana" font-size="10" text-anchor="middle"  dominant-baseline="middle" fill="red" > D0</text>
<text x="12" y="231" font-family="Verdana" font-size="10" text-anchor="middle"  dominant-baseline="middle" fill="red" > D1</text>
<text x="12" y="375" font-family="Verdana" font-size="10" text-anchor="middle"  dominant-baseline="middle" fill="red" > D2</text>
<text x="12" y="519" font-family="Verdana" font-size="10" text-anchor="middle"  dominant-baseline="middle" fill="red" > D3</text>
<text x="12" y="663" font-family="Verdana" font-size="10" text-anchor="middle"  dominant-baseline="middle" fill="red" > D4</text>
<text x="12" y="20" font-family="Verdana" font-size="10" text-anchor="middle"  dominant-baseline="middle" fill="black" > 0</text>
<text x="12" y="164" font-family="Verdana" font-size="10" text-anchor="middle"  dominant-baseline="middle" fill="black" > 144</text>
<text x="12" y="308" font-family="Verdana" font-size="10" text-anchor="middle"  dominant-baseline="middle" fill="black" > 288</text>
<text x="12" y="452" font-family="Verdana" font-size="10" text-anchor="middle"  dominant-baseline="middle" fill="black" > 432</text>
<text x="12" y="596" font-family="Verdana" font-size="10" text-anchor="middle"  dominant-baseline="middle" fill="black" > 576</text>
<text x="12" y="740" font-family="Verdana" font-size="10" text-anchor="middle"  dominant-baseline="middle" fill="black" > 720</text>
<text x="150" y="7" font-family="Verdana" font-size="7" text-anchor="middle"  dominant-baseline="middle" fill="black" > C1</text>
<circle cx="150" cy="15" r="4" fill="white" stroke="black" />
<line x1="150" y1="19" x2="150" y2="17" stroke="black" />
<line x1="50" y1="17" x2="250" y2="17" stroke="black" />
<text x="175" y="9" font-family="Verdana" font-size="8" text-anchor="middle"  dominant-baseline="middle" fill="black" > 2</text>
<circle cx="50" cy="17" r="4" fill="white" stroke="black" />
<line x1="50" y1="21" x2="50" y2="18" stroke="black" />
<line x1="46" y1="22" x2="50" y2="14" stroke="blue" />
<line x1="50" y1="22" x2="54" y2="14" stroke="blue" />
<text x="50" y="30" font-family="Verdana" font-size="8" text-anchor="middle"  dominant-baseline="middle" fill="black" > 3</text>
<circle cx="150" cy="17" r="4" fill="white" stroke="black" />
<line x1="150" y1="21" x2="150" y2="18" stroke="black" />
<line x1="146" y1="22" x2="150" y2="14" stroke="blue" />
<line x1="150" y1="22" x2="154" y2="14" stroke="blue" />
<text x="150" y="30" font-family="Verdana" font-size="8" text-anchor="middle"  dominant-baseline="middle" fill="black" > 3</text>
<circle cx="250" cy="17" r="4" fill="white" stroke="black" />
<line x1="250" y1="21" x2="250" y2="18" stroke="black" />
<line x1="246" y1="22" x2="250" y2="14" stroke="blue" />
<line x1="250" y1="22" x2="254" y2="14" stroke="blue" />
<text x="250" y="30" font-family="Verdana" font-size="8" text-anchor="middle"  dominant-baseline="middle" fill="black" > 3</text>
<text x="350" y="7" font-family="Verdana" font-size="7" text-anchor="middle"  dominant-baseline="middle" fill="black" > C2</text>
<circle cx="350" cy="15" r="4" fill="white" stroke="black" />
<line x1="350" y1="19" x2="350" y2="715" stroke="black" />
<line x1="346" y1="711" x2="354" y2="719" stroke="red" />
<line x1="346" y1="719" x2="354" y2="711" stroke="red" />
<text x="350" y="727" font-family="Verdana" font-size="8" text-anchor="middle"  dominant-baseline="middle" fill="black" > 700</text>
<text x="450" y="7" font-family="Verdana" font-size="7" text-anchor="middle"  dominant-baseline="middle" fill="black" > C3</text>
<circle cx="450" cy="15" r="4" fill="white" stroke="black" />
<line x1="450" y1="19" x2="450" y2="516" stroke="black" />
<line x1="446" y1="512" x2="454" y2="520" stroke="red" />
<line x1="446" y1="520" x2="454" y2="512" stroke="red" />
<text x="450" y="528" font-family="Verdana" font-size="8" text-anchor="middle"  dominant-baseline="middle" fill="black" > 501</text>
<text x="550" y="7" font-family="Verdana" font-size="7" text-anchor="middle"  dominant-baseline="middle" fill="black" > C4</text>
<circle cx="550" cy="15" r="4" fill="white" stroke="black" />
<line x1="550" y1="19" x2="550" y2="77" stroke="black" />
<line x1="546" y1="81" x2="550" y2="73" stroke="blue" />
<line x1="550" y1="81" x2="554" y2="73" stroke="blue" />
<text x="550" y="89" font-family="Verdana" font-size="8" text-anchor="middle"  dominant-baseline="middle" fill="black" > 62</text>
<text x="750" y="7" font-family="Verdana" font-size="7" text-anchor="middle"  dominant-baseline="middle" fill="black" > C5</text>
<circle cx="750" cy="15" r="4" fill="white" stroke="black" />
<line x1="750" y1="19" x2="750" y2="392" stroke="black" />
<line x1="650" y1="392" x2="850" y2="392" stroke="black" />
<text x="775" y="384" font-family="Verdana" font-size="8" text-anchor="middle"  dominant-baseline="middle" fill="black" > 377</text>
<circle cx="650" cy="392" r="4" fill="white" stroke="black" />
<circle cx="750" cy="392" r="4" fill="white" stroke="black" />
<circle cx="850" cy="392" r="4" fill="white" stroke="black" />
<line x1="650" y1="396" x2="650" y2="404" stroke="black" />
<line x1="650" y1="404" x2="750" y2="407" stroke="black" />
<line x1="750" y1="396" x2="750" y2="404" stroke="black" />
<line x1="750" y1="404" x2="750" y2="407" stroke="black" />
<line x1="850" y1="396" x2="850" y2="404" stroke="black" />
<line x1="850" y1="404" x2="750" y2="407" stroke="black" />
<text x="750" y="395" font-family="Verdana" font-size="8" text-anchor="middle"  dominant-baseline="middle" fill="black" > 392</text>
<circle cx="750" cy="407" r="4" fill="white" stroke="black" />
<line x1="750" y1="411" x2="750" y2="465" stroke="black" />
<line x1="746" y1="461" x2="754" y2="469" stroke="red" />
<line x1="746" y1="469" x2="754" y2="461" stroke="red" />
<text x="750" y="477" font-family="Verdana" font-size="8" text-anchor="middle"  dominant-baseline="middle" fill="black" > 450</text>
<text x="950" y="7" font-family="Verdana" font-size="7" text-anchor="middle"  dominant-baseline="middle" fill="black" > C6</text>
<circle cx="950" cy="15" r="4" fill="white" stroke="black" />
<line x1="950" y1="19" x2="950" y2="305" stroke="black" />
<line x1="946" y1="309" x2="950" y2="301" stroke="blue" />
<line x1="950" y1="309" x2="954" y2="301" stroke="blue" />
<text x="950" y="317" font-family="Verdana" font-size="8" text-anchor="middle"  dominant-baseline="middle" fill="black" > 290</text>
<text x="1050" y="7" font-family="Verdana" font-size="7" text-anchor="middle"  dominant-baseline="middle" fill="black" > C7</text>
<circle cx="1050" cy="15" r="4" fill="white" stroke="black" />
<line x1="1050" y1="19" x2="1050" y2="536" stroke="black" />
<line x1="1046" y1="540" x2="1050" y2="532" stroke="blue" />
<line x1="1050" y1="540" x2="1054" y2="532" stroke="blue" />
<text x="1050" y="548" font-family="Verdana" font-size="8" text-anchor="middle"  dominant-baseline="middle" fill="black" > 521</text>
<text x="1250" y="7" font-family="Verdana" font-size="7" text-anchor="middle"  dominant-baseline="middle" fill="black" > C8</text>
<circle cx="1250" cy="15" r="4" fill="white" stroke="black" />
<line x1="1250" y1="19" x2="1250" y2="310" stroke="black" />
<line x1="1150" y1="310" x2="1350" y2="310" stroke="black" />
<text x="1275" y="302" font-family="Verdana" font-size="8" text-anchor="middle"  dominant-baseline="middle" fill="black" > 295</text>
<circle cx="1150" cy="310" r="4" fill="white" stroke="black" />
<line x1="1150" y1="314" x2="1150" y2="445" stroke="black" />
<line x1="1146" y1="441" x2="1154" y2="449" stroke="red" />
<line x1="1146" y1="449" x2="1154" y2="441" stroke="red" />
<text x="1150" y="457" font-family="Verdana" font-size="8" text-anchor="middle"  dominant-baseline="middle" fill="black" > 430</text>
<circle cx="1250" cy="310" r="4" fill="white" stroke="black" />
<circle cx="1350" cy="310" r="4" fill="white" stroke="black" />
<line x1="1250" y1="314" x2="1250" y2="486" stroke="black" />
<line x1="1250" y1="486" x2="1300" y2="544" stroke="black" />
<line x1="1350" y1="314" x2="1350" y2="486" stroke="black" />
<line x1="1350" y1="486" x2="1300" y2="544" stroke="black" />
<text x="1300" y="532" font-family="Verdana" font-size="8" text-anchor="middle"  dominant-baseline="middle" fill="black" > 529</text>
<circle cx="1300" cy="544" r="4" fill="white" stroke="black" />
<line x1="1300" y1="548" x2="1300" y2="693" stroke="black" />
<line x1="1296" y1="689" x2="1304" y2="697" stroke="red" />
<line x1="1296" y1="697" x2="1304" y2="689" stroke="red" />
<text x="1300" y="705" font-family="Verdana" font-size="8" text-anchor="middle"  dominant-baseline="middle" fill="black" > 678</text>
<text x="1550" y="7" font-family="Verdana" font-size="7" text-anchor="middle"  dominant-baseline="middle" fill="black" > C9</text>
<circle cx="1550" cy="15" r="4" fill="white" stroke="black" />
<line x1="1550" y1="19" x2="1550" y2="313" stroke="black" />
<line x1="1450" y1="313" x2="1650" y2="313" stroke="black" />
<text x="1575" y="305" font-family="Verdana" font-size="8" text-anchor="middle"  dominant-baseline="middle" fill="black" > 298</text>
<circle cx="1450" cy="313" r="4" fill="white" stroke="black" />
<circle cx="1550" cy="313" r="4" fill="white" stroke="black" />
<line x1="1450" y1="317" x2="1450" y2="330" stroke="black" />
<line x1="1450" y1="330" x2="1500" y2="335" stroke="black" />
<line x1="1550" y1="317" x2="1550" y2="330" stroke="black" />
<line x1="1550" y1="330" x2="1500" y2="335" stroke="black" />
<text x="1500" y="323" font-family="Verdana" font-size="8" text-anchor="middle"  dominant-baseline="middle" fill="black" > 320</text>
<circle cx="1500" cy="335" r="4" fill="white" stroke="black" />
<circle cx="1650" cy="313" r="4" fill="white" stroke="black" />
<line x1="1500" y1="339" x2="1500" y2="354" stroke="black" />
<line x1="1500" y1="354" x2="1575" y2="360" stroke="black" />
<line x1="1650" y1="317" x2="1650" y2="354" stroke="black" />
<line x1="1650" y1="354" x2="1575" y2="360" stroke="black" />
<text x="1575" y="348" font-family="Verdana" font-size="8" text-anchor="middle"  dominant-baseline="middle" fill="black" > 345</text>
<circle cx="1575" cy="360" r="4" fill="white" stroke="black" />
<line x1="1575" y1="364" x2="1575" y2="499" stroke="black" />
<line x1="1571" y1="495" x2="1579" y2="503" stroke="red" />
<line x1="1571" y1="503" x2="1579" y2="495" stroke="red" />
<text x="1575" y="511" font-family="Verdana" font-size="8" text-anchor="middle"  dominant-baseline="middle" fill="black" > 484</text>
<text x="1850" y="7" font-family="Verdana" font-size="7" text-anchor="middle"  dominant-baseline="middle" fill="black" > C10</text>
<circle cx="1850" cy="15" r="4" fill="white" stroke="black" />
<line x1="1850" y1="19" x2="1850" y2="154" stroke="black" />
<line x1="1750" y1="154" x2="1950" y2="154" stroke="black" />
<text x="1875" y="146" font-family="Verdana" font-size="8" text-anchor="middle"  dominant-baseline="middle" fill="black" > 139</text>
<circle cx="1750" cy="154" r="4" fill="white" stroke="black" />
<circle cx="1850" cy="154" r="4" fill="white" stroke="black" />
<circle cx="1950" cy="154" r="4" fill="white" stroke="black" />
<line x1="1750" y1="158" x2="1750" y2="173" stroke="black" />
<line x1="1750" y1="173" x2="1850" y2="179" stroke="black" />
<line x1="1850" y1="158" x2="1850" y2="173" stroke="black" />
<line x1="1850" y1="173" x2="1850" y2="179" stroke="black" />
<line x1="1950" y1="158" x2="1950" y2="173" stroke="black" />
<line x1="1950" y1="173" x2="1850" y2="179" stroke="black" />
<text x="1850" y="167" font-family="Verdana" font-size="8" text-anchor="middle"  dominant-baseline="middle" fill="black" > 164</text>
<circle cx="1850" cy="179" r="4" fill="white" stroke="black" />
<line x1="1850" y1="183" x2="1850" y2="736" stroke="black" />
<circle cx="1850" cy="736" r="4" fill="white" stroke="black" />
<text x="1850" y="748" font-family="Verdana" font-size="8" text-anchor="middle"  dominant-baseline="middle" fill="black" > 721</text>
</svg>
