<?xml version="1.0" encoding="utf-8"?>
<svg xmlns="http://www.w3.org/2000/svg" version="1.1" width="1150" height="750">
<rect width="1150" height="15" x="0" y="0" fill="white" />
<rect width="1150" height="15" x="0" y="735" fill="white" />
<rect width="25" height="750" x="0" y="0" fill="white" />
<rect width="25" height="750" x="1125" y="0" fill="white" />
<rect width="1110" height="144" x="25" y="15" fill="ghostwhite" />
<rect width="1110" height="144" x="25" y="159" fill="snow" />
<rect width="1110" height="144" x="25" y="303" fill="ghostwhite" />
<rect width="1110" height="144" x="25" y="447" fill="snow" />
<rect width="1110" height="144" x="25" y="591" fill="ghostwhite" />
<text x="12" y="87" font-family="Verdana" font-size="10" text-anchor="middle"  dominant-baseline="middle" fill="red" > D0</text>
<text x="12" y="231" font-family="Verdana" font-size="10" text-anchor="middle"  dominant-baseline="middle" fill="red" > D1</text>
<text x="12" y="375" font-family="Verdana" font-size="10" text-anchor="middle"  dominant-baseline="middle" fill="red" > D2</text>
<text x="12" y="519" font-family="Verdana" font-size="10" text-anchor="middle"  dominant-baseline="middle" fill="red" > D3</text>
<text x="12" y="663" font-family="Verdana" font-size="10" text-anchor="middle"  dominant-baseline="middle" fill="red" > D4</text>
<text x="12" y="20" font-family="Verdana" font-size="10" text-anchor="middle"  dominant-baseline="middle" fill="black" > 0</text>
<text x="12" y="164" font-family="Verdana" font-size="10" text-anchor="middle"  dominant-baseline="middle" fill="black" > 144</text>
<text x="12" y="308" font-family="Verdana" font-size="10" text-anchor="middle"  dominant-baseline="middle" fill="black" > 288</text>
<text x="12" y="452" font-family="Verdana" font-size="10" text-anchor="middle"  dominant-baseline="middle" fill="black" > 432</text>
<text x="12" y="596" font-family="Verdana" font-size="10" text-anchor="middle"  dominant-baseline="middle" fill="black" > 576</text>
<text x="12" y="740" font-family="Verdana" font-size="10" text-anchor="middle"  dominant-baseline="middle" fill="black" > 720</text>
<text x="50" y="7" font-family="Verdana" font-size="7" text-anchor="middle"  dominant-baseline="middle" fill="black" > C1</text>
<circle cx="50" cy="15" r="4" fill="white" stroke="black" />
<line x1="50" y1="19" x2="50" y2="459" stroke="black" />
<line x1="46" y1="455" x2="54" y2="463" stroke="red" />
<line x1="46" y1="463" x2="54" y2="455" stroke="red" />
<text x="50" y="471" font-family="Verdana" font-size="8" text-anchor="middle"  dominant-baseline="middle" fill="black" > 444</text>
<text x="150" y="7" font-family="Verdana" font-size="7" text-anchor="middle"  dominant-baseline="middle" fill="black" > C2</text>
<circle cx="150" cy="15" r="4" fill="white" stroke="black" />
<line x1="150" y1="19" x2="150" y2="394" stroke="black" />
<line x1="146" y1="398" x2="150" y2="390" stroke="blue" />
<line x1="150" y1="398" x2="154" y2="390" stroke="blue" />
<text x="150" y="406" font-family="Verdana" font-size="8" text-anchor="middle"  dominant-baseline="middle" fill="black" > 379</text>
<text x="300" y="7" font-family="Verdana" font-size="7" text-anchor="middle"  dominant-baseline="middle" fill="black" > C3</text>
<circle cx="300" cy="15" r="4" fill="white" stroke="black" />
<line x1="300" y1="19" x2="300" y2="159" stroke="black" />
<line x1="250" y1="159" x2="350" y2="159" stroke="black" />
<text x="325" y="151" font-family="Verdana" font-size="8" text-anchor="middle"  dominant-baseline="middle" fill="black" > 144</text>
<circle cx="250" cy="159" r="4" fill="white" stroke="black" />
<circle cx="350" cy="159" r="4" fill="white" stroke="black" />
<line x1="250" y1="163" x2="250" y2="203" stroke="black" />
<line x1="250" y1="203" x2="300" y2="217" stroke="black" />
<line x1="350" y1="163" x2="350" y2="203" stroke="black" />
<line x1="350" y1="203" x2="300" y2="217" stroke="black" />
<text x="300" y="205" font-family="Verdana" font-size="8" text-anchor="middle"  dominant-baseline="middle" fill="black" > 202</text>
<circle cx="300" cy="217" r="4" fill="white" stroke="black" />
<line x1="300" y1="221" x2="300" y2="233" stroke="black" />
<line x1="296" y1="229" x2="304" y2="237" stroke="red" />
<line x1="296" y1="237" x2="304" y2="229" stroke="red" />
<text x="300" y="245" font-family="Verdana" font-size="8" text-anchor="middle"  dominant-baseline="middle" fill="black" > 218</text>
<text x="450" y="7" font-family="Verdana" font-size="7" text-anchor="middle"  dominant-baseline="middle" fill="black" > C4</text>
<circle cx="450" cy="15" r="4" fill="white" stroke="black" />
<line x1="450" y1="19" x2="450" y2="190" stroke="black" />
<line x1="446" y1="186" x2="454" y2="194" stroke="red" />
<line x1="446" y1="194" x2="454" y2="186" stroke="red" />
<text x="450" y="202" font-family="Verdana" font-size="8" text-anchor="middle"  dominant-baseline="middle" fill="black" > 175</text>
<text x="550" y="7" font-family="Verdana" font-size="7" text-anchor="middle"  dominant-baseline="middle" fill="black" > C5</text>
<circle cx="550" cy="15" r="4" fill="white" stroke="black" />
<line x1="550" y1="19" x2="550" y2="269" stroke="black" />
<line x1="546" y1="273" x2="550" y2="265" stroke="blue" />
<line x1="550" y1="273" x2="554" y2="265" stroke="blue" />
<text x="550" y="281" font-family="Verdana" font-size="8" text-anchor="middle"  dominant-baseline="middle" fill="black" > 254</text>
<text x="650" y="7" font-family="Verdana" font-size="7" text-anchor="middle"  dominant-baseline="middle" fill="black" > C6</text>
<circle cx="650" cy="15" r="4" fill="white" stroke="black" />
<line x1="650" y1="19" x2="650" y2="360" stroke="black" />
<line x1="646" y1="356" x2="654" y2="364" stroke="red" />
<line x1="646" y1="364" x2="654" y2="356" stroke="red" />
<text x="650" y="372" font-family="Verdana" font-size="8" text-anchor="middle"  dominant-baseline="middle" fill="black" > 345</text>
<text x="750" y="7" font-family="Verdana" font-size="7" text-anchor="middle"  dominant-baseline="middle" fill="black" > C7</text>
<circle cx="750" cy="15" r="4" fill="white" stroke="black" />
<line x1="750" y1="19" x2="750" y2="388" stroke="black" />
<line x1="746" y1="384" x2="754" y2="392" stroke="red" />
<line x1="746" y1="392" x2="754" y2="384" stroke="red" />
<text x="750" y="400" font-family="Verdana" font-size="8" text-anchor="middle"  dominant-baseline="middle" fill="black" > 373</text>
<text x="900" y="7" font-family="Verdana" font-size="7" text-anchor="middle"  dominant-baseline="middle" fill="black" > C8</text>
<circle cx="900" cy="15" r="4" fill="white" stroke="black" />
<line x1="900" y1="19" x2="900" y2="21" stroke="black" />
<line x1="850" y1="21" x2="950" y2="21" stroke="black" />
<text x="925" y="13" font-family="Verdana" font-size="8" text-anchor="middle"  dominant-baseline="middle" fill="black" > 6</text>
<circle cx="850" cy="21" r="4" fill="white" stroke="black" />
<line x1="850" y1="25" x2="850" y2="395" stroke="black" />
<line x1="846" y1="399" x2="850" y2="391" stroke="blue" />
<line x1="850" y1="399" x2="854" y2="391" stroke="blue" />
<text x="850" y="407" font-family="Verdana" font-size="8" text-anchor="middle"  dominant-baseline="middle" fill="black" > 380</text>
<circle cx="950" cy="21" r="4" fill="white" stroke="black" />
<line x1="950" y1="25" x2="950" y2="155" stroke="black" />
<line x1="946" y1="159" x2="950" y2="151" stroke="blue" />
<line x1="950" y1="159" x2="954" y2="151" stroke="blue" />
<text x="950" y="167" font-family="Verdana" font-size="8" text-anchor="middle"  dominant-baseline="middle" fill="black" > 140</text>
<text x="1050" y="7" font-family="Verdana" font-size="7" text-anchor="middle"  dominant-baseline="middle" fill="black" > C9</text>
<circle cx="1050" cy="15" r="4" fill="white" stroke="black" />
<line x1="1050" y1="19" x2="1050" y2="30" stroke="black" />
<line x1="1046" y1="34" x2="1050" y2="26" stroke="blue" />
<line x1="1050" y1="34" x2="1054" y2="26" stroke="blue" />
<text x="1050" y="42" font-family="Verdana" font-size="8" text-anchor="middle"  dominant-baseline="middle" fill="black" > 15</text>
</svg>
