<?xml version="1.0" encoding="utf-8"?>
<svg xmlns="http://www.w3.org/2000/svg" version="1.1" width="1150" height="750">
<rect width="1150" height="15" x="0" y="0" fill="white" />
<rect width="1150" height="15" x="0" y="735" fill="white" />
<rect width="25" height="750" x="0" y="0" fill="white" />
<rect width="25" height="750" x="1125" y="0" fill="white" />
<rect width="1110" height="144" x="25" y="15" fill="ghostwhite" />
<rect width="1110" height="144" x="25" y="159" fill="snow" />
<rect width="1110" height="144" x="25" y="303" fill="ghostwhite" />
<rect width="1110" height="144" x="25" y="447" fill="snow" />
<rect width="1110" height="144" x="25" y="591" fill="ghostwhite" />
<text x="12" y="87" font-family="Verdana" font-size="10" text-anchor="middle"  dominant-baseline="middle" fill="red" > D0</text>
<text x="12" y="231" font-family="Verdana" font-size="10" text-anchor="middle"  dominant-baseline="middle" fill="red" > D1</text>
<text x="12" y="375" font-family="Verdana" font-size="10" text-anchor="middle"  dominant-baseline="middle" fill="red" > D2</text>
<text x="12" y="519" font-family="Verdana" font-size="10" text-anchor="middle"  dominant-baseline="middle" fill="red" > D3</text>
<text x="12" y="663" font-family="Verdana" font-size="10" text-anchor="middle"  dominant-baseline="middle" fill="red" > D4</text>
<text x="12" y="20" font-family="Verdana" font-size="10" text-anchor="middle"  dominant-baseline="middle" fill="black" > 0</text>
<text x="12" y="164" font-family="Verdana" font-size="10" text-anchor="middle"  dominant-baseline="middle" fill="black" > 144</text>
<text x="12" y="308" font-family="Verdana" font-size="10" text-anchor="middle"  dominant-baseline="middle" fill="black" > 288</text>
<text x="12" y="452" font-family="Verdana" font-size="10" text-anchor="middle"  dominant-baseline="middle" fill="black" > 432</text>
<text x="12" y="596" font-family="Verdana" font-size="10" text-anchor="middle"  dominant-baseline="middle" fill="black" > 576</text>
<text x="12" y="740" font-family="Verdana" font-size="10" text-anchor="middle"  dominant-baseline="middle" fill="black" > 720</text>
<text x="50" y="7" font-family="Verdana" font-size="7" text-anchor="middle"  dominant-baseline="middle" fill="black" > C1</text>
<circle cx="50" cy="15" r="4" fill="white" stroke="black" />
<line x1="50" y1="19" x2="50" y2="441" stroke="black" />
<line x1="46" y1="445" x2="50" y2="437" stroke="blue" />
<line x1="50" y1="445" x2="54" y2="437" stroke="blue" />
<text x="50" y="453" font-family="Verdana" font-size="8" text-anchor="middle"  dominant-baseline="middle" fill="black" > 426</text>
<text x="150" y="7" font-family="Verdana" font-size="7" text-anchor="middle"  dominant-baseline="middle" fill="black" > C2</text>
<circle cx="150" cy="15" r="4" fill="white" stroke="black" />
<line x1="150" y1="19" x2="150" y2="372" stroke="black" />
<line x1="146" y1="368" x2="154" y2="376" stroke="red" />
<line x1="146" y1="376" x2="154" y2="368" stroke="red" />
<text x="150" y="384" font-family="Verdana" font-size="8" text-anchor="middle"  dominant-baseline="middle" fill="black" > 357</text>
<text x="250" y="7" font-family="Verdana" font-size="7" text-anchor="middle"  dominant-baseline="middle" fill="black" > C3</text>
<circle cx="250" cy="15" r="4" fill="white" stroke="black" />
<line x1="250" y1="19" x2="250" y2="431" stroke="black" />
<line x1="246" y1="427" x2="254" y2="435" stroke="red" />
<line x1="246" y1="435" x2="254" y2="427" stroke="red" />
<text x="250" y="443" font-family="Verdana" font-size="8" text-anchor="middle"  dominant-baseline="middle" fill="black" > 416</text>
<text x="450" y="7" font-family="Verdana" font-size="7" text-anchor="middle"  dominant-baseline="middle" fill="black" > C4</text>
<circle cx="450" cy="15" r="4" fill="white" stroke="black" />
<line x1="450" y1="19" x2="450" y2="330" stroke="black" />
<line x1="350" y1="330" x2="550" y2="330" stroke="black" />
<text x="475" y="322" font-family="Verdana" font-size="8" text-anchor="middle"  dominant-baseline="middle" fill="black" > 315</text>
<circle cx="350" cy="330" r="4" fill="white" stroke="black" />
<line x1="350" y1="334" x2="350" y2="736" stroke="black" />
<circle cx="350" cy="736" r="4" fill="white" stroke="black" />
<text x="350" y="748" font-family="Verdana" font-size="8" text-anchor="middle"  dominant-baseline="middle" fill="black" > 721</text>
<circle cx="450" cy="330" r="4" fill="white" stroke="black" />
<line x1="450" y1="334" x2="450" y2="697" stroke="black" />
<line x1="446" y1="693" x2="454" y2="701" stroke="red" />
<line x1="446" y1="701" x2="454" y2="693" stroke="red" />
<text x="450" y="709" font-family="Verdana" font-size="8" text-anchor="middle"  dominant-baseline="middle" fill="black" > 682</text>
<circle cx="550" cy="330" r="4" fill="white" stroke="black" />
<line x1="550" y1="334" x2="550" y2="682" stroke="black" />
<line x1="546" y1="678" x2="554" y2="686" stroke="red" />
<line x1="546" y1="686" x2="554" y2="678" stroke="red" />
<text x="550" y="694" font-family="Verdana" font-size="8" text-anchor="middle"  dominant-baseline="middle" fill="black" > 667</text>
<text x="750" y="7" font-family="Verdana" font-size="7" text-anchor="middle"  dominant-baseline="middle" fill="black" > C5</text>
<circle cx="750" cy="15" r="4" fill="white" stroke="black" />
<line x1="750" y1="19" x2="750" y2="298" stroke="black" />
<line x1="650" y1="298" x2="850" y2="298" stroke="black" />
<text x="775" y="290" font-family="Verdana" font-size="8" text-anchor="middle"  dominant-baseline="middle" fill="black" > 283</text>
<circle cx="650" cy="298" r="4" fill="white" stroke="black" />
<circle cx="750" cy="298" r="4" fill="white" stroke="black" />
<circle cx="850" cy="298" r="4" fill="white" stroke="black" />
<line x1="650" y1="302" x2="650" y2="378" stroke="black" />
<line x1="650" y1="378" x2="750" y2="404" stroke="black" />
<line x1="750" y1="302" x2="750" y2="378" stroke="black" />
<line x1="750" y1="378" x2="750" y2="404" stroke="black" />
<line x1="850" y1="302" x2="850" y2="378" stroke="black" />
<line x1="850" y1="378" x2="750" y2="404" stroke="black" />
<text x="750" y="392" font-family="Verdana" font-size="8" text-anchor="middle"  dominant-baseline="middle" fill="black" > 389</text>
<circle cx="750" cy="404" r="4" fill="white" stroke="black" />
<line x1="750" y1="408" x2="750" y2="484" stroke="black" />
<line x1="746" y1="480" x2="754" y2="488" stroke="red" />
<line x1="746" y1="488" x2="754" y2="480" stroke="red" />
<text x="750" y="496" font-family="Verdana" font-size="8" text-anchor="middle"  dominant-baseline="middle" fill="black" > 469</text>
<text x="1000" y="7" font-family="Verdana" font-size="7" text-anchor="middle"  dominant-baseline="middle" fill="black" > C6</text>
<circle cx="1000" cy="15" r="4" fill="white" stroke="black" />
<line x1="1000" y1="19" x2="1000" y2="497" stroke="black" />
<line x1="950" y1="497" x2="1050" y2="497" stroke="black" />
<text x="1025" y="489" font-family="Verdana" font-size="8" text-anchor="middle"  dominant-baseline="middle" fill="black" > 482</text>
<circle cx="950" cy="497" r="4" fill="white" stroke="black" />
<circle cx="1050" cy="497" r="4" fill="white" stroke="black" />
<line x1="950" y1="501" x2="950" y2="512" stroke="black" />
<line x1="950" y1="512" x2="1000" y2="516" stroke="black" />
<line x1="1050" y1="501" x2="1050" y2="512" stroke="black" />
<line x1="1050" y1="512" x2="1000" y2="516" stroke="black" />
<text x="1000" y="504" font-family="Verdana" font-size="8" text-anchor="middle"  dominant-baseline="middle" fill="black" > 501</text>
<circle cx="1000" cy="516" r="4" fill="white" stroke="black" />
<line x1="1000" y1="520" x2="1000" y2="533" stroke="black" />
<line x1="996" y1="537" x2="1000" y2="529" stroke="blue" />
<line x1="1000" y1="537" x2="1004" y2="529" stroke="blue" />
<text x="1000" y="545" font-family="Verdana" font-size="8" text-anchor="middle"  dominant-baseline="middle" fill="black" > 518</text>
</svg>
