<?xml version="1.0" encoding="utf-8"?>
<svg xmlns="http://www.w3.org/2000/svg" version="1.1" width="1050" height="750">
<rect width="1050" height="15" x="0" y="0" fill="white" />
<rect width="1050" height="15" x="0" y="735" fill="white" />
<rect width="25" height="750" x="0" y="0" fill="white" />
<rect width="25" height="750" x="1025" y="0" fill="white" />
<rect width="1010" height="144" x="25" y="15" fill="ghostwhite" />
<rect width="1010" height="144" x="25" y="159" fill="snow" />
<rect width="1010" height="144" x="25" y="303" fill="ghostwhite" />
<rect width="1010" height="144" x="25" y="447" fill="snow" />
<rect width="1010" height="144" x="25" y="591" fill="ghostwhite" />
<text x="12" y="87" font-family="Verdana" font-size="10" text-anchor="middle"  dominant-baseline="middle" fill="red" > D0</text>
<text x="12" y="231" font-family="Verdana" font-size="10" text-anchor="middle"  dominant-baseline="middle" fill="red" > D1</text>
<text x="12" y="375" font-family="Verdana" font-size="10" text-anchor="middle"  dominant-baseline="middle" fill="red" > D2</text>
<text x="12" y="519" font-family="Verdana" font-size="10" text-anchor="middle"  dominant-baseline="middle" fill="red" > D3</text>
<text x="12" y="663" font-family="Verdana" font-size="10" text-anchor="middle"  dominant-baseline="middle" fill="red" > D4</text>
<text x="12" y="20" font-family="Verdana" font-size="10" text-anchor="middle"  dominant-baseline="middle" fill="black" > 0</text>
<text x="12" y="164" font-family="Verdana" font-size="10" text-anchor="middle"  dominant-baseline="middle" fill="black" > 144</text>
<text x="12" y="308" font-family="Verdana" font-size="10" text-anchor="middle"  dominant-baseline="middle" fill="black" > 288</text>
<text x="12" y="452" font-family="Verdana" font-size="10" text-anchor="middle"  dominant-baseline="middle" fill="black" > 432</text>
<text x="12" y="596" font-family="Verdana" font-size="10" text-anchor="middle"  dominant-baseline="middle" fill="black" > 576</text>
<text x="12" y="740" font-family="Verdana" font-size="10" text-anchor="middle"  dominant-baseline="middle" fill="black" > 720</text>
<text x="100" y="7" font-family="Verdana" font-size="7" text-anchor="middle"  dominant-baseline="middle" fill="black" > C1</text>
<circle cx="100" cy="15" r="4" fill="white" stroke="black" />
<line x1="100" y1="19" x2="100" y2="205" stroke="black" />
<line x1="50" y1="205" x2="150" y2="205" stroke="black" />
<text x="125" y="197" font-family="Verdana" font-size="8" text-anchor="middle"  dominant-baseline="middle" fill="black" > 190</text>
<circle cx="50" cy="205" r="4" fill="white" stroke="black" />
<line x1="50" y1="209" x2="50" y2="530" stroke="black" />
<line x1="46" y1="534" x2="50" y2="526" stroke="blue" />
<line x1="50" y1="534" x2="54" y2="526" stroke="blue" />
<text x="50" y="542" font-family="Verdana" font-size="8" text-anchor="middle"  dominant-baseline="middle" fill="black" > 515</text>
<circle cx="150" cy="205" r="4" fill="white" stroke="black" />
<line x1="150" y1="209" x2="150" y2="736" stroke="black" />
<line x1="146" y1="732" x2="154" y2="740" stroke="red" />
<line x1="146" y1="740" x2="154" y2="732" stroke="red" />
<text x="150" y="748" font-family="Verdana" font-size="8" text-anchor="middle"  dominant-baseline="middle" fill="black" > 721</text>
<text x="350" y="7" font-family="Verdana" font-size="7" text-anchor="middle"  dominant-baseline="middle" fill="black" > C2</text>
<circle cx="350" cy="15" r="4" fill="white" stroke="black" />
<line x1="350" y1="19" x2="350" y2="342" stroke="black" />
<line x1="250" y1="342" x2="450" y2="342" stroke="black" />
<text x="375" y="334" font-family="Verdana" font-size="8" text-anchor="middle"  dominant-baseline="middle" fill="black" > 327</text>
<circle cx="250" cy="342" r="4" fill="white" stroke="black" />
<line x1="250" y1="346" x2="250" y2="736" stroke="black" />
<circle cx="250" cy="736" r="4" fill="white" stroke="black" />
<text x="250" y="748" font-family="Verdana" font-size="8" text-anchor="middle"  dominant-baseline="middle" fill="black" > 721</text>
<circle cx="350" cy="342" r="4" fill="white" stroke="black" />
<circle cx="450" cy="342" r="4" fill="white" stroke="black" />
<line x1="350" y1="346" x2="350" y2="354" stroke="black" />
<line x1="350" y1="354" x2="400" y2="357" stroke="black" />
<line x1="450" y1="346" x2="450" y2="354" stroke="black" />
<line x1="450" y1="354" x2="400" y2="357" stroke="black" />
<text x="400" y="345" font-family="Verdana" font-size="8" text-anchor="middle"  dominant-baseline="middle" fill="black" > 342</text>
<circle cx="400" cy="357" r="4" fill="white" stroke="black" />
<line x1="400" y1="361" x2="400" y2="508" stroke="black" />
<line x1="396" y1="504" x2="404" y2="512" stroke="red" />
<line x1="396" y1="512" x2="404" y2="504" stroke="red" />
<text x="400" y="520" font-family="Verdana" font-size="8" text-anchor="middle"  dominant-baseline="middle" fill="black" > 493</text>
<text x="550" y="7" font-family="Verdana" font-size="7" text-anchor="middle"  dominant-baseline="middle" fill="black" > C3</text>
<circle cx="550" cy="15" r="4" fill="white" stroke="black" />
<line x1="550" y1="19" x2="550" y2="533" stroke="black" />
<line x1="546" y1="537" x2="550" y2="529" stroke="blue" />
<line x1="550" y1="537" x2="554" y2="529" stroke="blue" />
<text x="550" y="545" font-family="Verdana" font-size="8" text-anchor="middle"  dominant-baseline="middle" fill="black" > 518</text>
<text x="650" y="7" font-family="Verdana" font-size="7" text-anchor="middle"  dominant-baseline="middle" fill="black" > C4</text>
<circle cx="650" cy="15" r="4" fill="white" stroke="black" />
<line x1="650" y1="19" x2="650" y2="530" stroke="black" />
<line x1="646" y1="534" x2="650" y2="526" stroke="blue" />
<line x1="650" y1="534" x2="654" y2="526" stroke="blue" />
<text x="650" y="542" font-family="Verdana" font-size="8" text-anchor="middle"  dominant-baseline="middle" fill="black" > 515</text>
<text x="750" y="7" font-family="Verdana" font-size="7" text-anchor="middle"  dominant-baseline="middle" fill="black" > C5</text>
<circle cx="750" cy="15" r="4" fill="white" stroke="black" />
<line x1="750" y1="19" x2="750" y2="461" stroke="black" />
<line x1="746" y1="457" x2="754" y2="465" stroke="red" />
<line x1="746" y1="465" x2="754" y2="457" stroke="red" />
<text x="750" y="473" font-family="Verdana" font-size="8" text-anchor="middle"  dominant-baseline="middle" fill="black" > 446</text>
<text x="850" y="7" font-family="Verdana" font-size="7" text-anchor="middle"  dominant-baseline="middle" fill="black" > C6</text>
<circle cx="850" cy="15" r="4" fill="white" stroke="black" />
<line x1="850" y1="19" x2="850" y2="325" stroke="black" />
<line x1="846" y1="321" x2="854" y2="329" stroke="red" />
<line x1="846" y1="329" x2="854" y2="321" stroke="red" />
<text x="850" y="337" font-family="Verdana" font-size="8" text-anchor="middle"  dominant-baseline="middle" fill="black" > 310</text>
<text x="950" y="7" font-family="Verdana" font-size="7" text-anchor="middle"  dominant-baseline="middle" fill="black" > C7</text>
<circle cx="950" cy="15" r="4" fill="white" stroke="black" />
<line x1="950" y1="19" x2="950" y2="222" stroke="black" />
<line x1="946" y1="226" x2="950" y2="218" stroke="blue" />
<line x1="950" y1="226" x2="954" y2="218" stroke="blue" />
<text x="950" y="234" font-family="Verdana" font-size="8" text-anchor="middle"  dominant-baseline="middle" fill="black" > 207</text>
</svg>
