<?xml version="1.0" encoding="utf-8"?>
<svg xmlns="http://www.w3.org/2000/svg" version="1.1" width="2350" height="750">
<rect width="2350" height="15" x="0" y="0" fill="white" />
<rect width="2350" height="15" x="0" y="735" fill="white" />
<rect width="25" height="750" x="0" y="0" fill="white" />
<rect width="25" height="750" x="2325" y="0" fill="white" />
<rect width="2310" height="144" x="25" y="15" fill="ghostwhite" />
<rect width="2310" height="144" x="25" y="159" fill="snow" />
<rect width="2310" height="144" x="25" y="303" fill="ghostwhite" />
<rect width="2310" height="144" x="25" y="447" fill="snow" />
<rect width="2310" height="144" x="25" y="591" fill="ghostwhite" />
<text x="12" y="87" font-family="Verdana" font-size="10" text-anchor="middle"  dominant-baseline="middle" fill="red" > D0</text>
<text x="12" y="231" font-family="Verdana" font-size="10" text-anchor="middle"  dominant-baseline="middle" fill="red" > D1</text>
<text x="12" y="375" font-family="Verdana" font-size="10" text-anchor="middle"  dominant-baseline="middle" fill="red" > D2</text>
<text x="12" y="519" font-family="Verdana" font-size="10" text-anchor="middle"  dominant-baseline="middle" fill="red" > D3</text>
<text x="12" y="663" font-family="Verdana" font-size="10" text-anchor="middle"  dominant-baseline="middle" fill="red" > D4</text>
<text x="12" y="20" font-family="Verdana" font-size="10" text-anchor="middle"  dominant-baseline="middle" fill="black" > 0</text>
<text x="12" y="164" font-family="Verdana" font-size="10" text-anchor="middle"  dominant-baseline="middle" fill="black" > 144</text>
<text x="12" y="308" font-family="Verdana" font-size="10" text-anchor="middle"  dominant-baseline="middle" fill="black" > 288</text>
<text x="12" y="452" font-family="Verdana" font-size="10" text-anchor="middle"  dominant-baseline="middle" fill="black" > 432</text>
<text x="12" y="596" font-family="Verdana" font-size="10" text-anchor="middle"  dominant-baseline="middle" fill="black" > 576</text>
<text x="12" y="740" font-family="Verdana" font-size="10" text-anchor="middle"  dominant-baseline="middle" fill="black" > 720</text>
<text x="150" y="7" font-family="Verdana" font-size="7" text-anchor="middle"  dominant-baseline="middle" fill="black" > C1</text>
<circle cx="150" cy="15" r="4" fill="white" stroke="black" />
<line x1="150" y1="19" x2="150" y2="335" stroke="black" />
<line x1="50" y1="335" x2="250" y2="335" stroke="black" />
<text x="175" y="327" font-family="Verdana" font-size="8" text-anchor="middle"  dominant-baseline="middle" fill="black" > 320</text>
<circle cx="50" cy="335" r="4" fill="white" stroke="black" />
<circle cx="150" cy="335" r="4" fill="white" stroke="black" />
<line x1="50" y1="339" x2="50" y2="351" stroke="black" />
<line x1="50" y1="351" x2="100" y2="356" stroke="black" />
<line x1="150" y1="339" x2="150" y2="351" stroke="black" />
<line x1="150" y1="351" x2="100" y2="356" stroke="black" />
<text x="100" y="344" font-family="Verdana" font-size="8" text-anchor="middle"  dominant-baseline="middle" fill="black" > 341</text>
<circle cx="100" cy="356" r="4" fill="white" stroke="black" />
<circle cx="250" cy="335" r="4" fill="white" stroke="black" />
<line x1="100" y1="360" x2="100" y2="362" stroke="black" />
<line x1="100" y1="362" x2="175" y2="363" stroke="black" />
<line x1="250" y1="339" x2="250" y2="362" stroke="black" />
<line x1="250" y1="362" x2="175" y2="363" stroke="black" />
<text x="175" y="351" font-family="Verdana" font-size="8" text-anchor="middle"  dominant-baseline="middle" fill="black" > 348</text>
<circle cx="175" cy="363" r="4" fill="white" stroke="black" />
<line x1="175" y1="367" x2="175" y2="392" stroke="black" />
<line x1="171" y1="388" x2="179" y2="396" stroke="red" />
<line x1="171" y1="396" x2="179" y2="388" stroke="red" />
<text x="175" y="404" font-family="Verdana" font-size="8" text-anchor="middle"  dominant-baseline="middle" fill="black" > 377</text>
<text x="450" y="7" font-family="Verdana" font-size="7" text-anchor="middle"  dominant-baseline="middle" fill="black" > C2</text>
<circle cx="450" cy="15" r="4" fill="white" stroke="black" />
<line x1="450" y1="19" x2="450" y2="350" stroke="black" />
<line x1="350" y1="350" x2="550" y2="350" stroke="black" />
<text x="475" y="342" font-family="Verdana" font-size="8" text-anchor="middle"  dominant-baseline="middle" fill="black" > 335</text>
<circle cx="350" cy="350" r="4" fill="white" stroke="black" />
<circle cx="450" cy="350" r="4" fill="white" stroke="black" />
<line x1="350" y1="354" x2="350" y2="365" stroke="black" />
<line x1="350" y1="365" x2="400" y2="369" stroke="black" />
<line x1="450" y1="354" x2="450" y2="365" stroke="black" />
<line x1="450" y1="365" x2="400" y2="369" stroke="black" />
<text x="400" y="357" font-family="Verdana" font-size="8" text-anchor="middle"  dominant-baseline="middle" fill="black" > 354</text>
<circle cx="400" cy="369" r="4" fill="white" stroke="black" />
<circle cx="550" cy="350" r="4" fill="white" stroke="black" />
<line x1="400" y1="373" x2="400" y2="378" stroke="black" />
<line x1="400" y1="378" x2="475" y2="380" stroke="black" />
<line x1="550" y1="354" x2="550" y2="378" stroke="black" />
<line x1="550" y1="378" x2="475" y2="380" stroke="black" />
<text x="475" y="368" font-family="Verdana" font-size="8" text-anchor="middle"  dominant-baseline="middle" fill="black" > 365</text>
<circle cx="475" cy="380" r="4" fill="white" stroke="black" />
<line x1="475" y1="384" x2="475" y2="449" stroke="black" />
<line x1="471" y1="445" x2="479" y2="453" stroke="red" />
<line x1="471" y1="453" x2="479" y2="445" stroke="red" />
<text x="475" y="461" font-family="Verdana" font-size="8" text-anchor="middle"  dominant-baseline="middle" fill="black" > 434</text>
<text x="650" y="7" font-family="Verdana" font-size="7" text-anchor="middle"  dominant-baseline="middle" fill="black" > C3</text>
<circle cx="650" cy="15" r="4" fill="white" stroke="black" />
<line x1="650" y1="19" x2="650" y2="736" stroke="black" />
<circle cx="650" cy="736" r="4" fill="white" stroke="black" />
<text x="650" y="748" font-family="Verdana" font-size="8" text-anchor="middle"  dominant-baseline="middle" fill="black" > 721</text>
<text x="800" y="7" font-family="Verdana" font-size="7" text-anchor="middle"  dominant-baseline="middle" fill="black" > C4</text>
<circle cx="800" cy="15" r="4" fill="white" stroke="black" />
<line x1="800" y1="19" x2="800" y2="224" stroke="black" />
<line x1="750" y1="224" x2="850" y2="224" stroke="black" />
<text x="825" y="216" font-family="Verdana" font-size="8" text-anchor="middle"  dominant-baseline="middle" fill="black" > 209</text>
<circle cx="750" cy="224" r="4" fill="white" stroke="black" />
<circle cx="850" cy="224" r="4" fill="white" stroke="black" />
<line x1="750" y1="228" x2="750" y2="450" stroke="black" />
<line x1="750" y1="450" x2="800" y2="525" stroke="black" />
<line x1="850" y1="228" x2="850" y2="450" stroke="black" />
<line x1="850" y1="450" x2="800" y2="525" stroke="black" />
<text x="800" y="513" font-family="Verdana" font-size="8" text-anchor="middle"  dominant-baseline="middle" fill="black" > 510</text>
<circle cx="800" cy="525" r="4" fill="white" stroke="black" />
<line x1="800" y1="529" x2="800" y2="736" stroke="black" />
<circle cx="800" cy="736" r="4" fill="white" stroke="black" />
<text x="800" y="748" font-family="Verdana" font-size="8" text-anchor="middle"  dominant-baseline="middle" fill="black" > 721</text>
<text x="950" y="7" font-family="Verdana" font-size="7" text-anchor="middle"  dominant-baseline="middle" fill="black" > C5</text>
<circle cx="950" cy="15" r="4" fill="white" stroke="black" />
<line x1="950" y1="19" x2="950" y2="718" stroke="black" />
<line x1="946" y1="722" x2="950" y2="714" stroke="blue" />
<line x1="950" y1="722" x2="954" y2="714" stroke="blue" />
<text x="950" y="730" font-family="Verdana" font-size="8" text-anchor="middle"  dominant-baseline="middle" fill="black" > 703</text>
<text x="1100" y="7" font-family="Verdana" font-size="7" text-anchor="middle"  dominant-baseline="middle" fill="black" > C6</text>
<circle cx="1100" cy="15" r="4" fill="white" stroke="black" />
<line x1="1100" y1="19" x2="1100" y2="182" stroke="black" />
<line x1="1050" y1="182" x2="1150" y2="182" stroke="black" />
<text x="1125" y="174" font-family="Verdana" font-size="8" text-anchor="middle"  dominant-baseline="middle" fill="black" > 167</text>
<circle cx="1050" cy="182" r="4" fill="white" stroke="black" />
<circle cx="1150" cy="182" r="4" fill="white" stroke="black" />
<line x1="1050" y1="186" x2="1050" y2="307" stroke="black" />
<line x1="1050" y1="307" x2="1100" y2="348" stroke="black" />
<line x1="1150" y1="186" x2="1150" y2="307" stroke="black" />
<line x1="1150" y1="307" x2="1100" y2="348" stroke="black" />
<text x="1100" y="336" font-family="Verdana" font-size="8" text-anchor="middle"  dominant-baseline="middle" fill="black" > 333</text>
<circle cx="1100" cy="348" r="4" fill="white" stroke="black" />
<line x1="1100" y1="352" x2="1100" y2="472" stroke="black" />
<line x1="1058" y1="472" x2="1142" y2="472" stroke="black" />
<text x="1104" y="464" font-family="Verdana" font-size="8" text-anchor="middle"  dominant-baseline="middle" fill="black" > 457</text>
<circle cx="1058" cy="472" r="4" fill="white" stroke="black" />
<circle cx="1074" cy="472" r="4" fill="white" stroke="black" />
<circle cx="1090" cy="472" r="4" fill="white" stroke="black" />
<circle cx="1106" cy="472" r="4" fill="white" stroke="black" />
<line x1="1058" y1="476" x2="1058" y2="509" stroke="black" />
<line x1="1058" y1="509" x2="1082" y2="521" stroke="black" />
<line x1="1074" y1="476" x2="1074" y2="509" stroke="black" />
<line x1="1074" y1="509" x2="1082" y2="521" stroke="black" />
<line x1="1090" y1="476" x2="1090" y2="509" stroke="black" />
<line x1="1090" y1="509" x2="1082" y2="521" stroke="black" />
<line x1="1106" y1="476" x2="1106" y2="509" stroke="black" />
<line x1="1106" y1="509" x2="1082" y2="521" stroke="black" />
<text x="1082" y="509" font-family="Verdana" font-size="8" text-anchor="middle"  dominant-baseline="middle" fill="black" > 506</text>
<circle cx="1082" cy="521" r="4" fill="white" stroke="black" />
<line x1="1082" y1="525" x2="1082" y2="736" stroke="black" />
<line x1="1078" y1="732" x2="1086" y2="740" stroke="red" />
<line x1="1078" y1="740" x2="1086" y2="732" stroke="red" />
<text x="1082" y="748" font-family="Verdana" font-size="8" text-anchor="middle"  dominant-baseline="middle" fill="black" > 721</text>
<circle cx="1122" cy="472" r="4" fill="white" stroke="black" />
<line x1="1122" y1="476" x2="1122" y2="672" stroke="black" />
<line x1="1118" y1="668" x2="1126" y2="676" stroke="red" />
<line x1="1118" y1="676" x2="1126" y2="668" stroke="red" />
<text x="1122" y="684" font-family="Verdana" font-size="8" text-anchor="middle"  dominant-baseline="middle" fill="black" > 657</text>
<circle cx="1138" cy="472" r="4" fill="white" stroke="black" />
<line x1="1138" y1="476" x2="1138" y2="660" stroke="black" />
<line x1="1134" y1="656" x2="1142" y2="664" stroke="red" />
<line x1="1134" y1="664" x2="1142" y2="656" stroke="red" />
<text x="1138" y="672" font-family="Verdana" font-size="8" text-anchor="middle"  dominant-baseline="middle" fill="black" > 645</text>
<text x="1300" y="7" font-family="Verdana" font-size="7" text-anchor="middle"  dominant-baseline="middle" fill="black" > C7</text>
<circle cx="1300" cy="15" r="4" fill="white" stroke="black" />
<line x1="1300" y1="19" x2="1300" y2="217" stroke="black" />
<line x1="1250" y1="217" x2="1350" y2="217" stroke="black" />
<text x="1325" y="209" font-family="Verdana" font-size="8" text-anchor="middle"  dominant-baseline="middle" fill="black" > 202</text>
<circle cx="1250" cy="217" r="4" fill="white" stroke="black" />
<line x1="1250" y1="221" x2="1250" y2="625" stroke="black" />
<line x1="1246" y1="621" x2="1254" y2="629" stroke="red" />
<line x1="1246" y1="629" x2="1254" y2="621" stroke="red" />
<text x="1250" y="637" font-family="Verdana" font-size="8" text-anchor="middle"  dominant-baseline="middle" fill="black" > 610</text>
<circle cx="1350" cy="217" r="4" fill="white" stroke="black" />
<line x1="1350" y1="221" x2="1350" y2="686" stroke="black" />
<line x1="1346" y1="682" x2="1354" y2="690" stroke="red" />
<line x1="1346" y1="690" x2="1354" y2="682" stroke="red" />
<text x="1350" y="698" font-family="Verdana" font-size="8" text-anchor="middle"  dominant-baseline="middle" fill="black" > 671</text>
<text x="1550" y="7" font-family="Verdana" font-size="7" text-anchor="middle"  dominant-baseline="middle" fill="black" > C8</text>
<circle cx="1550" cy="15" r="4" fill="white" stroke="black" />
<line x1="1550" y1="19" x2="1550" y2="332" stroke="black" />
<line x1="1450" y1="332" x2="1650" y2="332" stroke="black" />
<text x="1575" y="324" font-family="Verdana" font-size="8" text-anchor="middle"  dominant-baseline="middle" fill="black" > 317</text>
<circle cx="1450" cy="332" r="4" fill="white" stroke="black" />
<circle cx="1550" cy="332" r="4" fill="white" stroke="black" />
<line x1="1450" y1="336" x2="1450" y2="410" stroke="black" />
<line x1="1450" y1="410" x2="1500" y2="436" stroke="black" />
<line x1="1550" y1="336" x2="1550" y2="410" stroke="black" />
<line x1="1550" y1="410" x2="1500" y2="436" stroke="black" />
<text x="1500" y="424" font-family="Verdana" font-size="8" text-anchor="middle"  dominant-baseline="middle" fill="black" > 421</text>
<circle cx="1500" cy="436" r="4" fill="white" stroke="black" />
<circle cx="1650" cy="332" r="4" fill="white" stroke="black" />
<line x1="1500" y1="440" x2="1500" y2="441" stroke="black" />
<line x1="1500" y1="441" x2="1575" y2="442" stroke="black" />
<line x1="1650" y1="336" x2="1650" y2="441" stroke="black" />
<line x1="1650" y1="441" x2="1575" y2="442" stroke="black" />
<text x="1575" y="430" font-family="Verdana" font-size="8" text-anchor="middle"  dominant-baseline="middle" fill="black" > 427</text>
<circle cx="1575" cy="442" r="4" fill="white" stroke="black" />
<line x1="1575" y1="446" x2="1575" y2="644" stroke="black" />
<line x1="1571" y1="640" x2="1579" y2="648" stroke="red" />
<line x1="1571" y1="648" x2="1579" y2="640" stroke="red" />
<text x="1575" y="656" font-family="Verdana" font-size="8" text-anchor="middle"  dominant-baseline="middle" fill="black" > 629</text>
<text x="1900" y="7" font-family="Verdana" font-size="7" text-anchor="middle"  dominant-baseline="middle" fill="black" > C9</text>
<circle cx="1900" cy="15" r="4" fill="white" stroke="black" />
<line x1="1900" y1="19" x2="1900" y2="330" stroke="black" />
<line x1="1750" y1="330" x2="2050" y2="330" stroke="black" />
<text x="1925" y="322" font-family="Verdana" font-size="8" text-anchor="middle"  dominant-baseline="middle" fill="black" > 315</text>
<circle cx="1750" cy="330" r="4" fill="white" stroke="black" />
<line x1="1750" y1="334" x2="1750" y2="422" stroke="black" />
<line x1="1746" y1="418" x2="1754" y2="426" stroke="red" />
<line x1="1746" y1="426" x2="1754" y2="418" stroke="red" />
<text x="1750" y="434" font-family="Verdana" font-size="8" text-anchor="middle"  dominant-baseline="middle" fill="black" > 407</text>
<circle cx="1850" cy="330" r="4" fill="white" stroke="black" />
<circle cx="1950" cy="330" r="4" fill="white" stroke="black" />
<line x1="1850" y1="334" x2="1850" y2="339" stroke="black" />
<line x1="1850" y1="339" x2="1900" y2="341" stroke="black" />
<line x1="1950" y1="334" x2="1950" y2="339" stroke="black" />
<line x1="1950" y1="339" x2="1900" y2="341" stroke="black" />
<text x="1900" y="329" font-family="Verdana" font-size="8" text-anchor="middle"  dominant-baseline="middle" fill="black" > 326</text>
<circle cx="1900" cy="341" r="4" fill="white" stroke="black" />
<circle cx="2050" cy="330" r="4" fill="white" stroke="black" />
<line x1="1900" y1="345" x2="1900" y2="343" stroke="black" />
<line x1="1900" y1="343" x2="1975" y2="343" stroke="black" />
<line x1="2050" y1="334" x2="2050" y2="343" stroke="black" />
<line x1="2050" y1="343" x2="1975" y2="343" stroke="black" />
<text x="1975" y="331" font-family="Verdana" font-size="8" text-anchor="middle"  dominant-baseline="middle" fill="black" > 328</text>
<circle cx="1975" cy="343" r="4" fill="white" stroke="black" />
<line x1="1975" y1="347" x2="1975" y2="483" stroke="black" />
<line x1="1971" y1="479" x2="1979" y2="487" stroke="red" />
<line x1="1971" y1="487" x2="1979" y2="479" stroke="red" />
<text x="1975" y="495" font-family="Verdana" font-size="8" text-anchor="middle"  dominant-baseline="middle" fill="black" > 468</text>
<text x="2200" y="7" font-family="Verdana" font-size="7" text-anchor="middle"  dominant-baseline="middle" fill="black" > C10</text>
<circle cx="2200" cy="15" r="4" fill="white" stroke="black" />
<line x1="2200" y1="19" x2="2200" y2="18" stroke="black" />
<line x1="2150" y1="18" x2="2250" y2="18" stroke="black" />
<text x="2225" y="10" font-family="Verdana" font-size="8" text-anchor="middle"  dominant-baseline="middle" fill="black" > 3</text>
<circle cx="2150" cy="18" r="4" fill="white" stroke="black" />
<line x1="2150" y1="22" x2="2150" y2="300" stroke="black" />
<line x1="2146" y1="304" x2="2150" y2="296" stroke="blue" />
<line x1="2150" y1="304" x2="2154" y2="296" stroke="blue" />
<text x="2150" y="312" font-family="Verdana" font-size="8" text-anchor="middle"  dominant-baseline="middle" fill="black" > 285</text>
<circle cx="2250" cy="18" r="4" fill="white" stroke="black" />
<line x1="2250" y1="22" x2="2250" y2="226" stroke="black" />
<line x1="2246" y1="230" x2="2250" y2="222" stroke="blue" />
<line x1="2250" y1="230" x2="2254" y2="222" stroke="blue" />
<text x="2250" y="238" font-family="Verdana" font-size="8" text-anchor="middle"  dominant-baseline="middle" fill="black" > 211</text>
</svg>
