<?xml version="1.0" encoding="utf-8"?>
<svg xmlns="http://www.w3.org/2000/svg" version="1.1" width="1050" height="750">
<rect width="1050" height="15" x="0" y="0" fill="white" />
<rect width="1050" height="15" x="0" y="735" fill="white" />
<rect width="25" height="750" x="0" y="0" fill="white" />
<rect width="25" height="750" x="1025" y="0" fill="white" />
<rect width="1010" height="144" x="25" y="15" fill="ghostwhite" />
<rect width="1010" height="144" x="25" y="159" fill="snow" />
<rect width="1010" height="144" x="25" y="303" fill="ghostwhite" />
<rect width="1010" height="144" x="25" y="447" fill="snow" />
<rect width="1010" height="144" x="25" y="591" fill="ghostwhite" />
<text x="12" y="87" font-family="Verdana" font-size="10" text-anchor="middle"  dominant-baseline="middle" fill="red" > D0</text>
<text x="12" y="231" font-family="Verdana" font-size="10" text-anchor="middle"  dominant-baseline="middle" fill="red" > D1</text>
<text x="12" y="375" font-family="Verdana" font-size="10" text-anchor="middle"  dominant-baseline="middle" fill="red" > D2</text>
<text x="12" y="519" font-family="Verdana" font-size="10" text-anchor="middle"  dominant-baseline="middle" fill="red" > D3</text>
<text x="12" y="663" font-family="Verdana" font-size="10" text-anchor="middle"  dominant-baseline="middle" fill="red" > D4</text>
<text x="12" y="20" font-family="Verdana" font-size="10" text-anchor="middle"  dominant-baseline="middle" fill="black" > 0</text>
<text x="12" y="164" font-family="Verdana" font-size="10" text-anchor="middle"  dominant-baseline="middle" fill="black" > 144</text>
<text x="12" y="308" font-family="Verdana" font-size="10" text-anchor="middle"  dominant-baseline="middle" fill="black" > 288</text>
<text x="12" y="452" font-family="Verdana" font-size="10" text-anchor="middle"  dominant-baseline="middle" fill="black" > 432</text>
<text x="12" y="596" font-family="Verdana" font-size="10" text-anchor="middle"  dominant-baseline="middle" fill="black" > 576</text>
<text x="12" y="740" font-family="Verdana" font-size="10" text-anchor="middle"  dominant-baseline="middle" fill="black" > 720</text>
<text x="50" y="7" font-family="Verdana" font-size="7" text-anchor="middle"  dominant-baseline="middle" fill="black" > C1</text>
<circle cx="50" cy="15" r="4" fill="white" stroke="black" />
<line x1="50" y1="19" x2="50" y2="281" stroke="black" />
<line x1="46" y1="285" x2="50" y2="277" stroke="blue" />
<line x1="50" y1="285" x2="54" y2="277" stroke="blue" />
<text x="50" y="293" font-family="Verdana" font-size="8" text-anchor="middle"  dominant-baseline="middle" fill="black" > 266</text>
<text x="200" y="7" font-family="Verdana" font-size="7" text-anchor="middle"  dominant-baseline="middle" fill="black" > C2</text>
<circle cx="200" cy="15" r="4" fill="white" stroke="black" />
<line x1="200" y1="19" x2="200" y2="210" stroke="black" />
<line x1="150" y1="210" x2="250" y2="210" stroke="black" />
<text x="225" y="202" font-family="Verdana" font-size="8" text-anchor="middle"  dominant-baseline="middle" fill="black" > 195</text>
<circle cx="150" cy="210" r="4" fill="white" stroke="black" />
<line x1="150" y1="214" x2="150" y2="736" stroke="black" />
<circle cx="150" cy="736" r="4" fill="white" stroke="black" />
<text x="150" y="748" font-family="Verdana" font-size="8" text-anchor="middle"  dominant-baseline="middle" fill="black" > 721</text>
<circle cx="250" cy="210" r="4" fill="white" stroke="black" />
<line x1="250" y1="214" x2="250" y2="598" stroke="black" />
<line x1="225" y1="598" x2="275" y2="598" stroke="black" />
<text x="262" y="590" font-family="Verdana" font-size="8" text-anchor="middle"  dominant-baseline="middle" fill="black" > 583</text>
<circle cx="225" cy="598" r="4" fill="white" stroke="black" />
<circle cx="275" cy="598" r="4" fill="white" stroke="black" />
<line x1="225" y1="602" x2="225" y2="617" stroke="black" />
<line x1="225" y1="617" x2="250" y2="623" stroke="black" />
<line x1="275" y1="602" x2="275" y2="617" stroke="black" />
<line x1="275" y1="617" x2="250" y2="623" stroke="black" />
<text x="250" y="611" font-family="Verdana" font-size="8" text-anchor="middle"  dominant-baseline="middle" fill="black" > 608</text>
<circle cx="250" cy="623" r="4" fill="white" stroke="black" />
<line x1="250" y1="627" x2="250" y2="731" stroke="black" />
<line x1="246" y1="727" x2="254" y2="735" stroke="red" />
<line x1="246" y1="735" x2="254" y2="727" stroke="red" />
<text x="250" y="743" font-family="Verdana" font-size="8" text-anchor="middle"  dominant-baseline="middle" fill="black" > 716</text>
<text x="350" y="7" font-family="Verdana" font-size="7" text-anchor="middle"  dominant-baseline="middle" fill="black" > C3</text>
<circle cx="350" cy="15" r="4" fill="white" stroke="black" />
<line x1="350" y1="19" x2="350" y2="481" stroke="black" />
<line x1="346" y1="477" x2="354" y2="485" stroke="red" />
<line x1="346" y1="485" x2="354" y2="477" stroke="red" />
<text x="350" y="493" font-family="Verdana" font-size="8" text-anchor="middle"  dominant-baseline="middle" fill="black" > 466</text>
<text x="450" y="7" font-family="Verdana" font-size="7" text-anchor="middle"  dominant-baseline="middle" fill="black" > C4</text>
<circle cx="450" cy="15" r="4" fill="white" stroke="black" />
<line x1="450" y1="19" x2="450" y2="533" stroke="black" />
<line x1="446" y1="529" x2="454" y2="537" stroke="red" />
<line x1="446" y1="537" x2="454" y2="529" stroke="red" />
<text x="450" y="545" font-family="Verdana" font-size="8" text-anchor="middle"  dominant-baseline="middle" fill="black" > 518</text>
<text x="600" y="7" font-family="Verdana" font-size="7" text-anchor="middle"  dominant-baseline="middle" fill="black" > C5</text>
<circle cx="600" cy="15" r="4" fill="white" stroke="black" />
<line x1="600" y1="19" x2="600" y2="145" stroke="black" />
<line x1="550" y1="145" x2="650" y2="145" stroke="black" />
<text x="625" y="137" font-family="Verdana" font-size="8" text-anchor="middle"  dominant-baseline="middle" fill="black" > 130</text>
<circle cx="550" cy="145" r="4" fill="white" stroke="black" />
<line x1="550" y1="149" x2="550" y2="482" stroke="black" />
<line x1="546" y1="478" x2="554" y2="486" stroke="red" />
<line x1="546" y1="486" x2="554" y2="478" stroke="red" />
<text x="550" y="494" font-family="Verdana" font-size="8" text-anchor="middle"  dominant-baseline="middle" fill="black" > 467</text>
<circle cx="650" cy="145" r="4" fill="white" stroke="black" />
<line x1="650" y1="149" x2="650" y2="302" stroke="black" />
<line x1="616" y1="302" x2="684" y2="302" stroke="black" />
<text x="658" y="294" font-family="Verdana" font-size="8" text-anchor="middle"  dominant-baseline="middle" fill="black" > 287</text>
<circle cx="616" cy="302" r="4" fill="white" stroke="black" />
<line x1="616" y1="306" x2="616" y2="736" stroke="black" />
<circle cx="616" cy="736" r="4" fill="white" stroke="black" />
<text x="616" y="748" font-family="Verdana" font-size="8" text-anchor="middle"  dominant-baseline="middle" fill="black" > 721</text>
<circle cx="649" cy="302" r="4" fill="white" stroke="black" />
<line x1="649" y1="306" x2="649" y2="736" stroke="black" />
<circle cx="649" cy="736" r="4" fill="white" stroke="black" />
<text x="649" y="748" font-family="Verdana" font-size="8" text-anchor="middle"  dominant-baseline="middle" fill="black" > 721</text>
<circle cx="682" cy="302" r="4" fill="white" stroke="black" />
<line x1="682" y1="306" x2="682" y2="614" stroke="black" />
<line x1="678" y1="610" x2="686" y2="618" stroke="red" />
<line x1="678" y1="618" x2="686" y2="610" stroke="red" />
<text x="682" y="626" font-family="Verdana" font-size="8" text-anchor="middle"  dominant-baseline="middle" fill="black" > 599</text>
<text x="800" y="7" font-family="Verdana" font-size="7" text-anchor="middle"  dominant-baseline="middle" fill="black" > C6</text>
<circle cx="800" cy="15" r="4" fill="white" stroke="black" />
<line x1="800" y1="19" x2="800" y2="176" stroke="black" />
<line x1="750" y1="176" x2="850" y2="176" stroke="black" />
<text x="825" y="168" font-family="Verdana" font-size="8" text-anchor="middle"  dominant-baseline="middle" fill="black" > 161</text>
<circle cx="750" cy="176" r="4" fill="white" stroke="black" />
<line x1="750" y1="180" x2="750" y2="430" stroke="black" />
<line x1="746" y1="426" x2="754" y2="434" stroke="red" />
<line x1="746" y1="434" x2="754" y2="426" stroke="red" />
<text x="750" y="442" font-family="Verdana" font-size="8" text-anchor="middle"  dominant-baseline="middle" fill="black" > 415</text>
<circle cx="850" cy="176" r="4" fill="white" stroke="black" />
<line x1="850" y1="180" x2="850" y2="475" stroke="black" />
<line x1="816" y1="475" x2="884" y2="475" stroke="black" />
<text x="858" y="467" font-family="Verdana" font-size="8" text-anchor="middle"  dominant-baseline="middle" fill="black" > 460</text>
<circle cx="816" cy="475" r="4" fill="white" stroke="black" />
<circle cx="849" cy="475" r="4" fill="white" stroke="black" />
<circle cx="882" cy="475" r="4" fill="white" stroke="black" />
<line x1="816" y1="479" x2="816" y2="475" stroke="black" />
<line x1="816" y1="475" x2="849" y2="475" stroke="black" />
<line x1="849" y1="479" x2="849" y2="475" stroke="black" />
<line x1="849" y1="475" x2="849" y2="475" stroke="black" />
<line x1="882" y1="479" x2="882" y2="475" stroke="black" />
<line x1="882" y1="475" x2="849" y2="475" stroke="black" />
<text x="849" y="463" font-family="Verdana" font-size="8" text-anchor="middle"  dominant-baseline="middle" fill="black" > 460</text>
<circle cx="849" cy="475" r="4" fill="white" stroke="black" />
<line x1="849" y1="479" x2="849" y2="675" stroke="black" />
<line x1="845" y1="671" x2="853" y2="679" stroke="red" />
<line x1="845" y1="679" x2="853" y2="671" stroke="red" />
<text x="849" y="687" font-family="Verdana" font-size="8" text-anchor="middle"  dominant-baseline="middle" fill="black" > 660</text>
<text x="950" y="7" font-family="Verdana" font-size="7" text-anchor="middle"  dominant-baseline="middle" fill="black" > C7</text>
<circle cx="950" cy="15" r="4" fill="white" stroke="black" />
<line x1="950" y1="19" x2="950" y2="354" stroke="black" />
<line x1="946" y1="350" x2="954" y2="358" stroke="red" />
<line x1="946" y1="358" x2="954" y2="350" stroke="red" />
<text x="950" y="366" font-family="Verdana" font-size="8" text-anchor="middle"  dominant-baseline="middle" fill="black" > 339</text>
</svg>
