<?xml version="1.0" encoding="utf-8"?>
<svg xmlns="http://www.w3.org/2000/svg" version="1.1" width="3750" height="750">
<rect width="3750" height="15" x="0" y="0" fill="white" />
<rect width="3750" height="15" x="0" y="735" fill="white" />
<rect width="25" height="750" x="0" y="0" fill="white" />
<rect width="25" height="750" x="3725" y="0" fill="white" />
<rect width="3710" height="144" x="25" y="15" fill="ghostwhite" />
<rect width="3710" height="144" x="25" y="159" fill="snow" />
<rect width="3710" height="144" x="25" y="303" fill="ghostwhite" />
<rect width="3710" height="144" x="25" y="447" fill="snow" />
<rect width="3710" height="144" x="25" y="591" fill="ghostwhite" />
<text x="12" y="87" font-family="Verdana" font-size="10" text-anchor="middle"  dominant-baseline="middle" fill="red" > D0</text>
<text x="12" y="231" font-family="Verdana" font-size="10" text-anchor="middle"  dominant-baseline="middle" fill="red" > D1</text>
<text x="12" y="375" font-family="Verdana" font-size="10" text-anchor="middle"  dominant-baseline="middle" fill="red" > D2</text>
<text x="12" y="519" font-family="Verdana" font-size="10" text-anchor="middle"  dominant-baseline="middle" fill="red" > D3</text>
<text x="12" y="663" font-family="Verdana" font-size="10" text-anchor="middle"  dominant-baseline="middle" fill="red" > D4</text>
<text x="12" y="20" font-family="Verdana" font-size="10" text-anchor="middle"  dominant-baseline="middle" fill="black" > 0</text>
<text x="12" y="164" font-family="Verdana" font-size="10" text-anchor="middle"  dominant-baseline="middle" fill="black" > 144</text>
<text x="12" y="308" font-family="Verdana" font-size="10" text-anchor="middle"  dominant-baseline="middle" fill="black" > 288</text>
<text x="12" y="452" font-family="Verdana" font-size="10" text-anchor="middle"  dominant-baseline="middle" fill="black" > 432</text>
<text x="12" y="596" font-family="Verdana" font-size="10" text-anchor="middle"  dominant-baseline="middle" fill="black" > 576</text>
<text x="12" y="740" font-family="Verdana" font-size="10" text-anchor="middle"  dominant-baseline="middle" fill="black" > 720</text>
<text x="100" y="7" font-family="Verdana" font-size="7" text-anchor="middle"  dominant-baseline="middle" fill="black" > C1</text>
<circle cx="100" cy="15" r="4" fill="white" stroke="black" />
<line x1="100" y1="19" x2="100" y2="247" stroke="black" />
<line x1="50" y1="247" x2="150" y2="247" stroke="black" />
<text x="125" y="239" font-family="Verdana" font-size="8" text-anchor="middle"  dominant-baseline="middle" fill="black" > 232</text>
<circle cx="50" cy="247" r="4" fill="white" stroke="black" />
<circle cx="150" cy="247" r="4" fill="white" stroke="black" />
<line x1="50" y1="251" x2="50" y2="347" stroke="black" />
<line x1="50" y1="347" x2="100" y2="380" stroke="black" />
<line x1="150" y1="251" x2="150" y2="347" stroke="black" />
<line x1="150" y1="347" x2="100" y2="380" stroke="black" />
<text x="100" y="368" font-family="Verdana" font-size="8" text-anchor="middle"  dominant-baseline="middle" fill="black" > 365</text>
<circle cx="100" cy="380" r="4" fill="white" stroke="black" />
<line x1="100" y1="384" x2="100" y2="728" stroke="black" />
<line x1="96" y1="732" x2="100" y2="724" stroke="blue" />
<line x1="100" y1="732" x2="104" y2="724" stroke="blue" />
<text x="100" y="740" font-family="Verdana" font-size="8" text-anchor="middle"  dominant-baseline="middle" fill="black" > 713</text>
<text x="300" y="7" font-family="Verdana" font-size="7" text-anchor="middle"  dominant-baseline="middle" fill="black" > C2</text>
<circle cx="300" cy="15" r="4" fill="white" stroke="black" />
<line x1="300" y1="19" x2="300" y2="254" stroke="black" />
<line x1="250" y1="254" x2="350" y2="254" stroke="black" />
<text x="325" y="246" font-family="Verdana" font-size="8" text-anchor="middle"  dominant-baseline="middle" fill="black" > 239</text>
<circle cx="250" cy="254" r="4" fill="white" stroke="black" />
<circle cx="350" cy="254" r="4" fill="white" stroke="black" />
<line x1="250" y1="258" x2="250" y2="317" stroke="black" />
<line x1="250" y1="317" x2="300" y2="337" stroke="black" />
<line x1="350" y1="258" x2="350" y2="317" stroke="black" />
<line x1="350" y1="317" x2="300" y2="337" stroke="black" />
<text x="300" y="325" font-family="Verdana" font-size="8" text-anchor="middle"  dominant-baseline="middle" fill="black" > 322</text>
<circle cx="300" cy="337" r="4" fill="white" stroke="black" />
<line x1="300" y1="341" x2="300" y2="635" stroke="black" />
<line x1="296" y1="631" x2="304" y2="639" stroke="red" />
<line x1="296" y1="639" x2="304" y2="631" stroke="red" />
<text x="300" y="647" font-family="Verdana" font-size="8" text-anchor="middle"  dominant-baseline="middle" fill="black" > 620</text>
<text x="450" y="7" font-family="Verdana" font-size="7" text-anchor="middle"  dominant-baseline="middle" fill="black" > C3</text>
<circle cx="450" cy="15" r="4" fill="white" stroke="black" />
<line x1="450" y1="19" x2="450" y2="133" stroke="black" />
<line x1="446" y1="137" x2="450" y2="129" stroke="blue" />
<line x1="450" y1="137" x2="454" y2="129" stroke="blue" />
<text x="450" y="145" font-family="Verdana" font-size="8" text-anchor="middle"  dominant-baseline="middle" fill="black" > 118</text>
<text x="600" y="7" font-family="Verdana" font-size="7" text-anchor="middle"  dominant-baseline="middle" fill="black" > C4</text>
<circle cx="600" cy="15" r="4" fill="white" stroke="black" />
<line x1="600" y1="19" x2="600" y2="233" stroke="black" />
<line x1="550" y1="233" x2="650" y2="233" stroke="black" />
<text x="625" y="225" font-family="Verdana" font-size="8" text-anchor="middle"  dominant-baseline="middle" fill="black" > 218</text>
<circle cx="550" cy="233" r="4" fill="white" stroke="black" />
<line x1="550" y1="237" x2="550" y2="407" stroke="black" />
<line x1="525" y1="407" x2="575" y2="407" stroke="black" />
<text x="562" y="399" font-family="Verdana" font-size="8" text-anchor="middle"  dominant-baseline="middle" fill="black" > 392</text>
<circle cx="525" cy="407" r="4" fill="white" stroke="black" />
<line x1="525" y1="411" x2="525" y2="736" stroke="black" />
<circle cx="525" cy="736" r="4" fill="white" stroke="black" />
<text x="525" y="748" font-family="Verdana" font-size="8" text-anchor="middle"  dominant-baseline="middle" fill="black" > 721</text>
<circle cx="575" cy="407" r="4" fill="white" stroke="black" />
<line x1="575" y1="411" x2="575" y2="633" stroke="black" />
<line x1="571" y1="629" x2="579" y2="637" stroke="red" />
<line x1="571" y1="637" x2="579" y2="629" stroke="red" />
<text x="575" y="645" font-family="Verdana" font-size="8" text-anchor="middle"  dominant-baseline="middle" fill="black" > 618</text>
<circle cx="650" cy="233" r="4" fill="white" stroke="black" />
<line x1="650" y1="237" x2="650" y2="399" stroke="black" />
<line x1="625" y1="399" x2="675" y2="399" stroke="black" />
<text x="662" y="391" font-family="Verdana" font-size="8" text-anchor="middle"  dominant-baseline="middle" fill="black" > 384</text>
<circle cx="625" cy="399" r="4" fill="white" stroke="black" />
<line x1="625" y1="403" x2="625" y2="736" stroke="black" />
<circle cx="625" cy="736" r="4" fill="white" stroke="black" />
<text x="625" y="748" font-family="Verdana" font-size="8" text-anchor="middle"  dominant-baseline="middle" fill="black" > 721</text>
<circle cx="675" cy="399" r="4" fill="white" stroke="black" />
<line x1="675" y1="403" x2="675" y2="736" stroke="black" />
<circle cx="675" cy="736" r="4" fill="white" stroke="black" />
<text x="675" y="748" font-family="Verdana" font-size="8" text-anchor="middle"  dominant-baseline="middle" fill="black" > 721</text>
<text x="850" y="7" font-family="Verdana" font-size="7" text-anchor="middle"  dominant-baseline="middle" fill="black" > C5</text>
<circle cx="850" cy="15" r="4" fill="white" stroke="black" />
<line x1="850" y1="19" x2="850" y2="315" stroke="black" />
<line x1="750" y1="315" x2="950" y2="315" stroke="black" />
<text x="875" y="307" font-family="Verdana" font-size="8" text-anchor="middle"  dominant-baseline="middle" fill="black" > 300</text>
<circle cx="750" cy="315" r="4" fill="white" stroke="black" />
<circle cx="850" cy="315" r="4" fill="white" stroke="black" />
<line x1="750" y1="319" x2="750" y2="340" stroke="black" />
<line x1="750" y1="340" x2="800" y2="348" stroke="black" />
<line x1="850" y1="319" x2="850" y2="340" stroke="black" />
<line x1="850" y1="340" x2="800" y2="348" stroke="black" />
<text x="800" y="336" font-family="Verdana" font-size="8" text-anchor="middle"  dominant-baseline="middle" fill="black" > 333</text>
<circle cx="800" cy="348" r="4" fill="white" stroke="black" />
<line x1="800" y1="352" x2="800" y2="527" stroke="black" />
<line x1="796" y1="523" x2="804" y2="531" stroke="red" />
<line x1="796" y1="531" x2="804" y2="523" stroke="red" />
<text x="800" y="539" font-family="Verdana" font-size="8" text-anchor="middle"  dominant-baseline="middle" fill="black" > 512</text>
<circle cx="950" cy="315" r="4" fill="white" stroke="black" />
<line x1="950" y1="319" x2="950" y2="610" stroke="black" />
<line x1="946" y1="606" x2="954" y2="614" stroke="red" />
<line x1="946" y1="614" x2="954" y2="606" stroke="red" />
<text x="950" y="622" font-family="Verdana" font-size="8" text-anchor="middle"  dominant-baseline="middle" fill="black" > 595</text>
<text x="1100" y="7" font-family="Verdana" font-size="7" text-anchor="middle"  dominant-baseline="middle" fill="black" > C6</text>
<circle cx="1100" cy="15" r="4" fill="white" stroke="black" />
<line x1="1100" y1="19" x2="1100" y2="204" stroke="black" />
<line x1="1050" y1="204" x2="1150" y2="204" stroke="black" />
<text x="1125" y="196" font-family="Verdana" font-size="8" text-anchor="middle"  dominant-baseline="middle" fill="black" > 189</text>
<circle cx="1050" cy="204" r="4" fill="white" stroke="black" />
<line x1="1050" y1="208" x2="1050" y2="327" stroke="black" />
<line x1="1046" y1="323" x2="1054" y2="331" stroke="red" />
<line x1="1046" y1="331" x2="1054" y2="323" stroke="red" />
<text x="1050" y="339" font-family="Verdana" font-size="8" text-anchor="middle"  dominant-baseline="middle" fill="black" > 312</text>
<circle cx="1150" cy="204" r="4" fill="white" stroke="black" />
<line x1="1150" y1="208" x2="1150" y2="445" stroke="black" />
<line x1="1125" y1="445" x2="1175" y2="445" stroke="black" />
<text x="1162" y="437" font-family="Verdana" font-size="8" text-anchor="middle"  dominant-baseline="middle" fill="black" > 430</text>
<circle cx="1125" cy="445" r="4" fill="white" stroke="black" />
<line x1="1125" y1="449" x2="1125" y2="659" stroke="black" />
<line x1="1112" y1="659" x2="1138" y2="659" stroke="black" />
<text x="1131" y="651" font-family="Verdana" font-size="8" text-anchor="middle"  dominant-baseline="middle" fill="black" > 644</text>
<circle cx="1112" cy="659" r="4" fill="white" stroke="black" />
<circle cx="1137" cy="659" r="4" fill="white" stroke="black" />
<line x1="1112" y1="663" x2="1112" y2="685" stroke="black" />
<line x1="1112" y1="685" x2="1124" y2="693" stroke="black" />
<line x1="1137" y1="663" x2="1137" y2="685" stroke="black" />
<line x1="1137" y1="685" x2="1124" y2="693" stroke="black" />
<text x="1124" y="681" font-family="Verdana" font-size="8" text-anchor="middle"  dominant-baseline="middle" fill="black" > 678</text>
<circle cx="1124" cy="693" r="4" fill="white" stroke="black" />
<line x1="1124" y1="697" x2="1124" y2="731" stroke="black" />
<line x1="1120" y1="727" x2="1128" y2="735" stroke="red" />
<line x1="1120" y1="735" x2="1128" y2="727" stroke="red" />
<text x="1124" y="743" font-family="Verdana" font-size="8" text-anchor="middle"  dominant-baseline="middle" fill="black" > 716</text>
<circle cx="1175" cy="445" r="4" fill="white" stroke="black" />
<line x1="1175" y1="449" x2="1175" y2="445" stroke="black" />
<line x1="1162" y1="445" x2="1188" y2="445" stroke="black" />
<text x="1181" y="437" font-family="Verdana" font-size="8" text-anchor="middle"  dominant-baseline="middle" fill="black" > 430</text>
<circle cx="1162" cy="445" r="4" fill="white" stroke="black" />
<line x1="1162" y1="449" x2="1162" y2="736" stroke="black" />
<circle cx="1162" cy="736" r="4" fill="white" stroke="black" />
<text x="1162" y="748" font-family="Verdana" font-size="8" text-anchor="middle"  dominant-baseline="middle" fill="black" > 721</text>
<circle cx="1187" cy="445" r="4" fill="white" stroke="black" />
<line x1="1187" y1="449" x2="1187" y2="736" stroke="black" />
<circle cx="1187" cy="736" r="4" fill="white" stroke="black" />
<text x="1187" y="748" font-family="Verdana" font-size="8" text-anchor="middle"  dominant-baseline="middle" fill="black" > 721</text>
<text x="1400" y="7" font-family="Verdana" font-size="7" text-anchor="middle"  dominant-baseline="middle" fill="black" > C7</text>
<circle cx="1400" cy="15" r="4" fill="white" stroke="black" />
<line x1="1400" y1="19" x2="1400" y2="468" stroke="black" />
<line x1="1250" y1="468" x2="1550" y2="468" stroke="black" />
<text x="1425" y="460" font-family="Verdana" font-size="8" text-anchor="middle"  dominant-baseline="middle" fill="black" > 453</text>
<circle cx="1250" cy="468" r="4" fill="white" stroke="black" />
<circle cx="1350" cy="468" r="4" fill="white" stroke="black" />
<line x1="1250" y1="472" x2="1250" y2="480" stroke="black" />
<line x1="1250" y1="480" x2="1300" y2="484" stroke="black" />
<line x1="1350" y1="472" x2="1350" y2="480" stroke="black" />
<line x1="1350" y1="480" x2="1300" y2="484" stroke="black" />
<text x="1300" y="472" font-family="Verdana" font-size="8" text-anchor="middle"  dominant-baseline="middle" fill="black" > 469</text>
<circle cx="1300" cy="484" r="4" fill="white" stroke="black" />
<circle cx="1450" cy="468" r="4" fill="white" stroke="black" />
<circle cx="1550" cy="468" r="4" fill="white" stroke="black" />
<line x1="1300" y1="488" x2="1300" y2="493" stroke="black" />
<line x1="1300" y1="493" x2="1425" y2="495" stroke="black" />
<line x1="1450" y1="472" x2="1450" y2="493" stroke="black" />
<line x1="1450" y1="493" x2="1425" y2="495" stroke="black" />
<line x1="1550" y1="472" x2="1550" y2="493" stroke="black" />
<line x1="1550" y1="493" x2="1425" y2="495" stroke="black" />
<text x="1425" y="483" font-family="Verdana" font-size="8" text-anchor="middle"  dominant-baseline="middle" fill="black" > 480</text>
<circle cx="1425" cy="495" r="4" fill="white" stroke="black" />
<text x="1750" y="7" font-family="Verdana" font-size="7" text-anchor="middle"  dominant-baseline="middle" fill="black" > C12</text>
<circle cx="1750" cy="15" r="4" fill="white" stroke="black" />
<line x1="1750" y1="19" x2="1750" y2="255" stroke="black" />
<line x1="1650" y1="255" x2="1850" y2="255" stroke="black" />
<text x="1775" y="247" font-family="Verdana" font-size="8" text-anchor="middle"  dominant-baseline="middle" fill="black" > 240</text>
<circle cx="1650" cy="255" r="4" fill="white" stroke="black" />
<line x1="1425" y1="499" x2="1425" y2="522" stroke="black" />
<line x1="1425" y1="522" x2="1537" y2="530" stroke="black" />
<line x1="1650" y1="259" x2="1650" y2="522" stroke="black" />
<line x1="1650" y1="522" x2="1537" y2="530" stroke="black" />
<text x="1537" y="518" font-family="Verdana" font-size="8" text-anchor="middle"  dominant-baseline="middle" fill="black" > 515</text>
<circle cx="1537" cy="530" r="4" fill="white" stroke="black" />
<line x1="1537" y1="534" x2="1537" y2="736" stroke="black" />
<circle cx="1537" cy="736" r="4" fill="white" stroke="black" />
<text x="1537" y="748" font-family="Verdana" font-size="8" text-anchor="middle"  dominant-baseline="middle" fill="black" > 721</text>
<circle cx="1750" cy="255" r="4" fill="white" stroke="black" />
<line x1="1750" y1="259" x2="1750" y2="495" stroke="black" />
<line x1="1746" y1="491" x2="1754" y2="499" stroke="red" />
<line x1="1746" y1="499" x2="1754" y2="491" stroke="red" />
<text x="1750" y="507" font-family="Verdana" font-size="8" text-anchor="middle"  dominant-baseline="middle" fill="black" > 480</text>
<circle cx="1850" cy="255" r="4" fill="white" stroke="black" />
<line x1="1850" y1="259" x2="1850" y2="600" stroke="black" />
<line x1="1846" y1="596" x2="1854" y2="604" stroke="red" />
<line x1="1846" y1="604" x2="1854" y2="596" stroke="red" />
<text x="1850" y="612" font-family="Verdana" font-size="8" text-anchor="middle"  dominant-baseline="middle" fill="black" > 585</text>
<text x="1950" y="7" font-family="Verdana" font-size="7" text-anchor="middle"  dominant-baseline="middle" fill="black" > C8</text>
<circle cx="1950" cy="15" r="4" fill="white" stroke="black" />
<line x1="1950" y1="19" x2="1950" y2="128" stroke="black" />
<line x1="1946" y1="132" x2="1950" y2="124" stroke="blue" />
<line x1="1950" y1="132" x2="1954" y2="124" stroke="blue" />
<text x="1950" y="140" font-family="Verdana" font-size="8" text-anchor="middle"  dominant-baseline="middle" fill="black" > 113</text>
<text x="2100" y="7" font-family="Verdana" font-size="7" text-anchor="middle"  dominant-baseline="middle" fill="black" > C9</text>
<circle cx="2100" cy="15" r="4" fill="white" stroke="black" />
<line x1="2100" y1="19" x2="2100" y2="246" stroke="black" />
<line x1="2050" y1="246" x2="2150" y2="246" stroke="black" />
<text x="2125" y="238" font-family="Verdana" font-size="8" text-anchor="middle"  dominant-baseline="middle" fill="black" > 231</text>
<circle cx="2050" cy="246" r="4" fill="white" stroke="black" />
<circle cx="2150" cy="246" r="4" fill="white" stroke="black" />
<line x1="2050" y1="250" x2="2050" y2="270" stroke="black" />
<line x1="2050" y1="270" x2="2100" y2="278" stroke="black" />
<line x1="2150" y1="250" x2="2150" y2="270" stroke="black" />
<line x1="2150" y1="270" x2="2100" y2="278" stroke="black" />
<text x="2100" y="266" font-family="Verdana" font-size="8" text-anchor="middle"  dominant-baseline="middle" fill="black" > 263</text>
<circle cx="2100" cy="278" r="4" fill="white" stroke="black" />
<line x1="2100" y1="282" x2="2100" y2="350" stroke="black" />
<line x1="2096" y1="346" x2="2104" y2="354" stroke="red" />
<line x1="2096" y1="354" x2="2104" y2="346" stroke="red" />
<text x="2100" y="362" font-family="Verdana" font-size="8" text-anchor="middle"  dominant-baseline="middle" fill="black" > 335</text>
<text x="2300" y="7" font-family="Verdana" font-size="7" text-anchor="middle"  dominant-baseline="middle" fill="black" > C10</text>
<circle cx="2300" cy="15" r="4" fill="white" stroke="black" />
<line x1="2300" y1="19" x2="2300" y2="380" stroke="black" />
<line x1="2250" y1="380" x2="2350" y2="380" stroke="black" />
<text x="2325" y="372" font-family="Verdana" font-size="8" text-anchor="middle"  dominant-baseline="middle" fill="black" > 365</text>
<circle cx="2250" cy="380" r="4" fill="white" stroke="black" />
<line x1="2250" y1="384" x2="2250" y2="736" stroke="black" />
<circle cx="2250" cy="736" r="4" fill="white" stroke="black" />
<text x="2250" y="748" font-family="Verdana" font-size="8" text-anchor="middle"  dominant-baseline="middle" fill="black" > 721</text>
<circle cx="2350" cy="380" r="4" fill="white" stroke="black" />
<line x1="2350" y1="384" x2="2350" y2="736" stroke="black" />
<circle cx="2350" cy="736" r="4" fill="white" stroke="black" />
<text x="2350" y="748" font-family="Verdana" font-size="8" text-anchor="middle"  dominant-baseline="middle" fill="black" > 721</text>
<text x="2500" y="7" font-family="Verdana" font-size="7" text-anchor="middle"  dominant-baseline="middle" fill="black" > C11</text>
<circle cx="2500" cy="15" r="4" fill="white" stroke="black" />
<line x1="2500" y1="19" x2="2500" y2="202" stroke="black" />
<line x1="2450" y1="202" x2="2550" y2="202" stroke="black" />
<text x="2525" y="194" font-family="Verdana" font-size="8" text-anchor="middle"  dominant-baseline="middle" fill="black" > 187</text>
<circle cx="2450" cy="202" r="4" fill="white" stroke="black" />
<line x1="2450" y1="206" x2="2450" y2="490" stroke="black" />
<line x1="2425" y1="490" x2="2475" y2="490" stroke="black" />
<text x="2462" y="482" font-family="Verdana" font-size="8" text-anchor="middle"  dominant-baseline="middle" fill="black" > 475</text>
<circle cx="2425" cy="490" r="4" fill="white" stroke="black" />
<circle cx="2475" cy="490" r="4" fill="white" stroke="black" />
<line x1="2425" y1="494" x2="2425" y2="502" stroke="black" />
<line x1="2425" y1="502" x2="2450" y2="505" stroke="black" />
<line x1="2475" y1="494" x2="2475" y2="502" stroke="black" />
<line x1="2475" y1="502" x2="2450" y2="505" stroke="black" />
<text x="2450" y="493" font-family="Verdana" font-size="8" text-anchor="middle"  dominant-baseline="middle" fill="black" > 490</text>
<circle cx="2450" cy="505" r="4" fill="white" stroke="black" />
<line x1="2450" y1="509" x2="2450" y2="509" stroke="black" />
<line x1="2446" y1="505" x2="2454" y2="513" stroke="red" />
<line x1="2446" y1="513" x2="2454" y2="505" stroke="red" />
<text x="2450" y="521" font-family="Verdana" font-size="8" text-anchor="middle"  dominant-baseline="middle" fill="black" > 494</text>
<circle cx="2550" cy="202" r="4" fill="white" stroke="black" />
<line x1="2550" y1="206" x2="2550" y2="380" stroke="black" />
<line x1="2525" y1="380" x2="2575" y2="380" stroke="black" />
<text x="2562" y="372" font-family="Verdana" font-size="8" text-anchor="middle"  dominant-baseline="middle" fill="black" > 365</text>
<circle cx="2525" cy="380" r="4" fill="white" stroke="black" />
<line x1="2525" y1="384" x2="2525" y2="736" stroke="black" />
<circle cx="2525" cy="736" r="4" fill="white" stroke="black" />
<text x="2525" y="748" font-family="Verdana" font-size="8" text-anchor="middle"  dominant-baseline="middle" fill="black" > 721</text>
<circle cx="2575" cy="380" r="4" fill="white" stroke="black" />
<line x1="2575" y1="384" x2="2575" y2="736" stroke="black" />
<circle cx="2575" cy="736" r="4" fill="white" stroke="black" />
<text x="2575" y="748" font-family="Verdana" font-size="8" text-anchor="middle"  dominant-baseline="middle" fill="black" > 721</text>
<text x="2700" y="7" font-family="Verdana" font-size="7" text-anchor="middle"  dominant-baseline="middle" fill="black" > C13</text>
<circle cx="2700" cy="15" r="4" fill="white" stroke="black" />
<line x1="2700" y1="19" x2="2700" y2="243" stroke="black" />
<line x1="2650" y1="243" x2="2750" y2="243" stroke="black" />
<text x="2725" y="235" font-family="Verdana" font-size="8" text-anchor="middle"  dominant-baseline="middle" fill="black" > 228</text>
<circle cx="2650" cy="243" r="4" fill="white" stroke="black" />
<line x1="2650" y1="247" x2="2650" y2="736" stroke="black" />
<circle cx="2650" cy="736" r="4" fill="white" stroke="black" />
<text x="2650" y="748" font-family="Verdana" font-size="8" text-anchor="middle"  dominant-baseline="middle" fill="black" > 721</text>
<circle cx="2750" cy="243" r="4" fill="white" stroke="black" />
<line x1="2750" y1="247" x2="2750" y2="432" stroke="black" />
<line x1="2725" y1="432" x2="2775" y2="432" stroke="black" />
<text x="2762" y="424" font-family="Verdana" font-size="8" text-anchor="middle"  dominant-baseline="middle" fill="black" > 417</text>
<circle cx="2725" cy="432" r="4" fill="white" stroke="black" />
<line x1="2725" y1="436" x2="2725" y2="736" stroke="black" />
<circle cx="2725" cy="736" r="4" fill="white" stroke="black" />
<text x="2725" y="748" font-family="Verdana" font-size="8" text-anchor="middle"  dominant-baseline="middle" fill="black" > 721</text>
<circle cx="2775" cy="432" r="4" fill="white" stroke="black" />
<line x1="2775" y1="436" x2="2775" y2="736" stroke="black" />
<circle cx="2775" cy="736" r="4" fill="white" stroke="black" />
<text x="2775" y="748" font-family="Verdana" font-size="8" text-anchor="middle"  dominant-baseline="middle" fill="black" > 721</text>
<text x="2850" y="7" font-family="Verdana" font-size="7" text-anchor="middle"  dominant-baseline="middle" fill="black" > C14</text>
<circle cx="2850" cy="15" r="4" fill="white" stroke="black" />
<line x1="2850" y1="19" x2="2850" y2="236" stroke="black" />
<line x1="2846" y1="232" x2="2854" y2="240" stroke="red" />
<line x1="2846" y1="240" x2="2854" y2="232" stroke="red" />
<text x="2850" y="248" font-family="Verdana" font-size="8" text-anchor="middle"  dominant-baseline="middle" fill="black" > 221</text>
<text x="3000" y="7" font-family="Verdana" font-size="7" text-anchor="middle"  dominant-baseline="middle" fill="black" > C15</text>
<circle cx="3000" cy="15" r="4" fill="white" stroke="black" />
<line x1="3000" y1="19" x2="3000" y2="251" stroke="black" />
<line x1="2950" y1="251" x2="3050" y2="251" stroke="black" />
<text x="3025" y="243" font-family="Verdana" font-size="8" text-anchor="middle"  dominant-baseline="middle" fill="black" > 236</text>
<circle cx="2950" cy="251" r="4" fill="white" stroke="black" />
<line x1="2950" y1="255" x2="2950" y2="388" stroke="black" />
<line x1="2916" y1="388" x2="2984" y2="388" stroke="black" />
<text x="2958" y="380" font-family="Verdana" font-size="8" text-anchor="middle"  dominant-baseline="middle" fill="black" > 373</text>
<circle cx="2916" cy="388" r="4" fill="white" stroke="black" />
<line x1="2916" y1="392" x2="2916" y2="736" stroke="black" />
<circle cx="2916" cy="736" r="4" fill="white" stroke="black" />
<text x="2916" y="748" font-family="Verdana" font-size="8" text-anchor="middle"  dominant-baseline="middle" fill="black" > 721</text>
<circle cx="2949" cy="388" r="4" fill="white" stroke="black" />
<line x1="2949" y1="392" x2="2949" y2="640" stroke="black" />
<line x1="2945" y1="636" x2="2953" y2="644" stroke="red" />
<line x1="2945" y1="644" x2="2953" y2="636" stroke="red" />
<text x="2949" y="652" font-family="Verdana" font-size="8" text-anchor="middle"  dominant-baseline="middle" fill="black" > 625</text>
<circle cx="2982" cy="388" r="4" fill="white" stroke="black" />
<line x1="2982" y1="392" x2="2982" y2="572" stroke="black" />
<line x1="2974" y1="572" x2="2991" y2="572" stroke="black" />
<text x="2986" y="564" font-family="Verdana" font-size="8" text-anchor="middle"  dominant-baseline="middle" fill="black" > 557</text>
<circle cx="2974" cy="572" r="4" fill="white" stroke="black" />
<line x1="2974" y1="576" x2="2974" y2="736" stroke="black" />
<circle cx="2974" cy="736" r="4" fill="white" stroke="black" />
<text x="2974" y="748" font-family="Verdana" font-size="8" text-anchor="middle"  dominant-baseline="middle" fill="black" > 721</text>
<circle cx="2990" cy="572" r="4" fill="white" stroke="black" />
<line x1="2990" y1="576" x2="2990" y2="736" stroke="black" />
<circle cx="2990" cy="736" r="4" fill="white" stroke="black" />
<text x="2990" y="748" font-family="Verdana" font-size="8" text-anchor="middle"  dominant-baseline="middle" fill="black" > 721</text>
<circle cx="3050" cy="251" r="4" fill="white" stroke="black" />
<line x1="3050" y1="255" x2="3050" y2="389" stroke="black" />
<line x1="3025" y1="389" x2="3075" y2="389" stroke="black" />
<text x="3062" y="381" font-family="Verdana" font-size="8" text-anchor="middle"  dominant-baseline="middle" fill="black" > 374</text>
<circle cx="3025" cy="389" r="4" fill="white" stroke="black" />
<line x1="3025" y1="393" x2="3025" y2="579" stroke="black" />
<line x1="3012" y1="579" x2="3038" y2="579" stroke="black" />
<text x="3031" y="571" font-family="Verdana" font-size="8" text-anchor="middle"  dominant-baseline="middle" fill="black" > 564</text>
<circle cx="3012" cy="579" r="4" fill="white" stroke="black" />
<line x1="3012" y1="583" x2="3012" y2="736" stroke="black" />
<circle cx="3012" cy="736" r="4" fill="white" stroke="black" />
<text x="3012" y="748" font-family="Verdana" font-size="8" text-anchor="middle"  dominant-baseline="middle" fill="black" > 721</text>
<circle cx="3037" cy="579" r="4" fill="white" stroke="black" />
<circle cx="3075" cy="389" r="4" fill="white" stroke="black" />
<line x1="3075" y1="393" x2="3075" y2="579" stroke="black" />
<line x1="3062" y1="579" x2="3088" y2="579" stroke="black" />
<text x="3081" y="571" font-family="Verdana" font-size="8" text-anchor="middle"  dominant-baseline="middle" fill="black" > 564</text>
<circle cx="3062" cy="579" r="4" fill="white" stroke="black" />
<circle cx="3087" cy="579" r="4" fill="white" stroke="black" />
<line x1="3062" y1="583" x2="3062" y2="611" stroke="black" />
<line x1="3062" y1="611" x2="3074" y2="621" stroke="black" />
<line x1="3087" y1="583" x2="3087" y2="611" stroke="black" />
<line x1="3087" y1="611" x2="3074" y2="621" stroke="black" />
<text x="3074" y="609" font-family="Verdana" font-size="8" text-anchor="middle"  dominant-baseline="middle" fill="black" > 606</text>
<circle cx="3074" cy="621" r="4" fill="white" stroke="black" />
<line x1="3037" y1="583" x2="3037" y2="663" stroke="black" />
<line x1="3037" y1="663" x2="3055" y2="676" stroke="black" />
<line x1="3074" y1="625" x2="3074" y2="663" stroke="black" />
<line x1="3074" y1="663" x2="3055" y2="676" stroke="black" />
<text x="3055" y="664" font-family="Verdana" font-size="8" text-anchor="middle"  dominant-baseline="middle" fill="black" > 661</text>
<circle cx="3055" cy="676" r="4" fill="white" stroke="black" />
<line x1="3055" y1="680" x2="3055" y2="736" stroke="black" />
<circle cx="3055" cy="736" r="4" fill="white" stroke="black" />
<text x="3055" y="748" font-family="Verdana" font-size="8" text-anchor="middle"  dominant-baseline="middle" fill="black" > 721</text>
<text x="3150" y="7" font-family="Verdana" font-size="7" text-anchor="middle"  dominant-baseline="middle" fill="black" > C16</text>
<circle cx="3150" cy="15" r="4" fill="white" stroke="black" />
<line x1="3150" y1="19" x2="3150" y2="506" stroke="black" />
<line x1="3146" y1="502" x2="3154" y2="510" stroke="red" />
<line x1="3146" y1="510" x2="3154" y2="502" stroke="red" />
<text x="3150" y="518" font-family="Verdana" font-size="8" text-anchor="middle"  dominant-baseline="middle" fill="black" > 491</text>
<text x="3250" y="7" font-family="Verdana" font-size="7" text-anchor="middle"  dominant-baseline="middle" fill="black" > C17</text>
<circle cx="3250" cy="15" r="4" fill="white" stroke="black" />
<line x1="3250" y1="19" x2="3250" y2="198" stroke="black" />
<line x1="3246" y1="202" x2="3250" y2="194" stroke="blue" />
<line x1="3250" y1="202" x2="3254" y2="194" stroke="blue" />
<text x="3250" y="210" font-family="Verdana" font-size="8" text-anchor="middle"  dominant-baseline="middle" fill="black" > 183</text>
<text x="3450" y="7" font-family="Verdana" font-size="7" text-anchor="middle"  dominant-baseline="middle" fill="black" > C18</text>
<circle cx="3450" cy="15" r="4" fill="white" stroke="black" />
<line x1="3450" y1="19" x2="3450" y2="389" stroke="black" />
<line x1="3350" y1="389" x2="3550" y2="389" stroke="black" />
<text x="3475" y="381" font-family="Verdana" font-size="8" text-anchor="middle"  dominant-baseline="middle" fill="black" > 374</text>
<circle cx="3350" cy="389" r="4" fill="white" stroke="black" />
<circle cx="3450" cy="389" r="4" fill="white" stroke="black" />
<circle cx="3550" cy="389" r="4" fill="white" stroke="black" />
<line x1="3350" y1="393" x2="3350" y2="407" stroke="black" />
<line x1="3350" y1="407" x2="3450" y2="412" stroke="black" />
<line x1="3450" y1="393" x2="3450" y2="407" stroke="black" />
<line x1="3450" y1="407" x2="3450" y2="412" stroke="black" />
<line x1="3550" y1="393" x2="3550" y2="407" stroke="black" />
<line x1="3550" y1="407" x2="3450" y2="412" stroke="black" />
<text x="3450" y="400" font-family="Verdana" font-size="8" text-anchor="middle"  dominant-baseline="middle" fill="black" > 397</text>
<circle cx="3450" cy="412" r="4" fill="white" stroke="black" />
<line x1="3450" y1="416" x2="3450" y2="465" stroke="black" />
<line x1="3446" y1="461" x2="3454" y2="469" stroke="red" />
<line x1="3446" y1="469" x2="3454" y2="461" stroke="red" />
<text x="3450" y="477" font-family="Verdana" font-size="8" text-anchor="middle"  dominant-baseline="middle" fill="black" > 450</text>
<text x="3650" y="7" font-family="Verdana" font-size="7" text-anchor="middle"  dominant-baseline="middle" fill="black" > C19</text>
<circle cx="3650" cy="15" r="4" fill="white" stroke="black" />
<line x1="3650" y1="19" x2="3650" y2="78" stroke="black" />
<line x1="3646" y1="82" x2="3650" y2="74" stroke="blue" />
<line x1="3650" y1="82" x2="3654" y2="74" stroke="blue" />
<text x="3650" y="90" font-family="Verdana" font-size="8" text-anchor="middle"  dominant-baseline="middle" fill="black" > 63</text>
</svg>
