<?xml version="1.0" encoding="utf-8"?>
<svg xmlns="http://www.w3.org/2000/svg" version="1.1" width="2550" height="750">
<rect width="2550" height="15" x="0" y="0" fill="white" />
<rect width="2550" height="15" x="0" y="735" fill="white" />
<rect width="25" height="750" x="0" y="0" fill="white" />
<rect width="25" height="750" x="2525" y="0" fill="white" />
<rect width="2510" height="144" x="25" y="15" fill="ghostwhite" />
<rect width="2510" height="144" x="25" y="159" fill="snow" />
<rect width="2510" height="144" x="25" y="303" fill="ghostwhite" />
<rect width="2510" height="144" x="25" y="447" fill="snow" />
<rect width="2510" height="144" x="25" y="591" fill="ghostwhite" />
<text x="12" y="87" font-family="Verdana" font-size="10" text-anchor="middle"  dominant-baseline="middle" fill="red" > D0</text>
<text x="12" y="231" font-family="Verdana" font-size="10" text-anchor="middle"  dominant-baseline="middle" fill="red" > D1</text>
<text x="12" y="375" font-family="Verdana" font-size="10" text-anchor="middle"  dominant-baseline="middle" fill="red" > D2</text>
<text x="12" y="519" font-family="Verdana" font-size="10" text-anchor="middle"  dominant-baseline="middle" fill="red" > D3</text>
<text x="12" y="663" font-family="Verdana" font-size="10" text-anchor="middle"  dominant-baseline="middle" fill="red" > D4</text>
<text x="12" y="20" font-family="Verdana" font-size="10" text-anchor="middle"  dominant-baseline="middle" fill="black" > 0</text>
<text x="12" y="164" font-family="Verdana" font-size="10" text-anchor="middle"  dominant-baseline="middle" fill="black" > 144</text>
<text x="12" y="308" font-family="Verdana" font-size="10" text-anchor="middle"  dominant-baseline="middle" fill="black" > 288</text>
<text x="12" y="452" font-family="Verdana" font-size="10" text-anchor="middle"  dominant-baseline="middle" fill="black" > 432</text>
<text x="12" y="596" font-family="Verdana" font-size="10" text-anchor="middle"  dominant-baseline="middle" fill="black" > 576</text>
<text x="12" y="740" font-family="Verdana" font-size="10" text-anchor="middle"  dominant-baseline="middle" fill="black" > 720</text>
<text x="50" y="7" font-family="Verdana" font-size="7" text-anchor="middle"  dominant-baseline="middle" fill="black" > C1</text>
<circle cx="50" cy="15" r="4" fill="white" stroke="black" />
<line x1="50" y1="19" x2="50" y2="367" stroke="black" />
<line x1="46" y1="371" x2="50" y2="363" stroke="blue" />
<line x1="50" y1="371" x2="54" y2="363" stroke="blue" />
<text x="50" y="379" font-family="Verdana" font-size="8" text-anchor="middle"  dominant-baseline="middle" fill="black" > 352</text>
<text x="150" y="7" font-family="Verdana" font-size="7" text-anchor="middle"  dominant-baseline="middle" fill="black" > C2</text>
<circle cx="150" cy="15" r="4" fill="white" stroke="black" />
<line x1="150" y1="19" x2="150" y2="99" stroke="black" />
<line x1="146" y1="103" x2="150" y2="95" stroke="blue" />
<line x1="150" y1="103" x2="154" y2="95" stroke="blue" />
<text x="150" y="111" font-family="Verdana" font-size="8" text-anchor="middle"  dominant-baseline="middle" fill="black" > 84</text>
<text x="300" y="7" font-family="Verdana" font-size="7" text-anchor="middle"  dominant-baseline="middle" fill="black" > C3</text>
<circle cx="300" cy="15" r="4" fill="white" stroke="black" />
<line x1="300" y1="19" x2="300" y2="315" stroke="black" />
<line x1="250" y1="315" x2="350" y2="315" stroke="black" />
<text x="325" y="307" font-family="Verdana" font-size="8" text-anchor="middle"  dominant-baseline="middle" fill="black" > 300</text>
<circle cx="250" cy="315" r="4" fill="white" stroke="black" />
<line x1="250" y1="319" x2="250" y2="736" stroke="black" />
<circle cx="250" cy="736" r="4" fill="white" stroke="black" />
<text x="250" y="748" font-family="Verdana" font-size="8" text-anchor="middle"  dominant-baseline="middle" fill="black" > 721</text>
<circle cx="350" cy="315" r="4" fill="white" stroke="black" />
<line x1="350" y1="319" x2="350" y2="581" stroke="black" />
<line x1="346" y1="585" x2="350" y2="577" stroke="blue" />
<line x1="350" y1="585" x2="354" y2="577" stroke="blue" />
<text x="350" y="593" font-family="Verdana" font-size="8" text-anchor="middle"  dominant-baseline="middle" fill="black" > 566</text>
<text x="500" y="7" font-family="Verdana" font-size="7" text-anchor="middle"  dominant-baseline="middle" fill="black" > C4</text>
<circle cx="500" cy="15" r="4" fill="white" stroke="black" />
<line x1="500" y1="19" x2="500" y2="206" stroke="black" />
<line x1="450" y1="206" x2="550" y2="206" stroke="black" />
<text x="525" y="198" font-family="Verdana" font-size="8" text-anchor="middle"  dominant-baseline="middle" fill="black" > 191</text>
<circle cx="450" cy="206" r="4" fill="white" stroke="black" />
<line x1="450" y1="210" x2="450" y2="414" stroke="black" />
<line x1="425" y1="414" x2="475" y2="414" stroke="black" />
<text x="462" y="406" font-family="Verdana" font-size="8" text-anchor="middle"  dominant-baseline="middle" fill="black" > 399</text>
<circle cx="425" cy="414" r="4" fill="white" stroke="black" />
<line x1="425" y1="418" x2="425" y2="736" stroke="black" />
<circle cx="425" cy="736" r="4" fill="white" stroke="black" />
<text x="425" y="748" font-family="Verdana" font-size="8" text-anchor="middle"  dominant-baseline="middle" fill="black" > 721</text>
<circle cx="475" cy="414" r="4" fill="white" stroke="black" />
<line x1="475" y1="418" x2="475" y2="567" stroke="black" />
<line x1="462" y1="567" x2="488" y2="567" stroke="black" />
<text x="481" y="559" font-family="Verdana" font-size="8" text-anchor="middle"  dominant-baseline="middle" fill="black" > 552</text>
<circle cx="462" cy="567" r="4" fill="white" stroke="black" />
<line x1="462" y1="571" x2="462" y2="736" stroke="black" />
<circle cx="462" cy="736" r="4" fill="white" stroke="black" />
<text x="462" y="748" font-family="Verdana" font-size="8" text-anchor="middle"  dominant-baseline="middle" fill="black" > 721</text>
<circle cx="487" cy="567" r="4" fill="white" stroke="black" />
<line x1="487" y1="571" x2="487" y2="736" stroke="black" />
<circle cx="487" cy="736" r="4" fill="white" stroke="black" />
<text x="487" y="748" font-family="Verdana" font-size="8" text-anchor="middle"  dominant-baseline="middle" fill="black" > 721</text>
<circle cx="550" cy="206" r="4" fill="white" stroke="black" />
<line x1="550" y1="210" x2="550" y2="408" stroke="black" />
<line x1="525" y1="408" x2="575" y2="408" stroke="black" />
<text x="562" y="400" font-family="Verdana" font-size="8" text-anchor="middle"  dominant-baseline="middle" fill="black" > 393</text>
<circle cx="525" cy="408" r="4" fill="white" stroke="black" />
<line x1="525" y1="412" x2="525" y2="575" stroke="black" />
<line x1="521" y1="579" x2="525" y2="571" stroke="blue" />
<line x1="525" y1="579" x2="529" y2="571" stroke="blue" />
<text x="525" y="587" font-family="Verdana" font-size="8" text-anchor="middle"  dominant-baseline="middle" fill="black" > 560</text>
<circle cx="575" cy="408" r="4" fill="white" stroke="black" />
<line x1="575" y1="412" x2="575" y2="607" stroke="black" />
<line x1="562" y1="607" x2="588" y2="607" stroke="black" />
<text x="581" y="599" font-family="Verdana" font-size="8" text-anchor="middle"  dominant-baseline="middle" fill="black" > 592</text>
<circle cx="562" cy="607" r="4" fill="white" stroke="black" />
<line x1="562" y1="611" x2="562" y2="736" stroke="black" />
<circle cx="562" cy="736" r="4" fill="white" stroke="black" />
<text x="562" y="748" font-family="Verdana" font-size="8" text-anchor="middle"  dominant-baseline="middle" fill="black" > 721</text>
<circle cx="587" cy="607" r="4" fill="white" stroke="black" />
<line x1="587" y1="611" x2="587" y2="638" stroke="black" />
<line x1="583" y1="642" x2="587" y2="634" stroke="blue" />
<line x1="587" y1="642" x2="591" y2="634" stroke="blue" />
<text x="587" y="650" font-family="Verdana" font-size="8" text-anchor="middle"  dominant-baseline="middle" fill="black" > 623</text>
<text x="650" y="7" font-family="Verdana" font-size="7" text-anchor="middle"  dominant-baseline="middle" fill="black" > C5</text>
<circle cx="650" cy="15" r="4" fill="white" stroke="black" />
<line x1="650" y1="19" x2="650" y2="284" stroke="black" />
<line x1="646" y1="288" x2="650" y2="280" stroke="blue" />
<line x1="650" y1="288" x2="654" y2="280" stroke="blue" />
<text x="650" y="296" font-family="Verdana" font-size="8" text-anchor="middle"  dominant-baseline="middle" fill="black" > 269</text>
<text x="800" y="7" font-family="Verdana" font-size="7" text-anchor="middle"  dominant-baseline="middle" fill="black" > C6</text>
<circle cx="800" cy="15" r="4" fill="white" stroke="black" />
<line x1="800" y1="19" x2="800" y2="145" stroke="black" />
<line x1="750" y1="145" x2="850" y2="145" stroke="black" />
<text x="825" y="137" font-family="Verdana" font-size="8" text-anchor="middle"  dominant-baseline="middle" fill="black" > 130</text>
<circle cx="750" cy="145" r="4" fill="white" stroke="black" />
<circle cx="850" cy="145" r="4" fill="white" stroke="black" />
<line x1="850" y1="149" x2="850" y2="415" stroke="black" />
<line x1="825" y1="415" x2="875" y2="415" stroke="black" />
<text x="862" y="407" font-family="Verdana" font-size="8" text-anchor="middle"  dominant-baseline="middle" fill="black" > 400</text>
<circle cx="825" cy="415" r="4" fill="white" stroke="black" />
<line x1="750" y1="149" x2="750" y2="500" stroke="black" />
<line x1="750" y1="500" x2="787" y2="528" stroke="black" />
<line x1="825" y1="419" x2="825" y2="500" stroke="black" />
<line x1="825" y1="500" x2="787" y2="528" stroke="black" />
<text x="787" y="516" font-family="Verdana" font-size="8" text-anchor="middle"  dominant-baseline="middle" fill="black" > 513</text>
<circle cx="787" cy="528" r="4" fill="white" stroke="black" />
<line x1="787" y1="532" x2="787" y2="736" stroke="black" />
<circle cx="787" cy="736" r="4" fill="white" stroke="black" />
<text x="787" y="748" font-family="Verdana" font-size="8" text-anchor="middle"  dominant-baseline="middle" fill="black" > 721</text>
<circle cx="875" cy="415" r="4" fill="white" stroke="black" />
<line x1="875" y1="419" x2="875" y2="649" stroke="black" />
<line x1="862" y1="649" x2="888" y2="649" stroke="black" />
<text x="881" y="641" font-family="Verdana" font-size="8" text-anchor="middle"  dominant-baseline="middle" fill="black" > 634</text>
<circle cx="862" cy="649" r="4" fill="white" stroke="black" />
<line x1="862" y1="653" x2="862" y2="736" stroke="black" />
<circle cx="862" cy="736" r="4" fill="white" stroke="black" />
<text x="862" y="748" font-family="Verdana" font-size="8" text-anchor="middle"  dominant-baseline="middle" fill="black" > 721</text>
<circle cx="887" cy="649" r="4" fill="white" stroke="black" />
<line x1="887" y1="653" x2="887" y2="736" stroke="black" />
<circle cx="887" cy="736" r="4" fill="white" stroke="black" />
<text x="887" y="748" font-family="Verdana" font-size="8" text-anchor="middle"  dominant-baseline="middle" fill="black" > 721</text>
<text x="950" y="7" font-family="Verdana" font-size="7" text-anchor="middle"  dominant-baseline="middle" fill="black" > C7</text>
<circle cx="950" cy="15" r="4" fill="white" stroke="black" />
<line x1="950" y1="19" x2="950" y2="221" stroke="black" />
<line x1="946" y1="217" x2="954" y2="225" stroke="red" />
<line x1="946" y1="225" x2="954" y2="217" stroke="red" />
<text x="950" y="233" font-family="Verdana" font-size="8" text-anchor="middle"  dominant-baseline="middle" fill="black" > 206</text>
<text x="1100" y="7" font-family="Verdana" font-size="7" text-anchor="middle"  dominant-baseline="middle" fill="black" > C8</text>
<circle cx="1100" cy="15" r="4" fill="white" stroke="black" />
<line x1="1100" y1="19" x2="1100" y2="251" stroke="black" />
<line x1="1050" y1="251" x2="1150" y2="251" stroke="black" />
<text x="1125" y="243" font-family="Verdana" font-size="8" text-anchor="middle"  dominant-baseline="middle" fill="black" > 236</text>
<circle cx="1050" cy="251" r="4" fill="white" stroke="black" />
<line x1="1050" y1="255" x2="1050" y2="586" stroke="black" />
<line x1="1046" y1="582" x2="1054" y2="590" stroke="red" />
<line x1="1046" y1="590" x2="1054" y2="582" stroke="red" />
<text x="1050" y="598" font-family="Verdana" font-size="8" text-anchor="middle"  dominant-baseline="middle" fill="black" > 571</text>
<circle cx="1150" cy="251" r="4" fill="white" stroke="black" />
<line x1="1150" y1="255" x2="1150" y2="343" stroke="black" />
<line x1="1146" y1="347" x2="1150" y2="339" stroke="blue" />
<line x1="1150" y1="347" x2="1154" y2="339" stroke="blue" />
<text x="1150" y="355" font-family="Verdana" font-size="8" text-anchor="middle"  dominant-baseline="middle" fill="black" > 328</text>
<text x="1350" y="7" font-family="Verdana" font-size="7" text-anchor="middle"  dominant-baseline="middle" fill="black" > C9</text>
<circle cx="1350" cy="15" r="4" fill="white" stroke="black" />
<line x1="1350" y1="19" x2="1350" y2="274" stroke="black" />
<line x1="1250" y1="274" x2="1450" y2="274" stroke="black" />
<text x="1375" y="266" font-family="Verdana" font-size="8" text-anchor="middle"  dominant-baseline="middle" fill="black" > 259</text>
<circle cx="1250" cy="274" r="4" fill="white" stroke="black" />
<circle cx="1350" cy="274" r="4" fill="white" stroke="black" />
<line x1="1250" y1="278" x2="1250" y2="371" stroke="black" />
<line x1="1250" y1="371" x2="1300" y2="403" stroke="black" />
<line x1="1350" y1="278" x2="1350" y2="371" stroke="black" />
<line x1="1350" y1="371" x2="1300" y2="403" stroke="black" />
<text x="1300" y="391" font-family="Verdana" font-size="8" text-anchor="middle"  dominant-baseline="middle" fill="black" > 388</text>
<circle cx="1300" cy="403" r="4" fill="white" stroke="black" />
<line x1="1300" y1="407" x2="1300" y2="501" stroke="black" />
<line x1="1296" y1="497" x2="1304" y2="505" stroke="red" />
<line x1="1296" y1="505" x2="1304" y2="497" stroke="red" />
<text x="1300" y="513" font-family="Verdana" font-size="8" text-anchor="middle"  dominant-baseline="middle" fill="black" > 486</text>
<circle cx="1450" cy="274" r="4" fill="white" stroke="black" />
<line x1="1450" y1="278" x2="1450" y2="412" stroke="black" />
<line x1="1446" y1="416" x2="1450" y2="408" stroke="blue" />
<line x1="1450" y1="416" x2="1454" y2="408" stroke="blue" />
<text x="1450" y="424" font-family="Verdana" font-size="8" text-anchor="middle"  dominant-baseline="middle" fill="black" > 397</text>
<text x="1550" y="7" font-family="Verdana" font-size="7" text-anchor="middle"  dominant-baseline="middle" fill="black" > C10</text>
<circle cx="1550" cy="15" r="4" fill="white" stroke="black" />
<line x1="1550" y1="19" x2="1550" y2="586" stroke="black" />
<line x1="1546" y1="590" x2="1550" y2="582" stroke="blue" />
<line x1="1550" y1="590" x2="1554" y2="582" stroke="blue" />
<text x="1550" y="598" font-family="Verdana" font-size="8" text-anchor="middle"  dominant-baseline="middle" fill="black" > 571</text>
<text x="1750" y="7" font-family="Verdana" font-size="7" text-anchor="middle"  dominant-baseline="middle" fill="black" > C11</text>
<circle cx="1750" cy="15" r="4" fill="white" stroke="black" />
<line x1="1750" y1="19" x2="1750" y2="322" stroke="black" />
<line x1="1650" y1="322" x2="1850" y2="322" stroke="black" />
<text x="1775" y="314" font-family="Verdana" font-size="8" text-anchor="middle"  dominant-baseline="middle" fill="black" > 307</text>
<circle cx="1650" cy="322" r="4" fill="white" stroke="black" />
<line x1="1650" y1="326" x2="1650" y2="502" stroke="black" />
<line x1="1646" y1="498" x2="1654" y2="506" stroke="red" />
<line x1="1646" y1="506" x2="1654" y2="498" stroke="red" />
<text x="1650" y="514" font-family="Verdana" font-size="8" text-anchor="middle"  dominant-baseline="middle" fill="black" > 487</text>
<circle cx="1750" cy="322" r="4" fill="white" stroke="black" />
<circle cx="1850" cy="322" r="4" fill="white" stroke="black" />
<line x1="1750" y1="326" x2="1750" y2="378" stroke="black" />
<line x1="1750" y1="378" x2="1800" y2="396" stroke="black" />
<line x1="1850" y1="326" x2="1850" y2="378" stroke="black" />
<line x1="1850" y1="378" x2="1800" y2="396" stroke="black" />
<text x="1800" y="384" font-family="Verdana" font-size="8" text-anchor="middle"  dominant-baseline="middle" fill="black" > 381</text>
<circle cx="1800" cy="396" r="4" fill="white" stroke="black" />
<line x1="1800" y1="400" x2="1800" y2="563" stroke="black" />
<line x1="1766" y1="563" x2="1834" y2="563" stroke="black" />
<text x="1808" y="555" font-family="Verdana" font-size="8" text-anchor="middle"  dominant-baseline="middle" fill="black" > 548</text>
<circle cx="1766" cy="563" r="4" fill="white" stroke="black" />
<circle cx="1799" cy="563" r="4" fill="white" stroke="black" />
<circle cx="1832" cy="563" r="4" fill="white" stroke="black" />
<line x1="1766" y1="567" x2="1766" y2="568" stroke="black" />
<line x1="1766" y1="568" x2="1799" y2="569" stroke="black" />
<line x1="1799" y1="567" x2="1799" y2="568" stroke="black" />
<line x1="1799" y1="568" x2="1799" y2="569" stroke="black" />
<line x1="1832" y1="567" x2="1832" y2="568" stroke="black" />
<line x1="1832" y1="568" x2="1799" y2="569" stroke="black" />
<text x="1799" y="557" font-family="Verdana" font-size="8" text-anchor="middle"  dominant-baseline="middle" fill="black" > 554</text>
<circle cx="1799" cy="569" r="4" fill="white" stroke="black" />
<line x1="1799" y1="573" x2="1799" y2="736" stroke="black" />
<circle cx="1799" cy="736" r="4" fill="white" stroke="black" />
<text x="1799" y="748" font-family="Verdana" font-size="8" text-anchor="middle"  dominant-baseline="middle" fill="black" > 721</text>
<text x="2000" y="7" font-family="Verdana" font-size="7" text-anchor="middle"  dominant-baseline="middle" fill="black" > C12</text>
<circle cx="2000" cy="15" r="4" fill="white" stroke="black" />
<line x1="2000" y1="19" x2="2000" y2="427" stroke="black" />
<line x1="1950" y1="427" x2="2050" y2="427" stroke="black" />
<text x="2025" y="419" font-family="Verdana" font-size="8" text-anchor="middle"  dominant-baseline="middle" fill="black" > 412</text>
<circle cx="1950" cy="427" r="4" fill="white" stroke="black" />
<line x1="1950" y1="431" x2="1950" y2="563" stroke="black" />
<line x1="1925" y1="563" x2="1975" y2="563" stroke="black" />
<text x="1962" y="555" font-family="Verdana" font-size="8" text-anchor="middle"  dominant-baseline="middle" fill="black" > 548</text>
<circle cx="1925" cy="563" r="4" fill="white" stroke="black" />
<circle cx="1975" cy="563" r="4" fill="white" stroke="black" />
<line x1="1925" y1="567" x2="1925" y2="611" stroke="black" />
<line x1="1925" y1="611" x2="1950" y2="626" stroke="black" />
<line x1="1975" y1="567" x2="1975" y2="611" stroke="black" />
<line x1="1975" y1="611" x2="1950" y2="626" stroke="black" />
<text x="1950" y="614" font-family="Verdana" font-size="8" text-anchor="middle"  dominant-baseline="middle" fill="black" > 611</text>
<circle cx="1950" cy="626" r="4" fill="white" stroke="black" />
<line x1="1950" y1="630" x2="1950" y2="656" stroke="black" />
<line x1="1946" y1="652" x2="1954" y2="660" stroke="red" />
<line x1="1946" y1="660" x2="1954" y2="652" stroke="red" />
<text x="1950" y="668" font-family="Verdana" font-size="8" text-anchor="middle"  dominant-baseline="middle" fill="black" > 641</text>
<circle cx="2050" cy="427" r="4" fill="white" stroke="black" />
<line x1="2050" y1="431" x2="2050" y2="608" stroke="black" />
<line x1="2025" y1="608" x2="2075" y2="608" stroke="black" />
<text x="2062" y="600" font-family="Verdana" font-size="8" text-anchor="middle"  dominant-baseline="middle" fill="black" > 593</text>
<circle cx="2025" cy="608" r="4" fill="white" stroke="black" />
<line x1="2025" y1="612" x2="2025" y2="736" stroke="black" />
<circle cx="2025" cy="736" r="4" fill="white" stroke="black" />
<text x="2025" y="748" font-family="Verdana" font-size="8" text-anchor="middle"  dominant-baseline="middle" fill="black" > 721</text>
<circle cx="2075" cy="608" r="4" fill="white" stroke="black" />
<line x1="2075" y1="612" x2="2075" y2="736" stroke="black" />
<circle cx="2075" cy="736" r="4" fill="white" stroke="black" />
<text x="2075" y="748" font-family="Verdana" font-size="8" text-anchor="middle"  dominant-baseline="middle" fill="black" > 721</text>
<text x="2200" y="7" font-family="Verdana" font-size="7" text-anchor="middle"  dominant-baseline="middle" fill="black" > C13</text>
<circle cx="2200" cy="15" r="4" fill="white" stroke="black" />
<line x1="2200" y1="19" x2="2200" y2="173" stroke="black" />
<line x1="2150" y1="173" x2="2250" y2="173" stroke="black" />
<text x="2225" y="165" font-family="Verdana" font-size="8" text-anchor="middle"  dominant-baseline="middle" fill="black" > 158</text>
<circle cx="2150" cy="173" r="4" fill="white" stroke="black" />
<line x1="2150" y1="177" x2="2150" y2="368" stroke="black" />
<line x1="2125" y1="368" x2="2175" y2="368" stroke="black" />
<text x="2162" y="360" font-family="Verdana" font-size="8" text-anchor="middle"  dominant-baseline="middle" fill="black" > 353</text>
<circle cx="2125" cy="368" r="4" fill="white" stroke="black" />
<line x1="2125" y1="372" x2="2125" y2="588" stroke="black" />
<line x1="2112" y1="588" x2="2138" y2="588" stroke="black" />
<text x="2131" y="580" font-family="Verdana" font-size="8" text-anchor="middle"  dominant-baseline="middle" fill="black" > 573</text>
<circle cx="2112" cy="588" r="4" fill="white" stroke="black" />
<line x1="2112" y1="592" x2="2112" y2="736" stroke="black" />
<circle cx="2112" cy="736" r="4" fill="white" stroke="black" />
<text x="2112" y="748" font-family="Verdana" font-size="8" text-anchor="middle"  dominant-baseline="middle" fill="black" > 721</text>
<circle cx="2137" cy="588" r="4" fill="white" stroke="black" />
<line x1="2137" y1="592" x2="2137" y2="736" stroke="black" />
<circle cx="2137" cy="736" r="4" fill="white" stroke="black" />
<text x="2137" y="748" font-family="Verdana" font-size="8" text-anchor="middle"  dominant-baseline="middle" fill="black" > 721</text>
<circle cx="2175" cy="368" r="4" fill="white" stroke="black" />
<line x1="2175" y1="372" x2="2175" y2="606" stroke="black" />
<line x1="2162" y1="606" x2="2188" y2="606" stroke="black" />
<text x="2181" y="598" font-family="Verdana" font-size="8" text-anchor="middle"  dominant-baseline="middle" fill="black" > 591</text>
<circle cx="2162" cy="606" r="4" fill="white" stroke="black" />
<line x1="2162" y1="610" x2="2162" y2="736" stroke="black" />
<circle cx="2162" cy="736" r="4" fill="white" stroke="black" />
<text x="2162" y="748" font-family="Verdana" font-size="8" text-anchor="middle"  dominant-baseline="middle" fill="black" > 721</text>
<circle cx="2187" cy="606" r="4" fill="white" stroke="black" />
<line x1="2187" y1="610" x2="2187" y2="736" stroke="black" />
<circle cx="2187" cy="736" r="4" fill="white" stroke="black" />
<text x="2187" y="748" font-family="Verdana" font-size="8" text-anchor="middle"  dominant-baseline="middle" fill="black" > 721</text>
<circle cx="2250" cy="173" r="4" fill="white" stroke="black" />
<line x1="2250" y1="177" x2="2250" y2="611" stroke="black" />
<line x1="2225" y1="611" x2="2275" y2="611" stroke="black" />
<text x="2262" y="603" font-family="Verdana" font-size="8" text-anchor="middle"  dominant-baseline="middle" fill="black" > 596</text>
<circle cx="2225" cy="611" r="4" fill="white" stroke="black" />
<circle cx="2275" cy="611" r="4" fill="white" stroke="black" />
<line x1="2225" y1="615" x2="2225" y2="627" stroke="black" />
<line x1="2225" y1="627" x2="2250" y2="632" stroke="black" />
<line x1="2275" y1="615" x2="2275" y2="627" stroke="black" />
<line x1="2275" y1="627" x2="2250" y2="632" stroke="black" />
<text x="2250" y="620" font-family="Verdana" font-size="8" text-anchor="middle"  dominant-baseline="middle" fill="black" > 617</text>
<circle cx="2250" cy="632" r="4" fill="white" stroke="black" />
<line x1="2250" y1="636" x2="2250" y2="736" stroke="black" />
<circle cx="2250" cy="736" r="4" fill="white" stroke="black" />
<text x="2250" y="748" font-family="Verdana" font-size="8" text-anchor="middle"  dominant-baseline="middle" fill="black" > 721</text>
<text x="2400" y="7" font-family="Verdana" font-size="7" text-anchor="middle"  dominant-baseline="middle" fill="black" > C14</text>
<circle cx="2400" cy="15" r="4" fill="white" stroke="black" />
<line x1="2400" y1="19" x2="2400" y2="189" stroke="black" />
<line x1="2350" y1="189" x2="2450" y2="189" stroke="black" />
<text x="2425" y="181" font-family="Verdana" font-size="8" text-anchor="middle"  dominant-baseline="middle" fill="black" > 174</text>
<circle cx="2350" cy="189" r="4" fill="white" stroke="black" />
<line x1="2350" y1="193" x2="2350" y2="541" stroke="black" />
<line x1="2346" y1="537" x2="2354" y2="545" stroke="red" />
<line x1="2346" y1="545" x2="2354" y2="537" stroke="red" />
<text x="2350" y="553" font-family="Verdana" font-size="8" text-anchor="middle"  dominant-baseline="middle" fill="black" > 526</text>
<circle cx="2450" cy="189" r="4" fill="white" stroke="black" />
<line x1="2450" y1="193" x2="2450" y2="377" stroke="black" />
<line x1="2425" y1="377" x2="2475" y2="377" stroke="black" />
<text x="2462" y="369" font-family="Verdana" font-size="8" text-anchor="middle"  dominant-baseline="middle" fill="black" > 362</text>
<circle cx="2425" cy="377" r="4" fill="white" stroke="black" />
<circle cx="2475" cy="377" r="4" fill="white" stroke="black" />
<line x1="2425" y1="381" x2="2425" y2="565" stroke="black" />
<line x1="2425" y1="565" x2="2450" y2="627" stroke="black" />
<line x1="2475" y1="381" x2="2475" y2="565" stroke="black" />
<line x1="2475" y1="565" x2="2450" y2="627" stroke="black" />
<text x="2450" y="615" font-family="Verdana" font-size="8" text-anchor="middle"  dominant-baseline="middle" fill="black" > 612</text>
<circle cx="2450" cy="627" r="4" fill="white" stroke="black" />
<line x1="2450" y1="631" x2="2450" y2="736" stroke="black" />
<circle cx="2450" cy="736" r="4" fill="white" stroke="black" />
<text x="2450" y="748" font-family="Verdana" font-size="8" text-anchor="middle"  dominant-baseline="middle" fill="black" > 721</text>
</svg>
