<?xml version="1.0" encoding="utf-8"?>
<svg xmlns="http://www.w3.org/2000/svg" version="1.1" width="3250" height="750">
<rect width="3250" height="15" x="0" y="0" fill="white" />
<rect width="3250" height="15" x="0" y="735" fill="white" />
<rect width="25" height="750" x="0" y="0" fill="white" />
<rect width="25" height="750" x="3225" y="0" fill="white" />
<rect width="3210" height="144" x="25" y="15" fill="ghostwhite" />
<rect width="3210" height="144" x="25" y="159" fill="snow" />
<rect width="3210" height="144" x="25" y="303" fill="ghostwhite" />
<rect width="3210" height="144" x="25" y="447" fill="snow" />
<rect width="3210" height="144" x="25" y="591" fill="ghostwhite" />
<text x="12" y="87" font-family="Verdana" font-size="10" text-anchor="middle"  dominant-baseline="middle" fill="red" > D0</text>
<text x="12" y="231" font-family="Verdana" font-size="10" text-anchor="middle"  dominant-baseline="middle" fill="red" > D1</text>
<text x="12" y="375" font-family="Verdana" font-size="10" text-anchor="middle"  dominant-baseline="middle" fill="red" > D2</text>
<text x="12" y="519" font-family="Verdana" font-size="10" text-anchor="middle"  dominant-baseline="middle" fill="red" > D3</text>
<text x="12" y="663" font-family="Verdana" font-size="10" text-anchor="middle"  dominant-baseline="middle" fill="red" > D4</text>
<text x="12" y="20" font-family="Verdana" font-size="10" text-anchor="middle"  dominant-baseline="middle" fill="black" > 0</text>
<text x="12" y="164" font-family="Verdana" font-size="10" text-anchor="middle"  dominant-baseline="middle" fill="black" > 144</text>
<text x="12" y="308" font-family="Verdana" font-size="10" text-anchor="middle"  dominant-baseline="middle" fill="black" > 288</text>
<text x="12" y="452" font-family="Verdana" font-size="10" text-anchor="middle"  dominant-baseline="middle" fill="black" > 432</text>
<text x="12" y="596" font-family="Verdana" font-size="10" text-anchor="middle"  dominant-baseline="middle" fill="black" > 576</text>
<text x="12" y="740" font-family="Verdana" font-size="10" text-anchor="middle"  dominant-baseline="middle" fill="black" > 720</text>
<text x="100" y="7" font-family="Verdana" font-size="7" text-anchor="middle"  dominant-baseline="middle" fill="black" > C1</text>
<circle cx="100" cy="15" r="4" fill="white" stroke="black" />
<line x1="100" y1="19" x2="100" y2="223" stroke="black" />
<line x1="50" y1="223" x2="150" y2="223" stroke="black" />
<text x="125" y="215" font-family="Verdana" font-size="8" text-anchor="middle"  dominant-baseline="middle" fill="black" > 208</text>
<circle cx="50" cy="223" r="4" fill="white" stroke="black" />
<circle cx="150" cy="223" r="4" fill="white" stroke="black" />
<line x1="50" y1="227" x2="50" y2="430" stroke="black" />
<line x1="50" y1="430" x2="100" y2="499" stroke="black" />
<line x1="150" y1="227" x2="150" y2="430" stroke="black" />
<line x1="150" y1="430" x2="100" y2="499" stroke="black" />
<text x="100" y="487" font-family="Verdana" font-size="8" text-anchor="middle"  dominant-baseline="middle" fill="black" > 484</text>
<circle cx="100" cy="499" r="4" fill="white" stroke="black" />
<line x1="100" y1="503" x2="100" y2="736" stroke="black" />
<circle cx="100" cy="736" r="4" fill="white" stroke="black" />
<text x="100" y="748" font-family="Verdana" font-size="8" text-anchor="middle"  dominant-baseline="middle" fill="black" > 721</text>
<text x="450" y="7" font-family="Verdana" font-size="7" text-anchor="middle"  dominant-baseline="middle" fill="black" > C2</text>
<circle cx="450" cy="15" r="4" fill="white" stroke="black" />
<line x1="450" y1="19" x2="450" y2="237" stroke="black" />
<line x1="250" y1="237" x2="650" y2="237" stroke="black" />
<text x="475" y="229" font-family="Verdana" font-size="8" text-anchor="middle"  dominant-baseline="middle" fill="black" > 222</text>
<circle cx="250" cy="237" r="4" fill="white" stroke="black" />
<circle cx="350" cy="237" r="4" fill="white" stroke="black" />
<line x1="250" y1="241" x2="250" y2="260" stroke="black" />
<line x1="250" y1="260" x2="300" y2="267" stroke="black" />
<line x1="350" y1="241" x2="350" y2="260" stroke="black" />
<line x1="350" y1="260" x2="300" y2="267" stroke="black" />
<text x="300" y="255" font-family="Verdana" font-size="8" text-anchor="middle"  dominant-baseline="middle" fill="black" > 252</text>
<circle cx="300" cy="267" r="4" fill="white" stroke="black" />
<line x1="300" y1="271" x2="300" y2="404" stroke="black" />
<line x1="296" y1="400" x2="304" y2="408" stroke="red" />
<line x1="296" y1="408" x2="304" y2="400" stroke="red" />
<text x="300" y="416" font-family="Verdana" font-size="8" text-anchor="middle"  dominant-baseline="middle" fill="black" > 389</text>
<circle cx="450" cy="237" r="4" fill="white" stroke="black" />
<circle cx="550" cy="237" r="4" fill="white" stroke="black" />
<line x1="450" y1="241" x2="450" y2="296" stroke="black" />
<line x1="450" y1="296" x2="500" y2="315" stroke="black" />
<line x1="550" y1="241" x2="550" y2="296" stroke="black" />
<line x1="550" y1="296" x2="500" y2="315" stroke="black" />
<text x="500" y="303" font-family="Verdana" font-size="8" text-anchor="middle"  dominant-baseline="middle" fill="black" > 300</text>
<circle cx="500" cy="315" r="4" fill="white" stroke="black" />
<line x1="500" y1="319" x2="500" y2="736" stroke="black" />
<circle cx="500" cy="736" r="4" fill="white" stroke="black" />
<text x="500" y="748" font-family="Verdana" font-size="8" text-anchor="middle"  dominant-baseline="middle" fill="black" > 721</text>
<circle cx="650" cy="237" r="4" fill="white" stroke="black" />
<line x1="650" y1="241" x2="650" y2="375" stroke="black" />
<line x1="646" y1="371" x2="654" y2="379" stroke="red" />
<line x1="646" y1="379" x2="654" y2="371" stroke="red" />
<text x="650" y="387" font-family="Verdana" font-size="8" text-anchor="middle"  dominant-baseline="middle" fill="black" > 360</text>
<text x="800" y="7" font-family="Verdana" font-size="7" text-anchor="middle"  dominant-baseline="middle" fill="black" > C3</text>
<circle cx="800" cy="15" r="4" fill="white" stroke="black" />
<line x1="800" y1="19" x2="800" y2="225" stroke="black" />
<line x1="750" y1="225" x2="850" y2="225" stroke="black" />
<text x="825" y="217" font-family="Verdana" font-size="8" text-anchor="middle"  dominant-baseline="middle" fill="black" > 210</text>
<circle cx="750" cy="225" r="4" fill="white" stroke="black" />
<line x1="750" y1="229" x2="750" y2="343" stroke="black" />
<line x1="725" y1="343" x2="775" y2="343" stroke="black" />
<text x="762" y="335" font-family="Verdana" font-size="8" text-anchor="middle"  dominant-baseline="middle" fill="black" > 328</text>
<circle cx="725" cy="343" r="4" fill="white" stroke="black" />
<line x1="725" y1="347" x2="725" y2="448" stroke="black" />
<line x1="712" y1="448" x2="738" y2="448" stroke="black" />
<text x="731" y="440" font-family="Verdana" font-size="8" text-anchor="middle"  dominant-baseline="middle" fill="black" > 433</text>
<circle cx="712" cy="448" r="4" fill="white" stroke="black" />
<line x1="712" y1="452" x2="712" y2="736" stroke="black" />
<circle cx="712" cy="736" r="4" fill="white" stroke="black" />
<text x="712" y="748" font-family="Verdana" font-size="8" text-anchor="middle"  dominant-baseline="middle" fill="black" > 721</text>
<circle cx="737" cy="448" r="4" fill="white" stroke="black" />
<line x1="737" y1="452" x2="737" y2="736" stroke="black" />
<circle cx="737" cy="736" r="4" fill="white" stroke="black" />
<text x="737" y="748" font-family="Verdana" font-size="8" text-anchor="middle"  dominant-baseline="middle" fill="black" > 721</text>
<circle cx="775" cy="343" r="4" fill="white" stroke="black" />
<line x1="775" y1="347" x2="775" y2="448" stroke="black" />
<line x1="762" y1="448" x2="788" y2="448" stroke="black" />
<text x="781" y="440" font-family="Verdana" font-size="8" text-anchor="middle"  dominant-baseline="middle" fill="black" > 433</text>
<circle cx="762" cy="448" r="4" fill="white" stroke="black" />
<line x1="762" y1="452" x2="762" y2="589" stroke="black" />
<line x1="756" y1="589" x2="769" y2="589" stroke="black" />
<text x="765" y="581" font-family="Verdana" font-size="8" text-anchor="middle"  dominant-baseline="middle" fill="black" > 574</text>
<circle cx="756" cy="589" r="4" fill="white" stroke="black" />
<line x1="756" y1="593" x2="756" y2="736" stroke="black" />
<circle cx="756" cy="736" r="4" fill="white" stroke="black" />
<text x="756" y="748" font-family="Verdana" font-size="8" text-anchor="middle"  dominant-baseline="middle" fill="black" > 721</text>
<circle cx="768" cy="589" r="4" fill="white" stroke="black" />
<line x1="768" y1="593" x2="768" y2="736" stroke="black" />
<circle cx="768" cy="736" r="4" fill="white" stroke="black" />
<text x="768" y="748" font-family="Verdana" font-size="8" text-anchor="middle"  dominant-baseline="middle" fill="black" > 721</text>
<circle cx="787" cy="448" r="4" fill="white" stroke="black" />
<line x1="787" y1="452" x2="787" y2="653" stroke="black" />
<line x1="783" y1="649" x2="791" y2="657" stroke="red" />
<line x1="783" y1="657" x2="791" y2="649" stroke="red" />
<text x="787" y="665" font-family="Verdana" font-size="8" text-anchor="middle"  dominant-baseline="middle" fill="black" > 638</text>
<circle cx="850" cy="225" r="4" fill="white" stroke="black" />
<line x1="850" y1="229" x2="850" y2="359" stroke="black" />
<line x1="825" y1="359" x2="875" y2="359" stroke="black" />
<text x="862" y="351" font-family="Verdana" font-size="8" text-anchor="middle"  dominant-baseline="middle" fill="black" > 344</text>
<circle cx="825" cy="359" r="4" fill="white" stroke="black" />
<line x1="825" y1="363" x2="825" y2="469" stroke="black" />
<line x1="812" y1="469" x2="838" y2="469" stroke="black" />
<text x="831" y="461" font-family="Verdana" font-size="8" text-anchor="middle"  dominant-baseline="middle" fill="black" > 454</text>
<circle cx="812" cy="469" r="4" fill="white" stroke="black" />
<line x1="812" y1="473" x2="812" y2="677" stroke="black" />
<line x1="804" y1="677" x2="821" y2="677" stroke="black" />
<text x="814" y="669" font-family="Verdana" font-size="8" text-anchor="middle"  dominant-baseline="middle" fill="black" > 662</text>
<circle cx="804" cy="677" r="4" fill="white" stroke="black" />
<circle cx="812" cy="677" r="4" fill="white" stroke="black" />
<circle cx="820" cy="677" r="4" fill="white" stroke="black" />
<line x1="804" y1="681" x2="804" y2="685" stroke="black" />
<line x1="804" y1="685" x2="812" y2="687" stroke="black" />
<line x1="812" y1="681" x2="812" y2="685" stroke="black" />
<line x1="812" y1="685" x2="812" y2="687" stroke="black" />
<line x1="820" y1="681" x2="820" y2="685" stroke="black" />
<line x1="820" y1="685" x2="812" y2="687" stroke="black" />
<text x="812" y="675" font-family="Verdana" font-size="8" text-anchor="middle"  dominant-baseline="middle" fill="black" > 672</text>
<circle cx="812" cy="687" r="4" fill="white" stroke="black" />
<line x1="812" y1="691" x2="812" y2="736" stroke="black" />
<circle cx="812" cy="736" r="4" fill="white" stroke="black" />
<text x="812" y="748" font-family="Verdana" font-size="8" text-anchor="middle"  dominant-baseline="middle" fill="black" > 721</text>
<circle cx="837" cy="469" r="4" fill="white" stroke="black" />
<line x1="837" y1="473" x2="837" y2="645" stroke="black" />
<line x1="831" y1="645" x2="844" y2="645" stroke="black" />
<text x="840" y="637" font-family="Verdana" font-size="8" text-anchor="middle"  dominant-baseline="middle" fill="black" > 630</text>
<circle cx="831" cy="645" r="4" fill="white" stroke="black" />
<line x1="831" y1="649" x2="831" y2="736" stroke="black" />
<circle cx="831" cy="736" r="4" fill="white" stroke="black" />
<text x="831" y="748" font-family="Verdana" font-size="8" text-anchor="middle"  dominant-baseline="middle" fill="black" > 721</text>
<circle cx="843" cy="645" r="4" fill="white" stroke="black" />
<line x1="843" y1="649" x2="843" y2="736" stroke="black" />
<circle cx="843" cy="736" r="4" fill="white" stroke="black" />
<text x="843" y="748" font-family="Verdana" font-size="8" text-anchor="middle"  dominant-baseline="middle" fill="black" > 721</text>
<circle cx="875" cy="359" r="4" fill="white" stroke="black" />
<line x1="875" y1="363" x2="875" y2="458" stroke="black" />
<line x1="862" y1="458" x2="888" y2="458" stroke="black" />
<text x="881" y="450" font-family="Verdana" font-size="8" text-anchor="middle"  dominant-baseline="middle" fill="black" > 443</text>
<circle cx="862" cy="458" r="4" fill="white" stroke="black" />
<line x1="862" y1="462" x2="862" y2="736" stroke="black" />
<circle cx="862" cy="736" r="4" fill="white" stroke="black" />
<text x="862" y="748" font-family="Verdana" font-size="8" text-anchor="middle"  dominant-baseline="middle" fill="black" > 721</text>
<circle cx="887" cy="458" r="4" fill="white" stroke="black" />
<line x1="887" y1="462" x2="887" y2="736" stroke="black" />
<circle cx="887" cy="736" r="4" fill="white" stroke="black" />
<text x="887" y="748" font-family="Verdana" font-size="8" text-anchor="middle"  dominant-baseline="middle" fill="black" > 721</text>
<text x="950" y="7" font-family="Verdana" font-size="7" text-anchor="middle"  dominant-baseline="middle" fill="black" > C4</text>
<circle cx="950" cy="15" r="4" fill="white" stroke="black" />
<line x1="950" y1="19" x2="950" y2="411" stroke="black" />
<line x1="946" y1="407" x2="954" y2="415" stroke="red" />
<line x1="946" y1="415" x2="954" y2="407" stroke="red" />
<text x="950" y="423" font-family="Verdana" font-size="8" text-anchor="middle"  dominant-baseline="middle" fill="black" > 396</text>
<text x="1050" y="7" font-family="Verdana" font-size="7" text-anchor="middle"  dominant-baseline="middle" fill="black" > C5</text>
<circle cx="1050" cy="15" r="4" fill="white" stroke="black" />
<line x1="1050" y1="19" x2="1050" y2="291" stroke="black" />
<line x1="1046" y1="295" x2="1050" y2="287" stroke="blue" />
<line x1="1050" y1="295" x2="1054" y2="287" stroke="blue" />
<text x="1050" y="303" font-family="Verdana" font-size="8" text-anchor="middle"  dominant-baseline="middle" fill="black" > 276</text>
<text x="1150" y="7" font-family="Verdana" font-size="7" text-anchor="middle"  dominant-baseline="middle" fill="black" > C6</text>
<circle cx="1150" cy="15" r="4" fill="white" stroke="black" />
<line x1="1150" y1="19" x2="1150" y2="37" stroke="black" />
<line x1="1146" y1="41" x2="1150" y2="33" stroke="blue" />
<line x1="1150" y1="41" x2="1154" y2="33" stroke="blue" />
<text x="1150" y="49" font-family="Verdana" font-size="8" text-anchor="middle"  dominant-baseline="middle" fill="black" > 22</text>
<text x="1250" y="7" font-family="Verdana" font-size="7" text-anchor="middle"  dominant-baseline="middle" fill="black" > C7</text>
<circle cx="1250" cy="15" r="4" fill="white" stroke="black" />
<line x1="1250" y1="19" x2="1250" y2="246" stroke="black" />
<line x1="1246" y1="250" x2="1250" y2="242" stroke="blue" />
<line x1="1250" y1="250" x2="1254" y2="242" stroke="blue" />
<text x="1250" y="258" font-family="Verdana" font-size="8" text-anchor="middle"  dominant-baseline="middle" fill="black" > 231</text>
<text x="1350" y="7" font-family="Verdana" font-size="7" text-anchor="middle"  dominant-baseline="middle" fill="black" > C8</text>
<circle cx="1350" cy="15" r="4" fill="white" stroke="black" />
<line x1="1350" y1="19" x2="1350" y2="143" stroke="black" />
<line x1="1346" y1="147" x2="1350" y2="139" stroke="blue" />
<line x1="1350" y1="147" x2="1354" y2="139" stroke="blue" />
<text x="1350" y="155" font-family="Verdana" font-size="8" text-anchor="middle"  dominant-baseline="middle" fill="black" > 128</text>
<text x="1500" y="7" font-family="Verdana" font-size="7" text-anchor="middle"  dominant-baseline="middle" fill="black" > C9</text>
<circle cx="1500" cy="15" r="4" fill="white" stroke="black" />
<line x1="1500" y1="19" x2="1500" y2="229" stroke="black" />
<line x1="1450" y1="229" x2="1550" y2="229" stroke="black" />
<text x="1525" y="221" font-family="Verdana" font-size="8" text-anchor="middle"  dominant-baseline="middle" fill="black" > 214</text>
<circle cx="1450" cy="229" r="4" fill="white" stroke="black" />
<line x1="1450" y1="233" x2="1450" y2="379" stroke="black" />
<line x1="1425" y1="379" x2="1475" y2="379" stroke="black" />
<text x="1462" y="371" font-family="Verdana" font-size="8" text-anchor="middle"  dominant-baseline="middle" fill="black" > 364</text>
<circle cx="1425" cy="379" r="4" fill="white" stroke="black" />
<line x1="1425" y1="383" x2="1425" y2="587" stroke="black" />
<line x1="1412" y1="587" x2="1438" y2="587" stroke="black" />
<text x="1431" y="579" font-family="Verdana" font-size="8" text-anchor="middle"  dominant-baseline="middle" fill="black" > 572</text>
<circle cx="1412" cy="587" r="4" fill="white" stroke="black" />
<circle cx="1437" cy="587" r="4" fill="white" stroke="black" />
<line x1="1412" y1="591" x2="1412" y2="616" stroke="black" />
<line x1="1412" y1="616" x2="1424" y2="625" stroke="black" />
<line x1="1437" y1="591" x2="1437" y2="616" stroke="black" />
<line x1="1437" y1="616" x2="1424" y2="625" stroke="black" />
<text x="1424" y="613" font-family="Verdana" font-size="8" text-anchor="middle"  dominant-baseline="middle" fill="black" > 610</text>
<circle cx="1424" cy="625" r="4" fill="white" stroke="black" />
<line x1="1424" y1="629" x2="1424" y2="736" stroke="black" />
<circle cx="1424" cy="736" r="4" fill="white" stroke="black" />
<text x="1424" y="748" font-family="Verdana" font-size="8" text-anchor="middle"  dominant-baseline="middle" fill="black" > 721</text>
<circle cx="1475" cy="379" r="4" fill="white" stroke="black" />
<circle cx="1550" cy="229" r="4" fill="white" stroke="black" />
<line x1="1550" y1="233" x2="1550" y2="390" stroke="black" />
<line x1="1525" y1="390" x2="1575" y2="390" stroke="black" />
<text x="1562" y="382" font-family="Verdana" font-size="8" text-anchor="middle"  dominant-baseline="middle" fill="black" > 375</text>
<circle cx="1525" cy="390" r="4" fill="white" stroke="black" />
<circle cx="1575" cy="390" r="4" fill="white" stroke="black" />
<line x1="1525" y1="394" x2="1525" y2="393" stroke="black" />
<line x1="1525" y1="393" x2="1550" y2="394" stroke="black" />
<line x1="1575" y1="394" x2="1575" y2="393" stroke="black" />
<line x1="1575" y1="393" x2="1550" y2="394" stroke="black" />
<text x="1550" y="382" font-family="Verdana" font-size="8" text-anchor="middle"  dominant-baseline="middle" fill="black" > 379</text>
<circle cx="1550" cy="394" r="4" fill="white" stroke="black" />
<line x1="1475" y1="383" x2="1475" y2="403" stroke="black" />
<line x1="1475" y1="403" x2="1512" y2="406" stroke="black" />
<line x1="1550" y1="398" x2="1550" y2="403" stroke="black" />
<line x1="1550" y1="403" x2="1512" y2="406" stroke="black" />
<text x="1512" y="394" font-family="Verdana" font-size="8" text-anchor="middle"  dominant-baseline="middle" fill="black" > 391</text>
<circle cx="1512" cy="406" r="4" fill="white" stroke="black" />
<line x1="1512" y1="410" x2="1512" y2="538" stroke="black" />
<line x1="1508" y1="534" x2="1516" y2="542" stroke="red" />
<line x1="1508" y1="542" x2="1516" y2="534" stroke="red" />
<text x="1512" y="550" font-family="Verdana" font-size="8" text-anchor="middle"  dominant-baseline="middle" fill="black" > 523</text>
<text x="1750" y="7" font-family="Verdana" font-size="7" text-anchor="middle"  dominant-baseline="middle" fill="black" > C10</text>
<circle cx="1750" cy="15" r="4" fill="white" stroke="black" />
<line x1="1750" y1="19" x2="1750" y2="305" stroke="black" />
<line x1="1650" y1="305" x2="1850" y2="305" stroke="black" />
<text x="1775" y="297" font-family="Verdana" font-size="8" text-anchor="middle"  dominant-baseline="middle" fill="black" > 290</text>
<circle cx="1650" cy="305" r="4" fill="white" stroke="black" />
<circle cx="1750" cy="305" r="4" fill="white" stroke="black" />
<line x1="1650" y1="309" x2="1650" y2="308" stroke="black" />
<line x1="1650" y1="308" x2="1700" y2="308" stroke="black" />
<line x1="1750" y1="309" x2="1750" y2="308" stroke="black" />
<line x1="1750" y1="308" x2="1700" y2="308" stroke="black" />
<text x="1700" y="296" font-family="Verdana" font-size="8" text-anchor="middle"  dominant-baseline="middle" fill="black" > 293</text>
<circle cx="1700" cy="308" r="4" fill="white" stroke="black" />
<circle cx="1850" cy="305" r="4" fill="white" stroke="black" />
<line x1="1700" y1="312" x2="1700" y2="445" stroke="black" />
<line x1="1700" y1="445" x2="1775" y2="490" stroke="black" />
<line x1="1850" y1="309" x2="1850" y2="445" stroke="black" />
<line x1="1850" y1="445" x2="1775" y2="490" stroke="black" />
<text x="1775" y="478" font-family="Verdana" font-size="8" text-anchor="middle"  dominant-baseline="middle" fill="black" > 475</text>
<circle cx="1775" cy="490" r="4" fill="white" stroke="black" />
<line x1="1775" y1="494" x2="1775" y2="736" stroke="black" />
<circle cx="1775" cy="736" r="4" fill="white" stroke="black" />
<text x="1775" y="748" font-family="Verdana" font-size="8" text-anchor="middle"  dominant-baseline="middle" fill="black" > 721</text>
<text x="2000" y="7" font-family="Verdana" font-size="7" text-anchor="middle"  dominant-baseline="middle" fill="black" > C11</text>
<circle cx="2000" cy="15" r="4" fill="white" stroke="black" />
<line x1="2000" y1="19" x2="2000" y2="250" stroke="black" />
<line x1="1950" y1="250" x2="2050" y2="250" stroke="black" />
<text x="2025" y="242" font-family="Verdana" font-size="8" text-anchor="middle"  dominant-baseline="middle" fill="black" > 235</text>
<circle cx="1950" cy="250" r="4" fill="white" stroke="black" />
<circle cx="2050" cy="250" r="4" fill="white" stroke="black" />
<line x1="1950" y1="254" x2="1950" y2="478" stroke="black" />
<line x1="1950" y1="478" x2="2000" y2="553" stroke="black" />
<line x1="2050" y1="254" x2="2050" y2="478" stroke="black" />
<line x1="2050" y1="478" x2="2000" y2="553" stroke="black" />
<text x="2000" y="541" font-family="Verdana" font-size="8" text-anchor="middle"  dominant-baseline="middle" fill="black" > 538</text>
<circle cx="2000" cy="553" r="4" fill="white" stroke="black" />
<line x1="2000" y1="557" x2="2000" y2="736" stroke="black" />
<circle cx="2000" cy="736" r="4" fill="white" stroke="black" />
<text x="2000" y="748" font-family="Verdana" font-size="8" text-anchor="middle"  dominant-baseline="middle" fill="black" > 721</text>
<text x="2250" y="7" font-family="Verdana" font-size="7" text-anchor="middle"  dominant-baseline="middle" fill="black" > C12</text>
<circle cx="2250" cy="15" r="4" fill="white" stroke="black" />
<line x1="2250" y1="19" x2="2250" y2="298" stroke="black" />
<line x1="2150" y1="298" x2="2350" y2="298" stroke="black" />
<text x="2275" y="290" font-family="Verdana" font-size="8" text-anchor="middle"  dominant-baseline="middle" fill="black" > 283</text>
<circle cx="2150" cy="298" r="4" fill="white" stroke="black" />
<line x1="2150" y1="302" x2="2150" y2="420" stroke="black" />
<line x1="2146" y1="424" x2="2150" y2="416" stroke="blue" />
<line x1="2150" y1="424" x2="2154" y2="416" stroke="blue" />
<text x="2150" y="432" font-family="Verdana" font-size="8" text-anchor="middle"  dominant-baseline="middle" fill="black" > 405</text>
<circle cx="2250" cy="298" r="4" fill="white" stroke="black" />
<circle cx="2350" cy="298" r="4" fill="white" stroke="black" />
<line x1="2250" y1="302" x2="2250" y2="393" stroke="black" />
<line x1="2250" y1="393" x2="2300" y2="424" stroke="black" />
<line x1="2350" y1="302" x2="2350" y2="393" stroke="black" />
<line x1="2350" y1="393" x2="2300" y2="424" stroke="black" />
<text x="2300" y="412" font-family="Verdana" font-size="8" text-anchor="middle"  dominant-baseline="middle" fill="black" > 409</text>
<circle cx="2300" cy="424" r="4" fill="white" stroke="black" />
<line x1="2300" y1="428" x2="2300" y2="491" stroke="black" />
<line x1="2266" y1="491" x2="2334" y2="491" stroke="black" />
<text x="2308" y="483" font-family="Verdana" font-size="8" text-anchor="middle"  dominant-baseline="middle" fill="black" > 476</text>
<circle cx="2266" cy="491" r="4" fill="white" stroke="black" />
<line x1="2266" y1="495" x2="2266" y2="519" stroke="black" />
<line x1="2262" y1="523" x2="2266" y2="515" stroke="blue" />
<line x1="2266" y1="523" x2="2270" y2="515" stroke="blue" />
<text x="2266" y="531" font-family="Verdana" font-size="8" text-anchor="middle"  dominant-baseline="middle" fill="black" > 504</text>
<circle cx="2299" cy="491" r="4" fill="white" stroke="black" />
<line x1="2299" y1="495" x2="2299" y2="604" stroke="black" />
<line x1="2295" y1="608" x2="2299" y2="600" stroke="blue" />
<line x1="2299" y1="608" x2="2303" y2="600" stroke="blue" />
<text x="2299" y="616" font-family="Verdana" font-size="8" text-anchor="middle"  dominant-baseline="middle" fill="black" > 589</text>
<circle cx="2332" cy="491" r="4" fill="white" stroke="black" />
<line x1="2332" y1="495" x2="2332" y2="630" stroke="black" />
<line x1="2328" y1="634" x2="2332" y2="626" stroke="blue" />
<line x1="2332" y1="634" x2="2336" y2="626" stroke="blue" />
<text x="2332" y="642" font-family="Verdana" font-size="8" text-anchor="middle"  dominant-baseline="middle" fill="black" > 615</text>
<text x="2500" y="7" font-family="Verdana" font-size="7" text-anchor="middle"  dominant-baseline="middle" fill="black" > C13</text>
<circle cx="2500" cy="15" r="4" fill="white" stroke="black" />
<line x1="2500" y1="19" x2="2500" y2="226" stroke="black" />
<line x1="2450" y1="226" x2="2550" y2="226" stroke="black" />
<text x="2525" y="218" font-family="Verdana" font-size="8" text-anchor="middle"  dominant-baseline="middle" fill="black" > 211</text>
<circle cx="2450" cy="226" r="4" fill="white" stroke="black" />
<line x1="2450" y1="230" x2="2450" y2="469" stroke="black" />
<line x1="2425" y1="469" x2="2475" y2="469" stroke="black" />
<text x="2462" y="461" font-family="Verdana" font-size="8" text-anchor="middle"  dominant-baseline="middle" fill="black" > 454</text>
<circle cx="2425" cy="469" r="4" fill="white" stroke="black" />
<line x1="2425" y1="473" x2="2425" y2="736" stroke="black" />
<circle cx="2425" cy="736" r="4" fill="white" stroke="black" />
<text x="2425" y="748" font-family="Verdana" font-size="8" text-anchor="middle"  dominant-baseline="middle" fill="black" > 721</text>
<circle cx="2475" cy="469" r="4" fill="white" stroke="black" />
<line x1="2475" y1="473" x2="2475" y2="642" stroke="black" />
<line x1="2471" y1="646" x2="2475" y2="638" stroke="blue" />
<line x1="2475" y1="646" x2="2479" y2="638" stroke="blue" />
<text x="2475" y="654" font-family="Verdana" font-size="8" text-anchor="middle"  dominant-baseline="middle" fill="black" > 627</text>
<circle cx="2550" cy="226" r="4" fill="white" stroke="black" />
<line x1="2550" y1="230" x2="2550" y2="435" stroke="black" />
<line x1="2525" y1="435" x2="2575" y2="435" stroke="black" />
<text x="2562" y="427" font-family="Verdana" font-size="8" text-anchor="middle"  dominant-baseline="middle" fill="black" > 420</text>
<circle cx="2525" cy="435" r="4" fill="white" stroke="black" />
<line x1="2525" y1="439" x2="2525" y2="438" stroke="black" />
<line x1="2521" y1="442" x2="2525" y2="434" stroke="blue" />
<line x1="2525" y1="442" x2="2529" y2="434" stroke="blue" />
<text x="2525" y="450" font-family="Verdana" font-size="8" text-anchor="middle"  dominant-baseline="middle" fill="black" > 423</text>
<circle cx="2575" cy="435" r="4" fill="white" stroke="black" />
<line x1="2575" y1="439" x2="2575" y2="439" stroke="black" />
<line x1="2571" y1="443" x2="2575" y2="435" stroke="blue" />
<line x1="2575" y1="443" x2="2579" y2="435" stroke="blue" />
<text x="2575" y="451" font-family="Verdana" font-size="8" text-anchor="middle"  dominant-baseline="middle" fill="black" > 424</text>
<text x="2650" y="7" font-family="Verdana" font-size="7" text-anchor="middle"  dominant-baseline="middle" fill="black" > C14</text>
<circle cx="2650" cy="15" r="4" fill="white" stroke="black" />
<line x1="2650" y1="19" x2="2650" y2="736" stroke="black" />
<circle cx="2650" cy="736" r="4" fill="white" stroke="black" />
<text x="2650" y="748" font-family="Verdana" font-size="8" text-anchor="middle"  dominant-baseline="middle" fill="black" > 721</text>
<text x="2750" y="7" font-family="Verdana" font-size="7" text-anchor="middle"  dominant-baseline="middle" fill="black" > C15</text>
<circle cx="2750" cy="15" r="4" fill="white" stroke="black" />
<line x1="2750" y1="19" x2="2750" y2="630" stroke="black" />
<line x1="2746" y1="634" x2="2750" y2="626" stroke="blue" />
<line x1="2750" y1="634" x2="2754" y2="626" stroke="blue" />
<text x="2750" y="642" font-family="Verdana" font-size="8" text-anchor="middle"  dominant-baseline="middle" fill="black" > 615</text>
<text x="2900" y="7" font-family="Verdana" font-size="7" text-anchor="middle"  dominant-baseline="middle" fill="black" > C16</text>
<circle cx="2900" cy="15" r="4" fill="white" stroke="black" />
<line x1="2900" y1="19" x2="2900" y2="330" stroke="black" />
<line x1="2850" y1="330" x2="2950" y2="330" stroke="black" />
<text x="2925" y="322" font-family="Verdana" font-size="8" text-anchor="middle"  dominant-baseline="middle" fill="black" > 315</text>
<circle cx="2850" cy="330" r="4" fill="white" stroke="black" />
<line x1="2850" y1="334" x2="2850" y2="330" stroke="black" />
<line x1="2846" y1="334" x2="2850" y2="326" stroke="blue" />
<line x1="2850" y1="334" x2="2854" y2="326" stroke="blue" />
<text x="2850" y="342" font-family="Verdana" font-size="8" text-anchor="middle"  dominant-baseline="middle" fill="black" > 315</text>
<circle cx="2950" cy="330" r="4" fill="white" stroke="black" />
<line x1="2950" y1="334" x2="2950" y2="508" stroke="black" />
<line x1="2946" y1="512" x2="2950" y2="504" stroke="blue" />
<line x1="2950" y1="512" x2="2954" y2="504" stroke="blue" />
<text x="2950" y="520" font-family="Verdana" font-size="8" text-anchor="middle"  dominant-baseline="middle" fill="black" > 493</text>
<text x="3100" y="7" font-family="Verdana" font-size="7" text-anchor="middle"  dominant-baseline="middle" fill="black" > C17</text>
<circle cx="3100" cy="15" r="4" fill="white" stroke="black" />
<line x1="3100" y1="19" x2="3100" y2="270" stroke="black" />
<line x1="3050" y1="270" x2="3150" y2="270" stroke="black" />
<text x="3125" y="262" font-family="Verdana" font-size="8" text-anchor="middle"  dominant-baseline="middle" fill="black" > 255</text>
<circle cx="3050" cy="270" r="4" fill="white" stroke="black" />
<line x1="3050" y1="274" x2="3050" y2="445" stroke="black" />
<line x1="3016" y1="445" x2="3084" y2="445" stroke="black" />
<text x="3058" y="437" font-family="Verdana" font-size="8" text-anchor="middle"  dominant-baseline="middle" fill="black" > 430</text>
<circle cx="3016" cy="445" r="4" fill="white" stroke="black" />
<line x1="3016" y1="449" x2="3016" y2="736" stroke="black" />
<circle cx="3016" cy="736" r="4" fill="white" stroke="black" />
<text x="3016" y="748" font-family="Verdana" font-size="8" text-anchor="middle"  dominant-baseline="middle" fill="black" > 721</text>
<circle cx="3049" cy="445" r="4" fill="white" stroke="black" />
<line x1="3049" y1="449" x2="3049" y2="736" stroke="black" />
<circle cx="3049" cy="736" r="4" fill="white" stroke="black" />
<text x="3049" y="748" font-family="Verdana" font-size="8" text-anchor="middle"  dominant-baseline="middle" fill="black" > 721</text>
<circle cx="3082" cy="445" r="4" fill="white" stroke="black" />
<line x1="3082" y1="449" x2="3082" y2="661" stroke="black" />
<line x1="3071" y1="661" x2="3094" y2="661" stroke="black" />
<text x="3084" y="653" font-family="Verdana" font-size="8" text-anchor="middle"  dominant-baseline="middle" fill="black" > 646</text>
<circle cx="3071" cy="661" r="4" fill="white" stroke="black" />
<circle cx="3082" cy="661" r="4" fill="white" stroke="black" />
<line x1="3071" y1="665" x2="3071" y2="670" stroke="black" />
<line x1="3071" y1="670" x2="3076" y2="673" stroke="black" />
<line x1="3082" y1="665" x2="3082" y2="670" stroke="black" />
<line x1="3082" y1="670" x2="3076" y2="673" stroke="black" />
<text x="3076" y="661" font-family="Verdana" font-size="8" text-anchor="middle"  dominant-baseline="middle" fill="black" > 658</text>
<circle cx="3076" cy="673" r="4" fill="white" stroke="black" />
<line x1="3076" y1="677" x2="3076" y2="736" stroke="black" />
<circle cx="3076" cy="736" r="4" fill="white" stroke="black" />
<text x="3076" y="748" font-family="Verdana" font-size="8" text-anchor="middle"  dominant-baseline="middle" fill="black" > 721</text>
<circle cx="3093" cy="661" r="4" fill="white" stroke="black" />
<line x1="3093" y1="665" x2="3093" y2="736" stroke="black" />
<circle cx="3093" cy="736" r="4" fill="white" stroke="black" />
<text x="3093" y="748" font-family="Verdana" font-size="8" text-anchor="middle"  dominant-baseline="middle" fill="black" > 721</text>
<circle cx="3150" cy="270" r="4" fill="white" stroke="black" />
<line x1="3150" y1="274" x2="3150" y2="614" stroke="black" />
<line x1="3116" y1="614" x2="3184" y2="614" stroke="black" />
<text x="3158" y="606" font-family="Verdana" font-size="8" text-anchor="middle"  dominant-baseline="middle" fill="black" > 599</text>
<circle cx="3116" cy="614" r="4" fill="white" stroke="black" />
<circle cx="3149" cy="614" r="4" fill="white" stroke="black" />
<line x1="3116" y1="618" x2="3116" y2="659" stroke="black" />
<line x1="3116" y1="659" x2="3132" y2="674" stroke="black" />
<line x1="3149" y1="618" x2="3149" y2="659" stroke="black" />
<line x1="3149" y1="659" x2="3132" y2="674" stroke="black" />
<text x="3132" y="662" font-family="Verdana" font-size="8" text-anchor="middle"  dominant-baseline="middle" fill="black" > 659</text>
<circle cx="3132" cy="674" r="4" fill="white" stroke="black" />
<line x1="3132" y1="678" x2="3132" y2="708" stroke="black" />
<line x1="3128" y1="704" x2="3136" y2="712" stroke="red" />
<line x1="3128" y1="712" x2="3136" y2="704" stroke="red" />
<text x="3132" y="720" font-family="Verdana" font-size="8" text-anchor="middle"  dominant-baseline="middle" fill="black" > 693</text>
<circle cx="3182" cy="614" r="4" fill="white" stroke="black" />
<line x1="3182" y1="618" x2="3182" y2="711" stroke="black" />
<line x1="3178" y1="707" x2="3186" y2="715" stroke="red" />
<line x1="3178" y1="715" x2="3186" y2="707" stroke="red" />
<text x="3182" y="723" font-family="Verdana" font-size="8" text-anchor="middle"  dominant-baseline="middle" fill="black" > 696</text>
</svg>
