<?xml version="1.0" encoding="utf-8"?>
<svg xmlns="http://www.w3.org/2000/svg" version="1.1" width="3650" height="750">
<rect width="3650" height="15" x="0" y="0" fill="white" />
<rect width="3650" height="15" x="0" y="735" fill="white" />
<rect width="25" height="750" x="0" y="0" fill="white" />
<rect width="25" height="750" x="3625" y="0" fill="white" />
<rect width="3610" height="144" x="25" y="15" fill="ghostwhite" />
<rect width="3610" height="144" x="25" y="159" fill="snow" />
<rect width="3610" height="144" x="25" y="303" fill="ghostwhite" />
<rect width="3610" height="144" x="25" y="447" fill="snow" />
<rect width="3610" height="144" x="25" y="591" fill="ghostwhite" />
<text x="12" y="87" font-family="Verdana" font-size="10" text-anchor="middle"  dominant-baseline="middle" fill="red" > D0</text>
<text x="12" y="231" font-family="Verdana" font-size="10" text-anchor="middle"  dominant-baseline="middle" fill="red" > D1</text>
<text x="12" y="375" font-family="Verdana" font-size="10" text-anchor="middle"  dominant-baseline="middle" fill="red" > D2</text>
<text x="12" y="519" font-family="Verdana" font-size="10" text-anchor="middle"  dominant-baseline="middle" fill="red" > D3</text>
<text x="12" y="663" font-family="Verdana" font-size="10" text-anchor="middle"  dominant-baseline="middle" fill="red" > D4</text>
<text x="12" y="20" font-family="Verdana" font-size="10" text-anchor="middle"  dominant-baseline="middle" fill="black" > 0</text>
<text x="12" y="164" font-family="Verdana" font-size="10" text-anchor="middle"  dominant-baseline="middle" fill="black" > 144</text>
<text x="12" y="308" font-family="Verdana" font-size="10" text-anchor="middle"  dominant-baseline="middle" fill="black" > 288</text>
<text x="12" y="452" font-family="Verdana" font-size="10" text-anchor="middle"  dominant-baseline="middle" fill="black" > 432</text>
<text x="12" y="596" font-family="Verdana" font-size="10" text-anchor="middle"  dominant-baseline="middle" fill="black" > 576</text>
<text x="12" y="740" font-family="Verdana" font-size="10" text-anchor="middle"  dominant-baseline="middle" fill="black" > 720</text>
<text x="100" y="7" font-family="Verdana" font-size="7" text-anchor="middle"  dominant-baseline="middle" fill="black" > C1</text>
<circle cx="100" cy="15" r="4" fill="white" stroke="black" />
<line x1="100" y1="19" x2="100" y2="20" stroke="black" />
<line x1="50" y1="20" x2="150" y2="20" stroke="black" />
<text x="125" y="12" font-family="Verdana" font-size="8" text-anchor="middle"  dominant-baseline="middle" fill="black" > 5</text>
<circle cx="50" cy="20" r="4" fill="white" stroke="black" />
<line x1="50" y1="24" x2="50" y2="110" stroke="black" />
<line x1="46" y1="106" x2="54" y2="114" stroke="red" />
<line x1="46" y1="114" x2="54" y2="106" stroke="red" />
<text x="50" y="122" font-family="Verdana" font-size="8" text-anchor="middle"  dominant-baseline="middle" fill="black" > 95</text>
<circle cx="150" cy="20" r="4" fill="white" stroke="black" />
<line x1="150" y1="24" x2="150" y2="222" stroke="black" />
<line x1="125" y1="222" x2="175" y2="222" stroke="black" />
<text x="162" y="214" font-family="Verdana" font-size="8" text-anchor="middle"  dominant-baseline="middle" fill="black" > 207</text>
<circle cx="125" cy="222" r="4" fill="white" stroke="black" />
<line x1="125" y1="226" x2="125" y2="536" stroke="black" />
<line x1="121" y1="532" x2="129" y2="540" stroke="red" />
<line x1="121" y1="540" x2="129" y2="532" stroke="red" />
<text x="125" y="548" font-family="Verdana" font-size="8" text-anchor="middle"  dominant-baseline="middle" fill="black" > 521</text>
<circle cx="175" cy="222" r="4" fill="white" stroke="black" />
<line x1="175" y1="226" x2="175" y2="537" stroke="black" />
<line x1="171" y1="533" x2="179" y2="541" stroke="red" />
<line x1="171" y1="541" x2="179" y2="533" stroke="red" />
<text x="175" y="549" font-family="Verdana" font-size="8" text-anchor="middle"  dominant-baseline="middle" fill="black" > 522</text>
<text x="300" y="7" font-family="Verdana" font-size="7" text-anchor="middle"  dominant-baseline="middle" fill="black" > C2</text>
<circle cx="300" cy="15" r="4" fill="white" stroke="black" />
<line x1="300" y1="19" x2="300" y2="246" stroke="black" />
<line x1="250" y1="246" x2="350" y2="246" stroke="black" />
<text x="325" y="238" font-family="Verdana" font-size="8" text-anchor="middle"  dominant-baseline="middle" fill="black" > 231</text>
<circle cx="250" cy="246" r="4" fill="white" stroke="black" />
<circle cx="350" cy="246" r="4" fill="white" stroke="black" />
<line x1="250" y1="250" x2="250" y2="268" stroke="black" />
<line x1="250" y1="268" x2="300" y2="275" stroke="black" />
<line x1="350" y1="250" x2="350" y2="268" stroke="black" />
<line x1="350" y1="268" x2="300" y2="275" stroke="black" />
<text x="300" y="263" font-family="Verdana" font-size="8" text-anchor="middle"  dominant-baseline="middle" fill="black" > 260</text>
<circle cx="300" cy="275" r="4" fill="white" stroke="black" />
<line x1="300" y1="279" x2="300" y2="343" stroke="black" />
<line x1="296" y1="339" x2="304" y2="347" stroke="red" />
<line x1="296" y1="347" x2="304" y2="339" stroke="red" />
<text x="300" y="355" font-family="Verdana" font-size="8" text-anchor="middle"  dominant-baseline="middle" fill="black" > 328</text>
<text x="500" y="7" font-family="Verdana" font-size="7" text-anchor="middle"  dominant-baseline="middle" fill="black" > C3</text>
<circle cx="500" cy="15" r="4" fill="white" stroke="black" />
<line x1="500" y1="19" x2="500" y2="219" stroke="black" />
<line x1="450" y1="219" x2="550" y2="219" stroke="black" />
<text x="525" y="211" font-family="Verdana" font-size="8" text-anchor="middle"  dominant-baseline="middle" fill="black" > 204</text>
<circle cx="450" cy="219" r="4" fill="white" stroke="black" />
<line x1="450" y1="223" x2="450" y2="466" stroke="black" />
<line x1="446" y1="462" x2="454" y2="470" stroke="red" />
<line x1="446" y1="470" x2="454" y2="462" stroke="red" />
<text x="450" y="478" font-family="Verdana" font-size="8" text-anchor="middle"  dominant-baseline="middle" fill="black" > 451</text>
<circle cx="550" cy="219" r="4" fill="white" stroke="black" />
<line x1="550" y1="223" x2="550" y2="466" stroke="black" />
<line x1="546" y1="462" x2="554" y2="470" stroke="red" />
<line x1="546" y1="470" x2="554" y2="462" stroke="red" />
<text x="550" y="478" font-family="Verdana" font-size="8" text-anchor="middle"  dominant-baseline="middle" fill="black" > 451</text>
<text x="650" y="7" font-family="Verdana" font-size="7" text-anchor="middle"  dominant-baseline="middle" fill="black" > C4</text>
<circle cx="650" cy="15" r="4" fill="white" stroke="black" />
<line x1="650" y1="19" x2="650" y2="353" stroke="black" />
<line x1="646" y1="349" x2="654" y2="357" stroke="red" />
<line x1="646" y1="357" x2="654" y2="349" stroke="red" />
<text x="650" y="365" font-family="Verdana" font-size="8" text-anchor="middle"  dominant-baseline="middle" fill="black" > 338</text>
<text x="750" y="7" font-family="Verdana" font-size="7" text-anchor="middle"  dominant-baseline="middle" fill="black" > C5</text>
<circle cx="750" cy="15" r="4" fill="white" stroke="black" />
<line x1="750" y1="19" x2="750" y2="667" stroke="black" />
<line x1="746" y1="663" x2="754" y2="671" stroke="red" />
<line x1="746" y1="671" x2="754" y2="663" stroke="red" />
<text x="750" y="679" font-family="Verdana" font-size="8" text-anchor="middle"  dominant-baseline="middle" fill="black" > 652</text>
<text x="950" y="7" font-family="Verdana" font-size="7" text-anchor="middle"  dominant-baseline="middle" fill="black" > C6</text>
<circle cx="950" cy="15" r="4" fill="white" stroke="black" />
<line x1="950" y1="19" x2="950" y2="467" stroke="black" />
<line x1="850" y1="467" x2="1050" y2="467" stroke="black" />
<text x="975" y="459" font-family="Verdana" font-size="8" text-anchor="middle"  dominant-baseline="middle" fill="black" > 452</text>
<circle cx="850" cy="467" r="4" fill="white" stroke="black" />
<line x1="850" y1="471" x2="850" y2="736" stroke="black" />
<circle cx="850" cy="736" r="4" fill="white" stroke="black" />
<text x="850" y="748" font-family="Verdana" font-size="8" text-anchor="middle"  dominant-baseline="middle" fill="black" > 721</text>
<circle cx="950" cy="467" r="4" fill="white" stroke="black" />
<line x1="950" y1="471" x2="950" y2="632" stroke="black" />
<line x1="946" y1="628" x2="954" y2="636" stroke="red" />
<line x1="946" y1="636" x2="954" y2="628" stroke="red" />
<text x="950" y="644" font-family="Verdana" font-size="8" text-anchor="middle"  dominant-baseline="middle" fill="black" > 617</text>
<circle cx="1050" cy="467" r="4" fill="white" stroke="black" />
<line x1="1050" y1="471" x2="1050" y2="681" stroke="black" />
<line x1="1046" y1="677" x2="1054" y2="685" stroke="red" />
<line x1="1046" y1="685" x2="1054" y2="677" stroke="red" />
<text x="1050" y="693" font-family="Verdana" font-size="8" text-anchor="middle"  dominant-baseline="middle" fill="black" > 666</text>
<text x="1200" y="7" font-family="Verdana" font-size="7" text-anchor="middle"  dominant-baseline="middle" fill="black" > C7</text>
<circle cx="1200" cy="15" r="4" fill="white" stroke="black" />
<line x1="1200" y1="19" x2="1200" y2="229" stroke="black" />
<line x1="1150" y1="229" x2="1250" y2="229" stroke="black" />
<text x="1225" y="221" font-family="Verdana" font-size="8" text-anchor="middle"  dominant-baseline="middle" fill="black" > 214</text>
<circle cx="1150" cy="229" r="4" fill="white" stroke="black" />
<circle cx="1250" cy="229" r="4" fill="white" stroke="black" />
<line x1="1150" y1="233" x2="1150" y2="301" stroke="black" />
<line x1="1150" y1="301" x2="1200" y2="325" stroke="black" />
<line x1="1250" y1="233" x2="1250" y2="301" stroke="black" />
<line x1="1250" y1="301" x2="1200" y2="325" stroke="black" />
<text x="1200" y="313" font-family="Verdana" font-size="8" text-anchor="middle"  dominant-baseline="middle" fill="black" > 310</text>
<circle cx="1200" cy="325" r="4" fill="white" stroke="black" />
<line x1="1200" y1="329" x2="1200" y2="534" stroke="black" />
<line x1="1175" y1="534" x2="1225" y2="534" stroke="black" />
<text x="1212" y="526" font-family="Verdana" font-size="8" text-anchor="middle"  dominant-baseline="middle" fill="black" > 519</text>
<circle cx="1175" cy="534" r="4" fill="white" stroke="black" />
<line x1="1175" y1="538" x2="1175" y2="736" stroke="black" />
<circle cx="1175" cy="736" r="4" fill="white" stroke="black" />
<text x="1175" y="748" font-family="Verdana" font-size="8" text-anchor="middle"  dominant-baseline="middle" fill="black" > 721</text>
<circle cx="1225" cy="534" r="4" fill="white" stroke="black" />
<line x1="1225" y1="538" x2="1225" y2="736" stroke="black" />
<circle cx="1225" cy="736" r="4" fill="white" stroke="black" />
<text x="1225" y="748" font-family="Verdana" font-size="8" text-anchor="middle"  dominant-baseline="middle" fill="black" > 721</text>
<text x="1400" y="7" font-family="Verdana" font-size="7" text-anchor="middle"  dominant-baseline="middle" fill="black" > C8</text>
<circle cx="1400" cy="15" r="4" fill="white" stroke="black" />
<line x1="1400" y1="19" x2="1400" y2="204" stroke="black" />
<line x1="1350" y1="204" x2="1450" y2="204" stroke="black" />
<text x="1425" y="196" font-family="Verdana" font-size="8" text-anchor="middle"  dominant-baseline="middle" fill="black" > 189</text>
<circle cx="1350" cy="204" r="4" fill="white" stroke="black" />
<circle cx="1450" cy="204" r="4" fill="white" stroke="black" />
<line x1="1350" y1="208" x2="1350" y2="315" stroke="black" />
<line x1="1350" y1="315" x2="1400" y2="352" stroke="black" />
<line x1="1450" y1="208" x2="1450" y2="315" stroke="black" />
<line x1="1450" y1="315" x2="1400" y2="352" stroke="black" />
<text x="1400" y="340" font-family="Verdana" font-size="8" text-anchor="middle"  dominant-baseline="middle" fill="black" > 337</text>
<circle cx="1400" cy="352" r="4" fill="white" stroke="black" />
<line x1="1400" y1="356" x2="1400" y2="412" stroke="black" />
<line x1="1366" y1="412" x2="1434" y2="412" stroke="black" />
<text x="1408" y="404" font-family="Verdana" font-size="8" text-anchor="middle"  dominant-baseline="middle" fill="black" > 397</text>
<circle cx="1366" cy="412" r="4" fill="white" stroke="black" />
<circle cx="1399" cy="412" r="4" fill="white" stroke="black" />
<circle cx="1432" cy="412" r="4" fill="white" stroke="black" />
<line x1="1399" y1="416" x2="1399" y2="415" stroke="black" />
<line x1="1399" y1="415" x2="1415" y2="416" stroke="black" />
<line x1="1432" y1="416" x2="1432" y2="415" stroke="black" />
<line x1="1432" y1="415" x2="1415" y2="416" stroke="black" />
<text x="1415" y="404" font-family="Verdana" font-size="8" text-anchor="middle"  dominant-baseline="middle" fill="black" > 401</text>
<circle cx="1415" cy="416" r="4" fill="white" stroke="black" />
<line x1="1366" y1="416" x2="1366" y2="476" stroke="black" />
<line x1="1366" y1="476" x2="1390" y2="495" stroke="black" />
<line x1="1415" y1="420" x2="1415" y2="476" stroke="black" />
<line x1="1415" y1="476" x2="1390" y2="495" stroke="black" />
<text x="1390" y="483" font-family="Verdana" font-size="8" text-anchor="middle"  dominant-baseline="middle" fill="black" > 480</text>
<circle cx="1390" cy="495" r="4" fill="white" stroke="black" />
<line x1="1390" y1="499" x2="1390" y2="561" stroke="black" />
<line x1="1386" y1="557" x2="1394" y2="565" stroke="red" />
<line x1="1386" y1="565" x2="1394" y2="557" stroke="red" />
<text x="1390" y="573" font-family="Verdana" font-size="8" text-anchor="middle"  dominant-baseline="middle" fill="black" > 546</text>
<text x="1600" y="7" font-family="Verdana" font-size="7" text-anchor="middle"  dominant-baseline="middle" fill="black" > C9</text>
<circle cx="1600" cy="15" r="4" fill="white" stroke="black" />
<line x1="1600" y1="19" x2="1600" y2="276" stroke="black" />
<line x1="1550" y1="276" x2="1650" y2="276" stroke="black" />
<text x="1625" y="268" font-family="Verdana" font-size="8" text-anchor="middle"  dominant-baseline="middle" fill="black" > 261</text>
<circle cx="1550" cy="276" r="4" fill="white" stroke="black" />
<line x1="1550" y1="280" x2="1550" y2="499" stroke="black" />
<line x1="1525" y1="499" x2="1575" y2="499" stroke="black" />
<text x="1562" y="491" font-family="Verdana" font-size="8" text-anchor="middle"  dominant-baseline="middle" fill="black" > 484</text>
<circle cx="1525" cy="499" r="4" fill="white" stroke="black" />
<line x1="1525" y1="503" x2="1525" y2="736" stroke="black" />
<circle cx="1525" cy="736" r="4" fill="white" stroke="black" />
<text x="1525" y="748" font-family="Verdana" font-size="8" text-anchor="middle"  dominant-baseline="middle" fill="black" > 721</text>
<circle cx="1575" cy="499" r="4" fill="white" stroke="black" />
<line x1="1575" y1="503" x2="1575" y2="736" stroke="black" />
<circle cx="1575" cy="736" r="4" fill="white" stroke="black" />
<text x="1575" y="748" font-family="Verdana" font-size="8" text-anchor="middle"  dominant-baseline="middle" fill="black" > 721</text>
<circle cx="1650" cy="276" r="4" fill="white" stroke="black" />
<line x1="1650" y1="280" x2="1650" y2="474" stroke="black" />
<line x1="1625" y1="474" x2="1675" y2="474" stroke="black" />
<text x="1662" y="466" font-family="Verdana" font-size="8" text-anchor="middle"  dominant-baseline="middle" fill="black" > 459</text>
<circle cx="1625" cy="474" r="4" fill="white" stroke="black" />
<line x1="1625" y1="478" x2="1625" y2="515" stroke="black" />
<line x1="1621" y1="511" x2="1629" y2="519" stroke="red" />
<line x1="1621" y1="519" x2="1629" y2="511" stroke="red" />
<text x="1625" y="527" font-family="Verdana" font-size="8" text-anchor="middle"  dominant-baseline="middle" fill="black" > 500</text>
<circle cx="1675" cy="474" r="4" fill="white" stroke="black" />
<line x1="1675" y1="478" x2="1675" y2="524" stroke="black" />
<line x1="1671" y1="520" x2="1679" y2="528" stroke="red" />
<line x1="1671" y1="528" x2="1679" y2="520" stroke="red" />
<text x="1675" y="536" font-family="Verdana" font-size="8" text-anchor="middle"  dominant-baseline="middle" fill="black" > 509</text>
<text x="1800" y="7" font-family="Verdana" font-size="7" text-anchor="middle"  dominant-baseline="middle" fill="black" > C10</text>
<circle cx="1800" cy="15" r="4" fill="white" stroke="black" />
<line x1="1800" y1="19" x2="1800" y2="319" stroke="black" />
<line x1="1750" y1="319" x2="1850" y2="319" stroke="black" />
<text x="1825" y="311" font-family="Verdana" font-size="8" text-anchor="middle"  dominant-baseline="middle" fill="black" > 304</text>
<circle cx="1750" cy="319" r="4" fill="white" stroke="black" />
<line x1="1750" y1="323" x2="1750" y2="548" stroke="black" />
<line x1="1725" y1="548" x2="1775" y2="548" stroke="black" />
<text x="1762" y="540" font-family="Verdana" font-size="8" text-anchor="middle"  dominant-baseline="middle" fill="black" > 533</text>
<circle cx="1725" cy="548" r="4" fill="white" stroke="black" />
<line x1="1725" y1="552" x2="1725" y2="695" stroke="black" />
<line x1="1712" y1="695" x2="1738" y2="695" stroke="black" />
<text x="1731" y="687" font-family="Verdana" font-size="8" text-anchor="middle"  dominant-baseline="middle" fill="black" > 680</text>
<circle cx="1712" cy="695" r="4" fill="white" stroke="black" />
<line x1="1712" y1="699" x2="1712" y2="736" stroke="black" />
<circle cx="1712" cy="736" r="4" fill="white" stroke="black" />
<text x="1712" y="748" font-family="Verdana" font-size="8" text-anchor="middle"  dominant-baseline="middle" fill="black" > 721</text>
<circle cx="1737" cy="695" r="4" fill="white" stroke="black" />
<line x1="1737" y1="699" x2="1737" y2="736" stroke="black" />
<circle cx="1737" cy="736" r="4" fill="white" stroke="black" />
<text x="1737" y="748" font-family="Verdana" font-size="8" text-anchor="middle"  dominant-baseline="middle" fill="black" > 721</text>
<circle cx="1775" cy="548" r="4" fill="white" stroke="black" />
<line x1="1775" y1="552" x2="1775" y2="696" stroke="black" />
<line x1="1762" y1="696" x2="1788" y2="696" stroke="black" />
<text x="1781" y="688" font-family="Verdana" font-size="8" text-anchor="middle"  dominant-baseline="middle" fill="black" > 681</text>
<circle cx="1762" cy="696" r="4" fill="white" stroke="black" />
<line x1="1762" y1="700" x2="1762" y2="736" stroke="black" />
<circle cx="1762" cy="736" r="4" fill="white" stroke="black" />
<text x="1762" y="748" font-family="Verdana" font-size="8" text-anchor="middle"  dominant-baseline="middle" fill="black" > 721</text>
<circle cx="1787" cy="696" r="4" fill="white" stroke="black" />
<line x1="1787" y1="700" x2="1787" y2="736" stroke="black" />
<circle cx="1787" cy="736" r="4" fill="white" stroke="black" />
<text x="1787" y="748" font-family="Verdana" font-size="8" text-anchor="middle"  dominant-baseline="middle" fill="black" > 721</text>
<circle cx="1850" cy="319" r="4" fill="white" stroke="black" />
<line x1="1850" y1="323" x2="1850" y2="533" stroke="black" />
<line x1="1825" y1="533" x2="1875" y2="533" stroke="black" />
<text x="1862" y="525" font-family="Verdana" font-size="8" text-anchor="middle"  dominant-baseline="middle" fill="black" > 518</text>
<circle cx="1825" cy="533" r="4" fill="white" stroke="black" />
<line x1="1825" y1="537" x2="1825" y2="736" stroke="black" />
<circle cx="1825" cy="736" r="4" fill="white" stroke="black" />
<text x="1825" y="748" font-family="Verdana" font-size="8" text-anchor="middle"  dominant-baseline="middle" fill="black" > 721</text>
<circle cx="1875" cy="533" r="4" fill="white" stroke="black" />
<line x1="1875" y1="537" x2="1875" y2="736" stroke="black" />
<circle cx="1875" cy="736" r="4" fill="white" stroke="black" />
<text x="1875" y="748" font-family="Verdana" font-size="8" text-anchor="middle"  dominant-baseline="middle" fill="black" > 721</text>
<text x="1950" y="7" font-family="Verdana" font-size="7" text-anchor="middle"  dominant-baseline="middle" fill="black" > C11</text>
<circle cx="1950" cy="15" r="4" fill="white" stroke="black" />
<line x1="1950" y1="19" x2="1950" y2="61" stroke="black" />
<line x1="1946" y1="65" x2="1950" y2="57" stroke="blue" />
<line x1="1950" y1="65" x2="1954" y2="57" stroke="blue" />
<text x="1950" y="73" font-family="Verdana" font-size="8" text-anchor="middle"  dominant-baseline="middle" fill="black" > 46</text>
<text x="2050" y="7" font-family="Verdana" font-size="7" text-anchor="middle"  dominant-baseline="middle" fill="black" > C12</text>
<circle cx="2050" cy="15" r="4" fill="white" stroke="black" />
<line x1="2050" y1="19" x2="2050" y2="328" stroke="black" />
<line x1="2046" y1="332" x2="2050" y2="324" stroke="blue" />
<line x1="2050" y1="332" x2="2054" y2="324" stroke="blue" />
<text x="2050" y="340" font-family="Verdana" font-size="8" text-anchor="middle"  dominant-baseline="middle" fill="black" > 313</text>
<text x="2250" y="7" font-family="Verdana" font-size="7" text-anchor="middle"  dominant-baseline="middle" fill="black" > C13</text>
<circle cx="2250" cy="15" r="4" fill="white" stroke="black" />
<line x1="2250" y1="19" x2="2250" y2="358" stroke="black" />
<line x1="2150" y1="358" x2="2350" y2="358" stroke="black" />
<text x="2275" y="350" font-family="Verdana" font-size="8" text-anchor="middle"  dominant-baseline="middle" fill="black" > 343</text>
<circle cx="2150" cy="358" r="4" fill="white" stroke="black" />
<circle cx="2250" cy="358" r="4" fill="white" stroke="black" />
<line x1="2150" y1="362" x2="2150" y2="369" stroke="black" />
<line x1="2150" y1="369" x2="2200" y2="372" stroke="black" />
<line x1="2250" y1="362" x2="2250" y2="369" stroke="black" />
<line x1="2250" y1="369" x2="2200" y2="372" stroke="black" />
<text x="2200" y="360" font-family="Verdana" font-size="8" text-anchor="middle"  dominant-baseline="middle" fill="black" > 357</text>
<circle cx="2200" cy="372" r="4" fill="white" stroke="black" />
<circle cx="2350" cy="358" r="4" fill="white" stroke="black" />
<line x1="2200" y1="376" x2="2200" y2="374" stroke="black" />
<line x1="2200" y1="374" x2="2275" y2="374" stroke="black" />
<line x1="2350" y1="362" x2="2350" y2="374" stroke="black" />
<line x1="2350" y1="374" x2="2275" y2="374" stroke="black" />
<text x="2275" y="362" font-family="Verdana" font-size="8" text-anchor="middle"  dominant-baseline="middle" fill="black" > 359</text>
<circle cx="2275" cy="374" r="4" fill="white" stroke="black" />
<line x1="2275" y1="378" x2="2275" y2="736" stroke="black" />
<circle cx="2275" cy="736" r="4" fill="white" stroke="black" />
<text x="2275" y="748" font-family="Verdana" font-size="8" text-anchor="middle"  dominant-baseline="middle" fill="black" > 721</text>
<text x="2600" y="7" font-family="Verdana" font-size="7" text-anchor="middle"  dominant-baseline="middle" fill="black" > C14</text>
<circle cx="2600" cy="15" r="4" fill="white" stroke="black" />
<line x1="2600" y1="19" x2="2600" y2="566" stroke="black" />
<line x1="2450" y1="566" x2="2750" y2="566" stroke="black" />
<text x="2625" y="558" font-family="Verdana" font-size="8" text-anchor="middle"  dominant-baseline="middle" fill="black" > 551</text>
<circle cx="2450" cy="566" r="4" fill="white" stroke="black" />
<circle cx="2550" cy="566" r="4" fill="white" stroke="black" />
<circle cx="2650" cy="566" r="4" fill="white" stroke="black" />
<line x1="2450" y1="570" x2="2450" y2="579" stroke="black" />
<line x1="2450" y1="579" x2="2550" y2="583" stroke="black" />
<line x1="2550" y1="570" x2="2550" y2="579" stroke="black" />
<line x1="2550" y1="579" x2="2550" y2="583" stroke="black" />
<line x1="2650" y1="570" x2="2650" y2="579" stroke="black" />
<line x1="2650" y1="579" x2="2550" y2="583" stroke="black" />
<text x="2550" y="571" font-family="Verdana" font-size="8" text-anchor="middle"  dominant-baseline="middle" fill="black" > 568</text>
<circle cx="2550" cy="583" r="4" fill="white" stroke="black" />
<circle cx="2750" cy="566" r="4" fill="white" stroke="black" />
<line x1="2750" y1="570" x2="2750" y2="570" stroke="black" />
<line x1="2746" y1="566" x2="2754" y2="574" stroke="red" />
<line x1="2746" y1="574" x2="2754" y2="566" stroke="red" />
<text x="2750" y="582" font-family="Verdana" font-size="8" text-anchor="middle"  dominant-baseline="middle" fill="black" > 555</text>
<circle cx="2850" cy="350" r="4" fill="white" stroke="black" />
<line x1="2550" y1="587" x2="2550" y2="613" stroke="black" />
<line x1="2550" y1="613" x2="2700" y2="623" stroke="black" />
<line x1="2850" y1="354" x2="2850" y2="613" stroke="black" />
<line x1="2850" y1="613" x2="2700" y2="623" stroke="black" />
<text x="2700" y="611" font-family="Verdana" font-size="8" text-anchor="middle"  dominant-baseline="middle" fill="black" > 608</text>
<circle cx="2700" cy="623" r="4" fill="white" stroke="black" />
<line x1="2700" y1="627" x2="2700" y2="736" stroke="black" />
<circle cx="2700" cy="736" r="4" fill="white" stroke="black" />
<text x="2700" y="748" font-family="Verdana" font-size="8" text-anchor="middle"  dominant-baseline="middle" fill="black" > 721</text>
<text x="3000" y="7" font-family="Verdana" font-size="7" text-anchor="middle"  dominant-baseline="middle" fill="black" > C15</text>
<circle cx="3000" cy="15" r="4" fill="white" stroke="black" />
<line x1="3000" y1="19" x2="3000" y2="309" stroke="black" />
<line x1="2950" y1="309" x2="3050" y2="309" stroke="black" />
<text x="3025" y="301" font-family="Verdana" font-size="8" text-anchor="middle"  dominant-baseline="middle" fill="black" > 294</text>
<circle cx="2950" cy="309" r="4" fill="white" stroke="black" />
<line x1="2950" y1="313" x2="2950" y2="653" stroke="black" />
<line x1="2925" y1="653" x2="2975" y2="653" stroke="black" />
<text x="2962" y="645" font-family="Verdana" font-size="8" text-anchor="middle"  dominant-baseline="middle" fill="black" > 638</text>
<circle cx="2925" cy="653" r="4" fill="white" stroke="black" />
<line x1="2925" y1="657" x2="2925" y2="736" stroke="black" />
<circle cx="2925" cy="736" r="4" fill="white" stroke="black" />
<text x="2925" y="748" font-family="Verdana" font-size="8" text-anchor="middle"  dominant-baseline="middle" fill="black" > 721</text>
<circle cx="2975" cy="653" r="4" fill="white" stroke="black" />
<line x1="2975" y1="657" x2="2975" y2="736" stroke="black" />
<circle cx="2975" cy="736" r="4" fill="white" stroke="black" />
<text x="2975" y="748" font-family="Verdana" font-size="8" text-anchor="middle"  dominant-baseline="middle" fill="black" > 721</text>
<circle cx="3050" cy="309" r="4" fill="white" stroke="black" />
<line x1="3050" y1="313" x2="3050" y2="528" stroke="black" />
<line x1="3025" y1="528" x2="3075" y2="528" stroke="black" />
<text x="3062" y="520" font-family="Verdana" font-size="8" text-anchor="middle"  dominant-baseline="middle" fill="black" > 513</text>
<circle cx="3025" cy="528" r="4" fill="white" stroke="black" />
<line x1="3025" y1="532" x2="3025" y2="735" stroke="black" />
<line x1="3012" y1="735" x2="3038" y2="735" stroke="black" />
<text x="3031" y="727" font-family="Verdana" font-size="8" text-anchor="middle"  dominant-baseline="middle" fill="black" > 720</text>
<circle cx="3012" cy="735" r="4" fill="white" stroke="black" />
<line x1="3012" y1="739" x2="3012" y2="736" stroke="black" />
<circle cx="3012" cy="736" r="4" fill="white" stroke="black" />
<text x="3012" y="748" font-family="Verdana" font-size="8" text-anchor="middle"  dominant-baseline="middle" fill="black" > 721</text>
<circle cx="3037" cy="735" r="4" fill="white" stroke="black" />
<line x1="3037" y1="739" x2="3037" y2="736" stroke="black" />
<circle cx="3037" cy="736" r="4" fill="white" stroke="black" />
<text x="3037" y="748" font-family="Verdana" font-size="8" text-anchor="middle"  dominant-baseline="middle" fill="black" > 721</text>
<circle cx="3075" cy="528" r="4" fill="white" stroke="black" />
<line x1="3075" y1="532" x2="3075" y2="698" stroke="black" />
<line x1="3071" y1="694" x2="3079" y2="702" stroke="red" />
<line x1="3071" y1="702" x2="3079" y2="694" stroke="red" />
<text x="3075" y="710" font-family="Verdana" font-size="8" text-anchor="middle"  dominant-baseline="middle" fill="black" > 683</text>
<text x="3200" y="7" font-family="Verdana" font-size="7" text-anchor="middle"  dominant-baseline="middle" fill="black" > C16</text>
<circle cx="3200" cy="15" r="4" fill="white" stroke="black" />
<line x1="3200" y1="19" x2="3200" y2="330" stroke="black" />
<line x1="3150" y1="330" x2="3250" y2="330" stroke="black" />
<text x="3225" y="322" font-family="Verdana" font-size="8" text-anchor="middle"  dominant-baseline="middle" fill="black" > 315</text>
<circle cx="3150" cy="330" r="4" fill="white" stroke="black" />
<line x1="3150" y1="334" x2="3150" y2="736" stroke="black" />
<circle cx="3150" cy="736" r="4" fill="white" stroke="black" />
<text x="3150" y="748" font-family="Verdana" font-size="8" text-anchor="middle"  dominant-baseline="middle" fill="black" > 721</text>
<circle cx="3250" cy="330" r="4" fill="white" stroke="black" />
<line x1="3250" y1="334" x2="3250" y2="712" stroke="black" />
<line x1="3216" y1="712" x2="3284" y2="712" stroke="black" />
<text x="3258" y="704" font-family="Verdana" font-size="8" text-anchor="middle"  dominant-baseline="middle" fill="black" > 697</text>
<circle cx="3216" cy="712" r="4" fill="white" stroke="black" />
<line x1="3216" y1="716" x2="3216" y2="726" stroke="black" />
<line x1="3212" y1="722" x2="3220" y2="730" stroke="red" />
<line x1="3212" y1="730" x2="3220" y2="722" stroke="red" />
<text x="3216" y="738" font-family="Verdana" font-size="8" text-anchor="middle"  dominant-baseline="middle" fill="black" > 711</text>
<circle cx="3249" cy="712" r="4" fill="white" stroke="black" />
<circle cx="3282" cy="712" r="4" fill="white" stroke="black" />
<line x1="3249" y1="716" x2="3249" y2="720" stroke="black" />
<line x1="3249" y1="720" x2="3265" y2="722" stroke="black" />
<line x1="3282" y1="716" x2="3282" y2="720" stroke="black" />
<line x1="3282" y1="720" x2="3265" y2="722" stroke="black" />
<text x="3265" y="710" font-family="Verdana" font-size="8" text-anchor="middle"  dominant-baseline="middle" fill="black" > 707</text>
<circle cx="3265" cy="722" r="4" fill="white" stroke="black" />
<line x1="3265" y1="726" x2="3265" y2="725" stroke="black" />
<line x1="3261" y1="721" x2="3269" y2="729" stroke="red" />
<line x1="3261" y1="729" x2="3269" y2="721" stroke="red" />
<text x="3265" y="737" font-family="Verdana" font-size="8" text-anchor="middle"  dominant-baseline="middle" fill="black" > 710</text>
<text x="3400" y="7" font-family="Verdana" font-size="7" text-anchor="middle"  dominant-baseline="middle" fill="black" > C17</text>
<circle cx="3400" cy="15" r="4" fill="white" stroke="black" />
<line x1="3400" y1="19" x2="3400" y2="235" stroke="black" />
<line x1="3350" y1="235" x2="3450" y2="235" stroke="black" />
<text x="3425" y="227" font-family="Verdana" font-size="8" text-anchor="middle"  dominant-baseline="middle" fill="black" > 220</text>
<circle cx="3350" cy="235" r="4" fill="white" stroke="black" />
<circle cx="3450" cy="235" r="4" fill="white" stroke="black" />
<line x1="3350" y1="239" x2="3350" y2="432" stroke="black" />
<line x1="3350" y1="432" x2="3400" y2="497" stroke="black" />
<line x1="3450" y1="239" x2="3450" y2="432" stroke="black" />
<line x1="3450" y1="432" x2="3400" y2="497" stroke="black" />
<text x="3400" y="485" font-family="Verdana" font-size="8" text-anchor="middle"  dominant-baseline="middle" fill="black" > 482</text>
<circle cx="3400" cy="497" r="4" fill="white" stroke="black" />
<line x1="3400" y1="501" x2="3400" y2="592" stroke="black" />
<line x1="3396" y1="596" x2="3400" y2="588" stroke="blue" />
<line x1="3400" y1="596" x2="3404" y2="588" stroke="blue" />
<text x="3400" y="604" font-family="Verdana" font-size="8" text-anchor="middle"  dominant-baseline="middle" fill="black" > 577</text>
<text x="3550" y="7" font-family="Verdana" font-size="7" text-anchor="middle"  dominant-baseline="middle" fill="black" > C18</text>
<circle cx="3550" cy="15" r="4" fill="white" stroke="black" />
<line x1="3550" y1="19" x2="3550" y2="152" stroke="black" />
<line x1="3546" y1="156" x2="3550" y2="148" stroke="blue" />
<line x1="3550" y1="156" x2="3554" y2="148" stroke="blue" />
<text x="3550" y="164" font-family="Verdana" font-size="8" text-anchor="middle"  dominant-baseline="middle" fill="black" > 137</text>
</svg>
