<?xml version="1.0" encoding="utf-8"?>
<svg xmlns="http://www.w3.org/2000/svg" version="1.1" width="2750" height="750">
<rect width="2750" height="15" x="0" y="0" fill="white" />
<rect width="2750" height="15" x="0" y="735" fill="white" />
<rect width="25" height="750" x="0" y="0" fill="white" />
<rect width="25" height="750" x="2725" y="0" fill="white" />
<rect width="2710" height="144" x="25" y="15" fill="ghostwhite" />
<rect width="2710" height="144" x="25" y="159" fill="snow" />
<rect width="2710" height="144" x="25" y="303" fill="ghostwhite" />
<rect width="2710" height="144" x="25" y="447" fill="snow" />
<rect width="2710" height="144" x="25" y="591" fill="ghostwhite" />
<text x="12" y="87" font-family="Verdana" font-size="10" text-anchor="middle"  dominant-baseline="middle" fill="red" > D0</text>
<text x="12" y="231" font-family="Verdana" font-size="10" text-anchor="middle"  dominant-baseline="middle" fill="red" > D1</text>
<text x="12" y="375" font-family="Verdana" font-size="10" text-anchor="middle"  dominant-baseline="middle" fill="red" > D2</text>
<text x="12" y="519" font-family="Verdana" font-size="10" text-anchor="middle"  dominant-baseline="middle" fill="red" > D3</text>
<text x="12" y="663" font-family="Verdana" font-size="10" text-anchor="middle"  dominant-baseline="middle" fill="red" > D4</text>
<text x="12" y="20" font-family="Verdana" font-size="10" text-anchor="middle"  dominant-baseline="middle" fill="black" > 0</text>
<text x="12" y="164" font-family="Verdana" font-size="10" text-anchor="middle"  dominant-baseline="middle" fill="black" > 144</text>
<text x="12" y="308" font-family="Verdana" font-size="10" text-anchor="middle"  dominant-baseline="middle" fill="black" > 288</text>
<text x="12" y="452" font-family="Verdana" font-size="10" text-anchor="middle"  dominant-baseline="middle" fill="black" > 432</text>
<text x="12" y="596" font-family="Verdana" font-size="10" text-anchor="middle"  dominant-baseline="middle" fill="black" > 576</text>
<text x="12" y="740" font-family="Verdana" font-size="10" text-anchor="middle"  dominant-baseline="middle" fill="black" > 720</text>
<text x="50" y="7" font-family="Verdana" font-size="7" text-anchor="middle"  dominant-baseline="middle" fill="black" > C1</text>
<circle cx="50" cy="15" r="4" fill="white" stroke="black" />
<line x1="50" y1="19" x2="50" y2="152" stroke="black" />
<line x1="46" y1="156" x2="50" y2="148" stroke="blue" />
<line x1="50" y1="156" x2="54" y2="148" stroke="blue" />
<text x="50" y="164" font-family="Verdana" font-size="8" text-anchor="middle"  dominant-baseline="middle" fill="black" > 137</text>
<text x="250" y="7" font-family="Verdana" font-size="7" text-anchor="middle"  dominant-baseline="middle" fill="black" > C2</text>
<circle cx="250" cy="15" r="4" fill="white" stroke="black" />
<line x1="250" y1="19" x2="250" y2="559" stroke="black" />
<line x1="150" y1="559" x2="350" y2="559" stroke="black" />
<text x="275" y="551" font-family="Verdana" font-size="8" text-anchor="middle"  dominant-baseline="middle" fill="black" > 544</text>
<circle cx="150" cy="559" r="4" fill="white" stroke="black" />
<circle cx="250" cy="559" r="4" fill="white" stroke="black" />
<line x1="150" y1="563" x2="150" y2="570" stroke="black" />
<line x1="150" y1="570" x2="200" y2="573" stroke="black" />
<line x1="250" y1="563" x2="250" y2="570" stroke="black" />
<line x1="250" y1="570" x2="200" y2="573" stroke="black" />
<text x="200" y="561" font-family="Verdana" font-size="8" text-anchor="middle"  dominant-baseline="middle" fill="black" > 558</text>
<circle cx="200" cy="573" r="4" fill="white" stroke="black" />
<circle cx="350" cy="559" r="4" fill="white" stroke="black" />
<line x1="200" y1="577" x2="200" y2="576" stroke="black" />
<line x1="200" y1="576" x2="275" y2="577" stroke="black" />
<line x1="350" y1="563" x2="350" y2="576" stroke="black" />
<line x1="350" y1="576" x2="275" y2="577" stroke="black" />
<text x="275" y="565" font-family="Verdana" font-size="8" text-anchor="middle"  dominant-baseline="middle" fill="black" > 562</text>
<circle cx="275" cy="577" r="4" fill="white" stroke="black" />
<line x1="275" y1="581" x2="275" y2="736" stroke="black" />
<circle cx="275" cy="736" r="4" fill="white" stroke="black" />
<text x="275" y="748" font-family="Verdana" font-size="8" text-anchor="middle"  dominant-baseline="middle" fill="black" > 721</text>
<text x="500" y="7" font-family="Verdana" font-size="7" text-anchor="middle"  dominant-baseline="middle" fill="black" > C3</text>
<circle cx="500" cy="15" r="4" fill="white" stroke="black" />
<line x1="500" y1="19" x2="500" y2="172" stroke="black" />
<line x1="450" y1="172" x2="550" y2="172" stroke="black" />
<text x="525" y="164" font-family="Verdana" font-size="8" text-anchor="middle"  dominant-baseline="middle" fill="black" > 157</text>
<circle cx="450" cy="172" r="4" fill="white" stroke="black" />
<circle cx="550" cy="172" r="4" fill="white" stroke="black" />
<line x1="450" y1="176" x2="450" y2="241" stroke="black" />
<line x1="450" y1="241" x2="500" y2="263" stroke="black" />
<line x1="550" y1="176" x2="550" y2="241" stroke="black" />
<line x1="550" y1="241" x2="500" y2="263" stroke="black" />
<text x="500" y="251" font-family="Verdana" font-size="8" text-anchor="middle"  dominant-baseline="middle" fill="black" > 248</text>
<circle cx="500" cy="263" r="4" fill="white" stroke="black" />
<line x1="500" y1="267" x2="500" y2="338" stroke="black" />
<line x1="466" y1="338" x2="534" y2="338" stroke="black" />
<text x="508" y="330" font-family="Verdana" font-size="8" text-anchor="middle"  dominant-baseline="middle" fill="black" > 323</text>
<circle cx="466" cy="338" r="4" fill="white" stroke="black" />
<line x1="466" y1="342" x2="466" y2="736" stroke="black" />
<circle cx="466" cy="736" r="4" fill="white" stroke="black" />
<text x="466" y="748" font-family="Verdana" font-size="8" text-anchor="middle"  dominant-baseline="middle" fill="black" > 721</text>
<circle cx="499" cy="338" r="4" fill="white" stroke="black" />
<line x1="499" y1="342" x2="499" y2="612" stroke="black" />
<line x1="491" y1="612" x2="508" y2="612" stroke="black" />
<text x="503" y="604" font-family="Verdana" font-size="8" text-anchor="middle"  dominant-baseline="middle" fill="black" > 597</text>
<circle cx="491" cy="612" r="4" fill="white" stroke="black" />
<circle cx="507" cy="612" r="4" fill="white" stroke="black" />
<circle cx="532" cy="338" r="4" fill="white" stroke="black" />
<line x1="507" y1="616" x2="507" y2="618" stroke="black" />
<line x1="507" y1="618" x2="519" y2="619" stroke="black" />
<line x1="532" y1="342" x2="532" y2="618" stroke="black" />
<line x1="532" y1="618" x2="519" y2="619" stroke="black" />
<text x="519" y="607" font-family="Verdana" font-size="8" text-anchor="middle"  dominant-baseline="middle" fill="black" > 604</text>
<circle cx="519" cy="619" r="4" fill="white" stroke="black" />
<line x1="491" y1="616" x2="491" y2="622" stroke="black" />
<line x1="491" y1="622" x2="505" y2="623" stroke="black" />
<line x1="519" y1="623" x2="519" y2="622" stroke="black" />
<line x1="519" y1="622" x2="505" y2="623" stroke="black" />
<text x="505" y="611" font-family="Verdana" font-size="8" text-anchor="middle"  dominant-baseline="middle" fill="black" > 608</text>
<circle cx="505" cy="623" r="4" fill="white" stroke="black" />
<line x1="505" y1="627" x2="505" y2="736" stroke="black" />
<circle cx="505" cy="736" r="4" fill="white" stroke="black" />
<text x="505" y="748" font-family="Verdana" font-size="8" text-anchor="middle"  dominant-baseline="middle" fill="black" > 721</text>
<text x="800" y="7" font-family="Verdana" font-size="7" text-anchor="middle"  dominant-baseline="middle" fill="black" > C4</text>
<circle cx="800" cy="15" r="4" fill="white" stroke="black" />
<line x1="800" y1="19" x2="800" y2="274" stroke="black" />
<line x1="650" y1="274" x2="950" y2="274" stroke="black" />
<text x="825" y="266" font-family="Verdana" font-size="8" text-anchor="middle"  dominant-baseline="middle" fill="black" > 259</text>
<circle cx="650" cy="274" r="4" fill="white" stroke="black" />
<circle cx="750" cy="274" r="4" fill="white" stroke="black" />
<line x1="650" y1="278" x2="650" y2="292" stroke="black" />
<line x1="650" y1="292" x2="700" y2="298" stroke="black" />
<line x1="750" y1="278" x2="750" y2="292" stroke="black" />
<line x1="750" y1="292" x2="700" y2="298" stroke="black" />
<text x="700" y="286" font-family="Verdana" font-size="8" text-anchor="middle"  dominant-baseline="middle" fill="black" > 283</text>
<circle cx="700" cy="298" r="4" fill="white" stroke="black" />
<line x1="700" y1="302" x2="700" y2="627" stroke="black" />
<line x1="696" y1="623" x2="704" y2="631" stroke="red" />
<line x1="696" y1="631" x2="704" y2="623" stroke="red" />
<text x="700" y="639" font-family="Verdana" font-size="8" text-anchor="middle"  dominant-baseline="middle" fill="black" > 612</text>
<circle cx="850" cy="274" r="4" fill="white" stroke="black" />
<circle cx="950" cy="274" r="4" fill="white" stroke="black" />
<circle cx="1150" cy="215" r="4" fill="white" stroke="black" />
<line x1="1150" y1="219" x2="1150" y2="299" stroke="black" />
<line x1="1050" y1="299" x2="1250" y2="299" stroke="black" />
<text x="1175" y="291" font-family="Verdana" font-size="8" text-anchor="middle"  dominant-baseline="middle" fill="black" > 284</text>
<circle cx="1050" cy="299" r="4" fill="white" stroke="black" />
<circle cx="1150" cy="299" r="4" fill="white" stroke="black" />
<line x1="850" y1="278" x2="850" y2="311" stroke="black" />
<line x1="850" y1="311" x2="1000" y2="315" stroke="black" />
<line x1="1050" y1="303" x2="1050" y2="311" stroke="black" />
<line x1="1050" y1="311" x2="1000" y2="315" stroke="black" />
<line x1="1150" y1="303" x2="1150" y2="311" stroke="black" />
<line x1="1150" y1="311" x2="1000" y2="315" stroke="black" />
<text x="1000" y="303" font-family="Verdana" font-size="8" text-anchor="middle"  dominant-baseline="middle" fill="black" > 300</text>
<circle cx="1000" cy="315" r="4" fill="white" stroke="black" />
<line x1="1000" y1="319" x2="1000" y2="736" stroke="black" />
<circle cx="1000" cy="736" r="4" fill="white" stroke="black" />
<text x="1000" y="748" font-family="Verdana" font-size="8" text-anchor="middle"  dominant-baseline="middle" fill="black" > 721</text>
<circle cx="1250" cy="299" r="4" fill="white" stroke="black" />
<line x1="950" y1="278" x2="950" y2="351" stroke="black" />
<line x1="950" y1="351" x2="1100" y2="368" stroke="black" />
<line x1="1250" y1="303" x2="1250" y2="351" stroke="black" />
<line x1="1250" y1="351" x2="1100" y2="368" stroke="black" />
<text x="1100" y="356" font-family="Verdana" font-size="8" text-anchor="middle"  dominant-baseline="middle" fill="black" > 353</text>
<circle cx="1100" cy="368" r="4" fill="white" stroke="black" />
<line x1="1100" y1="372" x2="1100" y2="736" stroke="black" />
<circle cx="1100" cy="736" r="4" fill="white" stroke="black" />
<text x="1100" y="748" font-family="Verdana" font-size="8" text-anchor="middle"  dominant-baseline="middle" fill="black" > 721</text>
<text x="1450" y="7" font-family="Verdana" font-size="7" text-anchor="middle"  dominant-baseline="middle" fill="black" > C5</text>
<circle cx="1450" cy="15" r="4" fill="white" stroke="black" />
<line x1="1450" y1="19" x2="1450" y2="270" stroke="black" />
<line x1="1350" y1="270" x2="1550" y2="270" stroke="black" />
<text x="1475" y="262" font-family="Verdana" font-size="8" text-anchor="middle"  dominant-baseline="middle" fill="black" > 255</text>
<circle cx="1350" cy="270" r="4" fill="white" stroke="black" />
<line x1="1350" y1="274" x2="1350" y2="581" stroke="black" />
<line x1="1346" y1="577" x2="1354" y2="585" stroke="red" />
<line x1="1346" y1="585" x2="1354" y2="577" stroke="red" />
<text x="1350" y="593" font-family="Verdana" font-size="8" text-anchor="middle"  dominant-baseline="middle" fill="black" > 566</text>
<circle cx="1450" cy="270" r="4" fill="white" stroke="black" />
<line x1="1450" y1="274" x2="1450" y2="603" stroke="black" />
<line x1="1446" y1="599" x2="1454" y2="607" stroke="red" />
<line x1="1446" y1="607" x2="1454" y2="599" stroke="red" />
<text x="1450" y="615" font-family="Verdana" font-size="8" text-anchor="middle"  dominant-baseline="middle" fill="black" > 588</text>
<circle cx="1550" cy="270" r="4" fill="white" stroke="black" />
<line x1="1550" y1="274" x2="1550" y2="430" stroke="black" />
<line x1="1525" y1="430" x2="1575" y2="430" stroke="black" />
<text x="1562" y="422" font-family="Verdana" font-size="8" text-anchor="middle"  dominant-baseline="middle" fill="black" > 415</text>
<circle cx="1525" cy="430" r="4" fill="white" stroke="black" />
<line x1="1525" y1="434" x2="1525" y2="736" stroke="black" />
<circle cx="1525" cy="736" r="4" fill="white" stroke="black" />
<text x="1525" y="748" font-family="Verdana" font-size="8" text-anchor="middle"  dominant-baseline="middle" fill="black" > 721</text>
<circle cx="1575" cy="430" r="4" fill="white" stroke="black" />
<line x1="1575" y1="434" x2="1575" y2="736" stroke="black" />
<circle cx="1575" cy="736" r="4" fill="white" stroke="black" />
<text x="1575" y="748" font-family="Verdana" font-size="8" text-anchor="middle"  dominant-baseline="middle" fill="black" > 721</text>
<text x="1700" y="7" font-family="Verdana" font-size="7" text-anchor="middle"  dominant-baseline="middle" fill="black" > C6</text>
<circle cx="1700" cy="15" r="4" fill="white" stroke="black" />
<line x1="1700" y1="19" x2="1700" y2="168" stroke="black" />
<line x1="1650" y1="168" x2="1750" y2="168" stroke="black" />
<text x="1725" y="160" font-family="Verdana" font-size="8" text-anchor="middle"  dominant-baseline="middle" fill="black" > 153</text>
<circle cx="1650" cy="168" r="4" fill="white" stroke="black" />
<line x1="1650" y1="172" x2="1650" y2="331" stroke="black" />
<line x1="1625" y1="331" x2="1675" y2="331" stroke="black" />
<text x="1662" y="323" font-family="Verdana" font-size="8" text-anchor="middle"  dominant-baseline="middle" fill="black" > 316</text>
<circle cx="1625" cy="331" r="4" fill="white" stroke="black" />
<circle cx="1675" cy="331" r="4" fill="white" stroke="black" />
<line x1="1625" y1="335" x2="1625" y2="569" stroke="black" />
<line x1="1625" y1="569" x2="1650" y2="648" stroke="black" />
<line x1="1675" y1="335" x2="1675" y2="569" stroke="black" />
<line x1="1675" y1="569" x2="1650" y2="648" stroke="black" />
<text x="1650" y="636" font-family="Verdana" font-size="8" text-anchor="middle"  dominant-baseline="middle" fill="black" > 633</text>
<circle cx="1650" cy="648" r="4" fill="white" stroke="black" />
<line x1="1650" y1="652" x2="1650" y2="736" stroke="black" />
<circle cx="1650" cy="736" r="4" fill="white" stroke="black" />
<text x="1650" y="748" font-family="Verdana" font-size="8" text-anchor="middle"  dominant-baseline="middle" fill="black" > 721</text>
<circle cx="1750" cy="168" r="4" fill="white" stroke="black" />
<line x1="1750" y1="172" x2="1750" y2="314" stroke="black" />
<line x1="1725" y1="314" x2="1775" y2="314" stroke="black" />
<text x="1762" y="306" font-family="Verdana" font-size="8" text-anchor="middle"  dominant-baseline="middle" fill="black" > 299</text>
<circle cx="1725" cy="314" r="4" fill="white" stroke="black" />
<circle cx="1775" cy="314" r="4" fill="white" stroke="black" />
<line x1="1725" y1="318" x2="1725" y2="329" stroke="black" />
<line x1="1725" y1="329" x2="1750" y2="334" stroke="black" />
<line x1="1775" y1="318" x2="1775" y2="329" stroke="black" />
<line x1="1775" y1="329" x2="1750" y2="334" stroke="black" />
<text x="1750" y="322" font-family="Verdana" font-size="8" text-anchor="middle"  dominant-baseline="middle" fill="black" > 319</text>
<circle cx="1750" cy="334" r="4" fill="white" stroke="black" />
<line x1="1750" y1="338" x2="1750" y2="485" stroke="black" />
<line x1="1737" y1="485" x2="1763" y2="485" stroke="black" />
<text x="1756" y="477" font-family="Verdana" font-size="8" text-anchor="middle"  dominant-baseline="middle" fill="black" > 470</text>
<circle cx="1737" cy="485" r="4" fill="white" stroke="black" />
<circle cx="1762" cy="485" r="4" fill="white" stroke="black" />
<line x1="1737" y1="489" x2="1737" y2="556" stroke="black" />
<line x1="1737" y1="556" x2="1749" y2="579" stroke="black" />
<line x1="1762" y1="489" x2="1762" y2="556" stroke="black" />
<line x1="1762" y1="556" x2="1749" y2="579" stroke="black" />
<text x="1749" y="567" font-family="Verdana" font-size="8" text-anchor="middle"  dominant-baseline="middle" fill="black" > 564</text>
<circle cx="1749" cy="579" r="4" fill="white" stroke="black" />
<line x1="1749" y1="583" x2="1749" y2="667" stroke="black" />
<line x1="1739" y1="667" x2="1760" y2="667" stroke="black" />
<text x="1750" y="659" font-family="Verdana" font-size="8" text-anchor="middle"  dominant-baseline="middle" fill="black" > 652</text>
<circle cx="1739" cy="667" r="4" fill="white" stroke="black" />
<circle cx="1744" cy="667" r="4" fill="white" stroke="black" />
<line x1="1739" y1="671" x2="1739" y2="689" stroke="black" />
<line x1="1739" y1="689" x2="1741" y2="696" stroke="black" />
<line x1="1744" y1="671" x2="1744" y2="689" stroke="black" />
<line x1="1744" y1="689" x2="1741" y2="696" stroke="black" />
<text x="1741" y="684" font-family="Verdana" font-size="8" text-anchor="middle"  dominant-baseline="middle" fill="black" > 681</text>
<circle cx="1741" cy="696" r="4" fill="white" stroke="black" />
<line x1="1741" y1="700" x2="1741" y2="736" stroke="black" />
<circle cx="1741" cy="736" r="4" fill="white" stroke="black" />
<text x="1741" y="748" font-family="Verdana" font-size="8" text-anchor="middle"  dominant-baseline="middle" fill="black" > 721</text>
<circle cx="1749" cy="667" r="4" fill="white" stroke="black" />
<line x1="1749" y1="671" x2="1749" y2="736" stroke="black" />
<circle cx="1749" cy="736" r="4" fill="white" stroke="black" />
<text x="1749" y="748" font-family="Verdana" font-size="8" text-anchor="middle"  dominant-baseline="middle" fill="black" > 721</text>
<circle cx="1754" cy="667" r="4" fill="white" stroke="black" />
<line x1="1754" y1="671" x2="1754" y2="736" stroke="black" />
<circle cx="1754" cy="736" r="4" fill="white" stroke="black" />
<text x="1754" y="748" font-family="Verdana" font-size="8" text-anchor="middle"  dominant-baseline="middle" fill="black" > 721</text>
<circle cx="1759" cy="667" r="4" fill="white" stroke="black" />
<line x1="1759" y1="671" x2="1759" y2="736" stroke="black" />
<circle cx="1759" cy="736" r="4" fill="white" stroke="black" />
<text x="1759" y="748" font-family="Verdana" font-size="8" text-anchor="middle"  dominant-baseline="middle" fill="black" > 721</text>
<text x="1950" y="7" font-family="Verdana" font-size="7" text-anchor="middle"  dominant-baseline="middle" fill="black" > C7</text>
<circle cx="1950" cy="15" r="4" fill="white" stroke="black" />
<line x1="1950" y1="19" x2="1950" y2="470" stroke="black" />
<line x1="1850" y1="470" x2="2050" y2="470" stroke="black" />
<text x="1975" y="462" font-family="Verdana" font-size="8" text-anchor="middle"  dominant-baseline="middle" fill="black" > 455</text>
<circle cx="1850" cy="470" r="4" fill="white" stroke="black" />
<line x1="1850" y1="474" x2="1850" y2="471" stroke="black" />
<line x1="1846" y1="467" x2="1854" y2="475" stroke="red" />
<line x1="1846" y1="475" x2="1854" y2="467" stroke="red" />
<text x="1850" y="483" font-family="Verdana" font-size="8" text-anchor="middle"  dominant-baseline="middle" fill="black" > 456</text>
<circle cx="1950" cy="470" r="4" fill="white" stroke="black" />
<line x1="1950" y1="474" x2="1950" y2="471" stroke="black" />
<line x1="1946" y1="467" x2="1954" y2="475" stroke="red" />
<line x1="1946" y1="475" x2="1954" y2="467" stroke="red" />
<text x="1950" y="483" font-family="Verdana" font-size="8" text-anchor="middle"  dominant-baseline="middle" fill="black" > 456</text>
<circle cx="2050" cy="470" r="4" fill="white" stroke="black" />
<line x1="2050" y1="474" x2="2050" y2="471" stroke="black" />
<line x1="2046" y1="467" x2="2054" y2="475" stroke="red" />
<line x1="2046" y1="475" x2="2054" y2="467" stroke="red" />
<text x="2050" y="483" font-family="Verdana" font-size="8" text-anchor="middle"  dominant-baseline="middle" fill="black" > 456</text>
<text x="2200" y="7" font-family="Verdana" font-size="7" text-anchor="middle"  dominant-baseline="middle" fill="black" > C8</text>
<circle cx="2200" cy="15" r="4" fill="white" stroke="black" />
<line x1="2200" y1="19" x2="2200" y2="263" stroke="black" />
<line x1="2150" y1="263" x2="2250" y2="263" stroke="black" />
<text x="2225" y="255" font-family="Verdana" font-size="8" text-anchor="middle"  dominant-baseline="middle" fill="black" > 248</text>
<circle cx="2150" cy="263" r="4" fill="white" stroke="black" />
<line x1="2150" y1="267" x2="2150" y2="503" stroke="black" />
<line x1="2125" y1="503" x2="2175" y2="503" stroke="black" />
<text x="2162" y="495" font-family="Verdana" font-size="8" text-anchor="middle"  dominant-baseline="middle" fill="black" > 488</text>
<circle cx="2125" cy="503" r="4" fill="white" stroke="black" />
<line x1="2125" y1="507" x2="2125" y2="736" stroke="black" />
<circle cx="2125" cy="736" r="4" fill="white" stroke="black" />
<text x="2125" y="748" font-family="Verdana" font-size="8" text-anchor="middle"  dominant-baseline="middle" fill="black" > 721</text>
<circle cx="2175" cy="503" r="4" fill="white" stroke="black" />
<line x1="2175" y1="507" x2="2175" y2="736" stroke="black" />
<circle cx="2175" cy="736" r="4" fill="white" stroke="black" />
<text x="2175" y="748" font-family="Verdana" font-size="8" text-anchor="middle"  dominant-baseline="middle" fill="black" > 721</text>
<circle cx="2250" cy="263" r="4" fill="white" stroke="black" />
<line x1="2250" y1="267" x2="2250" y2="422" stroke="black" />
<line x1="2225" y1="422" x2="2275" y2="422" stroke="black" />
<text x="2262" y="414" font-family="Verdana" font-size="8" text-anchor="middle"  dominant-baseline="middle" fill="black" > 407</text>
<circle cx="2225" cy="422" r="4" fill="white" stroke="black" />
<line x1="2225" y1="426" x2="2225" y2="593" stroke="black" />
<line x1="2221" y1="589" x2="2229" y2="597" stroke="red" />
<line x1="2221" y1="597" x2="2229" y2="589" stroke="red" />
<text x="2225" y="605" font-family="Verdana" font-size="8" text-anchor="middle"  dominant-baseline="middle" fill="black" > 578</text>
<circle cx="2275" cy="422" r="4" fill="white" stroke="black" />
<line x1="2275" y1="426" x2="2275" y2="583" stroke="black" />
<line x1="2271" y1="579" x2="2279" y2="587" stroke="red" />
<line x1="2271" y1="587" x2="2279" y2="579" stroke="red" />
<text x="2275" y="595" font-family="Verdana" font-size="8" text-anchor="middle"  dominant-baseline="middle" fill="black" > 568</text>
<text x="2400" y="7" font-family="Verdana" font-size="7" text-anchor="middle"  dominant-baseline="middle" fill="black" > C9</text>
<circle cx="2400" cy="15" r="4" fill="white" stroke="black" />
<line x1="2400" y1="19" x2="2400" y2="273" stroke="black" />
<line x1="2350" y1="273" x2="2450" y2="273" stroke="black" />
<text x="2425" y="265" font-family="Verdana" font-size="8" text-anchor="middle"  dominant-baseline="middle" fill="black" > 258</text>
<circle cx="2350" cy="273" r="4" fill="white" stroke="black" />
<line x1="2350" y1="277" x2="2350" y2="736" stroke="black" />
<circle cx="2350" cy="736" r="4" fill="white" stroke="black" />
<text x="2350" y="748" font-family="Verdana" font-size="8" text-anchor="middle"  dominant-baseline="middle" fill="black" > 721</text>
<circle cx="2450" cy="273" r="4" fill="white" stroke="black" />
<line x1="2450" y1="277" x2="2450" y2="736" stroke="black" />
<circle cx="2450" cy="736" r="4" fill="white" stroke="black" />
<text x="2450" y="748" font-family="Verdana" font-size="8" text-anchor="middle"  dominant-baseline="middle" fill="black" > 721</text>
<text x="2600" y="7" font-family="Verdana" font-size="7" text-anchor="middle"  dominant-baseline="middle" fill="black" > C10</text>
<circle cx="2600" cy="15" r="4" fill="white" stroke="black" />
<line x1="2600" y1="19" x2="2600" y2="247" stroke="black" />
<line x1="2550" y1="247" x2="2650" y2="247" stroke="black" />
<text x="2625" y="239" font-family="Verdana" font-size="8" text-anchor="middle"  dominant-baseline="middle" fill="black" > 232</text>
<circle cx="2550" cy="247" r="4" fill="white" stroke="black" />
<line x1="2550" y1="251" x2="2550" y2="467" stroke="black" />
<line x1="2525" y1="467" x2="2575" y2="467" stroke="black" />
<text x="2562" y="459" font-family="Verdana" font-size="8" text-anchor="middle"  dominant-baseline="middle" fill="black" > 452</text>
<circle cx="2525" cy="467" r="4" fill="white" stroke="black" />
<line x1="2525" y1="471" x2="2525" y2="736" stroke="black" />
<circle cx="2525" cy="736" r="4" fill="white" stroke="black" />
<text x="2525" y="748" font-family="Verdana" font-size="8" text-anchor="middle"  dominant-baseline="middle" fill="black" > 721</text>
<circle cx="2575" cy="467" r="4" fill="white" stroke="black" />
<line x1="2575" y1="471" x2="2575" y2="588" stroke="black" />
<line x1="2562" y1="588" x2="2588" y2="588" stroke="black" />
<text x="2581" y="580" font-family="Verdana" font-size="8" text-anchor="middle"  dominant-baseline="middle" fill="black" > 573</text>
<circle cx="2562" cy="588" r="4" fill="white" stroke="black" />
<line x1="2562" y1="592" x2="2562" y2="736" stroke="black" />
<circle cx="2562" cy="736" r="4" fill="white" stroke="black" />
<text x="2562" y="748" font-family="Verdana" font-size="8" text-anchor="middle"  dominant-baseline="middle" fill="black" > 721</text>
<circle cx="2587" cy="588" r="4" fill="white" stroke="black" />
<line x1="2587" y1="592" x2="2587" y2="736" stroke="black" />
<circle cx="2587" cy="736" r="4" fill="white" stroke="black" />
<text x="2587" y="748" font-family="Verdana" font-size="8" text-anchor="middle"  dominant-baseline="middle" fill="black" > 721</text>
<circle cx="2650" cy="247" r="4" fill="white" stroke="black" />
<line x1="2650" y1="251" x2="2650" y2="364" stroke="black" />
<line x1="2625" y1="364" x2="2675" y2="364" stroke="black" />
<text x="2662" y="356" font-family="Verdana" font-size="8" text-anchor="middle"  dominant-baseline="middle" fill="black" > 349</text>
<circle cx="2625" cy="364" r="4" fill="white" stroke="black" />
<line x1="2625" y1="368" x2="2625" y2="458" stroke="black" />
<line x1="2612" y1="458" x2="2638" y2="458" stroke="black" />
<text x="2631" y="450" font-family="Verdana" font-size="8" text-anchor="middle"  dominant-baseline="middle" fill="black" > 443</text>
<circle cx="2612" cy="458" r="4" fill="white" stroke="black" />
<line x1="2612" y1="462" x2="2612" y2="571" stroke="black" />
<line x1="2606" y1="571" x2="2619" y2="571" stroke="black" />
<text x="2615" y="563" font-family="Verdana" font-size="8" text-anchor="middle"  dominant-baseline="middle" fill="black" > 556</text>
<circle cx="2606" cy="571" r="4" fill="white" stroke="black" />
<line x1="2606" y1="575" x2="2606" y2="736" stroke="black" />
<circle cx="2606" cy="736" r="4" fill="white" stroke="black" />
<text x="2606" y="748" font-family="Verdana" font-size="8" text-anchor="middle"  dominant-baseline="middle" fill="black" > 721</text>
<circle cx="2618" cy="571" r="4" fill="white" stroke="black" />
<line x1="2618" y1="575" x2="2618" y2="736" stroke="black" />
<circle cx="2618" cy="736" r="4" fill="white" stroke="black" />
<text x="2618" y="748" font-family="Verdana" font-size="8" text-anchor="middle"  dominant-baseline="middle" fill="black" > 721</text>
<circle cx="2637" cy="458" r="4" fill="white" stroke="black" />
<line x1="2637" y1="462" x2="2637" y2="586" stroke="black" />
<line x1="2631" y1="586" x2="2644" y2="586" stroke="black" />
<text x="2640" y="578" font-family="Verdana" font-size="8" text-anchor="middle"  dominant-baseline="middle" fill="black" > 571</text>
<circle cx="2631" cy="586" r="4" fill="white" stroke="black" />
<line x1="2631" y1="590" x2="2631" y2="736" stroke="black" />
<circle cx="2631" cy="736" r="4" fill="white" stroke="black" />
<text x="2631" y="748" font-family="Verdana" font-size="8" text-anchor="middle"  dominant-baseline="middle" fill="black" > 721</text>
<circle cx="2643" cy="586" r="4" fill="white" stroke="black" />
<line x1="2643" y1="590" x2="2643" y2="736" stroke="black" />
<circle cx="2643" cy="736" r="4" fill="white" stroke="black" />
<text x="2643" y="748" font-family="Verdana" font-size="8" text-anchor="middle"  dominant-baseline="middle" fill="black" > 721</text>
<circle cx="2675" cy="364" r="4" fill="white" stroke="black" />
<line x1="2675" y1="368" x2="2675" y2="466" stroke="black" />
<line x1="2662" y1="466" x2="2688" y2="466" stroke="black" />
<text x="2681" y="458" font-family="Verdana" font-size="8" text-anchor="middle"  dominant-baseline="middle" fill="black" > 451</text>
<circle cx="2662" cy="466" r="4" fill="white" stroke="black" />
<line x1="2662" y1="470" x2="2662" y2="514" stroke="black" />
<line x1="2658" y1="510" x2="2666" y2="518" stroke="red" />
<line x1="2658" y1="518" x2="2666" y2="510" stroke="red" />
<text x="2662" y="526" font-family="Verdana" font-size="8" text-anchor="middle"  dominant-baseline="middle" fill="black" > 499</text>
<circle cx="2687" cy="466" r="4" fill="white" stroke="black" />
<line x1="2687" y1="470" x2="2687" y2="507" stroke="black" />
<line x1="2683" y1="503" x2="2691" y2="511" stroke="red" />
<line x1="2683" y1="511" x2="2691" y2="503" stroke="red" />
<text x="2687" y="519" font-family="Verdana" font-size="8" text-anchor="middle"  dominant-baseline="middle" fill="black" > 492</text>
</svg>
