<?xml version="1.0" encoding="utf-8"?>
<svg xmlns="http://www.w3.org/2000/svg" version="1.1" width="2250" height="750">
<rect width="2250" height="15" x="0" y="0" fill="white" />
<rect width="2250" height="15" x="0" y="735" fill="white" />
<rect width="25" height="750" x="0" y="0" fill="white" />
<rect width="25" height="750" x="2225" y="0" fill="white" />
<rect width="2210" height="144" x="25" y="15" fill="ghostwhite" />
<rect width="2210" height="144" x="25" y="159" fill="snow" />
<rect width="2210" height="144" x="25" y="303" fill="ghostwhite" />
<rect width="2210" height="144" x="25" y="447" fill="snow" />
<rect width="2210" height="144" x="25" y="591" fill="ghostwhite" />
<text x="12" y="87" font-family="Verdana" font-size="10" text-anchor="middle"  dominant-baseline="middle" fill="red" > D0</text>
<text x="12" y="231" font-family="Verdana" font-size="10" text-anchor="middle"  dominant-baseline="middle" fill="red" > D1</text>
<text x="12" y="375" font-family="Verdana" font-size="10" text-anchor="middle"  dominant-baseline="middle" fill="red" > D2</text>
<text x="12" y="519" font-family="Verdana" font-size="10" text-anchor="middle"  dominant-baseline="middle" fill="red" > D3</text>
<text x="12" y="663" font-family="Verdana" font-size="10" text-anchor="middle"  dominant-baseline="middle" fill="red" > D4</text>
<text x="12" y="20" font-family="Verdana" font-size="10" text-anchor="middle"  dominant-baseline="middle" fill="black" > 0</text>
<text x="12" y="164" font-family="Verdana" font-size="10" text-anchor="middle"  dominant-baseline="middle" fill="black" > 144</text>
<text x="12" y="308" font-family="Verdana" font-size="10" text-anchor="middle"  dominant-baseline="middle" fill="black" > 288</text>
<text x="12" y="452" font-family="Verdana" font-size="10" text-anchor="middle"  dominant-baseline="middle" fill="black" > 432</text>
<text x="12" y="596" font-family="Verdana" font-size="10" text-anchor="middle"  dominant-baseline="middle" fill="black" > 576</text>
<text x="12" y="740" font-family="Verdana" font-size="10" text-anchor="middle"  dominant-baseline="middle" fill="black" > 720</text>
<text x="50" y="7" font-family="Verdana" font-size="7" text-anchor="middle"  dominant-baseline="middle" fill="black" > C1</text>
<circle cx="50" cy="15" r="4" fill="white" stroke="black" />
<line x1="50" y1="19" x2="50" y2="47" stroke="black" />
<line x1="46" y1="51" x2="50" y2="43" stroke="blue" />
<line x1="50" y1="51" x2="54" y2="43" stroke="blue" />
<text x="50" y="59" font-family="Verdana" font-size="8" text-anchor="middle"  dominant-baseline="middle" fill="black" > 32</text>
<text x="200" y="7" font-family="Verdana" font-size="7" text-anchor="middle"  dominant-baseline="middle" fill="black" > C2</text>
<circle cx="200" cy="15" r="4" fill="white" stroke="black" />
<line x1="200" y1="19" x2="200" y2="467" stroke="black" />
<line x1="150" y1="467" x2="250" y2="467" stroke="black" />
<text x="225" y="459" font-family="Verdana" font-size="8" text-anchor="middle"  dominant-baseline="middle" fill="black" > 452</text>
<circle cx="150" cy="467" r="4" fill="white" stroke="black" />
<line x1="150" y1="471" x2="150" y2="644" stroke="black" />
<line x1="116" y1="644" x2="184" y2="644" stroke="black" />
<text x="158" y="636" font-family="Verdana" font-size="8" text-anchor="middle"  dominant-baseline="middle" fill="black" > 629</text>
<circle cx="116" cy="644" r="4" fill="white" stroke="black" />
<line x1="116" y1="648" x2="116" y2="674" stroke="black" />
<line x1="112" y1="678" x2="116" y2="670" stroke="blue" />
<line x1="116" y1="678" x2="120" y2="670" stroke="blue" />
<text x="116" y="686" font-family="Verdana" font-size="8" text-anchor="middle"  dominant-baseline="middle" fill="black" > 659</text>
<circle cx="149" cy="644" r="4" fill="white" stroke="black" />
<line x1="149" y1="648" x2="149" y2="680" stroke="black" />
<line x1="145" y1="684" x2="149" y2="676" stroke="blue" />
<line x1="149" y1="684" x2="153" y2="676" stroke="blue" />
<text x="149" y="692" font-family="Verdana" font-size="8" text-anchor="middle"  dominant-baseline="middle" fill="black" > 665</text>
<circle cx="182" cy="644" r="4" fill="white" stroke="black" />
<line x1="182" y1="648" x2="182" y2="681" stroke="black" />
<line x1="178" y1="685" x2="182" y2="677" stroke="blue" />
<line x1="182" y1="685" x2="186" y2="677" stroke="blue" />
<text x="182" y="693" font-family="Verdana" font-size="8" text-anchor="middle"  dominant-baseline="middle" fill="black" > 666</text>
<circle cx="250" cy="467" r="4" fill="white" stroke="black" />
<line x1="250" y1="471" x2="250" y2="688" stroke="black" />
<line x1="246" y1="692" x2="250" y2="684" stroke="blue" />
<line x1="250" y1="692" x2="254" y2="684" stroke="blue" />
<text x="250" y="700" font-family="Verdana" font-size="8" text-anchor="middle"  dominant-baseline="middle" fill="black" > 673</text>
<text x="350" y="7" font-family="Verdana" font-size="7" text-anchor="middle"  dominant-baseline="middle" fill="black" > C3</text>
<circle cx="350" cy="15" r="4" fill="white" stroke="black" />
<line x1="350" y1="19" x2="350" y2="444" stroke="black" />
<line x1="346" y1="440" x2="354" y2="448" stroke="red" />
<line x1="346" y1="448" x2="354" y2="440" stroke="red" />
<text x="350" y="456" font-family="Verdana" font-size="8" text-anchor="middle"  dominant-baseline="middle" fill="black" > 429</text>
<text x="550" y="7" font-family="Verdana" font-size="7" text-anchor="middle"  dominant-baseline="middle" fill="black" > C4</text>
<circle cx="550" cy="15" r="4" fill="white" stroke="black" />
<line x1="550" y1="19" x2="550" y2="352" stroke="black" />
<line x1="450" y1="352" x2="650" y2="352" stroke="black" />
<text x="575" y="344" font-family="Verdana" font-size="8" text-anchor="middle"  dominant-baseline="middle" fill="black" > 337</text>
<circle cx="450" cy="352" r="4" fill="white" stroke="black" />
<circle cx="550" cy="352" r="4" fill="white" stroke="black" />
<line x1="450" y1="356" x2="450" y2="360" stroke="black" />
<line x1="450" y1="360" x2="500" y2="362" stroke="black" />
<line x1="550" y1="356" x2="550" y2="360" stroke="black" />
<line x1="550" y1="360" x2="500" y2="362" stroke="black" />
<text x="500" y="350" font-family="Verdana" font-size="8" text-anchor="middle"  dominant-baseline="middle" fill="black" > 347</text>
<circle cx="500" cy="362" r="4" fill="white" stroke="black" />
<circle cx="650" cy="352" r="4" fill="white" stroke="black" />
<line x1="500" y1="366" x2="500" y2="374" stroke="black" />
<line x1="500" y1="374" x2="575" y2="377" stroke="black" />
<line x1="650" y1="356" x2="650" y2="374" stroke="black" />
<line x1="650" y1="374" x2="575" y2="377" stroke="black" />
<text x="575" y="365" font-family="Verdana" font-size="8" text-anchor="middle"  dominant-baseline="middle" fill="black" > 362</text>
<circle cx="575" cy="377" r="4" fill="white" stroke="black" />
<line x1="575" y1="381" x2="575" y2="736" stroke="black" />
<circle cx="575" cy="736" r="4" fill="white" stroke="black" />
<text x="575" y="748" font-family="Verdana" font-size="8" text-anchor="middle"  dominant-baseline="middle" fill="black" > 721</text>
<text x="900" y="7" font-family="Verdana" font-size="7" text-anchor="middle"  dominant-baseline="middle" fill="black" > C5</text>
<circle cx="900" cy="15" r="4" fill="white" stroke="black" />
<line x1="900" y1="19" x2="900" y2="439" stroke="black" />
<line x1="750" y1="439" x2="1050" y2="439" stroke="black" />
<text x="925" y="431" font-family="Verdana" font-size="8" text-anchor="middle"  dominant-baseline="middle" fill="black" > 424</text>
<circle cx="750" cy="439" r="4" fill="white" stroke="black" />
<circle cx="850" cy="439" r="4" fill="white" stroke="black" />
<line x1="750" y1="443" x2="750" y2="454" stroke="black" />
<line x1="750" y1="454" x2="800" y2="458" stroke="black" />
<line x1="850" y1="443" x2="850" y2="454" stroke="black" />
<line x1="850" y1="454" x2="800" y2="458" stroke="black" />
<text x="800" y="446" font-family="Verdana" font-size="8" text-anchor="middle"  dominant-baseline="middle" fill="black" > 443</text>
<circle cx="800" cy="458" r="4" fill="white" stroke="black" />
<circle cx="950" cy="439" r="4" fill="white" stroke="black" />
<line x1="800" y1="462" x2="800" y2="488" stroke="black" />
<line x1="800" y1="488" x2="875" y2="498" stroke="black" />
<line x1="950" y1="443" x2="950" y2="488" stroke="black" />
<line x1="950" y1="488" x2="875" y2="498" stroke="black" />
<text x="875" y="486" font-family="Verdana" font-size="8" text-anchor="middle"  dominant-baseline="middle" fill="black" > 483</text>
<circle cx="875" cy="498" r="4" fill="white" stroke="black" />
<line x1="875" y1="502" x2="875" y2="736" stroke="black" />
<circle cx="875" cy="736" r="4" fill="white" stroke="black" />
<text x="875" y="748" font-family="Verdana" font-size="8" text-anchor="middle"  dominant-baseline="middle" fill="black" > 721</text>
<circle cx="1050" cy="439" r="4" fill="white" stroke="black" />
<line x1="1050" y1="443" x2="1050" y2="736" stroke="black" />
<circle cx="1050" cy="736" r="4" fill="white" stroke="black" />
<text x="1050" y="748" font-family="Verdana" font-size="8" text-anchor="middle"  dominant-baseline="middle" fill="black" > 721</text>
<text x="1150" y="7" font-family="Verdana" font-size="7" text-anchor="middle"  dominant-baseline="middle" fill="black" > C6</text>
<circle cx="1150" cy="15" r="4" fill="white" stroke="black" />
<line x1="1150" y1="19" x2="1150" y2="324" stroke="black" />
<line x1="1146" y1="320" x2="1154" y2="328" stroke="red" />
<line x1="1146" y1="328" x2="1154" y2="320" stroke="red" />
<text x="1150" y="336" font-family="Verdana" font-size="8" text-anchor="middle"  dominant-baseline="middle" fill="black" > 309</text>
<text x="1300" y="7" font-family="Verdana" font-size="7" text-anchor="middle"  dominant-baseline="middle" fill="black" > C7</text>
<circle cx="1300" cy="15" r="4" fill="white" stroke="black" />
<line x1="1300" y1="19" x2="1300" y2="177" stroke="black" />
<line x1="1250" y1="177" x2="1350" y2="177" stroke="black" />
<text x="1325" y="169" font-family="Verdana" font-size="8" text-anchor="middle"  dominant-baseline="middle" fill="black" > 162</text>
<circle cx="1250" cy="177" r="4" fill="white" stroke="black" />
<line x1="1250" y1="181" x2="1250" y2="569" stroke="black" />
<line x1="1246" y1="565" x2="1254" y2="573" stroke="red" />
<line x1="1246" y1="573" x2="1254" y2="565" stroke="red" />
<text x="1250" y="581" font-family="Verdana" font-size="8" text-anchor="middle"  dominant-baseline="middle" fill="black" > 554</text>
<circle cx="1350" cy="177" r="4" fill="white" stroke="black" />
<line x1="1350" y1="181" x2="1350" y2="444" stroke="black" />
<line x1="1325" y1="444" x2="1375" y2="444" stroke="black" />
<text x="1362" y="436" font-family="Verdana" font-size="8" text-anchor="middle"  dominant-baseline="middle" fill="black" > 429</text>
<circle cx="1325" cy="444" r="4" fill="white" stroke="black" />
<circle cx="1375" cy="444" r="4" fill="white" stroke="black" />
<line x1="1325" y1="448" x2="1325" y2="528" stroke="black" />
<line x1="1325" y1="528" x2="1350" y2="555" stroke="black" />
<line x1="1375" y1="448" x2="1375" y2="528" stroke="black" />
<line x1="1375" y1="528" x2="1350" y2="555" stroke="black" />
<text x="1350" y="543" font-family="Verdana" font-size="8" text-anchor="middle"  dominant-baseline="middle" fill="black" > 540</text>
<circle cx="1350" cy="555" r="4" fill="white" stroke="black" />
<line x1="1350" y1="559" x2="1350" y2="644" stroke="black" />
<line x1="1346" y1="640" x2="1354" y2="648" stroke="red" />
<line x1="1346" y1="648" x2="1354" y2="640" stroke="red" />
<text x="1350" y="656" font-family="Verdana" font-size="8" text-anchor="middle"  dominant-baseline="middle" fill="black" > 629</text>
<text x="1450" y="7" font-family="Verdana" font-size="7" text-anchor="middle"  dominant-baseline="middle" fill="black" > C8</text>
<circle cx="1450" cy="15" r="4" fill="white" stroke="black" />
<line x1="1450" y1="19" x2="1450" y2="393" stroke="black" />
<line x1="1446" y1="397" x2="1450" y2="389" stroke="blue" />
<line x1="1450" y1="397" x2="1454" y2="389" stroke="blue" />
<text x="1450" y="405" font-family="Verdana" font-size="8" text-anchor="middle"  dominant-baseline="middle" fill="black" > 378</text>
<text x="1550" y="7" font-family="Verdana" font-size="7" text-anchor="middle"  dominant-baseline="middle" fill="black" > C9</text>
<circle cx="1550" cy="15" r="4" fill="white" stroke="black" />
<line x1="1550" y1="19" x2="1550" y2="347" stroke="black" />
<line x1="1546" y1="343" x2="1554" y2="351" stroke="red" />
<line x1="1546" y1="351" x2="1554" y2="343" stroke="red" />
<text x="1550" y="359" font-family="Verdana" font-size="8" text-anchor="middle"  dominant-baseline="middle" fill="black" > 332</text>
<text x="1700" y="7" font-family="Verdana" font-size="7" text-anchor="middle"  dominant-baseline="middle" fill="black" > C10</text>
<circle cx="1700" cy="15" r="4" fill="white" stroke="black" />
<line x1="1700" y1="19" x2="1700" y2="224" stroke="black" />
<line x1="1650" y1="224" x2="1750" y2="224" stroke="black" />
<text x="1725" y="216" font-family="Verdana" font-size="8" text-anchor="middle"  dominant-baseline="middle" fill="black" > 209</text>
<circle cx="1650" cy="224" r="4" fill="white" stroke="black" />
<line x1="1650" y1="228" x2="1650" y2="736" stroke="black" />
<circle cx="1650" cy="736" r="4" fill="white" stroke="black" />
<text x="1650" y="748" font-family="Verdana" font-size="8" text-anchor="middle"  dominant-baseline="middle" fill="black" > 721</text>
<circle cx="1750" cy="224" r="4" fill="white" stroke="black" />
<line x1="1750" y1="228" x2="1750" y2="736" stroke="black" />
<circle cx="1750" cy="736" r="4" fill="white" stroke="black" />
<text x="1750" y="748" font-family="Verdana" font-size="8" text-anchor="middle"  dominant-baseline="middle" fill="black" > 721</text>
<text x="1900" y="7" font-family="Verdana" font-size="7" text-anchor="middle"  dominant-baseline="middle" fill="black" > C11</text>
<circle cx="1900" cy="15" r="4" fill="white" stroke="black" />
<line x1="1900" y1="19" x2="1900" y2="340" stroke="black" />
<line x1="1850" y1="340" x2="1950" y2="340" stroke="black" />
<text x="1925" y="332" font-family="Verdana" font-size="8" text-anchor="middle"  dominant-baseline="middle" fill="black" > 325</text>
<circle cx="1850" cy="340" r="4" fill="white" stroke="black" />
<circle cx="1950" cy="340" r="4" fill="white" stroke="black" />
<line x1="1850" y1="344" x2="1850" y2="535" stroke="black" />
<line x1="1850" y1="535" x2="1900" y2="599" stroke="black" />
<line x1="1950" y1="344" x2="1950" y2="535" stroke="black" />
<line x1="1950" y1="535" x2="1900" y2="599" stroke="black" />
<text x="1900" y="587" font-family="Verdana" font-size="8" text-anchor="middle"  dominant-baseline="middle" fill="black" > 584</text>
<circle cx="1900" cy="599" r="4" fill="white" stroke="black" />
<line x1="1900" y1="603" x2="1900" y2="602" stroke="black" />
<line x1="1896" y1="598" x2="1904" y2="606" stroke="red" />
<line x1="1896" y1="606" x2="1904" y2="598" stroke="red" />
<text x="1900" y="614" font-family="Verdana" font-size="8" text-anchor="middle"  dominant-baseline="middle" fill="black" > 587</text>
<text x="2100" y="7" font-family="Verdana" font-size="7" text-anchor="middle"  dominant-baseline="middle" fill="black" > C12</text>
<circle cx="2100" cy="15" r="4" fill="white" stroke="black" />
<line x1="2100" y1="19" x2="2100" y2="284" stroke="black" />
<line x1="2050" y1="284" x2="2150" y2="284" stroke="black" />
<text x="2125" y="276" font-family="Verdana" font-size="8" text-anchor="middle"  dominant-baseline="middle" fill="black" > 269</text>
<circle cx="2050" cy="284" r="4" fill="white" stroke="black" />
<line x1="2050" y1="288" x2="2050" y2="292" stroke="black" />
<line x1="2046" y1="296" x2="2050" y2="288" stroke="blue" />
<line x1="2050" y1="296" x2="2054" y2="288" stroke="blue" />
<text x="2050" y="304" font-family="Verdana" font-size="8" text-anchor="middle"  dominant-baseline="middle" fill="black" > 277</text>
<circle cx="2150" cy="284" r="4" fill="white" stroke="black" />
<line x1="2150" y1="288" x2="2150" y2="435" stroke="black" />
<line x1="2125" y1="435" x2="2175" y2="435" stroke="black" />
<text x="2162" y="427" font-family="Verdana" font-size="8" text-anchor="middle"  dominant-baseline="middle" fill="black" > 420</text>
<circle cx="2125" cy="435" r="4" fill="white" stroke="black" />
<line x1="2125" y1="439" x2="2125" y2="467" stroke="black" />
<line x1="2121" y1="471" x2="2125" y2="463" stroke="blue" />
<line x1="2125" y1="471" x2="2129" y2="463" stroke="blue" />
<text x="2125" y="479" font-family="Verdana" font-size="8" text-anchor="middle"  dominant-baseline="middle" fill="black" > 452</text>
<circle cx="2175" cy="435" r="4" fill="white" stroke="black" />
<line x1="2175" y1="439" x2="2175" y2="635" stroke="black" />
<line x1="2162" y1="635" x2="2188" y2="635" stroke="black" />
<text x="2181" y="627" font-family="Verdana" font-size="8" text-anchor="middle"  dominant-baseline="middle" fill="black" > 620</text>
<circle cx="2162" cy="635" r="4" fill="white" stroke="black" />
<line x1="2162" y1="639" x2="2162" y2="736" stroke="black" />
<circle cx="2162" cy="736" r="4" fill="white" stroke="black" />
<text x="2162" y="748" font-family="Verdana" font-size="8" text-anchor="middle"  dominant-baseline="middle" fill="black" > 721</text>
<circle cx="2187" cy="635" r="4" fill="white" stroke="black" />
<line x1="2187" y1="639" x2="2187" y2="710" stroke="black" />
<line x1="2183" y1="714" x2="2187" y2="706" stroke="blue" />
<line x1="2187" y1="714" x2="2191" y2="706" stroke="blue" />
<text x="2187" y="722" font-family="Verdana" font-size="8" text-anchor="middle"  dominant-baseline="middle" fill="black" > 695</text>
</svg>
