<?xml version="1.0" encoding="utf-8"?>
<svg xmlns="http://www.w3.org/2000/svg" version="1.1" width="2250" height="750">
<rect width="2250" height="15" x="0" y="0" fill="white" />
<rect width="2250" height="15" x="0" y="735" fill="white" />
<rect width="25" height="750" x="0" y="0" fill="white" />
<rect width="25" height="750" x="2225" y="0" fill="white" />
<rect width="2210" height="144" x="25" y="15" fill="ghostwhite" />
<rect width="2210" height="144" x="25" y="159" fill="snow" />
<rect width="2210" height="144" x="25" y="303" fill="ghostwhite" />
<rect width="2210" height="144" x="25" y="447" fill="snow" />
<rect width="2210" height="144" x="25" y="591" fill="ghostwhite" />
<text x="12" y="87" font-family="Verdana" font-size="10" text-anchor="middle"  dominant-baseline="middle" fill="red" > D0</text>
<text x="12" y="231" font-family="Verdana" font-size="10" text-anchor="middle"  dominant-baseline="middle" fill="red" > D1</text>
<text x="12" y="375" font-family="Verdana" font-size="10" text-anchor="middle"  dominant-baseline="middle" fill="red" > D2</text>
<text x="12" y="519" font-family="Verdana" font-size="10" text-anchor="middle"  dominant-baseline="middle" fill="red" > D3</text>
<text x="12" y="663" font-family="Verdana" font-size="10" text-anchor="middle"  dominant-baseline="middle" fill="red" > D4</text>
<text x="12" y="20" font-family="Verdana" font-size="10" text-anchor="middle"  dominant-baseline="middle" fill="black" > 0</text>
<text x="12" y="164" font-family="Verdana" font-size="10" text-anchor="middle"  dominant-baseline="middle" fill="black" > 144</text>
<text x="12" y="308" font-family="Verdana" font-size="10" text-anchor="middle"  dominant-baseline="middle" fill="black" > 288</text>
<text x="12" y="452" font-family="Verdana" font-size="10" text-anchor="middle"  dominant-baseline="middle" fill="black" > 432</text>
<text x="12" y="596" font-family="Verdana" font-size="10" text-anchor="middle"  dominant-baseline="middle" fill="black" > 576</text>
<text x="12" y="740" font-family="Verdana" font-size="10" text-anchor="middle"  dominant-baseline="middle" fill="black" > 720</text>
<text x="50" y="7" font-family="Verdana" font-size="7" text-anchor="middle"  dominant-baseline="middle" fill="black" > C1</text>
<circle cx="50" cy="15" r="4" fill="white" stroke="black" />
<line x1="50" y1="19" x2="50" y2="82" stroke="black" />
<line x1="46" y1="86" x2="50" y2="78" stroke="blue" />
<line x1="50" y1="86" x2="54" y2="78" stroke="blue" />
<text x="50" y="94" font-family="Verdana" font-size="8" text-anchor="middle"  dominant-baseline="middle" fill="black" > 67</text>
<text x="350" y="7" font-family="Verdana" font-size="7" text-anchor="middle"  dominant-baseline="middle" fill="black" > C2</text>
<circle cx="350" cy="15" r="4" fill="white" stroke="black" />
<line x1="350" y1="19" x2="350" y2="578" stroke="black" />
<line x1="150" y1="578" x2="550" y2="578" stroke="black" />
<text x="375" y="570" font-family="Verdana" font-size="8" text-anchor="middle"  dominant-baseline="middle" fill="black" > 563</text>
<circle cx="150" cy="578" r="4" fill="white" stroke="black" />
<circle cx="250" cy="578" r="4" fill="white" stroke="black" />
<line x1="150" y1="582" x2="150" y2="587" stroke="black" />
<line x1="150" y1="587" x2="200" y2="590" stroke="black" />
<line x1="250" y1="582" x2="250" y2="587" stroke="black" />
<line x1="250" y1="587" x2="200" y2="590" stroke="black" />
<text x="200" y="578" font-family="Verdana" font-size="8" text-anchor="middle"  dominant-baseline="middle" fill="black" > 575</text>
<circle cx="200" cy="590" r="4" fill="white" stroke="black" />
<circle cx="350" cy="578" r="4" fill="white" stroke="black" />
<circle cx="450" cy="578" r="4" fill="white" stroke="black" />
<circle cx="550" cy="578" r="4" fill="white" stroke="black" />
<line x1="200" y1="594" x2="200" y2="598" stroke="black" />
<line x1="200" y1="598" x2="375" y2="600" stroke="black" />
<line x1="350" y1="582" x2="350" y2="598" stroke="black" />
<line x1="350" y1="598" x2="375" y2="600" stroke="black" />
<line x1="450" y1="582" x2="450" y2="598" stroke="black" />
<line x1="450" y1="598" x2="375" y2="600" stroke="black" />
<line x1="550" y1="582" x2="550" y2="598" stroke="black" />
<line x1="550" y1="598" x2="375" y2="600" stroke="black" />
<text x="375" y="588" font-family="Verdana" font-size="8" text-anchor="middle"  dominant-baseline="middle" fill="black" > 585</text>
<circle cx="375" cy="600" r="4" fill="white" stroke="black" />
<line x1="375" y1="604" x2="375" y2="668" stroke="black" />
<line x1="371" y1="664" x2="379" y2="672" stroke="red" />
<line x1="371" y1="672" x2="379" y2="664" stroke="red" />
<text x="375" y="680" font-family="Verdana" font-size="8" text-anchor="middle"  dominant-baseline="middle" fill="black" > 653</text>
<text x="700" y="7" font-family="Verdana" font-size="7" text-anchor="middle"  dominant-baseline="middle" fill="black" > C3</text>
<circle cx="700" cy="15" r="4" fill="white" stroke="black" />
<line x1="700" y1="19" x2="700" y2="462" stroke="black" />
<line x1="650" y1="462" x2="750" y2="462" stroke="black" />
<text x="725" y="454" font-family="Verdana" font-size="8" text-anchor="middle"  dominant-baseline="middle" fill="black" > 447</text>
<circle cx="650" cy="462" r="4" fill="white" stroke="black" />
<line x1="650" y1="466" x2="650" y2="736" stroke="black" />
<circle cx="650" cy="736" r="4" fill="white" stroke="black" />
<text x="650" y="748" font-family="Verdana" font-size="8" text-anchor="middle"  dominant-baseline="middle" fill="black" > 721</text>
<circle cx="750" cy="462" r="4" fill="white" stroke="black" />
<line x1="750" y1="466" x2="750" y2="736" stroke="black" />
<circle cx="750" cy="736" r="4" fill="white" stroke="black" />
<text x="750" y="748" font-family="Verdana" font-size="8" text-anchor="middle"  dominant-baseline="middle" fill="black" > 721</text>
<text x="900" y="7" font-family="Verdana" font-size="7" text-anchor="middle"  dominant-baseline="middle" fill="black" > C4</text>
<circle cx="900" cy="15" r="4" fill="white" stroke="black" />
<line x1="900" y1="19" x2="900" y2="231" stroke="black" />
<line x1="850" y1="231" x2="950" y2="231" stroke="black" />
<text x="925" y="223" font-family="Verdana" font-size="8" text-anchor="middle"  dominant-baseline="middle" fill="black" > 216</text>
<circle cx="850" cy="231" r="4" fill="white" stroke="black" />
<circle cx="950" cy="231" r="4" fill="white" stroke="black" />
<line x1="850" y1="235" x2="850" y2="243" stroke="black" />
<line x1="850" y1="243" x2="900" y2="247" stroke="black" />
<line x1="950" y1="235" x2="950" y2="243" stroke="black" />
<line x1="950" y1="243" x2="900" y2="247" stroke="black" />
<text x="900" y="235" font-family="Verdana" font-size="8" text-anchor="middle"  dominant-baseline="middle" fill="black" > 232</text>
<circle cx="900" cy="247" r="4" fill="white" stroke="black" />
<line x1="900" y1="251" x2="900" y2="249" stroke="black" />
<line x1="866" y1="249" x2="934" y2="249" stroke="black" />
<text x="908" y="241" font-family="Verdana" font-size="8" text-anchor="middle"  dominant-baseline="middle" fill="black" > 234</text>
<circle cx="866" cy="249" r="4" fill="white" stroke="black" />
<circle cx="899" cy="249" r="4" fill="white" stroke="black" />
<line x1="866" y1="253" x2="866" y2="410" stroke="black" />
<line x1="866" y1="410" x2="882" y2="463" stroke="black" />
<line x1="899" y1="253" x2="899" y2="410" stroke="black" />
<line x1="899" y1="410" x2="882" y2="463" stroke="black" />
<text x="882" y="451" font-family="Verdana" font-size="8" text-anchor="middle"  dominant-baseline="middle" fill="black" > 448</text>
<circle cx="882" cy="463" r="4" fill="white" stroke="black" />
<circle cx="932" cy="249" r="4" fill="white" stroke="black" />
<line x1="882" y1="467" x2="882" y2="627" stroke="black" />
<line x1="882" y1="627" x2="907" y2="681" stroke="black" />
<line x1="932" y1="253" x2="932" y2="627" stroke="black" />
<line x1="932" y1="627" x2="907" y2="681" stroke="black" />
<text x="907" y="669" font-family="Verdana" font-size="8" text-anchor="middle"  dominant-baseline="middle" fill="black" > 666</text>
<circle cx="907" cy="681" r="4" fill="white" stroke="black" />
<line x1="907" y1="685" x2="907" y2="736" stroke="black" />
<circle cx="907" cy="736" r="4" fill="white" stroke="black" />
<text x="907" y="748" font-family="Verdana" font-size="8" text-anchor="middle"  dominant-baseline="middle" fill="black" > 721</text>
<text x="1050" y="7" font-family="Verdana" font-size="7" text-anchor="middle"  dominant-baseline="middle" fill="black" > C5</text>
<circle cx="1050" cy="15" r="4" fill="white" stroke="black" />
<line x1="1050" y1="19" x2="1050" y2="736" stroke="black" />
<circle cx="1050" cy="736" r="4" fill="white" stroke="black" />
<text x="1050" y="748" font-family="Verdana" font-size="8" text-anchor="middle"  dominant-baseline="middle" fill="black" > 721</text>
<text x="1200" y="7" font-family="Verdana" font-size="7" text-anchor="middle"  dominant-baseline="middle" fill="black" > C6</text>
<circle cx="1200" cy="15" r="4" fill="white" stroke="black" />
<line x1="1200" y1="19" x2="1200" y2="260" stroke="black" />
<line x1="1150" y1="260" x2="1250" y2="260" stroke="black" />
<text x="1225" y="252" font-family="Verdana" font-size="8" text-anchor="middle"  dominant-baseline="middle" fill="black" > 245</text>
<circle cx="1150" cy="260" r="4" fill="white" stroke="black" />
<line x1="1150" y1="264" x2="1150" y2="408" stroke="black" />
<line x1="1125" y1="408" x2="1175" y2="408" stroke="black" />
<text x="1162" y="400" font-family="Verdana" font-size="8" text-anchor="middle"  dominant-baseline="middle" fill="black" > 393</text>
<circle cx="1125" cy="408" r="4" fill="white" stroke="black" />
<line x1="1125" y1="412" x2="1125" y2="736" stroke="black" />
<circle cx="1125" cy="736" r="4" fill="white" stroke="black" />
<text x="1125" y="748" font-family="Verdana" font-size="8" text-anchor="middle"  dominant-baseline="middle" fill="black" > 721</text>
<circle cx="1175" cy="408" r="4" fill="white" stroke="black" />
<line x1="1175" y1="412" x2="1175" y2="736" stroke="black" />
<circle cx="1175" cy="736" r="4" fill="white" stroke="black" />
<text x="1175" y="748" font-family="Verdana" font-size="8" text-anchor="middle"  dominant-baseline="middle" fill="black" > 721</text>
<circle cx="1250" cy="260" r="4" fill="white" stroke="black" />
<line x1="1250" y1="264" x2="1250" y2="403" stroke="black" />
<line x1="1225" y1="403" x2="1275" y2="403" stroke="black" />
<text x="1262" y="395" font-family="Verdana" font-size="8" text-anchor="middle"  dominant-baseline="middle" fill="black" > 388</text>
<circle cx="1225" cy="403" r="4" fill="white" stroke="black" />
<line x1="1225" y1="407" x2="1225" y2="684" stroke="black" />
<line x1="1212" y1="684" x2="1238" y2="684" stroke="black" />
<text x="1231" y="676" font-family="Verdana" font-size="8" text-anchor="middle"  dominant-baseline="middle" fill="black" > 669</text>
<circle cx="1212" cy="684" r="4" fill="white" stroke="black" />
<line x1="1212" y1="688" x2="1212" y2="736" stroke="black" />
<circle cx="1212" cy="736" r="4" fill="white" stroke="black" />
<text x="1212" y="748" font-family="Verdana" font-size="8" text-anchor="middle"  dominant-baseline="middle" fill="black" > 721</text>
<circle cx="1237" cy="684" r="4" fill="white" stroke="black" />
<line x1="1237" y1="688" x2="1237" y2="736" stroke="black" />
<circle cx="1237" cy="736" r="4" fill="white" stroke="black" />
<text x="1237" y="748" font-family="Verdana" font-size="8" text-anchor="middle"  dominant-baseline="middle" fill="black" > 721</text>
<circle cx="1275" cy="403" r="4" fill="white" stroke="black" />
<line x1="1275" y1="407" x2="1275" y2="558" stroke="black" />
<line x1="1262" y1="558" x2="1288" y2="558" stroke="black" />
<text x="1281" y="550" font-family="Verdana" font-size="8" text-anchor="middle"  dominant-baseline="middle" fill="black" > 543</text>
<circle cx="1262" cy="558" r="4" fill="white" stroke="black" />
<line x1="1262" y1="562" x2="1262" y2="736" stroke="black" />
<circle cx="1262" cy="736" r="4" fill="white" stroke="black" />
<text x="1262" y="748" font-family="Verdana" font-size="8" text-anchor="middle"  dominant-baseline="middle" fill="black" > 721</text>
<circle cx="1287" cy="558" r="4" fill="white" stroke="black" />
<line x1="1287" y1="562" x2="1287" y2="736" stroke="black" />
<circle cx="1287" cy="736" r="4" fill="white" stroke="black" />
<text x="1287" y="748" font-family="Verdana" font-size="8" text-anchor="middle"  dominant-baseline="middle" fill="black" > 721</text>
<text x="1400" y="7" font-family="Verdana" font-size="7" text-anchor="middle"  dominant-baseline="middle" fill="black" > C7</text>
<circle cx="1400" cy="15" r="4" fill="white" stroke="black" />
<line x1="1400" y1="19" x2="1400" y2="278" stroke="black" />
<line x1="1350" y1="278" x2="1450" y2="278" stroke="black" />
<text x="1425" y="270" font-family="Verdana" font-size="8" text-anchor="middle"  dominant-baseline="middle" fill="black" > 263</text>
<circle cx="1350" cy="278" r="4" fill="white" stroke="black" />
<line x1="1350" y1="282" x2="1350" y2="413" stroke="black" />
<line x1="1325" y1="413" x2="1375" y2="413" stroke="black" />
<text x="1362" y="405" font-family="Verdana" font-size="8" text-anchor="middle"  dominant-baseline="middle" fill="black" > 398</text>
<circle cx="1325" cy="413" r="4" fill="white" stroke="black" />
<line x1="1325" y1="417" x2="1325" y2="580" stroke="black" />
<line x1="1321" y1="576" x2="1329" y2="584" stroke="red" />
<line x1="1321" y1="584" x2="1329" y2="576" stroke="red" />
<text x="1325" y="592" font-family="Verdana" font-size="8" text-anchor="middle"  dominant-baseline="middle" fill="black" > 565</text>
<circle cx="1375" cy="413" r="4" fill="white" stroke="black" />
<line x1="1375" y1="417" x2="1375" y2="595" stroke="black" />
<line x1="1371" y1="599" x2="1375" y2="591" stroke="blue" />
<line x1="1375" y1="599" x2="1379" y2="591" stroke="blue" />
<text x="1375" y="607" font-family="Verdana" font-size="8" text-anchor="middle"  dominant-baseline="middle" fill="black" > 580</text>
<circle cx="1450" cy="278" r="4" fill="white" stroke="black" />
<line x1="1450" y1="282" x2="1450" y2="366" stroke="black" />
<line x1="1446" y1="370" x2="1450" y2="362" stroke="blue" />
<line x1="1450" y1="370" x2="1454" y2="362" stroke="blue" />
<text x="1450" y="378" font-family="Verdana" font-size="8" text-anchor="middle"  dominant-baseline="middle" fill="black" > 351</text>
<text x="1550" y="7" font-family="Verdana" font-size="7" text-anchor="middle"  dominant-baseline="middle" fill="black" > C8</text>
<circle cx="1550" cy="15" r="4" fill="white" stroke="black" />
<line x1="1550" y1="19" x2="1550" y2="190" stroke="black" />
<line x1="1546" y1="194" x2="1550" y2="186" stroke="blue" />
<line x1="1550" y1="194" x2="1554" y2="186" stroke="blue" />
<text x="1550" y="202" font-family="Verdana" font-size="8" text-anchor="middle"  dominant-baseline="middle" fill="black" > 175</text>
<text x="1750" y="7" font-family="Verdana" font-size="7" text-anchor="middle"  dominant-baseline="middle" fill="black" > C9</text>
<circle cx="1750" cy="15" r="4" fill="white" stroke="black" />
<line x1="1750" y1="19" x2="1750" y2="180" stroke="black" />
<line x1="1650" y1="180" x2="1850" y2="180" stroke="black" />
<text x="1775" y="172" font-family="Verdana" font-size="8" text-anchor="middle"  dominant-baseline="middle" fill="black" > 165</text>
<circle cx="1650" cy="180" r="4" fill="white" stroke="black" />
<line x1="1650" y1="184" x2="1650" y2="268" stroke="black" />
<line x1="1646" y1="264" x2="1654" y2="272" stroke="red" />
<line x1="1646" y1="272" x2="1654" y2="264" stroke="red" />
<text x="1650" y="280" font-family="Verdana" font-size="8" text-anchor="middle"  dominant-baseline="middle" fill="black" > 253</text>
<circle cx="1750" cy="180" r="4" fill="white" stroke="black" />
<line x1="1750" y1="184" x2="1750" y2="376" stroke="black" />
<line x1="1725" y1="376" x2="1775" y2="376" stroke="black" />
<text x="1762" y="368" font-family="Verdana" font-size="8" text-anchor="middle"  dominant-baseline="middle" fill="black" > 361</text>
<circle cx="1725" cy="376" r="4" fill="white" stroke="black" />
<line x1="1725" y1="380" x2="1725" y2="386" stroke="black" />
<line x1="1721" y1="390" x2="1725" y2="382" stroke="blue" />
<line x1="1725" y1="390" x2="1729" y2="382" stroke="blue" />
<text x="1725" y="398" font-family="Verdana" font-size="8" text-anchor="middle"  dominant-baseline="middle" fill="black" > 371</text>
<circle cx="1775" cy="376" r="4" fill="white" stroke="black" />
<line x1="1775" y1="380" x2="1775" y2="736" stroke="black" />
<circle cx="1775" cy="736" r="4" fill="white" stroke="black" />
<text x="1775" y="748" font-family="Verdana" font-size="8" text-anchor="middle"  dominant-baseline="middle" fill="black" > 721</text>
<circle cx="1850" cy="180" r="4" fill="white" stroke="black" />
<line x1="1850" y1="184" x2="1850" y2="522" stroke="black" />
<line x1="1816" y1="522" x2="1884" y2="522" stroke="black" />
<text x="1858" y="514" font-family="Verdana" font-size="8" text-anchor="middle"  dominant-baseline="middle" fill="black" > 507</text>
<circle cx="1816" cy="522" r="4" fill="white" stroke="black" />
<line x1="1816" y1="526" x2="1816" y2="530" stroke="black" />
<line x1="1812" y1="526" x2="1820" y2="534" stroke="red" />
<line x1="1812" y1="534" x2="1820" y2="526" stroke="red" />
<text x="1816" y="542" font-family="Verdana" font-size="8" text-anchor="middle"  dominant-baseline="middle" fill="black" > 515</text>
<circle cx="1849" cy="522" r="4" fill="white" stroke="black" />
<line x1="1849" y1="526" x2="1849" y2="736" stroke="black" />
<circle cx="1849" cy="736" r="4" fill="white" stroke="black" />
<text x="1849" y="748" font-family="Verdana" font-size="8" text-anchor="middle"  dominant-baseline="middle" fill="black" > 721</text>
<circle cx="1882" cy="522" r="4" fill="white" stroke="black" />
<line x1="1882" y1="526" x2="1882" y2="526" stroke="black" />
<line x1="1878" y1="522" x2="1886" y2="530" stroke="red" />
<line x1="1878" y1="530" x2="1886" y2="522" stroke="red" />
<text x="1882" y="538" font-family="Verdana" font-size="8" text-anchor="middle"  dominant-baseline="middle" fill="black" > 511</text>
<text x="1950" y="7" font-family="Verdana" font-size="7" text-anchor="middle"  dominant-baseline="middle" fill="black" > C10</text>
<circle cx="1950" cy="15" r="4" fill="white" stroke="black" />
<line x1="1950" y1="19" x2="1950" y2="106" stroke="black" />
<line x1="1946" y1="110" x2="1950" y2="102" stroke="blue" />
<line x1="1950" y1="110" x2="1954" y2="102" stroke="blue" />
<text x="1950" y="118" font-family="Verdana" font-size="8" text-anchor="middle"  dominant-baseline="middle" fill="black" > 91</text>
<text x="2100" y="7" font-family="Verdana" font-size="7" text-anchor="middle"  dominant-baseline="middle" fill="black" > C11</text>
<circle cx="2100" cy="15" r="4" fill="white" stroke="black" />
<line x1="2100" y1="19" x2="2100" y2="192" stroke="black" />
<line x1="2050" y1="192" x2="2150" y2="192" stroke="black" />
<text x="2125" y="184" font-family="Verdana" font-size="8" text-anchor="middle"  dominant-baseline="middle" fill="black" > 177</text>
<circle cx="2050" cy="192" r="4" fill="white" stroke="black" />
<line x1="2050" y1="196" x2="2050" y2="705" stroke="black" />
<line x1="2046" y1="701" x2="2054" y2="709" stroke="red" />
<line x1="2046" y1="709" x2="2054" y2="701" stroke="red" />
<text x="2050" y="717" font-family="Verdana" font-size="8" text-anchor="middle"  dominant-baseline="middle" fill="black" > 690</text>
<circle cx="2150" cy="192" r="4" fill="white" stroke="black" />
<line x1="2150" y1="196" x2="2150" y2="502" stroke="black" />
<line x1="2125" y1="502" x2="2175" y2="502" stroke="black" />
<text x="2162" y="494" font-family="Verdana" font-size="8" text-anchor="middle"  dominant-baseline="middle" fill="black" > 487</text>
<circle cx="2125" cy="502" r="4" fill="white" stroke="black" />
<circle cx="2175" cy="502" r="4" fill="white" stroke="black" />
<line x1="2125" y1="506" x2="2125" y2="600" stroke="black" />
<line x1="2125" y1="600" x2="2150" y2="632" stroke="black" />
<line x1="2175" y1="506" x2="2175" y2="600" stroke="black" />
<line x1="2175" y1="600" x2="2150" y2="632" stroke="black" />
<text x="2150" y="620" font-family="Verdana" font-size="8" text-anchor="middle"  dominant-baseline="middle" fill="black" > 617</text>
<circle cx="2150" cy="632" r="4" fill="white" stroke="black" />
<line x1="2150" y1="636" x2="2150" y2="736" stroke="black" />
<circle cx="2150" cy="736" r="4" fill="white" stroke="black" />
<text x="2150" y="748" font-family="Verdana" font-size="8" text-anchor="middle"  dominant-baseline="middle" fill="black" > 721</text>
</svg>
