<?xml version="1.0" encoding="utf-8"?>
<svg xmlns="http://www.w3.org/2000/svg" version="1.1" width="4350" height="750">
<rect width="4350" height="15" x="0" y="0" fill="white" />
<rect width="4350" height="15" x="0" y="735" fill="white" />
<rect width="25" height="750" x="0" y="0" fill="white" />
<rect width="25" height="750" x="4325" y="0" fill="white" />
<rect width="4310" height="144" x="25" y="15" fill="ghostwhite" />
<rect width="4310" height="144" x="25" y="159" fill="snow" />
<rect width="4310" height="144" x="25" y="303" fill="ghostwhite" />
<rect width="4310" height="144" x="25" y="447" fill="snow" />
<rect width="4310" height="144" x="25" y="591" fill="ghostwhite" />
<text x="12" y="87" font-family="Verdana" font-size="10" text-anchor="middle"  dominant-baseline="middle" fill="red" > D0</text>
<text x="12" y="231" font-family="Verdana" font-size="10" text-anchor="middle"  dominant-baseline="middle" fill="red" > D1</text>
<text x="12" y="375" font-family="Verdana" font-size="10" text-anchor="middle"  dominant-baseline="middle" fill="red" > D2</text>
<text x="12" y="519" font-family="Verdana" font-size="10" text-anchor="middle"  dominant-baseline="middle" fill="red" > D3</text>
<text x="12" y="663" font-family="Verdana" font-size="10" text-anchor="middle"  dominant-baseline="middle" fill="red" > D4</text>
<text x="12" y="20" font-family="Verdana" font-size="10" text-anchor="middle"  dominant-baseline="middle" fill="black" > 0</text>
<text x="12" y="164" font-family="Verdana" font-size="10" text-anchor="middle"  dominant-baseline="middle" fill="black" > 144</text>
<text x="12" y="308" font-family="Verdana" font-size="10" text-anchor="middle"  dominant-baseline="middle" fill="black" > 288</text>
<text x="12" y="452" font-family="Verdana" font-size="10" text-anchor="middle"  dominant-baseline="middle" fill="black" > 432</text>
<text x="12" y="596" font-family="Verdana" font-size="10" text-anchor="middle"  dominant-baseline="middle" fill="black" > 576</text>
<text x="12" y="740" font-family="Verdana" font-size="10" text-anchor="middle"  dominant-baseline="middle" fill="black" > 720</text>
<text x="100" y="7" font-family="Verdana" font-size="7" text-anchor="middle"  dominant-baseline="middle" fill="black" > C1</text>
<circle cx="100" cy="15" r="4" fill="white" stroke="black" />
<line x1="100" y1="19" x2="100" y2="287" stroke="black" />
<line x1="50" y1="287" x2="150" y2="287" stroke="black" />
<text x="125" y="279" font-family="Verdana" font-size="8" text-anchor="middle"  dominant-baseline="middle" fill="black" > 272</text>
<circle cx="50" cy="287" r="4" fill="white" stroke="black" />
<line x1="50" y1="291" x2="50" y2="539" stroke="black" />
<line x1="16" y1="539" x2="84" y2="539" stroke="black" />
<text x="58" y="531" font-family="Verdana" font-size="8" text-anchor="middle"  dominant-baseline="middle" fill="black" > 524</text>
<circle cx="16" cy="539" r="4" fill="white" stroke="black" />
<line x1="16" y1="543" x2="16" y2="736" stroke="black" />
<circle cx="16" cy="736" r="4" fill="white" stroke="black" />
<text x="16" y="748" font-family="Verdana" font-size="8" text-anchor="middle"  dominant-baseline="middle" fill="black" > 721</text>
<circle cx="49" cy="539" r="4" fill="white" stroke="black" />
<circle cx="82" cy="539" r="4" fill="white" stroke="black" />
<line x1="49" y1="543" x2="49" y2="543" stroke="black" />
<line x1="49" y1="543" x2="65" y2="544" stroke="black" />
<line x1="82" y1="543" x2="82" y2="543" stroke="black" />
<line x1="82" y1="543" x2="65" y2="544" stroke="black" />
<text x="65" y="532" font-family="Verdana" font-size="8" text-anchor="middle"  dominant-baseline="middle" fill="black" > 529</text>
<circle cx="65" cy="544" r="4" fill="white" stroke="black" />
<line x1="65" y1="548" x2="65" y2="717" stroke="black" />
<line x1="52" y1="717" x2="79" y2="717" stroke="black" />
<text x="66" y="709" font-family="Verdana" font-size="8" text-anchor="middle"  dominant-baseline="middle" fill="black" > 702</text>
<circle cx="52" cy="717" r="4" fill="white" stroke="black" />
<line x1="52" y1="721" x2="52" y2="736" stroke="black" />
<circle cx="52" cy="736" r="4" fill="white" stroke="black" />
<text x="52" y="748" font-family="Verdana" font-size="8" text-anchor="middle"  dominant-baseline="middle" fill="black" > 721</text>
<circle cx="58" cy="717" r="4" fill="white" stroke="black" />
<line x1="58" y1="721" x2="58" y2="736" stroke="black" />
<circle cx="58" cy="736" r="4" fill="white" stroke="black" />
<text x="58" y="748" font-family="Verdana" font-size="8" text-anchor="middle"  dominant-baseline="middle" fill="black" > 721</text>
<circle cx="64" cy="717" r="4" fill="white" stroke="black" />
<line x1="64" y1="721" x2="64" y2="736" stroke="black" />
<circle cx="64" cy="736" r="4" fill="white" stroke="black" />
<text x="64" y="748" font-family="Verdana" font-size="8" text-anchor="middle"  dominant-baseline="middle" fill="black" > 721</text>
<circle cx="70" cy="717" r="4" fill="white" stroke="black" />
<line x1="70" y1="721" x2="70" y2="736" stroke="black" />
<circle cx="70" cy="736" r="4" fill="white" stroke="black" />
<text x="70" y="748" font-family="Verdana" font-size="8" text-anchor="middle"  dominant-baseline="middle" fill="black" > 721</text>
<circle cx="76" cy="717" r="4" fill="white" stroke="black" />
<line x1="76" y1="721" x2="76" y2="736" stroke="black" />
<circle cx="76" cy="736" r="4" fill="white" stroke="black" />
<text x="76" y="748" font-family="Verdana" font-size="8" text-anchor="middle"  dominant-baseline="middle" fill="black" > 721</text>
<circle cx="150" cy="287" r="4" fill="white" stroke="black" />
<line x1="150" y1="291" x2="150" y2="595" stroke="black" />
<line x1="146" y1="591" x2="154" y2="599" stroke="red" />
<line x1="146" y1="599" x2="154" y2="591" stroke="red" />
<text x="150" y="607" font-family="Verdana" font-size="8" text-anchor="middle"  dominant-baseline="middle" fill="black" > 580</text>
<text x="250" y="7" font-family="Verdana" font-size="7" text-anchor="middle"  dominant-baseline="middle" fill="black" > C2</text>
<circle cx="250" cy="15" r="4" fill="white" stroke="black" />
<line x1="250" y1="19" x2="250" y2="270" stroke="black" />
<line x1="246" y1="274" x2="250" y2="266" stroke="blue" />
<line x1="250" y1="274" x2="254" y2="266" stroke="blue" />
<text x="250" y="282" font-family="Verdana" font-size="8" text-anchor="middle"  dominant-baseline="middle" fill="black" > 255</text>
<text x="350" y="7" font-family="Verdana" font-size="7" text-anchor="middle"  dominant-baseline="middle" fill="black" > C3</text>
<circle cx="350" cy="15" r="4" fill="white" stroke="black" />
<line x1="350" y1="19" x2="350" y2="98" stroke="black" />
<line x1="346" y1="94" x2="354" y2="102" stroke="red" />
<line x1="346" y1="102" x2="354" y2="94" stroke="red" />
<text x="350" y="110" font-family="Verdana" font-size="8" text-anchor="middle"  dominant-baseline="middle" fill="black" > 83</text>
<text x="450" y="7" font-family="Verdana" font-size="7" text-anchor="middle"  dominant-baseline="middle" fill="black" > C4</text>
<circle cx="450" cy="15" r="4" fill="white" stroke="black" />
<line x1="450" y1="19" x2="450" y2="97" stroke="black" />
<line x1="446" y1="101" x2="450" y2="93" stroke="blue" />
<line x1="450" y1="101" x2="454" y2="93" stroke="blue" />
<text x="450" y="109" font-family="Verdana" font-size="8" text-anchor="middle"  dominant-baseline="middle" fill="black" > 82</text>
<text x="550" y="7" font-family="Verdana" font-size="7" text-anchor="middle"  dominant-baseline="middle" fill="black" > C5</text>
<circle cx="550" cy="15" r="4" fill="white" stroke="black" />
<circle cx="650" cy="34" r="4" fill="white" stroke="black" />
<line x1="550" y1="19" x2="550" y2="44" stroke="black" />
<line x1="550" y1="44" x2="600" y2="47" stroke="black" />
<line x1="650" y1="38" x2="650" y2="44" stroke="black" />
<line x1="650" y1="44" x2="600" y2="47" stroke="black" />
<text x="600" y="35" font-family="Verdana" font-size="8" text-anchor="middle"  dominant-baseline="middle" fill="black" > 32</text>
<circle cx="600" cy="47" r="4" fill="white" stroke="black" />
<line x1="600" y1="51" x2="600" y2="302" stroke="black" />
<line x1="558" y1="302" x2="642" y2="302" stroke="black" />
<text x="604" y="294" font-family="Verdana" font-size="8" text-anchor="middle"  dominant-baseline="middle" fill="black" > 287</text>
<circle cx="558" cy="302" r="4" fill="white" stroke="black" />
<circle cx="574" cy="302" r="4" fill="white" stroke="black" />
<line x1="558" y1="306" x2="558" y2="344" stroke="black" />
<line x1="558" y1="344" x2="566" y2="358" stroke="black" />
<line x1="574" y1="306" x2="574" y2="344" stroke="black" />
<line x1="574" y1="344" x2="566" y2="358" stroke="black" />
<text x="566" y="346" font-family="Verdana" font-size="8" text-anchor="middle"  dominant-baseline="middle" fill="black" > 343</text>
<circle cx="566" cy="358" r="4" fill="white" stroke="black" />
<line x1="566" y1="362" x2="566" y2="736" stroke="black" />
<circle cx="566" cy="736" r="4" fill="white" stroke="black" />
<text x="566" y="748" font-family="Verdana" font-size="8" text-anchor="middle"  dominant-baseline="middle" fill="black" > 721</text>
<circle cx="590" cy="302" r="4" fill="white" stroke="black" />
<circle cx="606" cy="302" r="4" fill="white" stroke="black" />
<line x1="590" y1="306" x2="590" y2="372" stroke="black" />
<line x1="590" y1="372" x2="598" y2="395" stroke="black" />
<line x1="606" y1="306" x2="606" y2="372" stroke="black" />
<line x1="606" y1="372" x2="598" y2="395" stroke="black" />
<text x="598" y="383" font-family="Verdana" font-size="8" text-anchor="middle"  dominant-baseline="middle" fill="black" > 380</text>
<circle cx="598" cy="395" r="4" fill="white" stroke="black" />
<circle cx="622" cy="302" r="4" fill="white" stroke="black" />
<circle cx="638" cy="302" r="4" fill="white" stroke="black" />
<line x1="622" y1="306" x2="622" y2="356" stroke="black" />
<line x1="622" y1="356" x2="630" y2="373" stroke="black" />
<line x1="638" y1="306" x2="638" y2="356" stroke="black" />
<line x1="638" y1="356" x2="630" y2="373" stroke="black" />
<text x="630" y="361" font-family="Verdana" font-size="8" text-anchor="middle"  dominant-baseline="middle" fill="black" > 358</text>
<circle cx="630" cy="373" r="4" fill="white" stroke="black" />
<line x1="598" y1="399" x2="598" y2="395" stroke="black" />
<line x1="598" y1="395" x2="614" y2="395" stroke="black" />
<line x1="630" y1="377" x2="630" y2="395" stroke="black" />
<line x1="630" y1="395" x2="614" y2="395" stroke="black" />
<text x="614" y="383" font-family="Verdana" font-size="8" text-anchor="middle"  dominant-baseline="middle" fill="black" > 380</text>
<circle cx="614" cy="395" r="4" fill="white" stroke="black" />
<line x1="614" y1="399" x2="614" y2="397" stroke="black" />
<line x1="603" y1="397" x2="625" y2="397" stroke="black" />
<text x="616" y="389" font-family="Verdana" font-size="8" text-anchor="middle"  dominant-baseline="middle" fill="black" > 382</text>
<circle cx="603" cy="397" r="4" fill="white" stroke="black" />
<circle cx="613" cy="397" r="4" fill="white" stroke="black" />
<circle cx="623" cy="397" r="4" fill="white" stroke="black" />
<line x1="603" y1="401" x2="603" y2="398" stroke="black" />
<line x1="603" y1="398" x2="613" y2="398" stroke="black" />
<line x1="613" y1="401" x2="613" y2="398" stroke="black" />
<line x1="613" y1="398" x2="613" y2="398" stroke="black" />
<line x1="623" y1="401" x2="623" y2="398" stroke="black" />
<line x1="623" y1="398" x2="613" y2="398" stroke="black" />
<text x="613" y="386" font-family="Verdana" font-size="8" text-anchor="middle"  dominant-baseline="middle" fill="black" > 383</text>
<circle cx="613" cy="398" r="4" fill="white" stroke="black" />
<line x1="613" y1="402" x2="613" y2="400" stroke="black" />
<line x1="609" y1="396" x2="617" y2="404" stroke="red" />
<line x1="609" y1="404" x2="617" y2="396" stroke="red" />
<text x="613" y="412" font-family="Verdana" font-size="8" text-anchor="middle"  dominant-baseline="middle" fill="black" > 385</text>
<text x="900" y="7" font-family="Verdana" font-size="7" text-anchor="middle"  dominant-baseline="middle" fill="black" > C7</text>
<circle cx="900" cy="15" r="4" fill="white" stroke="black" />
<line x1="900" y1="19" x2="900" y2="471" stroke="black" />
<line x1="750" y1="471" x2="1050" y2="471" stroke="black" />
<text x="925" y="463" font-family="Verdana" font-size="8" text-anchor="middle"  dominant-baseline="middle" fill="black" > 456</text>
<circle cx="750" cy="471" r="4" fill="white" stroke="black" />
<line x1="750" y1="475" x2="750" y2="736" stroke="black" />
<circle cx="750" cy="736" r="4" fill="white" stroke="black" />
<text x="750" y="748" font-family="Verdana" font-size="8" text-anchor="middle"  dominant-baseline="middle" fill="black" > 721</text>
<circle cx="850" cy="471" r="4" fill="white" stroke="black" />
<line x1="850" y1="475" x2="850" y2="736" stroke="black" />
<circle cx="850" cy="736" r="4" fill="white" stroke="black" />
<text x="850" y="748" font-family="Verdana" font-size="8" text-anchor="middle"  dominant-baseline="middle" fill="black" > 721</text>
<circle cx="950" cy="471" r="4" fill="white" stroke="black" />
<line x1="950" y1="475" x2="950" y2="484" stroke="black" />
<line x1="946" y1="488" x2="950" y2="480" stroke="blue" />
<line x1="950" y1="488" x2="954" y2="480" stroke="blue" />
<text x="950" y="496" font-family="Verdana" font-size="8" text-anchor="middle"  dominant-baseline="middle" fill="black" > 469</text>
<circle cx="1050" cy="471" r="4" fill="white" stroke="black" />
<line x1="1050" y1="475" x2="1050" y2="484" stroke="black" />
<line x1="1046" y1="488" x2="1050" y2="480" stroke="blue" />
<line x1="1050" y1="488" x2="1054" y2="480" stroke="blue" />
<text x="1050" y="496" font-family="Verdana" font-size="8" text-anchor="middle"  dominant-baseline="middle" fill="black" > 469</text>
<text x="1300" y="7" font-family="Verdana" font-size="7" text-anchor="middle"  dominant-baseline="middle" fill="black" > C8</text>
<circle cx="1300" cy="15" r="4" fill="white" stroke="black" />
<line x1="1300" y1="19" x2="1300" y2="397" stroke="black" />
<line x1="1150" y1="397" x2="1450" y2="397" stroke="black" />
<text x="1325" y="389" font-family="Verdana" font-size="8" text-anchor="middle"  dominant-baseline="middle" fill="black" > 382</text>
<circle cx="1150" cy="397" r="4" fill="white" stroke="black" />
<circle cx="1250" cy="397" r="4" fill="white" stroke="black" />
<circle cx="1350" cy="397" r="4" fill="white" stroke="black" />
<circle cx="1450" cy="397" r="4" fill="white" stroke="black" />
<line x1="1350" y1="401" x2="1350" y2="442" stroke="black" />
<line x1="1350" y1="442" x2="1400" y2="456" stroke="black" />
<line x1="1450" y1="401" x2="1450" y2="442" stroke="black" />
<line x1="1450" y1="442" x2="1400" y2="456" stroke="black" />
<text x="1400" y="444" font-family="Verdana" font-size="8" text-anchor="middle"  dominant-baseline="middle" fill="black" > 441</text>
<circle cx="1400" cy="456" r="4" fill="white" stroke="black" />
<line x1="1250" y1="401" x2="1250" y2="529" stroke="black" />
<line x1="1250" y1="529" x2="1325" y2="553" stroke="black" />
<line x1="1400" y1="460" x2="1400" y2="529" stroke="black" />
<line x1="1400" y1="529" x2="1325" y2="553" stroke="black" />
<text x="1325" y="541" font-family="Verdana" font-size="8" text-anchor="middle"  dominant-baseline="middle" fill="black" > 538</text>
<circle cx="1325" cy="553" r="4" fill="white" stroke="black" />
<line x1="1150" y1="401" x2="1150" y2="634" stroke="black" />
<line x1="1150" y1="634" x2="1237" y2="661" stroke="black" />
<line x1="1325" y1="557" x2="1325" y2="634" stroke="black" />
<line x1="1325" y1="634" x2="1237" y2="661" stroke="black" />
<text x="1237" y="649" font-family="Verdana" font-size="8" text-anchor="middle"  dominant-baseline="middle" fill="black" > 646</text>
<circle cx="1237" cy="661" r="4" fill="white" stroke="black" />
<line x1="1237" y1="665" x2="1237" y2="736" stroke="black" />
<circle cx="1237" cy="736" r="4" fill="white" stroke="black" />
<text x="1237" y="748" font-family="Verdana" font-size="8" text-anchor="middle"  dominant-baseline="middle" fill="black" > 721</text>
<text x="1550" y="7" font-family="Verdana" font-size="7" text-anchor="middle"  dominant-baseline="middle" fill="black" > C9</text>
<circle cx="1550" cy="15" r="4" fill="white" stroke="black" />
<line x1="1550" y1="19" x2="1550" y2="289" stroke="black" />
<line x1="1546" y1="285" x2="1554" y2="293" stroke="red" />
<line x1="1546" y1="293" x2="1554" y2="285" stroke="red" />
<text x="1550" y="301" font-family="Verdana" font-size="8" text-anchor="middle"  dominant-baseline="middle" fill="black" > 274</text>
<text x="1650" y="7" font-family="Verdana" font-size="7" text-anchor="middle"  dominant-baseline="middle" fill="black" > C10</text>
<circle cx="1650" cy="15" r="4" fill="white" stroke="black" />
<text x="1750" y="7" font-family="Verdana" font-size="7" text-anchor="middle"  dominant-baseline="middle" fill="black" > C11</text>
<circle cx="1750" cy="15" r="4" fill="white" stroke="black" />
<line x1="1650" y1="19" x2="1650" y2="73" stroke="black" />
<line x1="1650" y1="73" x2="1700" y2="92" stroke="black" />
<line x1="1750" y1="19" x2="1750" y2="73" stroke="black" />
<line x1="1750" y1="73" x2="1700" y2="92" stroke="black" />
<text x="1700" y="80" font-family="Verdana" font-size="8" text-anchor="middle"  dominant-baseline="middle" fill="black" > 77</text>
<circle cx="1700" cy="92" r="4" fill="white" stroke="black" />
<line x1="1700" y1="96" x2="1700" y2="736" stroke="black" />
<circle cx="1700" cy="736" r="4" fill="white" stroke="black" />
<text x="1700" y="748" font-family="Verdana" font-size="8" text-anchor="middle"  dominant-baseline="middle" fill="black" > 721</text>
<text x="1900" y="7" font-family="Verdana" font-size="7" text-anchor="middle"  dominant-baseline="middle" fill="black" > C12</text>
<circle cx="1900" cy="15" r="4" fill="white" stroke="black" />
<line x1="1900" y1="19" x2="1900" y2="230" stroke="black" />
<line x1="1850" y1="230" x2="1950" y2="230" stroke="black" />
<text x="1925" y="222" font-family="Verdana" font-size="8" text-anchor="middle"  dominant-baseline="middle" fill="black" > 215</text>
<circle cx="1850" cy="230" r="4" fill="white" stroke="black" />
<line x1="1850" y1="234" x2="1850" y2="578" stroke="black" />
<line x1="1846" y1="574" x2="1854" y2="582" stroke="red" />
<line x1="1846" y1="582" x2="1854" y2="574" stroke="red" />
<text x="1850" y="590" font-family="Verdana" font-size="8" text-anchor="middle"  dominant-baseline="middle" fill="black" > 563</text>
<circle cx="1950" cy="230" r="4" fill="white" stroke="black" />
<line x1="1950" y1="234" x2="1950" y2="456" stroke="black" />
<line x1="1925" y1="456" x2="1975" y2="456" stroke="black" />
<text x="1962" y="448" font-family="Verdana" font-size="8" text-anchor="middle"  dominant-baseline="middle" fill="black" > 441</text>
<circle cx="1925" cy="456" r="4" fill="white" stroke="black" />
<line x1="1925" y1="460" x2="1925" y2="716" stroke="black" />
<line x1="1912" y1="716" x2="1938" y2="716" stroke="black" />
<text x="1931" y="708" font-family="Verdana" font-size="8" text-anchor="middle"  dominant-baseline="middle" fill="black" > 701</text>
<circle cx="1912" cy="716" r="4" fill="white" stroke="black" />
<line x1="1912" y1="720" x2="1912" y2="736" stroke="black" />
<circle cx="1912" cy="736" r="4" fill="white" stroke="black" />
<text x="1912" y="748" font-family="Verdana" font-size="8" text-anchor="middle"  dominant-baseline="middle" fill="black" > 721</text>
<circle cx="1937" cy="716" r="4" fill="white" stroke="black" />
<line x1="1937" y1="720" x2="1937" y2="736" stroke="black" />
<circle cx="1937" cy="736" r="4" fill="white" stroke="black" />
<text x="1937" y="748" font-family="Verdana" font-size="8" text-anchor="middle"  dominant-baseline="middle" fill="black" > 721</text>
<circle cx="1975" cy="456" r="4" fill="white" stroke="black" />
<line x1="1975" y1="460" x2="1975" y2="684" stroke="black" />
<line x1="1962" y1="684" x2="1988" y2="684" stroke="black" />
<text x="1981" y="676" font-family="Verdana" font-size="8" text-anchor="middle"  dominant-baseline="middle" fill="black" > 669</text>
<circle cx="1962" cy="684" r="4" fill="white" stroke="black" />
<line x1="1962" y1="688" x2="1962" y2="736" stroke="black" />
<circle cx="1962" cy="736" r="4" fill="white" stroke="black" />
<text x="1962" y="748" font-family="Verdana" font-size="8" text-anchor="middle"  dominant-baseline="middle" fill="black" > 721</text>
<circle cx="1987" cy="684" r="4" fill="white" stroke="black" />
<line x1="1987" y1="688" x2="1987" y2="736" stroke="black" />
<circle cx="1987" cy="736" r="4" fill="white" stroke="black" />
<text x="1987" y="748" font-family="Verdana" font-size="8" text-anchor="middle"  dominant-baseline="middle" fill="black" > 721</text>
<text x="2050" y="7" font-family="Verdana" font-size="7" text-anchor="middle"  dominant-baseline="middle" fill="black" > C13</text>
<circle cx="2050" cy="15" r="4" fill="white" stroke="black" />
<line x1="2050" y1="19" x2="2050" y2="336" stroke="black" />
<line x1="2046" y1="332" x2="2054" y2="340" stroke="red" />
<line x1="2046" y1="340" x2="2054" y2="332" stroke="red" />
<text x="2050" y="348" font-family="Verdana" font-size="8" text-anchor="middle"  dominant-baseline="middle" fill="black" > 321</text>
<text x="2200" y="7" font-family="Verdana" font-size="7" text-anchor="middle"  dominant-baseline="middle" fill="black" > C14</text>
<circle cx="2200" cy="15" r="4" fill="white" stroke="black" />
<line x1="2200" y1="19" x2="2200" y2="202" stroke="black" />
<line x1="2150" y1="202" x2="2250" y2="202" stroke="black" />
<text x="2225" y="194" font-family="Verdana" font-size="8" text-anchor="middle"  dominant-baseline="middle" fill="black" > 187</text>
<circle cx="2150" cy="202" r="4" fill="white" stroke="black" />
<line x1="2150" y1="206" x2="2150" y2="396" stroke="black" />
<line x1="2125" y1="396" x2="2175" y2="396" stroke="black" />
<text x="2162" y="388" font-family="Verdana" font-size="8" text-anchor="middle"  dominant-baseline="middle" fill="black" > 381</text>
<circle cx="2125" cy="396" r="4" fill="white" stroke="black" />
<line x1="2125" y1="400" x2="2125" y2="630" stroke="black" />
<line x1="2121" y1="626" x2="2129" y2="634" stroke="red" />
<line x1="2121" y1="634" x2="2129" y2="626" stroke="red" />
<text x="2125" y="642" font-family="Verdana" font-size="8" text-anchor="middle"  dominant-baseline="middle" fill="black" > 615</text>
<circle cx="2175" cy="396" r="4" fill="white" stroke="black" />
<line x1="2175" y1="400" x2="2175" y2="592" stroke="black" />
<line x1="2158" y1="592" x2="2192" y2="592" stroke="black" />
<text x="2179" y="584" font-family="Verdana" font-size="8" text-anchor="middle"  dominant-baseline="middle" fill="black" > 577</text>
<circle cx="2158" cy="592" r="4" fill="white" stroke="black" />
<circle cx="2174" cy="592" r="4" fill="white" stroke="black" />
<line x1="2158" y1="596" x2="2158" y2="631" stroke="black" />
<line x1="2158" y1="631" x2="2166" y2="644" stroke="black" />
<line x1="2174" y1="596" x2="2174" y2="631" stroke="black" />
<line x1="2174" y1="631" x2="2166" y2="644" stroke="black" />
<text x="2166" y="632" font-family="Verdana" font-size="8" text-anchor="middle"  dominant-baseline="middle" fill="black" > 629</text>
<circle cx="2166" cy="644" r="4" fill="white" stroke="black" />
<line x1="2166" y1="648" x2="2166" y2="736" stroke="black" />
<circle cx="2166" cy="736" r="4" fill="white" stroke="black" />
<text x="2166" y="748" font-family="Verdana" font-size="8" text-anchor="middle"  dominant-baseline="middle" fill="black" > 721</text>
<circle cx="2190" cy="592" r="4" fill="white" stroke="black" />
<line x1="2190" y1="596" x2="2190" y2="736" stroke="black" />
<circle cx="2190" cy="736" r="4" fill="white" stroke="black" />
<text x="2190" y="748" font-family="Verdana" font-size="8" text-anchor="middle"  dominant-baseline="middle" fill="black" > 721</text>
<circle cx="2250" cy="202" r="4" fill="white" stroke="black" />
<line x1="2250" y1="206" x2="2250" y2="690" stroke="black" />
<line x1="2246" y1="686" x2="2254" y2="694" stroke="red" />
<line x1="2246" y1="694" x2="2254" y2="686" stroke="red" />
<text x="2250" y="702" font-family="Verdana" font-size="8" text-anchor="middle"  dominant-baseline="middle" fill="black" > 675</text>
<text x="2400" y="7" font-family="Verdana" font-size="7" text-anchor="middle"  dominant-baseline="middle" fill="black" > C15</text>
<circle cx="2400" cy="15" r="4" fill="white" stroke="black" />
<line x1="2400" y1="19" x2="2400" y2="229" stroke="black" />
<line x1="2350" y1="229" x2="2450" y2="229" stroke="black" />
<text x="2425" y="221" font-family="Verdana" font-size="8" text-anchor="middle"  dominant-baseline="middle" fill="black" > 214</text>
<circle cx="2350" cy="229" r="4" fill="white" stroke="black" />
<circle cx="2450" cy="229" r="4" fill="white" stroke="black" />
<line x1="2350" y1="233" x2="2350" y2="304" stroke="black" />
<line x1="2350" y1="304" x2="2400" y2="329" stroke="black" />
<line x1="2450" y1="233" x2="2450" y2="304" stroke="black" />
<line x1="2450" y1="304" x2="2400" y2="329" stroke="black" />
<text x="2400" y="317" font-family="Verdana" font-size="8" text-anchor="middle"  dominant-baseline="middle" fill="black" > 314</text>
<circle cx="2400" cy="329" r="4" fill="white" stroke="black" />
<line x1="2400" y1="333" x2="2400" y2="441" stroke="black" />
<line x1="2366" y1="441" x2="2434" y2="441" stroke="black" />
<text x="2408" y="433" font-family="Verdana" font-size="8" text-anchor="middle"  dominant-baseline="middle" fill="black" > 426</text>
<circle cx="2366" cy="441" r="4" fill="white" stroke="black" />
<line x1="2366" y1="445" x2="2366" y2="507" stroke="black" />
<line x1="2362" y1="511" x2="2366" y2="503" stroke="blue" />
<line x1="2366" y1="511" x2="2370" y2="503" stroke="blue" />
<text x="2366" y="519" font-family="Verdana" font-size="8" text-anchor="middle"  dominant-baseline="middle" fill="black" > 492</text>
<circle cx="2399" cy="441" r="4" fill="white" stroke="black" />
<circle cx="2432" cy="441" r="4" fill="white" stroke="black" />
<line x1="2399" y1="445" x2="2399" y2="456" stroke="black" />
<line x1="2399" y1="456" x2="2415" y2="461" stroke="black" />
<line x1="2432" y1="445" x2="2432" y2="456" stroke="black" />
<line x1="2432" y1="456" x2="2415" y2="461" stroke="black" />
<text x="2415" y="449" font-family="Verdana" font-size="8" text-anchor="middle"  dominant-baseline="middle" fill="black" > 446</text>
<circle cx="2415" cy="461" r="4" fill="white" stroke="black" />
<line x1="2415" y1="465" x2="2415" y2="627" stroke="black" />
<line x1="2404" y1="627" x2="2427" y2="627" stroke="black" />
<text x="2417" y="619" font-family="Verdana" font-size="8" text-anchor="middle"  dominant-baseline="middle" fill="black" > 612</text>
<circle cx="2404" cy="627" r="4" fill="white" stroke="black" />
<line x1="2404" y1="631" x2="2404" y2="721" stroke="black" />
<line x1="2400" y1="717" x2="2408" y2="725" stroke="red" />
<line x1="2400" y1="725" x2="2408" y2="717" stroke="red" />
<text x="2404" y="733" font-family="Verdana" font-size="8" text-anchor="middle"  dominant-baseline="middle" fill="black" > 706</text>
<circle cx="2415" cy="627" r="4" fill="white" stroke="black" />
<line x1="2415" y1="631" x2="2415" y2="736" stroke="black" />
<circle cx="2415" cy="736" r="4" fill="white" stroke="black" />
<text x="2415" y="748" font-family="Verdana" font-size="8" text-anchor="middle"  dominant-baseline="middle" fill="black" > 721</text>
<circle cx="2426" cy="627" r="4" fill="white" stroke="black" />
<line x1="2426" y1="631" x2="2426" y2="736" stroke="black" />
<circle cx="2426" cy="736" r="4" fill="white" stroke="black" />
<text x="2426" y="748" font-family="Verdana" font-size="8" text-anchor="middle"  dominant-baseline="middle" fill="black" > 721</text>
<text x="2650" y="7" font-family="Verdana" font-size="7" text-anchor="middle"  dominant-baseline="middle" fill="black" > C16</text>
<circle cx="2650" cy="15" r="4" fill="white" stroke="black" />
<line x1="2650" y1="19" x2="2650" y2="467" stroke="black" />
<line x1="2550" y1="467" x2="2750" y2="467" stroke="black" />
<text x="2675" y="459" font-family="Verdana" font-size="8" text-anchor="middle"  dominant-baseline="middle" fill="black" > 452</text>
<circle cx="2550" cy="467" r="4" fill="white" stroke="black" />
<circle cx="2650" cy="467" r="4" fill="white" stroke="black" />
<line x1="2550" y1="471" x2="2550" y2="485" stroke="black" />
<line x1="2550" y1="485" x2="2600" y2="490" stroke="black" />
<line x1="2650" y1="471" x2="2650" y2="485" stroke="black" />
<line x1="2650" y1="485" x2="2600" y2="490" stroke="black" />
<text x="2600" y="478" font-family="Verdana" font-size="8" text-anchor="middle"  dominant-baseline="middle" fill="black" > 475</text>
<circle cx="2600" cy="490" r="4" fill="white" stroke="black" />
<circle cx="2750" cy="467" r="4" fill="white" stroke="black" />
<line x1="2600" y1="494" x2="2600" y2="500" stroke="black" />
<line x1="2600" y1="500" x2="2675" y2="503" stroke="black" />
<line x1="2750" y1="471" x2="2750" y2="500" stroke="black" />
<line x1="2750" y1="500" x2="2675" y2="503" stroke="black" />
<text x="2675" y="491" font-family="Verdana" font-size="8" text-anchor="middle"  dominant-baseline="middle" fill="black" > 488</text>
<circle cx="2675" cy="503" r="4" fill="white" stroke="black" />
<line x1="2675" y1="507" x2="2675" y2="550" stroke="black" />
<line x1="2671" y1="546" x2="2679" y2="554" stroke="red" />
<line x1="2671" y1="554" x2="2679" y2="546" stroke="red" />
<text x="2675" y="562" font-family="Verdana" font-size="8" text-anchor="middle"  dominant-baseline="middle" fill="black" > 535</text>
<text x="2900" y="7" font-family="Verdana" font-size="7" text-anchor="middle"  dominant-baseline="middle" fill="black" > C17</text>
<circle cx="2900" cy="15" r="4" fill="white" stroke="black" />
<line x1="2900" y1="19" x2="2900" y2="246" stroke="black" />
<line x1="2850" y1="246" x2="2950" y2="246" stroke="black" />
<text x="2925" y="238" font-family="Verdana" font-size="8" text-anchor="middle"  dominant-baseline="middle" fill="black" > 231</text>
<circle cx="2850" cy="246" r="4" fill="white" stroke="black" />
<line x1="2850" y1="250" x2="2850" y2="538" stroke="black" />
<line x1="2846" y1="534" x2="2854" y2="542" stroke="red" />
<line x1="2846" y1="542" x2="2854" y2="534" stroke="red" />
<text x="2850" y="550" font-family="Verdana" font-size="8" text-anchor="middle"  dominant-baseline="middle" fill="black" > 523</text>
<circle cx="2950" cy="246" r="4" fill="white" stroke="black" />
<line x1="2950" y1="250" x2="2950" y2="545" stroke="black" />
<line x1="2946" y1="541" x2="2954" y2="549" stroke="red" />
<line x1="2946" y1="549" x2="2954" y2="541" stroke="red" />
<text x="2950" y="557" font-family="Verdana" font-size="8" text-anchor="middle"  dominant-baseline="middle" fill="black" > 530</text>
<text x="3150" y="7" font-family="Verdana" font-size="7" text-anchor="middle"  dominant-baseline="middle" fill="black" > C18</text>
<circle cx="3150" cy="15" r="4" fill="white" stroke="black" />
<line x1="3150" y1="19" x2="3150" y2="287" stroke="black" />
<line x1="3050" y1="287" x2="3250" y2="287" stroke="black" />
<text x="3175" y="279" font-family="Verdana" font-size="8" text-anchor="middle"  dominant-baseline="middle" fill="black" > 272</text>
<circle cx="3050" cy="287" r="4" fill="white" stroke="black" />
<circle cx="3150" cy="287" r="4" fill="white" stroke="black" />
<line x1="3050" y1="291" x2="3050" y2="306" stroke="black" />
<line x1="3050" y1="306" x2="3100" y2="312" stroke="black" />
<line x1="3150" y1="291" x2="3150" y2="306" stroke="black" />
<line x1="3150" y1="306" x2="3100" y2="312" stroke="black" />
<text x="3100" y="300" font-family="Verdana" font-size="8" text-anchor="middle"  dominant-baseline="middle" fill="black" > 297</text>
<circle cx="3100" cy="312" r="4" fill="white" stroke="black" />
<circle cx="3250" cy="287" r="4" fill="white" stroke="black" />
<line x1="3100" y1="316" x2="3100" y2="316" stroke="black" />
<line x1="3100" y1="316" x2="3175" y2="317" stroke="black" />
<line x1="3250" y1="291" x2="3250" y2="316" stroke="black" />
<line x1="3250" y1="316" x2="3175" y2="317" stroke="black" />
<text x="3175" y="305" font-family="Verdana" font-size="8" text-anchor="middle"  dominant-baseline="middle" fill="black" > 302</text>
<circle cx="3175" cy="317" r="4" fill="white" stroke="black" />
<line x1="3175" y1="321" x2="3175" y2="377" stroke="black" />
<line x1="3171" y1="373" x2="3179" y2="381" stroke="red" />
<line x1="3171" y1="381" x2="3179" y2="373" stroke="red" />
<text x="3175" y="389" font-family="Verdana" font-size="8" text-anchor="middle"  dominant-baseline="middle" fill="black" > 362</text>
<text x="3400" y="7" font-family="Verdana" font-size="7" text-anchor="middle"  dominant-baseline="middle" fill="black" > C19</text>
<circle cx="3400" cy="15" r="4" fill="white" stroke="black" />
<line x1="3400" y1="19" x2="3400" y2="248" stroke="black" />
<line x1="3350" y1="248" x2="3450" y2="248" stroke="black" />
<text x="3425" y="240" font-family="Verdana" font-size="8" text-anchor="middle"  dominant-baseline="middle" fill="black" > 233</text>
<circle cx="3350" cy="248" r="4" fill="white" stroke="black" />
<line x1="3350" y1="252" x2="3350" y2="436" stroke="black" />
<line x1="3346" y1="440" x2="3350" y2="432" stroke="blue" />
<line x1="3350" y1="440" x2="3354" y2="432" stroke="blue" />
<text x="3350" y="448" font-family="Verdana" font-size="8" text-anchor="middle"  dominant-baseline="middle" fill="black" > 421</text>
<circle cx="3450" cy="248" r="4" fill="white" stroke="black" />
<line x1="3450" y1="252" x2="3450" y2="536" stroke="black" />
<line x1="3446" y1="532" x2="3454" y2="540" stroke="red" />
<line x1="3446" y1="540" x2="3454" y2="532" stroke="red" />
<text x="3450" y="548" font-family="Verdana" font-size="8" text-anchor="middle"  dominant-baseline="middle" fill="black" > 521</text>
<text x="3600" y="7" font-family="Verdana" font-size="7" text-anchor="middle"  dominant-baseline="middle" fill="black" > C20</text>
<circle cx="3600" cy="15" r="4" fill="white" stroke="black" />
<line x1="3600" y1="19" x2="3600" y2="297" stroke="black" />
<line x1="3550" y1="297" x2="3650" y2="297" stroke="black" />
<text x="3625" y="289" font-family="Verdana" font-size="8" text-anchor="middle"  dominant-baseline="middle" fill="black" > 282</text>
<circle cx="3550" cy="297" r="4" fill="white" stroke="black" />
<line x1="3550" y1="301" x2="3550" y2="736" stroke="black" />
<line x1="3546" y1="740" x2="3550" y2="732" stroke="blue" />
<line x1="3550" y1="740" x2="3554" y2="732" stroke="blue" />
<text x="3550" y="748" font-family="Verdana" font-size="8" text-anchor="middle"  dominant-baseline="middle" fill="black" > 721</text>
<circle cx="3650" cy="297" r="4" fill="white" stroke="black" />
<line x1="3650" y1="301" x2="3650" y2="451" stroke="black" />
<line x1="3625" y1="451" x2="3675" y2="451" stroke="black" />
<text x="3662" y="443" font-family="Verdana" font-size="8" text-anchor="middle"  dominant-baseline="middle" fill="black" > 436</text>
<circle cx="3625" cy="451" r="4" fill="white" stroke="black" />
<circle cx="3675" cy="451" r="4" fill="white" stroke="black" />
<line x1="3625" y1="455" x2="3625" y2="613" stroke="black" />
<line x1="3625" y1="613" x2="3650" y2="667" stroke="black" />
<line x1="3675" y1="455" x2="3675" y2="613" stroke="black" />
<line x1="3675" y1="613" x2="3650" y2="667" stroke="black" />
<text x="3650" y="655" font-family="Verdana" font-size="8" text-anchor="middle"  dominant-baseline="middle" fill="black" > 652</text>
<circle cx="3650" cy="667" r="4" fill="white" stroke="black" />
<line x1="3650" y1="671" x2="3650" y2="736" stroke="black" />
<circle cx="3650" cy="736" r="4" fill="white" stroke="black" />
<text x="3650" y="748" font-family="Verdana" font-size="8" text-anchor="middle"  dominant-baseline="middle" fill="black" > 721</text>
<text x="3800" y="7" font-family="Verdana" font-size="7" text-anchor="middle"  dominant-baseline="middle" fill="black" > C21</text>
<circle cx="3800" cy="15" r="4" fill="white" stroke="black" />
<line x1="3800" y1="19" x2="3800" y2="216" stroke="black" />
<line x1="3750" y1="216" x2="3850" y2="216" stroke="black" />
<text x="3825" y="208" font-family="Verdana" font-size="8" text-anchor="middle"  dominant-baseline="middle" fill="black" > 201</text>
<circle cx="3750" cy="216" r="4" fill="white" stroke="black" />
<line x1="3750" y1="220" x2="3750" y2="515" stroke="black" />
<line x1="3746" y1="511" x2="3754" y2="519" stroke="red" />
<line x1="3746" y1="519" x2="3754" y2="511" stroke="red" />
<text x="3750" y="527" font-family="Verdana" font-size="8" text-anchor="middle"  dominant-baseline="middle" fill="black" > 500</text>
<circle cx="3850" cy="216" r="4" fill="white" stroke="black" />
<line x1="3850" y1="220" x2="3850" y2="503" stroke="black" />
<line x1="3846" y1="499" x2="3854" y2="507" stroke="red" />
<line x1="3846" y1="507" x2="3854" y2="499" stroke="red" />
<text x="3850" y="515" font-family="Verdana" font-size="8" text-anchor="middle"  dominant-baseline="middle" fill="black" > 488</text>
<text x="4000" y="7" font-family="Verdana" font-size="7" text-anchor="middle"  dominant-baseline="middle" fill="black" > C22</text>
<circle cx="4000" cy="15" r="4" fill="white" stroke="black" />
<line x1="4000" y1="19" x2="4000" y2="200" stroke="black" />
<line x1="3950" y1="200" x2="4050" y2="200" stroke="black" />
<text x="4025" y="192" font-family="Verdana" font-size="8" text-anchor="middle"  dominant-baseline="middle" fill="black" > 185</text>
<circle cx="3950" cy="200" r="4" fill="white" stroke="black" />
<line x1="3950" y1="204" x2="3950" y2="380" stroke="black" />
<line x1="3925" y1="380" x2="3975" y2="380" stroke="black" />
<text x="3962" y="372" font-family="Verdana" font-size="8" text-anchor="middle"  dominant-baseline="middle" fill="black" > 365</text>
<circle cx="3925" cy="380" r="4" fill="white" stroke="black" />
<line x1="3925" y1="384" x2="3925" y2="736" stroke="black" />
<circle cx="3925" cy="736" r="4" fill="white" stroke="black" />
<text x="3925" y="748" font-family="Verdana" font-size="8" text-anchor="middle"  dominant-baseline="middle" fill="black" > 721</text>
<circle cx="3975" cy="380" r="4" fill="white" stroke="black" />
<line x1="3975" y1="384" x2="3975" y2="512" stroke="black" />
<line x1="3962" y1="512" x2="3988" y2="512" stroke="black" />
<text x="3981" y="504" font-family="Verdana" font-size="8" text-anchor="middle"  dominant-baseline="middle" fill="black" > 497</text>
<circle cx="3962" cy="512" r="4" fill="white" stroke="black" />
<line x1="3962" y1="516" x2="3962" y2="633" stroke="black" />
<line x1="3956" y1="633" x2="3969" y2="633" stroke="black" />
<text x="3965" y="625" font-family="Verdana" font-size="8" text-anchor="middle"  dominant-baseline="middle" fill="black" > 618</text>
<circle cx="3956" cy="633" r="4" fill="white" stroke="black" />
<line x1="3956" y1="637" x2="3956" y2="736" stroke="black" />
<circle cx="3956" cy="736" r="4" fill="white" stroke="black" />
<text x="3956" y="748" font-family="Verdana" font-size="8" text-anchor="middle"  dominant-baseline="middle" fill="black" > 721</text>
<circle cx="3968" cy="633" r="4" fill="white" stroke="black" />
<line x1="3968" y1="637" x2="3968" y2="736" stroke="black" />
<circle cx="3968" cy="736" r="4" fill="white" stroke="black" />
<text x="3968" y="748" font-family="Verdana" font-size="8" text-anchor="middle"  dominant-baseline="middle" fill="black" > 721</text>
<circle cx="3987" cy="512" r="4" fill="white" stroke="black" />
<line x1="3987" y1="516" x2="3987" y2="727" stroke="black" />
<line x1="3983" y1="723" x2="3991" y2="731" stroke="red" />
<line x1="3983" y1="731" x2="3991" y2="723" stroke="red" />
<text x="3987" y="739" font-family="Verdana" font-size="8" text-anchor="middle"  dominant-baseline="middle" fill="black" > 712</text>
<circle cx="4050" cy="200" r="4" fill="white" stroke="black" />
<line x1="4050" y1="204" x2="4050" y2="369" stroke="black" />
<line x1="4025" y1="369" x2="4075" y2="369" stroke="black" />
<text x="4062" y="361" font-family="Verdana" font-size="8" text-anchor="middle"  dominant-baseline="middle" fill="black" > 354</text>
<circle cx="4025" cy="369" r="4" fill="white" stroke="black" />
<line x1="4025" y1="373" x2="4025" y2="520" stroke="black" />
<line x1="4012" y1="520" x2="4038" y2="520" stroke="black" />
<text x="4031" y="512" font-family="Verdana" font-size="8" text-anchor="middle"  dominant-baseline="middle" fill="black" > 505</text>
<circle cx="4012" cy="520" r="4" fill="white" stroke="black" />
<line x1="4012" y1="524" x2="4012" y2="736" stroke="black" />
<circle cx="4012" cy="736" r="4" fill="white" stroke="black" />
<text x="4012" y="748" font-family="Verdana" font-size="8" text-anchor="middle"  dominant-baseline="middle" fill="black" > 721</text>
<circle cx="4037" cy="520" r="4" fill="white" stroke="black" />
<line x1="4037" y1="524" x2="4037" y2="695" stroke="black" />
<line x1="4031" y1="695" x2="4044" y2="695" stroke="black" />
<text x="4040" y="687" font-family="Verdana" font-size="8" text-anchor="middle"  dominant-baseline="middle" fill="black" > 680</text>
<circle cx="4031" cy="695" r="4" fill="white" stroke="black" />
<line x1="4031" y1="699" x2="4031" y2="736" stroke="black" />
<circle cx="4031" cy="736" r="4" fill="white" stroke="black" />
<text x="4031" y="748" font-family="Verdana" font-size="8" text-anchor="middle"  dominant-baseline="middle" fill="black" > 721</text>
<circle cx="4043" cy="695" r="4" fill="white" stroke="black" />
<line x1="4043" y1="699" x2="4043" y2="736" stroke="black" />
<circle cx="4043" cy="736" r="4" fill="white" stroke="black" />
<text x="4043" y="748" font-family="Verdana" font-size="8" text-anchor="middle"  dominant-baseline="middle" fill="black" > 721</text>
<circle cx="4075" cy="369" r="4" fill="white" stroke="black" />
<line x1="4075" y1="373" x2="4075" y2="528" stroke="black" />
<line x1="4062" y1="528" x2="4088" y2="528" stroke="black" />
<text x="4081" y="520" font-family="Verdana" font-size="8" text-anchor="middle"  dominant-baseline="middle" fill="black" > 513</text>
<circle cx="4062" cy="528" r="4" fill="white" stroke="black" />
<line x1="4062" y1="532" x2="4062" y2="705" stroke="black" />
<line x1="4056" y1="705" x2="4069" y2="705" stroke="black" />
<text x="4065" y="697" font-family="Verdana" font-size="8" text-anchor="middle"  dominant-baseline="middle" fill="black" > 690</text>
<circle cx="4056" cy="705" r="4" fill="white" stroke="black" />
<line x1="4056" y1="709" x2="4056" y2="736" stroke="black" />
<circle cx="4056" cy="736" r="4" fill="white" stroke="black" />
<text x="4056" y="748" font-family="Verdana" font-size="8" text-anchor="middle"  dominant-baseline="middle" fill="black" > 721</text>
<circle cx="4068" cy="705" r="4" fill="white" stroke="black" />
<line x1="4068" y1="709" x2="4068" y2="736" stroke="black" />
<circle cx="4068" cy="736" r="4" fill="white" stroke="black" />
<text x="4068" y="748" font-family="Verdana" font-size="8" text-anchor="middle"  dominant-baseline="middle" fill="black" > 721</text>
<circle cx="4087" cy="528" r="4" fill="white" stroke="black" />
<line x1="4087" y1="532" x2="4087" y2="663" stroke="black" />
<line x1="4083" y1="667" x2="4087" y2="659" stroke="blue" />
<line x1="4087" y1="667" x2="4091" y2="659" stroke="blue" />
<text x="4087" y="675" font-family="Verdana" font-size="8" text-anchor="middle"  dominant-baseline="middle" fill="black" > 648</text>
<text x="4200" y="7" font-family="Verdana" font-size="7" text-anchor="middle"  dominant-baseline="middle" fill="black" > C23</text>
<circle cx="4200" cy="15" r="4" fill="white" stroke="black" />
<line x1="4200" y1="19" x2="4200" y2="190" stroke="black" />
<line x1="4150" y1="190" x2="4250" y2="190" stroke="black" />
<text x="4225" y="182" font-family="Verdana" font-size="8" text-anchor="middle"  dominant-baseline="middle" fill="black" > 175</text>
<circle cx="4150" cy="190" r="4" fill="white" stroke="black" />
<line x1="4150" y1="194" x2="4150" y2="373" stroke="black" />
<line x1="4125" y1="373" x2="4175" y2="373" stroke="black" />
<text x="4162" y="365" font-family="Verdana" font-size="8" text-anchor="middle"  dominant-baseline="middle" fill="black" > 358</text>
<circle cx="4125" cy="373" r="4" fill="white" stroke="black" />
<line x1="4125" y1="377" x2="4125" y2="504" stroke="black" />
<line x1="4121" y1="500" x2="4129" y2="508" stroke="red" />
<line x1="4121" y1="508" x2="4129" y2="500" stroke="red" />
<text x="4125" y="516" font-family="Verdana" font-size="8" text-anchor="middle"  dominant-baseline="middle" fill="black" > 489</text>
<circle cx="4175" cy="373" r="4" fill="white" stroke="black" />
<line x1="4175" y1="377" x2="4175" y2="564" stroke="black" />
<line x1="4171" y1="560" x2="4179" y2="568" stroke="red" />
<line x1="4171" y1="568" x2="4179" y2="560" stroke="red" />
<text x="4175" y="576" font-family="Verdana" font-size="8" text-anchor="middle"  dominant-baseline="middle" fill="black" > 549</text>
<circle cx="4250" cy="190" r="4" fill="white" stroke="black" />
<line x1="4250" y1="194" x2="4250" y2="356" stroke="black" />
<line x1="4225" y1="356" x2="4275" y2="356" stroke="black" />
<text x="4262" y="348" font-family="Verdana" font-size="8" text-anchor="middle"  dominant-baseline="middle" fill="black" > 341</text>
<circle cx="4225" cy="356" r="4" fill="white" stroke="black" />
<line x1="4225" y1="360" x2="4225" y2="736" stroke="black" />
<circle cx="4225" cy="736" r="4" fill="white" stroke="black" />
<text x="4225" y="748" font-family="Verdana" font-size="8" text-anchor="middle"  dominant-baseline="middle" fill="black" > 721</text>
<circle cx="4275" cy="356" r="4" fill="white" stroke="black" />
<line x1="4275" y1="360" x2="4275" y2="736" stroke="black" />
<circle cx="4275" cy="736" r="4" fill="white" stroke="black" />
<text x="4275" y="748" font-family="Verdana" font-size="8" text-anchor="middle"  dominant-baseline="middle" fill="black" > 721</text>
</svg>
