<?xml version="1.0" encoding="utf-8"?>
<svg xmlns="http://www.w3.org/2000/svg" version="1.1" width="3850" height="750">
<rect width="3850" height="15" x="0" y="0" fill="white" />
<rect width="3850" height="15" x="0" y="735" fill="white" />
<rect width="25" height="750" x="0" y="0" fill="white" />
<rect width="25" height="750" x="3825" y="0" fill="white" />
<rect width="3810" height="144" x="25" y="15" fill="ghostwhite" />
<rect width="3810" height="144" x="25" y="159" fill="snow" />
<rect width="3810" height="144" x="25" y="303" fill="ghostwhite" />
<rect width="3810" height="144" x="25" y="447" fill="snow" />
<rect width="3810" height="144" x="25" y="591" fill="ghostwhite" />
<text x="12" y="87" font-family="Verdana" font-size="10" text-anchor="middle"  dominant-baseline="middle" fill="red" > D0</text>
<text x="12" y="231" font-family="Verdana" font-size="10" text-anchor="middle"  dominant-baseline="middle" fill="red" > D1</text>
<text x="12" y="375" font-family="Verdana" font-size="10" text-anchor="middle"  dominant-baseline="middle" fill="red" > D2</text>
<text x="12" y="519" font-family="Verdana" font-size="10" text-anchor="middle"  dominant-baseline="middle" fill="red" > D3</text>
<text x="12" y="663" font-family="Verdana" font-size="10" text-anchor="middle"  dominant-baseline="middle" fill="red" > D4</text>
<text x="12" y="20" font-family="Verdana" font-size="10" text-anchor="middle"  dominant-baseline="middle" fill="black" > 0</text>
<text x="12" y="164" font-family="Verdana" font-size="10" text-anchor="middle"  dominant-baseline="middle" fill="black" > 144</text>
<text x="12" y="308" font-family="Verdana" font-size="10" text-anchor="middle"  dominant-baseline="middle" fill="black" > 288</text>
<text x="12" y="452" font-family="Verdana" font-size="10" text-anchor="middle"  dominant-baseline="middle" fill="black" > 432</text>
<text x="12" y="596" font-family="Verdana" font-size="10" text-anchor="middle"  dominant-baseline="middle" fill="black" > 576</text>
<text x="12" y="740" font-family="Verdana" font-size="10" text-anchor="middle"  dominant-baseline="middle" fill="black" > 720</text>
<text x="50" y="7" font-family="Verdana" font-size="7" text-anchor="middle"  dominant-baseline="middle" fill="black" > C1</text>
<circle cx="50" cy="15" r="4" fill="white" stroke="black" />
<line x1="50" y1="19" x2="50" y2="224" stroke="black" />
<line x1="46" y1="228" x2="50" y2="220" stroke="blue" />
<line x1="50" y1="228" x2="54" y2="220" stroke="blue" />
<text x="50" y="236" font-family="Verdana" font-size="8" text-anchor="middle"  dominant-baseline="middle" fill="black" > 209</text>
<text x="150" y="7" font-family="Verdana" font-size="7" text-anchor="middle"  dominant-baseline="middle" fill="black" > C2</text>
<circle cx="150" cy="15" r="4" fill="white" stroke="black" />
<line x1="150" y1="19" x2="150" y2="430" stroke="black" />
<line x1="146" y1="434" x2="150" y2="426" stroke="blue" />
<line x1="150" y1="434" x2="154" y2="426" stroke="blue" />
<text x="150" y="442" font-family="Verdana" font-size="8" text-anchor="middle"  dominant-baseline="middle" fill="black" > 415</text>
<text x="300" y="7" font-family="Verdana" font-size="7" text-anchor="middle"  dominant-baseline="middle" fill="black" > C3</text>
<circle cx="300" cy="15" r="4" fill="white" stroke="black" />
<line x1="300" y1="19" x2="300" y2="192" stroke="black" />
<line x1="250" y1="192" x2="350" y2="192" stroke="black" />
<text x="325" y="184" font-family="Verdana" font-size="8" text-anchor="middle"  dominant-baseline="middle" fill="black" > 177</text>
<circle cx="250" cy="192" r="4" fill="white" stroke="black" />
<line x1="250" y1="196" x2="250" y2="577" stroke="black" />
<line x1="246" y1="581" x2="250" y2="573" stroke="blue" />
<line x1="250" y1="581" x2="254" y2="573" stroke="blue" />
<text x="250" y="589" font-family="Verdana" font-size="8" text-anchor="middle"  dominant-baseline="middle" fill="black" > 562</text>
<circle cx="350" cy="192" r="4" fill="white" stroke="black" />
<line x1="350" y1="196" x2="350" y2="347" stroke="black" />
<line x1="325" y1="347" x2="375" y2="347" stroke="black" />
<text x="362" y="339" font-family="Verdana" font-size="8" text-anchor="middle"  dominant-baseline="middle" fill="black" > 332</text>
<circle cx="325" cy="347" r="4" fill="white" stroke="black" />
<line x1="325" y1="351" x2="325" y2="736" stroke="black" />
<circle cx="325" cy="736" r="4" fill="white" stroke="black" />
<text x="325" y="748" font-family="Verdana" font-size="8" text-anchor="middle"  dominant-baseline="middle" fill="black" > 721</text>
<circle cx="375" cy="347" r="4" fill="white" stroke="black" />
<line x1="375" y1="351" x2="375" y2="705" stroke="black" />
<line x1="371" y1="701" x2="379" y2="709" stroke="red" />
<line x1="371" y1="709" x2="379" y2="701" stroke="red" />
<text x="375" y="717" font-family="Verdana" font-size="8" text-anchor="middle"  dominant-baseline="middle" fill="black" > 690</text>
<text x="450" y="7" font-family="Verdana" font-size="7" text-anchor="middle"  dominant-baseline="middle" fill="black" > C4</text>
<circle cx="450" cy="15" r="4" fill="white" stroke="black" />
<line x1="450" y1="19" x2="450" y2="508" stroke="black" />
<line x1="446" y1="504" x2="454" y2="512" stroke="red" />
<line x1="446" y1="512" x2="454" y2="504" stroke="red" />
<text x="450" y="520" font-family="Verdana" font-size="8" text-anchor="middle"  dominant-baseline="middle" fill="black" > 493</text>
<text x="600" y="7" font-family="Verdana" font-size="7" text-anchor="middle"  dominant-baseline="middle" fill="black" > C5</text>
<circle cx="600" cy="15" r="4" fill="white" stroke="black" />
<line x1="600" y1="19" x2="600" y2="325" stroke="black" />
<line x1="550" y1="325" x2="650" y2="325" stroke="black" />
<text x="625" y="317" font-family="Verdana" font-size="8" text-anchor="middle"  dominant-baseline="middle" fill="black" > 310</text>
<circle cx="550" cy="325" r="4" fill="white" stroke="black" />
<circle cx="650" cy="325" r="4" fill="white" stroke="black" />
<line x1="550" y1="329" x2="550" y2="340" stroke="black" />
<line x1="550" y1="340" x2="600" y2="345" stroke="black" />
<line x1="650" y1="329" x2="650" y2="340" stroke="black" />
<line x1="650" y1="340" x2="600" y2="345" stroke="black" />
<text x="600" y="333" font-family="Verdana" font-size="8" text-anchor="middle"  dominant-baseline="middle" fill="black" > 330</text>
<circle cx="600" cy="345" r="4" fill="white" stroke="black" />
<line x1="600" y1="349" x2="600" y2="349" stroke="black" />
<line x1="596" y1="345" x2="604" y2="353" stroke="red" />
<line x1="596" y1="353" x2="604" y2="345" stroke="red" />
<text x="600" y="361" font-family="Verdana" font-size="8" text-anchor="middle"  dominant-baseline="middle" fill="black" > 334</text>
<text x="750" y="7" font-family="Verdana" font-size="7" text-anchor="middle"  dominant-baseline="middle" fill="black" > C6</text>
<circle cx="750" cy="15" r="4" fill="white" stroke="black" />
<line x1="750" y1="19" x2="750" y2="571" stroke="black" />
<line x1="746" y1="575" x2="750" y2="567" stroke="blue" />
<line x1="750" y1="575" x2="754" y2="567" stroke="blue" />
<text x="750" y="583" font-family="Verdana" font-size="8" text-anchor="middle"  dominant-baseline="middle" fill="black" > 556</text>
<text x="1000" y="7" font-family="Verdana" font-size="7" text-anchor="middle"  dominant-baseline="middle" fill="black" > C7</text>
<circle cx="1000" cy="15" r="4" fill="white" stroke="black" />
<line x1="1000" y1="19" x2="1000" y2="395" stroke="black" />
<line x1="850" y1="395" x2="1150" y2="395" stroke="black" />
<text x="1025" y="387" font-family="Verdana" font-size="8" text-anchor="middle"  dominant-baseline="middle" fill="black" > 380</text>
<circle cx="850" cy="395" r="4" fill="white" stroke="black" />
<line x1="850" y1="399" x2="850" y2="519" stroke="black" />
<line x1="846" y1="515" x2="854" y2="523" stroke="red" />
<line x1="846" y1="523" x2="854" y2="515" stroke="red" />
<text x="850" y="531" font-family="Verdana" font-size="8" text-anchor="middle"  dominant-baseline="middle" fill="black" > 504</text>
<circle cx="950" cy="395" r="4" fill="white" stroke="black" />
<circle cx="1050" cy="395" r="4" fill="white" stroke="black" />
<line x1="950" y1="399" x2="950" y2="413" stroke="black" />
<line x1="950" y1="413" x2="1000" y2="419" stroke="black" />
<line x1="1050" y1="399" x2="1050" y2="413" stroke="black" />
<line x1="1050" y1="413" x2="1000" y2="419" stroke="black" />
<text x="1000" y="407" font-family="Verdana" font-size="8" text-anchor="middle"  dominant-baseline="middle" fill="black" > 404</text>
<circle cx="1000" cy="419" r="4" fill="white" stroke="black" />
<circle cx="1150" cy="395" r="4" fill="white" stroke="black" />
<line x1="1000" y1="423" x2="1000" y2="431" stroke="black" />
<line x1="1000" y1="431" x2="1075" y2="434" stroke="black" />
<line x1="1150" y1="399" x2="1150" y2="431" stroke="black" />
<line x1="1150" y1="431" x2="1075" y2="434" stroke="black" />
<text x="1075" y="422" font-family="Verdana" font-size="8" text-anchor="middle"  dominant-baseline="middle" fill="black" > 419</text>
<circle cx="1075" cy="434" r="4" fill="white" stroke="black" />
<line x1="1075" y1="438" x2="1075" y2="529" stroke="black" />
<line x1="1071" y1="525" x2="1079" y2="533" stroke="red" />
<line x1="1071" y1="533" x2="1079" y2="525" stroke="red" />
<text x="1075" y="541" font-family="Verdana" font-size="8" text-anchor="middle"  dominant-baseline="middle" fill="black" > 514</text>
<text x="1250" y="7" font-family="Verdana" font-size="7" text-anchor="middle"  dominant-baseline="middle" fill="black" > C8</text>
<circle cx="1250" cy="15" r="4" fill="white" stroke="black" />
<line x1="1250" y1="19" x2="1250" y2="448" stroke="black" />
<line x1="1246" y1="444" x2="1254" y2="452" stroke="red" />
<line x1="1246" y1="452" x2="1254" y2="444" stroke="red" />
<text x="1250" y="460" font-family="Verdana" font-size="8" text-anchor="middle"  dominant-baseline="middle" fill="black" > 433</text>
<text x="1500" y="7" font-family="Verdana" font-size="7" text-anchor="middle"  dominant-baseline="middle" fill="black" > C9</text>
<circle cx="1500" cy="15" r="4" fill="white" stroke="black" />
<line x1="1500" y1="19" x2="1500" y2="479" stroke="black" />
<line x1="1350" y1="479" x2="1650" y2="479" stroke="black" />
<text x="1525" y="471" font-family="Verdana" font-size="8" text-anchor="middle"  dominant-baseline="middle" fill="black" > 464</text>
<circle cx="1350" cy="479" r="4" fill="white" stroke="black" />
<circle cx="1450" cy="479" r="4" fill="white" stroke="black" />
<line x1="1350" y1="483" x2="1350" y2="492" stroke="black" />
<line x1="1350" y1="492" x2="1400" y2="496" stroke="black" />
<line x1="1450" y1="483" x2="1450" y2="492" stroke="black" />
<line x1="1450" y1="492" x2="1400" y2="496" stroke="black" />
<text x="1400" y="484" font-family="Verdana" font-size="8" text-anchor="middle"  dominant-baseline="middle" fill="black" > 481</text>
<circle cx="1400" cy="496" r="4" fill="white" stroke="black" />
<circle cx="1550" cy="479" r="4" fill="white" stroke="black" />
<circle cx="1650" cy="479" r="4" fill="white" stroke="black" />
<line x1="1400" y1="500" x2="1400" y2="507" stroke="black" />
<line x1="1400" y1="507" x2="1525" y2="510" stroke="black" />
<line x1="1550" y1="483" x2="1550" y2="507" stroke="black" />
<line x1="1550" y1="507" x2="1525" y2="510" stroke="black" />
<line x1="1650" y1="483" x2="1650" y2="507" stroke="black" />
<line x1="1650" y1="507" x2="1525" y2="510" stroke="black" />
<text x="1525" y="498" font-family="Verdana" font-size="8" text-anchor="middle"  dominant-baseline="middle" fill="black" > 495</text>
<circle cx="1525" cy="510" r="4" fill="white" stroke="black" />
<line x1="1525" y1="514" x2="1525" y2="722" stroke="black" />
<line x1="1521" y1="718" x2="1529" y2="726" stroke="red" />
<line x1="1521" y1="726" x2="1529" y2="718" stroke="red" />
<text x="1525" y="734" font-family="Verdana" font-size="8" text-anchor="middle"  dominant-baseline="middle" fill="black" > 707</text>
<text x="1900" y="7" font-family="Verdana" font-size="7" text-anchor="middle"  dominant-baseline="middle" fill="black" > C10</text>
<circle cx="1900" cy="15" r="4" fill="white" stroke="black" />
<line x1="1900" y1="19" x2="1900" y2="583" stroke="black" />
<line x1="1750" y1="583" x2="2050" y2="583" stroke="black" />
<text x="1925" y="575" font-family="Verdana" font-size="8" text-anchor="middle"  dominant-baseline="middle" fill="black" > 568</text>
<circle cx="1750" cy="583" r="4" fill="white" stroke="black" />
<circle cx="1850" cy="583" r="4" fill="white" stroke="black" />
<line x1="1750" y1="587" x2="1750" y2="591" stroke="black" />
<line x1="1750" y1="591" x2="1800" y2="593" stroke="black" />
<line x1="1850" y1="587" x2="1850" y2="591" stroke="black" />
<line x1="1850" y1="591" x2="1800" y2="593" stroke="black" />
<text x="1800" y="581" font-family="Verdana" font-size="8" text-anchor="middle"  dominant-baseline="middle" fill="black" > 578</text>
<circle cx="1800" cy="593" r="4" fill="white" stroke="black" />
<circle cx="1950" cy="583" r="4" fill="white" stroke="black" />
<line x1="1800" y1="597" x2="1800" y2="599" stroke="black" />
<line x1="1800" y1="599" x2="1875" y2="600" stroke="black" />
<line x1="1950" y1="587" x2="1950" y2="599" stroke="black" />
<line x1="1950" y1="599" x2="1875" y2="600" stroke="black" />
<text x="1875" y="588" font-family="Verdana" font-size="8" text-anchor="middle"  dominant-baseline="middle" fill="black" > 585</text>
<circle cx="1875" cy="600" r="4" fill="white" stroke="black" />
<circle cx="2050" cy="583" r="4" fill="white" stroke="black" />
<line x1="1875" y1="604" x2="1875" y2="610" stroke="black" />
<line x1="1875" y1="610" x2="1962" y2="613" stroke="black" />
<line x1="2050" y1="587" x2="2050" y2="610" stroke="black" />
<line x1="2050" y1="610" x2="1962" y2="613" stroke="black" />
<text x="1962" y="601" font-family="Verdana" font-size="8" text-anchor="middle"  dominant-baseline="middle" fill="black" > 598</text>
<circle cx="1962" cy="613" r="4" fill="white" stroke="black" />
<line x1="1962" y1="617" x2="1962" y2="736" stroke="black" />
<circle cx="1962" cy="736" r="4" fill="white" stroke="black" />
<text x="1962" y="748" font-family="Verdana" font-size="8" text-anchor="middle"  dominant-baseline="middle" fill="black" > 721</text>
<text x="2150" y="7" font-family="Verdana" font-size="7" text-anchor="middle"  dominant-baseline="middle" fill="black" > C11</text>
<circle cx="2150" cy="15" r="4" fill="white" stroke="black" />
<line x1="2150" y1="19" x2="2150" y2="202" stroke="black" />
<line x1="2146" y1="206" x2="2150" y2="198" stroke="blue" />
<line x1="2150" y1="206" x2="2154" y2="198" stroke="blue" />
<text x="2150" y="214" font-family="Verdana" font-size="8" text-anchor="middle"  dominant-baseline="middle" fill="black" > 187</text>
<text x="2300" y="7" font-family="Verdana" font-size="7" text-anchor="middle"  dominant-baseline="middle" fill="black" > C12</text>
<circle cx="2300" cy="15" r="4" fill="white" stroke="black" />
<line x1="2300" y1="19" x2="2300" y2="178" stroke="black" />
<line x1="2250" y1="178" x2="2350" y2="178" stroke="black" />
<text x="2325" y="170" font-family="Verdana" font-size="8" text-anchor="middle"  dominant-baseline="middle" fill="black" > 163</text>
<circle cx="2250" cy="178" r="4" fill="white" stroke="black" />
<circle cx="2350" cy="178" r="4" fill="white" stroke="black" />
<line x1="2250" y1="182" x2="2250" y2="276" stroke="black" />
<line x1="2250" y1="276" x2="2300" y2="308" stroke="black" />
<line x1="2350" y1="182" x2="2350" y2="276" stroke="black" />
<line x1="2350" y1="276" x2="2300" y2="308" stroke="black" />
<text x="2300" y="296" font-family="Verdana" font-size="8" text-anchor="middle"  dominant-baseline="middle" fill="black" > 293</text>
<circle cx="2300" cy="308" r="4" fill="white" stroke="black" />
<line x1="2300" y1="312" x2="2300" y2="339" stroke="black" />
<line x1="2275" y1="339" x2="2325" y2="339" stroke="black" />
<text x="2312" y="331" font-family="Verdana" font-size="8" text-anchor="middle"  dominant-baseline="middle" fill="black" > 324</text>
<circle cx="2275" cy="339" r="4" fill="white" stroke="black" />
<line x1="2275" y1="343" x2="2275" y2="695" stroke="black" />
<line x1="2271" y1="691" x2="2279" y2="699" stroke="red" />
<line x1="2271" y1="699" x2="2279" y2="691" stroke="red" />
<text x="2275" y="707" font-family="Verdana" font-size="8" text-anchor="middle"  dominant-baseline="middle" fill="black" > 680</text>
<circle cx="2325" cy="339" r="4" fill="white" stroke="black" />
<line x1="2325" y1="343" x2="2325" y2="496" stroke="black" />
<line x1="2321" y1="492" x2="2329" y2="500" stroke="red" />
<line x1="2321" y1="500" x2="2329" y2="492" stroke="red" />
<text x="2325" y="508" font-family="Verdana" font-size="8" text-anchor="middle"  dominant-baseline="middle" fill="black" > 481</text>
<text x="2450" y="7" font-family="Verdana" font-size="7" text-anchor="middle"  dominant-baseline="middle" fill="black" > C13</text>
<circle cx="2450" cy="15" r="4" fill="white" stroke="black" />
<line x1="2450" y1="19" x2="2450" y2="351" stroke="black" />
<line x1="2446" y1="347" x2="2454" y2="355" stroke="red" />
<line x1="2446" y1="355" x2="2454" y2="347" stroke="red" />
<text x="2450" y="363" font-family="Verdana" font-size="8" text-anchor="middle"  dominant-baseline="middle" fill="black" > 336</text>
<text x="2700" y="7" font-family="Verdana" font-size="7" text-anchor="middle"  dominant-baseline="middle" fill="black" > C14</text>
<circle cx="2700" cy="15" r="4" fill="white" stroke="black" />
<line x1="2700" y1="19" x2="2700" y2="246" stroke="black" />
<line x1="2550" y1="246" x2="2850" y2="246" stroke="black" />
<text x="2725" y="238" font-family="Verdana" font-size="8" text-anchor="middle"  dominant-baseline="middle" fill="black" > 231</text>
<circle cx="2550" cy="246" r="4" fill="white" stroke="black" />
<circle cx="2650" cy="246" r="4" fill="white" stroke="black" />
<line x1="2550" y1="250" x2="2550" y2="257" stroke="black" />
<line x1="2550" y1="257" x2="2600" y2="260" stroke="black" />
<line x1="2650" y1="250" x2="2650" y2="257" stroke="black" />
<line x1="2650" y1="257" x2="2600" y2="260" stroke="black" />
<text x="2600" y="248" font-family="Verdana" font-size="8" text-anchor="middle"  dominant-baseline="middle" fill="black" > 245</text>
<circle cx="2600" cy="260" r="4" fill="white" stroke="black" />
<line x1="2600" y1="264" x2="2600" y2="428" stroke="black" />
<line x1="2566" y1="428" x2="2634" y2="428" stroke="black" />
<text x="2608" y="420" font-family="Verdana" font-size="8" text-anchor="middle"  dominant-baseline="middle" fill="black" > 413</text>
<circle cx="2566" cy="428" r="4" fill="white" stroke="black" />
<line x1="2566" y1="432" x2="2566" y2="638" stroke="black" />
<line x1="2562" y1="634" x2="2570" y2="642" stroke="red" />
<line x1="2562" y1="642" x2="2570" y2="634" stroke="red" />
<text x="2566" y="650" font-family="Verdana" font-size="8" text-anchor="middle"  dominant-baseline="middle" fill="black" > 623</text>
<circle cx="2599" cy="428" r="4" fill="white" stroke="black" />
<circle cx="2632" cy="428" r="4" fill="white" stroke="black" />
<circle cx="2750" cy="246" r="4" fill="white" stroke="black" />
<line x1="2599" y1="432" x2="2599" y2="444" stroke="black" />
<line x1="2599" y1="444" x2="2674" y2="449" stroke="black" />
<line x1="2750" y1="250" x2="2750" y2="444" stroke="black" />
<line x1="2750" y1="444" x2="2674" y2="449" stroke="black" />
<text x="2674" y="437" font-family="Verdana" font-size="8" text-anchor="middle"  dominant-baseline="middle" fill="black" > 434</text>
<circle cx="2674" cy="449" r="4" fill="white" stroke="black" />
<line x1="2632" y1="432" x2="2632" y2="564" stroke="black" />
<line x1="2632" y1="564" x2="2653" y2="602" stroke="black" />
<line x1="2674" y1="453" x2="2674" y2="564" stroke="black" />
<line x1="2674" y1="564" x2="2653" y2="602" stroke="black" />
<text x="2653" y="590" font-family="Verdana" font-size="8" text-anchor="middle"  dominant-baseline="middle" fill="black" > 587</text>
<circle cx="2653" cy="602" r="4" fill="white" stroke="black" />
<line x1="2653" y1="606" x2="2653" y2="612" stroke="black" />
<line x1="2649" y1="608" x2="2657" y2="616" stroke="red" />
<line x1="2649" y1="616" x2="2657" y2="608" stroke="red" />
<text x="2653" y="624" font-family="Verdana" font-size="8" text-anchor="middle"  dominant-baseline="middle" fill="black" > 597</text>
<circle cx="2850" cy="246" r="4" fill="white" stroke="black" />
<line x1="2850" y1="250" x2="2850" y2="471" stroke="black" />
<line x1="2846" y1="475" x2="2850" y2="467" stroke="blue" />
<line x1="2850" y1="475" x2="2854" y2="467" stroke="blue" />
<text x="2850" y="483" font-family="Verdana" font-size="8" text-anchor="middle"  dominant-baseline="middle" fill="black" > 456</text>
<text x="2950" y="7" font-family="Verdana" font-size="7" text-anchor="middle"  dominant-baseline="middle" fill="black" > C15</text>
<circle cx="2950" cy="15" r="4" fill="white" stroke="black" />
<line x1="2950" y1="19" x2="2950" y2="399" stroke="black" />
<line x1="2946" y1="403" x2="2950" y2="395" stroke="blue" />
<line x1="2950" y1="403" x2="2954" y2="395" stroke="blue" />
<text x="2950" y="411" font-family="Verdana" font-size="8" text-anchor="middle"  dominant-baseline="middle" fill="black" > 384</text>
<text x="3050" y="7" font-family="Verdana" font-size="7" text-anchor="middle"  dominant-baseline="middle" fill="black" > C16</text>
<circle cx="3050" cy="15" r="4" fill="white" stroke="black" />
<line x1="3050" y1="19" x2="3050" y2="93" stroke="black" />
<line x1="3046" y1="97" x2="3050" y2="89" stroke="blue" />
<line x1="3050" y1="97" x2="3054" y2="89" stroke="blue" />
<text x="3050" y="105" font-family="Verdana" font-size="8" text-anchor="middle"  dominant-baseline="middle" fill="black" > 78</text>
<text x="3150" y="7" font-family="Verdana" font-size="7" text-anchor="middle"  dominant-baseline="middle" fill="black" > C17</text>
<circle cx="3150" cy="15" r="4" fill="white" stroke="black" />
<line x1="3150" y1="19" x2="3150" y2="364" stroke="black" />
<line x1="3146" y1="368" x2="3150" y2="360" stroke="blue" />
<line x1="3150" y1="368" x2="3154" y2="360" stroke="blue" />
<text x="3150" y="376" font-family="Verdana" font-size="8" text-anchor="middle"  dominant-baseline="middle" fill="black" > 349</text>
<text x="3250" y="7" font-family="Verdana" font-size="7" text-anchor="middle"  dominant-baseline="middle" fill="black" > C18</text>
<circle cx="3250" cy="15" r="4" fill="white" stroke="black" />
<line x1="3250" y1="19" x2="3250" y2="100" stroke="black" />
<line x1="3246" y1="96" x2="3254" y2="104" stroke="red" />
<line x1="3246" y1="104" x2="3254" y2="96" stroke="red" />
<text x="3250" y="112" font-family="Verdana" font-size="8" text-anchor="middle"  dominant-baseline="middle" fill="black" > 85</text>
<text x="3350" y="7" font-family="Verdana" font-size="7" text-anchor="middle"  dominant-baseline="middle" fill="black" > C19</text>
<circle cx="3350" cy="15" r="4" fill="white" stroke="black" />
<line x1="3350" y1="19" x2="3350" y2="178" stroke="black" />
<line x1="3346" y1="182" x2="3350" y2="174" stroke="blue" />
<line x1="3350" y1="182" x2="3354" y2="174" stroke="blue" />
<text x="3350" y="190" font-family="Verdana" font-size="8" text-anchor="middle"  dominant-baseline="middle" fill="black" > 163</text>
<text x="3500" y="7" font-family="Verdana" font-size="7" text-anchor="middle"  dominant-baseline="middle" fill="black" > C20</text>
<circle cx="3500" cy="15" r="4" fill="white" stroke="black" />
<line x1="3500" y1="19" x2="3500" y2="207" stroke="black" />
<line x1="3450" y1="207" x2="3550" y2="207" stroke="black" />
<text x="3525" y="199" font-family="Verdana" font-size="8" text-anchor="middle"  dominant-baseline="middle" fill="black" > 192</text>
<circle cx="3450" cy="207" r="4" fill="white" stroke="black" />
<line x1="3450" y1="211" x2="3450" y2="618" stroke="black" />
<line x1="3446" y1="614" x2="3454" y2="622" stroke="red" />
<line x1="3446" y1="622" x2="3454" y2="614" stroke="red" />
<text x="3450" y="630" font-family="Verdana" font-size="8" text-anchor="middle"  dominant-baseline="middle" fill="black" > 603</text>
<circle cx="3550" cy="207" r="4" fill="white" stroke="black" />
<line x1="3550" y1="211" x2="3550" y2="386" stroke="black" />
<line x1="3525" y1="386" x2="3575" y2="386" stroke="black" />
<text x="3562" y="378" font-family="Verdana" font-size="8" text-anchor="middle"  dominant-baseline="middle" fill="black" > 371</text>
<circle cx="3525" cy="386" r="4" fill="white" stroke="black" />
<line x1="3525" y1="390" x2="3525" y2="717" stroke="black" />
<line x1="3521" y1="713" x2="3529" y2="721" stroke="red" />
<line x1="3521" y1="721" x2="3529" y2="713" stroke="red" />
<text x="3525" y="729" font-family="Verdana" font-size="8" text-anchor="middle"  dominant-baseline="middle" fill="black" > 702</text>
<circle cx="3575" cy="386" r="4" fill="white" stroke="black" />
<line x1="3575" y1="390" x2="3575" y2="736" stroke="black" />
<circle cx="3575" cy="736" r="4" fill="white" stroke="black" />
<text x="3575" y="748" font-family="Verdana" font-size="8" text-anchor="middle"  dominant-baseline="middle" fill="black" > 721</text>
<text x="3650" y="7" font-family="Verdana" font-size="7" text-anchor="middle"  dominant-baseline="middle" fill="black" > C21</text>
<circle cx="3650" cy="15" r="4" fill="white" stroke="black" />
<line x1="3650" y1="19" x2="3650" y2="325" stroke="black" />
<line x1="3646" y1="321" x2="3654" y2="329" stroke="red" />
<line x1="3646" y1="329" x2="3654" y2="321" stroke="red" />
<text x="3650" y="337" font-family="Verdana" font-size="8" text-anchor="middle"  dominant-baseline="middle" fill="black" > 310</text>
<text x="3750" y="7" font-family="Verdana" font-size="7" text-anchor="middle"  dominant-baseline="middle" fill="black" > C22</text>
<circle cx="3750" cy="15" r="4" fill="white" stroke="black" />
<line x1="3750" y1="19" x2="3750" y2="419" stroke="black" />
<line x1="3746" y1="423" x2="3750" y2="415" stroke="blue" />
<line x1="3750" y1="423" x2="3754" y2="415" stroke="blue" />
<text x="3750" y="431" font-family="Verdana" font-size="8" text-anchor="middle"  dominant-baseline="middle" fill="black" > 404</text>
</svg>
