<?xml version="1.0" encoding="utf-8"?>
<svg xmlns="http://www.w3.org/2000/svg" version="1.1" width="4750" height="750">
<rect width="4750" height="15" x="0" y="0" fill="white" />
<rect width="4750" height="15" x="0" y="735" fill="white" />
<rect width="25" height="750" x="0" y="0" fill="white" />
<rect width="25" height="750" x="4725" y="0" fill="white" />
<rect width="4710" height="144" x="25" y="15" fill="ghostwhite" />
<rect width="4710" height="144" x="25" y="159" fill="snow" />
<rect width="4710" height="144" x="25" y="303" fill="ghostwhite" />
<rect width="4710" height="144" x="25" y="447" fill="snow" />
<rect width="4710" height="144" x="25" y="591" fill="ghostwhite" />
<text x="12" y="87" font-family="Verdana" font-size="10" text-anchor="middle"  dominant-baseline="middle" fill="red" > D0</text>
<text x="12" y="231" font-family="Verdana" font-size="10" text-anchor="middle"  dominant-baseline="middle" fill="red" > D1</text>
<text x="12" y="375" font-family="Verdana" font-size="10" text-anchor="middle"  dominant-baseline="middle" fill="red" > D2</text>
<text x="12" y="519" font-family="Verdana" font-size="10" text-anchor="middle"  dominant-baseline="middle" fill="red" > D3</text>
<text x="12" y="663" font-family="Verdana" font-size="10" text-anchor="middle"  dominant-baseline="middle" fill="red" > D4</text>
<text x="12" y="20" font-family="Verdana" font-size="10" text-anchor="middle"  dominant-baseline="middle" fill="black" > 0</text>
<text x="12" y="164" font-family="Verdana" font-size="10" text-anchor="middle"  dominant-baseline="middle" fill="black" > 144</text>
<text x="12" y="308" font-family="Verdana" font-size="10" text-anchor="middle"  dominant-baseline="middle" fill="black" > 288</text>
<text x="12" y="452" font-family="Verdana" font-size="10" text-anchor="middle"  dominant-baseline="middle" fill="black" > 432</text>
<text x="12" y="596" font-family="Verdana" font-size="10" text-anchor="middle"  dominant-baseline="middle" fill="black" > 576</text>
<text x="12" y="740" font-family="Verdana" font-size="10" text-anchor="middle"  dominant-baseline="middle" fill="black" > 720</text>
<text x="150" y="7" font-family="Verdana" font-size="7" text-anchor="middle"  dominant-baseline="middle" fill="black" > C1</text>
<circle cx="150" cy="15" r="4" fill="white" stroke="black" />
<line x1="150" y1="19" x2="150" y2="405" stroke="black" />
<line x1="50" y1="405" x2="250" y2="405" stroke="black" />
<text x="175" y="397" font-family="Verdana" font-size="8" text-anchor="middle"  dominant-baseline="middle" fill="black" > 390</text>
<circle cx="50" cy="405" r="4" fill="white" stroke="black" />
<circle cx="150" cy="405" r="4" fill="white" stroke="black" />
<circle cx="250" cy="405" r="4" fill="white" stroke="black" />
<line x1="50" y1="409" x2="50" y2="420" stroke="black" />
<line x1="50" y1="420" x2="150" y2="425" stroke="black" />
<line x1="150" y1="409" x2="150" y2="420" stroke="black" />
<line x1="150" y1="420" x2="150" y2="425" stroke="black" />
<line x1="250" y1="409" x2="250" y2="420" stroke="black" />
<line x1="250" y1="420" x2="150" y2="425" stroke="black" />
<text x="150" y="413" font-family="Verdana" font-size="8" text-anchor="middle"  dominant-baseline="middle" fill="black" > 410</text>
<circle cx="150" cy="425" r="4" fill="white" stroke="black" />
<line x1="150" y1="429" x2="150" y2="615" stroke="black" />
<line x1="146" y1="611" x2="154" y2="619" stroke="red" />
<line x1="146" y1="619" x2="154" y2="611" stroke="red" />
<text x="150" y="627" font-family="Verdana" font-size="8" text-anchor="middle"  dominant-baseline="middle" fill="black" > 600</text>
<text x="350" y="7" font-family="Verdana" font-size="7" text-anchor="middle"  dominant-baseline="middle" fill="black" > C2</text>
<circle cx="350" cy="15" r="4" fill="white" stroke="black" />
<line x1="350" y1="19" x2="350" y2="434" stroke="black" />
<line x1="346" y1="438" x2="350" y2="430" stroke="blue" />
<line x1="350" y1="438" x2="354" y2="430" stroke="blue" />
<text x="350" y="446" font-family="Verdana" font-size="8" text-anchor="middle"  dominant-baseline="middle" fill="black" > 419</text>
<text x="450" y="7" font-family="Verdana" font-size="7" text-anchor="middle"  dominant-baseline="middle" fill="black" > C3</text>
<circle cx="450" cy="15" r="4" fill="white" stroke="black" />
<line x1="450" y1="19" x2="450" y2="648" stroke="black" />
<line x1="446" y1="644" x2="454" y2="652" stroke="red" />
<line x1="446" y1="652" x2="454" y2="644" stroke="red" />
<text x="450" y="660" font-family="Verdana" font-size="8" text-anchor="middle"  dominant-baseline="middle" fill="black" > 633</text>
<text x="550" y="7" font-family="Verdana" font-size="7" text-anchor="middle"  dominant-baseline="middle" fill="black" > C4</text>
<circle cx="550" cy="15" r="4" fill="white" stroke="black" />
<line x1="550" y1="19" x2="550" y2="594" stroke="black" />
<line x1="546" y1="598" x2="550" y2="590" stroke="blue" />
<line x1="550" y1="598" x2="554" y2="590" stroke="blue" />
<text x="550" y="606" font-family="Verdana" font-size="8" text-anchor="middle"  dominant-baseline="middle" fill="black" > 579</text>
<text x="650" y="7" font-family="Verdana" font-size="7" text-anchor="middle"  dominant-baseline="middle" fill="black" > C5</text>
<circle cx="650" cy="15" r="4" fill="white" stroke="black" />
<line x1="650" y1="19" x2="650" y2="736" stroke="black" />
<circle cx="650" cy="736" r="4" fill="white" stroke="black" />
<text x="650" y="748" font-family="Verdana" font-size="8" text-anchor="middle"  dominant-baseline="middle" fill="black" > 721</text>
<text x="850" y="7" font-family="Verdana" font-size="7" text-anchor="middle"  dominant-baseline="middle" fill="black" > C6</text>
<circle cx="850" cy="15" r="4" fill="white" stroke="black" />
<line x1="850" y1="19" x2="850" y2="275" stroke="black" />
<line x1="750" y1="275" x2="950" y2="275" stroke="black" />
<text x="875" y="267" font-family="Verdana" font-size="8" text-anchor="middle"  dominant-baseline="middle" fill="black" > 260</text>
<circle cx="750" cy="275" r="4" fill="white" stroke="black" />
<circle cx="850" cy="275" r="4" fill="white" stroke="black" />
<circle cx="950" cy="275" r="4" fill="white" stroke="black" />
<line x1="750" y1="279" x2="750" y2="285" stroke="black" />
<line x1="750" y1="285" x2="850" y2="288" stroke="black" />
<line x1="850" y1="279" x2="850" y2="285" stroke="black" />
<line x1="850" y1="285" x2="850" y2="288" stroke="black" />
<line x1="950" y1="279" x2="950" y2="285" stroke="black" />
<line x1="950" y1="285" x2="850" y2="288" stroke="black" />
<text x="850" y="276" font-family="Verdana" font-size="8" text-anchor="middle"  dominant-baseline="middle" fill="black" > 273</text>
<circle cx="850" cy="288" r="4" fill="white" stroke="black" />
<line x1="850" y1="292" x2="850" y2="294" stroke="black" />
<line x1="846" y1="290" x2="854" y2="298" stroke="red" />
<line x1="846" y1="298" x2="854" y2="290" stroke="red" />
<text x="850" y="306" font-family="Verdana" font-size="8" text-anchor="middle"  dominant-baseline="middle" fill="black" > 279</text>
<text x="1200" y="7" font-family="Verdana" font-size="7" text-anchor="middle"  dominant-baseline="middle" fill="black" > C7</text>
<circle cx="1200" cy="15" r="4" fill="white" stroke="black" />
<line x1="1200" y1="19" x2="1200" y2="441" stroke="black" />
<line x1="1050" y1="441" x2="1350" y2="441" stroke="black" />
<text x="1225" y="433" font-family="Verdana" font-size="8" text-anchor="middle"  dominant-baseline="middle" fill="black" > 426</text>
<circle cx="1050" cy="441" r="4" fill="white" stroke="black" />
<circle cx="1150" cy="441" r="4" fill="white" stroke="black" />
<circle cx="1250" cy="441" r="4" fill="white" stroke="black" />
<circle cx="1350" cy="441" r="4" fill="white" stroke="black" />
<line x1="1050" y1="445" x2="1050" y2="442" stroke="black" />
<line x1="1050" y1="442" x2="1200" y2="442" stroke="black" />
<line x1="1150" y1="445" x2="1150" y2="442" stroke="black" />
<line x1="1150" y1="442" x2="1200" y2="442" stroke="black" />
<line x1="1250" y1="445" x2="1250" y2="442" stroke="black" />
<line x1="1250" y1="442" x2="1200" y2="442" stroke="black" />
<line x1="1350" y1="445" x2="1350" y2="442" stroke="black" />
<line x1="1350" y1="442" x2="1200" y2="442" stroke="black" />
<text x="1200" y="430" font-family="Verdana" font-size="8" text-anchor="middle"  dominant-baseline="middle" fill="black" > 427</text>
<circle cx="1200" cy="442" r="4" fill="white" stroke="black" />
<line x1="1200" y1="446" x2="1200" y2="490" stroke="black" />
<line x1="1196" y1="486" x2="1204" y2="494" stroke="red" />
<line x1="1196" y1="494" x2="1204" y2="486" stroke="red" />
<text x="1200" y="502" font-family="Verdana" font-size="8" text-anchor="middle"  dominant-baseline="middle" fill="black" > 475</text>
<text x="1550" y="7" font-family="Verdana" font-size="7" text-anchor="middle"  dominant-baseline="middle" fill="black" > C8</text>
<circle cx="1550" cy="15" r="4" fill="white" stroke="black" />
<line x1="1550" y1="19" x2="1550" y2="419" stroke="black" />
<line x1="1450" y1="419" x2="1650" y2="419" stroke="black" />
<text x="1575" y="411" font-family="Verdana" font-size="8" text-anchor="middle"  dominant-baseline="middle" fill="black" > 404</text>
<circle cx="1450" cy="419" r="4" fill="white" stroke="black" />
<line x1="1450" y1="423" x2="1450" y2="437" stroke="black" />
<line x1="1446" y1="433" x2="1454" y2="441" stroke="red" />
<line x1="1446" y1="441" x2="1454" y2="433" stroke="red" />
<text x="1450" y="449" font-family="Verdana" font-size="8" text-anchor="middle"  dominant-baseline="middle" fill="black" > 422</text>
<circle cx="1550" cy="419" r="4" fill="white" stroke="black" />
<circle cx="1650" cy="419" r="4" fill="white" stroke="black" />
<line x1="1550" y1="423" x2="1550" y2="431" stroke="black" />
<line x1="1550" y1="431" x2="1600" y2="435" stroke="black" />
<line x1="1650" y1="423" x2="1650" y2="431" stroke="black" />
<line x1="1650" y1="431" x2="1600" y2="435" stroke="black" />
<text x="1600" y="423" font-family="Verdana" font-size="8" text-anchor="middle"  dominant-baseline="middle" fill="black" > 420</text>
<circle cx="1600" cy="435" r="4" fill="white" stroke="black" />
<line x1="1600" y1="439" x2="1600" y2="436" stroke="black" />
<line x1="1596" y1="432" x2="1604" y2="440" stroke="red" />
<line x1="1596" y1="440" x2="1604" y2="432" stroke="red" />
<text x="1600" y="448" font-family="Verdana" font-size="8" text-anchor="middle"  dominant-baseline="middle" fill="black" > 421</text>
<text x="1900" y="7" font-family="Verdana" font-size="7" text-anchor="middle"  dominant-baseline="middle" fill="black" > C9</text>
<circle cx="1900" cy="15" r="4" fill="white" stroke="black" />
<line x1="1900" y1="19" x2="1900" y2="541" stroke="black" />
<line x1="1750" y1="541" x2="2050" y2="541" stroke="black" />
<text x="1925" y="533" font-family="Verdana" font-size="8" text-anchor="middle"  dominant-baseline="middle" fill="black" > 526</text>
<circle cx="1750" cy="541" r="4" fill="white" stroke="black" />
<circle cx="1850" cy="541" r="4" fill="white" stroke="black" />
<circle cx="1950" cy="541" r="4" fill="white" stroke="black" />
<circle cx="2050" cy="541" r="4" fill="white" stroke="black" />
<line x1="1750" y1="545" x2="1750" y2="557" stroke="black" />
<line x1="1750" y1="557" x2="1900" y2="562" stroke="black" />
<line x1="1850" y1="545" x2="1850" y2="557" stroke="black" />
<line x1="1850" y1="557" x2="1900" y2="562" stroke="black" />
<line x1="1950" y1="545" x2="1950" y2="557" stroke="black" />
<line x1="1950" y1="557" x2="1900" y2="562" stroke="black" />
<line x1="2050" y1="545" x2="2050" y2="557" stroke="black" />
<line x1="2050" y1="557" x2="1900" y2="562" stroke="black" />
<text x="1900" y="550" font-family="Verdana" font-size="8" text-anchor="middle"  dominant-baseline="middle" fill="black" > 547</text>
<circle cx="1900" cy="562" r="4" fill="white" stroke="black" />
<line x1="1900" y1="566" x2="1900" y2="667" stroke="black" />
<line x1="1896" y1="663" x2="1904" y2="671" stroke="red" />
<line x1="1896" y1="671" x2="1904" y2="663" stroke="red" />
<text x="1900" y="679" font-family="Verdana" font-size="8" text-anchor="middle"  dominant-baseline="middle" fill="black" > 652</text>
<text x="2300" y="7" font-family="Verdana" font-size="7" text-anchor="middle"  dominant-baseline="middle" fill="black" > C10</text>
<circle cx="2300" cy="15" r="4" fill="white" stroke="black" />
<line x1="2300" y1="19" x2="2300" y2="535" stroke="black" />
<line x1="2150" y1="535" x2="2450" y2="535" stroke="black" />
<text x="2325" y="527" font-family="Verdana" font-size="8" text-anchor="middle"  dominant-baseline="middle" fill="black" > 520</text>
<circle cx="2150" cy="535" r="4" fill="white" stroke="black" />
<circle cx="2250" cy="535" r="4" fill="white" stroke="black" />
<line x1="2150" y1="539" x2="2150" y2="550" stroke="black" />
<line x1="2150" y1="550" x2="2200" y2="554" stroke="black" />
<line x1="2250" y1="539" x2="2250" y2="550" stroke="black" />
<line x1="2250" y1="550" x2="2200" y2="554" stroke="black" />
<text x="2200" y="542" font-family="Verdana" font-size="8" text-anchor="middle"  dominant-baseline="middle" fill="black" > 539</text>
<circle cx="2200" cy="554" r="4" fill="white" stroke="black" />
<circle cx="2350" cy="535" r="4" fill="white" stroke="black" />
<circle cx="2450" cy="535" r="4" fill="white" stroke="black" />
<line x1="2200" y1="558" x2="2200" y2="560" stroke="black" />
<line x1="2200" y1="560" x2="2325" y2="561" stroke="black" />
<line x1="2350" y1="539" x2="2350" y2="560" stroke="black" />
<line x1="2350" y1="560" x2="2325" y2="561" stroke="black" />
<line x1="2450" y1="539" x2="2450" y2="560" stroke="black" />
<line x1="2450" y1="560" x2="2325" y2="561" stroke="black" />
<text x="2325" y="549" font-family="Verdana" font-size="8" text-anchor="middle"  dominant-baseline="middle" fill="black" > 546</text>
<circle cx="2325" cy="561" r="4" fill="white" stroke="black" />
<line x1="2325" y1="565" x2="2325" y2="660" stroke="black" />
<line x1="2321" y1="656" x2="2329" y2="664" stroke="red" />
<line x1="2321" y1="664" x2="2329" y2="656" stroke="red" />
<text x="2325" y="672" font-family="Verdana" font-size="8" text-anchor="middle"  dominant-baseline="middle" fill="black" > 645</text>
<text x="2750" y="7" font-family="Verdana" font-size="7" text-anchor="middle"  dominant-baseline="middle" fill="black" > C11</text>
<circle cx="2750" cy="15" r="4" fill="white" stroke="black" />
<line x1="2750" y1="19" x2="2750" y2="669" stroke="black" />
<line x1="2550" y1="669" x2="2950" y2="669" stroke="black" />
<text x="2775" y="661" font-family="Verdana" font-size="8" text-anchor="middle"  dominant-baseline="middle" fill="black" > 654</text>
<circle cx="2550" cy="669" r="4" fill="white" stroke="black" />
<circle cx="2650" cy="669" r="4" fill="white" stroke="black" />
<circle cx="2750" cy="669" r="4" fill="white" stroke="black" />
<circle cx="2850" cy="669" r="4" fill="white" stroke="black" />
<line x1="2550" y1="673" x2="2550" y2="688" stroke="black" />
<line x1="2550" y1="688" x2="2700" y2="694" stroke="black" />
<line x1="2650" y1="673" x2="2650" y2="688" stroke="black" />
<line x1="2650" y1="688" x2="2700" y2="694" stroke="black" />
<line x1="2750" y1="673" x2="2750" y2="688" stroke="black" />
<line x1="2750" y1="688" x2="2700" y2="694" stroke="black" />
<line x1="2850" y1="673" x2="2850" y2="688" stroke="black" />
<line x1="2850" y1="688" x2="2700" y2="694" stroke="black" />
<text x="2700" y="682" font-family="Verdana" font-size="8" text-anchor="middle"  dominant-baseline="middle" fill="black" > 679</text>
<circle cx="2700" cy="694" r="4" fill="white" stroke="black" />
<circle cx="2950" cy="669" r="4" fill="white" stroke="black" />
<line x1="2700" y1="698" x2="2700" y2="697" stroke="black" />
<line x1="2700" y1="697" x2="2825" y2="697" stroke="black" />
<line x1="2950" y1="673" x2="2950" y2="697" stroke="black" />
<line x1="2950" y1="697" x2="2825" y2="697" stroke="black" />
<text x="2825" y="685" font-family="Verdana" font-size="8" text-anchor="middle"  dominant-baseline="middle" fill="black" > 682</text>
<circle cx="2825" cy="697" r="4" fill="white" stroke="black" />
<line x1="2825" y1="701" x2="2825" y2="736" stroke="black" />
<circle cx="2825" cy="736" r="4" fill="white" stroke="black" />
<text x="2825" y="748" font-family="Verdana" font-size="8" text-anchor="middle"  dominant-baseline="middle" fill="black" > 721</text>
<text x="3050" y="7" font-family="Verdana" font-size="7" text-anchor="middle"  dominant-baseline="middle" fill="black" > C12</text>
<circle cx="3050" cy="15" r="4" fill="white" stroke="black" />
<line x1="3050" y1="19" x2="3050" y2="736" stroke="black" />
<circle cx="3050" cy="736" r="4" fill="white" stroke="black" />
<text x="3050" y="748" font-family="Verdana" font-size="8" text-anchor="middle"  dominant-baseline="middle" fill="black" > 721</text>
<text x="3150" y="7" font-family="Verdana" font-size="7" text-anchor="middle"  dominant-baseline="middle" fill="black" > C13</text>
<circle cx="3150" cy="15" r="4" fill="white" stroke="black" />
<line x1="3150" y1="19" x2="3150" y2="736" stroke="black" />
<circle cx="3150" cy="736" r="4" fill="white" stroke="black" />
<text x="3150" y="748" font-family="Verdana" font-size="8" text-anchor="middle"  dominant-baseline="middle" fill="black" > 721</text>
<text x="3250" y="7" font-family="Verdana" font-size="7" text-anchor="middle"  dominant-baseline="middle" fill="black" > C14</text>
<circle cx="3250" cy="15" r="4" fill="white" stroke="black" />
<line x1="3250" y1="19" x2="3250" y2="440" stroke="black" />
<line x1="3246" y1="436" x2="3254" y2="444" stroke="red" />
<line x1="3246" y1="444" x2="3254" y2="436" stroke="red" />
<text x="3250" y="452" font-family="Verdana" font-size="8" text-anchor="middle"  dominant-baseline="middle" fill="black" > 425</text>
<text x="3450" y="7" font-family="Verdana" font-size="7" text-anchor="middle"  dominant-baseline="middle" fill="black" > C15</text>
<circle cx="3450" cy="15" r="4" fill="white" stroke="black" />
<line x1="3450" y1="19" x2="3450" y2="336" stroke="black" />
<line x1="3350" y1="336" x2="3550" y2="336" stroke="black" />
<text x="3475" y="328" font-family="Verdana" font-size="8" text-anchor="middle"  dominant-baseline="middle" fill="black" > 321</text>
<circle cx="3350" cy="336" r="4" fill="white" stroke="black" />
<circle cx="3450" cy="336" r="4" fill="white" stroke="black" />
<line x1="3350" y1="340" x2="3350" y2="365" stroke="black" />
<line x1="3350" y1="365" x2="3400" y2="374" stroke="black" />
<line x1="3450" y1="340" x2="3450" y2="365" stroke="black" />
<line x1="3450" y1="365" x2="3400" y2="374" stroke="black" />
<text x="3400" y="362" font-family="Verdana" font-size="8" text-anchor="middle"  dominant-baseline="middle" fill="black" > 359</text>
<circle cx="3400" cy="374" r="4" fill="white" stroke="black" />
<circle cx="3550" cy="336" r="4" fill="white" stroke="black" />
<line x1="3400" y1="378" x2="3400" y2="388" stroke="black" />
<line x1="3400" y1="388" x2="3475" y2="392" stroke="black" />
<line x1="3550" y1="340" x2="3550" y2="388" stroke="black" />
<line x1="3550" y1="388" x2="3475" y2="392" stroke="black" />
<text x="3475" y="380" font-family="Verdana" font-size="8" text-anchor="middle"  dominant-baseline="middle" fill="black" > 377</text>
<circle cx="3475" cy="392" r="4" fill="white" stroke="black" />
<line x1="3475" y1="396" x2="3475" y2="400" stroke="black" />
<line x1="3471" y1="396" x2="3479" y2="404" stroke="red" />
<line x1="3471" y1="404" x2="3479" y2="396" stroke="red" />
<text x="3475" y="412" font-family="Verdana" font-size="8" text-anchor="middle"  dominant-baseline="middle" fill="black" > 385</text>
<text x="3750" y="7" font-family="Verdana" font-size="7" text-anchor="middle"  dominant-baseline="middle" fill="black" > C16</text>
<circle cx="3750" cy="15" r="4" fill="white" stroke="black" />
<line x1="3750" y1="19" x2="3750" y2="406" stroke="black" />
<line x1="3650" y1="406" x2="3850" y2="406" stroke="black" />
<text x="3775" y="398" font-family="Verdana" font-size="8" text-anchor="middle"  dominant-baseline="middle" fill="black" > 391</text>
<circle cx="3650" cy="406" r="4" fill="white" stroke="black" />
<circle cx="3750" cy="406" r="4" fill="white" stroke="black" />
<circle cx="3850" cy="406" r="4" fill="white" stroke="black" />
<line x1="3650" y1="410" x2="3650" y2="412" stroke="black" />
<line x1="3650" y1="412" x2="3750" y2="413" stroke="black" />
<line x1="3750" y1="410" x2="3750" y2="412" stroke="black" />
<line x1="3750" y1="412" x2="3750" y2="413" stroke="black" />
<line x1="3850" y1="410" x2="3850" y2="412" stroke="black" />
<line x1="3850" y1="412" x2="3750" y2="413" stroke="black" />
<text x="3750" y="401" font-family="Verdana" font-size="8" text-anchor="middle"  dominant-baseline="middle" fill="black" > 398</text>
<circle cx="3750" cy="413" r="4" fill="white" stroke="black" />
<line x1="3750" y1="417" x2="3750" y2="490" stroke="black" />
<line x1="3746" y1="486" x2="3754" y2="494" stroke="red" />
<line x1="3746" y1="494" x2="3754" y2="486" stroke="red" />
<text x="3750" y="502" font-family="Verdana" font-size="8" text-anchor="middle"  dominant-baseline="middle" fill="black" > 475</text>
<text x="3950" y="7" font-family="Verdana" font-size="7" text-anchor="middle"  dominant-baseline="middle" fill="black" > C17</text>
<circle cx="3950" cy="15" r="4" fill="white" stroke="black" />
<line x1="3950" y1="19" x2="3950" y2="694" stroke="black" />
<line x1="3946" y1="698" x2="3950" y2="690" stroke="blue" />
<line x1="3950" y1="698" x2="3954" y2="690" stroke="blue" />
<text x="3950" y="706" font-family="Verdana" font-size="8" text-anchor="middle"  dominant-baseline="middle" fill="black" > 679</text>
<text x="4050" y="7" font-family="Verdana" font-size="7" text-anchor="middle"  dominant-baseline="middle" fill="black" > C18</text>
<circle cx="4050" cy="15" r="4" fill="white" stroke="black" />
<line x1="4050" y1="19" x2="4050" y2="306" stroke="black" />
<line x1="4046" y1="302" x2="4054" y2="310" stroke="red" />
<line x1="4046" y1="310" x2="4054" y2="302" stroke="red" />
<text x="4050" y="318" font-family="Verdana" font-size="8" text-anchor="middle"  dominant-baseline="middle" fill="black" > 291</text>
<text x="4150" y="7" font-family="Verdana" font-size="7" text-anchor="middle"  dominant-baseline="middle" fill="black" > C19</text>
<circle cx="4150" cy="15" r="4" fill="white" stroke="black" />
<line x1="4150" y1="19" x2="4150" y2="260" stroke="black" />
<line x1="4146" y1="256" x2="4154" y2="264" stroke="red" />
<line x1="4146" y1="264" x2="4154" y2="256" stroke="red" />
<text x="4150" y="272" font-family="Verdana" font-size="8" text-anchor="middle"  dominant-baseline="middle" fill="black" > 245</text>
<text x="4250" y="7" font-family="Verdana" font-size="7" text-anchor="middle"  dominant-baseline="middle" fill="black" > C20</text>
<circle cx="4250" cy="15" r="4" fill="white" stroke="black" />
<line x1="4250" y1="19" x2="4250" y2="88" stroke="black" />
<line x1="4246" y1="92" x2="4250" y2="84" stroke="blue" />
<line x1="4250" y1="92" x2="4254" y2="84" stroke="blue" />
<text x="4250" y="100" font-family="Verdana" font-size="8" text-anchor="middle"  dominant-baseline="middle" fill="black" > 73</text>
<text x="4500" y="7" font-family="Verdana" font-size="7" text-anchor="middle"  dominant-baseline="middle" fill="black" > C21</text>
<circle cx="4500" cy="15" r="4" fill="white" stroke="black" />
<line x1="4500" y1="19" x2="4500" y2="601" stroke="black" />
<line x1="4350" y1="601" x2="4650" y2="601" stroke="black" />
<text x="4525" y="593" font-family="Verdana" font-size="8" text-anchor="middle"  dominant-baseline="middle" fill="black" > 586</text>
<circle cx="4350" cy="601" r="4" fill="white" stroke="black" />
<circle cx="4450" cy="601" r="4" fill="white" stroke="black" />
<line x1="4350" y1="605" x2="4350" y2="611" stroke="black" />
<line x1="4350" y1="611" x2="4400" y2="614" stroke="black" />
<line x1="4450" y1="605" x2="4450" y2="611" stroke="black" />
<line x1="4450" y1="611" x2="4400" y2="614" stroke="black" />
<text x="4400" y="602" font-family="Verdana" font-size="8" text-anchor="middle"  dominant-baseline="middle" fill="black" > 599</text>
<circle cx="4400" cy="614" r="4" fill="white" stroke="black" />
<circle cx="4550" cy="601" r="4" fill="white" stroke="black" />
<circle cx="4650" cy="601" r="4" fill="white" stroke="black" />
<line x1="4550" y1="605" x2="4550" y2="619" stroke="black" />
<line x1="4550" y1="619" x2="4600" y2="625" stroke="black" />
<line x1="4650" y1="605" x2="4650" y2="619" stroke="black" />
<line x1="4650" y1="619" x2="4600" y2="625" stroke="black" />
<text x="4600" y="613" font-family="Verdana" font-size="8" text-anchor="middle"  dominant-baseline="middle" fill="black" > 610</text>
<circle cx="4600" cy="625" r="4" fill="white" stroke="black" />
<line x1="4400" y1="618" x2="4400" y2="645" stroke="black" />
<line x1="4400" y1="645" x2="4500" y2="651" stroke="black" />
<line x1="4600" y1="629" x2="4600" y2="645" stroke="black" />
<line x1="4600" y1="645" x2="4500" y2="651" stroke="black" />
<text x="4500" y="639" font-family="Verdana" font-size="8" text-anchor="middle"  dominant-baseline="middle" fill="black" > 636</text>
<circle cx="4500" cy="651" r="4" fill="white" stroke="black" />
<line x1="4500" y1="655" x2="4500" y2="736" stroke="black" />
<circle cx="4500" cy="736" r="4" fill="white" stroke="black" />
<text x="4500" y="748" font-family="Verdana" font-size="8" text-anchor="middle"  dominant-baseline="middle" fill="black" > 721</text>
</svg>
