<?xml version="1.0" encoding="utf-8"?>
<svg xmlns="http://www.w3.org/2000/svg" version="1.1" width="6250" height="750">
<rect width="6250" height="15" x="0" y="0" fill="white" />
<rect width="6250" height="15" x="0" y="735" fill="white" />
<rect width="25" height="750" x="0" y="0" fill="white" />
<rect width="25" height="750" x="6225" y="0" fill="white" />
<rect width="6210" height="144" x="25" y="15" fill="ghostwhite" />
<rect width="6210" height="144" x="25" y="159" fill="snow" />
<rect width="6210" height="144" x="25" y="303" fill="ghostwhite" />
<rect width="6210" height="144" x="25" y="447" fill="snow" />
<rect width="6210" height="144" x="25" y="591" fill="ghostwhite" />
<text x="12" y="87" font-family="Verdana" font-size="10" text-anchor="middle"  dominant-baseline="middle" fill="red" > D0</text>
<text x="12" y="231" font-family="Verdana" font-size="10" text-anchor="middle"  dominant-baseline="middle" fill="red" > D1</text>
<text x="12" y="375" font-family="Verdana" font-size="10" text-anchor="middle"  dominant-baseline="middle" fill="red" > D2</text>
<text x="12" y="519" font-family="Verdana" font-size="10" text-anchor="middle"  dominant-baseline="middle" fill="red" > D3</text>
<text x="12" y="663" font-family="Verdana" font-size="10" text-anchor="middle"  dominant-baseline="middle" fill="red" > D4</text>
<text x="12" y="20" font-family="Verdana" font-size="10" text-anchor="middle"  dominant-baseline="middle" fill="black" > 0</text>
<text x="12" y="164" font-family="Verdana" font-size="10" text-anchor="middle"  dominant-baseline="middle" fill="black" > 144</text>
<text x="12" y="308" font-family="Verdana" font-size="10" text-anchor="middle"  dominant-baseline="middle" fill="black" > 288</text>
<text x="12" y="452" font-family="Verdana" font-size="10" text-anchor="middle"  dominant-baseline="middle" fill="black" > 432</text>
<text x="12" y="596" font-family="Verdana" font-size="10" text-anchor="middle"  dominant-baseline="middle" fill="black" > 576</text>
<text x="12" y="740" font-family="Verdana" font-size="10" text-anchor="middle"  dominant-baseline="middle" fill="black" > 720</text>
<text x="50" y="7" font-family="Verdana" font-size="7" text-anchor="middle"  dominant-baseline="middle" fill="black" > C1</text>
<circle cx="50" cy="15" r="4" fill="white" stroke="black" />
<line x1="50" y1="19" x2="50" y2="152" stroke="black" />
<line x1="46" y1="156" x2="50" y2="148" stroke="blue" />
<line x1="50" y1="156" x2="54" y2="148" stroke="blue" />
<text x="50" y="164" font-family="Verdana" font-size="8" text-anchor="middle"  dominant-baseline="middle" fill="black" > 137</text>
<text x="200" y="7" font-family="Verdana" font-size="7" text-anchor="middle"  dominant-baseline="middle" fill="black" > C2</text>
<circle cx="200" cy="15" r="4" fill="white" stroke="black" />
<line x1="200" y1="19" x2="200" y2="197" stroke="black" />
<line x1="150" y1="197" x2="250" y2="197" stroke="black" />
<text x="225" y="189" font-family="Verdana" font-size="8" text-anchor="middle"  dominant-baseline="middle" fill="black" > 182</text>
<circle cx="150" cy="197" r="4" fill="white" stroke="black" />
<line x1="150" y1="201" x2="150" y2="432" stroke="black" />
<line x1="125" y1="432" x2="175" y2="432" stroke="black" />
<text x="162" y="424" font-family="Verdana" font-size="8" text-anchor="middle"  dominant-baseline="middle" fill="black" > 417</text>
<circle cx="125" cy="432" r="4" fill="white" stroke="black" />
<circle cx="175" cy="432" r="4" fill="white" stroke="black" />
<line x1="125" y1="436" x2="125" y2="446" stroke="black" />
<line x1="125" y1="446" x2="150" y2="450" stroke="black" />
<line x1="175" y1="436" x2="175" y2="446" stroke="black" />
<line x1="175" y1="446" x2="150" y2="450" stroke="black" />
<text x="150" y="438" font-family="Verdana" font-size="8" text-anchor="middle"  dominant-baseline="middle" fill="black" > 435</text>
<circle cx="150" cy="450" r="4" fill="white" stroke="black" />
<circle cx="250" cy="197" r="4" fill="white" stroke="black" />
<line x1="250" y1="201" x2="250" y2="299" stroke="black" />
<line x1="225" y1="299" x2="275" y2="299" stroke="black" />
<text x="262" y="291" font-family="Verdana" font-size="8" text-anchor="middle"  dominant-baseline="middle" fill="black" > 284</text>
<circle cx="225" cy="299" r="4" fill="white" stroke="black" />
<circle cx="275" cy="299" r="4" fill="white" stroke="black" />
<line x1="225" y1="303" x2="225" y2="353" stroke="black" />
<line x1="225" y1="353" x2="250" y2="370" stroke="black" />
<line x1="275" y1="303" x2="275" y2="353" stroke="black" />
<line x1="275" y1="353" x2="250" y2="370" stroke="black" />
<text x="250" y="358" font-family="Verdana" font-size="8" text-anchor="middle"  dominant-baseline="middle" fill="black" > 355</text>
<circle cx="250" cy="370" r="4" fill="white" stroke="black" />
<line x1="250" y1="374" x2="250" y2="474" stroke="black" />
<line x1="237" y1="474" x2="263" y2="474" stroke="black" />
<text x="256" y="466" font-family="Verdana" font-size="8" text-anchor="middle"  dominant-baseline="middle" fill="black" > 459</text>
<circle cx="237" cy="474" r="4" fill="white" stroke="black" />
<circle cx="262" cy="474" r="4" fill="white" stroke="black" />
<line x1="237" y1="478" x2="237" y2="480" stroke="black" />
<line x1="237" y1="480" x2="249" y2="482" stroke="black" />
<line x1="262" y1="478" x2="262" y2="480" stroke="black" />
<line x1="262" y1="480" x2="249" y2="482" stroke="black" />
<text x="249" y="470" font-family="Verdana" font-size="8" text-anchor="middle"  dominant-baseline="middle" fill="black" > 467</text>
<circle cx="249" cy="482" r="4" fill="white" stroke="black" />
<line x1="150" y1="454" x2="150" y2="667" stroke="black" />
<line x1="150" y1="667" x2="199" y2="728" stroke="black" />
<line x1="249" y1="486" x2="249" y2="667" stroke="black" />
<line x1="249" y1="667" x2="199" y2="728" stroke="black" />
<text x="199" y="716" font-family="Verdana" font-size="8" text-anchor="middle"  dominant-baseline="middle" fill="black" > 713</text>
<circle cx="199" cy="728" r="4" fill="white" stroke="black" />
<line x1="199" y1="732" x2="199" y2="736" stroke="black" />
<circle cx="199" cy="736" r="4" fill="white" stroke="black" />
<text x="199" y="748" font-family="Verdana" font-size="8" text-anchor="middle"  dominant-baseline="middle" fill="black" > 721</text>
<text x="400" y="7" font-family="Verdana" font-size="7" text-anchor="middle"  dominant-baseline="middle" fill="black" > C3</text>
<circle cx="400" cy="15" r="4" fill="white" stroke="black" />
<line x1="400" y1="19" x2="400" y2="188" stroke="black" />
<line x1="350" y1="188" x2="450" y2="188" stroke="black" />
<text x="425" y="180" font-family="Verdana" font-size="8" text-anchor="middle"  dominant-baseline="middle" fill="black" > 173</text>
<circle cx="350" cy="188" r="4" fill="white" stroke="black" />
<circle cx="450" cy="188" r="4" fill="white" stroke="black" />
<line x1="350" y1="192" x2="350" y2="202" stroke="black" />
<line x1="350" y1="202" x2="400" y2="206" stroke="black" />
<line x1="450" y1="192" x2="450" y2="202" stroke="black" />
<line x1="450" y1="202" x2="400" y2="206" stroke="black" />
<text x="400" y="194" font-family="Verdana" font-size="8" text-anchor="middle"  dominant-baseline="middle" fill="black" > 191</text>
<circle cx="400" cy="206" r="4" fill="white" stroke="black" />
<line x1="400" y1="210" x2="400" y2="318" stroke="black" />
<line x1="366" y1="318" x2="434" y2="318" stroke="black" />
<text x="408" y="310" font-family="Verdana" font-size="8" text-anchor="middle"  dominant-baseline="middle" fill="black" > 303</text>
<circle cx="366" cy="318" r="4" fill="white" stroke="black" />
<circle cx="399" cy="318" r="4" fill="white" stroke="black" />
<circle cx="432" cy="318" r="4" fill="white" stroke="black" />
<line x1="366" y1="322" x2="366" y2="340" stroke="black" />
<line x1="366" y1="340" x2="399" y2="347" stroke="black" />
<line x1="399" y1="322" x2="399" y2="340" stroke="black" />
<line x1="399" y1="340" x2="399" y2="347" stroke="black" />
<line x1="432" y1="322" x2="432" y2="340" stroke="black" />
<line x1="432" y1="340" x2="399" y2="347" stroke="black" />
<text x="399" y="335" font-family="Verdana" font-size="8" text-anchor="middle"  dominant-baseline="middle" fill="black" > 332</text>
<circle cx="399" cy="347" r="4" fill="white" stroke="black" />
<line x1="399" y1="351" x2="399" y2="676" stroke="black" />
<line x1="395" y1="672" x2="403" y2="680" stroke="red" />
<line x1="395" y1="680" x2="403" y2="672" stroke="red" />
<text x="399" y="688" font-family="Verdana" font-size="8" text-anchor="middle"  dominant-baseline="middle" fill="black" > 661</text>
<text x="600" y="7" font-family="Verdana" font-size="7" text-anchor="middle"  dominant-baseline="middle" fill="black" > C4</text>
<circle cx="600" cy="15" r="4" fill="white" stroke="black" />
<line x1="600" y1="19" x2="600" y2="238" stroke="black" />
<line x1="550" y1="238" x2="650" y2="238" stroke="black" />
<text x="625" y="230" font-family="Verdana" font-size="8" text-anchor="middle"  dominant-baseline="middle" fill="black" > 223</text>
<circle cx="550" cy="238" r="4" fill="white" stroke="black" />
<line x1="550" y1="242" x2="550" y2="604" stroke="black" />
<line x1="546" y1="600" x2="554" y2="608" stroke="red" />
<line x1="546" y1="608" x2="554" y2="600" stroke="red" />
<text x="550" y="616" font-family="Verdana" font-size="8" text-anchor="middle"  dominant-baseline="middle" fill="black" > 589</text>
<circle cx="650" cy="238" r="4" fill="white" stroke="black" />
<line x1="650" y1="242" x2="650" y2="516" stroke="black" />
<line x1="625" y1="516" x2="675" y2="516" stroke="black" />
<text x="662" y="508" font-family="Verdana" font-size="8" text-anchor="middle"  dominant-baseline="middle" fill="black" > 501</text>
<circle cx="625" cy="516" r="4" fill="white" stroke="black" />
<circle cx="675" cy="516" r="4" fill="white" stroke="black" />
<line x1="625" y1="520" x2="625" y2="531" stroke="black" />
<line x1="625" y1="531" x2="650" y2="536" stroke="black" />
<line x1="675" y1="520" x2="675" y2="531" stroke="black" />
<line x1="675" y1="531" x2="650" y2="536" stroke="black" />
<text x="650" y="524" font-family="Verdana" font-size="8" text-anchor="middle"  dominant-baseline="middle" fill="black" > 521</text>
<circle cx="650" cy="536" r="4" fill="white" stroke="black" />
<line x1="650" y1="540" x2="650" y2="736" stroke="black" />
<circle cx="650" cy="736" r="4" fill="white" stroke="black" />
<text x="650" y="748" font-family="Verdana" font-size="8" text-anchor="middle"  dominant-baseline="middle" fill="black" > 721</text>
<text x="750" y="7" font-family="Verdana" font-size="7" text-anchor="middle"  dominant-baseline="middle" fill="black" > C5</text>
<circle cx="750" cy="15" r="4" fill="white" stroke="black" />
<line x1="750" y1="19" x2="750" y2="241" stroke="black" />
<line x1="746" y1="237" x2="754" y2="245" stroke="red" />
<line x1="746" y1="245" x2="754" y2="237" stroke="red" />
<text x="750" y="253" font-family="Verdana" font-size="8" text-anchor="middle"  dominant-baseline="middle" fill="black" > 226</text>
<text x="850" y="7" font-family="Verdana" font-size="7" text-anchor="middle"  dominant-baseline="middle" fill="black" > C6</text>
<circle cx="850" cy="15" r="4" fill="white" stroke="black" />
<line x1="850" y1="19" x2="850" y2="62" stroke="black" />
<line x1="846" y1="66" x2="850" y2="58" stroke="blue" />
<line x1="850" y1="66" x2="854" y2="58" stroke="blue" />
<text x="850" y="74" font-family="Verdana" font-size="8" text-anchor="middle"  dominant-baseline="middle" fill="black" > 47</text>
<text x="950" y="7" font-family="Verdana" font-size="7" text-anchor="middle"  dominant-baseline="middle" fill="black" > C7</text>
<circle cx="950" cy="15" r="4" fill="white" stroke="black" />
<line x1="950" y1="19" x2="950" y2="80" stroke="black" />
<line x1="946" y1="84" x2="950" y2="76" stroke="blue" />
<line x1="950" y1="84" x2="954" y2="76" stroke="blue" />
<text x="950" y="92" font-family="Verdana" font-size="8" text-anchor="middle"  dominant-baseline="middle" fill="black" > 65</text>
<text x="1100" y="7" font-family="Verdana" font-size="7" text-anchor="middle"  dominant-baseline="middle" fill="black" > C8</text>
<circle cx="1100" cy="15" r="4" fill="white" stroke="black" />
<line x1="1100" y1="19" x2="1100" y2="219" stroke="black" />
<line x1="1050" y1="219" x2="1150" y2="219" stroke="black" />
<text x="1125" y="211" font-family="Verdana" font-size="8" text-anchor="middle"  dominant-baseline="middle" fill="black" > 204</text>
<circle cx="1050" cy="219" r="4" fill="white" stroke="black" />
<line x1="1050" y1="223" x2="1050" y2="399" stroke="black" />
<line x1="1016" y1="399" x2="1084" y2="399" stroke="black" />
<text x="1058" y="391" font-family="Verdana" font-size="8" text-anchor="middle"  dominant-baseline="middle" fill="black" > 384</text>
<circle cx="1016" cy="399" r="4" fill="white" stroke="black" />
<line x1="1016" y1="403" x2="1016" y2="427" stroke="black" />
<line x1="1012" y1="423" x2="1020" y2="431" stroke="red" />
<line x1="1012" y1="431" x2="1020" y2="423" stroke="red" />
<text x="1016" y="439" font-family="Verdana" font-size="8" text-anchor="middle"  dominant-baseline="middle" fill="black" > 412</text>
<circle cx="1049" cy="399" r="4" fill="white" stroke="black" />
<line x1="1049" y1="403" x2="1049" y2="465" stroke="black" />
<line x1="1045" y1="469" x2="1049" y2="461" stroke="blue" />
<line x1="1049" y1="469" x2="1053" y2="461" stroke="blue" />
<text x="1049" y="477" font-family="Verdana" font-size="8" text-anchor="middle"  dominant-baseline="middle" fill="black" > 450</text>
<circle cx="1082" cy="399" r="4" fill="white" stroke="black" />
<line x1="1082" y1="403" x2="1082" y2="465" stroke="black" />
<line x1="1078" y1="469" x2="1082" y2="461" stroke="blue" />
<line x1="1082" y1="469" x2="1086" y2="461" stroke="blue" />
<text x="1082" y="477" font-family="Verdana" font-size="8" text-anchor="middle"  dominant-baseline="middle" fill="black" > 450</text>
<circle cx="1150" cy="219" r="4" fill="white" stroke="black" />
<line x1="1150" y1="223" x2="1150" y2="357" stroke="black" />
<line x1="1116" y1="357" x2="1184" y2="357" stroke="black" />
<text x="1158" y="349" font-family="Verdana" font-size="8" text-anchor="middle"  dominant-baseline="middle" fill="black" > 342</text>
<circle cx="1116" cy="357" r="4" fill="white" stroke="black" />
<line x1="1116" y1="361" x2="1116" y2="622" stroke="black" />
<line x1="1112" y1="618" x2="1120" y2="626" stroke="red" />
<line x1="1112" y1="626" x2="1120" y2="618" stroke="red" />
<text x="1116" y="634" font-family="Verdana" font-size="8" text-anchor="middle"  dominant-baseline="middle" fill="black" > 607</text>
<circle cx="1149" cy="357" r="4" fill="white" stroke="black" />
<circle cx="1182" cy="357" r="4" fill="white" stroke="black" />
<line x1="1149" y1="361" x2="1149" y2="386" stroke="black" />
<line x1="1149" y1="386" x2="1165" y2="395" stroke="black" />
<line x1="1182" y1="361" x2="1182" y2="386" stroke="black" />
<line x1="1182" y1="386" x2="1165" y2="395" stroke="black" />
<text x="1165" y="383" font-family="Verdana" font-size="8" text-anchor="middle"  dominant-baseline="middle" fill="black" > 380</text>
<circle cx="1165" cy="395" r="4" fill="white" stroke="black" />
<line x1="1165" y1="399" x2="1165" y2="723" stroke="black" />
<line x1="1161" y1="719" x2="1169" y2="727" stroke="red" />
<line x1="1161" y1="727" x2="1169" y2="719" stroke="red" />
<text x="1165" y="735" font-family="Verdana" font-size="8" text-anchor="middle"  dominant-baseline="middle" fill="black" > 708</text>
<text x="1300" y="7" font-family="Verdana" font-size="7" text-anchor="middle"  dominant-baseline="middle" fill="black" > C9</text>
<circle cx="1300" cy="15" r="4" fill="white" stroke="black" />
<line x1="1300" y1="19" x2="1300" y2="223" stroke="black" />
<line x1="1250" y1="223" x2="1350" y2="223" stroke="black" />
<text x="1325" y="215" font-family="Verdana" font-size="8" text-anchor="middle"  dominant-baseline="middle" fill="black" > 208</text>
<circle cx="1250" cy="223" r="4" fill="white" stroke="black" />
<line x1="1250" y1="227" x2="1250" y2="507" stroke="black" />
<line x1="1225" y1="507" x2="1275" y2="507" stroke="black" />
<text x="1262" y="499" font-family="Verdana" font-size="8" text-anchor="middle"  dominant-baseline="middle" fill="black" > 492</text>
<circle cx="1225" cy="507" r="4" fill="white" stroke="black" />
<line x1="1225" y1="511" x2="1225" y2="508" stroke="black" />
<line x1="1221" y1="512" x2="1225" y2="504" stroke="blue" />
<line x1="1225" y1="512" x2="1229" y2="504" stroke="blue" />
<text x="1225" y="520" font-family="Verdana" font-size="8" text-anchor="middle"  dominant-baseline="middle" fill="black" > 493</text>
<circle cx="1275" cy="507" r="4" fill="white" stroke="black" />
<line x1="1275" y1="511" x2="1275" y2="508" stroke="black" />
<line x1="1271" y1="512" x2="1275" y2="504" stroke="blue" />
<line x1="1275" y1="512" x2="1279" y2="504" stroke="blue" />
<text x="1275" y="520" font-family="Verdana" font-size="8" text-anchor="middle"  dominant-baseline="middle" fill="black" > 493</text>
<circle cx="1350" cy="223" r="4" fill="white" stroke="black" />
<line x1="1350" y1="227" x2="1350" y2="359" stroke="black" />
<line x1="1325" y1="359" x2="1375" y2="359" stroke="black" />
<text x="1362" y="351" font-family="Verdana" font-size="8" text-anchor="middle"  dominant-baseline="middle" fill="black" > 344</text>
<circle cx="1325" cy="359" r="4" fill="white" stroke="black" />
<line x1="1325" y1="363" x2="1325" y2="638" stroke="black" />
<line x1="1312" y1="638" x2="1338" y2="638" stroke="black" />
<text x="1331" y="630" font-family="Verdana" font-size="8" text-anchor="middle"  dominant-baseline="middle" fill="black" > 623</text>
<circle cx="1312" cy="638" r="4" fill="white" stroke="black" />
<line x1="1312" y1="642" x2="1312" y2="736" stroke="black" />
<circle cx="1312" cy="736" r="4" fill="white" stroke="black" />
<text x="1312" y="748" font-family="Verdana" font-size="8" text-anchor="middle"  dominant-baseline="middle" fill="black" > 721</text>
<circle cx="1337" cy="638" r="4" fill="white" stroke="black" />
<line x1="1337" y1="642" x2="1337" y2="736" stroke="black" />
<circle cx="1337" cy="736" r="4" fill="white" stroke="black" />
<text x="1337" y="748" font-family="Verdana" font-size="8" text-anchor="middle"  dominant-baseline="middle" fill="black" > 721</text>
<circle cx="1375" cy="359" r="4" fill="white" stroke="black" />
<line x1="1375" y1="363" x2="1375" y2="605" stroke="black" />
<line x1="1362" y1="605" x2="1388" y2="605" stroke="black" />
<text x="1381" y="597" font-family="Verdana" font-size="8" text-anchor="middle"  dominant-baseline="middle" fill="black" > 590</text>
<circle cx="1362" cy="605" r="4" fill="white" stroke="black" />
<line x1="1362" y1="609" x2="1362" y2="736" stroke="black" />
<circle cx="1362" cy="736" r="4" fill="white" stroke="black" />
<text x="1362" y="748" font-family="Verdana" font-size="8" text-anchor="middle"  dominant-baseline="middle" fill="black" > 721</text>
<circle cx="1387" cy="605" r="4" fill="white" stroke="black" />
<line x1="1387" y1="609" x2="1387" y2="736" stroke="black" />
<circle cx="1387" cy="736" r="4" fill="white" stroke="black" />
<text x="1387" y="748" font-family="Verdana" font-size="8" text-anchor="middle"  dominant-baseline="middle" fill="black" > 721</text>
<text x="1450" y="7" font-family="Verdana" font-size="7" text-anchor="middle"  dominant-baseline="middle" fill="black" > C10</text>
<circle cx="1450" cy="15" r="4" fill="white" stroke="black" />
<line x1="1450" y1="19" x2="1450" y2="165" stroke="black" />
<line x1="1446" y1="169" x2="1450" y2="161" stroke="blue" />
<line x1="1450" y1="169" x2="1454" y2="161" stroke="blue" />
<text x="1450" y="177" font-family="Verdana" font-size="8" text-anchor="middle"  dominant-baseline="middle" fill="black" > 150</text>
<text x="1800" y="7" font-family="Verdana" font-size="7" text-anchor="middle"  dominant-baseline="middle" fill="black" > C11</text>
<circle cx="1800" cy="15" r="4" fill="white" stroke="black" />
<line x1="1800" y1="19" x2="1800" y2="364" stroke="black" />
<line x1="1550" y1="364" x2="2050" y2="364" stroke="black" />
<text x="1825" y="356" font-family="Verdana" font-size="8" text-anchor="middle"  dominant-baseline="middle" fill="black" > 349</text>
<circle cx="1550" cy="364" r="4" fill="white" stroke="black" />
<circle cx="1650" cy="364" r="4" fill="white" stroke="black" />
<circle cx="1750" cy="364" r="4" fill="white" stroke="black" />
<circle cx="1850" cy="364" r="4" fill="white" stroke="black" />
<circle cx="1950" cy="364" r="4" fill="white" stroke="black" />
<line x1="1550" y1="368" x2="1550" y2="377" stroke="black" />
<line x1="1550" y1="377" x2="1750" y2="381" stroke="black" />
<line x1="1650" y1="368" x2="1650" y2="377" stroke="black" />
<line x1="1650" y1="377" x2="1750" y2="381" stroke="black" />
<line x1="1750" y1="368" x2="1750" y2="377" stroke="black" />
<line x1="1750" y1="377" x2="1750" y2="381" stroke="black" />
<line x1="1850" y1="368" x2="1850" y2="377" stroke="black" />
<line x1="1850" y1="377" x2="1750" y2="381" stroke="black" />
<line x1="1950" y1="368" x2="1950" y2="377" stroke="black" />
<line x1="1950" y1="377" x2="1750" y2="381" stroke="black" />
<text x="1750" y="369" font-family="Verdana" font-size="8" text-anchor="middle"  dominant-baseline="middle" fill="black" > 366</text>
<circle cx="1750" cy="381" r="4" fill="white" stroke="black" />
<circle cx="2050" cy="364" r="4" fill="white" stroke="black" />
<line x1="1750" y1="385" x2="1750" y2="384" stroke="black" />
<line x1="1750" y1="384" x2="1900" y2="384" stroke="black" />
<line x1="2050" y1="368" x2="2050" y2="384" stroke="black" />
<line x1="2050" y1="384" x2="1900" y2="384" stroke="black" />
<text x="1900" y="372" font-family="Verdana" font-size="8" text-anchor="middle"  dominant-baseline="middle" fill="black" > 369</text>
<circle cx="1900" cy="384" r="4" fill="white" stroke="black" />
<line x1="1900" y1="388" x2="1900" y2="450" stroke="black" />
<line x1="1896" y1="446" x2="1904" y2="454" stroke="red" />
<line x1="1896" y1="454" x2="1904" y2="446" stroke="red" />
<text x="1900" y="462" font-family="Verdana" font-size="8" text-anchor="middle"  dominant-baseline="middle" fill="black" > 435</text>
<text x="2250" y="7" font-family="Verdana" font-size="7" text-anchor="middle"  dominant-baseline="middle" fill="black" > C12</text>
<circle cx="2250" cy="15" r="4" fill="white" stroke="black" />
<line x1="2250" y1="19" x2="2250" y2="320" stroke="black" />
<line x1="2150" y1="320" x2="2350" y2="320" stroke="black" />
<text x="2275" y="312" font-family="Verdana" font-size="8" text-anchor="middle"  dominant-baseline="middle" fill="black" > 305</text>
<circle cx="2150" cy="320" r="4" fill="white" stroke="black" />
<circle cx="2250" cy="320" r="4" fill="white" stroke="black" />
<line x1="2150" y1="324" x2="2150" y2="333" stroke="black" />
<line x1="2150" y1="333" x2="2200" y2="337" stroke="black" />
<line x1="2250" y1="324" x2="2250" y2="333" stroke="black" />
<line x1="2250" y1="333" x2="2200" y2="337" stroke="black" />
<text x="2200" y="325" font-family="Verdana" font-size="8" text-anchor="middle"  dominant-baseline="middle" fill="black" > 322</text>
<circle cx="2200" cy="337" r="4" fill="white" stroke="black" />
<circle cx="2350" cy="320" r="4" fill="white" stroke="black" />
<line x1="2200" y1="341" x2="2200" y2="436" stroke="black" />
<line x1="2200" y1="436" x2="2275" y2="468" stroke="black" />
<line x1="2350" y1="324" x2="2350" y2="436" stroke="black" />
<line x1="2350" y1="436" x2="2275" y2="468" stroke="black" />
<text x="2275" y="456" font-family="Verdana" font-size="8" text-anchor="middle"  dominant-baseline="middle" fill="black" > 453</text>
<circle cx="2275" cy="468" r="4" fill="white" stroke="black" />
<line x1="2275" y1="472" x2="2275" y2="477" stroke="black" />
<line x1="2271" y1="473" x2="2279" y2="481" stroke="red" />
<line x1="2271" y1="481" x2="2279" y2="473" stroke="red" />
<text x="2275" y="489" font-family="Verdana" font-size="8" text-anchor="middle"  dominant-baseline="middle" fill="black" > 462</text>
<text x="2450" y="7" font-family="Verdana" font-size="7" text-anchor="middle"  dominant-baseline="middle" fill="black" > C13</text>
<circle cx="2450" cy="15" r="4" fill="white" stroke="black" />
<line x1="2450" y1="19" x2="2450" y2="257" stroke="black" />
<line x1="2446" y1="261" x2="2450" y2="253" stroke="blue" />
<line x1="2450" y1="261" x2="2454" y2="253" stroke="blue" />
<text x="2450" y="269" font-family="Verdana" font-size="8" text-anchor="middle"  dominant-baseline="middle" fill="black" > 242</text>
<text x="2650" y="7" font-family="Verdana" font-size="7" text-anchor="middle"  dominant-baseline="middle" fill="black" > C14</text>
<circle cx="2650" cy="15" r="4" fill="white" stroke="black" />
<line x1="2650" y1="19" x2="2650" y2="375" stroke="black" />
<line x1="2550" y1="375" x2="2750" y2="375" stroke="black" />
<text x="2675" y="367" font-family="Verdana" font-size="8" text-anchor="middle"  dominant-baseline="middle" fill="black" > 360</text>
<circle cx="2550" cy="375" r="4" fill="white" stroke="black" />
<circle cx="2650" cy="375" r="4" fill="white" stroke="black" />
<line x1="2550" y1="379" x2="2550" y2="390" stroke="black" />
<line x1="2550" y1="390" x2="2600" y2="394" stroke="black" />
<line x1="2650" y1="379" x2="2650" y2="390" stroke="black" />
<line x1="2650" y1="390" x2="2600" y2="394" stroke="black" />
<text x="2600" y="382" font-family="Verdana" font-size="8" text-anchor="middle"  dominant-baseline="middle" fill="black" > 379</text>
<circle cx="2600" cy="394" r="4" fill="white" stroke="black" />
<circle cx="2750" cy="375" r="4" fill="white" stroke="black" />
<line x1="2600" y1="398" x2="2600" y2="400" stroke="black" />
<line x1="2600" y1="400" x2="2675" y2="401" stroke="black" />
<line x1="2750" y1="379" x2="2750" y2="400" stroke="black" />
<line x1="2750" y1="400" x2="2675" y2="401" stroke="black" />
<text x="2675" y="389" font-family="Verdana" font-size="8" text-anchor="middle"  dominant-baseline="middle" fill="black" > 386</text>
<circle cx="2675" cy="401" r="4" fill="white" stroke="black" />
<line x1="2675" y1="405" x2="2675" y2="552" stroke="black" />
<line x1="2671" y1="548" x2="2679" y2="556" stroke="red" />
<line x1="2671" y1="556" x2="2679" y2="548" stroke="red" />
<text x="2675" y="564" font-family="Verdana" font-size="8" text-anchor="middle"  dominant-baseline="middle" fill="black" > 537</text>
<text x="2850" y="7" font-family="Verdana" font-size="7" text-anchor="middle"  dominant-baseline="middle" fill="black" > C15</text>
<circle cx="2850" cy="15" r="4" fill="white" stroke="black" />
<line x1="2850" y1="19" x2="2850" y2="186" stroke="black" />
<line x1="2846" y1="182" x2="2854" y2="190" stroke="red" />
<line x1="2846" y1="190" x2="2854" y2="182" stroke="red" />
<text x="2850" y="198" font-family="Verdana" font-size="8" text-anchor="middle"  dominant-baseline="middle" fill="black" > 171</text>
<text x="2950" y="7" font-family="Verdana" font-size="7" text-anchor="middle"  dominant-baseline="middle" fill="black" > C16</text>
<circle cx="2950" cy="15" r="4" fill="white" stroke="black" />
<line x1="2950" y1="19" x2="2950" y2="736" stroke="black" />
<circle cx="2950" cy="736" r="4" fill="white" stroke="black" />
<text x="2950" y="748" font-family="Verdana" font-size="8" text-anchor="middle"  dominant-baseline="middle" fill="black" > 721</text>
<text x="3200" y="7" font-family="Verdana" font-size="7" text-anchor="middle"  dominant-baseline="middle" fill="black" > C17</text>
<circle cx="3200" cy="15" r="4" fill="white" stroke="black" />
<line x1="3200" y1="19" x2="3200" y2="357" stroke="black" />
<line x1="3050" y1="357" x2="3350" y2="357" stroke="black" />
<text x="3225" y="349" font-family="Verdana" font-size="8" text-anchor="middle"  dominant-baseline="middle" fill="black" > 342</text>
<circle cx="3050" cy="357" r="4" fill="white" stroke="black" />
<circle cx="3150" cy="357" r="4" fill="white" stroke="black" />
<line x1="3050" y1="361" x2="3050" y2="364" stroke="black" />
<line x1="3050" y1="364" x2="3100" y2="366" stroke="black" />
<line x1="3150" y1="361" x2="3150" y2="364" stroke="black" />
<line x1="3150" y1="364" x2="3100" y2="366" stroke="black" />
<text x="3100" y="354" font-family="Verdana" font-size="8" text-anchor="middle"  dominant-baseline="middle" fill="black" > 351</text>
<circle cx="3100" cy="366" r="4" fill="white" stroke="black" />
<circle cx="3250" cy="357" r="4" fill="white" stroke="black" />
<circle cx="3350" cy="357" r="4" fill="white" stroke="black" />
<line x1="3250" y1="361" x2="3250" y2="363" stroke="black" />
<line x1="3250" y1="363" x2="3300" y2="365" stroke="black" />
<line x1="3350" y1="361" x2="3350" y2="363" stroke="black" />
<line x1="3350" y1="363" x2="3300" y2="365" stroke="black" />
<text x="3300" y="353" font-family="Verdana" font-size="8" text-anchor="middle"  dominant-baseline="middle" fill="black" > 350</text>
<circle cx="3300" cy="365" r="4" fill="white" stroke="black" />
<line x1="3100" y1="370" x2="3100" y2="372" stroke="black" />
<line x1="3100" y1="372" x2="3200" y2="373" stroke="black" />
<line x1="3300" y1="369" x2="3300" y2="372" stroke="black" />
<line x1="3300" y1="372" x2="3200" y2="373" stroke="black" />
<text x="3200" y="361" font-family="Verdana" font-size="8" text-anchor="middle"  dominant-baseline="middle" fill="black" > 358</text>
<circle cx="3200" cy="373" r="4" fill="white" stroke="black" />
<line x1="3200" y1="377" x2="3200" y2="736" stroke="black" />
<circle cx="3200" cy="736" r="4" fill="white" stroke="black" />
<text x="3200" y="748" font-family="Verdana" font-size="8" text-anchor="middle"  dominant-baseline="middle" fill="black" > 721</text>
<text x="3750" y="7" font-family="Verdana" font-size="7" text-anchor="middle"  dominant-baseline="middle" fill="black" > C18</text>
<circle cx="3750" cy="15" r="4" fill="white" stroke="black" />
<line x1="3750" y1="19" x2="3750" y2="589" stroke="black" />
<line x1="3450" y1="589" x2="4050" y2="589" stroke="black" />
<text x="3775" y="581" font-family="Verdana" font-size="8" text-anchor="middle"  dominant-baseline="middle" fill="black" > 574</text>
<circle cx="3450" cy="589" r="4" fill="white" stroke="black" />
<line x1="3450" y1="593" x2="3450" y2="590" stroke="black" />
<line x1="3446" y1="586" x2="3454" y2="594" stroke="red" />
<line x1="3446" y1="594" x2="3454" y2="586" stroke="red" />
<text x="3450" y="602" font-family="Verdana" font-size="8" text-anchor="middle"  dominant-baseline="middle" fill="black" > 575</text>
<circle cx="3550" cy="589" r="4" fill="white" stroke="black" />
<line x1="3550" y1="593" x2="3550" y2="590" stroke="black" />
<line x1="3546" y1="586" x2="3554" y2="594" stroke="red" />
<line x1="3546" y1="594" x2="3554" y2="586" stroke="red" />
<text x="3550" y="602" font-family="Verdana" font-size="8" text-anchor="middle"  dominant-baseline="middle" fill="black" > 575</text>
<circle cx="3650" cy="589" r="4" fill="white" stroke="black" />
<line x1="3650" y1="593" x2="3650" y2="593" stroke="black" />
<line x1="3646" y1="589" x2="3654" y2="597" stroke="red" />
<line x1="3646" y1="597" x2="3654" y2="589" stroke="red" />
<text x="3650" y="605" font-family="Verdana" font-size="8" text-anchor="middle"  dominant-baseline="middle" fill="black" > 578</text>
<circle cx="3750" cy="589" r="4" fill="white" stroke="black" />
<line x1="3750" y1="593" x2="3750" y2="593" stroke="black" />
<line x1="3746" y1="589" x2="3754" y2="597" stroke="red" />
<line x1="3746" y1="597" x2="3754" y2="589" stroke="red" />
<text x="3750" y="605" font-family="Verdana" font-size="8" text-anchor="middle"  dominant-baseline="middle" fill="black" > 578</text>
<circle cx="3850" cy="589" r="4" fill="white" stroke="black" />
<line x1="3850" y1="593" x2="3850" y2="594" stroke="black" />
<line x1="3846" y1="590" x2="3854" y2="598" stroke="red" />
<line x1="3846" y1="598" x2="3854" y2="590" stroke="red" />
<text x="3850" y="606" font-family="Verdana" font-size="8" text-anchor="middle"  dominant-baseline="middle" fill="black" > 579</text>
<circle cx="3950" cy="589" r="4" fill="white" stroke="black" />
<line x1="3950" y1="593" x2="3950" y2="595" stroke="black" />
<line x1="3946" y1="591" x2="3954" y2="599" stroke="red" />
<line x1="3946" y1="599" x2="3954" y2="591" stroke="red" />
<text x="3950" y="607" font-family="Verdana" font-size="8" text-anchor="middle"  dominant-baseline="middle" fill="black" > 580</text>
<circle cx="4050" cy="589" r="4" fill="white" stroke="black" />
<line x1="4050" y1="593" x2="4050" y2="596" stroke="black" />
<line x1="4046" y1="592" x2="4054" y2="600" stroke="red" />
<line x1="4046" y1="600" x2="4054" y2="592" stroke="red" />
<text x="4050" y="608" font-family="Verdana" font-size="8" text-anchor="middle"  dominant-baseline="middle" fill="black" > 581</text>
<text x="4200" y="7" font-family="Verdana" font-size="7" text-anchor="middle"  dominant-baseline="middle" fill="black" > C19</text>
<circle cx="4200" cy="15" r="4" fill="white" stroke="black" />
<line x1="4200" y1="19" x2="4200" y2="246" stroke="black" />
<line x1="4150" y1="246" x2="4250" y2="246" stroke="black" />
<text x="4225" y="238" font-family="Verdana" font-size="8" text-anchor="middle"  dominant-baseline="middle" fill="black" > 231</text>
<circle cx="4150" cy="246" r="4" fill="white" stroke="black" />
<line x1="4150" y1="250" x2="4150" y2="638" stroke="black" />
<line x1="4146" y1="634" x2="4154" y2="642" stroke="red" />
<line x1="4146" y1="642" x2="4154" y2="634" stroke="red" />
<text x="4150" y="650" font-family="Verdana" font-size="8" text-anchor="middle"  dominant-baseline="middle" fill="black" > 623</text>
<circle cx="4250" cy="246" r="4" fill="white" stroke="black" />
<line x1="4250" y1="250" x2="4250" y2="415" stroke="black" />
<line x1="4216" y1="415" x2="4284" y2="415" stroke="black" />
<text x="4258" y="407" font-family="Verdana" font-size="8" text-anchor="middle"  dominant-baseline="middle" fill="black" > 400</text>
<circle cx="4216" cy="415" r="4" fill="white" stroke="black" />
<line x1="4216" y1="419" x2="4216" y2="736" stroke="black" />
<circle cx="4216" cy="736" r="4" fill="white" stroke="black" />
<text x="4216" y="748" font-family="Verdana" font-size="8" text-anchor="middle"  dominant-baseline="middle" fill="black" > 721</text>
<circle cx="4249" cy="415" r="4" fill="white" stroke="black" />
<circle cx="4282" cy="415" r="4" fill="white" stroke="black" />
<line x1="4249" y1="419" x2="4249" y2="554" stroke="black" />
<line x1="4249" y1="554" x2="4265" y2="600" stroke="black" />
<line x1="4282" y1="419" x2="4282" y2="554" stroke="black" />
<line x1="4282" y1="554" x2="4265" y2="600" stroke="black" />
<text x="4265" y="588" font-family="Verdana" font-size="8" text-anchor="middle"  dominant-baseline="middle" fill="black" > 585</text>
<circle cx="4265" cy="600" r="4" fill="white" stroke="black" />
<line x1="4265" y1="604" x2="4265" y2="695" stroke="black" />
<line x1="4261" y1="699" x2="4265" y2="691" stroke="blue" />
<line x1="4265" y1="699" x2="4269" y2="691" stroke="blue" />
<text x="4265" y="707" font-family="Verdana" font-size="8" text-anchor="middle"  dominant-baseline="middle" fill="black" > 680</text>
<text x="4400" y="7" font-family="Verdana" font-size="7" text-anchor="middle"  dominant-baseline="middle" fill="black" > C20</text>
<circle cx="4400" cy="15" r="4" fill="white" stroke="black" />
<line x1="4400" y1="19" x2="4400" y2="234" stroke="black" />
<line x1="4350" y1="234" x2="4450" y2="234" stroke="black" />
<text x="4425" y="226" font-family="Verdana" font-size="8" text-anchor="middle"  dominant-baseline="middle" fill="black" > 219</text>
<circle cx="4350" cy="234" r="4" fill="white" stroke="black" />
<line x1="4350" y1="238" x2="4350" y2="552" stroke="black" />
<line x1="4346" y1="548" x2="4354" y2="556" stroke="red" />
<line x1="4346" y1="556" x2="4354" y2="548" stroke="red" />
<text x="4350" y="564" font-family="Verdana" font-size="8" text-anchor="middle"  dominant-baseline="middle" fill="black" > 537</text>
<circle cx="4450" cy="234" r="4" fill="white" stroke="black" />
<line x1="4450" y1="238" x2="4450" y2="512" stroke="black" />
<line x1="4425" y1="512" x2="4475" y2="512" stroke="black" />
<text x="4462" y="504" font-family="Verdana" font-size="8" text-anchor="middle"  dominant-baseline="middle" fill="black" > 497</text>
<circle cx="4425" cy="512" r="4" fill="white" stroke="black" />
<line x1="4425" y1="516" x2="4425" y2="550" stroke="black" />
<line x1="4421" y1="546" x2="4429" y2="554" stroke="red" />
<line x1="4421" y1="554" x2="4429" y2="546" stroke="red" />
<text x="4425" y="562" font-family="Verdana" font-size="8" text-anchor="middle"  dominant-baseline="middle" fill="black" > 535</text>
<circle cx="4475" cy="512" r="4" fill="white" stroke="black" />
<line x1="4475" y1="516" x2="4475" y2="549" stroke="black" />
<line x1="4471" y1="545" x2="4479" y2="553" stroke="red" />
<line x1="4471" y1="553" x2="4479" y2="545" stroke="red" />
<text x="4475" y="561" font-family="Verdana" font-size="8" text-anchor="middle"  dominant-baseline="middle" fill="black" > 534</text>
<text x="4650" y="7" font-family="Verdana" font-size="7" text-anchor="middle"  dominant-baseline="middle" fill="black" > C21</text>
<circle cx="4650" cy="15" r="4" fill="white" stroke="black" />
<line x1="4650" y1="19" x2="4650" y2="283" stroke="black" />
<line x1="4550" y1="283" x2="4750" y2="283" stroke="black" />
<text x="4675" y="275" font-family="Verdana" font-size="8" text-anchor="middle"  dominant-baseline="middle" fill="black" > 268</text>
<circle cx="4550" cy="283" r="4" fill="white" stroke="black" />
<circle cx="4650" cy="283" r="4" fill="white" stroke="black" />
<line x1="4550" y1="287" x2="4550" y2="297" stroke="black" />
<line x1="4550" y1="297" x2="4600" y2="301" stroke="black" />
<line x1="4650" y1="287" x2="4650" y2="297" stroke="black" />
<line x1="4650" y1="297" x2="4600" y2="301" stroke="black" />
<text x="4600" y="289" font-family="Verdana" font-size="8" text-anchor="middle"  dominant-baseline="middle" fill="black" > 286</text>
<circle cx="4600" cy="301" r="4" fill="white" stroke="black" />
<circle cx="4750" cy="283" r="4" fill="white" stroke="black" />
<line x1="4600" y1="305" x2="4600" y2="305" stroke="black" />
<line x1="4600" y1="305" x2="4675" y2="306" stroke="black" />
<line x1="4750" y1="287" x2="4750" y2="305" stroke="black" />
<line x1="4750" y1="305" x2="4675" y2="306" stroke="black" />
<text x="4675" y="294" font-family="Verdana" font-size="8" text-anchor="middle"  dominant-baseline="middle" fill="black" > 291</text>
<circle cx="4675" cy="306" r="4" fill="white" stroke="black" />
<line x1="4675" y1="310" x2="4675" y2="483" stroke="black" />
<line x1="4671" y1="479" x2="4679" y2="487" stroke="red" />
<line x1="4671" y1="487" x2="4679" y2="479" stroke="red" />
<text x="4675" y="495" font-family="Verdana" font-size="8" text-anchor="middle"  dominant-baseline="middle" fill="black" > 468</text>
<text x="4850" y="7" font-family="Verdana" font-size="7" text-anchor="middle"  dominant-baseline="middle" fill="black" > C22</text>
<circle cx="4850" cy="15" r="4" fill="white" stroke="black" />
<line x1="4850" y1="19" x2="4850" y2="235" stroke="black" />
<line x1="4846" y1="239" x2="4850" y2="231" stroke="blue" />
<line x1="4850" y1="239" x2="4854" y2="231" stroke="blue" />
<text x="4850" y="247" font-family="Verdana" font-size="8" text-anchor="middle"  dominant-baseline="middle" fill="black" > 220</text>
<text x="4950" y="7" font-family="Verdana" font-size="7" text-anchor="middle"  dominant-baseline="middle" fill="black" > C23</text>
<circle cx="4950" cy="15" r="4" fill="white" stroke="black" />
<line x1="4950" y1="19" x2="4950" y2="115" stroke="black" />
<line x1="4946" y1="119" x2="4950" y2="111" stroke="blue" />
<line x1="4950" y1="119" x2="4954" y2="111" stroke="blue" />
<text x="4950" y="127" font-family="Verdana" font-size="8" text-anchor="middle"  dominant-baseline="middle" fill="black" > 100</text>
<text x="5100" y="7" font-family="Verdana" font-size="7" text-anchor="middle"  dominant-baseline="middle" fill="black" > C24</text>
<circle cx="5100" cy="15" r="4" fill="white" stroke="black" />
<line x1="5100" y1="19" x2="5100" y2="214" stroke="black" />
<line x1="5050" y1="214" x2="5150" y2="214" stroke="black" />
<text x="5125" y="206" font-family="Verdana" font-size="8" text-anchor="middle"  dominant-baseline="middle" fill="black" > 199</text>
<circle cx="5050" cy="214" r="4" fill="white" stroke="black" />
<line x1="5050" y1="218" x2="5050" y2="736" stroke="black" />
<circle cx="5050" cy="736" r="4" fill="white" stroke="black" />
<text x="5050" y="748" font-family="Verdana" font-size="8" text-anchor="middle"  dominant-baseline="middle" fill="black" > 721</text>
<circle cx="5150" cy="214" r="4" fill="white" stroke="black" />
<line x1="5150" y1="218" x2="5150" y2="216" stroke="black" />
<line x1="5125" y1="216" x2="5175" y2="216" stroke="black" />
<text x="5162" y="208" font-family="Verdana" font-size="8" text-anchor="middle"  dominant-baseline="middle" fill="black" > 201</text>
<circle cx="5125" cy="216" r="4" fill="white" stroke="black" />
<circle cx="5175" cy="216" r="4" fill="white" stroke="black" />
<line x1="5125" y1="220" x2="5125" y2="277" stroke="black" />
<line x1="5125" y1="277" x2="5150" y2="297" stroke="black" />
<line x1="5175" y1="220" x2="5175" y2="277" stroke="black" />
<line x1="5175" y1="277" x2="5150" y2="297" stroke="black" />
<text x="5150" y="285" font-family="Verdana" font-size="8" text-anchor="middle"  dominant-baseline="middle" fill="black" > 282</text>
<circle cx="5150" cy="297" r="4" fill="white" stroke="black" />
<line x1="5150" y1="301" x2="5150" y2="591" stroke="black" />
<line x1="5146" y1="587" x2="5154" y2="595" stroke="red" />
<line x1="5146" y1="595" x2="5154" y2="587" stroke="red" />
<text x="5150" y="603" font-family="Verdana" font-size="8" text-anchor="middle"  dominant-baseline="middle" fill="black" > 576</text>
<text x="5300" y="7" font-family="Verdana" font-size="7" text-anchor="middle"  dominant-baseline="middle" fill="black" > C25</text>
<circle cx="5300" cy="15" r="4" fill="white" stroke="black" />
<line x1="5300" y1="19" x2="5300" y2="229" stroke="black" />
<line x1="5250" y1="229" x2="5350" y2="229" stroke="black" />
<text x="5325" y="221" font-family="Verdana" font-size="8" text-anchor="middle"  dominant-baseline="middle" fill="black" > 214</text>
<circle cx="5250" cy="229" r="4" fill="white" stroke="black" />
<circle cx="5350" cy="229" r="4" fill="white" stroke="black" />
<line x1="5250" y1="233" x2="5250" y2="478" stroke="black" />
<line x1="5250" y1="478" x2="5300" y2="560" stroke="black" />
<line x1="5350" y1="233" x2="5350" y2="478" stroke="black" />
<line x1="5350" y1="478" x2="5300" y2="560" stroke="black" />
<text x="5300" y="548" font-family="Verdana" font-size="8" text-anchor="middle"  dominant-baseline="middle" fill="black" > 545</text>
<circle cx="5300" cy="560" r="4" fill="white" stroke="black" />
<line x1="5300" y1="564" x2="5300" y2="736" stroke="black" />
<circle cx="5300" cy="736" r="4" fill="white" stroke="black" />
<text x="5300" y="748" font-family="Verdana" font-size="8" text-anchor="middle"  dominant-baseline="middle" fill="black" > 721</text>
<text x="5450" y="7" font-family="Verdana" font-size="7" text-anchor="middle"  dominant-baseline="middle" fill="black" > C26</text>
<circle cx="5450" cy="15" r="4" fill="white" stroke="black" />
<line x1="5450" y1="19" x2="5450" y2="333" stroke="black" />
<line x1="5446" y1="337" x2="5450" y2="329" stroke="blue" />
<line x1="5450" y1="337" x2="5454" y2="329" stroke="blue" />
<text x="5450" y="345" font-family="Verdana" font-size="8" text-anchor="middle"  dominant-baseline="middle" fill="black" > 318</text>
<text x="5550" y="7" font-family="Verdana" font-size="7" text-anchor="middle"  dominant-baseline="middle" fill="black" > C27</text>
<circle cx="5550" cy="15" r="4" fill="white" stroke="black" />
<line x1="5550" y1="19" x2="5550" y2="512" stroke="black" />
<line x1="5546" y1="516" x2="5550" y2="508" stroke="blue" />
<line x1="5550" y1="516" x2="5554" y2="508" stroke="blue" />
<text x="5550" y="524" font-family="Verdana" font-size="8" text-anchor="middle"  dominant-baseline="middle" fill="black" > 497</text>
<text x="5750" y="7" font-family="Verdana" font-size="7" text-anchor="middle"  dominant-baseline="middle" fill="black" > C28</text>
<circle cx="5750" cy="15" r="4" fill="white" stroke="black" />
<line x1="5750" y1="19" x2="5750" y2="308" stroke="black" />
<line x1="5650" y1="308" x2="5850" y2="308" stroke="black" />
<text x="5775" y="300" font-family="Verdana" font-size="8" text-anchor="middle"  dominant-baseline="middle" fill="black" > 293</text>
<circle cx="5650" cy="308" r="4" fill="white" stroke="black" />
<circle cx="5750" cy="308" r="4" fill="white" stroke="black" />
<circle cx="5850" cy="308" r="4" fill="white" stroke="black" />
<line x1="5650" y1="312" x2="5650" y2="325" stroke="black" />
<line x1="5650" y1="325" x2="5750" y2="330" stroke="black" />
<line x1="5750" y1="312" x2="5750" y2="325" stroke="black" />
<line x1="5750" y1="325" x2="5750" y2="330" stroke="black" />
<line x1="5850" y1="312" x2="5850" y2="325" stroke="black" />
<line x1="5850" y1="325" x2="5750" y2="330" stroke="black" />
<text x="5750" y="318" font-family="Verdana" font-size="8" text-anchor="middle"  dominant-baseline="middle" fill="black" > 315</text>
<circle cx="5750" cy="330" r="4" fill="white" stroke="black" />
<line x1="5750" y1="334" x2="5750" y2="493" stroke="black" />
<line x1="5746" y1="489" x2="5754" y2="497" stroke="red" />
<line x1="5746" y1="497" x2="5754" y2="489" stroke="red" />
<text x="5750" y="505" font-family="Verdana" font-size="8" text-anchor="middle"  dominant-baseline="middle" fill="black" > 478</text>
<text x="5950" y="7" font-family="Verdana" font-size="7" text-anchor="middle"  dominant-baseline="middle" fill="black" > C29</text>
<circle cx="5950" cy="15" r="4" fill="white" stroke="black" />
<line x1="5950" y1="19" x2="5950" y2="297" stroke="black" />
<line x1="5946" y1="301" x2="5950" y2="293" stroke="blue" />
<line x1="5950" y1="301" x2="5954" y2="293" stroke="blue" />
<text x="5950" y="309" font-family="Verdana" font-size="8" text-anchor="middle"  dominant-baseline="middle" fill="black" > 282</text>
<text x="6100" y="7" font-family="Verdana" font-size="7" text-anchor="middle"  dominant-baseline="middle" fill="black" > C30</text>
<circle cx="6100" cy="15" r="4" fill="white" stroke="black" />
<line x1="6100" y1="19" x2="6100" y2="276" stroke="black" />
<line x1="6050" y1="276" x2="6150" y2="276" stroke="black" />
<text x="6125" y="268" font-family="Verdana" font-size="8" text-anchor="middle"  dominant-baseline="middle" fill="black" > 261</text>
<circle cx="6050" cy="276" r="4" fill="white" stroke="black" />
<line x1="6050" y1="280" x2="6050" y2="481" stroke="black" />
<line x1="6016" y1="481" x2="6084" y2="481" stroke="black" />
<text x="6058" y="473" font-family="Verdana" font-size="8" text-anchor="middle"  dominant-baseline="middle" fill="black" > 466</text>
<circle cx="6016" cy="481" r="4" fill="white" stroke="black" />
<line x1="6016" y1="485" x2="6016" y2="539" stroke="black" />
<line x1="6012" y1="535" x2="6020" y2="543" stroke="red" />
<line x1="6012" y1="543" x2="6020" y2="535" stroke="red" />
<text x="6016" y="551" font-family="Verdana" font-size="8" text-anchor="middle"  dominant-baseline="middle" fill="black" > 524</text>
<circle cx="6049" cy="481" r="4" fill="white" stroke="black" />
<circle cx="6082" cy="481" r="4" fill="white" stroke="black" />
<line x1="6049" y1="485" x2="6049" y2="489" stroke="black" />
<line x1="6049" y1="489" x2="6065" y2="491" stroke="black" />
<line x1="6082" y1="485" x2="6082" y2="489" stroke="black" />
<line x1="6082" y1="489" x2="6065" y2="491" stroke="black" />
<text x="6065" y="479" font-family="Verdana" font-size="8" text-anchor="middle"  dominant-baseline="middle" fill="black" > 476</text>
<circle cx="6065" cy="491" r="4" fill="white" stroke="black" />
<line x1="6065" y1="495" x2="6065" y2="539" stroke="black" />
<line x1="6061" y1="535" x2="6069" y2="543" stroke="red" />
<line x1="6061" y1="543" x2="6069" y2="535" stroke="red" />
<text x="6065" y="551" font-family="Verdana" font-size="8" text-anchor="middle"  dominant-baseline="middle" fill="black" > 524</text>
<circle cx="6150" cy="276" r="4" fill="white" stroke="black" />
<line x1="6150" y1="280" x2="6150" y2="438" stroke="black" />
<line x1="6125" y1="438" x2="6175" y2="438" stroke="black" />
<text x="6162" y="430" font-family="Verdana" font-size="8" text-anchor="middle"  dominant-baseline="middle" fill="black" > 423</text>
<circle cx="6125" cy="438" r="4" fill="white" stroke="black" />
<circle cx="6175" cy="438" r="4" fill="white" stroke="black" />
<line x1="6125" y1="442" x2="6125" y2="456" stroke="black" />
<line x1="6125" y1="456" x2="6150" y2="462" stroke="black" />
<line x1="6175" y1="442" x2="6175" y2="456" stroke="black" />
<line x1="6175" y1="456" x2="6150" y2="462" stroke="black" />
<text x="6150" y="450" font-family="Verdana" font-size="8" text-anchor="middle"  dominant-baseline="middle" fill="black" > 447</text>
<circle cx="6150" cy="462" r="4" fill="white" stroke="black" />
<line x1="6150" y1="466" x2="6150" y2="580" stroke="black" />
<line x1="6146" y1="576" x2="6154" y2="584" stroke="red" />
<line x1="6146" y1="584" x2="6154" y2="576" stroke="red" />
<text x="6150" y="592" font-family="Verdana" font-size="8" text-anchor="middle"  dominant-baseline="middle" fill="black" > 565</text>
</svg>
