<?xml version="1.0" encoding="utf-8"?>
<svg xmlns="http://www.w3.org/2000/svg" version="1.1" width="5950" height="750">
<rect width="5950" height="15" x="0" y="0" fill="white" />
<rect width="5950" height="15" x="0" y="735" fill="white" />
<rect width="25" height="750" x="0" y="0" fill="white" />
<rect width="25" height="750" x="5925" y="0" fill="white" />
<rect width="5910" height="144" x="25" y="15" fill="ghostwhite" />
<rect width="5910" height="144" x="25" y="159" fill="snow" />
<rect width="5910" height="144" x="25" y="303" fill="ghostwhite" />
<rect width="5910" height="144" x="25" y="447" fill="snow" />
<rect width="5910" height="144" x="25" y="591" fill="ghostwhite" />
<text x="12" y="87" font-family="Verdana" font-size="10" text-anchor="middle"  dominant-baseline="middle" fill="red" > D0</text>
<text x="12" y="231" font-family="Verdana" font-size="10" text-anchor="middle"  dominant-baseline="middle" fill="red" > D1</text>
<text x="12" y="375" font-family="Verdana" font-size="10" text-anchor="middle"  dominant-baseline="middle" fill="red" > D2</text>
<text x="12" y="519" font-family="Verdana" font-size="10" text-anchor="middle"  dominant-baseline="middle" fill="red" > D3</text>
<text x="12" y="663" font-family="Verdana" font-size="10" text-anchor="middle"  dominant-baseline="middle" fill="red" > D4</text>
<text x="12" y="20" font-family="Verdana" font-size="10" text-anchor="middle"  dominant-baseline="middle" fill="black" > 0</text>
<text x="12" y="164" font-family="Verdana" font-size="10" text-anchor="middle"  dominant-baseline="middle" fill="black" > 144</text>
<text x="12" y="308" font-family="Verdana" font-size="10" text-anchor="middle"  dominant-baseline="middle" fill="black" > 288</text>
<text x="12" y="452" font-family="Verdana" font-size="10" text-anchor="middle"  dominant-baseline="middle" fill="black" > 432</text>
<text x="12" y="596" font-family="Verdana" font-size="10" text-anchor="middle"  dominant-baseline="middle" fill="black" > 576</text>
<text x="12" y="740" font-family="Verdana" font-size="10" text-anchor="middle"  dominant-baseline="middle" fill="black" > 720</text>
<text x="100" y="7" font-family="Verdana" font-size="7" text-anchor="middle"  dominant-baseline="middle" fill="black" > C1</text>
<circle cx="100" cy="15" r="4" fill="white" stroke="black" />
<line x1="100" y1="19" x2="100" y2="256" stroke="black" />
<line x1="50" y1="256" x2="150" y2="256" stroke="black" />
<text x="125" y="248" font-family="Verdana" font-size="8" text-anchor="middle"  dominant-baseline="middle" fill="black" > 241</text>
<circle cx="50" cy="256" r="4" fill="white" stroke="black" />
<line x1="50" y1="260" x2="50" y2="483" stroke="black" />
<line x1="46" y1="487" x2="50" y2="479" stroke="blue" />
<line x1="50" y1="487" x2="54" y2="479" stroke="blue" />
<text x="50" y="495" font-family="Verdana" font-size="8" text-anchor="middle"  dominant-baseline="middle" fill="black" > 468</text>
<circle cx="150" cy="256" r="4" fill="white" stroke="black" />
<line x1="150" y1="260" x2="150" y2="378" stroke="black" />
<line x1="125" y1="378" x2="175" y2="378" stroke="black" />
<text x="162" y="370" font-family="Verdana" font-size="8" text-anchor="middle"  dominant-baseline="middle" fill="black" > 363</text>
<circle cx="125" cy="378" r="4" fill="white" stroke="black" />
<circle cx="175" cy="378" r="4" fill="white" stroke="black" />
<line x1="125" y1="382" x2="125" y2="414" stroke="black" />
<line x1="125" y1="414" x2="150" y2="425" stroke="black" />
<line x1="175" y1="382" x2="175" y2="414" stroke="black" />
<line x1="175" y1="414" x2="150" y2="425" stroke="black" />
<text x="150" y="413" font-family="Verdana" font-size="8" text-anchor="middle"  dominant-baseline="middle" fill="black" > 410</text>
<circle cx="150" cy="425" r="4" fill="white" stroke="black" />
<line x1="150" y1="429" x2="150" y2="583" stroke="black" />
<line x1="133" y1="583" x2="167" y2="583" stroke="black" />
<text x="154" y="575" font-family="Verdana" font-size="8" text-anchor="middle"  dominant-baseline="middle" fill="black" > 568</text>
<circle cx="133" cy="583" r="4" fill="white" stroke="black" />
<circle cx="149" cy="583" r="4" fill="white" stroke="black" />
<circle cx="165" cy="583" r="4" fill="white" stroke="black" />
<line x1="133" y1="587" x2="133" y2="603" stroke="black" />
<line x1="133" y1="603" x2="149" y2="609" stroke="black" />
<line x1="149" y1="587" x2="149" y2="603" stroke="black" />
<line x1="149" y1="603" x2="149" y2="609" stroke="black" />
<line x1="165" y1="587" x2="165" y2="603" stroke="black" />
<line x1="165" y1="603" x2="149" y2="609" stroke="black" />
<text x="149" y="597" font-family="Verdana" font-size="8" text-anchor="middle"  dominant-baseline="middle" fill="black" > 594</text>
<circle cx="149" cy="609" r="4" fill="white" stroke="black" />
<line x1="149" y1="613" x2="149" y2="658" stroke="black" />
<line x1="145" y1="654" x2="153" y2="662" stroke="red" />
<line x1="145" y1="662" x2="153" y2="654" stroke="red" />
<text x="149" y="670" font-family="Verdana" font-size="8" text-anchor="middle"  dominant-baseline="middle" fill="black" > 643</text>
<text x="300" y="7" font-family="Verdana" font-size="7" text-anchor="middle"  dominant-baseline="middle" fill="black" > C2</text>
<circle cx="300" cy="15" r="4" fill="white" stroke="black" />
<line x1="300" y1="19" x2="300" y2="259" stroke="black" />
<line x1="250" y1="259" x2="350" y2="259" stroke="black" />
<text x="325" y="251" font-family="Verdana" font-size="8" text-anchor="middle"  dominant-baseline="middle" fill="black" > 244</text>
<circle cx="250" cy="259" r="4" fill="white" stroke="black" />
<circle cx="350" cy="259" r="4" fill="white" stroke="black" />
<line x1="250" y1="263" x2="250" y2="537" stroke="black" />
<line x1="250" y1="537" x2="300" y2="629" stroke="black" />
<line x1="350" y1="263" x2="350" y2="537" stroke="black" />
<line x1="350" y1="537" x2="300" y2="629" stroke="black" />
<text x="300" y="617" font-family="Verdana" font-size="8" text-anchor="middle"  dominant-baseline="middle" fill="black" > 614</text>
<circle cx="300" cy="629" r="4" fill="white" stroke="black" />
<line x1="300" y1="633" x2="300" y2="736" stroke="black" />
<circle cx="300" cy="736" r="4" fill="white" stroke="black" />
<text x="300" y="748" font-family="Verdana" font-size="8" text-anchor="middle"  dominant-baseline="middle" fill="black" > 721</text>
<text x="600" y="7" font-family="Verdana" font-size="7" text-anchor="middle"  dominant-baseline="middle" fill="black" > C3</text>
<circle cx="600" cy="15" r="4" fill="white" stroke="black" />
<line x1="600" y1="19" x2="600" y2="441" stroke="black" />
<line x1="450" y1="441" x2="750" y2="441" stroke="black" />
<text x="625" y="433" font-family="Verdana" font-size="8" text-anchor="middle"  dominant-baseline="middle" fill="black" > 426</text>
<circle cx="450" cy="441" r="4" fill="white" stroke="black" />
<line x1="450" y1="445" x2="450" y2="465" stroke="black" />
<line x1="446" y1="461" x2="454" y2="469" stroke="red" />
<line x1="446" y1="469" x2="454" y2="461" stroke="red" />
<text x="450" y="477" font-family="Verdana" font-size="8" text-anchor="middle"  dominant-baseline="middle" fill="black" > 450</text>
<circle cx="550" cy="441" r="4" fill="white" stroke="black" />
<line x1="550" y1="445" x2="550" y2="466" stroke="black" />
<line x1="546" y1="462" x2="554" y2="470" stroke="red" />
<line x1="546" y1="470" x2="554" y2="462" stroke="red" />
<text x="550" y="478" font-family="Verdana" font-size="8" text-anchor="middle"  dominant-baseline="middle" fill="black" > 451</text>
<circle cx="650" cy="441" r="4" fill="white" stroke="black" />
<circle cx="750" cy="441" r="4" fill="white" stroke="black" />
<line x1="650" y1="445" x2="650" y2="450" stroke="black" />
<line x1="650" y1="450" x2="700" y2="453" stroke="black" />
<line x1="750" y1="445" x2="750" y2="450" stroke="black" />
<line x1="750" y1="450" x2="700" y2="453" stroke="black" />
<text x="700" y="441" font-family="Verdana" font-size="8" text-anchor="middle"  dominant-baseline="middle" fill="black" > 438</text>
<circle cx="700" cy="453" r="4" fill="white" stroke="black" />
<line x1="700" y1="457" x2="700" y2="460" stroke="black" />
<line x1="696" y1="456" x2="704" y2="464" stroke="red" />
<line x1="696" y1="464" x2="704" y2="456" stroke="red" />
<text x="700" y="472" font-family="Verdana" font-size="8" text-anchor="middle"  dominant-baseline="middle" fill="black" > 445</text>
<text x="850" y="7" font-family="Verdana" font-size="7" text-anchor="middle"  dominant-baseline="middle" fill="black" > C4</text>
<circle cx="850" cy="15" r="4" fill="white" stroke="black" />
<line x1="850" y1="19" x2="850" y2="427" stroke="black" />
<line x1="846" y1="423" x2="854" y2="431" stroke="red" />
<line x1="846" y1="431" x2="854" y2="423" stroke="red" />
<text x="850" y="439" font-family="Verdana" font-size="8" text-anchor="middle"  dominant-baseline="middle" fill="black" > 412</text>
<text x="1000" y="7" font-family="Verdana" font-size="7" text-anchor="middle"  dominant-baseline="middle" fill="black" > C5</text>
<circle cx="1000" cy="15" r="4" fill="white" stroke="black" />
<line x1="1000" y1="19" x2="1000" y2="215" stroke="black" />
<line x1="950" y1="215" x2="1050" y2="215" stroke="black" />
<text x="1025" y="207" font-family="Verdana" font-size="8" text-anchor="middle"  dominant-baseline="middle" fill="black" > 200</text>
<circle cx="950" cy="215" r="4" fill="white" stroke="black" />
<line x1="950" y1="219" x2="950" y2="487" stroke="black" />
<line x1="946" y1="491" x2="950" y2="483" stroke="blue" />
<line x1="950" y1="491" x2="954" y2="483" stroke="blue" />
<text x="950" y="499" font-family="Verdana" font-size="8" text-anchor="middle"  dominant-baseline="middle" fill="black" > 472</text>
<circle cx="1050" cy="215" r="4" fill="white" stroke="black" />
<line x1="1050" y1="219" x2="1050" y2="589" stroke="black" />
<line x1="1046" y1="585" x2="1054" y2="593" stroke="red" />
<line x1="1046" y1="593" x2="1054" y2="585" stroke="red" />
<text x="1050" y="601" font-family="Verdana" font-size="8" text-anchor="middle"  dominant-baseline="middle" fill="black" > 574</text>
<text x="1200" y="7" font-family="Verdana" font-size="7" text-anchor="middle"  dominant-baseline="middle" fill="black" > C6</text>
<circle cx="1200" cy="15" r="4" fill="white" stroke="black" />
<line x1="1200" y1="19" x2="1200" y2="458" stroke="black" />
<line x1="1150" y1="458" x2="1250" y2="458" stroke="black" />
<text x="1225" y="450" font-family="Verdana" font-size="8" text-anchor="middle"  dominant-baseline="middle" fill="black" > 443</text>
<circle cx="1150" cy="458" r="4" fill="white" stroke="black" />
<line x1="1150" y1="462" x2="1150" y2="548" stroke="black" />
<line x1="1146" y1="544" x2="1154" y2="552" stroke="red" />
<line x1="1146" y1="552" x2="1154" y2="544" stroke="red" />
<text x="1150" y="560" font-family="Verdana" font-size="8" text-anchor="middle"  dominant-baseline="middle" fill="black" > 533</text>
<circle cx="1250" cy="458" r="4" fill="white" stroke="black" />
<line x1="1250" y1="462" x2="1250" y2="542" stroke="black" />
<line x1="1246" y1="538" x2="1254" y2="546" stroke="red" />
<line x1="1246" y1="546" x2="1254" y2="538" stroke="red" />
<text x="1250" y="554" font-family="Verdana" font-size="8" text-anchor="middle"  dominant-baseline="middle" fill="black" > 527</text>
<text x="1400" y="7" font-family="Verdana" font-size="7" text-anchor="middle"  dominant-baseline="middle" fill="black" > C7</text>
<circle cx="1400" cy="15" r="4" fill="white" stroke="black" />
<line x1="1400" y1="19" x2="1400" y2="563" stroke="black" />
<line x1="1350" y1="563" x2="1450" y2="563" stroke="black" />
<text x="1425" y="555" font-family="Verdana" font-size="8" text-anchor="middle"  dominant-baseline="middle" fill="black" > 548</text>
<circle cx="1350" cy="563" r="4" fill="white" stroke="black" />
<circle cx="1450" cy="563" r="4" fill="white" stroke="black" />
<line x1="1350" y1="567" x2="1350" y2="647" stroke="black" />
<line x1="1350" y1="647" x2="1400" y2="675" stroke="black" />
<line x1="1450" y1="567" x2="1450" y2="647" stroke="black" />
<line x1="1450" y1="647" x2="1400" y2="675" stroke="black" />
<text x="1400" y="663" font-family="Verdana" font-size="8" text-anchor="middle"  dominant-baseline="middle" fill="black" > 660</text>
<circle cx="1400" cy="675" r="4" fill="white" stroke="black" />
<line x1="1400" y1="679" x2="1400" y2="736" stroke="black" />
<circle cx="1400" cy="736" r="4" fill="white" stroke="black" />
<text x="1400" y="748" font-family="Verdana" font-size="8" text-anchor="middle"  dominant-baseline="middle" fill="black" > 721</text>
<text x="1550" y="7" font-family="Verdana" font-size="7" text-anchor="middle"  dominant-baseline="middle" fill="black" > C8</text>
<circle cx="1550" cy="15" r="4" fill="white" stroke="black" />
<line x1="1550" y1="19" x2="1550" y2="196" stroke="black" />
<line x1="1546" y1="192" x2="1554" y2="200" stroke="red" />
<line x1="1546" y1="200" x2="1554" y2="192" stroke="red" />
<text x="1550" y="208" font-family="Verdana" font-size="8" text-anchor="middle"  dominant-baseline="middle" fill="black" > 181</text>
<text x="1800" y="7" font-family="Verdana" font-size="7" text-anchor="middle"  dominant-baseline="middle" fill="black" > C9</text>
<circle cx="1800" cy="15" r="4" fill="white" stroke="black" />
<line x1="1800" y1="19" x2="1800" y2="315" stroke="black" />
<line x1="1650" y1="315" x2="1950" y2="315" stroke="black" />
<text x="1825" y="307" font-family="Verdana" font-size="8" text-anchor="middle"  dominant-baseline="middle" fill="black" > 300</text>
<circle cx="1650" cy="315" r="4" fill="white" stroke="black" />
<circle cx="1750" cy="315" r="4" fill="white" stroke="black" />
<line x1="1650" y1="319" x2="1650" y2="321" stroke="black" />
<line x1="1650" y1="321" x2="1700" y2="322" stroke="black" />
<line x1="1750" y1="319" x2="1750" y2="321" stroke="black" />
<line x1="1750" y1="321" x2="1700" y2="322" stroke="black" />
<text x="1700" y="310" font-family="Verdana" font-size="8" text-anchor="middle"  dominant-baseline="middle" fill="black" > 307</text>
<circle cx="1700" cy="322" r="4" fill="white" stroke="black" />
<circle cx="1850" cy="315" r="4" fill="white" stroke="black" />
<line x1="1700" y1="326" x2="1700" y2="361" stroke="black" />
<line x1="1700" y1="361" x2="1775" y2="374" stroke="black" />
<line x1="1850" y1="319" x2="1850" y2="361" stroke="black" />
<line x1="1850" y1="361" x2="1775" y2="374" stroke="black" />
<text x="1775" y="362" font-family="Verdana" font-size="8" text-anchor="middle"  dominant-baseline="middle" fill="black" > 359</text>
<circle cx="1775" cy="374" r="4" fill="white" stroke="black" />
<line x1="1775" y1="378" x2="1775" y2="516" stroke="black" />
<line x1="1725" y1="516" x2="1825" y2="516" stroke="black" />
<text x="1787" y="508" font-family="Verdana" font-size="8" text-anchor="middle"  dominant-baseline="middle" fill="black" > 501</text>
<circle cx="1725" cy="516" r="4" fill="white" stroke="black" />
<circle cx="1775" cy="516" r="4" fill="white" stroke="black" />
<circle cx="1825" cy="516" r="4" fill="white" stroke="black" />
<line x1="1725" y1="520" x2="1725" y2="540" stroke="black" />
<line x1="1725" y1="540" x2="1775" y2="547" stroke="black" />
<line x1="1775" y1="520" x2="1775" y2="540" stroke="black" />
<line x1="1775" y1="540" x2="1775" y2="547" stroke="black" />
<line x1="1825" y1="520" x2="1825" y2="540" stroke="black" />
<line x1="1825" y1="540" x2="1775" y2="547" stroke="black" />
<text x="1775" y="535" font-family="Verdana" font-size="8" text-anchor="middle"  dominant-baseline="middle" fill="black" > 532</text>
<circle cx="1775" cy="547" r="4" fill="white" stroke="black" />
<line x1="1775" y1="551" x2="1775" y2="551" stroke="black" />
<line x1="1771" y1="547" x2="1779" y2="555" stroke="red" />
<line x1="1771" y1="555" x2="1779" y2="547" stroke="red" />
<text x="1775" y="563" font-family="Verdana" font-size="8" text-anchor="middle"  dominant-baseline="middle" fill="black" > 536</text>
<circle cx="1950" cy="315" r="4" fill="white" stroke="black" />
<line x1="1950" y1="319" x2="1950" y2="471" stroke="black" />
<line x1="1946" y1="467" x2="1954" y2="475" stroke="red" />
<line x1="1946" y1="475" x2="1954" y2="467" stroke="red" />
<text x="1950" y="483" font-family="Verdana" font-size="8" text-anchor="middle"  dominant-baseline="middle" fill="black" > 456</text>
<text x="2200" y="7" font-family="Verdana" font-size="7" text-anchor="middle"  dominant-baseline="middle" fill="black" > C10</text>
<circle cx="2200" cy="15" r="4" fill="white" stroke="black" />
<line x1="2200" y1="19" x2="2200" y2="334" stroke="black" />
<line x1="2050" y1="334" x2="2350" y2="334" stroke="black" />
<text x="2225" y="326" font-family="Verdana" font-size="8" text-anchor="middle"  dominant-baseline="middle" fill="black" > 319</text>
<circle cx="2050" cy="334" r="4" fill="white" stroke="black" />
<line x1="2050" y1="338" x2="2050" y2="338" stroke="black" />
<line x1="2046" y1="342" x2="2050" y2="334" stroke="blue" />
<line x1="2050" y1="342" x2="2054" y2="334" stroke="blue" />
<text x="2050" y="350" font-family="Verdana" font-size="8" text-anchor="middle"  dominant-baseline="middle" fill="black" > 323</text>
<circle cx="2150" cy="334" r="4" fill="white" stroke="black" />
<line x1="2150" y1="338" x2="2150" y2="338" stroke="black" />
<line x1="2146" y1="342" x2="2150" y2="334" stroke="blue" />
<line x1="2150" y1="342" x2="2154" y2="334" stroke="blue" />
<text x="2150" y="350" font-family="Verdana" font-size="8" text-anchor="middle"  dominant-baseline="middle" fill="black" > 323</text>
<circle cx="2250" cy="334" r="4" fill="white" stroke="black" />
<line x1="2250" y1="338" x2="2250" y2="338" stroke="black" />
<line x1="2246" y1="342" x2="2250" y2="334" stroke="blue" />
<line x1="2250" y1="342" x2="2254" y2="334" stroke="blue" />
<text x="2250" y="350" font-family="Verdana" font-size="8" text-anchor="middle"  dominant-baseline="middle" fill="black" > 323</text>
<circle cx="2350" cy="334" r="4" fill="white" stroke="black" />
<line x1="2350" y1="338" x2="2350" y2="338" stroke="black" />
<line x1="2346" y1="342" x2="2350" y2="334" stroke="blue" />
<line x1="2350" y1="342" x2="2354" y2="334" stroke="blue" />
<text x="2350" y="350" font-family="Verdana" font-size="8" text-anchor="middle"  dominant-baseline="middle" fill="black" > 323</text>
<text x="2500" y="7" font-family="Verdana" font-size="7" text-anchor="middle"  dominant-baseline="middle" fill="black" > C11</text>
<circle cx="2500" cy="15" r="4" fill="white" stroke="black" />
<line x1="2500" y1="19" x2="2500" y2="221" stroke="black" />
<line x1="2450" y1="221" x2="2550" y2="221" stroke="black" />
<text x="2525" y="213" font-family="Verdana" font-size="8" text-anchor="middle"  dominant-baseline="middle" fill="black" > 206</text>
<circle cx="2450" cy="221" r="4" fill="white" stroke="black" />
<circle cx="2550" cy="221" r="4" fill="white" stroke="black" />
<line x1="2450" y1="225" x2="2450" y2="279" stroke="black" />
<line x1="2450" y1="279" x2="2500" y2="298" stroke="black" />
<line x1="2550" y1="225" x2="2550" y2="279" stroke="black" />
<line x1="2550" y1="279" x2="2500" y2="298" stroke="black" />
<text x="2500" y="286" font-family="Verdana" font-size="8" text-anchor="middle"  dominant-baseline="middle" fill="black" > 283</text>
<circle cx="2500" cy="298" r="4" fill="white" stroke="black" />
<line x1="2500" y1="302" x2="2500" y2="567" stroke="black" />
<line x1="2496" y1="563" x2="2504" y2="571" stroke="red" />
<line x1="2496" y1="571" x2="2504" y2="563" stroke="red" />
<text x="2500" y="579" font-family="Verdana" font-size="8" text-anchor="middle"  dominant-baseline="middle" fill="black" > 552</text>
<text x="2700" y="7" font-family="Verdana" font-size="7" text-anchor="middle"  dominant-baseline="middle" fill="black" > C12</text>
<circle cx="2700" cy="15" r="4" fill="white" stroke="black" />
<line x1="2700" y1="19" x2="2700" y2="216" stroke="black" />
<line x1="2650" y1="216" x2="2750" y2="216" stroke="black" />
<text x="2725" y="208" font-family="Verdana" font-size="8" text-anchor="middle"  dominant-baseline="middle" fill="black" > 201</text>
<circle cx="2650" cy="216" r="4" fill="white" stroke="black" />
<line x1="2650" y1="220" x2="2650" y2="736" stroke="black" />
<circle cx="2650" cy="736" r="4" fill="white" stroke="black" />
<text x="2650" y="748" font-family="Verdana" font-size="8" text-anchor="middle"  dominant-baseline="middle" fill="black" > 721</text>
<circle cx="2750" cy="216" r="4" fill="white" stroke="black" />
<line x1="2750" y1="220" x2="2750" y2="376" stroke="black" />
<line x1="2725" y1="376" x2="2775" y2="376" stroke="black" />
<text x="2762" y="368" font-family="Verdana" font-size="8" text-anchor="middle"  dominant-baseline="middle" fill="black" > 361</text>
<circle cx="2725" cy="376" r="4" fill="white" stroke="black" />
<line x1="2725" y1="380" x2="2725" y2="554" stroke="black" />
<line x1="2712" y1="554" x2="2738" y2="554" stroke="black" />
<text x="2731" y="546" font-family="Verdana" font-size="8" text-anchor="middle"  dominant-baseline="middle" fill="black" > 539</text>
<circle cx="2712" cy="554" r="4" fill="white" stroke="black" />
<line x1="2712" y1="558" x2="2712" y2="736" stroke="black" />
<circle cx="2712" cy="736" r="4" fill="white" stroke="black" />
<text x="2712" y="748" font-family="Verdana" font-size="8" text-anchor="middle"  dominant-baseline="middle" fill="black" > 721</text>
<circle cx="2737" cy="554" r="4" fill="white" stroke="black" />
<line x1="2737" y1="558" x2="2737" y2="736" stroke="black" />
<circle cx="2737" cy="736" r="4" fill="white" stroke="black" />
<text x="2737" y="748" font-family="Verdana" font-size="8" text-anchor="middle"  dominant-baseline="middle" fill="black" > 721</text>
<circle cx="2775" cy="376" r="4" fill="white" stroke="black" />
<line x1="2775" y1="380" x2="2775" y2="379" stroke="black" />
<line x1="2756" y1="379" x2="2794" y2="379" stroke="black" />
<text x="2778" y="371" font-family="Verdana" font-size="8" text-anchor="middle"  dominant-baseline="middle" fill="black" > 364</text>
<circle cx="2756" cy="379" r="4" fill="white" stroke="black" />
<circle cx="2768" cy="379" r="4" fill="white" stroke="black" />
<line x1="2756" y1="383" x2="2756" y2="556" stroke="black" />
<line x1="2756" y1="556" x2="2762" y2="614" stroke="black" />
<line x1="2768" y1="383" x2="2768" y2="556" stroke="black" />
<line x1="2768" y1="556" x2="2762" y2="614" stroke="black" />
<text x="2762" y="602" font-family="Verdana" font-size="8" text-anchor="middle"  dominant-baseline="middle" fill="black" > 599</text>
<circle cx="2762" cy="614" r="4" fill="white" stroke="black" />
<line x1="2762" y1="618" x2="2762" y2="692" stroke="black" />
<line x1="2758" y1="688" x2="2766" y2="696" stroke="red" />
<line x1="2758" y1="696" x2="2766" y2="688" stroke="red" />
<text x="2762" y="704" font-family="Verdana" font-size="8" text-anchor="middle"  dominant-baseline="middle" fill="black" > 677</text>
<circle cx="2780" cy="379" r="4" fill="white" stroke="black" />
<line x1="2780" y1="383" x2="2780" y2="736" stroke="black" />
<circle cx="2780" cy="736" r="4" fill="white" stroke="black" />
<text x="2780" y="748" font-family="Verdana" font-size="8" text-anchor="middle"  dominant-baseline="middle" fill="black" > 721</text>
<circle cx="2792" cy="379" r="4" fill="white" stroke="black" />
<line x1="2792" y1="383" x2="2792" y2="736" stroke="black" />
<circle cx="2792" cy="736" r="4" fill="white" stroke="black" />
<text x="2792" y="748" font-family="Verdana" font-size="8" text-anchor="middle"  dominant-baseline="middle" fill="black" > 721</text>
<text x="2900" y="7" font-family="Verdana" font-size="7" text-anchor="middle"  dominant-baseline="middle" fill="black" > C13</text>
<circle cx="2900" cy="15" r="4" fill="white" stroke="black" />
<line x1="2900" y1="19" x2="2900" y2="256" stroke="black" />
<line x1="2850" y1="256" x2="2950" y2="256" stroke="black" />
<text x="2925" y="248" font-family="Verdana" font-size="8" text-anchor="middle"  dominant-baseline="middle" fill="black" > 241</text>
<circle cx="2850" cy="256" r="4" fill="white" stroke="black" />
<line x1="2850" y1="260" x2="2850" y2="516" stroke="black" />
<line x1="2846" y1="512" x2="2854" y2="520" stroke="red" />
<line x1="2846" y1="520" x2="2854" y2="512" stroke="red" />
<text x="2850" y="528" font-family="Verdana" font-size="8" text-anchor="middle"  dominant-baseline="middle" fill="black" > 501</text>
<circle cx="2950" cy="256" r="4" fill="white" stroke="black" />
<line x1="2950" y1="260" x2="2950" y2="451" stroke="black" />
<line x1="2925" y1="451" x2="2975" y2="451" stroke="black" />
<text x="2962" y="443" font-family="Verdana" font-size="8" text-anchor="middle"  dominant-baseline="middle" fill="black" > 436</text>
<circle cx="2925" cy="451" r="4" fill="white" stroke="black" />
<line x1="2925" y1="455" x2="2925" y2="529" stroke="black" />
<line x1="2921" y1="525" x2="2929" y2="533" stroke="red" />
<line x1="2921" y1="533" x2="2929" y2="525" stroke="red" />
<text x="2925" y="541" font-family="Verdana" font-size="8" text-anchor="middle"  dominant-baseline="middle" fill="black" > 514</text>
<circle cx="2975" cy="451" r="4" fill="white" stroke="black" />
<line x1="2975" y1="455" x2="2975" y2="557" stroke="black" />
<line x1="2971" y1="553" x2="2979" y2="561" stroke="red" />
<line x1="2971" y1="561" x2="2979" y2="553" stroke="red" />
<text x="2975" y="569" font-family="Verdana" font-size="8" text-anchor="middle"  dominant-baseline="middle" fill="black" > 542</text>
<text x="3200" y="7" font-family="Verdana" font-size="7" text-anchor="middle"  dominant-baseline="middle" fill="black" > C14</text>
<circle cx="3200" cy="15" r="4" fill="white" stroke="black" />
<line x1="3200" y1="19" x2="3200" y2="615" stroke="black" />
<line x1="3050" y1="615" x2="3350" y2="615" stroke="black" />
<text x="3225" y="607" font-family="Verdana" font-size="8" text-anchor="middle"  dominant-baseline="middle" fill="black" > 600</text>
<circle cx="3050" cy="615" r="4" fill="white" stroke="black" />
<circle cx="3150" cy="615" r="4" fill="white" stroke="black" />
<circle cx="3250" cy="615" r="4" fill="white" stroke="black" />
<circle cx="3350" cy="615" r="4" fill="white" stroke="black" />
<line x1="3050" y1="619" x2="3050" y2="633" stroke="black" />
<line x1="3050" y1="633" x2="3200" y2="638" stroke="black" />
<line x1="3150" y1="619" x2="3150" y2="633" stroke="black" />
<line x1="3150" y1="633" x2="3200" y2="638" stroke="black" />
<line x1="3250" y1="619" x2="3250" y2="633" stroke="black" />
<line x1="3250" y1="633" x2="3200" y2="638" stroke="black" />
<line x1="3350" y1="619" x2="3350" y2="633" stroke="black" />
<line x1="3350" y1="633" x2="3200" y2="638" stroke="black" />
<text x="3200" y="626" font-family="Verdana" font-size="8" text-anchor="middle"  dominant-baseline="middle" fill="black" > 623</text>
<circle cx="3200" cy="638" r="4" fill="white" stroke="black" />
<line x1="3200" y1="642" x2="3200" y2="658" stroke="black" />
<line x1="3196" y1="654" x2="3204" y2="662" stroke="red" />
<line x1="3196" y1="662" x2="3204" y2="654" stroke="red" />
<text x="3200" y="670" font-family="Verdana" font-size="8" text-anchor="middle"  dominant-baseline="middle" fill="black" > 643</text>
<text x="3650" y="7" font-family="Verdana" font-size="7" text-anchor="middle"  dominant-baseline="middle" fill="black" > C15</text>
<circle cx="3650" cy="15" r="4" fill="white" stroke="black" />
<line x1="3650" y1="19" x2="3650" y2="346" stroke="black" />
<line x1="3450" y1="346" x2="3850" y2="346" stroke="black" />
<text x="3675" y="338" font-family="Verdana" font-size="8" text-anchor="middle"  dominant-baseline="middle" fill="black" > 331</text>
<circle cx="3450" cy="346" r="4" fill="white" stroke="black" />
<line x1="3450" y1="350" x2="3450" y2="522" stroke="black" />
<line x1="3446" y1="518" x2="3454" y2="526" stroke="red" />
<line x1="3446" y1="526" x2="3454" y2="518" stroke="red" />
<text x="3450" y="534" font-family="Verdana" font-size="8" text-anchor="middle"  dominant-baseline="middle" fill="black" > 507</text>
<circle cx="3550" cy="346" r="4" fill="white" stroke="black" />
<circle cx="3650" cy="346" r="4" fill="white" stroke="black" />
<line x1="3550" y1="350" x2="3550" y2="358" stroke="black" />
<line x1="3550" y1="358" x2="3600" y2="361" stroke="black" />
<line x1="3650" y1="350" x2="3650" y2="358" stroke="black" />
<line x1="3650" y1="358" x2="3600" y2="361" stroke="black" />
<text x="3600" y="349" font-family="Verdana" font-size="8" text-anchor="middle"  dominant-baseline="middle" fill="black" > 346</text>
<circle cx="3600" cy="361" r="4" fill="white" stroke="black" />
<circle cx="3750" cy="346" r="4" fill="white" stroke="black" />
<line x1="3600" y1="365" x2="3600" y2="368" stroke="black" />
<line x1="3600" y1="368" x2="3675" y2="370" stroke="black" />
<line x1="3750" y1="350" x2="3750" y2="368" stroke="black" />
<line x1="3750" y1="368" x2="3675" y2="370" stroke="black" />
<text x="3675" y="358" font-family="Verdana" font-size="8" text-anchor="middle"  dominant-baseline="middle" fill="black" > 355</text>
<circle cx="3675" cy="370" r="4" fill="white" stroke="black" />
<circle cx="3850" cy="346" r="4" fill="white" stroke="black" />
<line x1="3675" y1="374" x2="3675" y2="379" stroke="black" />
<line x1="3675" y1="379" x2="3762" y2="381" stroke="black" />
<line x1="3850" y1="350" x2="3850" y2="379" stroke="black" />
<line x1="3850" y1="379" x2="3762" y2="381" stroke="black" />
<text x="3762" y="369" font-family="Verdana" font-size="8" text-anchor="middle"  dominant-baseline="middle" fill="black" > 366</text>
<circle cx="3762" cy="381" r="4" fill="white" stroke="black" />
<line x1="3762" y1="385" x2="3762" y2="600" stroke="black" />
<line x1="3758" y1="596" x2="3766" y2="604" stroke="red" />
<line x1="3758" y1="604" x2="3766" y2="596" stroke="red" />
<text x="3762" y="612" font-family="Verdana" font-size="8" text-anchor="middle"  dominant-baseline="middle" fill="black" > 585</text>
<text x="4050" y="7" font-family="Verdana" font-size="7" text-anchor="middle"  dominant-baseline="middle" fill="black" > C16</text>
<circle cx="4050" cy="15" r="4" fill="white" stroke="black" />
<line x1="4050" y1="19" x2="4050" y2="492" stroke="black" />
<line x1="3950" y1="492" x2="4150" y2="492" stroke="black" />
<text x="4075" y="484" font-family="Verdana" font-size="8" text-anchor="middle"  dominant-baseline="middle" fill="black" > 477</text>
<circle cx="3950" cy="492" r="4" fill="white" stroke="black" />
<line x1="3950" y1="496" x2="3950" y2="502" stroke="black" />
<line x1="3946" y1="498" x2="3954" y2="506" stroke="red" />
<line x1="3946" y1="506" x2="3954" y2="498" stroke="red" />
<text x="3950" y="514" font-family="Verdana" font-size="8" text-anchor="middle"  dominant-baseline="middle" fill="black" > 487</text>
<circle cx="4050" cy="492" r="4" fill="white" stroke="black" />
<line x1="4050" y1="496" x2="4050" y2="502" stroke="black" />
<line x1="4046" y1="498" x2="4054" y2="506" stroke="red" />
<line x1="4046" y1="506" x2="4054" y2="498" stroke="red" />
<text x="4050" y="514" font-family="Verdana" font-size="8" text-anchor="middle"  dominant-baseline="middle" fill="black" > 487</text>
<circle cx="4150" cy="492" r="4" fill="white" stroke="black" />
<line x1="4150" y1="496" x2="4150" y2="502" stroke="black" />
<line x1="4146" y1="498" x2="4154" y2="506" stroke="red" />
<line x1="4146" y1="506" x2="4154" y2="498" stroke="red" />
<text x="4150" y="514" font-family="Verdana" font-size="8" text-anchor="middle"  dominant-baseline="middle" fill="black" > 487</text>
<text x="4300" y="7" font-family="Verdana" font-size="7" text-anchor="middle"  dominant-baseline="middle" fill="black" > C17</text>
<circle cx="4300" cy="15" r="4" fill="white" stroke="black" />
<line x1="4300" y1="19" x2="4300" y2="209" stroke="black" />
<line x1="4250" y1="209" x2="4350" y2="209" stroke="black" />
<text x="4325" y="201" font-family="Verdana" font-size="8" text-anchor="middle"  dominant-baseline="middle" fill="black" > 194</text>
<circle cx="4250" cy="209" r="4" fill="white" stroke="black" />
<line x1="4250" y1="213" x2="4250" y2="434" stroke="black" />
<line x1="4246" y1="430" x2="4254" y2="438" stroke="red" />
<line x1="4246" y1="438" x2="4254" y2="430" stroke="red" />
<text x="4250" y="446" font-family="Verdana" font-size="8" text-anchor="middle"  dominant-baseline="middle" fill="black" > 419</text>
<circle cx="4350" cy="209" r="4" fill="white" stroke="black" />
<line x1="4350" y1="213" x2="4350" y2="396" stroke="black" />
<line x1="4346" y1="392" x2="4354" y2="400" stroke="red" />
<line x1="4346" y1="400" x2="4354" y2="392" stroke="red" />
<text x="4350" y="408" font-family="Verdana" font-size="8" text-anchor="middle"  dominant-baseline="middle" fill="black" > 381</text>
<text x="4450" y="7" font-family="Verdana" font-size="7" text-anchor="middle"  dominant-baseline="middle" fill="black" > C18</text>
<circle cx="4450" cy="15" r="4" fill="white" stroke="black" />
<line x1="4450" y1="19" x2="4450" y2="310" stroke="black" />
<line x1="4446" y1="306" x2="4454" y2="314" stroke="red" />
<line x1="4446" y1="314" x2="4454" y2="306" stroke="red" />
<text x="4450" y="322" font-family="Verdana" font-size="8" text-anchor="middle"  dominant-baseline="middle" fill="black" > 295</text>
<text x="4700" y="7" font-family="Verdana" font-size="7" text-anchor="middle"  dominant-baseline="middle" fill="black" > C19</text>
<circle cx="4700" cy="15" r="4" fill="white" stroke="black" />
<line x1="4700" y1="19" x2="4700" y2="322" stroke="black" />
<line x1="4550" y1="322" x2="4850" y2="322" stroke="black" />
<text x="4725" y="314" font-family="Verdana" font-size="8" text-anchor="middle"  dominant-baseline="middle" fill="black" > 307</text>
<circle cx="4550" cy="322" r="4" fill="white" stroke="black" />
<circle cx="4650" cy="322" r="4" fill="white" stroke="black" />
<circle cx="4750" cy="322" r="4" fill="white" stroke="black" />
<line x1="4550" y1="326" x2="4550" y2="349" stroke="black" />
<line x1="4550" y1="349" x2="4650" y2="358" stroke="black" />
<line x1="4650" y1="326" x2="4650" y2="349" stroke="black" />
<line x1="4650" y1="349" x2="4650" y2="358" stroke="black" />
<line x1="4750" y1="326" x2="4750" y2="349" stroke="black" />
<line x1="4750" y1="349" x2="4650" y2="358" stroke="black" />
<text x="4650" y="346" font-family="Verdana" font-size="8" text-anchor="middle"  dominant-baseline="middle" fill="black" > 343</text>
<circle cx="4650" cy="358" r="4" fill="white" stroke="black" />
<circle cx="4850" cy="322" r="4" fill="white" stroke="black" />
<line x1="4650" y1="362" x2="4650" y2="403" stroke="black" />
<line x1="4650" y1="403" x2="4750" y2="418" stroke="black" />
<line x1="4850" y1="326" x2="4850" y2="403" stroke="black" />
<line x1="4850" y1="403" x2="4750" y2="418" stroke="black" />
<text x="4750" y="406" font-family="Verdana" font-size="8" text-anchor="middle"  dominant-baseline="middle" fill="black" > 403</text>
<circle cx="4750" cy="418" r="4" fill="white" stroke="black" />
<line x1="4750" y1="422" x2="4750" y2="419" stroke="black" />
<line x1="4746" y1="415" x2="4754" y2="423" stroke="red" />
<line x1="4746" y1="423" x2="4754" y2="415" stroke="red" />
<text x="4750" y="431" font-family="Verdana" font-size="8" text-anchor="middle"  dominant-baseline="middle" fill="black" > 404</text>
<text x="5100" y="7" font-family="Verdana" font-size="7" text-anchor="middle"  dominant-baseline="middle" fill="black" > C20</text>
<circle cx="5100" cy="15" r="4" fill="white" stroke="black" />
<line x1="5100" y1="19" x2="5100" y2="361" stroke="black" />
<line x1="4950" y1="361" x2="5250" y2="361" stroke="black" />
<text x="5125" y="353" font-family="Verdana" font-size="8" text-anchor="middle"  dominant-baseline="middle" fill="black" > 346</text>
<circle cx="4950" cy="361" r="4" fill="white" stroke="black" />
<line x1="4950" y1="365" x2="4950" y2="393" stroke="black" />
<line x1="4946" y1="389" x2="4954" y2="397" stroke="red" />
<line x1="4946" y1="397" x2="4954" y2="389" stroke="red" />
<text x="4950" y="405" font-family="Verdana" font-size="8" text-anchor="middle"  dominant-baseline="middle" fill="black" > 378</text>
<circle cx="5050" cy="361" r="4" fill="white" stroke="black" />
<circle cx="5150" cy="361" r="4" fill="white" stroke="black" />
<line x1="5050" y1="365" x2="5050" y2="372" stroke="black" />
<line x1="5050" y1="372" x2="5100" y2="375" stroke="black" />
<line x1="5150" y1="365" x2="5150" y2="372" stroke="black" />
<line x1="5150" y1="372" x2="5100" y2="375" stroke="black" />
<text x="5100" y="363" font-family="Verdana" font-size="8" text-anchor="middle"  dominant-baseline="middle" fill="black" > 360</text>
<circle cx="5100" cy="375" r="4" fill="white" stroke="black" />
<circle cx="5250" cy="361" r="4" fill="white" stroke="black" />
<line x1="5100" y1="379" x2="5100" y2="401" stroke="black" />
<line x1="5100" y1="401" x2="5175" y2="409" stroke="black" />
<line x1="5250" y1="365" x2="5250" y2="401" stroke="black" />
<line x1="5250" y1="401" x2="5175" y2="409" stroke="black" />
<text x="5175" y="397" font-family="Verdana" font-size="8" text-anchor="middle"  dominant-baseline="middle" fill="black" > 394</text>
<circle cx="5175" cy="409" r="4" fill="white" stroke="black" />
<line x1="5175" y1="413" x2="5175" y2="663" stroke="black" />
<line x1="5171" y1="659" x2="5179" y2="667" stroke="red" />
<line x1="5171" y1="667" x2="5179" y2="659" stroke="red" />
<text x="5175" y="675" font-family="Verdana" font-size="8" text-anchor="middle"  dominant-baseline="middle" fill="black" > 648</text>
<text x="5400" y="7" font-family="Verdana" font-size="7" text-anchor="middle"  dominant-baseline="middle" fill="black" > C21</text>
<circle cx="5400" cy="15" r="4" fill="white" stroke="black" />
<line x1="5400" y1="19" x2="5400" y2="364" stroke="black" />
<line x1="5350" y1="364" x2="5450" y2="364" stroke="black" />
<text x="5425" y="356" font-family="Verdana" font-size="8" text-anchor="middle"  dominant-baseline="middle" fill="black" > 349</text>
<circle cx="5350" cy="364" r="4" fill="white" stroke="black" />
<circle cx="5450" cy="364" r="4" fill="white" stroke="black" />
<line x1="5350" y1="368" x2="5350" y2="418" stroke="black" />
<line x1="5350" y1="418" x2="5400" y2="435" stroke="black" />
<line x1="5450" y1="368" x2="5450" y2="418" stroke="black" />
<line x1="5450" y1="418" x2="5400" y2="435" stroke="black" />
<text x="5400" y="423" font-family="Verdana" font-size="8" text-anchor="middle"  dominant-baseline="middle" fill="black" > 420</text>
<circle cx="5400" cy="435" r="4" fill="white" stroke="black" />
<line x1="5400" y1="439" x2="5400" y2="736" stroke="black" />
<circle cx="5400" cy="736" r="4" fill="white" stroke="black" />
<text x="5400" y="748" font-family="Verdana" font-size="8" text-anchor="middle"  dominant-baseline="middle" fill="black" > 721</text>
<text x="5600" y="7" font-family="Verdana" font-size="7" text-anchor="middle"  dominant-baseline="middle" fill="black" > C22</text>
<circle cx="5600" cy="15" r="4" fill="white" stroke="black" />
<line x1="5600" y1="19" x2="5600" y2="395" stroke="black" />
<line x1="5550" y1="395" x2="5650" y2="395" stroke="black" />
<text x="5625" y="387" font-family="Verdana" font-size="8" text-anchor="middle"  dominant-baseline="middle" fill="black" > 380</text>
<circle cx="5550" cy="395" r="4" fill="white" stroke="black" />
<circle cx="5650" cy="395" r="4" fill="white" stroke="black" />
<line x1="5550" y1="399" x2="5550" y2="400" stroke="black" />
<line x1="5550" y1="400" x2="5600" y2="401" stroke="black" />
<line x1="5650" y1="399" x2="5650" y2="400" stroke="black" />
<line x1="5650" y1="400" x2="5600" y2="401" stroke="black" />
<text x="5600" y="389" font-family="Verdana" font-size="8" text-anchor="middle"  dominant-baseline="middle" fill="black" > 386</text>
<circle cx="5600" cy="401" r="4" fill="white" stroke="black" />
<line x1="5600" y1="405" x2="5600" y2="552" stroke="black" />
<line x1="5596" y1="548" x2="5604" y2="556" stroke="red" />
<line x1="5596" y1="556" x2="5604" y2="548" stroke="red" />
<text x="5600" y="564" font-family="Verdana" font-size="8" text-anchor="middle"  dominant-baseline="middle" fill="black" > 537</text>
<text x="5800" y="7" font-family="Verdana" font-size="7" text-anchor="middle"  dominant-baseline="middle" fill="black" > C23</text>
<circle cx="5800" cy="15" r="4" fill="white" stroke="black" />
<line x1="5800" y1="19" x2="5800" y2="270" stroke="black" />
<line x1="5750" y1="270" x2="5850" y2="270" stroke="black" />
<text x="5825" y="262" font-family="Verdana" font-size="8" text-anchor="middle"  dominant-baseline="middle" fill="black" > 255</text>
<circle cx="5750" cy="270" r="4" fill="white" stroke="black" />
<circle cx="5850" cy="270" r="4" fill="white" stroke="black" />
<line x1="5750" y1="274" x2="5750" y2="455" stroke="black" />
<line x1="5750" y1="455" x2="5800" y2="516" stroke="black" />
<line x1="5850" y1="274" x2="5850" y2="455" stroke="black" />
<line x1="5850" y1="455" x2="5800" y2="516" stroke="black" />
<text x="5800" y="504" font-family="Verdana" font-size="8" text-anchor="middle"  dominant-baseline="middle" fill="black" > 501</text>
<circle cx="5800" cy="516" r="4" fill="white" stroke="black" />
<line x1="5800" y1="520" x2="5800" y2="567" stroke="black" />
<line x1="5796" y1="563" x2="5804" y2="571" stroke="red" />
<line x1="5796" y1="571" x2="5804" y2="563" stroke="red" />
<text x="5800" y="579" font-family="Verdana" font-size="8" text-anchor="middle"  dominant-baseline="middle" fill="black" > 552</text>
</svg>
