<?xml version="1.0" encoding="utf-8"?>
<svg xmlns="http://www.w3.org/2000/svg" version="1.1" width="4250" height="750">
<rect width="4250" height="15" x="0" y="0" fill="white" />
<rect width="4250" height="15" x="0" y="735" fill="white" />
<rect width="25" height="750" x="0" y="0" fill="white" />
<rect width="25" height="750" x="4225" y="0" fill="white" />
<rect width="4210" height="144" x="25" y="15" fill="ghostwhite" />
<rect width="4210" height="144" x="25" y="159" fill="snow" />
<rect width="4210" height="144" x="25" y="303" fill="ghostwhite" />
<rect width="4210" height="144" x="25" y="447" fill="snow" />
<rect width="4210" height="144" x="25" y="591" fill="ghostwhite" />
<text x="12" y="87" font-family="Verdana" font-size="10" text-anchor="middle"  dominant-baseline="middle" fill="red" > D0</text>
<text x="12" y="231" font-family="Verdana" font-size="10" text-anchor="middle"  dominant-baseline="middle" fill="red" > D1</text>
<text x="12" y="375" font-family="Verdana" font-size="10" text-anchor="middle"  dominant-baseline="middle" fill="red" > D2</text>
<text x="12" y="519" font-family="Verdana" font-size="10" text-anchor="middle"  dominant-baseline="middle" fill="red" > D3</text>
<text x="12" y="663" font-family="Verdana" font-size="10" text-anchor="middle"  dominant-baseline="middle" fill="red" > D4</text>
<text x="12" y="20" font-family="Verdana" font-size="10" text-anchor="middle"  dominant-baseline="middle" fill="black" > 0</text>
<text x="12" y="164" font-family="Verdana" font-size="10" text-anchor="middle"  dominant-baseline="middle" fill="black" > 144</text>
<text x="12" y="308" font-family="Verdana" font-size="10" text-anchor="middle"  dominant-baseline="middle" fill="black" > 288</text>
<text x="12" y="452" font-family="Verdana" font-size="10" text-anchor="middle"  dominant-baseline="middle" fill="black" > 432</text>
<text x="12" y="596" font-family="Verdana" font-size="10" text-anchor="middle"  dominant-baseline="middle" fill="black" > 576</text>
<text x="12" y="740" font-family="Verdana" font-size="10" text-anchor="middle"  dominant-baseline="middle" fill="black" > 720</text>
<text x="50" y="7" font-family="Verdana" font-size="7" text-anchor="middle"  dominant-baseline="middle" fill="black" > C1</text>
<circle cx="50" cy="15" r="4" fill="white" stroke="black" />
<line x1="50" y1="19" x2="50" y2="173" stroke="black" />
<line x1="46" y1="169" x2="54" y2="177" stroke="red" />
<line x1="46" y1="177" x2="54" y2="169" stroke="red" />
<text x="50" y="185" font-family="Verdana" font-size="8" text-anchor="middle"  dominant-baseline="middle" fill="black" > 158</text>
<text x="150" y="7" font-family="Verdana" font-size="7" text-anchor="middle"  dominant-baseline="middle" fill="black" > C2</text>
<circle cx="150" cy="15" r="4" fill="white" stroke="black" />
<line x1="150" y1="19" x2="150" y2="98" stroke="black" />
<line x1="146" y1="102" x2="150" y2="94" stroke="blue" />
<line x1="150" y1="102" x2="154" y2="94" stroke="blue" />
<text x="150" y="110" font-family="Verdana" font-size="8" text-anchor="middle"  dominant-baseline="middle" fill="black" > 83</text>
<text x="300" y="7" font-family="Verdana" font-size="7" text-anchor="middle"  dominant-baseline="middle" fill="black" > C3</text>
<circle cx="300" cy="15" r="4" fill="white" stroke="black" />
<line x1="300" y1="19" x2="300" y2="349" stroke="black" />
<line x1="250" y1="349" x2="350" y2="349" stroke="black" />
<text x="325" y="341" font-family="Verdana" font-size="8" text-anchor="middle"  dominant-baseline="middle" fill="black" > 334</text>
<circle cx="250" cy="349" r="4" fill="white" stroke="black" />
<circle cx="350" cy="349" r="4" fill="white" stroke="black" />
<line x1="250" y1="353" x2="250" y2="366" stroke="black" />
<line x1="250" y1="366" x2="300" y2="371" stroke="black" />
<line x1="350" y1="353" x2="350" y2="366" stroke="black" />
<line x1="350" y1="366" x2="300" y2="371" stroke="black" />
<text x="300" y="359" font-family="Verdana" font-size="8" text-anchor="middle"  dominant-baseline="middle" fill="black" > 356</text>
<circle cx="300" cy="371" r="4" fill="white" stroke="black" />
<line x1="300" y1="375" x2="300" y2="670" stroke="black" />
<line x1="296" y1="666" x2="304" y2="674" stroke="red" />
<line x1="296" y1="674" x2="304" y2="666" stroke="red" />
<text x="300" y="682" font-family="Verdana" font-size="8" text-anchor="middle"  dominant-baseline="middle" fill="black" > 655</text>
<text x="600" y="7" font-family="Verdana" font-size="7" text-anchor="middle"  dominant-baseline="middle" fill="black" > C4</text>
<circle cx="600" cy="15" r="4" fill="white" stroke="black" />
<line x1="600" y1="19" x2="600" y2="366" stroke="black" />
<line x1="450" y1="366" x2="750" y2="366" stroke="black" />
<text x="625" y="358" font-family="Verdana" font-size="8" text-anchor="middle"  dominant-baseline="middle" fill="black" > 351</text>
<circle cx="450" cy="366" r="4" fill="white" stroke="black" />
<circle cx="550" cy="366" r="4" fill="white" stroke="black" />
<circle cx="650" cy="366" r="4" fill="white" stroke="black" />
<line x1="450" y1="370" x2="450" y2="378" stroke="black" />
<line x1="450" y1="378" x2="550" y2="381" stroke="black" />
<line x1="550" y1="370" x2="550" y2="378" stroke="black" />
<line x1="550" y1="378" x2="550" y2="381" stroke="black" />
<line x1="650" y1="370" x2="650" y2="378" stroke="black" />
<line x1="650" y1="378" x2="550" y2="381" stroke="black" />
<text x="550" y="369" font-family="Verdana" font-size="8" text-anchor="middle"  dominant-baseline="middle" fill="black" > 366</text>
<circle cx="550" cy="381" r="4" fill="white" stroke="black" />
<circle cx="750" cy="366" r="4" fill="white" stroke="black" />
<line x1="550" y1="385" x2="550" y2="383" stroke="black" />
<line x1="550" y1="383" x2="650" y2="383" stroke="black" />
<line x1="750" y1="370" x2="750" y2="383" stroke="black" />
<line x1="750" y1="383" x2="650" y2="383" stroke="black" />
<text x="650" y="371" font-family="Verdana" font-size="8" text-anchor="middle"  dominant-baseline="middle" fill="black" > 368</text>
<circle cx="650" cy="383" r="4" fill="white" stroke="black" />
<line x1="650" y1="387" x2="650" y2="556" stroke="black" />
<line x1="575" y1="556" x2="725" y2="556" stroke="black" />
<text x="662" y="548" font-family="Verdana" font-size="8" text-anchor="middle"  dominant-baseline="middle" fill="black" > 541</text>
<circle cx="575" cy="556" r="4" fill="white" stroke="black" />
<circle cx="625" cy="556" r="4" fill="white" stroke="black" />
<circle cx="675" cy="556" r="4" fill="white" stroke="black" />
<line x1="575" y1="560" x2="575" y2="580" stroke="black" />
<line x1="575" y1="580" x2="625" y2="587" stroke="black" />
<line x1="625" y1="560" x2="625" y2="580" stroke="black" />
<line x1="625" y1="580" x2="625" y2="587" stroke="black" />
<line x1="675" y1="560" x2="675" y2="580" stroke="black" />
<line x1="675" y1="580" x2="625" y2="587" stroke="black" />
<text x="625" y="575" font-family="Verdana" font-size="8" text-anchor="middle"  dominant-baseline="middle" fill="black" > 572</text>
<circle cx="625" cy="587" r="4" fill="white" stroke="black" />
<circle cx="725" cy="556" r="4" fill="white" stroke="black" />
<line x1="625" y1="591" x2="625" y2="650" stroke="black" />
<line x1="625" y1="650" x2="675" y2="671" stroke="black" />
<line x1="725" y1="560" x2="725" y2="650" stroke="black" />
<line x1="725" y1="650" x2="675" y2="671" stroke="black" />
<text x="675" y="659" font-family="Verdana" font-size="8" text-anchor="middle"  dominant-baseline="middle" fill="black" > 656</text>
<circle cx="675" cy="671" r="4" fill="white" stroke="black" />
<line x1="675" y1="675" x2="675" y2="718" stroke="black" />
<line x1="671" y1="714" x2="679" y2="722" stroke="red" />
<line x1="671" y1="722" x2="679" y2="714" stroke="red" />
<text x="675" y="730" font-family="Verdana" font-size="8" text-anchor="middle"  dominant-baseline="middle" fill="black" > 703</text>
<text x="950" y="7" font-family="Verdana" font-size="7" text-anchor="middle"  dominant-baseline="middle" fill="black" > C5</text>
<circle cx="950" cy="15" r="4" fill="white" stroke="black" />
<line x1="950" y1="19" x2="950" y2="366" stroke="black" />
<line x1="850" y1="366" x2="1050" y2="366" stroke="black" />
<text x="975" y="358" font-family="Verdana" font-size="8" text-anchor="middle"  dominant-baseline="middle" fill="black" > 351</text>
<circle cx="850" cy="366" r="4" fill="white" stroke="black" />
<circle cx="950" cy="366" r="4" fill="white" stroke="black" />
<line x1="850" y1="370" x2="850" y2="371" stroke="black" />
<line x1="850" y1="371" x2="900" y2="372" stroke="black" />
<line x1="950" y1="370" x2="950" y2="371" stroke="black" />
<line x1="950" y1="371" x2="900" y2="372" stroke="black" />
<text x="900" y="360" font-family="Verdana" font-size="8" text-anchor="middle"  dominant-baseline="middle" fill="black" > 357</text>
<circle cx="900" cy="372" r="4" fill="white" stroke="black" />
<circle cx="1050" cy="366" r="4" fill="white" stroke="black" />
<line x1="900" y1="376" x2="900" y2="376" stroke="black" />
<line x1="900" y1="376" x2="975" y2="377" stroke="black" />
<line x1="1050" y1="370" x2="1050" y2="376" stroke="black" />
<line x1="1050" y1="376" x2="975" y2="377" stroke="black" />
<text x="975" y="365" font-family="Verdana" font-size="8" text-anchor="middle"  dominant-baseline="middle" fill="black" > 362</text>
<circle cx="975" cy="377" r="4" fill="white" stroke="black" />
<line x1="975" y1="381" x2="975" y2="497" stroke="black" />
<line x1="918" y1="497" x2="1032" y2="497" stroke="black" />
<text x="984" y="489" font-family="Verdana" font-size="8" text-anchor="middle"  dominant-baseline="middle" fill="black" > 482</text>
<circle cx="918" cy="497" r="4" fill="white" stroke="black" />
<circle cx="955" cy="497" r="4" fill="white" stroke="black" />
<line x1="918" y1="501" x2="918" y2="512" stroke="black" />
<line x1="918" y1="512" x2="936" y2="517" stroke="black" />
<line x1="955" y1="501" x2="955" y2="512" stroke="black" />
<line x1="955" y1="512" x2="936" y2="517" stroke="black" />
<text x="936" y="505" font-family="Verdana" font-size="8" text-anchor="middle"  dominant-baseline="middle" fill="black" > 502</text>
<circle cx="936" cy="517" r="4" fill="white" stroke="black" />
<circle cx="992" cy="497" r="4" fill="white" stroke="black" />
<line x1="936" y1="521" x2="936" y2="561" stroke="black" />
<line x1="936" y1="561" x2="964" y2="575" stroke="black" />
<line x1="992" y1="501" x2="992" y2="561" stroke="black" />
<line x1="992" y1="561" x2="964" y2="575" stroke="black" />
<text x="964" y="563" font-family="Verdana" font-size="8" text-anchor="middle"  dominant-baseline="middle" fill="black" > 560</text>
<circle cx="964" cy="575" r="4" fill="white" stroke="black" />
<line x1="964" y1="579" x2="964" y2="736" stroke="black" />
<circle cx="964" cy="736" r="4" fill="white" stroke="black" />
<text x="964" y="748" font-family="Verdana" font-size="8" text-anchor="middle"  dominant-baseline="middle" fill="black" > 721</text>
<circle cx="1029" cy="497" r="4" fill="white" stroke="black" />
<line x1="1029" y1="501" x2="1029" y2="736" stroke="black" />
<circle cx="1029" cy="736" r="4" fill="white" stroke="black" />
<text x="1029" y="748" font-family="Verdana" font-size="8" text-anchor="middle"  dominant-baseline="middle" fill="black" > 721</text>
<text x="1150" y="7" font-family="Verdana" font-size="7" text-anchor="middle"  dominant-baseline="middle" fill="black" > C6</text>
<circle cx="1150" cy="15" r="4" fill="white" stroke="black" />
<line x1="1150" y1="19" x2="1150" y2="149" stroke="black" />
<line x1="1146" y1="153" x2="1150" y2="145" stroke="blue" />
<line x1="1150" y1="153" x2="1154" y2="145" stroke="blue" />
<text x="1150" y="161" font-family="Verdana" font-size="8" text-anchor="middle"  dominant-baseline="middle" fill="black" > 134</text>
<text x="1400" y="7" font-family="Verdana" font-size="7" text-anchor="middle"  dominant-baseline="middle" fill="black" > C7</text>
<circle cx="1400" cy="15" r="4" fill="white" stroke="black" />
<line x1="1400" y1="19" x2="1400" y2="443" stroke="black" />
<line x1="1250" y1="443" x2="1550" y2="443" stroke="black" />
<text x="1425" y="435" font-family="Verdana" font-size="8" text-anchor="middle"  dominant-baseline="middle" fill="black" > 428</text>
<circle cx="1250" cy="443" r="4" fill="white" stroke="black" />
<line x1="1250" y1="447" x2="1250" y2="662" stroke="black" />
<line x1="1246" y1="658" x2="1254" y2="666" stroke="red" />
<line x1="1246" y1="666" x2="1254" y2="658" stroke="red" />
<text x="1250" y="674" font-family="Verdana" font-size="8" text-anchor="middle"  dominant-baseline="middle" fill="black" > 647</text>
<circle cx="1350" cy="443" r="4" fill="white" stroke="black" />
<line x1="1350" y1="447" x2="1350" y2="478" stroke="black" />
<line x1="1346" y1="474" x2="1354" y2="482" stroke="red" />
<line x1="1346" y1="482" x2="1354" y2="474" stroke="red" />
<text x="1350" y="490" font-family="Verdana" font-size="8" text-anchor="middle"  dominant-baseline="middle" fill="black" > 463</text>
<circle cx="1450" cy="443" r="4" fill="white" stroke="black" />
<circle cx="1550" cy="443" r="4" fill="white" stroke="black" />
<line x1="1450" y1="447" x2="1450" y2="474" stroke="black" />
<line x1="1450" y1="474" x2="1500" y2="484" stroke="black" />
<line x1="1550" y1="447" x2="1550" y2="474" stroke="black" />
<line x1="1550" y1="474" x2="1500" y2="484" stroke="black" />
<text x="1500" y="472" font-family="Verdana" font-size="8" text-anchor="middle"  dominant-baseline="middle" fill="black" > 469</text>
<circle cx="1500" cy="484" r="4" fill="white" stroke="black" />
<line x1="1500" y1="488" x2="1500" y2="608" stroke="black" />
<line x1="1496" y1="604" x2="1504" y2="612" stroke="red" />
<line x1="1496" y1="612" x2="1504" y2="604" stroke="red" />
<text x="1500" y="620" font-family="Verdana" font-size="8" text-anchor="middle"  dominant-baseline="middle" fill="black" > 593</text>
<text x="1650" y="7" font-family="Verdana" font-size="7" text-anchor="middle"  dominant-baseline="middle" fill="black" > C8</text>
<circle cx="1650" cy="15" r="4" fill="white" stroke="black" />
<line x1="1650" y1="19" x2="1650" y2="478" stroke="black" />
<line x1="1646" y1="474" x2="1654" y2="482" stroke="red" />
<line x1="1646" y1="482" x2="1654" y2="474" stroke="red" />
<text x="1650" y="490" font-family="Verdana" font-size="8" text-anchor="middle"  dominant-baseline="middle" fill="black" > 463</text>
<text x="1850" y="7" font-family="Verdana" font-size="7" text-anchor="middle"  dominant-baseline="middle" fill="black" > C9</text>
<circle cx="1850" cy="15" r="4" fill="white" stroke="black" />
<line x1="1850" y1="19" x2="1850" y2="357" stroke="black" />
<line x1="1750" y1="357" x2="1950" y2="357" stroke="black" />
<text x="1875" y="349" font-family="Verdana" font-size="8" text-anchor="middle"  dominant-baseline="middle" fill="black" > 342</text>
<circle cx="1750" cy="357" r="4" fill="white" stroke="black" />
<line x1="1750" y1="361" x2="1750" y2="736" stroke="black" />
<circle cx="1750" cy="736" r="4" fill="white" stroke="black" />
<text x="1750" y="748" font-family="Verdana" font-size="8" text-anchor="middle"  dominant-baseline="middle" fill="black" > 721</text>
<circle cx="1850" cy="357" r="4" fill="white" stroke="black" />
<circle cx="1950" cy="357" r="4" fill="white" stroke="black" />
<line x1="1850" y1="361" x2="1850" y2="371" stroke="black" />
<line x1="1850" y1="371" x2="1900" y2="375" stroke="black" />
<line x1="1950" y1="361" x2="1950" y2="371" stroke="black" />
<line x1="1950" y1="371" x2="1900" y2="375" stroke="black" />
<text x="1900" y="363" font-family="Verdana" font-size="8" text-anchor="middle"  dominant-baseline="middle" fill="black" > 360</text>
<circle cx="1900" cy="375" r="4" fill="white" stroke="black" />
<line x1="1900" y1="379" x2="1900" y2="490" stroke="black" />
<line x1="1896" y1="486" x2="1904" y2="494" stroke="red" />
<line x1="1896" y1="494" x2="1904" y2="486" stroke="red" />
<text x="1900" y="502" font-family="Verdana" font-size="8" text-anchor="middle"  dominant-baseline="middle" fill="black" > 475</text>
<text x="2250" y="7" font-family="Verdana" font-size="7" text-anchor="middle"  dominant-baseline="middle" fill="black" > C10</text>
<circle cx="2250" cy="15" r="4" fill="white" stroke="black" />
<line x1="2250" y1="19" x2="2250" y2="556" stroke="black" />
<line x1="2050" y1="556" x2="2450" y2="556" stroke="black" />
<text x="2275" y="548" font-family="Verdana" font-size="8" text-anchor="middle"  dominant-baseline="middle" fill="black" > 541</text>
<circle cx="2050" cy="556" r="4" fill="white" stroke="black" />
<line x1="2050" y1="560" x2="2050" y2="735" stroke="black" />
<line x1="2046" y1="731" x2="2054" y2="739" stroke="red" />
<line x1="2046" y1="739" x2="2054" y2="731" stroke="red" />
<text x="2050" y="747" font-family="Verdana" font-size="8" text-anchor="middle"  dominant-baseline="middle" fill="black" > 720</text>
<circle cx="2150" cy="556" r="4" fill="white" stroke="black" />
<circle cx="2250" cy="556" r="4" fill="white" stroke="black" />
<line x1="2150" y1="560" x2="2150" y2="587" stroke="black" />
<line x1="2150" y1="587" x2="2200" y2="597" stroke="black" />
<line x1="2250" y1="560" x2="2250" y2="587" stroke="black" />
<line x1="2250" y1="587" x2="2200" y2="597" stroke="black" />
<text x="2200" y="585" font-family="Verdana" font-size="8" text-anchor="middle"  dominant-baseline="middle" fill="black" > 582</text>
<circle cx="2200" cy="597" r="4" fill="white" stroke="black" />
<circle cx="2350" cy="556" r="4" fill="white" stroke="black" />
<circle cx="2450" cy="556" r="4" fill="white" stroke="black" />
<line x1="2200" y1="601" x2="2200" y2="598" stroke="black" />
<line x1="2200" y1="598" x2="2325" y2="598" stroke="black" />
<line x1="2350" y1="560" x2="2350" y2="598" stroke="black" />
<line x1="2350" y1="598" x2="2325" y2="598" stroke="black" />
<line x1="2450" y1="560" x2="2450" y2="598" stroke="black" />
<line x1="2450" y1="598" x2="2325" y2="598" stroke="black" />
<text x="2325" y="586" font-family="Verdana" font-size="8" text-anchor="middle"  dominant-baseline="middle" fill="black" > 583</text>
<circle cx="2325" cy="598" r="4" fill="white" stroke="black" />
<line x1="2325" y1="602" x2="2325" y2="736" stroke="black" />
<circle cx="2325" cy="736" r="4" fill="white" stroke="black" />
<text x="2325" y="748" font-family="Verdana" font-size="8" text-anchor="middle"  dominant-baseline="middle" fill="black" > 721</text>
<text x="2650" y="7" font-family="Verdana" font-size="7" text-anchor="middle"  dominant-baseline="middle" fill="black" > C11</text>
<circle cx="2650" cy="15" r="4" fill="white" stroke="black" />
<line x1="2650" y1="19" x2="2650" y2="364" stroke="black" />
<line x1="2550" y1="364" x2="2750" y2="364" stroke="black" />
<text x="2675" y="356" font-family="Verdana" font-size="8" text-anchor="middle"  dominant-baseline="middle" fill="black" > 349</text>
<circle cx="2550" cy="364" r="4" fill="white" stroke="black" />
<circle cx="2650" cy="364" r="4" fill="white" stroke="black" />
<line x1="2550" y1="368" x2="2550" y2="373" stroke="black" />
<line x1="2550" y1="373" x2="2600" y2="375" stroke="black" />
<line x1="2650" y1="368" x2="2650" y2="373" stroke="black" />
<line x1="2650" y1="373" x2="2600" y2="375" stroke="black" />
<text x="2600" y="363" font-family="Verdana" font-size="8" text-anchor="middle"  dominant-baseline="middle" fill="black" > 360</text>
<circle cx="2600" cy="375" r="4" fill="white" stroke="black" />
<line x1="2600" y1="379" x2="2600" y2="736" stroke="black" />
<circle cx="2600" cy="736" r="4" fill="white" stroke="black" />
<text x="2600" y="748" font-family="Verdana" font-size="8" text-anchor="middle"  dominant-baseline="middle" fill="black" > 721</text>
<circle cx="2750" cy="364" r="4" fill="white" stroke="black" />
<line x1="2750" y1="368" x2="2750" y2="456" stroke="black" />
<line x1="2746" y1="452" x2="2754" y2="460" stroke="red" />
<line x1="2746" y1="460" x2="2754" y2="452" stroke="red" />
<text x="2750" y="468" font-family="Verdana" font-size="8" text-anchor="middle"  dominant-baseline="middle" fill="black" > 441</text>
<text x="2950" y="7" font-family="Verdana" font-size="7" text-anchor="middle"  dominant-baseline="middle" fill="black" > C12</text>
<circle cx="2950" cy="15" r="4" fill="white" stroke="black" />
<line x1="2950" y1="19" x2="2950" y2="288" stroke="black" />
<line x1="2850" y1="288" x2="3050" y2="288" stroke="black" />
<text x="2975" y="280" font-family="Verdana" font-size="8" text-anchor="middle"  dominant-baseline="middle" fill="black" > 273</text>
<circle cx="2850" cy="288" r="4" fill="white" stroke="black" />
<circle cx="2950" cy="288" r="4" fill="white" stroke="black" />
<line x1="2850" y1="292" x2="2850" y2="301" stroke="black" />
<line x1="2850" y1="301" x2="2900" y2="305" stroke="black" />
<line x1="2950" y1="292" x2="2950" y2="301" stroke="black" />
<line x1="2950" y1="301" x2="2900" y2="305" stroke="black" />
<text x="2900" y="293" font-family="Verdana" font-size="8" text-anchor="middle"  dominant-baseline="middle" fill="black" > 290</text>
<circle cx="2900" cy="305" r="4" fill="white" stroke="black" />
<circle cx="3050" cy="288" r="4" fill="white" stroke="black" />
<line x1="2900" y1="309" x2="2900" y2="322" stroke="black" />
<line x1="2900" y1="322" x2="2975" y2="327" stroke="black" />
<line x1="3050" y1="292" x2="3050" y2="322" stroke="black" />
<line x1="3050" y1="322" x2="2975" y2="327" stroke="black" />
<text x="2975" y="315" font-family="Verdana" font-size="8" text-anchor="middle"  dominant-baseline="middle" fill="black" > 312</text>
<circle cx="2975" cy="327" r="4" fill="white" stroke="black" />
<line x1="2975" y1="331" x2="2975" y2="556" stroke="black" />
<line x1="2971" y1="552" x2="2979" y2="560" stroke="red" />
<line x1="2971" y1="560" x2="2979" y2="552" stroke="red" />
<text x="2975" y="568" font-family="Verdana" font-size="8" text-anchor="middle"  dominant-baseline="middle" fill="black" > 541</text>
<text x="3150" y="7" font-family="Verdana" font-size="7" text-anchor="middle"  dominant-baseline="middle" fill="black" > C13</text>
<circle cx="3150" cy="15" r="4" fill="white" stroke="black" />
<line x1="3150" y1="19" x2="3150" y2="736" stroke="black" />
<circle cx="3150" cy="736" r="4" fill="white" stroke="black" />
<text x="3150" y="748" font-family="Verdana" font-size="8" text-anchor="middle"  dominant-baseline="middle" fill="black" > 721</text>
<text x="3350" y="7" font-family="Verdana" font-size="7" text-anchor="middle"  dominant-baseline="middle" fill="black" > C14</text>
<circle cx="3350" cy="15" r="4" fill="white" stroke="black" />
<line x1="3350" y1="19" x2="3350" y2="391" stroke="black" />
<line x1="3250" y1="391" x2="3450" y2="391" stroke="black" />
<text x="3375" y="383" font-family="Verdana" font-size="8" text-anchor="middle"  dominant-baseline="middle" fill="black" > 376</text>
<circle cx="3250" cy="391" r="4" fill="white" stroke="black" />
<circle cx="3350" cy="391" r="4" fill="white" stroke="black" />
<line x1="3250" y1="395" x2="3250" y2="409" stroke="black" />
<line x1="3250" y1="409" x2="3300" y2="415" stroke="black" />
<line x1="3350" y1="395" x2="3350" y2="409" stroke="black" />
<line x1="3350" y1="409" x2="3300" y2="415" stroke="black" />
<text x="3300" y="403" font-family="Verdana" font-size="8" text-anchor="middle"  dominant-baseline="middle" fill="black" > 400</text>
<circle cx="3300" cy="415" r="4" fill="white" stroke="black" />
<circle cx="3450" cy="391" r="4" fill="white" stroke="black" />
<line x1="3300" y1="419" x2="3300" y2="419" stroke="black" />
<line x1="3300" y1="419" x2="3375" y2="420" stroke="black" />
<line x1="3450" y1="395" x2="3450" y2="419" stroke="black" />
<line x1="3450" y1="419" x2="3375" y2="420" stroke="black" />
<text x="3375" y="408" font-family="Verdana" font-size="8" text-anchor="middle"  dominant-baseline="middle" fill="black" > 405</text>
<circle cx="3375" cy="420" r="4" fill="white" stroke="black" />
<line x1="3375" y1="424" x2="3375" y2="518" stroke="black" />
<line x1="3371" y1="514" x2="3379" y2="522" stroke="red" />
<line x1="3371" y1="522" x2="3379" y2="514" stroke="red" />
<text x="3375" y="530" font-family="Verdana" font-size="8" text-anchor="middle"  dominant-baseline="middle" fill="black" > 503</text>
<text x="3700" y="7" font-family="Verdana" font-size="7" text-anchor="middle"  dominant-baseline="middle" fill="black" > C15</text>
<circle cx="3700" cy="15" r="4" fill="white" stroke="black" />
<line x1="3700" y1="19" x2="3700" y2="516" stroke="black" />
<line x1="3550" y1="516" x2="3850" y2="516" stroke="black" />
<text x="3725" y="508" font-family="Verdana" font-size="8" text-anchor="middle"  dominant-baseline="middle" fill="black" > 501</text>
<circle cx="3550" cy="516" r="4" fill="white" stroke="black" />
<circle cx="3650" cy="516" r="4" fill="white" stroke="black" />
<line x1="3550" y1="520" x2="3550" y2="531" stroke="black" />
<line x1="3550" y1="531" x2="3600" y2="535" stroke="black" />
<line x1="3650" y1="520" x2="3650" y2="531" stroke="black" />
<line x1="3650" y1="531" x2="3600" y2="535" stroke="black" />
<text x="3600" y="523" font-family="Verdana" font-size="8" text-anchor="middle"  dominant-baseline="middle" fill="black" > 520</text>
<circle cx="3600" cy="535" r="4" fill="white" stroke="black" />
<circle cx="3750" cy="516" r="4" fill="white" stroke="black" />
<line x1="3600" y1="539" x2="3600" y2="583" stroke="black" />
<line x1="3600" y1="583" x2="3675" y2="598" stroke="black" />
<line x1="3750" y1="520" x2="3750" y2="583" stroke="black" />
<line x1="3750" y1="583" x2="3675" y2="598" stroke="black" />
<text x="3675" y="586" font-family="Verdana" font-size="8" text-anchor="middle"  dominant-baseline="middle" fill="black" > 583</text>
<circle cx="3675" cy="598" r="4" fill="white" stroke="black" />
<circle cx="3850" cy="516" r="4" fill="white" stroke="black" />
<line x1="3675" y1="602" x2="3675" y2="604" stroke="black" />
<line x1="3675" y1="604" x2="3762" y2="606" stroke="black" />
<line x1="3850" y1="520" x2="3850" y2="604" stroke="black" />
<line x1="3850" y1="604" x2="3762" y2="606" stroke="black" />
<text x="3762" y="594" font-family="Verdana" font-size="8" text-anchor="middle"  dominant-baseline="middle" fill="black" > 591</text>
<circle cx="3762" cy="606" r="4" fill="white" stroke="black" />
<line x1="3762" y1="610" x2="3762" y2="607" stroke="black" />
<line x1="3758" y1="603" x2="3766" y2="611" stroke="red" />
<line x1="3758" y1="611" x2="3766" y2="603" stroke="red" />
<text x="3762" y="619" font-family="Verdana" font-size="8" text-anchor="middle"  dominant-baseline="middle" fill="black" > 592</text>
<text x="4000" y="7" font-family="Verdana" font-size="7" text-anchor="middle"  dominant-baseline="middle" fill="black" > C16</text>
<circle cx="4000" cy="15" r="4" fill="white" stroke="black" />
<line x1="4000" y1="19" x2="4000" y2="214" stroke="black" />
<line x1="3950" y1="214" x2="4050" y2="214" stroke="black" />
<text x="4025" y="206" font-family="Verdana" font-size="8" text-anchor="middle"  dominant-baseline="middle" fill="black" > 199</text>
<circle cx="3950" cy="214" r="4" fill="white" stroke="black" />
<line x1="3950" y1="218" x2="3950" y2="244" stroke="black" />
<line x1="3946" y1="248" x2="3950" y2="240" stroke="blue" />
<line x1="3950" y1="248" x2="3954" y2="240" stroke="blue" />
<text x="3950" y="256" font-family="Verdana" font-size="8" text-anchor="middle"  dominant-baseline="middle" fill="black" > 229</text>
<circle cx="4050" cy="214" r="4" fill="white" stroke="black" />
<line x1="4050" y1="218" x2="4050" y2="327" stroke="black" />
<line x1="4046" y1="331" x2="4050" y2="323" stroke="blue" />
<line x1="4050" y1="331" x2="4054" y2="323" stroke="blue" />
<text x="4050" y="339" font-family="Verdana" font-size="8" text-anchor="middle"  dominant-baseline="middle" fill="black" > 312</text>
<text x="4150" y="7" font-family="Verdana" font-size="7" text-anchor="middle"  dominant-baseline="middle" fill="black" > C17</text>
<circle cx="4150" cy="15" r="4" fill="white" stroke="black" />
<line x1="4150" y1="19" x2="4150" y2="74" stroke="black" />
<line x1="4146" y1="78" x2="4150" y2="70" stroke="blue" />
<line x1="4150" y1="78" x2="4154" y2="70" stroke="blue" />
<text x="4150" y="86" font-family="Verdana" font-size="8" text-anchor="middle"  dominant-baseline="middle" fill="black" > 59</text>
</svg>
