<?xml version="1.0" encoding="utf-8"?>
<svg xmlns="http://www.w3.org/2000/svg" version="1.1" width="4350" height="750">
<rect width="4350" height="15" x="0" y="0" fill="white" />
<rect width="4350" height="15" x="0" y="735" fill="white" />
<rect width="25" height="750" x="0" y="0" fill="white" />
<rect width="25" height="750" x="4325" y="0" fill="white" />
<rect width="4310" height="144" x="25" y="15" fill="ghostwhite" />
<rect width="4310" height="144" x="25" y="159" fill="snow" />
<rect width="4310" height="144" x="25" y="303" fill="ghostwhite" />
<rect width="4310" height="144" x="25" y="447" fill="snow" />
<rect width="4310" height="144" x="25" y="591" fill="ghostwhite" />
<text x="12" y="87" font-family="Verdana" font-size="10" text-anchor="middle"  dominant-baseline="middle" fill="red" > D0</text>
<text x="12" y="231" font-family="Verdana" font-size="10" text-anchor="middle"  dominant-baseline="middle" fill="red" > D1</text>
<text x="12" y="375" font-family="Verdana" font-size="10" text-anchor="middle"  dominant-baseline="middle" fill="red" > D2</text>
<text x="12" y="519" font-family="Verdana" font-size="10" text-anchor="middle"  dominant-baseline="middle" fill="red" > D3</text>
<text x="12" y="663" font-family="Verdana" font-size="10" text-anchor="middle"  dominant-baseline="middle" fill="red" > D4</text>
<text x="12" y="20" font-family="Verdana" font-size="10" text-anchor="middle"  dominant-baseline="middle" fill="black" > 0</text>
<text x="12" y="164" font-family="Verdana" font-size="10" text-anchor="middle"  dominant-baseline="middle" fill="black" > 144</text>
<text x="12" y="308" font-family="Verdana" font-size="10" text-anchor="middle"  dominant-baseline="middle" fill="black" > 288</text>
<text x="12" y="452" font-family="Verdana" font-size="10" text-anchor="middle"  dominant-baseline="middle" fill="black" > 432</text>
<text x="12" y="596" font-family="Verdana" font-size="10" text-anchor="middle"  dominant-baseline="middle" fill="black" > 576</text>
<text x="12" y="740" font-family="Verdana" font-size="10" text-anchor="middle"  dominant-baseline="middle" fill="black" > 720</text>
<text x="50" y="7" font-family="Verdana" font-size="7" text-anchor="middle"  dominant-baseline="middle" fill="black" > C1</text>
<circle cx="50" cy="15" r="4" fill="white" stroke="black" />
<line x1="50" y1="19" x2="50" y2="83" stroke="black" />
<line x1="46" y1="87" x2="50" y2="79" stroke="blue" />
<line x1="50" y1="87" x2="54" y2="79" stroke="blue" />
<text x="50" y="95" font-family="Verdana" font-size="8" text-anchor="middle"  dominant-baseline="middle" fill="black" > 68</text>
<text x="150" y="7" font-family="Verdana" font-size="7" text-anchor="middle"  dominant-baseline="middle" fill="black" > C2</text>
<circle cx="150" cy="15" r="4" fill="white" stroke="black" />
<line x1="150" y1="19" x2="150" y2="409" stroke="black" />
<line x1="146" y1="405" x2="154" y2="413" stroke="red" />
<line x1="146" y1="413" x2="154" y2="405" stroke="red" />
<text x="150" y="421" font-family="Verdana" font-size="8" text-anchor="middle"  dominant-baseline="middle" fill="black" > 394</text>
<text x="250" y="7" font-family="Verdana" font-size="7" text-anchor="middle"  dominant-baseline="middle" fill="black" > C3</text>
<circle cx="250" cy="15" r="4" fill="white" stroke="black" />
<line x1="250" y1="19" x2="250" y2="412" stroke="black" />
<line x1="246" y1="416" x2="250" y2="408" stroke="blue" />
<line x1="250" y1="416" x2="254" y2="408" stroke="blue" />
<text x="250" y="424" font-family="Verdana" font-size="8" text-anchor="middle"  dominant-baseline="middle" fill="black" > 397</text>
<text x="350" y="7" font-family="Verdana" font-size="7" text-anchor="middle"  dominant-baseline="middle" fill="black" > C4</text>
<circle cx="350" cy="15" r="4" fill="white" stroke="black" />
<line x1="350" y1="19" x2="350" y2="423" stroke="black" />
<line x1="346" y1="419" x2="354" y2="427" stroke="red" />
<line x1="346" y1="427" x2="354" y2="419" stroke="red" />
<text x="350" y="435" font-family="Verdana" font-size="8" text-anchor="middle"  dominant-baseline="middle" fill="black" > 408</text>
<text x="600" y="7" font-family="Verdana" font-size="7" text-anchor="middle"  dominant-baseline="middle" fill="black" > C5</text>
<circle cx="600" cy="15" r="4" fill="white" stroke="black" />
<line x1="600" y1="19" x2="600" y2="218" stroke="black" />
<line x1="450" y1="218" x2="750" y2="218" stroke="black" />
<text x="625" y="210" font-family="Verdana" font-size="8" text-anchor="middle"  dominant-baseline="middle" fill="black" > 203</text>
<circle cx="450" cy="218" r="4" fill="white" stroke="black" />
<circle cx="550" cy="218" r="4" fill="white" stroke="black" />
<line x1="450" y1="222" x2="450" y2="230" stroke="black" />
<line x1="450" y1="230" x2="500" y2="234" stroke="black" />
<line x1="550" y1="222" x2="550" y2="230" stroke="black" />
<line x1="550" y1="230" x2="500" y2="234" stroke="black" />
<text x="500" y="222" font-family="Verdana" font-size="8" text-anchor="middle"  dominant-baseline="middle" fill="black" > 219</text>
<circle cx="500" cy="234" r="4" fill="white" stroke="black" />
<circle cx="650" cy="218" r="4" fill="white" stroke="black" />
<line x1="500" y1="238" x2="500" y2="246" stroke="black" />
<line x1="500" y1="246" x2="575" y2="250" stroke="black" />
<line x1="650" y1="222" x2="650" y2="246" stroke="black" />
<line x1="650" y1="246" x2="575" y2="250" stroke="black" />
<text x="575" y="238" font-family="Verdana" font-size="8" text-anchor="middle"  dominant-baseline="middle" fill="black" > 235</text>
<circle cx="575" cy="250" r="4" fill="white" stroke="black" />
<line x1="575" y1="254" x2="575" y2="438" stroke="black" />
<line x1="525" y1="438" x2="625" y2="438" stroke="black" />
<text x="587" y="430" font-family="Verdana" font-size="8" text-anchor="middle"  dominant-baseline="middle" fill="black" > 423</text>
<circle cx="525" cy="438" r="4" fill="white" stroke="black" />
<line x1="525" y1="442" x2="525" y2="463" stroke="black" />
<line x1="521" y1="459" x2="529" y2="467" stroke="red" />
<line x1="521" y1="467" x2="529" y2="459" stroke="red" />
<text x="525" y="475" font-family="Verdana" font-size="8" text-anchor="middle"  dominant-baseline="middle" fill="black" > 448</text>
<circle cx="575" cy="438" r="4" fill="white" stroke="black" />
<line x1="575" y1="442" x2="575" y2="464" stroke="black" />
<line x1="571" y1="460" x2="579" y2="468" stroke="red" />
<line x1="571" y1="468" x2="579" y2="460" stroke="red" />
<text x="575" y="476" font-family="Verdana" font-size="8" text-anchor="middle"  dominant-baseline="middle" fill="black" > 449</text>
<circle cx="625" cy="438" r="4" fill="white" stroke="black" />
<line x1="625" y1="442" x2="625" y2="464" stroke="black" />
<line x1="621" y1="460" x2="629" y2="468" stroke="red" />
<line x1="621" y1="468" x2="629" y2="460" stroke="red" />
<text x="625" y="476" font-family="Verdana" font-size="8" text-anchor="middle"  dominant-baseline="middle" fill="black" > 449</text>
<circle cx="750" cy="218" r="4" fill="white" stroke="black" />
<line x1="750" y1="222" x2="750" y2="308" stroke="black" />
<line x1="746" y1="304" x2="754" y2="312" stroke="red" />
<line x1="746" y1="312" x2="754" y2="304" stroke="red" />
<text x="750" y="320" font-family="Verdana" font-size="8" text-anchor="middle"  dominant-baseline="middle" fill="black" > 293</text>
<text x="850" y="7" font-family="Verdana" font-size="7" text-anchor="middle"  dominant-baseline="middle" fill="black" > C23</text>
<circle cx="850" cy="15" r="4" fill="white" stroke="black" />
<text x="950" y="7" font-family="Verdana" font-size="7" text-anchor="middle"  dominant-baseline="middle" fill="black" > C6</text>
<circle cx="950" cy="15" r="4" fill="white" stroke="black" />
<line x1="850" y1="19" x2="850" y2="168" stroke="black" />
<line x1="850" y1="168" x2="900" y2="218" stroke="black" />
<line x1="950" y1="19" x2="950" y2="168" stroke="black" />
<line x1="950" y1="168" x2="900" y2="218" stroke="black" />
<text x="900" y="206" font-family="Verdana" font-size="8" text-anchor="middle"  dominant-baseline="middle" fill="black" > 203</text>
<circle cx="900" cy="218" r="4" fill="white" stroke="black" />
<line x1="900" y1="222" x2="900" y2="401" stroke="black" />
<line x1="862" y1="401" x2="938" y2="401" stroke="black" />
<text x="906" y="393" font-family="Verdana" font-size="8" text-anchor="middle"  dominant-baseline="middle" fill="black" > 386</text>
<circle cx="862" cy="401" r="4" fill="white" stroke="black" />
<line x1="862" y1="405" x2="862" y2="417" stroke="black" />
<line x1="858" y1="413" x2="866" y2="421" stroke="red" />
<line x1="858" y1="421" x2="866" y2="413" stroke="red" />
<text x="862" y="429" font-family="Verdana" font-size="8" text-anchor="middle"  dominant-baseline="middle" fill="black" > 402</text>
<circle cx="887" cy="401" r="4" fill="white" stroke="black" />
<line x1="887" y1="405" x2="887" y2="418" stroke="black" />
<line x1="883" y1="414" x2="891" y2="422" stroke="red" />
<line x1="883" y1="422" x2="891" y2="414" stroke="red" />
<text x="887" y="430" font-family="Verdana" font-size="8" text-anchor="middle"  dominant-baseline="middle" fill="black" > 403</text>
<circle cx="912" cy="401" r="4" fill="white" stroke="black" />
<circle cx="937" cy="401" r="4" fill="white" stroke="black" />
<line x1="912" y1="405" x2="912" y2="410" stroke="black" />
<line x1="912" y1="410" x2="924" y2="412" stroke="black" />
<line x1="937" y1="405" x2="937" y2="410" stroke="black" />
<line x1="937" y1="410" x2="924" y2="412" stroke="black" />
<text x="924" y="400" font-family="Verdana" font-size="8" text-anchor="middle"  dominant-baseline="middle" fill="black" > 397</text>
<circle cx="924" cy="412" r="4" fill="white" stroke="black" />
<line x1="924" y1="416" x2="924" y2="416" stroke="black" />
<line x1="920" y1="412" x2="928" y2="420" stroke="red" />
<line x1="920" y1="420" x2="928" y2="412" stroke="red" />
<text x="924" y="428" font-family="Verdana" font-size="8" text-anchor="middle"  dominant-baseline="middle" fill="black" > 401</text>
<text x="1200" y="7" font-family="Verdana" font-size="7" text-anchor="middle"  dominant-baseline="middle" fill="black" > C7</text>
<circle cx="1200" cy="15" r="4" fill="white" stroke="black" />
<line x1="1200" y1="19" x2="1200" y2="330" stroke="black" />
<line x1="1050" y1="330" x2="1350" y2="330" stroke="black" />
<text x="1225" y="322" font-family="Verdana" font-size="8" text-anchor="middle"  dominant-baseline="middle" fill="black" > 315</text>
<circle cx="1050" cy="330" r="4" fill="white" stroke="black" />
<line x1="1050" y1="334" x2="1050" y2="520" stroke="black" />
<line x1="1046" y1="516" x2="1054" y2="524" stroke="red" />
<line x1="1046" y1="524" x2="1054" y2="516" stroke="red" />
<text x="1050" y="532" font-family="Verdana" font-size="8" text-anchor="middle"  dominant-baseline="middle" fill="black" > 505</text>
<circle cx="1150" cy="330" r="4" fill="white" stroke="black" />
<circle cx="1250" cy="330" r="4" fill="white" stroke="black" />
<line x1="1150" y1="334" x2="1150" y2="336" stroke="black" />
<line x1="1150" y1="336" x2="1200" y2="338" stroke="black" />
<line x1="1250" y1="334" x2="1250" y2="336" stroke="black" />
<line x1="1250" y1="336" x2="1200" y2="338" stroke="black" />
<text x="1200" y="326" font-family="Verdana" font-size="8" text-anchor="middle"  dominant-baseline="middle" fill="black" > 323</text>
<circle cx="1200" cy="338" r="4" fill="white" stroke="black" />
<circle cx="1350" cy="330" r="4" fill="white" stroke="black" />
<line x1="1200" y1="342" x2="1200" y2="344" stroke="black" />
<line x1="1200" y1="344" x2="1275" y2="345" stroke="black" />
<line x1="1350" y1="334" x2="1350" y2="344" stroke="black" />
<line x1="1350" y1="344" x2="1275" y2="345" stroke="black" />
<text x="1275" y="333" font-family="Verdana" font-size="8" text-anchor="middle"  dominant-baseline="middle" fill="black" > 330</text>
<circle cx="1275" cy="345" r="4" fill="white" stroke="black" />
<line x1="1275" y1="349" x2="1275" y2="487" stroke="black" />
<line x1="1271" y1="483" x2="1279" y2="491" stroke="red" />
<line x1="1271" y1="491" x2="1279" y2="483" stroke="red" />
<text x="1275" y="499" font-family="Verdana" font-size="8" text-anchor="middle"  dominant-baseline="middle" fill="black" > 472</text>
<text x="1600" y="7" font-family="Verdana" font-size="7" text-anchor="middle"  dominant-baseline="middle" fill="black" > C8</text>
<circle cx="1600" cy="15" r="4" fill="white" stroke="black" />
<line x1="1600" y1="19" x2="1600" y2="465" stroke="black" />
<line x1="1450" y1="465" x2="1750" y2="465" stroke="black" />
<text x="1625" y="457" font-family="Verdana" font-size="8" text-anchor="middle"  dominant-baseline="middle" fill="black" > 450</text>
<circle cx="1450" cy="465" r="4" fill="white" stroke="black" />
<circle cx="1550" cy="465" r="4" fill="white" stroke="black" />
<line x1="1450" y1="469" x2="1450" y2="481" stroke="black" />
<line x1="1450" y1="481" x2="1500" y2="486" stroke="black" />
<line x1="1550" y1="469" x2="1550" y2="481" stroke="black" />
<line x1="1550" y1="481" x2="1500" y2="486" stroke="black" />
<text x="1500" y="474" font-family="Verdana" font-size="8" text-anchor="middle"  dominant-baseline="middle" fill="black" > 471</text>
<circle cx="1500" cy="486" r="4" fill="white" stroke="black" />
<circle cx="1650" cy="465" r="4" fill="white" stroke="black" />
<line x1="1500" y1="490" x2="1500" y2="493" stroke="black" />
<line x1="1500" y1="493" x2="1575" y2="495" stroke="black" />
<line x1="1650" y1="469" x2="1650" y2="493" stroke="black" />
<line x1="1650" y1="493" x2="1575" y2="495" stroke="black" />
<text x="1575" y="483" font-family="Verdana" font-size="8" text-anchor="middle"  dominant-baseline="middle" fill="black" > 480</text>
<circle cx="1575" cy="495" r="4" fill="white" stroke="black" />
<circle cx="1750" cy="465" r="4" fill="white" stroke="black" />
<line x1="1575" y1="499" x2="1575" y2="519" stroke="black" />
<line x1="1575" y1="519" x2="1662" y2="527" stroke="black" />
<line x1="1750" y1="469" x2="1750" y2="519" stroke="black" />
<line x1="1750" y1="519" x2="1662" y2="527" stroke="black" />
<text x="1662" y="515" font-family="Verdana" font-size="8" text-anchor="middle"  dominant-baseline="middle" fill="black" > 512</text>
<circle cx="1662" cy="527" r="4" fill="white" stroke="black" />
<line x1="1662" y1="531" x2="1662" y2="668" stroke="black" />
<line x1="1658" y1="664" x2="1666" y2="672" stroke="red" />
<line x1="1658" y1="672" x2="1666" y2="664" stroke="red" />
<text x="1662" y="680" font-family="Verdana" font-size="8" text-anchor="middle"  dominant-baseline="middle" fill="black" > 653</text>
<text x="1850" y="7" font-family="Verdana" font-size="7" text-anchor="middle"  dominant-baseline="middle" fill="black" > C9</text>
<circle cx="1850" cy="15" r="4" fill="white" stroke="black" />
<line x1="1850" y1="19" x2="1850" y2="376" stroke="black" />
<line x1="1846" y1="372" x2="1854" y2="380" stroke="red" />
<line x1="1846" y1="380" x2="1854" y2="372" stroke="red" />
<text x="1850" y="388" font-family="Verdana" font-size="8" text-anchor="middle"  dominant-baseline="middle" fill="black" > 361</text>
<text x="2050" y="7" font-family="Verdana" font-size="7" text-anchor="middle"  dominant-baseline="middle" fill="black" > C10</text>
<circle cx="2050" cy="15" r="4" fill="white" stroke="black" />
<line x1="2050" y1="19" x2="2050" y2="278" stroke="black" />
<line x1="1950" y1="278" x2="2150" y2="278" stroke="black" />
<text x="2075" y="270" font-family="Verdana" font-size="8" text-anchor="middle"  dominant-baseline="middle" fill="black" > 263</text>
<circle cx="1950" cy="278" r="4" fill="white" stroke="black" />
<line x1="1950" y1="282" x2="1950" y2="420" stroke="black" />
<line x1="1946" y1="416" x2="1954" y2="424" stroke="red" />
<line x1="1946" y1="424" x2="1954" y2="416" stroke="red" />
<text x="1950" y="432" font-family="Verdana" font-size="8" text-anchor="middle"  dominant-baseline="middle" fill="black" > 405</text>
<circle cx="2050" cy="278" r="4" fill="white" stroke="black" />
<circle cx="2150" cy="278" r="4" fill="white" stroke="black" />
<line x1="2050" y1="282" x2="2050" y2="380" stroke="black" />
<line x1="2050" y1="380" x2="2100" y2="413" stroke="black" />
<line x1="2150" y1="282" x2="2150" y2="380" stroke="black" />
<line x1="2150" y1="380" x2="2100" y2="413" stroke="black" />
<text x="2100" y="401" font-family="Verdana" font-size="8" text-anchor="middle"  dominant-baseline="middle" fill="black" > 398</text>
<circle cx="2100" cy="413" r="4" fill="white" stroke="black" />
<line x1="2100" y1="417" x2="2100" y2="428" stroke="black" />
<line x1="2096" y1="424" x2="2104" y2="432" stroke="red" />
<line x1="2096" y1="432" x2="2104" y2="424" stroke="red" />
<text x="2100" y="440" font-family="Verdana" font-size="8" text-anchor="middle"  dominant-baseline="middle" fill="black" > 413</text>
<text x="2250" y="7" font-family="Verdana" font-size="7" text-anchor="middle"  dominant-baseline="middle" fill="black" > C11</text>
<circle cx="2250" cy="15" r="4" fill="white" stroke="black" />
<line x1="2250" y1="19" x2="2250" y2="428" stroke="black" />
<line x1="2246" y1="424" x2="2254" y2="432" stroke="red" />
<line x1="2246" y1="432" x2="2254" y2="424" stroke="red" />
<text x="2250" y="440" font-family="Verdana" font-size="8" text-anchor="middle"  dominant-baseline="middle" fill="black" > 413</text>
<text x="2350" y="7" font-family="Verdana" font-size="7" text-anchor="middle"  dominant-baseline="middle" fill="black" > C12</text>
<circle cx="2350" cy="15" r="4" fill="white" stroke="black" />
<line x1="2350" y1="19" x2="2350" y2="101" stroke="black" />
<line x1="2346" y1="105" x2="2350" y2="97" stroke="blue" />
<line x1="2350" y1="105" x2="2354" y2="97" stroke="blue" />
<text x="2350" y="113" font-family="Verdana" font-size="8" text-anchor="middle"  dominant-baseline="middle" fill="black" > 86</text>
<text x="2500" y="7" font-family="Verdana" font-size="7" text-anchor="middle"  dominant-baseline="middle" fill="black" > C13</text>
<circle cx="2500" cy="15" r="4" fill="white" stroke="black" />
<line x1="2500" y1="19" x2="2500" y2="189" stroke="black" />
<line x1="2450" y1="189" x2="2550" y2="189" stroke="black" />
<text x="2525" y="181" font-family="Verdana" font-size="8" text-anchor="middle"  dominant-baseline="middle" fill="black" > 174</text>
<circle cx="2450" cy="189" r="4" fill="white" stroke="black" />
<line x1="2450" y1="193" x2="2450" y2="373" stroke="black" />
<line x1="2446" y1="369" x2="2454" y2="377" stroke="red" />
<line x1="2446" y1="377" x2="2454" y2="369" stroke="red" />
<text x="2450" y="385" font-family="Verdana" font-size="8" text-anchor="middle"  dominant-baseline="middle" fill="black" > 358</text>
<circle cx="2550" cy="189" r="4" fill="white" stroke="black" />
<line x1="2550" y1="193" x2="2550" y2="352" stroke="black" />
<line x1="2546" y1="348" x2="2554" y2="356" stroke="red" />
<line x1="2546" y1="356" x2="2554" y2="348" stroke="red" />
<text x="2550" y="364" font-family="Verdana" font-size="8" text-anchor="middle"  dominant-baseline="middle" fill="black" > 337</text>
<text x="2700" y="7" font-family="Verdana" font-size="7" text-anchor="middle"  dominant-baseline="middle" fill="black" > C14</text>
<circle cx="2700" cy="15" r="4" fill="white" stroke="black" />
<line x1="2700" y1="19" x2="2700" y2="279" stroke="black" />
<line x1="2650" y1="279" x2="2750" y2="279" stroke="black" />
<text x="2725" y="271" font-family="Verdana" font-size="8" text-anchor="middle"  dominant-baseline="middle" fill="black" > 264</text>
<circle cx="2650" cy="279" r="4" fill="white" stroke="black" />
<line x1="2650" y1="283" x2="2650" y2="396" stroke="black" />
<line x1="2646" y1="392" x2="2654" y2="400" stroke="red" />
<line x1="2646" y1="400" x2="2654" y2="392" stroke="red" />
<text x="2650" y="408" font-family="Verdana" font-size="8" text-anchor="middle"  dominant-baseline="middle" fill="black" > 381</text>
<circle cx="2750" cy="279" r="4" fill="white" stroke="black" />
<line x1="2750" y1="283" x2="2750" y2="431" stroke="black" />
<line x1="2716" y1="431" x2="2784" y2="431" stroke="black" />
<text x="2758" y="423" font-family="Verdana" font-size="8" text-anchor="middle"  dominant-baseline="middle" fill="black" > 416</text>
<circle cx="2716" cy="431" r="4" fill="white" stroke="black" />
<line x1="2716" y1="435" x2="2716" y2="438" stroke="black" />
<line x1="2712" y1="434" x2="2720" y2="442" stroke="red" />
<line x1="2712" y1="442" x2="2720" y2="434" stroke="red" />
<text x="2716" y="450" font-family="Verdana" font-size="8" text-anchor="middle"  dominant-baseline="middle" fill="black" > 423</text>
<circle cx="2749" cy="431" r="4" fill="white" stroke="black" />
<line x1="2749" y1="435" x2="2749" y2="439" stroke="black" />
<line x1="2745" y1="435" x2="2753" y2="443" stroke="red" />
<line x1="2745" y1="443" x2="2753" y2="435" stroke="red" />
<text x="2749" y="451" font-family="Verdana" font-size="8" text-anchor="middle"  dominant-baseline="middle" fill="black" > 424</text>
<circle cx="2782" cy="431" r="4" fill="white" stroke="black" />
<line x1="2782" y1="435" x2="2782" y2="440" stroke="black" />
<line x1="2778" y1="436" x2="2786" y2="444" stroke="red" />
<line x1="2778" y1="444" x2="2786" y2="436" stroke="red" />
<text x="2782" y="452" font-family="Verdana" font-size="8" text-anchor="middle"  dominant-baseline="middle" fill="black" > 425</text>
<text x="2900" y="7" font-family="Verdana" font-size="7" text-anchor="middle"  dominant-baseline="middle" fill="black" > C15</text>
<circle cx="2900" cy="15" r="4" fill="white" stroke="black" />
<line x1="2900" y1="19" x2="2900" y2="403" stroke="black" />
<line x1="2850" y1="403" x2="2950" y2="403" stroke="black" />
<text x="2925" y="395" font-family="Verdana" font-size="8" text-anchor="middle"  dominant-baseline="middle" fill="black" > 388</text>
<circle cx="2850" cy="403" r="4" fill="white" stroke="black" />
<circle cx="2950" cy="403" r="4" fill="white" stroke="black" />
<line x1="2850" y1="407" x2="2850" y2="412" stroke="black" />
<line x1="2850" y1="412" x2="2900" y2="415" stroke="black" />
<line x1="2950" y1="407" x2="2950" y2="412" stroke="black" />
<line x1="2950" y1="412" x2="2900" y2="415" stroke="black" />
<text x="2900" y="403" font-family="Verdana" font-size="8" text-anchor="middle"  dominant-baseline="middle" fill="black" > 400</text>
<circle cx="2900" cy="415" r="4" fill="white" stroke="black" />
<line x1="2900" y1="419" x2="2900" y2="495" stroke="black" />
<line x1="2896" y1="491" x2="2904" y2="499" stroke="red" />
<line x1="2896" y1="499" x2="2904" y2="491" stroke="red" />
<text x="2900" y="507" font-family="Verdana" font-size="8" text-anchor="middle"  dominant-baseline="middle" fill="black" > 480</text>
<text x="3200" y="7" font-family="Verdana" font-size="7" text-anchor="middle"  dominant-baseline="middle" fill="black" > C16</text>
<circle cx="3200" cy="15" r="4" fill="white" stroke="black" />
<line x1="3200" y1="19" x2="3200" y2="264" stroke="black" />
<line x1="3050" y1="264" x2="3350" y2="264" stroke="black" />
<text x="3225" y="256" font-family="Verdana" font-size="8" text-anchor="middle"  dominant-baseline="middle" fill="black" > 249</text>
<circle cx="3050" cy="264" r="4" fill="white" stroke="black" />
<line x1="3050" y1="268" x2="3050" y2="462" stroke="black" />
<line x1="3046" y1="458" x2="3054" y2="466" stroke="red" />
<line x1="3046" y1="466" x2="3054" y2="458" stroke="red" />
<text x="3050" y="474" font-family="Verdana" font-size="8" text-anchor="middle"  dominant-baseline="middle" fill="black" > 447</text>
<circle cx="3150" cy="264" r="4" fill="white" stroke="black" />
<circle cx="3250" cy="264" r="4" fill="white" stroke="black" />
<line x1="3150" y1="268" x2="3150" y2="277" stroke="black" />
<line x1="3150" y1="277" x2="3200" y2="281" stroke="black" />
<line x1="3250" y1="268" x2="3250" y2="277" stroke="black" />
<line x1="3250" y1="277" x2="3200" y2="281" stroke="black" />
<text x="3200" y="269" font-family="Verdana" font-size="8" text-anchor="middle"  dominant-baseline="middle" fill="black" > 266</text>
<circle cx="3200" cy="281" r="4" fill="white" stroke="black" />
<circle cx="3350" cy="264" r="4" fill="white" stroke="black" />
<line x1="3200" y1="285" x2="3200" y2="285" stroke="black" />
<line x1="3200" y1="285" x2="3275" y2="286" stroke="black" />
<line x1="3350" y1="268" x2="3350" y2="285" stroke="black" />
<line x1="3350" y1="285" x2="3275" y2="286" stroke="black" />
<text x="3275" y="274" font-family="Verdana" font-size="8" text-anchor="middle"  dominant-baseline="middle" fill="black" > 271</text>
<circle cx="3275" cy="286" r="4" fill="white" stroke="black" />
<line x1="3275" y1="290" x2="3275" y2="736" stroke="black" />
<circle cx="3275" cy="736" r="4" fill="white" stroke="black" />
<text x="3275" y="748" font-family="Verdana" font-size="8" text-anchor="middle"  dominant-baseline="middle" fill="black" > 721</text>
<text x="3450" y="7" font-family="Verdana" font-size="7" text-anchor="middle"  dominant-baseline="middle" fill="black" > C17</text>
<circle cx="3450" cy="15" r="4" fill="white" stroke="black" />
<line x1="3450" y1="19" x2="3450" y2="176" stroke="black" />
<line x1="3446" y1="180" x2="3450" y2="172" stroke="blue" />
<line x1="3450" y1="180" x2="3454" y2="172" stroke="blue" />
<text x="3450" y="188" font-family="Verdana" font-size="8" text-anchor="middle"  dominant-baseline="middle" fill="black" > 161</text>
<text x="3550" y="7" font-family="Verdana" font-size="7" text-anchor="middle"  dominant-baseline="middle" fill="black" > C18</text>
<circle cx="3550" cy="15" r="4" fill="white" stroke="black" />
<line x1="3550" y1="19" x2="3550" y2="33" stroke="black" />
<line x1="3546" y1="29" x2="3554" y2="37" stroke="red" />
<line x1="3546" y1="37" x2="3554" y2="29" stroke="red" />
<text x="3550" y="45" font-family="Verdana" font-size="8" text-anchor="middle"  dominant-baseline="middle" fill="black" > 18</text>
<text x="3650" y="7" font-family="Verdana" font-size="7" text-anchor="middle"  dominant-baseline="middle" fill="black" > C19</text>
<circle cx="3650" cy="15" r="4" fill="white" stroke="black" />
<line x1="3650" y1="19" x2="3650" y2="239" stroke="black" />
<line x1="3646" y1="243" x2="3650" y2="235" stroke="blue" />
<line x1="3650" y1="243" x2="3654" y2="235" stroke="blue" />
<text x="3650" y="251" font-family="Verdana" font-size="8" text-anchor="middle"  dominant-baseline="middle" fill="black" > 224</text>
<text x="3750" y="7" font-family="Verdana" font-size="7" text-anchor="middle"  dominant-baseline="middle" fill="black" > C20</text>
<circle cx="3750" cy="15" r="4" fill="white" stroke="black" />
<line x1="3750" y1="19" x2="3750" y2="26" stroke="black" />
<line x1="3746" y1="30" x2="3750" y2="22" stroke="blue" />
<line x1="3750" y1="30" x2="3754" y2="22" stroke="blue" />
<text x="3750" y="38" font-family="Verdana" font-size="8" text-anchor="middle"  dominant-baseline="middle" fill="black" > 11</text>
<text x="3850" y="7" font-family="Verdana" font-size="7" text-anchor="middle"  dominant-baseline="middle" fill="black" > C21</text>
<circle cx="3850" cy="15" r="4" fill="white" stroke="black" />
<line x1="3850" y1="19" x2="3850" y2="45" stroke="black" />
<line x1="3846" y1="49" x2="3850" y2="41" stroke="blue" />
<line x1="3850" y1="49" x2="3854" y2="41" stroke="blue" />
<text x="3850" y="57" font-family="Verdana" font-size="8" text-anchor="middle"  dominant-baseline="middle" fill="black" > 30</text>
<text x="4000" y="7" font-family="Verdana" font-size="7" text-anchor="middle"  dominant-baseline="middle" fill="black" > C22</text>
<circle cx="4000" cy="15" r="4" fill="white" stroke="black" />
<line x1="4000" y1="19" x2="4000" y2="364" stroke="black" />
<line x1="3950" y1="364" x2="4050" y2="364" stroke="black" />
<text x="4025" y="356" font-family="Verdana" font-size="8" text-anchor="middle"  dominant-baseline="middle" fill="black" > 349</text>
<circle cx="3950" cy="364" r="4" fill="white" stroke="black" />
<circle cx="4050" cy="364" r="4" fill="white" stroke="black" />
<line x1="3950" y1="368" x2="3950" y2="379" stroke="black" />
<line x1="3950" y1="379" x2="4000" y2="383" stroke="black" />
<line x1="4050" y1="368" x2="4050" y2="379" stroke="black" />
<line x1="4050" y1="379" x2="4000" y2="383" stroke="black" />
<text x="4000" y="371" font-family="Verdana" font-size="8" text-anchor="middle"  dominant-baseline="middle" fill="black" > 368</text>
<circle cx="4000" cy="383" r="4" fill="white" stroke="black" />
<line x1="4000" y1="387" x2="4000" y2="395" stroke="black" />
<line x1="3996" y1="391" x2="4004" y2="399" stroke="red" />
<line x1="3996" y1="399" x2="4004" y2="391" stroke="red" />
<text x="4000" y="407" font-family="Verdana" font-size="8" text-anchor="middle"  dominant-baseline="middle" fill="black" > 380</text>
<text x="4200" y="7" font-family="Verdana" font-size="7" text-anchor="middle"  dominant-baseline="middle" fill="black" > C24</text>
<circle cx="4200" cy="15" r="4" fill="white" stroke="black" />
<line x1="4200" y1="19" x2="4200" y2="196" stroke="black" />
<line x1="4150" y1="196" x2="4250" y2="196" stroke="black" />
<text x="4225" y="188" font-family="Verdana" font-size="8" text-anchor="middle"  dominant-baseline="middle" fill="black" > 181</text>
<circle cx="4150" cy="196" r="4" fill="white" stroke="black" />
<line x1="4150" y1="200" x2="4150" y2="380" stroke="black" />
<line x1="4146" y1="384" x2="4150" y2="376" stroke="blue" />
<line x1="4150" y1="384" x2="4154" y2="376" stroke="blue" />
<text x="4150" y="392" font-family="Verdana" font-size="8" text-anchor="middle"  dominant-baseline="middle" fill="black" > 365</text>
<circle cx="4250" cy="196" r="4" fill="white" stroke="black" />
<line x1="4250" y1="200" x2="4250" y2="537" stroke="black" />
<line x1="4246" y1="533" x2="4254" y2="541" stroke="red" />
<line x1="4246" y1="541" x2="4254" y2="533" stroke="red" />
<text x="4250" y="549" font-family="Verdana" font-size="8" text-anchor="middle"  dominant-baseline="middle" fill="black" > 522</text>
</svg>
