<?xml version="1.0" encoding="utf-8"?>
<svg xmlns="http://www.w3.org/2000/svg" version="1.1" width="5950" height="750">
<rect width="5950" height="15" x="0" y="0" fill="white" />
<rect width="5950" height="15" x="0" y="735" fill="white" />
<rect width="25" height="750" x="0" y="0" fill="white" />
<rect width="25" height="750" x="5925" y="0" fill="white" />
<rect width="5910" height="144" x="25" y="15" fill="ghostwhite" />
<rect width="5910" height="144" x="25" y="159" fill="snow" />
<rect width="5910" height="144" x="25" y="303" fill="ghostwhite" />
<rect width="5910" height="144" x="25" y="447" fill="snow" />
<rect width="5910" height="144" x="25" y="591" fill="ghostwhite" />
<text x="12" y="87" font-family="Verdana" font-size="10" text-anchor="middle"  dominant-baseline="middle" fill="red" > D0</text>
<text x="12" y="231" font-family="Verdana" font-size="10" text-anchor="middle"  dominant-baseline="middle" fill="red" > D1</text>
<text x="12" y="375" font-family="Verdana" font-size="10" text-anchor="middle"  dominant-baseline="middle" fill="red" > D2</text>
<text x="12" y="519" font-family="Verdana" font-size="10" text-anchor="middle"  dominant-baseline="middle" fill="red" > D3</text>
<text x="12" y="663" font-family="Verdana" font-size="10" text-anchor="middle"  dominant-baseline="middle" fill="red" > D4</text>
<text x="12" y="20" font-family="Verdana" font-size="10" text-anchor="middle"  dominant-baseline="middle" fill="black" > 0</text>
<text x="12" y="164" font-family="Verdana" font-size="10" text-anchor="middle"  dominant-baseline="middle" fill="black" > 144</text>
<text x="12" y="308" font-family="Verdana" font-size="10" text-anchor="middle"  dominant-baseline="middle" fill="black" > 288</text>
<text x="12" y="452" font-family="Verdana" font-size="10" text-anchor="middle"  dominant-baseline="middle" fill="black" > 432</text>
<text x="12" y="596" font-family="Verdana" font-size="10" text-anchor="middle"  dominant-baseline="middle" fill="black" > 576</text>
<text x="12" y="740" font-family="Verdana" font-size="10" text-anchor="middle"  dominant-baseline="middle" fill="black" > 720</text>
<text x="100" y="7" font-family="Verdana" font-size="7" text-anchor="middle"  dominant-baseline="middle" fill="black" > C1</text>
<circle cx="100" cy="15" r="4" fill="white" stroke="black" />
<line x1="100" y1="19" x2="100" y2="207" stroke="black" />
<line x1="50" y1="207" x2="150" y2="207" stroke="black" />
<text x="125" y="199" font-family="Verdana" font-size="8" text-anchor="middle"  dominant-baseline="middle" fill="black" > 192</text>
<circle cx="50" cy="207" r="4" fill="white" stroke="black" />
<line x1="50" y1="211" x2="50" y2="454" stroke="black" />
<line x1="46" y1="458" x2="50" y2="450" stroke="blue" />
<line x1="50" y1="458" x2="54" y2="450" stroke="blue" />
<text x="50" y="466" font-family="Verdana" font-size="8" text-anchor="middle"  dominant-baseline="middle" fill="black" > 439</text>
<circle cx="150" cy="207" r="4" fill="white" stroke="black" />
<line x1="150" y1="211" x2="150" y2="449" stroke="black" />
<line x1="146" y1="453" x2="150" y2="445" stroke="blue" />
<line x1="150" y1="453" x2="154" y2="445" stroke="blue" />
<text x="150" y="461" font-family="Verdana" font-size="8" text-anchor="middle"  dominant-baseline="middle" fill="black" > 434</text>
<text x="300" y="7" font-family="Verdana" font-size="7" text-anchor="middle"  dominant-baseline="middle" fill="black" > C2</text>
<circle cx="300" cy="15" r="4" fill="white" stroke="black" />
<line x1="300" y1="19" x2="300" y2="224" stroke="black" />
<line x1="250" y1="224" x2="350" y2="224" stroke="black" />
<text x="325" y="216" font-family="Verdana" font-size="8" text-anchor="middle"  dominant-baseline="middle" fill="black" > 209</text>
<circle cx="250" cy="224" r="4" fill="white" stroke="black" />
<line x1="250" y1="228" x2="250" y2="736" stroke="black" />
<circle cx="250" cy="736" r="4" fill="white" stroke="black" />
<text x="250" y="748" font-family="Verdana" font-size="8" text-anchor="middle"  dominant-baseline="middle" fill="black" > 721</text>
<circle cx="350" cy="224" r="4" fill="white" stroke="black" />
<line x1="350" y1="228" x2="350" y2="462" stroke="black" />
<line x1="316" y1="462" x2="384" y2="462" stroke="black" />
<text x="358" y="454" font-family="Verdana" font-size="8" text-anchor="middle"  dominant-baseline="middle" fill="black" > 447</text>
<circle cx="316" cy="462" r="4" fill="white" stroke="black" />
<circle cx="349" cy="462" r="4" fill="white" stroke="black" />
<line x1="316" y1="466" x2="316" y2="487" stroke="black" />
<line x1="316" y1="487" x2="332" y2="495" stroke="black" />
<line x1="349" y1="466" x2="349" y2="487" stroke="black" />
<line x1="349" y1="487" x2="332" y2="495" stroke="black" />
<text x="332" y="483" font-family="Verdana" font-size="8" text-anchor="middle"  dominant-baseline="middle" fill="black" > 480</text>
<circle cx="332" cy="495" r="4" fill="white" stroke="black" />
<line x1="332" y1="499" x2="332" y2="629" stroke="black" />
<line x1="328" y1="625" x2="336" y2="633" stroke="red" />
<line x1="328" y1="633" x2="336" y2="625" stroke="red" />
<text x="332" y="641" font-family="Verdana" font-size="8" text-anchor="middle"  dominant-baseline="middle" fill="black" > 614</text>
<circle cx="382" cy="462" r="4" fill="white" stroke="black" />
<line x1="382" y1="466" x2="382" y2="539" stroke="black" />
<line x1="378" y1="535" x2="386" y2="543" stroke="red" />
<line x1="378" y1="543" x2="386" y2="535" stroke="red" />
<text x="382" y="551" font-family="Verdana" font-size="8" text-anchor="middle"  dominant-baseline="middle" fill="black" > 524</text>
<text x="550" y="7" font-family="Verdana" font-size="7" text-anchor="middle"  dominant-baseline="middle" fill="black" > C3</text>
<circle cx="550" cy="15" r="4" fill="white" stroke="black" />
<line x1="550" y1="19" x2="550" y2="340" stroke="black" />
<line x1="450" y1="340" x2="650" y2="340" stroke="black" />
<text x="575" y="332" font-family="Verdana" font-size="8" text-anchor="middle"  dominant-baseline="middle" fill="black" > 325</text>
<circle cx="450" cy="340" r="4" fill="white" stroke="black" />
<line x1="450" y1="344" x2="450" y2="492" stroke="black" />
<line x1="446" y1="488" x2="454" y2="496" stroke="red" />
<line x1="446" y1="496" x2="454" y2="488" stroke="red" />
<text x="450" y="504" font-family="Verdana" font-size="8" text-anchor="middle"  dominant-baseline="middle" fill="black" > 477</text>
<circle cx="550" cy="340" r="4" fill="white" stroke="black" />
<line x1="550" y1="344" x2="550" y2="646" stroke="black" />
<line x1="546" y1="642" x2="554" y2="650" stroke="red" />
<line x1="546" y1="650" x2="554" y2="642" stroke="red" />
<text x="550" y="658" font-family="Verdana" font-size="8" text-anchor="middle"  dominant-baseline="middle" fill="black" > 631</text>
<circle cx="650" cy="340" r="4" fill="white" stroke="black" />
<line x1="650" y1="344" x2="650" y2="500" stroke="black" />
<line x1="616" y1="500" x2="684" y2="500" stroke="black" />
<text x="658" y="492" font-family="Verdana" font-size="8" text-anchor="middle"  dominant-baseline="middle" fill="black" > 485</text>
<circle cx="616" cy="500" r="4" fill="white" stroke="black" />
<circle cx="649" cy="500" r="4" fill="white" stroke="black" />
<line x1="616" y1="504" x2="616" y2="518" stroke="black" />
<line x1="616" y1="518" x2="632" y2="524" stroke="black" />
<line x1="649" y1="504" x2="649" y2="518" stroke="black" />
<line x1="649" y1="518" x2="632" y2="524" stroke="black" />
<text x="632" y="512" font-family="Verdana" font-size="8" text-anchor="middle"  dominant-baseline="middle" fill="black" > 509</text>
<circle cx="632" cy="524" r="4" fill="white" stroke="black" />
<line x1="632" y1="528" x2="632" y2="644" stroke="black" />
<line x1="628" y1="640" x2="636" y2="648" stroke="red" />
<line x1="628" y1="648" x2="636" y2="640" stroke="red" />
<text x="632" y="656" font-family="Verdana" font-size="8" text-anchor="middle"  dominant-baseline="middle" fill="black" > 629</text>
<circle cx="682" cy="500" r="4" fill="white" stroke="black" />
<line x1="682" y1="504" x2="682" y2="592" stroke="black" />
<line x1="671" y1="592" x2="694" y2="592" stroke="black" />
<text x="684" y="584" font-family="Verdana" font-size="8" text-anchor="middle"  dominant-baseline="middle" fill="black" > 577</text>
<circle cx="671" cy="592" r="4" fill="white" stroke="black" />
<circle cx="682" cy="592" r="4" fill="white" stroke="black" />
<circle cx="693" cy="592" r="4" fill="white" stroke="black" />
<line x1="671" y1="596" x2="671" y2="597" stroke="black" />
<line x1="671" y1="597" x2="682" y2="598" stroke="black" />
<line x1="682" y1="596" x2="682" y2="597" stroke="black" />
<line x1="682" y1="597" x2="682" y2="598" stroke="black" />
<line x1="693" y1="596" x2="693" y2="597" stroke="black" />
<line x1="693" y1="597" x2="682" y2="598" stroke="black" />
<text x="682" y="586" font-family="Verdana" font-size="8" text-anchor="middle"  dominant-baseline="middle" fill="black" > 583</text>
<circle cx="682" cy="598" r="4" fill="white" stroke="black" />
<line x1="682" y1="602" x2="682" y2="620" stroke="black" />
<line x1="678" y1="616" x2="686" y2="624" stroke="red" />
<line x1="678" y1="624" x2="686" y2="616" stroke="red" />
<text x="682" y="632" font-family="Verdana" font-size="8" text-anchor="middle"  dominant-baseline="middle" fill="black" > 605</text>
<text x="900" y="7" font-family="Verdana" font-size="7" text-anchor="middle"  dominant-baseline="middle" fill="black" > C4</text>
<circle cx="900" cy="15" r="4" fill="white" stroke="black" />
<line x1="900" y1="19" x2="900" y2="362" stroke="black" />
<line x1="750" y1="362" x2="1050" y2="362" stroke="black" />
<text x="925" y="354" font-family="Verdana" font-size="8" text-anchor="middle"  dominant-baseline="middle" fill="black" > 347</text>
<circle cx="750" cy="362" r="4" fill="white" stroke="black" />
<circle cx="850" cy="362" r="4" fill="white" stroke="black" />
<circle cx="950" cy="362" r="4" fill="white" stroke="black" />
<line x1="750" y1="366" x2="750" y2="369" stroke="black" />
<line x1="750" y1="369" x2="850" y2="371" stroke="black" />
<line x1="850" y1="366" x2="850" y2="369" stroke="black" />
<line x1="850" y1="369" x2="850" y2="371" stroke="black" />
<line x1="950" y1="366" x2="950" y2="369" stroke="black" />
<line x1="950" y1="369" x2="850" y2="371" stroke="black" />
<text x="850" y="359" font-family="Verdana" font-size="8" text-anchor="middle"  dominant-baseline="middle" fill="black" > 356</text>
<circle cx="850" cy="371" r="4" fill="white" stroke="black" />
<circle cx="1050" cy="362" r="4" fill="white" stroke="black" />
<line x1="850" y1="375" x2="850" y2="377" stroke="black" />
<line x1="850" y1="377" x2="950" y2="378" stroke="black" />
<line x1="1050" y1="366" x2="1050" y2="377" stroke="black" />
<line x1="1050" y1="377" x2="950" y2="378" stroke="black" />
<text x="950" y="366" font-family="Verdana" font-size="8" text-anchor="middle"  dominant-baseline="middle" fill="black" > 363</text>
<circle cx="950" cy="378" r="4" fill="white" stroke="black" />
<line x1="950" y1="382" x2="950" y2="447" stroke="black" />
<line x1="946" y1="451" x2="950" y2="443" stroke="blue" />
<line x1="950" y1="451" x2="954" y2="443" stroke="blue" />
<text x="950" y="459" font-family="Verdana" font-size="8" text-anchor="middle"  dominant-baseline="middle" fill="black" > 432</text>
<text x="1200" y="7" font-family="Verdana" font-size="7" text-anchor="middle"  dominant-baseline="middle" fill="black" > C5</text>
<circle cx="1200" cy="15" r="4" fill="white" stroke="black" />
<line x1="1200" y1="19" x2="1200" y2="238" stroke="black" />
<line x1="1150" y1="238" x2="1250" y2="238" stroke="black" />
<text x="1225" y="230" font-family="Verdana" font-size="8" text-anchor="middle"  dominant-baseline="middle" fill="black" > 223</text>
<circle cx="1150" cy="238" r="4" fill="white" stroke="black" />
<line x1="1150" y1="242" x2="1150" y2="690" stroke="black" />
<line x1="1146" y1="686" x2="1154" y2="694" stroke="red" />
<line x1="1146" y1="694" x2="1154" y2="686" stroke="red" />
<text x="1150" y="702" font-family="Verdana" font-size="8" text-anchor="middle"  dominant-baseline="middle" fill="black" > 675</text>
<circle cx="1250" cy="238" r="4" fill="white" stroke="black" />
<line x1="1250" y1="242" x2="1250" y2="546" stroke="black" />
<line x1="1216" y1="546" x2="1284" y2="546" stroke="black" />
<text x="1258" y="538" font-family="Verdana" font-size="8" text-anchor="middle"  dominant-baseline="middle" fill="black" > 531</text>
<circle cx="1216" cy="546" r="4" fill="white" stroke="black" />
<circle cx="1249" cy="546" r="4" fill="white" stroke="black" />
<line x1="1216" y1="550" x2="1216" y2="558" stroke="black" />
<line x1="1216" y1="558" x2="1232" y2="561" stroke="black" />
<line x1="1249" y1="550" x2="1249" y2="558" stroke="black" />
<line x1="1249" y1="558" x2="1232" y2="561" stroke="black" />
<text x="1232" y="549" font-family="Verdana" font-size="8" text-anchor="middle"  dominant-baseline="middle" fill="black" > 546</text>
<circle cx="1232" cy="561" r="4" fill="white" stroke="black" />
<circle cx="1282" cy="546" r="4" fill="white" stroke="black" />
<line x1="1232" y1="565" x2="1232" y2="566" stroke="black" />
<line x1="1232" y1="566" x2="1257" y2="567" stroke="black" />
<line x1="1282" y1="550" x2="1282" y2="566" stroke="black" />
<line x1="1282" y1="566" x2="1257" y2="567" stroke="black" />
<text x="1257" y="555" font-family="Verdana" font-size="8" text-anchor="middle"  dominant-baseline="middle" fill="black" > 552</text>
<circle cx="1257" cy="567" r="4" fill="white" stroke="black" />
<line x1="1257" y1="571" x2="1257" y2="736" stroke="black" />
<circle cx="1257" cy="736" r="4" fill="white" stroke="black" />
<text x="1257" y="748" font-family="Verdana" font-size="8" text-anchor="middle"  dominant-baseline="middle" fill="black" > 721</text>
<text x="1400" y="7" font-family="Verdana" font-size="7" text-anchor="middle"  dominant-baseline="middle" fill="black" > C6</text>
<circle cx="1400" cy="15" r="4" fill="white" stroke="black" />
<line x1="1400" y1="19" x2="1400" y2="188" stroke="black" />
<line x1="1350" y1="188" x2="1450" y2="188" stroke="black" />
<text x="1425" y="180" font-family="Verdana" font-size="8" text-anchor="middle"  dominant-baseline="middle" fill="black" > 173</text>
<circle cx="1350" cy="188" r="4" fill="white" stroke="black" />
<line x1="1350" y1="192" x2="1350" y2="448" stroke="black" />
<line x1="1346" y1="452" x2="1350" y2="444" stroke="blue" />
<line x1="1350" y1="452" x2="1354" y2="444" stroke="blue" />
<text x="1350" y="460" font-family="Verdana" font-size="8" text-anchor="middle"  dominant-baseline="middle" fill="black" > 433</text>
<circle cx="1450" cy="188" r="4" fill="white" stroke="black" />
<line x1="1450" y1="192" x2="1450" y2="317" stroke="black" />
<line x1="1425" y1="317" x2="1475" y2="317" stroke="black" />
<text x="1462" y="309" font-family="Verdana" font-size="8" text-anchor="middle"  dominant-baseline="middle" fill="black" > 302</text>
<circle cx="1425" cy="317" r="4" fill="white" stroke="black" />
<line x1="1425" y1="321" x2="1425" y2="569" stroke="black" />
<line x1="1421" y1="565" x2="1429" y2="573" stroke="red" />
<line x1="1421" y1="573" x2="1429" y2="565" stroke="red" />
<text x="1425" y="581" font-family="Verdana" font-size="8" text-anchor="middle"  dominant-baseline="middle" fill="black" > 554</text>
<circle cx="1475" cy="317" r="4" fill="white" stroke="black" />
<line x1="1475" y1="321" x2="1475" y2="473" stroke="black" />
<line x1="1471" y1="477" x2="1475" y2="469" stroke="blue" />
<line x1="1475" y1="477" x2="1479" y2="469" stroke="blue" />
<text x="1475" y="485" font-family="Verdana" font-size="8" text-anchor="middle"  dominant-baseline="middle" fill="black" > 458</text>
<text x="1550" y="7" font-family="Verdana" font-size="7" text-anchor="middle"  dominant-baseline="middle" fill="black" > C7</text>
<circle cx="1550" cy="15" r="4" fill="white" stroke="black" />
<line x1="1550" y1="19" x2="1550" y2="330" stroke="black" />
<line x1="1546" y1="326" x2="1554" y2="334" stroke="red" />
<line x1="1546" y1="334" x2="1554" y2="326" stroke="red" />
<text x="1550" y="342" font-family="Verdana" font-size="8" text-anchor="middle"  dominant-baseline="middle" fill="black" > 315</text>
<text x="1800" y="7" font-family="Verdana" font-size="7" text-anchor="middle"  dominant-baseline="middle" fill="black" > C8</text>
<circle cx="1800" cy="15" r="4" fill="white" stroke="black" />
<line x1="1800" y1="19" x2="1800" y2="312" stroke="black" />
<line x1="1650" y1="312" x2="1950" y2="312" stroke="black" />
<text x="1825" y="304" font-family="Verdana" font-size="8" text-anchor="middle"  dominant-baseline="middle" fill="black" > 297</text>
<circle cx="1650" cy="312" r="4" fill="white" stroke="black" />
<circle cx="1750" cy="312" r="4" fill="white" stroke="black" />
<line x1="1650" y1="316" x2="1650" y2="333" stroke="black" />
<line x1="1650" y1="333" x2="1700" y2="339" stroke="black" />
<line x1="1750" y1="316" x2="1750" y2="333" stroke="black" />
<line x1="1750" y1="333" x2="1700" y2="339" stroke="black" />
<text x="1700" y="327" font-family="Verdana" font-size="8" text-anchor="middle"  dominant-baseline="middle" fill="black" > 324</text>
<circle cx="1700" cy="339" r="4" fill="white" stroke="black" />
<circle cx="1850" cy="312" r="4" fill="white" stroke="black" />
<circle cx="1950" cy="312" r="4" fill="white" stroke="black" />
<line x1="1850" y1="316" x2="1850" y2="333" stroke="black" />
<line x1="1850" y1="333" x2="1900" y2="340" stroke="black" />
<line x1="1950" y1="316" x2="1950" y2="333" stroke="black" />
<line x1="1950" y1="333" x2="1900" y2="340" stroke="black" />
<text x="1900" y="328" font-family="Verdana" font-size="8" text-anchor="middle"  dominant-baseline="middle" fill="black" > 325</text>
<circle cx="1900" cy="340" r="4" fill="white" stroke="black" />
<line x1="1700" y1="343" x2="1700" y2="343" stroke="black" />
<line x1="1700" y1="343" x2="1800" y2="343" stroke="black" />
<line x1="1900" y1="344" x2="1900" y2="343" stroke="black" />
<line x1="1900" y1="343" x2="1800" y2="343" stroke="black" />
<text x="1800" y="331" font-family="Verdana" font-size="8" text-anchor="middle"  dominant-baseline="middle" fill="black" > 328</text>
<circle cx="1800" cy="343" r="4" fill="white" stroke="black" />
<line x1="1800" y1="347" x2="1800" y2="480" stroke="black" />
<line x1="1796" y1="476" x2="1804" y2="484" stroke="red" />
<line x1="1796" y1="484" x2="1804" y2="476" stroke="red" />
<text x="1800" y="492" font-family="Verdana" font-size="8" text-anchor="middle"  dominant-baseline="middle" fill="black" > 465</text>
<text x="2050" y="7" font-family="Verdana" font-size="7" text-anchor="middle"  dominant-baseline="middle" fill="black" > C9</text>
<circle cx="2050" cy="15" r="4" fill="white" stroke="black" />
<line x1="2050" y1="19" x2="2050" y2="53" stroke="black" />
<line x1="2046" y1="57" x2="2050" y2="49" stroke="blue" />
<line x1="2050" y1="57" x2="2054" y2="49" stroke="blue" />
<text x="2050" y="65" font-family="Verdana" font-size="8" text-anchor="middle"  dominant-baseline="middle" fill="black" > 38</text>
<text x="2150" y="7" font-family="Verdana" font-size="7" text-anchor="middle"  dominant-baseline="middle" fill="black" > C10</text>
<circle cx="2150" cy="15" r="4" fill="white" stroke="black" />
<line x1="2150" y1="19" x2="2150" y2="321" stroke="black" />
<line x1="2146" y1="317" x2="2154" y2="325" stroke="red" />
<line x1="2146" y1="325" x2="2154" y2="317" stroke="red" />
<text x="2150" y="333" font-family="Verdana" font-size="8" text-anchor="middle"  dominant-baseline="middle" fill="black" > 306</text>
<text x="2250" y="7" font-family="Verdana" font-size="7" text-anchor="middle"  dominant-baseline="middle" fill="black" > C11</text>
<circle cx="2250" cy="15" r="4" fill="white" stroke="black" />
<line x1="2250" y1="19" x2="2250" y2="340" stroke="black" />
<line x1="2246" y1="344" x2="2250" y2="336" stroke="blue" />
<line x1="2250" y1="344" x2="2254" y2="336" stroke="blue" />
<text x="2250" y="352" font-family="Verdana" font-size="8" text-anchor="middle"  dominant-baseline="middle" fill="black" > 325</text>
<text x="2450" y="7" font-family="Verdana" font-size="7" text-anchor="middle"  dominant-baseline="middle" fill="black" > C12</text>
<circle cx="2450" cy="15" r="4" fill="white" stroke="black" />
<line x1="2450" y1="19" x2="2450" y2="422" stroke="black" />
<line x1="2350" y1="422" x2="2550" y2="422" stroke="black" />
<text x="2475" y="414" font-family="Verdana" font-size="8" text-anchor="middle"  dominant-baseline="middle" fill="black" > 407</text>
<circle cx="2350" cy="422" r="4" fill="white" stroke="black" />
<circle cx="2450" cy="422" r="4" fill="white" stroke="black" />
<circle cx="2550" cy="422" r="4" fill="white" stroke="black" />
<line x1="2350" y1="426" x2="2350" y2="451" stroke="black" />
<line x1="2350" y1="451" x2="2450" y2="460" stroke="black" />
<line x1="2450" y1="426" x2="2450" y2="451" stroke="black" />
<line x1="2450" y1="451" x2="2450" y2="460" stroke="black" />
<line x1="2550" y1="426" x2="2550" y2="451" stroke="black" />
<line x1="2550" y1="451" x2="2450" y2="460" stroke="black" />
<text x="2450" y="448" font-family="Verdana" font-size="8" text-anchor="middle"  dominant-baseline="middle" fill="black" > 445</text>
<circle cx="2450" cy="460" r="4" fill="white" stroke="black" />
<line x1="2450" y1="464" x2="2450" y2="601" stroke="black" />
<line x1="2446" y1="597" x2="2454" y2="605" stroke="red" />
<line x1="2446" y1="605" x2="2454" y2="597" stroke="red" />
<text x="2450" y="613" font-family="Verdana" font-size="8" text-anchor="middle"  dominant-baseline="middle" fill="black" > 586</text>
<text x="2700" y="7" font-family="Verdana" font-size="7" text-anchor="middle"  dominant-baseline="middle" fill="black" > C13</text>
<circle cx="2700" cy="15" r="4" fill="white" stroke="black" />
<line x1="2700" y1="19" x2="2700" y2="175" stroke="black" />
<line x1="2650" y1="175" x2="2750" y2="175" stroke="black" />
<text x="2725" y="167" font-family="Verdana" font-size="8" text-anchor="middle"  dominant-baseline="middle" fill="black" > 160</text>
<circle cx="2650" cy="175" r="4" fill="white" stroke="black" />
<line x1="2650" y1="179" x2="2650" y2="722" stroke="black" />
<line x1="2646" y1="718" x2="2654" y2="726" stroke="red" />
<line x1="2646" y1="726" x2="2654" y2="718" stroke="red" />
<text x="2650" y="734" font-family="Verdana" font-size="8" text-anchor="middle"  dominant-baseline="middle" fill="black" > 707</text>
<circle cx="2750" cy="175" r="4" fill="white" stroke="black" />
<line x1="2750" y1="179" x2="2750" y2="475" stroke="black" />
<line x1="2716" y1="475" x2="2784" y2="475" stroke="black" />
<text x="2758" y="467" font-family="Verdana" font-size="8" text-anchor="middle"  dominant-baseline="middle" fill="black" > 460</text>
<circle cx="2716" cy="475" r="4" fill="white" stroke="black" />
<circle cx="2749" cy="475" r="4" fill="white" stroke="black" />
<line x1="2716" y1="479" x2="2716" y2="617" stroke="black" />
<line x1="2716" y1="617" x2="2732" y2="664" stroke="black" />
<line x1="2749" y1="479" x2="2749" y2="617" stroke="black" />
<line x1="2749" y1="617" x2="2732" y2="664" stroke="black" />
<text x="2732" y="652" font-family="Verdana" font-size="8" text-anchor="middle"  dominant-baseline="middle" fill="black" > 649</text>
<circle cx="2732" cy="664" r="4" fill="white" stroke="black" />
<circle cx="2782" cy="475" r="4" fill="white" stroke="black" />
<line x1="2732" y1="668" x2="2732" y2="673" stroke="black" />
<line x1="2732" y1="673" x2="2757" y2="675" stroke="black" />
<line x1="2782" y1="479" x2="2782" y2="673" stroke="black" />
<line x1="2782" y1="673" x2="2757" y2="675" stroke="black" />
<text x="2757" y="663" font-family="Verdana" font-size="8" text-anchor="middle"  dominant-baseline="middle" fill="black" > 660</text>
<circle cx="2757" cy="675" r="4" fill="white" stroke="black" />
<line x1="2757" y1="679" x2="2757" y2="625" stroke="black" />
<line x1="2753" y1="621" x2="2761" y2="629" stroke="red" />
<line x1="2753" y1="629" x2="2761" y2="621" stroke="red" />
<text x="2757" y="637" font-family="Verdana" font-size="8" text-anchor="middle"  dominant-baseline="middle" fill="black" > 610</text>
<text x="2850" y="7" font-family="Verdana" font-size="7" text-anchor="middle"  dominant-baseline="middle" fill="black" > C14</text>
<circle cx="2850" cy="15" r="4" fill="white" stroke="black" />
<line x1="2850" y1="19" x2="2850" y2="304" stroke="black" />
<line x1="2846" y1="300" x2="2854" y2="308" stroke="red" />
<line x1="2846" y1="308" x2="2854" y2="300" stroke="red" />
<text x="2850" y="316" font-family="Verdana" font-size="8" text-anchor="middle"  dominant-baseline="middle" fill="black" > 289</text>
<text x="3100" y="7" font-family="Verdana" font-size="7" text-anchor="middle"  dominant-baseline="middle" fill="black" > C15</text>
<circle cx="3100" cy="15" r="4" fill="white" stroke="black" />
<line x1="3100" y1="19" x2="3100" y2="280" stroke="black" />
<line x1="2950" y1="280" x2="3250" y2="280" stroke="black" />
<text x="3125" y="272" font-family="Verdana" font-size="8" text-anchor="middle"  dominant-baseline="middle" fill="black" > 265</text>
<circle cx="2950" cy="280" r="4" fill="white" stroke="black" />
<circle cx="3050" cy="280" r="4" fill="white" stroke="black" />
<line x1="2950" y1="284" x2="2950" y2="297" stroke="black" />
<line x1="2950" y1="297" x2="3000" y2="302" stroke="black" />
<line x1="3050" y1="284" x2="3050" y2="297" stroke="black" />
<line x1="3050" y1="297" x2="3000" y2="302" stroke="black" />
<text x="3000" y="290" font-family="Verdana" font-size="8" text-anchor="middle"  dominant-baseline="middle" fill="black" > 287</text>
<circle cx="3000" cy="302" r="4" fill="white" stroke="black" />
<line x1="3000" y1="306" x2="3000" y2="464" stroke="black" />
<line x1="2966" y1="464" x2="3034" y2="464" stroke="black" />
<text x="3008" y="456" font-family="Verdana" font-size="8" text-anchor="middle"  dominant-baseline="middle" fill="black" > 449</text>
<circle cx="2966" cy="464" r="4" fill="white" stroke="black" />
<circle cx="2999" cy="464" r="4" fill="white" stroke="black" />
<circle cx="3032" cy="464" r="4" fill="white" stroke="black" />
<line x1="2966" y1="468" x2="2966" y2="482" stroke="black" />
<line x1="2966" y1="482" x2="2999" y2="487" stroke="black" />
<line x1="2999" y1="468" x2="2999" y2="482" stroke="black" />
<line x1="2999" y1="482" x2="2999" y2="487" stroke="black" />
<line x1="3032" y1="468" x2="3032" y2="482" stroke="black" />
<line x1="3032" y1="482" x2="2999" y2="487" stroke="black" />
<text x="2999" y="475" font-family="Verdana" font-size="8" text-anchor="middle"  dominant-baseline="middle" fill="black" > 472</text>
<circle cx="2999" cy="487" r="4" fill="white" stroke="black" />
<line x1="2999" y1="491" x2="2999" y2="629" stroke="black" />
<line x1="2995" y1="625" x2="3003" y2="633" stroke="red" />
<line x1="2995" y1="633" x2="3003" y2="625" stroke="red" />
<text x="2999" y="641" font-family="Verdana" font-size="8" text-anchor="middle"  dominant-baseline="middle" fill="black" > 614</text>
<circle cx="3150" cy="280" r="4" fill="white" stroke="black" />
<circle cx="3250" cy="280" r="4" fill="white" stroke="black" />
<line x1="3150" y1="284" x2="3150" y2="295" stroke="black" />
<line x1="3150" y1="295" x2="3200" y2="300" stroke="black" />
<line x1="3250" y1="284" x2="3250" y2="295" stroke="black" />
<line x1="3250" y1="295" x2="3200" y2="300" stroke="black" />
<text x="3200" y="288" font-family="Verdana" font-size="8" text-anchor="middle"  dominant-baseline="middle" fill="black" > 285</text>
<circle cx="3200" cy="300" r="4" fill="white" stroke="black" />
<line x1="3200" y1="304" x2="3200" y2="486" stroke="black" />
<line x1="3196" y1="482" x2="3204" y2="490" stroke="red" />
<line x1="3196" y1="490" x2="3204" y2="482" stroke="red" />
<text x="3200" y="498" font-family="Verdana" font-size="8" text-anchor="middle"  dominant-baseline="middle" fill="black" > 471</text>
<text x="3500" y="7" font-family="Verdana" font-size="7" text-anchor="middle"  dominant-baseline="middle" fill="black" > C16</text>
<circle cx="3500" cy="15" r="4" fill="white" stroke="black" />
<line x1="3500" y1="19" x2="3500" y2="413" stroke="black" />
<line x1="3350" y1="413" x2="3650" y2="413" stroke="black" />
<text x="3525" y="405" font-family="Verdana" font-size="8" text-anchor="middle"  dominant-baseline="middle" fill="black" > 398</text>
<circle cx="3350" cy="413" r="4" fill="white" stroke="black" />
<line x1="3350" y1="417" x2="3350" y2="477" stroke="black" />
<line x1="3346" y1="473" x2="3354" y2="481" stroke="red" />
<line x1="3346" y1="481" x2="3354" y2="473" stroke="red" />
<text x="3350" y="489" font-family="Verdana" font-size="8" text-anchor="middle"  dominant-baseline="middle" fill="black" > 462</text>
<circle cx="3450" cy="413" r="4" fill="white" stroke="black" />
<circle cx="3550" cy="413" r="4" fill="white" stroke="black" />
<line x1="3450" y1="417" x2="3450" y2="425" stroke="black" />
<line x1="3450" y1="425" x2="3500" y2="429" stroke="black" />
<line x1="3550" y1="417" x2="3550" y2="425" stroke="black" />
<line x1="3550" y1="425" x2="3500" y2="429" stroke="black" />
<text x="3500" y="417" font-family="Verdana" font-size="8" text-anchor="middle"  dominant-baseline="middle" fill="black" > 414</text>
<circle cx="3500" cy="429" r="4" fill="white" stroke="black" />
<circle cx="3650" cy="413" r="4" fill="white" stroke="black" />
<line x1="3500" y1="433" x2="3500" y2="437" stroke="black" />
<line x1="3500" y1="437" x2="3575" y2="439" stroke="black" />
<line x1="3650" y1="417" x2="3650" y2="437" stroke="black" />
<line x1="3650" y1="437" x2="3575" y2="439" stroke="black" />
<text x="3575" y="427" font-family="Verdana" font-size="8" text-anchor="middle"  dominant-baseline="middle" fill="black" > 424</text>
<circle cx="3575" cy="439" r="4" fill="white" stroke="black" />
<line x1="3575" y1="443" x2="3575" y2="593" stroke="black" />
<line x1="3571" y1="589" x2="3579" y2="597" stroke="red" />
<line x1="3571" y1="597" x2="3579" y2="589" stroke="red" />
<text x="3575" y="605" font-family="Verdana" font-size="8" text-anchor="middle"  dominant-baseline="middle" fill="black" > 578</text>
<text x="3800" y="7" font-family="Verdana" font-size="7" text-anchor="middle"  dominant-baseline="middle" fill="black" > C17</text>
<circle cx="3800" cy="15" r="4" fill="white" stroke="black" />
<line x1="3800" y1="19" x2="3800" y2="198" stroke="black" />
<line x1="3750" y1="198" x2="3850" y2="198" stroke="black" />
<text x="3825" y="190" font-family="Verdana" font-size="8" text-anchor="middle"  dominant-baseline="middle" fill="black" > 183</text>
<circle cx="3750" cy="198" r="4" fill="white" stroke="black" />
<line x1="3750" y1="202" x2="3750" y2="433" stroke="black" />
<line x1="3746" y1="437" x2="3750" y2="429" stroke="blue" />
<line x1="3750" y1="437" x2="3754" y2="429" stroke="blue" />
<text x="3750" y="445" font-family="Verdana" font-size="8" text-anchor="middle"  dominant-baseline="middle" fill="black" > 418</text>
<circle cx="3850" cy="198" r="4" fill="white" stroke="black" />
<line x1="3850" y1="202" x2="3850" y2="415" stroke="black" />
<line x1="3846" y1="411" x2="3854" y2="419" stroke="red" />
<line x1="3846" y1="419" x2="3854" y2="411" stroke="red" />
<text x="3850" y="427" font-family="Verdana" font-size="8" text-anchor="middle"  dominant-baseline="middle" fill="black" > 400</text>
<text x="4050" y="7" font-family="Verdana" font-size="7" text-anchor="middle"  dominant-baseline="middle" fill="black" > C18</text>
<circle cx="4050" cy="15" r="4" fill="white" stroke="black" />
<line x1="4050" y1="19" x2="4050" y2="208" stroke="black" />
<line x1="3950" y1="208" x2="4150" y2="208" stroke="black" />
<text x="4075" y="200" font-family="Verdana" font-size="8" text-anchor="middle"  dominant-baseline="middle" fill="black" > 193</text>
<circle cx="3950" cy="208" r="4" fill="white" stroke="black" />
<line x1="3950" y1="212" x2="3950" y2="375" stroke="black" />
<line x1="3946" y1="371" x2="3954" y2="379" stroke="red" />
<line x1="3946" y1="379" x2="3954" y2="371" stroke="red" />
<text x="3950" y="387" font-family="Verdana" font-size="8" text-anchor="middle"  dominant-baseline="middle" fill="black" > 360</text>
<circle cx="4050" cy="208" r="4" fill="white" stroke="black" />
<circle cx="4150" cy="208" r="4" fill="white" stroke="black" />
<line x1="4050" y1="212" x2="4050" y2="217" stroke="black" />
<line x1="4050" y1="217" x2="4100" y2="219" stroke="black" />
<line x1="4150" y1="212" x2="4150" y2="217" stroke="black" />
<line x1="4150" y1="217" x2="4100" y2="219" stroke="black" />
<text x="4100" y="207" font-family="Verdana" font-size="8" text-anchor="middle"  dominant-baseline="middle" fill="black" > 204</text>
<circle cx="4100" cy="219" r="4" fill="white" stroke="black" />
<line x1="4100" y1="223" x2="4100" y2="440" stroke="black" />
<line x1="4096" y1="436" x2="4104" y2="444" stroke="red" />
<line x1="4096" y1="444" x2="4104" y2="436" stroke="red" />
<text x="4100" y="452" font-family="Verdana" font-size="8" text-anchor="middle"  dominant-baseline="middle" fill="black" > 425</text>
<text x="4400" y="7" font-family="Verdana" font-size="7" text-anchor="middle"  dominant-baseline="middle" fill="black" > C19</text>
<circle cx="4400" cy="15" r="4" fill="white" stroke="black" />
<line x1="4400" y1="19" x2="4400" y2="402" stroke="black" />
<line x1="4250" y1="402" x2="4550" y2="402" stroke="black" />
<text x="4425" y="394" font-family="Verdana" font-size="8" text-anchor="middle"  dominant-baseline="middle" fill="black" > 387</text>
<circle cx="4250" cy="402" r="4" fill="white" stroke="black" />
<line x1="4250" y1="406" x2="4250" y2="567" stroke="black" />
<line x1="4246" y1="563" x2="4254" y2="571" stroke="red" />
<line x1="4246" y1="571" x2="4254" y2="563" stroke="red" />
<text x="4250" y="579" font-family="Verdana" font-size="8" text-anchor="middle"  dominant-baseline="middle" fill="black" > 552</text>
<circle cx="4350" cy="402" r="4" fill="white" stroke="black" />
<circle cx="4450" cy="402" r="4" fill="white" stroke="black" />
<circle cx="4550" cy="402" r="4" fill="white" stroke="black" />
<line x1="4350" y1="406" x2="4350" y2="469" stroke="black" />
<line x1="4350" y1="469" x2="4450" y2="491" stroke="black" />
<line x1="4450" y1="406" x2="4450" y2="469" stroke="black" />
<line x1="4450" y1="469" x2="4450" y2="491" stroke="black" />
<line x1="4550" y1="406" x2="4550" y2="469" stroke="black" />
<line x1="4550" y1="469" x2="4450" y2="491" stroke="black" />
<text x="4450" y="479" font-family="Verdana" font-size="8" text-anchor="middle"  dominant-baseline="middle" fill="black" > 476</text>
<circle cx="4450" cy="491" r="4" fill="white" stroke="black" />
<line x1="4450" y1="495" x2="4450" y2="549" stroke="black" />
<line x1="4446" y1="545" x2="4454" y2="553" stroke="red" />
<line x1="4446" y1="553" x2="4454" y2="545" stroke="red" />
<text x="4450" y="561" font-family="Verdana" font-size="8" text-anchor="middle"  dominant-baseline="middle" fill="black" > 534</text>
<text x="4650" y="7" font-family="Verdana" font-size="7" text-anchor="middle"  dominant-baseline="middle" fill="black" > C20</text>
<circle cx="4650" cy="15" r="4" fill="white" stroke="black" />
<line x1="4650" y1="19" x2="4650" y2="736" stroke="black" />
<circle cx="4650" cy="736" r="4" fill="white" stroke="black" />
<text x="4650" y="748" font-family="Verdana" font-size="8" text-anchor="middle"  dominant-baseline="middle" fill="black" > 721</text>
<text x="4750" y="7" font-family="Verdana" font-size="7" text-anchor="middle"  dominant-baseline="middle" fill="black" > C21</text>
<circle cx="4750" cy="15" r="4" fill="white" stroke="black" />
<line x1="4750" y1="19" x2="4750" y2="210" stroke="black" />
<line x1="4746" y1="214" x2="4750" y2="206" stroke="blue" />
<line x1="4750" y1="214" x2="4754" y2="206" stroke="blue" />
<text x="4750" y="222" font-family="Verdana" font-size="8" text-anchor="middle"  dominant-baseline="middle" fill="black" > 195</text>
<text x="4900" y="7" font-family="Verdana" font-size="7" text-anchor="middle"  dominant-baseline="middle" fill="black" > C22</text>
<circle cx="4900" cy="15" r="4" fill="white" stroke="black" />
<line x1="4900" y1="19" x2="4900" y2="244" stroke="black" />
<line x1="4850" y1="244" x2="4950" y2="244" stroke="black" />
<text x="4925" y="236" font-family="Verdana" font-size="8" text-anchor="middle"  dominant-baseline="middle" fill="black" > 229</text>
<circle cx="4850" cy="244" r="4" fill="white" stroke="black" />
<line x1="4850" y1="248" x2="4850" y2="543" stroke="black" />
<line x1="4816" y1="543" x2="4884" y2="543" stroke="black" />
<text x="4858" y="535" font-family="Verdana" font-size="8" text-anchor="middle"  dominant-baseline="middle" fill="black" > 528</text>
<circle cx="4816" cy="543" r="4" fill="white" stroke="black" />
<line x1="4816" y1="547" x2="4816" y2="544" stroke="black" />
<line x1="4812" y1="548" x2="4816" y2="540" stroke="blue" />
<line x1="4816" y1="548" x2="4820" y2="540" stroke="blue" />
<text x="4816" y="556" font-family="Verdana" font-size="8" text-anchor="middle"  dominant-baseline="middle" fill="black" > 529</text>
<circle cx="4849" cy="543" r="4" fill="white" stroke="black" />
<line x1="4849" y1="547" x2="4849" y2="544" stroke="black" />
<line x1="4845" y1="548" x2="4849" y2="540" stroke="blue" />
<line x1="4849" y1="548" x2="4853" y2="540" stroke="blue" />
<text x="4849" y="556" font-family="Verdana" font-size="8" text-anchor="middle"  dominant-baseline="middle" fill="black" > 529</text>
<circle cx="4882" cy="543" r="4" fill="white" stroke="black" />
<line x1="4882" y1="547" x2="4882" y2="544" stroke="black" />
<line x1="4878" y1="548" x2="4882" y2="540" stroke="blue" />
<line x1="4882" y1="548" x2="4886" y2="540" stroke="blue" />
<text x="4882" y="556" font-family="Verdana" font-size="8" text-anchor="middle"  dominant-baseline="middle" fill="black" > 529</text>
<circle cx="4950" cy="244" r="4" fill="white" stroke="black" />
<line x1="4950" y1="248" x2="4950" y2="383" stroke="black" />
<line x1="4925" y1="383" x2="4975" y2="383" stroke="black" />
<text x="4962" y="375" font-family="Verdana" font-size="8" text-anchor="middle"  dominant-baseline="middle" fill="black" > 368</text>
<circle cx="4925" cy="383" r="4" fill="white" stroke="black" />
<circle cx="4975" cy="383" r="4" fill="white" stroke="black" />
<line x1="4925" y1="387" x2="4925" y2="434" stroke="black" />
<line x1="4925" y1="434" x2="4950" y2="450" stroke="black" />
<line x1="4975" y1="387" x2="4975" y2="434" stroke="black" />
<line x1="4975" y1="434" x2="4950" y2="450" stroke="black" />
<text x="4950" y="438" font-family="Verdana" font-size="8" text-anchor="middle"  dominant-baseline="middle" fill="black" > 435</text>
<circle cx="4950" cy="450" r="4" fill="white" stroke="black" />
<line x1="4950" y1="454" x2="4950" y2="736" stroke="black" />
<circle cx="4950" cy="736" r="4" fill="white" stroke="black" />
<text x="4950" y="748" font-family="Verdana" font-size="8" text-anchor="middle"  dominant-baseline="middle" fill="black" > 721</text>
<text x="5150" y="7" font-family="Verdana" font-size="7" text-anchor="middle"  dominant-baseline="middle" fill="black" > C23</text>
<circle cx="5150" cy="15" r="4" fill="white" stroke="black" />
<line x1="5150" y1="19" x2="5150" y2="239" stroke="black" />
<line x1="5050" y1="239" x2="5250" y2="239" stroke="black" />
<text x="5175" y="231" font-family="Verdana" font-size="8" text-anchor="middle"  dominant-baseline="middle" fill="black" > 224</text>
<circle cx="5050" cy="239" r="4" fill="white" stroke="black" />
<circle cx="5150" cy="239" r="4" fill="white" stroke="black" />
<line x1="5050" y1="243" x2="5050" y2="336" stroke="black" />
<line x1="5050" y1="336" x2="5100" y2="368" stroke="black" />
<line x1="5150" y1="243" x2="5150" y2="336" stroke="black" />
<line x1="5150" y1="336" x2="5100" y2="368" stroke="black" />
<text x="5100" y="356" font-family="Verdana" font-size="8" text-anchor="middle"  dominant-baseline="middle" fill="black" > 353</text>
<circle cx="5100" cy="368" r="4" fill="white" stroke="black" />
<line x1="5100" y1="372" x2="5100" y2="736" stroke="black" />
<circle cx="5100" cy="736" r="4" fill="white" stroke="black" />
<text x="5100" y="748" font-family="Verdana" font-size="8" text-anchor="middle"  dominant-baseline="middle" fill="black" > 721</text>
<circle cx="5250" cy="239" r="4" fill="white" stroke="black" />
<line x1="5250" y1="243" x2="5250" y2="736" stroke="black" />
<circle cx="5250" cy="736" r="4" fill="white" stroke="black" />
<text x="5250" y="748" font-family="Verdana" font-size="8" text-anchor="middle"  dominant-baseline="middle" fill="black" > 721</text>
<text x="5400" y="7" font-family="Verdana" font-size="7" text-anchor="middle"  dominant-baseline="middle" fill="black" > C24</text>
<circle cx="5400" cy="15" r="4" fill="white" stroke="black" />
<line x1="5400" y1="19" x2="5400" y2="252" stroke="black" />
<line x1="5350" y1="252" x2="5450" y2="252" stroke="black" />
<text x="5425" y="244" font-family="Verdana" font-size="8" text-anchor="middle"  dominant-baseline="middle" fill="black" > 237</text>
<circle cx="5350" cy="252" r="4" fill="white" stroke="black" />
<circle cx="5450" cy="252" r="4" fill="white" stroke="black" />
<line x1="5350" y1="256" x2="5350" y2="336" stroke="black" />
<line x1="5350" y1="336" x2="5400" y2="363" stroke="black" />
<line x1="5450" y1="256" x2="5450" y2="336" stroke="black" />
<line x1="5450" y1="336" x2="5400" y2="363" stroke="black" />
<text x="5400" y="351" font-family="Verdana" font-size="8" text-anchor="middle"  dominant-baseline="middle" fill="black" > 348</text>
<circle cx="5400" cy="363" r="4" fill="white" stroke="black" />
<line x1="5400" y1="367" x2="5400" y2="440" stroke="black" />
<line x1="5362" y1="440" x2="5438" y2="440" stroke="black" />
<text x="5406" y="432" font-family="Verdana" font-size="8" text-anchor="middle"  dominant-baseline="middle" fill="black" > 425</text>
<circle cx="5362" cy="440" r="4" fill="white" stroke="black" />
<circle cx="5387" cy="440" r="4" fill="white" stroke="black" />
<line x1="5362" y1="444" x2="5362" y2="488" stroke="black" />
<line x1="5362" y1="488" x2="5374" y2="503" stroke="black" />
<line x1="5387" y1="444" x2="5387" y2="488" stroke="black" />
<line x1="5387" y1="488" x2="5374" y2="503" stroke="black" />
<text x="5374" y="491" font-family="Verdana" font-size="8" text-anchor="middle"  dominant-baseline="middle" fill="black" > 488</text>
<circle cx="5374" cy="503" r="4" fill="white" stroke="black" />
<circle cx="5412" cy="440" r="4" fill="white" stroke="black" />
<circle cx="5437" cy="440" r="4" fill="white" stroke="black" />
<line x1="5374" y1="507" x2="5374" y2="526" stroke="black" />
<line x1="5374" y1="526" x2="5405" y2="533" stroke="black" />
<line x1="5412" y1="444" x2="5412" y2="526" stroke="black" />
<line x1="5412" y1="526" x2="5405" y2="533" stroke="black" />
<line x1="5437" y1="444" x2="5437" y2="526" stroke="black" />
<line x1="5437" y1="526" x2="5405" y2="533" stroke="black" />
<text x="5405" y="521" font-family="Verdana" font-size="8" text-anchor="middle"  dominant-baseline="middle" fill="black" > 518</text>
<circle cx="5405" cy="533" r="4" fill="white" stroke="black" />
<line x1="5405" y1="537" x2="5405" y2="617" stroke="black" />
<line x1="5401" y1="613" x2="5409" y2="621" stroke="red" />
<line x1="5401" y1="621" x2="5409" y2="613" stroke="red" />
<text x="5405" y="629" font-family="Verdana" font-size="8" text-anchor="middle"  dominant-baseline="middle" fill="black" > 602</text>
<text x="5700" y="7" font-family="Verdana" font-size="7" text-anchor="middle"  dominant-baseline="middle" fill="black" > C25</text>
<circle cx="5700" cy="15" r="4" fill="white" stroke="black" />
<line x1="5700" y1="19" x2="5700" y2="342" stroke="black" />
<line x1="5550" y1="342" x2="5850" y2="342" stroke="black" />
<text x="5725" y="334" font-family="Verdana" font-size="8" text-anchor="middle"  dominant-baseline="middle" fill="black" > 327</text>
<circle cx="5550" cy="342" r="4" fill="white" stroke="black" />
<line x1="5550" y1="346" x2="5550" y2="651" stroke="black" />
<line x1="5546" y1="647" x2="5554" y2="655" stroke="red" />
<line x1="5546" y1="655" x2="5554" y2="647" stroke="red" />
<text x="5550" y="663" font-family="Verdana" font-size="8" text-anchor="middle"  dominant-baseline="middle" fill="black" > 636</text>
<circle cx="5650" cy="342" r="4" fill="white" stroke="black" />
<circle cx="5750" cy="342" r="4" fill="white" stroke="black" />
<line x1="5650" y1="346" x2="5650" y2="349" stroke="black" />
<line x1="5650" y1="349" x2="5700" y2="351" stroke="black" />
<line x1="5750" y1="346" x2="5750" y2="349" stroke="black" />
<line x1="5750" y1="349" x2="5700" y2="351" stroke="black" />
<text x="5700" y="339" font-family="Verdana" font-size="8" text-anchor="middle"  dominant-baseline="middle" fill="black" > 336</text>
<circle cx="5700" cy="351" r="4" fill="white" stroke="black" />
<circle cx="5850" cy="342" r="4" fill="white" stroke="black" />
<line x1="5700" y1="355" x2="5700" y2="361" stroke="black" />
<line x1="5700" y1="361" x2="5775" y2="364" stroke="black" />
<line x1="5850" y1="346" x2="5850" y2="361" stroke="black" />
<line x1="5850" y1="361" x2="5775" y2="364" stroke="black" />
<text x="5775" y="352" font-family="Verdana" font-size="8" text-anchor="middle"  dominant-baseline="middle" fill="black" > 349</text>
<circle cx="5775" cy="364" r="4" fill="white" stroke="black" />
<line x1="5775" y1="368" x2="5775" y2="527" stroke="black" />
<line x1="5771" y1="523" x2="5779" y2="531" stroke="red" />
<line x1="5771" y1="531" x2="5779" y2="523" stroke="red" />
<text x="5775" y="539" font-family="Verdana" font-size="8" text-anchor="middle"  dominant-baseline="middle" fill="black" > 512</text>
</svg>
