<?xml version="1.0" encoding="utf-8"?>
<svg xmlns="http://www.w3.org/2000/svg" version="1.1" width="5550" height="750">
<rect width="5550" height="15" x="0" y="0" fill="white" />
<rect width="5550" height="15" x="0" y="735" fill="white" />
<rect width="25" height="750" x="0" y="0" fill="white" />
<rect width="25" height="750" x="5525" y="0" fill="white" />
<rect width="5510" height="144" x="25" y="15" fill="ghostwhite" />
<rect width="5510" height="144" x="25" y="159" fill="snow" />
<rect width="5510" height="144" x="25" y="303" fill="ghostwhite" />
<rect width="5510" height="144" x="25" y="447" fill="snow" />
<rect width="5510" height="144" x="25" y="591" fill="ghostwhite" />
<text x="12" y="87" font-family="Verdana" font-size="10" text-anchor="middle"  dominant-baseline="middle" fill="red" > D0</text>
<text x="12" y="231" font-family="Verdana" font-size="10" text-anchor="middle"  dominant-baseline="middle" fill="red" > D1</text>
<text x="12" y="375" font-family="Verdana" font-size="10" text-anchor="middle"  dominant-baseline="middle" fill="red" > D2</text>
<text x="12" y="519" font-family="Verdana" font-size="10" text-anchor="middle"  dominant-baseline="middle" fill="red" > D3</text>
<text x="12" y="663" font-family="Verdana" font-size="10" text-anchor="middle"  dominant-baseline="middle" fill="red" > D4</text>
<text x="12" y="20" font-family="Verdana" font-size="10" text-anchor="middle"  dominant-baseline="middle" fill="black" > 0</text>
<text x="12" y="164" font-family="Verdana" font-size="10" text-anchor="middle"  dominant-baseline="middle" fill="black" > 144</text>
<text x="12" y="308" font-family="Verdana" font-size="10" text-anchor="middle"  dominant-baseline="middle" fill="black" > 288</text>
<text x="12" y="452" font-family="Verdana" font-size="10" text-anchor="middle"  dominant-baseline="middle" fill="black" > 432</text>
<text x="12" y="596" font-family="Verdana" font-size="10" text-anchor="middle"  dominant-baseline="middle" fill="black" > 576</text>
<text x="12" y="740" font-family="Verdana" font-size="10" text-anchor="middle"  dominant-baseline="middle" fill="black" > 720</text>
<text x="50" y="7" font-family="Verdana" font-size="7" text-anchor="middle"  dominant-baseline="middle" fill="black" > C1</text>
<circle cx="50" cy="15" r="4" fill="white" stroke="black" />
<line x1="50" y1="19" x2="50" y2="172" stroke="black" />
<line x1="46" y1="176" x2="50" y2="168" stroke="blue" />
<line x1="50" y1="176" x2="54" y2="168" stroke="blue" />
<text x="50" y="184" font-family="Verdana" font-size="8" text-anchor="middle"  dominant-baseline="middle" fill="black" > 157</text>
<text x="200" y="7" font-family="Verdana" font-size="7" text-anchor="middle"  dominant-baseline="middle" fill="black" > C2</text>
<circle cx="200" cy="15" r="4" fill="white" stroke="black" />
<line x1="200" y1="19" x2="200" y2="275" stroke="black" />
<line x1="150" y1="275" x2="250" y2="275" stroke="black" />
<text x="225" y="267" font-family="Verdana" font-size="8" text-anchor="middle"  dominant-baseline="middle" fill="black" > 260</text>
<circle cx="150" cy="275" r="4" fill="white" stroke="black" />
<circle cx="250" cy="275" r="4" fill="white" stroke="black" />
<line x1="150" y1="279" x2="150" y2="284" stroke="black" />
<line x1="150" y1="284" x2="200" y2="286" stroke="black" />
<line x1="250" y1="279" x2="250" y2="284" stroke="black" />
<line x1="250" y1="284" x2="200" y2="286" stroke="black" />
<text x="200" y="274" font-family="Verdana" font-size="8" text-anchor="middle"  dominant-baseline="middle" fill="black" > 271</text>
<circle cx="200" cy="286" r="4" fill="white" stroke="black" />
<line x1="200" y1="290" x2="200" y2="698" stroke="black" />
<line x1="196" y1="694" x2="204" y2="702" stroke="red" />
<line x1="196" y1="702" x2="204" y2="694" stroke="red" />
<text x="200" y="710" font-family="Verdana" font-size="8" text-anchor="middle"  dominant-baseline="middle" fill="black" > 683</text>
<text x="450" y="7" font-family="Verdana" font-size="7" text-anchor="middle"  dominant-baseline="middle" fill="black" > C3</text>
<circle cx="450" cy="15" r="4" fill="white" stroke="black" />
<line x1="450" y1="19" x2="450" y2="319" stroke="black" />
<line x1="350" y1="319" x2="550" y2="319" stroke="black" />
<text x="475" y="311" font-family="Verdana" font-size="8" text-anchor="middle"  dominant-baseline="middle" fill="black" > 304</text>
<circle cx="350" cy="319" r="4" fill="white" stroke="black" />
<circle cx="450" cy="319" r="4" fill="white" stroke="black" />
<circle cx="550" cy="319" r="4" fill="white" stroke="black" />
<line x1="350" y1="323" x2="350" y2="334" stroke="black" />
<line x1="350" y1="334" x2="450" y2="338" stroke="black" />
<line x1="450" y1="323" x2="450" y2="334" stroke="black" />
<line x1="450" y1="334" x2="450" y2="338" stroke="black" />
<line x1="550" y1="323" x2="550" y2="334" stroke="black" />
<line x1="550" y1="334" x2="450" y2="338" stroke="black" />
<text x="450" y="326" font-family="Verdana" font-size="8" text-anchor="middle"  dominant-baseline="middle" fill="black" > 323</text>
<circle cx="450" cy="338" r="4" fill="white" stroke="black" />
<line x1="450" y1="342" x2="450" y2="383" stroke="black" />
<line x1="446" y1="379" x2="454" y2="387" stroke="red" />
<line x1="446" y1="387" x2="454" y2="379" stroke="red" />
<text x="450" y="395" font-family="Verdana" font-size="8" text-anchor="middle"  dominant-baseline="middle" fill="black" > 368</text>
<text x="700" y="7" font-family="Verdana" font-size="7" text-anchor="middle"  dominant-baseline="middle" fill="black" > C4</text>
<circle cx="700" cy="15" r="4" fill="white" stroke="black" />
<line x1="700" y1="19" x2="700" y2="199" stroke="black" />
<line x1="650" y1="199" x2="750" y2="199" stroke="black" />
<text x="725" y="191" font-family="Verdana" font-size="8" text-anchor="middle"  dominant-baseline="middle" fill="black" > 184</text>
<circle cx="650" cy="199" r="4" fill="white" stroke="black" />
<line x1="650" y1="203" x2="650" y2="390" stroke="black" />
<line x1="646" y1="394" x2="650" y2="386" stroke="blue" />
<line x1="650" y1="394" x2="654" y2="386" stroke="blue" />
<text x="650" y="402" font-family="Verdana" font-size="8" text-anchor="middle"  dominant-baseline="middle" fill="black" > 375</text>
<circle cx="750" cy="199" r="4" fill="white" stroke="black" />
<line x1="750" y1="203" x2="750" y2="404" stroke="black" />
<line x1="716" y1="404" x2="784" y2="404" stroke="black" />
<text x="758" y="396" font-family="Verdana" font-size="8" text-anchor="middle"  dominant-baseline="middle" fill="black" > 389</text>
<circle cx="716" cy="404" r="4" fill="white" stroke="black" />
<line x1="716" y1="408" x2="716" y2="461" stroke="black" />
<line x1="712" y1="457" x2="720" y2="465" stroke="red" />
<line x1="712" y1="465" x2="720" y2="457" stroke="red" />
<text x="716" y="473" font-family="Verdana" font-size="8" text-anchor="middle"  dominant-baseline="middle" fill="black" > 446</text>
<circle cx="749" cy="404" r="4" fill="white" stroke="black" />
<line x1="749" y1="408" x2="749" y2="597" stroke="black" />
<line x1="745" y1="593" x2="753" y2="601" stroke="red" />
<line x1="745" y1="601" x2="753" y2="593" stroke="red" />
<text x="749" y="609" font-family="Verdana" font-size="8" text-anchor="middle"  dominant-baseline="middle" fill="black" > 582</text>
<circle cx="782" cy="404" r="4" fill="white" stroke="black" />
<line x1="782" y1="408" x2="782" y2="700" stroke="black" />
<line x1="778" y1="696" x2="786" y2="704" stroke="red" />
<line x1="778" y1="704" x2="786" y2="696" stroke="red" />
<text x="782" y="712" font-family="Verdana" font-size="8" text-anchor="middle"  dominant-baseline="middle" fill="black" > 685</text>
<text x="900" y="7" font-family="Verdana" font-size="7" text-anchor="middle"  dominant-baseline="middle" fill="black" > C5</text>
<circle cx="900" cy="15" r="4" fill="white" stroke="black" />
<line x1="900" y1="19" x2="900" y2="240" stroke="black" />
<line x1="850" y1="240" x2="950" y2="240" stroke="black" />
<text x="925" y="232" font-family="Verdana" font-size="8" text-anchor="middle"  dominant-baseline="middle" fill="black" > 225</text>
<circle cx="850" cy="240" r="4" fill="white" stroke="black" />
<circle cx="950" cy="240" r="4" fill="white" stroke="black" />
<line x1="850" y1="244" x2="850" y2="424" stroke="black" />
<line x1="850" y1="424" x2="900" y2="485" stroke="black" />
<line x1="950" y1="244" x2="950" y2="424" stroke="black" />
<line x1="950" y1="424" x2="900" y2="485" stroke="black" />
<text x="900" y="473" font-family="Verdana" font-size="8" text-anchor="middle"  dominant-baseline="middle" fill="black" > 470</text>
<circle cx="900" cy="485" r="4" fill="white" stroke="black" />
<line x1="900" y1="489" x2="900" y2="635" stroke="black" />
<line x1="896" y1="631" x2="904" y2="639" stroke="red" />
<line x1="896" y1="639" x2="904" y2="631" stroke="red" />
<text x="900" y="647" font-family="Verdana" font-size="8" text-anchor="middle"  dominant-baseline="middle" fill="black" > 620</text>
<text x="1050" y="7" font-family="Verdana" font-size="7" text-anchor="middle"  dominant-baseline="middle" fill="black" > C6</text>
<circle cx="1050" cy="15" r="4" fill="white" stroke="black" />
<line x1="1050" y1="19" x2="1050" y2="167" stroke="black" />
<line x1="1046" y1="171" x2="1050" y2="163" stroke="blue" />
<line x1="1050" y1="171" x2="1054" y2="163" stroke="blue" />
<text x="1050" y="179" font-family="Verdana" font-size="8" text-anchor="middle"  dominant-baseline="middle" fill="black" > 152</text>
<text x="1300" y="7" font-family="Verdana" font-size="7" text-anchor="middle"  dominant-baseline="middle" fill="black" > C7</text>
<circle cx="1300" cy="15" r="4" fill="white" stroke="black" />
<line x1="1300" y1="19" x2="1300" y2="445" stroke="black" />
<line x1="1150" y1="445" x2="1450" y2="445" stroke="black" />
<text x="1325" y="437" font-family="Verdana" font-size="8" text-anchor="middle"  dominant-baseline="middle" fill="black" > 430</text>
<circle cx="1150" cy="445" r="4" fill="white" stroke="black" />
<line x1="1150" y1="449" x2="1150" y2="527" stroke="black" />
<line x1="1146" y1="523" x2="1154" y2="531" stroke="red" />
<line x1="1146" y1="531" x2="1154" y2="523" stroke="red" />
<text x="1150" y="539" font-family="Verdana" font-size="8" text-anchor="middle"  dominant-baseline="middle" fill="black" > 512</text>
<circle cx="1250" cy="445" r="4" fill="white" stroke="black" />
<circle cx="1350" cy="445" r="4" fill="white" stroke="black" />
<circle cx="1450" cy="445" r="4" fill="white" stroke="black" />
<line x1="1250" y1="449" x2="1250" y2="477" stroke="black" />
<line x1="1250" y1="477" x2="1350" y2="487" stroke="black" />
<line x1="1350" y1="449" x2="1350" y2="477" stroke="black" />
<line x1="1350" y1="477" x2="1350" y2="487" stroke="black" />
<line x1="1450" y1="449" x2="1450" y2="477" stroke="black" />
<line x1="1450" y1="477" x2="1350" y2="487" stroke="black" />
<text x="1350" y="475" font-family="Verdana" font-size="8" text-anchor="middle"  dominant-baseline="middle" fill="black" > 472</text>
<circle cx="1350" cy="487" r="4" fill="white" stroke="black" />
<line x1="1350" y1="491" x2="1350" y2="526" stroke="black" />
<line x1="1346" y1="522" x2="1354" y2="530" stroke="red" />
<line x1="1346" y1="530" x2="1354" y2="522" stroke="red" />
<text x="1350" y="538" font-family="Verdana" font-size="8" text-anchor="middle"  dominant-baseline="middle" fill="black" > 511</text>
<text x="1550" y="7" font-family="Verdana" font-size="7" text-anchor="middle"  dominant-baseline="middle" fill="black" > C8</text>
<circle cx="1550" cy="15" r="4" fill="white" stroke="black" />
<line x1="1550" y1="19" x2="1550" y2="519" stroke="black" />
<line x1="1546" y1="515" x2="1554" y2="523" stroke="red" />
<line x1="1546" y1="523" x2="1554" y2="515" stroke="red" />
<text x="1550" y="531" font-family="Verdana" font-size="8" text-anchor="middle"  dominant-baseline="middle" fill="black" > 504</text>
<text x="1750" y="7" font-family="Verdana" font-size="7" text-anchor="middle"  dominant-baseline="middle" fill="black" > C9</text>
<circle cx="1750" cy="15" r="4" fill="white" stroke="black" />
<line x1="1750" y1="19" x2="1750" y2="231" stroke="black" />
<line x1="1650" y1="231" x2="1850" y2="231" stroke="black" />
<text x="1775" y="223" font-family="Verdana" font-size="8" text-anchor="middle"  dominant-baseline="middle" fill="black" > 216</text>
<circle cx="1650" cy="231" r="4" fill="white" stroke="black" />
<line x1="1650" y1="235" x2="1650" y2="509" stroke="black" />
<line x1="1646" y1="505" x2="1654" y2="513" stroke="red" />
<line x1="1646" y1="513" x2="1654" y2="505" stroke="red" />
<text x="1650" y="521" font-family="Verdana" font-size="8" text-anchor="middle"  dominant-baseline="middle" fill="black" > 494</text>
<circle cx="1750" cy="231" r="4" fill="white" stroke="black" />
<line x1="1750" y1="235" x2="1750" y2="622" stroke="black" />
<line x1="1746" y1="618" x2="1754" y2="626" stroke="red" />
<line x1="1746" y1="626" x2="1754" y2="618" stroke="red" />
<text x="1750" y="634" font-family="Verdana" font-size="8" text-anchor="middle"  dominant-baseline="middle" fill="black" > 607</text>
<circle cx="1850" cy="231" r="4" fill="white" stroke="black" />
<line x1="1850" y1="235" x2="1850" y2="570" stroke="black" />
<line x1="1846" y1="566" x2="1854" y2="574" stroke="red" />
<line x1="1846" y1="574" x2="1854" y2="566" stroke="red" />
<text x="1850" y="582" font-family="Verdana" font-size="8" text-anchor="middle"  dominant-baseline="middle" fill="black" > 555</text>
<text x="2050" y="7" font-family="Verdana" font-size="7" text-anchor="middle"  dominant-baseline="middle" fill="black" > C10</text>
<circle cx="2050" cy="15" r="4" fill="white" stroke="black" />
<line x1="2050" y1="19" x2="2050" y2="215" stroke="black" />
<line x1="1950" y1="215" x2="2150" y2="215" stroke="black" />
<text x="2075" y="207" font-family="Verdana" font-size="8" text-anchor="middle"  dominant-baseline="middle" fill="black" > 200</text>
<circle cx="1950" cy="215" r="4" fill="white" stroke="black" />
<circle cx="2050" cy="215" r="4" fill="white" stroke="black" />
<line x1="1950" y1="219" x2="1950" y2="234" stroke="black" />
<line x1="1950" y1="234" x2="2000" y2="240" stroke="black" />
<line x1="2050" y1="219" x2="2050" y2="234" stroke="black" />
<line x1="2050" y1="234" x2="2000" y2="240" stroke="black" />
<text x="2000" y="228" font-family="Verdana" font-size="8" text-anchor="middle"  dominant-baseline="middle" fill="black" > 225</text>
<circle cx="2000" cy="240" r="4" fill="white" stroke="black" />
<circle cx="2150" cy="215" r="4" fill="white" stroke="black" />
<line x1="2000" y1="244" x2="2000" y2="276" stroke="black" />
<line x1="2000" y1="276" x2="2075" y2="287" stroke="black" />
<line x1="2150" y1="219" x2="2150" y2="276" stroke="black" />
<line x1="2150" y1="276" x2="2075" y2="287" stroke="black" />
<text x="2075" y="275" font-family="Verdana" font-size="8" text-anchor="middle"  dominant-baseline="middle" fill="black" > 272</text>
<circle cx="2075" cy="287" r="4" fill="white" stroke="black" />
<line x1="2075" y1="291" x2="2075" y2="305" stroke="black" />
<line x1="2071" y1="301" x2="2079" y2="309" stroke="red" />
<line x1="2071" y1="309" x2="2079" y2="301" stroke="red" />
<text x="2075" y="317" font-family="Verdana" font-size="8" text-anchor="middle"  dominant-baseline="middle" fill="black" > 290</text>
<text x="2250" y="7" font-family="Verdana" font-size="7" text-anchor="middle"  dominant-baseline="middle" fill="black" > C11</text>
<circle cx="2250" cy="15" r="4" fill="white" stroke="black" />
<line x1="2250" y1="19" x2="2250" y2="225" stroke="black" />
<line x1="2246" y1="229" x2="2250" y2="221" stroke="blue" />
<line x1="2250" y1="229" x2="2254" y2="221" stroke="blue" />
<text x="2250" y="237" font-family="Verdana" font-size="8" text-anchor="middle"  dominant-baseline="middle" fill="black" > 210</text>
<text x="2350" y="7" font-family="Verdana" font-size="7" text-anchor="middle"  dominant-baseline="middle" fill="black" > C12</text>
<circle cx="2350" cy="15" r="4" fill="white" stroke="black" />
<line x1="2350" y1="19" x2="2350" y2="102" stroke="black" />
<line x1="2346" y1="106" x2="2350" y2="98" stroke="blue" />
<line x1="2350" y1="106" x2="2354" y2="98" stroke="blue" />
<text x="2350" y="114" font-family="Verdana" font-size="8" text-anchor="middle"  dominant-baseline="middle" fill="black" > 87</text>
<text x="2600" y="7" font-family="Verdana" font-size="7" text-anchor="middle"  dominant-baseline="middle" fill="black" > C13</text>
<circle cx="2600" cy="15" r="4" fill="white" stroke="black" />
<line x1="2600" y1="19" x2="2600" y2="240" stroke="black" />
<line x1="2450" y1="240" x2="2750" y2="240" stroke="black" />
<text x="2625" y="232" font-family="Verdana" font-size="8" text-anchor="middle"  dominant-baseline="middle" fill="black" > 225</text>
<circle cx="2450" cy="240" r="4" fill="white" stroke="black" />
<line x1="2450" y1="244" x2="2450" y2="620" stroke="black" />
<line x1="2446" y1="616" x2="2454" y2="624" stroke="red" />
<line x1="2446" y1="624" x2="2454" y2="616" stroke="red" />
<text x="2450" y="632" font-family="Verdana" font-size="8" text-anchor="middle"  dominant-baseline="middle" fill="black" > 605</text>
<circle cx="2550" cy="240" r="4" fill="white" stroke="black" />
<circle cx="2650" cy="240" r="4" fill="white" stroke="black" />
<line x1="2550" y1="244" x2="2550" y2="244" stroke="black" />
<line x1="2550" y1="244" x2="2600" y2="245" stroke="black" />
<line x1="2650" y1="244" x2="2650" y2="244" stroke="black" />
<line x1="2650" y1="244" x2="2600" y2="245" stroke="black" />
<text x="2600" y="233" font-family="Verdana" font-size="8" text-anchor="middle"  dominant-baseline="middle" fill="black" > 230</text>
<circle cx="2600" cy="245" r="4" fill="white" stroke="black" />
<circle cx="2750" cy="240" r="4" fill="white" stroke="black" />
<line x1="2600" y1="249" x2="2600" y2="254" stroke="black" />
<line x1="2600" y1="254" x2="2675" y2="257" stroke="black" />
<line x1="2750" y1="244" x2="2750" y2="254" stroke="black" />
<line x1="2750" y1="254" x2="2675" y2="257" stroke="black" />
<text x="2675" y="245" font-family="Verdana" font-size="8" text-anchor="middle"  dominant-baseline="middle" fill="black" > 242</text>
<circle cx="2675" cy="257" r="4" fill="white" stroke="black" />
<line x1="2675" y1="261" x2="2675" y2="487" stroke="black" />
<line x1="2671" y1="483" x2="2679" y2="491" stroke="red" />
<line x1="2671" y1="491" x2="2679" y2="483" stroke="red" />
<text x="2675" y="499" font-family="Verdana" font-size="8" text-anchor="middle"  dominant-baseline="middle" fill="black" > 472</text>
<text x="2950" y="7" font-family="Verdana" font-size="7" text-anchor="middle"  dominant-baseline="middle" fill="black" > C14</text>
<circle cx="2950" cy="15" r="4" fill="white" stroke="black" />
<line x1="2950" y1="19" x2="2950" y2="375" stroke="black" />
<line x1="2850" y1="375" x2="3050" y2="375" stroke="black" />
<text x="2975" y="367" font-family="Verdana" font-size="8" text-anchor="middle"  dominant-baseline="middle" fill="black" > 360</text>
<circle cx="2850" cy="375" r="4" fill="white" stroke="black" />
<circle cx="2950" cy="375" r="4" fill="white" stroke="black" />
<line x1="2850" y1="379" x2="2850" y2="387" stroke="black" />
<line x1="2850" y1="387" x2="2900" y2="391" stroke="black" />
<line x1="2950" y1="379" x2="2950" y2="387" stroke="black" />
<line x1="2950" y1="387" x2="2900" y2="391" stroke="black" />
<text x="2900" y="379" font-family="Verdana" font-size="8" text-anchor="middle"  dominant-baseline="middle" fill="black" > 376</text>
<circle cx="2900" cy="391" r="4" fill="white" stroke="black" />
<circle cx="3050" cy="375" r="4" fill="white" stroke="black" />
<line x1="2900" y1="395" x2="2900" y2="392" stroke="black" />
<line x1="2900" y1="392" x2="2975" y2="392" stroke="black" />
<line x1="3050" y1="379" x2="3050" y2="392" stroke="black" />
<line x1="3050" y1="392" x2="2975" y2="392" stroke="black" />
<text x="2975" y="380" font-family="Verdana" font-size="8" text-anchor="middle"  dominant-baseline="middle" fill="black" > 377</text>
<circle cx="2975" cy="392" r="4" fill="white" stroke="black" />
<line x1="2975" y1="396" x2="2975" y2="736" stroke="black" />
<circle cx="2975" cy="736" r="4" fill="white" stroke="black" />
<text x="2975" y="748" font-family="Verdana" font-size="8" text-anchor="middle"  dominant-baseline="middle" fill="black" > 721</text>
<text x="3200" y="7" font-family="Verdana" font-size="7" text-anchor="middle"  dominant-baseline="middle" fill="black" > C15</text>
<circle cx="3200" cy="15" r="4" fill="white" stroke="black" />
<line x1="3200" y1="19" x2="3200" y2="243" stroke="black" />
<line x1="3150" y1="243" x2="3250" y2="243" stroke="black" />
<text x="3225" y="235" font-family="Verdana" font-size="8" text-anchor="middle"  dominant-baseline="middle" fill="black" > 228</text>
<circle cx="3150" cy="243" r="4" fill="white" stroke="black" />
<circle cx="3250" cy="243" r="4" fill="white" stroke="black" />
<line x1="3150" y1="247" x2="3150" y2="348" stroke="black" />
<line x1="3150" y1="348" x2="3200" y2="382" stroke="black" />
<line x1="3250" y1="247" x2="3250" y2="348" stroke="black" />
<line x1="3250" y1="348" x2="3200" y2="382" stroke="black" />
<text x="3200" y="370" font-family="Verdana" font-size="8" text-anchor="middle"  dominant-baseline="middle" fill="black" > 367</text>
<circle cx="3200" cy="382" r="4" fill="white" stroke="black" />
<line x1="3200" y1="386" x2="3200" y2="417" stroke="black" />
<line x1="3196" y1="413" x2="3204" y2="421" stroke="red" />
<line x1="3196" y1="421" x2="3204" y2="413" stroke="red" />
<text x="3200" y="429" font-family="Verdana" font-size="8" text-anchor="middle"  dominant-baseline="middle" fill="black" > 402</text>
<text x="3450" y="7" font-family="Verdana" font-size="7" text-anchor="middle"  dominant-baseline="middle" fill="black" > C16</text>
<circle cx="3450" cy="15" r="4" fill="white" stroke="black" />
<line x1="3450" y1="19" x2="3450" y2="247" stroke="black" />
<line x1="3350" y1="247" x2="3550" y2="247" stroke="black" />
<text x="3475" y="239" font-family="Verdana" font-size="8" text-anchor="middle"  dominant-baseline="middle" fill="black" > 232</text>
<circle cx="3350" cy="247" r="4" fill="white" stroke="black" />
<line x1="3350" y1="251" x2="3350" y2="377" stroke="black" />
<line x1="3325" y1="377" x2="3375" y2="377" stroke="black" />
<text x="3362" y="369" font-family="Verdana" font-size="8" text-anchor="middle"  dominant-baseline="middle" fill="black" > 362</text>
<circle cx="3325" cy="377" r="4" fill="white" stroke="black" />
<circle cx="3375" cy="377" r="4" fill="white" stroke="black" />
<line x1="3325" y1="381" x2="3325" y2="398" stroke="black" />
<line x1="3325" y1="398" x2="3350" y2="405" stroke="black" />
<line x1="3375" y1="381" x2="3375" y2="398" stroke="black" />
<line x1="3375" y1="398" x2="3350" y2="405" stroke="black" />
<text x="3350" y="393" font-family="Verdana" font-size="8" text-anchor="middle"  dominant-baseline="middle" fill="black" > 390</text>
<circle cx="3350" cy="405" r="4" fill="white" stroke="black" />
<line x1="3350" y1="409" x2="3350" y2="635" stroke="black" />
<line x1="3346" y1="631" x2="3354" y2="639" stroke="red" />
<line x1="3346" y1="639" x2="3354" y2="631" stroke="red" />
<text x="3350" y="647" font-family="Verdana" font-size="8" text-anchor="middle"  dominant-baseline="middle" fill="black" > 620</text>
<circle cx="3450" cy="247" r="4" fill="white" stroke="black" />
<circle cx="3550" cy="247" r="4" fill="white" stroke="black" />
<line x1="3450" y1="251" x2="3450" y2="259" stroke="black" />
<line x1="3450" y1="259" x2="3500" y2="263" stroke="black" />
<line x1="3550" y1="251" x2="3550" y2="259" stroke="black" />
<line x1="3550" y1="259" x2="3500" y2="263" stroke="black" />
<text x="3500" y="251" font-family="Verdana" font-size="8" text-anchor="middle"  dominant-baseline="middle" fill="black" > 248</text>
<circle cx="3500" cy="263" r="4" fill="white" stroke="black" />
<line x1="3500" y1="267" x2="3500" y2="393" stroke="black" />
<line x1="3475" y1="393" x2="3525" y2="393" stroke="black" />
<text x="3512" y="385" font-family="Verdana" font-size="8" text-anchor="middle"  dominant-baseline="middle" fill="black" > 378</text>
<circle cx="3475" cy="393" r="4" fill="white" stroke="black" />
<line x1="3475" y1="397" x2="3475" y2="736" stroke="black" />
<circle cx="3475" cy="736" r="4" fill="white" stroke="black" />
<text x="3475" y="748" font-family="Verdana" font-size="8" text-anchor="middle"  dominant-baseline="middle" fill="black" > 721</text>
<circle cx="3525" cy="393" r="4" fill="white" stroke="black" />
<line x1="3525" y1="397" x2="3525" y2="736" stroke="black" />
<circle cx="3525" cy="736" r="4" fill="white" stroke="black" />
<text x="3525" y="748" font-family="Verdana" font-size="8" text-anchor="middle"  dominant-baseline="middle" fill="black" > 721</text>
<text x="3650" y="7" font-family="Verdana" font-size="7" text-anchor="middle"  dominant-baseline="middle" fill="black" > C17</text>
<circle cx="3650" cy="15" r="4" fill="white" stroke="black" />
<line x1="3650" y1="19" x2="3650" y2="279" stroke="black" />
<line x1="3646" y1="275" x2="3654" y2="283" stroke="red" />
<line x1="3646" y1="283" x2="3654" y2="275" stroke="red" />
<text x="3650" y="291" font-family="Verdana" font-size="8" text-anchor="middle"  dominant-baseline="middle" fill="black" > 264</text>
<text x="3900" y="7" font-family="Verdana" font-size="7" text-anchor="middle"  dominant-baseline="middle" fill="black" > C18</text>
<circle cx="3900" cy="15" r="4" fill="white" stroke="black" />
<line x1="3900" y1="19" x2="3900" y2="323" stroke="black" />
<line x1="3750" y1="323" x2="4050" y2="323" stroke="black" />
<text x="3925" y="315" font-family="Verdana" font-size="8" text-anchor="middle"  dominant-baseline="middle" fill="black" > 308</text>
<circle cx="3750" cy="323" r="4" fill="white" stroke="black" />
<circle cx="3850" cy="323" r="4" fill="white" stroke="black" />
<line x1="3750" y1="327" x2="3750" y2="341" stroke="black" />
<line x1="3750" y1="341" x2="3800" y2="346" stroke="black" />
<line x1="3850" y1="327" x2="3850" y2="341" stroke="black" />
<line x1="3850" y1="341" x2="3800" y2="346" stroke="black" />
<text x="3800" y="334" font-family="Verdana" font-size="8" text-anchor="middle"  dominant-baseline="middle" fill="black" > 331</text>
<circle cx="3800" cy="346" r="4" fill="white" stroke="black" />
<line x1="3800" y1="350" x2="3800" y2="736" stroke="black" />
<circle cx="3800" cy="736" r="4" fill="white" stroke="black" />
<text x="3800" y="748" font-family="Verdana" font-size="8" text-anchor="middle"  dominant-baseline="middle" fill="black" > 721</text>
<circle cx="3950" cy="323" r="4" fill="white" stroke="black" />
<line x1="3950" y1="327" x2="3950" y2="556" stroke="black" />
<line x1="3946" y1="552" x2="3954" y2="560" stroke="red" />
<line x1="3946" y1="560" x2="3954" y2="552" stroke="red" />
<text x="3950" y="568" font-family="Verdana" font-size="8" text-anchor="middle"  dominant-baseline="middle" fill="black" > 541</text>
<circle cx="4050" cy="323" r="4" fill="white" stroke="black" />
<line x1="4050" y1="327" x2="4050" y2="544" stroke="black" />
<line x1="4046" y1="540" x2="4054" y2="548" stroke="red" />
<line x1="4046" y1="548" x2="4054" y2="540" stroke="red" />
<text x="4050" y="556" font-family="Verdana" font-size="8" text-anchor="middle"  dominant-baseline="middle" fill="black" > 529</text>
<text x="4150" y="7" font-family="Verdana" font-size="7" text-anchor="middle"  dominant-baseline="middle" fill="black" > C19</text>
<circle cx="4150" cy="15" r="4" fill="white" stroke="black" />
<line x1="4150" y1="19" x2="4150" y2="552" stroke="black" />
<line x1="4146" y1="548" x2="4154" y2="556" stroke="red" />
<line x1="4146" y1="556" x2="4154" y2="548" stroke="red" />
<text x="4150" y="564" font-family="Verdana" font-size="8" text-anchor="middle"  dominant-baseline="middle" fill="black" > 537</text>
<text x="4250" y="7" font-family="Verdana" font-size="7" text-anchor="middle"  dominant-baseline="middle" fill="black" > C20</text>
<circle cx="4250" cy="15" r="4" fill="white" stroke="black" />
<line x1="4250" y1="19" x2="4250" y2="458" stroke="black" />
<line x1="4246" y1="454" x2="4254" y2="462" stroke="red" />
<line x1="4246" y1="462" x2="4254" y2="454" stroke="red" />
<text x="4250" y="470" font-family="Verdana" font-size="8" text-anchor="middle"  dominant-baseline="middle" fill="black" > 443</text>
<text x="4450" y="7" font-family="Verdana" font-size="7" text-anchor="middle"  dominant-baseline="middle" fill="black" > C21</text>
<circle cx="4450" cy="15" r="4" fill="white" stroke="black" />
<line x1="4450" y1="19" x2="4450" y2="364" stroke="black" />
<line x1="4350" y1="364" x2="4550" y2="364" stroke="black" />
<text x="4475" y="356" font-family="Verdana" font-size="8" text-anchor="middle"  dominant-baseline="middle" fill="black" > 349</text>
<circle cx="4350" cy="364" r="4" fill="white" stroke="black" />
<circle cx="4450" cy="364" r="4" fill="white" stroke="black" />
<circle cx="4550" cy="364" r="4" fill="white" stroke="black" />
<line x1="4350" y1="368" x2="4350" y2="379" stroke="black" />
<line x1="4350" y1="379" x2="4450" y2="384" stroke="black" />
<line x1="4450" y1="368" x2="4450" y2="379" stroke="black" />
<line x1="4450" y1="379" x2="4450" y2="384" stroke="black" />
<line x1="4550" y1="368" x2="4550" y2="379" stroke="black" />
<line x1="4550" y1="379" x2="4450" y2="384" stroke="black" />
<text x="4450" y="372" font-family="Verdana" font-size="8" text-anchor="middle"  dominant-baseline="middle" fill="black" > 369</text>
<circle cx="4450" cy="384" r="4" fill="white" stroke="black" />
<line x1="4450" y1="388" x2="4450" y2="681" stroke="black" />
<line x1="4446" y1="677" x2="4454" y2="685" stroke="red" />
<line x1="4446" y1="685" x2="4454" y2="677" stroke="red" />
<text x="4450" y="693" font-family="Verdana" font-size="8" text-anchor="middle"  dominant-baseline="middle" fill="black" > 666</text>
<text x="4650" y="7" font-family="Verdana" font-size="7" text-anchor="middle"  dominant-baseline="middle" fill="black" > C22</text>
<circle cx="4650" cy="15" r="4" fill="white" stroke="black" />
<line x1="4650" y1="19" x2="4650" y2="342" stroke="black" />
<line x1="4646" y1="346" x2="4650" y2="338" stroke="blue" />
<line x1="4650" y1="346" x2="4654" y2="338" stroke="blue" />
<text x="4650" y="354" font-family="Verdana" font-size="8" text-anchor="middle"  dominant-baseline="middle" fill="black" > 327</text>
<text x="4800" y="7" font-family="Verdana" font-size="7" text-anchor="middle"  dominant-baseline="middle" fill="black" > C23</text>
<circle cx="4800" cy="15" r="4" fill="white" stroke="black" />
<line x1="4800" y1="19" x2="4800" y2="197" stroke="black" />
<line x1="4750" y1="197" x2="4850" y2="197" stroke="black" />
<text x="4825" y="189" font-family="Verdana" font-size="8" text-anchor="middle"  dominant-baseline="middle" fill="black" > 182</text>
<circle cx="4750" cy="197" r="4" fill="white" stroke="black" />
<line x1="4750" y1="201" x2="4750" y2="404" stroke="black" />
<line x1="4746" y1="400" x2="4754" y2="408" stroke="red" />
<line x1="4746" y1="408" x2="4754" y2="400" stroke="red" />
<text x="4750" y="416" font-family="Verdana" font-size="8" text-anchor="middle"  dominant-baseline="middle" fill="black" > 389</text>
<circle cx="4850" cy="197" r="4" fill="white" stroke="black" />
<line x1="4850" y1="201" x2="4850" y2="418" stroke="black" />
<line x1="4846" y1="414" x2="4854" y2="422" stroke="red" />
<line x1="4846" y1="422" x2="4854" y2="414" stroke="red" />
<text x="4850" y="430" font-family="Verdana" font-size="8" text-anchor="middle"  dominant-baseline="middle" fill="black" > 403</text>
<text x="4950" y="7" font-family="Verdana" font-size="7" text-anchor="middle"  dominant-baseline="middle" fill="black" > C24</text>
<circle cx="4950" cy="15" r="4" fill="white" stroke="black" />
<line x1="4950" y1="19" x2="4950" y2="101" stroke="black" />
<line x1="4946" y1="105" x2="4950" y2="97" stroke="blue" />
<line x1="4950" y1="105" x2="4954" y2="97" stroke="blue" />
<text x="4950" y="113" font-family="Verdana" font-size="8" text-anchor="middle"  dominant-baseline="middle" fill="black" > 86</text>
<text x="5050" y="7" font-family="Verdana" font-size="7" text-anchor="middle"  dominant-baseline="middle" fill="black" > C25</text>
<circle cx="5050" cy="15" r="4" fill="white" stroke="black" />
<line x1="5050" y1="19" x2="5050" y2="58" stroke="black" />
<line x1="5046" y1="62" x2="5050" y2="54" stroke="blue" />
<line x1="5050" y1="62" x2="5054" y2="54" stroke="blue" />
<text x="5050" y="70" font-family="Verdana" font-size="8" text-anchor="middle"  dominant-baseline="middle" fill="black" > 43</text>
<text x="5150" y="7" font-family="Verdana" font-size="7" text-anchor="middle"  dominant-baseline="middle" fill="black" > C26</text>
<circle cx="5150" cy="15" r="4" fill="white" stroke="black" />
<line x1="5150" y1="19" x2="5150" y2="736" stroke="black" />
<circle cx="5150" cy="736" r="4" fill="white" stroke="black" />
<text x="5150" y="748" font-family="Verdana" font-size="8" text-anchor="middle"  dominant-baseline="middle" fill="black" > 721</text>
<text x="5250" y="7" font-family="Verdana" font-size="7" text-anchor="middle"  dominant-baseline="middle" fill="black" > C27</text>
<circle cx="5250" cy="15" r="4" fill="white" stroke="black" />
<line x1="5250" y1="19" x2="5250" y2="430" stroke="black" />
<line x1="5246" y1="426" x2="5254" y2="434" stroke="red" />
<line x1="5246" y1="434" x2="5254" y2="426" stroke="red" />
<text x="5250" y="442" font-family="Verdana" font-size="8" text-anchor="middle"  dominant-baseline="middle" fill="black" > 415</text>
<text x="5350" y="7" font-family="Verdana" font-size="7" text-anchor="middle"  dominant-baseline="middle" fill="black" > C28</text>
<circle cx="5350" cy="15" r="4" fill="white" stroke="black" />
<line x1="5350" y1="19" x2="5350" y2="60" stroke="black" />
<line x1="5346" y1="64" x2="5350" y2="56" stroke="blue" />
<line x1="5350" y1="64" x2="5354" y2="56" stroke="blue" />
<text x="5350" y="72" font-family="Verdana" font-size="8" text-anchor="middle"  dominant-baseline="middle" fill="black" > 45</text>
<text x="5450" y="7" font-family="Verdana" font-size="7" text-anchor="middle"  dominant-baseline="middle" fill="black" > C29</text>
<circle cx="5450" cy="15" r="4" fill="white" stroke="black" />
<line x1="5450" y1="19" x2="5450" y2="59" stroke="black" />
<line x1="5446" y1="63" x2="5450" y2="55" stroke="blue" />
<line x1="5450" y1="63" x2="5454" y2="55" stroke="blue" />
<text x="5450" y="71" font-family="Verdana" font-size="8" text-anchor="middle"  dominant-baseline="middle" fill="black" > 44</text>
</svg>
