<?xml version="1.0" encoding="utf-8"?>
<svg xmlns="http://www.w3.org/2000/svg" version="1.1" width="1650" height="750">
<rect width="1650" height="15" x="0" y="0" fill="white" />
<rect width="1650" height="15" x="0" y="735" fill="white" />
<rect width="25" height="750" x="0" y="0" fill="white" />
<rect width="25" height="750" x="1625" y="0" fill="white" />
<rect width="1610" height="144" x="25" y="15" fill="ghostwhite" />
<rect width="1610" height="144" x="25" y="159" fill="snow" />
<rect width="1610" height="144" x="25" y="303" fill="ghostwhite" />
<rect width="1610" height="144" x="25" y="447" fill="snow" />
<rect width="1610" height="144" x="25" y="591" fill="ghostwhite" />
<text x="12" y="87" font-family="Verdana" font-size="10" text-anchor="middle"  dominant-baseline="middle" fill="red" > D0</text>
<text x="12" y="231" font-family="Verdana" font-size="10" text-anchor="middle"  dominant-baseline="middle" fill="red" > D1</text>
<text x="12" y="375" font-family="Verdana" font-size="10" text-anchor="middle"  dominant-baseline="middle" fill="red" > D2</text>
<text x="12" y="519" font-family="Verdana" font-size="10" text-anchor="middle"  dominant-baseline="middle" fill="red" > D3</text>
<text x="12" y="663" font-family="Verdana" font-size="10" text-anchor="middle"  dominant-baseline="middle" fill="red" > D4</text>
<text x="12" y="20" font-family="Verdana" font-size="10" text-anchor="middle"  dominant-baseline="middle" fill="black" > 0</text>
<text x="12" y="164" font-family="Verdana" font-size="10" text-anchor="middle"  dominant-baseline="middle" fill="black" > 144</text>
<text x="12" y="308" font-family="Verdana" font-size="10" text-anchor="middle"  dominant-baseline="middle" fill="black" > 288</text>
<text x="12" y="452" font-family="Verdana" font-size="10" text-anchor="middle"  dominant-baseline="middle" fill="black" > 432</text>
<text x="12" y="596" font-family="Verdana" font-size="10" text-anchor="middle"  dominant-baseline="middle" fill="black" > 576</text>
<text x="12" y="740" font-family="Verdana" font-size="10" text-anchor="middle"  dominant-baseline="middle" fill="black" > 720</text>
<text x="100" y="7" font-family="Verdana" font-size="7" text-anchor="middle"  dominant-baseline="middle" fill="black" > C1</text>
<circle cx="100" cy="15" r="4" fill="white" stroke="black" />
<line x1="100" y1="19" x2="100" y2="138" stroke="black" />
<line x1="50" y1="138" x2="150" y2="138" stroke="black" />
<text x="125" y="130" font-family="Verdana" font-size="8" text-anchor="middle"  dominant-baseline="middle" fill="black" > 123</text>
<circle cx="50" cy="138" r="4" fill="white" stroke="black" />
<line x1="50" y1="142" x2="50" y2="273" stroke="black" />
<line x1="25" y1="273" x2="75" y2="273" stroke="black" />
<text x="62" y="265" font-family="Verdana" font-size="8" text-anchor="middle"  dominant-baseline="middle" fill="black" > 258</text>
<circle cx="25" cy="273" r="4" fill="white" stroke="black" />
<line x1="25" y1="277" x2="25" y2="377" stroke="black" />
<line x1="12" y1="377" x2="38" y2="377" stroke="black" />
<text x="31" y="369" font-family="Verdana" font-size="8" text-anchor="middle"  dominant-baseline="middle" fill="black" > 362</text>
<circle cx="12" cy="377" r="4" fill="white" stroke="black" />
<line x1="12" y1="381" x2="12" y2="447" stroke="black" />
<circle cx="12" cy="447" r="4" fill="white" stroke="black" />
<text x="12" y="459" font-family="Verdana" font-size="8" text-anchor="middle"  dominant-baseline="middle" fill="black" > 432</text>
<circle cx="37" cy="377" r="4" fill="white" stroke="black" />
<line x1="37" y1="381" x2="37" y2="447" stroke="black" />
<circle cx="37" cy="447" r="4" fill="white" stroke="black" />
<text x="37" y="459" font-family="Verdana" font-size="8" text-anchor="middle"  dominant-baseline="middle" fill="black" > 432</text>
<circle cx="75" cy="273" r="4" fill="white" stroke="black" />
<line x1="75" y1="277" x2="75" y2="377" stroke="black" />
<line x1="62" y1="377" x2="88" y2="377" stroke="black" />
<text x="81" y="369" font-family="Verdana" font-size="8" text-anchor="middle"  dominant-baseline="middle" fill="black" > 362</text>
<circle cx="62" cy="377" r="4" fill="white" stroke="black" />
<line x1="62" y1="381" x2="62" y2="447" stroke="black" />
<circle cx="62" cy="447" r="4" fill="white" stroke="black" />
<text x="62" y="459" font-family="Verdana" font-size="8" text-anchor="middle"  dominant-baseline="middle" fill="black" > 432</text>
<circle cx="87" cy="377" r="4" fill="white" stroke="black" />
<line x1="87" y1="381" x2="87" y2="447" stroke="black" />
<circle cx="87" cy="447" r="4" fill="white" stroke="black" />
<text x="87" y="459" font-family="Verdana" font-size="8" text-anchor="middle"  dominant-baseline="middle" fill="black" > 432</text>
<circle cx="150" cy="138" r="4" fill="white" stroke="black" />
<line x1="150" y1="142" x2="150" y2="256" stroke="black" />
<line x1="125" y1="256" x2="175" y2="256" stroke="black" />
<text x="162" y="248" font-family="Verdana" font-size="8" text-anchor="middle"  dominant-baseline="middle" fill="black" > 241</text>
<circle cx="125" cy="256" r="4" fill="white" stroke="black" />
<line x1="125" y1="260" x2="125" y2="358" stroke="black" />
<line x1="112" y1="358" x2="138" y2="358" stroke="black" />
<text x="131" y="350" font-family="Verdana" font-size="8" text-anchor="middle"  dominant-baseline="middle" fill="black" > 343</text>
<circle cx="112" cy="358" r="4" fill="white" stroke="black" />
<line x1="112" y1="362" x2="112" y2="447" stroke="black" />
<circle cx="112" cy="447" r="4" fill="white" stroke="black" />
<text x="112" y="459" font-family="Verdana" font-size="8" text-anchor="middle"  dominant-baseline="middle" fill="black" > 432</text>
<circle cx="137" cy="358" r="4" fill="white" stroke="black" />
<line x1="137" y1="362" x2="137" y2="447" stroke="black" />
<circle cx="137" cy="447" r="4" fill="white" stroke="black" />
<text x="137" y="459" font-family="Verdana" font-size="8" text-anchor="middle"  dominant-baseline="middle" fill="black" > 432</text>
<circle cx="175" cy="256" r="4" fill="white" stroke="black" />
<line x1="175" y1="260" x2="175" y2="358" stroke="black" />
<line x1="162" y1="358" x2="188" y2="358" stroke="black" />
<text x="181" y="350" font-family="Verdana" font-size="8" text-anchor="middle"  dominant-baseline="middle" fill="black" > 343</text>
<circle cx="162" cy="358" r="4" fill="white" stroke="black" />
<line x1="162" y1="362" x2="162" y2="447" stroke="black" />
<circle cx="162" cy="447" r="4" fill="white" stroke="black" />
<text x="162" y="459" font-family="Verdana" font-size="8" text-anchor="middle"  dominant-baseline="middle" fill="black" > 432</text>
<circle cx="187" cy="358" r="4" fill="white" stroke="black" />
<line x1="187" y1="362" x2="187" y2="447" stroke="black" />
<line x1="181" y1="447" x2="194" y2="447" stroke="black" />
<text x="190" y="439" font-family="Verdana" font-size="8" text-anchor="middle"  dominant-baseline="middle" fill="black" > 432</text>
<circle cx="181" cy="447" r="4" fill="white" stroke="black" />
<line x1="181" y1="451" x2="181" y2="447" stroke="black" />
<circle cx="181" cy="447" r="4" fill="white" stroke="black" />
<text x="181" y="459" font-family="Verdana" font-size="8" text-anchor="middle"  dominant-baseline="middle" fill="black" > 432</text>
<circle cx="193" cy="447" r="4" fill="white" stroke="black" />
<line x1="193" y1="451" x2="193" y2="447" stroke="black" />
<circle cx="193" cy="447" r="4" fill="white" stroke="black" />
<text x="193" y="459" font-family="Verdana" font-size="8" text-anchor="middle"  dominant-baseline="middle" fill="black" > 432</text>
<text x="300" y="7" font-family="Verdana" font-size="7" text-anchor="middle"  dominant-baseline="middle" fill="black" > C2</text>
<circle cx="300" cy="15" r="4" fill="white" stroke="black" />
<line x1="300" y1="19" x2="300" y2="124" stroke="black" />
<line x1="250" y1="124" x2="350" y2="124" stroke="black" />
<text x="325" y="116" font-family="Verdana" font-size="8" text-anchor="middle"  dominant-baseline="middle" fill="black" > 109</text>
<circle cx="250" cy="124" r="4" fill="white" stroke="black" />
<line x1="250" y1="128" x2="250" y2="247" stroke="black" />
<line x1="225" y1="247" x2="275" y2="247" stroke="black" />
<text x="262" y="239" font-family="Verdana" font-size="8" text-anchor="middle"  dominant-baseline="middle" fill="black" > 232</text>
<circle cx="225" cy="247" r="4" fill="white" stroke="black" />
<line x1="225" y1="251" x2="225" y2="365" stroke="black" />
<line x1="212" y1="365" x2="238" y2="365" stroke="black" />
<text x="231" y="357" font-family="Verdana" font-size="8" text-anchor="middle"  dominant-baseline="middle" fill="black" > 350</text>
<circle cx="212" cy="365" r="4" fill="white" stroke="black" />
<line x1="212" y1="369" x2="212" y2="447" stroke="black" />
<circle cx="212" cy="447" r="4" fill="white" stroke="black" />
<text x="212" y="459" font-family="Verdana" font-size="8" text-anchor="middle"  dominant-baseline="middle" fill="black" > 432</text>
<circle cx="237" cy="365" r="4" fill="white" stroke="black" />
<line x1="237" y1="369" x2="237" y2="447" stroke="black" />
<circle cx="237" cy="447" r="4" fill="white" stroke="black" />
<text x="237" y="459" font-family="Verdana" font-size="8" text-anchor="middle"  dominant-baseline="middle" fill="black" > 432</text>
<circle cx="275" cy="247" r="4" fill="white" stroke="black" />
<line x1="275" y1="251" x2="275" y2="361" stroke="black" />
<line x1="262" y1="361" x2="288" y2="361" stroke="black" />
<text x="281" y="353" font-family="Verdana" font-size="8" text-anchor="middle"  dominant-baseline="middle" fill="black" > 346</text>
<circle cx="262" cy="361" r="4" fill="white" stroke="black" />
<line x1="262" y1="365" x2="262" y2="447" stroke="black" />
<circle cx="262" cy="447" r="4" fill="white" stroke="black" />
<text x="262" y="459" font-family="Verdana" font-size="8" text-anchor="middle"  dominant-baseline="middle" fill="black" > 432</text>
<circle cx="287" cy="361" r="4" fill="white" stroke="black" />
<line x1="287" y1="365" x2="287" y2="447" stroke="black" />
<circle cx="287" cy="447" r="4" fill="white" stroke="black" />
<text x="287" y="459" font-family="Verdana" font-size="8" text-anchor="middle"  dominant-baseline="middle" fill="black" > 432</text>
<circle cx="350" cy="124" r="4" fill="white" stroke="black" />
<line x1="350" y1="128" x2="350" y2="253" stroke="black" />
<line x1="325" y1="253" x2="375" y2="253" stroke="black" />
<text x="362" y="245" font-family="Verdana" font-size="8" text-anchor="middle"  dominant-baseline="middle" fill="black" > 238</text>
<circle cx="325" cy="253" r="4" fill="white" stroke="black" />
<line x1="325" y1="257" x2="325" y2="361" stroke="black" />
<line x1="312" y1="361" x2="338" y2="361" stroke="black" />
<text x="331" y="353" font-family="Verdana" font-size="8" text-anchor="middle"  dominant-baseline="middle" fill="black" > 346</text>
<circle cx="312" cy="361" r="4" fill="white" stroke="black" />
<line x1="312" y1="365" x2="312" y2="447" stroke="black" />
<circle cx="312" cy="447" r="4" fill="white" stroke="black" />
<text x="312" y="459" font-family="Verdana" font-size="8" text-anchor="middle"  dominant-baseline="middle" fill="black" > 432</text>
<circle cx="337" cy="361" r="4" fill="white" stroke="black" />
<line x1="337" y1="365" x2="337" y2="447" stroke="black" />
<circle cx="337" cy="447" r="4" fill="white" stroke="black" />
<text x="337" y="459" font-family="Verdana" font-size="8" text-anchor="middle"  dominant-baseline="middle" fill="black" > 432</text>
<circle cx="375" cy="253" r="4" fill="white" stroke="black" />
<line x1="375" y1="257" x2="375" y2="361" stroke="black" />
<line x1="362" y1="361" x2="388" y2="361" stroke="black" />
<text x="381" y="353" font-family="Verdana" font-size="8" text-anchor="middle"  dominant-baseline="middle" fill="black" > 346</text>
<circle cx="362" cy="361" r="4" fill="white" stroke="black" />
<line x1="362" y1="365" x2="362" y2="447" stroke="black" />
<circle cx="362" cy="447" r="4" fill="white" stroke="black" />
<text x="362" y="459" font-family="Verdana" font-size="8" text-anchor="middle"  dominant-baseline="middle" fill="black" > 432</text>
<circle cx="387" cy="361" r="4" fill="white" stroke="black" />
<line x1="387" y1="365" x2="387" y2="447" stroke="black" />
<circle cx="387" cy="447" r="4" fill="white" stroke="black" />
<text x="387" y="459" font-family="Verdana" font-size="8" text-anchor="middle"  dominant-baseline="middle" fill="black" > 432</text>
<text x="500" y="7" font-family="Verdana" font-size="7" text-anchor="middle"  dominant-baseline="middle" fill="black" > C3</text>
<circle cx="500" cy="15" r="4" fill="white" stroke="black" />
<line x1="500" y1="19" x2="500" y2="16" stroke="black" />
<line x1="450" y1="16" x2="550" y2="16" stroke="black" />
<text x="525" y="8" font-family="Verdana" font-size="8" text-anchor="middle"  dominant-baseline="middle" fill="black" > 1</text>
<circle cx="450" cy="16" r="4" fill="white" stroke="black" />
<line x1="450" y1="20" x2="450" y2="168" stroke="black" />
<line x1="425" y1="168" x2="475" y2="168" stroke="black" />
<text x="462" y="160" font-family="Verdana" font-size="8" text-anchor="middle"  dominant-baseline="middle" fill="black" > 153</text>
<circle cx="425" cy="168" r="4" fill="white" stroke="black" />
<line x1="425" y1="172" x2="425" y2="302" stroke="black" />
<line x1="421" y1="298" x2="429" y2="306" stroke="red" />
<line x1="421" y1="306" x2="429" y2="298" stroke="red" />
<text x="425" y="314" font-family="Verdana" font-size="8" text-anchor="middle"  dominant-baseline="middle" fill="black" > 287</text>
<circle cx="475" cy="168" r="4" fill="white" stroke="black" />
<line x1="475" y1="172" x2="475" y2="307" stroke="black" />
<line x1="462" y1="307" x2="488" y2="307" stroke="black" />
<text x="481" y="299" font-family="Verdana" font-size="8" text-anchor="middle"  dominant-baseline="middle" fill="black" > 292</text>
<circle cx="462" cy="307" r="4" fill="white" stroke="black" />
<line x1="462" y1="311" x2="462" y2="411" stroke="black" />
<line x1="456" y1="411" x2="469" y2="411" stroke="black" />
<text x="465" y="403" font-family="Verdana" font-size="8" text-anchor="middle"  dominant-baseline="middle" fill="black" > 396</text>
<circle cx="456" cy="411" r="4" fill="white" stroke="black" />
<line x1="456" y1="415" x2="456" y2="447" stroke="black" />
<circle cx="456" cy="447" r="4" fill="white" stroke="black" />
<text x="456" y="459" font-family="Verdana" font-size="8" text-anchor="middle"  dominant-baseline="middle" fill="black" > 432</text>
<circle cx="468" cy="411" r="4" fill="white" stroke="black" />
<line x1="468" y1="415" x2="468" y2="447" stroke="black" />
<circle cx="468" cy="447" r="4" fill="white" stroke="black" />
<text x="468" y="459" font-family="Verdana" font-size="8" text-anchor="middle"  dominant-baseline="middle" fill="black" > 432</text>
<circle cx="487" cy="307" r="4" fill="white" stroke="black" />
<line x1="487" y1="311" x2="487" y2="418" stroke="black" />
<line x1="481" y1="418" x2="494" y2="418" stroke="black" />
<text x="490" y="410" font-family="Verdana" font-size="8" text-anchor="middle"  dominant-baseline="middle" fill="black" > 403</text>
<circle cx="481" cy="418" r="4" fill="white" stroke="black" />
<line x1="481" y1="422" x2="481" y2="447" stroke="black" />
<circle cx="481" cy="447" r="4" fill="white" stroke="black" />
<text x="481" y="459" font-family="Verdana" font-size="8" text-anchor="middle"  dominant-baseline="middle" fill="black" > 432</text>
<circle cx="493" cy="418" r="4" fill="white" stroke="black" />
<line x1="493" y1="422" x2="493" y2="447" stroke="black" />
<circle cx="493" cy="447" r="4" fill="white" stroke="black" />
<text x="493" y="459" font-family="Verdana" font-size="8" text-anchor="middle"  dominant-baseline="middle" fill="black" > 432</text>
<circle cx="550" cy="16" r="4" fill="white" stroke="black" />
<line x1="550" y1="20" x2="550" y2="201" stroke="black" />
<line x1="525" y1="201" x2="575" y2="201" stroke="black" />
<text x="562" y="193" font-family="Verdana" font-size="8" text-anchor="middle"  dominant-baseline="middle" fill="black" > 186</text>
<circle cx="525" cy="201" r="4" fill="white" stroke="black" />
<line x1="525" y1="205" x2="525" y2="325" stroke="black" />
<line x1="512" y1="325" x2="538" y2="325" stroke="black" />
<text x="531" y="317" font-family="Verdana" font-size="8" text-anchor="middle"  dominant-baseline="middle" fill="black" > 310</text>
<circle cx="512" cy="325" r="4" fill="white" stroke="black" />
<line x1="512" y1="329" x2="512" y2="422" stroke="black" />
<line x1="506" y1="422" x2="519" y2="422" stroke="black" />
<text x="515" y="414" font-family="Verdana" font-size="8" text-anchor="middle"  dominant-baseline="middle" fill="black" > 407</text>
<circle cx="506" cy="422" r="4" fill="white" stroke="black" />
<line x1="506" y1="426" x2="506" y2="447" stroke="black" />
<circle cx="506" cy="447" r="4" fill="white" stroke="black" />
<text x="506" y="459" font-family="Verdana" font-size="8" text-anchor="middle"  dominant-baseline="middle" fill="black" > 432</text>
<circle cx="518" cy="422" r="4" fill="white" stroke="black" />
<line x1="518" y1="426" x2="518" y2="447" stroke="black" />
<circle cx="518" cy="447" r="4" fill="white" stroke="black" />
<text x="518" y="459" font-family="Verdana" font-size="8" text-anchor="middle"  dominant-baseline="middle" fill="black" > 432</text>
<circle cx="537" cy="325" r="4" fill="white" stroke="black" />
<line x1="537" y1="329" x2="537" y2="413" stroke="black" />
<line x1="531" y1="413" x2="544" y2="413" stroke="black" />
<text x="540" y="405" font-family="Verdana" font-size="8" text-anchor="middle"  dominant-baseline="middle" fill="black" > 398</text>
<circle cx="531" cy="413" r="4" fill="white" stroke="black" />
<line x1="531" y1="417" x2="531" y2="447" stroke="black" />
<circle cx="531" cy="447" r="4" fill="white" stroke="black" />
<text x="531" y="459" font-family="Verdana" font-size="8" text-anchor="middle"  dominant-baseline="middle" fill="black" > 432</text>
<circle cx="543" cy="413" r="4" fill="white" stroke="black" />
<line x1="543" y1="417" x2="543" y2="447" stroke="black" />
<circle cx="543" cy="447" r="4" fill="white" stroke="black" />
<text x="543" y="459" font-family="Verdana" font-size="8" text-anchor="middle"  dominant-baseline="middle" fill="black" > 432</text>
<circle cx="575" cy="201" r="4" fill="white" stroke="black" />
<line x1="575" y1="205" x2="575" y2="358" stroke="black" />
<line x1="562" y1="358" x2="588" y2="358" stroke="black" />
<text x="581" y="350" font-family="Verdana" font-size="8" text-anchor="middle"  dominant-baseline="middle" fill="black" > 343</text>
<circle cx="562" cy="358" r="4" fill="white" stroke="black" />
<line x1="562" y1="362" x2="562" y2="447" stroke="black" />
<circle cx="562" cy="447" r="4" fill="white" stroke="black" />
<text x="562" y="459" font-family="Verdana" font-size="8" text-anchor="middle"  dominant-baseline="middle" fill="black" > 432</text>
<circle cx="587" cy="358" r="4" fill="white" stroke="black" />
<line x1="587" y1="362" x2="587" y2="427" stroke="black" />
<line x1="581" y1="427" x2="594" y2="427" stroke="black" />
<text x="590" y="419" font-family="Verdana" font-size="8" text-anchor="middle"  dominant-baseline="middle" fill="black" > 412</text>
<circle cx="581" cy="427" r="4" fill="white" stroke="black" />
<line x1="581" y1="431" x2="581" y2="447" stroke="black" />
<circle cx="581" cy="447" r="4" fill="white" stroke="black" />
<text x="581" y="459" font-family="Verdana" font-size="8" text-anchor="middle"  dominant-baseline="middle" fill="black" > 432</text>
<circle cx="593" cy="427" r="4" fill="white" stroke="black" />
<line x1="593" y1="431" x2="593" y2="447" stroke="black" />
<circle cx="593" cy="447" r="4" fill="white" stroke="black" />
<text x="593" y="459" font-family="Verdana" font-size="8" text-anchor="middle"  dominant-baseline="middle" fill="black" > 432</text>
<text x="700" y="7" font-family="Verdana" font-size="7" text-anchor="middle"  dominant-baseline="middle" fill="black" > C4</text>
<circle cx="700" cy="15" r="4" fill="white" stroke="black" />
<line x1="700" y1="19" x2="700" y2="348" stroke="black" />
<line x1="650" y1="348" x2="750" y2="348" stroke="black" />
<text x="725" y="340" font-family="Verdana" font-size="8" text-anchor="middle"  dominant-baseline="middle" fill="black" > 333</text>
<circle cx="650" cy="348" r="4" fill="white" stroke="black" />
<line x1="650" y1="352" x2="650" y2="447" stroke="black" />
<circle cx="650" cy="447" r="4" fill="white" stroke="black" />
<text x="650" y="459" font-family="Verdana" font-size="8" text-anchor="middle"  dominant-baseline="middle" fill="black" > 432</text>
<circle cx="750" cy="348" r="4" fill="white" stroke="black" />
<line x1="750" y1="352" x2="750" y2="446" stroke="black" />
<line x1="725" y1="446" x2="775" y2="446" stroke="black" />
<text x="762" y="438" font-family="Verdana" font-size="8" text-anchor="middle"  dominant-baseline="middle" fill="black" > 431</text>
<circle cx="725" cy="446" r="4" fill="white" stroke="black" />
<line x1="725" y1="450" x2="725" y2="447" stroke="black" />
<circle cx="725" cy="447" r="4" fill="white" stroke="black" />
<text x="725" y="459" font-family="Verdana" font-size="8" text-anchor="middle"  dominant-baseline="middle" fill="black" > 432</text>
<circle cx="775" cy="446" r="4" fill="white" stroke="black" />
<line x1="775" y1="450" x2="775" y2="447" stroke="black" />
<circle cx="775" cy="447" r="4" fill="white" stroke="black" />
<text x="775" y="459" font-family="Verdana" font-size="8" text-anchor="middle"  dominant-baseline="middle" fill="black" > 432</text>
<text x="900" y="7" font-family="Verdana" font-size="7" text-anchor="middle"  dominant-baseline="middle" fill="black" > C5</text>
<circle cx="900" cy="15" r="4" fill="white" stroke="black" />
<line x1="900" y1="19" x2="900" y2="167" stroke="black" />
<line x1="850" y1="167" x2="950" y2="167" stroke="black" />
<text x="925" y="159" font-family="Verdana" font-size="8" text-anchor="middle"  dominant-baseline="middle" fill="black" > 152</text>
<circle cx="850" cy="167" r="4" fill="white" stroke="black" />
<line x1="850" y1="171" x2="850" y2="388" stroke="black" />
<line x1="825" y1="388" x2="875" y2="388" stroke="black" />
<text x="862" y="380" font-family="Verdana" font-size="8" text-anchor="middle"  dominant-baseline="middle" fill="black" > 373</text>
<circle cx="825" cy="388" r="4" fill="white" stroke="black" />
<line x1="825" y1="392" x2="825" y2="447" stroke="black" />
<circle cx="825" cy="447" r="4" fill="white" stroke="black" />
<text x="825" y="459" font-family="Verdana" font-size="8" text-anchor="middle"  dominant-baseline="middle" fill="black" > 432</text>
<circle cx="875" cy="388" r="4" fill="white" stroke="black" />
<line x1="875" y1="392" x2="875" y2="447" stroke="black" />
<circle cx="875" cy="447" r="4" fill="white" stroke="black" />
<text x="875" y="459" font-family="Verdana" font-size="8" text-anchor="middle"  dominant-baseline="middle" fill="black" > 432</text>
<circle cx="950" cy="167" r="4" fill="white" stroke="black" />
<line x1="950" y1="171" x2="950" y2="324" stroke="black" />
<line x1="925" y1="324" x2="975" y2="324" stroke="black" />
<text x="962" y="316" font-family="Verdana" font-size="8" text-anchor="middle"  dominant-baseline="middle" fill="black" > 309</text>
<circle cx="925" cy="324" r="4" fill="white" stroke="black" />
<line x1="925" y1="328" x2="925" y2="411" stroke="black" />
<line x1="912" y1="411" x2="938" y2="411" stroke="black" />
<text x="931" y="403" font-family="Verdana" font-size="8" text-anchor="middle"  dominant-baseline="middle" fill="black" > 396</text>
<circle cx="912" cy="411" r="4" fill="white" stroke="black" />
<line x1="912" y1="415" x2="912" y2="447" stroke="black" />
<circle cx="912" cy="447" r="4" fill="white" stroke="black" />
<text x="912" y="459" font-family="Verdana" font-size="8" text-anchor="middle"  dominant-baseline="middle" fill="black" > 432</text>
<circle cx="937" cy="411" r="4" fill="white" stroke="black" />
<line x1="937" y1="415" x2="937" y2="447" stroke="black" />
<circle cx="937" cy="447" r="4" fill="white" stroke="black" />
<text x="937" y="459" font-family="Verdana" font-size="8" text-anchor="middle"  dominant-baseline="middle" fill="black" > 432</text>
<circle cx="975" cy="324" r="4" fill="white" stroke="black" />
<line x1="975" y1="328" x2="975" y2="413" stroke="black" />
<line x1="962" y1="413" x2="988" y2="413" stroke="black" />
<text x="981" y="405" font-family="Verdana" font-size="8" text-anchor="middle"  dominant-baseline="middle" fill="black" > 398</text>
<circle cx="962" cy="413" r="4" fill="white" stroke="black" />
<line x1="962" y1="417" x2="962" y2="447" stroke="black" />
<circle cx="962" cy="447" r="4" fill="white" stroke="black" />
<text x="962" y="459" font-family="Verdana" font-size="8" text-anchor="middle"  dominant-baseline="middle" fill="black" > 432</text>
<circle cx="987" cy="413" r="4" fill="white" stroke="black" />
<line x1="987" y1="417" x2="987" y2="447" stroke="black" />
<circle cx="987" cy="447" r="4" fill="white" stroke="black" />
<text x="987" y="459" font-family="Verdana" font-size="8" text-anchor="middle"  dominant-baseline="middle" fill="black" > 432</text>
<text x="1100" y="7" font-family="Verdana" font-size="7" text-anchor="middle"  dominant-baseline="middle" fill="black" > C6</text>
<circle cx="1100" cy="15" r="4" fill="white" stroke="black" />
<line x1="1100" y1="19" x2="1100" y2="131" stroke="black" />
<line x1="1050" y1="131" x2="1150" y2="131" stroke="black" />
<text x="1125" y="123" font-family="Verdana" font-size="8" text-anchor="middle"  dominant-baseline="middle" fill="black" > 116</text>
<circle cx="1050" cy="131" r="4" fill="white" stroke="black" />
<line x1="1050" y1="135" x2="1050" y2="312" stroke="black" />
<line x1="1025" y1="312" x2="1075" y2="312" stroke="black" />
<text x="1062" y="304" font-family="Verdana" font-size="8" text-anchor="middle"  dominant-baseline="middle" fill="black" > 297</text>
<circle cx="1025" cy="312" r="4" fill="white" stroke="black" />
<line x1="1025" y1="316" x2="1025" y2="399" stroke="black" />
<line x1="1012" y1="399" x2="1038" y2="399" stroke="black" />
<text x="1031" y="391" font-family="Verdana" font-size="8" text-anchor="middle"  dominant-baseline="middle" fill="black" > 384</text>
<circle cx="1012" cy="399" r="4" fill="white" stroke="black" />
<line x1="1012" y1="403" x2="1012" y2="447" stroke="black" />
<circle cx="1012" cy="447" r="4" fill="white" stroke="black" />
<text x="1012" y="459" font-family="Verdana" font-size="8" text-anchor="middle"  dominant-baseline="middle" fill="black" > 432</text>
<circle cx="1037" cy="399" r="4" fill="white" stroke="black" />
<line x1="1037" y1="403" x2="1037" y2="447" stroke="black" />
<circle cx="1037" cy="447" r="4" fill="white" stroke="black" />
<text x="1037" y="459" font-family="Verdana" font-size="8" text-anchor="middle"  dominant-baseline="middle" fill="black" > 432</text>
<circle cx="1075" cy="312" r="4" fill="white" stroke="black" />
<line x1="1075" y1="316" x2="1075" y2="391" stroke="black" />
<line x1="1062" y1="391" x2="1088" y2="391" stroke="black" />
<text x="1081" y="383" font-family="Verdana" font-size="8" text-anchor="middle"  dominant-baseline="middle" fill="black" > 376</text>
<circle cx="1062" cy="391" r="4" fill="white" stroke="black" />
<line x1="1062" y1="395" x2="1062" y2="447" stroke="black" />
<circle cx="1062" cy="447" r="4" fill="white" stroke="black" />
<text x="1062" y="459" font-family="Verdana" font-size="8" text-anchor="middle"  dominant-baseline="middle" fill="black" > 432</text>
<circle cx="1087" cy="391" r="4" fill="white" stroke="black" />
<line x1="1087" y1="395" x2="1087" y2="447" stroke="black" />
<circle cx="1087" cy="447" r="4" fill="white" stroke="black" />
<text x="1087" y="459" font-family="Verdana" font-size="8" text-anchor="middle"  dominant-baseline="middle" fill="black" > 432</text>
<circle cx="1150" cy="131" r="4" fill="white" stroke="black" />
<line x1="1150" y1="135" x2="1150" y2="312" stroke="black" />
<line x1="1125" y1="312" x2="1175" y2="312" stroke="black" />
<text x="1162" y="304" font-family="Verdana" font-size="8" text-anchor="middle"  dominant-baseline="middle" fill="black" > 297</text>
<circle cx="1125" cy="312" r="4" fill="white" stroke="black" />
<line x1="1125" y1="316" x2="1125" y2="413" stroke="black" />
<line x1="1112" y1="413" x2="1138" y2="413" stroke="black" />
<text x="1131" y="405" font-family="Verdana" font-size="8" text-anchor="middle"  dominant-baseline="middle" fill="black" > 398</text>
<circle cx="1112" cy="413" r="4" fill="white" stroke="black" />
<line x1="1112" y1="417" x2="1112" y2="447" stroke="black" />
<circle cx="1112" cy="447" r="4" fill="white" stroke="black" />
<text x="1112" y="459" font-family="Verdana" font-size="8" text-anchor="middle"  dominant-baseline="middle" fill="black" > 432</text>
<circle cx="1137" cy="413" r="4" fill="white" stroke="black" />
<line x1="1137" y1="417" x2="1137" y2="447" stroke="black" />
<circle cx="1137" cy="447" r="4" fill="white" stroke="black" />
<text x="1137" y="459" font-family="Verdana" font-size="8" text-anchor="middle"  dominant-baseline="middle" fill="black" > 432</text>
<circle cx="1175" cy="312" r="4" fill="white" stroke="black" />
<line x1="1175" y1="316" x2="1175" y2="413" stroke="black" />
<line x1="1162" y1="413" x2="1188" y2="413" stroke="black" />
<text x="1181" y="405" font-family="Verdana" font-size="8" text-anchor="middle"  dominant-baseline="middle" fill="black" > 398</text>
<circle cx="1162" cy="413" r="4" fill="white" stroke="black" />
<line x1="1162" y1="417" x2="1162" y2="447" stroke="black" />
<circle cx="1162" cy="447" r="4" fill="white" stroke="black" />
<text x="1162" y="459" font-family="Verdana" font-size="8" text-anchor="middle"  dominant-baseline="middle" fill="black" > 432</text>
<circle cx="1187" cy="413" r="4" fill="white" stroke="black" />
<line x1="1187" y1="417" x2="1187" y2="447" stroke="black" />
<circle cx="1187" cy="447" r="4" fill="white" stroke="black" />
<text x="1187" y="459" font-family="Verdana" font-size="8" text-anchor="middle"  dominant-baseline="middle" fill="black" > 432</text>
<text x="1300" y="7" font-family="Verdana" font-size="7" text-anchor="middle"  dominant-baseline="middle" fill="black" > C7</text>
<circle cx="1300" cy="15" r="4" fill="white" stroke="black" />
<line x1="1300" y1="19" x2="1300" y2="41" stroke="black" />
<line x1="1250" y1="41" x2="1350" y2="41" stroke="black" />
<text x="1325" y="33" font-family="Verdana" font-size="8" text-anchor="middle"  dominant-baseline="middle" fill="black" > 26</text>
<circle cx="1250" cy="41" r="4" fill="white" stroke="black" />
<line x1="1250" y1="45" x2="1250" y2="183" stroke="black" />
<line x1="1225" y1="183" x2="1275" y2="183" stroke="black" />
<text x="1262" y="175" font-family="Verdana" font-size="8" text-anchor="middle"  dominant-baseline="middle" fill="black" > 168</text>
<circle cx="1225" cy="183" r="4" fill="white" stroke="black" />
<line x1="1225" y1="187" x2="1225" y2="299" stroke="black" />
<line x1="1212" y1="299" x2="1238" y2="299" stroke="black" />
<text x="1231" y="291" font-family="Verdana" font-size="8" text-anchor="middle"  dominant-baseline="middle" fill="black" > 284</text>
<circle cx="1212" cy="299" r="4" fill="white" stroke="black" />
<line x1="1212" y1="303" x2="1212" y2="404" stroke="black" />
<line x1="1206" y1="404" x2="1219" y2="404" stroke="black" />
<text x="1215" y="396" font-family="Verdana" font-size="8" text-anchor="middle"  dominant-baseline="middle" fill="black" > 389</text>
<circle cx="1206" cy="404" r="4" fill="white" stroke="black" />
<line x1="1206" y1="408" x2="1206" y2="447" stroke="black" />
<circle cx="1206" cy="447" r="4" fill="white" stroke="black" />
<text x="1206" y="459" font-family="Verdana" font-size="8" text-anchor="middle"  dominant-baseline="middle" fill="black" > 432</text>
<circle cx="1218" cy="404" r="4" fill="white" stroke="black" />
<line x1="1218" y1="408" x2="1218" y2="447" stroke="black" />
<circle cx="1218" cy="447" r="4" fill="white" stroke="black" />
<text x="1218" y="459" font-family="Verdana" font-size="8" text-anchor="middle"  dominant-baseline="middle" fill="black" > 432</text>
<circle cx="1237" cy="299" r="4" fill="white" stroke="black" />
<line x1="1237" y1="303" x2="1237" y2="404" stroke="black" />
<line x1="1231" y1="404" x2="1244" y2="404" stroke="black" />
<text x="1240" y="396" font-family="Verdana" font-size="8" text-anchor="middle"  dominant-baseline="middle" fill="black" > 389</text>
<circle cx="1231" cy="404" r="4" fill="white" stroke="black" />
<line x1="1231" y1="408" x2="1231" y2="447" stroke="black" />
<circle cx="1231" cy="447" r="4" fill="white" stroke="black" />
<text x="1231" y="459" font-family="Verdana" font-size="8" text-anchor="middle"  dominant-baseline="middle" fill="black" > 432</text>
<circle cx="1243" cy="404" r="4" fill="white" stroke="black" />
<line x1="1243" y1="408" x2="1243" y2="447" stroke="black" />
<circle cx="1243" cy="447" r="4" fill="white" stroke="black" />
<text x="1243" y="459" font-family="Verdana" font-size="8" text-anchor="middle"  dominant-baseline="middle" fill="black" > 432</text>
<circle cx="1275" cy="183" r="4" fill="white" stroke="black" />
<line x1="1275" y1="187" x2="1275" y2="294" stroke="black" />
<line x1="1262" y1="294" x2="1288" y2="294" stroke="black" />
<text x="1281" y="286" font-family="Verdana" font-size="8" text-anchor="middle"  dominant-baseline="middle" fill="black" > 279</text>
<circle cx="1262" cy="294" r="4" fill="white" stroke="black" />
<line x1="1262" y1="298" x2="1262" y2="403" stroke="black" />
<line x1="1256" y1="403" x2="1269" y2="403" stroke="black" />
<text x="1265" y="395" font-family="Verdana" font-size="8" text-anchor="middle"  dominant-baseline="middle" fill="black" > 388</text>
<circle cx="1256" cy="403" r="4" fill="white" stroke="black" />
<line x1="1256" y1="407" x2="1256" y2="447" stroke="black" />
<circle cx="1256" cy="447" r="4" fill="white" stroke="black" />
<text x="1256" y="459" font-family="Verdana" font-size="8" text-anchor="middle"  dominant-baseline="middle" fill="black" > 432</text>
<circle cx="1268" cy="403" r="4" fill="white" stroke="black" />
<line x1="1268" y1="407" x2="1268" y2="447" stroke="black" />
<circle cx="1268" cy="447" r="4" fill="white" stroke="black" />
<text x="1268" y="459" font-family="Verdana" font-size="8" text-anchor="middle"  dominant-baseline="middle" fill="black" > 432</text>
<circle cx="1287" cy="294" r="4" fill="white" stroke="black" />
<line x1="1287" y1="298" x2="1287" y2="407" stroke="black" />
<line x1="1281" y1="407" x2="1294" y2="407" stroke="black" />
<text x="1290" y="399" font-family="Verdana" font-size="8" text-anchor="middle"  dominant-baseline="middle" fill="black" > 392</text>
<circle cx="1281" cy="407" r="4" fill="white" stroke="black" />
<line x1="1281" y1="411" x2="1281" y2="447" stroke="black" />
<circle cx="1281" cy="447" r="4" fill="white" stroke="black" />
<text x="1281" y="459" font-family="Verdana" font-size="8" text-anchor="middle"  dominant-baseline="middle" fill="black" > 432</text>
<circle cx="1293" cy="407" r="4" fill="white" stroke="black" />
<line x1="1293" y1="411" x2="1293" y2="447" stroke="black" />
<circle cx="1293" cy="447" r="4" fill="white" stroke="black" />
<text x="1293" y="459" font-family="Verdana" font-size="8" text-anchor="middle"  dominant-baseline="middle" fill="black" > 432</text>
<circle cx="1350" cy="41" r="4" fill="white" stroke="black" />
<line x1="1350" y1="45" x2="1350" y2="159" stroke="black" />
<line x1="1325" y1="159" x2="1375" y2="159" stroke="black" />
<text x="1362" y="151" font-family="Verdana" font-size="8" text-anchor="middle"  dominant-baseline="middle" fill="black" > 144</text>
<circle cx="1325" cy="159" r="4" fill="white" stroke="black" />
<line x1="1325" y1="163" x2="1325" y2="272" stroke="black" />
<line x1="1312" y1="272" x2="1338" y2="272" stroke="black" />
<text x="1331" y="264" font-family="Verdana" font-size="8" text-anchor="middle"  dominant-baseline="middle" fill="black" > 257</text>
<circle cx="1312" cy="272" r="4" fill="white" stroke="black" />
<line x1="1312" y1="276" x2="1312" y2="374" stroke="black" />
<line x1="1306" y1="374" x2="1319" y2="374" stroke="black" />
<text x="1315" y="366" font-family="Verdana" font-size="8" text-anchor="middle"  dominant-baseline="middle" fill="black" > 359</text>
<circle cx="1306" cy="374" r="4" fill="white" stroke="black" />
<line x1="1306" y1="378" x2="1306" y2="447" stroke="black" />
<circle cx="1306" cy="447" r="4" fill="white" stroke="black" />
<text x="1306" y="459" font-family="Verdana" font-size="8" text-anchor="middle"  dominant-baseline="middle" fill="black" > 432</text>
<circle cx="1318" cy="374" r="4" fill="white" stroke="black" />
<line x1="1318" y1="378" x2="1318" y2="447" stroke="black" />
<circle cx="1318" cy="447" r="4" fill="white" stroke="black" />
<text x="1318" y="459" font-family="Verdana" font-size="8" text-anchor="middle"  dominant-baseline="middle" fill="black" > 432</text>
<circle cx="1337" cy="272" r="4" fill="white" stroke="black" />
<line x1="1337" y1="276" x2="1337" y2="376" stroke="black" />
<line x1="1331" y1="376" x2="1344" y2="376" stroke="black" />
<text x="1340" y="368" font-family="Verdana" font-size="8" text-anchor="middle"  dominant-baseline="middle" fill="black" > 361</text>
<circle cx="1331" cy="376" r="4" fill="white" stroke="black" />
<line x1="1331" y1="380" x2="1331" y2="447" stroke="black" />
<circle cx="1331" cy="447" r="4" fill="white" stroke="black" />
<text x="1331" y="459" font-family="Verdana" font-size="8" text-anchor="middle"  dominant-baseline="middle" fill="black" > 432</text>
<circle cx="1343" cy="376" r="4" fill="white" stroke="black" />
<line x1="1343" y1="380" x2="1343" y2="447" stroke="black" />
<circle cx="1343" cy="447" r="4" fill="white" stroke="black" />
<text x="1343" y="459" font-family="Verdana" font-size="8" text-anchor="middle"  dominant-baseline="middle" fill="black" > 432</text>
<circle cx="1375" cy="159" r="4" fill="white" stroke="black" />
<line x1="1375" y1="163" x2="1375" y2="274" stroke="black" />
<line x1="1362" y1="274" x2="1388" y2="274" stroke="black" />
<text x="1381" y="266" font-family="Verdana" font-size="8" text-anchor="middle"  dominant-baseline="middle" fill="black" > 259</text>
<circle cx="1362" cy="274" r="4" fill="white" stroke="black" />
<line x1="1362" y1="278" x2="1362" y2="377" stroke="black" />
<line x1="1356" y1="377" x2="1369" y2="377" stroke="black" />
<text x="1365" y="369" font-family="Verdana" font-size="8" text-anchor="middle"  dominant-baseline="middle" fill="black" > 362</text>
<circle cx="1356" cy="377" r="4" fill="white" stroke="black" />
<line x1="1356" y1="381" x2="1356" y2="447" stroke="black" />
<circle cx="1356" cy="447" r="4" fill="white" stroke="black" />
<text x="1356" y="459" font-family="Verdana" font-size="8" text-anchor="middle"  dominant-baseline="middle" fill="black" > 432</text>
<circle cx="1368" cy="377" r="4" fill="white" stroke="black" />
<line x1="1368" y1="381" x2="1368" y2="447" stroke="black" />
<circle cx="1368" cy="447" r="4" fill="white" stroke="black" />
<text x="1368" y="459" font-family="Verdana" font-size="8" text-anchor="middle"  dominant-baseline="middle" fill="black" > 432</text>
<circle cx="1387" cy="274" r="4" fill="white" stroke="black" />
<line x1="1387" y1="278" x2="1387" y2="384" stroke="black" />
<line x1="1381" y1="384" x2="1394" y2="384" stroke="black" />
<text x="1390" y="376" font-family="Verdana" font-size="8" text-anchor="middle"  dominant-baseline="middle" fill="black" > 369</text>
<circle cx="1381" cy="384" r="4" fill="white" stroke="black" />
<line x1="1381" y1="388" x2="1381" y2="447" stroke="black" />
<circle cx="1381" cy="447" r="4" fill="white" stroke="black" />
<text x="1381" y="459" font-family="Verdana" font-size="8" text-anchor="middle"  dominant-baseline="middle" fill="black" > 432</text>
<circle cx="1393" cy="384" r="4" fill="white" stroke="black" />
<line x1="1393" y1="388" x2="1393" y2="447" stroke="black" />
<circle cx="1393" cy="447" r="4" fill="white" stroke="black" />
<text x="1393" y="459" font-family="Verdana" font-size="8" text-anchor="middle"  dominant-baseline="middle" fill="black" > 432</text>
<text x="1500" y="7" font-family="Verdana" font-size="7" text-anchor="middle"  dominant-baseline="middle" fill="black" > C8</text>
<circle cx="1500" cy="15" r="4" fill="white" stroke="black" />
<line x1="1500" y1="19" x2="1500" y2="134" stroke="black" />
<line x1="1450" y1="134" x2="1550" y2="134" stroke="black" />
<text x="1525" y="126" font-family="Verdana" font-size="8" text-anchor="middle"  dominant-baseline="middle" fill="black" > 119</text>
<circle cx="1450" cy="134" r="4" fill="white" stroke="black" />
<line x1="1450" y1="138" x2="1450" y2="272" stroke="black" />
<line x1="1425" y1="272" x2="1475" y2="272" stroke="black" />
<text x="1462" y="264" font-family="Verdana" font-size="8" text-anchor="middle"  dominant-baseline="middle" fill="black" > 257</text>
<circle cx="1425" cy="272" r="4" fill="white" stroke="black" />
<line x1="1425" y1="276" x2="1425" y2="370" stroke="black" />
<line x1="1412" y1="370" x2="1438" y2="370" stroke="black" />
<text x="1431" y="362" font-family="Verdana" font-size="8" text-anchor="middle"  dominant-baseline="middle" fill="black" > 355</text>
<circle cx="1412" cy="370" r="4" fill="white" stroke="black" />
<line x1="1412" y1="374" x2="1412" y2="447" stroke="black" />
<circle cx="1412" cy="447" r="4" fill="white" stroke="black" />
<text x="1412" y="459" font-family="Verdana" font-size="8" text-anchor="middle"  dominant-baseline="middle" fill="black" > 432</text>
<circle cx="1437" cy="370" r="4" fill="white" stroke="black" />
<line x1="1437" y1="374" x2="1437" y2="447" stroke="black" />
<circle cx="1437" cy="447" r="4" fill="white" stroke="black" />
<text x="1437" y="459" font-family="Verdana" font-size="8" text-anchor="middle"  dominant-baseline="middle" fill="black" > 432</text>
<circle cx="1475" cy="272" r="4" fill="white" stroke="black" />
<line x1="1475" y1="276" x2="1475" y2="388" stroke="black" />
<line x1="1462" y1="388" x2="1488" y2="388" stroke="black" />
<text x="1481" y="380" font-family="Verdana" font-size="8" text-anchor="middle"  dominant-baseline="middle" fill="black" > 373</text>
<circle cx="1462" cy="388" r="4" fill="white" stroke="black" />
<line x1="1462" y1="392" x2="1462" y2="447" stroke="black" />
<circle cx="1462" cy="447" r="4" fill="white" stroke="black" />
<text x="1462" y="459" font-family="Verdana" font-size="8" text-anchor="middle"  dominant-baseline="middle" fill="black" > 432</text>
<circle cx="1487" cy="388" r="4" fill="white" stroke="black" />
<line x1="1487" y1="392" x2="1487" y2="447" stroke="black" />
<circle cx="1487" cy="447" r="4" fill="white" stroke="black" />
<text x="1487" y="459" font-family="Verdana" font-size="8" text-anchor="middle"  dominant-baseline="middle" fill="black" > 432</text>
<circle cx="1550" cy="134" r="4" fill="white" stroke="black" />
<line x1="1550" y1="138" x2="1550" y2="274" stroke="black" />
<line x1="1525" y1="274" x2="1575" y2="274" stroke="black" />
<text x="1562" y="266" font-family="Verdana" font-size="8" text-anchor="middle"  dominant-baseline="middle" fill="black" > 259</text>
<circle cx="1525" cy="274" r="4" fill="white" stroke="black" />
<line x1="1525" y1="278" x2="1525" y2="381" stroke="black" />
<line x1="1512" y1="381" x2="1538" y2="381" stroke="black" />
<text x="1531" y="373" font-family="Verdana" font-size="8" text-anchor="middle"  dominant-baseline="middle" fill="black" > 366</text>
<circle cx="1512" cy="381" r="4" fill="white" stroke="black" />
<line x1="1512" y1="385" x2="1512" y2="447" stroke="black" />
<circle cx="1512" cy="447" r="4" fill="white" stroke="black" />
<text x="1512" y="459" font-family="Verdana" font-size="8" text-anchor="middle"  dominant-baseline="middle" fill="black" > 432</text>
<circle cx="1537" cy="381" r="4" fill="white" stroke="black" />
<line x1="1537" y1="385" x2="1537" y2="447" stroke="black" />
<circle cx="1537" cy="447" r="4" fill="white" stroke="black" />
<text x="1537" y="459" font-family="Verdana" font-size="8" text-anchor="middle"  dominant-baseline="middle" fill="black" > 432</text>
<circle cx="1575" cy="274" r="4" fill="white" stroke="black" />
<line x1="1575" y1="278" x2="1575" y2="386" stroke="black" />
<line x1="1562" y1="386" x2="1588" y2="386" stroke="black" />
<text x="1581" y="378" font-family="Verdana" font-size="8" text-anchor="middle"  dominant-baseline="middle" fill="black" > 371</text>
<circle cx="1562" cy="386" r="4" fill="white" stroke="black" />
<line x1="1562" y1="390" x2="1562" y2="447" stroke="black" />
<circle cx="1562" cy="447" r="4" fill="white" stroke="black" />
<text x="1562" y="459" font-family="Verdana" font-size="8" text-anchor="middle"  dominant-baseline="middle" fill="black" > 432</text>
<circle cx="1587" cy="386" r="4" fill="white" stroke="black" />
<line x1="1587" y1="390" x2="1587" y2="447" stroke="black" />
<circle cx="1587" cy="447" r="4" fill="white" stroke="black" />
<text x="1587" y="459" font-family="Verdana" font-size="8" text-anchor="middle"  dominant-baseline="middle" fill="black" > 432</text>
</svg>
