<?xml version="1.0" encoding="utf-8"?>
<svg xmlns="http://www.w3.org/2000/svg" version="1.1" width="1350" height="750">
<rect width="1350" height="15" x="0" y="0" fill="white" />
<rect width="1350" height="15" x="0" y="735" fill="white" />
<rect width="25" height="750" x="0" y="0" fill="white" />
<rect width="25" height="750" x="1325" y="0" fill="white" />
<rect width="1310" height="144" x="25" y="15" fill="ghostwhite" />
<rect width="1310" height="144" x="25" y="159" fill="snow" />
<rect width="1310" height="144" x="25" y="303" fill="ghostwhite" />
<rect width="1310" height="144" x="25" y="447" fill="snow" />
<rect width="1310" height="144" x="25" y="591" fill="ghostwhite" />
<text x="12" y="87" font-family="Verdana" font-size="10" text-anchor="middle"  dominant-baseline="middle" fill="red" > D0</text>
<text x="12" y="231" font-family="Verdana" font-size="10" text-anchor="middle"  dominant-baseline="middle" fill="red" > D1</text>
<text x="12" y="375" font-family="Verdana" font-size="10" text-anchor="middle"  dominant-baseline="middle" fill="red" > D2</text>
<text x="12" y="519" font-family="Verdana" font-size="10" text-anchor="middle"  dominant-baseline="middle" fill="red" > D3</text>
<text x="12" y="663" font-family="Verdana" font-size="10" text-anchor="middle"  dominant-baseline="middle" fill="red" > D4</text>
<text x="12" y="20" font-family="Verdana" font-size="10" text-anchor="middle"  dominant-baseline="middle" fill="black" > 0</text>
<text x="12" y="164" font-family="Verdana" font-size="10" text-anchor="middle"  dominant-baseline="middle" fill="black" > 144</text>
<text x="12" y="308" font-family="Verdana" font-size="10" text-anchor="middle"  dominant-baseline="middle" fill="black" > 288</text>
<text x="12" y="452" font-family="Verdana" font-size="10" text-anchor="middle"  dominant-baseline="middle" fill="black" > 432</text>
<text x="12" y="596" font-family="Verdana" font-size="10" text-anchor="middle"  dominant-baseline="middle" fill="black" > 576</text>
<text x="12" y="740" font-family="Verdana" font-size="10" text-anchor="middle"  dominant-baseline="middle" fill="black" > 720</text>
<text x="150" y="7" font-family="Verdana" font-size="7" text-anchor="middle"  dominant-baseline="middle" fill="black" > C1</text>
<circle cx="150" cy="15" r="4" fill="white" stroke="black" />
<line x1="150" y1="19" x2="150" y2="439" stroke="black" />
<line x1="50" y1="439" x2="250" y2="439" stroke="black" />
<text x="175" y="431" font-family="Verdana" font-size="8" text-anchor="middle"  dominant-baseline="middle" fill="black" > 424</text>
<circle cx="50" cy="439" r="4" fill="white" stroke="black" />
<line x1="50" y1="443" x2="50" y2="447" stroke="black" />
<circle cx="50" cy="447" r="4" fill="white" stroke="black" />
<text x="50" y="459" font-family="Verdana" font-size="8" text-anchor="middle"  dominant-baseline="middle" fill="black" > 432</text>
<circle cx="150" cy="439" r="4" fill="white" stroke="black" />
<line x1="150" y1="443" x2="150" y2="447" stroke="black" />
<circle cx="150" cy="447" r="4" fill="white" stroke="black" />
<text x="150" y="459" font-family="Verdana" font-size="8" text-anchor="middle"  dominant-baseline="middle" fill="black" > 432</text>
<circle cx="250" cy="439" r="4" fill="white" stroke="black" />
<line x1="250" y1="443" x2="250" y2="447" stroke="black" />
<circle cx="250" cy="447" r="4" fill="white" stroke="black" />
<text x="250" y="459" font-family="Verdana" font-size="8" text-anchor="middle"  dominant-baseline="middle" fill="black" > 432</text>
<text x="400" y="7" font-family="Verdana" font-size="7" text-anchor="middle"  dominant-baseline="middle" fill="black" > C2</text>
<circle cx="400" cy="15" r="4" fill="white" stroke="black" />
<line x1="400" y1="19" x2="400" y2="75" stroke="black" />
<line x1="350" y1="75" x2="450" y2="75" stroke="black" />
<text x="425" y="67" font-family="Verdana" font-size="8" text-anchor="middle"  dominant-baseline="middle" fill="black" > 60</text>
<circle cx="350" cy="75" r="4" fill="white" stroke="black" />
<line x1="350" y1="79" x2="350" y2="225" stroke="black" />
<line x1="325" y1="225" x2="375" y2="225" stroke="black" />
<text x="362" y="217" font-family="Verdana" font-size="8" text-anchor="middle"  dominant-baseline="middle" fill="black" > 210</text>
<circle cx="325" cy="225" r="4" fill="white" stroke="black" />
<line x1="325" y1="229" x2="325" y2="310" stroke="black" />
<line x1="312" y1="310" x2="338" y2="310" stroke="black" />
<text x="331" y="302" font-family="Verdana" font-size="8" text-anchor="middle"  dominant-baseline="middle" fill="black" > 295</text>
<circle cx="312" cy="310" r="4" fill="white" stroke="black" />
<line x1="312" y1="314" x2="312" y2="447" stroke="black" />
<circle cx="312" cy="447" r="4" fill="white" stroke="black" />
<text x="312" y="459" font-family="Verdana" font-size="8" text-anchor="middle"  dominant-baseline="middle" fill="black" > 432</text>
<circle cx="337" cy="310" r="4" fill="white" stroke="black" />
<line x1="337" y1="314" x2="337" y2="447" stroke="black" />
<circle cx="337" cy="447" r="4" fill="white" stroke="black" />
<text x="337" y="459" font-family="Verdana" font-size="8" text-anchor="middle"  dominant-baseline="middle" fill="black" > 432</text>
<circle cx="375" cy="225" r="4" fill="white" stroke="black" />
<line x1="375" y1="229" x2="375" y2="352" stroke="black" />
<line x1="362" y1="352" x2="388" y2="352" stroke="black" />
<text x="381" y="344" font-family="Verdana" font-size="8" text-anchor="middle"  dominant-baseline="middle" fill="black" > 337</text>
<circle cx="362" cy="352" r="4" fill="white" stroke="black" />
<line x1="362" y1="356" x2="362" y2="447" stroke="black" />
<circle cx="362" cy="447" r="4" fill="white" stroke="black" />
<text x="362" y="459" font-family="Verdana" font-size="8" text-anchor="middle"  dominant-baseline="middle" fill="black" > 432</text>
<circle cx="387" cy="352" r="4" fill="white" stroke="black" />
<line x1="387" y1="356" x2="387" y2="447" stroke="black" />
<circle cx="387" cy="447" r="4" fill="white" stroke="black" />
<text x="387" y="459" font-family="Verdana" font-size="8" text-anchor="middle"  dominant-baseline="middle" fill="black" > 432</text>
<circle cx="450" cy="75" r="4" fill="white" stroke="black" />
<line x1="450" y1="79" x2="450" y2="194" stroke="black" />
<line x1="425" y1="194" x2="475" y2="194" stroke="black" />
<text x="462" y="186" font-family="Verdana" font-size="8" text-anchor="middle"  dominant-baseline="middle" fill="black" > 179</text>
<circle cx="425" cy="194" r="4" fill="white" stroke="black" />
<line x1="425" y1="198" x2="425" y2="345" stroke="black" />
<line x1="412" y1="345" x2="438" y2="345" stroke="black" />
<text x="431" y="337" font-family="Verdana" font-size="8" text-anchor="middle"  dominant-baseline="middle" fill="black" > 330</text>
<circle cx="412" cy="345" r="4" fill="white" stroke="black" />
<line x1="412" y1="349" x2="412" y2="447" stroke="black" />
<circle cx="412" cy="447" r="4" fill="white" stroke="black" />
<text x="412" y="459" font-family="Verdana" font-size="8" text-anchor="middle"  dominant-baseline="middle" fill="black" > 432</text>
<circle cx="437" cy="345" r="4" fill="white" stroke="black" />
<line x1="437" y1="349" x2="437" y2="447" stroke="black" />
<circle cx="437" cy="447" r="4" fill="white" stroke="black" />
<text x="437" y="459" font-family="Verdana" font-size="8" text-anchor="middle"  dominant-baseline="middle" fill="black" > 432</text>
<circle cx="475" cy="194" r="4" fill="white" stroke="black" />
<line x1="475" y1="198" x2="475" y2="351" stroke="black" />
<line x1="462" y1="351" x2="488" y2="351" stroke="black" />
<text x="481" y="343" font-family="Verdana" font-size="8" text-anchor="middle"  dominant-baseline="middle" fill="black" > 336</text>
<circle cx="462" cy="351" r="4" fill="white" stroke="black" />
<line x1="462" y1="355" x2="462" y2="447" stroke="black" />
<circle cx="462" cy="447" r="4" fill="white" stroke="black" />
<text x="462" y="459" font-family="Verdana" font-size="8" text-anchor="middle"  dominant-baseline="middle" fill="black" > 432</text>
<circle cx="487" cy="351" r="4" fill="white" stroke="black" />
<line x1="487" y1="355" x2="487" y2="447" stroke="black" />
<circle cx="487" cy="447" r="4" fill="white" stroke="black" />
<text x="487" y="459" font-family="Verdana" font-size="8" text-anchor="middle"  dominant-baseline="middle" fill="black" > 432</text>
<text x="600" y="7" font-family="Verdana" font-size="7" text-anchor="middle"  dominant-baseline="middle" fill="black" > C3</text>
<circle cx="600" cy="15" r="4" fill="white" stroke="black" />
<line x1="600" y1="19" x2="600" y2="61" stroke="black" />
<line x1="550" y1="61" x2="650" y2="61" stroke="black" />
<text x="625" y="53" font-family="Verdana" font-size="8" text-anchor="middle"  dominant-baseline="middle" fill="black" > 46</text>
<circle cx="550" cy="61" r="4" fill="white" stroke="black" />
<line x1="550" y1="65" x2="550" y2="193" stroke="black" />
<line x1="525" y1="193" x2="575" y2="193" stroke="black" />
<text x="562" y="185" font-family="Verdana" font-size="8" text-anchor="middle"  dominant-baseline="middle" fill="black" > 178</text>
<circle cx="525" cy="193" r="4" fill="white" stroke="black" />
<line x1="525" y1="197" x2="525" y2="319" stroke="black" />
<line x1="512" y1="319" x2="538" y2="319" stroke="black" />
<text x="531" y="311" font-family="Verdana" font-size="8" text-anchor="middle"  dominant-baseline="middle" fill="black" > 304</text>
<circle cx="512" cy="319" r="4" fill="white" stroke="black" />
<line x1="512" y1="323" x2="512" y2="447" stroke="black" />
<circle cx="512" cy="447" r="4" fill="white" stroke="black" />
<text x="512" y="459" font-family="Verdana" font-size="8" text-anchor="middle"  dominant-baseline="middle" fill="black" > 432</text>
<circle cx="537" cy="319" r="4" fill="white" stroke="black" />
<line x1="537" y1="323" x2="537" y2="447" stroke="black" />
<circle cx="537" cy="447" r="4" fill="white" stroke="black" />
<text x="537" y="459" font-family="Verdana" font-size="8" text-anchor="middle"  dominant-baseline="middle" fill="black" > 432</text>
<circle cx="575" cy="193" r="4" fill="white" stroke="black" />
<line x1="575" y1="197" x2="575" y2="309" stroke="black" />
<line x1="562" y1="309" x2="588" y2="309" stroke="black" />
<text x="581" y="301" font-family="Verdana" font-size="8" text-anchor="middle"  dominant-baseline="middle" fill="black" > 294</text>
<circle cx="562" cy="309" r="4" fill="white" stroke="black" />
<line x1="562" y1="313" x2="562" y2="447" stroke="black" />
<circle cx="562" cy="447" r="4" fill="white" stroke="black" />
<text x="562" y="459" font-family="Verdana" font-size="8" text-anchor="middle"  dominant-baseline="middle" fill="black" > 432</text>
<circle cx="587" cy="309" r="4" fill="white" stroke="black" />
<line x1="587" y1="313" x2="587" y2="447" stroke="black" />
<circle cx="587" cy="447" r="4" fill="white" stroke="black" />
<text x="587" y="459" font-family="Verdana" font-size="8" text-anchor="middle"  dominant-baseline="middle" fill="black" > 432</text>
<circle cx="650" cy="61" r="4" fill="white" stroke="black" />
<line x1="650" y1="65" x2="650" y2="213" stroke="black" />
<line x1="625" y1="213" x2="675" y2="213" stroke="black" />
<text x="662" y="205" font-family="Verdana" font-size="8" text-anchor="middle"  dominant-baseline="middle" fill="black" > 198</text>
<circle cx="625" cy="213" r="4" fill="white" stroke="black" />
<line x1="625" y1="217" x2="625" y2="336" stroke="black" />
<line x1="612" y1="336" x2="638" y2="336" stroke="black" />
<text x="631" y="328" font-family="Verdana" font-size="8" text-anchor="middle"  dominant-baseline="middle" fill="black" > 321</text>
<circle cx="612" cy="336" r="4" fill="white" stroke="black" />
<line x1="612" y1="340" x2="612" y2="447" stroke="black" />
<circle cx="612" cy="447" r="4" fill="white" stroke="black" />
<text x="612" y="459" font-family="Verdana" font-size="8" text-anchor="middle"  dominant-baseline="middle" fill="black" > 432</text>
<circle cx="637" cy="336" r="4" fill="white" stroke="black" />
<line x1="637" y1="340" x2="637" y2="446" stroke="black" />
<line x1="631" y1="446" x2="644" y2="446" stroke="black" />
<text x="640" y="438" font-family="Verdana" font-size="8" text-anchor="middle"  dominant-baseline="middle" fill="black" > 431</text>
<circle cx="631" cy="446" r="4" fill="white" stroke="black" />
<line x1="631" y1="450" x2="631" y2="447" stroke="black" />
<circle cx="631" cy="447" r="4" fill="white" stroke="black" />
<text x="631" y="459" font-family="Verdana" font-size="8" text-anchor="middle"  dominant-baseline="middle" fill="black" > 432</text>
<circle cx="643" cy="446" r="4" fill="white" stroke="black" />
<line x1="643" y1="450" x2="643" y2="447" stroke="black" />
<circle cx="643" cy="447" r="4" fill="white" stroke="black" />
<text x="643" y="459" font-family="Verdana" font-size="8" text-anchor="middle"  dominant-baseline="middle" fill="black" > 432</text>
<circle cx="675" cy="213" r="4" fill="white" stroke="black" />
<line x1="675" y1="217" x2="675" y2="333" stroke="black" />
<line x1="662" y1="333" x2="688" y2="333" stroke="black" />
<text x="681" y="325" font-family="Verdana" font-size="8" text-anchor="middle"  dominant-baseline="middle" fill="black" > 318</text>
<circle cx="662" cy="333" r="4" fill="white" stroke="black" />
<line x1="662" y1="337" x2="662" y2="447" stroke="black" />
<circle cx="662" cy="447" r="4" fill="white" stroke="black" />
<text x="662" y="459" font-family="Verdana" font-size="8" text-anchor="middle"  dominant-baseline="middle" fill="black" > 432</text>
<circle cx="687" cy="333" r="4" fill="white" stroke="black" />
<line x1="687" y1="337" x2="687" y2="443" stroke="black" />
<line x1="681" y1="443" x2="694" y2="443" stroke="black" />
<text x="690" y="435" font-family="Verdana" font-size="8" text-anchor="middle"  dominant-baseline="middle" fill="black" > 428</text>
<circle cx="681" cy="443" r="4" fill="white" stroke="black" />
<line x1="681" y1="447" x2="681" y2="447" stroke="black" />
<circle cx="681" cy="447" r="4" fill="white" stroke="black" />
<text x="681" y="459" font-family="Verdana" font-size="8" text-anchor="middle"  dominant-baseline="middle" fill="black" > 432</text>
<circle cx="693" cy="443" r="4" fill="white" stroke="black" />
<line x1="693" y1="447" x2="693" y2="447" stroke="black" />
<circle cx="693" cy="447" r="4" fill="white" stroke="black" />
<text x="693" y="459" font-family="Verdana" font-size="8" text-anchor="middle"  dominant-baseline="middle" fill="black" > 432</text>
<text x="800" y="7" font-family="Verdana" font-size="7" text-anchor="middle"  dominant-baseline="middle" fill="black" > C4</text>
<circle cx="800" cy="15" r="4" fill="white" stroke="black" />
<line x1="800" y1="19" x2="800" y2="60" stroke="black" />
<line x1="750" y1="60" x2="850" y2="60" stroke="black" />
<text x="825" y="52" font-family="Verdana" font-size="8" text-anchor="middle"  dominant-baseline="middle" fill="black" > 45</text>
<circle cx="750" cy="60" r="4" fill="white" stroke="black" />
<line x1="750" y1="64" x2="750" y2="209" stroke="black" />
<line x1="725" y1="209" x2="775" y2="209" stroke="black" />
<text x="762" y="201" font-family="Verdana" font-size="8" text-anchor="middle"  dominant-baseline="middle" fill="black" > 194</text>
<circle cx="725" cy="209" r="4" fill="white" stroke="black" />
<line x1="725" y1="213" x2="725" y2="317" stroke="black" />
<line x1="712" y1="317" x2="738" y2="317" stroke="black" />
<text x="731" y="309" font-family="Verdana" font-size="8" text-anchor="middle"  dominant-baseline="middle" fill="black" > 302</text>
<circle cx="712" cy="317" r="4" fill="white" stroke="black" />
<line x1="712" y1="321" x2="712" y2="419" stroke="black" />
<line x1="706" y1="419" x2="719" y2="419" stroke="black" />
<text x="715" y="411" font-family="Verdana" font-size="8" text-anchor="middle"  dominant-baseline="middle" fill="black" > 404</text>
<circle cx="706" cy="419" r="4" fill="white" stroke="black" />
<line x1="706" y1="423" x2="706" y2="447" stroke="black" />
<circle cx="706" cy="447" r="4" fill="white" stroke="black" />
<text x="706" y="459" font-family="Verdana" font-size="8" text-anchor="middle"  dominant-baseline="middle" fill="black" > 432</text>
<circle cx="718" cy="419" r="4" fill="white" stroke="black" />
<line x1="718" y1="423" x2="718" y2="447" stroke="black" />
<circle cx="718" cy="447" r="4" fill="white" stroke="black" />
<text x="718" y="459" font-family="Verdana" font-size="8" text-anchor="middle"  dominant-baseline="middle" fill="black" > 432</text>
<circle cx="737" cy="317" r="4" fill="white" stroke="black" />
<line x1="737" y1="321" x2="737" y2="405" stroke="black" />
<line x1="731" y1="405" x2="744" y2="405" stroke="black" />
<text x="740" y="397" font-family="Verdana" font-size="8" text-anchor="middle"  dominant-baseline="middle" fill="black" > 390</text>
<circle cx="731" cy="405" r="4" fill="white" stroke="black" />
<line x1="731" y1="409" x2="731" y2="447" stroke="black" />
<circle cx="731" cy="447" r="4" fill="white" stroke="black" />
<text x="731" y="459" font-family="Verdana" font-size="8" text-anchor="middle"  dominant-baseline="middle" fill="black" > 432</text>
<circle cx="743" cy="405" r="4" fill="white" stroke="black" />
<line x1="743" y1="409" x2="743" y2="447" stroke="black" />
<circle cx="743" cy="447" r="4" fill="white" stroke="black" />
<text x="743" y="459" font-family="Verdana" font-size="8" text-anchor="middle"  dominant-baseline="middle" fill="black" > 432</text>
<circle cx="775" cy="209" r="4" fill="white" stroke="black" />
<line x1="775" y1="213" x2="775" y2="320" stroke="black" />
<line x1="762" y1="320" x2="788" y2="320" stroke="black" />
<text x="781" y="312" font-family="Verdana" font-size="8" text-anchor="middle"  dominant-baseline="middle" fill="black" > 305</text>
<circle cx="762" cy="320" r="4" fill="white" stroke="black" />
<line x1="762" y1="324" x2="762" y2="373" stroke="black" />
<line x1="756" y1="373" x2="769" y2="373" stroke="black" />
<text x="765" y="365" font-family="Verdana" font-size="8" text-anchor="middle"  dominant-baseline="middle" fill="black" > 358</text>
<circle cx="756" cy="373" r="4" fill="white" stroke="black" />
<line x1="756" y1="377" x2="756" y2="447" stroke="black" />
<circle cx="756" cy="447" r="4" fill="white" stroke="black" />
<text x="756" y="459" font-family="Verdana" font-size="8" text-anchor="middle"  dominant-baseline="middle" fill="black" > 432</text>
<circle cx="768" cy="373" r="4" fill="white" stroke="black" />
<line x1="768" y1="377" x2="768" y2="447" stroke="black" />
<circle cx="768" cy="447" r="4" fill="white" stroke="black" />
<text x="768" y="459" font-family="Verdana" font-size="8" text-anchor="middle"  dominant-baseline="middle" fill="black" > 432</text>
<circle cx="787" cy="320" r="4" fill="white" stroke="black" />
<line x1="787" y1="324" x2="787" y2="413" stroke="black" />
<line x1="781" y1="413" x2="794" y2="413" stroke="black" />
<text x="790" y="405" font-family="Verdana" font-size="8" text-anchor="middle"  dominant-baseline="middle" fill="black" > 398</text>
<circle cx="781" cy="413" r="4" fill="white" stroke="black" />
<line x1="781" y1="417" x2="781" y2="447" stroke="black" />
<circle cx="781" cy="447" r="4" fill="white" stroke="black" />
<text x="781" y="459" font-family="Verdana" font-size="8" text-anchor="middle"  dominant-baseline="middle" fill="black" > 432</text>
<circle cx="793" cy="413" r="4" fill="white" stroke="black" />
<line x1="793" y1="417" x2="793" y2="447" stroke="black" />
<circle cx="793" cy="447" r="4" fill="white" stroke="black" />
<text x="793" y="459" font-family="Verdana" font-size="8" text-anchor="middle"  dominant-baseline="middle" fill="black" > 432</text>
<circle cx="850" cy="60" r="4" fill="white" stroke="black" />
<line x1="850" y1="64" x2="850" y2="201" stroke="black" />
<line x1="825" y1="201" x2="875" y2="201" stroke="black" />
<text x="862" y="193" font-family="Verdana" font-size="8" text-anchor="middle"  dominant-baseline="middle" fill="black" > 186</text>
<circle cx="825" cy="201" r="4" fill="white" stroke="black" />
<line x1="825" y1="205" x2="825" y2="314" stroke="black" />
<line x1="812" y1="314" x2="838" y2="314" stroke="black" />
<text x="831" y="306" font-family="Verdana" font-size="8" text-anchor="middle"  dominant-baseline="middle" fill="black" > 299</text>
<circle cx="812" cy="314" r="4" fill="white" stroke="black" />
<line x1="812" y1="318" x2="812" y2="447" stroke="black" />
<circle cx="812" cy="447" r="4" fill="white" stroke="black" />
<text x="812" y="459" font-family="Verdana" font-size="8" text-anchor="middle"  dominant-baseline="middle" fill="black" > 432</text>
<circle cx="837" cy="314" r="4" fill="white" stroke="black" />
<line x1="837" y1="318" x2="837" y2="413" stroke="black" />
<line x1="831" y1="413" x2="844" y2="413" stroke="black" />
<text x="840" y="405" font-family="Verdana" font-size="8" text-anchor="middle"  dominant-baseline="middle" fill="black" > 398</text>
<circle cx="831" cy="413" r="4" fill="white" stroke="black" />
<line x1="831" y1="417" x2="831" y2="447" stroke="black" />
<circle cx="831" cy="447" r="4" fill="white" stroke="black" />
<text x="831" y="459" font-family="Verdana" font-size="8" text-anchor="middle"  dominant-baseline="middle" fill="black" > 432</text>
<circle cx="843" cy="413" r="4" fill="white" stroke="black" />
<line x1="843" y1="417" x2="843" y2="447" stroke="black" />
<circle cx="843" cy="447" r="4" fill="white" stroke="black" />
<text x="843" y="459" font-family="Verdana" font-size="8" text-anchor="middle"  dominant-baseline="middle" fill="black" > 432</text>
<circle cx="875" cy="201" r="4" fill="white" stroke="black" />
<line x1="875" y1="205" x2="875" y2="321" stroke="black" />
<line x1="862" y1="321" x2="888" y2="321" stroke="black" />
<text x="881" y="313" font-family="Verdana" font-size="8" text-anchor="middle"  dominant-baseline="middle" fill="black" > 306</text>
<circle cx="862" cy="321" r="4" fill="white" stroke="black" />
<line x1="862" y1="325" x2="862" y2="447" stroke="black" />
<circle cx="862" cy="447" r="4" fill="white" stroke="black" />
<text x="862" y="459" font-family="Verdana" font-size="8" text-anchor="middle"  dominant-baseline="middle" fill="black" > 432</text>
<circle cx="887" cy="321" r="4" fill="white" stroke="black" />
<line x1="887" y1="325" x2="887" y2="426" stroke="black" />
<line x1="881" y1="426" x2="894" y2="426" stroke="black" />
<text x="890" y="418" font-family="Verdana" font-size="8" text-anchor="middle"  dominant-baseline="middle" fill="black" > 411</text>
<circle cx="881" cy="426" r="4" fill="white" stroke="black" />
<line x1="881" y1="430" x2="881" y2="447" stroke="black" />
<circle cx="881" cy="447" r="4" fill="white" stroke="black" />
<text x="881" y="459" font-family="Verdana" font-size="8" text-anchor="middle"  dominant-baseline="middle" fill="black" > 432</text>
<circle cx="893" cy="426" r="4" fill="white" stroke="black" />
<line x1="893" y1="430" x2="893" y2="447" stroke="black" />
<circle cx="893" cy="447" r="4" fill="white" stroke="black" />
<text x="893" y="459" font-family="Verdana" font-size="8" text-anchor="middle"  dominant-baseline="middle" fill="black" > 432</text>
<text x="1000" y="7" font-family="Verdana" font-size="7" text-anchor="middle"  dominant-baseline="middle" fill="black" > C5</text>
<circle cx="1000" cy="15" r="4" fill="white" stroke="black" />
<line x1="1000" y1="19" x2="1000" y2="42" stroke="black" />
<line x1="950" y1="42" x2="1050" y2="42" stroke="black" />
<text x="1025" y="34" font-family="Verdana" font-size="8" text-anchor="middle"  dominant-baseline="middle" fill="black" > 27</text>
<circle cx="950" cy="42" r="4" fill="white" stroke="black" />
<line x1="950" y1="46" x2="950" y2="176" stroke="black" />
<line x1="925" y1="176" x2="975" y2="176" stroke="black" />
<text x="962" y="168" font-family="Verdana" font-size="8" text-anchor="middle"  dominant-baseline="middle" fill="black" > 161</text>
<circle cx="925" cy="176" r="4" fill="white" stroke="black" />
<line x1="925" y1="180" x2="925" y2="294" stroke="black" />
<line x1="912" y1="294" x2="938" y2="294" stroke="black" />
<text x="931" y="286" font-family="Verdana" font-size="8" text-anchor="middle"  dominant-baseline="middle" fill="black" > 279</text>
<circle cx="912" cy="294" r="4" fill="white" stroke="black" />
<line x1="912" y1="298" x2="912" y2="405" stroke="black" />
<line x1="906" y1="405" x2="919" y2="405" stroke="black" />
<text x="915" y="397" font-family="Verdana" font-size="8" text-anchor="middle"  dominant-baseline="middle" fill="black" > 390</text>
<circle cx="906" cy="405" r="4" fill="white" stroke="black" />
<line x1="906" y1="409" x2="906" y2="447" stroke="black" />
<circle cx="906" cy="447" r="4" fill="white" stroke="black" />
<text x="906" y="459" font-family="Verdana" font-size="8" text-anchor="middle"  dominant-baseline="middle" fill="black" > 432</text>
<circle cx="918" cy="405" r="4" fill="white" stroke="black" />
<line x1="918" y1="409" x2="918" y2="447" stroke="black" />
<circle cx="918" cy="447" r="4" fill="white" stroke="black" />
<text x="918" y="459" font-family="Verdana" font-size="8" text-anchor="middle"  dominant-baseline="middle" fill="black" > 432</text>
<circle cx="937" cy="294" r="4" fill="white" stroke="black" />
<line x1="937" y1="298" x2="937" y2="403" stroke="black" />
<line x1="931" y1="403" x2="944" y2="403" stroke="black" />
<text x="940" y="395" font-family="Verdana" font-size="8" text-anchor="middle"  dominant-baseline="middle" fill="black" > 388</text>
<circle cx="931" cy="403" r="4" fill="white" stroke="black" />
<line x1="931" y1="407" x2="931" y2="447" stroke="black" />
<circle cx="931" cy="447" r="4" fill="white" stroke="black" />
<text x="931" y="459" font-family="Verdana" font-size="8" text-anchor="middle"  dominant-baseline="middle" fill="black" > 432</text>
<circle cx="943" cy="403" r="4" fill="white" stroke="black" />
<line x1="943" y1="407" x2="943" y2="447" stroke="black" />
<circle cx="943" cy="447" r="4" fill="white" stroke="black" />
<text x="943" y="459" font-family="Verdana" font-size="8" text-anchor="middle"  dominant-baseline="middle" fill="black" > 432</text>
<circle cx="975" cy="176" r="4" fill="white" stroke="black" />
<line x1="975" y1="180" x2="975" y2="307" stroke="black" />
<line x1="962" y1="307" x2="988" y2="307" stroke="black" />
<text x="981" y="299" font-family="Verdana" font-size="8" text-anchor="middle"  dominant-baseline="middle" fill="black" > 292</text>
<circle cx="962" cy="307" r="4" fill="white" stroke="black" />
<line x1="962" y1="311" x2="962" y2="447" stroke="black" />
<circle cx="962" cy="447" r="4" fill="white" stroke="black" />
<text x="962" y="459" font-family="Verdana" font-size="8" text-anchor="middle"  dominant-baseline="middle" fill="black" > 432</text>
<circle cx="987" cy="307" r="4" fill="white" stroke="black" />
<line x1="987" y1="311" x2="987" y2="429" stroke="black" />
<line x1="981" y1="429" x2="994" y2="429" stroke="black" />
<text x="990" y="421" font-family="Verdana" font-size="8" text-anchor="middle"  dominant-baseline="middle" fill="black" > 414</text>
<circle cx="981" cy="429" r="4" fill="white" stroke="black" />
<line x1="981" y1="433" x2="981" y2="447" stroke="black" />
<circle cx="981" cy="447" r="4" fill="white" stroke="black" />
<text x="981" y="459" font-family="Verdana" font-size="8" text-anchor="middle"  dominant-baseline="middle" fill="black" > 432</text>
<circle cx="993" cy="429" r="4" fill="white" stroke="black" />
<line x1="993" y1="433" x2="993" y2="447" stroke="black" />
<circle cx="993" cy="447" r="4" fill="white" stroke="black" />
<text x="993" y="459" font-family="Verdana" font-size="8" text-anchor="middle"  dominant-baseline="middle" fill="black" > 432</text>
<circle cx="1050" cy="42" r="4" fill="white" stroke="black" />
<line x1="1050" y1="46" x2="1050" y2="185" stroke="black" />
<line x1="1025" y1="185" x2="1075" y2="185" stroke="black" />
<text x="1062" y="177" font-family="Verdana" font-size="8" text-anchor="middle"  dominant-baseline="middle" fill="black" > 170</text>
<circle cx="1025" cy="185" r="4" fill="white" stroke="black" />
<line x1="1025" y1="189" x2="1025" y2="306" stroke="black" />
<line x1="1012" y1="306" x2="1038" y2="306" stroke="black" />
<text x="1031" y="298" font-family="Verdana" font-size="8" text-anchor="middle"  dominant-baseline="middle" fill="black" > 291</text>
<circle cx="1012" cy="306" r="4" fill="white" stroke="black" />
<line x1="1012" y1="310" x2="1012" y2="413" stroke="black" />
<line x1="1006" y1="413" x2="1019" y2="413" stroke="black" />
<text x="1015" y="405" font-family="Verdana" font-size="8" text-anchor="middle"  dominant-baseline="middle" fill="black" > 398</text>
<circle cx="1006" cy="413" r="4" fill="white" stroke="black" />
<line x1="1006" y1="417" x2="1006" y2="447" stroke="black" />
<circle cx="1006" cy="447" r="4" fill="white" stroke="black" />
<text x="1006" y="459" font-family="Verdana" font-size="8" text-anchor="middle"  dominant-baseline="middle" fill="black" > 432</text>
<circle cx="1018" cy="413" r="4" fill="white" stroke="black" />
<line x1="1018" y1="417" x2="1018" y2="447" stroke="black" />
<circle cx="1018" cy="447" r="4" fill="white" stroke="black" />
<text x="1018" y="459" font-family="Verdana" font-size="8" text-anchor="middle"  dominant-baseline="middle" fill="black" > 432</text>
<circle cx="1037" cy="306" r="4" fill="white" stroke="black" />
<line x1="1037" y1="310" x2="1037" y2="418" stroke="black" />
<line x1="1031" y1="418" x2="1044" y2="418" stroke="black" />
<text x="1040" y="410" font-family="Verdana" font-size="8" text-anchor="middle"  dominant-baseline="middle" fill="black" > 403</text>
<circle cx="1031" cy="418" r="4" fill="white" stroke="black" />
<line x1="1031" y1="422" x2="1031" y2="447" stroke="black" />
<circle cx="1031" cy="447" r="4" fill="white" stroke="black" />
<text x="1031" y="459" font-family="Verdana" font-size="8" text-anchor="middle"  dominant-baseline="middle" fill="black" > 432</text>
<circle cx="1043" cy="418" r="4" fill="white" stroke="black" />
<line x1="1043" y1="422" x2="1043" y2="447" stroke="black" />
<circle cx="1043" cy="447" r="4" fill="white" stroke="black" />
<text x="1043" y="459" font-family="Verdana" font-size="8" text-anchor="middle"  dominant-baseline="middle" fill="black" > 432</text>
<circle cx="1075" cy="185" r="4" fill="white" stroke="black" />
<line x1="1075" y1="189" x2="1075" y2="312" stroke="black" />
<line x1="1062" y1="312" x2="1088" y2="312" stroke="black" />
<text x="1081" y="304" font-family="Verdana" font-size="8" text-anchor="middle"  dominant-baseline="middle" fill="black" > 297</text>
<circle cx="1062" cy="312" r="4" fill="white" stroke="black" />
<line x1="1062" y1="316" x2="1062" y2="418" stroke="black" />
<line x1="1056" y1="418" x2="1069" y2="418" stroke="black" />
<text x="1065" y="410" font-family="Verdana" font-size="8" text-anchor="middle"  dominant-baseline="middle" fill="black" > 403</text>
<circle cx="1056" cy="418" r="4" fill="white" stroke="black" />
<line x1="1056" y1="422" x2="1056" y2="447" stroke="black" />
<circle cx="1056" cy="447" r="4" fill="white" stroke="black" />
<text x="1056" y="459" font-family="Verdana" font-size="8" text-anchor="middle"  dominant-baseline="middle" fill="black" > 432</text>
<circle cx="1068" cy="418" r="4" fill="white" stroke="black" />
<line x1="1068" y1="422" x2="1068" y2="447" stroke="black" />
<circle cx="1068" cy="447" r="4" fill="white" stroke="black" />
<text x="1068" y="459" font-family="Verdana" font-size="8" text-anchor="middle"  dominant-baseline="middle" fill="black" > 432</text>
<circle cx="1087" cy="312" r="4" fill="white" stroke="black" />
<line x1="1087" y1="316" x2="1087" y2="432" stroke="black" />
<line x1="1081" y1="432" x2="1094" y2="432" stroke="black" />
<text x="1090" y="424" font-family="Verdana" font-size="8" text-anchor="middle"  dominant-baseline="middle" fill="black" > 417</text>
<circle cx="1081" cy="432" r="4" fill="white" stroke="black" />
<line x1="1081" y1="436" x2="1081" y2="447" stroke="black" />
<circle cx="1081" cy="447" r="4" fill="white" stroke="black" />
<text x="1081" y="459" font-family="Verdana" font-size="8" text-anchor="middle"  dominant-baseline="middle" fill="black" > 432</text>
<circle cx="1093" cy="432" r="4" fill="white" stroke="black" />
<line x1="1093" y1="436" x2="1093" y2="447" stroke="black" />
<circle cx="1093" cy="447" r="4" fill="white" stroke="black" />
<text x="1093" y="459" font-family="Verdana" font-size="8" text-anchor="middle"  dominant-baseline="middle" fill="black" > 432</text>
<text x="1200" y="7" font-family="Verdana" font-size="7" text-anchor="middle"  dominant-baseline="middle" fill="black" > C6</text>
<circle cx="1200" cy="15" r="4" fill="white" stroke="black" />
<line x1="1200" y1="19" x2="1200" y2="30" stroke="black" />
<line x1="1150" y1="30" x2="1250" y2="30" stroke="black" />
<text x="1225" y="22" font-family="Verdana" font-size="8" text-anchor="middle"  dominant-baseline="middle" fill="black" > 15</text>
<circle cx="1150" cy="30" r="4" fill="white" stroke="black" />
<circle cx="1250" cy="30" r="4" fill="white" stroke="black" />
<line x1="1150" y1="34" x2="1150" y2="36" stroke="black" />
<line x1="1150" y1="36" x2="1200" y2="37" stroke="black" />
<line x1="1250" y1="34" x2="1250" y2="36" stroke="black" />
<line x1="1250" y1="36" x2="1200" y2="37" stroke="black" />
<text x="1200" y="25" font-family="Verdana" font-size="8" text-anchor="middle"  dominant-baseline="middle" fill="black" > 22</text>
<circle cx="1200" cy="37" r="4" fill="white" stroke="black" />
<line x1="1200" y1="41" x2="1200" y2="38" stroke="black" />
<line x1="1196" y1="34" x2="1204" y2="42" stroke="red" />
<line x1="1196" y1="42" x2="1204" y2="34" stroke="red" />
<text x="1200" y="50" font-family="Verdana" font-size="8" text-anchor="middle"  dominant-baseline="middle" fill="black" > 23</text>
</svg>
