<?xml version="1.0" encoding="utf-8"?>
<svg xmlns="http://www.w3.org/2000/svg" version="1.1" width="1050" height="750">
<rect width="1050" height="15" x="0" y="0" fill="white" />
<rect width="1050" height="15" x="0" y="735" fill="white" />
<rect width="25" height="750" x="0" y="0" fill="white" />
<rect width="25" height="750" x="1025" y="0" fill="white" />
<rect width="1010" height="144" x="25" y="15" fill="ghostwhite" />
<rect width="1010" height="144" x="25" y="159" fill="snow" />
<rect width="1010" height="144" x="25" y="303" fill="ghostwhite" />
<rect width="1010" height="144" x="25" y="447" fill="snow" />
<rect width="1010" height="144" x="25" y="591" fill="ghostwhite" />
<text x="12" y="87" font-family="Verdana" font-size="10" text-anchor="middle"  dominant-baseline="middle" fill="red" > D0</text>
<text x="12" y="231" font-family="Verdana" font-size="10" text-anchor="middle"  dominant-baseline="middle" fill="red" > D1</text>
<text x="12" y="375" font-family="Verdana" font-size="10" text-anchor="middle"  dominant-baseline="middle" fill="red" > D2</text>
<text x="12" y="519" font-family="Verdana" font-size="10" text-anchor="middle"  dominant-baseline="middle" fill="red" > D3</text>
<text x="12" y="663" font-family="Verdana" font-size="10" text-anchor="middle"  dominant-baseline="middle" fill="red" > D4</text>
<text x="12" y="20" font-family="Verdana" font-size="10" text-anchor="middle"  dominant-baseline="middle" fill="black" > 0</text>
<text x="12" y="164" font-family="Verdana" font-size="10" text-anchor="middle"  dominant-baseline="middle" fill="black" > 144</text>
<text x="12" y="308" font-family="Verdana" font-size="10" text-anchor="middle"  dominant-baseline="middle" fill="black" > 288</text>
<text x="12" y="452" font-family="Verdana" font-size="10" text-anchor="middle"  dominant-baseline="middle" fill="black" > 432</text>
<text x="12" y="596" font-family="Verdana" font-size="10" text-anchor="middle"  dominant-baseline="middle" fill="black" > 576</text>
<text x="12" y="740" font-family="Verdana" font-size="10" text-anchor="middle"  dominant-baseline="middle" fill="black" > 720</text>
<text x="50" y="7" font-family="Verdana" font-size="7" text-anchor="middle"  dominant-baseline="middle" fill="black" > C1</text>
<circle cx="50" cy="15" r="4" fill="white" stroke="black" />
<line x1="50" y1="19" x2="50" y2="150" stroke="black" />
<line x1="46" y1="154" x2="50" y2="146" stroke="blue" />
<line x1="50" y1="154" x2="54" y2="146" stroke="blue" />
<text x="50" y="162" font-family="Verdana" font-size="8" text-anchor="middle"  dominant-baseline="middle" fill="black" > 135</text>
<text x="200" y="7" font-family="Verdana" font-size="7" text-anchor="middle"  dominant-baseline="middle" fill="black" > C2</text>
<circle cx="200" cy="15" r="4" fill="white" stroke="black" />
<line x1="200" y1="19" x2="200" y2="92" stroke="black" />
<line x1="150" y1="92" x2="250" y2="92" stroke="black" />
<text x="225" y="84" font-family="Verdana" font-size="8" text-anchor="middle"  dominant-baseline="middle" fill="black" > 77</text>
<circle cx="150" cy="92" r="4" fill="white" stroke="black" />
<line x1="150" y1="96" x2="150" y2="271" stroke="black" />
<line x1="125" y1="271" x2="175" y2="271" stroke="black" />
<text x="162" y="263" font-family="Verdana" font-size="8" text-anchor="middle"  dominant-baseline="middle" fill="black" > 256</text>
<circle cx="125" cy="271" r="4" fill="white" stroke="black" />
<line x1="125" y1="275" x2="125" y2="447" stroke="black" />
<circle cx="125" cy="447" r="4" fill="white" stroke="black" />
<text x="125" y="459" font-family="Verdana" font-size="8" text-anchor="middle"  dominant-baseline="middle" fill="black" > 432</text>
<circle cx="175" cy="271" r="4" fill="white" stroke="black" />
<line x1="175" y1="275" x2="175" y2="447" stroke="black" />
<circle cx="175" cy="447" r="4" fill="white" stroke="black" />
<text x="175" y="459" font-family="Verdana" font-size="8" text-anchor="middle"  dominant-baseline="middle" fill="black" > 432</text>
<circle cx="250" cy="92" r="4" fill="white" stroke="black" />
<line x1="250" y1="96" x2="250" y2="370" stroke="black" />
<line x1="246" y1="366" x2="254" y2="374" stroke="red" />
<line x1="246" y1="374" x2="254" y2="366" stroke="red" />
<text x="250" y="382" font-family="Verdana" font-size="8" text-anchor="middle"  dominant-baseline="middle" fill="black" > 355</text>
<text x="400" y="7" font-family="Verdana" font-size="7" text-anchor="middle"  dominant-baseline="middle" fill="black" > C3</text>
<circle cx="400" cy="15" r="4" fill="white" stroke="black" />
<line x1="400" y1="19" x2="400" y2="62" stroke="black" />
<line x1="350" y1="62" x2="450" y2="62" stroke="black" />
<text x="425" y="54" font-family="Verdana" font-size="8" text-anchor="middle"  dominant-baseline="middle" fill="black" > 47</text>
<circle cx="350" cy="62" r="4" fill="white" stroke="black" />
<line x1="350" y1="66" x2="350" y2="354" stroke="black" />
<line x1="325" y1="354" x2="375" y2="354" stroke="black" />
<text x="362" y="346" font-family="Verdana" font-size="8" text-anchor="middle"  dominant-baseline="middle" fill="black" > 339</text>
<circle cx="325" cy="354" r="4" fill="white" stroke="black" />
<line x1="325" y1="358" x2="325" y2="447" stroke="black" />
<circle cx="325" cy="447" r="4" fill="white" stroke="black" />
<text x="325" y="459" font-family="Verdana" font-size="8" text-anchor="middle"  dominant-baseline="middle" fill="black" > 432</text>
<circle cx="375" cy="354" r="4" fill="white" stroke="black" />
<line x1="375" y1="358" x2="375" y2="447" stroke="black" />
<circle cx="375" cy="447" r="4" fill="white" stroke="black" />
<text x="375" y="459" font-family="Verdana" font-size="8" text-anchor="middle"  dominant-baseline="middle" fill="black" > 432</text>
<circle cx="450" cy="62" r="4" fill="white" stroke="black" />
<line x1="450" y1="66" x2="450" y2="213" stroke="black" />
<line x1="425" y1="213" x2="475" y2="213" stroke="black" />
<text x="462" y="205" font-family="Verdana" font-size="8" text-anchor="middle"  dominant-baseline="middle" fill="black" > 198</text>
<circle cx="425" cy="213" r="4" fill="white" stroke="black" />
<line x1="425" y1="217" x2="425" y2="447" stroke="black" />
<circle cx="425" cy="447" r="4" fill="white" stroke="black" />
<text x="425" y="459" font-family="Verdana" font-size="8" text-anchor="middle"  dominant-baseline="middle" fill="black" > 432</text>
<circle cx="475" cy="213" r="4" fill="white" stroke="black" />
<line x1="475" y1="217" x2="475" y2="447" stroke="black" />
<circle cx="475" cy="447" r="4" fill="white" stroke="black" />
<text x="475" y="459" font-family="Verdana" font-size="8" text-anchor="middle"  dominant-baseline="middle" fill="black" > 432</text>
<text x="650" y="7" font-family="Verdana" font-size="7" text-anchor="middle"  dominant-baseline="middle" fill="black" > C4</text>
<circle cx="650" cy="15" r="4" fill="white" stroke="black" />
<line x1="650" y1="19" x2="650" y2="413" stroke="black" />
<line x1="550" y1="413" x2="750" y2="413" stroke="black" />
<text x="675" y="405" font-family="Verdana" font-size="8" text-anchor="middle"  dominant-baseline="middle" fill="black" > 398</text>
<circle cx="550" cy="413" r="4" fill="white" stroke="black" />
<line x1="550" y1="417" x2="550" y2="447" stroke="black" />
<circle cx="550" cy="447" r="4" fill="white" stroke="black" />
<text x="550" y="459" font-family="Verdana" font-size="8" text-anchor="middle"  dominant-baseline="middle" fill="black" > 432</text>
<circle cx="650" cy="413" r="4" fill="white" stroke="black" />
<line x1="650" y1="417" x2="650" y2="447" stroke="black" />
<circle cx="650" cy="447" r="4" fill="white" stroke="black" />
<text x="650" y="459" font-family="Verdana" font-size="8" text-anchor="middle"  dominant-baseline="middle" fill="black" > 432</text>
<circle cx="750" cy="413" r="4" fill="white" stroke="black" />
<line x1="750" y1="417" x2="750" y2="447" stroke="black" />
<circle cx="750" cy="447" r="4" fill="white" stroke="black" />
<text x="750" y="459" font-family="Verdana" font-size="8" text-anchor="middle"  dominant-baseline="middle" fill="black" > 432</text>
<text x="900" y="7" font-family="Verdana" font-size="7" text-anchor="middle"  dominant-baseline="middle" fill="black" > C5</text>
<circle cx="900" cy="15" r="4" fill="white" stroke="black" />
<line x1="900" y1="19" x2="900" y2="79" stroke="black" />
<line x1="850" y1="79" x2="950" y2="79" stroke="black" />
<text x="925" y="71" font-family="Verdana" font-size="8" text-anchor="middle"  dominant-baseline="middle" fill="black" > 64</text>
<circle cx="850" cy="79" r="4" fill="white" stroke="black" />
<line x1="850" y1="83" x2="850" y2="447" stroke="black" />
<circle cx="850" cy="447" r="4" fill="white" stroke="black" />
<text x="850" y="459" font-family="Verdana" font-size="8" text-anchor="middle"  dominant-baseline="middle" fill="black" > 432</text>
<circle cx="950" cy="79" r="4" fill="white" stroke="black" />
<line x1="950" y1="83" x2="950" y2="293" stroke="black" />
<line x1="946" y1="297" x2="950" y2="289" stroke="blue" />
<line x1="950" y1="297" x2="954" y2="289" stroke="blue" />
<text x="950" y="305" font-family="Verdana" font-size="8" text-anchor="middle"  dominant-baseline="middle" fill="black" > 278</text>
</svg>
