<?xml version="1.0" encoding="utf-8"?>
<svg xmlns="http://www.w3.org/2000/svg" version="1.1" width="2850" height="750">
<rect width="2850" height="15" x="0" y="0" fill="white" />
<rect width="2850" height="15" x="0" y="735" fill="white" />
<rect width="25" height="750" x="0" y="0" fill="white" />
<rect width="25" height="750" x="2825" y="0" fill="white" />
<rect width="2810" height="144" x="25" y="15" fill="ghostwhite" />
<rect width="2810" height="144" x="25" y="159" fill="snow" />
<rect width="2810" height="144" x="25" y="303" fill="ghostwhite" />
<rect width="2810" height="144" x="25" y="447" fill="snow" />
<rect width="2810" height="144" x="25" y="591" fill="ghostwhite" />
<text x="12" y="87" font-family="Verdana" font-size="10" text-anchor="middle"  dominant-baseline="middle" fill="red" > D0</text>
<text x="12" y="231" font-family="Verdana" font-size="10" text-anchor="middle"  dominant-baseline="middle" fill="red" > D1</text>
<text x="12" y="375" font-family="Verdana" font-size="10" text-anchor="middle"  dominant-baseline="middle" fill="red" > D2</text>
<text x="12" y="519" font-family="Verdana" font-size="10" text-anchor="middle"  dominant-baseline="middle" fill="red" > D3</text>
<text x="12" y="663" font-family="Verdana" font-size="10" text-anchor="middle"  dominant-baseline="middle" fill="red" > D4</text>
<text x="12" y="20" font-family="Verdana" font-size="10" text-anchor="middle"  dominant-baseline="middle" fill="black" > 0</text>
<text x="12" y="164" font-family="Verdana" font-size="10" text-anchor="middle"  dominant-baseline="middle" fill="black" > 144</text>
<text x="12" y="308" font-family="Verdana" font-size="10" text-anchor="middle"  dominant-baseline="middle" fill="black" > 288</text>
<text x="12" y="452" font-family="Verdana" font-size="10" text-anchor="middle"  dominant-baseline="middle" fill="black" > 432</text>
<text x="12" y="596" font-family="Verdana" font-size="10" text-anchor="middle"  dominant-baseline="middle" fill="black" > 576</text>
<text x="12" y="740" font-family="Verdana" font-size="10" text-anchor="middle"  dominant-baseline="middle" fill="black" > 720</text>
<text x="100" y="7" font-family="Verdana" font-size="7" text-anchor="middle"  dominant-baseline="middle" fill="black" > C1</text>
<circle cx="100" cy="15" r="4" fill="white" stroke="black" />
<line x1="100" y1="19" x2="100" y2="141" stroke="black" />
<line x1="50" y1="141" x2="150" y2="141" stroke="black" />
<text x="125" y="133" font-family="Verdana" font-size="8" text-anchor="middle"  dominant-baseline="middle" fill="black" > 126</text>
<circle cx="50" cy="141" r="4" fill="white" stroke="black" />
<line x1="50" y1="145" x2="50" y2="492" stroke="black" />
<line x1="46" y1="488" x2="54" y2="496" stroke="red" />
<line x1="46" y1="496" x2="54" y2="488" stroke="red" />
<text x="50" y="504" font-family="Verdana" font-size="8" text-anchor="middle"  dominant-baseline="middle" fill="black" > 477</text>
<circle cx="150" cy="141" r="4" fill="white" stroke="black" />
<line x1="150" y1="145" x2="150" y2="282" stroke="black" />
<line x1="125" y1="282" x2="175" y2="282" stroke="black" />
<text x="162" y="274" font-family="Verdana" font-size="8" text-anchor="middle"  dominant-baseline="middle" fill="black" > 267</text>
<circle cx="125" cy="282" r="4" fill="white" stroke="black" />
<line x1="125" y1="286" x2="125" y2="407" stroke="black" />
<line x1="121" y1="411" x2="125" y2="403" stroke="blue" />
<line x1="125" y1="411" x2="129" y2="403" stroke="blue" />
<text x="125" y="419" font-family="Verdana" font-size="8" text-anchor="middle"  dominant-baseline="middle" fill="black" > 392</text>
<circle cx="175" cy="282" r="4" fill="white" stroke="black" />
<line x1="175" y1="286" x2="175" y2="450" stroke="black" />
<line x1="171" y1="454" x2="175" y2="446" stroke="blue" />
<line x1="175" y1="454" x2="179" y2="446" stroke="blue" />
<text x="175" y="462" font-family="Verdana" font-size="8" text-anchor="middle"  dominant-baseline="middle" fill="black" > 435</text>
<text x="300" y="7" font-family="Verdana" font-size="7" text-anchor="middle"  dominant-baseline="middle" fill="black" > C2</text>
<circle cx="300" cy="15" r="4" fill="white" stroke="black" />
<line x1="300" y1="19" x2="300" y2="157" stroke="black" />
<line x1="250" y1="157" x2="350" y2="157" stroke="black" />
<text x="325" y="149" font-family="Verdana" font-size="8" text-anchor="middle"  dominant-baseline="middle" fill="black" > 142</text>
<circle cx="250" cy="157" r="4" fill="white" stroke="black" />
<line x1="250" y1="161" x2="250" y2="531" stroke="black" />
<line x1="246" y1="527" x2="254" y2="535" stroke="red" />
<line x1="246" y1="535" x2="254" y2="527" stroke="red" />
<text x="250" y="543" font-family="Verdana" font-size="8" text-anchor="middle"  dominant-baseline="middle" fill="black" > 516</text>
<circle cx="350" cy="157" r="4" fill="white" stroke="black" />
<line x1="350" y1="161" x2="350" y2="624" stroke="black" />
<line x1="325" y1="624" x2="375" y2="624" stroke="black" />
<text x="362" y="616" font-family="Verdana" font-size="8" text-anchor="middle"  dominant-baseline="middle" fill="black" > 609</text>
<circle cx="325" cy="624" r="4" fill="white" stroke="black" />
<line x1="325" y1="628" x2="325" y2="736" stroke="black" />
<circle cx="325" cy="736" r="4" fill="white" stroke="black" />
<text x="325" y="748" font-family="Verdana" font-size="8" text-anchor="middle"  dominant-baseline="middle" fill="black" > 721</text>
<circle cx="375" cy="624" r="4" fill="white" stroke="black" />
<line x1="375" y1="628" x2="375" y2="736" stroke="black" />
<circle cx="375" cy="736" r="4" fill="white" stroke="black" />
<text x="375" y="748" font-family="Verdana" font-size="8" text-anchor="middle"  dominant-baseline="middle" fill="black" > 721</text>
<text x="500" y="7" font-family="Verdana" font-size="7" text-anchor="middle"  dominant-baseline="middle" fill="black" > C3</text>
<circle cx="500" cy="15" r="4" fill="white" stroke="black" />
<line x1="500" y1="19" x2="500" y2="178" stroke="black" />
<line x1="450" y1="178" x2="550" y2="178" stroke="black" />
<text x="525" y="170" font-family="Verdana" font-size="8" text-anchor="middle"  dominant-baseline="middle" fill="black" > 163</text>
<circle cx="450" cy="178" r="4" fill="white" stroke="black" />
<line x1="450" y1="182" x2="450" y2="304" stroke="black" />
<line x1="425" y1="304" x2="475" y2="304" stroke="black" />
<text x="462" y="296" font-family="Verdana" font-size="8" text-anchor="middle"  dominant-baseline="middle" fill="black" > 289</text>
<circle cx="425" cy="304" r="4" fill="white" stroke="black" />
<line x1="425" y1="308" x2="425" y2="394" stroke="black" />
<line x1="421" y1="398" x2="425" y2="390" stroke="blue" />
<line x1="425" y1="398" x2="429" y2="390" stroke="blue" />
<text x="425" y="406" font-family="Verdana" font-size="8" text-anchor="middle"  dominant-baseline="middle" fill="black" > 379</text>
<circle cx="475" cy="304" r="4" fill="white" stroke="black" />
<line x1="475" y1="308" x2="475" y2="472" stroke="black" />
<line x1="462" y1="472" x2="488" y2="472" stroke="black" />
<text x="481" y="464" font-family="Verdana" font-size="8" text-anchor="middle"  dominant-baseline="middle" fill="black" > 457</text>
<circle cx="462" cy="472" r="4" fill="white" stroke="black" />
<line x1="462" y1="476" x2="462" y2="736" stroke="black" />
<circle cx="462" cy="736" r="4" fill="white" stroke="black" />
<text x="462" y="748" font-family="Verdana" font-size="8" text-anchor="middle"  dominant-baseline="middle" fill="black" > 721</text>
<circle cx="487" cy="472" r="4" fill="white" stroke="black" />
<line x1="487" y1="476" x2="487" y2="473" stroke="black" />
<line x1="483" y1="477" x2="487" y2="469" stroke="blue" />
<line x1="487" y1="477" x2="491" y2="469" stroke="blue" />
<text x="487" y="485" font-family="Verdana" font-size="8" text-anchor="middle"  dominant-baseline="middle" fill="black" > 458</text>
<circle cx="550" cy="178" r="4" fill="white" stroke="black" />
<line x1="550" y1="182" x2="550" y2="255" stroke="black" />
<line x1="546" y1="259" x2="550" y2="251" stroke="blue" />
<line x1="550" y1="259" x2="554" y2="251" stroke="blue" />
<text x="550" y="267" font-family="Verdana" font-size="8" text-anchor="middle"  dominant-baseline="middle" fill="black" > 240</text>
<text x="700" y="7" font-family="Verdana" font-size="7" text-anchor="middle"  dominant-baseline="middle" fill="black" > C4</text>
<circle cx="700" cy="15" r="4" fill="white" stroke="black" />
<line x1="700" y1="19" x2="700" y2="170" stroke="black" />
<line x1="650" y1="170" x2="750" y2="170" stroke="black" />
<text x="725" y="162" font-family="Verdana" font-size="8" text-anchor="middle"  dominant-baseline="middle" fill="black" > 155</text>
<circle cx="650" cy="170" r="4" fill="white" stroke="black" />
<line x1="650" y1="174" x2="650" y2="567" stroke="black" />
<line x1="646" y1="563" x2="654" y2="571" stroke="red" />
<line x1="646" y1="571" x2="654" y2="563" stroke="red" />
<text x="650" y="579" font-family="Verdana" font-size="8" text-anchor="middle"  dominant-baseline="middle" fill="black" > 552</text>
<circle cx="750" cy="170" r="4" fill="white" stroke="black" />
<line x1="750" y1="174" x2="750" y2="489" stroke="black" />
<line x1="746" y1="485" x2="754" y2="493" stroke="red" />
<line x1="746" y1="493" x2="754" y2="485" stroke="red" />
<text x="750" y="501" font-family="Verdana" font-size="8" text-anchor="middle"  dominant-baseline="middle" fill="black" > 474</text>
<text x="900" y="7" font-family="Verdana" font-size="7" text-anchor="middle"  dominant-baseline="middle" fill="black" > C5</text>
<circle cx="900" cy="15" r="4" fill="white" stroke="black" />
<line x1="900" y1="19" x2="900" y2="160" stroke="black" />
<line x1="850" y1="160" x2="950" y2="160" stroke="black" />
<text x="925" y="152" font-family="Verdana" font-size="8" text-anchor="middle"  dominant-baseline="middle" fill="black" > 145</text>
<circle cx="850" cy="160" r="4" fill="white" stroke="black" />
<line x1="850" y1="164" x2="850" y2="431" stroke="black" />
<line x1="846" y1="427" x2="854" y2="435" stroke="red" />
<line x1="846" y1="435" x2="854" y2="427" stroke="red" />
<text x="850" y="443" font-family="Verdana" font-size="8" text-anchor="middle"  dominant-baseline="middle" fill="black" > 416</text>
<circle cx="950" cy="160" r="4" fill="white" stroke="black" />
<line x1="950" y1="164" x2="950" y2="291" stroke="black" />
<line x1="925" y1="291" x2="975" y2="291" stroke="black" />
<text x="962" y="283" font-family="Verdana" font-size="8" text-anchor="middle"  dominant-baseline="middle" fill="black" > 276</text>
<circle cx="925" cy="291" r="4" fill="white" stroke="black" />
<line x1="925" y1="295" x2="925" y2="736" stroke="black" />
<circle cx="925" cy="736" r="4" fill="white" stroke="black" />
<text x="925" y="748" font-family="Verdana" font-size="8" text-anchor="middle"  dominant-baseline="middle" fill="black" > 721</text>
<circle cx="975" cy="291" r="4" fill="white" stroke="black" />
<line x1="975" y1="295" x2="975" y2="711" stroke="black" />
<line x1="971" y1="707" x2="979" y2="715" stroke="red" />
<line x1="971" y1="715" x2="979" y2="707" stroke="red" />
<text x="975" y="723" font-family="Verdana" font-size="8" text-anchor="middle"  dominant-baseline="middle" fill="black" > 696</text>
<text x="1050" y="7" font-family="Verdana" font-size="7" text-anchor="middle"  dominant-baseline="middle" fill="black" > C6</text>
<circle cx="1050" cy="15" r="4" fill="white" stroke="black" />
<line x1="1050" y1="19" x2="1050" y2="227" stroke="black" />
<line x1="1046" y1="231" x2="1050" y2="223" stroke="blue" />
<line x1="1050" y1="231" x2="1054" y2="223" stroke="blue" />
<text x="1050" y="239" font-family="Verdana" font-size="8" text-anchor="middle"  dominant-baseline="middle" fill="black" > 212</text>
<text x="1200" y="7" font-family="Verdana" font-size="7" text-anchor="middle"  dominant-baseline="middle" fill="black" > C7</text>
<circle cx="1200" cy="15" r="4" fill="white" stroke="black" />
<line x1="1200" y1="19" x2="1200" y2="140" stroke="black" />
<line x1="1150" y1="140" x2="1250" y2="140" stroke="black" />
<text x="1225" y="132" font-family="Verdana" font-size="8" text-anchor="middle"  dominant-baseline="middle" fill="black" > 125</text>
<circle cx="1150" cy="140" r="4" fill="white" stroke="black" />
<line x1="1150" y1="144" x2="1150" y2="325" stroke="black" />
<line x1="1125" y1="325" x2="1175" y2="325" stroke="black" />
<text x="1162" y="317" font-family="Verdana" font-size="8" text-anchor="middle"  dominant-baseline="middle" fill="black" > 310</text>
<circle cx="1125" cy="325" r="4" fill="white" stroke="black" />
<line x1="1125" y1="329" x2="1125" y2="736" stroke="black" />
<circle cx="1125" cy="736" r="4" fill="white" stroke="black" />
<text x="1125" y="748" font-family="Verdana" font-size="8" text-anchor="middle"  dominant-baseline="middle" fill="black" > 721</text>
<circle cx="1175" cy="325" r="4" fill="white" stroke="black" />
<line x1="1175" y1="329" x2="1175" y2="494" stroke="black" />
<line x1="1162" y1="494" x2="1188" y2="494" stroke="black" />
<text x="1181" y="486" font-family="Verdana" font-size="8" text-anchor="middle"  dominant-baseline="middle" fill="black" > 479</text>
<circle cx="1162" cy="494" r="4" fill="white" stroke="black" />
<line x1="1162" y1="498" x2="1162" y2="736" stroke="black" />
<circle cx="1162" cy="736" r="4" fill="white" stroke="black" />
<text x="1162" y="748" font-family="Verdana" font-size="8" text-anchor="middle"  dominant-baseline="middle" fill="black" > 721</text>
<circle cx="1187" cy="494" r="4" fill="white" stroke="black" />
<line x1="1187" y1="498" x2="1187" y2="736" stroke="black" />
<circle cx="1187" cy="736" r="4" fill="white" stroke="black" />
<text x="1187" y="748" font-family="Verdana" font-size="8" text-anchor="middle"  dominant-baseline="middle" fill="black" > 721</text>
<circle cx="1250" cy="140" r="4" fill="white" stroke="black" />
<line x1="1250" y1="144" x2="1250" y2="264" stroke="black" />
<line x1="1225" y1="264" x2="1275" y2="264" stroke="black" />
<text x="1262" y="256" font-family="Verdana" font-size="8" text-anchor="middle"  dominant-baseline="middle" fill="black" > 249</text>
<circle cx="1225" cy="264" r="4" fill="white" stroke="black" />
<line x1="1225" y1="268" x2="1225" y2="426" stroke="black" />
<line x1="1212" y1="426" x2="1238" y2="426" stroke="black" />
<text x="1231" y="418" font-family="Verdana" font-size="8" text-anchor="middle"  dominant-baseline="middle" fill="black" > 411</text>
<circle cx="1212" cy="426" r="4" fill="white" stroke="black" />
<line x1="1212" y1="430" x2="1212" y2="544" stroke="black" />
<line x1="1206" y1="544" x2="1219" y2="544" stroke="black" />
<text x="1215" y="536" font-family="Verdana" font-size="8" text-anchor="middle"  dominant-baseline="middle" fill="black" > 529</text>
<circle cx="1206" cy="544" r="4" fill="white" stroke="black" />
<line x1="1206" y1="548" x2="1206" y2="736" stroke="black" />
<circle cx="1206" cy="736" r="4" fill="white" stroke="black" />
<text x="1206" y="748" font-family="Verdana" font-size="8" text-anchor="middle"  dominant-baseline="middle" fill="black" > 721</text>
<circle cx="1218" cy="544" r="4" fill="white" stroke="black" />
<line x1="1218" y1="548" x2="1218" y2="736" stroke="black" />
<circle cx="1218" cy="736" r="4" fill="white" stroke="black" />
<text x="1218" y="748" font-family="Verdana" font-size="8" text-anchor="middle"  dominant-baseline="middle" fill="black" > 721</text>
<circle cx="1237" cy="426" r="4" fill="white" stroke="black" />
<line x1="1237" y1="430" x2="1237" y2="545" stroke="black" />
<line x1="1231" y1="545" x2="1244" y2="545" stroke="black" />
<text x="1240" y="537" font-family="Verdana" font-size="8" text-anchor="middle"  dominant-baseline="middle" fill="black" > 530</text>
<circle cx="1231" cy="545" r="4" fill="white" stroke="black" />
<line x1="1231" y1="549" x2="1231" y2="736" stroke="black" />
<circle cx="1231" cy="736" r="4" fill="white" stroke="black" />
<text x="1231" y="748" font-family="Verdana" font-size="8" text-anchor="middle"  dominant-baseline="middle" fill="black" > 721</text>
<circle cx="1243" cy="545" r="4" fill="white" stroke="black" />
<line x1="1243" y1="549" x2="1243" y2="674" stroke="black" />
<line x1="1239" y1="670" x2="1247" y2="678" stroke="red" />
<line x1="1239" y1="678" x2="1247" y2="670" stroke="red" />
<text x="1243" y="686" font-family="Verdana" font-size="8" text-anchor="middle"  dominant-baseline="middle" fill="black" > 659</text>
<circle cx="1275" cy="264" r="4" fill="white" stroke="black" />
<line x1="1275" y1="268" x2="1275" y2="421" stroke="black" />
<line x1="1262" y1="421" x2="1288" y2="421" stroke="black" />
<text x="1281" y="413" font-family="Verdana" font-size="8" text-anchor="middle"  dominant-baseline="middle" fill="black" > 406</text>
<circle cx="1262" cy="421" r="4" fill="white" stroke="black" />
<line x1="1262" y1="425" x2="1262" y2="657" stroke="black" />
<line x1="1254" y1="657" x2="1271" y2="657" stroke="black" />
<text x="1264" y="649" font-family="Verdana" font-size="8" text-anchor="middle"  dominant-baseline="middle" fill="black" > 642</text>
<circle cx="1254" cy="657" r="4" fill="white" stroke="black" />
<line x1="1254" y1="661" x2="1254" y2="734" stroke="black" />
<line x1="1250" y1="730" x2="1258" y2="738" stroke="red" />
<line x1="1250" y1="738" x2="1258" y2="730" stroke="red" />
<text x="1254" y="746" font-family="Verdana" font-size="8" text-anchor="middle"  dominant-baseline="middle" fill="black" > 719</text>
<circle cx="1262" cy="657" r="4" fill="white" stroke="black" />
<line x1="1262" y1="661" x2="1262" y2="730" stroke="black" />
<line x1="1258" y1="726" x2="1266" y2="734" stroke="red" />
<line x1="1258" y1="734" x2="1266" y2="726" stroke="red" />
<text x="1262" y="742" font-family="Verdana" font-size="8" text-anchor="middle"  dominant-baseline="middle" fill="black" > 715</text>
<circle cx="1270" cy="657" r="4" fill="white" stroke="black" />
<line x1="1270" y1="661" x2="1270" y2="704" stroke="black" />
<line x1="1266" y1="700" x2="1274" y2="708" stroke="red" />
<line x1="1266" y1="708" x2="1274" y2="700" stroke="red" />
<text x="1270" y="716" font-family="Verdana" font-size="8" text-anchor="middle"  dominant-baseline="middle" fill="black" > 689</text>
<circle cx="1287" cy="421" r="4" fill="white" stroke="black" />
<line x1="1287" y1="425" x2="1287" y2="473" stroke="black" />
<line x1="1281" y1="473" x2="1294" y2="473" stroke="black" />
<text x="1290" y="465" font-family="Verdana" font-size="8" text-anchor="middle"  dominant-baseline="middle" fill="black" > 458</text>
<circle cx="1281" cy="473" r="4" fill="white" stroke="black" />
<circle cx="1293" cy="473" r="4" fill="white" stroke="black" />
<line x1="1281" y1="477" x2="1281" y2="530" stroke="black" />
<line x1="1281" y1="530" x2="1287" y2="549" stroke="black" />
<line x1="1293" y1="477" x2="1293" y2="530" stroke="black" />
<line x1="1293" y1="530" x2="1287" y2="549" stroke="black" />
<text x="1287" y="537" font-family="Verdana" font-size="8" text-anchor="middle"  dominant-baseline="middle" fill="black" > 534</text>
<circle cx="1287" cy="549" r="4" fill="white" stroke="black" />
<line x1="1287" y1="553" x2="1287" y2="633" stroke="black" />
<line x1="1282" y1="633" x2="1292" y2="633" stroke="black" />
<text x="1287" y="625" font-family="Verdana" font-size="8" text-anchor="middle"  dominant-baseline="middle" fill="black" > 618</text>
<circle cx="1282" cy="633" r="4" fill="white" stroke="black" />
<circle cx="1285" cy="633" r="4" fill="white" stroke="black" />
<line x1="1282" y1="637" x2="1282" y2="660" stroke="black" />
<line x1="1282" y1="660" x2="1283" y2="669" stroke="black" />
<line x1="1285" y1="637" x2="1285" y2="660" stroke="black" />
<line x1="1285" y1="660" x2="1283" y2="669" stroke="black" />
<text x="1283" y="657" font-family="Verdana" font-size="8" text-anchor="middle"  dominant-baseline="middle" fill="black" > 654</text>
<circle cx="1283" cy="669" r="4" fill="white" stroke="black" />
<circle cx="1288" cy="633" r="4" fill="white" stroke="black" />
<line x1="1283" y1="673" x2="1283" y2="675" stroke="black" />
<line x1="1283" y1="675" x2="1285" y2="676" stroke="black" />
<line x1="1288" y1="637" x2="1288" y2="675" stroke="black" />
<line x1="1288" y1="675" x2="1285" y2="676" stroke="black" />
<text x="1285" y="664" font-family="Verdana" font-size="8" text-anchor="middle"  dominant-baseline="middle" fill="black" > 661</text>
<circle cx="1285" cy="676" r="4" fill="white" stroke="black" />
<line x1="1285" y1="680" x2="1285" y2="736" stroke="black" />
<circle cx="1285" cy="736" r="4" fill="white" stroke="black" />
<text x="1285" y="748" font-family="Verdana" font-size="8" text-anchor="middle"  dominant-baseline="middle" fill="black" > 721</text>
<circle cx="1291" cy="633" r="4" fill="white" stroke="black" />
<line x1="1291" y1="637" x2="1291" y2="736" stroke="black" />
<circle cx="1291" cy="736" r="4" fill="white" stroke="black" />
<text x="1291" y="748" font-family="Verdana" font-size="8" text-anchor="middle"  dominant-baseline="middle" fill="black" > 721</text>
<text x="1400" y="7" font-family="Verdana" font-size="7" text-anchor="middle"  dominant-baseline="middle" fill="black" > C8</text>
<circle cx="1400" cy="15" r="4" fill="white" stroke="black" />
<line x1="1400" y1="19" x2="1400" y2="141" stroke="black" />
<line x1="1350" y1="141" x2="1450" y2="141" stroke="black" />
<text x="1425" y="133" font-family="Verdana" font-size="8" text-anchor="middle"  dominant-baseline="middle" fill="black" > 126</text>
<circle cx="1350" cy="141" r="4" fill="white" stroke="black" />
<line x1="1350" y1="145" x2="1350" y2="288" stroke="black" />
<line x1="1325" y1="288" x2="1375" y2="288" stroke="black" />
<text x="1362" y="280" font-family="Verdana" font-size="8" text-anchor="middle"  dominant-baseline="middle" fill="black" > 273</text>
<circle cx="1325" cy="288" r="4" fill="white" stroke="black" />
<line x1="1325" y1="292" x2="1325" y2="736" stroke="black" />
<circle cx="1325" cy="736" r="4" fill="white" stroke="black" />
<text x="1325" y="748" font-family="Verdana" font-size="8" text-anchor="middle"  dominant-baseline="middle" fill="black" > 721</text>
<circle cx="1375" cy="288" r="4" fill="white" stroke="black" />
<line x1="1375" y1="292" x2="1375" y2="410" stroke="black" />
<line x1="1362" y1="410" x2="1388" y2="410" stroke="black" />
<text x="1381" y="402" font-family="Verdana" font-size="8" text-anchor="middle"  dominant-baseline="middle" fill="black" > 395</text>
<circle cx="1362" cy="410" r="4" fill="white" stroke="black" />
<line x1="1362" y1="414" x2="1362" y2="579" stroke="black" />
<line x1="1358" y1="575" x2="1366" y2="583" stroke="red" />
<line x1="1358" y1="583" x2="1366" y2="575" stroke="red" />
<text x="1362" y="591" font-family="Verdana" font-size="8" text-anchor="middle"  dominant-baseline="middle" fill="black" > 564</text>
<circle cx="1387" cy="410" r="4" fill="white" stroke="black" />
<line x1="1387" y1="414" x2="1387" y2="736" stroke="black" />
<circle cx="1387" cy="736" r="4" fill="white" stroke="black" />
<text x="1387" y="748" font-family="Verdana" font-size="8" text-anchor="middle"  dominant-baseline="middle" fill="black" > 721</text>
<circle cx="1450" cy="141" r="4" fill="white" stroke="black" />
<line x1="1450" y1="145" x2="1450" y2="315" stroke="black" />
<line x1="1425" y1="315" x2="1475" y2="315" stroke="black" />
<text x="1462" y="307" font-family="Verdana" font-size="8" text-anchor="middle"  dominant-baseline="middle" fill="black" > 300</text>
<circle cx="1425" cy="315" r="4" fill="white" stroke="black" />
<line x1="1425" y1="319" x2="1425" y2="736" stroke="black" />
<circle cx="1425" cy="736" r="4" fill="white" stroke="black" />
<text x="1425" y="748" font-family="Verdana" font-size="8" text-anchor="middle"  dominant-baseline="middle" fill="black" > 721</text>
<circle cx="1475" cy="315" r="4" fill="white" stroke="black" />
<line x1="1475" y1="319" x2="1475" y2="597" stroke="black" />
<line x1="1471" y1="593" x2="1479" y2="601" stroke="red" />
<line x1="1471" y1="601" x2="1479" y2="593" stroke="red" />
<text x="1475" y="609" font-family="Verdana" font-size="8" text-anchor="middle"  dominant-baseline="middle" fill="black" > 582</text>
<text x="1600" y="7" font-family="Verdana" font-size="7" text-anchor="middle"  dominant-baseline="middle" fill="black" > C9</text>
<circle cx="1600" cy="15" r="4" fill="white" stroke="black" />
<line x1="1600" y1="19" x2="1600" y2="170" stroke="black" />
<line x1="1550" y1="170" x2="1650" y2="170" stroke="black" />
<text x="1625" y="162" font-family="Verdana" font-size="8" text-anchor="middle"  dominant-baseline="middle" fill="black" > 155</text>
<circle cx="1550" cy="170" r="4" fill="white" stroke="black" />
<line x1="1550" y1="174" x2="1550" y2="526" stroke="black" />
<line x1="1546" y1="522" x2="1554" y2="530" stroke="red" />
<line x1="1546" y1="530" x2="1554" y2="522" stroke="red" />
<text x="1550" y="538" font-family="Verdana" font-size="8" text-anchor="middle"  dominant-baseline="middle" fill="black" > 511</text>
<circle cx="1650" cy="170" r="4" fill="white" stroke="black" />
<line x1="1650" y1="174" x2="1650" y2="450" stroke="black" />
<line x1="1646" y1="446" x2="1654" y2="454" stroke="red" />
<line x1="1646" y1="454" x2="1654" y2="446" stroke="red" />
<text x="1650" y="462" font-family="Verdana" font-size="8" text-anchor="middle"  dominant-baseline="middle" fill="black" > 435</text>
<text x="1850" y="7" font-family="Verdana" font-size="7" text-anchor="middle"  dominant-baseline="middle" fill="black" > C10</text>
<circle cx="1850" cy="15" r="4" fill="white" stroke="black" />
<line x1="1850" y1="19" x2="1850" y2="305" stroke="black" />
<line x1="1750" y1="305" x2="1950" y2="305" stroke="black" />
<text x="1875" y="297" font-family="Verdana" font-size="8" text-anchor="middle"  dominant-baseline="middle" fill="black" > 290</text>
<circle cx="1750" cy="305" r="4" fill="white" stroke="black" />
<circle cx="1850" cy="305" r="4" fill="white" stroke="black" />
<line x1="1750" y1="309" x2="1750" y2="318" stroke="black" />
<line x1="1750" y1="318" x2="1800" y2="322" stroke="black" />
<line x1="1850" y1="309" x2="1850" y2="318" stroke="black" />
<line x1="1850" y1="318" x2="1800" y2="322" stroke="black" />
<text x="1800" y="310" font-family="Verdana" font-size="8" text-anchor="middle"  dominant-baseline="middle" fill="black" > 307</text>
<circle cx="1800" cy="322" r="4" fill="white" stroke="black" />
<line x1="1800" y1="326" x2="1800" y2="736" stroke="black" />
<circle cx="1800" cy="736" r="4" fill="white" stroke="black" />
<text x="1800" y="748" font-family="Verdana" font-size="8" text-anchor="middle"  dominant-baseline="middle" fill="black" > 721</text>
<circle cx="1950" cy="305" r="4" fill="white" stroke="black" />
<line x1="1950" y1="309" x2="1950" y2="736" stroke="black" />
<circle cx="1950" cy="736" r="4" fill="white" stroke="black" />
<text x="1950" y="748" font-family="Verdana" font-size="8" text-anchor="middle"  dominant-baseline="middle" fill="black" > 721</text>
<text x="2050" y="7" font-family="Verdana" font-size="7" text-anchor="middle"  dominant-baseline="middle" fill="black" > C11</text>
<circle cx="2050" cy="15" r="4" fill="white" stroke="black" />
<line x1="2050" y1="19" x2="2050" y2="23" stroke="black" />
<line x1="2046" y1="27" x2="2050" y2="19" stroke="blue" />
<line x1="2050" y1="27" x2="2054" y2="19" stroke="blue" />
<text x="2050" y="35" font-family="Verdana" font-size="8" text-anchor="middle"  dominant-baseline="middle" fill="black" > 8</text>
<text x="2150" y="7" font-family="Verdana" font-size="7" text-anchor="middle"  dominant-baseline="middle" fill="black" > C12</text>
<circle cx="2150" cy="15" r="4" fill="white" stroke="black" />
<line x1="2150" y1="19" x2="2150" y2="73" stroke="black" />
<line x1="2146" y1="69" x2="2154" y2="77" stroke="red" />
<line x1="2146" y1="77" x2="2154" y2="69" stroke="red" />
<text x="2150" y="85" font-family="Verdana" font-size="8" text-anchor="middle"  dominant-baseline="middle" fill="black" > 58</text>
<text x="2300" y="7" font-family="Verdana" font-size="7" text-anchor="middle"  dominant-baseline="middle" fill="black" > C13</text>
<circle cx="2300" cy="15" r="4" fill="white" stroke="black" />
<line x1="2300" y1="19" x2="2300" y2="181" stroke="black" />
<line x1="2250" y1="181" x2="2350" y2="181" stroke="black" />
<text x="2325" y="173" font-family="Verdana" font-size="8" text-anchor="middle"  dominant-baseline="middle" fill="black" > 166</text>
<circle cx="2250" cy="181" r="4" fill="white" stroke="black" />
<line x1="2250" y1="185" x2="2250" y2="283" stroke="black" />
<line x1="2246" y1="279" x2="2254" y2="287" stroke="red" />
<line x1="2246" y1="287" x2="2254" y2="279" stroke="red" />
<text x="2250" y="295" font-family="Verdana" font-size="8" text-anchor="middle"  dominant-baseline="middle" fill="black" > 268</text>
<circle cx="2350" cy="181" r="4" fill="white" stroke="black" />
<line x1="2350" y1="185" x2="2350" y2="509" stroke="black" />
<line x1="2325" y1="509" x2="2375" y2="509" stroke="black" />
<text x="2362" y="501" font-family="Verdana" font-size="8" text-anchor="middle"  dominant-baseline="middle" fill="black" > 494</text>
<circle cx="2325" cy="509" r="4" fill="white" stroke="black" />
<circle cx="2375" cy="509" r="4" fill="white" stroke="black" />
<line x1="2325" y1="513" x2="2325" y2="617" stroke="black" />
<line x1="2325" y1="617" x2="2350" y2="652" stroke="black" />
<line x1="2375" y1="513" x2="2375" y2="617" stroke="black" />
<line x1="2375" y1="617" x2="2350" y2="652" stroke="black" />
<text x="2350" y="640" font-family="Verdana" font-size="8" text-anchor="middle"  dominant-baseline="middle" fill="black" > 637</text>
<circle cx="2350" cy="652" r="4" fill="white" stroke="black" />
<line x1="2350" y1="656" x2="2350" y2="671" stroke="black" />
<line x1="2346" y1="667" x2="2354" y2="675" stroke="red" />
<line x1="2346" y1="675" x2="2354" y2="667" stroke="red" />
<text x="2350" y="683" font-family="Verdana" font-size="8" text-anchor="middle"  dominant-baseline="middle" fill="black" > 656</text>
<text x="2500" y="7" font-family="Verdana" font-size="7" text-anchor="middle"  dominant-baseline="middle" fill="black" > C14</text>
<circle cx="2500" cy="15" r="4" fill="white" stroke="black" />
<line x1="2500" y1="19" x2="2500" y2="170" stroke="black" />
<line x1="2450" y1="170" x2="2550" y2="170" stroke="black" />
<text x="2525" y="162" font-family="Verdana" font-size="8" text-anchor="middle"  dominant-baseline="middle" fill="black" > 155</text>
<circle cx="2450" cy="170" r="4" fill="white" stroke="black" />
<line x1="2450" y1="174" x2="2450" y2="320" stroke="black" />
<line x1="2425" y1="320" x2="2475" y2="320" stroke="black" />
<text x="2462" y="312" font-family="Verdana" font-size="8" text-anchor="middle"  dominant-baseline="middle" fill="black" > 305</text>
<circle cx="2425" cy="320" r="4" fill="white" stroke="black" />
<line x1="2425" y1="324" x2="2425" y2="444" stroke="black" />
<line x1="2412" y1="444" x2="2438" y2="444" stroke="black" />
<text x="2431" y="436" font-family="Verdana" font-size="8" text-anchor="middle"  dominant-baseline="middle" fill="black" > 429</text>
<circle cx="2412" cy="444" r="4" fill="white" stroke="black" />
<line x1="2412" y1="448" x2="2412" y2="582" stroke="black" />
<line x1="2408" y1="578" x2="2416" y2="586" stroke="red" />
<line x1="2408" y1="586" x2="2416" y2="578" stroke="red" />
<text x="2412" y="594" font-family="Verdana" font-size="8" text-anchor="middle"  dominant-baseline="middle" fill="black" > 567</text>
<circle cx="2437" cy="444" r="4" fill="white" stroke="black" />
<line x1="2437" y1="448" x2="2437" y2="607" stroke="black" />
<line x1="2431" y1="607" x2="2444" y2="607" stroke="black" />
<text x="2440" y="599" font-family="Verdana" font-size="8" text-anchor="middle"  dominant-baseline="middle" fill="black" > 592</text>
<circle cx="2431" cy="607" r="4" fill="white" stroke="black" />
<line x1="2431" y1="611" x2="2431" y2="736" stroke="black" />
<circle cx="2431" cy="736" r="4" fill="white" stroke="black" />
<text x="2431" y="748" font-family="Verdana" font-size="8" text-anchor="middle"  dominant-baseline="middle" fill="black" > 721</text>
<circle cx="2443" cy="607" r="4" fill="white" stroke="black" />
<line x1="2443" y1="611" x2="2443" y2="736" stroke="black" />
<circle cx="2443" cy="736" r="4" fill="white" stroke="black" />
<text x="2443" y="748" font-family="Verdana" font-size="8" text-anchor="middle"  dominant-baseline="middle" fill="black" > 721</text>
<circle cx="2475" cy="320" r="4" fill="white" stroke="black" />
<line x1="2475" y1="324" x2="2475" y2="570" stroke="black" />
<line x1="2462" y1="570" x2="2488" y2="570" stroke="black" />
<text x="2481" y="562" font-family="Verdana" font-size="8" text-anchor="middle"  dominant-baseline="middle" fill="black" > 555</text>
<circle cx="2462" cy="570" r="4" fill="white" stroke="black" />
<line x1="2462" y1="574" x2="2462" y2="736" stroke="black" />
<circle cx="2462" cy="736" r="4" fill="white" stroke="black" />
<text x="2462" y="748" font-family="Verdana" font-size="8" text-anchor="middle"  dominant-baseline="middle" fill="black" > 721</text>
<circle cx="2487" cy="570" r="4" fill="white" stroke="black" />
<line x1="2487" y1="574" x2="2487" y2="736" stroke="black" />
<circle cx="2487" cy="736" r="4" fill="white" stroke="black" />
<text x="2487" y="748" font-family="Verdana" font-size="8" text-anchor="middle"  dominant-baseline="middle" fill="black" > 721</text>
<circle cx="2550" cy="170" r="4" fill="white" stroke="black" />
<line x1="2550" y1="174" x2="2550" y2="281" stroke="black" />
<line x1="2525" y1="281" x2="2575" y2="281" stroke="black" />
<text x="2562" y="273" font-family="Verdana" font-size="8" text-anchor="middle"  dominant-baseline="middle" fill="black" > 266</text>
<circle cx="2525" cy="281" r="4" fill="white" stroke="black" />
<line x1="2525" y1="285" x2="2525" y2="400" stroke="black" />
<line x1="2512" y1="400" x2="2538" y2="400" stroke="black" />
<text x="2531" y="392" font-family="Verdana" font-size="8" text-anchor="middle"  dominant-baseline="middle" fill="black" > 385</text>
<circle cx="2512" cy="400" r="4" fill="white" stroke="black" />
<line x1="2512" y1="404" x2="2512" y2="541" stroke="black" />
<line x1="2506" y1="541" x2="2519" y2="541" stroke="black" />
<text x="2515" y="533" font-family="Verdana" font-size="8" text-anchor="middle"  dominant-baseline="middle" fill="black" > 526</text>
<circle cx="2506" cy="541" r="4" fill="white" stroke="black" />
<line x1="2506" y1="545" x2="2506" y2="736" stroke="black" />
<circle cx="2506" cy="736" r="4" fill="white" stroke="black" />
<text x="2506" y="748" font-family="Verdana" font-size="8" text-anchor="middle"  dominant-baseline="middle" fill="black" > 721</text>
<circle cx="2518" cy="541" r="4" fill="white" stroke="black" />
<line x1="2518" y1="545" x2="2518" y2="703" stroke="black" />
<line x1="2515" y1="703" x2="2521" y2="703" stroke="black" />
<text x="2519" y="695" font-family="Verdana" font-size="8" text-anchor="middle"  dominant-baseline="middle" fill="black" > 688</text>
<circle cx="2515" cy="703" r="4" fill="white" stroke="black" />
<line x1="2515" y1="707" x2="2515" y2="736" stroke="black" />
<circle cx="2515" cy="736" r="4" fill="white" stroke="black" />
<text x="2515" y="748" font-family="Verdana" font-size="8" text-anchor="middle"  dominant-baseline="middle" fill="black" > 721</text>
<circle cx="2521" cy="703" r="4" fill="white" stroke="black" />
<line x1="2521" y1="707" x2="2521" y2="736" stroke="black" />
<circle cx="2521" cy="736" r="4" fill="white" stroke="black" />
<text x="2521" y="748" font-family="Verdana" font-size="8" text-anchor="middle"  dominant-baseline="middle" fill="black" > 721</text>
<circle cx="2537" cy="400" r="4" fill="white" stroke="black" />
<line x1="2537" y1="404" x2="2537" y2="556" stroke="black" />
<line x1="2531" y1="556" x2="2544" y2="556" stroke="black" />
<text x="2540" y="548" font-family="Verdana" font-size="8" text-anchor="middle"  dominant-baseline="middle" fill="black" > 541</text>
<circle cx="2531" cy="556" r="4" fill="white" stroke="black" />
<line x1="2531" y1="560" x2="2531" y2="736" stroke="black" />
<circle cx="2531" cy="736" r="4" fill="white" stroke="black" />
<text x="2531" y="748" font-family="Verdana" font-size="8" text-anchor="middle"  dominant-baseline="middle" fill="black" > 721</text>
<circle cx="2543" cy="556" r="4" fill="white" stroke="black" />
<line x1="2543" y1="560" x2="2543" y2="736" stroke="black" />
<circle cx="2543" cy="736" r="4" fill="white" stroke="black" />
<text x="2543" y="748" font-family="Verdana" font-size="8" text-anchor="middle"  dominant-baseline="middle" fill="black" > 721</text>
<circle cx="2575" cy="281" r="4" fill="white" stroke="black" />
<line x1="2575" y1="285" x2="2575" y2="393" stroke="black" />
<line x1="2562" y1="393" x2="2588" y2="393" stroke="black" />
<text x="2581" y="385" font-family="Verdana" font-size="8" text-anchor="middle"  dominant-baseline="middle" fill="black" > 378</text>
<circle cx="2562" cy="393" r="4" fill="white" stroke="black" />
<line x1="2562" y1="397" x2="2562" y2="536" stroke="black" />
<line x1="2556" y1="536" x2="2569" y2="536" stroke="black" />
<text x="2565" y="528" font-family="Verdana" font-size="8" text-anchor="middle"  dominant-baseline="middle" fill="black" > 521</text>
<circle cx="2556" cy="536" r="4" fill="white" stroke="black" />
<line x1="2556" y1="540" x2="2556" y2="736" stroke="black" />
<circle cx="2556" cy="736" r="4" fill="white" stroke="black" />
<text x="2556" y="748" font-family="Verdana" font-size="8" text-anchor="middle"  dominant-baseline="middle" fill="black" > 721</text>
<circle cx="2568" cy="536" r="4" fill="white" stroke="black" />
<line x1="2568" y1="540" x2="2568" y2="689" stroke="black" />
<line x1="2565" y1="689" x2="2571" y2="689" stroke="black" />
<text x="2569" y="681" font-family="Verdana" font-size="8" text-anchor="middle"  dominant-baseline="middle" fill="black" > 674</text>
<circle cx="2565" cy="689" r="4" fill="white" stroke="black" />
<line x1="2565" y1="693" x2="2565" y2="736" stroke="black" />
<circle cx="2565" cy="736" r="4" fill="white" stroke="black" />
<text x="2565" y="748" font-family="Verdana" font-size="8" text-anchor="middle"  dominant-baseline="middle" fill="black" > 721</text>
<circle cx="2571" cy="689" r="4" fill="white" stroke="black" />
<line x1="2571" y1="693" x2="2571" y2="736" stroke="black" />
<circle cx="2571" cy="736" r="4" fill="white" stroke="black" />
<text x="2571" y="748" font-family="Verdana" font-size="8" text-anchor="middle"  dominant-baseline="middle" fill="black" > 721</text>
<circle cx="2587" cy="393" r="4" fill="white" stroke="black" />
<line x1="2587" y1="397" x2="2587" y2="499" stroke="black" />
<line x1="2581" y1="499" x2="2594" y2="499" stroke="black" />
<text x="2590" y="491" font-family="Verdana" font-size="8" text-anchor="middle"  dominant-baseline="middle" fill="black" > 484</text>
<circle cx="2581" cy="499" r="4" fill="white" stroke="black" />
<line x1="2581" y1="503" x2="2581" y2="646" stroke="black" />
<line x1="2577" y1="642" x2="2585" y2="650" stroke="red" />
<line x1="2577" y1="650" x2="2585" y2="642" stroke="red" />
<text x="2581" y="658" font-family="Verdana" font-size="8" text-anchor="middle"  dominant-baseline="middle" fill="black" > 631</text>
<circle cx="2593" cy="499" r="4" fill="white" stroke="black" />
<line x1="2593" y1="503" x2="2593" y2="683" stroke="black" />
<line x1="2590" y1="683" x2="2596" y2="683" stroke="black" />
<text x="2594" y="675" font-family="Verdana" font-size="8" text-anchor="middle"  dominant-baseline="middle" fill="black" > 668</text>
<circle cx="2590" cy="683" r="4" fill="white" stroke="black" />
<line x1="2590" y1="687" x2="2590" y2="736" stroke="black" />
<circle cx="2590" cy="736" r="4" fill="white" stroke="black" />
<text x="2590" y="748" font-family="Verdana" font-size="8" text-anchor="middle"  dominant-baseline="middle" fill="black" > 721</text>
<circle cx="2596" cy="683" r="4" fill="white" stroke="black" />
<line x1="2596" y1="687" x2="2596" y2="736" stroke="black" />
<circle cx="2596" cy="736" r="4" fill="white" stroke="black" />
<text x="2596" y="748" font-family="Verdana" font-size="8" text-anchor="middle"  dominant-baseline="middle" fill="black" > 721</text>
<text x="2700" y="7" font-family="Verdana" font-size="7" text-anchor="middle"  dominant-baseline="middle" fill="black" > C15</text>
<circle cx="2700" cy="15" r="4" fill="white" stroke="black" />
<line x1="2700" y1="19" x2="2700" y2="156" stroke="black" />
<line x1="2650" y1="156" x2="2750" y2="156" stroke="black" />
<text x="2725" y="148" font-family="Verdana" font-size="8" text-anchor="middle"  dominant-baseline="middle" fill="black" > 141</text>
<circle cx="2650" cy="156" r="4" fill="white" stroke="black" />
<line x1="2650" y1="160" x2="2650" y2="331" stroke="black" />
<line x1="2625" y1="331" x2="2675" y2="331" stroke="black" />
<text x="2662" y="323" font-family="Verdana" font-size="8" text-anchor="middle"  dominant-baseline="middle" fill="black" > 316</text>
<circle cx="2625" cy="331" r="4" fill="white" stroke="black" />
<line x1="2625" y1="335" x2="2625" y2="736" stroke="black" />
<circle cx="2625" cy="736" r="4" fill="white" stroke="black" />
<text x="2625" y="748" font-family="Verdana" font-size="8" text-anchor="middle"  dominant-baseline="middle" fill="black" > 721</text>
<circle cx="2675" cy="331" r="4" fill="white" stroke="black" />
<line x1="2675" y1="335" x2="2675" y2="736" stroke="black" />
<circle cx="2675" cy="736" r="4" fill="white" stroke="black" />
<text x="2675" y="748" font-family="Verdana" font-size="8" text-anchor="middle"  dominant-baseline="middle" fill="black" > 721</text>
<circle cx="2750" cy="156" r="4" fill="white" stroke="black" />
<line x1="2750" y1="160" x2="2750" y2="332" stroke="black" />
<line x1="2725" y1="332" x2="2775" y2="332" stroke="black" />
<text x="2762" y="324" font-family="Verdana" font-size="8" text-anchor="middle"  dominant-baseline="middle" fill="black" > 317</text>
<circle cx="2725" cy="332" r="4" fill="white" stroke="black" />
<line x1="2725" y1="336" x2="2725" y2="736" stroke="black" />
<circle cx="2725" cy="736" r="4" fill="white" stroke="black" />
<text x="2725" y="748" font-family="Verdana" font-size="8" text-anchor="middle"  dominant-baseline="middle" fill="black" > 721</text>
<circle cx="2775" cy="332" r="4" fill="white" stroke="black" />
<line x1="2775" y1="336" x2="2775" y2="521" stroke="black" />
<line x1="2762" y1="521" x2="2788" y2="521" stroke="black" />
<text x="2781" y="513" font-family="Verdana" font-size="8" text-anchor="middle"  dominant-baseline="middle" fill="black" > 506</text>
<circle cx="2762" cy="521" r="4" fill="white" stroke="black" />
<line x1="2762" y1="525" x2="2762" y2="736" stroke="black" />
<circle cx="2762" cy="736" r="4" fill="white" stroke="black" />
<text x="2762" y="748" font-family="Verdana" font-size="8" text-anchor="middle"  dominant-baseline="middle" fill="black" > 721</text>
<circle cx="2787" cy="521" r="4" fill="white" stroke="black" />
<line x1="2787" y1="525" x2="2787" y2="736" stroke="black" />
<circle cx="2787" cy="736" r="4" fill="white" stroke="black" />
<text x="2787" y="748" font-family="Verdana" font-size="8" text-anchor="middle"  dominant-baseline="middle" fill="black" > 721</text>
</svg>
