<?xml version="1.0" encoding="utf-8"?>
<svg xmlns="http://www.w3.org/2000/svg" version="1.1" width="3250" height="750">
<rect width="3250" height="15" x="0" y="0" fill="white" />
<rect width="3250" height="15" x="0" y="735" fill="white" />
<rect width="25" height="750" x="0" y="0" fill="white" />
<rect width="25" height="750" x="3225" y="0" fill="white" />
<rect width="3210" height="144" x="25" y="15" fill="ghostwhite" />
<rect width="3210" height="144" x="25" y="159" fill="snow" />
<rect width="3210" height="144" x="25" y="303" fill="ghostwhite" />
<rect width="3210" height="144" x="25" y="447" fill="snow" />
<rect width="3210" height="144" x="25" y="591" fill="ghostwhite" />
<text x="12" y="87" font-family="Verdana" font-size="10" text-anchor="middle"  dominant-baseline="middle" fill="red" > D0</text>
<text x="12" y="231" font-family="Verdana" font-size="10" text-anchor="middle"  dominant-baseline="middle" fill="red" > D1</text>
<text x="12" y="375" font-family="Verdana" font-size="10" text-anchor="middle"  dominant-baseline="middle" fill="red" > D2</text>
<text x="12" y="519" font-family="Verdana" font-size="10" text-anchor="middle"  dominant-baseline="middle" fill="red" > D3</text>
<text x="12" y="663" font-family="Verdana" font-size="10" text-anchor="middle"  dominant-baseline="middle" fill="red" > D4</text>
<text x="12" y="20" font-family="Verdana" font-size="10" text-anchor="middle"  dominant-baseline="middle" fill="black" > 0</text>
<text x="12" y="164" font-family="Verdana" font-size="10" text-anchor="middle"  dominant-baseline="middle" fill="black" > 144</text>
<text x="12" y="308" font-family="Verdana" font-size="10" text-anchor="middle"  dominant-baseline="middle" fill="black" > 288</text>
<text x="12" y="452" font-family="Verdana" font-size="10" text-anchor="middle"  dominant-baseline="middle" fill="black" > 432</text>
<text x="12" y="596" font-family="Verdana" font-size="10" text-anchor="middle"  dominant-baseline="middle" fill="black" > 576</text>
<text x="12" y="740" font-family="Verdana" font-size="10" text-anchor="middle"  dominant-baseline="middle" fill="black" > 720</text>
<text x="100" y="7" font-family="Verdana" font-size="7" text-anchor="middle"  dominant-baseline="middle" fill="black" > C1</text>
<circle cx="100" cy="15" r="4" fill="white" stroke="black" />
<line x1="100" y1="19" x2="100" y2="222" stroke="black" />
<line x1="50" y1="222" x2="150" y2="222" stroke="black" />
<text x="125" y="214" font-family="Verdana" font-size="8" text-anchor="middle"  dominant-baseline="middle" fill="black" > 207</text>
<circle cx="50" cy="222" r="4" fill="white" stroke="black" />
<circle cx="150" cy="222" r="4" fill="white" stroke="black" />
<line x1="50" y1="226" x2="50" y2="237" stroke="black" />
<line x1="50" y1="237" x2="100" y2="241" stroke="black" />
<line x1="150" y1="226" x2="150" y2="237" stroke="black" />
<line x1="150" y1="237" x2="100" y2="241" stroke="black" />
<text x="100" y="229" font-family="Verdana" font-size="8" text-anchor="middle"  dominant-baseline="middle" fill="black" > 226</text>
<circle cx="100" cy="241" r="4" fill="white" stroke="black" />
<line x1="100" y1="245" x2="100" y2="513" stroke="black" />
<line x1="96" y1="517" x2="100" y2="509" stroke="blue" />
<line x1="100" y1="517" x2="104" y2="509" stroke="blue" />
<text x="100" y="525" font-family="Verdana" font-size="8" text-anchor="middle"  dominant-baseline="middle" fill="black" > 498</text>
<text x="350" y="7" font-family="Verdana" font-size="7" text-anchor="middle"  dominant-baseline="middle" fill="black" > C2</text>
<circle cx="350" cy="15" r="4" fill="white" stroke="black" />
<line x1="350" y1="19" x2="350" y2="245" stroke="black" />
<line x1="250" y1="245" x2="450" y2="245" stroke="black" />
<text x="375" y="237" font-family="Verdana" font-size="8" text-anchor="middle"  dominant-baseline="middle" fill="black" > 230</text>
<circle cx="250" cy="245" r="4" fill="white" stroke="black" />
<line x1="250" y1="249" x2="250" y2="589" stroke="black" />
<line x1="246" y1="585" x2="254" y2="593" stroke="red" />
<line x1="246" y1="593" x2="254" y2="585" stroke="red" />
<text x="250" y="601" font-family="Verdana" font-size="8" text-anchor="middle"  dominant-baseline="middle" fill="black" > 574</text>
<circle cx="350" cy="245" r="4" fill="white" stroke="black" />
<circle cx="450" cy="245" r="4" fill="white" stroke="black" />
<line x1="350" y1="249" x2="350" y2="248" stroke="black" />
<line x1="350" y1="248" x2="400" y2="249" stroke="black" />
<line x1="450" y1="249" x2="450" y2="248" stroke="black" />
<line x1="450" y1="248" x2="400" y2="249" stroke="black" />
<text x="400" y="237" font-family="Verdana" font-size="8" text-anchor="middle"  dominant-baseline="middle" fill="black" > 234</text>
<circle cx="400" cy="249" r="4" fill="white" stroke="black" />
<line x1="400" y1="253" x2="400" y2="463" stroke="black" />
<line x1="396" y1="459" x2="404" y2="467" stroke="red" />
<line x1="396" y1="467" x2="404" y2="459" stroke="red" />
<text x="400" y="475" font-family="Verdana" font-size="8" text-anchor="middle"  dominant-baseline="middle" fill="black" > 448</text>
<text x="550" y="7" font-family="Verdana" font-size="7" text-anchor="middle"  dominant-baseline="middle" fill="black" > C3</text>
<circle cx="550" cy="15" r="4" fill="white" stroke="black" />
<line x1="550" y1="19" x2="550" y2="257" stroke="black" />
<line x1="546" y1="253" x2="554" y2="261" stroke="red" />
<line x1="546" y1="261" x2="554" y2="253" stroke="red" />
<text x="550" y="269" font-family="Verdana" font-size="8" text-anchor="middle"  dominant-baseline="middle" fill="black" > 242</text>
<text x="750" y="7" font-family="Verdana" font-size="7" text-anchor="middle"  dominant-baseline="middle" fill="black" > C4</text>
<circle cx="750" cy="15" r="4" fill="white" stroke="black" />
<line x1="750" y1="19" x2="750" y2="260" stroke="black" />
<line x1="650" y1="260" x2="850" y2="260" stroke="black" />
<text x="775" y="252" font-family="Verdana" font-size="8" text-anchor="middle"  dominant-baseline="middle" fill="black" > 245</text>
<circle cx="650" cy="260" r="4" fill="white" stroke="black" />
<circle cx="750" cy="260" r="4" fill="white" stroke="black" />
<line x1="650" y1="264" x2="650" y2="264" stroke="black" />
<line x1="650" y1="264" x2="700" y2="265" stroke="black" />
<line x1="750" y1="264" x2="750" y2="264" stroke="black" />
<line x1="750" y1="264" x2="700" y2="265" stroke="black" />
<text x="700" y="253" font-family="Verdana" font-size="8" text-anchor="middle"  dominant-baseline="middle" fill="black" > 250</text>
<circle cx="700" cy="265" r="4" fill="white" stroke="black" />
<circle cx="850" cy="260" r="4" fill="white" stroke="black" />
<line x1="700" y1="269" x2="700" y2="266" stroke="black" />
<line x1="700" y1="266" x2="775" y2="266" stroke="black" />
<line x1="850" y1="264" x2="850" y2="266" stroke="black" />
<line x1="850" y1="266" x2="775" y2="266" stroke="black" />
<text x="775" y="254" font-family="Verdana" font-size="8" text-anchor="middle"  dominant-baseline="middle" fill="black" > 251</text>
<circle cx="775" cy="266" r="4" fill="white" stroke="black" />
<line x1="775" y1="270" x2="775" y2="372" stroke="black" />
<line x1="771" y1="368" x2="779" y2="376" stroke="red" />
<line x1="771" y1="376" x2="779" y2="368" stroke="red" />
<text x="775" y="384" font-family="Verdana" font-size="8" text-anchor="middle"  dominant-baseline="middle" fill="black" > 357</text>
<text x="1000" y="7" font-family="Verdana" font-size="7" text-anchor="middle"  dominant-baseline="middle" fill="black" > C5</text>
<circle cx="1000" cy="15" r="4" fill="white" stroke="black" />
<line x1="1000" y1="19" x2="1000" y2="349" stroke="black" />
<line x1="950" y1="349" x2="1050" y2="349" stroke="black" />
<text x="1025" y="341" font-family="Verdana" font-size="8" text-anchor="middle"  dominant-baseline="middle" fill="black" > 334</text>
<circle cx="950" cy="349" r="4" fill="white" stroke="black" />
<circle cx="1050" cy="349" r="4" fill="white" stroke="black" />
<line x1="950" y1="353" x2="950" y2="460" stroke="black" />
<line x1="950" y1="460" x2="1000" y2="496" stroke="black" />
<line x1="1050" y1="353" x2="1050" y2="460" stroke="black" />
<line x1="1050" y1="460" x2="1000" y2="496" stroke="black" />
<text x="1000" y="484" font-family="Verdana" font-size="8" text-anchor="middle"  dominant-baseline="middle" fill="black" > 481</text>
<circle cx="1000" cy="496" r="4" fill="white" stroke="black" />
<line x1="1000" y1="500" x2="1000" y2="736" stroke="black" />
<circle cx="1000" cy="736" r="4" fill="white" stroke="black" />
<text x="1000" y="748" font-family="Verdana" font-size="8" text-anchor="middle"  dominant-baseline="middle" fill="black" > 721</text>
<text x="1250" y="7" font-family="Verdana" font-size="7" text-anchor="middle"  dominant-baseline="middle" fill="black" > C6</text>
<circle cx="1250" cy="15" r="4" fill="white" stroke="black" />
<line x1="1250" y1="19" x2="1250" y2="531" stroke="black" />
<line x1="1150" y1="531" x2="1350" y2="531" stroke="black" />
<text x="1275" y="523" font-family="Verdana" font-size="8" text-anchor="middle"  dominant-baseline="middle" fill="black" > 516</text>
<circle cx="1150" cy="531" r="4" fill="white" stroke="black" />
<line x1="1150" y1="535" x2="1150" y2="534" stroke="black" />
<line x1="1146" y1="530" x2="1154" y2="538" stroke="red" />
<line x1="1146" y1="538" x2="1154" y2="530" stroke="red" />
<text x="1150" y="546" font-family="Verdana" font-size="8" text-anchor="middle"  dominant-baseline="middle" fill="black" > 519</text>
<circle cx="1250" cy="531" r="4" fill="white" stroke="black" />
<line x1="1250" y1="535" x2="1250" y2="534" stroke="black" />
<line x1="1246" y1="530" x2="1254" y2="538" stroke="red" />
<line x1="1246" y1="538" x2="1254" y2="530" stroke="red" />
<text x="1250" y="546" font-family="Verdana" font-size="8" text-anchor="middle"  dominant-baseline="middle" fill="black" > 519</text>
<circle cx="1350" cy="531" r="4" fill="white" stroke="black" />
<line x1="1350" y1="535" x2="1350" y2="534" stroke="black" />
<line x1="1346" y1="530" x2="1354" y2="538" stroke="red" />
<line x1="1346" y1="538" x2="1354" y2="530" stroke="red" />
<text x="1350" y="546" font-family="Verdana" font-size="8" text-anchor="middle"  dominant-baseline="middle" fill="black" > 519</text>
<text x="1600" y="7" font-family="Verdana" font-size="7" text-anchor="middle"  dominant-baseline="middle" fill="black" > C7</text>
<circle cx="1600" cy="15" r="4" fill="white" stroke="black" />
<line x1="1600" y1="19" x2="1600" y2="435" stroke="black" />
<line x1="1450" y1="435" x2="1750" y2="435" stroke="black" />
<text x="1625" y="427" font-family="Verdana" font-size="8" text-anchor="middle"  dominant-baseline="middle" fill="black" > 420</text>
<circle cx="1450" cy="435" r="4" fill="white" stroke="black" />
<circle cx="1550" cy="435" r="4" fill="white" stroke="black" />
<line x1="1450" y1="439" x2="1450" y2="439" stroke="black" />
<line x1="1450" y1="439" x2="1500" y2="440" stroke="black" />
<line x1="1550" y1="439" x2="1550" y2="439" stroke="black" />
<line x1="1550" y1="439" x2="1500" y2="440" stroke="black" />
<text x="1500" y="428" font-family="Verdana" font-size="8" text-anchor="middle"  dominant-baseline="middle" fill="black" > 425</text>
<circle cx="1500" cy="440" r="4" fill="white" stroke="black" />
<circle cx="1650" cy="435" r="4" fill="white" stroke="black" />
<line x1="1500" y1="444" x2="1500" y2="448" stroke="black" />
<line x1="1500" y1="448" x2="1575" y2="450" stroke="black" />
<line x1="1650" y1="439" x2="1650" y2="448" stroke="black" />
<line x1="1650" y1="448" x2="1575" y2="450" stroke="black" />
<text x="1575" y="438" font-family="Verdana" font-size="8" text-anchor="middle"  dominant-baseline="middle" fill="black" > 435</text>
<circle cx="1575" cy="450" r="4" fill="white" stroke="black" />
<circle cx="1750" cy="435" r="4" fill="white" stroke="black" />
<line x1="1575" y1="454" x2="1575" y2="456" stroke="black" />
<line x1="1575" y1="456" x2="1662" y2="458" stroke="black" />
<line x1="1750" y1="439" x2="1750" y2="456" stroke="black" />
<line x1="1750" y1="456" x2="1662" y2="458" stroke="black" />
<text x="1662" y="446" font-family="Verdana" font-size="8" text-anchor="middle"  dominant-baseline="middle" fill="black" > 443</text>
<circle cx="1662" cy="458" r="4" fill="white" stroke="black" />
<line x1="1662" y1="462" x2="1662" y2="479" stroke="black" />
<line x1="1658" y1="475" x2="1666" y2="483" stroke="red" />
<line x1="1658" y1="483" x2="1666" y2="475" stroke="red" />
<text x="1662" y="491" font-family="Verdana" font-size="8" text-anchor="middle"  dominant-baseline="middle" fill="black" > 464</text>
<text x="1900" y="7" font-family="Verdana" font-size="7" text-anchor="middle"  dominant-baseline="middle" fill="black" > C8</text>
<circle cx="1900" cy="15" r="4" fill="white" stroke="black" />
<line x1="1900" y1="19" x2="1900" y2="191" stroke="black" />
<line x1="1850" y1="191" x2="1950" y2="191" stroke="black" />
<text x="1925" y="183" font-family="Verdana" font-size="8" text-anchor="middle"  dominant-baseline="middle" fill="black" > 176</text>
<circle cx="1850" cy="191" r="4" fill="white" stroke="black" />
<line x1="1850" y1="195" x2="1850" y2="202" stroke="black" />
<line x1="1825" y1="202" x2="1875" y2="202" stroke="black" />
<text x="1862" y="194" font-family="Verdana" font-size="8" text-anchor="middle"  dominant-baseline="middle" fill="black" > 187</text>
<circle cx="1825" cy="202" r="4" fill="white" stroke="black" />
<line x1="1825" y1="206" x2="1825" y2="495" stroke="black" />
<line x1="1821" y1="491" x2="1829" y2="499" stroke="red" />
<line x1="1821" y1="499" x2="1829" y2="491" stroke="red" />
<text x="1825" y="507" font-family="Verdana" font-size="8" text-anchor="middle"  dominant-baseline="middle" fill="black" > 480</text>
<circle cx="1875" cy="202" r="4" fill="white" stroke="black" />
<line x1="1875" y1="206" x2="1875" y2="341" stroke="black" />
<line x1="1862" y1="341" x2="1888" y2="341" stroke="black" />
<text x="1881" y="333" font-family="Verdana" font-size="8" text-anchor="middle"  dominant-baseline="middle" fill="black" > 326</text>
<circle cx="1862" cy="341" r="4" fill="white" stroke="black" />
<line x1="1862" y1="345" x2="1862" y2="736" stroke="black" />
<circle cx="1862" cy="736" r="4" fill="white" stroke="black" />
<text x="1862" y="748" font-family="Verdana" font-size="8" text-anchor="middle"  dominant-baseline="middle" fill="black" > 721</text>
<circle cx="1887" cy="341" r="4" fill="white" stroke="black" />
<line x1="1887" y1="345" x2="1887" y2="736" stroke="black" />
<circle cx="1887" cy="736" r="4" fill="white" stroke="black" />
<text x="1887" y="748" font-family="Verdana" font-size="8" text-anchor="middle"  dominant-baseline="middle" fill="black" > 721</text>
<circle cx="1950" cy="191" r="4" fill="white" stroke="black" />
<line x1="1950" y1="195" x2="1950" y2="343" stroke="black" />
<line x1="1925" y1="343" x2="1975" y2="343" stroke="black" />
<text x="1962" y="335" font-family="Verdana" font-size="8" text-anchor="middle"  dominant-baseline="middle" fill="black" > 328</text>
<circle cx="1925" cy="343" r="4" fill="white" stroke="black" />
<line x1="1925" y1="347" x2="1925" y2="465" stroke="black" />
<line x1="1912" y1="465" x2="1938" y2="465" stroke="black" />
<text x="1931" y="457" font-family="Verdana" font-size="8" text-anchor="middle"  dominant-baseline="middle" fill="black" > 450</text>
<circle cx="1912" cy="465" r="4" fill="white" stroke="black" />
<line x1="1912" y1="469" x2="1912" y2="538" stroke="black" />
<line x1="1908" y1="534" x2="1916" y2="542" stroke="red" />
<line x1="1908" y1="542" x2="1916" y2="534" stroke="red" />
<text x="1912" y="550" font-family="Verdana" font-size="8" text-anchor="middle"  dominant-baseline="middle" fill="black" > 523</text>
<circle cx="1937" cy="465" r="4" fill="white" stroke="black" />
<line x1="1937" y1="469" x2="1937" y2="736" stroke="black" />
<circle cx="1937" cy="736" r="4" fill="white" stroke="black" />
<text x="1937" y="748" font-family="Verdana" font-size="8" text-anchor="middle"  dominant-baseline="middle" fill="black" > 721</text>
<circle cx="1975" cy="343" r="4" fill="white" stroke="black" />
<line x1="1975" y1="347" x2="1975" y2="474" stroke="black" />
<line x1="1962" y1="474" x2="1988" y2="474" stroke="black" />
<text x="1981" y="466" font-family="Verdana" font-size="8" text-anchor="middle"  dominant-baseline="middle" fill="black" > 459</text>
<circle cx="1962" cy="474" r="4" fill="white" stroke="black" />
<circle cx="1987" cy="474" r="4" fill="white" stroke="black" />
<line x1="1962" y1="478" x2="1962" y2="581" stroke="black" />
<line x1="1962" y1="581" x2="1974" y2="616" stroke="black" />
<line x1="1987" y1="478" x2="1987" y2="581" stroke="black" />
<line x1="1987" y1="581" x2="1974" y2="616" stroke="black" />
<text x="1974" y="604" font-family="Verdana" font-size="8" text-anchor="middle"  dominant-baseline="middle" fill="black" > 601</text>
<circle cx="1974" cy="616" r="4" fill="white" stroke="black" />
<line x1="1974" y1="620" x2="1974" y2="736" stroke="black" />
<circle cx="1974" cy="736" r="4" fill="white" stroke="black" />
<text x="1974" y="748" font-family="Verdana" font-size="8" text-anchor="middle"  dominant-baseline="middle" fill="black" > 721</text>
<text x="2150" y="7" font-family="Verdana" font-size="7" text-anchor="middle"  dominant-baseline="middle" fill="black" > C9</text>
<circle cx="2150" cy="15" r="4" fill="white" stroke="black" />
<line x1="2150" y1="19" x2="2150" y2="337" stroke="black" />
<line x1="2050" y1="337" x2="2250" y2="337" stroke="black" />
<text x="2175" y="329" font-family="Verdana" font-size="8" text-anchor="middle"  dominant-baseline="middle" fill="black" > 322</text>
<circle cx="2050" cy="337" r="4" fill="white" stroke="black" />
<circle cx="2150" cy="337" r="4" fill="white" stroke="black" />
<line x1="2050" y1="341" x2="2050" y2="351" stroke="black" />
<line x1="2050" y1="351" x2="2100" y2="355" stroke="black" />
<line x1="2150" y1="341" x2="2150" y2="351" stroke="black" />
<line x1="2150" y1="351" x2="2100" y2="355" stroke="black" />
<text x="2100" y="343" font-family="Verdana" font-size="8" text-anchor="middle"  dominant-baseline="middle" fill="black" > 340</text>
<circle cx="2100" cy="355" r="4" fill="white" stroke="black" />
<circle cx="2250" cy="337" r="4" fill="white" stroke="black" />
<line x1="2100" y1="359" x2="2100" y2="357" stroke="black" />
<line x1="2100" y1="357" x2="2175" y2="357" stroke="black" />
<line x1="2250" y1="341" x2="2250" y2="357" stroke="black" />
<line x1="2250" y1="357" x2="2175" y2="357" stroke="black" />
<text x="2175" y="345" font-family="Verdana" font-size="8" text-anchor="middle"  dominant-baseline="middle" fill="black" > 342</text>
<circle cx="2175" cy="357" r="4" fill="white" stroke="black" />
<line x1="2175" y1="361" x2="2175" y2="736" stroke="black" />
<circle cx="2175" cy="736" r="4" fill="white" stroke="black" />
<text x="2175" y="748" font-family="Verdana" font-size="8" text-anchor="middle"  dominant-baseline="middle" fill="black" > 721</text>
<text x="2400" y="7" font-family="Verdana" font-size="7" text-anchor="middle"  dominant-baseline="middle" fill="black" > C10</text>
<circle cx="2400" cy="15" r="4" fill="white" stroke="black" />
<line x1="2400" y1="19" x2="2400" y2="184" stroke="black" />
<line x1="2350" y1="184" x2="2450" y2="184" stroke="black" />
<text x="2425" y="176" font-family="Verdana" font-size="8" text-anchor="middle"  dominant-baseline="middle" fill="black" > 169</text>
<circle cx="2350" cy="184" r="4" fill="white" stroke="black" />
<line x1="2350" y1="188" x2="2350" y2="501" stroke="black" />
<line x1="2325" y1="501" x2="2375" y2="501" stroke="black" />
<text x="2362" y="493" font-family="Verdana" font-size="8" text-anchor="middle"  dominant-baseline="middle" fill="black" > 486</text>
<circle cx="2325" cy="501" r="4" fill="white" stroke="black" />
<line x1="2325" y1="505" x2="2325" y2="736" stroke="black" />
<circle cx="2325" cy="736" r="4" fill="white" stroke="black" />
<text x="2325" y="748" font-family="Verdana" font-size="8" text-anchor="middle"  dominant-baseline="middle" fill="black" > 721</text>
<circle cx="2375" cy="501" r="4" fill="white" stroke="black" />
<line x1="2375" y1="505" x2="2375" y2="736" stroke="black" />
<circle cx="2375" cy="736" r="4" fill="white" stroke="black" />
<text x="2375" y="748" font-family="Verdana" font-size="8" text-anchor="middle"  dominant-baseline="middle" fill="black" > 721</text>
<circle cx="2450" cy="184" r="4" fill="white" stroke="black" />
<line x1="2450" y1="188" x2="2450" y2="337" stroke="black" />
<line x1="2425" y1="337" x2="2475" y2="337" stroke="black" />
<text x="2462" y="329" font-family="Verdana" font-size="8" text-anchor="middle"  dominant-baseline="middle" fill="black" > 322</text>
<circle cx="2425" cy="337" r="4" fill="white" stroke="black" />
<line x1="2425" y1="341" x2="2425" y2="453" stroke="black" />
<line x1="2412" y1="453" x2="2438" y2="453" stroke="black" />
<text x="2431" y="445" font-family="Verdana" font-size="8" text-anchor="middle"  dominant-baseline="middle" fill="black" > 438</text>
<circle cx="2412" cy="453" r="4" fill="white" stroke="black" />
<line x1="2412" y1="457" x2="2412" y2="736" stroke="black" />
<circle cx="2412" cy="736" r="4" fill="white" stroke="black" />
<text x="2412" y="748" font-family="Verdana" font-size="8" text-anchor="middle"  dominant-baseline="middle" fill="black" > 721</text>
<circle cx="2437" cy="453" r="4" fill="white" stroke="black" />
<line x1="2437" y1="457" x2="2437" y2="736" stroke="black" />
<circle cx="2437" cy="736" r="4" fill="white" stroke="black" />
<text x="2437" y="748" font-family="Verdana" font-size="8" text-anchor="middle"  dominant-baseline="middle" fill="black" > 721</text>
<circle cx="2475" cy="337" r="4" fill="white" stroke="black" />
<line x1="2475" y1="341" x2="2475" y2="499" stroke="black" />
<line x1="2462" y1="499" x2="2488" y2="499" stroke="black" />
<text x="2481" y="491" font-family="Verdana" font-size="8" text-anchor="middle"  dominant-baseline="middle" fill="black" > 484</text>
<circle cx="2462" cy="499" r="4" fill="white" stroke="black" />
<line x1="2462" y1="503" x2="2462" y2="509" stroke="black" />
<line x1="2458" y1="513" x2="2462" y2="505" stroke="blue" />
<line x1="2462" y1="513" x2="2466" y2="505" stroke="blue" />
<text x="2462" y="521" font-family="Verdana" font-size="8" text-anchor="middle"  dominant-baseline="middle" fill="black" > 494</text>
<circle cx="2487" cy="499" r="4" fill="white" stroke="black" />
<line x1="2487" y1="503" x2="2487" y2="509" stroke="black" />
<line x1="2483" y1="513" x2="2487" y2="505" stroke="blue" />
<line x1="2487" y1="513" x2="2491" y2="505" stroke="blue" />
<text x="2487" y="521" font-family="Verdana" font-size="8" text-anchor="middle"  dominant-baseline="middle" fill="black" > 494</text>
<text x="2550" y="7" font-family="Verdana" font-size="7" text-anchor="middle"  dominant-baseline="middle" fill="black" > C11</text>
<circle cx="2550" cy="15" r="4" fill="white" stroke="black" />
<line x1="2550" y1="19" x2="2550" y2="683" stroke="black" />
<line x1="2546" y1="687" x2="2550" y2="679" stroke="blue" />
<line x1="2550" y1="687" x2="2554" y2="679" stroke="blue" />
<text x="2550" y="695" font-family="Verdana" font-size="8" text-anchor="middle"  dominant-baseline="middle" fill="black" > 668</text>
<text x="2650" y="7" font-family="Verdana" font-size="7" text-anchor="middle"  dominant-baseline="middle" fill="black" > C12</text>
<circle cx="2650" cy="15" r="4" fill="white" stroke="black" />
<line x1="2650" y1="19" x2="2650" y2="578" stroke="black" />
<line x1="2646" y1="574" x2="2654" y2="582" stroke="red" />
<line x1="2646" y1="582" x2="2654" y2="574" stroke="red" />
<text x="2650" y="590" font-family="Verdana" font-size="8" text-anchor="middle"  dominant-baseline="middle" fill="black" > 563</text>
<text x="2800" y="7" font-family="Verdana" font-size="7" text-anchor="middle"  dominant-baseline="middle" fill="black" > C13</text>
<circle cx="2800" cy="15" r="4" fill="white" stroke="black" />
<line x1="2800" y1="19" x2="2800" y2="329" stroke="black" />
<line x1="2750" y1="329" x2="2850" y2="329" stroke="black" />
<text x="2825" y="321" font-family="Verdana" font-size="8" text-anchor="middle"  dominant-baseline="middle" fill="black" > 314</text>
<circle cx="2750" cy="329" r="4" fill="white" stroke="black" />
<line x1="2750" y1="333" x2="2750" y2="537" stroke="black" />
<line x1="2725" y1="537" x2="2775" y2="537" stroke="black" />
<text x="2762" y="529" font-family="Verdana" font-size="8" text-anchor="middle"  dominant-baseline="middle" fill="black" > 522</text>
<circle cx="2725" cy="537" r="4" fill="white" stroke="black" />
<line x1="2725" y1="541" x2="2725" y2="736" stroke="black" />
<circle cx="2725" cy="736" r="4" fill="white" stroke="black" />
<text x="2725" y="748" font-family="Verdana" font-size="8" text-anchor="middle"  dominant-baseline="middle" fill="black" > 721</text>
<circle cx="2775" cy="537" r="4" fill="white" stroke="black" />
<circle cx="2850" cy="329" r="4" fill="white" stroke="black" />
<line x1="2850" y1="333" x2="2850" y2="536" stroke="black" />
<line x1="2825" y1="536" x2="2875" y2="536" stroke="black" />
<text x="2862" y="528" font-family="Verdana" font-size="8" text-anchor="middle"  dominant-baseline="middle" fill="black" > 521</text>
<circle cx="2825" cy="536" r="4" fill="white" stroke="black" />
<line x1="2825" y1="540" x2="2825" y2="736" stroke="black" />
<circle cx="2825" cy="736" r="4" fill="white" stroke="black" />
<text x="2825" y="748" font-family="Verdana" font-size="8" text-anchor="middle"  dominant-baseline="middle" fill="black" > 721</text>
<circle cx="2875" cy="536" r="4" fill="white" stroke="black" />
<line x1="2775" y1="541" x2="2775" y2="567" stroke="black" />
<line x1="2775" y1="567" x2="2825" y2="576" stroke="black" />
<line x1="2875" y1="540" x2="2875" y2="567" stroke="black" />
<line x1="2875" y1="567" x2="2825" y2="576" stroke="black" />
<text x="2825" y="564" font-family="Verdana" font-size="8" text-anchor="middle"  dominant-baseline="middle" fill="black" > 561</text>
<circle cx="2825" cy="576" r="4" fill="white" stroke="black" />
<line x1="2825" y1="580" x2="2825" y2="736" stroke="black" />
<circle cx="2825" cy="736" r="4" fill="white" stroke="black" />
<text x="2825" y="748" font-family="Verdana" font-size="8" text-anchor="middle"  dominant-baseline="middle" fill="black" > 721</text>
<text x="3000" y="7" font-family="Verdana" font-size="7" text-anchor="middle"  dominant-baseline="middle" fill="black" > C14</text>
<circle cx="3000" cy="15" r="4" fill="white" stroke="black" />
<line x1="3000" y1="19" x2="3000" y2="306" stroke="black" />
<line x1="2950" y1="306" x2="3050" y2="306" stroke="black" />
<text x="3025" y="298" font-family="Verdana" font-size="8" text-anchor="middle"  dominant-baseline="middle" fill="black" > 291</text>
<circle cx="2950" cy="306" r="4" fill="white" stroke="black" />
<line x1="2950" y1="310" x2="2950" y2="614" stroke="black" />
<line x1="2946" y1="618" x2="2950" y2="610" stroke="blue" />
<line x1="2950" y1="618" x2="2954" y2="610" stroke="blue" />
<text x="2950" y="626" font-family="Verdana" font-size="8" text-anchor="middle"  dominant-baseline="middle" fill="black" > 599</text>
<circle cx="3050" cy="306" r="4" fill="white" stroke="black" />
<line x1="3050" y1="310" x2="3050" y2="448" stroke="black" />
<line x1="3046" y1="452" x2="3050" y2="444" stroke="blue" />
<line x1="3050" y1="452" x2="3054" y2="444" stroke="blue" />
<text x="3050" y="460" font-family="Verdana" font-size="8" text-anchor="middle"  dominant-baseline="middle" fill="black" > 433</text>
<text x="3150" y="7" font-family="Verdana" font-size="7" text-anchor="middle"  dominant-baseline="middle" fill="black" > C15</text>
<circle cx="3150" cy="15" r="4" fill="white" stroke="black" />
<line x1="3150" y1="19" x2="3150" y2="198" stroke="black" />
<line x1="3146" y1="202" x2="3150" y2="194" stroke="blue" />
<line x1="3150" y1="202" x2="3154" y2="194" stroke="blue" />
<text x="3150" y="210" font-family="Verdana" font-size="8" text-anchor="middle"  dominant-baseline="middle" fill="black" > 183</text>
</svg>
