<?xml version="1.0" encoding="utf-8"?>
<svg xmlns="http://www.w3.org/2000/svg" version="1.1" width="3350" height="750">
<rect width="3350" height="15" x="0" y="0" fill="white" />
<rect width="3350" height="15" x="0" y="735" fill="white" />
<rect width="25" height="750" x="0" y="0" fill="white" />
<rect width="25" height="750" x="3325" y="0" fill="white" />
<rect width="3310" height="144" x="25" y="15" fill="ghostwhite" />
<rect width="3310" height="144" x="25" y="159" fill="snow" />
<rect width="3310" height="144" x="25" y="303" fill="ghostwhite" />
<rect width="3310" height="144" x="25" y="447" fill="snow" />
<rect width="3310" height="144" x="25" y="591" fill="ghostwhite" />
<text x="12" y="87" font-family="Verdana" font-size="10" text-anchor="middle"  dominant-baseline="middle" fill="red" > D0</text>
<text x="12" y="231" font-family="Verdana" font-size="10" text-anchor="middle"  dominant-baseline="middle" fill="red" > D1</text>
<text x="12" y="375" font-family="Verdana" font-size="10" text-anchor="middle"  dominant-baseline="middle" fill="red" > D2</text>
<text x="12" y="519" font-family="Verdana" font-size="10" text-anchor="middle"  dominant-baseline="middle" fill="red" > D3</text>
<text x="12" y="663" font-family="Verdana" font-size="10" text-anchor="middle"  dominant-baseline="middle" fill="red" > D4</text>
<text x="12" y="20" font-family="Verdana" font-size="10" text-anchor="middle"  dominant-baseline="middle" fill="black" > 0</text>
<text x="12" y="164" font-family="Verdana" font-size="10" text-anchor="middle"  dominant-baseline="middle" fill="black" > 144</text>
<text x="12" y="308" font-family="Verdana" font-size="10" text-anchor="middle"  dominant-baseline="middle" fill="black" > 288</text>
<text x="12" y="452" font-family="Verdana" font-size="10" text-anchor="middle"  dominant-baseline="middle" fill="black" > 432</text>
<text x="12" y="596" font-family="Verdana" font-size="10" text-anchor="middle"  dominant-baseline="middle" fill="black" > 576</text>
<text x="12" y="740" font-family="Verdana" font-size="10" text-anchor="middle"  dominant-baseline="middle" fill="black" > 720</text>
<text x="150" y="7" font-family="Verdana" font-size="7" text-anchor="middle"  dominant-baseline="middle" fill="black" > C1</text>
<circle cx="150" cy="15" r="4" fill="white" stroke="black" />
<line x1="150" y1="19" x2="150" y2="312" stroke="black" />
<line x1="50" y1="312" x2="250" y2="312" stroke="black" />
<text x="175" y="304" font-family="Verdana" font-size="8" text-anchor="middle"  dominant-baseline="middle" fill="black" > 297</text>
<circle cx="50" cy="312" r="4" fill="white" stroke="black" />
<line x1="50" y1="316" x2="50" y2="313" stroke="black" />
<line x1="46" y1="309" x2="54" y2="317" stroke="red" />
<line x1="46" y1="317" x2="54" y2="309" stroke="red" />
<text x="50" y="325" font-family="Verdana" font-size="8" text-anchor="middle"  dominant-baseline="middle" fill="black" > 298</text>
<circle cx="150" cy="312" r="4" fill="white" stroke="black" />
<line x1="150" y1="316" x2="150" y2="313" stroke="black" />
<line x1="146" y1="309" x2="154" y2="317" stroke="red" />
<line x1="146" y1="317" x2="154" y2="309" stroke="red" />
<text x="150" y="325" font-family="Verdana" font-size="8" text-anchor="middle"  dominant-baseline="middle" fill="black" > 298</text>
<circle cx="250" cy="312" r="4" fill="white" stroke="black" />
<line x1="250" y1="316" x2="250" y2="313" stroke="black" />
<line x1="246" y1="309" x2="254" y2="317" stroke="red" />
<line x1="246" y1="317" x2="254" y2="309" stroke="red" />
<text x="250" y="325" font-family="Verdana" font-size="8" text-anchor="middle"  dominant-baseline="middle" fill="black" > 298</text>
<text x="400" y="7" font-family="Verdana" font-size="7" text-anchor="middle"  dominant-baseline="middle" fill="black" > C2</text>
<circle cx="400" cy="15" r="4" fill="white" stroke="black" />
<line x1="400" y1="19" x2="400" y2="292" stroke="black" />
<line x1="350" y1="292" x2="450" y2="292" stroke="black" />
<text x="425" y="284" font-family="Verdana" font-size="8" text-anchor="middle"  dominant-baseline="middle" fill="black" > 277</text>
<circle cx="350" cy="292" r="4" fill="white" stroke="black" />
<line x1="350" y1="296" x2="350" y2="401" stroke="black" />
<line x1="346" y1="397" x2="354" y2="405" stroke="red" />
<line x1="346" y1="405" x2="354" y2="397" stroke="red" />
<text x="350" y="413" font-family="Verdana" font-size="8" text-anchor="middle"  dominant-baseline="middle" fill="black" > 386</text>
<circle cx="450" cy="292" r="4" fill="white" stroke="black" />
<line x1="450" y1="296" x2="450" y2="305" stroke="black" />
<line x1="446" y1="301" x2="454" y2="309" stroke="red" />
<line x1="446" y1="309" x2="454" y2="301" stroke="red" />
<text x="450" y="317" font-family="Verdana" font-size="8" text-anchor="middle"  dominant-baseline="middle" fill="black" > 290</text>
<text x="550" y="7" font-family="Verdana" font-size="7" text-anchor="middle"  dominant-baseline="middle" fill="black" > C3</text>
<circle cx="550" cy="15" r="4" fill="white" stroke="black" />
<line x1="550" y1="19" x2="550" y2="33" stroke="black" />
<line x1="546" y1="37" x2="550" y2="29" stroke="blue" />
<line x1="550" y1="37" x2="554" y2="29" stroke="blue" />
<text x="550" y="45" font-family="Verdana" font-size="8" text-anchor="middle"  dominant-baseline="middle" fill="black" > 18</text>
<text x="650" y="7" font-family="Verdana" font-size="7" text-anchor="middle"  dominant-baseline="middle" fill="black" > C4</text>
<circle cx="650" cy="15" r="4" fill="white" stroke="black" />
<line x1="650" y1="19" x2="650" y2="361" stroke="black" />
<line x1="646" y1="357" x2="654" y2="365" stroke="red" />
<line x1="646" y1="365" x2="654" y2="357" stroke="red" />
<text x="650" y="373" font-family="Verdana" font-size="8" text-anchor="middle"  dominant-baseline="middle" fill="black" > 346</text>
<text x="850" y="7" font-family="Verdana" font-size="7" text-anchor="middle"  dominant-baseline="middle" fill="black" > C5</text>
<circle cx="850" cy="15" r="4" fill="white" stroke="black" />
<line x1="850" y1="19" x2="850" y2="148" stroke="black" />
<line x1="750" y1="148" x2="950" y2="148" stroke="black" />
<text x="875" y="140" font-family="Verdana" font-size="8" text-anchor="middle"  dominant-baseline="middle" fill="black" > 133</text>
<circle cx="750" cy="148" r="4" fill="white" stroke="black" />
<line x1="750" y1="152" x2="750" y2="280" stroke="black" />
<line x1="725" y1="280" x2="775" y2="280" stroke="black" />
<text x="762" y="272" font-family="Verdana" font-size="8" text-anchor="middle"  dominant-baseline="middle" fill="black" > 265</text>
<circle cx="725" cy="280" r="4" fill="white" stroke="black" />
<line x1="725" y1="284" x2="725" y2="567" stroke="black" />
<line x1="712" y1="567" x2="738" y2="567" stroke="black" />
<text x="731" y="559" font-family="Verdana" font-size="8" text-anchor="middle"  dominant-baseline="middle" fill="black" > 552</text>
<circle cx="712" cy="567" r="4" fill="white" stroke="black" />
<line x1="712" y1="571" x2="712" y2="736" stroke="black" />
<circle cx="712" cy="736" r="4" fill="white" stroke="black" />
<text x="712" y="748" font-family="Verdana" font-size="8" text-anchor="middle"  dominant-baseline="middle" fill="black" > 721</text>
<circle cx="737" cy="567" r="4" fill="white" stroke="black" />
<line x1="737" y1="571" x2="737" y2="736" stroke="black" />
<circle cx="737" cy="736" r="4" fill="white" stroke="black" />
<text x="737" y="748" font-family="Verdana" font-size="8" text-anchor="middle"  dominant-baseline="middle" fill="black" > 721</text>
<circle cx="775" cy="280" r="4" fill="white" stroke="black" />
<line x1="775" y1="284" x2="775" y2="736" stroke="black" />
<circle cx="775" cy="736" r="4" fill="white" stroke="black" />
<text x="775" y="748" font-family="Verdana" font-size="8" text-anchor="middle"  dominant-baseline="middle" fill="black" > 721</text>
<circle cx="850" cy="148" r="4" fill="white" stroke="black" />
<line x1="850" y1="152" x2="850" y2="462" stroke="black" />
<line x1="846" y1="458" x2="854" y2="466" stroke="red" />
<line x1="846" y1="466" x2="854" y2="458" stroke="red" />
<text x="850" y="474" font-family="Verdana" font-size="8" text-anchor="middle"  dominant-baseline="middle" fill="black" > 447</text>
<circle cx="950" cy="148" r="4" fill="white" stroke="black" />
<line x1="950" y1="152" x2="950" y2="264" stroke="black" />
<line x1="925" y1="264" x2="975" y2="264" stroke="black" />
<text x="962" y="256" font-family="Verdana" font-size="8" text-anchor="middle"  dominant-baseline="middle" fill="black" > 249</text>
<circle cx="925" cy="264" r="4" fill="white" stroke="black" />
<line x1="925" y1="268" x2="925" y2="573" stroke="black" />
<line x1="908" y1="573" x2="942" y2="573" stroke="black" />
<text x="929" y="565" font-family="Verdana" font-size="8" text-anchor="middle"  dominant-baseline="middle" fill="black" > 558</text>
<circle cx="908" cy="573" r="4" fill="white" stroke="black" />
<line x1="908" y1="577" x2="908" y2="718" stroke="black" />
<line x1="904" y1="714" x2="912" y2="722" stroke="red" />
<line x1="904" y1="722" x2="912" y2="714" stroke="red" />
<text x="908" y="730" font-family="Verdana" font-size="8" text-anchor="middle"  dominant-baseline="middle" fill="black" > 703</text>
<circle cx="924" cy="573" r="4" fill="white" stroke="black" />
<line x1="924" y1="577" x2="924" y2="675" stroke="black" />
<line x1="920" y1="671" x2="928" y2="679" stroke="red" />
<line x1="920" y1="679" x2="928" y2="671" stroke="red" />
<text x="924" y="687" font-family="Verdana" font-size="8" text-anchor="middle"  dominant-baseline="middle" fill="black" > 660</text>
<circle cx="940" cy="573" r="4" fill="white" stroke="black" />
<line x1="940" y1="577" x2="940" y2="631" stroke="black" />
<line x1="936" y1="627" x2="944" y2="635" stroke="red" />
<line x1="936" y1="635" x2="944" y2="627" stroke="red" />
<text x="940" y="643" font-family="Verdana" font-size="8" text-anchor="middle"  dominant-baseline="middle" fill="black" > 616</text>
<circle cx="975" cy="264" r="4" fill="white" stroke="black" />
<line x1="975" y1="268" x2="975" y2="512" stroke="black" />
<line x1="962" y1="512" x2="988" y2="512" stroke="black" />
<text x="981" y="504" font-family="Verdana" font-size="8" text-anchor="middle"  dominant-baseline="middle" fill="black" > 497</text>
<circle cx="962" cy="512" r="4" fill="white" stroke="black" />
<circle cx="987" cy="512" r="4" fill="white" stroke="black" />
<line x1="962" y1="516" x2="962" y2="529" stroke="black" />
<line x1="962" y1="529" x2="974" y2="534" stroke="black" />
<line x1="987" y1="516" x2="987" y2="529" stroke="black" />
<line x1="987" y1="529" x2="974" y2="534" stroke="black" />
<text x="974" y="522" font-family="Verdana" font-size="8" text-anchor="middle"  dominant-baseline="middle" fill="black" > 519</text>
<circle cx="974" cy="534" r="4" fill="white" stroke="black" />
<line x1="974" y1="538" x2="974" y2="736" stroke="black" />
<circle cx="974" cy="736" r="4" fill="white" stroke="black" />
<text x="974" y="748" font-family="Verdana" font-size="8" text-anchor="middle"  dominant-baseline="middle" fill="black" > 721</text>
<text x="1100" y="7" font-family="Verdana" font-size="7" text-anchor="middle"  dominant-baseline="middle" fill="black" > C6</text>
<circle cx="1100" cy="15" r="4" fill="white" stroke="black" />
<line x1="1100" y1="19" x2="1100" y2="182" stroke="black" />
<line x1="1050" y1="182" x2="1150" y2="182" stroke="black" />
<text x="1125" y="174" font-family="Verdana" font-size="8" text-anchor="middle"  dominant-baseline="middle" fill="black" > 167</text>
<circle cx="1050" cy="182" r="4" fill="white" stroke="black" />
<line x1="1050" y1="186" x2="1050" y2="464" stroke="black" />
<line x1="1046" y1="468" x2="1050" y2="460" stroke="blue" />
<line x1="1050" y1="468" x2="1054" y2="460" stroke="blue" />
<text x="1050" y="476" font-family="Verdana" font-size="8" text-anchor="middle"  dominant-baseline="middle" fill="black" > 449</text>
<circle cx="1150" cy="182" r="4" fill="white" stroke="black" />
<line x1="1150" y1="186" x2="1150" y2="374" stroke="black" />
<line x1="1146" y1="378" x2="1150" y2="370" stroke="blue" />
<line x1="1150" y1="378" x2="1154" y2="370" stroke="blue" />
<text x="1150" y="386" font-family="Verdana" font-size="8" text-anchor="middle"  dominant-baseline="middle" fill="black" > 359</text>
<text x="1250" y="7" font-family="Verdana" font-size="7" text-anchor="middle"  dominant-baseline="middle" fill="black" > C7</text>
<circle cx="1250" cy="15" r="4" fill="white" stroke="black" />
<line x1="1250" y1="19" x2="1250" y2="173" stroke="black" />
<line x1="1246" y1="177" x2="1250" y2="169" stroke="blue" />
<line x1="1250" y1="177" x2="1254" y2="169" stroke="blue" />
<text x="1250" y="185" font-family="Verdana" font-size="8" text-anchor="middle"  dominant-baseline="middle" fill="black" > 158</text>
<text x="1350" y="7" font-family="Verdana" font-size="7" text-anchor="middle"  dominant-baseline="middle" fill="black" > C8</text>
<circle cx="1350" cy="15" r="4" fill="white" stroke="black" />
<line x1="1350" y1="19" x2="1350" y2="334" stroke="black" />
<line x1="1346" y1="330" x2="1354" y2="338" stroke="red" />
<line x1="1346" y1="338" x2="1354" y2="330" stroke="red" />
<text x="1350" y="346" font-family="Verdana" font-size="8" text-anchor="middle"  dominant-baseline="middle" fill="black" > 319</text>
<text x="1550" y="7" font-family="Verdana" font-size="7" text-anchor="middle"  dominant-baseline="middle" fill="black" > C9</text>
<circle cx="1550" cy="15" r="4" fill="white" stroke="black" />
<line x1="1550" y1="19" x2="1550" y2="390" stroke="black" />
<line x1="1450" y1="390" x2="1650" y2="390" stroke="black" />
<text x="1575" y="382" font-family="Verdana" font-size="8" text-anchor="middle"  dominant-baseline="middle" fill="black" > 375</text>
<circle cx="1450" cy="390" r="4" fill="white" stroke="black" />
<circle cx="1550" cy="390" r="4" fill="white" stroke="black" />
<line x1="1450" y1="394" x2="1450" y2="400" stroke="black" />
<line x1="1450" y1="400" x2="1500" y2="403" stroke="black" />
<line x1="1550" y1="394" x2="1550" y2="400" stroke="black" />
<line x1="1550" y1="400" x2="1500" y2="403" stroke="black" />
<text x="1500" y="391" font-family="Verdana" font-size="8" text-anchor="middle"  dominant-baseline="middle" fill="black" > 388</text>
<circle cx="1500" cy="403" r="4" fill="white" stroke="black" />
<circle cx="1650" cy="390" r="4" fill="white" stroke="black" />
<line x1="1500" y1="407" x2="1500" y2="405" stroke="black" />
<line x1="1500" y1="405" x2="1575" y2="405" stroke="black" />
<line x1="1650" y1="394" x2="1650" y2="405" stroke="black" />
<line x1="1650" y1="405" x2="1575" y2="405" stroke="black" />
<text x="1575" y="393" font-family="Verdana" font-size="8" text-anchor="middle"  dominant-baseline="middle" fill="black" > 390</text>
<circle cx="1575" cy="405" r="4" fill="white" stroke="black" />
<line x1="1575" y1="409" x2="1575" y2="665" stroke="black" />
<line x1="1571" y1="661" x2="1579" y2="669" stroke="red" />
<line x1="1571" y1="669" x2="1579" y2="661" stroke="red" />
<text x="1575" y="677" font-family="Verdana" font-size="8" text-anchor="middle"  dominant-baseline="middle" fill="black" > 650</text>
<text x="1750" y="7" font-family="Verdana" font-size="7" text-anchor="middle"  dominant-baseline="middle" fill="black" > C10</text>
<circle cx="1750" cy="15" r="4" fill="white" stroke="black" />
<line x1="1750" y1="19" x2="1750" y2="295" stroke="black" />
<line x1="1746" y1="291" x2="1754" y2="299" stroke="red" />
<line x1="1746" y1="299" x2="1754" y2="291" stroke="red" />
<text x="1750" y="307" font-family="Verdana" font-size="8" text-anchor="middle"  dominant-baseline="middle" fill="black" > 280</text>
<text x="1850" y="7" font-family="Verdana" font-size="7" text-anchor="middle"  dominant-baseline="middle" fill="black" > C11</text>
<circle cx="1850" cy="15" r="4" fill="white" stroke="black" />
<line x1="1850" y1="19" x2="1850" y2="232" stroke="black" />
<line x1="1846" y1="236" x2="1850" y2="228" stroke="blue" />
<line x1="1850" y1="236" x2="1854" y2="228" stroke="blue" />
<text x="1850" y="244" font-family="Verdana" font-size="8" text-anchor="middle"  dominant-baseline="middle" fill="black" > 217</text>
<text x="1950" y="7" font-family="Verdana" font-size="7" text-anchor="middle"  dominant-baseline="middle" fill="black" > C12</text>
<circle cx="1950" cy="15" r="4" fill="white" stroke="black" />
<line x1="1950" y1="19" x2="1950" y2="370" stroke="black" />
<line x1="1946" y1="374" x2="1950" y2="366" stroke="blue" />
<line x1="1950" y1="374" x2="1954" y2="366" stroke="blue" />
<text x="1950" y="382" font-family="Verdana" font-size="8" text-anchor="middle"  dominant-baseline="middle" fill="black" > 355</text>
<text x="2150" y="7" font-family="Verdana" font-size="7" text-anchor="middle"  dominant-baseline="middle" fill="black" > C13</text>
<circle cx="2150" cy="15" r="4" fill="white" stroke="black" />
<line x1="2150" y1="19" x2="2150" y2="345" stroke="black" />
<line x1="2050" y1="345" x2="2250" y2="345" stroke="black" />
<text x="2175" y="337" font-family="Verdana" font-size="8" text-anchor="middle"  dominant-baseline="middle" fill="black" > 330</text>
<circle cx="2050" cy="345" r="4" fill="white" stroke="black" />
<circle cx="2150" cy="345" r="4" fill="white" stroke="black" />
<line x1="2050" y1="349" x2="2050" y2="390" stroke="black" />
<line x1="2050" y1="390" x2="2100" y2="404" stroke="black" />
<line x1="2150" y1="349" x2="2150" y2="390" stroke="black" />
<line x1="2150" y1="390" x2="2100" y2="404" stroke="black" />
<text x="2100" y="392" font-family="Verdana" font-size="8" text-anchor="middle"  dominant-baseline="middle" fill="black" > 389</text>
<circle cx="2100" cy="404" r="4" fill="white" stroke="black" />
<circle cx="2250" cy="345" r="4" fill="white" stroke="black" />
<line x1="2100" y1="408" x2="2100" y2="514" stroke="black" />
<line x1="2100" y1="514" x2="2175" y2="550" stroke="black" />
<line x1="2250" y1="349" x2="2250" y2="514" stroke="black" />
<line x1="2250" y1="514" x2="2175" y2="550" stroke="black" />
<text x="2175" y="538" font-family="Verdana" font-size="8" text-anchor="middle"  dominant-baseline="middle" fill="black" > 535</text>
<circle cx="2175" cy="550" r="4" fill="white" stroke="black" />
<line x1="2175" y1="554" x2="2175" y2="736" stroke="black" />
<circle cx="2175" cy="736" r="4" fill="white" stroke="black" />
<text x="2175" y="748" font-family="Verdana" font-size="8" text-anchor="middle"  dominant-baseline="middle" fill="black" > 721</text>
<text x="2400" y="7" font-family="Verdana" font-size="7" text-anchor="middle"  dominant-baseline="middle" fill="black" > C14</text>
<circle cx="2400" cy="15" r="4" fill="white" stroke="black" />
<line x1="2400" y1="19" x2="2400" y2="325" stroke="black" />
<line x1="2350" y1="325" x2="2450" y2="325" stroke="black" />
<text x="2425" y="317" font-family="Verdana" font-size="8" text-anchor="middle"  dominant-baseline="middle" fill="black" > 310</text>
<circle cx="2350" cy="325" r="4" fill="white" stroke="black" />
<circle cx="2450" cy="325" r="4" fill="white" stroke="black" />
<line x1="2350" y1="329" x2="2350" y2="463" stroke="black" />
<line x1="2350" y1="463" x2="2400" y2="509" stroke="black" />
<line x1="2450" y1="329" x2="2450" y2="463" stroke="black" />
<line x1="2450" y1="463" x2="2400" y2="509" stroke="black" />
<text x="2400" y="497" font-family="Verdana" font-size="8" text-anchor="middle"  dominant-baseline="middle" fill="black" > 494</text>
<circle cx="2400" cy="509" r="4" fill="white" stroke="black" />
<line x1="2400" y1="513" x2="2400" y2="736" stroke="black" />
<circle cx="2400" cy="736" r="4" fill="white" stroke="black" />
<text x="2400" y="748" font-family="Verdana" font-size="8" text-anchor="middle"  dominant-baseline="middle" fill="black" > 721</text>
<text x="2650" y="7" font-family="Verdana" font-size="7" text-anchor="middle"  dominant-baseline="middle" fill="black" > C15</text>
<circle cx="2650" cy="15" r="4" fill="white" stroke="black" />
<line x1="2650" y1="19" x2="2650" y2="333" stroke="black" />
<line x1="2550" y1="333" x2="2750" y2="333" stroke="black" />
<text x="2675" y="325" font-family="Verdana" font-size="8" text-anchor="middle"  dominant-baseline="middle" fill="black" > 318</text>
<circle cx="2550" cy="333" r="4" fill="white" stroke="black" />
<circle cx="2650" cy="333" r="4" fill="white" stroke="black" />
<line x1="2550" y1="337" x2="2550" y2="341" stroke="black" />
<line x1="2550" y1="341" x2="2600" y2="343" stroke="black" />
<line x1="2650" y1="337" x2="2650" y2="341" stroke="black" />
<line x1="2650" y1="341" x2="2600" y2="343" stroke="black" />
<text x="2600" y="331" font-family="Verdana" font-size="8" text-anchor="middle"  dominant-baseline="middle" fill="black" > 328</text>
<circle cx="2600" cy="343" r="4" fill="white" stroke="black" />
<circle cx="2750" cy="333" r="4" fill="white" stroke="black" />
<line x1="2600" y1="347" x2="2600" y2="355" stroke="black" />
<line x1="2600" y1="355" x2="2675" y2="358" stroke="black" />
<line x1="2750" y1="337" x2="2750" y2="355" stroke="black" />
<line x1="2750" y1="355" x2="2675" y2="358" stroke="black" />
<text x="2675" y="346" font-family="Verdana" font-size="8" text-anchor="middle"  dominant-baseline="middle" fill="black" > 343</text>
<circle cx="2675" cy="358" r="4" fill="white" stroke="black" />
<line x1="2675" y1="362" x2="2675" y2="736" stroke="black" />
<circle cx="2675" cy="736" r="4" fill="white" stroke="black" />
<text x="2675" y="748" font-family="Verdana" font-size="8" text-anchor="middle"  dominant-baseline="middle" fill="black" > 721</text>
<text x="2850" y="7" font-family="Verdana" font-size="7" text-anchor="middle"  dominant-baseline="middle" fill="black" > C16</text>
<circle cx="2850" cy="15" r="4" fill="white" stroke="black" />
<line x1="2850" y1="19" x2="2850" y2="736" stroke="black" />
<circle cx="2850" cy="736" r="4" fill="white" stroke="black" />
<text x="2850" y="748" font-family="Verdana" font-size="8" text-anchor="middle"  dominant-baseline="middle" fill="black" > 721</text>
<text x="3050" y="7" font-family="Verdana" font-size="7" text-anchor="middle"  dominant-baseline="middle" fill="black" > C17</text>
<circle cx="3050" cy="15" r="4" fill="white" stroke="black" />
<line x1="3050" y1="19" x2="3050" y2="204" stroke="black" />
<line x1="2950" y1="204" x2="3150" y2="204" stroke="black" />
<text x="3075" y="196" font-family="Verdana" font-size="8" text-anchor="middle"  dominant-baseline="middle" fill="black" > 189</text>
<circle cx="2950" cy="204" r="4" fill="white" stroke="black" />
<circle cx="3050" cy="204" r="4" fill="white" stroke="black" />
<line x1="2950" y1="208" x2="2950" y2="402" stroke="black" />
<line x1="2950" y1="402" x2="3000" y2="468" stroke="black" />
<line x1="3050" y1="208" x2="3050" y2="402" stroke="black" />
<line x1="3050" y1="402" x2="3000" y2="468" stroke="black" />
<text x="3000" y="456" font-family="Verdana" font-size="8" text-anchor="middle"  dominant-baseline="middle" fill="black" > 453</text>
<circle cx="3000" cy="468" r="4" fill="white" stroke="black" />
<line x1="3000" y1="472" x2="3000" y2="736" stroke="black" />
<circle cx="3000" cy="736" r="4" fill="white" stroke="black" />
<text x="3000" y="748" font-family="Verdana" font-size="8" text-anchor="middle"  dominant-baseline="middle" fill="black" > 721</text>
<circle cx="3150" cy="204" r="4" fill="white" stroke="black" />
<line x1="3150" y1="208" x2="3150" y2="337" stroke="black" />
<line x1="3125" y1="337" x2="3175" y2="337" stroke="black" />
<text x="3162" y="329" font-family="Verdana" font-size="8" text-anchor="middle"  dominant-baseline="middle" fill="black" > 322</text>
<circle cx="3125" cy="337" r="4" fill="white" stroke="black" />
<line x1="3125" y1="341" x2="3125" y2="600" stroke="black" />
<line x1="3112" y1="600" x2="3138" y2="600" stroke="black" />
<text x="3131" y="592" font-family="Verdana" font-size="8" text-anchor="middle"  dominant-baseline="middle" fill="black" > 585</text>
<circle cx="3112" cy="600" r="4" fill="white" stroke="black" />
<line x1="3112" y1="604" x2="3112" y2="736" stroke="black" />
<circle cx="3112" cy="736" r="4" fill="white" stroke="black" />
<text x="3112" y="748" font-family="Verdana" font-size="8" text-anchor="middle"  dominant-baseline="middle" fill="black" > 721</text>
<circle cx="3137" cy="600" r="4" fill="white" stroke="black" />
<line x1="3137" y1="604" x2="3137" y2="736" stroke="black" />
<circle cx="3137" cy="736" r="4" fill="white" stroke="black" />
<text x="3137" y="748" font-family="Verdana" font-size="8" text-anchor="middle"  dominant-baseline="middle" fill="black" > 721</text>
<circle cx="3175" cy="337" r="4" fill="white" stroke="black" />
<line x1="3175" y1="341" x2="3175" y2="581" stroke="black" />
<line x1="3162" y1="581" x2="3188" y2="581" stroke="black" />
<text x="3181" y="573" font-family="Verdana" font-size="8" text-anchor="middle"  dominant-baseline="middle" fill="black" > 566</text>
<circle cx="3162" cy="581" r="4" fill="white" stroke="black" />
<line x1="3162" y1="585" x2="3162" y2="736" stroke="black" />
<circle cx="3162" cy="736" r="4" fill="white" stroke="black" />
<text x="3162" y="748" font-family="Verdana" font-size="8" text-anchor="middle"  dominant-baseline="middle" fill="black" > 721</text>
<circle cx="3187" cy="581" r="4" fill="white" stroke="black" />
<line x1="3187" y1="585" x2="3187" y2="707" stroke="black" />
<line x1="3181" y1="707" x2="3194" y2="707" stroke="black" />
<text x="3190" y="699" font-family="Verdana" font-size="8" text-anchor="middle"  dominant-baseline="middle" fill="black" > 692</text>
<circle cx="3181" cy="707" r="4" fill="white" stroke="black" />
<line x1="3181" y1="711" x2="3181" y2="736" stroke="black" />
<circle cx="3181" cy="736" r="4" fill="white" stroke="black" />
<text x="3181" y="748" font-family="Verdana" font-size="8" text-anchor="middle"  dominant-baseline="middle" fill="black" > 721</text>
<circle cx="3193" cy="707" r="4" fill="white" stroke="black" />
<line x1="3193" y1="711" x2="3193" y2="736" stroke="black" />
<circle cx="3193" cy="736" r="4" fill="white" stroke="black" />
<text x="3193" y="748" font-family="Verdana" font-size="8" text-anchor="middle"  dominant-baseline="middle" fill="black" > 721</text>
<text x="3250" y="7" font-family="Verdana" font-size="7" text-anchor="middle"  dominant-baseline="middle" fill="black" > C18</text>
<circle cx="3250" cy="15" r="4" fill="white" stroke="black" />
<line x1="3250" y1="19" x2="3250" y2="166" stroke="black" />
<line x1="3246" y1="170" x2="3250" y2="162" stroke="blue" />
<line x1="3250" y1="170" x2="3254" y2="162" stroke="blue" />
<text x="3250" y="178" font-family="Verdana" font-size="8" text-anchor="middle"  dominant-baseline="middle" fill="black" > 151</text>
</svg>
