<?xml version="1.0" encoding="utf-8"?>
<svg xmlns="http://www.w3.org/2000/svg" version="1.1" width="1850" height="750">
<rect width="1850" height="15" x="0" y="0" fill="white" />
<rect width="1850" height="15" x="0" y="735" fill="white" />
<rect width="25" height="750" x="0" y="0" fill="white" />
<rect width="25" height="750" x="1825" y="0" fill="white" />
<rect width="1810" height="144" x="25" y="15" fill="ghostwhite" />
<rect width="1810" height="144" x="25" y="159" fill="snow" />
<rect width="1810" height="144" x="25" y="303" fill="ghostwhite" />
<rect width="1810" height="144" x="25" y="447" fill="snow" />
<rect width="1810" height="144" x="25" y="591" fill="ghostwhite" />
<text x="12" y="87" font-family="Verdana" font-size="10" text-anchor="middle"  dominant-baseline="middle" fill="red" > D0</text>
<text x="12" y="231" font-family="Verdana" font-size="10" text-anchor="middle"  dominant-baseline="middle" fill="red" > D1</text>
<text x="12" y="375" font-family="Verdana" font-size="10" text-anchor="middle"  dominant-baseline="middle" fill="red" > D2</text>
<text x="12" y="519" font-family="Verdana" font-size="10" text-anchor="middle"  dominant-baseline="middle" fill="red" > D3</text>
<text x="12" y="663" font-family="Verdana" font-size="10" text-anchor="middle"  dominant-baseline="middle" fill="red" > D4</text>
<text x="12" y="20" font-family="Verdana" font-size="10" text-anchor="middle"  dominant-baseline="middle" fill="black" > 0</text>
<text x="12" y="164" font-family="Verdana" font-size="10" text-anchor="middle"  dominant-baseline="middle" fill="black" > 144</text>
<text x="12" y="308" font-family="Verdana" font-size="10" text-anchor="middle"  dominant-baseline="middle" fill="black" > 288</text>
<text x="12" y="452" font-family="Verdana" font-size="10" text-anchor="middle"  dominant-baseline="middle" fill="black" > 432</text>
<text x="12" y="596" font-family="Verdana" font-size="10" text-anchor="middle"  dominant-baseline="middle" fill="black" > 576</text>
<text x="12" y="740" font-family="Verdana" font-size="10" text-anchor="middle"  dominant-baseline="middle" fill="black" > 720</text>
<text x="100" y="7" font-family="Verdana" font-size="7" text-anchor="middle"  dominant-baseline="middle" fill="black" > C1</text>
<circle cx="100" cy="15" r="4" fill="white" stroke="black" />
<line x1="100" y1="19" x2="100" y2="231" stroke="black" />
<line x1="50" y1="231" x2="150" y2="231" stroke="black" />
<text x="125" y="223" font-family="Verdana" font-size="8" text-anchor="middle"  dominant-baseline="middle" fill="black" > 216</text>
<circle cx="50" cy="231" r="4" fill="white" stroke="black" />
<line x1="50" y1="235" x2="50" y2="388" stroke="black" />
<line x1="25" y1="388" x2="75" y2="388" stroke="black" />
<text x="62" y="380" font-family="Verdana" font-size="8" text-anchor="middle"  dominant-baseline="middle" fill="black" > 373</text>
<circle cx="25" cy="388" r="4" fill="white" stroke="black" />
<circle cx="75" cy="388" r="4" fill="white" stroke="black" />
<line x1="25" y1="392" x2="25" y2="429" stroke="black" />
<line x1="25" y1="429" x2="50" y2="442" stroke="black" />
<line x1="75" y1="392" x2="75" y2="429" stroke="black" />
<line x1="75" y1="429" x2="50" y2="442" stroke="black" />
<text x="50" y="430" font-family="Verdana" font-size="8" text-anchor="middle"  dominant-baseline="middle" fill="black" > 427</text>
<circle cx="50" cy="442" r="4" fill="white" stroke="black" />
<line x1="50" y1="446" x2="50" y2="736" stroke="black" />
<circle cx="50" cy="736" r="4" fill="white" stroke="black" />
<text x="50" y="748" font-family="Verdana" font-size="8" text-anchor="middle"  dominant-baseline="middle" fill="black" > 721</text>
<circle cx="150" cy="231" r="4" fill="white" stroke="black" />
<line x1="150" y1="235" x2="150" y2="323" stroke="black" />
<line x1="125" y1="323" x2="175" y2="323" stroke="black" />
<text x="162" y="315" font-family="Verdana" font-size="8" text-anchor="middle"  dominant-baseline="middle" fill="black" > 308</text>
<circle cx="125" cy="323" r="4" fill="white" stroke="black" />
<circle cx="175" cy="323" r="4" fill="white" stroke="black" />
<line x1="125" y1="327" x2="125" y2="397" stroke="black" />
<line x1="125" y1="397" x2="150" y2="421" stroke="black" />
<line x1="175" y1="327" x2="175" y2="397" stroke="black" />
<line x1="175" y1="397" x2="150" y2="421" stroke="black" />
<text x="150" y="409" font-family="Verdana" font-size="8" text-anchor="middle"  dominant-baseline="middle" fill="black" > 406</text>
<circle cx="150" cy="421" r="4" fill="white" stroke="black" />
<line x1="150" y1="425" x2="150" y2="586" stroke="black" />
<line x1="146" y1="582" x2="154" y2="590" stroke="red" />
<line x1="146" y1="590" x2="154" y2="582" stroke="red" />
<text x="150" y="598" font-family="Verdana" font-size="8" text-anchor="middle"  dominant-baseline="middle" fill="black" > 571</text>
<text x="300" y="7" font-family="Verdana" font-size="7" text-anchor="middle"  dominant-baseline="middle" fill="black" > C2</text>
<circle cx="300" cy="15" r="4" fill="white" stroke="black" />
<line x1="300" y1="19" x2="300" y2="198" stroke="black" />
<line x1="250" y1="198" x2="350" y2="198" stroke="black" />
<text x="325" y="190" font-family="Verdana" font-size="8" text-anchor="middle"  dominant-baseline="middle" fill="black" > 183</text>
<circle cx="250" cy="198" r="4" fill="white" stroke="black" />
<circle cx="350" cy="198" r="4" fill="white" stroke="black" />
<line x1="250" y1="202" x2="250" y2="288" stroke="black" />
<line x1="250" y1="288" x2="300" y2="318" stroke="black" />
<line x1="350" y1="202" x2="350" y2="288" stroke="black" />
<line x1="350" y1="288" x2="300" y2="318" stroke="black" />
<text x="300" y="306" font-family="Verdana" font-size="8" text-anchor="middle"  dominant-baseline="middle" fill="black" > 303</text>
<circle cx="300" cy="318" r="4" fill="white" stroke="black" />
<line x1="300" y1="322" x2="300" y2="404" stroke="black" />
<line x1="275" y1="404" x2="325" y2="404" stroke="black" />
<text x="312" y="396" font-family="Verdana" font-size="8" text-anchor="middle"  dominant-baseline="middle" fill="black" > 389</text>
<circle cx="275" cy="404" r="4" fill="white" stroke="black" />
<circle cx="325" cy="404" r="4" fill="white" stroke="black" />
<line x1="275" y1="408" x2="275" y2="413" stroke="black" />
<line x1="275" y1="413" x2="300" y2="415" stroke="black" />
<line x1="325" y1="408" x2="325" y2="413" stroke="black" />
<line x1="325" y1="413" x2="300" y2="415" stroke="black" />
<text x="300" y="403" font-family="Verdana" font-size="8" text-anchor="middle"  dominant-baseline="middle" fill="black" > 400</text>
<circle cx="300" cy="415" r="4" fill="white" stroke="black" />
<line x1="300" y1="419" x2="300" y2="524" stroke="black" />
<line x1="296" y1="520" x2="304" y2="528" stroke="red" />
<line x1="296" y1="528" x2="304" y2="520" stroke="red" />
<text x="300" y="536" font-family="Verdana" font-size="8" text-anchor="middle"  dominant-baseline="middle" fill="black" > 509</text>
<text x="450" y="7" font-family="Verdana" font-size="7" text-anchor="middle"  dominant-baseline="middle" fill="black" > C3</text>
<circle cx="450" cy="15" r="4" fill="white" stroke="black" />
<line x1="450" y1="19" x2="450" y2="384" stroke="black" />
<line x1="446" y1="380" x2="454" y2="388" stroke="red" />
<line x1="446" y1="388" x2="454" y2="380" stroke="red" />
<text x="450" y="396" font-family="Verdana" font-size="8" text-anchor="middle"  dominant-baseline="middle" fill="black" > 369</text>
<text x="600" y="7" font-family="Verdana" font-size="7" text-anchor="middle"  dominant-baseline="middle" fill="black" > C4</text>
<circle cx="600" cy="15" r="4" fill="white" stroke="black" />
<line x1="600" y1="19" x2="600" y2="182" stroke="black" />
<line x1="550" y1="182" x2="650" y2="182" stroke="black" />
<text x="625" y="174" font-family="Verdana" font-size="8" text-anchor="middle"  dominant-baseline="middle" fill="black" > 167</text>
<circle cx="550" cy="182" r="4" fill="white" stroke="black" />
<circle cx="650" cy="182" r="4" fill="white" stroke="black" />
<line x1="550" y1="186" x2="550" y2="239" stroke="black" />
<line x1="550" y1="239" x2="600" y2="258" stroke="black" />
<line x1="650" y1="186" x2="650" y2="239" stroke="black" />
<line x1="650" y1="239" x2="600" y2="258" stroke="black" />
<text x="600" y="246" font-family="Verdana" font-size="8" text-anchor="middle"  dominant-baseline="middle" fill="black" > 243</text>
<circle cx="600" cy="258" r="4" fill="white" stroke="black" />
<line x1="600" y1="262" x2="600" y2="535" stroke="black" />
<line x1="596" y1="531" x2="604" y2="539" stroke="red" />
<line x1="596" y1="539" x2="604" y2="531" stroke="red" />
<text x="600" y="547" font-family="Verdana" font-size="8" text-anchor="middle"  dominant-baseline="middle" fill="black" > 520</text>
<text x="800" y="7" font-family="Verdana" font-size="7" text-anchor="middle"  dominant-baseline="middle" fill="black" > C5</text>
<circle cx="800" cy="15" r="4" fill="white" stroke="black" />
<line x1="800" y1="19" x2="800" y2="134" stroke="black" />
<line x1="750" y1="134" x2="850" y2="134" stroke="black" />
<text x="825" y="126" font-family="Verdana" font-size="8" text-anchor="middle"  dominant-baseline="middle" fill="black" > 119</text>
<circle cx="750" cy="134" r="4" fill="white" stroke="black" />
<line x1="750" y1="138" x2="750" y2="460" stroke="black" />
<line x1="725" y1="460" x2="775" y2="460" stroke="black" />
<text x="762" y="452" font-family="Verdana" font-size="8" text-anchor="middle"  dominant-baseline="middle" fill="black" > 445</text>
<circle cx="725" cy="460" r="4" fill="white" stroke="black" />
<circle cx="775" cy="460" r="4" fill="white" stroke="black" />
<line x1="725" y1="464" x2="725" y2="493" stroke="black" />
<line x1="725" y1="493" x2="750" y2="504" stroke="black" />
<line x1="775" y1="464" x2="775" y2="493" stroke="black" />
<line x1="775" y1="493" x2="750" y2="504" stroke="black" />
<text x="750" y="492" font-family="Verdana" font-size="8" text-anchor="middle"  dominant-baseline="middle" fill="black" > 489</text>
<circle cx="750" cy="504" r="4" fill="white" stroke="black" />
<line x1="750" y1="508" x2="750" y2="573" stroke="black" />
<line x1="746" y1="569" x2="754" y2="577" stroke="red" />
<line x1="746" y1="577" x2="754" y2="569" stroke="red" />
<text x="750" y="585" font-family="Verdana" font-size="8" text-anchor="middle"  dominant-baseline="middle" fill="black" > 558</text>
<circle cx="850" cy="134" r="4" fill="white" stroke="black" />
<line x1="850" y1="138" x2="850" y2="288" stroke="black" />
<line x1="846" y1="284" x2="854" y2="292" stroke="red" />
<line x1="846" y1="292" x2="854" y2="284" stroke="red" />
<text x="850" y="300" font-family="Verdana" font-size="8" text-anchor="middle"  dominant-baseline="middle" fill="black" > 273</text>
<text x="950" y="7" font-family="Verdana" font-size="7" text-anchor="middle"  dominant-baseline="middle" fill="black" > C6</text>
<circle cx="950" cy="15" r="4" fill="white" stroke="black" />
<line x1="950" y1="19" x2="950" y2="347" stroke="black" />
<line x1="946" y1="343" x2="954" y2="351" stroke="red" />
<line x1="946" y1="351" x2="954" y2="343" stroke="red" />
<text x="950" y="359" font-family="Verdana" font-size="8" text-anchor="middle"  dominant-baseline="middle" fill="black" > 332</text>
<text x="1050" y="7" font-family="Verdana" font-size="7" text-anchor="middle"  dominant-baseline="middle" fill="black" > C7</text>
<circle cx="1050" cy="15" r="4" fill="white" stroke="black" />
<line x1="1050" y1="19" x2="1050" y2="77" stroke="black" />
<line x1="1046" y1="81" x2="1050" y2="73" stroke="blue" />
<line x1="1050" y1="81" x2="1054" y2="73" stroke="blue" />
<text x="1050" y="89" font-family="Verdana" font-size="8" text-anchor="middle"  dominant-baseline="middle" fill="black" > 62</text>
<text x="1150" y="7" font-family="Verdana" font-size="7" text-anchor="middle"  dominant-baseline="middle" fill="black" > C8</text>
<circle cx="1150" cy="15" r="4" fill="white" stroke="black" />
<line x1="1150" y1="19" x2="1150" y2="33" stroke="black" />
<line x1="1146" y1="29" x2="1154" y2="37" stroke="red" />
<line x1="1146" y1="37" x2="1154" y2="29" stroke="red" />
<text x="1150" y="45" font-family="Verdana" font-size="8" text-anchor="middle"  dominant-baseline="middle" fill="black" > 18</text>
<text x="1300" y="7" font-family="Verdana" font-size="7" text-anchor="middle"  dominant-baseline="middle" fill="black" > C9</text>
<circle cx="1300" cy="15" r="4" fill="white" stroke="black" />
<line x1="1300" y1="19" x2="1300" y2="249" stroke="black" />
<line x1="1250" y1="249" x2="1350" y2="249" stroke="black" />
<text x="1325" y="241" font-family="Verdana" font-size="8" text-anchor="middle"  dominant-baseline="middle" fill="black" > 234</text>
<circle cx="1250" cy="249" r="4" fill="white" stroke="black" />
<line x1="1250" y1="253" x2="1250" y2="620" stroke="black" />
<line x1="1246" y1="616" x2="1254" y2="624" stroke="red" />
<line x1="1246" y1="624" x2="1254" y2="616" stroke="red" />
<text x="1250" y="632" font-family="Verdana" font-size="8" text-anchor="middle"  dominant-baseline="middle" fill="black" > 605</text>
<circle cx="1350" cy="249" r="4" fill="white" stroke="black" />
<line x1="1350" y1="253" x2="1350" y2="401" stroke="black" />
<line x1="1325" y1="401" x2="1375" y2="401" stroke="black" />
<text x="1362" y="393" font-family="Verdana" font-size="8" text-anchor="middle"  dominant-baseline="middle" fill="black" > 386</text>
<circle cx="1325" cy="401" r="4" fill="white" stroke="black" />
<line x1="1325" y1="405" x2="1325" y2="736" stroke="black" />
<circle cx="1325" cy="736" r="4" fill="white" stroke="black" />
<text x="1325" y="748" font-family="Verdana" font-size="8" text-anchor="middle"  dominant-baseline="middle" fill="black" > 721</text>
<circle cx="1375" cy="401" r="4" fill="white" stroke="black" />
<line x1="1375" y1="405" x2="1375" y2="736" stroke="black" />
<circle cx="1375" cy="736" r="4" fill="white" stroke="black" />
<text x="1375" y="748" font-family="Verdana" font-size="8" text-anchor="middle"  dominant-baseline="middle" fill="black" > 721</text>
<text x="1500" y="7" font-family="Verdana" font-size="7" text-anchor="middle"  dominant-baseline="middle" fill="black" > C10</text>
<circle cx="1500" cy="15" r="4" fill="white" stroke="black" />
<line x1="1500" y1="19" x2="1500" y2="198" stroke="black" />
<line x1="1450" y1="198" x2="1550" y2="198" stroke="black" />
<text x="1525" y="190" font-family="Verdana" font-size="8" text-anchor="middle"  dominant-baseline="middle" fill="black" > 183</text>
<circle cx="1450" cy="198" r="4" fill="white" stroke="black" />
<line x1="1450" y1="202" x2="1450" y2="341" stroke="black" />
<line x1="1446" y1="337" x2="1454" y2="345" stroke="red" />
<line x1="1446" y1="345" x2="1454" y2="337" stroke="red" />
<text x="1450" y="353" font-family="Verdana" font-size="8" text-anchor="middle"  dominant-baseline="middle" fill="black" > 326</text>
<circle cx="1550" cy="198" r="4" fill="white" stroke="black" />
<line x1="1550" y1="202" x2="1550" y2="297" stroke="black" />
<line x1="1546" y1="293" x2="1554" y2="301" stroke="red" />
<line x1="1546" y1="301" x2="1554" y2="293" stroke="red" />
<text x="1550" y="309" font-family="Verdana" font-size="8" text-anchor="middle"  dominant-baseline="middle" fill="black" > 282</text>
<text x="1700" y="7" font-family="Verdana" font-size="7" text-anchor="middle"  dominant-baseline="middle" fill="black" > C11</text>
<circle cx="1700" cy="15" r="4" fill="white" stroke="black" />
<line x1="1700" y1="19" x2="1700" y2="362" stroke="black" />
<line x1="1650" y1="362" x2="1750" y2="362" stroke="black" />
<text x="1725" y="354" font-family="Verdana" font-size="8" text-anchor="middle"  dominant-baseline="middle" fill="black" > 347</text>
<circle cx="1650" cy="362" r="4" fill="white" stroke="black" />
<line x1="1650" y1="366" x2="1650" y2="736" stroke="black" />
<circle cx="1650" cy="736" r="4" fill="white" stroke="black" />
<text x="1650" y="748" font-family="Verdana" font-size="8" text-anchor="middle"  dominant-baseline="middle" fill="black" > 721</text>
<circle cx="1750" cy="362" r="4" fill="white" stroke="black" />
<line x1="1750" y1="366" x2="1750" y2="736" stroke="black" />
<circle cx="1750" cy="736" r="4" fill="white" stroke="black" />
<text x="1750" y="748" font-family="Verdana" font-size="8" text-anchor="middle"  dominant-baseline="middle" fill="black" > 721</text>
</svg>
