<?xml version="1.0" encoding="utf-8"?>
<svg xmlns="http://www.w3.org/2000/svg" version="1.1" width="2650" height="750">
<rect width="2650" height="15" x="0" y="0" fill="white" />
<rect width="2650" height="15" x="0" y="735" fill="white" />
<rect width="25" height="750" x="0" y="0" fill="white" />
<rect width="25" height="750" x="2625" y="0" fill="white" />
<rect width="2610" height="144" x="25" y="15" fill="ghostwhite" />
<rect width="2610" height="144" x="25" y="159" fill="snow" />
<rect width="2610" height="144" x="25" y="303" fill="ghostwhite" />
<rect width="2610" height="144" x="25" y="447" fill="snow" />
<rect width="2610" height="144" x="25" y="591" fill="ghostwhite" />
<text x="12" y="87" font-family="Verdana" font-size="10" text-anchor="middle"  dominant-baseline="middle" fill="red" > D0</text>
<text x="12" y="231" font-family="Verdana" font-size="10" text-anchor="middle"  dominant-baseline="middle" fill="red" > D1</text>
<text x="12" y="375" font-family="Verdana" font-size="10" text-anchor="middle"  dominant-baseline="middle" fill="red" > D2</text>
<text x="12" y="519" font-family="Verdana" font-size="10" text-anchor="middle"  dominant-baseline="middle" fill="red" > D3</text>
<text x="12" y="663" font-family="Verdana" font-size="10" text-anchor="middle"  dominant-baseline="middle" fill="red" > D4</text>
<text x="12" y="20" font-family="Verdana" font-size="10" text-anchor="middle"  dominant-baseline="middle" fill="black" > 0</text>
<text x="12" y="164" font-family="Verdana" font-size="10" text-anchor="middle"  dominant-baseline="middle" fill="black" > 144</text>
<text x="12" y="308" font-family="Verdana" font-size="10" text-anchor="middle"  dominant-baseline="middle" fill="black" > 288</text>
<text x="12" y="452" font-family="Verdana" font-size="10" text-anchor="middle"  dominant-baseline="middle" fill="black" > 432</text>
<text x="12" y="596" font-family="Verdana" font-size="10" text-anchor="middle"  dominant-baseline="middle" fill="black" > 576</text>
<text x="12" y="740" font-family="Verdana" font-size="10" text-anchor="middle"  dominant-baseline="middle" fill="black" > 720</text>
<text x="50" y="7" font-family="Verdana" font-size="7" text-anchor="middle"  dominant-baseline="middle" fill="black" > C1</text>
<circle cx="50" cy="15" r="4" fill="white" stroke="black" />
<line x1="50" y1="19" x2="50" y2="383" stroke="black" />
<line x1="46" y1="379" x2="54" y2="387" stroke="red" />
<line x1="46" y1="387" x2="54" y2="379" stroke="red" />
<text x="50" y="395" font-family="Verdana" font-size="8" text-anchor="middle"  dominant-baseline="middle" fill="black" > 368</text>
<text x="200" y="7" font-family="Verdana" font-size="7" text-anchor="middle"  dominant-baseline="middle" fill="black" > C2</text>
<circle cx="200" cy="15" r="4" fill="white" stroke="black" />
<line x1="200" y1="19" x2="200" y2="345" stroke="black" />
<line x1="150" y1="345" x2="250" y2="345" stroke="black" />
<text x="225" y="337" font-family="Verdana" font-size="8" text-anchor="middle"  dominant-baseline="middle" fill="black" > 330</text>
<circle cx="150" cy="345" r="4" fill="white" stroke="black" />
<line x1="150" y1="349" x2="150" y2="349" stroke="black" />
<line x1="146" y1="345" x2="154" y2="353" stroke="red" />
<line x1="146" y1="353" x2="154" y2="345" stroke="red" />
<text x="150" y="361" font-family="Verdana" font-size="8" text-anchor="middle"  dominant-baseline="middle" fill="black" > 334</text>
<circle cx="250" cy="345" r="4" fill="white" stroke="black" />
<line x1="250" y1="349" x2="250" y2="349" stroke="black" />
<line x1="246" y1="345" x2="254" y2="353" stroke="red" />
<line x1="246" y1="353" x2="254" y2="345" stroke="red" />
<text x="250" y="361" font-family="Verdana" font-size="8" text-anchor="middle"  dominant-baseline="middle" fill="black" > 334</text>
<text x="400" y="7" font-family="Verdana" font-size="7" text-anchor="middle"  dominant-baseline="middle" fill="black" > C3</text>
<circle cx="400" cy="15" r="4" fill="white" stroke="black" />
<line x1="400" y1="19" x2="400" y2="227" stroke="black" />
<line x1="350" y1="227" x2="450" y2="227" stroke="black" />
<text x="425" y="219" font-family="Verdana" font-size="8" text-anchor="middle"  dominant-baseline="middle" fill="black" > 212</text>
<circle cx="350" cy="227" r="4" fill="white" stroke="black" />
<line x1="350" y1="231" x2="350" y2="332" stroke="black" />
<line x1="325" y1="332" x2="375" y2="332" stroke="black" />
<text x="362" y="324" font-family="Verdana" font-size="8" text-anchor="middle"  dominant-baseline="middle" fill="black" > 317</text>
<circle cx="325" cy="332" r="4" fill="white" stroke="black" />
<line x1="325" y1="336" x2="325" y2="450" stroke="black" />
<line x1="312" y1="450" x2="338" y2="450" stroke="black" />
<text x="331" y="442" font-family="Verdana" font-size="8" text-anchor="middle"  dominant-baseline="middle" fill="black" > 435</text>
<circle cx="312" cy="450" r="4" fill="white" stroke="black" />
<line x1="312" y1="454" x2="312" y2="736" stroke="black" />
<circle cx="312" cy="736" r="4" fill="white" stroke="black" />
<text x="312" y="748" font-family="Verdana" font-size="8" text-anchor="middle"  dominant-baseline="middle" fill="black" > 721</text>
<circle cx="337" cy="450" r="4" fill="white" stroke="black" />
<line x1="337" y1="454" x2="337" y2="736" stroke="black" />
<circle cx="337" cy="736" r="4" fill="white" stroke="black" />
<text x="337" y="748" font-family="Verdana" font-size="8" text-anchor="middle"  dominant-baseline="middle" fill="black" > 721</text>
<circle cx="375" cy="332" r="4" fill="white" stroke="black" />
<line x1="375" y1="336" x2="375" y2="452" stroke="black" />
<line x1="362" y1="452" x2="388" y2="452" stroke="black" />
<text x="381" y="444" font-family="Verdana" font-size="8" text-anchor="middle"  dominant-baseline="middle" fill="black" > 437</text>
<circle cx="362" cy="452" r="4" fill="white" stroke="black" />
<line x1="362" y1="456" x2="362" y2="736" stroke="black" />
<circle cx="362" cy="736" r="4" fill="white" stroke="black" />
<text x="362" y="748" font-family="Verdana" font-size="8" text-anchor="middle"  dominant-baseline="middle" fill="black" > 721</text>
<circle cx="387" cy="452" r="4" fill="white" stroke="black" />
<line x1="387" y1="456" x2="387" y2="637" stroke="black" />
<line x1="381" y1="637" x2="394" y2="637" stroke="black" />
<text x="390" y="629" font-family="Verdana" font-size="8" text-anchor="middle"  dominant-baseline="middle" fill="black" > 622</text>
<circle cx="381" cy="637" r="4" fill="white" stroke="black" />
<line x1="381" y1="641" x2="381" y2="736" stroke="black" />
<circle cx="381" cy="736" r="4" fill="white" stroke="black" />
<text x="381" y="748" font-family="Verdana" font-size="8" text-anchor="middle"  dominant-baseline="middle" fill="black" > 721</text>
<circle cx="393" cy="637" r="4" fill="white" stroke="black" />
<line x1="393" y1="641" x2="393" y2="736" stroke="black" />
<circle cx="393" cy="736" r="4" fill="white" stroke="black" />
<text x="393" y="748" font-family="Verdana" font-size="8" text-anchor="middle"  dominant-baseline="middle" fill="black" > 721</text>
<circle cx="450" cy="227" r="4" fill="white" stroke="black" />
<line x1="450" y1="231" x2="450" y2="351" stroke="black" />
<line x1="425" y1="351" x2="475" y2="351" stroke="black" />
<text x="462" y="343" font-family="Verdana" font-size="8" text-anchor="middle"  dominant-baseline="middle" fill="black" > 336</text>
<circle cx="425" cy="351" r="4" fill="white" stroke="black" />
<line x1="425" y1="355" x2="425" y2="470" stroke="black" />
<line x1="412" y1="470" x2="438" y2="470" stroke="black" />
<text x="431" y="462" font-family="Verdana" font-size="8" text-anchor="middle"  dominant-baseline="middle" fill="black" > 455</text>
<circle cx="412" cy="470" r="4" fill="white" stroke="black" />
<line x1="412" y1="474" x2="412" y2="701" stroke="black" />
<line x1="406" y1="701" x2="419" y2="701" stroke="black" />
<text x="415" y="693" font-family="Verdana" font-size="8" text-anchor="middle"  dominant-baseline="middle" fill="black" > 686</text>
<circle cx="406" cy="701" r="4" fill="white" stroke="black" />
<line x1="406" y1="705" x2="406" y2="736" stroke="black" />
<circle cx="406" cy="736" r="4" fill="white" stroke="black" />
<text x="406" y="748" font-family="Verdana" font-size="8" text-anchor="middle"  dominant-baseline="middle" fill="black" > 721</text>
<circle cx="418" cy="701" r="4" fill="white" stroke="black" />
<line x1="418" y1="705" x2="418" y2="736" stroke="black" />
<circle cx="418" cy="736" r="4" fill="white" stroke="black" />
<text x="418" y="748" font-family="Verdana" font-size="8" text-anchor="middle"  dominant-baseline="middle" fill="black" > 721</text>
<circle cx="437" cy="470" r="4" fill="white" stroke="black" />
<circle cx="475" cy="351" r="4" fill="white" stroke="black" />
<line x1="437" y1="474" x2="437" y2="659" stroke="black" />
<line x1="437" y1="659" x2="456" y2="721" stroke="black" />
<line x1="475" y1="355" x2="475" y2="659" stroke="black" />
<line x1="475" y1="659" x2="456" y2="721" stroke="black" />
<text x="456" y="709" font-family="Verdana" font-size="8" text-anchor="middle"  dominant-baseline="middle" fill="black" > 706</text>
<circle cx="456" cy="721" r="4" fill="white" stroke="black" />
<line x1="456" y1="725" x2="456" y2="736" stroke="black" />
<circle cx="456" cy="736" r="4" fill="white" stroke="black" />
<text x="456" y="748" font-family="Verdana" font-size="8" text-anchor="middle"  dominant-baseline="middle" fill="black" > 721</text>
<text x="600" y="7" font-family="Verdana" font-size="7" text-anchor="middle"  dominant-baseline="middle" fill="black" > C4</text>
<circle cx="600" cy="15" r="4" fill="white" stroke="black" />
<line x1="600" y1="19" x2="600" y2="322" stroke="black" />
<line x1="550" y1="322" x2="650" y2="322" stroke="black" />
<text x="625" y="314" font-family="Verdana" font-size="8" text-anchor="middle"  dominant-baseline="middle" fill="black" > 307</text>
<circle cx="550" cy="322" r="4" fill="white" stroke="black" />
<line x1="550" y1="326" x2="550" y2="450" stroke="black" />
<line x1="525" y1="450" x2="575" y2="450" stroke="black" />
<text x="562" y="442" font-family="Verdana" font-size="8" text-anchor="middle"  dominant-baseline="middle" fill="black" > 435</text>
<circle cx="525" cy="450" r="4" fill="white" stroke="black" />
<line x1="525" y1="454" x2="525" y2="736" stroke="black" />
<circle cx="525" cy="736" r="4" fill="white" stroke="black" />
<text x="525" y="748" font-family="Verdana" font-size="8" text-anchor="middle"  dominant-baseline="middle" fill="black" > 721</text>
<circle cx="575" cy="450" r="4" fill="white" stroke="black" />
<line x1="575" y1="454" x2="575" y2="571" stroke="black" />
<line x1="562" y1="571" x2="588" y2="571" stroke="black" />
<text x="581" y="563" font-family="Verdana" font-size="8" text-anchor="middle"  dominant-baseline="middle" fill="black" > 556</text>
<circle cx="562" cy="571" r="4" fill="white" stroke="black" />
<line x1="562" y1="575" x2="562" y2="736" stroke="black" />
<circle cx="562" cy="736" r="4" fill="white" stroke="black" />
<text x="562" y="748" font-family="Verdana" font-size="8" text-anchor="middle"  dominant-baseline="middle" fill="black" > 721</text>
<circle cx="587" cy="571" r="4" fill="white" stroke="black" />
<line x1="587" y1="575" x2="587" y2="736" stroke="black" />
<circle cx="587" cy="736" r="4" fill="white" stroke="black" />
<text x="587" y="748" font-family="Verdana" font-size="8" text-anchor="middle"  dominant-baseline="middle" fill="black" > 721</text>
<circle cx="650" cy="322" r="4" fill="white" stroke="black" />
<line x1="650" y1="326" x2="650" y2="435" stroke="black" />
<line x1="625" y1="435" x2="675" y2="435" stroke="black" />
<text x="662" y="427" font-family="Verdana" font-size="8" text-anchor="middle"  dominant-baseline="middle" fill="black" > 420</text>
<circle cx="625" cy="435" r="4" fill="white" stroke="black" />
<line x1="625" y1="439" x2="625" y2="557" stroke="black" />
<line x1="612" y1="557" x2="638" y2="557" stroke="black" />
<text x="631" y="549" font-family="Verdana" font-size="8" text-anchor="middle"  dominant-baseline="middle" fill="black" > 542</text>
<circle cx="612" cy="557" r="4" fill="white" stroke="black" />
<line x1="612" y1="561" x2="612" y2="736" stroke="black" />
<circle cx="612" cy="736" r="4" fill="white" stroke="black" />
<text x="612" y="748" font-family="Verdana" font-size="8" text-anchor="middle"  dominant-baseline="middle" fill="black" > 721</text>
<circle cx="637" cy="557" r="4" fill="white" stroke="black" />
<line x1="637" y1="561" x2="637" y2="664" stroke="black" />
<line x1="631" y1="664" x2="644" y2="664" stroke="black" />
<text x="640" y="656" font-family="Verdana" font-size="8" text-anchor="middle"  dominant-baseline="middle" fill="black" > 649</text>
<circle cx="631" cy="664" r="4" fill="white" stroke="black" />
<line x1="631" y1="668" x2="631" y2="736" stroke="black" />
<circle cx="631" cy="736" r="4" fill="white" stroke="black" />
<text x="631" y="748" font-family="Verdana" font-size="8" text-anchor="middle"  dominant-baseline="middle" fill="black" > 721</text>
<circle cx="643" cy="664" r="4" fill="white" stroke="black" />
<line x1="643" y1="668" x2="643" y2="736" stroke="black" />
<circle cx="643" cy="736" r="4" fill="white" stroke="black" />
<text x="643" y="748" font-family="Verdana" font-size="8" text-anchor="middle"  dominant-baseline="middle" fill="black" > 721</text>
<circle cx="675" cy="435" r="4" fill="white" stroke="black" />
<line x1="675" y1="439" x2="675" y2="543" stroke="black" />
<line x1="662" y1="543" x2="688" y2="543" stroke="black" />
<text x="681" y="535" font-family="Verdana" font-size="8" text-anchor="middle"  dominant-baseline="middle" fill="black" > 528</text>
<circle cx="662" cy="543" r="4" fill="white" stroke="black" />
<line x1="662" y1="547" x2="662" y2="736" stroke="black" />
<circle cx="662" cy="736" r="4" fill="white" stroke="black" />
<text x="662" y="748" font-family="Verdana" font-size="8" text-anchor="middle"  dominant-baseline="middle" fill="black" > 721</text>
<circle cx="687" cy="543" r="4" fill="white" stroke="black" />
<line x1="687" y1="547" x2="687" y2="663" stroke="black" />
<line x1="681" y1="663" x2="694" y2="663" stroke="black" />
<text x="690" y="655" font-family="Verdana" font-size="8" text-anchor="middle"  dominant-baseline="middle" fill="black" > 648</text>
<circle cx="681" cy="663" r="4" fill="white" stroke="black" />
<line x1="681" y1="667" x2="681" y2="736" stroke="black" />
<circle cx="681" cy="736" r="4" fill="white" stroke="black" />
<text x="681" y="748" font-family="Verdana" font-size="8" text-anchor="middle"  dominant-baseline="middle" fill="black" > 721</text>
<circle cx="693" cy="663" r="4" fill="white" stroke="black" />
<line x1="693" y1="667" x2="693" y2="736" stroke="black" />
<circle cx="693" cy="736" r="4" fill="white" stroke="black" />
<text x="693" y="748" font-family="Verdana" font-size="8" text-anchor="middle"  dominant-baseline="middle" fill="black" > 721</text>
<text x="750" y="7" font-family="Verdana" font-size="7" text-anchor="middle"  dominant-baseline="middle" fill="black" > C5</text>
<circle cx="750" cy="15" r="4" fill="white" stroke="black" />
<line x1="750" y1="19" x2="750" y2="736" stroke="black" />
<circle cx="750" cy="736" r="4" fill="white" stroke="black" />
<text x="750" y="748" font-family="Verdana" font-size="8" text-anchor="middle"  dominant-baseline="middle" fill="black" > 721</text>
<text x="900" y="7" font-family="Verdana" font-size="7" text-anchor="middle"  dominant-baseline="middle" fill="black" > C6</text>
<circle cx="900" cy="15" r="4" fill="white" stroke="black" />
<line x1="900" y1="19" x2="900" y2="239" stroke="black" />
<line x1="850" y1="239" x2="950" y2="239" stroke="black" />
<text x="925" y="231" font-family="Verdana" font-size="8" text-anchor="middle"  dominant-baseline="middle" fill="black" > 224</text>
<circle cx="850" cy="239" r="4" fill="white" stroke="black" />
<line x1="850" y1="243" x2="850" y2="250" stroke="black" />
<line x1="846" y1="246" x2="854" y2="254" stroke="red" />
<line x1="846" y1="254" x2="854" y2="246" stroke="red" />
<text x="850" y="262" font-family="Verdana" font-size="8" text-anchor="middle"  dominant-baseline="middle" fill="black" > 235</text>
<circle cx="950" cy="239" r="4" fill="white" stroke="black" />
<line x1="950" y1="243" x2="950" y2="248" stroke="black" />
<line x1="946" y1="244" x2="954" y2="252" stroke="red" />
<line x1="946" y1="252" x2="954" y2="244" stroke="red" />
<text x="950" y="260" font-family="Verdana" font-size="8" text-anchor="middle"  dominant-baseline="middle" fill="black" > 233</text>
<text x="1050" y="7" font-family="Verdana" font-size="7" text-anchor="middle"  dominant-baseline="middle" fill="black" > C7</text>
<circle cx="1050" cy="15" r="4" fill="white" stroke="black" />
<line x1="1050" y1="19" x2="1050" y2="251" stroke="black" />
<line x1="1046" y1="247" x2="1054" y2="255" stroke="red" />
<line x1="1046" y1="255" x2="1054" y2="247" stroke="red" />
<text x="1050" y="263" font-family="Verdana" font-size="8" text-anchor="middle"  dominant-baseline="middle" fill="black" > 236</text>
<text x="1150" y="7" font-family="Verdana" font-size="7" text-anchor="middle"  dominant-baseline="middle" fill="black" > C8</text>
<circle cx="1150" cy="15" r="4" fill="white" stroke="black" />
<line x1="1150" y1="19" x2="1150" y2="86" stroke="black" />
<line x1="1146" y1="82" x2="1154" y2="90" stroke="red" />
<line x1="1146" y1="90" x2="1154" y2="82" stroke="red" />
<text x="1150" y="98" font-family="Verdana" font-size="8" text-anchor="middle"  dominant-baseline="middle" fill="black" > 71</text>
<text x="1300" y="7" font-family="Verdana" font-size="7" text-anchor="middle"  dominant-baseline="middle" fill="black" > C9</text>
<circle cx="1300" cy="15" r="4" fill="white" stroke="black" />
<line x1="1300" y1="19" x2="1300" y2="122" stroke="black" />
<line x1="1250" y1="122" x2="1350" y2="122" stroke="black" />
<text x="1325" y="114" font-family="Verdana" font-size="8" text-anchor="middle"  dominant-baseline="middle" fill="black" > 107</text>
<circle cx="1250" cy="122" r="4" fill="white" stroke="black" />
<circle cx="1350" cy="122" r="4" fill="white" stroke="black" />
<line x1="1250" y1="126" x2="1250" y2="180" stroke="black" />
<line x1="1250" y1="180" x2="1300" y2="199" stroke="black" />
<line x1="1350" y1="126" x2="1350" y2="180" stroke="black" />
<line x1="1350" y1="180" x2="1300" y2="199" stroke="black" />
<text x="1300" y="187" font-family="Verdana" font-size="8" text-anchor="middle"  dominant-baseline="middle" fill="black" > 184</text>
<circle cx="1300" cy="199" r="4" fill="white" stroke="black" />
<line x1="1300" y1="203" x2="1300" y2="217" stroke="black" />
<line x1="1296" y1="213" x2="1304" y2="221" stroke="red" />
<line x1="1296" y1="221" x2="1304" y2="213" stroke="red" />
<text x="1300" y="229" font-family="Verdana" font-size="8" text-anchor="middle"  dominant-baseline="middle" fill="black" > 202</text>
<text x="1500" y="7" font-family="Verdana" font-size="7" text-anchor="middle"  dominant-baseline="middle" fill="black" > C10</text>
<circle cx="1500" cy="15" r="4" fill="white" stroke="black" />
<line x1="1500" y1="19" x2="1500" y2="166" stroke="black" />
<line x1="1450" y1="166" x2="1550" y2="166" stroke="black" />
<text x="1525" y="158" font-family="Verdana" font-size="8" text-anchor="middle"  dominant-baseline="middle" fill="black" > 151</text>
<circle cx="1450" cy="166" r="4" fill="white" stroke="black" />
<line x1="1450" y1="170" x2="1450" y2="325" stroke="black" />
<line x1="1446" y1="321" x2="1454" y2="329" stroke="red" />
<line x1="1446" y1="329" x2="1454" y2="321" stroke="red" />
<text x="1450" y="337" font-family="Verdana" font-size="8" text-anchor="middle"  dominant-baseline="middle" fill="black" > 310</text>
<circle cx="1550" cy="166" r="4" fill="white" stroke="black" />
<line x1="1550" y1="170" x2="1550" y2="271" stroke="black" />
<line x1="1525" y1="271" x2="1575" y2="271" stroke="black" />
<text x="1562" y="263" font-family="Verdana" font-size="8" text-anchor="middle"  dominant-baseline="middle" fill="black" > 256</text>
<circle cx="1525" cy="271" r="4" fill="white" stroke="black" />
<line x1="1525" y1="275" x2="1525" y2="736" stroke="black" />
<circle cx="1525" cy="736" r="4" fill="white" stroke="black" />
<text x="1525" y="748" font-family="Verdana" font-size="8" text-anchor="middle"  dominant-baseline="middle" fill="black" > 721</text>
<circle cx="1575" cy="271" r="4" fill="white" stroke="black" />
<line x1="1575" y1="275" x2="1575" y2="386" stroke="black" />
<line x1="1562" y1="386" x2="1588" y2="386" stroke="black" />
<text x="1581" y="378" font-family="Verdana" font-size="8" text-anchor="middle"  dominant-baseline="middle" fill="black" > 371</text>
<circle cx="1562" cy="386" r="4" fill="white" stroke="black" />
<line x1="1562" y1="390" x2="1562" y2="736" stroke="black" />
<circle cx="1562" cy="736" r="4" fill="white" stroke="black" />
<text x="1562" y="748" font-family="Verdana" font-size="8" text-anchor="middle"  dominant-baseline="middle" fill="black" > 721</text>
<circle cx="1587" cy="386" r="4" fill="white" stroke="black" />
<line x1="1587" y1="390" x2="1587" y2="736" stroke="black" />
<circle cx="1587" cy="736" r="4" fill="white" stroke="black" />
<text x="1587" y="748" font-family="Verdana" font-size="8" text-anchor="middle"  dominant-baseline="middle" fill="black" > 721</text>
<text x="1700" y="7" font-family="Verdana" font-size="7" text-anchor="middle"  dominant-baseline="middle" fill="black" > C11</text>
<circle cx="1700" cy="15" r="4" fill="white" stroke="black" />
<line x1="1700" y1="19" x2="1700" y2="179" stroke="black" />
<line x1="1650" y1="179" x2="1750" y2="179" stroke="black" />
<text x="1725" y="171" font-family="Verdana" font-size="8" text-anchor="middle"  dominant-baseline="middle" fill="black" > 164</text>
<circle cx="1650" cy="179" r="4" fill="white" stroke="black" />
<line x1="1650" y1="183" x2="1650" y2="321" stroke="black" />
<line x1="1625" y1="321" x2="1675" y2="321" stroke="black" />
<text x="1662" y="313" font-family="Verdana" font-size="8" text-anchor="middle"  dominant-baseline="middle" fill="black" > 306</text>
<circle cx="1625" cy="321" r="4" fill="white" stroke="black" />
<line x1="1625" y1="325" x2="1625" y2="736" stroke="black" />
<circle cx="1625" cy="736" r="4" fill="white" stroke="black" />
<text x="1625" y="748" font-family="Verdana" font-size="8" text-anchor="middle"  dominant-baseline="middle" fill="black" > 721</text>
<circle cx="1675" cy="321" r="4" fill="white" stroke="black" />
<line x1="1675" y1="325" x2="1675" y2="736" stroke="black" />
<circle cx="1675" cy="736" r="4" fill="white" stroke="black" />
<text x="1675" y="748" font-family="Verdana" font-size="8" text-anchor="middle"  dominant-baseline="middle" fill="black" > 721</text>
<circle cx="1750" cy="179" r="4" fill="white" stroke="black" />
<line x1="1750" y1="183" x2="1750" y2="291" stroke="black" />
<line x1="1725" y1="291" x2="1775" y2="291" stroke="black" />
<text x="1762" y="283" font-family="Verdana" font-size="8" text-anchor="middle"  dominant-baseline="middle" fill="black" > 276</text>
<circle cx="1725" cy="291" r="4" fill="white" stroke="black" />
<line x1="1725" y1="295" x2="1725" y2="423" stroke="black" />
<line x1="1712" y1="423" x2="1738" y2="423" stroke="black" />
<text x="1731" y="415" font-family="Verdana" font-size="8" text-anchor="middle"  dominant-baseline="middle" fill="black" > 408</text>
<circle cx="1712" cy="423" r="4" fill="white" stroke="black" />
<line x1="1712" y1="427" x2="1712" y2="736" stroke="black" />
<circle cx="1712" cy="736" r="4" fill="white" stroke="black" />
<text x="1712" y="748" font-family="Verdana" font-size="8" text-anchor="middle"  dominant-baseline="middle" fill="black" > 721</text>
<circle cx="1737" cy="423" r="4" fill="white" stroke="black" />
<line x1="1737" y1="427" x2="1737" y2="674" stroke="black" />
<line x1="1731" y1="674" x2="1744" y2="674" stroke="black" />
<text x="1740" y="666" font-family="Verdana" font-size="8" text-anchor="middle"  dominant-baseline="middle" fill="black" > 659</text>
<circle cx="1731" cy="674" r="4" fill="white" stroke="black" />
<line x1="1731" y1="678" x2="1731" y2="736" stroke="black" />
<circle cx="1731" cy="736" r="4" fill="white" stroke="black" />
<text x="1731" y="748" font-family="Verdana" font-size="8" text-anchor="middle"  dominant-baseline="middle" fill="black" > 721</text>
<circle cx="1743" cy="674" r="4" fill="white" stroke="black" />
<line x1="1743" y1="678" x2="1743" y2="736" stroke="black" />
<circle cx="1743" cy="736" r="4" fill="white" stroke="black" />
<text x="1743" y="748" font-family="Verdana" font-size="8" text-anchor="middle"  dominant-baseline="middle" fill="black" > 721</text>
<circle cx="1775" cy="291" r="4" fill="white" stroke="black" />
<line x1="1775" y1="295" x2="1775" y2="427" stroke="black" />
<line x1="1762" y1="427" x2="1788" y2="427" stroke="black" />
<text x="1781" y="419" font-family="Verdana" font-size="8" text-anchor="middle"  dominant-baseline="middle" fill="black" > 412</text>
<circle cx="1762" cy="427" r="4" fill="white" stroke="black" />
<circle cx="1787" cy="427" r="4" fill="white" stroke="black" />
<line x1="1762" y1="431" x2="1762" y2="445" stroke="black" />
<line x1="1762" y1="445" x2="1774" y2="450" stroke="black" />
<line x1="1787" y1="431" x2="1787" y2="445" stroke="black" />
<line x1="1787" y1="445" x2="1774" y2="450" stroke="black" />
<text x="1774" y="438" font-family="Verdana" font-size="8" text-anchor="middle"  dominant-baseline="middle" fill="black" > 435</text>
<circle cx="1774" cy="450" r="4" fill="white" stroke="black" />
<line x1="1774" y1="454" x2="1774" y2="615" stroke="black" />
<line x1="1766" y1="615" x2="1783" y2="615" stroke="black" />
<text x="1776" y="607" font-family="Verdana" font-size="8" text-anchor="middle"  dominant-baseline="middle" fill="black" > 600</text>
<circle cx="1766" cy="615" r="4" fill="white" stroke="black" />
<circle cx="1774" cy="615" r="4" fill="white" stroke="black" />
<line x1="1766" y1="619" x2="1766" y2="624" stroke="black" />
<line x1="1766" y1="624" x2="1770" y2="627" stroke="black" />
<line x1="1774" y1="619" x2="1774" y2="624" stroke="black" />
<line x1="1774" y1="624" x2="1770" y2="627" stroke="black" />
<text x="1770" y="615" font-family="Verdana" font-size="8" text-anchor="middle"  dominant-baseline="middle" fill="black" > 612</text>
<circle cx="1770" cy="627" r="4" fill="white" stroke="black" />
<circle cx="1782" cy="615" r="4" fill="white" stroke="black" />
<line x1="1770" y1="631" x2="1770" y2="642" stroke="black" />
<line x1="1770" y1="642" x2="1776" y2="646" stroke="black" />
<line x1="1782" y1="619" x2="1782" y2="642" stroke="black" />
<line x1="1782" y1="642" x2="1776" y2="646" stroke="black" />
<text x="1776" y="634" font-family="Verdana" font-size="8" text-anchor="middle"  dominant-baseline="middle" fill="black" > 631</text>
<circle cx="1776" cy="646" r="4" fill="white" stroke="black" />
<line x1="1776" y1="650" x2="1776" y2="689" stroke="black" />
<line x1="1772" y1="685" x2="1780" y2="693" stroke="red" />
<line x1="1772" y1="693" x2="1780" y2="685" stroke="red" />
<text x="1776" y="701" font-family="Verdana" font-size="8" text-anchor="middle"  dominant-baseline="middle" fill="black" > 674</text>
<text x="1900" y="7" font-family="Verdana" font-size="7" text-anchor="middle"  dominant-baseline="middle" fill="black" > C12</text>
<circle cx="1900" cy="15" r="4" fill="white" stroke="black" />
<line x1="1900" y1="19" x2="1900" y2="197" stroke="black" />
<line x1="1850" y1="197" x2="1950" y2="197" stroke="black" />
<text x="1925" y="189" font-family="Verdana" font-size="8" text-anchor="middle"  dominant-baseline="middle" fill="black" > 182</text>
<circle cx="1850" cy="197" r="4" fill="white" stroke="black" />
<line x1="1850" y1="201" x2="1850" y2="387" stroke="black" />
<line x1="1846" y1="383" x2="1854" y2="391" stroke="red" />
<line x1="1846" y1="391" x2="1854" y2="383" stroke="red" />
<text x="1850" y="399" font-family="Verdana" font-size="8" text-anchor="middle"  dominant-baseline="middle" fill="black" > 372</text>
<circle cx="1950" cy="197" r="4" fill="white" stroke="black" />
<line x1="1950" y1="201" x2="1950" y2="319" stroke="black" />
<line x1="1925" y1="319" x2="1975" y2="319" stroke="black" />
<text x="1962" y="311" font-family="Verdana" font-size="8" text-anchor="middle"  dominant-baseline="middle" fill="black" > 304</text>
<circle cx="1925" cy="319" r="4" fill="white" stroke="black" />
<line x1="1925" y1="323" x2="1925" y2="465" stroke="black" />
<line x1="1921" y1="461" x2="1929" y2="469" stroke="red" />
<line x1="1921" y1="469" x2="1929" y2="461" stroke="red" />
<text x="1925" y="477" font-family="Verdana" font-size="8" text-anchor="middle"  dominant-baseline="middle" fill="black" > 450</text>
<circle cx="1975" cy="319" r="4" fill="white" stroke="black" />
<line x1="1975" y1="323" x2="1975" y2="469" stroke="black" />
<line x1="1971" y1="465" x2="1979" y2="473" stroke="red" />
<line x1="1971" y1="473" x2="1979" y2="465" stroke="red" />
<text x="1975" y="481" font-family="Verdana" font-size="8" text-anchor="middle"  dominant-baseline="middle" fill="black" > 454</text>
<text x="2100" y="7" font-family="Verdana" font-size="7" text-anchor="middle"  dominant-baseline="middle" fill="black" > C13</text>
<circle cx="2100" cy="15" r="4" fill="white" stroke="black" />
<line x1="2100" y1="19" x2="2100" y2="199" stroke="black" />
<line x1="2050" y1="199" x2="2150" y2="199" stroke="black" />
<text x="2125" y="191" font-family="Verdana" font-size="8" text-anchor="middle"  dominant-baseline="middle" fill="black" > 184</text>
<circle cx="2050" cy="199" r="4" fill="white" stroke="black" />
<line x1="2050" y1="203" x2="2050" y2="325" stroke="black" />
<line x1="2046" y1="321" x2="2054" y2="329" stroke="red" />
<line x1="2046" y1="329" x2="2054" y2="321" stroke="red" />
<text x="2050" y="337" font-family="Verdana" font-size="8" text-anchor="middle"  dominant-baseline="middle" fill="black" > 310</text>
<circle cx="2150" cy="199" r="4" fill="white" stroke="black" />
<line x1="2150" y1="203" x2="2150" y2="517" stroke="black" />
<line x1="2146" y1="513" x2="2154" y2="521" stroke="red" />
<line x1="2146" y1="521" x2="2154" y2="513" stroke="red" />
<text x="2150" y="529" font-family="Verdana" font-size="8" text-anchor="middle"  dominant-baseline="middle" fill="black" > 502</text>
<text x="2300" y="7" font-family="Verdana" font-size="7" text-anchor="middle"  dominant-baseline="middle" fill="black" > C14</text>
<circle cx="2300" cy="15" r="4" fill="white" stroke="black" />
<line x1="2300" y1="19" x2="2300" y2="182" stroke="black" />
<line x1="2250" y1="182" x2="2350" y2="182" stroke="black" />
<text x="2325" y="174" font-family="Verdana" font-size="8" text-anchor="middle"  dominant-baseline="middle" fill="black" > 167</text>
<circle cx="2250" cy="182" r="4" fill="white" stroke="black" />
<line x1="2250" y1="186" x2="2250" y2="736" stroke="black" />
<circle cx="2250" cy="736" r="4" fill="white" stroke="black" />
<text x="2250" y="748" font-family="Verdana" font-size="8" text-anchor="middle"  dominant-baseline="middle" fill="black" > 721</text>
<circle cx="2350" cy="182" r="4" fill="white" stroke="black" />
<line x1="2350" y1="186" x2="2350" y2="343" stroke="black" />
<line x1="2325" y1="343" x2="2375" y2="343" stroke="black" />
<text x="2362" y="335" font-family="Verdana" font-size="8" text-anchor="middle"  dominant-baseline="middle" fill="black" > 328</text>
<circle cx="2325" cy="343" r="4" fill="white" stroke="black" />
<line x1="2325" y1="347" x2="2325" y2="736" stroke="black" />
<circle cx="2325" cy="736" r="4" fill="white" stroke="black" />
<text x="2325" y="748" font-family="Verdana" font-size="8" text-anchor="middle"  dominant-baseline="middle" fill="black" > 721</text>
<circle cx="2375" cy="343" r="4" fill="white" stroke="black" />
<line x1="2375" y1="347" x2="2375" y2="479" stroke="black" />
<line x1="2362" y1="479" x2="2388" y2="479" stroke="black" />
<text x="2381" y="471" font-family="Verdana" font-size="8" text-anchor="middle"  dominant-baseline="middle" fill="black" > 464</text>
<circle cx="2362" cy="479" r="4" fill="white" stroke="black" />
<line x1="2362" y1="483" x2="2362" y2="607" stroke="black" />
<line x1="2356" y1="607" x2="2369" y2="607" stroke="black" />
<text x="2365" y="599" font-family="Verdana" font-size="8" text-anchor="middle"  dominant-baseline="middle" fill="black" > 592</text>
<circle cx="2356" cy="607" r="4" fill="white" stroke="black" />
<line x1="2356" y1="611" x2="2356" y2="736" stroke="black" />
<circle cx="2356" cy="736" r="4" fill="white" stroke="black" />
<text x="2356" y="748" font-family="Verdana" font-size="8" text-anchor="middle"  dominant-baseline="middle" fill="black" > 721</text>
<circle cx="2368" cy="607" r="4" fill="white" stroke="black" />
<line x1="2368" y1="611" x2="2368" y2="736" stroke="black" />
<circle cx="2368" cy="736" r="4" fill="white" stroke="black" />
<text x="2368" y="748" font-family="Verdana" font-size="8" text-anchor="middle"  dominant-baseline="middle" fill="black" > 721</text>
<circle cx="2387" cy="479" r="4" fill="white" stroke="black" />
<line x1="2387" y1="483" x2="2387" y2="609" stroke="black" />
<line x1="2381" y1="609" x2="2394" y2="609" stroke="black" />
<text x="2390" y="601" font-family="Verdana" font-size="8" text-anchor="middle"  dominant-baseline="middle" fill="black" > 594</text>
<circle cx="2381" cy="609" r="4" fill="white" stroke="black" />
<line x1="2381" y1="613" x2="2381" y2="736" stroke="black" />
<circle cx="2381" cy="736" r="4" fill="white" stroke="black" />
<text x="2381" y="748" font-family="Verdana" font-size="8" text-anchor="middle"  dominant-baseline="middle" fill="black" > 721</text>
<circle cx="2393" cy="609" r="4" fill="white" stroke="black" />
<line x1="2393" y1="613" x2="2393" y2="725" stroke="black" />
<line x1="2390" y1="725" x2="2396" y2="725" stroke="black" />
<text x="2394" y="717" font-family="Verdana" font-size="8" text-anchor="middle"  dominant-baseline="middle" fill="black" > 710</text>
<circle cx="2390" cy="725" r="4" fill="white" stroke="black" />
<line x1="2390" y1="729" x2="2390" y2="736" stroke="black" />
<circle cx="2390" cy="736" r="4" fill="white" stroke="black" />
<text x="2390" y="748" font-family="Verdana" font-size="8" text-anchor="middle"  dominant-baseline="middle" fill="black" > 721</text>
<circle cx="2396" cy="725" r="4" fill="white" stroke="black" />
<line x1="2396" y1="729" x2="2396" y2="736" stroke="black" />
<circle cx="2396" cy="736" r="4" fill="white" stroke="black" />
<text x="2396" y="748" font-family="Verdana" font-size="8" text-anchor="middle"  dominant-baseline="middle" fill="black" > 721</text>
<text x="2500" y="7" font-family="Verdana" font-size="7" text-anchor="middle"  dominant-baseline="middle" fill="black" > C15</text>
<circle cx="2500" cy="15" r="4" fill="white" stroke="black" />
<line x1="2500" y1="19" x2="2500" y2="157" stroke="black" />
<line x1="2450" y1="157" x2="2550" y2="157" stroke="black" />
<text x="2525" y="149" font-family="Verdana" font-size="8" text-anchor="middle"  dominant-baseline="middle" fill="black" > 142</text>
<circle cx="2450" cy="157" r="4" fill="white" stroke="black" />
<line x1="2450" y1="161" x2="2450" y2="736" stroke="black" />
<circle cx="2450" cy="736" r="4" fill="white" stroke="black" />
<text x="2450" y="748" font-family="Verdana" font-size="8" text-anchor="middle"  dominant-baseline="middle" fill="black" > 721</text>
<circle cx="2550" cy="157" r="4" fill="white" stroke="black" />
<line x1="2550" y1="161" x2="2550" y2="297" stroke="black" />
<line x1="2525" y1="297" x2="2575" y2="297" stroke="black" />
<text x="2562" y="289" font-family="Verdana" font-size="8" text-anchor="middle"  dominant-baseline="middle" fill="black" > 282</text>
<circle cx="2525" cy="297" r="4" fill="white" stroke="black" />
<line x1="2525" y1="301" x2="2525" y2="429" stroke="black" />
<line x1="2512" y1="429" x2="2538" y2="429" stroke="black" />
<text x="2531" y="421" font-family="Verdana" font-size="8" text-anchor="middle"  dominant-baseline="middle" fill="black" > 414</text>
<circle cx="2512" cy="429" r="4" fill="white" stroke="black" />
<line x1="2512" y1="433" x2="2512" y2="736" stroke="black" />
<circle cx="2512" cy="736" r="4" fill="white" stroke="black" />
<text x="2512" y="748" font-family="Verdana" font-size="8" text-anchor="middle"  dominant-baseline="middle" fill="black" > 721</text>
<circle cx="2537" cy="429" r="4" fill="white" stroke="black" />
<line x1="2537" y1="433" x2="2537" y2="736" stroke="black" />
<circle cx="2537" cy="736" r="4" fill="white" stroke="black" />
<text x="2537" y="748" font-family="Verdana" font-size="8" text-anchor="middle"  dominant-baseline="middle" fill="black" > 721</text>
<circle cx="2575" cy="297" r="4" fill="white" stroke="black" />
<line x1="2575" y1="301" x2="2575" y2="395" stroke="black" />
<line x1="2562" y1="395" x2="2588" y2="395" stroke="black" />
<text x="2581" y="387" font-family="Verdana" font-size="8" text-anchor="middle"  dominant-baseline="middle" fill="black" > 380</text>
<circle cx="2562" cy="395" r="4" fill="white" stroke="black" />
<line x1="2562" y1="399" x2="2562" y2="542" stroke="black" />
<line x1="2556" y1="542" x2="2569" y2="542" stroke="black" />
<text x="2565" y="534" font-family="Verdana" font-size="8" text-anchor="middle"  dominant-baseline="middle" fill="black" > 527</text>
<circle cx="2556" cy="542" r="4" fill="white" stroke="black" />
<line x1="2556" y1="546" x2="2556" y2="701" stroke="black" />
<line x1="2553" y1="701" x2="2559" y2="701" stroke="black" />
<text x="2557" y="693" font-family="Verdana" font-size="8" text-anchor="middle"  dominant-baseline="middle" fill="black" > 686</text>
<circle cx="2553" cy="701" r="4" fill="white" stroke="black" />
<line x1="2553" y1="705" x2="2553" y2="736" stroke="black" />
<circle cx="2553" cy="736" r="4" fill="white" stroke="black" />
<text x="2553" y="748" font-family="Verdana" font-size="8" text-anchor="middle"  dominant-baseline="middle" fill="black" > 721</text>
<circle cx="2559" cy="701" r="4" fill="white" stroke="black" />
<line x1="2559" y1="705" x2="2559" y2="736" stroke="black" />
<circle cx="2559" cy="736" r="4" fill="white" stroke="black" />
<text x="2559" y="748" font-family="Verdana" font-size="8" text-anchor="middle"  dominant-baseline="middle" fill="black" > 721</text>
<circle cx="2568" cy="542" r="4" fill="white" stroke="black" />
<line x1="2568" y1="546" x2="2568" y2="735" stroke="black" />
<line x1="2565" y1="735" x2="2571" y2="735" stroke="black" />
<text x="2569" y="727" font-family="Verdana" font-size="8" text-anchor="middle"  dominant-baseline="middle" fill="black" > 720</text>
<circle cx="2565" cy="735" r="4" fill="white" stroke="black" />
<line x1="2565" y1="739" x2="2565" y2="736" stroke="black" />
<circle cx="2565" cy="736" r="4" fill="white" stroke="black" />
<text x="2565" y="748" font-family="Verdana" font-size="8" text-anchor="middle"  dominant-baseline="middle" fill="black" > 721</text>
<circle cx="2571" cy="735" r="4" fill="white" stroke="black" />
<line x1="2571" y1="739" x2="2571" y2="736" stroke="black" />
<circle cx="2571" cy="736" r="4" fill="white" stroke="black" />
<text x="2571" y="748" font-family="Verdana" font-size="8" text-anchor="middle"  dominant-baseline="middle" fill="black" > 721</text>
<circle cx="2587" cy="395" r="4" fill="white" stroke="black" />
<line x1="2587" y1="399" x2="2587" y2="551" stroke="black" />
<line x1="2581" y1="551" x2="2594" y2="551" stroke="black" />
<text x="2590" y="543" font-family="Verdana" font-size="8" text-anchor="middle"  dominant-baseline="middle" fill="black" > 536</text>
<circle cx="2581" cy="551" r="4" fill="white" stroke="black" />
<line x1="2581" y1="555" x2="2581" y2="670" stroke="black" />
<line x1="2578" y1="670" x2="2584" y2="670" stroke="black" />
<text x="2582" y="662" font-family="Verdana" font-size="8" text-anchor="middle"  dominant-baseline="middle" fill="black" > 655</text>
<circle cx="2578" cy="670" r="4" fill="white" stroke="black" />
<line x1="2578" y1="674" x2="2578" y2="678" stroke="black" />
<line x1="2574" y1="674" x2="2582" y2="682" stroke="red" />
<line x1="2574" y1="682" x2="2582" y2="674" stroke="red" />
<text x="2578" y="690" font-family="Verdana" font-size="8" text-anchor="middle"  dominant-baseline="middle" fill="black" > 663</text>
<circle cx="2584" cy="670" r="4" fill="white" stroke="black" />
<line x1="2584" y1="674" x2="2584" y2="679" stroke="black" />
<line x1="2580" y1="675" x2="2588" y2="683" stroke="red" />
<line x1="2580" y1="683" x2="2588" y2="675" stroke="red" />
<text x="2584" y="691" font-family="Verdana" font-size="8" text-anchor="middle"  dominant-baseline="middle" fill="black" > 664</text>
<circle cx="2593" cy="551" r="4" fill="white" stroke="black" />
<line x1="2593" y1="555" x2="2593" y2="609" stroke="black" />
<line x1="2590" y1="609" x2="2596" y2="609" stroke="black" />
<text x="2594" y="601" font-family="Verdana" font-size="8" text-anchor="middle"  dominant-baseline="middle" fill="black" > 594</text>
<circle cx="2590" cy="609" r="4" fill="white" stroke="black" />
<line x1="2590" y1="613" x2="2590" y2="736" stroke="black" />
<circle cx="2590" cy="736" r="4" fill="white" stroke="black" />
<text x="2590" y="748" font-family="Verdana" font-size="8" text-anchor="middle"  dominant-baseline="middle" fill="black" > 721</text>
<circle cx="2596" cy="609" r="4" fill="white" stroke="black" />
<line x1="2596" y1="613" x2="2596" y2="736" stroke="black" />
<circle cx="2596" cy="736" r="4" fill="white" stroke="black" />
<text x="2596" y="748" font-family="Verdana" font-size="8" text-anchor="middle"  dominant-baseline="middle" fill="black" > 721</text>
</svg>
