<?xml version="1.0" encoding="utf-8"?>
<svg xmlns="http://www.w3.org/2000/svg" version="1.1" width="1250" height="750">
<rect width="1250" height="15" x="0" y="0" fill="white" />
<rect width="1250" height="15" x="0" y="735" fill="white" />
<rect width="25" height="750" x="0" y="0" fill="white" />
<rect width="25" height="750" x="1225" y="0" fill="white" />
<rect width="1210" height="144" x="25" y="15" fill="ghostwhite" />
<rect width="1210" height="144" x="25" y="159" fill="snow" />
<rect width="1210" height="144" x="25" y="303" fill="ghostwhite" />
<rect width="1210" height="144" x="25" y="447" fill="snow" />
<rect width="1210" height="144" x="25" y="591" fill="ghostwhite" />
<text x="12" y="87" font-family="Verdana" font-size="10" text-anchor="middle"  dominant-baseline="middle" fill="red" > D0</text>
<text x="12" y="231" font-family="Verdana" font-size="10" text-anchor="middle"  dominant-baseline="middle" fill="red" > D1</text>
<text x="12" y="375" font-family="Verdana" font-size="10" text-anchor="middle"  dominant-baseline="middle" fill="red" > D2</text>
<text x="12" y="519" font-family="Verdana" font-size="10" text-anchor="middle"  dominant-baseline="middle" fill="red" > D3</text>
<text x="12" y="663" font-family="Verdana" font-size="10" text-anchor="middle"  dominant-baseline="middle" fill="red" > D4</text>
<text x="12" y="20" font-family="Verdana" font-size="10" text-anchor="middle"  dominant-baseline="middle" fill="black" > 0</text>
<text x="12" y="164" font-family="Verdana" font-size="10" text-anchor="middle"  dominant-baseline="middle" fill="black" > 144</text>
<text x="12" y="308" font-family="Verdana" font-size="10" text-anchor="middle"  dominant-baseline="middle" fill="black" > 288</text>
<text x="12" y="452" font-family="Verdana" font-size="10" text-anchor="middle"  dominant-baseline="middle" fill="black" > 432</text>
<text x="12" y="596" font-family="Verdana" font-size="10" text-anchor="middle"  dominant-baseline="middle" fill="black" > 576</text>
<text x="12" y="740" font-family="Verdana" font-size="10" text-anchor="middle"  dominant-baseline="middle" fill="black" > 720</text>
<text x="100" y="7" font-family="Verdana" font-size="7" text-anchor="middle"  dominant-baseline="middle" fill="black" > C1</text>
<circle cx="100" cy="15" r="4" fill="white" stroke="black" />
<line x1="100" y1="19" x2="100" y2="161" stroke="black" />
<line x1="50" y1="161" x2="150" y2="161" stroke="black" />
<text x="125" y="153" font-family="Verdana" font-size="8" text-anchor="middle"  dominant-baseline="middle" fill="black" > 146</text>
<circle cx="50" cy="161" r="4" fill="white" stroke="black" />
<line x1="50" y1="165" x2="50" y2="736" stroke="black" />
<circle cx="50" cy="736" r="4" fill="white" stroke="black" />
<text x="50" y="748" font-family="Verdana" font-size="8" text-anchor="middle"  dominant-baseline="middle" fill="black" > 721</text>
<circle cx="150" cy="161" r="4" fill="white" stroke="black" />
<line x1="150" y1="165" x2="150" y2="351" stroke="black" />
<line x1="125" y1="351" x2="175" y2="351" stroke="black" />
<text x="162" y="343" font-family="Verdana" font-size="8" text-anchor="middle"  dominant-baseline="middle" fill="black" > 336</text>
<circle cx="125" cy="351" r="4" fill="white" stroke="black" />
<line x1="125" y1="355" x2="125" y2="664" stroke="black" />
<line x1="108" y1="664" x2="142" y2="664" stroke="black" />
<text x="129" y="656" font-family="Verdana" font-size="8" text-anchor="middle"  dominant-baseline="middle" fill="black" > 649</text>
<circle cx="108" cy="664" r="4" fill="white" stroke="black" />
<circle cx="124" cy="664" r="4" fill="white" stroke="black" />
<line x1="108" y1="668" x2="108" y2="673" stroke="black" />
<line x1="108" y1="673" x2="116" y2="675" stroke="black" />
<line x1="124" y1="668" x2="124" y2="673" stroke="black" />
<line x1="124" y1="673" x2="116" y2="675" stroke="black" />
<text x="116" y="663" font-family="Verdana" font-size="8" text-anchor="middle"  dominant-baseline="middle" fill="black" > 660</text>
<circle cx="116" cy="675" r="4" fill="white" stroke="black" />
<circle cx="140" cy="664" r="4" fill="white" stroke="black" />
<line x1="116" y1="679" x2="116" y2="686" stroke="black" />
<line x1="116" y1="686" x2="128" y2="689" stroke="black" />
<line x1="140" y1="668" x2="140" y2="686" stroke="black" />
<line x1="140" y1="686" x2="128" y2="689" stroke="black" />
<text x="128" y="677" font-family="Verdana" font-size="8" text-anchor="middle"  dominant-baseline="middle" fill="black" > 674</text>
<circle cx="128" cy="689" r="4" fill="white" stroke="black" />
<line x1="128" y1="693" x2="128" y2="736" stroke="black" />
<circle cx="128" cy="736" r="4" fill="white" stroke="black" />
<text x="128" y="748" font-family="Verdana" font-size="8" text-anchor="middle"  dominant-baseline="middle" fill="black" > 721</text>
<circle cx="175" cy="351" r="4" fill="white" stroke="black" />
<line x1="175" y1="355" x2="175" y2="715" stroke="black" />
<line x1="171" y1="711" x2="179" y2="719" stroke="red" />
<line x1="171" y1="719" x2="179" y2="711" stroke="red" />
<text x="175" y="727" font-family="Verdana" font-size="8" text-anchor="middle"  dominant-baseline="middle" fill="black" > 700</text>
<text x="300" y="7" font-family="Verdana" font-size="7" text-anchor="middle"  dominant-baseline="middle" fill="black" > C2</text>
<circle cx="300" cy="15" r="4" fill="white" stroke="black" />
<line x1="300" y1="19" x2="300" y2="159" stroke="black" />
<line x1="250" y1="159" x2="350" y2="159" stroke="black" />
<text x="325" y="151" font-family="Verdana" font-size="8" text-anchor="middle"  dominant-baseline="middle" fill="black" > 144</text>
<circle cx="250" cy="159" r="4" fill="white" stroke="black" />
<line x1="250" y1="163" x2="250" y2="403" stroke="black" />
<line x1="225" y1="403" x2="275" y2="403" stroke="black" />
<text x="262" y="395" font-family="Verdana" font-size="8" text-anchor="middle"  dominant-baseline="middle" fill="black" > 388</text>
<circle cx="225" cy="403" r="4" fill="white" stroke="black" />
<line x1="225" y1="407" x2="225" y2="736" stroke="black" />
<circle cx="225" cy="736" r="4" fill="white" stroke="black" />
<text x="225" y="748" font-family="Verdana" font-size="8" text-anchor="middle"  dominant-baseline="middle" fill="black" > 721</text>
<circle cx="275" cy="403" r="4" fill="white" stroke="black" />
<line x1="275" y1="407" x2="275" y2="573" stroke="black" />
<line x1="262" y1="573" x2="288" y2="573" stroke="black" />
<text x="281" y="565" font-family="Verdana" font-size="8" text-anchor="middle"  dominant-baseline="middle" fill="black" > 558</text>
<circle cx="262" cy="573" r="4" fill="white" stroke="black" />
<line x1="262" y1="577" x2="262" y2="736" stroke="black" />
<circle cx="262" cy="736" r="4" fill="white" stroke="black" />
<text x="262" y="748" font-family="Verdana" font-size="8" text-anchor="middle"  dominant-baseline="middle" fill="black" > 721</text>
<circle cx="287" cy="573" r="4" fill="white" stroke="black" />
<line x1="287" y1="577" x2="287" y2="723" stroke="black" />
<line x1="283" y1="719" x2="291" y2="727" stroke="red" />
<line x1="283" y1="727" x2="291" y2="719" stroke="red" />
<text x="287" y="735" font-family="Verdana" font-size="8" text-anchor="middle"  dominant-baseline="middle" fill="black" > 708</text>
<circle cx="350" cy="159" r="4" fill="white" stroke="black" />
<line x1="350" y1="163" x2="350" y2="383" stroke="black" />
<line x1="325" y1="383" x2="375" y2="383" stroke="black" />
<text x="362" y="375" font-family="Verdana" font-size="8" text-anchor="middle"  dominant-baseline="middle" fill="black" > 368</text>
<circle cx="325" cy="383" r="4" fill="white" stroke="black" />
<line x1="325" y1="387" x2="325" y2="552" stroke="black" />
<line x1="321" y1="548" x2="329" y2="556" stroke="red" />
<line x1="321" y1="556" x2="329" y2="548" stroke="red" />
<text x="325" y="564" font-family="Verdana" font-size="8" text-anchor="middle"  dominant-baseline="middle" fill="black" > 537</text>
<circle cx="375" cy="383" r="4" fill="white" stroke="black" />
<line x1="375" y1="387" x2="375" y2="552" stroke="black" />
<line x1="362" y1="552" x2="388" y2="552" stroke="black" />
<text x="381" y="544" font-family="Verdana" font-size="8" text-anchor="middle"  dominant-baseline="middle" fill="black" > 537</text>
<circle cx="362" cy="552" r="4" fill="white" stroke="black" />
<line x1="362" y1="556" x2="362" y2="736" stroke="black" />
<circle cx="362" cy="736" r="4" fill="white" stroke="black" />
<text x="362" y="748" font-family="Verdana" font-size="8" text-anchor="middle"  dominant-baseline="middle" fill="black" > 721</text>
<circle cx="387" cy="552" r="4" fill="white" stroke="black" />
<line x1="387" y1="556" x2="387" y2="736" stroke="black" />
<circle cx="387" cy="736" r="4" fill="white" stroke="black" />
<text x="387" y="748" font-family="Verdana" font-size="8" text-anchor="middle"  dominant-baseline="middle" fill="black" > 721</text>
<text x="500" y="7" font-family="Verdana" font-size="7" text-anchor="middle"  dominant-baseline="middle" fill="black" > C3</text>
<circle cx="500" cy="15" r="4" fill="white" stroke="black" />
<line x1="500" y1="19" x2="500" y2="147" stroke="black" />
<line x1="450" y1="147" x2="550" y2="147" stroke="black" />
<text x="525" y="139" font-family="Verdana" font-size="8" text-anchor="middle"  dominant-baseline="middle" fill="black" > 132</text>
<circle cx="450" cy="147" r="4" fill="white" stroke="black" />
<line x1="450" y1="151" x2="450" y2="347" stroke="black" />
<line x1="425" y1="347" x2="475" y2="347" stroke="black" />
<text x="462" y="339" font-family="Verdana" font-size="8" text-anchor="middle"  dominant-baseline="middle" fill="black" > 332</text>
<circle cx="425" cy="347" r="4" fill="white" stroke="black" />
<line x1="425" y1="351" x2="425" y2="455" stroke="black" />
<line x1="421" y1="451" x2="429" y2="459" stroke="red" />
<line x1="421" y1="459" x2="429" y2="451" stroke="red" />
<text x="425" y="467" font-family="Verdana" font-size="8" text-anchor="middle"  dominant-baseline="middle" fill="black" > 440</text>
<circle cx="475" cy="347" r="4" fill="white" stroke="black" />
<line x1="475" y1="351" x2="475" y2="511" stroke="black" />
<line x1="471" y1="507" x2="479" y2="515" stroke="red" />
<line x1="471" y1="515" x2="479" y2="507" stroke="red" />
<text x="475" y="523" font-family="Verdana" font-size="8" text-anchor="middle"  dominant-baseline="middle" fill="black" > 496</text>
<circle cx="550" cy="147" r="4" fill="white" stroke="black" />
<line x1="550" y1="151" x2="550" y2="373" stroke="black" />
<line x1="525" y1="373" x2="575" y2="373" stroke="black" />
<text x="562" y="365" font-family="Verdana" font-size="8" text-anchor="middle"  dominant-baseline="middle" fill="black" > 358</text>
<circle cx="525" cy="373" r="4" fill="white" stroke="black" />
<circle cx="575" cy="373" r="4" fill="white" stroke="black" />
<line x1="525" y1="377" x2="525" y2="471" stroke="black" />
<line x1="525" y1="471" x2="550" y2="503" stroke="black" />
<line x1="575" y1="377" x2="575" y2="471" stroke="black" />
<line x1="575" y1="471" x2="550" y2="503" stroke="black" />
<text x="550" y="491" font-family="Verdana" font-size="8" text-anchor="middle"  dominant-baseline="middle" fill="black" > 488</text>
<circle cx="550" cy="503" r="4" fill="white" stroke="black" />
<line x1="550" y1="507" x2="550" y2="736" stroke="black" />
<circle cx="550" cy="736" r="4" fill="white" stroke="black" />
<text x="550" y="748" font-family="Verdana" font-size="8" text-anchor="middle"  dominant-baseline="middle" fill="black" > 721</text>
<text x="700" y="7" font-family="Verdana" font-size="7" text-anchor="middle"  dominant-baseline="middle" fill="black" > C4</text>
<circle cx="700" cy="15" r="4" fill="white" stroke="black" />
<line x1="700" y1="19" x2="700" y2="134" stroke="black" />
<line x1="650" y1="134" x2="750" y2="134" stroke="black" />
<text x="725" y="126" font-family="Verdana" font-size="8" text-anchor="middle"  dominant-baseline="middle" fill="black" > 119</text>
<circle cx="650" cy="134" r="4" fill="white" stroke="black" />
<circle cx="750" cy="134" r="4" fill="white" stroke="black" />
<line x1="650" y1="138" x2="650" y2="233" stroke="black" />
<line x1="650" y1="233" x2="700" y2="266" stroke="black" />
<line x1="750" y1="138" x2="750" y2="233" stroke="black" />
<line x1="750" y1="233" x2="700" y2="266" stroke="black" />
<text x="700" y="254" font-family="Verdana" font-size="8" text-anchor="middle"  dominant-baseline="middle" fill="black" > 251</text>
<circle cx="700" cy="266" r="4" fill="white" stroke="black" />
<line x1="700" y1="270" x2="700" y2="508" stroke="black" />
<line x1="696" y1="504" x2="704" y2="512" stroke="red" />
<line x1="696" y1="512" x2="704" y2="504" stroke="red" />
<text x="700" y="520" font-family="Verdana" font-size="8" text-anchor="middle"  dominant-baseline="middle" fill="black" > 493</text>
<text x="900" y="7" font-family="Verdana" font-size="7" text-anchor="middle"  dominant-baseline="middle" fill="black" > C5</text>
<circle cx="900" cy="15" r="4" fill="white" stroke="black" />
<line x1="900" y1="19" x2="900" y2="142" stroke="black" />
<line x1="850" y1="142" x2="950" y2="142" stroke="black" />
<text x="925" y="134" font-family="Verdana" font-size="8" text-anchor="middle"  dominant-baseline="middle" fill="black" > 127</text>
<circle cx="850" cy="142" r="4" fill="white" stroke="black" />
<line x1="850" y1="146" x2="850" y2="372" stroke="black" />
<line x1="825" y1="372" x2="875" y2="372" stroke="black" />
<text x="862" y="364" font-family="Verdana" font-size="8" text-anchor="middle"  dominant-baseline="middle" fill="black" > 357</text>
<circle cx="825" cy="372" r="4" fill="white" stroke="black" />
<line x1="825" y1="376" x2="825" y2="679" stroke="black" />
<line x1="821" y1="675" x2="829" y2="683" stroke="red" />
<line x1="821" y1="683" x2="829" y2="675" stroke="red" />
<text x="825" y="691" font-family="Verdana" font-size="8" text-anchor="middle"  dominant-baseline="middle" fill="black" > 664</text>
<circle cx="875" cy="372" r="4" fill="white" stroke="black" />
<line x1="875" y1="376" x2="875" y2="736" stroke="black" />
<circle cx="875" cy="736" r="4" fill="white" stroke="black" />
<text x="875" y="748" font-family="Verdana" font-size="8" text-anchor="middle"  dominant-baseline="middle" fill="black" > 721</text>
<circle cx="950" cy="142" r="4" fill="white" stroke="black" />
<line x1="950" y1="146" x2="950" y2="367" stroke="black" />
<line x1="925" y1="367" x2="975" y2="367" stroke="black" />
<text x="962" y="359" font-family="Verdana" font-size="8" text-anchor="middle"  dominant-baseline="middle" fill="black" > 352</text>
<circle cx="925" cy="367" r="4" fill="white" stroke="black" />
<circle cx="975" cy="367" r="4" fill="white" stroke="black" />
<line x1="925" y1="371" x2="925" y2="539" stroke="black" />
<line x1="925" y1="539" x2="950" y2="596" stroke="black" />
<line x1="975" y1="371" x2="975" y2="539" stroke="black" />
<line x1="975" y1="539" x2="950" y2="596" stroke="black" />
<text x="950" y="584" font-family="Verdana" font-size="8" text-anchor="middle"  dominant-baseline="middle" fill="black" > 581</text>
<circle cx="950" cy="596" r="4" fill="white" stroke="black" />
<line x1="950" y1="600" x2="950" y2="678" stroke="black" />
<line x1="946" y1="674" x2="954" y2="682" stroke="red" />
<line x1="946" y1="682" x2="954" y2="674" stroke="red" />
<text x="950" y="690" font-family="Verdana" font-size="8" text-anchor="middle"  dominant-baseline="middle" fill="black" > 663</text>
<text x="1100" y="7" font-family="Verdana" font-size="7" text-anchor="middle"  dominant-baseline="middle" fill="black" > C6</text>
<circle cx="1100" cy="15" r="4" fill="white" stroke="black" />
<line x1="1100" y1="19" x2="1100" y2="154" stroke="black" />
<line x1="1050" y1="154" x2="1150" y2="154" stroke="black" />
<text x="1125" y="146" font-family="Verdana" font-size="8" text-anchor="middle"  dominant-baseline="middle" fill="black" > 139</text>
<circle cx="1050" cy="154" r="4" fill="white" stroke="black" />
<line x1="1050" y1="158" x2="1050" y2="336" stroke="black" />
<line x1="1025" y1="336" x2="1075" y2="336" stroke="black" />
<text x="1062" y="328" font-family="Verdana" font-size="8" text-anchor="middle"  dominant-baseline="middle" fill="black" > 321</text>
<circle cx="1025" cy="336" r="4" fill="white" stroke="black" />
<line x1="1025" y1="340" x2="1025" y2="459" stroke="black" />
<line x1="1021" y1="463" x2="1025" y2="455" stroke="blue" />
<line x1="1025" y1="463" x2="1029" y2="455" stroke="blue" />
<text x="1025" y="471" font-family="Verdana" font-size="8" text-anchor="middle"  dominant-baseline="middle" fill="black" > 444</text>
<circle cx="1075" cy="336" r="4" fill="white" stroke="black" />
<line x1="1075" y1="340" x2="1075" y2="496" stroke="black" />
<line x1="1062" y1="496" x2="1088" y2="496" stroke="black" />
<text x="1081" y="488" font-family="Verdana" font-size="8" text-anchor="middle"  dominant-baseline="middle" fill="black" > 481</text>
<circle cx="1062" cy="496" r="4" fill="white" stroke="black" />
<line x1="1062" y1="500" x2="1062" y2="684" stroke="black" />
<line x1="1058" y1="680" x2="1066" y2="688" stroke="red" />
<line x1="1058" y1="688" x2="1066" y2="680" stroke="red" />
<text x="1062" y="696" font-family="Verdana" font-size="8" text-anchor="middle"  dominant-baseline="middle" fill="black" > 669</text>
<circle cx="1087" cy="496" r="4" fill="white" stroke="black" />
<line x1="1087" y1="500" x2="1087" y2="522" stroke="black" />
<line x1="1083" y1="526" x2="1087" y2="518" stroke="blue" />
<line x1="1087" y1="526" x2="1091" y2="518" stroke="blue" />
<text x="1087" y="534" font-family="Verdana" font-size="8" text-anchor="middle"  dominant-baseline="middle" fill="black" > 507</text>
<circle cx="1150" cy="154" r="4" fill="white" stroke="black" />
<line x1="1150" y1="158" x2="1150" y2="324" stroke="black" />
<line x1="1125" y1="324" x2="1175" y2="324" stroke="black" />
<text x="1162" y="316" font-family="Verdana" font-size="8" text-anchor="middle"  dominant-baseline="middle" fill="black" > 309</text>
<circle cx="1125" cy="324" r="4" fill="white" stroke="black" />
<line x1="1125" y1="328" x2="1125" y2="476" stroke="black" />
<line x1="1112" y1="476" x2="1138" y2="476" stroke="black" />
<text x="1131" y="468" font-family="Verdana" font-size="8" text-anchor="middle"  dominant-baseline="middle" fill="black" > 461</text>
<circle cx="1112" cy="476" r="4" fill="white" stroke="black" />
<line x1="1112" y1="480" x2="1112" y2="736" stroke="black" />
<circle cx="1112" cy="736" r="4" fill="white" stroke="black" />
<text x="1112" y="748" font-family="Verdana" font-size="8" text-anchor="middle"  dominant-baseline="middle" fill="black" > 721</text>
<circle cx="1137" cy="476" r="4" fill="white" stroke="black" />
<line x1="1137" y1="480" x2="1137" y2="736" stroke="black" />
<circle cx="1137" cy="736" r="4" fill="white" stroke="black" />
<text x="1137" y="748" font-family="Verdana" font-size="8" text-anchor="middle"  dominant-baseline="middle" fill="black" > 721</text>
<circle cx="1175" cy="324" r="4" fill="white" stroke="black" />
<line x1="1175" y1="328" x2="1175" y2="480" stroke="black" />
<line x1="1162" y1="480" x2="1188" y2="480" stroke="black" />
<text x="1181" y="472" font-family="Verdana" font-size="8" text-anchor="middle"  dominant-baseline="middle" fill="black" > 465</text>
<circle cx="1162" cy="480" r="4" fill="white" stroke="black" />
<line x1="1162" y1="484" x2="1162" y2="675" stroke="black" />
<line x1="1158" y1="679" x2="1162" y2="671" stroke="blue" />
<line x1="1162" y1="679" x2="1166" y2="671" stroke="blue" />
<text x="1162" y="687" font-family="Verdana" font-size="8" text-anchor="middle"  dominant-baseline="middle" fill="black" > 660</text>
<circle cx="1187" cy="480" r="4" fill="white" stroke="black" />
<line x1="1187" y1="484" x2="1187" y2="663" stroke="black" />
<line x1="1183" y1="667" x2="1187" y2="659" stroke="blue" />
<line x1="1187" y1="667" x2="1191" y2="659" stroke="blue" />
<text x="1187" y="675" font-family="Verdana" font-size="8" text-anchor="middle"  dominant-baseline="middle" fill="black" > 648</text>
</svg>
