<?xml version="1.0" encoding="utf-8"?>
<svg xmlns="http://www.w3.org/2000/svg" version="1.1" width="1550" height="750">
<rect width="1550" height="15" x="0" y="0" fill="white" />
<rect width="1550" height="15" x="0" y="735" fill="white" />
<rect width="25" height="750" x="0" y="0" fill="white" />
<rect width="25" height="750" x="1525" y="0" fill="white" />
<rect width="1510" height="144" x="25" y="15" fill="ghostwhite" />
<rect width="1510" height="144" x="25" y="159" fill="snow" />
<rect width="1510" height="144" x="25" y="303" fill="ghostwhite" />
<rect width="1510" height="144" x="25" y="447" fill="snow" />
<rect width="1510" height="144" x="25" y="591" fill="ghostwhite" />
<text x="12" y="87" font-family="Verdana" font-size="10" text-anchor="middle"  dominant-baseline="middle" fill="red" > D0</text>
<text x="12" y="231" font-family="Verdana" font-size="10" text-anchor="middle"  dominant-baseline="middle" fill="red" > D1</text>
<text x="12" y="375" font-family="Verdana" font-size="10" text-anchor="middle"  dominant-baseline="middle" fill="red" > D2</text>
<text x="12" y="519" font-family="Verdana" font-size="10" text-anchor="middle"  dominant-baseline="middle" fill="red" > D3</text>
<text x="12" y="663" font-family="Verdana" font-size="10" text-anchor="middle"  dominant-baseline="middle" fill="red" > D4</text>
<text x="12" y="20" font-family="Verdana" font-size="10" text-anchor="middle"  dominant-baseline="middle" fill="black" > 0</text>
<text x="12" y="164" font-family="Verdana" font-size="10" text-anchor="middle"  dominant-baseline="middle" fill="black" > 144</text>
<text x="12" y="308" font-family="Verdana" font-size="10" text-anchor="middle"  dominant-baseline="middle" fill="black" > 288</text>
<text x="12" y="452" font-family="Verdana" font-size="10" text-anchor="middle"  dominant-baseline="middle" fill="black" > 432</text>
<text x="12" y="596" font-family="Verdana" font-size="10" text-anchor="middle"  dominant-baseline="middle" fill="black" > 576</text>
<text x="12" y="740" font-family="Verdana" font-size="10" text-anchor="middle"  dominant-baseline="middle" fill="black" > 720</text>
<text x="150" y="7" font-family="Verdana" font-size="7" text-anchor="middle"  dominant-baseline="middle" fill="black" > C1</text>
<circle cx="150" cy="15" r="4" fill="white" stroke="black" />
<line x1="150" y1="19" x2="150" y2="249" stroke="black" />
<line x1="50" y1="249" x2="250" y2="249" stroke="black" />
<text x="175" y="241" font-family="Verdana" font-size="8" text-anchor="middle"  dominant-baseline="middle" fill="black" > 234</text>
<circle cx="50" cy="249" r="4" fill="white" stroke="black" />
<circle cx="150" cy="249" r="4" fill="white" stroke="black" />
<line x1="50" y1="253" x2="50" y2="267" stroke="black" />
<line x1="50" y1="267" x2="100" y2="272" stroke="black" />
<line x1="150" y1="253" x2="150" y2="267" stroke="black" />
<line x1="150" y1="267" x2="100" y2="272" stroke="black" />
<text x="100" y="260" font-family="Verdana" font-size="8" text-anchor="middle"  dominant-baseline="middle" fill="black" > 257</text>
<circle cx="100" cy="272" r="4" fill="white" stroke="black" />
<line x1="100" y1="276" x2="100" y2="704" stroke="black" />
<line x1="96" y1="700" x2="104" y2="708" stroke="red" />
<line x1="96" y1="708" x2="104" y2="700" stroke="red" />
<text x="100" y="716" font-family="Verdana" font-size="8" text-anchor="middle"  dominant-baseline="middle" fill="black" > 689</text>
<circle cx="250" cy="249" r="4" fill="white" stroke="black" />
<line x1="250" y1="253" x2="250" y2="528" stroke="black" />
<line x1="246" y1="524" x2="254" y2="532" stroke="red" />
<line x1="246" y1="532" x2="254" y2="524" stroke="red" />
<text x="250" y="540" font-family="Verdana" font-size="8" text-anchor="middle"  dominant-baseline="middle" fill="black" > 513</text>
<text x="450" y="7" font-family="Verdana" font-size="7" text-anchor="middle"  dominant-baseline="middle" fill="black" > C2</text>
<circle cx="450" cy="15" r="4" fill="white" stroke="black" />
<line x1="450" y1="19" x2="450" y2="303" stroke="black" />
<line x1="350" y1="303" x2="550" y2="303" stroke="black" />
<text x="475" y="295" font-family="Verdana" font-size="8" text-anchor="middle"  dominant-baseline="middle" fill="black" > 288</text>
<circle cx="350" cy="303" r="4" fill="white" stroke="black" />
<line x1="350" y1="307" x2="350" y2="515" stroke="black" />
<line x1="346" y1="511" x2="354" y2="519" stroke="red" />
<line x1="346" y1="519" x2="354" y2="511" stroke="red" />
<text x="350" y="527" font-family="Verdana" font-size="8" text-anchor="middle"  dominant-baseline="middle" fill="black" > 500</text>
<circle cx="450" cy="303" r="4" fill="white" stroke="black" />
<line x1="450" y1="307" x2="450" y2="736" stroke="black" />
<circle cx="450" cy="736" r="4" fill="white" stroke="black" />
<text x="450" y="748" font-family="Verdana" font-size="8" text-anchor="middle"  dominant-baseline="middle" fill="black" > 721</text>
<circle cx="550" cy="303" r="4" fill="white" stroke="black" />
<line x1="550" y1="307" x2="550" y2="736" stroke="black" />
<circle cx="550" cy="736" r="4" fill="white" stroke="black" />
<text x="550" y="748" font-family="Verdana" font-size="8" text-anchor="middle"  dominant-baseline="middle" fill="black" > 721</text>
<text x="650" y="7" font-family="Verdana" font-size="7" text-anchor="middle"  dominant-baseline="middle" fill="black" > C3</text>
<circle cx="650" cy="15" r="4" fill="white" stroke="black" />
<line x1="650" y1="19" x2="650" y2="613" stroke="black" />
<line x1="646" y1="609" x2="654" y2="617" stroke="red" />
<line x1="646" y1="617" x2="654" y2="609" stroke="red" />
<text x="650" y="625" font-family="Verdana" font-size="8" text-anchor="middle"  dominant-baseline="middle" fill="black" > 598</text>
<text x="800" y="7" font-family="Verdana" font-size="7" text-anchor="middle"  dominant-baseline="middle" fill="black" > C4</text>
<circle cx="800" cy="15" r="4" fill="white" stroke="black" />
<line x1="800" y1="19" x2="800" y2="205" stroke="black" />
<line x1="750" y1="205" x2="850" y2="205" stroke="black" />
<text x="825" y="197" font-family="Verdana" font-size="8" text-anchor="middle"  dominant-baseline="middle" fill="black" > 190</text>
<circle cx="750" cy="205" r="4" fill="white" stroke="black" />
<circle cx="850" cy="205" r="4" fill="white" stroke="black" />
<line x1="750" y1="209" x2="750" y2="213" stroke="black" />
<line x1="750" y1="213" x2="800" y2="215" stroke="black" />
<line x1="850" y1="209" x2="850" y2="213" stroke="black" />
<line x1="850" y1="213" x2="800" y2="215" stroke="black" />
<text x="800" y="203" font-family="Verdana" font-size="8" text-anchor="middle"  dominant-baseline="middle" fill="black" > 200</text>
<circle cx="800" cy="215" r="4" fill="white" stroke="black" />
<line x1="800" y1="219" x2="800" y2="635" stroke="black" />
<line x1="796" y1="631" x2="804" y2="639" stroke="red" />
<line x1="796" y1="639" x2="804" y2="631" stroke="red" />
<text x="800" y="647" font-family="Verdana" font-size="8" text-anchor="middle"  dominant-baseline="middle" fill="black" > 620</text>
<text x="950" y="7" font-family="Verdana" font-size="7" text-anchor="middle"  dominant-baseline="middle" fill="black" > C5</text>
<circle cx="950" cy="15" r="4" fill="white" stroke="black" />
<line x1="950" y1="19" x2="950" y2="493" stroke="black" />
<line x1="946" y1="489" x2="954" y2="497" stroke="red" />
<line x1="946" y1="497" x2="954" y2="489" stroke="red" />
<text x="950" y="505" font-family="Verdana" font-size="8" text-anchor="middle"  dominant-baseline="middle" fill="black" > 478</text>
<text x="1150" y="7" font-family="Verdana" font-size="7" text-anchor="middle"  dominant-baseline="middle" fill="black" > C6</text>
<circle cx="1150" cy="15" r="4" fill="white" stroke="black" />
<line x1="1150" y1="19" x2="1150" y2="147" stroke="black" />
<line x1="1050" y1="147" x2="1250" y2="147" stroke="black" />
<text x="1175" y="139" font-family="Verdana" font-size="8" text-anchor="middle"  dominant-baseline="middle" fill="black" > 132</text>
<circle cx="1050" cy="147" r="4" fill="white" stroke="black" />
<line x1="1050" y1="151" x2="1050" y2="230" stroke="black" />
<line x1="1046" y1="234" x2="1050" y2="226" stroke="blue" />
<line x1="1050" y1="234" x2="1054" y2="226" stroke="blue" />
<text x="1050" y="242" font-family="Verdana" font-size="8" text-anchor="middle"  dominant-baseline="middle" fill="black" > 215</text>
<circle cx="1150" cy="147" r="4" fill="white" stroke="black" />
<line x1="1150" y1="151" x2="1150" y2="230" stroke="black" />
<line x1="1146" y1="234" x2="1150" y2="226" stroke="blue" />
<line x1="1150" y1="234" x2="1154" y2="226" stroke="blue" />
<text x="1150" y="242" font-family="Verdana" font-size="8" text-anchor="middle"  dominant-baseline="middle" fill="black" > 215</text>
<circle cx="1250" cy="147" r="4" fill="white" stroke="black" />
<line x1="1250" y1="151" x2="1250" y2="736" stroke="black" />
<circle cx="1250" cy="736" r="4" fill="white" stroke="black" />
<text x="1250" y="748" font-family="Verdana" font-size="8" text-anchor="middle"  dominant-baseline="middle" fill="black" > 721</text>
<text x="1400" y="7" font-family="Verdana" font-size="7" text-anchor="middle"  dominant-baseline="middle" fill="black" > C8</text>
<circle cx="1400" cy="15" r="4" fill="white" stroke="black" />
<line x1="1400" y1="19" x2="1400" y2="197" stroke="black" />
<line x1="1350" y1="197" x2="1450" y2="197" stroke="black" />
<text x="1425" y="189" font-family="Verdana" font-size="8" text-anchor="middle"  dominant-baseline="middle" fill="black" > 182</text>
<circle cx="1350" cy="197" r="4" fill="white" stroke="black" />
<line x1="1350" y1="201" x2="1350" y2="337" stroke="black" />
<line x1="1325" y1="337" x2="1375" y2="337" stroke="black" />
<text x="1362" y="329" font-family="Verdana" font-size="8" text-anchor="middle"  dominant-baseline="middle" fill="black" > 322</text>
<circle cx="1325" cy="337" r="4" fill="white" stroke="black" />
<line x1="1325" y1="341" x2="1325" y2="736" stroke="black" />
<circle cx="1325" cy="736" r="4" fill="white" stroke="black" />
<text x="1325" y="748" font-family="Verdana" font-size="8" text-anchor="middle"  dominant-baseline="middle" fill="black" > 721</text>
<circle cx="1375" cy="337" r="4" fill="white" stroke="black" />
<line x1="1375" y1="341" x2="1375" y2="464" stroke="black" />
<line x1="1358" y1="464" x2="1392" y2="464" stroke="black" />
<text x="1379" y="456" font-family="Verdana" font-size="8" text-anchor="middle"  dominant-baseline="middle" fill="black" > 449</text>
<circle cx="1358" cy="464" r="4" fill="white" stroke="black" />
<line x1="1358" y1="468" x2="1358" y2="736" stroke="black" />
<circle cx="1358" cy="736" r="4" fill="white" stroke="black" />
<text x="1358" y="748" font-family="Verdana" font-size="8" text-anchor="middle"  dominant-baseline="middle" fill="black" > 721</text>
<circle cx="1374" cy="464" r="4" fill="white" stroke="black" />
<line x1="1374" y1="468" x2="1374" y2="736" stroke="black" />
<circle cx="1374" cy="736" r="4" fill="white" stroke="black" />
<text x="1374" y="748" font-family="Verdana" font-size="8" text-anchor="middle"  dominant-baseline="middle" fill="black" > 721</text>
<circle cx="1390" cy="464" r="4" fill="white" stroke="black" />
<line x1="1390" y1="468" x2="1390" y2="736" stroke="black" />
<circle cx="1390" cy="736" r="4" fill="white" stroke="black" />
<text x="1390" y="748" font-family="Verdana" font-size="8" text-anchor="middle"  dominant-baseline="middle" fill="black" > 721</text>
<circle cx="1450" cy="197" r="4" fill="white" stroke="black" />
<line x1="1450" y1="201" x2="1450" y2="323" stroke="black" />
<line x1="1425" y1="323" x2="1475" y2="323" stroke="black" />
<text x="1462" y="315" font-family="Verdana" font-size="8" text-anchor="middle"  dominant-baseline="middle" fill="black" > 308</text>
<circle cx="1425" cy="323" r="4" fill="white" stroke="black" />
<line x1="1425" y1="327" x2="1425" y2="447" stroke="black" />
<line x1="1412" y1="447" x2="1438" y2="447" stroke="black" />
<text x="1431" y="439" font-family="Verdana" font-size="8" text-anchor="middle"  dominant-baseline="middle" fill="black" > 432</text>
<circle cx="1412" cy="447" r="4" fill="white" stroke="black" />
<line x1="1412" y1="451" x2="1412" y2="634" stroke="black" />
<line x1="1406" y1="634" x2="1419" y2="634" stroke="black" />
<text x="1415" y="626" font-family="Verdana" font-size="8" text-anchor="middle"  dominant-baseline="middle" fill="black" > 619</text>
<circle cx="1406" cy="634" r="4" fill="white" stroke="black" />
<line x1="1406" y1="638" x2="1406" y2="736" stroke="black" />
<circle cx="1406" cy="736" r="4" fill="white" stroke="black" />
<text x="1406" y="748" font-family="Verdana" font-size="8" text-anchor="middle"  dominant-baseline="middle" fill="black" > 721</text>
<circle cx="1418" cy="634" r="4" fill="white" stroke="black" />
<line x1="1418" y1="638" x2="1418" y2="736" stroke="black" />
<circle cx="1418" cy="736" r="4" fill="white" stroke="black" />
<text x="1418" y="748" font-family="Verdana" font-size="8" text-anchor="middle"  dominant-baseline="middle" fill="black" > 721</text>
<circle cx="1437" cy="447" r="4" fill="white" stroke="black" />
<line x1="1437" y1="451" x2="1437" y2="637" stroke="black" />
<line x1="1431" y1="637" x2="1444" y2="637" stroke="black" />
<text x="1440" y="629" font-family="Verdana" font-size="8" text-anchor="middle"  dominant-baseline="middle" fill="black" > 622</text>
<circle cx="1431" cy="637" r="4" fill="white" stroke="black" />
<line x1="1431" y1="641" x2="1431" y2="736" stroke="black" />
<circle cx="1431" cy="736" r="4" fill="white" stroke="black" />
<text x="1431" y="748" font-family="Verdana" font-size="8" text-anchor="middle"  dominant-baseline="middle" fill="black" > 721</text>
<circle cx="1443" cy="637" r="4" fill="white" stroke="black" />
<line x1="1443" y1="641" x2="1443" y2="736" stroke="black" />
<circle cx="1443" cy="736" r="4" fill="white" stroke="black" />
<text x="1443" y="748" font-family="Verdana" font-size="8" text-anchor="middle"  dominant-baseline="middle" fill="black" > 721</text>
<circle cx="1475" cy="323" r="4" fill="white" stroke="black" />
<line x1="1475" y1="327" x2="1475" y2="585" stroke="black" />
<line x1="1462" y1="585" x2="1488" y2="585" stroke="black" />
<text x="1481" y="577" font-family="Verdana" font-size="8" text-anchor="middle"  dominant-baseline="middle" fill="black" > 570</text>
<circle cx="1462" cy="585" r="4" fill="white" stroke="black" />
<line x1="1462" y1="589" x2="1462" y2="736" stroke="black" />
<circle cx="1462" cy="736" r="4" fill="white" stroke="black" />
<text x="1462" y="748" font-family="Verdana" font-size="8" text-anchor="middle"  dominant-baseline="middle" fill="black" > 721</text>
<circle cx="1487" cy="585" r="4" fill="white" stroke="black" />
<line x1="1487" y1="589" x2="1487" y2="736" stroke="black" />
<circle cx="1487" cy="736" r="4" fill="white" stroke="black" />
<text x="1487" y="748" font-family="Verdana" font-size="8" text-anchor="middle"  dominant-baseline="middle" fill="black" > 721</text>
</svg>
