<?xml version="1.0" encoding="utf-8"?>
<svg xmlns="http://www.w3.org/2000/svg" version="1.1" width="1350" height="750">
<rect width="1350" height="15" x="0" y="0" fill="white" />
<rect width="1350" height="15" x="0" y="735" fill="white" />
<rect width="25" height="750" x="0" y="0" fill="white" />
<rect width="25" height="750" x="1325" y="0" fill="white" />
<rect width="1310" height="144" x="25" y="15" fill="ghostwhite" />
<rect width="1310" height="144" x="25" y="159" fill="snow" />
<rect width="1310" height="144" x="25" y="303" fill="ghostwhite" />
<rect width="1310" height="144" x="25" y="447" fill="snow" />
<rect width="1310" height="144" x="25" y="591" fill="ghostwhite" />
<text x="12" y="87" font-family="Verdana" font-size="10" text-anchor="middle"  dominant-baseline="middle" fill="red" > D0</text>
<text x="12" y="231" font-family="Verdana" font-size="10" text-anchor="middle"  dominant-baseline="middle" fill="red" > D1</text>
<text x="12" y="375" font-family="Verdana" font-size="10" text-anchor="middle"  dominant-baseline="middle" fill="red" > D2</text>
<text x="12" y="519" font-family="Verdana" font-size="10" text-anchor="middle"  dominant-baseline="middle" fill="red" > D3</text>
<text x="12" y="663" font-family="Verdana" font-size="10" text-anchor="middle"  dominant-baseline="middle" fill="red" > D4</text>
<text x="12" y="20" font-family="Verdana" font-size="10" text-anchor="middle"  dominant-baseline="middle" fill="black" > 0</text>
<text x="12" y="164" font-family="Verdana" font-size="10" text-anchor="middle"  dominant-baseline="middle" fill="black" > 144</text>
<text x="12" y="308" font-family="Verdana" font-size="10" text-anchor="middle"  dominant-baseline="middle" fill="black" > 288</text>
<text x="12" y="452" font-family="Verdana" font-size="10" text-anchor="middle"  dominant-baseline="middle" fill="black" > 432</text>
<text x="12" y="596" font-family="Verdana" font-size="10" text-anchor="middle"  dominant-baseline="middle" fill="black" > 576</text>
<text x="12" y="740" font-family="Verdana" font-size="10" text-anchor="middle"  dominant-baseline="middle" fill="black" > 720</text>
<text x="100" y="7" font-family="Verdana" font-size="7" text-anchor="middle"  dominant-baseline="middle" fill="black" > C1</text>
<circle cx="100" cy="15" r="4" fill="white" stroke="black" />
<line x1="100" y1="19" x2="100" y2="148" stroke="black" />
<line x1="50" y1="148" x2="150" y2="148" stroke="black" />
<text x="125" y="140" font-family="Verdana" font-size="8" text-anchor="middle"  dominant-baseline="middle" fill="black" > 133</text>
<circle cx="50" cy="148" r="4" fill="white" stroke="black" />
<line x1="50" y1="152" x2="50" y2="316" stroke="black" />
<line x1="25" y1="316" x2="75" y2="316" stroke="black" />
<text x="62" y="308" font-family="Verdana" font-size="8" text-anchor="middle"  dominant-baseline="middle" fill="black" > 301</text>
<circle cx="25" cy="316" r="4" fill="white" stroke="black" />
<line x1="25" y1="320" x2="25" y2="674" stroke="black" />
<line x1="21" y1="670" x2="29" y2="678" stroke="red" />
<line x1="21" y1="678" x2="29" y2="670" stroke="red" />
<text x="25" y="686" font-family="Verdana" font-size="8" text-anchor="middle"  dominant-baseline="middle" fill="black" > 659</text>
<circle cx="75" cy="316" r="4" fill="white" stroke="black" />
<line x1="75" y1="320" x2="75" y2="736" stroke="black" />
<circle cx="75" cy="736" r="4" fill="white" stroke="black" />
<text x="75" y="748" font-family="Verdana" font-size="8" text-anchor="middle"  dominant-baseline="middle" fill="black" > 721</text>
<circle cx="150" cy="148" r="4" fill="white" stroke="black" />
<line x1="150" y1="152" x2="150" y2="322" stroke="black" />
<line x1="116" y1="322" x2="184" y2="322" stroke="black" />
<text x="158" y="314" font-family="Verdana" font-size="8" text-anchor="middle"  dominant-baseline="middle" fill="black" > 307</text>
<circle cx="116" cy="322" r="4" fill="white" stroke="black" />
<circle cx="149" cy="322" r="4" fill="white" stroke="black" />
<line x1="116" y1="326" x2="116" y2="362" stroke="black" />
<line x1="116" y1="362" x2="132" y2="375" stroke="black" />
<line x1="149" y1="326" x2="149" y2="362" stroke="black" />
<line x1="149" y1="362" x2="132" y2="375" stroke="black" />
<text x="132" y="363" font-family="Verdana" font-size="8" text-anchor="middle"  dominant-baseline="middle" fill="black" > 360</text>
<circle cx="132" cy="375" r="4" fill="white" stroke="black" />
<line x1="132" y1="379" x2="132" y2="550" stroke="black" />
<line x1="128" y1="546" x2="136" y2="554" stroke="red" />
<line x1="128" y1="554" x2="136" y2="546" stroke="red" />
<text x="132" y="562" font-family="Verdana" font-size="8" text-anchor="middle"  dominant-baseline="middle" fill="black" > 535</text>
<circle cx="182" cy="322" r="4" fill="white" stroke="black" />
<line x1="182" y1="326" x2="182" y2="624" stroke="black" />
<line x1="178" y1="620" x2="186" y2="628" stroke="red" />
<line x1="178" y1="628" x2="186" y2="620" stroke="red" />
<text x="182" y="636" font-family="Verdana" font-size="8" text-anchor="middle"  dominant-baseline="middle" fill="black" > 609</text>
<text x="300" y="7" font-family="Verdana" font-size="7" text-anchor="middle"  dominant-baseline="middle" fill="black" > C2</text>
<circle cx="300" cy="15" r="4" fill="white" stroke="black" />
<line x1="300" y1="19" x2="300" y2="190" stroke="black" />
<line x1="250" y1="190" x2="350" y2="190" stroke="black" />
<text x="325" y="182" font-family="Verdana" font-size="8" text-anchor="middle"  dominant-baseline="middle" fill="black" > 175</text>
<circle cx="250" cy="190" r="4" fill="white" stroke="black" />
<line x1="250" y1="194" x2="250" y2="360" stroke="black" />
<line x1="246" y1="356" x2="254" y2="364" stroke="red" />
<line x1="246" y1="364" x2="254" y2="356" stroke="red" />
<text x="250" y="372" font-family="Verdana" font-size="8" text-anchor="middle"  dominant-baseline="middle" fill="black" > 345</text>
<circle cx="350" cy="190" r="4" fill="white" stroke="black" />
<line x1="350" y1="194" x2="350" y2="646" stroke="black" />
<line x1="346" y1="642" x2="354" y2="650" stroke="red" />
<line x1="346" y1="650" x2="354" y2="642" stroke="red" />
<text x="350" y="658" font-family="Verdana" font-size="8" text-anchor="middle"  dominant-baseline="middle" fill="black" > 631</text>
<text x="450" y="7" font-family="Verdana" font-size="7" text-anchor="middle"  dominant-baseline="middle" fill="black" > C3</text>
<circle cx="450" cy="15" r="4" fill="white" stroke="black" />
<line x1="450" y1="19" x2="450" y2="457" stroke="black" />
<line x1="446" y1="453" x2="454" y2="461" stroke="red" />
<line x1="446" y1="461" x2="454" y2="453" stroke="red" />
<text x="450" y="469" font-family="Verdana" font-size="8" text-anchor="middle"  dominant-baseline="middle" fill="black" > 442</text>
<text x="550" y="7" font-family="Verdana" font-size="7" text-anchor="middle"  dominant-baseline="middle" fill="black" > C4</text>
<circle cx="550" cy="15" r="4" fill="white" stroke="black" />
<line x1="550" y1="19" x2="550" y2="618" stroke="black" />
<line x1="546" y1="622" x2="550" y2="614" stroke="blue" />
<line x1="550" y1="622" x2="554" y2="614" stroke="blue" />
<text x="550" y="630" font-family="Verdana" font-size="8" text-anchor="middle"  dominant-baseline="middle" fill="black" > 603</text>
<text x="700" y="7" font-family="Verdana" font-size="7" text-anchor="middle"  dominant-baseline="middle" fill="black" > C5</text>
<circle cx="700" cy="15" r="4" fill="white" stroke="black" />
<line x1="700" y1="19" x2="700" y2="166" stroke="black" />
<line x1="650" y1="166" x2="750" y2="166" stroke="black" />
<text x="725" y="158" font-family="Verdana" font-size="8" text-anchor="middle"  dominant-baseline="middle" fill="black" > 151</text>
<circle cx="650" cy="166" r="4" fill="white" stroke="black" />
<line x1="650" y1="170" x2="650" y2="171" stroke="black" />
<line x1="646" y1="175" x2="650" y2="167" stroke="blue" />
<line x1="650" y1="175" x2="654" y2="167" stroke="blue" />
<text x="650" y="183" font-family="Verdana" font-size="8" text-anchor="middle"  dominant-baseline="middle" fill="black" > 156</text>
<circle cx="750" cy="166" r="4" fill="white" stroke="black" />
<line x1="750" y1="170" x2="750" y2="247" stroke="black" />
<line x1="746" y1="251" x2="750" y2="243" stroke="blue" />
<line x1="750" y1="251" x2="754" y2="243" stroke="blue" />
<text x="750" y="259" font-family="Verdana" font-size="8" text-anchor="middle"  dominant-baseline="middle" fill="black" > 232</text>
<text x="900" y="7" font-family="Verdana" font-size="7" text-anchor="middle"  dominant-baseline="middle" fill="black" > C6</text>
<circle cx="900" cy="15" r="4" fill="white" stroke="black" />
<line x1="900" y1="19" x2="900" y2="168" stroke="black" />
<line x1="850" y1="168" x2="950" y2="168" stroke="black" />
<text x="925" y="160" font-family="Verdana" font-size="8" text-anchor="middle"  dominant-baseline="middle" fill="black" > 153</text>
<circle cx="850" cy="168" r="4" fill="white" stroke="black" />
<line x1="850" y1="172" x2="850" y2="342" stroke="black" />
<line x1="825" y1="342" x2="875" y2="342" stroke="black" />
<text x="862" y="334" font-family="Verdana" font-size="8" text-anchor="middle"  dominant-baseline="middle" fill="black" > 327</text>
<circle cx="825" cy="342" r="4" fill="white" stroke="black" />
<line x1="825" y1="346" x2="825" y2="736" stroke="black" />
<circle cx="825" cy="736" r="4" fill="white" stroke="black" />
<text x="825" y="748" font-family="Verdana" font-size="8" text-anchor="middle"  dominant-baseline="middle" fill="black" > 721</text>
<circle cx="875" cy="342" r="4" fill="white" stroke="black" />
<line x1="875" y1="346" x2="875" y2="416" stroke="black" />
<line x1="862" y1="416" x2="888" y2="416" stroke="black" />
<text x="881" y="408" font-family="Verdana" font-size="8" text-anchor="middle"  dominant-baseline="middle" fill="black" > 401</text>
<circle cx="862" cy="416" r="4" fill="white" stroke="black" />
<line x1="862" y1="420" x2="862" y2="736" stroke="black" />
<circle cx="862" cy="736" r="4" fill="white" stroke="black" />
<text x="862" y="748" font-family="Verdana" font-size="8" text-anchor="middle"  dominant-baseline="middle" fill="black" > 721</text>
<circle cx="887" cy="416" r="4" fill="white" stroke="black" />
<line x1="887" y1="420" x2="887" y2="445" stroke="black" />
<line x1="881" y1="445" x2="894" y2="445" stroke="black" />
<text x="890" y="437" font-family="Verdana" font-size="8" text-anchor="middle"  dominant-baseline="middle" fill="black" > 430</text>
<circle cx="881" cy="445" r="4" fill="white" stroke="black" />
<line x1="881" y1="449" x2="881" y2="736" stroke="black" />
<circle cx="881" cy="736" r="4" fill="white" stroke="black" />
<text x="881" y="748" font-family="Verdana" font-size="8" text-anchor="middle"  dominant-baseline="middle" fill="black" > 721</text>
<circle cx="893" cy="445" r="4" fill="white" stroke="black" />
<line x1="893" y1="449" x2="893" y2="736" stroke="black" />
<circle cx="893" cy="736" r="4" fill="white" stroke="black" />
<text x="893" y="748" font-family="Verdana" font-size="8" text-anchor="middle"  dominant-baseline="middle" fill="black" > 721</text>
<circle cx="950" cy="168" r="4" fill="white" stroke="black" />
<line x1="950" y1="172" x2="950" y2="403" stroke="black" />
<line x1="916" y1="403" x2="984" y2="403" stroke="black" />
<text x="958" y="395" font-family="Verdana" font-size="8" text-anchor="middle"  dominant-baseline="middle" fill="black" > 388</text>
<circle cx="916" cy="403" r="4" fill="white" stroke="black" />
<line x1="916" y1="407" x2="916" y2="736" stroke="black" />
<circle cx="916" cy="736" r="4" fill="white" stroke="black" />
<text x="916" y="748" font-family="Verdana" font-size="8" text-anchor="middle"  dominant-baseline="middle" fill="black" > 721</text>
<circle cx="949" cy="403" r="4" fill="white" stroke="black" />
<circle cx="982" cy="403" r="4" fill="white" stroke="black" />
<line x1="949" y1="407" x2="949" y2="450" stroke="black" />
<line x1="949" y1="450" x2="965" y2="465" stroke="black" />
<line x1="982" y1="407" x2="982" y2="450" stroke="black" />
<line x1="982" y1="450" x2="965" y2="465" stroke="black" />
<text x="965" y="453" font-family="Verdana" font-size="8" text-anchor="middle"  dominant-baseline="middle" fill="black" > 450</text>
<circle cx="965" cy="465" r="4" fill="white" stroke="black" />
<line x1="965" y1="469" x2="965" y2="510" stroke="black" />
<line x1="957" y1="510" x2="974" y2="510" stroke="black" />
<text x="969" y="502" font-family="Verdana" font-size="8" text-anchor="middle"  dominant-baseline="middle" fill="black" > 495</text>
<circle cx="957" cy="510" r="4" fill="white" stroke="black" />
<circle cx="973" cy="510" r="4" fill="white" stroke="black" />
<line x1="957" y1="514" x2="957" y2="642" stroke="black" />
<line x1="957" y1="642" x2="965" y2="685" stroke="black" />
<line x1="973" y1="514" x2="973" y2="642" stroke="black" />
<line x1="973" y1="642" x2="965" y2="685" stroke="black" />
<text x="965" y="673" font-family="Verdana" font-size="8" text-anchor="middle"  dominant-baseline="middle" fill="black" > 670</text>
<circle cx="965" cy="685" r="4" fill="white" stroke="black" />
<line x1="965" y1="689" x2="965" y2="736" stroke="black" />
<circle cx="965" cy="736" r="4" fill="white" stroke="black" />
<text x="965" y="748" font-family="Verdana" font-size="8" text-anchor="middle"  dominant-baseline="middle" fill="black" > 721</text>
<text x="1100" y="7" font-family="Verdana" font-size="7" text-anchor="middle"  dominant-baseline="middle" fill="black" > C7</text>
<circle cx="1100" cy="15" r="4" fill="white" stroke="black" />
<line x1="1100" y1="19" x2="1100" y2="124" stroke="black" />
<line x1="1050" y1="124" x2="1150" y2="124" stroke="black" />
<text x="1125" y="116" font-family="Verdana" font-size="8" text-anchor="middle"  dominant-baseline="middle" fill="black" > 109</text>
<circle cx="1050" cy="124" r="4" fill="white" stroke="black" />
<line x1="1050" y1="128" x2="1050" y2="266" stroke="black" />
<line x1="1025" y1="266" x2="1075" y2="266" stroke="black" />
<text x="1062" y="258" font-family="Verdana" font-size="8" text-anchor="middle"  dominant-baseline="middle" fill="black" > 251</text>
<circle cx="1025" cy="266" r="4" fill="white" stroke="black" />
<line x1="1025" y1="270" x2="1025" y2="430" stroke="black" />
<line x1="1008" y1="430" x2="1042" y2="430" stroke="black" />
<text x="1029" y="422" font-family="Verdana" font-size="8" text-anchor="middle"  dominant-baseline="middle" fill="black" > 415</text>
<circle cx="1008" cy="430" r="4" fill="white" stroke="black" />
<line x1="1008" y1="434" x2="1008" y2="455" stroke="black" />
<line x1="1004" y1="459" x2="1008" y2="451" stroke="blue" />
<line x1="1008" y1="459" x2="1012" y2="451" stroke="blue" />
<text x="1008" y="467" font-family="Verdana" font-size="8" text-anchor="middle"  dominant-baseline="middle" fill="black" > 440</text>
<circle cx="1024" cy="430" r="4" fill="white" stroke="black" />
<line x1="1024" y1="434" x2="1024" y2="455" stroke="black" />
<line x1="1020" y1="459" x2="1024" y2="451" stroke="blue" />
<line x1="1024" y1="459" x2="1028" y2="451" stroke="blue" />
<text x="1024" y="467" font-family="Verdana" font-size="8" text-anchor="middle"  dominant-baseline="middle" fill="black" > 440</text>
<circle cx="1040" cy="430" r="4" fill="white" stroke="black" />
<line x1="1040" y1="434" x2="1040" y2="455" stroke="black" />
<line x1="1036" y1="459" x2="1040" y2="451" stroke="blue" />
<line x1="1040" y1="459" x2="1044" y2="451" stroke="blue" />
<text x="1040" y="467" font-family="Verdana" font-size="8" text-anchor="middle"  dominant-baseline="middle" fill="black" > 440</text>
<circle cx="1075" cy="266" r="4" fill="white" stroke="black" />
<line x1="1075" y1="270" x2="1075" y2="449" stroke="black" />
<line x1="1062" y1="449" x2="1088" y2="449" stroke="black" />
<text x="1081" y="441" font-family="Verdana" font-size="8" text-anchor="middle"  dominant-baseline="middle" fill="black" > 434</text>
<circle cx="1062" cy="449" r="4" fill="white" stroke="black" />
<line x1="1062" y1="453" x2="1062" y2="736" stroke="black" />
<circle cx="1062" cy="736" r="4" fill="white" stroke="black" />
<text x="1062" y="748" font-family="Verdana" font-size="8" text-anchor="middle"  dominant-baseline="middle" fill="black" > 721</text>
<circle cx="1087" cy="449" r="4" fill="white" stroke="black" />
<line x1="1087" y1="453" x2="1087" y2="693" stroke="black" />
<line x1="1079" y1="693" x2="1096" y2="693" stroke="black" />
<text x="1089" y="685" font-family="Verdana" font-size="8" text-anchor="middle"  dominant-baseline="middle" fill="black" > 678</text>
<circle cx="1079" cy="693" r="4" fill="white" stroke="black" />
<line x1="1079" y1="697" x2="1079" y2="736" stroke="black" />
<circle cx="1079" cy="736" r="4" fill="white" stroke="black" />
<text x="1079" y="748" font-family="Verdana" font-size="8" text-anchor="middle"  dominant-baseline="middle" fill="black" > 721</text>
<circle cx="1087" cy="693" r="4" fill="white" stroke="black" />
<line x1="1087" y1="697" x2="1087" y2="736" stroke="black" />
<circle cx="1087" cy="736" r="4" fill="white" stroke="black" />
<text x="1087" y="748" font-family="Verdana" font-size="8" text-anchor="middle"  dominant-baseline="middle" fill="black" > 721</text>
<circle cx="1095" cy="693" r="4" fill="white" stroke="black" />
<line x1="1095" y1="697" x2="1095" y2="736" stroke="black" />
<circle cx="1095" cy="736" r="4" fill="white" stroke="black" />
<text x="1095" y="748" font-family="Verdana" font-size="8" text-anchor="middle"  dominant-baseline="middle" fill="black" > 721</text>
<circle cx="1150" cy="124" r="4" fill="white" stroke="black" />
<line x1="1150" y1="128" x2="1150" y2="315" stroke="black" />
<line x1="1116" y1="315" x2="1184" y2="315" stroke="black" />
<text x="1158" y="307" font-family="Verdana" font-size="8" text-anchor="middle"  dominant-baseline="middle" fill="black" > 300</text>
<circle cx="1116" cy="315" r="4" fill="white" stroke="black" />
<line x1="1116" y1="319" x2="1116" y2="736" stroke="black" />
<circle cx="1116" cy="736" r="4" fill="white" stroke="black" />
<text x="1116" y="748" font-family="Verdana" font-size="8" text-anchor="middle"  dominant-baseline="middle" fill="black" > 721</text>
<circle cx="1149" cy="315" r="4" fill="white" stroke="black" />
<line x1="1149" y1="319" x2="1149" y2="319" stroke="black" />
<line x1="1145" y1="323" x2="1149" y2="315" stroke="blue" />
<line x1="1149" y1="323" x2="1153" y2="315" stroke="blue" />
<text x="1149" y="331" font-family="Verdana" font-size="8" text-anchor="middle"  dominant-baseline="middle" fill="black" > 304</text>
<circle cx="1182" cy="315" r="4" fill="white" stroke="black" />
<line x1="1182" y1="319" x2="1182" y2="319" stroke="black" />
<line x1="1178" y1="323" x2="1182" y2="315" stroke="blue" />
<line x1="1182" y1="323" x2="1186" y2="315" stroke="blue" />
<text x="1182" y="331" font-family="Verdana" font-size="8" text-anchor="middle"  dominant-baseline="middle" fill="black" > 304</text>
<text x="1250" y="7" font-family="Verdana" font-size="7" text-anchor="middle"  dominant-baseline="middle" fill="black" > C8</text>
<circle cx="1250" cy="15" r="4" fill="white" stroke="black" />
<line x1="1250" y1="19" x2="1250" y2="29" stroke="black" />
<line x1="1246" y1="25" x2="1254" y2="33" stroke="red" />
<line x1="1246" y1="33" x2="1254" y2="25" stroke="red" />
<text x="1250" y="41" font-family="Verdana" font-size="8" text-anchor="middle"  dominant-baseline="middle" fill="black" > 14</text>
</svg>
