<?xml version="1.0" encoding="utf-8"?>
<svg xmlns="http://www.w3.org/2000/svg" version="1.1" width="1250" height="750">
<rect width="1250" height="15" x="0" y="0" fill="white" />
<rect width="1250" height="15" x="0" y="735" fill="white" />
<rect width="25" height="750" x="0" y="0" fill="white" />
<rect width="25" height="750" x="1225" y="0" fill="white" />
<rect width="1210" height="144" x="25" y="15" fill="ghostwhite" />
<rect width="1210" height="144" x="25" y="159" fill="snow" />
<rect width="1210" height="144" x="25" y="303" fill="ghostwhite" />
<rect width="1210" height="144" x="25" y="447" fill="snow" />
<rect width="1210" height="144" x="25" y="591" fill="ghostwhite" />
<text x="12" y="87" font-family="Verdana" font-size="10" text-anchor="middle"  dominant-baseline="middle" fill="red" > D0</text>
<text x="12" y="231" font-family="Verdana" font-size="10" text-anchor="middle"  dominant-baseline="middle" fill="red" > D1</text>
<text x="12" y="375" font-family="Verdana" font-size="10" text-anchor="middle"  dominant-baseline="middle" fill="red" > D2</text>
<text x="12" y="519" font-family="Verdana" font-size="10" text-anchor="middle"  dominant-baseline="middle" fill="red" > D3</text>
<text x="12" y="663" font-family="Verdana" font-size="10" text-anchor="middle"  dominant-baseline="middle" fill="red" > D4</text>
<text x="12" y="20" font-family="Verdana" font-size="10" text-anchor="middle"  dominant-baseline="middle" fill="black" > 0</text>
<text x="12" y="164" font-family="Verdana" font-size="10" text-anchor="middle"  dominant-baseline="middle" fill="black" > 144</text>
<text x="12" y="308" font-family="Verdana" font-size="10" text-anchor="middle"  dominant-baseline="middle" fill="black" > 288</text>
<text x="12" y="452" font-family="Verdana" font-size="10" text-anchor="middle"  dominant-baseline="middle" fill="black" > 432</text>
<text x="12" y="596" font-family="Verdana" font-size="10" text-anchor="middle"  dominant-baseline="middle" fill="black" > 576</text>
<text x="12" y="740" font-family="Verdana" font-size="10" text-anchor="middle"  dominant-baseline="middle" fill="black" > 720</text>
<text x="50" y="7" font-family="Verdana" font-size="7" text-anchor="middle"  dominant-baseline="middle" fill="black" > C1</text>
<circle cx="50" cy="15" r="4" fill="white" stroke="black" />
<line x1="50" y1="19" x2="50" y2="619" stroke="black" />
<line x1="46" y1="623" x2="50" y2="615" stroke="blue" />
<line x1="50" y1="623" x2="54" y2="615" stroke="blue" />
<text x="50" y="631" font-family="Verdana" font-size="8" text-anchor="middle"  dominant-baseline="middle" fill="black" > 604</text>
<text x="150" y="7" font-family="Verdana" font-size="7" text-anchor="middle"  dominant-baseline="middle" fill="black" > C2</text>
<circle cx="150" cy="15" r="4" fill="white" stroke="black" />
<line x1="150" y1="19" x2="150" y2="25" stroke="black" />
<line x1="146" y1="21" x2="154" y2="29" stroke="red" />
<line x1="146" y1="29" x2="154" y2="21" stroke="red" />
<text x="150" y="37" font-family="Verdana" font-size="8" text-anchor="middle"  dominant-baseline="middle" fill="black" > 10</text>
<text x="250" y="7" font-family="Verdana" font-size="7" text-anchor="middle"  dominant-baseline="middle" fill="black" > C3</text>
<circle cx="250" cy="15" r="4" fill="white" stroke="black" />
<line x1="250" y1="19" x2="250" y2="448" stroke="black" />
<line x1="246" y1="444" x2="254" y2="452" stroke="red" />
<line x1="246" y1="452" x2="254" y2="444" stroke="red" />
<text x="250" y="460" font-family="Verdana" font-size="8" text-anchor="middle"  dominant-baseline="middle" fill="black" > 433</text>
<text x="400" y="7" font-family="Verdana" font-size="7" text-anchor="middle"  dominant-baseline="middle" fill="black" > C4</text>
<circle cx="400" cy="15" r="4" fill="white" stroke="black" />
<line x1="400" y1="19" x2="400" y2="185" stroke="black" />
<line x1="350" y1="185" x2="450" y2="185" stroke="black" />
<text x="425" y="177" font-family="Verdana" font-size="8" text-anchor="middle"  dominant-baseline="middle" fill="black" > 170</text>
<circle cx="350" cy="185" r="4" fill="white" stroke="black" />
<line x1="350" y1="189" x2="350" y2="360" stroke="black" />
<line x1="346" y1="356" x2="354" y2="364" stroke="red" />
<line x1="346" y1="364" x2="354" y2="356" stroke="red" />
<text x="350" y="372" font-family="Verdana" font-size="8" text-anchor="middle"  dominant-baseline="middle" fill="black" > 345</text>
<circle cx="450" cy="185" r="4" fill="white" stroke="black" />
<line x1="450" y1="189" x2="450" y2="648" stroke="black" />
<line x1="446" y1="644" x2="454" y2="652" stroke="red" />
<line x1="446" y1="652" x2="454" y2="644" stroke="red" />
<text x="450" y="660" font-family="Verdana" font-size="8" text-anchor="middle"  dominant-baseline="middle" fill="black" > 633</text>
<text x="600" y="7" font-family="Verdana" font-size="7" text-anchor="middle"  dominant-baseline="middle" fill="black" > C5</text>
<circle cx="600" cy="15" r="4" fill="white" stroke="black" />
<line x1="600" y1="19" x2="600" y2="166" stroke="black" />
<line x1="550" y1="166" x2="650" y2="166" stroke="black" />
<text x="625" y="158" font-family="Verdana" font-size="8" text-anchor="middle"  dominant-baseline="middle" fill="black" > 151</text>
<circle cx="550" cy="166" r="4" fill="white" stroke="black" />
<line x1="550" y1="170" x2="550" y2="339" stroke="black" />
<line x1="525" y1="339" x2="575" y2="339" stroke="black" />
<text x="562" y="331" font-family="Verdana" font-size="8" text-anchor="middle"  dominant-baseline="middle" fill="black" > 324</text>
<circle cx="525" cy="339" r="4" fill="white" stroke="black" />
<line x1="525" y1="343" x2="525" y2="620" stroke="black" />
<line x1="512" y1="620" x2="538" y2="620" stroke="black" />
<text x="531" y="612" font-family="Verdana" font-size="8" text-anchor="middle"  dominant-baseline="middle" fill="black" > 605</text>
<circle cx="512" cy="620" r="4" fill="white" stroke="black" />
<line x1="512" y1="624" x2="512" y2="736" stroke="black" />
<circle cx="512" cy="736" r="4" fill="white" stroke="black" />
<text x="512" y="748" font-family="Verdana" font-size="8" text-anchor="middle"  dominant-baseline="middle" fill="black" > 721</text>
<circle cx="537" cy="620" r="4" fill="white" stroke="black" />
<line x1="537" y1="624" x2="537" y2="736" stroke="black" />
<circle cx="537" cy="736" r="4" fill="white" stroke="black" />
<text x="537" y="748" font-family="Verdana" font-size="8" text-anchor="middle"  dominant-baseline="middle" fill="black" > 721</text>
<circle cx="575" cy="339" r="4" fill="white" stroke="black" />
<line x1="575" y1="343" x2="575" y2="550" stroke="black" />
<line x1="562" y1="550" x2="588" y2="550" stroke="black" />
<text x="581" y="542" font-family="Verdana" font-size="8" text-anchor="middle"  dominant-baseline="middle" fill="black" > 535</text>
<circle cx="562" cy="550" r="4" fill="white" stroke="black" />
<circle cx="587" cy="550" r="4" fill="white" stroke="black" />
<line x1="562" y1="554" x2="562" y2="629" stroke="black" />
<line x1="562" y1="629" x2="574" y2="655" stroke="black" />
<line x1="587" y1="554" x2="587" y2="629" stroke="black" />
<line x1="587" y1="629" x2="574" y2="655" stroke="black" />
<text x="574" y="643" font-family="Verdana" font-size="8" text-anchor="middle"  dominant-baseline="middle" fill="black" > 640</text>
<circle cx="574" cy="655" r="4" fill="white" stroke="black" />
<line x1="574" y1="659" x2="574" y2="736" stroke="black" />
<circle cx="574" cy="736" r="4" fill="white" stroke="black" />
<text x="574" y="748" font-family="Verdana" font-size="8" text-anchor="middle"  dominant-baseline="middle" fill="black" > 721</text>
<circle cx="650" cy="166" r="4" fill="white" stroke="black" />
<line x1="650" y1="170" x2="650" y2="415" stroke="black" />
<line x1="625" y1="415" x2="675" y2="415" stroke="black" />
<text x="662" y="407" font-family="Verdana" font-size="8" text-anchor="middle"  dominant-baseline="middle" fill="black" > 400</text>
<circle cx="625" cy="415" r="4" fill="white" stroke="black" />
<line x1="625" y1="419" x2="625" y2="736" stroke="black" />
<circle cx="625" cy="736" r="4" fill="white" stroke="black" />
<text x="625" y="748" font-family="Verdana" font-size="8" text-anchor="middle"  dominant-baseline="middle" fill="black" > 721</text>
<circle cx="675" cy="415" r="4" fill="white" stroke="black" />
<line x1="675" y1="419" x2="675" y2="736" stroke="black" />
<circle cx="675" cy="736" r="4" fill="white" stroke="black" />
<text x="675" y="748" font-family="Verdana" font-size="8" text-anchor="middle"  dominant-baseline="middle" fill="black" > 721</text>
<text x="800" y="7" font-family="Verdana" font-size="7" text-anchor="middle"  dominant-baseline="middle" fill="black" > C6</text>
<circle cx="800" cy="15" r="4" fill="white" stroke="black" />
<line x1="800" y1="19" x2="800" y2="145" stroke="black" />
<line x1="750" y1="145" x2="850" y2="145" stroke="black" />
<text x="825" y="137" font-family="Verdana" font-size="8" text-anchor="middle"  dominant-baseline="middle" fill="black" > 130</text>
<circle cx="750" cy="145" r="4" fill="white" stroke="black" />
<line x1="750" y1="149" x2="750" y2="325" stroke="black" />
<line x1="725" y1="325" x2="775" y2="325" stroke="black" />
<text x="762" y="317" font-family="Verdana" font-size="8" text-anchor="middle"  dominant-baseline="middle" fill="black" > 310</text>
<circle cx="725" cy="325" r="4" fill="white" stroke="black" />
<line x1="725" y1="329" x2="725" y2="672" stroke="black" />
<line x1="721" y1="668" x2="729" y2="676" stroke="red" />
<line x1="721" y1="676" x2="729" y2="668" stroke="red" />
<text x="725" y="684" font-family="Verdana" font-size="8" text-anchor="middle"  dominant-baseline="middle" fill="black" > 657</text>
<circle cx="775" cy="325" r="4" fill="white" stroke="black" />
<line x1="775" y1="329" x2="775" y2="736" stroke="black" />
<circle cx="775" cy="736" r="4" fill="white" stroke="black" />
<text x="775" y="748" font-family="Verdana" font-size="8" text-anchor="middle"  dominant-baseline="middle" fill="black" > 721</text>
<circle cx="850" cy="145" r="4" fill="white" stroke="black" />
<line x1="850" y1="149" x2="850" y2="317" stroke="black" />
<line x1="825" y1="317" x2="875" y2="317" stroke="black" />
<text x="862" y="309" font-family="Verdana" font-size="8" text-anchor="middle"  dominant-baseline="middle" fill="black" > 302</text>
<circle cx="825" cy="317" r="4" fill="white" stroke="black" />
<line x1="825" y1="321" x2="825" y2="550" stroke="black" />
<line x1="821" y1="546" x2="829" y2="554" stroke="red" />
<line x1="821" y1="554" x2="829" y2="546" stroke="red" />
<text x="825" y="562" font-family="Verdana" font-size="8" text-anchor="middle"  dominant-baseline="middle" fill="black" > 535</text>
<circle cx="875" cy="317" r="4" fill="white" stroke="black" />
<line x1="875" y1="321" x2="875" y2="623" stroke="black" />
<line x1="871" y1="619" x2="879" y2="627" stroke="red" />
<line x1="871" y1="627" x2="879" y2="619" stroke="red" />
<text x="875" y="635" font-family="Verdana" font-size="8" text-anchor="middle"  dominant-baseline="middle" fill="black" > 608</text>
<circle cx="1050" cy="101" r="4" fill="white" stroke="black" />
<line x1="1050" y1="105" x2="1050" y2="360" stroke="black" />
<line x1="950" y1="360" x2="1150" y2="360" stroke="black" />
<text x="1075" y="352" font-family="Verdana" font-size="8" text-anchor="middle"  dominant-baseline="middle" fill="black" > 345</text>
<circle cx="950" cy="360" r="4" fill="white" stroke="black" />
<circle cx="1050" cy="360" r="4" fill="white" stroke="black" />
<line x1="950" y1="364" x2="950" y2="417" stroke="black" />
<line x1="950" y1="417" x2="1000" y2="435" stroke="black" />
<line x1="1050" y1="364" x2="1050" y2="417" stroke="black" />
<line x1="1050" y1="417" x2="1000" y2="435" stroke="black" />
<text x="1000" y="423" font-family="Verdana" font-size="8" text-anchor="middle"  dominant-baseline="middle" fill="black" > 420</text>
<circle cx="1000" cy="435" r="4" fill="white" stroke="black" />
<line x1="1000" y1="439" x2="1000" y2="582" stroke="black" />
<line x1="996" y1="578" x2="1004" y2="586" stroke="red" />
<line x1="996" y1="586" x2="1004" y2="578" stroke="red" />
<text x="1000" y="594" font-family="Verdana" font-size="8" text-anchor="middle"  dominant-baseline="middle" fill="black" > 567</text>
<circle cx="1150" cy="360" r="4" fill="white" stroke="black" />
<line x1="1150" y1="364" x2="1150" y2="736" stroke="black" />
<circle cx="1150" cy="736" r="4" fill="white" stroke="black" />
<text x="1150" y="748" font-family="Verdana" font-size="8" text-anchor="middle"  dominant-baseline="middle" fill="black" > 721</text>
</svg>
