<?xml version="1.0" encoding="utf-8"?>
<svg xmlns="http://www.w3.org/2000/svg" version="1.1" width="1450" height="750">
<rect width="1450" height="15" x="0" y="0" fill="white" />
<rect width="1450" height="15" x="0" y="735" fill="white" />
<rect width="25" height="750" x="0" y="0" fill="white" />
<rect width="25" height="750" x="1425" y="0" fill="white" />
<rect width="1410" height="144" x="25" y="15" fill="ghostwhite" />
<rect width="1410" height="144" x="25" y="159" fill="snow" />
<rect width="1410" height="144" x="25" y="303" fill="ghostwhite" />
<rect width="1410" height="144" x="25" y="447" fill="snow" />
<rect width="1410" height="144" x="25" y="591" fill="ghostwhite" />
<text x="12" y="87" font-family="Verdana" font-size="10" text-anchor="middle"  dominant-baseline="middle" fill="red" > D0</text>
<text x="12" y="231" font-family="Verdana" font-size="10" text-anchor="middle"  dominant-baseline="middle" fill="red" > D1</text>
<text x="12" y="375" font-family="Verdana" font-size="10" text-anchor="middle"  dominant-baseline="middle" fill="red" > D2</text>
<text x="12" y="519" font-family="Verdana" font-size="10" text-anchor="middle"  dominant-baseline="middle" fill="red" > D3</text>
<text x="12" y="663" font-family="Verdana" font-size="10" text-anchor="middle"  dominant-baseline="middle" fill="red" > D4</text>
<text x="12" y="20" font-family="Verdana" font-size="10" text-anchor="middle"  dominant-baseline="middle" fill="black" > 0</text>
<text x="12" y="164" font-family="Verdana" font-size="10" text-anchor="middle"  dominant-baseline="middle" fill="black" > 144</text>
<text x="12" y="308" font-family="Verdana" font-size="10" text-anchor="middle"  dominant-baseline="middle" fill="black" > 288</text>
<text x="12" y="452" font-family="Verdana" font-size="10" text-anchor="middle"  dominant-baseline="middle" fill="black" > 432</text>
<text x="12" y="596" font-family="Verdana" font-size="10" text-anchor="middle"  dominant-baseline="middle" fill="black" > 576</text>
<text x="12" y="740" font-family="Verdana" font-size="10" text-anchor="middle"  dominant-baseline="middle" fill="black" > 720</text>
<text x="200" y="7" font-family="Verdana" font-size="7" text-anchor="middle"  dominant-baseline="middle" fill="black" > C1</text>
<circle cx="200" cy="15" r="4" fill="white" stroke="black" />
<line x1="200" y1="19" x2="200" y2="325" stroke="black" />
<line x1="50" y1="325" x2="350" y2="325" stroke="black" />
<text x="225" y="317" font-family="Verdana" font-size="8" text-anchor="middle"  dominant-baseline="middle" fill="black" > 310</text>
<circle cx="50" cy="325" r="4" fill="white" stroke="black" />
<circle cx="150" cy="325" r="4" fill="white" stroke="black" />
<circle cx="250" cy="325" r="4" fill="white" stroke="black" />
<circle cx="350" cy="325" r="4" fill="white" stroke="black" />
<line x1="50" y1="329" x2="50" y2="400" stroke="black" />
<line x1="50" y1="400" x2="200" y2="425" stroke="black" />
<line x1="150" y1="329" x2="150" y2="400" stroke="black" />
<line x1="150" y1="400" x2="200" y2="425" stroke="black" />
<line x1="250" y1="329" x2="250" y2="400" stroke="black" />
<line x1="250" y1="400" x2="200" y2="425" stroke="black" />
<line x1="350" y1="329" x2="350" y2="400" stroke="black" />
<line x1="350" y1="400" x2="200" y2="425" stroke="black" />
<text x="200" y="413" font-family="Verdana" font-size="8" text-anchor="middle"  dominant-baseline="middle" fill="black" > 410</text>
<circle cx="200" cy="425" r="4" fill="white" stroke="black" />
<line x1="200" y1="429" x2="200" y2="635" stroke="black" />
<line x1="196" y1="631" x2="204" y2="639" stroke="red" />
<line x1="196" y1="639" x2="204" y2="631" stroke="red" />
<text x="200" y="647" font-family="Verdana" font-size="8" text-anchor="middle"  dominant-baseline="middle" fill="black" > 620</text>
<text x="450" y="7" font-family="Verdana" font-size="7" text-anchor="middle"  dominant-baseline="middle" fill="black" > C2</text>
<circle cx="450" cy="15" r="4" fill="white" stroke="black" />
<line x1="450" y1="19" x2="450" y2="482" stroke="black" />
<line x1="446" y1="478" x2="454" y2="486" stroke="red" />
<line x1="446" y1="486" x2="454" y2="478" stroke="red" />
<text x="450" y="494" font-family="Verdana" font-size="8" text-anchor="middle"  dominant-baseline="middle" fill="black" > 467</text>
<text x="600" y="7" font-family="Verdana" font-size="7" text-anchor="middle"  dominant-baseline="middle" fill="black" > C3</text>
<circle cx="600" cy="15" r="4" fill="white" stroke="black" />
<line x1="600" y1="19" x2="600" y2="640" stroke="black" />
<line x1="550" y1="640" x2="650" y2="640" stroke="black" />
<text x="625" y="632" font-family="Verdana" font-size="8" text-anchor="middle"  dominant-baseline="middle" fill="black" > 625</text>
<circle cx="550" cy="640" r="4" fill="white" stroke="black" />
<circle cx="650" cy="640" r="4" fill="white" stroke="black" />
<line x1="550" y1="644" x2="550" y2="667" stroke="black" />
<line x1="550" y1="667" x2="600" y2="675" stroke="black" />
<line x1="650" y1="644" x2="650" y2="667" stroke="black" />
<line x1="650" y1="667" x2="600" y2="675" stroke="black" />
<text x="600" y="663" font-family="Verdana" font-size="8" text-anchor="middle"  dominant-baseline="middle" fill="black" > 660</text>
<circle cx="600" cy="675" r="4" fill="white" stroke="black" />
<line x1="600" y1="679" x2="600" y2="736" stroke="black" />
<circle cx="600" cy="736" r="4" fill="white" stroke="black" />
<text x="600" y="748" font-family="Verdana" font-size="8" text-anchor="middle"  dominant-baseline="middle" fill="black" > 721</text>
<text x="800" y="7" font-family="Verdana" font-size="7" text-anchor="middle"  dominant-baseline="middle" fill="black" > C4</text>
<circle cx="800" cy="15" r="4" fill="white" stroke="black" />
<line x1="800" y1="19" x2="800" y2="185" stroke="black" />
<line x1="750" y1="185" x2="850" y2="185" stroke="black" />
<text x="825" y="177" font-family="Verdana" font-size="8" text-anchor="middle"  dominant-baseline="middle" fill="black" > 170</text>
<circle cx="750" cy="185" r="4" fill="white" stroke="black" />
<circle cx="850" cy="185" r="4" fill="white" stroke="black" />
<line x1="750" y1="189" x2="750" y2="253" stroke="black" />
<line x1="750" y1="253" x2="800" y2="275" stroke="black" />
<line x1="850" y1="189" x2="850" y2="253" stroke="black" />
<line x1="850" y1="253" x2="800" y2="275" stroke="black" />
<text x="800" y="263" font-family="Verdana" font-size="8" text-anchor="middle"  dominant-baseline="middle" fill="black" > 260</text>
<circle cx="800" cy="275" r="4" fill="white" stroke="black" />
<line x1="800" y1="279" x2="800" y2="440" stroke="black" />
<line x1="796" y1="436" x2="804" y2="444" stroke="red" />
<line x1="796" y1="444" x2="804" y2="436" stroke="red" />
<text x="800" y="452" font-family="Verdana" font-size="8" text-anchor="middle"  dominant-baseline="middle" fill="black" > 425</text>
<text x="1000" y="7" font-family="Verdana" font-size="7" text-anchor="middle"  dominant-baseline="middle" fill="black" > C5</text>
<circle cx="1000" cy="15" r="4" fill="white" stroke="black" />
<line x1="1000" y1="19" x2="1000" y2="255" stroke="black" />
<line x1="950" y1="255" x2="1050" y2="255" stroke="black" />
<text x="1025" y="247" font-family="Verdana" font-size="8" text-anchor="middle"  dominant-baseline="middle" fill="black" > 240</text>
<circle cx="950" cy="255" r="4" fill="white" stroke="black" />
<line x1="950" y1="259" x2="950" y2="610" stroke="black" />
<line x1="946" y1="606" x2="954" y2="614" stroke="red" />
<line x1="946" y1="614" x2="954" y2="606" stroke="red" />
<text x="950" y="622" font-family="Verdana" font-size="8" text-anchor="middle"  dominant-baseline="middle" fill="black" > 595</text>
<circle cx="1050" cy="255" r="4" fill="white" stroke="black" />
<line x1="1050" y1="259" x2="1050" y2="454" stroke="black" />
<line x1="1046" y1="458" x2="1050" y2="450" stroke="blue" />
<line x1="1050" y1="458" x2="1054" y2="450" stroke="blue" />
<text x="1050" y="466" font-family="Verdana" font-size="8" text-anchor="middle"  dominant-baseline="middle" fill="black" > 439</text>
<text x="1200" y="7" font-family="Verdana" font-size="7" text-anchor="middle"  dominant-baseline="middle" fill="black" > C6</text>
<circle cx="1200" cy="15" r="4" fill="white" stroke="black" />
<line x1="1200" y1="19" x2="1200" y2="172" stroke="black" />
<line x1="1150" y1="172" x2="1250" y2="172" stroke="black" />
<text x="1225" y="164" font-family="Verdana" font-size="8" text-anchor="middle"  dominant-baseline="middle" fill="black" > 157</text>
<circle cx="1150" cy="172" r="4" fill="white" stroke="black" />
<line x1="1150" y1="176" x2="1150" y2="273" stroke="black" />
<line x1="1146" y1="269" x2="1154" y2="277" stroke="red" />
<line x1="1146" y1="277" x2="1154" y2="269" stroke="red" />
<text x="1150" y="285" font-family="Verdana" font-size="8" text-anchor="middle"  dominant-baseline="middle" fill="black" > 258</text>
<circle cx="1250" cy="172" r="4" fill="white" stroke="black" />
<line x1="1250" y1="176" x2="1250" y2="273" stroke="black" />
<line x1="1246" y1="269" x2="1254" y2="277" stroke="red" />
<line x1="1246" y1="277" x2="1254" y2="269" stroke="red" />
<text x="1250" y="285" font-family="Verdana" font-size="8" text-anchor="middle"  dominant-baseline="middle" fill="black" > 258</text>
<text x="1350" y="7" font-family="Verdana" font-size="7" text-anchor="middle"  dominant-baseline="middle" fill="black" > C7</text>
<circle cx="1350" cy="15" r="4" fill="white" stroke="black" />
<line x1="1350" y1="19" x2="1350" y2="584" stroke="black" />
<line x1="1346" y1="580" x2="1354" y2="588" stroke="red" />
<line x1="1346" y1="588" x2="1354" y2="580" stroke="red" />
<text x="1350" y="596" font-family="Verdana" font-size="8" text-anchor="middle"  dominant-baseline="middle" fill="black" > 569</text>
</svg>
