<?xml version="1.0" encoding="utf-8"?>
<svg xmlns="http://www.w3.org/2000/svg" version="1.1" width="1250" height="750">
<rect width="1250" height="15" x="0" y="0" fill="white" />
<rect width="1250" height="15" x="0" y="735" fill="white" />
<rect width="25" height="750" x="0" y="0" fill="white" />
<rect width="25" height="750" x="1225" y="0" fill="white" />
<rect width="1210" height="144" x="25" y="15" fill="ghostwhite" />
<rect width="1210" height="144" x="25" y="159" fill="snow" />
<rect width="1210" height="144" x="25" y="303" fill="ghostwhite" />
<rect width="1210" height="144" x="25" y="447" fill="snow" />
<rect width="1210" height="144" x="25" y="591" fill="ghostwhite" />
<text x="12" y="87" font-family="Verdana" font-size="10" text-anchor="middle"  dominant-baseline="middle" fill="red" > D0</text>
<text x="12" y="231" font-family="Verdana" font-size="10" text-anchor="middle"  dominant-baseline="middle" fill="red" > D1</text>
<text x="12" y="375" font-family="Verdana" font-size="10" text-anchor="middle"  dominant-baseline="middle" fill="red" > D2</text>
<text x="12" y="519" font-family="Verdana" font-size="10" text-anchor="middle"  dominant-baseline="middle" fill="red" > D3</text>
<text x="12" y="663" font-family="Verdana" font-size="10" text-anchor="middle"  dominant-baseline="middle" fill="red" > D4</text>
<text x="12" y="20" font-family="Verdana" font-size="10" text-anchor="middle"  dominant-baseline="middle" fill="black" > 0</text>
<text x="12" y="164" font-family="Verdana" font-size="10" text-anchor="middle"  dominant-baseline="middle" fill="black" > 144</text>
<text x="12" y="308" font-family="Verdana" font-size="10" text-anchor="middle"  dominant-baseline="middle" fill="black" > 288</text>
<text x="12" y="452" font-family="Verdana" font-size="10" text-anchor="middle"  dominant-baseline="middle" fill="black" > 432</text>
<text x="12" y="596" font-family="Verdana" font-size="10" text-anchor="middle"  dominant-baseline="middle" fill="black" > 576</text>
<text x="12" y="740" font-family="Verdana" font-size="10" text-anchor="middle"  dominant-baseline="middle" fill="black" > 720</text>
<text x="100" y="7" font-family="Verdana" font-size="7" text-anchor="middle"  dominant-baseline="middle" fill="black" > C1</text>
<circle cx="100" cy="15" r="4" fill="white" stroke="black" />
<line x1="100" y1="19" x2="100" y2="433" stroke="black" />
<line x1="50" y1="433" x2="150" y2="433" stroke="black" />
<text x="125" y="425" font-family="Verdana" font-size="8" text-anchor="middle"  dominant-baseline="middle" fill="black" > 418</text>
<circle cx="50" cy="433" r="4" fill="white" stroke="black" />
<circle cx="150" cy="433" r="4" fill="white" stroke="black" />
<line x1="50" y1="437" x2="50" y2="457" stroke="black" />
<line x1="50" y1="457" x2="100" y2="465" stroke="black" />
<line x1="150" y1="437" x2="150" y2="457" stroke="black" />
<line x1="150" y1="457" x2="100" y2="465" stroke="black" />
<text x="100" y="453" font-family="Verdana" font-size="8" text-anchor="middle"  dominant-baseline="middle" fill="black" > 450</text>
<circle cx="100" cy="465" r="4" fill="white" stroke="black" />
<line x1="100" y1="469" x2="100" y2="587" stroke="black" />
<line x1="96" y1="583" x2="104" y2="591" stroke="red" />
<line x1="96" y1="591" x2="104" y2="583" stroke="red" />
<text x="100" y="599" font-family="Verdana" font-size="8" text-anchor="middle"  dominant-baseline="middle" fill="black" > 572</text>
<text x="300" y="7" font-family="Verdana" font-size="7" text-anchor="middle"  dominant-baseline="middle" fill="black" > C2</text>
<circle cx="300" cy="15" r="4" fill="white" stroke="black" />
<line x1="300" y1="19" x2="300" y2="184" stroke="black" />
<line x1="250" y1="184" x2="350" y2="184" stroke="black" />
<text x="325" y="176" font-family="Verdana" font-size="8" text-anchor="middle"  dominant-baseline="middle" fill="black" > 169</text>
<circle cx="250" cy="184" r="4" fill="white" stroke="black" />
<line x1="250" y1="188" x2="250" y2="333" stroke="black" />
<line x1="225" y1="333" x2="275" y2="333" stroke="black" />
<text x="262" y="325" font-family="Verdana" font-size="8" text-anchor="middle"  dominant-baseline="middle" fill="black" > 318</text>
<circle cx="225" cy="333" r="4" fill="white" stroke="black" />
<line x1="225" y1="337" x2="225" y2="636" stroke="black" />
<line x1="221" y1="640" x2="225" y2="632" stroke="blue" />
<line x1="225" y1="640" x2="229" y2="632" stroke="blue" />
<text x="225" y="648" font-family="Verdana" font-size="8" text-anchor="middle"  dominant-baseline="middle" fill="black" > 621</text>
<circle cx="275" cy="333" r="4" fill="white" stroke="black" />
<line x1="275" y1="337" x2="275" y2="459" stroke="black" />
<line x1="258" y1="459" x2="292" y2="459" stroke="black" />
<text x="279" y="451" font-family="Verdana" font-size="8" text-anchor="middle"  dominant-baseline="middle" fill="black" > 444</text>
<circle cx="258" cy="459" r="4" fill="white" stroke="black" />
<line x1="258" y1="463" x2="258" y2="637" stroke="black" />
<line x1="254" y1="641" x2="258" y2="633" stroke="blue" />
<line x1="258" y1="641" x2="262" y2="633" stroke="blue" />
<text x="258" y="649" font-family="Verdana" font-size="8" text-anchor="middle"  dominant-baseline="middle" fill="black" > 622</text>
<circle cx="274" cy="459" r="4" fill="white" stroke="black" />
<line x1="274" y1="463" x2="274" y2="637" stroke="black" />
<line x1="270" y1="641" x2="274" y2="633" stroke="blue" />
<line x1="274" y1="641" x2="278" y2="633" stroke="blue" />
<text x="274" y="649" font-family="Verdana" font-size="8" text-anchor="middle"  dominant-baseline="middle" fill="black" > 622</text>
<circle cx="290" cy="459" r="4" fill="white" stroke="black" />
<line x1="290" y1="463" x2="290" y2="637" stroke="black" />
<line x1="286" y1="641" x2="290" y2="633" stroke="blue" />
<line x1="290" y1="641" x2="294" y2="633" stroke="blue" />
<text x="290" y="649" font-family="Verdana" font-size="8" text-anchor="middle"  dominant-baseline="middle" fill="black" > 622</text>
<circle cx="350" cy="184" r="4" fill="white" stroke="black" />
<line x1="350" y1="188" x2="350" y2="316" stroke="black" />
<line x1="325" y1="316" x2="375" y2="316" stroke="black" />
<text x="362" y="308" font-family="Verdana" font-size="8" text-anchor="middle"  dominant-baseline="middle" fill="black" > 301</text>
<circle cx="325" cy="316" r="4" fill="white" stroke="black" />
<line x1="325" y1="320" x2="325" y2="630" stroke="black" />
<line x1="321" y1="634" x2="325" y2="626" stroke="blue" />
<line x1="325" y1="634" x2="329" y2="626" stroke="blue" />
<text x="325" y="642" font-family="Verdana" font-size="8" text-anchor="middle"  dominant-baseline="middle" fill="black" > 615</text>
<circle cx="375" cy="316" r="4" fill="white" stroke="black" />
<line x1="375" y1="320" x2="375" y2="673" stroke="black" />
<line x1="371" y1="669" x2="379" y2="677" stroke="red" />
<line x1="371" y1="677" x2="379" y2="669" stroke="red" />
<text x="375" y="685" font-family="Verdana" font-size="8" text-anchor="middle"  dominant-baseline="middle" fill="black" > 658</text>
<text x="550" y="7" font-family="Verdana" font-size="7" text-anchor="middle"  dominant-baseline="middle" fill="black" > C3</text>
<circle cx="550" cy="15" r="4" fill="white" stroke="black" />
<line x1="550" y1="19" x2="550" y2="345" stroke="black" />
<line x1="450" y1="345" x2="650" y2="345" stroke="black" />
<text x="575" y="337" font-family="Verdana" font-size="8" text-anchor="middle"  dominant-baseline="middle" fill="black" > 330</text>
<circle cx="450" cy="345" r="4" fill="white" stroke="black" />
<circle cx="550" cy="345" r="4" fill="white" stroke="black" />
<line x1="450" y1="349" x2="450" y2="354" stroke="black" />
<line x1="450" y1="354" x2="500" y2="356" stroke="black" />
<line x1="550" y1="349" x2="550" y2="354" stroke="black" />
<line x1="550" y1="354" x2="500" y2="356" stroke="black" />
<text x="500" y="344" font-family="Verdana" font-size="8" text-anchor="middle"  dominant-baseline="middle" fill="black" > 341</text>
<circle cx="500" cy="356" r="4" fill="white" stroke="black" />
<circle cx="650" cy="345" r="4" fill="white" stroke="black" />
<line x1="500" y1="360" x2="500" y2="409" stroke="black" />
<line x1="500" y1="409" x2="575" y2="426" stroke="black" />
<line x1="650" y1="349" x2="650" y2="409" stroke="black" />
<line x1="650" y1="409" x2="575" y2="426" stroke="black" />
<text x="575" y="414" font-family="Verdana" font-size="8" text-anchor="middle"  dominant-baseline="middle" fill="black" > 411</text>
<circle cx="575" cy="426" r="4" fill="white" stroke="black" />
<line x1="575" y1="430" x2="575" y2="736" stroke="black" />
<circle cx="575" cy="736" r="4" fill="white" stroke="black" />
<text x="575" y="748" font-family="Verdana" font-size="8" text-anchor="middle"  dominant-baseline="middle" fill="black" > 721</text>
<text x="750" y="7" font-family="Verdana" font-size="7" text-anchor="middle"  dominant-baseline="middle" fill="black" > C4</text>
<circle cx="750" cy="15" r="4" fill="white" stroke="black" />
<line x1="750" y1="19" x2="750" y2="736" stroke="black" />
<circle cx="750" cy="736" r="4" fill="white" stroke="black" />
<text x="750" y="748" font-family="Verdana" font-size="8" text-anchor="middle"  dominant-baseline="middle" fill="black" > 721</text>
<text x="850" y="7" font-family="Verdana" font-size="7" text-anchor="middle"  dominant-baseline="middle" fill="black" > C5</text>
<circle cx="850" cy="15" r="4" fill="white" stroke="black" />
<line x1="850" y1="19" x2="850" y2="736" stroke="black" />
<circle cx="850" cy="736" r="4" fill="white" stroke="black" />
<text x="850" y="748" font-family="Verdana" font-size="8" text-anchor="middle"  dominant-baseline="middle" fill="black" > 721</text>
<text x="950" y="7" font-family="Verdana" font-size="7" text-anchor="middle"  dominant-baseline="middle" fill="black" > C6</text>
<circle cx="950" cy="15" r="4" fill="white" stroke="black" />
<line x1="950" y1="19" x2="950" y2="359" stroke="black" />
<line x1="946" y1="355" x2="954" y2="363" stroke="red" />
<line x1="946" y1="363" x2="954" y2="355" stroke="red" />
<text x="950" y="371" font-family="Verdana" font-size="8" text-anchor="middle"  dominant-baseline="middle" fill="black" > 344</text>
<text x="1050" y="7" font-family="Verdana" font-size="7" text-anchor="middle"  dominant-baseline="middle" fill="black" > C7</text>
<circle cx="1050" cy="15" r="4" fill="white" stroke="black" />
<line x1="1050" y1="19" x2="1050" y2="602" stroke="black" />
<line x1="1046" y1="598" x2="1054" y2="606" stroke="red" />
<line x1="1046" y1="606" x2="1054" y2="598" stroke="red" />
<text x="1050" y="614" font-family="Verdana" font-size="8" text-anchor="middle"  dominant-baseline="middle" fill="black" > 587</text>
<text x="1150" y="7" font-family="Verdana" font-size="7" text-anchor="middle"  dominant-baseline="middle" fill="black" > C8</text>
<circle cx="1150" cy="15" r="4" fill="white" stroke="black" />
<line x1="1150" y1="19" x2="1150" y2="353" stroke="black" />
<line x1="1146" y1="357" x2="1150" y2="349" stroke="blue" />
<line x1="1150" y1="357" x2="1154" y2="349" stroke="blue" />
<text x="1150" y="365" font-family="Verdana" font-size="8" text-anchor="middle"  dominant-baseline="middle" fill="black" > 338</text>
</svg>
