<?xml version="1.0" encoding="utf-8"?>
<svg xmlns="http://www.w3.org/2000/svg" version="1.1" width="2450" height="750">
<rect width="2450" height="15" x="0" y="0" fill="white" />
<rect width="2450" height="15" x="0" y="735" fill="white" />
<rect width="25" height="750" x="0" y="0" fill="white" />
<rect width="25" height="750" x="2425" y="0" fill="white" />
<rect width="2410" height="144" x="25" y="15" fill="ghostwhite" />
<rect width="2410" height="144" x="25" y="159" fill="snow" />
<rect width="2410" height="144" x="25" y="303" fill="ghostwhite" />
<rect width="2410" height="144" x="25" y="447" fill="snow" />
<rect width="2410" height="144" x="25" y="591" fill="ghostwhite" />
<text x="12" y="87" font-family="Verdana" font-size="10" text-anchor="middle"  dominant-baseline="middle" fill="red" > D0</text>
<text x="12" y="231" font-family="Verdana" font-size="10" text-anchor="middle"  dominant-baseline="middle" fill="red" > D1</text>
<text x="12" y="375" font-family="Verdana" font-size="10" text-anchor="middle"  dominant-baseline="middle" fill="red" > D2</text>
<text x="12" y="519" font-family="Verdana" font-size="10" text-anchor="middle"  dominant-baseline="middle" fill="red" > D3</text>
<text x="12" y="663" font-family="Verdana" font-size="10" text-anchor="middle"  dominant-baseline="middle" fill="red" > D4</text>
<text x="12" y="20" font-family="Verdana" font-size="10" text-anchor="middle"  dominant-baseline="middle" fill="black" > 0</text>
<text x="12" y="164" font-family="Verdana" font-size="10" text-anchor="middle"  dominant-baseline="middle" fill="black" > 144</text>
<text x="12" y="308" font-family="Verdana" font-size="10" text-anchor="middle"  dominant-baseline="middle" fill="black" > 288</text>
<text x="12" y="452" font-family="Verdana" font-size="10" text-anchor="middle"  dominant-baseline="middle" fill="black" > 432</text>
<text x="12" y="596" font-family="Verdana" font-size="10" text-anchor="middle"  dominant-baseline="middle" fill="black" > 576</text>
<text x="12" y="740" font-family="Verdana" font-size="10" text-anchor="middle"  dominant-baseline="middle" fill="black" > 720</text>
<text x="250" y="7" font-family="Verdana" font-size="7" text-anchor="middle"  dominant-baseline="middle" fill="black" > C1</text>
<circle cx="250" cy="15" r="4" fill="white" stroke="black" />
<line x1="250" y1="19" x2="250" y2="652" stroke="black" />
<line x1="50" y1="652" x2="450" y2="652" stroke="black" />
<text x="275" y="644" font-family="Verdana" font-size="8" text-anchor="middle"  dominant-baseline="middle" fill="black" > 637</text>
<circle cx="50" cy="652" r="4" fill="white" stroke="black" />
<circle cx="150" cy="652" r="4" fill="white" stroke="black" />
<line x1="50" y1="656" x2="50" y2="670" stroke="black" />
<line x1="50" y1="670" x2="100" y2="675" stroke="black" />
<line x1="150" y1="656" x2="150" y2="670" stroke="black" />
<line x1="150" y1="670" x2="100" y2="675" stroke="black" />
<text x="100" y="663" font-family="Verdana" font-size="8" text-anchor="middle"  dominant-baseline="middle" fill="black" > 660</text>
<circle cx="100" cy="675" r="4" fill="white" stroke="black" />
<line x1="100" y1="679" x2="100" y2="736" stroke="black" />
<circle cx="100" cy="736" r="4" fill="white" stroke="black" />
<text x="100" y="748" font-family="Verdana" font-size="8" text-anchor="middle"  dominant-baseline="middle" fill="black" > 721</text>
<circle cx="250" cy="652" r="4" fill="white" stroke="black" />
<line x1="250" y1="656" x2="250" y2="736" stroke="black" />
<circle cx="250" cy="736" r="4" fill="white" stroke="black" />
<text x="250" y="748" font-family="Verdana" font-size="8" text-anchor="middle"  dominant-baseline="middle" fill="black" > 721</text>
<circle cx="350" cy="652" r="4" fill="white" stroke="black" />
<line x1="350" y1="656" x2="350" y2="674" stroke="black" />
<line x1="346" y1="678" x2="350" y2="670" stroke="blue" />
<line x1="350" y1="678" x2="354" y2="670" stroke="blue" />
<text x="350" y="686" font-family="Verdana" font-size="8" text-anchor="middle"  dominant-baseline="middle" fill="black" > 659</text>
<circle cx="450" cy="652" r="4" fill="white" stroke="black" />
<line x1="450" y1="656" x2="450" y2="736" stroke="black" />
<circle cx="450" cy="736" r="4" fill="white" stroke="black" />
<text x="450" y="748" font-family="Verdana" font-size="8" text-anchor="middle"  dominant-baseline="middle" fill="black" > 721</text>
<text x="650" y="7" font-family="Verdana" font-size="7" text-anchor="middle"  dominant-baseline="middle" fill="black" > C2</text>
<circle cx="650" cy="15" r="4" fill="white" stroke="black" />
<line x1="650" y1="19" x2="650" y2="195" stroke="black" />
<line x1="550" y1="195" x2="750" y2="195" stroke="black" />
<text x="675" y="187" font-family="Verdana" font-size="8" text-anchor="middle"  dominant-baseline="middle" fill="black" > 180</text>
<circle cx="550" cy="195" r="4" fill="white" stroke="black" />
<circle cx="650" cy="195" r="4" fill="white" stroke="black" />
<line x1="550" y1="199" x2="550" y2="206" stroke="black" />
<line x1="550" y1="206" x2="600" y2="209" stroke="black" />
<line x1="650" y1="199" x2="650" y2="206" stroke="black" />
<line x1="650" y1="206" x2="600" y2="209" stroke="black" />
<text x="600" y="197" font-family="Verdana" font-size="8" text-anchor="middle"  dominant-baseline="middle" fill="black" > 194</text>
<circle cx="600" cy="209" r="4" fill="white" stroke="black" />
<circle cx="750" cy="195" r="4" fill="white" stroke="black" />
<line x1="600" y1="213" x2="600" y2="274" stroke="black" />
<line x1="600" y1="274" x2="675" y2="295" stroke="black" />
<line x1="750" y1="199" x2="750" y2="274" stroke="black" />
<line x1="750" y1="274" x2="675" y2="295" stroke="black" />
<text x="675" y="283" font-family="Verdana" font-size="8" text-anchor="middle"  dominant-baseline="middle" fill="black" > 280</text>
<circle cx="675" cy="295" r="4" fill="white" stroke="black" />
<line x1="675" y1="299" x2="675" y2="385" stroke="black" />
<line x1="671" y1="381" x2="679" y2="389" stroke="red" />
<line x1="671" y1="389" x2="679" y2="381" stroke="red" />
<text x="675" y="397" font-family="Verdana" font-size="8" text-anchor="middle"  dominant-baseline="middle" fill="black" > 370</text>
<text x="950" y="7" font-family="Verdana" font-size="7" text-anchor="middle"  dominant-baseline="middle" fill="black" > C3</text>
<circle cx="950" cy="15" r="4" fill="white" stroke="black" />
<line x1="950" y1="19" x2="950" y2="265" stroke="black" />
<line x1="850" y1="265" x2="1050" y2="265" stroke="black" />
<text x="975" y="257" font-family="Verdana" font-size="8" text-anchor="middle"  dominant-baseline="middle" fill="black" > 250</text>
<circle cx="850" cy="265" r="4" fill="white" stroke="black" />
<circle cx="950" cy="265" r="4" fill="white" stroke="black" />
<line x1="850" y1="269" x2="850" y2="310" stroke="black" />
<line x1="850" y1="310" x2="900" y2="325" stroke="black" />
<line x1="950" y1="269" x2="950" y2="310" stroke="black" />
<line x1="950" y1="310" x2="900" y2="325" stroke="black" />
<text x="900" y="313" font-family="Verdana" font-size="8" text-anchor="middle"  dominant-baseline="middle" fill="black" > 310</text>
<circle cx="900" cy="325" r="4" fill="white" stroke="black" />
<circle cx="1050" cy="265" r="4" fill="white" stroke="black" />
<line x1="900" y1="329" x2="900" y2="378" stroke="black" />
<line x1="900" y1="378" x2="975" y2="395" stroke="black" />
<line x1="1050" y1="269" x2="1050" y2="378" stroke="black" />
<line x1="1050" y1="378" x2="975" y2="395" stroke="black" />
<text x="975" y="383" font-family="Verdana" font-size="8" text-anchor="middle"  dominant-baseline="middle" fill="black" > 380</text>
<circle cx="975" cy="395" r="4" fill="white" stroke="black" />
<line x1="975" y1="399" x2="975" y2="403" stroke="black" />
<line x1="971" y1="399" x2="979" y2="407" stroke="red" />
<line x1="971" y1="407" x2="979" y2="399" stroke="red" />
<text x="975" y="415" font-family="Verdana" font-size="8" text-anchor="middle"  dominant-baseline="middle" fill="black" > 388</text>
<text x="1150" y="7" font-family="Verdana" font-size="7" text-anchor="middle"  dominant-baseline="middle" fill="black" > C4</text>
<circle cx="1150" cy="15" r="4" fill="white" stroke="black" />
<line x1="1150" y1="19" x2="1150" y2="470" stroke="black" />
<line x1="1146" y1="474" x2="1150" y2="466" stroke="blue" />
<line x1="1150" y1="474" x2="1154" y2="466" stroke="blue" />
<text x="1150" y="482" font-family="Verdana" font-size="8" text-anchor="middle"  dominant-baseline="middle" fill="black" > 455</text>
<text x="1350" y="7" font-family="Verdana" font-size="7" text-anchor="middle"  dominant-baseline="middle" fill="black" > C5</text>
<circle cx="1350" cy="15" r="4" fill="white" stroke="black" />
<line x1="1350" y1="19" x2="1350" y2="285" stroke="black" />
<line x1="1250" y1="285" x2="1450" y2="285" stroke="black" />
<text x="1375" y="277" font-family="Verdana" font-size="8" text-anchor="middle"  dominant-baseline="middle" fill="black" > 270</text>
<circle cx="1250" cy="285" r="4" fill="white" stroke="black" />
<circle cx="1350" cy="285" r="4" fill="white" stroke="black" />
<circle cx="1450" cy="285" r="4" fill="white" stroke="black" />
<line x1="1250" y1="289" x2="1250" y2="300" stroke="black" />
<line x1="1250" y1="300" x2="1350" y2="305" stroke="black" />
<line x1="1350" y1="289" x2="1350" y2="300" stroke="black" />
<line x1="1350" y1="300" x2="1350" y2="305" stroke="black" />
<line x1="1450" y1="289" x2="1450" y2="300" stroke="black" />
<line x1="1450" y1="300" x2="1350" y2="305" stroke="black" />
<text x="1350" y="293" font-family="Verdana" font-size="8" text-anchor="middle"  dominant-baseline="middle" fill="black" > 290</text>
<circle cx="1350" cy="305" r="4" fill="white" stroke="black" />
<line x1="1350" y1="309" x2="1350" y2="736" stroke="black" />
<circle cx="1350" cy="736" r="4" fill="white" stroke="black" />
<text x="1350" y="748" font-family="Verdana" font-size="8" text-anchor="middle"  dominant-baseline="middle" fill="black" > 721</text>
<text x="1550" y="7" font-family="Verdana" font-size="7" text-anchor="middle"  dominant-baseline="middle" fill="black" > C6</text>
<circle cx="1550" cy="15" r="4" fill="white" stroke="black" />
<line x1="1550" y1="19" x2="1550" y2="535" stroke="black" />
<line x1="1546" y1="539" x2="1550" y2="531" stroke="blue" />
<line x1="1550" y1="539" x2="1554" y2="531" stroke="blue" />
<text x="1550" y="547" font-family="Verdana" font-size="8" text-anchor="middle"  dominant-baseline="middle" fill="black" > 520</text>
<text x="1750" y="7" font-family="Verdana" font-size="7" text-anchor="middle"  dominant-baseline="middle" fill="black" > C7</text>
<circle cx="1750" cy="15" r="4" fill="white" stroke="black" />
<line x1="1750" y1="19" x2="1750" y2="243" stroke="black" />
<line x1="1650" y1="243" x2="1850" y2="243" stroke="black" />
<text x="1775" y="235" font-family="Verdana" font-size="8" text-anchor="middle"  dominant-baseline="middle" fill="black" > 228</text>
<circle cx="1650" cy="243" r="4" fill="white" stroke="black" />
<line x1="1650" y1="247" x2="1650" y2="455" stroke="black" />
<line x1="1646" y1="459" x2="1650" y2="451" stroke="blue" />
<line x1="1650" y1="459" x2="1654" y2="451" stroke="blue" />
<text x="1650" y="467" font-family="Verdana" font-size="8" text-anchor="middle"  dominant-baseline="middle" fill="black" > 440</text>
<circle cx="1750" cy="243" r="4" fill="white" stroke="black" />
<circle cx="1850" cy="243" r="4" fill="white" stroke="black" />
<line x1="1750" y1="247" x2="1750" y2="275" stroke="black" />
<line x1="1750" y1="275" x2="1800" y2="285" stroke="black" />
<line x1="1850" y1="247" x2="1850" y2="275" stroke="black" />
<line x1="1850" y1="275" x2="1800" y2="285" stroke="black" />
<text x="1800" y="273" font-family="Verdana" font-size="8" text-anchor="middle"  dominant-baseline="middle" fill="black" > 270</text>
<circle cx="1800" cy="285" r="4" fill="white" stroke="black" />
<line x1="1800" y1="289" x2="1800" y2="535" stroke="black" />
<line x1="1796" y1="531" x2="1804" y2="539" stroke="red" />
<line x1="1796" y1="539" x2="1804" y2="531" stroke="red" />
<text x="1800" y="547" font-family="Verdana" font-size="8" text-anchor="middle"  dominant-baseline="middle" fill="black" > 520</text>
<text x="1950" y="7" font-family="Verdana" font-size="7" text-anchor="middle"  dominant-baseline="middle" fill="black" > C8</text>
<circle cx="1950" cy="15" r="4" fill="white" stroke="black" />
<line x1="1950" y1="19" x2="1950" y2="395" stroke="black" />
<line x1="1946" y1="391" x2="1954" y2="399" stroke="red" />
<line x1="1946" y1="399" x2="1954" y2="391" stroke="red" />
<text x="1950" y="407" font-family="Verdana" font-size="8" text-anchor="middle"  dominant-baseline="middle" fill="black" > 380</text>
<text x="2050" y="7" font-family="Verdana" font-size="7" text-anchor="middle"  dominant-baseline="middle" fill="black" > C9</text>
<circle cx="2050" cy="15" r="4" fill="white" stroke="black" />
<line x1="2050" y1="19" x2="2050" y2="595" stroke="black" />
<line x1="2046" y1="591" x2="2054" y2="599" stroke="red" />
<line x1="2046" y1="599" x2="2054" y2="591" stroke="red" />
<text x="2050" y="607" font-family="Verdana" font-size="8" text-anchor="middle"  dominant-baseline="middle" fill="black" > 580</text>
<text x="2250" y="7" font-family="Verdana" font-size="7" text-anchor="middle"  dominant-baseline="middle" fill="black" > C10</text>
<circle cx="2250" cy="15" r="4" fill="white" stroke="black" />
<line x1="2250" y1="19" x2="2250" y2="215" stroke="black" />
<line x1="2150" y1="215" x2="2350" y2="215" stroke="black" />
<text x="2275" y="207" font-family="Verdana" font-size="8" text-anchor="middle"  dominant-baseline="middle" fill="black" > 200</text>
<circle cx="2150" cy="215" r="4" fill="white" stroke="black" />
<line x1="2150" y1="219" x2="2150" y2="736" stroke="black" />
<circle cx="2150" cy="736" r="4" fill="white" stroke="black" />
<text x="2150" y="748" font-family="Verdana" font-size="8" text-anchor="middle"  dominant-baseline="middle" fill="black" > 721</text>
<circle cx="2250" cy="215" r="4" fill="white" stroke="black" />
<line x1="2250" y1="219" x2="2250" y2="453" stroke="black" />
<line x1="2225" y1="453" x2="2275" y2="453" stroke="black" />
<text x="2262" y="445" font-family="Verdana" font-size="8" text-anchor="middle"  dominant-baseline="middle" fill="black" > 438</text>
<circle cx="2225" cy="453" r="4" fill="white" stroke="black" />
<line x1="2225" y1="457" x2="2225" y2="474" stroke="black" />
<line x1="2221" y1="470" x2="2229" y2="478" stroke="red" />
<line x1="2221" y1="478" x2="2229" y2="470" stroke="red" />
<text x="2225" y="486" font-family="Verdana" font-size="8" text-anchor="middle"  dominant-baseline="middle" fill="black" > 459</text>
<circle cx="2275" cy="453" r="4" fill="white" stroke="black" />
<line x1="2275" y1="457" x2="2275" y2="475" stroke="black" />
<line x1="2271" y1="471" x2="2279" y2="479" stroke="red" />
<line x1="2271" y1="479" x2="2279" y2="471" stroke="red" />
<text x="2275" y="487" font-family="Verdana" font-size="8" text-anchor="middle"  dominant-baseline="middle" fill="black" > 460</text>
<circle cx="2350" cy="215" r="4" fill="white" stroke="black" />
<line x1="2350" y1="219" x2="2350" y2="542" stroke="black" />
<line x1="2316" y1="542" x2="2384" y2="542" stroke="black" />
<text x="2358" y="534" font-family="Verdana" font-size="8" text-anchor="middle"  dominant-baseline="middle" fill="black" > 527</text>
<circle cx="2316" cy="542" r="4" fill="white" stroke="black" />
<line x1="2316" y1="546" x2="2316" y2="736" stroke="black" />
<circle cx="2316" cy="736" r="4" fill="white" stroke="black" />
<text x="2316" y="748" font-family="Verdana" font-size="8" text-anchor="middle"  dominant-baseline="middle" fill="black" > 721</text>
<circle cx="2349" cy="542" r="4" fill="white" stroke="black" />
<line x1="2349" y1="546" x2="2349" y2="736" stroke="black" />
<circle cx="2349" cy="736" r="4" fill="white" stroke="black" />
<text x="2349" y="748" font-family="Verdana" font-size="8" text-anchor="middle"  dominant-baseline="middle" fill="black" > 721</text>
<circle cx="2382" cy="542" r="4" fill="white" stroke="black" />
<line x1="2382" y1="546" x2="2382" y2="574" stroke="black" />
<line x1="2378" y1="570" x2="2386" y2="578" stroke="red" />
<line x1="2378" y1="578" x2="2386" y2="570" stroke="red" />
<text x="2382" y="586" font-family="Verdana" font-size="8" text-anchor="middle"  dominant-baseline="middle" fill="black" > 559</text>
</svg>
