<?xml version="1.0" encoding="utf-8"?>
<svg xmlns="http://www.w3.org/2000/svg" version="1.1" width="2050" height="750">
<rect width="2050" height="15" x="0" y="0" fill="white" />
<rect width="2050" height="15" x="0" y="735" fill="white" />
<rect width="25" height="750" x="0" y="0" fill="white" />
<rect width="25" height="750" x="2025" y="0" fill="white" />
<rect width="2010" height="144" x="25" y="15" fill="ghostwhite" />
<rect width="2010" height="144" x="25" y="159" fill="snow" />
<rect width="2010" height="144" x="25" y="303" fill="ghostwhite" />
<rect width="2010" height="144" x="25" y="447" fill="snow" />
<rect width="2010" height="144" x="25" y="591" fill="ghostwhite" />
<text x="12" y="87" font-family="Verdana" font-size="10" text-anchor="middle"  dominant-baseline="middle" fill="red" > D0</text>
<text x="12" y="231" font-family="Verdana" font-size="10" text-anchor="middle"  dominant-baseline="middle" fill="red" > D1</text>
<text x="12" y="375" font-family="Verdana" font-size="10" text-anchor="middle"  dominant-baseline="middle" fill="red" > D2</text>
<text x="12" y="519" font-family="Verdana" font-size="10" text-anchor="middle"  dominant-baseline="middle" fill="red" > D3</text>
<text x="12" y="663" font-family="Verdana" font-size="10" text-anchor="middle"  dominant-baseline="middle" fill="red" > D4</text>
<text x="12" y="20" font-family="Verdana" font-size="10" text-anchor="middle"  dominant-baseline="middle" fill="black" > 0</text>
<text x="12" y="164" font-family="Verdana" font-size="10" text-anchor="middle"  dominant-baseline="middle" fill="black" > 144</text>
<text x="12" y="308" font-family="Verdana" font-size="10" text-anchor="middle"  dominant-baseline="middle" fill="black" > 288</text>
<text x="12" y="452" font-family="Verdana" font-size="10" text-anchor="middle"  dominant-baseline="middle" fill="black" > 432</text>
<text x="12" y="596" font-family="Verdana" font-size="10" text-anchor="middle"  dominant-baseline="middle" fill="black" > 576</text>
<text x="12" y="740" font-family="Verdana" font-size="10" text-anchor="middle"  dominant-baseline="middle" fill="black" > 720</text>
<text x="50" y="7" font-family="Verdana" font-size="7" text-anchor="middle"  dominant-baseline="middle" fill="black" > C1</text>
<circle cx="50" cy="15" r="4" fill="white" stroke="black" />
<line x1="50" y1="19" x2="50" y2="736" stroke="black" />
<circle cx="50" cy="736" r="4" fill="white" stroke="black" />
<text x="50" y="748" font-family="Verdana" font-size="8" text-anchor="middle"  dominant-baseline="middle" fill="black" > 721</text>
<text x="250" y="7" font-family="Verdana" font-size="7" text-anchor="middle"  dominant-baseline="middle" fill="black" > C2</text>
<circle cx="250" cy="15" r="4" fill="white" stroke="black" />
<line x1="250" y1="19" x2="250" y2="221" stroke="black" />
<line x1="150" y1="221" x2="350" y2="221" stroke="black" />
<text x="275" y="213" font-family="Verdana" font-size="8" text-anchor="middle"  dominant-baseline="middle" fill="black" > 206</text>
<circle cx="150" cy="221" r="4" fill="white" stroke="black" />
<circle cx="250" cy="221" r="4" fill="white" stroke="black" />
<line x1="150" y1="225" x2="150" y2="293" stroke="black" />
<line x1="150" y1="293" x2="200" y2="317" stroke="black" />
<line x1="250" y1="225" x2="250" y2="293" stroke="black" />
<line x1="250" y1="293" x2="200" y2="317" stroke="black" />
<text x="200" y="305" font-family="Verdana" font-size="8" text-anchor="middle"  dominant-baseline="middle" fill="black" > 302</text>
<circle cx="200" cy="317" r="4" fill="white" stroke="black" />
<line x1="200" y1="321" x2="200" y2="449" stroke="black" />
<line x1="166" y1="449" x2="234" y2="449" stroke="black" />
<text x="208" y="441" font-family="Verdana" font-size="8" text-anchor="middle"  dominant-baseline="middle" fill="black" > 434</text>
<circle cx="166" cy="449" r="4" fill="white" stroke="black" />
<line x1="166" y1="453" x2="166" y2="635" stroke="black" />
<line x1="162" y1="631" x2="170" y2="639" stroke="red" />
<line x1="162" y1="639" x2="170" y2="631" stroke="red" />
<text x="166" y="647" font-family="Verdana" font-size="8" text-anchor="middle"  dominant-baseline="middle" fill="black" > 620</text>
<circle cx="199" cy="449" r="4" fill="white" stroke="black" />
<line x1="199" y1="453" x2="199" y2="736" stroke="black" />
<circle cx="199" cy="736" r="4" fill="white" stroke="black" />
<text x="199" y="748" font-family="Verdana" font-size="8" text-anchor="middle"  dominant-baseline="middle" fill="black" > 721</text>
<circle cx="232" cy="449" r="4" fill="white" stroke="black" />
<line x1="232" y1="453" x2="232" y2="736" stroke="black" />
<circle cx="232" cy="736" r="4" fill="white" stroke="black" />
<text x="232" y="748" font-family="Verdana" font-size="8" text-anchor="middle"  dominant-baseline="middle" fill="black" > 721</text>
<circle cx="350" cy="221" r="4" fill="white" stroke="black" />
<line x1="350" y1="225" x2="350" y2="560" stroke="black" />
<line x1="346" y1="556" x2="354" y2="564" stroke="red" />
<line x1="346" y1="564" x2="354" y2="556" stroke="red" />
<text x="350" y="572" font-family="Verdana" font-size="8" text-anchor="middle"  dominant-baseline="middle" fill="black" > 545</text>
<text x="450" y="7" font-family="Verdana" font-size="7" text-anchor="middle"  dominant-baseline="middle" fill="black" > C3</text>
<circle cx="450" cy="15" r="4" fill="white" stroke="black" />
<line x1="450" y1="19" x2="450" y2="458" stroke="black" />
<line x1="446" y1="454" x2="454" y2="462" stroke="red" />
<line x1="446" y1="462" x2="454" y2="454" stroke="red" />
<text x="450" y="470" font-family="Verdana" font-size="8" text-anchor="middle"  dominant-baseline="middle" fill="black" > 443</text>
<text x="550" y="7" font-family="Verdana" font-size="7" text-anchor="middle"  dominant-baseline="middle" fill="black" > C4</text>
<circle cx="550" cy="15" r="4" fill="white" stroke="black" />
<line x1="550" y1="19" x2="550" y2="325" stroke="black" />
<line x1="546" y1="329" x2="550" y2="321" stroke="blue" />
<line x1="550" y1="329" x2="554" y2="321" stroke="blue" />
<text x="550" y="337" font-family="Verdana" font-size="8" text-anchor="middle"  dominant-baseline="middle" fill="black" > 310</text>
<text x="650" y="7" font-family="Verdana" font-size="7" text-anchor="middle"  dominant-baseline="middle" fill="black" > C5</text>
<circle cx="650" cy="15" r="4" fill="white" stroke="black" />
<line x1="650" y1="19" x2="650" y2="258" stroke="black" />
<line x1="646" y1="262" x2="650" y2="254" stroke="blue" />
<line x1="650" y1="262" x2="654" y2="254" stroke="blue" />
<text x="650" y="270" font-family="Verdana" font-size="8" text-anchor="middle"  dominant-baseline="middle" fill="black" > 243</text>
<text x="850" y="7" font-family="Verdana" font-size="7" text-anchor="middle"  dominant-baseline="middle" fill="black" > C6</text>
<circle cx="850" cy="15" r="4" fill="white" stroke="black" />
<line x1="850" y1="19" x2="850" y2="533" stroke="black" />
<line x1="750" y1="533" x2="950" y2="533" stroke="black" />
<text x="875" y="525" font-family="Verdana" font-size="8" text-anchor="middle"  dominant-baseline="middle" fill="black" > 518</text>
<circle cx="750" cy="533" r="4" fill="white" stroke="black" />
<circle cx="850" cy="533" r="4" fill="white" stroke="black" />
<circle cx="950" cy="533" r="4" fill="white" stroke="black" />
<line x1="750" y1="537" x2="750" y2="550" stroke="black" />
<line x1="750" y1="550" x2="850" y2="555" stroke="black" />
<line x1="850" y1="537" x2="850" y2="550" stroke="black" />
<line x1="850" y1="550" x2="850" y2="555" stroke="black" />
<line x1="950" y1="537" x2="950" y2="550" stroke="black" />
<line x1="950" y1="550" x2="850" y2="555" stroke="black" />
<text x="850" y="543" font-family="Verdana" font-size="8" text-anchor="middle"  dominant-baseline="middle" fill="black" > 540</text>
<circle cx="850" cy="555" r="4" fill="white" stroke="black" />
<line x1="850" y1="559" x2="850" y2="736" stroke="black" />
<circle cx="850" cy="736" r="4" fill="white" stroke="black" />
<text x="850" y="748" font-family="Verdana" font-size="8" text-anchor="middle"  dominant-baseline="middle" fill="black" > 721</text>
<text x="1150" y="7" font-family="Verdana" font-size="7" text-anchor="middle"  dominant-baseline="middle" fill="black" > C7</text>
<circle cx="1150" cy="15" r="4" fill="white" stroke="black" />
<line x1="1150" y1="19" x2="1150" y2="312" stroke="black" />
<line x1="1050" y1="312" x2="1250" y2="312" stroke="black" />
<text x="1175" y="304" font-family="Verdana" font-size="8" text-anchor="middle"  dominant-baseline="middle" fill="black" > 297</text>
<circle cx="1050" cy="312" r="4" fill="white" stroke="black" />
<circle cx="1150" cy="312" r="4" fill="white" stroke="black" />
<circle cx="1250" cy="312" r="4" fill="white" stroke="black" />
<line x1="1050" y1="316" x2="1050" y2="333" stroke="black" />
<line x1="1050" y1="333" x2="1150" y2="340" stroke="black" />
<line x1="1150" y1="316" x2="1150" y2="333" stroke="black" />
<line x1="1150" y1="333" x2="1150" y2="340" stroke="black" />
<line x1="1250" y1="316" x2="1250" y2="333" stroke="black" />
<line x1="1250" y1="333" x2="1150" y2="340" stroke="black" />
<text x="1150" y="328" font-family="Verdana" font-size="8" text-anchor="middle"  dominant-baseline="middle" fill="black" > 325</text>
<circle cx="1150" cy="340" r="4" fill="white" stroke="black" />
<line x1="1150" y1="344" x2="1150" y2="704" stroke="black" />
<line x1="1146" y1="700" x2="1154" y2="708" stroke="red" />
<line x1="1146" y1="708" x2="1154" y2="700" stroke="red" />
<text x="1150" y="716" font-family="Verdana" font-size="8" text-anchor="middle"  dominant-baseline="middle" fill="black" > 689</text>
<text x="1400" y="7" font-family="Verdana" font-size="7" text-anchor="middle"  dominant-baseline="middle" fill="black" > C8</text>
<circle cx="1400" cy="15" r="4" fill="white" stroke="black" />
<line x1="1400" y1="19" x2="1400" y2="302" stroke="black" />
<line x1="1350" y1="302" x2="1450" y2="302" stroke="black" />
<text x="1425" y="294" font-family="Verdana" font-size="8" text-anchor="middle"  dominant-baseline="middle" fill="black" > 287</text>
<circle cx="1350" cy="302" r="4" fill="white" stroke="black" />
<circle cx="1450" cy="302" r="4" fill="white" stroke="black" />
<line x1="1350" y1="306" x2="1350" y2="377" stroke="black" />
<line x1="1350" y1="377" x2="1400" y2="402" stroke="black" />
<line x1="1450" y1="306" x2="1450" y2="377" stroke="black" />
<line x1="1450" y1="377" x2="1400" y2="402" stroke="black" />
<text x="1400" y="390" font-family="Verdana" font-size="8" text-anchor="middle"  dominant-baseline="middle" fill="black" > 387</text>
<circle cx="1400" cy="402" r="4" fill="white" stroke="black" />
<line x1="1400" y1="406" x2="1400" y2="736" stroke="black" />
<circle cx="1400" cy="736" r="4" fill="white" stroke="black" />
<text x="1400" y="748" font-family="Verdana" font-size="8" text-anchor="middle"  dominant-baseline="middle" fill="black" > 721</text>
<text x="1750" y="7" font-family="Verdana" font-size="7" text-anchor="middle"  dominant-baseline="middle" fill="black" > C9</text>
<circle cx="1750" cy="15" r="4" fill="white" stroke="black" />
<line x1="1750" y1="19" x2="1750" y2="440" stroke="black" />
<line x1="1550" y1="440" x2="1950" y2="440" stroke="black" />
<text x="1775" y="432" font-family="Verdana" font-size="8" text-anchor="middle"  dominant-baseline="middle" fill="black" > 425</text>
<circle cx="1550" cy="440" r="4" fill="white" stroke="black" />
<line x1="1550" y1="444" x2="1550" y2="736" stroke="black" />
<circle cx="1550" cy="736" r="4" fill="white" stroke="black" />
<text x="1550" y="748" font-family="Verdana" font-size="8" text-anchor="middle"  dominant-baseline="middle" fill="black" > 721</text>
<circle cx="1650" cy="440" r="4" fill="white" stroke="black" />
<circle cx="1750" cy="440" r="4" fill="white" stroke="black" />
<circle cx="1850" cy="440" r="4" fill="white" stroke="black" />
<line x1="1650" y1="444" x2="1650" y2="478" stroke="black" />
<line x1="1650" y1="478" x2="1750" y2="490" stroke="black" />
<line x1="1750" y1="444" x2="1750" y2="478" stroke="black" />
<line x1="1750" y1="478" x2="1750" y2="490" stroke="black" />
<line x1="1850" y1="444" x2="1850" y2="478" stroke="black" />
<line x1="1850" y1="478" x2="1750" y2="490" stroke="black" />
<text x="1750" y="478" font-family="Verdana" font-size="8" text-anchor="middle"  dominant-baseline="middle" fill="black" > 475</text>
<circle cx="1750" cy="490" r="4" fill="white" stroke="black" />
<circle cx="1950" cy="440" r="4" fill="white" stroke="black" />
<line x1="1750" y1="494" x2="1750" y2="533" stroke="black" />
<line x1="1750" y1="533" x2="1850" y2="547" stroke="black" />
<line x1="1950" y1="444" x2="1950" y2="533" stroke="black" />
<line x1="1950" y1="533" x2="1850" y2="547" stroke="black" />
<text x="1850" y="535" font-family="Verdana" font-size="8" text-anchor="middle"  dominant-baseline="middle" fill="black" > 532</text>
<circle cx="1850" cy="547" r="4" fill="white" stroke="black" />
<line x1="1850" y1="551" x2="1850" y2="715" stroke="black" />
<line x1="1846" y1="711" x2="1854" y2="719" stroke="red" />
<line x1="1846" y1="719" x2="1854" y2="711" stroke="red" />
<text x="1850" y="727" font-family="Verdana" font-size="8" text-anchor="middle"  dominant-baseline="middle" fill="black" > 700</text>
</svg>
