<?xml version="1.0" encoding="utf-8"?>
<svg xmlns="http://www.w3.org/2000/svg" version="1.1" width="1850" height="750">
<rect width="1850" height="15" x="0" y="0" fill="white" />
<rect width="1850" height="15" x="0" y="735" fill="white" />
<rect width="25" height="750" x="0" y="0" fill="white" />
<rect width="25" height="750" x="1825" y="0" fill="white" />
<rect width="1810" height="144" x="25" y="15" fill="ghostwhite" />
<rect width="1810" height="144" x="25" y="159" fill="snow" />
<rect width="1810" height="144" x="25" y="303" fill="ghostwhite" />
<rect width="1810" height="144" x="25" y="447" fill="snow" />
<rect width="1810" height="144" x="25" y="591" fill="ghostwhite" />
<text x="12" y="87" font-family="Verdana" font-size="10" text-anchor="middle"  dominant-baseline="middle" fill="red" > D0</text>
<text x="12" y="231" font-family="Verdana" font-size="10" text-anchor="middle"  dominant-baseline="middle" fill="red" > D1</text>
<text x="12" y="375" font-family="Verdana" font-size="10" text-anchor="middle"  dominant-baseline="middle" fill="red" > D2</text>
<text x="12" y="519" font-family="Verdana" font-size="10" text-anchor="middle"  dominant-baseline="middle" fill="red" > D3</text>
<text x="12" y="663" font-family="Verdana" font-size="10" text-anchor="middle"  dominant-baseline="middle" fill="red" > D4</text>
<text x="12" y="20" font-family="Verdana" font-size="10" text-anchor="middle"  dominant-baseline="middle" fill="black" > 0</text>
<text x="12" y="164" font-family="Verdana" font-size="10" text-anchor="middle"  dominant-baseline="middle" fill="black" > 144</text>
<text x="12" y="308" font-family="Verdana" font-size="10" text-anchor="middle"  dominant-baseline="middle" fill="black" > 288</text>
<text x="12" y="452" font-family="Verdana" font-size="10" text-anchor="middle"  dominant-baseline="middle" fill="black" > 432</text>
<text x="12" y="596" font-family="Verdana" font-size="10" text-anchor="middle"  dominant-baseline="middle" fill="black" > 576</text>
<text x="12" y="740" font-family="Verdana" font-size="10" text-anchor="middle"  dominant-baseline="middle" fill="black" > 720</text>
<text x="100" y="7" font-family="Verdana" font-size="7" text-anchor="middle"  dominant-baseline="middle" fill="black" > C1</text>
<circle cx="100" cy="15" r="4" fill="white" stroke="black" />
<line x1="100" y1="19" x2="100" y2="219" stroke="black" />
<line x1="50" y1="219" x2="150" y2="219" stroke="black" />
<text x="125" y="211" font-family="Verdana" font-size="8" text-anchor="middle"  dominant-baseline="middle" fill="black" > 204</text>
<circle cx="50" cy="219" r="4" fill="white" stroke="black" />
<line x1="50" y1="223" x2="50" y2="591" stroke="black" />
<circle cx="50" cy="591" r="4" fill="white" stroke="black" />
<text x="50" y="603" font-family="Verdana" font-size="8" text-anchor="middle"  dominant-baseline="middle" fill="black" > 576</text>
<circle cx="150" cy="219" r="4" fill="white" stroke="black" />
<line x1="150" y1="223" x2="150" y2="315" stroke="black" />
<line x1="125" y1="315" x2="175" y2="315" stroke="black" />
<text x="162" y="307" font-family="Verdana" font-size="8" text-anchor="middle"  dominant-baseline="middle" fill="black" > 300</text>
<circle cx="125" cy="315" r="4" fill="white" stroke="black" />
<line x1="125" y1="319" x2="125" y2="591" stroke="black" />
<circle cx="125" cy="591" r="4" fill="white" stroke="black" />
<text x="125" y="603" font-family="Verdana" font-size="8" text-anchor="middle"  dominant-baseline="middle" fill="black" > 576</text>
<circle cx="175" cy="315" r="4" fill="white" stroke="black" />
<line x1="175" y1="319" x2="175" y2="591" stroke="black" />
<circle cx="175" cy="591" r="4" fill="white" stroke="black" />
<text x="175" y="603" font-family="Verdana" font-size="8" text-anchor="middle"  dominant-baseline="middle" fill="black" > 576</text>
<text x="300" y="7" font-family="Verdana" font-size="7" text-anchor="middle"  dominant-baseline="middle" fill="black" > C2</text>
<circle cx="300" cy="15" r="4" fill="white" stroke="black" />
<line x1="300" y1="19" x2="300" y2="221" stroke="black" />
<line x1="250" y1="221" x2="350" y2="221" stroke="black" />
<text x="325" y="213" font-family="Verdana" font-size="8" text-anchor="middle"  dominant-baseline="middle" fill="black" > 206</text>
<circle cx="250" cy="221" r="4" fill="white" stroke="black" />
<line x1="250" y1="225" x2="250" y2="338" stroke="black" />
<line x1="246" y1="334" x2="254" y2="342" stroke="red" />
<line x1="246" y1="342" x2="254" y2="334" stroke="red" />
<text x="250" y="350" font-family="Verdana" font-size="8" text-anchor="middle"  dominant-baseline="middle" fill="black" > 323</text>
<circle cx="350" cy="221" r="4" fill="white" stroke="black" />
<line x1="350" y1="225" x2="350" y2="564" stroke="black" />
<line x1="346" y1="560" x2="354" y2="568" stroke="red" />
<line x1="346" y1="568" x2="354" y2="560" stroke="red" />
<text x="350" y="576" font-family="Verdana" font-size="8" text-anchor="middle"  dominant-baseline="middle" fill="black" > 549</text>
<text x="500" y="7" font-family="Verdana" font-size="7" text-anchor="middle"  dominant-baseline="middle" fill="black" > C3</text>
<circle cx="500" cy="15" r="4" fill="white" stroke="black" />
<line x1="500" y1="19" x2="500" y2="99" stroke="black" />
<line x1="450" y1="99" x2="550" y2="99" stroke="black" />
<text x="525" y="91" font-family="Verdana" font-size="8" text-anchor="middle"  dominant-baseline="middle" fill="black" > 84</text>
<circle cx="450" cy="99" r="4" fill="white" stroke="black" />
<line x1="450" y1="103" x2="450" y2="274" stroke="black" />
<line x1="425" y1="274" x2="475" y2="274" stroke="black" />
<text x="462" y="266" font-family="Verdana" font-size="8" text-anchor="middle"  dominant-baseline="middle" fill="black" > 259</text>
<circle cx="425" cy="274" r="4" fill="white" stroke="black" />
<line x1="425" y1="278" x2="425" y2="408" stroke="black" />
<line x1="412" y1="408" x2="438" y2="408" stroke="black" />
<text x="431" y="400" font-family="Verdana" font-size="8" text-anchor="middle"  dominant-baseline="middle" fill="black" > 393</text>
<circle cx="412" cy="408" r="4" fill="white" stroke="black" />
<line x1="412" y1="412" x2="412" y2="534" stroke="black" />
<line x1="406" y1="534" x2="419" y2="534" stroke="black" />
<text x="415" y="526" font-family="Verdana" font-size="8" text-anchor="middle"  dominant-baseline="middle" fill="black" > 519</text>
<circle cx="406" cy="534" r="4" fill="white" stroke="black" />
<line x1="406" y1="538" x2="406" y2="591" stroke="black" />
<circle cx="406" cy="591" r="4" fill="white" stroke="black" />
<text x="406" y="603" font-family="Verdana" font-size="8" text-anchor="middle"  dominant-baseline="middle" fill="black" > 576</text>
<circle cx="418" cy="534" r="4" fill="white" stroke="black" />
<line x1="418" y1="538" x2="418" y2="591" stroke="black" />
<circle cx="418" cy="591" r="4" fill="white" stroke="black" />
<text x="418" y="603" font-family="Verdana" font-size="8" text-anchor="middle"  dominant-baseline="middle" fill="black" > 576</text>
<circle cx="437" cy="408" r="4" fill="white" stroke="black" />
<line x1="437" y1="412" x2="437" y2="586" stroke="black" />
<line x1="431" y1="586" x2="444" y2="586" stroke="black" />
<text x="440" y="578" font-family="Verdana" font-size="8" text-anchor="middle"  dominant-baseline="middle" fill="black" > 571</text>
<circle cx="431" cy="586" r="4" fill="white" stroke="black" />
<line x1="431" y1="590" x2="431" y2="591" stroke="black" />
<circle cx="431" cy="591" r="4" fill="white" stroke="black" />
<text x="431" y="603" font-family="Verdana" font-size="8" text-anchor="middle"  dominant-baseline="middle" fill="black" > 576</text>
<circle cx="443" cy="586" r="4" fill="white" stroke="black" />
<line x1="443" y1="590" x2="443" y2="591" stroke="black" />
<circle cx="443" cy="591" r="4" fill="white" stroke="black" />
<text x="443" y="603" font-family="Verdana" font-size="8" text-anchor="middle"  dominant-baseline="middle" fill="black" > 576</text>
<circle cx="475" cy="274" r="4" fill="white" stroke="black" />
<line x1="475" y1="278" x2="475" y2="410" stroke="black" />
<line x1="462" y1="410" x2="488" y2="410" stroke="black" />
<text x="481" y="402" font-family="Verdana" font-size="8" text-anchor="middle"  dominant-baseline="middle" fill="black" > 395</text>
<circle cx="462" cy="410" r="4" fill="white" stroke="black" />
<line x1="462" y1="414" x2="462" y2="560" stroke="black" />
<line x1="456" y1="560" x2="469" y2="560" stroke="black" />
<text x="465" y="552" font-family="Verdana" font-size="8" text-anchor="middle"  dominant-baseline="middle" fill="black" > 545</text>
<circle cx="456" cy="560" r="4" fill="white" stroke="black" />
<line x1="456" y1="564" x2="456" y2="591" stroke="black" />
<circle cx="456" cy="591" r="4" fill="white" stroke="black" />
<text x="456" y="603" font-family="Verdana" font-size="8" text-anchor="middle"  dominant-baseline="middle" fill="black" > 576</text>
<circle cx="468" cy="560" r="4" fill="white" stroke="black" />
<line x1="468" y1="564" x2="468" y2="591" stroke="black" />
<circle cx="468" cy="591" r="4" fill="white" stroke="black" />
<text x="468" y="603" font-family="Verdana" font-size="8" text-anchor="middle"  dominant-baseline="middle" fill="black" > 576</text>
<circle cx="487" cy="410" r="4" fill="white" stroke="black" />
<line x1="487" y1="414" x2="487" y2="563" stroke="black" />
<line x1="481" y1="563" x2="494" y2="563" stroke="black" />
<text x="490" y="555" font-family="Verdana" font-size="8" text-anchor="middle"  dominant-baseline="middle" fill="black" > 548</text>
<circle cx="481" cy="563" r="4" fill="white" stroke="black" />
<line x1="481" y1="567" x2="481" y2="591" stroke="black" />
<circle cx="481" cy="591" r="4" fill="white" stroke="black" />
<text x="481" y="603" font-family="Verdana" font-size="8" text-anchor="middle"  dominant-baseline="middle" fill="black" > 576</text>
<circle cx="493" cy="563" r="4" fill="white" stroke="black" />
<line x1="493" y1="567" x2="493" y2="591" stroke="black" />
<circle cx="493" cy="591" r="4" fill="white" stroke="black" />
<text x="493" y="603" font-family="Verdana" font-size="8" text-anchor="middle"  dominant-baseline="middle" fill="black" > 576</text>
<circle cx="550" cy="99" r="4" fill="white" stroke="black" />
<line x1="550" y1="103" x2="550" y2="269" stroke="black" />
<line x1="525" y1="269" x2="575" y2="269" stroke="black" />
<text x="562" y="261" font-family="Verdana" font-size="8" text-anchor="middle"  dominant-baseline="middle" fill="black" > 254</text>
<circle cx="525" cy="269" r="4" fill="white" stroke="black" />
<line x1="525" y1="273" x2="525" y2="424" stroke="black" />
<line x1="512" y1="424" x2="538" y2="424" stroke="black" />
<text x="531" y="416" font-family="Verdana" font-size="8" text-anchor="middle"  dominant-baseline="middle" fill="black" > 409</text>
<circle cx="512" cy="424" r="4" fill="white" stroke="black" />
<line x1="512" y1="428" x2="512" y2="591" stroke="black" />
<circle cx="512" cy="591" r="4" fill="white" stroke="black" />
<text x="512" y="603" font-family="Verdana" font-size="8" text-anchor="middle"  dominant-baseline="middle" fill="black" > 576</text>
<circle cx="537" cy="424" r="4" fill="white" stroke="black" />
<line x1="537" y1="428" x2="537" y2="591" stroke="black" />
<circle cx="537" cy="591" r="4" fill="white" stroke="black" />
<text x="537" y="603" font-family="Verdana" font-size="8" text-anchor="middle"  dominant-baseline="middle" fill="black" > 576</text>
<circle cx="575" cy="269" r="4" fill="white" stroke="black" />
<line x1="575" y1="273" x2="575" y2="398" stroke="black" />
<line x1="562" y1="398" x2="588" y2="398" stroke="black" />
<text x="581" y="390" font-family="Verdana" font-size="8" text-anchor="middle"  dominant-baseline="middle" fill="black" > 383</text>
<circle cx="562" cy="398" r="4" fill="white" stroke="black" />
<line x1="562" y1="402" x2="562" y2="566" stroke="black" />
<line x1="556" y1="566" x2="569" y2="566" stroke="black" />
<text x="565" y="558" font-family="Verdana" font-size="8" text-anchor="middle"  dominant-baseline="middle" fill="black" > 551</text>
<circle cx="556" cy="566" r="4" fill="white" stroke="black" />
<line x1="556" y1="570" x2="556" y2="591" stroke="black" />
<circle cx="556" cy="591" r="4" fill="white" stroke="black" />
<text x="556" y="603" font-family="Verdana" font-size="8" text-anchor="middle"  dominant-baseline="middle" fill="black" > 576</text>
<circle cx="568" cy="566" r="4" fill="white" stroke="black" />
<line x1="568" y1="570" x2="568" y2="591" stroke="black" />
<circle cx="568" cy="591" r="4" fill="white" stroke="black" />
<text x="568" y="603" font-family="Verdana" font-size="8" text-anchor="middle"  dominant-baseline="middle" fill="black" > 576</text>
<circle cx="587" cy="398" r="4" fill="white" stroke="black" />
<line x1="587" y1="402" x2="587" y2="523" stroke="black" />
<line x1="581" y1="523" x2="594" y2="523" stroke="black" />
<text x="590" y="515" font-family="Verdana" font-size="8" text-anchor="middle"  dominant-baseline="middle" fill="black" > 508</text>
<circle cx="581" cy="523" r="4" fill="white" stroke="black" />
<line x1="581" y1="527" x2="581" y2="591" stroke="black" />
<circle cx="581" cy="591" r="4" fill="white" stroke="black" />
<text x="581" y="603" font-family="Verdana" font-size="8" text-anchor="middle"  dominant-baseline="middle" fill="black" > 576</text>
<circle cx="593" cy="523" r="4" fill="white" stroke="black" />
<line x1="593" y1="527" x2="593" y2="591" stroke="black" />
<circle cx="593" cy="591" r="4" fill="white" stroke="black" />
<text x="593" y="603" font-family="Verdana" font-size="8" text-anchor="middle"  dominant-baseline="middle" fill="black" > 576</text>
<text x="700" y="7" font-family="Verdana" font-size="7" text-anchor="middle"  dominant-baseline="middle" fill="black" > C4</text>
<circle cx="700" cy="15" r="4" fill="white" stroke="black" />
<line x1="700" y1="19" x2="700" y2="125" stroke="black" />
<line x1="650" y1="125" x2="750" y2="125" stroke="black" />
<text x="725" y="117" font-family="Verdana" font-size="8" text-anchor="middle"  dominant-baseline="middle" fill="black" > 110</text>
<circle cx="650" cy="125" r="4" fill="white" stroke="black" />
<line x1="650" y1="129" x2="650" y2="332" stroke="black" />
<line x1="625" y1="332" x2="675" y2="332" stroke="black" />
<text x="662" y="324" font-family="Verdana" font-size="8" text-anchor="middle"  dominant-baseline="middle" fill="black" > 317</text>
<circle cx="625" cy="332" r="4" fill="white" stroke="black" />
<line x1="625" y1="336" x2="625" y2="492" stroke="black" />
<line x1="621" y1="488" x2="629" y2="496" stroke="red" />
<line x1="621" y1="496" x2="629" y2="488" stroke="red" />
<text x="625" y="504" font-family="Verdana" font-size="8" text-anchor="middle"  dominant-baseline="middle" fill="black" > 477</text>
<circle cx="675" cy="332" r="4" fill="white" stroke="black" />
<line x1="675" y1="336" x2="675" y2="591" stroke="black" />
<circle cx="675" cy="591" r="4" fill="white" stroke="black" />
<text x="675" y="603" font-family="Verdana" font-size="8" text-anchor="middle"  dominant-baseline="middle" fill="black" > 576</text>
<circle cx="750" cy="125" r="4" fill="white" stroke="black" />
<line x1="750" y1="129" x2="750" y2="457" stroke="black" />
<line x1="716" y1="457" x2="784" y2="457" stroke="black" />
<text x="758" y="449" font-family="Verdana" font-size="8" text-anchor="middle"  dominant-baseline="middle" fill="black" > 442</text>
<circle cx="716" cy="457" r="4" fill="white" stroke="black" />
<circle cx="749" cy="457" r="4" fill="white" stroke="black" />
<circle cx="782" cy="457" r="4" fill="white" stroke="black" />
<line x1="716" y1="461" x2="716" y2="485" stroke="black" />
<line x1="716" y1="485" x2="749" y2="494" stroke="black" />
<line x1="749" y1="461" x2="749" y2="485" stroke="black" />
<line x1="749" y1="485" x2="749" y2="494" stroke="black" />
<line x1="782" y1="461" x2="782" y2="485" stroke="black" />
<line x1="782" y1="485" x2="749" y2="494" stroke="black" />
<text x="749" y="482" font-family="Verdana" font-size="8" text-anchor="middle"  dominant-baseline="middle" fill="black" > 479</text>
<circle cx="749" cy="494" r="4" fill="white" stroke="black" />
<line x1="749" y1="498" x2="749" y2="591" stroke="black" />
<circle cx="749" cy="591" r="4" fill="white" stroke="black" />
<text x="749" y="603" font-family="Verdana" font-size="8" text-anchor="middle"  dominant-baseline="middle" fill="black" > 576</text>
<text x="900" y="7" font-family="Verdana" font-size="7" text-anchor="middle"  dominant-baseline="middle" fill="black" > C5</text>
<circle cx="900" cy="15" r="4" fill="white" stroke="black" />
<line x1="900" y1="19" x2="900" y2="104" stroke="black" />
<line x1="850" y1="104" x2="950" y2="104" stroke="black" />
<text x="925" y="96" font-family="Verdana" font-size="8" text-anchor="middle"  dominant-baseline="middle" fill="black" > 89</text>
<circle cx="850" cy="104" r="4" fill="white" stroke="black" />
<line x1="850" y1="108" x2="850" y2="355" stroke="black" />
<line x1="825" y1="355" x2="875" y2="355" stroke="black" />
<text x="862" y="347" font-family="Verdana" font-size="8" text-anchor="middle"  dominant-baseline="middle" fill="black" > 340</text>
<circle cx="825" cy="355" r="4" fill="white" stroke="black" />
<line x1="825" y1="359" x2="825" y2="530" stroke="black" />
<line x1="812" y1="530" x2="838" y2="530" stroke="black" />
<text x="831" y="522" font-family="Verdana" font-size="8" text-anchor="middle"  dominant-baseline="middle" fill="black" > 515</text>
<circle cx="812" cy="530" r="4" fill="white" stroke="black" />
<line x1="812" y1="534" x2="812" y2="591" stroke="black" />
<circle cx="812" cy="591" r="4" fill="white" stroke="black" />
<text x="812" y="603" font-family="Verdana" font-size="8" text-anchor="middle"  dominant-baseline="middle" fill="black" > 576</text>
<circle cx="837" cy="530" r="4" fill="white" stroke="black" />
<line x1="837" y1="534" x2="837" y2="591" stroke="black" />
<circle cx="837" cy="591" r="4" fill="white" stroke="black" />
<text x="837" y="603" font-family="Verdana" font-size="8" text-anchor="middle"  dominant-baseline="middle" fill="black" > 576</text>
<circle cx="875" cy="355" r="4" fill="white" stroke="black" />
<line x1="875" y1="359" x2="875" y2="543" stroke="black" />
<line x1="862" y1="543" x2="888" y2="543" stroke="black" />
<text x="881" y="535" font-family="Verdana" font-size="8" text-anchor="middle"  dominant-baseline="middle" fill="black" > 528</text>
<circle cx="862" cy="543" r="4" fill="white" stroke="black" />
<line x1="862" y1="547" x2="862" y2="591" stroke="black" />
<circle cx="862" cy="591" r="4" fill="white" stroke="black" />
<text x="862" y="603" font-family="Verdana" font-size="8" text-anchor="middle"  dominant-baseline="middle" fill="black" > 576</text>
<circle cx="887" cy="543" r="4" fill="white" stroke="black" />
<line x1="887" y1="547" x2="887" y2="591" stroke="black" />
<circle cx="887" cy="591" r="4" fill="white" stroke="black" />
<text x="887" y="603" font-family="Verdana" font-size="8" text-anchor="middle"  dominant-baseline="middle" fill="black" > 576</text>
<circle cx="950" cy="104" r="4" fill="white" stroke="black" />
<line x1="950" y1="108" x2="950" y2="391" stroke="black" />
<line x1="916" y1="391" x2="984" y2="391" stroke="black" />
<text x="958" y="383" font-family="Verdana" font-size="8" text-anchor="middle"  dominant-baseline="middle" fill="black" > 376</text>
<circle cx="916" cy="391" r="4" fill="white" stroke="black" />
<line x1="916" y1="395" x2="916" y2="571" stroke="black" />
<line x1="912" y1="567" x2="920" y2="575" stroke="red" />
<line x1="912" y1="575" x2="920" y2="567" stroke="red" />
<text x="916" y="583" font-family="Verdana" font-size="8" text-anchor="middle"  dominant-baseline="middle" fill="black" > 556</text>
<circle cx="949" cy="391" r="4" fill="white" stroke="black" />
<line x1="949" y1="395" x2="949" y2="527" stroke="black" />
<line x1="945" y1="523" x2="953" y2="531" stroke="red" />
<line x1="945" y1="531" x2="953" y2="523" stroke="red" />
<text x="949" y="539" font-family="Verdana" font-size="8" text-anchor="middle"  dominant-baseline="middle" fill="black" > 512</text>
<circle cx="982" cy="391" r="4" fill="white" stroke="black" />
<line x1="982" y1="395" x2="982" y2="516" stroke="black" />
<line x1="974" y1="516" x2="991" y2="516" stroke="black" />
<text x="986" y="508" font-family="Verdana" font-size="8" text-anchor="middle"  dominant-baseline="middle" fill="black" > 501</text>
<circle cx="974" cy="516" r="4" fill="white" stroke="black" />
<line x1="974" y1="520" x2="974" y2="591" stroke="black" />
<circle cx="974" cy="591" r="4" fill="white" stroke="black" />
<text x="974" y="603" font-family="Verdana" font-size="8" text-anchor="middle"  dominant-baseline="middle" fill="black" > 576</text>
<circle cx="990" cy="516" r="4" fill="white" stroke="black" />
<line x1="990" y1="520" x2="990" y2="591" stroke="black" />
<circle cx="990" cy="591" r="4" fill="white" stroke="black" />
<text x="990" y="603" font-family="Verdana" font-size="8" text-anchor="middle"  dominant-baseline="middle" fill="black" > 576</text>
<text x="1100" y="7" font-family="Verdana" font-size="7" text-anchor="middle"  dominant-baseline="middle" fill="black" > C6</text>
<circle cx="1100" cy="15" r="4" fill="white" stroke="black" />
<line x1="1100" y1="19" x2="1100" y2="99" stroke="black" />
<line x1="1050" y1="99" x2="1150" y2="99" stroke="black" />
<text x="1125" y="91" font-family="Verdana" font-size="8" text-anchor="middle"  dominant-baseline="middle" fill="black" > 84</text>
<circle cx="1050" cy="99" r="4" fill="white" stroke="black" />
<line x1="1050" y1="103" x2="1050" y2="295" stroke="black" />
<line x1="1025" y1="295" x2="1075" y2="295" stroke="black" />
<text x="1062" y="287" font-family="Verdana" font-size="8" text-anchor="middle"  dominant-baseline="middle" fill="black" > 280</text>
<circle cx="1025" cy="295" r="4" fill="white" stroke="black" />
<line x1="1025" y1="299" x2="1025" y2="450" stroke="black" />
<line x1="1012" y1="450" x2="1038" y2="450" stroke="black" />
<text x="1031" y="442" font-family="Verdana" font-size="8" text-anchor="middle"  dominant-baseline="middle" fill="black" > 435</text>
<circle cx="1012" cy="450" r="4" fill="white" stroke="black" />
<line x1="1012" y1="454" x2="1012" y2="591" stroke="black" />
<circle cx="1012" cy="591" r="4" fill="white" stroke="black" />
<text x="1012" y="603" font-family="Verdana" font-size="8" text-anchor="middle"  dominant-baseline="middle" fill="black" > 576</text>
<circle cx="1037" cy="450" r="4" fill="white" stroke="black" />
<line x1="1037" y1="454" x2="1037" y2="591" stroke="black" />
<circle cx="1037" cy="591" r="4" fill="white" stroke="black" />
<text x="1037" y="603" font-family="Verdana" font-size="8" text-anchor="middle"  dominant-baseline="middle" fill="black" > 576</text>
<circle cx="1075" cy="295" r="4" fill="white" stroke="black" />
<line x1="1075" y1="299" x2="1075" y2="477" stroke="black" />
<line x1="1062" y1="477" x2="1088" y2="477" stroke="black" />
<text x="1081" y="469" font-family="Verdana" font-size="8" text-anchor="middle"  dominant-baseline="middle" fill="black" > 462</text>
<circle cx="1062" cy="477" r="4" fill="white" stroke="black" />
<line x1="1062" y1="481" x2="1062" y2="591" stroke="black" />
<circle cx="1062" cy="591" r="4" fill="white" stroke="black" />
<text x="1062" y="603" font-family="Verdana" font-size="8" text-anchor="middle"  dominant-baseline="middle" fill="black" > 576</text>
<circle cx="1087" cy="477" r="4" fill="white" stroke="black" />
<line x1="1087" y1="481" x2="1087" y2="590" stroke="black" />
<line x1="1081" y1="590" x2="1094" y2="590" stroke="black" />
<text x="1090" y="582" font-family="Verdana" font-size="8" text-anchor="middle"  dominant-baseline="middle" fill="black" > 575</text>
<circle cx="1081" cy="590" r="4" fill="white" stroke="black" />
<line x1="1081" y1="594" x2="1081" y2="591" stroke="black" />
<circle cx="1081" cy="591" r="4" fill="white" stroke="black" />
<text x="1081" y="603" font-family="Verdana" font-size="8" text-anchor="middle"  dominant-baseline="middle" fill="black" > 576</text>
<circle cx="1093" cy="590" r="4" fill="white" stroke="black" />
<line x1="1093" y1="594" x2="1093" y2="591" stroke="black" />
<circle cx="1093" cy="591" r="4" fill="white" stroke="black" />
<text x="1093" y="603" font-family="Verdana" font-size="8" text-anchor="middle"  dominant-baseline="middle" fill="black" > 576</text>
<circle cx="1150" cy="99" r="4" fill="white" stroke="black" />
<line x1="1150" y1="103" x2="1150" y2="292" stroke="black" />
<line x1="1125" y1="292" x2="1175" y2="292" stroke="black" />
<text x="1162" y="284" font-family="Verdana" font-size="8" text-anchor="middle"  dominant-baseline="middle" fill="black" > 277</text>
<circle cx="1125" cy="292" r="4" fill="white" stroke="black" />
<line x1="1125" y1="296" x2="1125" y2="438" stroke="black" />
<line x1="1112" y1="438" x2="1138" y2="438" stroke="black" />
<text x="1131" y="430" font-family="Verdana" font-size="8" text-anchor="middle"  dominant-baseline="middle" fill="black" > 423</text>
<circle cx="1112" cy="438" r="4" fill="white" stroke="black" />
<line x1="1112" y1="442" x2="1112" y2="591" stroke="black" />
<circle cx="1112" cy="591" r="4" fill="white" stroke="black" />
<text x="1112" y="603" font-family="Verdana" font-size="8" text-anchor="middle"  dominant-baseline="middle" fill="black" > 576</text>
<circle cx="1137" cy="438" r="4" fill="white" stroke="black" />
<line x1="1137" y1="442" x2="1137" y2="590" stroke="black" />
<line x1="1131" y1="590" x2="1144" y2="590" stroke="black" />
<text x="1140" y="582" font-family="Verdana" font-size="8" text-anchor="middle"  dominant-baseline="middle" fill="black" > 575</text>
<circle cx="1131" cy="590" r="4" fill="white" stroke="black" />
<line x1="1131" y1="594" x2="1131" y2="591" stroke="black" />
<circle cx="1131" cy="591" r="4" fill="white" stroke="black" />
<text x="1131" y="603" font-family="Verdana" font-size="8" text-anchor="middle"  dominant-baseline="middle" fill="black" > 576</text>
<circle cx="1143" cy="590" r="4" fill="white" stroke="black" />
<line x1="1143" y1="594" x2="1143" y2="591" stroke="black" />
<circle cx="1143" cy="591" r="4" fill="white" stroke="black" />
<text x="1143" y="603" font-family="Verdana" font-size="8" text-anchor="middle"  dominant-baseline="middle" fill="black" > 576</text>
<circle cx="1175" cy="292" r="4" fill="white" stroke="black" />
<line x1="1175" y1="296" x2="1175" y2="431" stroke="black" />
<line x1="1162" y1="431" x2="1188" y2="431" stroke="black" />
<text x="1181" y="423" font-family="Verdana" font-size="8" text-anchor="middle"  dominant-baseline="middle" fill="black" > 416</text>
<circle cx="1162" cy="431" r="4" fill="white" stroke="black" />
<line x1="1162" y1="435" x2="1162" y2="574" stroke="black" />
<line x1="1156" y1="574" x2="1169" y2="574" stroke="black" />
<text x="1165" y="566" font-family="Verdana" font-size="8" text-anchor="middle"  dominant-baseline="middle" fill="black" > 559</text>
<circle cx="1156" cy="574" r="4" fill="white" stroke="black" />
<line x1="1156" y1="578" x2="1156" y2="591" stroke="black" />
<circle cx="1156" cy="591" r="4" fill="white" stroke="black" />
<text x="1156" y="603" font-family="Verdana" font-size="8" text-anchor="middle"  dominant-baseline="middle" fill="black" > 576</text>
<circle cx="1168" cy="574" r="4" fill="white" stroke="black" />
<line x1="1168" y1="578" x2="1168" y2="591" stroke="black" />
<circle cx="1168" cy="591" r="4" fill="white" stroke="black" />
<text x="1168" y="603" font-family="Verdana" font-size="8" text-anchor="middle"  dominant-baseline="middle" fill="black" > 576</text>
<circle cx="1187" cy="431" r="4" fill="white" stroke="black" />
<line x1="1187" y1="435" x2="1187" y2="567" stroke="black" />
<line x1="1181" y1="567" x2="1194" y2="567" stroke="black" />
<text x="1190" y="559" font-family="Verdana" font-size="8" text-anchor="middle"  dominant-baseline="middle" fill="black" > 552</text>
<circle cx="1181" cy="567" r="4" fill="white" stroke="black" />
<line x1="1181" y1="571" x2="1181" y2="591" stroke="black" />
<circle cx="1181" cy="591" r="4" fill="white" stroke="black" />
<text x="1181" y="603" font-family="Verdana" font-size="8" text-anchor="middle"  dominant-baseline="middle" fill="black" > 576</text>
<circle cx="1193" cy="567" r="4" fill="white" stroke="black" />
<line x1="1193" y1="571" x2="1193" y2="591" stroke="black" />
<circle cx="1193" cy="591" r="4" fill="white" stroke="black" />
<text x="1193" y="603" font-family="Verdana" font-size="8" text-anchor="middle"  dominant-baseline="middle" fill="black" > 576</text>
<text x="1300" y="7" font-family="Verdana" font-size="7" text-anchor="middle"  dominant-baseline="middle" fill="black" > C7</text>
<circle cx="1300" cy="15" r="4" fill="white" stroke="black" />
<line x1="1300" y1="19" x2="1300" y2="87" stroke="black" />
<line x1="1250" y1="87" x2="1350" y2="87" stroke="black" />
<text x="1325" y="79" font-family="Verdana" font-size="8" text-anchor="middle"  dominant-baseline="middle" fill="black" > 72</text>
<circle cx="1250" cy="87" r="4" fill="white" stroke="black" />
<line x1="1250" y1="91" x2="1250" y2="591" stroke="black" />
<circle cx="1250" cy="591" r="4" fill="white" stroke="black" />
<text x="1250" y="603" font-family="Verdana" font-size="8" text-anchor="middle"  dominant-baseline="middle" fill="black" > 576</text>
<circle cx="1350" cy="87" r="4" fill="white" stroke="black" />
<line x1="1350" y1="91" x2="1350" y2="299" stroke="black" />
<line x1="1325" y1="299" x2="1375" y2="299" stroke="black" />
<text x="1362" y="291" font-family="Verdana" font-size="8" text-anchor="middle"  dominant-baseline="middle" fill="black" > 284</text>
<circle cx="1325" cy="299" r="4" fill="white" stroke="black" />
<circle cx="1375" cy="299" r="4" fill="white" stroke="black" />
<line x1="1325" y1="303" x2="1325" y2="365" stroke="black" />
<line x1="1325" y1="365" x2="1350" y2="386" stroke="black" />
<line x1="1375" y1="303" x2="1375" y2="365" stroke="black" />
<line x1="1375" y1="365" x2="1350" y2="386" stroke="black" />
<text x="1350" y="374" font-family="Verdana" font-size="8" text-anchor="middle"  dominant-baseline="middle" fill="black" > 371</text>
<circle cx="1350" cy="386" r="4" fill="white" stroke="black" />
<line x1="1350" y1="390" x2="1350" y2="452" stroke="black" />
<line x1="1333" y1="452" x2="1367" y2="452" stroke="black" />
<text x="1354" y="444" font-family="Verdana" font-size="8" text-anchor="middle"  dominant-baseline="middle" fill="black" > 437</text>
<circle cx="1333" cy="452" r="4" fill="white" stroke="black" />
<line x1="1333" y1="456" x2="1333" y2="591" stroke="black" />
<circle cx="1333" cy="591" r="4" fill="white" stroke="black" />
<text x="1333" y="603" font-family="Verdana" font-size="8" text-anchor="middle"  dominant-baseline="middle" fill="black" > 576</text>
<circle cx="1349" cy="452" r="4" fill="white" stroke="black" />
<line x1="1349" y1="456" x2="1349" y2="591" stroke="black" />
<circle cx="1349" cy="591" r="4" fill="white" stroke="black" />
<text x="1349" y="603" font-family="Verdana" font-size="8" text-anchor="middle"  dominant-baseline="middle" fill="black" > 576</text>
<circle cx="1365" cy="452" r="4" fill="white" stroke="black" />
<line x1="1365" y1="456" x2="1365" y2="591" stroke="black" />
<circle cx="1365" cy="591" r="4" fill="white" stroke="black" />
<text x="1365" y="603" font-family="Verdana" font-size="8" text-anchor="middle"  dominant-baseline="middle" fill="black" > 576</text>
<text x="1500" y="7" font-family="Verdana" font-size="7" text-anchor="middle"  dominant-baseline="middle" fill="black" > C8</text>
<circle cx="1500" cy="15" r="4" fill="white" stroke="black" />
<line x1="1500" y1="19" x2="1500" y2="125" stroke="black" />
<line x1="1450" y1="125" x2="1550" y2="125" stroke="black" />
<text x="1525" y="117" font-family="Verdana" font-size="8" text-anchor="middle"  dominant-baseline="middle" fill="black" > 110</text>
<circle cx="1450" cy="125" r="4" fill="white" stroke="black" />
<line x1="1450" y1="129" x2="1450" y2="265" stroke="black" />
<line x1="1425" y1="265" x2="1475" y2="265" stroke="black" />
<text x="1462" y="257" font-family="Verdana" font-size="8" text-anchor="middle"  dominant-baseline="middle" fill="black" > 250</text>
<circle cx="1425" cy="265" r="4" fill="white" stroke="black" />
<line x1="1425" y1="269" x2="1425" y2="409" stroke="black" />
<line x1="1412" y1="409" x2="1438" y2="409" stroke="black" />
<text x="1431" y="401" font-family="Verdana" font-size="8" text-anchor="middle"  dominant-baseline="middle" fill="black" > 394</text>
<circle cx="1412" cy="409" r="4" fill="white" stroke="black" />
<line x1="1412" y1="413" x2="1412" y2="574" stroke="black" />
<line x1="1406" y1="574" x2="1419" y2="574" stroke="black" />
<text x="1415" y="566" font-family="Verdana" font-size="8" text-anchor="middle"  dominant-baseline="middle" fill="black" > 559</text>
<circle cx="1406" cy="574" r="4" fill="white" stroke="black" />
<line x1="1406" y1="578" x2="1406" y2="591" stroke="black" />
<circle cx="1406" cy="591" r="4" fill="white" stroke="black" />
<text x="1406" y="603" font-family="Verdana" font-size="8" text-anchor="middle"  dominant-baseline="middle" fill="black" > 576</text>
<circle cx="1418" cy="574" r="4" fill="white" stroke="black" />
<line x1="1418" y1="578" x2="1418" y2="591" stroke="black" />
<circle cx="1418" cy="591" r="4" fill="white" stroke="black" />
<text x="1418" y="603" font-family="Verdana" font-size="8" text-anchor="middle"  dominant-baseline="middle" fill="black" > 576</text>
<circle cx="1437" cy="409" r="4" fill="white" stroke="black" />
<line x1="1437" y1="413" x2="1437" y2="573" stroke="black" />
<line x1="1431" y1="573" x2="1444" y2="573" stroke="black" />
<text x="1440" y="565" font-family="Verdana" font-size="8" text-anchor="middle"  dominant-baseline="middle" fill="black" > 558</text>
<circle cx="1431" cy="573" r="4" fill="white" stroke="black" />
<line x1="1431" y1="577" x2="1431" y2="591" stroke="black" />
<circle cx="1431" cy="591" r="4" fill="white" stroke="black" />
<text x="1431" y="603" font-family="Verdana" font-size="8" text-anchor="middle"  dominant-baseline="middle" fill="black" > 576</text>
<circle cx="1443" cy="573" r="4" fill="white" stroke="black" />
<line x1="1443" y1="577" x2="1443" y2="591" stroke="black" />
<circle cx="1443" cy="591" r="4" fill="white" stroke="black" />
<text x="1443" y="603" font-family="Verdana" font-size="8" text-anchor="middle"  dominant-baseline="middle" fill="black" > 576</text>
<circle cx="1475" cy="265" r="4" fill="white" stroke="black" />
<line x1="1475" y1="269" x2="1475" y2="396" stroke="black" />
<line x1="1462" y1="396" x2="1488" y2="396" stroke="black" />
<text x="1481" y="388" font-family="Verdana" font-size="8" text-anchor="middle"  dominant-baseline="middle" fill="black" > 381</text>
<circle cx="1462" cy="396" r="4" fill="white" stroke="black" />
<line x1="1462" y1="400" x2="1462" y2="591" stroke="black" />
<circle cx="1462" cy="591" r="4" fill="white" stroke="black" />
<text x="1462" y="603" font-family="Verdana" font-size="8" text-anchor="middle"  dominant-baseline="middle" fill="black" > 576</text>
<circle cx="1487" cy="396" r="4" fill="white" stroke="black" />
<line x1="1487" y1="400" x2="1487" y2="591" stroke="black" />
<circle cx="1487" cy="591" r="4" fill="white" stroke="black" />
<text x="1487" y="603" font-family="Verdana" font-size="8" text-anchor="middle"  dominant-baseline="middle" fill="black" > 576</text>
<circle cx="1550" cy="125" r="4" fill="white" stroke="black" />
<line x1="1550" y1="129" x2="1550" y2="260" stroke="black" />
<line x1="1525" y1="260" x2="1575" y2="260" stroke="black" />
<text x="1562" y="252" font-family="Verdana" font-size="8" text-anchor="middle"  dominant-baseline="middle" fill="black" > 245</text>
<circle cx="1525" cy="260" r="4" fill="white" stroke="black" />
<line x1="1525" y1="264" x2="1525" y2="564" stroke="black" />
<line x1="1512" y1="564" x2="1538" y2="564" stroke="black" />
<text x="1531" y="556" font-family="Verdana" font-size="8" text-anchor="middle"  dominant-baseline="middle" fill="black" > 549</text>
<circle cx="1512" cy="564" r="4" fill="white" stroke="black" />
<line x1="1512" y1="568" x2="1512" y2="591" stroke="black" />
<circle cx="1512" cy="591" r="4" fill="white" stroke="black" />
<text x="1512" y="603" font-family="Verdana" font-size="8" text-anchor="middle"  dominant-baseline="middle" fill="black" > 576</text>
<circle cx="1537" cy="564" r="4" fill="white" stroke="black" />
<line x1="1537" y1="568" x2="1537" y2="591" stroke="black" />
<circle cx="1537" cy="591" r="4" fill="white" stroke="black" />
<text x="1537" y="603" font-family="Verdana" font-size="8" text-anchor="middle"  dominant-baseline="middle" fill="black" > 576</text>
<circle cx="1575" cy="260" r="4" fill="white" stroke="black" />
<line x1="1575" y1="264" x2="1575" y2="445" stroke="black" />
<line x1="1562" y1="445" x2="1588" y2="445" stroke="black" />
<text x="1581" y="437" font-family="Verdana" font-size="8" text-anchor="middle"  dominant-baseline="middle" fill="black" > 430</text>
<circle cx="1562" cy="445" r="4" fill="white" stroke="black" />
<line x1="1562" y1="449" x2="1562" y2="591" stroke="black" />
<circle cx="1562" cy="591" r="4" fill="white" stroke="black" />
<text x="1562" y="603" font-family="Verdana" font-size="8" text-anchor="middle"  dominant-baseline="middle" fill="black" > 576</text>
<circle cx="1587" cy="445" r="4" fill="white" stroke="black" />
<line x1="1587" y1="449" x2="1587" y2="591" stroke="black" />
<circle cx="1587" cy="591" r="4" fill="white" stroke="black" />
<text x="1587" y="603" font-family="Verdana" font-size="8" text-anchor="middle"  dominant-baseline="middle" fill="black" > 576</text>
<text x="1700" y="7" font-family="Verdana" font-size="7" text-anchor="middle"  dominant-baseline="middle" fill="black" > C9</text>
<circle cx="1700" cy="15" r="4" fill="white" stroke="black" />
<line x1="1700" y1="19" x2="1700" y2="162" stroke="black" />
<line x1="1650" y1="162" x2="1750" y2="162" stroke="black" />
<text x="1725" y="154" font-family="Verdana" font-size="8" text-anchor="middle"  dominant-baseline="middle" fill="black" > 147</text>
<circle cx="1650" cy="162" r="4" fill="white" stroke="black" />
<line x1="1650" y1="166" x2="1650" y2="288" stroke="black" />
<line x1="1625" y1="288" x2="1675" y2="288" stroke="black" />
<text x="1662" y="280" font-family="Verdana" font-size="8" text-anchor="middle"  dominant-baseline="middle" fill="black" > 273</text>
<circle cx="1625" cy="288" r="4" fill="white" stroke="black" />
<line x1="1625" y1="292" x2="1625" y2="460" stroke="black" />
<line x1="1612" y1="460" x2="1638" y2="460" stroke="black" />
<text x="1631" y="452" font-family="Verdana" font-size="8" text-anchor="middle"  dominant-baseline="middle" fill="black" > 445</text>
<circle cx="1612" cy="460" r="4" fill="white" stroke="black" />
<line x1="1612" y1="464" x2="1612" y2="591" stroke="black" />
<circle cx="1612" cy="591" r="4" fill="white" stroke="black" />
<text x="1612" y="603" font-family="Verdana" font-size="8" text-anchor="middle"  dominant-baseline="middle" fill="black" > 576</text>
<circle cx="1637" cy="460" r="4" fill="white" stroke="black" />
<line x1="1637" y1="464" x2="1637" y2="591" stroke="black" />
<circle cx="1637" cy="591" r="4" fill="white" stroke="black" />
<text x="1637" y="603" font-family="Verdana" font-size="8" text-anchor="middle"  dominant-baseline="middle" fill="black" > 576</text>
<circle cx="1675" cy="288" r="4" fill="white" stroke="black" />
<line x1="1675" y1="292" x2="1675" y2="555" stroke="black" />
<line x1="1662" y1="555" x2="1688" y2="555" stroke="black" />
<text x="1681" y="547" font-family="Verdana" font-size="8" text-anchor="middle"  dominant-baseline="middle" fill="black" > 540</text>
<circle cx="1662" cy="555" r="4" fill="white" stroke="black" />
<line x1="1662" y1="559" x2="1662" y2="591" stroke="black" />
<circle cx="1662" cy="591" r="4" fill="white" stroke="black" />
<text x="1662" y="603" font-family="Verdana" font-size="8" text-anchor="middle"  dominant-baseline="middle" fill="black" > 576</text>
<circle cx="1687" cy="555" r="4" fill="white" stroke="black" />
<line x1="1687" y1="559" x2="1687" y2="591" stroke="black" />
<circle cx="1687" cy="591" r="4" fill="white" stroke="black" />
<text x="1687" y="603" font-family="Verdana" font-size="8" text-anchor="middle"  dominant-baseline="middle" fill="black" > 576</text>
<circle cx="1750" cy="162" r="4" fill="white" stroke="black" />
<line x1="1750" y1="166" x2="1750" y2="279" stroke="black" />
<line x1="1725" y1="279" x2="1775" y2="279" stroke="black" />
<text x="1762" y="271" font-family="Verdana" font-size="8" text-anchor="middle"  dominant-baseline="middle" fill="black" > 264</text>
<circle cx="1725" cy="279" r="4" fill="white" stroke="black" />
<line x1="1725" y1="283" x2="1725" y2="450" stroke="black" />
<line x1="1712" y1="450" x2="1738" y2="450" stroke="black" />
<text x="1731" y="442" font-family="Verdana" font-size="8" text-anchor="middle"  dominant-baseline="middle" fill="black" > 435</text>
<circle cx="1712" cy="450" r="4" fill="white" stroke="black" />
<line x1="1712" y1="454" x2="1712" y2="591" stroke="black" />
<circle cx="1712" cy="591" r="4" fill="white" stroke="black" />
<text x="1712" y="603" font-family="Verdana" font-size="8" text-anchor="middle"  dominant-baseline="middle" fill="black" > 576</text>
<circle cx="1737" cy="450" r="4" fill="white" stroke="black" />
<line x1="1737" y1="454" x2="1737" y2="591" stroke="black" />
<circle cx="1737" cy="591" r="4" fill="white" stroke="black" />
<text x="1737" y="603" font-family="Verdana" font-size="8" text-anchor="middle"  dominant-baseline="middle" fill="black" > 576</text>
<circle cx="1775" cy="279" r="4" fill="white" stroke="black" />
<line x1="1775" y1="283" x2="1775" y2="440" stroke="black" />
<line x1="1762" y1="440" x2="1788" y2="440" stroke="black" />
<text x="1781" y="432" font-family="Verdana" font-size="8" text-anchor="middle"  dominant-baseline="middle" fill="black" > 425</text>
<circle cx="1762" cy="440" r="4" fill="white" stroke="black" />
<line x1="1762" y1="444" x2="1762" y2="581" stroke="black" />
<line x1="1758" y1="577" x2="1766" y2="585" stroke="red" />
<line x1="1758" y1="585" x2="1766" y2="577" stroke="red" />
<text x="1762" y="593" font-family="Verdana" font-size="8" text-anchor="middle"  dominant-baseline="middle" fill="black" > 566</text>
<circle cx="1787" cy="440" r="4" fill="white" stroke="black" />
<line x1="1787" y1="444" x2="1787" y2="558" stroke="black" />
<line x1="1783" y1="554" x2="1791" y2="562" stroke="red" />
<line x1="1783" y1="562" x2="1791" y2="554" stroke="red" />
<text x="1787" y="570" font-family="Verdana" font-size="8" text-anchor="middle"  dominant-baseline="middle" fill="black" > 543</text>
</svg>
