<?xml version="1.0" encoding="utf-8"?>
<svg xmlns="http://www.w3.org/2000/svg" version="1.1" width="1850" height="750">
<rect width="1850" height="15" x="0" y="0" fill="white" />
<rect width="1850" height="15" x="0" y="735" fill="white" />
<rect width="25" height="750" x="0" y="0" fill="white" />
<rect width="25" height="750" x="1825" y="0" fill="white" />
<rect width="1810" height="144" x="25" y="15" fill="ghostwhite" />
<rect width="1810" height="144" x="25" y="159" fill="snow" />
<rect width="1810" height="144" x="25" y="303" fill="ghostwhite" />
<rect width="1810" height="144" x="25" y="447" fill="snow" />
<rect width="1810" height="144" x="25" y="591" fill="ghostwhite" />
<text x="12" y="87" font-family="Verdana" font-size="10" text-anchor="middle"  dominant-baseline="middle" fill="red" > D0</text>
<text x="12" y="231" font-family="Verdana" font-size="10" text-anchor="middle"  dominant-baseline="middle" fill="red" > D1</text>
<text x="12" y="375" font-family="Verdana" font-size="10" text-anchor="middle"  dominant-baseline="middle" fill="red" > D2</text>
<text x="12" y="519" font-family="Verdana" font-size="10" text-anchor="middle"  dominant-baseline="middle" fill="red" > D3</text>
<text x="12" y="663" font-family="Verdana" font-size="10" text-anchor="middle"  dominant-baseline="middle" fill="red" > D4</text>
<text x="12" y="20" font-family="Verdana" font-size="10" text-anchor="middle"  dominant-baseline="middle" fill="black" > 0</text>
<text x="12" y="164" font-family="Verdana" font-size="10" text-anchor="middle"  dominant-baseline="middle" fill="black" > 144</text>
<text x="12" y="308" font-family="Verdana" font-size="10" text-anchor="middle"  dominant-baseline="middle" fill="black" > 288</text>
<text x="12" y="452" font-family="Verdana" font-size="10" text-anchor="middle"  dominant-baseline="middle" fill="black" > 432</text>
<text x="12" y="596" font-family="Verdana" font-size="10" text-anchor="middle"  dominant-baseline="middle" fill="black" > 576</text>
<text x="12" y="740" font-family="Verdana" font-size="10" text-anchor="middle"  dominant-baseline="middle" fill="black" > 720</text>
<text x="100" y="7" font-family="Verdana" font-size="7" text-anchor="middle"  dominant-baseline="middle" fill="black" > C1</text>
<circle cx="100" cy="15" r="4" fill="white" stroke="black" />
<line x1="100" y1="19" x2="100" y2="128" stroke="black" />
<line x1="50" y1="128" x2="150" y2="128" stroke="black" />
<text x="125" y="120" font-family="Verdana" font-size="8" text-anchor="middle"  dominant-baseline="middle" fill="black" > 113</text>
<circle cx="50" cy="128" r="4" fill="white" stroke="black" />
<line x1="50" y1="132" x2="50" y2="308" stroke="black" />
<line x1="25" y1="308" x2="75" y2="308" stroke="black" />
<text x="62" y="300" font-family="Verdana" font-size="8" text-anchor="middle"  dominant-baseline="middle" fill="black" > 293</text>
<circle cx="25" cy="308" r="4" fill="white" stroke="black" />
<line x1="25" y1="312" x2="25" y2="591" stroke="black" />
<circle cx="25" cy="591" r="4" fill="white" stroke="black" />
<text x="25" y="603" font-family="Verdana" font-size="8" text-anchor="middle"  dominant-baseline="middle" fill="black" > 576</text>
<circle cx="75" cy="308" r="4" fill="white" stroke="black" />
<line x1="75" y1="312" x2="75" y2="591" stroke="black" />
<circle cx="75" cy="591" r="4" fill="white" stroke="black" />
<text x="75" y="603" font-family="Verdana" font-size="8" text-anchor="middle"  dominant-baseline="middle" fill="black" > 576</text>
<circle cx="150" cy="128" r="4" fill="white" stroke="black" />
<line x1="150" y1="132" x2="150" y2="306" stroke="black" />
<line x1="125" y1="306" x2="175" y2="306" stroke="black" />
<text x="162" y="298" font-family="Verdana" font-size="8" text-anchor="middle"  dominant-baseline="middle" fill="black" > 291</text>
<circle cx="125" cy="306" r="4" fill="white" stroke="black" />
<line x1="125" y1="310" x2="125" y2="591" stroke="black" />
<circle cx="125" cy="591" r="4" fill="white" stroke="black" />
<text x="125" y="603" font-family="Verdana" font-size="8" text-anchor="middle"  dominant-baseline="middle" fill="black" > 576</text>
<circle cx="175" cy="306" r="4" fill="white" stroke="black" />
<line x1="175" y1="310" x2="175" y2="591" stroke="black" />
<circle cx="175" cy="591" r="4" fill="white" stroke="black" />
<text x="175" y="603" font-family="Verdana" font-size="8" text-anchor="middle"  dominant-baseline="middle" fill="black" > 576</text>
<text x="350" y="7" font-family="Verdana" font-size="7" text-anchor="middle"  dominant-baseline="middle" fill="black" > C2</text>
<circle cx="350" cy="15" r="4" fill="white" stroke="black" />
<line x1="350" y1="19" x2="350" y2="114" stroke="black" />
<line x1="250" y1="114" x2="450" y2="114" stroke="black" />
<text x="375" y="106" font-family="Verdana" font-size="8" text-anchor="middle"  dominant-baseline="middle" fill="black" > 99</text>
<circle cx="250" cy="114" r="4" fill="white" stroke="black" />
<circle cx="350" cy="114" r="4" fill="white" stroke="black" />
<line x1="250" y1="118" x2="250" y2="125" stroke="black" />
<line x1="250" y1="125" x2="300" y2="128" stroke="black" />
<line x1="350" y1="118" x2="350" y2="125" stroke="black" />
<line x1="350" y1="125" x2="300" y2="128" stroke="black" />
<text x="300" y="116" font-family="Verdana" font-size="8" text-anchor="middle"  dominant-baseline="middle" fill="black" > 113</text>
<circle cx="300" cy="128" r="4" fill="white" stroke="black" />
<line x1="300" y1="132" x2="300" y2="474" stroke="black" />
<line x1="260" y1="474" x2="340" y2="474" stroke="black" />
<text x="305" y="466" font-family="Verdana" font-size="8" text-anchor="middle"  dominant-baseline="middle" fill="black" > 459</text>
<circle cx="260" cy="474" r="4" fill="white" stroke="black" />
<circle cx="280" cy="474" r="4" fill="white" stroke="black" />
<line x1="260" y1="478" x2="260" y2="477" stroke="black" />
<line x1="260" y1="477" x2="270" y2="477" stroke="black" />
<line x1="280" y1="478" x2="280" y2="477" stroke="black" />
<line x1="280" y1="477" x2="270" y2="477" stroke="black" />
<text x="270" y="465" font-family="Verdana" font-size="8" text-anchor="middle"  dominant-baseline="middle" fill="black" > 462</text>
<circle cx="270" cy="477" r="4" fill="white" stroke="black" />
<circle cx="300" cy="474" r="4" fill="white" stroke="black" />
<line x1="270" y1="481" x2="270" y2="489" stroke="black" />
<line x1="270" y1="489" x2="285" y2="493" stroke="black" />
<line x1="300" y1="478" x2="300" y2="489" stroke="black" />
<line x1="300" y1="489" x2="285" y2="493" stroke="black" />
<text x="285" y="481" font-family="Verdana" font-size="8" text-anchor="middle"  dominant-baseline="middle" fill="black" > 478</text>
<circle cx="285" cy="493" r="4" fill="white" stroke="black" />
<circle cx="320" cy="474" r="4" fill="white" stroke="black" />
<circle cx="340" cy="474" r="4" fill="white" stroke="black" />
<line x1="285" y1="497" x2="285" y2="498" stroke="black" />
<line x1="285" y1="498" x2="312" y2="499" stroke="black" />
<line x1="320" y1="478" x2="320" y2="498" stroke="black" />
<line x1="320" y1="498" x2="312" y2="499" stroke="black" />
<line x1="340" y1="478" x2="340" y2="498" stroke="black" />
<line x1="340" y1="498" x2="312" y2="499" stroke="black" />
<text x="312" y="487" font-family="Verdana" font-size="8" text-anchor="middle"  dominant-baseline="middle" fill="black" > 484</text>
<circle cx="312" cy="499" r="4" fill="white" stroke="black" />
<line x1="312" y1="503" x2="312" y2="591" stroke="black" />
<circle cx="312" cy="591" r="4" fill="white" stroke="black" />
<text x="312" y="603" font-family="Verdana" font-size="8" text-anchor="middle"  dominant-baseline="middle" fill="black" > 576</text>
<circle cx="450" cy="114" r="4" fill="white" stroke="black" />
<line x1="450" y1="118" x2="450" y2="364" stroke="black" />
<line x1="425" y1="364" x2="475" y2="364" stroke="black" />
<text x="462" y="356" font-family="Verdana" font-size="8" text-anchor="middle"  dominant-baseline="middle" fill="black" > 349</text>
<circle cx="425" cy="364" r="4" fill="white" stroke="black" />
<line x1="425" y1="368" x2="425" y2="419" stroke="black" />
<line x1="421" y1="415" x2="429" y2="423" stroke="red" />
<line x1="421" y1="423" x2="429" y2="415" stroke="red" />
<text x="425" y="431" font-family="Verdana" font-size="8" text-anchor="middle"  dominant-baseline="middle" fill="black" > 404</text>
<circle cx="475" cy="364" r="4" fill="white" stroke="black" />
<line x1="475" y1="368" x2="475" y2="591" stroke="black" />
<circle cx="475" cy="591" r="4" fill="white" stroke="black" />
<text x="475" y="603" font-family="Verdana" font-size="8" text-anchor="middle"  dominant-baseline="middle" fill="black" > 576</text>
<text x="600" y="7" font-family="Verdana" font-size="7" text-anchor="middle"  dominant-baseline="middle" fill="black" > C3</text>
<circle cx="600" cy="15" r="4" fill="white" stroke="black" />
<line x1="600" y1="19" x2="600" y2="225" stroke="black" />
<line x1="550" y1="225" x2="650" y2="225" stroke="black" />
<text x="625" y="217" font-family="Verdana" font-size="8" text-anchor="middle"  dominant-baseline="middle" fill="black" > 210</text>
<circle cx="550" cy="225" r="4" fill="white" stroke="black" />
<line x1="550" y1="229" x2="550" y2="401" stroke="black" />
<line x1="525" y1="401" x2="575" y2="401" stroke="black" />
<text x="562" y="393" font-family="Verdana" font-size="8" text-anchor="middle"  dominant-baseline="middle" fill="black" > 386</text>
<circle cx="525" cy="401" r="4" fill="white" stroke="black" />
<line x1="525" y1="405" x2="525" y2="591" stroke="black" />
<circle cx="525" cy="591" r="4" fill="white" stroke="black" />
<text x="525" y="603" font-family="Verdana" font-size="8" text-anchor="middle"  dominant-baseline="middle" fill="black" > 576</text>
<circle cx="575" cy="401" r="4" fill="white" stroke="black" />
<line x1="575" y1="405" x2="575" y2="591" stroke="black" />
<circle cx="575" cy="591" r="4" fill="white" stroke="black" />
<text x="575" y="603" font-family="Verdana" font-size="8" text-anchor="middle"  dominant-baseline="middle" fill="black" > 576</text>
<circle cx="650" cy="225" r="4" fill="white" stroke="black" />
<line x1="650" y1="229" x2="650" y2="380" stroke="black" />
<line x1="625" y1="380" x2="675" y2="380" stroke="black" />
<text x="662" y="372" font-family="Verdana" font-size="8" text-anchor="middle"  dominant-baseline="middle" fill="black" > 365</text>
<circle cx="625" cy="380" r="4" fill="white" stroke="black" />
<line x1="625" y1="384" x2="625" y2="591" stroke="black" />
<circle cx="625" cy="591" r="4" fill="white" stroke="black" />
<text x="625" y="603" font-family="Verdana" font-size="8" text-anchor="middle"  dominant-baseline="middle" fill="black" > 576</text>
<circle cx="675" cy="380" r="4" fill="white" stroke="black" />
<line x1="675" y1="384" x2="675" y2="562" stroke="black" />
<line x1="662" y1="562" x2="688" y2="562" stroke="black" />
<text x="681" y="554" font-family="Verdana" font-size="8" text-anchor="middle"  dominant-baseline="middle" fill="black" > 547</text>
<circle cx="662" cy="562" r="4" fill="white" stroke="black" />
<line x1="662" y1="566" x2="662" y2="591" stroke="black" />
<circle cx="662" cy="591" r="4" fill="white" stroke="black" />
<text x="662" y="603" font-family="Verdana" font-size="8" text-anchor="middle"  dominant-baseline="middle" fill="black" > 576</text>
<circle cx="687" cy="562" r="4" fill="white" stroke="black" />
<line x1="687" y1="566" x2="687" y2="591" stroke="black" />
<circle cx="687" cy="591" r="4" fill="white" stroke="black" />
<text x="687" y="603" font-family="Verdana" font-size="8" text-anchor="middle"  dominant-baseline="middle" fill="black" > 576</text>
<text x="800" y="7" font-family="Verdana" font-size="7" text-anchor="middle"  dominant-baseline="middle" fill="black" > C4</text>
<circle cx="800" cy="15" r="4" fill="white" stroke="black" />
<line x1="800" y1="19" x2="800" y2="206" stroke="black" />
<line x1="750" y1="206" x2="850" y2="206" stroke="black" />
<text x="825" y="198" font-family="Verdana" font-size="8" text-anchor="middle"  dominant-baseline="middle" fill="black" > 191</text>
<circle cx="750" cy="206" r="4" fill="white" stroke="black" />
<line x1="750" y1="210" x2="750" y2="343" stroke="black" />
<line x1="725" y1="343" x2="775" y2="343" stroke="black" />
<text x="762" y="335" font-family="Verdana" font-size="8" text-anchor="middle"  dominant-baseline="middle" fill="black" > 328</text>
<circle cx="725" cy="343" r="4" fill="white" stroke="black" />
<line x1="725" y1="347" x2="725" y2="509" stroke="black" />
<line x1="712" y1="509" x2="738" y2="509" stroke="black" />
<text x="731" y="501" font-family="Verdana" font-size="8" text-anchor="middle"  dominant-baseline="middle" fill="black" > 494</text>
<circle cx="712" cy="509" r="4" fill="white" stroke="black" />
<line x1="712" y1="513" x2="712" y2="591" stroke="black" />
<circle cx="712" cy="591" r="4" fill="white" stroke="black" />
<text x="712" y="603" font-family="Verdana" font-size="8" text-anchor="middle"  dominant-baseline="middle" fill="black" > 576</text>
<circle cx="737" cy="509" r="4" fill="white" stroke="black" />
<line x1="737" y1="513" x2="737" y2="591" stroke="black" />
<circle cx="737" cy="591" r="4" fill="white" stroke="black" />
<text x="737" y="603" font-family="Verdana" font-size="8" text-anchor="middle"  dominant-baseline="middle" fill="black" > 576</text>
<circle cx="775" cy="343" r="4" fill="white" stroke="black" />
<line x1="775" y1="347" x2="775" y2="536" stroke="black" />
<line x1="762" y1="536" x2="788" y2="536" stroke="black" />
<text x="781" y="528" font-family="Verdana" font-size="8" text-anchor="middle"  dominant-baseline="middle" fill="black" > 521</text>
<circle cx="762" cy="536" r="4" fill="white" stroke="black" />
<line x1="762" y1="540" x2="762" y2="591" stroke="black" />
<circle cx="762" cy="591" r="4" fill="white" stroke="black" />
<text x="762" y="603" font-family="Verdana" font-size="8" text-anchor="middle"  dominant-baseline="middle" fill="black" > 576</text>
<circle cx="787" cy="536" r="4" fill="white" stroke="black" />
<line x1="787" y1="540" x2="787" y2="591" stroke="black" />
<circle cx="787" cy="591" r="4" fill="white" stroke="black" />
<text x="787" y="603" font-family="Verdana" font-size="8" text-anchor="middle"  dominant-baseline="middle" fill="black" > 576</text>
<circle cx="850" cy="206" r="4" fill="white" stroke="black" />
<line x1="850" y1="210" x2="850" y2="367" stroke="black" />
<line x1="825" y1="367" x2="875" y2="367" stroke="black" />
<text x="862" y="359" font-family="Verdana" font-size="8" text-anchor="middle"  dominant-baseline="middle" fill="black" > 352</text>
<circle cx="825" cy="367" r="4" fill="white" stroke="black" />
<line x1="825" y1="371" x2="825" y2="485" stroke="black" />
<line x1="812" y1="485" x2="838" y2="485" stroke="black" />
<text x="831" y="477" font-family="Verdana" font-size="8" text-anchor="middle"  dominant-baseline="middle" fill="black" > 470</text>
<circle cx="812" cy="485" r="4" fill="white" stroke="black" />
<line x1="812" y1="489" x2="812" y2="591" stroke="black" />
<circle cx="812" cy="591" r="4" fill="white" stroke="black" />
<text x="812" y="603" font-family="Verdana" font-size="8" text-anchor="middle"  dominant-baseline="middle" fill="black" > 576</text>
<circle cx="837" cy="485" r="4" fill="white" stroke="black" />
<line x1="837" y1="489" x2="837" y2="591" stroke="black" />
<circle cx="837" cy="591" r="4" fill="white" stroke="black" />
<text x="837" y="603" font-family="Verdana" font-size="8" text-anchor="middle"  dominant-baseline="middle" fill="black" > 576</text>
<circle cx="875" cy="367" r="4" fill="white" stroke="black" />
<line x1="875" y1="371" x2="875" y2="510" stroke="black" />
<line x1="862" y1="510" x2="888" y2="510" stroke="black" />
<text x="881" y="502" font-family="Verdana" font-size="8" text-anchor="middle"  dominant-baseline="middle" fill="black" > 495</text>
<circle cx="862" cy="510" r="4" fill="white" stroke="black" />
<line x1="862" y1="514" x2="862" y2="591" stroke="black" />
<circle cx="862" cy="591" r="4" fill="white" stroke="black" />
<text x="862" y="603" font-family="Verdana" font-size="8" text-anchor="middle"  dominant-baseline="middle" fill="black" > 576</text>
<circle cx="887" cy="510" r="4" fill="white" stroke="black" />
<line x1="887" y1="514" x2="887" y2="591" stroke="black" />
<circle cx="887" cy="591" r="4" fill="white" stroke="black" />
<text x="887" y="603" font-family="Verdana" font-size="8" text-anchor="middle"  dominant-baseline="middle" fill="black" > 576</text>
<text x="1000" y="7" font-family="Verdana" font-size="7" text-anchor="middle"  dominant-baseline="middle" fill="black" > C5</text>
<circle cx="1000" cy="15" r="4" fill="white" stroke="black" />
<line x1="1000" y1="19" x2="1000" y2="197" stroke="black" />
<line x1="950" y1="197" x2="1050" y2="197" stroke="black" />
<text x="1025" y="189" font-family="Verdana" font-size="8" text-anchor="middle"  dominant-baseline="middle" fill="black" > 182</text>
<circle cx="950" cy="197" r="4" fill="white" stroke="black" />
<line x1="950" y1="201" x2="950" y2="449" stroke="black" />
<line x1="946" y1="445" x2="954" y2="453" stroke="red" />
<line x1="946" y1="453" x2="954" y2="445" stroke="red" />
<text x="950" y="461" font-family="Verdana" font-size="8" text-anchor="middle"  dominant-baseline="middle" fill="black" > 434</text>
<circle cx="1050" cy="197" r="4" fill="white" stroke="black" />
<line x1="1050" y1="201" x2="1050" y2="331" stroke="black" />
<line x1="1025" y1="331" x2="1075" y2="331" stroke="black" />
<text x="1062" y="323" font-family="Verdana" font-size="8" text-anchor="middle"  dominant-baseline="middle" fill="black" > 316</text>
<circle cx="1025" cy="331" r="4" fill="white" stroke="black" />
<line x1="1025" y1="335" x2="1025" y2="492" stroke="black" />
<line x1="1012" y1="492" x2="1038" y2="492" stroke="black" />
<text x="1031" y="484" font-family="Verdana" font-size="8" text-anchor="middle"  dominant-baseline="middle" fill="black" > 477</text>
<circle cx="1012" cy="492" r="4" fill="white" stroke="black" />
<line x1="1012" y1="496" x2="1012" y2="591" stroke="black" />
<circle cx="1012" cy="591" r="4" fill="white" stroke="black" />
<text x="1012" y="603" font-family="Verdana" font-size="8" text-anchor="middle"  dominant-baseline="middle" fill="black" > 576</text>
<circle cx="1037" cy="492" r="4" fill="white" stroke="black" />
<line x1="1037" y1="496" x2="1037" y2="554" stroke="black" />
<line x1="1031" y1="554" x2="1044" y2="554" stroke="black" />
<text x="1040" y="546" font-family="Verdana" font-size="8" text-anchor="middle"  dominant-baseline="middle" fill="black" > 539</text>
<circle cx="1031" cy="554" r="4" fill="white" stroke="black" />
<line x1="1031" y1="558" x2="1031" y2="591" stroke="black" />
<circle cx="1031" cy="591" r="4" fill="white" stroke="black" />
<text x="1031" y="603" font-family="Verdana" font-size="8" text-anchor="middle"  dominant-baseline="middle" fill="black" > 576</text>
<circle cx="1043" cy="554" r="4" fill="white" stroke="black" />
<line x1="1043" y1="558" x2="1043" y2="591" stroke="black" />
<circle cx="1043" cy="591" r="4" fill="white" stroke="black" />
<text x="1043" y="603" font-family="Verdana" font-size="8" text-anchor="middle"  dominant-baseline="middle" fill="black" > 576</text>
<circle cx="1075" cy="331" r="4" fill="white" stroke="black" />
<line x1="1075" y1="335" x2="1075" y2="591" stroke="black" />
<circle cx="1075" cy="591" r="4" fill="white" stroke="black" />
<text x="1075" y="603" font-family="Verdana" font-size="8" text-anchor="middle"  dominant-baseline="middle" fill="black" > 576</text>
<text x="1250" y="7" font-family="Verdana" font-size="7" text-anchor="middle"  dominant-baseline="middle" fill="black" > C6</text>
<circle cx="1250" cy="15" r="4" fill="white" stroke="black" />
<line x1="1250" y1="19" x2="1250" y2="263" stroke="black" />
<line x1="1150" y1="263" x2="1350" y2="263" stroke="black" />
<text x="1275" y="255" font-family="Verdana" font-size="8" text-anchor="middle"  dominant-baseline="middle" fill="black" > 248</text>
<circle cx="1150" cy="263" r="4" fill="white" stroke="black" />
<circle cx="1250" cy="263" r="4" fill="white" stroke="black" />
<circle cx="1350" cy="263" r="4" fill="white" stroke="black" />
<line x1="1350" y1="267" x2="1350" y2="386" stroke="black" />
<line x1="1325" y1="386" x2="1375" y2="386" stroke="black" />
<text x="1362" y="378" font-family="Verdana" font-size="8" text-anchor="middle"  dominant-baseline="middle" fill="black" > 371</text>
<circle cx="1325" cy="386" r="4" fill="white" stroke="black" />
<line x1="1150" y1="267" x2="1150" y2="439" stroke="black" />
<line x1="1150" y1="439" x2="1237" y2="456" stroke="black" />
<line x1="1250" y1="267" x2="1250" y2="439" stroke="black" />
<line x1="1250" y1="439" x2="1237" y2="456" stroke="black" />
<line x1="1325" y1="390" x2="1325" y2="439" stroke="black" />
<line x1="1325" y1="439" x2="1237" y2="456" stroke="black" />
<text x="1237" y="444" font-family="Verdana" font-size="8" text-anchor="middle"  dominant-baseline="middle" fill="black" > 441</text>
<circle cx="1237" cy="456" r="4" fill="white" stroke="black" />
<line x1="1237" y1="460" x2="1237" y2="540" stroke="black" />
<line x1="1233" y1="536" x2="1241" y2="544" stroke="red" />
<line x1="1233" y1="544" x2="1241" y2="536" stroke="red" />
<text x="1237" y="552" font-family="Verdana" font-size="8" text-anchor="middle"  dominant-baseline="middle" fill="black" > 525</text>
<circle cx="1375" cy="386" r="4" fill="white" stroke="black" />
<line x1="1375" y1="390" x2="1375" y2="539" stroke="black" />
<line x1="1362" y1="539" x2="1388" y2="539" stroke="black" />
<text x="1381" y="531" font-family="Verdana" font-size="8" text-anchor="middle"  dominant-baseline="middle" fill="black" > 524</text>
<circle cx="1362" cy="539" r="4" fill="white" stroke="black" />
<line x1="1362" y1="543" x2="1362" y2="591" stroke="black" />
<circle cx="1362" cy="591" r="4" fill="white" stroke="black" />
<text x="1362" y="603" font-family="Verdana" font-size="8" text-anchor="middle"  dominant-baseline="middle" fill="black" > 576</text>
<circle cx="1387" cy="539" r="4" fill="white" stroke="black" />
<line x1="1387" y1="543" x2="1387" y2="591" stroke="black" />
<circle cx="1387" cy="591" r="4" fill="white" stroke="black" />
<text x="1387" y="603" font-family="Verdana" font-size="8" text-anchor="middle"  dominant-baseline="middle" fill="black" > 576</text>
<text x="1500" y="7" font-family="Verdana" font-size="7" text-anchor="middle"  dominant-baseline="middle" fill="black" > C7</text>
<circle cx="1500" cy="15" r="4" fill="white" stroke="black" />
<line x1="1500" y1="19" x2="1500" y2="216" stroke="black" />
<line x1="1450" y1="216" x2="1550" y2="216" stroke="black" />
<text x="1525" y="208" font-family="Verdana" font-size="8" text-anchor="middle"  dominant-baseline="middle" fill="black" > 201</text>
<circle cx="1450" cy="216" r="4" fill="white" stroke="black" />
<line x1="1450" y1="220" x2="1450" y2="373" stroke="black" />
<line x1="1425" y1="373" x2="1475" y2="373" stroke="black" />
<text x="1462" y="365" font-family="Verdana" font-size="8" text-anchor="middle"  dominant-baseline="middle" fill="black" > 358</text>
<circle cx="1425" cy="373" r="4" fill="white" stroke="black" />
<line x1="1425" y1="377" x2="1425" y2="515" stroke="black" />
<line x1="1412" y1="515" x2="1438" y2="515" stroke="black" />
<text x="1431" y="507" font-family="Verdana" font-size="8" text-anchor="middle"  dominant-baseline="middle" fill="black" > 500</text>
<circle cx="1412" cy="515" r="4" fill="white" stroke="black" />
<line x1="1412" y1="519" x2="1412" y2="591" stroke="black" />
<circle cx="1412" cy="591" r="4" fill="white" stroke="black" />
<text x="1412" y="603" font-family="Verdana" font-size="8" text-anchor="middle"  dominant-baseline="middle" fill="black" > 576</text>
<circle cx="1437" cy="515" r="4" fill="white" stroke="black" />
<line x1="1437" y1="519" x2="1437" y2="591" stroke="black" />
<circle cx="1437" cy="591" r="4" fill="white" stroke="black" />
<text x="1437" y="603" font-family="Verdana" font-size="8" text-anchor="middle"  dominant-baseline="middle" fill="black" > 576</text>
<circle cx="1475" cy="373" r="4" fill="white" stroke="black" />
<line x1="1475" y1="377" x2="1475" y2="539" stroke="black" />
<line x1="1462" y1="539" x2="1488" y2="539" stroke="black" />
<text x="1481" y="531" font-family="Verdana" font-size="8" text-anchor="middle"  dominant-baseline="middle" fill="black" > 524</text>
<circle cx="1462" cy="539" r="4" fill="white" stroke="black" />
<line x1="1462" y1="543" x2="1462" y2="591" stroke="black" />
<circle cx="1462" cy="591" r="4" fill="white" stroke="black" />
<text x="1462" y="603" font-family="Verdana" font-size="8" text-anchor="middle"  dominant-baseline="middle" fill="black" > 576</text>
<circle cx="1487" cy="539" r="4" fill="white" stroke="black" />
<line x1="1487" y1="543" x2="1487" y2="591" stroke="black" />
<circle cx="1487" cy="591" r="4" fill="white" stroke="black" />
<text x="1487" y="603" font-family="Verdana" font-size="8" text-anchor="middle"  dominant-baseline="middle" fill="black" > 576</text>
<circle cx="1550" cy="216" r="4" fill="white" stroke="black" />
<line x1="1550" y1="220" x2="1550" y2="368" stroke="black" />
<line x1="1525" y1="368" x2="1575" y2="368" stroke="black" />
<text x="1562" y="360" font-family="Verdana" font-size="8" text-anchor="middle"  dominant-baseline="middle" fill="black" > 353</text>
<circle cx="1525" cy="368" r="4" fill="white" stroke="black" />
<line x1="1525" y1="372" x2="1525" y2="526" stroke="black" />
<line x1="1512" y1="526" x2="1538" y2="526" stroke="black" />
<text x="1531" y="518" font-family="Verdana" font-size="8" text-anchor="middle"  dominant-baseline="middle" fill="black" > 511</text>
<circle cx="1512" cy="526" r="4" fill="white" stroke="black" />
<line x1="1512" y1="530" x2="1512" y2="591" stroke="black" />
<circle cx="1512" cy="591" r="4" fill="white" stroke="black" />
<text x="1512" y="603" font-family="Verdana" font-size="8" text-anchor="middle"  dominant-baseline="middle" fill="black" > 576</text>
<circle cx="1537" cy="526" r="4" fill="white" stroke="black" />
<line x1="1537" y1="530" x2="1537" y2="591" stroke="black" />
<circle cx="1537" cy="591" r="4" fill="white" stroke="black" />
<text x="1537" y="603" font-family="Verdana" font-size="8" text-anchor="middle"  dominant-baseline="middle" fill="black" > 576</text>
<circle cx="1575" cy="368" r="4" fill="white" stroke="black" />
<line x1="1575" y1="372" x2="1575" y2="521" stroke="black" />
<line x1="1562" y1="521" x2="1588" y2="521" stroke="black" />
<text x="1581" y="513" font-family="Verdana" font-size="8" text-anchor="middle"  dominant-baseline="middle" fill="black" > 506</text>
<circle cx="1562" cy="521" r="4" fill="white" stroke="black" />
<line x1="1562" y1="525" x2="1562" y2="591" stroke="black" />
<circle cx="1562" cy="591" r="4" fill="white" stroke="black" />
<text x="1562" y="603" font-family="Verdana" font-size="8" text-anchor="middle"  dominant-baseline="middle" fill="black" > 576</text>
<circle cx="1587" cy="521" r="4" fill="white" stroke="black" />
<line x1="1587" y1="525" x2="1587" y2="591" stroke="black" />
<circle cx="1587" cy="591" r="4" fill="white" stroke="black" />
<text x="1587" y="603" font-family="Verdana" font-size="8" text-anchor="middle"  dominant-baseline="middle" fill="black" > 576</text>
<text x="1700" y="7" font-family="Verdana" font-size="7" text-anchor="middle"  dominant-baseline="middle" fill="black" > C8</text>
<circle cx="1700" cy="15" r="4" fill="white" stroke="black" />
<line x1="1700" y1="19" x2="1700" y2="180" stroke="black" />
<line x1="1650" y1="180" x2="1750" y2="180" stroke="black" />
<text x="1725" y="172" font-family="Verdana" font-size="8" text-anchor="middle"  dominant-baseline="middle" fill="black" > 165</text>
<circle cx="1650" cy="180" r="4" fill="white" stroke="black" />
<line x1="1650" y1="184" x2="1650" y2="349" stroke="black" />
<line x1="1625" y1="349" x2="1675" y2="349" stroke="black" />
<text x="1662" y="341" font-family="Verdana" font-size="8" text-anchor="middle"  dominant-baseline="middle" fill="black" > 334</text>
<circle cx="1625" cy="349" r="4" fill="white" stroke="black" />
<line x1="1625" y1="353" x2="1625" y2="591" stroke="black" />
<circle cx="1625" cy="591" r="4" fill="white" stroke="black" />
<text x="1625" y="603" font-family="Verdana" font-size="8" text-anchor="middle"  dominant-baseline="middle" fill="black" > 576</text>
<circle cx="1675" cy="349" r="4" fill="white" stroke="black" />
<line x1="1675" y1="353" x2="1675" y2="492" stroke="black" />
<line x1="1662" y1="492" x2="1688" y2="492" stroke="black" />
<text x="1681" y="484" font-family="Verdana" font-size="8" text-anchor="middle"  dominant-baseline="middle" fill="black" > 477</text>
<circle cx="1662" cy="492" r="4" fill="white" stroke="black" />
<line x1="1662" y1="496" x2="1662" y2="591" stroke="black" />
<circle cx="1662" cy="591" r="4" fill="white" stroke="black" />
<text x="1662" y="603" font-family="Verdana" font-size="8" text-anchor="middle"  dominant-baseline="middle" fill="black" > 576</text>
<circle cx="1687" cy="492" r="4" fill="white" stroke="black" />
<line x1="1687" y1="496" x2="1687" y2="591" stroke="black" />
<circle cx="1687" cy="591" r="4" fill="white" stroke="black" />
<text x="1687" y="603" font-family="Verdana" font-size="8" text-anchor="middle"  dominant-baseline="middle" fill="black" > 576</text>
<circle cx="1750" cy="180" r="4" fill="white" stroke="black" />
<line x1="1750" y1="184" x2="1750" y2="351" stroke="black" />
<line x1="1725" y1="351" x2="1775" y2="351" stroke="black" />
<text x="1762" y="343" font-family="Verdana" font-size="8" text-anchor="middle"  dominant-baseline="middle" fill="black" > 336</text>
<circle cx="1725" cy="351" r="4" fill="white" stroke="black" />
<line x1="1725" y1="355" x2="1725" y2="491" stroke="black" />
<line x1="1712" y1="491" x2="1738" y2="491" stroke="black" />
<text x="1731" y="483" font-family="Verdana" font-size="8" text-anchor="middle"  dominant-baseline="middle" fill="black" > 476</text>
<circle cx="1712" cy="491" r="4" fill="white" stroke="black" />
<line x1="1712" y1="495" x2="1712" y2="591" stroke="black" />
<circle cx="1712" cy="591" r="4" fill="white" stroke="black" />
<text x="1712" y="603" font-family="Verdana" font-size="8" text-anchor="middle"  dominant-baseline="middle" fill="black" > 576</text>
<circle cx="1737" cy="491" r="4" fill="white" stroke="black" />
<line x1="1737" y1="495" x2="1737" y2="591" stroke="black" />
<circle cx="1737" cy="591" r="4" fill="white" stroke="black" />
<text x="1737" y="603" font-family="Verdana" font-size="8" text-anchor="middle"  dominant-baseline="middle" fill="black" > 576</text>
<circle cx="1775" cy="351" r="4" fill="white" stroke="black" />
<line x1="1775" y1="355" x2="1775" y2="526" stroke="black" />
<line x1="1762" y1="526" x2="1788" y2="526" stroke="black" />
<text x="1781" y="518" font-family="Verdana" font-size="8" text-anchor="middle"  dominant-baseline="middle" fill="black" > 511</text>
<circle cx="1762" cy="526" r="4" fill="white" stroke="black" />
<line x1="1762" y1="530" x2="1762" y2="591" stroke="black" />
<circle cx="1762" cy="591" r="4" fill="white" stroke="black" />
<text x="1762" y="603" font-family="Verdana" font-size="8" text-anchor="middle"  dominant-baseline="middle" fill="black" > 576</text>
<circle cx="1787" cy="526" r="4" fill="white" stroke="black" />
<line x1="1787" y1="530" x2="1787" y2="591" stroke="black" />
<circle cx="1787" cy="591" r="4" fill="white" stroke="black" />
<text x="1787" y="603" font-family="Verdana" font-size="8" text-anchor="middle"  dominant-baseline="middle" fill="black" > 576</text>
</svg>
