<?xml version="1.0" encoding="utf-8"?>
<svg xmlns="http://www.w3.org/2000/svg" version="1.1" width="950" height="750">
<rect width="950" height="15" x="0" y="0" fill="white" />
<rect width="950" height="15" x="0" y="735" fill="white" />
<rect width="25" height="750" x="0" y="0" fill="white" />
<rect width="25" height="750" x="925" y="0" fill="white" />
<rect width="910" height="144" x="25" y="15" fill="ghostwhite" />
<rect width="910" height="144" x="25" y="159" fill="snow" />
<rect width="910" height="144" x="25" y="303" fill="ghostwhite" />
<rect width="910" height="144" x="25" y="447" fill="snow" />
<rect width="910" height="144" x="25" y="591" fill="ghostwhite" />
<text x="12" y="87" font-family="Verdana" font-size="10" text-anchor="middle"  dominant-baseline="middle" fill="red" > D0</text>
<text x="12" y="231" font-family="Verdana" font-size="10" text-anchor="middle"  dominant-baseline="middle" fill="red" > D1</text>
<text x="12" y="375" font-family="Verdana" font-size="10" text-anchor="middle"  dominant-baseline="middle" fill="red" > D2</text>
<text x="12" y="519" font-family="Verdana" font-size="10" text-anchor="middle"  dominant-baseline="middle" fill="red" > D3</text>
<text x="12" y="663" font-family="Verdana" font-size="10" text-anchor="middle"  dominant-baseline="middle" fill="red" > D4</text>
<text x="12" y="20" font-family="Verdana" font-size="10" text-anchor="middle"  dominant-baseline="middle" fill="black" > 0</text>
<text x="12" y="164" font-family="Verdana" font-size="10" text-anchor="middle"  dominant-baseline="middle" fill="black" > 144</text>
<text x="12" y="308" font-family="Verdana" font-size="10" text-anchor="middle"  dominant-baseline="middle" fill="black" > 288</text>
<text x="12" y="452" font-family="Verdana" font-size="10" text-anchor="middle"  dominant-baseline="middle" fill="black" > 432</text>
<text x="12" y="596" font-family="Verdana" font-size="10" text-anchor="middle"  dominant-baseline="middle" fill="black" > 576</text>
<text x="12" y="740" font-family="Verdana" font-size="10" text-anchor="middle"  dominant-baseline="middle" fill="black" > 720</text>
<text x="100" y="7" font-family="Verdana" font-size="7" text-anchor="middle"  dominant-baseline="middle" fill="black" > C1</text>
<circle cx="100" cy="15" r="4" fill="white" stroke="black" />
<line x1="100" y1="19" x2="100" y2="50" stroke="black" />
<line x1="50" y1="50" x2="150" y2="50" stroke="black" />
<text x="125" y="42" font-family="Verdana" font-size="8" text-anchor="middle"  dominant-baseline="middle" fill="black" > 35</text>
<circle cx="50" cy="50" r="4" fill="white" stroke="black" />
<line x1="50" y1="54" x2="50" y2="254" stroke="black" />
<line x1="46" y1="250" x2="54" y2="258" stroke="red" />
<line x1="46" y1="258" x2="54" y2="250" stroke="red" />
<text x="50" y="266" font-family="Verdana" font-size="8" text-anchor="middle"  dominant-baseline="middle" fill="black" > 239</text>
<circle cx="150" cy="50" r="4" fill="white" stroke="black" />
<line x1="150" y1="54" x2="150" y2="225" stroke="black" />
<line x1="125" y1="225" x2="175" y2="225" stroke="black" />
<text x="162" y="217" font-family="Verdana" font-size="8" text-anchor="middle"  dominant-baseline="middle" fill="black" > 210</text>
<circle cx="125" cy="225" r="4" fill="white" stroke="black" />
<line x1="125" y1="229" x2="125" y2="591" stroke="black" />
<circle cx="125" cy="591" r="4" fill="white" stroke="black" />
<text x="125" y="603" font-family="Verdana" font-size="8" text-anchor="middle"  dominant-baseline="middle" fill="black" > 576</text>
<circle cx="175" cy="225" r="4" fill="white" stroke="black" />
<line x1="175" y1="229" x2="175" y2="591" stroke="black" />
<circle cx="175" cy="591" r="4" fill="white" stroke="black" />
<text x="175" y="603" font-family="Verdana" font-size="8" text-anchor="middle"  dominant-baseline="middle" fill="black" > 576</text>
<text x="250" y="7" font-family="Verdana" font-size="7" text-anchor="middle"  dominant-baseline="middle" fill="black" > C2</text>
<circle cx="250" cy="15" r="4" fill="white" stroke="black" />
<line x1="250" y1="19" x2="250" y2="98" stroke="black" />
<line x1="246" y1="102" x2="250" y2="94" stroke="blue" />
<line x1="250" y1="102" x2="254" y2="94" stroke="blue" />
<text x="250" y="110" font-family="Verdana" font-size="8" text-anchor="middle"  dominant-baseline="middle" fill="black" > 83</text>
<text x="400" y="7" font-family="Verdana" font-size="7" text-anchor="middle"  dominant-baseline="middle" fill="black" > C3</text>
<circle cx="400" cy="15" r="4" fill="white" stroke="black" />
<line x1="400" y1="19" x2="400" y2="274" stroke="black" />
<line x1="350" y1="274" x2="450" y2="274" stroke="black" />
<text x="425" y="266" font-family="Verdana" font-size="8" text-anchor="middle"  dominant-baseline="middle" fill="black" > 259</text>
<circle cx="350" cy="274" r="4" fill="white" stroke="black" />
<line x1="350" y1="278" x2="350" y2="591" stroke="black" />
<circle cx="350" cy="591" r="4" fill="white" stroke="black" />
<text x="350" y="603" font-family="Verdana" font-size="8" text-anchor="middle"  dominant-baseline="middle" fill="black" > 576</text>
<circle cx="450" cy="274" r="4" fill="white" stroke="black" />
<line x1="450" y1="278" x2="450" y2="591" stroke="black" />
<circle cx="450" cy="591" r="4" fill="white" stroke="black" />
<text x="450" y="603" font-family="Verdana" font-size="8" text-anchor="middle"  dominant-baseline="middle" fill="black" > 576</text>
<text x="600" y="7" font-family="Verdana" font-size="7" text-anchor="middle"  dominant-baseline="middle" fill="black" > C4</text>
<circle cx="600" cy="15" r="4" fill="white" stroke="black" />
<line x1="600" y1="19" x2="600" y2="250" stroke="black" />
<line x1="550" y1="250" x2="650" y2="250" stroke="black" />
<text x="625" y="242" font-family="Verdana" font-size="8" text-anchor="middle"  dominant-baseline="middle" fill="black" > 235</text>
<circle cx="550" cy="250" r="4" fill="white" stroke="black" />
<line x1="550" y1="254" x2="550" y2="550" stroke="black" />
<line x1="516" y1="550" x2="584" y2="550" stroke="black" />
<text x="558" y="542" font-family="Verdana" font-size="8" text-anchor="middle"  dominant-baseline="middle" fill="black" > 535</text>
<circle cx="516" cy="550" r="4" fill="white" stroke="black" />
<line x1="516" y1="554" x2="516" y2="591" stroke="black" />
<circle cx="516" cy="591" r="4" fill="white" stroke="black" />
<text x="516" y="603" font-family="Verdana" font-size="8" text-anchor="middle"  dominant-baseline="middle" fill="black" > 576</text>
<circle cx="549" cy="550" r="4" fill="white" stroke="black" />
<line x1="549" y1="554" x2="549" y2="591" stroke="black" />
<circle cx="549" cy="591" r="4" fill="white" stroke="black" />
<text x="549" y="603" font-family="Verdana" font-size="8" text-anchor="middle"  dominant-baseline="middle" fill="black" > 576</text>
<circle cx="582" cy="550" r="4" fill="white" stroke="black" />
<line x1="582" y1="554" x2="582" y2="591" stroke="black" />
<circle cx="582" cy="591" r="4" fill="white" stroke="black" />
<text x="582" y="603" font-family="Verdana" font-size="8" text-anchor="middle"  dominant-baseline="middle" fill="black" > 576</text>
<circle cx="650" cy="250" r="4" fill="white" stroke="black" />
<line x1="650" y1="254" x2="650" y2="591" stroke="black" />
<circle cx="650" cy="591" r="4" fill="white" stroke="black" />
<text x="650" y="603" font-family="Verdana" font-size="8" text-anchor="middle"  dominant-baseline="middle" fill="black" > 576</text>
<text x="750" y="7" font-family="Verdana" font-size="7" text-anchor="middle"  dominant-baseline="middle" fill="black" > C5</text>
<circle cx="750" cy="15" r="4" fill="white" stroke="black" />
<line x1="750" y1="19" x2="750" y2="591" stroke="black" />
<circle cx="750" cy="591" r="4" fill="white" stroke="black" />
<text x="750" y="603" font-family="Verdana" font-size="8" text-anchor="middle"  dominant-baseline="middle" fill="black" > 576</text>
<text x="850" y="7" font-family="Verdana" font-size="7" text-anchor="middle"  dominant-baseline="middle" fill="black" > C6</text>
<circle cx="850" cy="15" r="4" fill="white" stroke="black" />
<line x1="850" y1="19" x2="850" y2="591" stroke="black" />
<circle cx="850" cy="591" r="4" fill="white" stroke="black" />
<text x="850" y="603" font-family="Verdana" font-size="8" text-anchor="middle"  dominant-baseline="middle" fill="black" > 576</text>
</svg>
