<?xml version="1.0" encoding="utf-8"?>
<svg xmlns="http://www.w3.org/2000/svg" version="1.1" width="1450" height="750">
<rect width="1450" height="15" x="0" y="0" fill="white" />
<rect width="1450" height="15" x="0" y="735" fill="white" />
<rect width="25" height="750" x="0" y="0" fill="white" />
<rect width="25" height="750" x="1425" y="0" fill="white" />
<rect width="1410" height="144" x="25" y="15" fill="ghostwhite" />
<rect width="1410" height="144" x="25" y="159" fill="snow" />
<rect width="1410" height="144" x="25" y="303" fill="ghostwhite" />
<rect width="1410" height="144" x="25" y="447" fill="snow" />
<rect width="1410" height="144" x="25" y="591" fill="ghostwhite" />
<text x="12" y="87" font-family="Verdana" font-size="10" text-anchor="middle"  dominant-baseline="middle" fill="red" > D0</text>
<text x="12" y="231" font-family="Verdana" font-size="10" text-anchor="middle"  dominant-baseline="middle" fill="red" > D1</text>
<text x="12" y="375" font-family="Verdana" font-size="10" text-anchor="middle"  dominant-baseline="middle" fill="red" > D2</text>
<text x="12" y="519" font-family="Verdana" font-size="10" text-anchor="middle"  dominant-baseline="middle" fill="red" > D3</text>
<text x="12" y="663" font-family="Verdana" font-size="10" text-anchor="middle"  dominant-baseline="middle" fill="red" > D4</text>
<text x="12" y="20" font-family="Verdana" font-size="10" text-anchor="middle"  dominant-baseline="middle" fill="black" > 0</text>
<text x="12" y="164" font-family="Verdana" font-size="10" text-anchor="middle"  dominant-baseline="middle" fill="black" > 144</text>
<text x="12" y="308" font-family="Verdana" font-size="10" text-anchor="middle"  dominant-baseline="middle" fill="black" > 288</text>
<text x="12" y="452" font-family="Verdana" font-size="10" text-anchor="middle"  dominant-baseline="middle" fill="black" > 432</text>
<text x="12" y="596" font-family="Verdana" font-size="10" text-anchor="middle"  dominant-baseline="middle" fill="black" > 576</text>
<text x="12" y="740" font-family="Verdana" font-size="10" text-anchor="middle"  dominant-baseline="middle" fill="black" > 720</text>
<text x="50" y="7" font-family="Verdana" font-size="7" text-anchor="middle"  dominant-baseline="middle" fill="black" > C1</text>
<circle cx="50" cy="15" r="4" fill="white" stroke="black" />
<line x1="50" y1="19" x2="50" y2="363" stroke="black" />
<line x1="46" y1="359" x2="54" y2="367" stroke="red" />
<line x1="46" y1="367" x2="54" y2="359" stroke="red" />
<text x="50" y="375" font-family="Verdana" font-size="8" text-anchor="middle"  dominant-baseline="middle" fill="black" > 348</text>
<text x="200" y="7" font-family="Verdana" font-size="7" text-anchor="middle"  dominant-baseline="middle" fill="black" > C2</text>
<circle cx="200" cy="15" r="4" fill="white" stroke="black" />
<line x1="200" y1="19" x2="200" y2="146" stroke="black" />
<line x1="150" y1="146" x2="250" y2="146" stroke="black" />
<text x="225" y="138" font-family="Verdana" font-size="8" text-anchor="middle"  dominant-baseline="middle" fill="black" > 131</text>
<circle cx="150" cy="146" r="4" fill="white" stroke="black" />
<line x1="150" y1="150" x2="150" y2="317" stroke="black" />
<line x1="125" y1="317" x2="175" y2="317" stroke="black" />
<text x="162" y="309" font-family="Verdana" font-size="8" text-anchor="middle"  dominant-baseline="middle" fill="black" > 302</text>
<circle cx="125" cy="317" r="4" fill="white" stroke="black" />
<line x1="125" y1="321" x2="125" y2="564" stroke="black" />
<line x1="112" y1="564" x2="138" y2="564" stroke="black" />
<text x="131" y="556" font-family="Verdana" font-size="8" text-anchor="middle"  dominant-baseline="middle" fill="black" > 549</text>
<circle cx="112" cy="564" r="4" fill="white" stroke="black" />
<line x1="112" y1="568" x2="112" y2="591" stroke="black" />
<circle cx="112" cy="591" r="4" fill="white" stroke="black" />
<text x="112" y="603" font-family="Verdana" font-size="8" text-anchor="middle"  dominant-baseline="middle" fill="black" > 576</text>
<circle cx="137" cy="564" r="4" fill="white" stroke="black" />
<line x1="137" y1="568" x2="137" y2="591" stroke="black" />
<circle cx="137" cy="591" r="4" fill="white" stroke="black" />
<text x="137" y="603" font-family="Verdana" font-size="8" text-anchor="middle"  dominant-baseline="middle" fill="black" > 576</text>
<circle cx="175" cy="317" r="4" fill="white" stroke="black" />
<line x1="175" y1="321" x2="175" y2="536" stroke="black" />
<line x1="162" y1="536" x2="188" y2="536" stroke="black" />
<text x="181" y="528" font-family="Verdana" font-size="8" text-anchor="middle"  dominant-baseline="middle" fill="black" > 521</text>
<circle cx="162" cy="536" r="4" fill="white" stroke="black" />
<line x1="162" y1="540" x2="162" y2="591" stroke="black" />
<circle cx="162" cy="591" r="4" fill="white" stroke="black" />
<text x="162" y="603" font-family="Verdana" font-size="8" text-anchor="middle"  dominant-baseline="middle" fill="black" > 576</text>
<circle cx="187" cy="536" r="4" fill="white" stroke="black" />
<line x1="187" y1="540" x2="187" y2="591" stroke="black" />
<circle cx="187" cy="591" r="4" fill="white" stroke="black" />
<text x="187" y="603" font-family="Verdana" font-size="8" text-anchor="middle"  dominant-baseline="middle" fill="black" > 576</text>
<circle cx="250" cy="146" r="4" fill="white" stroke="black" />
<line x1="250" y1="150" x2="250" y2="306" stroke="black" />
<line x1="225" y1="306" x2="275" y2="306" stroke="black" />
<text x="262" y="298" font-family="Verdana" font-size="8" text-anchor="middle"  dominant-baseline="middle" fill="black" > 291</text>
<circle cx="225" cy="306" r="4" fill="white" stroke="black" />
<line x1="225" y1="310" x2="225" y2="591" stroke="black" />
<circle cx="225" cy="591" r="4" fill="white" stroke="black" />
<text x="225" y="603" font-family="Verdana" font-size="8" text-anchor="middle"  dominant-baseline="middle" fill="black" > 576</text>
<circle cx="275" cy="306" r="4" fill="white" stroke="black" />
<line x1="275" y1="310" x2="275" y2="460" stroke="black" />
<line x1="262" y1="460" x2="288" y2="460" stroke="black" />
<text x="281" y="452" font-family="Verdana" font-size="8" text-anchor="middle"  dominant-baseline="middle" fill="black" > 445</text>
<circle cx="262" cy="460" r="4" fill="white" stroke="black" />
<line x1="262" y1="464" x2="262" y2="591" stroke="black" />
<circle cx="262" cy="591" r="4" fill="white" stroke="black" />
<text x="262" y="603" font-family="Verdana" font-size="8" text-anchor="middle"  dominant-baseline="middle" fill="black" > 576</text>
<circle cx="287" cy="460" r="4" fill="white" stroke="black" />
<line x1="287" y1="464" x2="287" y2="591" stroke="black" />
<circle cx="287" cy="591" r="4" fill="white" stroke="black" />
<text x="287" y="603" font-family="Verdana" font-size="8" text-anchor="middle"  dominant-baseline="middle" fill="black" > 576</text>
<text x="400" y="7" font-family="Verdana" font-size="7" text-anchor="middle"  dominant-baseline="middle" fill="black" > C3</text>
<circle cx="400" cy="15" r="4" fill="white" stroke="black" />
<line x1="400" y1="19" x2="400" y2="161" stroke="black" />
<line x1="350" y1="161" x2="450" y2="161" stroke="black" />
<text x="425" y="153" font-family="Verdana" font-size="8" text-anchor="middle"  dominant-baseline="middle" fill="black" > 146</text>
<circle cx="350" cy="161" r="4" fill="white" stroke="black" />
<line x1="350" y1="165" x2="350" y2="374" stroke="black" />
<line x1="325" y1="374" x2="375" y2="374" stroke="black" />
<text x="362" y="366" font-family="Verdana" font-size="8" text-anchor="middle"  dominant-baseline="middle" fill="black" > 359</text>
<circle cx="325" cy="374" r="4" fill="white" stroke="black" />
<line x1="325" y1="378" x2="325" y2="522" stroke="black" />
<line x1="312" y1="522" x2="338" y2="522" stroke="black" />
<text x="331" y="514" font-family="Verdana" font-size="8" text-anchor="middle"  dominant-baseline="middle" fill="black" > 507</text>
<circle cx="312" cy="522" r="4" fill="white" stroke="black" />
<line x1="312" y1="526" x2="312" y2="591" stroke="black" />
<circle cx="312" cy="591" r="4" fill="white" stroke="black" />
<text x="312" y="603" font-family="Verdana" font-size="8" text-anchor="middle"  dominant-baseline="middle" fill="black" > 576</text>
<circle cx="337" cy="522" r="4" fill="white" stroke="black" />
<line x1="337" y1="526" x2="337" y2="591" stroke="black" />
<circle cx="337" cy="591" r="4" fill="white" stroke="black" />
<text x="337" y="603" font-family="Verdana" font-size="8" text-anchor="middle"  dominant-baseline="middle" fill="black" > 576</text>
<circle cx="375" cy="374" r="4" fill="white" stroke="black" />
<line x1="375" y1="378" x2="375" y2="591" stroke="black" />
<circle cx="375" cy="591" r="4" fill="white" stroke="black" />
<text x="375" y="603" font-family="Verdana" font-size="8" text-anchor="middle"  dominant-baseline="middle" fill="black" > 576</text>
<circle cx="450" cy="161" r="4" fill="white" stroke="black" />
<line x1="450" y1="165" x2="450" y2="330" stroke="black" />
<line x1="425" y1="330" x2="475" y2="330" stroke="black" />
<text x="462" y="322" font-family="Verdana" font-size="8" text-anchor="middle"  dominant-baseline="middle" fill="black" > 315</text>
<circle cx="425" cy="330" r="4" fill="white" stroke="black" />
<line x1="425" y1="334" x2="425" y2="394" stroke="black" />
<line x1="421" y1="390" x2="429" y2="398" stroke="red" />
<line x1="421" y1="398" x2="429" y2="390" stroke="red" />
<text x="425" y="406" font-family="Verdana" font-size="8" text-anchor="middle"  dominant-baseline="middle" fill="black" > 379</text>
<circle cx="475" cy="330" r="4" fill="white" stroke="black" />
<line x1="475" y1="334" x2="475" y2="591" stroke="black" />
<circle cx="475" cy="591" r="4" fill="white" stroke="black" />
<text x="475" y="603" font-family="Verdana" font-size="8" text-anchor="middle"  dominant-baseline="middle" fill="black" > 576</text>
<text x="600" y="7" font-family="Verdana" font-size="7" text-anchor="middle"  dominant-baseline="middle" fill="black" > C4</text>
<circle cx="600" cy="15" r="4" fill="white" stroke="black" />
<line x1="600" y1="19" x2="600" y2="185" stroke="black" />
<line x1="550" y1="185" x2="650" y2="185" stroke="black" />
<text x="625" y="177" font-family="Verdana" font-size="8" text-anchor="middle"  dominant-baseline="middle" fill="black" > 170</text>
<circle cx="550" cy="185" r="4" fill="white" stroke="black" />
<line x1="550" y1="189" x2="550" y2="374" stroke="black" />
<line x1="525" y1="374" x2="575" y2="374" stroke="black" />
<text x="562" y="366" font-family="Verdana" font-size="8" text-anchor="middle"  dominant-baseline="middle" fill="black" > 359</text>
<circle cx="525" cy="374" r="4" fill="white" stroke="black" />
<line x1="525" y1="378" x2="525" y2="480" stroke="black" />
<line x1="521" y1="476" x2="529" y2="484" stroke="red" />
<line x1="521" y1="484" x2="529" y2="476" stroke="red" />
<text x="525" y="492" font-family="Verdana" font-size="8" text-anchor="middle"  dominant-baseline="middle" fill="black" > 465</text>
<circle cx="575" cy="374" r="4" fill="white" stroke="black" />
<line x1="575" y1="378" x2="575" y2="591" stroke="black" />
<circle cx="575" cy="591" r="4" fill="white" stroke="black" />
<text x="575" y="603" font-family="Verdana" font-size="8" text-anchor="middle"  dominant-baseline="middle" fill="black" > 576</text>
<circle cx="650" cy="185" r="4" fill="white" stroke="black" />
<line x1="650" y1="189" x2="650" y2="349" stroke="black" />
<line x1="625" y1="349" x2="675" y2="349" stroke="black" />
<text x="662" y="341" font-family="Verdana" font-size="8" text-anchor="middle"  dominant-baseline="middle" fill="black" > 334</text>
<circle cx="625" cy="349" r="4" fill="white" stroke="black" />
<line x1="625" y1="353" x2="625" y2="568" stroke="black" />
<line x1="612" y1="568" x2="638" y2="568" stroke="black" />
<text x="631" y="560" font-family="Verdana" font-size="8" text-anchor="middle"  dominant-baseline="middle" fill="black" > 553</text>
<circle cx="612" cy="568" r="4" fill="white" stroke="black" />
<line x1="612" y1="572" x2="612" y2="591" stroke="black" />
<circle cx="612" cy="591" r="4" fill="white" stroke="black" />
<text x="612" y="603" font-family="Verdana" font-size="8" text-anchor="middle"  dominant-baseline="middle" fill="black" > 576</text>
<circle cx="637" cy="568" r="4" fill="white" stroke="black" />
<line x1="637" y1="572" x2="637" y2="591" stroke="black" />
<circle cx="637" cy="591" r="4" fill="white" stroke="black" />
<text x="637" y="603" font-family="Verdana" font-size="8" text-anchor="middle"  dominant-baseline="middle" fill="black" > 576</text>
<circle cx="675" cy="349" r="4" fill="white" stroke="black" />
<line x1="675" y1="353" x2="675" y2="591" stroke="black" />
<circle cx="675" cy="591" r="4" fill="white" stroke="black" />
<text x="675" y="603" font-family="Verdana" font-size="8" text-anchor="middle"  dominant-baseline="middle" fill="black" > 576</text>
<text x="800" y="7" font-family="Verdana" font-size="7" text-anchor="middle"  dominant-baseline="middle" fill="black" > C5</text>
<circle cx="800" cy="15" r="4" fill="white" stroke="black" />
<line x1="800" y1="19" x2="800" y2="134" stroke="black" />
<line x1="750" y1="134" x2="850" y2="134" stroke="black" />
<text x="825" y="126" font-family="Verdana" font-size="8" text-anchor="middle"  dominant-baseline="middle" fill="black" > 119</text>
<circle cx="750" cy="134" r="4" fill="white" stroke="black" />
<line x1="750" y1="138" x2="750" y2="299" stroke="black" />
<line x1="725" y1="299" x2="775" y2="299" stroke="black" />
<text x="762" y="291" font-family="Verdana" font-size="8" text-anchor="middle"  dominant-baseline="middle" fill="black" > 284</text>
<circle cx="725" cy="299" r="4" fill="white" stroke="black" />
<line x1="725" y1="303" x2="725" y2="459" stroke="black" />
<line x1="712" y1="459" x2="738" y2="459" stroke="black" />
<text x="731" y="451" font-family="Verdana" font-size="8" text-anchor="middle"  dominant-baseline="middle" fill="black" > 444</text>
<circle cx="712" cy="459" r="4" fill="white" stroke="black" />
<line x1="712" y1="463" x2="712" y2="591" stroke="black" />
<circle cx="712" cy="591" r="4" fill="white" stroke="black" />
<text x="712" y="603" font-family="Verdana" font-size="8" text-anchor="middle"  dominant-baseline="middle" fill="black" > 576</text>
<circle cx="737" cy="459" r="4" fill="white" stroke="black" />
<line x1="737" y1="463" x2="737" y2="591" stroke="black" />
<circle cx="737" cy="591" r="4" fill="white" stroke="black" />
<text x="737" y="603" font-family="Verdana" font-size="8" text-anchor="middle"  dominant-baseline="middle" fill="black" > 576</text>
<circle cx="775" cy="299" r="4" fill="white" stroke="black" />
<line x1="775" y1="303" x2="775" y2="532" stroke="black" />
<line x1="762" y1="532" x2="788" y2="532" stroke="black" />
<text x="781" y="524" font-family="Verdana" font-size="8" text-anchor="middle"  dominant-baseline="middle" fill="black" > 517</text>
<circle cx="762" cy="532" r="4" fill="white" stroke="black" />
<line x1="762" y1="536" x2="762" y2="591" stroke="black" />
<circle cx="762" cy="591" r="4" fill="white" stroke="black" />
<text x="762" y="603" font-family="Verdana" font-size="8" text-anchor="middle"  dominant-baseline="middle" fill="black" > 576</text>
<circle cx="787" cy="532" r="4" fill="white" stroke="black" />
<line x1="787" y1="536" x2="787" y2="591" stroke="black" />
<circle cx="787" cy="591" r="4" fill="white" stroke="black" />
<text x="787" y="603" font-family="Verdana" font-size="8" text-anchor="middle"  dominant-baseline="middle" fill="black" > 576</text>
<circle cx="850" cy="134" r="4" fill="white" stroke="black" />
<line x1="850" y1="138" x2="850" y2="285" stroke="black" />
<line x1="825" y1="285" x2="875" y2="285" stroke="black" />
<text x="862" y="277" font-family="Verdana" font-size="8" text-anchor="middle"  dominant-baseline="middle" fill="black" > 270</text>
<circle cx="825" cy="285" r="4" fill="white" stroke="black" />
<line x1="825" y1="289" x2="825" y2="420" stroke="black" />
<line x1="812" y1="420" x2="838" y2="420" stroke="black" />
<text x="831" y="412" font-family="Verdana" font-size="8" text-anchor="middle"  dominant-baseline="middle" fill="black" > 405</text>
<circle cx="812" cy="420" r="4" fill="white" stroke="black" />
<circle cx="837" cy="420" r="4" fill="white" stroke="black" />
<line x1="812" y1="424" x2="812" y2="531" stroke="black" />
<line x1="812" y1="531" x2="824" y2="568" stroke="black" />
<line x1="837" y1="424" x2="837" y2="531" stroke="black" />
<line x1="837" y1="531" x2="824" y2="568" stroke="black" />
<text x="824" y="556" font-family="Verdana" font-size="8" text-anchor="middle"  dominant-baseline="middle" fill="black" > 553</text>
<circle cx="824" cy="568" r="4" fill="white" stroke="black" />
<line x1="824" y1="572" x2="824" y2="591" stroke="black" />
<circle cx="824" cy="591" r="4" fill="white" stroke="black" />
<text x="824" y="603" font-family="Verdana" font-size="8" text-anchor="middle"  dominant-baseline="middle" fill="black" > 576</text>
<circle cx="875" cy="285" r="4" fill="white" stroke="black" />
<line x1="875" y1="289" x2="875" y2="475" stroke="black" />
<line x1="858" y1="475" x2="892" y2="475" stroke="black" />
<text x="879" y="467" font-family="Verdana" font-size="8" text-anchor="middle"  dominant-baseline="middle" fill="black" > 460</text>
<circle cx="858" cy="475" r="4" fill="white" stroke="black" />
<line x1="858" y1="479" x2="858" y2="577" stroke="black" />
<line x1="854" y1="577" x2="862" y2="577" stroke="black" />
<text x="860" y="569" font-family="Verdana" font-size="8" text-anchor="middle"  dominant-baseline="middle" fill="black" > 562</text>
<circle cx="854" cy="577" r="4" fill="white" stroke="black" />
<line x1="854" y1="581" x2="854" y2="591" stroke="black" />
<circle cx="854" cy="591" r="4" fill="white" stroke="black" />
<text x="854" y="603" font-family="Verdana" font-size="8" text-anchor="middle"  dominant-baseline="middle" fill="black" > 576</text>
<circle cx="862" cy="577" r="4" fill="white" stroke="black" />
<line x1="862" y1="581" x2="862" y2="591" stroke="black" />
<circle cx="862" cy="591" r="4" fill="white" stroke="black" />
<text x="862" y="603" font-family="Verdana" font-size="8" text-anchor="middle"  dominant-baseline="middle" fill="black" > 576</text>
<circle cx="874" cy="475" r="4" fill="white" stroke="black" />
<line x1="874" y1="479" x2="874" y2="536" stroke="black" />
<line x1="870" y1="540" x2="874" y2="532" stroke="blue" />
<line x1="874" y1="540" x2="878" y2="532" stroke="blue" />
<text x="874" y="548" font-family="Verdana" font-size="8" text-anchor="middle"  dominant-baseline="middle" fill="black" > 521</text>
<circle cx="890" cy="475" r="4" fill="white" stroke="black" />
<line x1="890" y1="479" x2="890" y2="577" stroke="black" />
<line x1="886" y1="577" x2="894" y2="577" stroke="black" />
<text x="892" y="569" font-family="Verdana" font-size="8" text-anchor="middle"  dominant-baseline="middle" fill="black" > 562</text>
<circle cx="886" cy="577" r="4" fill="white" stroke="black" />
<line x1="886" y1="581" x2="886" y2="591" stroke="black" />
<circle cx="886" cy="591" r="4" fill="white" stroke="black" />
<text x="886" y="603" font-family="Verdana" font-size="8" text-anchor="middle"  dominant-baseline="middle" fill="black" > 576</text>
<circle cx="894" cy="577" r="4" fill="white" stroke="black" />
<line x1="894" y1="581" x2="894" y2="591" stroke="black" />
<circle cx="894" cy="591" r="4" fill="white" stroke="black" />
<text x="894" y="603" font-family="Verdana" font-size="8" text-anchor="middle"  dominant-baseline="middle" fill="black" > 576</text>
<text x="1050" y="7" font-family="Verdana" font-size="7" text-anchor="middle"  dominant-baseline="middle" fill="black" > C6</text>
<circle cx="1050" cy="15" r="4" fill="white" stroke="black" />
<line x1="1050" y1="19" x2="1050" y2="121" stroke="black" />
<line x1="950" y1="121" x2="1150" y2="121" stroke="black" />
<text x="1075" y="113" font-family="Verdana" font-size="8" text-anchor="middle"  dominant-baseline="middle" fill="black" > 106</text>
<circle cx="950" cy="121" r="4" fill="white" stroke="black" />
<line x1="950" y1="125" x2="950" y2="460" stroke="black" />
<line x1="946" y1="456" x2="954" y2="464" stroke="red" />
<line x1="946" y1="464" x2="954" y2="456" stroke="red" />
<text x="950" y="472" font-family="Verdana" font-size="8" text-anchor="middle"  dominant-baseline="middle" fill="black" > 445</text>
<circle cx="1050" cy="121" r="4" fill="white" stroke="black" />
<line x1="1050" y1="125" x2="1050" y2="412" stroke="black" />
<line x1="1046" y1="408" x2="1054" y2="416" stroke="red" />
<line x1="1046" y1="416" x2="1054" y2="408" stroke="red" />
<text x="1050" y="424" font-family="Verdana" font-size="8" text-anchor="middle"  dominant-baseline="middle" fill="black" > 397</text>
<circle cx="1150" cy="121" r="4" fill="white" stroke="black" />
<line x1="1150" y1="125" x2="1150" y2="591" stroke="black" />
<circle cx="1150" cy="591" r="4" fill="white" stroke="black" />
<text x="1150" y="603" font-family="Verdana" font-size="8" text-anchor="middle"  dominant-baseline="middle" fill="black" > 576</text>
<text x="1300" y="7" font-family="Verdana" font-size="7" text-anchor="middle"  dominant-baseline="middle" fill="black" > C7</text>
<circle cx="1300" cy="15" r="4" fill="white" stroke="black" />
<line x1="1300" y1="19" x2="1300" y2="186" stroke="black" />
<line x1="1250" y1="186" x2="1350" y2="186" stroke="black" />
<text x="1325" y="178" font-family="Verdana" font-size="8" text-anchor="middle"  dominant-baseline="middle" fill="black" > 171</text>
<circle cx="1250" cy="186" r="4" fill="white" stroke="black" />
<line x1="1250" y1="190" x2="1250" y2="415" stroke="black" />
<line x1="1225" y1="415" x2="1275" y2="415" stroke="black" />
<text x="1262" y="407" font-family="Verdana" font-size="8" text-anchor="middle"  dominant-baseline="middle" fill="black" > 400</text>
<circle cx="1225" cy="415" r="4" fill="white" stroke="black" />
<line x1="1225" y1="419" x2="1225" y2="591" stroke="black" />
<circle cx="1225" cy="591" r="4" fill="white" stroke="black" />
<text x="1225" y="603" font-family="Verdana" font-size="8" text-anchor="middle"  dominant-baseline="middle" fill="black" > 576</text>
<circle cx="1275" cy="415" r="4" fill="white" stroke="black" />
<line x1="1275" y1="419" x2="1275" y2="591" stroke="black" />
<circle cx="1275" cy="591" r="4" fill="white" stroke="black" />
<text x="1275" y="603" font-family="Verdana" font-size="8" text-anchor="middle"  dominant-baseline="middle" fill="black" > 576</text>
<circle cx="1350" cy="186" r="4" fill="white" stroke="black" />
<line x1="1350" y1="190" x2="1350" y2="410" stroke="black" />
<line x1="1325" y1="410" x2="1375" y2="410" stroke="black" />
<text x="1362" y="402" font-family="Verdana" font-size="8" text-anchor="middle"  dominant-baseline="middle" fill="black" > 395</text>
<circle cx="1325" cy="410" r="4" fill="white" stroke="black" />
<line x1="1325" y1="414" x2="1325" y2="591" stroke="black" />
<circle cx="1325" cy="591" r="4" fill="white" stroke="black" />
<text x="1325" y="603" font-family="Verdana" font-size="8" text-anchor="middle"  dominant-baseline="middle" fill="black" > 576</text>
<circle cx="1375" cy="410" r="4" fill="white" stroke="black" />
<line x1="1375" y1="414" x2="1375" y2="591" stroke="black" />
<circle cx="1375" cy="591" r="4" fill="white" stroke="black" />
<text x="1375" y="603" font-family="Verdana" font-size="8" text-anchor="middle"  dominant-baseline="middle" fill="black" > 576</text>
</svg>
