<?xml version="1.0" encoding="utf-8"?>
<svg xmlns="http://www.w3.org/2000/svg" version="1.1" width="1350" height="750">
<rect width="1350" height="15" x="0" y="0" fill="white" />
<rect width="1350" height="15" x="0" y="735" fill="white" />
<rect width="25" height="750" x="0" y="0" fill="white" />
<rect width="25" height="750" x="1325" y="0" fill="white" />
<rect width="1310" height="144" x="25" y="15" fill="ghostwhite" />
<rect width="1310" height="144" x="25" y="159" fill="snow" />
<rect width="1310" height="144" x="25" y="303" fill="ghostwhite" />
<rect width="1310" height="144" x="25" y="447" fill="snow" />
<rect width="1310" height="144" x="25" y="591" fill="ghostwhite" />
<text x="12" y="87" font-family="Verdana" font-size="10" text-anchor="middle"  dominant-baseline="middle" fill="red" > D0</text>
<text x="12" y="231" font-family="Verdana" font-size="10" text-anchor="middle"  dominant-baseline="middle" fill="red" > D1</text>
<text x="12" y="375" font-family="Verdana" font-size="10" text-anchor="middle"  dominant-baseline="middle" fill="red" > D2</text>
<text x="12" y="519" font-family="Verdana" font-size="10" text-anchor="middle"  dominant-baseline="middle" fill="red" > D3</text>
<text x="12" y="663" font-family="Verdana" font-size="10" text-anchor="middle"  dominant-baseline="middle" fill="red" > D4</text>
<text x="12" y="20" font-family="Verdana" font-size="10" text-anchor="middle"  dominant-baseline="middle" fill="black" > 0</text>
<text x="12" y="164" font-family="Verdana" font-size="10" text-anchor="middle"  dominant-baseline="middle" fill="black" > 144</text>
<text x="12" y="308" font-family="Verdana" font-size="10" text-anchor="middle"  dominant-baseline="middle" fill="black" > 288</text>
<text x="12" y="452" font-family="Verdana" font-size="10" text-anchor="middle"  dominant-baseline="middle" fill="black" > 432</text>
<text x="12" y="596" font-family="Verdana" font-size="10" text-anchor="middle"  dominant-baseline="middle" fill="black" > 576</text>
<text x="12" y="740" font-family="Verdana" font-size="10" text-anchor="middle"  dominant-baseline="middle" fill="black" > 720</text>
<text x="50" y="7" font-family="Verdana" font-size="7" text-anchor="middle"  dominant-baseline="middle" fill="black" > C1</text>
<circle cx="50" cy="15" r="4" fill="white" stroke="black" />
<line x1="50" y1="19" x2="50" y2="96" stroke="black" />
<line x1="46" y1="100" x2="50" y2="92" stroke="blue" />
<line x1="50" y1="100" x2="54" y2="92" stroke="blue" />
<text x="50" y="108" font-family="Verdana" font-size="8" text-anchor="middle"  dominant-baseline="middle" fill="black" > 81</text>
<text x="200" y="7" font-family="Verdana" font-size="7" text-anchor="middle"  dominant-baseline="middle" fill="black" > C2</text>
<circle cx="200" cy="15" r="4" fill="white" stroke="black" />
<line x1="200" y1="19" x2="200" y2="172" stroke="black" />
<line x1="150" y1="172" x2="250" y2="172" stroke="black" />
<text x="225" y="164" font-family="Verdana" font-size="8" text-anchor="middle"  dominant-baseline="middle" fill="black" > 157</text>
<circle cx="150" cy="172" r="4" fill="white" stroke="black" />
<line x1="150" y1="176" x2="150" y2="433" stroke="black" />
<line x1="146" y1="437" x2="150" y2="429" stroke="blue" />
<line x1="150" y1="437" x2="154" y2="429" stroke="blue" />
<text x="150" y="445" font-family="Verdana" font-size="8" text-anchor="middle"  dominant-baseline="middle" fill="black" > 418</text>
<circle cx="250" cy="172" r="4" fill="white" stroke="black" />
<line x1="250" y1="176" x2="250" y2="414" stroke="black" />
<line x1="216" y1="414" x2="284" y2="414" stroke="black" />
<text x="258" y="406" font-family="Verdana" font-size="8" text-anchor="middle"  dominant-baseline="middle" fill="black" > 399</text>
<circle cx="216" cy="414" r="4" fill="white" stroke="black" />
<line x1="216" y1="418" x2="216" y2="439" stroke="black" />
<line x1="212" y1="435" x2="220" y2="443" stroke="red" />
<line x1="212" y1="443" x2="220" y2="435" stroke="red" />
<text x="216" y="451" font-family="Verdana" font-size="8" text-anchor="middle"  dominant-baseline="middle" fill="black" > 424</text>
<circle cx="249" cy="414" r="4" fill="white" stroke="black" />
<circle cx="282" cy="414" r="4" fill="white" stroke="black" />
<line x1="249" y1="418" x2="249" y2="423" stroke="black" />
<line x1="249" y1="423" x2="265" y2="425" stroke="black" />
<line x1="282" y1="418" x2="282" y2="423" stroke="black" />
<line x1="282" y1="423" x2="265" y2="425" stroke="black" />
<text x="265" y="413" font-family="Verdana" font-size="8" text-anchor="middle"  dominant-baseline="middle" fill="black" > 410</text>
<circle cx="265" cy="425" r="4" fill="white" stroke="black" />
<line x1="265" y1="429" x2="265" y2="591" stroke="black" />
<circle cx="265" cy="591" r="4" fill="white" stroke="black" />
<text x="265" y="603" font-family="Verdana" font-size="8" text-anchor="middle"  dominant-baseline="middle" fill="black" > 576</text>
<text x="400" y="7" font-family="Verdana" font-size="7" text-anchor="middle"  dominant-baseline="middle" fill="black" > C3</text>
<circle cx="400" cy="15" r="4" fill="white" stroke="black" />
<line x1="400" y1="19" x2="400" y2="167" stroke="black" />
<line x1="350" y1="167" x2="450" y2="167" stroke="black" />
<text x="425" y="159" font-family="Verdana" font-size="8" text-anchor="middle"  dominant-baseline="middle" fill="black" > 152</text>
<circle cx="350" cy="167" r="4" fill="white" stroke="black" />
<line x1="350" y1="171" x2="350" y2="442" stroke="black" />
<line x1="346" y1="438" x2="354" y2="446" stroke="red" />
<line x1="346" y1="446" x2="354" y2="438" stroke="red" />
<text x="350" y="454" font-family="Verdana" font-size="8" text-anchor="middle"  dominant-baseline="middle" fill="black" > 427</text>
<circle cx="450" cy="167" r="4" fill="white" stroke="black" />
<line x1="450" y1="171" x2="450" y2="347" stroke="black" />
<line x1="446" y1="343" x2="454" y2="351" stroke="red" />
<line x1="446" y1="351" x2="454" y2="343" stroke="red" />
<text x="450" y="359" font-family="Verdana" font-size="8" text-anchor="middle"  dominant-baseline="middle" fill="black" > 332</text>
<text x="600" y="7" font-family="Verdana" font-size="7" text-anchor="middle"  dominant-baseline="middle" fill="black" > C4</text>
<circle cx="600" cy="15" r="4" fill="white" stroke="black" />
<line x1="600" y1="19" x2="600" y2="181" stroke="black" />
<line x1="550" y1="181" x2="650" y2="181" stroke="black" />
<text x="625" y="173" font-family="Verdana" font-size="8" text-anchor="middle"  dominant-baseline="middle" fill="black" > 166</text>
<circle cx="550" cy="181" r="4" fill="white" stroke="black" />
<line x1="550" y1="185" x2="550" y2="414" stroke="black" />
<line x1="525" y1="414" x2="575" y2="414" stroke="black" />
<text x="562" y="406" font-family="Verdana" font-size="8" text-anchor="middle"  dominant-baseline="middle" fill="black" > 399</text>
<circle cx="525" cy="414" r="4" fill="white" stroke="black" />
<line x1="525" y1="418" x2="525" y2="591" stroke="black" />
<circle cx="525" cy="591" r="4" fill="white" stroke="black" />
<text x="525" y="603" font-family="Verdana" font-size="8" text-anchor="middle"  dominant-baseline="middle" fill="black" > 576</text>
<circle cx="575" cy="414" r="4" fill="white" stroke="black" />
<line x1="575" y1="418" x2="575" y2="591" stroke="black" />
<circle cx="575" cy="591" r="4" fill="white" stroke="black" />
<text x="575" y="603" font-family="Verdana" font-size="8" text-anchor="middle"  dominant-baseline="middle" fill="black" > 576</text>
<circle cx="650" cy="181" r="4" fill="white" stroke="black" />
<line x1="650" y1="185" x2="650" y2="394" stroke="black" />
<line x1="625" y1="394" x2="675" y2="394" stroke="black" />
<text x="662" y="386" font-family="Verdana" font-size="8" text-anchor="middle"  dominant-baseline="middle" fill="black" > 379</text>
<circle cx="625" cy="394" r="4" fill="white" stroke="black" />
<circle cx="675" cy="394" r="4" fill="white" stroke="black" />
<line x1="625" y1="398" x2="625" y2="452" stroke="black" />
<line x1="625" y1="452" x2="650" y2="471" stroke="black" />
<line x1="675" y1="398" x2="675" y2="452" stroke="black" />
<line x1="675" y1="452" x2="650" y2="471" stroke="black" />
<text x="650" y="459" font-family="Verdana" font-size="8" text-anchor="middle"  dominant-baseline="middle" fill="black" > 456</text>
<circle cx="650" cy="471" r="4" fill="white" stroke="black" />
<line x1="650" y1="475" x2="650" y2="591" stroke="black" />
<circle cx="650" cy="591" r="4" fill="white" stroke="black" />
<text x="650" y="603" font-family="Verdana" font-size="8" text-anchor="middle"  dominant-baseline="middle" fill="black" > 576</text>
<text x="800" y="7" font-family="Verdana" font-size="7" text-anchor="middle"  dominant-baseline="middle" fill="black" > C5</text>
<circle cx="800" cy="15" r="4" fill="white" stroke="black" />
<line x1="800" y1="19" x2="800" y2="174" stroke="black" />
<line x1="750" y1="174" x2="850" y2="174" stroke="black" />
<text x="825" y="166" font-family="Verdana" font-size="8" text-anchor="middle"  dominant-baseline="middle" fill="black" > 159</text>
<circle cx="750" cy="174" r="4" fill="white" stroke="black" />
<line x1="750" y1="178" x2="750" y2="377" stroke="black" />
<line x1="725" y1="377" x2="775" y2="377" stroke="black" />
<text x="762" y="369" font-family="Verdana" font-size="8" text-anchor="middle"  dominant-baseline="middle" fill="black" > 362</text>
<circle cx="725" cy="377" r="4" fill="white" stroke="black" />
<circle cx="775" cy="377" r="4" fill="white" stroke="black" />
<line x1="725" y1="381" x2="725" y2="487" stroke="black" />
<line x1="725" y1="487" x2="750" y2="523" stroke="black" />
<line x1="775" y1="381" x2="775" y2="487" stroke="black" />
<line x1="775" y1="487" x2="750" y2="523" stroke="black" />
<text x="750" y="511" font-family="Verdana" font-size="8" text-anchor="middle"  dominant-baseline="middle" fill="black" > 508</text>
<circle cx="750" cy="523" r="4" fill="white" stroke="black" />
<line x1="750" y1="527" x2="750" y2="591" stroke="black" />
<circle cx="750" cy="591" r="4" fill="white" stroke="black" />
<text x="750" y="603" font-family="Verdana" font-size="8" text-anchor="middle"  dominant-baseline="middle" fill="black" > 576</text>
<circle cx="850" cy="174" r="4" fill="white" stroke="black" />
<line x1="850" y1="178" x2="850" y2="367" stroke="black" />
<line x1="825" y1="367" x2="875" y2="367" stroke="black" />
<text x="862" y="359" font-family="Verdana" font-size="8" text-anchor="middle"  dominant-baseline="middle" fill="black" > 352</text>
<circle cx="825" cy="367" r="4" fill="white" stroke="black" />
<circle cx="875" cy="367" r="4" fill="white" stroke="black" />
<line x1="825" y1="371" x2="825" y2="443" stroke="black" />
<line x1="825" y1="443" x2="850" y2="468" stroke="black" />
<line x1="875" y1="371" x2="875" y2="443" stroke="black" />
<line x1="875" y1="443" x2="850" y2="468" stroke="black" />
<text x="850" y="456" font-family="Verdana" font-size="8" text-anchor="middle"  dominant-baseline="middle" fill="black" > 453</text>
<circle cx="850" cy="468" r="4" fill="white" stroke="black" />
<line x1="850" y1="472" x2="850" y2="591" stroke="black" />
<circle cx="850" cy="591" r="4" fill="white" stroke="black" />
<text x="850" y="603" font-family="Verdana" font-size="8" text-anchor="middle"  dominant-baseline="middle" fill="black" > 576</text>
<text x="1000" y="7" font-family="Verdana" font-size="7" text-anchor="middle"  dominant-baseline="middle" fill="black" > C6</text>
<circle cx="1000" cy="15" r="4" fill="white" stroke="black" />
<line x1="1000" y1="19" x2="1000" y2="86" stroke="black" />
<line x1="950" y1="86" x2="1050" y2="86" stroke="black" />
<text x="1025" y="78" font-family="Verdana" font-size="8" text-anchor="middle"  dominant-baseline="middle" fill="black" > 71</text>
<circle cx="950" cy="86" r="4" fill="white" stroke="black" />
<line x1="950" y1="90" x2="950" y2="300" stroke="black" />
<line x1="925" y1="300" x2="975" y2="300" stroke="black" />
<text x="962" y="292" font-family="Verdana" font-size="8" text-anchor="middle"  dominant-baseline="middle" fill="black" > 285</text>
<circle cx="925" cy="300" r="4" fill="white" stroke="black" />
<line x1="925" y1="304" x2="925" y2="449" stroke="black" />
<line x1="912" y1="449" x2="938" y2="449" stroke="black" />
<text x="931" y="441" font-family="Verdana" font-size="8" text-anchor="middle"  dominant-baseline="middle" fill="black" > 434</text>
<circle cx="912" cy="449" r="4" fill="white" stroke="black" />
<line x1="912" y1="453" x2="912" y2="591" stroke="black" />
<circle cx="912" cy="591" r="4" fill="white" stroke="black" />
<text x="912" y="603" font-family="Verdana" font-size="8" text-anchor="middle"  dominant-baseline="middle" fill="black" > 576</text>
<circle cx="937" cy="449" r="4" fill="white" stroke="black" />
<line x1="937" y1="453" x2="937" y2="591" stroke="black" />
<circle cx="937" cy="591" r="4" fill="white" stroke="black" />
<text x="937" y="603" font-family="Verdana" font-size="8" text-anchor="middle"  dominant-baseline="middle" fill="black" > 576</text>
<circle cx="975" cy="300" r="4" fill="white" stroke="black" />
<line x1="975" y1="304" x2="975" y2="464" stroke="black" />
<line x1="962" y1="464" x2="988" y2="464" stroke="black" />
<text x="981" y="456" font-family="Verdana" font-size="8" text-anchor="middle"  dominant-baseline="middle" fill="black" > 449</text>
<circle cx="962" cy="464" r="4" fill="white" stroke="black" />
<line x1="962" y1="468" x2="962" y2="591" stroke="black" />
<circle cx="962" cy="591" r="4" fill="white" stroke="black" />
<text x="962" y="603" font-family="Verdana" font-size="8" text-anchor="middle"  dominant-baseline="middle" fill="black" > 576</text>
<circle cx="987" cy="464" r="4" fill="white" stroke="black" />
<line x1="987" y1="468" x2="987" y2="591" stroke="black" />
<circle cx="987" cy="591" r="4" fill="white" stroke="black" />
<text x="987" y="603" font-family="Verdana" font-size="8" text-anchor="middle"  dominant-baseline="middle" fill="black" > 576</text>
<circle cx="1050" cy="86" r="4" fill="white" stroke="black" />
<line x1="1050" y1="90" x2="1050" y2="292" stroke="black" />
<line x1="1025" y1="292" x2="1075" y2="292" stroke="black" />
<text x="1062" y="284" font-family="Verdana" font-size="8" text-anchor="middle"  dominant-baseline="middle" fill="black" > 277</text>
<circle cx="1025" cy="292" r="4" fill="white" stroke="black" />
<line x1="1025" y1="296" x2="1025" y2="435" stroke="black" />
<line x1="1012" y1="435" x2="1038" y2="435" stroke="black" />
<text x="1031" y="427" font-family="Verdana" font-size="8" text-anchor="middle"  dominant-baseline="middle" fill="black" > 420</text>
<circle cx="1012" cy="435" r="4" fill="white" stroke="black" />
<line x1="1012" y1="439" x2="1012" y2="591" stroke="black" />
<circle cx="1012" cy="591" r="4" fill="white" stroke="black" />
<text x="1012" y="603" font-family="Verdana" font-size="8" text-anchor="middle"  dominant-baseline="middle" fill="black" > 576</text>
<circle cx="1037" cy="435" r="4" fill="white" stroke="black" />
<line x1="1037" y1="439" x2="1037" y2="562" stroke="black" />
<line x1="1031" y1="562" x2="1044" y2="562" stroke="black" />
<text x="1040" y="554" font-family="Verdana" font-size="8" text-anchor="middle"  dominant-baseline="middle" fill="black" > 547</text>
<circle cx="1031" cy="562" r="4" fill="white" stroke="black" />
<line x1="1031" y1="566" x2="1031" y2="591" stroke="black" />
<circle cx="1031" cy="591" r="4" fill="white" stroke="black" />
<text x="1031" y="603" font-family="Verdana" font-size="8" text-anchor="middle"  dominant-baseline="middle" fill="black" > 576</text>
<circle cx="1043" cy="562" r="4" fill="white" stroke="black" />
<line x1="1043" y1="566" x2="1043" y2="591" stroke="black" />
<circle cx="1043" cy="591" r="4" fill="white" stroke="black" />
<text x="1043" y="603" font-family="Verdana" font-size="8" text-anchor="middle"  dominant-baseline="middle" fill="black" > 576</text>
<circle cx="1075" cy="292" r="4" fill="white" stroke="black" />
<line x1="1075" y1="296" x2="1075" y2="459" stroke="black" />
<line x1="1062" y1="459" x2="1088" y2="459" stroke="black" />
<text x="1081" y="451" font-family="Verdana" font-size="8" text-anchor="middle"  dominant-baseline="middle" fill="black" > 444</text>
<circle cx="1062" cy="459" r="4" fill="white" stroke="black" />
<line x1="1062" y1="463" x2="1062" y2="591" stroke="black" />
<circle cx="1062" cy="591" r="4" fill="white" stroke="black" />
<text x="1062" y="603" font-family="Verdana" font-size="8" text-anchor="middle"  dominant-baseline="middle" fill="black" > 576</text>
<circle cx="1087" cy="459" r="4" fill="white" stroke="black" />
<line x1="1087" y1="463" x2="1087" y2="591" stroke="black" />
<circle cx="1087" cy="591" r="4" fill="white" stroke="black" />
<text x="1087" y="603" font-family="Verdana" font-size="8" text-anchor="middle"  dominant-baseline="middle" fill="black" > 576</text>
<text x="1200" y="7" font-family="Verdana" font-size="7" text-anchor="middle"  dominant-baseline="middle" fill="black" > C7</text>
<circle cx="1200" cy="15" r="4" fill="white" stroke="black" />
<line x1="1200" y1="19" x2="1200" y2="97" stroke="black" />
<line x1="1150" y1="97" x2="1250" y2="97" stroke="black" />
<text x="1225" y="89" font-family="Verdana" font-size="8" text-anchor="middle"  dominant-baseline="middle" fill="black" > 82</text>
<circle cx="1150" cy="97" r="4" fill="white" stroke="black" />
<line x1="1150" y1="101" x2="1150" y2="350" stroke="black" />
<line x1="1125" y1="350" x2="1175" y2="350" stroke="black" />
<text x="1162" y="342" font-family="Verdana" font-size="8" text-anchor="middle"  dominant-baseline="middle" fill="black" > 335</text>
<circle cx="1125" cy="350" r="4" fill="white" stroke="black" />
<line x1="1125" y1="354" x2="1125" y2="487" stroke="black" />
<line x1="1112" y1="487" x2="1138" y2="487" stroke="black" />
<text x="1131" y="479" font-family="Verdana" font-size="8" text-anchor="middle"  dominant-baseline="middle" fill="black" > 472</text>
<circle cx="1112" cy="487" r="4" fill="white" stroke="black" />
<line x1="1112" y1="491" x2="1112" y2="591" stroke="black" />
<circle cx="1112" cy="591" r="4" fill="white" stroke="black" />
<text x="1112" y="603" font-family="Verdana" font-size="8" text-anchor="middle"  dominant-baseline="middle" fill="black" > 576</text>
<circle cx="1137" cy="487" r="4" fill="white" stroke="black" />
<line x1="1137" y1="491" x2="1137" y2="591" stroke="black" />
<circle cx="1137" cy="591" r="4" fill="white" stroke="black" />
<text x="1137" y="603" font-family="Verdana" font-size="8" text-anchor="middle"  dominant-baseline="middle" fill="black" > 576</text>
<circle cx="1175" cy="350" r="4" fill="white" stroke="black" />
<line x1="1175" y1="354" x2="1175" y2="522" stroke="black" />
<line x1="1162" y1="522" x2="1188" y2="522" stroke="black" />
<text x="1181" y="514" font-family="Verdana" font-size="8" text-anchor="middle"  dominant-baseline="middle" fill="black" > 507</text>
<circle cx="1162" cy="522" r="4" fill="white" stroke="black" />
<line x1="1162" y1="526" x2="1162" y2="591" stroke="black" />
<circle cx="1162" cy="591" r="4" fill="white" stroke="black" />
<text x="1162" y="603" font-family="Verdana" font-size="8" text-anchor="middle"  dominant-baseline="middle" fill="black" > 576</text>
<circle cx="1187" cy="522" r="4" fill="white" stroke="black" />
<line x1="1187" y1="526" x2="1187" y2="591" stroke="black" />
<circle cx="1187" cy="591" r="4" fill="white" stroke="black" />
<text x="1187" y="603" font-family="Verdana" font-size="8" text-anchor="middle"  dominant-baseline="middle" fill="black" > 576</text>
<circle cx="1250" cy="97" r="4" fill="white" stroke="black" />
<line x1="1250" y1="101" x2="1250" y2="255" stroke="black" />
<line x1="1225" y1="255" x2="1275" y2="255" stroke="black" />
<text x="1262" y="247" font-family="Verdana" font-size="8" text-anchor="middle"  dominant-baseline="middle" fill="black" > 240</text>
<circle cx="1225" cy="255" r="4" fill="white" stroke="black" />
<line x1="1225" y1="259" x2="1225" y2="438" stroke="black" />
<line x1="1212" y1="438" x2="1238" y2="438" stroke="black" />
<text x="1231" y="430" font-family="Verdana" font-size="8" text-anchor="middle"  dominant-baseline="middle" fill="black" > 423</text>
<circle cx="1212" cy="438" r="4" fill="white" stroke="black" />
<line x1="1212" y1="442" x2="1212" y2="591" stroke="black" />
<circle cx="1212" cy="591" r="4" fill="white" stroke="black" />
<text x="1212" y="603" font-family="Verdana" font-size="8" text-anchor="middle"  dominant-baseline="middle" fill="black" > 576</text>
<circle cx="1237" cy="438" r="4" fill="white" stroke="black" />
<line x1="1237" y1="442" x2="1237" y2="591" stroke="black" />
<circle cx="1237" cy="591" r="4" fill="white" stroke="black" />
<text x="1237" y="603" font-family="Verdana" font-size="8" text-anchor="middle"  dominant-baseline="middle" fill="black" > 576</text>
<circle cx="1275" cy="255" r="4" fill="white" stroke="black" />
<line x1="1275" y1="259" x2="1275" y2="429" stroke="black" />
<line x1="1262" y1="429" x2="1288" y2="429" stroke="black" />
<text x="1281" y="421" font-family="Verdana" font-size="8" text-anchor="middle"  dominant-baseline="middle" fill="black" > 414</text>
<circle cx="1262" cy="429" r="4" fill="white" stroke="black" />
<line x1="1262" y1="433" x2="1262" y2="514" stroke="black" />
<line x1="1258" y1="510" x2="1266" y2="518" stroke="red" />
<line x1="1258" y1="518" x2="1266" y2="510" stroke="red" />
<text x="1262" y="526" font-family="Verdana" font-size="8" text-anchor="middle"  dominant-baseline="middle" fill="black" > 499</text>
<circle cx="1287" cy="429" r="4" fill="white" stroke="black" />
<line x1="1287" y1="433" x2="1287" y2="591" stroke="black" />
<circle cx="1287" cy="591" r="4" fill="white" stroke="black" />
<text x="1287" y="603" font-family="Verdana" font-size="8" text-anchor="middle"  dominant-baseline="middle" fill="black" > 576</text>
</svg>
