<?xml version="1.0" encoding="utf-8"?>
<svg xmlns="http://www.w3.org/2000/svg" version="1.1" width="1150" height="750">
<rect width="1150" height="15" x="0" y="0" fill="white" />
<rect width="1150" height="15" x="0" y="735" fill="white" />
<rect width="25" height="750" x="0" y="0" fill="white" />
<rect width="25" height="750" x="1125" y="0" fill="white" />
<rect width="1110" height="144" x="25" y="15" fill="ghostwhite" />
<rect width="1110" height="144" x="25" y="159" fill="snow" />
<rect width="1110" height="144" x="25" y="303" fill="ghostwhite" />
<rect width="1110" height="144" x="25" y="447" fill="snow" />
<rect width="1110" height="144" x="25" y="591" fill="ghostwhite" />
<text x="12" y="87" font-family="Verdana" font-size="10" text-anchor="middle"  dominant-baseline="middle" fill="red" > D0</text>
<text x="12" y="231" font-family="Verdana" font-size="10" text-anchor="middle"  dominant-baseline="middle" fill="red" > D1</text>
<text x="12" y="375" font-family="Verdana" font-size="10" text-anchor="middle"  dominant-baseline="middle" fill="red" > D2</text>
<text x="12" y="519" font-family="Verdana" font-size="10" text-anchor="middle"  dominant-baseline="middle" fill="red" > D3</text>
<text x="12" y="663" font-family="Verdana" font-size="10" text-anchor="middle"  dominant-baseline="middle" fill="red" > D4</text>
<text x="12" y="20" font-family="Verdana" font-size="10" text-anchor="middle"  dominant-baseline="middle" fill="black" > 0</text>
<text x="12" y="164" font-family="Verdana" font-size="10" text-anchor="middle"  dominant-baseline="middle" fill="black" > 144</text>
<text x="12" y="308" font-family="Verdana" font-size="10" text-anchor="middle"  dominant-baseline="middle" fill="black" > 288</text>
<text x="12" y="452" font-family="Verdana" font-size="10" text-anchor="middle"  dominant-baseline="middle" fill="black" > 432</text>
<text x="12" y="596" font-family="Verdana" font-size="10" text-anchor="middle"  dominant-baseline="middle" fill="black" > 576</text>
<text x="12" y="740" font-family="Verdana" font-size="10" text-anchor="middle"  dominant-baseline="middle" fill="black" > 720</text>
<text x="100" y="7" font-family="Verdana" font-size="7" text-anchor="middle"  dominant-baseline="middle" fill="black" > C1</text>
<circle cx="100" cy="15" r="4" fill="white" stroke="black" />
<line x1="100" y1="19" x2="100" y2="87" stroke="black" />
<line x1="50" y1="87" x2="150" y2="87" stroke="black" />
<text x="125" y="79" font-family="Verdana" font-size="8" text-anchor="middle"  dominant-baseline="middle" fill="black" > 72</text>
<circle cx="50" cy="87" r="4" fill="white" stroke="black" />
<line x1="50" y1="91" x2="50" y2="295" stroke="black" />
<line x1="25" y1="295" x2="75" y2="295" stroke="black" />
<text x="62" y="287" font-family="Verdana" font-size="8" text-anchor="middle"  dominant-baseline="middle" fill="black" > 280</text>
<circle cx="25" cy="295" r="4" fill="white" stroke="black" />
<line x1="25" y1="299" x2="25" y2="507" stroke="black" />
<line x1="12" y1="507" x2="38" y2="507" stroke="black" />
<text x="31" y="499" font-family="Verdana" font-size="8" text-anchor="middle"  dominant-baseline="middle" fill="black" > 492</text>
<circle cx="12" cy="507" r="4" fill="white" stroke="black" />
<line x1="12" y1="511" x2="12" y2="591" stroke="black" />
<circle cx="12" cy="591" r="4" fill="white" stroke="black" />
<text x="12" y="603" font-family="Verdana" font-size="8" text-anchor="middle"  dominant-baseline="middle" fill="black" > 576</text>
<circle cx="37" cy="507" r="4" fill="white" stroke="black" />
<line x1="37" y1="511" x2="37" y2="591" stroke="black" />
<circle cx="37" cy="591" r="4" fill="white" stroke="black" />
<text x="37" y="603" font-family="Verdana" font-size="8" text-anchor="middle"  dominant-baseline="middle" fill="black" > 576</text>
<circle cx="75" cy="295" r="4" fill="white" stroke="black" />
<line x1="75" y1="299" x2="75" y2="470" stroke="black" />
<line x1="62" y1="470" x2="88" y2="470" stroke="black" />
<text x="81" y="462" font-family="Verdana" font-size="8" text-anchor="middle"  dominant-baseline="middle" fill="black" > 455</text>
<circle cx="62" cy="470" r="4" fill="white" stroke="black" />
<line x1="62" y1="474" x2="62" y2="560" stroke="black" />
<line x1="58" y1="556" x2="66" y2="564" stroke="red" />
<line x1="58" y1="564" x2="66" y2="556" stroke="red" />
<text x="62" y="572" font-family="Verdana" font-size="8" text-anchor="middle"  dominant-baseline="middle" fill="black" > 545</text>
<circle cx="87" cy="470" r="4" fill="white" stroke="black" />
<line x1="87" y1="474" x2="87" y2="591" stroke="black" />
<circle cx="87" cy="591" r="4" fill="white" stroke="black" />
<text x="87" y="603" font-family="Verdana" font-size="8" text-anchor="middle"  dominant-baseline="middle" fill="black" > 576</text>
<circle cx="150" cy="87" r="4" fill="white" stroke="black" />
<line x1="150" y1="91" x2="150" y2="241" stroke="black" />
<line x1="125" y1="241" x2="175" y2="241" stroke="black" />
<text x="162" y="233" font-family="Verdana" font-size="8" text-anchor="middle"  dominant-baseline="middle" fill="black" > 226</text>
<circle cx="125" cy="241" r="4" fill="white" stroke="black" />
<line x1="125" y1="245" x2="125" y2="394" stroke="black" />
<line x1="112" y1="394" x2="138" y2="394" stroke="black" />
<text x="131" y="386" font-family="Verdana" font-size="8" text-anchor="middle"  dominant-baseline="middle" fill="black" > 379</text>
<circle cx="112" cy="394" r="4" fill="white" stroke="black" />
<line x1="112" y1="398" x2="112" y2="568" stroke="black" />
<line x1="106" y1="568" x2="119" y2="568" stroke="black" />
<text x="115" y="560" font-family="Verdana" font-size="8" text-anchor="middle"  dominant-baseline="middle" fill="black" > 553</text>
<circle cx="106" cy="568" r="4" fill="white" stroke="black" />
<line x1="106" y1="572" x2="106" y2="591" stroke="black" />
<circle cx="106" cy="591" r="4" fill="white" stroke="black" />
<text x="106" y="603" font-family="Verdana" font-size="8" text-anchor="middle"  dominant-baseline="middle" fill="black" > 576</text>
<circle cx="118" cy="568" r="4" fill="white" stroke="black" />
<line x1="118" y1="572" x2="118" y2="591" stroke="black" />
<circle cx="118" cy="591" r="4" fill="white" stroke="black" />
<text x="118" y="603" font-family="Verdana" font-size="8" text-anchor="middle"  dominant-baseline="middle" fill="black" > 576</text>
<circle cx="137" cy="394" r="4" fill="white" stroke="black" />
<line x1="137" y1="398" x2="137" y2="570" stroke="black" />
<line x1="131" y1="570" x2="144" y2="570" stroke="black" />
<text x="140" y="562" font-family="Verdana" font-size="8" text-anchor="middle"  dominant-baseline="middle" fill="black" > 555</text>
<circle cx="131" cy="570" r="4" fill="white" stroke="black" />
<line x1="131" y1="574" x2="131" y2="591" stroke="black" />
<circle cx="131" cy="591" r="4" fill="white" stroke="black" />
<text x="131" y="603" font-family="Verdana" font-size="8" text-anchor="middle"  dominant-baseline="middle" fill="black" > 576</text>
<circle cx="143" cy="570" r="4" fill="white" stroke="black" />
<line x1="143" y1="574" x2="143" y2="591" stroke="black" />
<circle cx="143" cy="591" r="4" fill="white" stroke="black" />
<text x="143" y="603" font-family="Verdana" font-size="8" text-anchor="middle"  dominant-baseline="middle" fill="black" > 576</text>
<circle cx="175" cy="241" r="4" fill="white" stroke="black" />
<line x1="175" y1="245" x2="175" y2="591" stroke="black" />
<circle cx="175" cy="591" r="4" fill="white" stroke="black" />
<text x="175" y="603" font-family="Verdana" font-size="8" text-anchor="middle"  dominant-baseline="middle" fill="black" > 576</text>
<text x="250" y="7" font-family="Verdana" font-size="7" text-anchor="middle"  dominant-baseline="middle" fill="black" > C2</text>
<circle cx="250" cy="15" r="4" fill="white" stroke="black" />
<text x="350" y="7" font-family="Verdana" font-size="7" text-anchor="middle"  dominant-baseline="middle" fill="black" > C3</text>
<circle cx="350" cy="15" r="4" fill="white" stroke="black" />
<line x1="250" y1="19" x2="250" y2="35" stroke="black" />
<line x1="250" y1="35" x2="300" y2="41" stroke="black" />
<line x1="350" y1="19" x2="350" y2="35" stroke="black" />
<line x1="350" y1="35" x2="300" y2="41" stroke="black" />
<text x="300" y="29" font-family="Verdana" font-size="8" text-anchor="middle"  dominant-baseline="middle" fill="black" > 26</text>
<circle cx="300" cy="41" r="4" fill="white" stroke="black" />
<line x1="300" y1="45" x2="300" y2="191" stroke="black" />
<line x1="266" y1="191" x2="334" y2="191" stroke="black" />
<text x="308" y="183" font-family="Verdana" font-size="8" text-anchor="middle"  dominant-baseline="middle" fill="black" > 176</text>
<circle cx="266" cy="191" r="4" fill="white" stroke="black" />
<circle cx="299" cy="191" r="4" fill="white" stroke="black" />
<line x1="266" y1="195" x2="266" y2="203" stroke="black" />
<line x1="266" y1="203" x2="282" y2="207" stroke="black" />
<line x1="299" y1="195" x2="299" y2="203" stroke="black" />
<line x1="299" y1="203" x2="282" y2="207" stroke="black" />
<text x="282" y="195" font-family="Verdana" font-size="8" text-anchor="middle"  dominant-baseline="middle" fill="black" > 192</text>
<circle cx="282" cy="207" r="4" fill="white" stroke="black" />
<circle cx="332" cy="191" r="4" fill="white" stroke="black" />
<line x1="282" y1="211" x2="282" y2="241" stroke="black" />
<line x1="282" y1="241" x2="307" y2="252" stroke="black" />
<line x1="332" y1="195" x2="332" y2="241" stroke="black" />
<line x1="332" y1="241" x2="307" y2="252" stroke="black" />
<text x="307" y="240" font-family="Verdana" font-size="8" text-anchor="middle"  dominant-baseline="middle" fill="black" > 237</text>
<circle cx="307" cy="252" r="4" fill="white" stroke="black" />
<line x1="307" y1="256" x2="307" y2="343" stroke="black" />
<line x1="303" y1="339" x2="311" y2="347" stroke="red" />
<line x1="303" y1="347" x2="311" y2="339" stroke="red" />
<text x="307" y="355" font-family="Verdana" font-size="8" text-anchor="middle"  dominant-baseline="middle" fill="black" > 328</text>
<text x="500" y="7" font-family="Verdana" font-size="7" text-anchor="middle"  dominant-baseline="middle" fill="black" > C4</text>
<circle cx="500" cy="15" r="4" fill="white" stroke="black" />
<line x1="500" y1="19" x2="500" y2="144" stroke="black" />
<line x1="450" y1="144" x2="550" y2="144" stroke="black" />
<text x="525" y="136" font-family="Verdana" font-size="8" text-anchor="middle"  dominant-baseline="middle" fill="black" > 129</text>
<circle cx="450" cy="144" r="4" fill="white" stroke="black" />
<circle cx="550" cy="144" r="4" fill="white" stroke="black" />
<line x1="450" y1="148" x2="450" y2="164" stroke="black" />
<line x1="450" y1="164" x2="500" y2="170" stroke="black" />
<line x1="550" y1="148" x2="550" y2="164" stroke="black" />
<line x1="550" y1="164" x2="500" y2="170" stroke="black" />
<text x="500" y="158" font-family="Verdana" font-size="8" text-anchor="middle"  dominant-baseline="middle" fill="black" > 155</text>
<circle cx="500" cy="170" r="4" fill="white" stroke="black" />
<line x1="500" y1="174" x2="500" y2="299" stroke="black" />
<line x1="466" y1="299" x2="534" y2="299" stroke="black" />
<text x="508" y="291" font-family="Verdana" font-size="8" text-anchor="middle"  dominant-baseline="middle" fill="black" > 284</text>
<circle cx="466" cy="299" r="4" fill="white" stroke="black" />
<circle cx="499" cy="299" r="4" fill="white" stroke="black" />
<line x1="466" y1="303" x2="466" y2="314" stroke="black" />
<line x1="466" y1="314" x2="482" y2="318" stroke="black" />
<line x1="499" y1="303" x2="499" y2="314" stroke="black" />
<line x1="499" y1="314" x2="482" y2="318" stroke="black" />
<text x="482" y="306" font-family="Verdana" font-size="8" text-anchor="middle"  dominant-baseline="middle" fill="black" > 303</text>
<circle cx="482" cy="318" r="4" fill="white" stroke="black" />
<line x1="482" y1="322" x2="482" y2="441" stroke="black" />
<line x1="478" y1="437" x2="486" y2="445" stroke="red" />
<line x1="478" y1="445" x2="486" y2="437" stroke="red" />
<text x="482" y="453" font-family="Verdana" font-size="8" text-anchor="middle"  dominant-baseline="middle" fill="black" > 426</text>
<circle cx="532" cy="299" r="4" fill="white" stroke="black" />
<line x1="532" y1="303" x2="532" y2="591" stroke="black" />
<circle cx="532" cy="591" r="4" fill="white" stroke="black" />
<text x="532" y="603" font-family="Verdana" font-size="8" text-anchor="middle"  dominant-baseline="middle" fill="black" > 576</text>
<text x="650" y="7" font-family="Verdana" font-size="7" text-anchor="middle"  dominant-baseline="middle" fill="black" > C5</text>
<circle cx="650" cy="15" r="4" fill="white" stroke="black" />
<line x1="650" y1="19" x2="650" y2="195" stroke="black" />
<line x1="646" y1="199" x2="650" y2="191" stroke="blue" />
<line x1="650" y1="199" x2="654" y2="191" stroke="blue" />
<text x="650" y="207" font-family="Verdana" font-size="8" text-anchor="middle"  dominant-baseline="middle" fill="black" > 180</text>
<text x="800" y="7" font-family="Verdana" font-size="7" text-anchor="middle"  dominant-baseline="middle" fill="black" > C6</text>
<circle cx="800" cy="15" r="4" fill="white" stroke="black" />
<line x1="800" y1="19" x2="800" y2="82" stroke="black" />
<line x1="750" y1="82" x2="850" y2="82" stroke="black" />
<text x="825" y="74" font-family="Verdana" font-size="8" text-anchor="middle"  dominant-baseline="middle" fill="black" > 67</text>
<circle cx="750" cy="82" r="4" fill="white" stroke="black" />
<line x1="750" y1="86" x2="750" y2="276" stroke="black" />
<line x1="725" y1="276" x2="775" y2="276" stroke="black" />
<text x="762" y="268" font-family="Verdana" font-size="8" text-anchor="middle"  dominant-baseline="middle" fill="black" > 261</text>
<circle cx="725" cy="276" r="4" fill="white" stroke="black" />
<line x1="725" y1="280" x2="725" y2="394" stroke="black" />
<line x1="712" y1="394" x2="738" y2="394" stroke="black" />
<text x="731" y="386" font-family="Verdana" font-size="8" text-anchor="middle"  dominant-baseline="middle" fill="black" > 379</text>
<circle cx="712" cy="394" r="4" fill="white" stroke="black" />
<line x1="712" y1="398" x2="712" y2="543" stroke="black" />
<line x1="706" y1="543" x2="719" y2="543" stroke="black" />
<text x="715" y="535" font-family="Verdana" font-size="8" text-anchor="middle"  dominant-baseline="middle" fill="black" > 528</text>
<circle cx="706" cy="543" r="4" fill="white" stroke="black" />
<line x1="706" y1="547" x2="706" y2="591" stroke="black" />
<circle cx="706" cy="591" r="4" fill="white" stroke="black" />
<text x="706" y="603" font-family="Verdana" font-size="8" text-anchor="middle"  dominant-baseline="middle" fill="black" > 576</text>
<circle cx="718" cy="543" r="4" fill="white" stroke="black" />
<line x1="718" y1="547" x2="718" y2="591" stroke="black" />
<circle cx="718" cy="591" r="4" fill="white" stroke="black" />
<text x="718" y="603" font-family="Verdana" font-size="8" text-anchor="middle"  dominant-baseline="middle" fill="black" > 576</text>
<circle cx="737" cy="394" r="4" fill="white" stroke="black" />
<line x1="737" y1="398" x2="737" y2="545" stroke="black" />
<line x1="731" y1="545" x2="744" y2="545" stroke="black" />
<text x="740" y="537" font-family="Verdana" font-size="8" text-anchor="middle"  dominant-baseline="middle" fill="black" > 530</text>
<circle cx="731" cy="545" r="4" fill="white" stroke="black" />
<line x1="731" y1="549" x2="731" y2="591" stroke="black" />
<circle cx="731" cy="591" r="4" fill="white" stroke="black" />
<text x="731" y="603" font-family="Verdana" font-size="8" text-anchor="middle"  dominant-baseline="middle" fill="black" > 576</text>
<circle cx="743" cy="545" r="4" fill="white" stroke="black" />
<line x1="743" y1="549" x2="743" y2="591" stroke="black" />
<circle cx="743" cy="591" r="4" fill="white" stroke="black" />
<text x="743" y="603" font-family="Verdana" font-size="8" text-anchor="middle"  dominant-baseline="middle" fill="black" > 576</text>
<circle cx="775" cy="276" r="4" fill="white" stroke="black" />
<line x1="775" y1="280" x2="775" y2="393" stroke="black" />
<line x1="762" y1="393" x2="788" y2="393" stroke="black" />
<text x="781" y="385" font-family="Verdana" font-size="8" text-anchor="middle"  dominant-baseline="middle" fill="black" > 378</text>
<circle cx="762" cy="393" r="4" fill="white" stroke="black" />
<line x1="762" y1="397" x2="762" y2="591" stroke="black" />
<circle cx="762" cy="591" r="4" fill="white" stroke="black" />
<text x="762" y="603" font-family="Verdana" font-size="8" text-anchor="middle"  dominant-baseline="middle" fill="black" > 576</text>
<circle cx="787" cy="393" r="4" fill="white" stroke="black" />
<line x1="787" y1="397" x2="787" y2="529" stroke="black" />
<line x1="781" y1="529" x2="794" y2="529" stroke="black" />
<text x="790" y="521" font-family="Verdana" font-size="8" text-anchor="middle"  dominant-baseline="middle" fill="black" > 514</text>
<circle cx="781" cy="529" r="4" fill="white" stroke="black" />
<line x1="781" y1="533" x2="781" y2="591" stroke="black" />
<circle cx="781" cy="591" r="4" fill="white" stroke="black" />
<text x="781" y="603" font-family="Verdana" font-size="8" text-anchor="middle"  dominant-baseline="middle" fill="black" > 576</text>
<circle cx="793" cy="529" r="4" fill="white" stroke="black" />
<line x1="793" y1="533" x2="793" y2="591" stroke="black" />
<circle cx="793" cy="591" r="4" fill="white" stroke="black" />
<text x="793" y="603" font-family="Verdana" font-size="8" text-anchor="middle"  dominant-baseline="middle" fill="black" > 576</text>
<circle cx="850" cy="82" r="4" fill="white" stroke="black" />
<line x1="850" y1="86" x2="850" y2="248" stroke="black" />
<line x1="825" y1="248" x2="875" y2="248" stroke="black" />
<text x="862" y="240" font-family="Verdana" font-size="8" text-anchor="middle"  dominant-baseline="middle" fill="black" > 233</text>
<circle cx="825" cy="248" r="4" fill="white" stroke="black" />
<line x1="825" y1="252" x2="825" y2="445" stroke="black" />
<line x1="812" y1="445" x2="838" y2="445" stroke="black" />
<text x="831" y="437" font-family="Verdana" font-size="8" text-anchor="middle"  dominant-baseline="middle" fill="black" > 430</text>
<circle cx="812" cy="445" r="4" fill="white" stroke="black" />
<line x1="812" y1="449" x2="812" y2="591" stroke="black" />
<circle cx="812" cy="591" r="4" fill="white" stroke="black" />
<text x="812" y="603" font-family="Verdana" font-size="8" text-anchor="middle"  dominant-baseline="middle" fill="black" > 576</text>
<circle cx="837" cy="445" r="4" fill="white" stroke="black" />
<line x1="837" y1="449" x2="837" y2="591" stroke="black" />
<circle cx="837" cy="591" r="4" fill="white" stroke="black" />
<text x="837" y="603" font-family="Verdana" font-size="8" text-anchor="middle"  dominant-baseline="middle" fill="black" > 576</text>
<circle cx="875" cy="248" r="4" fill="white" stroke="black" />
<line x1="875" y1="252" x2="875" y2="437" stroke="black" />
<line x1="862" y1="437" x2="888" y2="437" stroke="black" />
<text x="881" y="429" font-family="Verdana" font-size="8" text-anchor="middle"  dominant-baseline="middle" fill="black" > 422</text>
<circle cx="862" cy="437" r="4" fill="white" stroke="black" />
<line x1="862" y1="441" x2="862" y2="584" stroke="black" />
<line x1="856" y1="584" x2="869" y2="584" stroke="black" />
<text x="865" y="576" font-family="Verdana" font-size="8" text-anchor="middle"  dominant-baseline="middle" fill="black" > 569</text>
<circle cx="856" cy="584" r="4" fill="white" stroke="black" />
<line x1="856" y1="588" x2="856" y2="591" stroke="black" />
<circle cx="856" cy="591" r="4" fill="white" stroke="black" />
<text x="856" y="603" font-family="Verdana" font-size="8" text-anchor="middle"  dominant-baseline="middle" fill="black" > 576</text>
<circle cx="868" cy="584" r="4" fill="white" stroke="black" />
<line x1="868" y1="588" x2="868" y2="591" stroke="black" />
<circle cx="868" cy="591" r="4" fill="white" stroke="black" />
<text x="868" y="603" font-family="Verdana" font-size="8" text-anchor="middle"  dominant-baseline="middle" fill="black" > 576</text>
<circle cx="887" cy="437" r="4" fill="white" stroke="black" />
<line x1="887" y1="441" x2="887" y2="567" stroke="black" />
<line x1="881" y1="567" x2="894" y2="567" stroke="black" />
<text x="890" y="559" font-family="Verdana" font-size="8" text-anchor="middle"  dominant-baseline="middle" fill="black" > 552</text>
<circle cx="881" cy="567" r="4" fill="white" stroke="black" />
<line x1="881" y1="571" x2="881" y2="591" stroke="black" />
<circle cx="881" cy="591" r="4" fill="white" stroke="black" />
<text x="881" y="603" font-family="Verdana" font-size="8" text-anchor="middle"  dominant-baseline="middle" fill="black" > 576</text>
<circle cx="893" cy="567" r="4" fill="white" stroke="black" />
<line x1="893" y1="571" x2="893" y2="591" stroke="black" />
<circle cx="893" cy="591" r="4" fill="white" stroke="black" />
<text x="893" y="603" font-family="Verdana" font-size="8" text-anchor="middle"  dominant-baseline="middle" fill="black" > 576</text>
<text x="1000" y="7" font-family="Verdana" font-size="7" text-anchor="middle"  dominant-baseline="middle" fill="black" > C7</text>
<circle cx="1000" cy="15" r="4" fill="white" stroke="black" />
<line x1="1000" y1="19" x2="1000" y2="36" stroke="black" />
<line x1="950" y1="36" x2="1050" y2="36" stroke="black" />
<text x="1025" y="28" font-family="Verdana" font-size="8" text-anchor="middle"  dominant-baseline="middle" fill="black" > 21</text>
<circle cx="950" cy="36" r="4" fill="white" stroke="black" />
<line x1="950" y1="40" x2="950" y2="199" stroke="black" />
<line x1="946" y1="195" x2="954" y2="203" stroke="red" />
<line x1="946" y1="203" x2="954" y2="195" stroke="red" />
<text x="950" y="211" font-family="Verdana" font-size="8" text-anchor="middle"  dominant-baseline="middle" fill="black" > 184</text>
<circle cx="1050" cy="36" r="4" fill="white" stroke="black" />
<line x1="1050" y1="40" x2="1050" y2="187" stroke="black" />
<line x1="1025" y1="187" x2="1075" y2="187" stroke="black" />
<text x="1062" y="179" font-family="Verdana" font-size="8" text-anchor="middle"  dominant-baseline="middle" fill="black" > 172</text>
<circle cx="1025" cy="187" r="4" fill="white" stroke="black" />
<line x1="1025" y1="191" x2="1025" y2="315" stroke="black" />
<line x1="1012" y1="315" x2="1038" y2="315" stroke="black" />
<text x="1031" y="307" font-family="Verdana" font-size="8" text-anchor="middle"  dominant-baseline="middle" fill="black" > 300</text>
<circle cx="1012" cy="315" r="4" fill="white" stroke="black" />
<line x1="1012" y1="319" x2="1012" y2="462" stroke="black" />
<line x1="1006" y1="462" x2="1019" y2="462" stroke="black" />
<text x="1015" y="454" font-family="Verdana" font-size="8" text-anchor="middle"  dominant-baseline="middle" fill="black" > 447</text>
<circle cx="1006" cy="462" r="4" fill="white" stroke="black" />
<line x1="1006" y1="466" x2="1006" y2="591" stroke="black" />
<circle cx="1006" cy="591" r="4" fill="white" stroke="black" />
<text x="1006" y="603" font-family="Verdana" font-size="8" text-anchor="middle"  dominant-baseline="middle" fill="black" > 576</text>
<circle cx="1018" cy="462" r="4" fill="white" stroke="black" />
<line x1="1018" y1="466" x2="1018" y2="591" stroke="black" />
<circle cx="1018" cy="591" r="4" fill="white" stroke="black" />
<text x="1018" y="603" font-family="Verdana" font-size="8" text-anchor="middle"  dominant-baseline="middle" fill="black" > 576</text>
<circle cx="1037" cy="315" r="4" fill="white" stroke="black" />
<line x1="1037" y1="319" x2="1037" y2="470" stroke="black" />
<line x1="1031" y1="470" x2="1044" y2="470" stroke="black" />
<text x="1040" y="462" font-family="Verdana" font-size="8" text-anchor="middle"  dominant-baseline="middle" fill="black" > 455</text>
<circle cx="1031" cy="470" r="4" fill="white" stroke="black" />
<line x1="1031" y1="474" x2="1031" y2="567" stroke="black" />
<line x1="1028" y1="567" x2="1034" y2="567" stroke="black" />
<text x="1032" y="559" font-family="Verdana" font-size="8" text-anchor="middle"  dominant-baseline="middle" fill="black" > 552</text>
<circle cx="1028" cy="567" r="4" fill="white" stroke="black" />
<line x1="1028" y1="571" x2="1028" y2="591" stroke="black" />
<circle cx="1028" cy="591" r="4" fill="white" stroke="black" />
<text x="1028" y="603" font-family="Verdana" font-size="8" text-anchor="middle"  dominant-baseline="middle" fill="black" > 576</text>
<circle cx="1034" cy="567" r="4" fill="white" stroke="black" />
<line x1="1034" y1="571" x2="1034" y2="591" stroke="black" />
<circle cx="1034" cy="591" r="4" fill="white" stroke="black" />
<text x="1034" y="603" font-family="Verdana" font-size="8" text-anchor="middle"  dominant-baseline="middle" fill="black" > 576</text>
<circle cx="1043" cy="470" r="4" fill="white" stroke="black" />
<line x1="1043" y1="474" x2="1043" y2="591" stroke="black" />
<circle cx="1043" cy="591" r="4" fill="white" stroke="black" />
<text x="1043" y="603" font-family="Verdana" font-size="8" text-anchor="middle"  dominant-baseline="middle" fill="black" > 576</text>
<circle cx="1075" cy="187" r="4" fill="white" stroke="black" />
<line x1="1075" y1="191" x2="1075" y2="316" stroke="black" />
<line x1="1062" y1="316" x2="1088" y2="316" stroke="black" />
<text x="1081" y="308" font-family="Verdana" font-size="8" text-anchor="middle"  dominant-baseline="middle" fill="black" > 301</text>
<circle cx="1062" cy="316" r="4" fill="white" stroke="black" />
<line x1="1062" y1="320" x2="1062" y2="480" stroke="black" />
<line x1="1056" y1="480" x2="1069" y2="480" stroke="black" />
<text x="1065" y="472" font-family="Verdana" font-size="8" text-anchor="middle"  dominant-baseline="middle" fill="black" > 465</text>
<circle cx="1056" cy="480" r="4" fill="white" stroke="black" />
<line x1="1056" y1="484" x2="1056" y2="591" stroke="black" />
<circle cx="1056" cy="591" r="4" fill="white" stroke="black" />
<text x="1056" y="603" font-family="Verdana" font-size="8" text-anchor="middle"  dominant-baseline="middle" fill="black" > 576</text>
<circle cx="1068" cy="480" r="4" fill="white" stroke="black" />
<line x1="1068" y1="484" x2="1068" y2="591" stroke="black" />
<circle cx="1068" cy="591" r="4" fill="white" stroke="black" />
<text x="1068" y="603" font-family="Verdana" font-size="8" text-anchor="middle"  dominant-baseline="middle" fill="black" > 576</text>
<circle cx="1087" cy="316" r="4" fill="white" stroke="black" />
<line x1="1087" y1="320" x2="1087" y2="454" stroke="black" />
<line x1="1079" y1="454" x2="1096" y2="454" stroke="black" />
<text x="1089" y="446" font-family="Verdana" font-size="8" text-anchor="middle"  dominant-baseline="middle" fill="black" > 439</text>
<circle cx="1079" cy="454" r="4" fill="white" stroke="black" />
<line x1="1079" y1="458" x2="1079" y2="523" stroke="black" />
<line x1="1075" y1="527" x2="1079" y2="519" stroke="blue" />
<line x1="1079" y1="527" x2="1083" y2="519" stroke="blue" />
<text x="1079" y="535" font-family="Verdana" font-size="8" text-anchor="middle"  dominant-baseline="middle" fill="black" > 508</text>
<circle cx="1087" cy="454" r="4" fill="white" stroke="black" />
<line x1="1087" y1="458" x2="1087" y2="591" stroke="black" />
<circle cx="1087" cy="591" r="4" fill="white" stroke="black" />
<text x="1087" y="603" font-family="Verdana" font-size="8" text-anchor="middle"  dominant-baseline="middle" fill="black" > 576</text>
<circle cx="1095" cy="454" r="4" fill="white" stroke="black" />
<line x1="1095" y1="458" x2="1095" y2="591" stroke="black" />
<circle cx="1095" cy="591" r="4" fill="white" stroke="black" />
<text x="1095" y="603" font-family="Verdana" font-size="8" text-anchor="middle"  dominant-baseline="middle" fill="black" > 576</text>
</svg>
