<?xml version="1.0" encoding="utf-8"?>
<svg xmlns="http://www.w3.org/2000/svg" version="1.1" width="1650" height="750">
<rect width="1650" height="15" x="0" y="0" fill="white" />
<rect width="1650" height="15" x="0" y="735" fill="white" />
<rect width="25" height="750" x="0" y="0" fill="white" />
<rect width="25" height="750" x="1625" y="0" fill="white" />
<rect width="1610" height="144" x="25" y="15" fill="ghostwhite" />
<rect width="1610" height="144" x="25" y="159" fill="snow" />
<rect width="1610" height="144" x="25" y="303" fill="ghostwhite" />
<rect width="1610" height="144" x="25" y="447" fill="snow" />
<rect width="1610" height="144" x="25" y="591" fill="ghostwhite" />
<text x="12" y="87" font-family="Verdana" font-size="10" text-anchor="middle"  dominant-baseline="middle" fill="red" > D0</text>
<text x="12" y="231" font-family="Verdana" font-size="10" text-anchor="middle"  dominant-baseline="middle" fill="red" > D1</text>
<text x="12" y="375" font-family="Verdana" font-size="10" text-anchor="middle"  dominant-baseline="middle" fill="red" > D2</text>
<text x="12" y="519" font-family="Verdana" font-size="10" text-anchor="middle"  dominant-baseline="middle" fill="red" > D3</text>
<text x="12" y="663" font-family="Verdana" font-size="10" text-anchor="middle"  dominant-baseline="middle" fill="red" > D4</text>
<text x="12" y="20" font-family="Verdana" font-size="10" text-anchor="middle"  dominant-baseline="middle" fill="black" > 0</text>
<text x="12" y="164" font-family="Verdana" font-size="10" text-anchor="middle"  dominant-baseline="middle" fill="black" > 144</text>
<text x="12" y="308" font-family="Verdana" font-size="10" text-anchor="middle"  dominant-baseline="middle" fill="black" > 288</text>
<text x="12" y="452" font-family="Verdana" font-size="10" text-anchor="middle"  dominant-baseline="middle" fill="black" > 432</text>
<text x="12" y="596" font-family="Verdana" font-size="10" text-anchor="middle"  dominant-baseline="middle" fill="black" > 576</text>
<text x="12" y="740" font-family="Verdana" font-size="10" text-anchor="middle"  dominant-baseline="middle" fill="black" > 720</text>
<text x="100" y="7" font-family="Verdana" font-size="7" text-anchor="middle"  dominant-baseline="middle" fill="black" > C1</text>
<circle cx="100" cy="15" r="4" fill="white" stroke="black" />
<line x1="100" y1="19" x2="100" y2="92" stroke="black" />
<line x1="50" y1="92" x2="150" y2="92" stroke="black" />
<text x="125" y="84" font-family="Verdana" font-size="8" text-anchor="middle"  dominant-baseline="middle" fill="black" > 77</text>
<circle cx="50" cy="92" r="4" fill="white" stroke="black" />
<line x1="50" y1="96" x2="50" y2="262" stroke="black" />
<line x1="46" y1="258" x2="54" y2="266" stroke="red" />
<line x1="46" y1="266" x2="54" y2="258" stroke="red" />
<text x="50" y="274" font-family="Verdana" font-size="8" text-anchor="middle"  dominant-baseline="middle" fill="black" > 247</text>
<circle cx="150" cy="92" r="4" fill="white" stroke="black" />
<line x1="150" y1="96" x2="150" y2="235" stroke="black" />
<line x1="125" y1="235" x2="175" y2="235" stroke="black" />
<text x="162" y="227" font-family="Verdana" font-size="8" text-anchor="middle"  dominant-baseline="middle" fill="black" > 220</text>
<circle cx="125" cy="235" r="4" fill="white" stroke="black" />
<line x1="125" y1="239" x2="125" y2="591" stroke="black" />
<circle cx="125" cy="591" r="4" fill="white" stroke="black" />
<text x="125" y="603" font-family="Verdana" font-size="8" text-anchor="middle"  dominant-baseline="middle" fill="black" > 576</text>
<circle cx="175" cy="235" r="4" fill="white" stroke="black" />
<line x1="175" y1="239" x2="175" y2="588" stroke="black" />
<line x1="162" y1="588" x2="188" y2="588" stroke="black" />
<text x="181" y="580" font-family="Verdana" font-size="8" text-anchor="middle"  dominant-baseline="middle" fill="black" > 573</text>
<circle cx="162" cy="588" r="4" fill="white" stroke="black" />
<line x1="162" y1="592" x2="162" y2="591" stroke="black" />
<circle cx="162" cy="591" r="4" fill="white" stroke="black" />
<text x="162" y="603" font-family="Verdana" font-size="8" text-anchor="middle"  dominant-baseline="middle" fill="black" > 576</text>
<circle cx="187" cy="588" r="4" fill="white" stroke="black" />
<line x1="187" y1="592" x2="187" y2="591" stroke="black" />
<circle cx="187" cy="591" r="4" fill="white" stroke="black" />
<text x="187" y="603" font-family="Verdana" font-size="8" text-anchor="middle"  dominant-baseline="middle" fill="black" > 576</text>
<text x="300" y="7" font-family="Verdana" font-size="7" text-anchor="middle"  dominant-baseline="middle" fill="black" > C2</text>
<circle cx="300" cy="15" r="4" fill="white" stroke="black" />
<line x1="300" y1="19" x2="300" y2="109" stroke="black" />
<line x1="250" y1="109" x2="350" y2="109" stroke="black" />
<text x="325" y="101" font-family="Verdana" font-size="8" text-anchor="middle"  dominant-baseline="middle" fill="black" > 94</text>
<circle cx="250" cy="109" r="4" fill="white" stroke="black" />
<line x1="250" y1="113" x2="250" y2="355" stroke="black" />
<line x1="225" y1="355" x2="275" y2="355" stroke="black" />
<text x="262" y="347" font-family="Verdana" font-size="8" text-anchor="middle"  dominant-baseline="middle" fill="black" > 340</text>
<circle cx="225" cy="355" r="4" fill="white" stroke="black" />
<line x1="225" y1="359" x2="225" y2="591" stroke="black" />
<circle cx="225" cy="591" r="4" fill="white" stroke="black" />
<text x="225" y="603" font-family="Verdana" font-size="8" text-anchor="middle"  dominant-baseline="middle" fill="black" > 576</text>
<circle cx="275" cy="355" r="4" fill="white" stroke="black" />
<line x1="275" y1="359" x2="275" y2="591" stroke="black" />
<circle cx="275" cy="591" r="4" fill="white" stroke="black" />
<text x="275" y="603" font-family="Verdana" font-size="8" text-anchor="middle"  dominant-baseline="middle" fill="black" > 576</text>
<circle cx="350" cy="109" r="4" fill="white" stroke="black" />
<line x1="350" y1="113" x2="350" y2="284" stroke="black" />
<line x1="325" y1="284" x2="375" y2="284" stroke="black" />
<text x="362" y="276" font-family="Verdana" font-size="8" text-anchor="middle"  dominant-baseline="middle" fill="black" > 269</text>
<circle cx="325" cy="284" r="4" fill="white" stroke="black" />
<line x1="325" y1="288" x2="325" y2="434" stroke="black" />
<line x1="312" y1="434" x2="338" y2="434" stroke="black" />
<text x="331" y="426" font-family="Verdana" font-size="8" text-anchor="middle"  dominant-baseline="middle" fill="black" > 419</text>
<circle cx="312" cy="434" r="4" fill="white" stroke="black" />
<line x1="312" y1="438" x2="312" y2="591" stroke="black" />
<circle cx="312" cy="591" r="4" fill="white" stroke="black" />
<text x="312" y="603" font-family="Verdana" font-size="8" text-anchor="middle"  dominant-baseline="middle" fill="black" > 576</text>
<circle cx="337" cy="434" r="4" fill="white" stroke="black" />
<line x1="337" y1="438" x2="337" y2="573" stroke="black" />
<line x1="331" y1="573" x2="344" y2="573" stroke="black" />
<text x="340" y="565" font-family="Verdana" font-size="8" text-anchor="middle"  dominant-baseline="middle" fill="black" > 558</text>
<circle cx="331" cy="573" r="4" fill="white" stroke="black" />
<line x1="331" y1="577" x2="331" y2="591" stroke="black" />
<circle cx="331" cy="591" r="4" fill="white" stroke="black" />
<text x="331" y="603" font-family="Verdana" font-size="8" text-anchor="middle"  dominant-baseline="middle" fill="black" > 576</text>
<circle cx="343" cy="573" r="4" fill="white" stroke="black" />
<line x1="343" y1="577" x2="343" y2="591" stroke="black" />
<circle cx="343" cy="591" r="4" fill="white" stroke="black" />
<text x="343" y="603" font-family="Verdana" font-size="8" text-anchor="middle"  dominant-baseline="middle" fill="black" > 576</text>
<circle cx="375" cy="284" r="4" fill="white" stroke="black" />
<line x1="375" y1="288" x2="375" y2="416" stroke="black" />
<line x1="362" y1="416" x2="388" y2="416" stroke="black" />
<text x="381" y="408" font-family="Verdana" font-size="8" text-anchor="middle"  dominant-baseline="middle" fill="black" > 401</text>
<circle cx="362" cy="416" r="4" fill="white" stroke="black" />
<line x1="362" y1="420" x2="362" y2="550" stroke="black" />
<line x1="356" y1="550" x2="369" y2="550" stroke="black" />
<text x="365" y="542" font-family="Verdana" font-size="8" text-anchor="middle"  dominant-baseline="middle" fill="black" > 535</text>
<circle cx="356" cy="550" r="4" fill="white" stroke="black" />
<line x1="356" y1="554" x2="356" y2="591" stroke="black" />
<circle cx="356" cy="591" r="4" fill="white" stroke="black" />
<text x="356" y="603" font-family="Verdana" font-size="8" text-anchor="middle"  dominant-baseline="middle" fill="black" > 576</text>
<circle cx="368" cy="550" r="4" fill="white" stroke="black" />
<line x1="368" y1="554" x2="368" y2="591" stroke="black" />
<circle cx="368" cy="591" r="4" fill="white" stroke="black" />
<text x="368" y="603" font-family="Verdana" font-size="8" text-anchor="middle"  dominant-baseline="middle" fill="black" > 576</text>
<circle cx="387" cy="416" r="4" fill="white" stroke="black" />
<line x1="387" y1="420" x2="387" y2="572" stroke="black" />
<line x1="381" y1="572" x2="394" y2="572" stroke="black" />
<text x="390" y="564" font-family="Verdana" font-size="8" text-anchor="middle"  dominant-baseline="middle" fill="black" > 557</text>
<circle cx="381" cy="572" r="4" fill="white" stroke="black" />
<line x1="381" y1="576" x2="381" y2="591" stroke="black" />
<circle cx="381" cy="591" r="4" fill="white" stroke="black" />
<text x="381" y="603" font-family="Verdana" font-size="8" text-anchor="middle"  dominant-baseline="middle" fill="black" > 576</text>
<circle cx="393" cy="572" r="4" fill="white" stroke="black" />
<line x1="393" y1="576" x2="393" y2="591" stroke="black" />
<circle cx="393" cy="591" r="4" fill="white" stroke="black" />
<text x="393" y="603" font-family="Verdana" font-size="8" text-anchor="middle"  dominant-baseline="middle" fill="black" > 576</text>
<text x="500" y="7" font-family="Verdana" font-size="7" text-anchor="middle"  dominant-baseline="middle" fill="black" > C3</text>
<circle cx="500" cy="15" r="4" fill="white" stroke="black" />
<line x1="500" y1="19" x2="500" y2="126" stroke="black" />
<line x1="450" y1="126" x2="550" y2="126" stroke="black" />
<text x="525" y="118" font-family="Verdana" font-size="8" text-anchor="middle"  dominant-baseline="middle" fill="black" > 111</text>
<circle cx="450" cy="126" r="4" fill="white" stroke="black" />
<line x1="450" y1="130" x2="450" y2="377" stroke="black" />
<line x1="446" y1="373" x2="454" y2="381" stroke="red" />
<line x1="446" y1="381" x2="454" y2="373" stroke="red" />
<text x="450" y="389" font-family="Verdana" font-size="8" text-anchor="middle"  dominant-baseline="middle" fill="black" > 362</text>
<circle cx="550" cy="126" r="4" fill="white" stroke="black" />
<line x1="550" y1="130" x2="550" y2="344" stroke="black" />
<line x1="525" y1="344" x2="575" y2="344" stroke="black" />
<text x="562" y="336" font-family="Verdana" font-size="8" text-anchor="middle"  dominant-baseline="middle" fill="black" > 329</text>
<circle cx="525" cy="344" r="4" fill="white" stroke="black" />
<line x1="525" y1="348" x2="525" y2="591" stroke="black" />
<circle cx="525" cy="591" r="4" fill="white" stroke="black" />
<text x="525" y="603" font-family="Verdana" font-size="8" text-anchor="middle"  dominant-baseline="middle" fill="black" > 576</text>
<circle cx="575" cy="344" r="4" fill="white" stroke="black" />
<line x1="575" y1="348" x2="575" y2="519" stroke="black" />
<line x1="562" y1="519" x2="588" y2="519" stroke="black" />
<text x="581" y="511" font-family="Verdana" font-size="8" text-anchor="middle"  dominant-baseline="middle" fill="black" > 504</text>
<circle cx="562" cy="519" r="4" fill="white" stroke="black" />
<line x1="562" y1="523" x2="562" y2="591" stroke="black" />
<circle cx="562" cy="591" r="4" fill="white" stroke="black" />
<text x="562" y="603" font-family="Verdana" font-size="8" text-anchor="middle"  dominant-baseline="middle" fill="black" > 576</text>
<circle cx="587" cy="519" r="4" fill="white" stroke="black" />
<line x1="587" y1="523" x2="587" y2="591" stroke="black" />
<circle cx="587" cy="591" r="4" fill="white" stroke="black" />
<text x="587" y="603" font-family="Verdana" font-size="8" text-anchor="middle"  dominant-baseline="middle" fill="black" > 576</text>
<text x="700" y="7" font-family="Verdana" font-size="7" text-anchor="middle"  dominant-baseline="middle" fill="black" > C4</text>
<circle cx="700" cy="15" r="4" fill="white" stroke="black" />
<line x1="700" y1="19" x2="700" y2="144" stroke="black" />
<line x1="650" y1="144" x2="750" y2="144" stroke="black" />
<text x="725" y="136" font-family="Verdana" font-size="8" text-anchor="middle"  dominant-baseline="middle" fill="black" > 129</text>
<circle cx="650" cy="144" r="4" fill="white" stroke="black" />
<line x1="650" y1="148" x2="650" y2="335" stroke="black" />
<line x1="625" y1="335" x2="675" y2="335" stroke="black" />
<text x="662" y="327" font-family="Verdana" font-size="8" text-anchor="middle"  dominant-baseline="middle" fill="black" > 320</text>
<circle cx="625" cy="335" r="4" fill="white" stroke="black" />
<line x1="625" y1="339" x2="625" y2="445" stroke="black" />
<line x1="621" y1="441" x2="629" y2="449" stroke="red" />
<line x1="621" y1="449" x2="629" y2="441" stroke="red" />
<text x="625" y="457" font-family="Verdana" font-size="8" text-anchor="middle"  dominant-baseline="middle" fill="black" > 430</text>
<circle cx="675" cy="335" r="4" fill="white" stroke="black" />
<line x1="675" y1="339" x2="675" y2="470" stroke="black" />
<line x1="671" y1="466" x2="679" y2="474" stroke="red" />
<line x1="671" y1="474" x2="679" y2="466" stroke="red" />
<text x="675" y="482" font-family="Verdana" font-size="8" text-anchor="middle"  dominant-baseline="middle" fill="black" > 455</text>
<circle cx="750" cy="144" r="4" fill="white" stroke="black" />
<line x1="750" y1="148" x2="750" y2="356" stroke="black" />
<line x1="725" y1="356" x2="775" y2="356" stroke="black" />
<text x="762" y="348" font-family="Verdana" font-size="8" text-anchor="middle"  dominant-baseline="middle" fill="black" > 341</text>
<circle cx="725" cy="356" r="4" fill="white" stroke="black" />
<circle cx="775" cy="356" r="4" fill="white" stroke="black" />
<line x1="725" y1="360" x2="725" y2="357" stroke="black" />
<line x1="725" y1="357" x2="750" y2="357" stroke="black" />
<line x1="775" y1="360" x2="775" y2="357" stroke="black" />
<line x1="775" y1="357" x2="750" y2="357" stroke="black" />
<text x="750" y="345" font-family="Verdana" font-size="8" text-anchor="middle"  dominant-baseline="middle" fill="black" > 342</text>
<circle cx="750" cy="357" r="4" fill="white" stroke="black" />
<line x1="750" y1="361" x2="750" y2="400" stroke="black" />
<line x1="746" y1="396" x2="754" y2="404" stroke="red" />
<line x1="746" y1="404" x2="754" y2="396" stroke="red" />
<text x="750" y="412" font-family="Verdana" font-size="8" text-anchor="middle"  dominant-baseline="middle" fill="black" > 385</text>
<text x="850" y="7" font-family="Verdana" font-size="7" text-anchor="middle"  dominant-baseline="middle" fill="black" > C5</text>
<circle cx="850" cy="15" r="4" fill="white" stroke="black" />
<line x1="850" y1="19" x2="850" y2="84" stroke="black" />
<line x1="846" y1="88" x2="850" y2="80" stroke="blue" />
<line x1="850" y1="88" x2="854" y2="80" stroke="blue" />
<text x="850" y="96" font-family="Verdana" font-size="8" text-anchor="middle"  dominant-baseline="middle" fill="black" > 69</text>
<text x="1000" y="7" font-family="Verdana" font-size="7" text-anchor="middle"  dominant-baseline="middle" fill="black" > C6</text>
<circle cx="1000" cy="15" r="4" fill="white" stroke="black" />
<line x1="1000" y1="19" x2="1000" y2="84" stroke="black" />
<line x1="950" y1="84" x2="1050" y2="84" stroke="black" />
<text x="1025" y="76" font-family="Verdana" font-size="8" text-anchor="middle"  dominant-baseline="middle" fill="black" > 69</text>
<circle cx="950" cy="84" r="4" fill="white" stroke="black" />
<line x1="950" y1="88" x2="950" y2="230" stroke="black" />
<line x1="925" y1="230" x2="975" y2="230" stroke="black" />
<text x="962" y="222" font-family="Verdana" font-size="8" text-anchor="middle"  dominant-baseline="middle" fill="black" > 215</text>
<circle cx="925" cy="230" r="4" fill="white" stroke="black" />
<line x1="925" y1="234" x2="925" y2="415" stroke="black" />
<line x1="912" y1="415" x2="938" y2="415" stroke="black" />
<text x="931" y="407" font-family="Verdana" font-size="8" text-anchor="middle"  dominant-baseline="middle" fill="black" > 400</text>
<circle cx="912" cy="415" r="4" fill="white" stroke="black" />
<line x1="912" y1="419" x2="912" y2="591" stroke="black" />
<circle cx="912" cy="591" r="4" fill="white" stroke="black" />
<text x="912" y="603" font-family="Verdana" font-size="8" text-anchor="middle"  dominant-baseline="middle" fill="black" > 576</text>
<circle cx="937" cy="415" r="4" fill="white" stroke="black" />
<line x1="937" y1="419" x2="937" y2="591" stroke="black" />
<circle cx="937" cy="591" r="4" fill="white" stroke="black" />
<text x="937" y="603" font-family="Verdana" font-size="8" text-anchor="middle"  dominant-baseline="middle" fill="black" > 576</text>
<circle cx="975" cy="230" r="4" fill="white" stroke="black" />
<line x1="975" y1="234" x2="975" y2="443" stroke="black" />
<line x1="962" y1="443" x2="988" y2="443" stroke="black" />
<text x="981" y="435" font-family="Verdana" font-size="8" text-anchor="middle"  dominant-baseline="middle" fill="black" > 428</text>
<circle cx="962" cy="443" r="4" fill="white" stroke="black" />
<line x1="962" y1="447" x2="962" y2="591" stroke="black" />
<circle cx="962" cy="591" r="4" fill="white" stroke="black" />
<text x="962" y="603" font-family="Verdana" font-size="8" text-anchor="middle"  dominant-baseline="middle" fill="black" > 576</text>
<circle cx="987" cy="443" r="4" fill="white" stroke="black" />
<line x1="987" y1="447" x2="987" y2="535" stroke="black" />
<line x1="983" y1="539" x2="987" y2="531" stroke="blue" />
<line x1="987" y1="539" x2="991" y2="531" stroke="blue" />
<text x="987" y="547" font-family="Verdana" font-size="8" text-anchor="middle"  dominant-baseline="middle" fill="black" > 520</text>
<circle cx="1050" cy="84" r="4" fill="white" stroke="black" />
<line x1="1050" y1="88" x2="1050" y2="256" stroke="black" />
<line x1="1025" y1="256" x2="1075" y2="256" stroke="black" />
<text x="1062" y="248" font-family="Verdana" font-size="8" text-anchor="middle"  dominant-baseline="middle" fill="black" > 241</text>
<circle cx="1025" cy="256" r="4" fill="white" stroke="black" />
<line x1="1025" y1="260" x2="1025" y2="461" stroke="black" />
<line x1="1012" y1="461" x2="1038" y2="461" stroke="black" />
<text x="1031" y="453" font-family="Verdana" font-size="8" text-anchor="middle"  dominant-baseline="middle" fill="black" > 446</text>
<circle cx="1012" cy="461" r="4" fill="white" stroke="black" />
<line x1="1012" y1="465" x2="1012" y2="591" stroke="black" />
<circle cx="1012" cy="591" r="4" fill="white" stroke="black" />
<text x="1012" y="603" font-family="Verdana" font-size="8" text-anchor="middle"  dominant-baseline="middle" fill="black" > 576</text>
<circle cx="1037" cy="461" r="4" fill="white" stroke="black" />
<line x1="1037" y1="465" x2="1037" y2="591" stroke="black" />
<circle cx="1037" cy="591" r="4" fill="white" stroke="black" />
<text x="1037" y="603" font-family="Verdana" font-size="8" text-anchor="middle"  dominant-baseline="middle" fill="black" > 576</text>
<circle cx="1075" cy="256" r="4" fill="white" stroke="black" />
<line x1="1075" y1="260" x2="1075" y2="438" stroke="black" />
<line x1="1062" y1="438" x2="1088" y2="438" stroke="black" />
<text x="1081" y="430" font-family="Verdana" font-size="8" text-anchor="middle"  dominant-baseline="middle" fill="black" > 423</text>
<circle cx="1062" cy="438" r="4" fill="white" stroke="black" />
<line x1="1062" y1="442" x2="1062" y2="591" stroke="black" />
<circle cx="1062" cy="591" r="4" fill="white" stroke="black" />
<text x="1062" y="603" font-family="Verdana" font-size="8" text-anchor="middle"  dominant-baseline="middle" fill="black" > 576</text>
<circle cx="1087" cy="438" r="4" fill="white" stroke="black" />
<line x1="1087" y1="442" x2="1087" y2="591" stroke="black" />
<circle cx="1087" cy="591" r="4" fill="white" stroke="black" />
<text x="1087" y="603" font-family="Verdana" font-size="8" text-anchor="middle"  dominant-baseline="middle" fill="black" > 576</text>
<text x="1250" y="7" font-family="Verdana" font-size="7" text-anchor="middle"  dominant-baseline="middle" fill="black" > C7</text>
<circle cx="1250" cy="15" r="4" fill="white" stroke="black" />
<line x1="1250" y1="19" x2="1250" y2="227" stroke="black" />
<line x1="1150" y1="227" x2="1350" y2="227" stroke="black" />
<text x="1275" y="219" font-family="Verdana" font-size="8" text-anchor="middle"  dominant-baseline="middle" fill="black" > 212</text>
<circle cx="1150" cy="227" r="4" fill="white" stroke="black" />
<line x1="1150" y1="231" x2="1150" y2="495" stroke="black" />
<line x1="1125" y1="495" x2="1175" y2="495" stroke="black" />
<text x="1162" y="487" font-family="Verdana" font-size="8" text-anchor="middle"  dominant-baseline="middle" fill="black" > 480</text>
<circle cx="1125" cy="495" r="4" fill="white" stroke="black" />
<line x1="1125" y1="499" x2="1125" y2="591" stroke="black" />
<circle cx="1125" cy="591" r="4" fill="white" stroke="black" />
<text x="1125" y="603" font-family="Verdana" font-size="8" text-anchor="middle"  dominant-baseline="middle" fill="black" > 576</text>
<circle cx="1175" cy="495" r="4" fill="white" stroke="black" />
<line x1="1175" y1="499" x2="1175" y2="591" stroke="black" />
<circle cx="1175" cy="591" r="4" fill="white" stroke="black" />
<text x="1175" y="603" font-family="Verdana" font-size="8" text-anchor="middle"  dominant-baseline="middle" fill="black" > 576</text>
<circle cx="1250" cy="227" r="4" fill="white" stroke="black" />
<line x1="1250" y1="231" x2="1250" y2="531" stroke="black" />
<line x1="1246" y1="527" x2="1254" y2="535" stroke="red" />
<line x1="1246" y1="535" x2="1254" y2="527" stroke="red" />
<text x="1250" y="543" font-family="Verdana" font-size="8" text-anchor="middle"  dominant-baseline="middle" fill="black" > 516</text>
<circle cx="1350" cy="227" r="4" fill="white" stroke="black" />
<line x1="1350" y1="231" x2="1350" y2="461" stroke="black" />
<line x1="1346" y1="457" x2="1354" y2="465" stroke="red" />
<line x1="1346" y1="465" x2="1354" y2="457" stroke="red" />
<text x="1350" y="473" font-family="Verdana" font-size="8" text-anchor="middle"  dominant-baseline="middle" fill="black" > 446</text>
<text x="1500" y="7" font-family="Verdana" font-size="7" text-anchor="middle"  dominant-baseline="middle" fill="black" > C8</text>
<circle cx="1500" cy="15" r="4" fill="white" stroke="black" />
<line x1="1500" y1="19" x2="1500" y2="127" stroke="black" />
<line x1="1450" y1="127" x2="1550" y2="127" stroke="black" />
<text x="1525" y="119" font-family="Verdana" font-size="8" text-anchor="middle"  dominant-baseline="middle" fill="black" > 112</text>
<circle cx="1450" cy="127" r="4" fill="white" stroke="black" />
<line x1="1450" y1="131" x2="1450" y2="591" stroke="black" />
<circle cx="1450" cy="591" r="4" fill="white" stroke="black" />
<text x="1450" y="603" font-family="Verdana" font-size="8" text-anchor="middle"  dominant-baseline="middle" fill="black" > 576</text>
<circle cx="1550" cy="127" r="4" fill="white" stroke="black" />
<line x1="1550" y1="131" x2="1550" y2="292" stroke="black" />
<line x1="1525" y1="292" x2="1575" y2="292" stroke="black" />
<text x="1562" y="284" font-family="Verdana" font-size="8" text-anchor="middle"  dominant-baseline="middle" fill="black" > 277</text>
<circle cx="1525" cy="292" r="4" fill="white" stroke="black" />
<line x1="1525" y1="296" x2="1525" y2="432" stroke="black" />
<line x1="1512" y1="432" x2="1538" y2="432" stroke="black" />
<text x="1531" y="424" font-family="Verdana" font-size="8" text-anchor="middle"  dominant-baseline="middle" fill="black" > 417</text>
<circle cx="1512" cy="432" r="4" fill="white" stroke="black" />
<line x1="1512" y1="436" x2="1512" y2="591" stroke="black" />
<circle cx="1512" cy="591" r="4" fill="white" stroke="black" />
<text x="1512" y="603" font-family="Verdana" font-size="8" text-anchor="middle"  dominant-baseline="middle" fill="black" > 576</text>
<circle cx="1537" cy="432" r="4" fill="white" stroke="black" />
<line x1="1537" y1="436" x2="1537" y2="591" stroke="black" />
<circle cx="1537" cy="591" r="4" fill="white" stroke="black" />
<text x="1537" y="603" font-family="Verdana" font-size="8" text-anchor="middle"  dominant-baseline="middle" fill="black" > 576</text>
<circle cx="1575" cy="292" r="4" fill="white" stroke="black" />
<line x1="1575" y1="296" x2="1575" y2="488" stroke="black" />
<line x1="1562" y1="488" x2="1588" y2="488" stroke="black" />
<text x="1581" y="480" font-family="Verdana" font-size="8" text-anchor="middle"  dominant-baseline="middle" fill="black" > 473</text>
<circle cx="1562" cy="488" r="4" fill="white" stroke="black" />
<line x1="1562" y1="492" x2="1562" y2="591" stroke="black" />
<circle cx="1562" cy="591" r="4" fill="white" stroke="black" />
<text x="1562" y="603" font-family="Verdana" font-size="8" text-anchor="middle"  dominant-baseline="middle" fill="black" > 576</text>
<circle cx="1587" cy="488" r="4" fill="white" stroke="black" />
<line x1="1587" y1="492" x2="1587" y2="591" stroke="black" />
<circle cx="1587" cy="591" r="4" fill="white" stroke="black" />
<text x="1587" y="603" font-family="Verdana" font-size="8" text-anchor="middle"  dominant-baseline="middle" fill="black" > 576</text>
</svg>
