<?xml version="1.0" encoding="utf-8"?>
<svg xmlns="http://www.w3.org/2000/svg" version="1.1" width="1550" height="750">
<rect width="1550" height="15" x="0" y="0" fill="white" />
<rect width="1550" height="15" x="0" y="735" fill="white" />
<rect width="25" height="750" x="0" y="0" fill="white" />
<rect width="25" height="750" x="1525" y="0" fill="white" />
<rect width="1510" height="144" x="25" y="15" fill="ghostwhite" />
<rect width="1510" height="144" x="25" y="159" fill="snow" />
<rect width="1510" height="144" x="25" y="303" fill="ghostwhite" />
<rect width="1510" height="144" x="25" y="447" fill="snow" />
<rect width="1510" height="144" x="25" y="591" fill="ghostwhite" />
<text x="12" y="87" font-family="Verdana" font-size="10" text-anchor="middle"  dominant-baseline="middle" fill="red" > D0</text>
<text x="12" y="231" font-family="Verdana" font-size="10" text-anchor="middle"  dominant-baseline="middle" fill="red" > D1</text>
<text x="12" y="375" font-family="Verdana" font-size="10" text-anchor="middle"  dominant-baseline="middle" fill="red" > D2</text>
<text x="12" y="519" font-family="Verdana" font-size="10" text-anchor="middle"  dominant-baseline="middle" fill="red" > D3</text>
<text x="12" y="663" font-family="Verdana" font-size="10" text-anchor="middle"  dominant-baseline="middle" fill="red" > D4</text>
<text x="12" y="20" font-family="Verdana" font-size="10" text-anchor="middle"  dominant-baseline="middle" fill="black" > 0</text>
<text x="12" y="164" font-family="Verdana" font-size="10" text-anchor="middle"  dominant-baseline="middle" fill="black" > 144</text>
<text x="12" y="308" font-family="Verdana" font-size="10" text-anchor="middle"  dominant-baseline="middle" fill="black" > 288</text>
<text x="12" y="452" font-family="Verdana" font-size="10" text-anchor="middle"  dominant-baseline="middle" fill="black" > 432</text>
<text x="12" y="596" font-family="Verdana" font-size="10" text-anchor="middle"  dominant-baseline="middle" fill="black" > 576</text>
<text x="12" y="740" font-family="Verdana" font-size="10" text-anchor="middle"  dominant-baseline="middle" fill="black" > 720</text>
<text x="100" y="7" font-family="Verdana" font-size="7" text-anchor="middle"  dominant-baseline="middle" fill="black" > C1</text>
<circle cx="100" cy="15" r="4" fill="white" stroke="black" />
<line x1="100" y1="19" x2="100" y2="182" stroke="black" />
<line x1="50" y1="182" x2="150" y2="182" stroke="black" />
<text x="125" y="174" font-family="Verdana" font-size="8" text-anchor="middle"  dominant-baseline="middle" fill="black" > 167</text>
<circle cx="50" cy="182" r="4" fill="white" stroke="black" />
<line x1="50" y1="186" x2="50" y2="591" stroke="black" />
<circle cx="50" cy="591" r="4" fill="white" stroke="black" />
<text x="50" y="603" font-family="Verdana" font-size="8" text-anchor="middle"  dominant-baseline="middle" fill="black" > 576</text>
<circle cx="150" cy="182" r="4" fill="white" stroke="black" />
<line x1="150" y1="186" x2="150" y2="393" stroke="black" />
<line x1="125" y1="393" x2="175" y2="393" stroke="black" />
<text x="162" y="385" font-family="Verdana" font-size="8" text-anchor="middle"  dominant-baseline="middle" fill="black" > 378</text>
<circle cx="125" cy="393" r="4" fill="white" stroke="black" />
<circle cx="175" cy="393" r="4" fill="white" stroke="black" />
<line x1="125" y1="397" x2="125" y2="401" stroke="black" />
<line x1="125" y1="401" x2="150" y2="403" stroke="black" />
<line x1="175" y1="397" x2="175" y2="401" stroke="black" />
<line x1="175" y1="401" x2="150" y2="403" stroke="black" />
<text x="150" y="391" font-family="Verdana" font-size="8" text-anchor="middle"  dominant-baseline="middle" fill="black" > 388</text>
<circle cx="150" cy="403" r="4" fill="white" stroke="black" />
<line x1="150" y1="407" x2="150" y2="591" stroke="black" />
<circle cx="150" cy="591" r="4" fill="white" stroke="black" />
<text x="150" y="603" font-family="Verdana" font-size="8" text-anchor="middle"  dominant-baseline="middle" fill="black" > 576</text>
<text x="300" y="7" font-family="Verdana" font-size="7" text-anchor="middle"  dominant-baseline="middle" fill="black" > C2</text>
<circle cx="300" cy="15" r="4" fill="white" stroke="black" />
<line x1="300" y1="19" x2="300" y2="176" stroke="black" />
<line x1="250" y1="176" x2="350" y2="176" stroke="black" />
<text x="325" y="168" font-family="Verdana" font-size="8" text-anchor="middle"  dominant-baseline="middle" fill="black" > 161</text>
<circle cx="250" cy="176" r="4" fill="white" stroke="black" />
<line x1="250" y1="180" x2="250" y2="353" stroke="black" />
<line x1="225" y1="353" x2="275" y2="353" stroke="black" />
<text x="262" y="345" font-family="Verdana" font-size="8" text-anchor="middle"  dominant-baseline="middle" fill="black" > 338</text>
<circle cx="225" cy="353" r="4" fill="white" stroke="black" />
<line x1="225" y1="357" x2="225" y2="494" stroke="black" />
<line x1="212" y1="494" x2="238" y2="494" stroke="black" />
<text x="231" y="486" font-family="Verdana" font-size="8" text-anchor="middle"  dominant-baseline="middle" fill="black" > 479</text>
<circle cx="212" cy="494" r="4" fill="white" stroke="black" />
<line x1="212" y1="498" x2="212" y2="591" stroke="black" />
<circle cx="212" cy="591" r="4" fill="white" stroke="black" />
<text x="212" y="603" font-family="Verdana" font-size="8" text-anchor="middle"  dominant-baseline="middle" fill="black" > 576</text>
<circle cx="237" cy="494" r="4" fill="white" stroke="black" />
<line x1="237" y1="498" x2="237" y2="591" stroke="black" />
<circle cx="237" cy="591" r="4" fill="white" stroke="black" />
<text x="237" y="603" font-family="Verdana" font-size="8" text-anchor="middle"  dominant-baseline="middle" fill="black" > 576</text>
<circle cx="275" cy="353" r="4" fill="white" stroke="black" />
<line x1="275" y1="357" x2="275" y2="501" stroke="black" />
<line x1="262" y1="501" x2="288" y2="501" stroke="black" />
<text x="281" y="493" font-family="Verdana" font-size="8" text-anchor="middle"  dominant-baseline="middle" fill="black" > 486</text>
<circle cx="262" cy="501" r="4" fill="white" stroke="black" />
<circle cx="287" cy="501" r="4" fill="white" stroke="black" />
<line x1="262" y1="505" x2="262" y2="558" stroke="black" />
<line x1="262" y1="558" x2="274" y2="576" stroke="black" />
<line x1="287" y1="505" x2="287" y2="558" stroke="black" />
<line x1="287" y1="558" x2="274" y2="576" stroke="black" />
<text x="274" y="564" font-family="Verdana" font-size="8" text-anchor="middle"  dominant-baseline="middle" fill="black" > 561</text>
<circle cx="274" cy="576" r="4" fill="white" stroke="black" />
<line x1="274" y1="580" x2="274" y2="591" stroke="black" />
<circle cx="274" cy="591" r="4" fill="white" stroke="black" />
<text x="274" y="603" font-family="Verdana" font-size="8" text-anchor="middle"  dominant-baseline="middle" fill="black" > 576</text>
<circle cx="350" cy="176" r="4" fill="white" stroke="black" />
<line x1="350" y1="180" x2="350" y2="316" stroke="black" />
<line x1="325" y1="316" x2="375" y2="316" stroke="black" />
<text x="362" y="308" font-family="Verdana" font-size="8" text-anchor="middle"  dominant-baseline="middle" fill="black" > 301</text>
<circle cx="325" cy="316" r="4" fill="white" stroke="black" />
<line x1="325" y1="320" x2="325" y2="474" stroke="black" />
<line x1="312" y1="474" x2="338" y2="474" stroke="black" />
<text x="331" y="466" font-family="Verdana" font-size="8" text-anchor="middle"  dominant-baseline="middle" fill="black" > 459</text>
<circle cx="312" cy="474" r="4" fill="white" stroke="black" />
<line x1="312" y1="478" x2="312" y2="591" stroke="black" />
<circle cx="312" cy="591" r="4" fill="white" stroke="black" />
<text x="312" y="603" font-family="Verdana" font-size="8" text-anchor="middle"  dominant-baseline="middle" fill="black" > 576</text>
<circle cx="337" cy="474" r="4" fill="white" stroke="black" />
<line x1="337" y1="478" x2="337" y2="591" stroke="black" />
<circle cx="337" cy="591" r="4" fill="white" stroke="black" />
<text x="337" y="603" font-family="Verdana" font-size="8" text-anchor="middle"  dominant-baseline="middle" fill="black" > 576</text>
<circle cx="375" cy="316" r="4" fill="white" stroke="black" />
<line x1="375" y1="320" x2="375" y2="446" stroke="black" />
<line x1="362" y1="446" x2="388" y2="446" stroke="black" />
<text x="381" y="438" font-family="Verdana" font-size="8" text-anchor="middle"  dominant-baseline="middle" fill="black" > 431</text>
<circle cx="362" cy="446" r="4" fill="white" stroke="black" />
<line x1="362" y1="450" x2="362" y2="591" stroke="black" />
<circle cx="362" cy="591" r="4" fill="white" stroke="black" />
<text x="362" y="603" font-family="Verdana" font-size="8" text-anchor="middle"  dominant-baseline="middle" fill="black" > 576</text>
<circle cx="387" cy="446" r="4" fill="white" stroke="black" />
<line x1="387" y1="450" x2="387" y2="591" stroke="black" />
<circle cx="387" cy="591" r="4" fill="white" stroke="black" />
<text x="387" y="603" font-family="Verdana" font-size="8" text-anchor="middle"  dominant-baseline="middle" fill="black" > 576</text>
<text x="450" y="7" font-family="Verdana" font-size="7" text-anchor="middle"  dominant-baseline="middle" fill="black" > C3</text>
<circle cx="450" cy="15" r="4" fill="white" stroke="black" />
<line x1="450" y1="19" x2="450" y2="377" stroke="black" />
<line x1="446" y1="373" x2="454" y2="381" stroke="red" />
<line x1="446" y1="381" x2="454" y2="373" stroke="red" />
<text x="450" y="389" font-family="Verdana" font-size="8" text-anchor="middle"  dominant-baseline="middle" fill="black" > 362</text>
<text x="550" y="7" font-family="Verdana" font-size="7" text-anchor="middle"  dominant-baseline="middle" fill="black" > C4</text>
<circle cx="550" cy="15" r="4" fill="white" stroke="black" />
<line x1="550" y1="19" x2="550" y2="196" stroke="black" />
<line x1="546" y1="192" x2="554" y2="200" stroke="red" />
<line x1="546" y1="200" x2="554" y2="192" stroke="red" />
<text x="550" y="208" font-family="Verdana" font-size="8" text-anchor="middle"  dominant-baseline="middle" fill="black" > 181</text>
<text x="650" y="7" font-family="Verdana" font-size="7" text-anchor="middle"  dominant-baseline="middle" fill="black" > C5</text>
<circle cx="650" cy="15" r="4" fill="white" stroke="black" />
<text x="750" y="7" font-family="Verdana" font-size="7" text-anchor="middle"  dominant-baseline="middle" fill="black" > C6</text>
<circle cx="750" cy="15" r="4" fill="white" stroke="black" />
<line x1="650" y1="19" x2="650" y2="31" stroke="black" />
<line x1="650" y1="31" x2="700" y2="36" stroke="black" />
<line x1="750" y1="19" x2="750" y2="31" stroke="black" />
<line x1="750" y1="31" x2="700" y2="36" stroke="black" />
<text x="700" y="24" font-family="Verdana" font-size="8" text-anchor="middle"  dominant-baseline="middle" fill="black" > 21</text>
<circle cx="700" cy="36" r="4" fill="white" stroke="black" />
<line x1="700" y1="40" x2="700" y2="168" stroke="black" />
<line x1="666" y1="168" x2="734" y2="168" stroke="black" />
<text x="708" y="160" font-family="Verdana" font-size="8" text-anchor="middle"  dominant-baseline="middle" fill="black" > 153</text>
<circle cx="666" cy="168" r="4" fill="white" stroke="black" />
<circle cx="699" cy="168" r="4" fill="white" stroke="black" />
<line x1="666" y1="172" x2="666" y2="183" stroke="black" />
<line x1="666" y1="183" x2="682" y2="187" stroke="black" />
<line x1="699" y1="172" x2="699" y2="183" stroke="black" />
<line x1="699" y1="183" x2="682" y2="187" stroke="black" />
<text x="682" y="175" font-family="Verdana" font-size="8" text-anchor="middle"  dominant-baseline="middle" fill="black" > 172</text>
<circle cx="682" cy="187" r="4" fill="white" stroke="black" />
<circle cx="732" cy="168" r="4" fill="white" stroke="black" />
<line x1="682" y1="191" x2="682" y2="195" stroke="black" />
<line x1="682" y1="195" x2="707" y2="197" stroke="black" />
<line x1="732" y1="172" x2="732" y2="195" stroke="black" />
<line x1="732" y1="195" x2="707" y2="197" stroke="black" />
<text x="707" y="185" font-family="Verdana" font-size="8" text-anchor="middle"  dominant-baseline="middle" fill="black" > 182</text>
<circle cx="707" cy="197" r="4" fill="white" stroke="black" />
<line x1="707" y1="201" x2="707" y2="591" stroke="black" />
<circle cx="707" cy="591" r="4" fill="white" stroke="black" />
<text x="707" y="603" font-family="Verdana" font-size="8" text-anchor="middle"  dominant-baseline="middle" fill="black" > 576</text>
<text x="900" y="7" font-family="Verdana" font-size="7" text-anchor="middle"  dominant-baseline="middle" fill="black" > C7</text>
<circle cx="900" cy="15" r="4" fill="white" stroke="black" />
<line x1="900" y1="19" x2="900" y2="126" stroke="black" />
<line x1="850" y1="126" x2="950" y2="126" stroke="black" />
<text x="925" y="118" font-family="Verdana" font-size="8" text-anchor="middle"  dominant-baseline="middle" fill="black" > 111</text>
<circle cx="850" cy="126" r="4" fill="white" stroke="black" />
<line x1="850" y1="130" x2="850" y2="364" stroke="black" />
<line x1="825" y1="364" x2="875" y2="364" stroke="black" />
<text x="862" y="356" font-family="Verdana" font-size="8" text-anchor="middle"  dominant-baseline="middle" fill="black" > 349</text>
<circle cx="825" cy="364" r="4" fill="white" stroke="black" />
<line x1="825" y1="368" x2="825" y2="579" stroke="black" />
<line x1="812" y1="579" x2="838" y2="579" stroke="black" />
<text x="831" y="571" font-family="Verdana" font-size="8" text-anchor="middle"  dominant-baseline="middle" fill="black" > 564</text>
<circle cx="812" cy="579" r="4" fill="white" stroke="black" />
<line x1="812" y1="583" x2="812" y2="591" stroke="black" />
<circle cx="812" cy="591" r="4" fill="white" stroke="black" />
<text x="812" y="603" font-family="Verdana" font-size="8" text-anchor="middle"  dominant-baseline="middle" fill="black" > 576</text>
<circle cx="837" cy="579" r="4" fill="white" stroke="black" />
<line x1="837" y1="583" x2="837" y2="591" stroke="black" />
<circle cx="837" cy="591" r="4" fill="white" stroke="black" />
<text x="837" y="603" font-family="Verdana" font-size="8" text-anchor="middle"  dominant-baseline="middle" fill="black" > 576</text>
<circle cx="875" cy="364" r="4" fill="white" stroke="black" />
<line x1="875" y1="368" x2="875" y2="429" stroke="black" />
<line x1="871" y1="425" x2="879" y2="433" stroke="red" />
<line x1="871" y1="433" x2="879" y2="425" stroke="red" />
<text x="875" y="441" font-family="Verdana" font-size="8" text-anchor="middle"  dominant-baseline="middle" fill="black" > 414</text>
<circle cx="950" cy="126" r="4" fill="white" stroke="black" />
<line x1="950" y1="130" x2="950" y2="312" stroke="black" />
<line x1="925" y1="312" x2="975" y2="312" stroke="black" />
<text x="962" y="304" font-family="Verdana" font-size="8" text-anchor="middle"  dominant-baseline="middle" fill="black" > 297</text>
<circle cx="925" cy="312" r="4" fill="white" stroke="black" />
<line x1="925" y1="316" x2="925" y2="551" stroke="black" />
<line x1="912" y1="551" x2="938" y2="551" stroke="black" />
<text x="931" y="543" font-family="Verdana" font-size="8" text-anchor="middle"  dominant-baseline="middle" fill="black" > 536</text>
<circle cx="912" cy="551" r="4" fill="white" stroke="black" />
<line x1="912" y1="555" x2="912" y2="591" stroke="black" />
<circle cx="912" cy="591" r="4" fill="white" stroke="black" />
<text x="912" y="603" font-family="Verdana" font-size="8" text-anchor="middle"  dominant-baseline="middle" fill="black" > 576</text>
<circle cx="937" cy="551" r="4" fill="white" stroke="black" />
<line x1="937" y1="555" x2="937" y2="591" stroke="black" />
<circle cx="937" cy="591" r="4" fill="white" stroke="black" />
<text x="937" y="603" font-family="Verdana" font-size="8" text-anchor="middle"  dominant-baseline="middle" fill="black" > 576</text>
<circle cx="975" cy="312" r="4" fill="white" stroke="black" />
<line x1="975" y1="316" x2="975" y2="476" stroke="black" />
<line x1="962" y1="476" x2="988" y2="476" stroke="black" />
<text x="981" y="468" font-family="Verdana" font-size="8" text-anchor="middle"  dominant-baseline="middle" fill="black" > 461</text>
<circle cx="962" cy="476" r="4" fill="white" stroke="black" />
<line x1="962" y1="480" x2="962" y2="591" stroke="black" />
<circle cx="962" cy="591" r="4" fill="white" stroke="black" />
<text x="962" y="603" font-family="Verdana" font-size="8" text-anchor="middle"  dominant-baseline="middle" fill="black" > 576</text>
<circle cx="987" cy="476" r="4" fill="white" stroke="black" />
<line x1="987" y1="480" x2="987" y2="591" stroke="black" />
<circle cx="987" cy="591" r="4" fill="white" stroke="black" />
<text x="987" y="603" font-family="Verdana" font-size="8" text-anchor="middle"  dominant-baseline="middle" fill="black" > 576</text>
<text x="1100" y="7" font-family="Verdana" font-size="7" text-anchor="middle"  dominant-baseline="middle" fill="black" > C8</text>
<circle cx="1100" cy="15" r="4" fill="white" stroke="black" />
<line x1="1100" y1="19" x2="1100" y2="215" stroke="black" />
<line x1="1050" y1="215" x2="1150" y2="215" stroke="black" />
<text x="1125" y="207" font-family="Verdana" font-size="8" text-anchor="middle"  dominant-baseline="middle" fill="black" > 200</text>
<circle cx="1050" cy="215" r="4" fill="white" stroke="black" />
<circle cx="1150" cy="215" r="4" fill="white" stroke="black" />
<line x1="1050" y1="219" x2="1050" y2="313" stroke="black" />
<line x1="1050" y1="313" x2="1100" y2="345" stroke="black" />
<line x1="1150" y1="219" x2="1150" y2="313" stroke="black" />
<line x1="1150" y1="313" x2="1100" y2="345" stroke="black" />
<text x="1100" y="333" font-family="Verdana" font-size="8" text-anchor="middle"  dominant-baseline="middle" fill="black" > 330</text>
<circle cx="1100" cy="345" r="4" fill="white" stroke="black" />
<line x1="1100" y1="349" x2="1100" y2="378" stroke="black" />
<line x1="1062" y1="378" x2="1138" y2="378" stroke="black" />
<text x="1106" y="370" font-family="Verdana" font-size="8" text-anchor="middle"  dominant-baseline="middle" fill="black" > 363</text>
<circle cx="1062" cy="378" r="4" fill="white" stroke="black" />
<circle cx="1087" cy="378" r="4" fill="white" stroke="black" />
<line x1="1062" y1="382" x2="1062" y2="381" stroke="black" />
<line x1="1062" y1="381" x2="1074" y2="382" stroke="black" />
<line x1="1087" y1="382" x2="1087" y2="381" stroke="black" />
<line x1="1087" y1="381" x2="1074" y2="382" stroke="black" />
<text x="1074" y="370" font-family="Verdana" font-size="8" text-anchor="middle"  dominant-baseline="middle" fill="black" > 367</text>
<circle cx="1074" cy="382" r="4" fill="white" stroke="black" />
<line x1="1074" y1="386" x2="1074" y2="591" stroke="black" />
<circle cx="1074" cy="591" r="4" fill="white" stroke="black" />
<text x="1074" y="603" font-family="Verdana" font-size="8" text-anchor="middle"  dominant-baseline="middle" fill="black" > 576</text>
<circle cx="1112" cy="378" r="4" fill="white" stroke="black" />
<line x1="1112" y1="382" x2="1112" y2="484" stroke="black" />
<line x1="1108" y1="480" x2="1116" y2="488" stroke="red" />
<line x1="1108" y1="488" x2="1116" y2="480" stroke="red" />
<text x="1112" y="496" font-family="Verdana" font-size="8" text-anchor="middle"  dominant-baseline="middle" fill="black" > 469</text>
<circle cx="1137" cy="378" r="4" fill="white" stroke="black" />
<line x1="1137" y1="382" x2="1137" y2="569" stroke="black" />
<line x1="1131" y1="569" x2="1144" y2="569" stroke="black" />
<text x="1140" y="561" font-family="Verdana" font-size="8" text-anchor="middle"  dominant-baseline="middle" fill="black" > 554</text>
<circle cx="1131" cy="569" r="4" fill="white" stroke="black" />
<line x1="1131" y1="573" x2="1131" y2="591" stroke="black" />
<circle cx="1131" cy="591" r="4" fill="white" stroke="black" />
<text x="1131" y="603" font-family="Verdana" font-size="8" text-anchor="middle"  dominant-baseline="middle" fill="black" > 576</text>
<circle cx="1143" cy="569" r="4" fill="white" stroke="black" />
<line x1="1143" y1="573" x2="1143" y2="591" stroke="black" />
<circle cx="1143" cy="591" r="4" fill="white" stroke="black" />
<text x="1143" y="603" font-family="Verdana" font-size="8" text-anchor="middle"  dominant-baseline="middle" fill="black" > 576</text>
<text x="1300" y="7" font-family="Verdana" font-size="7" text-anchor="middle"  dominant-baseline="middle" fill="black" > C9</text>
<circle cx="1300" cy="15" r="4" fill="white" stroke="black" />
<line x1="1300" y1="19" x2="1300" y2="174" stroke="black" />
<line x1="1250" y1="174" x2="1350" y2="174" stroke="black" />
<text x="1325" y="166" font-family="Verdana" font-size="8" text-anchor="middle"  dominant-baseline="middle" fill="black" > 159</text>
<circle cx="1250" cy="174" r="4" fill="white" stroke="black" />
<line x1="1250" y1="178" x2="1250" y2="472" stroke="black" />
<line x1="1225" y1="472" x2="1275" y2="472" stroke="black" />
<text x="1262" y="464" font-family="Verdana" font-size="8" text-anchor="middle"  dominant-baseline="middle" fill="black" > 457</text>
<circle cx="1225" cy="472" r="4" fill="white" stroke="black" />
<line x1="1225" y1="476" x2="1225" y2="591" stroke="black" />
<circle cx="1225" cy="591" r="4" fill="white" stroke="black" />
<text x="1225" y="603" font-family="Verdana" font-size="8" text-anchor="middle"  dominant-baseline="middle" fill="black" > 576</text>
<circle cx="1275" cy="472" r="4" fill="white" stroke="black" />
<line x1="1275" y1="476" x2="1275" y2="554" stroke="black" />
<line x1="1271" y1="558" x2="1275" y2="550" stroke="blue" />
<line x1="1275" y1="558" x2="1279" y2="550" stroke="blue" />
<text x="1275" y="566" font-family="Verdana" font-size="8" text-anchor="middle"  dominant-baseline="middle" fill="black" > 539</text>
<circle cx="1350" cy="174" r="4" fill="white" stroke="black" />
<line x1="1350" y1="178" x2="1350" y2="591" stroke="black" />
<circle cx="1350" cy="591" r="4" fill="white" stroke="black" />
<text x="1350" y="603" font-family="Verdana" font-size="8" text-anchor="middle"  dominant-baseline="middle" fill="black" > 576</text>
<text x="1450" y="7" font-family="Verdana" font-size="7" text-anchor="middle"  dominant-baseline="middle" fill="black" > C10</text>
<circle cx="1450" cy="15" r="4" fill="white" stroke="black" />
<line x1="1450" y1="19" x2="1450" y2="99" stroke="black" />
<line x1="1446" y1="103" x2="1450" y2="95" stroke="blue" />
<line x1="1450" y1="103" x2="1454" y2="95" stroke="blue" />
<text x="1450" y="111" font-family="Verdana" font-size="8" text-anchor="middle"  dominant-baseline="middle" fill="black" > 84</text>
</svg>
