<?xml version="1.0" encoding="utf-8"?>
<svg xmlns="http://www.w3.org/2000/svg" version="1.1" width="2050" height="750">
<rect width="2050" height="15" x="0" y="0" fill="white" />
<rect width="2050" height="15" x="0" y="735" fill="white" />
<rect width="25" height="750" x="0" y="0" fill="white" />
<rect width="25" height="750" x="2025" y="0" fill="white" />
<rect width="2010" height="144" x="25" y="15" fill="ghostwhite" />
<rect width="2010" height="144" x="25" y="159" fill="snow" />
<rect width="2010" height="144" x="25" y="303" fill="ghostwhite" />
<rect width="2010" height="144" x="25" y="447" fill="snow" />
<rect width="2010" height="144" x="25" y="591" fill="ghostwhite" />
<text x="12" y="87" font-family="Verdana" font-size="10" text-anchor="middle"  dominant-baseline="middle" fill="red" > D0</text>
<text x="12" y="231" font-family="Verdana" font-size="10" text-anchor="middle"  dominant-baseline="middle" fill="red" > D1</text>
<text x="12" y="375" font-family="Verdana" font-size="10" text-anchor="middle"  dominant-baseline="middle" fill="red" > D2</text>
<text x="12" y="519" font-family="Verdana" font-size="10" text-anchor="middle"  dominant-baseline="middle" fill="red" > D3</text>
<text x="12" y="663" font-family="Verdana" font-size="10" text-anchor="middle"  dominant-baseline="middle" fill="red" > D4</text>
<text x="12" y="20" font-family="Verdana" font-size="10" text-anchor="middle"  dominant-baseline="middle" fill="black" > 0</text>
<text x="12" y="164" font-family="Verdana" font-size="10" text-anchor="middle"  dominant-baseline="middle" fill="black" > 144</text>
<text x="12" y="308" font-family="Verdana" font-size="10" text-anchor="middle"  dominant-baseline="middle" fill="black" > 288</text>
<text x="12" y="452" font-family="Verdana" font-size="10" text-anchor="middle"  dominant-baseline="middle" fill="black" > 432</text>
<text x="12" y="596" font-family="Verdana" font-size="10" text-anchor="middle"  dominant-baseline="middle" fill="black" > 576</text>
<text x="12" y="740" font-family="Verdana" font-size="10" text-anchor="middle"  dominant-baseline="middle" fill="black" > 720</text>
<text x="100" y="7" font-family="Verdana" font-size="7" text-anchor="middle"  dominant-baseline="middle" fill="black" > C1</text>
<circle cx="100" cy="15" r="4" fill="white" stroke="black" />
<line x1="100" y1="19" x2="100" y2="87" stroke="black" />
<line x1="50" y1="87" x2="150" y2="87" stroke="black" />
<text x="125" y="79" font-family="Verdana" font-size="8" text-anchor="middle"  dominant-baseline="middle" fill="black" > 72</text>
<circle cx="50" cy="87" r="4" fill="white" stroke="black" />
<line x1="50" y1="91" x2="50" y2="295" stroke="black" />
<line x1="25" y1="295" x2="75" y2="295" stroke="black" />
<text x="62" y="287" font-family="Verdana" font-size="8" text-anchor="middle"  dominant-baseline="middle" fill="black" > 280</text>
<circle cx="25" cy="295" r="4" fill="white" stroke="black" />
<line x1="25" y1="299" x2="25" y2="507" stroke="black" />
<line x1="12" y1="507" x2="38" y2="507" stroke="black" />
<text x="31" y="499" font-family="Verdana" font-size="8" text-anchor="middle"  dominant-baseline="middle" fill="black" > 492</text>
<circle cx="12" cy="507" r="4" fill="white" stroke="black" />
<line x1="12" y1="511" x2="12" y2="591" stroke="black" />
<circle cx="12" cy="591" r="4" fill="white" stroke="black" />
<text x="12" y="603" font-family="Verdana" font-size="8" text-anchor="middle"  dominant-baseline="middle" fill="black" > 576</text>
<circle cx="37" cy="507" r="4" fill="white" stroke="black" />
<line x1="37" y1="511" x2="37" y2="591" stroke="black" />
<circle cx="37" cy="591" r="4" fill="white" stroke="black" />
<text x="37" y="603" font-family="Verdana" font-size="8" text-anchor="middle"  dominant-baseline="middle" fill="black" > 576</text>
<circle cx="75" cy="295" r="4" fill="white" stroke="black" />
<line x1="75" y1="299" x2="75" y2="470" stroke="black" />
<line x1="62" y1="470" x2="88" y2="470" stroke="black" />
<text x="81" y="462" font-family="Verdana" font-size="8" text-anchor="middle"  dominant-baseline="middle" fill="black" > 455</text>
<circle cx="62" cy="470" r="4" fill="white" stroke="black" />
<line x1="62" y1="474" x2="62" y2="560" stroke="black" />
<line x1="58" y1="556" x2="66" y2="564" stroke="red" />
<line x1="58" y1="564" x2="66" y2="556" stroke="red" />
<text x="62" y="572" font-family="Verdana" font-size="8" text-anchor="middle"  dominant-baseline="middle" fill="black" > 545</text>
<circle cx="87" cy="470" r="4" fill="white" stroke="black" />
<line x1="87" y1="474" x2="87" y2="591" stroke="black" />
<circle cx="87" cy="591" r="4" fill="white" stroke="black" />
<text x="87" y="603" font-family="Verdana" font-size="8" text-anchor="middle"  dominant-baseline="middle" fill="black" > 576</text>
<circle cx="150" cy="87" r="4" fill="white" stroke="black" />
<line x1="150" y1="91" x2="150" y2="241" stroke="black" />
<line x1="125" y1="241" x2="175" y2="241" stroke="black" />
<text x="162" y="233" font-family="Verdana" font-size="8" text-anchor="middle"  dominant-baseline="middle" fill="black" > 226</text>
<circle cx="125" cy="241" r="4" fill="white" stroke="black" />
<line x1="125" y1="245" x2="125" y2="394" stroke="black" />
<line x1="112" y1="394" x2="138" y2="394" stroke="black" />
<text x="131" y="386" font-family="Verdana" font-size="8" text-anchor="middle"  dominant-baseline="middle" fill="black" > 379</text>
<circle cx="112" cy="394" r="4" fill="white" stroke="black" />
<line x1="112" y1="398" x2="112" y2="568" stroke="black" />
<line x1="106" y1="568" x2="119" y2="568" stroke="black" />
<text x="115" y="560" font-family="Verdana" font-size="8" text-anchor="middle"  dominant-baseline="middle" fill="black" > 553</text>
<circle cx="106" cy="568" r="4" fill="white" stroke="black" />
<line x1="106" y1="572" x2="106" y2="591" stroke="black" />
<circle cx="106" cy="591" r="4" fill="white" stroke="black" />
<text x="106" y="603" font-family="Verdana" font-size="8" text-anchor="middle"  dominant-baseline="middle" fill="black" > 576</text>
<circle cx="118" cy="568" r="4" fill="white" stroke="black" />
<line x1="118" y1="572" x2="118" y2="591" stroke="black" />
<circle cx="118" cy="591" r="4" fill="white" stroke="black" />
<text x="118" y="603" font-family="Verdana" font-size="8" text-anchor="middle"  dominant-baseline="middle" fill="black" > 576</text>
<circle cx="137" cy="394" r="4" fill="white" stroke="black" />
<line x1="137" y1="398" x2="137" y2="570" stroke="black" />
<line x1="131" y1="570" x2="144" y2="570" stroke="black" />
<text x="140" y="562" font-family="Verdana" font-size="8" text-anchor="middle"  dominant-baseline="middle" fill="black" > 555</text>
<circle cx="131" cy="570" r="4" fill="white" stroke="black" />
<line x1="131" y1="574" x2="131" y2="591" stroke="black" />
<circle cx="131" cy="591" r="4" fill="white" stroke="black" />
<text x="131" y="603" font-family="Verdana" font-size="8" text-anchor="middle"  dominant-baseline="middle" fill="black" > 576</text>
<circle cx="143" cy="570" r="4" fill="white" stroke="black" />
<line x1="143" y1="574" x2="143" y2="591" stroke="black" />
<circle cx="143" cy="591" r="4" fill="white" stroke="black" />
<text x="143" y="603" font-family="Verdana" font-size="8" text-anchor="middle"  dominant-baseline="middle" fill="black" > 576</text>
<circle cx="175" cy="241" r="4" fill="white" stroke="black" />
<line x1="175" y1="245" x2="175" y2="591" stroke="black" />
<circle cx="175" cy="591" r="4" fill="white" stroke="black" />
<text x="175" y="603" font-family="Verdana" font-size="8" text-anchor="middle"  dominant-baseline="middle" fill="black" > 576</text>
<text x="300" y="7" font-family="Verdana" font-size="7" text-anchor="middle"  dominant-baseline="middle" fill="black" > C2</text>
<circle cx="300" cy="15" r="4" fill="white" stroke="black" />
<line x1="300" y1="19" x2="300" y2="114" stroke="black" />
<line x1="250" y1="114" x2="350" y2="114" stroke="black" />
<text x="325" y="106" font-family="Verdana" font-size="8" text-anchor="middle"  dominant-baseline="middle" fill="black" > 99</text>
<circle cx="250" cy="114" r="4" fill="white" stroke="black" />
<line x1="250" y1="118" x2="250" y2="253" stroke="black" />
<line x1="225" y1="253" x2="275" y2="253" stroke="black" />
<text x="262" y="245" font-family="Verdana" font-size="8" text-anchor="middle"  dominant-baseline="middle" fill="black" > 238</text>
<circle cx="225" cy="253" r="4" fill="white" stroke="black" />
<line x1="225" y1="257" x2="225" y2="419" stroke="black" />
<line x1="212" y1="419" x2="238" y2="419" stroke="black" />
<text x="231" y="411" font-family="Verdana" font-size="8" text-anchor="middle"  dominant-baseline="middle" fill="black" > 404</text>
<circle cx="212" cy="419" r="4" fill="white" stroke="black" />
<line x1="212" y1="423" x2="212" y2="568" stroke="black" />
<line x1="206" y1="568" x2="219" y2="568" stroke="black" />
<text x="215" y="560" font-family="Verdana" font-size="8" text-anchor="middle"  dominant-baseline="middle" fill="black" > 553</text>
<circle cx="206" cy="568" r="4" fill="white" stroke="black" />
<line x1="206" y1="572" x2="206" y2="591" stroke="black" />
<circle cx="206" cy="591" r="4" fill="white" stroke="black" />
<text x="206" y="603" font-family="Verdana" font-size="8" text-anchor="middle"  dominant-baseline="middle" fill="black" > 576</text>
<circle cx="218" cy="568" r="4" fill="white" stroke="black" />
<line x1="218" y1="572" x2="218" y2="591" stroke="black" />
<circle cx="218" cy="591" r="4" fill="white" stroke="black" />
<text x="218" y="603" font-family="Verdana" font-size="8" text-anchor="middle"  dominant-baseline="middle" fill="black" > 576</text>
<circle cx="237" cy="419" r="4" fill="white" stroke="black" />
<line x1="237" y1="423" x2="237" y2="569" stroke="black" />
<line x1="231" y1="569" x2="244" y2="569" stroke="black" />
<text x="240" y="561" font-family="Verdana" font-size="8" text-anchor="middle"  dominant-baseline="middle" fill="black" > 554</text>
<circle cx="231" cy="569" r="4" fill="white" stroke="black" />
<line x1="231" y1="573" x2="231" y2="591" stroke="black" />
<circle cx="231" cy="591" r="4" fill="white" stroke="black" />
<text x="231" y="603" font-family="Verdana" font-size="8" text-anchor="middle"  dominant-baseline="middle" fill="black" > 576</text>
<circle cx="243" cy="569" r="4" fill="white" stroke="black" />
<line x1="243" y1="573" x2="243" y2="591" stroke="black" />
<circle cx="243" cy="591" r="4" fill="white" stroke="black" />
<text x="243" y="603" font-family="Verdana" font-size="8" text-anchor="middle"  dominant-baseline="middle" fill="black" > 576</text>
<circle cx="275" cy="253" r="4" fill="white" stroke="black" />
<line x1="275" y1="257" x2="275" y2="425" stroke="black" />
<line x1="262" y1="425" x2="288" y2="425" stroke="black" />
<text x="281" y="417" font-family="Verdana" font-size="8" text-anchor="middle"  dominant-baseline="middle" fill="black" > 410</text>
<circle cx="262" cy="425" r="4" fill="white" stroke="black" />
<line x1="262" y1="429" x2="262" y2="591" stroke="black" />
<circle cx="262" cy="591" r="4" fill="white" stroke="black" />
<text x="262" y="603" font-family="Verdana" font-size="8" text-anchor="middle"  dominant-baseline="middle" fill="black" > 576</text>
<circle cx="287" cy="425" r="4" fill="white" stroke="black" />
<line x1="287" y1="429" x2="287" y2="591" stroke="black" />
<circle cx="287" cy="591" r="4" fill="white" stroke="black" />
<text x="287" y="603" font-family="Verdana" font-size="8" text-anchor="middle"  dominant-baseline="middle" fill="black" > 576</text>
<circle cx="350" cy="114" r="4" fill="white" stroke="black" />
<line x1="350" y1="118" x2="350" y2="282" stroke="black" />
<line x1="325" y1="282" x2="375" y2="282" stroke="black" />
<text x="362" y="274" font-family="Verdana" font-size="8" text-anchor="middle"  dominant-baseline="middle" fill="black" > 267</text>
<circle cx="325" cy="282" r="4" fill="white" stroke="black" />
<line x1="325" y1="286" x2="325" y2="362" stroke="black" />
<line x1="312" y1="362" x2="338" y2="362" stroke="black" />
<text x="331" y="354" font-family="Verdana" font-size="8" text-anchor="middle"  dominant-baseline="middle" fill="black" > 347</text>
<circle cx="312" cy="362" r="4" fill="white" stroke="black" />
<line x1="312" y1="366" x2="312" y2="591" stroke="black" />
<circle cx="312" cy="591" r="4" fill="white" stroke="black" />
<text x="312" y="603" font-family="Verdana" font-size="8" text-anchor="middle"  dominant-baseline="middle" fill="black" > 576</text>
<circle cx="337" cy="362" r="4" fill="white" stroke="black" />
<line x1="337" y1="366" x2="337" y2="591" stroke="black" />
<circle cx="337" cy="591" r="4" fill="white" stroke="black" />
<text x="337" y="603" font-family="Verdana" font-size="8" text-anchor="middle"  dominant-baseline="middle" fill="black" > 576</text>
<circle cx="375" cy="282" r="4" fill="white" stroke="black" />
<line x1="375" y1="286" x2="375" y2="380" stroke="black" />
<line x1="362" y1="380" x2="388" y2="380" stroke="black" />
<text x="381" y="372" font-family="Verdana" font-size="8" text-anchor="middle"  dominant-baseline="middle" fill="black" > 365</text>
<circle cx="362" cy="380" r="4" fill="white" stroke="black" />
<line x1="362" y1="384" x2="362" y2="560" stroke="black" />
<line x1="356" y1="560" x2="369" y2="560" stroke="black" />
<text x="365" y="552" font-family="Verdana" font-size="8" text-anchor="middle"  dominant-baseline="middle" fill="black" > 545</text>
<circle cx="356" cy="560" r="4" fill="white" stroke="black" />
<line x1="356" y1="564" x2="356" y2="591" stroke="black" />
<circle cx="356" cy="591" r="4" fill="white" stroke="black" />
<text x="356" y="603" font-family="Verdana" font-size="8" text-anchor="middle"  dominant-baseline="middle" fill="black" > 576</text>
<circle cx="368" cy="560" r="4" fill="white" stroke="black" />
<line x1="368" y1="564" x2="368" y2="591" stroke="black" />
<circle cx="368" cy="591" r="4" fill="white" stroke="black" />
<text x="368" y="603" font-family="Verdana" font-size="8" text-anchor="middle"  dominant-baseline="middle" fill="black" > 576</text>
<circle cx="387" cy="380" r="4" fill="white" stroke="black" />
<line x1="387" y1="384" x2="387" y2="564" stroke="black" />
<line x1="381" y1="564" x2="394" y2="564" stroke="black" />
<text x="390" y="556" font-family="Verdana" font-size="8" text-anchor="middle"  dominant-baseline="middle" fill="black" > 549</text>
<circle cx="381" cy="564" r="4" fill="white" stroke="black" />
<line x1="381" y1="568" x2="381" y2="591" stroke="black" />
<circle cx="381" cy="591" r="4" fill="white" stroke="black" />
<text x="381" y="603" font-family="Verdana" font-size="8" text-anchor="middle"  dominant-baseline="middle" fill="black" > 576</text>
<circle cx="393" cy="564" r="4" fill="white" stroke="black" />
<line x1="393" y1="568" x2="393" y2="591" stroke="black" />
<circle cx="393" cy="591" r="4" fill="white" stroke="black" />
<text x="393" y="603" font-family="Verdana" font-size="8" text-anchor="middle"  dominant-baseline="middle" fill="black" > 576</text>
<text x="500" y="7" font-family="Verdana" font-size="7" text-anchor="middle"  dominant-baseline="middle" fill="black" > C3</text>
<circle cx="500" cy="15" r="4" fill="white" stroke="black" />
<line x1="500" y1="19" x2="500" y2="73" stroke="black" />
<line x1="450" y1="73" x2="550" y2="73" stroke="black" />
<text x="525" y="65" font-family="Verdana" font-size="8" text-anchor="middle"  dominant-baseline="middle" fill="black" > 58</text>
<circle cx="450" cy="73" r="4" fill="white" stroke="black" />
<line x1="450" y1="77" x2="450" y2="260" stroke="black" />
<line x1="425" y1="260" x2="475" y2="260" stroke="black" />
<text x="462" y="252" font-family="Verdana" font-size="8" text-anchor="middle"  dominant-baseline="middle" fill="black" > 245</text>
<circle cx="425" cy="260" r="4" fill="white" stroke="black" />
<line x1="425" y1="264" x2="425" y2="418" stroke="black" />
<line x1="412" y1="418" x2="438" y2="418" stroke="black" />
<text x="431" y="410" font-family="Verdana" font-size="8" text-anchor="middle"  dominant-baseline="middle" fill="black" > 403</text>
<circle cx="412" cy="418" r="4" fill="white" stroke="black" />
<line x1="412" y1="422" x2="412" y2="591" stroke="black" />
<circle cx="412" cy="591" r="4" fill="white" stroke="black" />
<text x="412" y="603" font-family="Verdana" font-size="8" text-anchor="middle"  dominant-baseline="middle" fill="black" > 576</text>
<circle cx="437" cy="418" r="4" fill="white" stroke="black" />
<line x1="437" y1="422" x2="437" y2="591" stroke="black" />
<circle cx="437" cy="591" r="4" fill="white" stroke="black" />
<text x="437" y="603" font-family="Verdana" font-size="8" text-anchor="middle"  dominant-baseline="middle" fill="black" > 576</text>
<circle cx="475" cy="260" r="4" fill="white" stroke="black" />
<line x1="475" y1="264" x2="475" y2="383" stroke="black" />
<line x1="462" y1="383" x2="488" y2="383" stroke="black" />
<text x="481" y="375" font-family="Verdana" font-size="8" text-anchor="middle"  dominant-baseline="middle" fill="black" > 368</text>
<circle cx="462" cy="383" r="4" fill="white" stroke="black" />
<line x1="462" y1="387" x2="462" y2="591" stroke="black" />
<circle cx="462" cy="591" r="4" fill="white" stroke="black" />
<text x="462" y="603" font-family="Verdana" font-size="8" text-anchor="middle"  dominant-baseline="middle" fill="black" > 576</text>
<circle cx="487" cy="383" r="4" fill="white" stroke="black" />
<line x1="487" y1="387" x2="487" y2="522" stroke="black" />
<line x1="481" y1="522" x2="494" y2="522" stroke="black" />
<text x="490" y="514" font-family="Verdana" font-size="8" text-anchor="middle"  dominant-baseline="middle" fill="black" > 507</text>
<circle cx="481" cy="522" r="4" fill="white" stroke="black" />
<line x1="481" y1="526" x2="481" y2="591" stroke="black" />
<circle cx="481" cy="591" r="4" fill="white" stroke="black" />
<text x="481" y="603" font-family="Verdana" font-size="8" text-anchor="middle"  dominant-baseline="middle" fill="black" > 576</text>
<circle cx="493" cy="522" r="4" fill="white" stroke="black" />
<line x1="493" y1="526" x2="493" y2="591" stroke="black" />
<circle cx="493" cy="591" r="4" fill="white" stroke="black" />
<text x="493" y="603" font-family="Verdana" font-size="8" text-anchor="middle"  dominant-baseline="middle" fill="black" > 576</text>
<circle cx="550" cy="73" r="4" fill="white" stroke="black" />
<line x1="550" y1="77" x2="550" y2="244" stroke="black" />
<line x1="525" y1="244" x2="575" y2="244" stroke="black" />
<text x="562" y="236" font-family="Verdana" font-size="8" text-anchor="middle"  dominant-baseline="middle" fill="black" > 229</text>
<circle cx="525" cy="244" r="4" fill="white" stroke="black" />
<line x1="525" y1="248" x2="525" y2="458" stroke="black" />
<line x1="512" y1="458" x2="538" y2="458" stroke="black" />
<text x="531" y="450" font-family="Verdana" font-size="8" text-anchor="middle"  dominant-baseline="middle" fill="black" > 443</text>
<circle cx="512" cy="458" r="4" fill="white" stroke="black" />
<line x1="512" y1="462" x2="512" y2="591" stroke="black" />
<circle cx="512" cy="591" r="4" fill="white" stroke="black" />
<text x="512" y="603" font-family="Verdana" font-size="8" text-anchor="middle"  dominant-baseline="middle" fill="black" > 576</text>
<circle cx="537" cy="458" r="4" fill="white" stroke="black" />
<line x1="537" y1="462" x2="537" y2="540" stroke="black" />
<line x1="531" y1="540" x2="544" y2="540" stroke="black" />
<text x="540" y="532" font-family="Verdana" font-size="8" text-anchor="middle"  dominant-baseline="middle" fill="black" > 525</text>
<circle cx="531" cy="540" r="4" fill="white" stroke="black" />
<line x1="531" y1="544" x2="531" y2="591" stroke="black" />
<circle cx="531" cy="591" r="4" fill="white" stroke="black" />
<text x="531" y="603" font-family="Verdana" font-size="8" text-anchor="middle"  dominant-baseline="middle" fill="black" > 576</text>
<circle cx="543" cy="540" r="4" fill="white" stroke="black" />
<line x1="543" y1="544" x2="543" y2="591" stroke="black" />
<circle cx="543" cy="591" r="4" fill="white" stroke="black" />
<text x="543" y="603" font-family="Verdana" font-size="8" text-anchor="middle"  dominant-baseline="middle" fill="black" > 576</text>
<circle cx="575" cy="244" r="4" fill="white" stroke="black" />
<line x1="575" y1="248" x2="575" y2="365" stroke="black" />
<line x1="562" y1="365" x2="588" y2="365" stroke="black" />
<text x="581" y="357" font-family="Verdana" font-size="8" text-anchor="middle"  dominant-baseline="middle" fill="black" > 350</text>
<circle cx="562" cy="365" r="4" fill="white" stroke="black" />
<line x1="562" y1="369" x2="562" y2="495" stroke="black" />
<line x1="556" y1="495" x2="569" y2="495" stroke="black" />
<text x="565" y="487" font-family="Verdana" font-size="8" text-anchor="middle"  dominant-baseline="middle" fill="black" > 480</text>
<circle cx="556" cy="495" r="4" fill="white" stroke="black" />
<line x1="556" y1="499" x2="556" y2="591" stroke="black" />
<circle cx="556" cy="591" r="4" fill="white" stroke="black" />
<text x="556" y="603" font-family="Verdana" font-size="8" text-anchor="middle"  dominant-baseline="middle" fill="black" > 576</text>
<circle cx="568" cy="495" r="4" fill="white" stroke="black" />
<line x1="568" y1="499" x2="568" y2="591" stroke="black" />
<circle cx="568" cy="591" r="4" fill="white" stroke="black" />
<text x="568" y="603" font-family="Verdana" font-size="8" text-anchor="middle"  dominant-baseline="middle" fill="black" > 576</text>
<circle cx="587" cy="365" r="4" fill="white" stroke="black" />
<line x1="587" y1="369" x2="587" y2="483" stroke="black" />
<line x1="581" y1="483" x2="594" y2="483" stroke="black" />
<text x="590" y="475" font-family="Verdana" font-size="8" text-anchor="middle"  dominant-baseline="middle" fill="black" > 468</text>
<circle cx="581" cy="483" r="4" fill="white" stroke="black" />
<line x1="581" y1="487" x2="581" y2="591" stroke="black" />
<circle cx="581" cy="591" r="4" fill="white" stroke="black" />
<text x="581" y="603" font-family="Verdana" font-size="8" text-anchor="middle"  dominant-baseline="middle" fill="black" > 576</text>
<circle cx="593" cy="483" r="4" fill="white" stroke="black" />
<line x1="593" y1="487" x2="593" y2="591" stroke="black" />
<circle cx="593" cy="591" r="4" fill="white" stroke="black" />
<text x="593" y="603" font-family="Verdana" font-size="8" text-anchor="middle"  dominant-baseline="middle" fill="black" > 576</text>
<text x="650" y="7" font-family="Verdana" font-size="7" text-anchor="middle"  dominant-baseline="middle" fill="black" > C4</text>
<circle cx="650" cy="15" r="4" fill="white" stroke="black" />
<line x1="650" y1="19" x2="650" y2="591" stroke="black" />
<circle cx="650" cy="591" r="4" fill="white" stroke="black" />
<text x="650" y="603" font-family="Verdana" font-size="8" text-anchor="middle"  dominant-baseline="middle" fill="black" > 576</text>
<text x="800" y="7" font-family="Verdana" font-size="7" text-anchor="middle"  dominant-baseline="middle" fill="black" > C5</text>
<circle cx="800" cy="15" r="4" fill="white" stroke="black" />
<line x1="800" y1="19" x2="800" y2="125" stroke="black" />
<line x1="750" y1="125" x2="850" y2="125" stroke="black" />
<text x="825" y="117" font-family="Verdana" font-size="8" text-anchor="middle"  dominant-baseline="middle" fill="black" > 110</text>
<circle cx="750" cy="125" r="4" fill="white" stroke="black" />
<line x1="750" y1="129" x2="750" y2="297" stroke="black" />
<line x1="725" y1="297" x2="775" y2="297" stroke="black" />
<text x="762" y="289" font-family="Verdana" font-size="8" text-anchor="middle"  dominant-baseline="middle" fill="black" > 282</text>
<circle cx="725" cy="297" r="4" fill="white" stroke="black" />
<line x1="725" y1="301" x2="725" y2="462" stroke="black" />
<line x1="712" y1="462" x2="738" y2="462" stroke="black" />
<text x="731" y="454" font-family="Verdana" font-size="8" text-anchor="middle"  dominant-baseline="middle" fill="black" > 447</text>
<circle cx="712" cy="462" r="4" fill="white" stroke="black" />
<line x1="712" y1="466" x2="712" y2="591" stroke="black" />
<circle cx="712" cy="591" r="4" fill="white" stroke="black" />
<text x="712" y="603" font-family="Verdana" font-size="8" text-anchor="middle"  dominant-baseline="middle" fill="black" > 576</text>
<circle cx="737" cy="462" r="4" fill="white" stroke="black" />
<line x1="737" y1="466" x2="737" y2="591" stroke="black" />
<circle cx="737" cy="591" r="4" fill="white" stroke="black" />
<text x="737" y="603" font-family="Verdana" font-size="8" text-anchor="middle"  dominant-baseline="middle" fill="black" > 576</text>
<circle cx="775" cy="297" r="4" fill="white" stroke="black" />
<line x1="775" y1="301" x2="775" y2="469" stroke="black" />
<line x1="762" y1="469" x2="788" y2="469" stroke="black" />
<text x="781" y="461" font-family="Verdana" font-size="8" text-anchor="middle"  dominant-baseline="middle" fill="black" > 454</text>
<circle cx="762" cy="469" r="4" fill="white" stroke="black" />
<line x1="762" y1="473" x2="762" y2="591" stroke="black" />
<circle cx="762" cy="591" r="4" fill="white" stroke="black" />
<text x="762" y="603" font-family="Verdana" font-size="8" text-anchor="middle"  dominant-baseline="middle" fill="black" > 576</text>
<circle cx="787" cy="469" r="4" fill="white" stroke="black" />
<line x1="787" y1="473" x2="787" y2="591" stroke="black" />
<circle cx="787" cy="591" r="4" fill="white" stroke="black" />
<text x="787" y="603" font-family="Verdana" font-size="8" text-anchor="middle"  dominant-baseline="middle" fill="black" > 576</text>
<circle cx="850" cy="125" r="4" fill="white" stroke="black" />
<line x1="850" y1="129" x2="850" y2="308" stroke="black" />
<line x1="825" y1="308" x2="875" y2="308" stroke="black" />
<text x="862" y="300" font-family="Verdana" font-size="8" text-anchor="middle"  dominant-baseline="middle" fill="black" > 293</text>
<circle cx="825" cy="308" r="4" fill="white" stroke="black" />
<line x1="825" y1="312" x2="825" y2="443" stroke="black" />
<line x1="812" y1="443" x2="838" y2="443" stroke="black" />
<text x="831" y="435" font-family="Verdana" font-size="8" text-anchor="middle"  dominant-baseline="middle" fill="black" > 428</text>
<circle cx="812" cy="443" r="4" fill="white" stroke="black" />
<line x1="812" y1="447" x2="812" y2="591" stroke="black" />
<circle cx="812" cy="591" r="4" fill="white" stroke="black" />
<text x="812" y="603" font-family="Verdana" font-size="8" text-anchor="middle"  dominant-baseline="middle" fill="black" > 576</text>
<circle cx="837" cy="443" r="4" fill="white" stroke="black" />
<line x1="837" y1="447" x2="837" y2="590" stroke="black" />
<line x1="831" y1="590" x2="844" y2="590" stroke="black" />
<text x="840" y="582" font-family="Verdana" font-size="8" text-anchor="middle"  dominant-baseline="middle" fill="black" > 575</text>
<circle cx="831" cy="590" r="4" fill="white" stroke="black" />
<line x1="831" y1="594" x2="831" y2="591" stroke="black" />
<circle cx="831" cy="591" r="4" fill="white" stroke="black" />
<text x="831" y="603" font-family="Verdana" font-size="8" text-anchor="middle"  dominant-baseline="middle" fill="black" > 576</text>
<circle cx="843" cy="590" r="4" fill="white" stroke="black" />
<line x1="843" y1="594" x2="843" y2="591" stroke="black" />
<circle cx="843" cy="591" r="4" fill="white" stroke="black" />
<text x="843" y="603" font-family="Verdana" font-size="8" text-anchor="middle"  dominant-baseline="middle" fill="black" > 576</text>
<circle cx="875" cy="308" r="4" fill="white" stroke="black" />
<line x1="875" y1="312" x2="875" y2="447" stroke="black" />
<line x1="862" y1="447" x2="888" y2="447" stroke="black" />
<text x="881" y="439" font-family="Verdana" font-size="8" text-anchor="middle"  dominant-baseline="middle" fill="black" > 432</text>
<circle cx="862" cy="447" r="4" fill="white" stroke="black" />
<line x1="862" y1="451" x2="862" y2="577" stroke="black" />
<line x1="856" y1="577" x2="869" y2="577" stroke="black" />
<text x="865" y="569" font-family="Verdana" font-size="8" text-anchor="middle"  dominant-baseline="middle" fill="black" > 562</text>
<circle cx="856" cy="577" r="4" fill="white" stroke="black" />
<line x1="856" y1="581" x2="856" y2="591" stroke="black" />
<circle cx="856" cy="591" r="4" fill="white" stroke="black" />
<text x="856" y="603" font-family="Verdana" font-size="8" text-anchor="middle"  dominant-baseline="middle" fill="black" > 576</text>
<circle cx="868" cy="577" r="4" fill="white" stroke="black" />
<line x1="868" y1="581" x2="868" y2="591" stroke="black" />
<circle cx="868" cy="591" r="4" fill="white" stroke="black" />
<text x="868" y="603" font-family="Verdana" font-size="8" text-anchor="middle"  dominant-baseline="middle" fill="black" > 576</text>
<circle cx="887" cy="447" r="4" fill="white" stroke="black" />
<line x1="887" y1="451" x2="887" y2="583" stroke="black" />
<line x1="881" y1="583" x2="894" y2="583" stroke="black" />
<text x="890" y="575" font-family="Verdana" font-size="8" text-anchor="middle"  dominant-baseline="middle" fill="black" > 568</text>
<circle cx="881" cy="583" r="4" fill="white" stroke="black" />
<line x1="881" y1="587" x2="881" y2="591" stroke="black" />
<circle cx="881" cy="591" r="4" fill="white" stroke="black" />
<text x="881" y="603" font-family="Verdana" font-size="8" text-anchor="middle"  dominant-baseline="middle" fill="black" > 576</text>
<circle cx="893" cy="583" r="4" fill="white" stroke="black" />
<line x1="893" y1="587" x2="893" y2="591" stroke="black" />
<circle cx="893" cy="591" r="4" fill="white" stroke="black" />
<text x="893" y="603" font-family="Verdana" font-size="8" text-anchor="middle"  dominant-baseline="middle" fill="black" > 576</text>
<text x="950" y="7" font-family="Verdana" font-size="7" text-anchor="middle"  dominant-baseline="middle" fill="black" > C6</text>
<circle cx="950" cy="15" r="4" fill="white" stroke="black" />
<line x1="950" y1="19" x2="950" y2="32" stroke="black" />
<line x1="946" y1="36" x2="950" y2="28" stroke="blue" />
<line x1="950" y1="36" x2="954" y2="28" stroke="blue" />
<text x="950" y="44" font-family="Verdana" font-size="8" text-anchor="middle"  dominant-baseline="middle" fill="black" > 17</text>
<text x="1100" y="7" font-family="Verdana" font-size="7" text-anchor="middle"  dominant-baseline="middle" fill="black" > C7</text>
<circle cx="1100" cy="15" r="4" fill="white" stroke="black" />
<line x1="1100" y1="19" x2="1100" y2="130" stroke="black" />
<line x1="1050" y1="130" x2="1150" y2="130" stroke="black" />
<text x="1125" y="122" font-family="Verdana" font-size="8" text-anchor="middle"  dominant-baseline="middle" fill="black" > 115</text>
<circle cx="1050" cy="130" r="4" fill="white" stroke="black" />
<line x1="1050" y1="134" x2="1050" y2="437" stroke="black" />
<line x1="1025" y1="437" x2="1075" y2="437" stroke="black" />
<text x="1062" y="429" font-family="Verdana" font-size="8" text-anchor="middle"  dominant-baseline="middle" fill="black" > 422</text>
<circle cx="1025" cy="437" r="4" fill="white" stroke="black" />
<line x1="1025" y1="441" x2="1025" y2="591" stroke="black" />
<circle cx="1025" cy="591" r="4" fill="white" stroke="black" />
<text x="1025" y="603" font-family="Verdana" font-size="8" text-anchor="middle"  dominant-baseline="middle" fill="black" > 576</text>
<circle cx="1075" cy="437" r="4" fill="white" stroke="black" />
<line x1="1075" y1="441" x2="1075" y2="591" stroke="black" />
<circle cx="1075" cy="591" r="4" fill="white" stroke="black" />
<text x="1075" y="603" font-family="Verdana" font-size="8" text-anchor="middle"  dominant-baseline="middle" fill="black" > 576</text>
<circle cx="1150" cy="130" r="4" fill="white" stroke="black" />
<line x1="1150" y1="134" x2="1150" y2="130" stroke="black" />
<line x1="1125" y1="130" x2="1175" y2="130" stroke="black" />
<text x="1162" y="122" font-family="Verdana" font-size="8" text-anchor="middle"  dominant-baseline="middle" fill="black" > 115</text>
<circle cx="1125" cy="130" r="4" fill="white" stroke="black" />
<circle cx="1175" cy="130" r="4" fill="white" stroke="black" />
<line x1="1125" y1="134" x2="1125" y2="346" stroke="black" />
<line x1="1125" y1="346" x2="1150" y2="417" stroke="black" />
<line x1="1175" y1="134" x2="1175" y2="346" stroke="black" />
<line x1="1175" y1="346" x2="1150" y2="417" stroke="black" />
<text x="1150" y="405" font-family="Verdana" font-size="8" text-anchor="middle"  dominant-baseline="middle" fill="black" > 402</text>
<circle cx="1150" cy="417" r="4" fill="white" stroke="black" />
<line x1="1150" y1="421" x2="1150" y2="502" stroke="black" />
<line x1="1133" y1="502" x2="1167" y2="502" stroke="black" />
<text x="1154" y="494" font-family="Verdana" font-size="8" text-anchor="middle"  dominant-baseline="middle" fill="black" > 487</text>
<circle cx="1133" cy="502" r="4" fill="white" stroke="black" />
<circle cx="1149" cy="502" r="4" fill="white" stroke="black" />
<line x1="1133" y1="506" x2="1133" y2="514" stroke="black" />
<line x1="1133" y1="514" x2="1141" y2="518" stroke="black" />
<line x1="1149" y1="506" x2="1149" y2="514" stroke="black" />
<line x1="1149" y1="514" x2="1141" y2="518" stroke="black" />
<text x="1141" y="506" font-family="Verdana" font-size="8" text-anchor="middle"  dominant-baseline="middle" fill="black" > 503</text>
<circle cx="1141" cy="518" r="4" fill="white" stroke="black" />
<circle cx="1165" cy="502" r="4" fill="white" stroke="black" />
<line x1="1141" y1="522" x2="1141" y2="521" stroke="black" />
<line x1="1141" y1="521" x2="1153" y2="521" stroke="black" />
<line x1="1165" y1="506" x2="1165" y2="521" stroke="black" />
<line x1="1165" y1="521" x2="1153" y2="521" stroke="black" />
<text x="1153" y="509" font-family="Verdana" font-size="8" text-anchor="middle"  dominant-baseline="middle" fill="black" > 506</text>
<circle cx="1153" cy="521" r="4" fill="white" stroke="black" />
<line x1="1153" y1="525" x2="1153" y2="591" stroke="black" />
<circle cx="1153" cy="591" r="4" fill="white" stroke="black" />
<text x="1153" y="603" font-family="Verdana" font-size="8" text-anchor="middle"  dominant-baseline="middle" fill="black" > 576</text>
<text x="1300" y="7" font-family="Verdana" font-size="7" text-anchor="middle"  dominant-baseline="middle" fill="black" > C8</text>
<circle cx="1300" cy="15" r="4" fill="white" stroke="black" />
<line x1="1300" y1="19" x2="1300" y2="182" stroke="black" />
<line x1="1250" y1="182" x2="1350" y2="182" stroke="black" />
<text x="1325" y="174" font-family="Verdana" font-size="8" text-anchor="middle"  dominant-baseline="middle" fill="black" > 167</text>
<circle cx="1250" cy="182" r="4" fill="white" stroke="black" />
<line x1="1250" y1="186" x2="1250" y2="357" stroke="black" />
<line x1="1225" y1="357" x2="1275" y2="357" stroke="black" />
<text x="1262" y="349" font-family="Verdana" font-size="8" text-anchor="middle"  dominant-baseline="middle" fill="black" > 342</text>
<circle cx="1225" cy="357" r="4" fill="white" stroke="black" />
<line x1="1225" y1="361" x2="1225" y2="533" stroke="black" />
<line x1="1212" y1="533" x2="1238" y2="533" stroke="black" />
<text x="1231" y="525" font-family="Verdana" font-size="8" text-anchor="middle"  dominant-baseline="middle" fill="black" > 518</text>
<circle cx="1212" cy="533" r="4" fill="white" stroke="black" />
<line x1="1212" y1="537" x2="1212" y2="591" stroke="black" />
<circle cx="1212" cy="591" r="4" fill="white" stroke="black" />
<text x="1212" y="603" font-family="Verdana" font-size="8" text-anchor="middle"  dominant-baseline="middle" fill="black" > 576</text>
<circle cx="1237" cy="533" r="4" fill="white" stroke="black" />
<line x1="1237" y1="537" x2="1237" y2="591" stroke="black" />
<circle cx="1237" cy="591" r="4" fill="white" stroke="black" />
<text x="1237" y="603" font-family="Verdana" font-size="8" text-anchor="middle"  dominant-baseline="middle" fill="black" > 576</text>
<circle cx="1275" cy="357" r="4" fill="white" stroke="black" />
<line x1="1275" y1="361" x2="1275" y2="547" stroke="black" />
<line x1="1262" y1="547" x2="1288" y2="547" stroke="black" />
<text x="1281" y="539" font-family="Verdana" font-size="8" text-anchor="middle"  dominant-baseline="middle" fill="black" > 532</text>
<circle cx="1262" cy="547" r="4" fill="white" stroke="black" />
<line x1="1262" y1="551" x2="1262" y2="591" stroke="black" />
<circle cx="1262" cy="591" r="4" fill="white" stroke="black" />
<text x="1262" y="603" font-family="Verdana" font-size="8" text-anchor="middle"  dominant-baseline="middle" fill="black" > 576</text>
<circle cx="1287" cy="547" r="4" fill="white" stroke="black" />
<line x1="1287" y1="551" x2="1287" y2="591" stroke="black" />
<circle cx="1287" cy="591" r="4" fill="white" stroke="black" />
<text x="1287" y="603" font-family="Verdana" font-size="8" text-anchor="middle"  dominant-baseline="middle" fill="black" > 576</text>
<circle cx="1350" cy="182" r="4" fill="white" stroke="black" />
<line x1="1350" y1="186" x2="1350" y2="354" stroke="black" />
<line x1="1325" y1="354" x2="1375" y2="354" stroke="black" />
<text x="1362" y="346" font-family="Verdana" font-size="8" text-anchor="middle"  dominant-baseline="middle" fill="black" > 339</text>
<circle cx="1325" cy="354" r="4" fill="white" stroke="black" />
<line x1="1325" y1="358" x2="1325" y2="507" stroke="black" />
<line x1="1312" y1="507" x2="1338" y2="507" stroke="black" />
<text x="1331" y="499" font-family="Verdana" font-size="8" text-anchor="middle"  dominant-baseline="middle" fill="black" > 492</text>
<circle cx="1312" cy="507" r="4" fill="white" stroke="black" />
<line x1="1312" y1="511" x2="1312" y2="591" stroke="black" />
<circle cx="1312" cy="591" r="4" fill="white" stroke="black" />
<text x="1312" y="603" font-family="Verdana" font-size="8" text-anchor="middle"  dominant-baseline="middle" fill="black" > 576</text>
<circle cx="1337" cy="507" r="4" fill="white" stroke="black" />
<line x1="1337" y1="511" x2="1337" y2="591" stroke="black" />
<circle cx="1337" cy="591" r="4" fill="white" stroke="black" />
<text x="1337" y="603" font-family="Verdana" font-size="8" text-anchor="middle"  dominant-baseline="middle" fill="black" > 576</text>
<circle cx="1375" cy="354" r="4" fill="white" stroke="black" />
<line x1="1375" y1="358" x2="1375" y2="508" stroke="black" />
<line x1="1362" y1="508" x2="1388" y2="508" stroke="black" />
<text x="1381" y="500" font-family="Verdana" font-size="8" text-anchor="middle"  dominant-baseline="middle" fill="black" > 493</text>
<circle cx="1362" cy="508" r="4" fill="white" stroke="black" />
<line x1="1362" y1="512" x2="1362" y2="591" stroke="black" />
<circle cx="1362" cy="591" r="4" fill="white" stroke="black" />
<text x="1362" y="603" font-family="Verdana" font-size="8" text-anchor="middle"  dominant-baseline="middle" fill="black" > 576</text>
<circle cx="1387" cy="508" r="4" fill="white" stroke="black" />
<line x1="1387" y1="512" x2="1387" y2="591" stroke="black" />
<circle cx="1387" cy="591" r="4" fill="white" stroke="black" />
<text x="1387" y="603" font-family="Verdana" font-size="8" text-anchor="middle"  dominant-baseline="middle" fill="black" > 576</text>
<text x="1500" y="7" font-family="Verdana" font-size="7" text-anchor="middle"  dominant-baseline="middle" fill="black" > C9</text>
<circle cx="1500" cy="15" r="4" fill="white" stroke="black" />
<line x1="1500" y1="19" x2="1500" y2="157" stroke="black" />
<line x1="1450" y1="157" x2="1550" y2="157" stroke="black" />
<text x="1525" y="149" font-family="Verdana" font-size="8" text-anchor="middle"  dominant-baseline="middle" fill="black" > 142</text>
<circle cx="1450" cy="157" r="4" fill="white" stroke="black" />
<line x1="1450" y1="161" x2="1450" y2="267" stroke="black" />
<line x1="1446" y1="271" x2="1450" y2="263" stroke="blue" />
<line x1="1450" y1="271" x2="1454" y2="263" stroke="blue" />
<text x="1450" y="279" font-family="Verdana" font-size="8" text-anchor="middle"  dominant-baseline="middle" fill="black" > 252</text>
<circle cx="1550" cy="157" r="4" fill="white" stroke="black" />
<line x1="1550" y1="161" x2="1550" y2="326" stroke="black" />
<line x1="1525" y1="326" x2="1575" y2="326" stroke="black" />
<text x="1562" y="318" font-family="Verdana" font-size="8" text-anchor="middle"  dominant-baseline="middle" fill="black" > 311</text>
<circle cx="1525" cy="326" r="4" fill="white" stroke="black" />
<line x1="1525" y1="330" x2="1525" y2="463" stroke="black" />
<line x1="1521" y1="467" x2="1525" y2="459" stroke="blue" />
<line x1="1525" y1="467" x2="1529" y2="459" stroke="blue" />
<text x="1525" y="475" font-family="Verdana" font-size="8" text-anchor="middle"  dominant-baseline="middle" fill="black" > 448</text>
<circle cx="1575" cy="326" r="4" fill="white" stroke="black" />
<line x1="1575" y1="330" x2="1575" y2="464" stroke="black" />
<line x1="1562" y1="464" x2="1588" y2="464" stroke="black" />
<text x="1581" y="456" font-family="Verdana" font-size="8" text-anchor="middle"  dominant-baseline="middle" fill="black" > 449</text>
<circle cx="1562" cy="464" r="4" fill="white" stroke="black" />
<line x1="1562" y1="468" x2="1562" y2="591" stroke="black" />
<circle cx="1562" cy="591" r="4" fill="white" stroke="black" />
<text x="1562" y="603" font-family="Verdana" font-size="8" text-anchor="middle"  dominant-baseline="middle" fill="black" > 576</text>
<circle cx="1587" cy="464" r="4" fill="white" stroke="black" />
<line x1="1587" y1="468" x2="1587" y2="591" stroke="black" />
<circle cx="1587" cy="591" r="4" fill="white" stroke="black" />
<text x="1587" y="603" font-family="Verdana" font-size="8" text-anchor="middle"  dominant-baseline="middle" fill="black" > 576</text>
<text x="1700" y="7" font-family="Verdana" font-size="7" text-anchor="middle"  dominant-baseline="middle" fill="black" > C10</text>
<circle cx="1700" cy="15" r="4" fill="white" stroke="black" />
<line x1="1700" y1="19" x2="1700" y2="109" stroke="black" />
<line x1="1650" y1="109" x2="1750" y2="109" stroke="black" />
<text x="1725" y="101" font-family="Verdana" font-size="8" text-anchor="middle"  dominant-baseline="middle" fill="black" > 94</text>
<circle cx="1650" cy="109" r="4" fill="white" stroke="black" />
<line x1="1650" y1="113" x2="1650" y2="350" stroke="black" />
<line x1="1625" y1="350" x2="1675" y2="350" stroke="black" />
<text x="1662" y="342" font-family="Verdana" font-size="8" text-anchor="middle"  dominant-baseline="middle" fill="black" > 335</text>
<circle cx="1625" cy="350" r="4" fill="white" stroke="black" />
<line x1="1625" y1="354" x2="1625" y2="430" stroke="black" />
<line x1="1612" y1="430" x2="1638" y2="430" stroke="black" />
<text x="1631" y="422" font-family="Verdana" font-size="8" text-anchor="middle"  dominant-baseline="middle" fill="black" > 415</text>
<circle cx="1612" cy="430" r="4" fill="white" stroke="black" />
<line x1="1612" y1="434" x2="1612" y2="591" stroke="black" />
<circle cx="1612" cy="591" r="4" fill="white" stroke="black" />
<text x="1612" y="603" font-family="Verdana" font-size="8" text-anchor="middle"  dominant-baseline="middle" fill="black" > 576</text>
<circle cx="1637" cy="430" r="4" fill="white" stroke="black" />
<line x1="1637" y1="434" x2="1637" y2="591" stroke="black" />
<circle cx="1637" cy="591" r="4" fill="white" stroke="black" />
<text x="1637" y="603" font-family="Verdana" font-size="8" text-anchor="middle"  dominant-baseline="middle" fill="black" > 576</text>
<circle cx="1675" cy="350" r="4" fill="white" stroke="black" />
<line x1="1675" y1="354" x2="1675" y2="431" stroke="black" />
<line x1="1662" y1="431" x2="1688" y2="431" stroke="black" />
<text x="1681" y="423" font-family="Verdana" font-size="8" text-anchor="middle"  dominant-baseline="middle" fill="black" > 416</text>
<circle cx="1662" cy="431" r="4" fill="white" stroke="black" />
<line x1="1662" y1="435" x2="1662" y2="591" stroke="black" />
<circle cx="1662" cy="591" r="4" fill="white" stroke="black" />
<text x="1662" y="603" font-family="Verdana" font-size="8" text-anchor="middle"  dominant-baseline="middle" fill="black" > 576</text>
<circle cx="1687" cy="431" r="4" fill="white" stroke="black" />
<line x1="1687" y1="435" x2="1687" y2="591" stroke="black" />
<circle cx="1687" cy="591" r="4" fill="white" stroke="black" />
<text x="1687" y="603" font-family="Verdana" font-size="8" text-anchor="middle"  dominant-baseline="middle" fill="black" > 576</text>
<circle cx="1750" cy="109" r="4" fill="white" stroke="black" />
<line x1="1750" y1="113" x2="1750" y2="377" stroke="black" />
<line x1="1725" y1="377" x2="1775" y2="377" stroke="black" />
<text x="1762" y="369" font-family="Verdana" font-size="8" text-anchor="middle"  dominant-baseline="middle" fill="black" > 362</text>
<circle cx="1725" cy="377" r="4" fill="white" stroke="black" />
<line x1="1725" y1="381" x2="1725" y2="572" stroke="black" />
<line x1="1712" y1="572" x2="1738" y2="572" stroke="black" />
<text x="1731" y="564" font-family="Verdana" font-size="8" text-anchor="middle"  dominant-baseline="middle" fill="black" > 557</text>
<circle cx="1712" cy="572" r="4" fill="white" stroke="black" />
<line x1="1712" y1="576" x2="1712" y2="591" stroke="black" />
<circle cx="1712" cy="591" r="4" fill="white" stroke="black" />
<text x="1712" y="603" font-family="Verdana" font-size="8" text-anchor="middle"  dominant-baseline="middle" fill="black" > 576</text>
<circle cx="1737" cy="572" r="4" fill="white" stroke="black" />
<line x1="1737" y1="576" x2="1737" y2="591" stroke="black" />
<circle cx="1737" cy="591" r="4" fill="white" stroke="black" />
<text x="1737" y="603" font-family="Verdana" font-size="8" text-anchor="middle"  dominant-baseline="middle" fill="black" > 576</text>
<circle cx="1775" cy="377" r="4" fill="white" stroke="black" />
<line x1="1775" y1="381" x2="1775" y2="570" stroke="black" />
<line x1="1762" y1="570" x2="1788" y2="570" stroke="black" />
<text x="1781" y="562" font-family="Verdana" font-size="8" text-anchor="middle"  dominant-baseline="middle" fill="black" > 555</text>
<circle cx="1762" cy="570" r="4" fill="white" stroke="black" />
<line x1="1762" y1="574" x2="1762" y2="591" stroke="black" />
<circle cx="1762" cy="591" r="4" fill="white" stroke="black" />
<text x="1762" y="603" font-family="Verdana" font-size="8" text-anchor="middle"  dominant-baseline="middle" fill="black" > 576</text>
<circle cx="1787" cy="570" r="4" fill="white" stroke="black" />
<line x1="1787" y1="574" x2="1787" y2="591" stroke="black" />
<circle cx="1787" cy="591" r="4" fill="white" stroke="black" />
<text x="1787" y="603" font-family="Verdana" font-size="8" text-anchor="middle"  dominant-baseline="middle" fill="black" > 576</text>
<text x="1900" y="7" font-family="Verdana" font-size="7" text-anchor="middle"  dominant-baseline="middle" fill="black" > C11</text>
<circle cx="1900" cy="15" r="4" fill="white" stroke="black" />
<line x1="1900" y1="19" x2="1900" y2="132" stroke="black" />
<line x1="1850" y1="132" x2="1950" y2="132" stroke="black" />
<text x="1925" y="124" font-family="Verdana" font-size="8" text-anchor="middle"  dominant-baseline="middle" fill="black" > 117</text>
<circle cx="1850" cy="132" r="4" fill="white" stroke="black" />
<line x1="1850" y1="136" x2="1850" y2="133" stroke="black" />
<line x1="1846" y1="137" x2="1850" y2="129" stroke="blue" />
<line x1="1850" y1="137" x2="1854" y2="129" stroke="blue" />
<text x="1850" y="145" font-family="Verdana" font-size="8" text-anchor="middle"  dominant-baseline="middle" fill="black" > 118</text>
<circle cx="1950" cy="132" r="4" fill="white" stroke="black" />
<line x1="1950" y1="136" x2="1950" y2="300" stroke="black" />
<line x1="1925" y1="300" x2="1975" y2="300" stroke="black" />
<text x="1962" y="292" font-family="Verdana" font-size="8" text-anchor="middle"  dominant-baseline="middle" fill="black" > 285</text>
<circle cx="1925" cy="300" r="4" fill="white" stroke="black" />
<line x1="1925" y1="304" x2="1925" y2="519" stroke="black" />
<line x1="1912" y1="519" x2="1938" y2="519" stroke="black" />
<text x="1931" y="511" font-family="Verdana" font-size="8" text-anchor="middle"  dominant-baseline="middle" fill="black" > 504</text>
<circle cx="1912" cy="519" r="4" fill="white" stroke="black" />
<line x1="1912" y1="523" x2="1912" y2="591" stroke="black" />
<circle cx="1912" cy="591" r="4" fill="white" stroke="black" />
<text x="1912" y="603" font-family="Verdana" font-size="8" text-anchor="middle"  dominant-baseline="middle" fill="black" > 576</text>
<circle cx="1937" cy="519" r="4" fill="white" stroke="black" />
<line x1="1937" y1="523" x2="1937" y2="591" stroke="black" />
<circle cx="1937" cy="591" r="4" fill="white" stroke="black" />
<text x="1937" y="603" font-family="Verdana" font-size="8" text-anchor="middle"  dominant-baseline="middle" fill="black" > 576</text>
<circle cx="1975" cy="300" r="4" fill="white" stroke="black" />
<line x1="1975" y1="304" x2="1975" y2="522" stroke="black" />
<line x1="1962" y1="522" x2="1988" y2="522" stroke="black" />
<text x="1981" y="514" font-family="Verdana" font-size="8" text-anchor="middle"  dominant-baseline="middle" fill="black" > 507</text>
<circle cx="1962" cy="522" r="4" fill="white" stroke="black" />
<line x1="1962" y1="526" x2="1962" y2="591" stroke="black" />
<circle cx="1962" cy="591" r="4" fill="white" stroke="black" />
<text x="1962" y="603" font-family="Verdana" font-size="8" text-anchor="middle"  dominant-baseline="middle" fill="black" > 576</text>
<circle cx="1987" cy="522" r="4" fill="white" stroke="black" />
<line x1="1987" y1="526" x2="1987" y2="591" stroke="black" />
<circle cx="1987" cy="591" r="4" fill="white" stroke="black" />
<text x="1987" y="603" font-family="Verdana" font-size="8" text-anchor="middle"  dominant-baseline="middle" fill="black" > 576</text>
</svg>
