<?xml version="1.0" encoding="utf-8"?>
<svg xmlns="http://www.w3.org/2000/svg" version="1.1" width="1250" height="750">
<rect width="1250" height="15" x="0" y="0" fill="white" />
<rect width="1250" height="15" x="0" y="735" fill="white" />
<rect width="25" height="750" x="0" y="0" fill="white" />
<rect width="25" height="750" x="1225" y="0" fill="white" />
<rect width="1210" height="144" x="25" y="15" fill="ghostwhite" />
<rect width="1210" height="144" x="25" y="159" fill="snow" />
<rect width="1210" height="144" x="25" y="303" fill="ghostwhite" />
<rect width="1210" height="144" x="25" y="447" fill="snow" />
<rect width="1210" height="144" x="25" y="591" fill="ghostwhite" />
<text x="12" y="87" font-family="Verdana" font-size="10" text-anchor="middle"  dominant-baseline="middle" fill="red" > D0</text>
<text x="12" y="231" font-family="Verdana" font-size="10" text-anchor="middle"  dominant-baseline="middle" fill="red" > D1</text>
<text x="12" y="375" font-family="Verdana" font-size="10" text-anchor="middle"  dominant-baseline="middle" fill="red" > D2</text>
<text x="12" y="519" font-family="Verdana" font-size="10" text-anchor="middle"  dominant-baseline="middle" fill="red" > D3</text>
<text x="12" y="663" font-family="Verdana" font-size="10" text-anchor="middle"  dominant-baseline="middle" fill="red" > D4</text>
<text x="12" y="20" font-family="Verdana" font-size="10" text-anchor="middle"  dominant-baseline="middle" fill="black" > 0</text>
<text x="12" y="164" font-family="Verdana" font-size="10" text-anchor="middle"  dominant-baseline="middle" fill="black" > 144</text>
<text x="12" y="308" font-family="Verdana" font-size="10" text-anchor="middle"  dominant-baseline="middle" fill="black" > 288</text>
<text x="12" y="452" font-family="Verdana" font-size="10" text-anchor="middle"  dominant-baseline="middle" fill="black" > 432</text>
<text x="12" y="596" font-family="Verdana" font-size="10" text-anchor="middle"  dominant-baseline="middle" fill="black" > 576</text>
<text x="12" y="740" font-family="Verdana" font-size="10" text-anchor="middle"  dominant-baseline="middle" fill="black" > 720</text>
<text x="100" y="7" font-family="Verdana" font-size="7" text-anchor="middle"  dominant-baseline="middle" fill="black" > C1</text>
<circle cx="100" cy="15" r="4" fill="white" stroke="black" />
<line x1="100" y1="19" x2="100" y2="164" stroke="black" />
<line x1="50" y1="164" x2="150" y2="164" stroke="black" />
<text x="125" y="156" font-family="Verdana" font-size="8" text-anchor="middle"  dominant-baseline="middle" fill="black" > 149</text>
<circle cx="50" cy="164" r="4" fill="white" stroke="black" />
<line x1="50" y1="168" x2="50" y2="331" stroke="black" />
<line x1="25" y1="331" x2="75" y2="331" stroke="black" />
<text x="62" y="323" font-family="Verdana" font-size="8" text-anchor="middle"  dominant-baseline="middle" fill="black" > 316</text>
<circle cx="25" cy="331" r="4" fill="white" stroke="black" />
<line x1="25" y1="335" x2="25" y2="591" stroke="black" />
<circle cx="25" cy="591" r="4" fill="white" stroke="black" />
<text x="25" y="603" font-family="Verdana" font-size="8" text-anchor="middle"  dominant-baseline="middle" fill="black" > 576</text>
<circle cx="75" cy="331" r="4" fill="white" stroke="black" />
<line x1="75" y1="335" x2="75" y2="591" stroke="black" />
<circle cx="75" cy="591" r="4" fill="white" stroke="black" />
<text x="75" y="603" font-family="Verdana" font-size="8" text-anchor="middle"  dominant-baseline="middle" fill="black" > 576</text>
<circle cx="150" cy="164" r="4" fill="white" stroke="black" />
<line x1="150" y1="168" x2="150" y2="316" stroke="black" />
<line x1="125" y1="316" x2="175" y2="316" stroke="black" />
<text x="162" y="308" font-family="Verdana" font-size="8" text-anchor="middle"  dominant-baseline="middle" fill="black" > 301</text>
<circle cx="125" cy="316" r="4" fill="white" stroke="black" />
<line x1="125" y1="320" x2="125" y2="591" stroke="black" />
<circle cx="125" cy="591" r="4" fill="white" stroke="black" />
<text x="125" y="603" font-family="Verdana" font-size="8" text-anchor="middle"  dominant-baseline="middle" fill="black" > 576</text>
<circle cx="175" cy="316" r="4" fill="white" stroke="black" />
<line x1="175" y1="320" x2="175" y2="591" stroke="black" />
<circle cx="175" cy="591" r="4" fill="white" stroke="black" />
<text x="175" y="603" font-family="Verdana" font-size="8" text-anchor="middle"  dominant-baseline="middle" fill="black" > 576</text>
<text x="300" y="7" font-family="Verdana" font-size="7" text-anchor="middle"  dominant-baseline="middle" fill="black" > C2</text>
<circle cx="300" cy="15" r="4" fill="white" stroke="black" />
<line x1="300" y1="19" x2="300" y2="147" stroke="black" />
<line x1="250" y1="147" x2="350" y2="147" stroke="black" />
<text x="325" y="139" font-family="Verdana" font-size="8" text-anchor="middle"  dominant-baseline="middle" fill="black" > 132</text>
<circle cx="250" cy="147" r="4" fill="white" stroke="black" />
<line x1="250" y1="151" x2="250" y2="591" stroke="black" />
<circle cx="250" cy="591" r="4" fill="white" stroke="black" />
<text x="250" y="603" font-family="Verdana" font-size="8" text-anchor="middle"  dominant-baseline="middle" fill="black" > 576</text>
<circle cx="350" cy="147" r="4" fill="white" stroke="black" />
<line x1="350" y1="151" x2="350" y2="434" stroke="black" />
<line x1="325" y1="434" x2="375" y2="434" stroke="black" />
<text x="362" y="426" font-family="Verdana" font-size="8" text-anchor="middle"  dominant-baseline="middle" fill="black" > 419</text>
<circle cx="325" cy="434" r="4" fill="white" stroke="black" />
<line x1="325" y1="438" x2="325" y2="591" stroke="black" />
<circle cx="325" cy="591" r="4" fill="white" stroke="black" />
<text x="325" y="603" font-family="Verdana" font-size="8" text-anchor="middle"  dominant-baseline="middle" fill="black" > 576</text>
<circle cx="375" cy="434" r="4" fill="white" stroke="black" />
<line x1="375" y1="438" x2="375" y2="591" stroke="black" />
<circle cx="375" cy="591" r="4" fill="white" stroke="black" />
<text x="375" y="603" font-family="Verdana" font-size="8" text-anchor="middle"  dominant-baseline="middle" fill="black" > 576</text>
<text x="500" y="7" font-family="Verdana" font-size="7" text-anchor="middle"  dominant-baseline="middle" fill="black" > C3</text>
<circle cx="500" cy="15" r="4" fill="white" stroke="black" />
<line x1="500" y1="19" x2="500" y2="124" stroke="black" />
<line x1="450" y1="124" x2="550" y2="124" stroke="black" />
<text x="525" y="116" font-family="Verdana" font-size="8" text-anchor="middle"  dominant-baseline="middle" fill="black" > 109</text>
<circle cx="450" cy="124" r="4" fill="white" stroke="black" />
<line x1="450" y1="128" x2="450" y2="384" stroke="black" />
<line x1="416" y1="384" x2="484" y2="384" stroke="black" />
<text x="458" y="376" font-family="Verdana" font-size="8" text-anchor="middle"  dominant-baseline="middle" fill="black" > 369</text>
<circle cx="416" cy="384" r="4" fill="white" stroke="black" />
<line x1="416" y1="388" x2="416" y2="591" stroke="black" />
<circle cx="416" cy="591" r="4" fill="white" stroke="black" />
<text x="416" y="603" font-family="Verdana" font-size="8" text-anchor="middle"  dominant-baseline="middle" fill="black" > 576</text>
<circle cx="449" cy="384" r="4" fill="white" stroke="black" />
<line x1="449" y1="388" x2="449" y2="591" stroke="black" />
<circle cx="449" cy="591" r="4" fill="white" stroke="black" />
<text x="449" y="603" font-family="Verdana" font-size="8" text-anchor="middle"  dominant-baseline="middle" fill="black" > 576</text>
<circle cx="482" cy="384" r="4" fill="white" stroke="black" />
<line x1="482" y1="388" x2="482" y2="591" stroke="black" />
<circle cx="482" cy="591" r="4" fill="white" stroke="black" />
<text x="482" y="603" font-family="Verdana" font-size="8" text-anchor="middle"  dominant-baseline="middle" fill="black" > 576</text>
<circle cx="550" cy="124" r="4" fill="white" stroke="black" />
<line x1="550" y1="128" x2="550" y2="321" stroke="black" />
<line x1="525" y1="321" x2="575" y2="321" stroke="black" />
<text x="562" y="313" font-family="Verdana" font-size="8" text-anchor="middle"  dominant-baseline="middle" fill="black" > 306</text>
<circle cx="525" cy="321" r="4" fill="white" stroke="black" />
<line x1="525" y1="325" x2="525" y2="591" stroke="black" />
<circle cx="525" cy="591" r="4" fill="white" stroke="black" />
<text x="525" y="603" font-family="Verdana" font-size="8" text-anchor="middle"  dominant-baseline="middle" fill="black" > 576</text>
<circle cx="575" cy="321" r="4" fill="white" stroke="black" />
<line x1="575" y1="325" x2="575" y2="591" stroke="black" />
<circle cx="575" cy="591" r="4" fill="white" stroke="black" />
<text x="575" y="603" font-family="Verdana" font-size="8" text-anchor="middle"  dominant-baseline="middle" fill="black" > 576</text>
<text x="700" y="7" font-family="Verdana" font-size="7" text-anchor="middle"  dominant-baseline="middle" fill="black" > C4</text>
<circle cx="700" cy="15" r="4" fill="white" stroke="black" />
<line x1="700" y1="19" x2="700" y2="34" stroke="black" />
<line x1="650" y1="34" x2="750" y2="34" stroke="black" />
<text x="725" y="26" font-family="Verdana" font-size="8" text-anchor="middle"  dominant-baseline="middle" fill="black" > 19</text>
<circle cx="650" cy="34" r="4" fill="white" stroke="black" />
<line x1="650" y1="38" x2="650" y2="191" stroke="black" />
<line x1="625" y1="191" x2="675" y2="191" stroke="black" />
<text x="662" y="183" font-family="Verdana" font-size="8" text-anchor="middle"  dominant-baseline="middle" fill="black" > 176</text>
<circle cx="625" cy="191" r="4" fill="white" stroke="black" />
<line x1="625" y1="195" x2="625" y2="343" stroke="black" />
<line x1="612" y1="343" x2="638" y2="343" stroke="black" />
<text x="631" y="335" font-family="Verdana" font-size="8" text-anchor="middle"  dominant-baseline="middle" fill="black" > 328</text>
<circle cx="612" cy="343" r="4" fill="white" stroke="black" />
<line x1="612" y1="347" x2="612" y2="591" stroke="black" />
<circle cx="612" cy="591" r="4" fill="white" stroke="black" />
<text x="612" y="603" font-family="Verdana" font-size="8" text-anchor="middle"  dominant-baseline="middle" fill="black" > 576</text>
<circle cx="637" cy="343" r="4" fill="white" stroke="black" />
<line x1="637" y1="347" x2="637" y2="591" stroke="black" />
<circle cx="637" cy="591" r="4" fill="white" stroke="black" />
<text x="637" y="603" font-family="Verdana" font-size="8" text-anchor="middle"  dominant-baseline="middle" fill="black" > 576</text>
<circle cx="675" cy="191" r="4" fill="white" stroke="black" />
<line x1="675" y1="195" x2="675" y2="341" stroke="black" />
<line x1="662" y1="341" x2="688" y2="341" stroke="black" />
<text x="681" y="333" font-family="Verdana" font-size="8" text-anchor="middle"  dominant-baseline="middle" fill="black" > 326</text>
<circle cx="662" cy="341" r="4" fill="white" stroke="black" />
<line x1="662" y1="345" x2="662" y2="591" stroke="black" />
<circle cx="662" cy="591" r="4" fill="white" stroke="black" />
<text x="662" y="603" font-family="Verdana" font-size="8" text-anchor="middle"  dominant-baseline="middle" fill="black" > 576</text>
<circle cx="687" cy="341" r="4" fill="white" stroke="black" />
<line x1="687" y1="345" x2="687" y2="591" stroke="black" />
<circle cx="687" cy="591" r="4" fill="white" stroke="black" />
<text x="687" y="603" font-family="Verdana" font-size="8" text-anchor="middle"  dominant-baseline="middle" fill="black" > 576</text>
<circle cx="750" cy="34" r="4" fill="white" stroke="black" />
<line x1="750" y1="38" x2="750" y2="190" stroke="black" />
<line x1="725" y1="190" x2="775" y2="190" stroke="black" />
<text x="762" y="182" font-family="Verdana" font-size="8" text-anchor="middle"  dominant-baseline="middle" fill="black" > 175</text>
<circle cx="725" cy="190" r="4" fill="white" stroke="black" />
<line x1="725" y1="194" x2="725" y2="353" stroke="black" />
<line x1="712" y1="353" x2="738" y2="353" stroke="black" />
<text x="731" y="345" font-family="Verdana" font-size="8" text-anchor="middle"  dominant-baseline="middle" fill="black" > 338</text>
<circle cx="712" cy="353" r="4" fill="white" stroke="black" />
<line x1="712" y1="357" x2="712" y2="508" stroke="black" />
<line x1="706" y1="508" x2="719" y2="508" stroke="black" />
<text x="715" y="500" font-family="Verdana" font-size="8" text-anchor="middle"  dominant-baseline="middle" fill="black" > 493</text>
<circle cx="706" cy="508" r="4" fill="white" stroke="black" />
<line x1="706" y1="512" x2="706" y2="591" stroke="black" />
<circle cx="706" cy="591" r="4" fill="white" stroke="black" />
<text x="706" y="603" font-family="Verdana" font-size="8" text-anchor="middle"  dominant-baseline="middle" fill="black" > 576</text>
<circle cx="718" cy="508" r="4" fill="white" stroke="black" />
<line x1="718" y1="512" x2="718" y2="591" stroke="black" />
<circle cx="718" cy="591" r="4" fill="white" stroke="black" />
<text x="718" y="603" font-family="Verdana" font-size="8" text-anchor="middle"  dominant-baseline="middle" fill="black" > 576</text>
<circle cx="737" cy="353" r="4" fill="white" stroke="black" />
<line x1="737" y1="357" x2="737" y2="522" stroke="black" />
<line x1="731" y1="522" x2="744" y2="522" stroke="black" />
<text x="740" y="514" font-family="Verdana" font-size="8" text-anchor="middle"  dominant-baseline="middle" fill="black" > 507</text>
<circle cx="731" cy="522" r="4" fill="white" stroke="black" />
<line x1="731" y1="526" x2="731" y2="591" stroke="black" />
<circle cx="731" cy="591" r="4" fill="white" stroke="black" />
<text x="731" y="603" font-family="Verdana" font-size="8" text-anchor="middle"  dominant-baseline="middle" fill="black" > 576</text>
<circle cx="743" cy="522" r="4" fill="white" stroke="black" />
<line x1="743" y1="526" x2="743" y2="591" stroke="black" />
<circle cx="743" cy="591" r="4" fill="white" stroke="black" />
<text x="743" y="603" font-family="Verdana" font-size="8" text-anchor="middle"  dominant-baseline="middle" fill="black" > 576</text>
<circle cx="775" cy="190" r="4" fill="white" stroke="black" />
<line x1="775" y1="194" x2="775" y2="355" stroke="black" />
<line x1="762" y1="355" x2="788" y2="355" stroke="black" />
<text x="781" y="347" font-family="Verdana" font-size="8" text-anchor="middle"  dominant-baseline="middle" fill="black" > 340</text>
<circle cx="762" cy="355" r="4" fill="white" stroke="black" />
<line x1="762" y1="359" x2="762" y2="547" stroke="black" />
<line x1="756" y1="547" x2="769" y2="547" stroke="black" />
<text x="765" y="539" font-family="Verdana" font-size="8" text-anchor="middle"  dominant-baseline="middle" fill="black" > 532</text>
<circle cx="756" cy="547" r="4" fill="white" stroke="black" />
<line x1="756" y1="551" x2="756" y2="591" stroke="black" />
<circle cx="756" cy="591" r="4" fill="white" stroke="black" />
<text x="756" y="603" font-family="Verdana" font-size="8" text-anchor="middle"  dominant-baseline="middle" fill="black" > 576</text>
<circle cx="768" cy="547" r="4" fill="white" stroke="black" />
<line x1="768" y1="551" x2="768" y2="591" stroke="black" />
<circle cx="768" cy="591" r="4" fill="white" stroke="black" />
<text x="768" y="603" font-family="Verdana" font-size="8" text-anchor="middle"  dominant-baseline="middle" fill="black" > 576</text>
<circle cx="787" cy="355" r="4" fill="white" stroke="black" />
<line x1="787" y1="359" x2="787" y2="478" stroke="black" />
<line x1="781" y1="478" x2="794" y2="478" stroke="black" />
<text x="790" y="470" font-family="Verdana" font-size="8" text-anchor="middle"  dominant-baseline="middle" fill="black" > 463</text>
<circle cx="781" cy="478" r="4" fill="white" stroke="black" />
<line x1="781" y1="482" x2="781" y2="591" stroke="black" />
<circle cx="781" cy="591" r="4" fill="white" stroke="black" />
<text x="781" y="603" font-family="Verdana" font-size="8" text-anchor="middle"  dominant-baseline="middle" fill="black" > 576</text>
<circle cx="793" cy="478" r="4" fill="white" stroke="black" />
<line x1="793" y1="482" x2="793" y2="591" stroke="black" />
<circle cx="793" cy="591" r="4" fill="white" stroke="black" />
<text x="793" y="603" font-family="Verdana" font-size="8" text-anchor="middle"  dominant-baseline="middle" fill="black" > 576</text>
<text x="900" y="7" font-family="Verdana" font-size="7" text-anchor="middle"  dominant-baseline="middle" fill="black" > C5</text>
<circle cx="900" cy="15" r="4" fill="white" stroke="black" />
<line x1="900" y1="19" x2="900" y2="118" stroke="black" />
<line x1="850" y1="118" x2="950" y2="118" stroke="black" />
<text x="925" y="110" font-family="Verdana" font-size="8" text-anchor="middle"  dominant-baseline="middle" fill="black" > 103</text>
<circle cx="850" cy="118" r="4" fill="white" stroke="black" />
<line x1="850" y1="122" x2="850" y2="392" stroke="black" />
<line x1="825" y1="392" x2="875" y2="392" stroke="black" />
<text x="862" y="384" font-family="Verdana" font-size="8" text-anchor="middle"  dominant-baseline="middle" fill="black" > 377</text>
<circle cx="825" cy="392" r="4" fill="white" stroke="black" />
<line x1="825" y1="396" x2="825" y2="509" stroke="black" />
<line x1="812" y1="509" x2="838" y2="509" stroke="black" />
<text x="831" y="501" font-family="Verdana" font-size="8" text-anchor="middle"  dominant-baseline="middle" fill="black" > 494</text>
<circle cx="812" cy="509" r="4" fill="white" stroke="black" />
<line x1="812" y1="513" x2="812" y2="591" stroke="black" />
<circle cx="812" cy="591" r="4" fill="white" stroke="black" />
<text x="812" y="603" font-family="Verdana" font-size="8" text-anchor="middle"  dominant-baseline="middle" fill="black" > 576</text>
<circle cx="837" cy="509" r="4" fill="white" stroke="black" />
<line x1="837" y1="513" x2="837" y2="591" stroke="black" />
<circle cx="837" cy="591" r="4" fill="white" stroke="black" />
<text x="837" y="603" font-family="Verdana" font-size="8" text-anchor="middle"  dominant-baseline="middle" fill="black" > 576</text>
<circle cx="875" cy="392" r="4" fill="white" stroke="black" />
<line x1="875" y1="396" x2="875" y2="522" stroke="black" />
<line x1="862" y1="522" x2="888" y2="522" stroke="black" />
<text x="881" y="514" font-family="Verdana" font-size="8" text-anchor="middle"  dominant-baseline="middle" fill="black" > 507</text>
<circle cx="862" cy="522" r="4" fill="white" stroke="black" />
<line x1="862" y1="526" x2="862" y2="591" stroke="black" />
<circle cx="862" cy="591" r="4" fill="white" stroke="black" />
<text x="862" y="603" font-family="Verdana" font-size="8" text-anchor="middle"  dominant-baseline="middle" fill="black" > 576</text>
<circle cx="887" cy="522" r="4" fill="white" stroke="black" />
<line x1="887" y1="526" x2="887" y2="591" stroke="black" />
<circle cx="887" cy="591" r="4" fill="white" stroke="black" />
<text x="887" y="603" font-family="Verdana" font-size="8" text-anchor="middle"  dominant-baseline="middle" fill="black" > 576</text>
<circle cx="950" cy="118" r="4" fill="white" stroke="black" />
<line x1="950" y1="122" x2="950" y2="277" stroke="black" />
<line x1="925" y1="277" x2="975" y2="277" stroke="black" />
<text x="962" y="269" font-family="Verdana" font-size="8" text-anchor="middle"  dominant-baseline="middle" fill="black" > 262</text>
<circle cx="925" cy="277" r="4" fill="white" stroke="black" />
<line x1="925" y1="281" x2="925" y2="370" stroke="black" />
<line x1="921" y1="374" x2="925" y2="366" stroke="blue" />
<line x1="925" y1="374" x2="929" y2="366" stroke="blue" />
<text x="925" y="382" font-family="Verdana" font-size="8" text-anchor="middle"  dominant-baseline="middle" fill="black" > 355</text>
<circle cx="975" cy="277" r="4" fill="white" stroke="black" />
<line x1="975" y1="281" x2="975" y2="445" stroke="black" />
<line x1="962" y1="445" x2="988" y2="445" stroke="black" />
<text x="981" y="437" font-family="Verdana" font-size="8" text-anchor="middle"  dominant-baseline="middle" fill="black" > 430</text>
<circle cx="962" cy="445" r="4" fill="white" stroke="black" />
<line x1="962" y1="449" x2="962" y2="591" stroke="black" />
<circle cx="962" cy="591" r="4" fill="white" stroke="black" />
<text x="962" y="603" font-family="Verdana" font-size="8" text-anchor="middle"  dominant-baseline="middle" fill="black" > 576</text>
<circle cx="987" cy="445" r="4" fill="white" stroke="black" />
<line x1="987" y1="449" x2="987" y2="591" stroke="black" />
<circle cx="987" cy="591" r="4" fill="white" stroke="black" />
<text x="987" y="603" font-family="Verdana" font-size="8" text-anchor="middle"  dominant-baseline="middle" fill="black" > 576</text>
<text x="1100" y="7" font-family="Verdana" font-size="7" text-anchor="middle"  dominant-baseline="middle" fill="black" > C6</text>
<circle cx="1100" cy="15" r="4" fill="white" stroke="black" />
<line x1="1100" y1="19" x2="1100" y2="99" stroke="black" />
<line x1="1050" y1="99" x2="1150" y2="99" stroke="black" />
<text x="1125" y="91" font-family="Verdana" font-size="8" text-anchor="middle"  dominant-baseline="middle" fill="black" > 84</text>
<circle cx="1050" cy="99" r="4" fill="white" stroke="black" />
<line x1="1050" y1="103" x2="1050" y2="329" stroke="black" />
<line x1="1025" y1="329" x2="1075" y2="329" stroke="black" />
<text x="1062" y="321" font-family="Verdana" font-size="8" text-anchor="middle"  dominant-baseline="middle" fill="black" > 314</text>
<circle cx="1025" cy="329" r="4" fill="white" stroke="black" />
<line x1="1025" y1="333" x2="1025" y2="437" stroke="black" />
<line x1="1021" y1="433" x2="1029" y2="441" stroke="red" />
<line x1="1021" y1="441" x2="1029" y2="433" stroke="red" />
<text x="1025" y="449" font-family="Verdana" font-size="8" text-anchor="middle"  dominant-baseline="middle" fill="black" > 422</text>
<circle cx="1075" cy="329" r="4" fill="white" stroke="black" />
<line x1="1075" y1="333" x2="1075" y2="466" stroke="black" />
<line x1="1071" y1="462" x2="1079" y2="470" stroke="red" />
<line x1="1071" y1="470" x2="1079" y2="462" stroke="red" />
<text x="1075" y="478" font-family="Verdana" font-size="8" text-anchor="middle"  dominant-baseline="middle" fill="black" > 451</text>
<circle cx="1150" cy="99" r="4" fill="white" stroke="black" />
<line x1="1150" y1="103" x2="1150" y2="298" stroke="black" />
<line x1="1125" y1="298" x2="1175" y2="298" stroke="black" />
<text x="1162" y="290" font-family="Verdana" font-size="8" text-anchor="middle"  dominant-baseline="middle" fill="black" > 283</text>
<circle cx="1125" cy="298" r="4" fill="white" stroke="black" />
<line x1="1125" y1="302" x2="1125" y2="434" stroke="black" />
<line x1="1112" y1="434" x2="1138" y2="434" stroke="black" />
<text x="1131" y="426" font-family="Verdana" font-size="8" text-anchor="middle"  dominant-baseline="middle" fill="black" > 419</text>
<circle cx="1112" cy="434" r="4" fill="white" stroke="black" />
<line x1="1112" y1="438" x2="1112" y2="438" stroke="black" />
<line x1="1108" y1="434" x2="1116" y2="442" stroke="red" />
<line x1="1108" y1="442" x2="1116" y2="434" stroke="red" />
<text x="1112" y="450" font-family="Verdana" font-size="8" text-anchor="middle"  dominant-baseline="middle" fill="black" > 423</text>
<circle cx="1137" cy="434" r="4" fill="white" stroke="black" />
<line x1="1137" y1="438" x2="1137" y2="438" stroke="black" />
<line x1="1133" y1="434" x2="1141" y2="442" stroke="red" />
<line x1="1133" y1="442" x2="1141" y2="434" stroke="red" />
<text x="1137" y="450" font-family="Verdana" font-size="8" text-anchor="middle"  dominant-baseline="middle" fill="black" > 423</text>
<circle cx="1175" cy="298" r="4" fill="white" stroke="black" />
<line x1="1175" y1="302" x2="1175" y2="430" stroke="black" />
<line x1="1162" y1="430" x2="1188" y2="430" stroke="black" />
<text x="1181" y="422" font-family="Verdana" font-size="8" text-anchor="middle"  dominant-baseline="middle" fill="black" > 415</text>
<circle cx="1162" cy="430" r="4" fill="white" stroke="black" />
<line x1="1162" y1="434" x2="1162" y2="591" stroke="black" />
<circle cx="1162" cy="591" r="4" fill="white" stroke="black" />
<text x="1162" y="603" font-family="Verdana" font-size="8" text-anchor="middle"  dominant-baseline="middle" fill="black" > 576</text>
<circle cx="1187" cy="430" r="4" fill="white" stroke="black" />
<line x1="1187" y1="434" x2="1187" y2="591" stroke="black" />
<circle cx="1187" cy="591" r="4" fill="white" stroke="black" />
<text x="1187" y="603" font-family="Verdana" font-size="8" text-anchor="middle"  dominant-baseline="middle" fill="black" > 576</text>
</svg>
