<?xml version="1.0" encoding="utf-8"?>
<svg xmlns="http://www.w3.org/2000/svg" version="1.1" width="1350" height="750">
<rect width="1350" height="15" x="0" y="0" fill="white" />
<rect width="1350" height="15" x="0" y="735" fill="white" />
<rect width="25" height="750" x="0" y="0" fill="white" />
<rect width="25" height="750" x="1325" y="0" fill="white" />
<rect width="1310" height="144" x="25" y="15" fill="ghostwhite" />
<rect width="1310" height="144" x="25" y="159" fill="snow" />
<rect width="1310" height="144" x="25" y="303" fill="ghostwhite" />
<rect width="1310" height="144" x="25" y="447" fill="snow" />
<rect width="1310" height="144" x="25" y="591" fill="ghostwhite" />
<text x="12" y="87" font-family="Verdana" font-size="10" text-anchor="middle"  dominant-baseline="middle" fill="red" > D0</text>
<text x="12" y="231" font-family="Verdana" font-size="10" text-anchor="middle"  dominant-baseline="middle" fill="red" > D1</text>
<text x="12" y="375" font-family="Verdana" font-size="10" text-anchor="middle"  dominant-baseline="middle" fill="red" > D2</text>
<text x="12" y="519" font-family="Verdana" font-size="10" text-anchor="middle"  dominant-baseline="middle" fill="red" > D3</text>
<text x="12" y="663" font-family="Verdana" font-size="10" text-anchor="middle"  dominant-baseline="middle" fill="red" > D4</text>
<text x="12" y="20" font-family="Verdana" font-size="10" text-anchor="middle"  dominant-baseline="middle" fill="black" > 0</text>
<text x="12" y="164" font-family="Verdana" font-size="10" text-anchor="middle"  dominant-baseline="middle" fill="black" > 144</text>
<text x="12" y="308" font-family="Verdana" font-size="10" text-anchor="middle"  dominant-baseline="middle" fill="black" > 288</text>
<text x="12" y="452" font-family="Verdana" font-size="10" text-anchor="middle"  dominant-baseline="middle" fill="black" > 432</text>
<text x="12" y="596" font-family="Verdana" font-size="10" text-anchor="middle"  dominant-baseline="middle" fill="black" > 576</text>
<text x="12" y="740" font-family="Verdana" font-size="10" text-anchor="middle"  dominant-baseline="middle" fill="black" > 720</text>
<text x="50" y="7" font-family="Verdana" font-size="7" text-anchor="middle"  dominant-baseline="middle" fill="black" > C1</text>
<circle cx="50" cy="15" r="4" fill="white" stroke="black" />
<line x1="50" y1="19" x2="50" y2="71" stroke="black" />
<line x1="46" y1="75" x2="50" y2="67" stroke="blue" />
<line x1="50" y1="75" x2="54" y2="67" stroke="blue" />
<text x="50" y="83" font-family="Verdana" font-size="8" text-anchor="middle"  dominant-baseline="middle" fill="black" > 56</text>
<text x="250" y="7" font-family="Verdana" font-size="7" text-anchor="middle"  dominant-baseline="middle" fill="black" > C2</text>
<circle cx="250" cy="15" r="4" fill="white" stroke="black" />
<line x1="250" y1="19" x2="250" y2="374" stroke="black" />
<line x1="150" y1="374" x2="350" y2="374" stroke="black" />
<text x="275" y="366" font-family="Verdana" font-size="8" text-anchor="middle"  dominant-baseline="middle" fill="black" > 359</text>
<circle cx="150" cy="374" r="4" fill="white" stroke="black" />
<circle cx="250" cy="374" r="4" fill="white" stroke="black" />
<line x1="150" y1="378" x2="150" y2="405" stroke="black" />
<line x1="150" y1="405" x2="200" y2="415" stroke="black" />
<line x1="250" y1="378" x2="250" y2="405" stroke="black" />
<line x1="250" y1="405" x2="200" y2="415" stroke="black" />
<text x="200" y="403" font-family="Verdana" font-size="8" text-anchor="middle"  dominant-baseline="middle" fill="black" > 400</text>
<circle cx="200" cy="415" r="4" fill="white" stroke="black" />
<circle cx="350" cy="374" r="4" fill="white" stroke="black" />
<line x1="200" y1="419" x2="200" y2="434" stroke="black" />
<line x1="200" y1="434" x2="275" y2="440" stroke="black" />
<line x1="350" y1="378" x2="350" y2="434" stroke="black" />
<line x1="350" y1="434" x2="275" y2="440" stroke="black" />
<text x="275" y="428" font-family="Verdana" font-size="8" text-anchor="middle"  dominant-baseline="middle" fill="black" > 425</text>
<circle cx="275" cy="440" r="4" fill="white" stroke="black" />
<line x1="275" y1="444" x2="275" y2="736" stroke="black" />
<circle cx="275" cy="736" r="4" fill="white" stroke="black" />
<text x="275" y="748" font-family="Verdana" font-size="8" text-anchor="middle"  dominant-baseline="middle" fill="black" > 721</text>
<text x="450" y="7" font-family="Verdana" font-size="7" text-anchor="middle"  dominant-baseline="middle" fill="black" > C3</text>
<circle cx="450" cy="15" r="4" fill="white" stroke="black" />
<line x1="450" y1="19" x2="450" y2="386" stroke="black" />
<line x1="446" y1="382" x2="454" y2="390" stroke="red" />
<line x1="446" y1="390" x2="454" y2="382" stroke="red" />
<text x="450" y="398" font-family="Verdana" font-size="8" text-anchor="middle"  dominant-baseline="middle" fill="black" > 371</text>
<text x="550" y="7" font-family="Verdana" font-size="7" text-anchor="middle"  dominant-baseline="middle" fill="black" > C4</text>
<circle cx="550" cy="15" r="4" fill="white" stroke="black" />
<line x1="550" y1="19" x2="550" y2="559" stroke="black" />
<line x1="546" y1="563" x2="550" y2="555" stroke="blue" />
<line x1="550" y1="563" x2="554" y2="555" stroke="blue" />
<text x="550" y="571" font-family="Verdana" font-size="8" text-anchor="middle"  dominant-baseline="middle" fill="black" > 544</text>
<text x="700" y="7" font-family="Verdana" font-size="7" text-anchor="middle"  dominant-baseline="middle" fill="black" > C5</text>
<circle cx="700" cy="15" r="4" fill="white" stroke="black" />
<line x1="700" y1="19" x2="700" y2="295" stroke="black" />
<line x1="650" y1="295" x2="750" y2="295" stroke="black" />
<text x="725" y="287" font-family="Verdana" font-size="8" text-anchor="middle"  dominant-baseline="middle" fill="black" > 280</text>
<circle cx="650" cy="295" r="4" fill="white" stroke="black" />
<line x1="650" y1="299" x2="650" y2="713" stroke="black" />
<line x1="646" y1="709" x2="654" y2="717" stroke="red" />
<line x1="646" y1="717" x2="654" y2="709" stroke="red" />
<text x="650" y="725" font-family="Verdana" font-size="8" text-anchor="middle"  dominant-baseline="middle" fill="black" > 698</text>
<circle cx="750" cy="295" r="4" fill="white" stroke="black" />
<line x1="750" y1="299" x2="750" y2="730" stroke="black" />
<line x1="746" y1="726" x2="754" y2="734" stroke="red" />
<line x1="746" y1="734" x2="754" y2="726" stroke="red" />
<text x="750" y="742" font-family="Verdana" font-size="8" text-anchor="middle"  dominant-baseline="middle" fill="black" > 715</text>
<text x="900" y="7" font-family="Verdana" font-size="7" text-anchor="middle"  dominant-baseline="middle" fill="black" > C6</text>
<circle cx="900" cy="15" r="4" fill="white" stroke="black" />
<line x1="900" y1="19" x2="900" y2="263" stroke="black" />
<line x1="850" y1="263" x2="950" y2="263" stroke="black" />
<text x="925" y="255" font-family="Verdana" font-size="8" text-anchor="middle"  dominant-baseline="middle" fill="black" > 248</text>
<circle cx="850" cy="263" r="4" fill="white" stroke="black" />
<line x1="850" y1="267" x2="850" y2="625" stroke="black" />
<line x1="846" y1="621" x2="854" y2="629" stroke="red" />
<line x1="846" y1="629" x2="854" y2="621" stroke="red" />
<text x="850" y="637" font-family="Verdana" font-size="8" text-anchor="middle"  dominant-baseline="middle" fill="black" > 610</text>
<circle cx="950" cy="263" r="4" fill="white" stroke="black" />
<line x1="950" y1="267" x2="950" y2="661" stroke="black" />
<line x1="946" y1="657" x2="954" y2="665" stroke="red" />
<line x1="946" y1="665" x2="954" y2="657" stroke="red" />
<text x="950" y="673" font-family="Verdana" font-size="8" text-anchor="middle"  dominant-baseline="middle" fill="black" > 646</text>
<text x="1050" y="7" font-family="Verdana" font-size="7" text-anchor="middle"  dominant-baseline="middle" fill="black" > C7</text>
<circle cx="1050" cy="15" r="4" fill="white" stroke="black" />
<line x1="1050" y1="19" x2="1050" y2="516" stroke="black" />
<line x1="1046" y1="512" x2="1054" y2="520" stroke="red" />
<line x1="1046" y1="520" x2="1054" y2="512" stroke="red" />
<text x="1050" y="528" font-family="Verdana" font-size="8" text-anchor="middle"  dominant-baseline="middle" fill="black" > 501</text>
<text x="1200" y="7" font-family="Verdana" font-size="7" text-anchor="middle"  dominant-baseline="middle" fill="black" > C8</text>
<circle cx="1200" cy="15" r="4" fill="white" stroke="black" />
<line x1="1200" y1="19" x2="1200" y2="416" stroke="black" />
<line x1="1150" y1="416" x2="1250" y2="416" stroke="black" />
<text x="1225" y="408" font-family="Verdana" font-size="8" text-anchor="middle"  dominant-baseline="middle" fill="black" > 401</text>
<circle cx="1150" cy="416" r="4" fill="white" stroke="black" />
<line x1="1150" y1="420" x2="1150" y2="498" stroke="black" />
<line x1="1146" y1="494" x2="1154" y2="502" stroke="red" />
<line x1="1146" y1="502" x2="1154" y2="494" stroke="red" />
<text x="1150" y="510" font-family="Verdana" font-size="8" text-anchor="middle"  dominant-baseline="middle" fill="black" > 483</text>
<circle cx="1250" cy="416" r="4" fill="white" stroke="black" />
<line x1="1250" y1="420" x2="1250" y2="677" stroke="black" />
<line x1="1246" y1="673" x2="1254" y2="681" stroke="red" />
<line x1="1246" y1="681" x2="1254" y2="673" stroke="red" />
<text x="1250" y="689" font-family="Verdana" font-size="8" text-anchor="middle"  dominant-baseline="middle" fill="black" > 662</text>
</svg>
