<?xml version="1.0" encoding="utf-8"?>
<svg xmlns="http://www.w3.org/2000/svg" version="1.1" width="1650" height="750">
<rect width="1650" height="15" x="0" y="0" fill="white" />
<rect width="1650" height="15" x="0" y="735" fill="white" />
<rect width="25" height="750" x="0" y="0" fill="white" />
<rect width="25" height="750" x="1625" y="0" fill="white" />
<rect width="1610" height="144" x="25" y="15" fill="ghostwhite" />
<rect width="1610" height="144" x="25" y="159" fill="snow" />
<rect width="1610" height="144" x="25" y="303" fill="ghostwhite" />
<rect width="1610" height="144" x="25" y="447" fill="snow" />
<rect width="1610" height="144" x="25" y="591" fill="ghostwhite" />
<text x="12" y="87" font-family="Verdana" font-size="10" text-anchor="middle"  dominant-baseline="middle" fill="red" > D0</text>
<text x="12" y="231" font-family="Verdana" font-size="10" text-anchor="middle"  dominant-baseline="middle" fill="red" > D1</text>
<text x="12" y="375" font-family="Verdana" font-size="10" text-anchor="middle"  dominant-baseline="middle" fill="red" > D2</text>
<text x="12" y="519" font-family="Verdana" font-size="10" text-anchor="middle"  dominant-baseline="middle" fill="red" > D3</text>
<text x="12" y="663" font-family="Verdana" font-size="10" text-anchor="middle"  dominant-baseline="middle" fill="red" > D4</text>
<text x="12" y="20" font-family="Verdana" font-size="10" text-anchor="middle"  dominant-baseline="middle" fill="black" > 0</text>
<text x="12" y="164" font-family="Verdana" font-size="10" text-anchor="middle"  dominant-baseline="middle" fill="black" > 144</text>
<text x="12" y="308" font-family="Verdana" font-size="10" text-anchor="middle"  dominant-baseline="middle" fill="black" > 288</text>
<text x="12" y="452" font-family="Verdana" font-size="10" text-anchor="middle"  dominant-baseline="middle" fill="black" > 432</text>
<text x="12" y="596" font-family="Verdana" font-size="10" text-anchor="middle"  dominant-baseline="middle" fill="black" > 576</text>
<text x="12" y="740" font-family="Verdana" font-size="10" text-anchor="middle"  dominant-baseline="middle" fill="black" > 720</text>
<text x="50" y="7" font-family="Verdana" font-size="7" text-anchor="middle"  dominant-baseline="middle" fill="black" > C1</text>
<circle cx="50" cy="15" r="4" fill="white" stroke="black" />
<line x1="50" y1="19" x2="50" y2="171" stroke="black" />
<line x1="46" y1="167" x2="54" y2="175" stroke="red" />
<line x1="46" y1="175" x2="54" y2="167" stroke="red" />
<text x="50" y="183" font-family="Verdana" font-size="8" text-anchor="middle"  dominant-baseline="middle" fill="black" > 156</text>
<text x="150" y="7" font-family="Verdana" font-size="7" text-anchor="middle"  dominant-baseline="middle" fill="black" > C2</text>
<circle cx="150" cy="15" r="4" fill="white" stroke="black" />
<line x1="150" y1="19" x2="150" y2="387" stroke="black" />
<line x1="146" y1="383" x2="154" y2="391" stroke="red" />
<line x1="146" y1="391" x2="154" y2="383" stroke="red" />
<text x="150" y="399" font-family="Verdana" font-size="8" text-anchor="middle"  dominant-baseline="middle" fill="black" > 372</text>
<text x="300" y="7" font-family="Verdana" font-size="7" text-anchor="middle"  dominant-baseline="middle" fill="black" > C3</text>
<circle cx="300" cy="15" r="4" fill="white" stroke="black" />
<line x1="300" y1="19" x2="300" y2="283" stroke="black" />
<line x1="250" y1="283" x2="350" y2="283" stroke="black" />
<text x="325" y="275" font-family="Verdana" font-size="8" text-anchor="middle"  dominant-baseline="middle" fill="black" > 268</text>
<circle cx="250" cy="283" r="4" fill="white" stroke="black" />
<line x1="250" y1="287" x2="250" y2="368" stroke="black" />
<line x1="246" y1="364" x2="254" y2="372" stroke="red" />
<line x1="246" y1="372" x2="254" y2="364" stroke="red" />
<text x="250" y="380" font-family="Verdana" font-size="8" text-anchor="middle"  dominant-baseline="middle" fill="black" > 353</text>
<circle cx="350" cy="283" r="4" fill="white" stroke="black" />
<line x1="350" y1="287" x2="350" y2="367" stroke="black" />
<line x1="346" y1="363" x2="354" y2="371" stroke="red" />
<line x1="346" y1="371" x2="354" y2="363" stroke="red" />
<text x="350" y="379" font-family="Verdana" font-size="8" text-anchor="middle"  dominant-baseline="middle" fill="black" > 352</text>
<text x="600" y="7" font-family="Verdana" font-size="7" text-anchor="middle"  dominant-baseline="middle" fill="black" > C4</text>
<circle cx="600" cy="15" r="4" fill="white" stroke="black" />
<line x1="600" y1="19" x2="600" y2="331" stroke="black" />
<line x1="450" y1="331" x2="750" y2="331" stroke="black" />
<text x="625" y="323" font-family="Verdana" font-size="8" text-anchor="middle"  dominant-baseline="middle" fill="black" > 316</text>
<circle cx="450" cy="331" r="4" fill="white" stroke="black" />
<circle cx="550" cy="331" r="4" fill="white" stroke="black" />
<line x1="450" y1="335" x2="450" y2="578" stroke="black" />
<line x1="450" y1="578" x2="500" y2="660" stroke="black" />
<line x1="550" y1="335" x2="550" y2="578" stroke="black" />
<line x1="550" y1="578" x2="500" y2="660" stroke="black" />
<text x="500" y="648" font-family="Verdana" font-size="8" text-anchor="middle"  dominant-baseline="middle" fill="black" > 645</text>
<circle cx="500" cy="660" r="4" fill="white" stroke="black" />
<line x1="500" y1="664" x2="500" y2="697" stroke="black" />
<line x1="496" y1="693" x2="504" y2="701" stroke="red" />
<line x1="496" y1="701" x2="504" y2="693" stroke="red" />
<text x="500" y="709" font-family="Verdana" font-size="8" text-anchor="middle"  dominant-baseline="middle" fill="black" > 682</text>
<circle cx="650" cy="331" r="4" fill="white" stroke="black" />
<circle cx="750" cy="331" r="4" fill="white" stroke="black" />
<line x1="650" y1="335" x2="650" y2="359" stroke="black" />
<line x1="650" y1="359" x2="700" y2="368" stroke="black" />
<line x1="750" y1="335" x2="750" y2="359" stroke="black" />
<line x1="750" y1="359" x2="700" y2="368" stroke="black" />
<text x="700" y="356" font-family="Verdana" font-size="8" text-anchor="middle"  dominant-baseline="middle" fill="black" > 353</text>
<circle cx="700" cy="368" r="4" fill="white" stroke="black" />
<line x1="700" y1="372" x2="700" y2="551" stroke="black" />
<line x1="696" y1="547" x2="704" y2="555" stroke="red" />
<line x1="696" y1="555" x2="704" y2="547" stroke="red" />
<text x="700" y="563" font-family="Verdana" font-size="8" text-anchor="middle"  dominant-baseline="middle" fill="black" > 536</text>
<text x="900" y="7" font-family="Verdana" font-size="7" text-anchor="middle"  dominant-baseline="middle" fill="black" > C5</text>
<circle cx="900" cy="15" r="4" fill="white" stroke="black" />
<line x1="900" y1="19" x2="900" y2="369" stroke="black" />
<line x1="850" y1="369" x2="950" y2="369" stroke="black" />
<text x="925" y="361" font-family="Verdana" font-size="8" text-anchor="middle"  dominant-baseline="middle" fill="black" > 354</text>
<circle cx="850" cy="369" r="4" fill="white" stroke="black" />
<circle cx="950" cy="369" r="4" fill="white" stroke="black" />
<line x1="850" y1="373" x2="850" y2="396" stroke="black" />
<line x1="850" y1="396" x2="900" y2="404" stroke="black" />
<line x1="950" y1="373" x2="950" y2="396" stroke="black" />
<line x1="950" y1="396" x2="900" y2="404" stroke="black" />
<text x="900" y="392" font-family="Verdana" font-size="8" text-anchor="middle"  dominant-baseline="middle" fill="black" > 389</text>
<circle cx="900" cy="404" r="4" fill="white" stroke="black" />
<line x1="900" y1="408" x2="900" y2="505" stroke="black" />
<line x1="896" y1="501" x2="904" y2="509" stroke="red" />
<line x1="896" y1="509" x2="904" y2="501" stroke="red" />
<text x="900" y="517" font-family="Verdana" font-size="8" text-anchor="middle"  dominant-baseline="middle" fill="black" > 490</text>
<text x="1100" y="7" font-family="Verdana" font-size="7" text-anchor="middle"  dominant-baseline="middle" fill="black" > C6</text>
<circle cx="1100" cy="15" r="4" fill="white" stroke="black" />
<line x1="1100" y1="19" x2="1100" y2="288" stroke="black" />
<line x1="1050" y1="288" x2="1150" y2="288" stroke="black" />
<text x="1125" y="280" font-family="Verdana" font-size="8" text-anchor="middle"  dominant-baseline="middle" fill="black" > 273</text>
<circle cx="1050" cy="288" r="4" fill="white" stroke="black" />
<line x1="1050" y1="292" x2="1050" y2="389" stroke="black" />
<line x1="1046" y1="385" x2="1054" y2="393" stroke="red" />
<line x1="1046" y1="393" x2="1054" y2="385" stroke="red" />
<text x="1050" y="401" font-family="Verdana" font-size="8" text-anchor="middle"  dominant-baseline="middle" fill="black" > 374</text>
<circle cx="1150" cy="288" r="4" fill="white" stroke="black" />
<line x1="1150" y1="292" x2="1150" y2="424" stroke="black" />
<line x1="1146" y1="420" x2="1154" y2="428" stroke="red" />
<line x1="1146" y1="428" x2="1154" y2="420" stroke="red" />
<text x="1150" y="436" font-family="Verdana" font-size="8" text-anchor="middle"  dominant-baseline="middle" fill="black" > 409</text>
<text x="1250" y="7" font-family="Verdana" font-size="7" text-anchor="middle"  dominant-baseline="middle" fill="black" > C7</text>
<circle cx="1250" cy="15" r="4" fill="white" stroke="black" />
<line x1="1250" y1="19" x2="1250" y2="388" stroke="black" />
<line x1="1246" y1="384" x2="1254" y2="392" stroke="red" />
<line x1="1246" y1="392" x2="1254" y2="384" stroke="red" />
<text x="1250" y="400" font-family="Verdana" font-size="8" text-anchor="middle"  dominant-baseline="middle" fill="black" > 373</text>
<text x="1400" y="7" font-family="Verdana" font-size="7" text-anchor="middle"  dominant-baseline="middle" fill="black" > C8</text>
<circle cx="1400" cy="15" r="4" fill="white" stroke="black" />
<line x1="1400" y1="19" x2="1400" y2="21" stroke="black" />
<line x1="1350" y1="21" x2="1450" y2="21" stroke="black" />
<text x="1425" y="13" font-family="Verdana" font-size="8" text-anchor="middle"  dominant-baseline="middle" fill="black" > 6</text>
<circle cx="1350" cy="21" r="4" fill="white" stroke="black" />
<line x1="1350" y1="25" x2="1350" y2="395" stroke="black" />
<line x1="1346" y1="399" x2="1350" y2="391" stroke="blue" />
<line x1="1350" y1="399" x2="1354" y2="391" stroke="blue" />
<text x="1350" y="407" font-family="Verdana" font-size="8" text-anchor="middle"  dominant-baseline="middle" fill="black" > 380</text>
<circle cx="1450" cy="21" r="4" fill="white" stroke="black" />
<line x1="1450" y1="25" x2="1450" y2="155" stroke="black" />
<line x1="1446" y1="159" x2="1450" y2="151" stroke="blue" />
<line x1="1450" y1="159" x2="1454" y2="151" stroke="blue" />
<text x="1450" y="167" font-family="Verdana" font-size="8" text-anchor="middle"  dominant-baseline="middle" fill="black" > 140</text>
<text x="1550" y="7" font-family="Verdana" font-size="7" text-anchor="middle"  dominant-baseline="middle" fill="black" > C9</text>
<circle cx="1550" cy="15" r="4" fill="white" stroke="black" />
<line x1="1550" y1="19" x2="1550" y2="30" stroke="black" />
<line x1="1546" y1="34" x2="1550" y2="26" stroke="blue" />
<line x1="1550" y1="34" x2="1554" y2="26" stroke="blue" />
<text x="1550" y="42" font-family="Verdana" font-size="8" text-anchor="middle"  dominant-baseline="middle" fill="black" > 15</text>
</svg>
