<?xml version="1.0" encoding="utf-8"?>
<svg xmlns="http://www.w3.org/2000/svg" version="1.1" width="1950" height="750">
<rect width="1950" height="15" x="0" y="0" fill="white" />
<rect width="1950" height="15" x="0" y="735" fill="white" />
<rect width="25" height="750" x="0" y="0" fill="white" />
<rect width="25" height="750" x="1925" y="0" fill="white" />
<rect width="1910" height="144" x="25" y="15" fill="ghostwhite" />
<rect width="1910" height="144" x="25" y="159" fill="snow" />
<rect width="1910" height="144" x="25" y="303" fill="ghostwhite" />
<rect width="1910" height="144" x="25" y="447" fill="snow" />
<rect width="1910" height="144" x="25" y="591" fill="ghostwhite" />
<text x="12" y="87" font-family="Verdana" font-size="10" text-anchor="middle"  dominant-baseline="middle" fill="red" > D0</text>
<text x="12" y="231" font-family="Verdana" font-size="10" text-anchor="middle"  dominant-baseline="middle" fill="red" > D1</text>
<text x="12" y="375" font-family="Verdana" font-size="10" text-anchor="middle"  dominant-baseline="middle" fill="red" > D2</text>
<text x="12" y="519" font-family="Verdana" font-size="10" text-anchor="middle"  dominant-baseline="middle" fill="red" > D3</text>
<text x="12" y="663" font-family="Verdana" font-size="10" text-anchor="middle"  dominant-baseline="middle" fill="red" > D4</text>
<text x="12" y="20" font-family="Verdana" font-size="10" text-anchor="middle"  dominant-baseline="middle" fill="black" > 0</text>
<text x="12" y="164" font-family="Verdana" font-size="10" text-anchor="middle"  dominant-baseline="middle" fill="black" > 144</text>
<text x="12" y="308" font-family="Verdana" font-size="10" text-anchor="middle"  dominant-baseline="middle" fill="black" > 288</text>
<text x="12" y="452" font-family="Verdana" font-size="10" text-anchor="middle"  dominant-baseline="middle" fill="black" > 432</text>
<text x="12" y="596" font-family="Verdana" font-size="10" text-anchor="middle"  dominant-baseline="middle" fill="black" > 576</text>
<text x="12" y="740" font-family="Verdana" font-size="10" text-anchor="middle"  dominant-baseline="middle" fill="black" > 720</text>
<text x="50" y="7" font-family="Verdana" font-size="7" text-anchor="middle"  dominant-baseline="middle" fill="black" > C1</text>
<circle cx="50" cy="15" r="4" fill="white" stroke="black" />
<line x1="50" y1="19" x2="50" y2="715" stroke="black" />
<line x1="46" y1="711" x2="54" y2="719" stroke="red" />
<line x1="46" y1="719" x2="54" y2="711" stroke="red" />
<text x="50" y="727" font-family="Verdana" font-size="8" text-anchor="middle"  dominant-baseline="middle" fill="black" > 700</text>
<text x="150" y="7" font-family="Verdana" font-size="7" text-anchor="middle"  dominant-baseline="middle" fill="black" > C2</text>
<circle cx="150" cy="15" r="4" fill="white" stroke="black" />
<line x1="150" y1="19" x2="150" y2="519" stroke="black" />
<line x1="146" y1="515" x2="154" y2="523" stroke="red" />
<line x1="146" y1="523" x2="154" y2="515" stroke="red" />
<text x="150" y="531" font-family="Verdana" font-size="8" text-anchor="middle"  dominant-baseline="middle" fill="black" > 504</text>
<text x="400" y="7" font-family="Verdana" font-size="7" text-anchor="middle"  dominant-baseline="middle" fill="black" > C3</text>
<circle cx="400" cy="15" r="4" fill="white" stroke="black" />
<line x1="400" y1="19" x2="400" y2="280" stroke="black" />
<line x1="250" y1="280" x2="550" y2="280" stroke="black" />
<text x="425" y="272" font-family="Verdana" font-size="8" text-anchor="middle"  dominant-baseline="middle" fill="black" > 265</text>
<circle cx="250" cy="280" r="4" fill="white" stroke="black" />
<circle cx="350" cy="280" r="4" fill="white" stroke="black" />
<circle cx="450" cy="280" r="4" fill="white" stroke="black" />
<line x1="250" y1="284" x2="250" y2="315" stroke="black" />
<line x1="250" y1="315" x2="350" y2="326" stroke="black" />
<line x1="350" y1="284" x2="350" y2="315" stroke="black" />
<line x1="350" y1="315" x2="350" y2="326" stroke="black" />
<line x1="450" y1="284" x2="450" y2="315" stroke="black" />
<line x1="450" y1="315" x2="350" y2="326" stroke="black" />
<text x="350" y="314" font-family="Verdana" font-size="8" text-anchor="middle"  dominant-baseline="middle" fill="black" > 311</text>
<circle cx="350" cy="326" r="4" fill="white" stroke="black" />
<circle cx="550" cy="280" r="4" fill="white" stroke="black" />
<line x1="350" y1="330" x2="350" y2="494" stroke="black" />
<line x1="350" y1="494" x2="450" y2="549" stroke="black" />
<line x1="550" y1="284" x2="550" y2="494" stroke="black" />
<line x1="550" y1="494" x2="450" y2="549" stroke="black" />
<text x="450" y="537" font-family="Verdana" font-size="8" text-anchor="middle"  dominant-baseline="middle" fill="black" > 534</text>
<circle cx="450" cy="549" r="4" fill="white" stroke="black" />
<line x1="450" y1="553" x2="450" y2="693" stroke="black" />
<line x1="446" y1="689" x2="454" y2="697" stroke="red" />
<line x1="446" y1="697" x2="454" y2="689" stroke="red" />
<text x="450" y="705" font-family="Verdana" font-size="8" text-anchor="middle"  dominant-baseline="middle" fill="black" > 678</text>
<text x="650" y="7" font-family="Verdana" font-size="7" text-anchor="middle"  dominant-baseline="middle" fill="black" > C4</text>
<circle cx="650" cy="15" r="4" fill="white" stroke="black" />
<line x1="650" y1="19" x2="650" y2="139" stroke="black" />
<line x1="646" y1="143" x2="650" y2="135" stroke="blue" />
<line x1="650" y1="143" x2="654" y2="135" stroke="blue" />
<text x="650" y="151" font-family="Verdana" font-size="8" text-anchor="middle"  dominant-baseline="middle" fill="black" > 124</text>
<text x="850" y="7" font-family="Verdana" font-size="7" text-anchor="middle"  dominant-baseline="middle" fill="black" > C5</text>
<circle cx="850" cy="15" r="4" fill="white" stroke="black" />
<line x1="850" y1="19" x2="850" y2="386" stroke="black" />
<line x1="750" y1="386" x2="950" y2="386" stroke="black" />
<text x="875" y="378" font-family="Verdana" font-size="8" text-anchor="middle"  dominant-baseline="middle" fill="black" > 371</text>
<circle cx="750" cy="386" r="4" fill="white" stroke="black" />
<circle cx="850" cy="386" r="4" fill="white" stroke="black" />
<circle cx="950" cy="386" r="4" fill="white" stroke="black" />
<line x1="750" y1="390" x2="750" y2="408" stroke="black" />
<line x1="750" y1="408" x2="850" y2="415" stroke="black" />
<line x1="850" y1="390" x2="850" y2="408" stroke="black" />
<line x1="850" y1="408" x2="850" y2="415" stroke="black" />
<line x1="950" y1="390" x2="950" y2="408" stroke="black" />
<line x1="950" y1="408" x2="850" y2="415" stroke="black" />
<text x="850" y="403" font-family="Verdana" font-size="8" text-anchor="middle"  dominant-baseline="middle" fill="black" > 400</text>
<circle cx="850" cy="415" r="4" fill="white" stroke="black" />
<line x1="850" y1="419" x2="850" y2="466" stroke="black" />
<line x1="846" y1="462" x2="854" y2="470" stroke="red" />
<line x1="846" y1="470" x2="854" y2="462" stroke="red" />
<text x="850" y="478" font-family="Verdana" font-size="8" text-anchor="middle"  dominant-baseline="middle" fill="black" > 451</text>
<text x="1050" y="7" font-family="Verdana" font-size="7" text-anchor="middle"  dominant-baseline="middle" fill="black" > C6</text>
<circle cx="1050" cy="15" r="4" fill="white" stroke="black" />
<line x1="1050" y1="19" x2="1050" y2="499" stroke="black" />
<line x1="1046" y1="495" x2="1054" y2="503" stroke="red" />
<line x1="1046" y1="503" x2="1054" y2="495" stroke="red" />
<text x="1050" y="511" font-family="Verdana" font-size="8" text-anchor="middle"  dominant-baseline="middle" fill="black" > 484</text>
<text x="1150" y="7" font-family="Verdana" font-size="7" text-anchor="middle"  dominant-baseline="middle" fill="black" > C7</text>
<circle cx="1150" cy="15" r="4" fill="white" stroke="black" />
<line x1="1150" y1="19" x2="1150" y2="536" stroke="black" />
<line x1="1146" y1="540" x2="1150" y2="532" stroke="blue" />
<line x1="1150" y1="540" x2="1154" y2="532" stroke="blue" />
<text x="1150" y="548" font-family="Verdana" font-size="8" text-anchor="middle"  dominant-baseline="middle" fill="black" > 521</text>
<text x="1350" y="7" font-family="Verdana" font-size="7" text-anchor="middle"  dominant-baseline="middle" fill="black" > C8</text>
<circle cx="1350" cy="15" r="4" fill="white" stroke="black" />
<line x1="1350" y1="19" x2="1350" y2="158" stroke="black" />
<line x1="1250" y1="158" x2="1450" y2="158" stroke="black" />
<text x="1375" y="150" font-family="Verdana" font-size="8" text-anchor="middle"  dominant-baseline="middle" fill="black" > 143</text>
<circle cx="1250" cy="158" r="4" fill="white" stroke="black" />
<circle cx="1350" cy="158" r="4" fill="white" stroke="black" />
<circle cx="1450" cy="158" r="4" fill="white" stroke="black" />
<line x1="1250" y1="162" x2="1250" y2="167" stroke="black" />
<line x1="1250" y1="167" x2="1350" y2="170" stroke="black" />
<line x1="1350" y1="162" x2="1350" y2="167" stroke="black" />
<line x1="1350" y1="167" x2="1350" y2="170" stroke="black" />
<line x1="1450" y1="162" x2="1450" y2="167" stroke="black" />
<line x1="1450" y1="167" x2="1350" y2="170" stroke="black" />
<text x="1350" y="158" font-family="Verdana" font-size="8" text-anchor="middle"  dominant-baseline="middle" fill="black" > 155</text>
<circle cx="1350" cy="170" r="4" fill="white" stroke="black" />
<line x1="1350" y1="174" x2="1350" y2="736" stroke="black" />
<circle cx="1350" cy="736" r="4" fill="white" stroke="black" />
<text x="1350" y="748" font-family="Verdana" font-size="8" text-anchor="middle"  dominant-baseline="middle" fill="black" > 721</text>
<text x="1700" y="7" font-family="Verdana" font-size="7" text-anchor="middle"  dominant-baseline="middle" fill="black" > C9</text>
<circle cx="1700" cy="15" r="4" fill="white" stroke="black" />
<line x1="1700" y1="19" x2="1700" y2="286" stroke="black" />
<line x1="1550" y1="286" x2="1850" y2="286" stroke="black" />
<text x="1725" y="278" font-family="Verdana" font-size="8" text-anchor="middle"  dominant-baseline="middle" fill="black" > 271</text>
<circle cx="1550" cy="286" r="4" fill="white" stroke="black" />
<circle cx="1650" cy="286" r="4" fill="white" stroke="black" />
<line x1="1550" y1="290" x2="1550" y2="316" stroke="black" />
<line x1="1550" y1="316" x2="1600" y2="325" stroke="black" />
<line x1="1650" y1="290" x2="1650" y2="316" stroke="black" />
<line x1="1650" y1="316" x2="1600" y2="325" stroke="black" />
<text x="1600" y="313" font-family="Verdana" font-size="8" text-anchor="middle"  dominant-baseline="middle" fill="black" > 310</text>
<circle cx="1600" cy="325" r="4" fill="white" stroke="black" />
<line x1="1600" y1="329" x2="1600" y2="443" stroke="black" />
<line x1="1596" y1="439" x2="1604" y2="447" stroke="red" />
<line x1="1596" y1="447" x2="1604" y2="439" stroke="red" />
<text x="1600" y="455" font-family="Verdana" font-size="8" text-anchor="middle"  dominant-baseline="middle" fill="black" > 428</text>
<circle cx="1750" cy="286" r="4" fill="white" stroke="black" />
<line x1="1750" y1="290" x2="1750" y2="736" stroke="black" />
<circle cx="1750" cy="736" r="4" fill="white" stroke="black" />
<text x="1750" y="748" font-family="Verdana" font-size="8" text-anchor="middle"  dominant-baseline="middle" fill="black" > 721</text>
<circle cx="1850" cy="286" r="4" fill="white" stroke="black" />
<line x1="1850" y1="290" x2="1850" y2="736" stroke="black" />
<circle cx="1850" cy="736" r="4" fill="white" stroke="black" />
<text x="1850" y="748" font-family="Verdana" font-size="8" text-anchor="middle"  dominant-baseline="middle" fill="black" > 721</text>
</svg>
