<?xml version="1.0" encoding="utf-8"?>
<svg xmlns="http://www.w3.org/2000/svg" version="1.1" width="650" height="750">
<rect width="650" height="15" x="0" y="0" fill="white" />
<rect width="650" height="15" x="0" y="735" fill="white" />
<rect width="25" height="750" x="0" y="0" fill="white" />
<rect width="25" height="750" x="625" y="0" fill="white" />
<rect width="610" height="144" x="25" y="15" fill="ghostwhite" />
<rect width="610" height="144" x="25" y="159" fill="snow" />
<rect width="610" height="144" x="25" y="303" fill="ghostwhite" />
<rect width="610" height="144" x="25" y="447" fill="snow" />
<rect width="610" height="144" x="25" y="591" fill="ghostwhite" />
<text x="12" y="87" font-family="Verdana" font-size="10" text-anchor="middle"  dominant-baseline="middle" fill="red" > D0</text>
<text x="12" y="231" font-family="Verdana" font-size="10" text-anchor="middle"  dominant-baseline="middle" fill="red" > D1</text>
<text x="12" y="375" font-family="Verdana" font-size="10" text-anchor="middle"  dominant-baseline="middle" fill="red" > D2</text>
<text x="12" y="519" font-family="Verdana" font-size="10" text-anchor="middle"  dominant-baseline="middle" fill="red" > D3</text>
<text x="12" y="663" font-family="Verdana" font-size="10" text-anchor="middle"  dominant-baseline="middle" fill="red" > D4</text>
<text x="12" y="20" font-family="Verdana" font-size="10" text-anchor="middle"  dominant-baseline="middle" fill="black" > 0</text>
<text x="12" y="164" font-family="Verdana" font-size="10" text-anchor="middle"  dominant-baseline="middle" fill="black" > 144</text>
<text x="12" y="308" font-family="Verdana" font-size="10" text-anchor="middle"  dominant-baseline="middle" fill="black" > 288</text>
<text x="12" y="452" font-family="Verdana" font-size="10" text-anchor="middle"  dominant-baseline="middle" fill="black" > 432</text>
<text x="12" y="596" font-family="Verdana" font-size="10" text-anchor="middle"  dominant-baseline="middle" fill="black" > 576</text>
<text x="12" y="740" font-family="Verdana" font-size="10" text-anchor="middle"  dominant-baseline="middle" fill="black" > 720</text>
<text x="100" y="7" font-family="Verdana" font-size="7" text-anchor="middle"  dominant-baseline="middle" fill="black" > C1</text>
<circle cx="100" cy="15" r="4" fill="white" stroke="black" />
<line x1="100" y1="19" x2="100" y2="153" stroke="black" />
<line x1="50" y1="153" x2="150" y2="153" stroke="black" />
<text x="125" y="145" font-family="Verdana" font-size="8" text-anchor="middle"  dominant-baseline="middle" fill="black" > 138</text>
<circle cx="50" cy="153" r="4" fill="white" stroke="black" />
<line x1="50" y1="157" x2="50" y2="430" stroke="black" />
<line x1="46" y1="426" x2="54" y2="434" stroke="red" />
<line x1="46" y1="434" x2="54" y2="426" stroke="red" />
<text x="50" y="442" font-family="Verdana" font-size="8" text-anchor="middle"  dominant-baseline="middle" fill="black" > 415</text>
<circle cx="150" cy="153" r="4" fill="white" stroke="black" />
<line x1="150" y1="157" x2="150" y2="218" stroke="black" />
<line x1="146" y1="214" x2="154" y2="222" stroke="red" />
<line x1="146" y1="222" x2="154" y2="214" stroke="red" />
<text x="150" y="230" font-family="Verdana" font-size="8" text-anchor="middle"  dominant-baseline="middle" fill="black" > 203</text>
<text x="250" y="7" font-family="Verdana" font-size="7" text-anchor="middle"  dominant-baseline="middle" fill="black" > C2</text>
<circle cx="250" cy="15" r="4" fill="white" stroke="black" />
<line x1="250" y1="19" x2="250" y2="295" stroke="black" />
<line x1="246" y1="299" x2="250" y2="291" stroke="blue" />
<line x1="250" y1="299" x2="254" y2="291" stroke="blue" />
<text x="250" y="307" font-family="Verdana" font-size="8" text-anchor="middle"  dominant-baseline="middle" fill="black" > 280</text>
<text x="350" y="7" font-family="Verdana" font-size="7" text-anchor="middle"  dominant-baseline="middle" fill="black" > C3</text>
<circle cx="350" cy="15" r="4" fill="white" stroke="black" />
<line x1="350" y1="19" x2="350" y2="736" stroke="black" />
<circle cx="350" cy="736" r="4" fill="white" stroke="black" />
<text x="350" y="748" font-family="Verdana" font-size="8" text-anchor="middle"  dominant-baseline="middle" fill="black" > 721</text>
<text x="500" y="7" font-family="Verdana" font-size="7" text-anchor="middle"  dominant-baseline="middle" fill="black" > C4</text>
<circle cx="500" cy="15" r="4" fill="white" stroke="black" />
<line x1="500" y1="19" x2="500" y2="259" stroke="black" />
<line x1="450" y1="259" x2="550" y2="259" stroke="black" />
<text x="525" y="251" font-family="Verdana" font-size="8" text-anchor="middle"  dominant-baseline="middle" fill="black" > 244</text>
<circle cx="450" cy="259" r="4" fill="white" stroke="black" />
<line x1="450" y1="263" x2="450" y2="494" stroke="black" />
<line x1="446" y1="490" x2="454" y2="498" stroke="red" />
<line x1="446" y1="498" x2="454" y2="490" stroke="red" />
<text x="450" y="506" font-family="Verdana" font-size="8" text-anchor="middle"  dominant-baseline="middle" fill="black" > 479</text>
<circle cx="550" cy="259" r="4" fill="white" stroke="black" />
<line x1="550" y1="263" x2="550" y2="736" stroke="black" />
<circle cx="550" cy="736" r="4" fill="white" stroke="black" />
<text x="550" y="748" font-family="Verdana" font-size="8" text-anchor="middle"  dominant-baseline="middle" fill="black" > 721</text>
</svg>
