<?xml version="1.0" encoding="utf-8"?>
<svg xmlns="http://www.w3.org/2000/svg" version="1.1" width="2450" height="750">
<rect width="2450" height="15" x="0" y="0" fill="white" />
<rect width="2450" height="15" x="0" y="735" fill="white" />
<rect width="25" height="750" x="0" y="0" fill="white" />
<rect width="25" height="750" x="2425" y="0" fill="white" />
<rect width="2410" height="144" x="25" y="15" fill="ghostwhite" />
<rect width="2410" height="144" x="25" y="159" fill="snow" />
<rect width="2410" height="144" x="25" y="303" fill="ghostwhite" />
<rect width="2410" height="144" x="25" y="447" fill="snow" />
<rect width="2410" height="144" x="25" y="591" fill="ghostwhite" />
<text x="12" y="87" font-family="Verdana" font-size="10" text-anchor="middle"  dominant-baseline="middle" fill="red" > D0</text>
<text x="12" y="231" font-family="Verdana" font-size="10" text-anchor="middle"  dominant-baseline="middle" fill="red" > D1</text>
<text x="12" y="375" font-family="Verdana" font-size="10" text-anchor="middle"  dominant-baseline="middle" fill="red" > D2</text>
<text x="12" y="519" font-family="Verdana" font-size="10" text-anchor="middle"  dominant-baseline="middle" fill="red" > D3</text>
<text x="12" y="663" font-family="Verdana" font-size="10" text-anchor="middle"  dominant-baseline="middle" fill="red" > D4</text>
<text x="12" y="20" font-family="Verdana" font-size="10" text-anchor="middle"  dominant-baseline="middle" fill="black" > 0</text>
<text x="12" y="164" font-family="Verdana" font-size="10" text-anchor="middle"  dominant-baseline="middle" fill="black" > 144</text>
<text x="12" y="308" font-family="Verdana" font-size="10" text-anchor="middle"  dominant-baseline="middle" fill="black" > 288</text>
<text x="12" y="452" font-family="Verdana" font-size="10" text-anchor="middle"  dominant-baseline="middle" fill="black" > 432</text>
<text x="12" y="596" font-family="Verdana" font-size="10" text-anchor="middle"  dominant-baseline="middle" fill="black" > 576</text>
<text x="12" y="740" font-family="Verdana" font-size="10" text-anchor="middle"  dominant-baseline="middle" fill="black" > 720</text>
<text x="50" y="7" font-family="Verdana" font-size="7" text-anchor="middle"  dominant-baseline="middle" fill="black" > C1</text>
<circle cx="50" cy="15" r="4" fill="white" stroke="black" />
<line x1="50" y1="19" x2="50" y2="73" stroke="black" />
<line x1="46" y1="77" x2="50" y2="69" stroke="blue" />
<line x1="50" y1="77" x2="54" y2="69" stroke="blue" />
<text x="50" y="85" font-family="Verdana" font-size="8" text-anchor="middle"  dominant-baseline="middle" fill="black" > 58</text>
<text x="150" y="7" font-family="Verdana" font-size="7" text-anchor="middle"  dominant-baseline="middle" fill="black" > C2</text>
<circle cx="150" cy="15" r="4" fill="white" stroke="black" />
<line x1="150" y1="19" x2="150" y2="100" stroke="black" />
<line x1="146" y1="104" x2="150" y2="96" stroke="blue" />
<line x1="150" y1="104" x2="154" y2="96" stroke="blue" />
<text x="150" y="112" font-family="Verdana" font-size="8" text-anchor="middle"  dominant-baseline="middle" fill="black" > 85</text>
<text x="350" y="7" font-family="Verdana" font-size="7" text-anchor="middle"  dominant-baseline="middle" fill="black" > C3</text>
<circle cx="350" cy="15" r="4" fill="white" stroke="black" />
<line x1="350" y1="19" x2="350" y2="450" stroke="black" />
<line x1="250" y1="450" x2="450" y2="450" stroke="black" />
<text x="375" y="442" font-family="Verdana" font-size="8" text-anchor="middle"  dominant-baseline="middle" fill="black" > 435</text>
<circle cx="250" cy="450" r="4" fill="white" stroke="black" />
<circle cx="350" cy="450" r="4" fill="white" stroke="black" />
<line x1="250" y1="454" x2="250" y2="468" stroke="black" />
<line x1="250" y1="468" x2="300" y2="474" stroke="black" />
<line x1="350" y1="454" x2="350" y2="468" stroke="black" />
<line x1="350" y1="468" x2="300" y2="474" stroke="black" />
<text x="300" y="462" font-family="Verdana" font-size="8" text-anchor="middle"  dominant-baseline="middle" fill="black" > 459</text>
<circle cx="300" cy="474" r="4" fill="white" stroke="black" />
<circle cx="450" cy="450" r="4" fill="white" stroke="black" />
<line x1="300" y1="478" x2="300" y2="487" stroke="black" />
<line x1="300" y1="487" x2="375" y2="491" stroke="black" />
<line x1="450" y1="454" x2="450" y2="487" stroke="black" />
<line x1="450" y1="487" x2="375" y2="491" stroke="black" />
<text x="375" y="479" font-family="Verdana" font-size="8" text-anchor="middle"  dominant-baseline="middle" fill="black" > 476</text>
<circle cx="375" cy="491" r="4" fill="white" stroke="black" />
<line x1="375" y1="495" x2="375" y2="496" stroke="black" />
<line x1="371" y1="492" x2="379" y2="500" stroke="red" />
<line x1="371" y1="500" x2="379" y2="492" stroke="red" />
<text x="375" y="508" font-family="Verdana" font-size="8" text-anchor="middle"  dominant-baseline="middle" fill="black" > 481</text>
<text x="600" y="7" font-family="Verdana" font-size="7" text-anchor="middle"  dominant-baseline="middle" fill="black" > C4</text>
<circle cx="600" cy="15" r="4" fill="white" stroke="black" />
<line x1="600" y1="19" x2="600" y2="201" stroke="black" />
<line x1="550" y1="201" x2="650" y2="201" stroke="black" />
<text x="625" y="193" font-family="Verdana" font-size="8" text-anchor="middle"  dominant-baseline="middle" fill="black" > 186</text>
<circle cx="550" cy="201" r="4" fill="white" stroke="black" />
<line x1="550" y1="205" x2="550" y2="395" stroke="black" />
<line x1="525" y1="395" x2="575" y2="395" stroke="black" />
<text x="562" y="387" font-family="Verdana" font-size="8" text-anchor="middle"  dominant-baseline="middle" fill="black" > 380</text>
<circle cx="525" cy="395" r="4" fill="white" stroke="black" />
<line x1="525" y1="399" x2="525" y2="736" stroke="black" />
<circle cx="525" cy="736" r="4" fill="white" stroke="black" />
<text x="525" y="748" font-family="Verdana" font-size="8" text-anchor="middle"  dominant-baseline="middle" fill="black" > 721</text>
<circle cx="575" cy="395" r="4" fill="white" stroke="black" />
<line x1="575" y1="399" x2="575" y2="736" stroke="black" />
<circle cx="575" cy="736" r="4" fill="white" stroke="black" />
<text x="575" y="748" font-family="Verdana" font-size="8" text-anchor="middle"  dominant-baseline="middle" fill="black" > 721</text>
<circle cx="650" cy="201" r="4" fill="white" stroke="black" />
<line x1="650" y1="205" x2="650" y2="380" stroke="black" />
<line x1="625" y1="380" x2="675" y2="380" stroke="black" />
<text x="662" y="372" font-family="Verdana" font-size="8" text-anchor="middle"  dominant-baseline="middle" fill="black" > 365</text>
<circle cx="625" cy="380" r="4" fill="white" stroke="black" />
<line x1="625" y1="384" x2="625" y2="395" stroke="black" />
<line x1="621" y1="391" x2="629" y2="399" stroke="red" />
<line x1="621" y1="399" x2="629" y2="391" stroke="red" />
<text x="625" y="407" font-family="Verdana" font-size="8" text-anchor="middle"  dominant-baseline="middle" fill="black" > 380</text>
<circle cx="675" cy="380" r="4" fill="white" stroke="black" />
<line x1="675" y1="384" x2="675" y2="735" stroke="black" />
<line x1="671" y1="739" x2="675" y2="731" stroke="blue" />
<line x1="675" y1="739" x2="679" y2="731" stroke="blue" />
<text x="675" y="747" font-family="Verdana" font-size="8" text-anchor="middle"  dominant-baseline="middle" fill="black" > 720</text>
<text x="800" y="7" font-family="Verdana" font-size="7" text-anchor="middle"  dominant-baseline="middle" fill="black" > C5</text>
<circle cx="800" cy="15" r="4" fill="white" stroke="black" />
<line x1="800" y1="19" x2="800" y2="232" stroke="black" />
<line x1="750" y1="232" x2="850" y2="232" stroke="black" />
<text x="825" y="224" font-family="Verdana" font-size="8" text-anchor="middle"  dominant-baseline="middle" fill="black" > 217</text>
<circle cx="750" cy="232" r="4" fill="white" stroke="black" />
<line x1="750" y1="236" x2="750" y2="527" stroke="black" />
<line x1="746" y1="531" x2="750" y2="523" stroke="blue" />
<line x1="750" y1="531" x2="754" y2="523" stroke="blue" />
<text x="750" y="539" font-family="Verdana" font-size="8" text-anchor="middle"  dominant-baseline="middle" fill="black" > 512</text>
<circle cx="850" cy="232" r="4" fill="white" stroke="black" />
<line x1="850" y1="236" x2="850" y2="546" stroke="black" />
<line x1="825" y1="546" x2="875" y2="546" stroke="black" />
<text x="862" y="538" font-family="Verdana" font-size="8" text-anchor="middle"  dominant-baseline="middle" fill="black" > 531</text>
<circle cx="825" cy="546" r="4" fill="white" stroke="black" />
<circle cx="875" cy="546" r="4" fill="white" stroke="black" />
<line x1="825" y1="550" x2="825" y2="576" stroke="black" />
<line x1="825" y1="576" x2="850" y2="585" stroke="black" />
<line x1="875" y1="550" x2="875" y2="576" stroke="black" />
<line x1="875" y1="576" x2="850" y2="585" stroke="black" />
<text x="850" y="573" font-family="Verdana" font-size="8" text-anchor="middle"  dominant-baseline="middle" fill="black" > 570</text>
<circle cx="850" cy="585" r="4" fill="white" stroke="black" />
<line x1="850" y1="589" x2="850" y2="668" stroke="black" />
<line x1="846" y1="664" x2="854" y2="672" stroke="red" />
<line x1="846" y1="672" x2="854" y2="664" stroke="red" />
<text x="850" y="680" font-family="Verdana" font-size="8" text-anchor="middle"  dominant-baseline="middle" fill="black" > 653</text>
<text x="950" y="7" font-family="Verdana" font-size="7" text-anchor="middle"  dominant-baseline="middle" fill="black" > C6</text>
<circle cx="950" cy="15" r="4" fill="white" stroke="black" />
<line x1="950" y1="19" x2="950" y2="736" stroke="black" />
<circle cx="950" cy="736" r="4" fill="white" stroke="black" />
<text x="950" y="748" font-family="Verdana" font-size="8" text-anchor="middle"  dominant-baseline="middle" fill="black" > 721</text>
<text x="1050" y="7" font-family="Verdana" font-size="7" text-anchor="middle"  dominant-baseline="middle" fill="black" > C7</text>
<circle cx="1050" cy="15" r="4" fill="white" stroke="black" />
<line x1="1050" y1="19" x2="1050" y2="715" stroke="black" />
<line x1="1046" y1="711" x2="1054" y2="719" stroke="red" />
<line x1="1046" y1="719" x2="1054" y2="711" stroke="red" />
<text x="1050" y="727" font-family="Verdana" font-size="8" text-anchor="middle"  dominant-baseline="middle" fill="black" > 700</text>
<text x="1150" y="7" font-family="Verdana" font-size="7" text-anchor="middle"  dominant-baseline="middle" fill="black" > C8</text>
<circle cx="1150" cy="15" r="4" fill="white" stroke="black" />
<line x1="1150" y1="19" x2="1150" y2="177" stroke="black" />
<line x1="1146" y1="181" x2="1150" y2="173" stroke="blue" />
<line x1="1150" y1="181" x2="1154" y2="173" stroke="blue" />
<text x="1150" y="189" font-family="Verdana" font-size="8" text-anchor="middle"  dominant-baseline="middle" fill="black" > 162</text>
<text x="1250" y="7" font-family="Verdana" font-size="7" text-anchor="middle"  dominant-baseline="middle" fill="black" > C9</text>
<circle cx="1250" cy="15" r="4" fill="white" stroke="black" />
<line x1="1250" y1="19" x2="1250" y2="56" stroke="black" />
<line x1="1246" y1="60" x2="1250" y2="52" stroke="blue" />
<line x1="1250" y1="60" x2="1254" y2="52" stroke="blue" />
<text x="1250" y="68" font-family="Verdana" font-size="8" text-anchor="middle"  dominant-baseline="middle" fill="black" > 41</text>
<text x="1450" y="7" font-family="Verdana" font-size="7" text-anchor="middle"  dominant-baseline="middle" fill="black" > C10</text>
<circle cx="1450" cy="15" r="4" fill="white" stroke="black" />
<line x1="1450" y1="19" x2="1450" y2="417" stroke="black" />
<line x1="1350" y1="417" x2="1550" y2="417" stroke="black" />
<text x="1475" y="409" font-family="Verdana" font-size="8" text-anchor="middle"  dominant-baseline="middle" fill="black" > 402</text>
<circle cx="1350" cy="417" r="4" fill="white" stroke="black" />
<circle cx="1450" cy="417" r="4" fill="white" stroke="black" />
<line x1="1350" y1="421" x2="1350" y2="431" stroke="black" />
<line x1="1350" y1="431" x2="1400" y2="435" stroke="black" />
<line x1="1450" y1="421" x2="1450" y2="431" stroke="black" />
<line x1="1450" y1="431" x2="1400" y2="435" stroke="black" />
<text x="1400" y="423" font-family="Verdana" font-size="8" text-anchor="middle"  dominant-baseline="middle" fill="black" > 420</text>
<circle cx="1400" cy="435" r="4" fill="white" stroke="black" />
<line x1="1400" y1="439" x2="1400" y2="451" stroke="black" />
<line x1="1396" y1="447" x2="1404" y2="455" stroke="red" />
<line x1="1396" y1="455" x2="1404" y2="447" stroke="red" />
<text x="1400" y="463" font-family="Verdana" font-size="8" text-anchor="middle"  dominant-baseline="middle" fill="black" > 436</text>
<circle cx="1550" cy="417" r="4" fill="white" stroke="black" />
<line x1="1550" y1="421" x2="1550" y2="450" stroke="black" />
<line x1="1546" y1="446" x2="1554" y2="454" stroke="red" />
<line x1="1546" y1="454" x2="1554" y2="446" stroke="red" />
<text x="1550" y="462" font-family="Verdana" font-size="8" text-anchor="middle"  dominant-baseline="middle" fill="black" > 435</text>
<text x="1650" y="7" font-family="Verdana" font-size="7" text-anchor="middle"  dominant-baseline="middle" fill="black" > C11</text>
<circle cx="1650" cy="15" r="4" fill="white" stroke="black" />
<line x1="1650" y1="19" x2="1650" y2="736" stroke="black" />
<circle cx="1650" cy="736" r="4" fill="white" stroke="black" />
<text x="1650" y="748" font-family="Verdana" font-size="8" text-anchor="middle"  dominant-baseline="middle" fill="black" > 721</text>
<text x="1750" y="7" font-family="Verdana" font-size="7" text-anchor="middle"  dominant-baseline="middle" fill="black" > C12</text>
<circle cx="1750" cy="15" r="4" fill="white" stroke="black" />
<line x1="1750" y1="19" x2="1750" y2="736" stroke="black" />
<circle cx="1750" cy="736" r="4" fill="white" stroke="black" />
<text x="1750" y="748" font-family="Verdana" font-size="8" text-anchor="middle"  dominant-baseline="middle" fill="black" > 721</text>
<text x="1950" y="7" font-family="Verdana" font-size="7" text-anchor="middle"  dominant-baseline="middle" fill="black" > C13</text>
<circle cx="1950" cy="15" r="4" fill="white" stroke="black" />
<line x1="1950" y1="19" x2="1950" y2="392" stroke="black" />
<line x1="1850" y1="392" x2="2050" y2="392" stroke="black" />
<text x="1975" y="384" font-family="Verdana" font-size="8" text-anchor="middle"  dominant-baseline="middle" fill="black" > 377</text>
<circle cx="1850" cy="392" r="4" fill="white" stroke="black" />
<circle cx="1950" cy="392" r="4" fill="white" stroke="black" />
<line x1="1850" y1="396" x2="1850" y2="409" stroke="black" />
<line x1="1850" y1="409" x2="1900" y2="414" stroke="black" />
<line x1="1950" y1="396" x2="1950" y2="409" stroke="black" />
<line x1="1950" y1="409" x2="1900" y2="414" stroke="black" />
<text x="1900" y="402" font-family="Verdana" font-size="8" text-anchor="middle"  dominant-baseline="middle" fill="black" > 399</text>
<circle cx="1900" cy="414" r="4" fill="white" stroke="black" />
<circle cx="2050" cy="392" r="4" fill="white" stroke="black" />
<line x1="1900" y1="418" x2="1900" y2="421" stroke="black" />
<line x1="1900" y1="421" x2="1975" y2="423" stroke="black" />
<line x1="2050" y1="396" x2="2050" y2="421" stroke="black" />
<line x1="2050" y1="421" x2="1975" y2="423" stroke="black" />
<text x="1975" y="411" font-family="Verdana" font-size="8" text-anchor="middle"  dominant-baseline="middle" fill="black" > 408</text>
<circle cx="1975" cy="423" r="4" fill="white" stroke="black" />
<line x1="1975" y1="427" x2="1975" y2="659" stroke="black" />
<line x1="1971" y1="663" x2="1975" y2="655" stroke="blue" />
<line x1="1975" y1="663" x2="1979" y2="655" stroke="blue" />
<text x="1975" y="671" font-family="Verdana" font-size="8" text-anchor="middle"  dominant-baseline="middle" fill="black" > 644</text>
<text x="2200" y="7" font-family="Verdana" font-size="7" text-anchor="middle"  dominant-baseline="middle" fill="black" > C14</text>
<circle cx="2200" cy="15" r="4" fill="white" stroke="black" />
<line x1="2200" y1="19" x2="2200" y2="245" stroke="black" />
<line x1="2150" y1="245" x2="2250" y2="245" stroke="black" />
<text x="2225" y="237" font-family="Verdana" font-size="8" text-anchor="middle"  dominant-baseline="middle" fill="black" > 230</text>
<circle cx="2150" cy="245" r="4" fill="white" stroke="black" />
<line x1="2150" y1="249" x2="2150" y2="381" stroke="black" />
<line x1="2146" y1="385" x2="2150" y2="377" stroke="blue" />
<line x1="2150" y1="385" x2="2154" y2="377" stroke="blue" />
<text x="2150" y="393" font-family="Verdana" font-size="8" text-anchor="middle"  dominant-baseline="middle" fill="black" > 366</text>
<circle cx="2250" cy="245" r="4" fill="white" stroke="black" />
<line x1="2250" y1="249" x2="2250" y2="246" stroke="black" />
<line x1="2246" y1="250" x2="2250" y2="242" stroke="blue" />
<line x1="2250" y1="250" x2="2254" y2="242" stroke="blue" />
<text x="2250" y="258" font-family="Verdana" font-size="8" text-anchor="middle"  dominant-baseline="middle" fill="black" > 231</text>
<text x="2350" y="7" font-family="Verdana" font-size="7" text-anchor="middle"  dominant-baseline="middle" fill="black" > C15</text>
<circle cx="2350" cy="15" r="4" fill="white" stroke="black" />
<line x1="2350" y1="19" x2="2350" y2="396" stroke="black" />
<line x1="2346" y1="392" x2="2354" y2="400" stroke="red" />
<line x1="2346" y1="400" x2="2354" y2="392" stroke="red" />
<text x="2350" y="408" font-family="Verdana" font-size="8" text-anchor="middle"  dominant-baseline="middle" fill="black" > 381</text>
</svg>
